<svg width="760" height="540" viewBox="0 0 760 540" fill="none" xmlns="http://www.w3.org/2000/svg">
<g clip-path="url(#clip0)">
<rect width="760" height="540" fill="#197BDD"/>
<path d="M377 213C359.354 213 345 227.355 345 245C345 262.645 359.354 277 377 277C394.646 277 409 262.645 409 245C409 227.355 394.646 213 377 213ZM377 274.333C360.826 274.333 347.667 261.174 347.667 245C347.667 228.826 360.826 215.667 377 215.667C393.174 215.667 406.333 228.826 406.333 245C406.333 261.174 393.174 274.333 377 274.333Z" fill="white"/>
<path d="M389.721 243.879L371.055 231.879C370.646 231.612 370.117 231.598 369.695 231.829C369.266 232.064 369 232.512 369 233V257C369 257.488 369.266 257.936 369.695 258.171C369.893 258.279 370.115 258.333 370.333 258.333C370.583 258.333 370.836 258.263 371.055 258.121L389.721 246.121C390.102 245.876 390.333 245.453 390.333 245C390.333 244.547 390.102 244.124 389.721 243.879ZM371.667 254.557V235.443L386.534 245L371.667 254.557Z" fill="white"/>
<path fill-rule="evenodd" clip-rule="evenodd" d="M731.847 498.457C820.663 486.325 850.426 464.24 839.431 403.294C828.53 342.443 762.653 313.629 781.8 270.407C818.957 186.713 751.468 166.239 675.069 163.775C620.851 161.974 562.177 171.737 550.897 195.717C531.655 236.664 572.793 266.047 528.812 304.814C484.83 343.485 440.28 343.485 441.228 391.162C443.313 494.192 584.737 507.936 682.463 502.628C700.946 501.585 717.724 500.353 731.847 498.457Z" fill="#48D1EC"/>
<path fill-rule="evenodd" clip-rule="evenodd" d="M409 475.52C409.474 475.235 447.484 446.8 475.257 448.411C503.03 450.023 510.518 464.24 509.57 481.302C508.622 498.268 499.522 511.632 471.75 510.021C443.977 508.41 408.905 475.614 409 475.52Z" fill="#74C1C7"/>
<path fill-rule="evenodd" clip-rule="evenodd" d="M409 475.52C409.474 475.235 447.484 446.8 475.257 448.411C503.03 450.023 510.518 464.24 509.57 481.301L409 475.52Z" fill="#4F8CB5"/>
<path fill-rule="evenodd" clip-rule="evenodd" d="M416.109 476.088C420.09 476.373 424.451 476.752 429.19 477.036C435.257 477.51 441.892 477.984 448.811 478.363C453.077 478.647 457.437 478.932 461.892 479.216C464.83 479.406 467.674 479.595 470.612 479.69C473.551 479.88 476.489 479.974 479.333 480.164C483.788 480.354 488.243 480.638 492.413 480.827C497.058 481.017 501.418 481.207 505.494 481.396C513.646 481.775 520.471 482.06 525.115 482.249C525.21 482.249 525.21 482.154 525.21 482.154C525.21 482.06 525.115 482.06 525.115 482.06C520.565 481.775 513.646 481.301 505.494 480.733C501.418 480.448 497.058 480.164 492.413 479.88C488.243 479.595 483.788 479.311 479.333 479.027C476.489 478.837 473.551 478.647 470.612 478.553C467.674 478.363 464.83 478.268 461.892 478.079C457.532 477.889 453.077 477.605 448.811 477.415C441.986 477.036 435.351 476.752 429.19 476.467C424.451 476.278 420.09 475.994 416.109 475.804C416.015 475.804 416.015 475.899 416.015 475.899C415.92 475.994 416.015 476.088 416.109 476.088Z" fill="#396DAB"/>
<path fill-rule="evenodd" clip-rule="evenodd" d="M437.152 465.093C438.858 466.326 440.375 468.126 441.228 470.686C441.607 471.728 441.797 472.771 441.986 474.098C442.081 475.14 442.176 476.278 442.081 477.605C442.081 478.363 441.986 479.027 441.892 479.69C441.607 481.491 440.944 483.008 440.185 484.24C438.669 486.799 436.583 488.505 435.256 489.358C435.162 489.358 435.162 489.453 435.256 489.548C435.256 489.642 435.351 489.642 435.446 489.548C436.963 488.695 439.237 487.178 441.038 484.714C441.986 483.387 442.745 481.775 443.219 479.88C443.408 479.121 443.503 478.363 443.503 477.605C443.503 476.278 443.503 475.046 443.313 473.908C443.124 472.581 442.745 471.349 442.271 470.306C441.133 467.747 439.332 466.041 437.437 464.904C437.342 464.904 437.342 464.904 437.247 464.904C437.152 464.999 437.152 465.093 437.152 465.093Z" fill="#396DAB"/>
<path fill-rule="evenodd" clip-rule="evenodd" d="M492.129 467.937C493.835 469.169 495.352 470.97 496.205 473.529C496.584 474.572 496.774 475.614 496.963 476.941C497.058 477.984 497.153 479.121 497.058 480.448C497.058 481.207 496.963 481.87 496.868 482.534C496.584 484.335 495.92 485.851 495.162 487.083C493.646 489.642 491.56 491.349 490.233 492.202C490.138 492.202 490.138 492.296 490.233 492.391C490.233 492.486 490.328 492.486 490.423 492.391C491.939 491.538 494.214 490.022 496.015 487.557C496.963 486.23 497.721 484.619 498.195 482.723C498.385 481.965 498.48 481.207 498.48 480.448C498.48 479.121 498.48 477.889 498.29 476.752C498.101 475.425 497.721 474.193 497.247 473.15C496.11 470.591 494.309 468.885 492.413 467.747C492.319 467.747 492.319 467.747 492.224 467.747C492.034 467.842 492.034 467.937 492.129 467.937Z" fill="#396DAB"/>
<path fill-rule="evenodd" clip-rule="evenodd" d="M456.204 460.923C458.669 462.629 460.849 465.188 462.176 468.885C462.745 470.307 463.124 471.918 463.314 473.719C463.503 475.235 463.598 476.941 463.503 478.742C463.503 479.785 463.314 480.828 463.219 481.775C462.745 484.335 461.797 486.515 460.659 488.41C458.479 492.012 455.446 494.382 453.456 495.709C453.361 495.709 453.361 495.803 453.456 495.898C453.456 495.993 453.55 495.993 453.645 495.898C455.731 494.761 459.048 492.486 461.513 488.884C462.84 486.988 463.882 484.714 464.451 482.06C464.641 481.017 464.83 479.974 464.83 478.837C464.925 476.941 464.83 475.235 464.546 473.624C464.261 471.728 463.787 470.022 463.124 468.6C461.513 464.904 459.048 462.439 456.394 460.828C456.299 460.828 456.299 460.828 456.204 460.828C456.11 460.828 456.11 460.923 456.204 460.923Z" fill="#396DAB"/>
<path fill-rule="evenodd" clip-rule="evenodd" d="M473.93 456.753C477.058 459.027 479.996 462.25 481.797 466.989C482.461 468.885 483.029 470.97 483.314 473.34C483.598 475.33 483.693 477.51 483.598 479.88C483.598 481.302 483.409 482.534 483.124 483.861C482.461 487.178 481.323 490.022 479.807 492.486C476.868 497.13 472.982 500.258 470.328 501.87C470.233 501.87 470.233 501.964 470.328 502.059C470.328 502.154 470.423 502.154 470.518 502.059C473.266 500.543 477.437 497.604 480.565 492.96C482.271 490.496 483.598 487.557 484.357 484.145C484.641 482.818 484.83 481.491 484.83 479.975C484.925 477.51 484.736 475.33 484.451 473.245C484.072 470.781 483.503 468.601 482.65 466.705C480.66 461.966 477.437 458.743 474.119 456.563C474.025 456.563 474.025 456.563 473.93 456.563C473.835 456.658 473.835 456.753 473.93 456.753Z" fill="#396DAB"/>
<path fill-rule="evenodd" clip-rule="evenodd" d="M416.299 410.972C416.773 410.972 463.787 404.053 487.484 418.555C511.181 433.151 510.992 449.265 502.082 463.767C493.172 478.268 478.859 485.662 455.162 471.065C431.465 456.468 416.204 410.972 416.299 410.972Z" fill="#74C1C7"/>
<path fill-rule="evenodd" clip-rule="evenodd" d="M416.299 410.972C416.773 410.972 463.788 404.053 487.484 418.554C511.181 433.151 510.992 449.265 502.082 463.766L416.299 410.972Z" fill="#4F8CB5"/>
<path fill-rule="evenodd" clip-rule="evenodd" d="M422.27 414.763C425.588 416.943 429.285 419.313 433.266 421.777C438.384 425.095 444.071 428.602 449.854 432.298C453.455 434.573 457.247 436.943 460.944 439.217C463.408 440.734 465.873 442.25 468.337 443.767C470.802 445.284 473.361 446.8 475.825 448.317C479.617 450.686 483.408 452.866 487.01 455.046C490.991 457.416 494.783 459.691 498.195 461.776C505.21 465.946 511.086 469.453 515.067 471.823C515.162 471.823 515.162 471.823 515.257 471.823C515.257 471.728 515.257 471.728 515.257 471.633C511.371 469.169 505.589 465.567 498.669 461.207C495.257 459.027 491.465 456.752 487.579 454.288C483.977 452.013 480.28 449.738 476.489 447.369C474.024 445.852 471.56 444.336 469.095 442.819C466.631 441.303 464.166 439.786 461.607 438.269C457.816 435.995 454.119 433.72 450.422 431.445C444.545 427.938 438.858 424.431 433.645 421.303C429.569 418.839 425.872 416.564 422.46 414.573C422.365 414.573 422.365 414.573 422.27 414.573C422.176 414.668 422.176 414.763 422.27 414.763Z" fill="#396DAB"/>
<path fill-rule="evenodd" clip-rule="evenodd" d="M446.062 415.142C446.915 417.038 447.484 419.313 447.01 421.967C446.82 423.009 446.536 424.147 446.062 425.284C445.683 426.232 445.114 427.275 444.545 428.412C444.166 429.076 443.787 429.644 443.313 430.118C442.176 431.54 440.944 432.583 439.617 433.341C437.057 434.857 434.403 435.331 432.792 435.521C432.697 435.521 432.697 435.616 432.697 435.616C432.697 435.71 432.792 435.71 432.792 435.71C434.498 435.71 437.247 435.426 439.996 434.099C441.512 433.341 442.934 432.298 444.166 430.876C444.64 430.308 445.114 429.739 445.493 428.981C446.157 427.843 446.726 426.706 447.01 425.663C447.484 424.336 447.673 423.199 447.768 422.062C447.958 419.218 447.2 416.848 446.157 414.953C446.157 414.858 446.062 414.858 445.967 414.858C446.062 415.047 446.062 415.047 446.062 415.142Z" fill="#396DAB"/>
<path fill-rule="evenodd" clip-rule="evenodd" d="M492.982 443.767C493.835 445.663 494.404 447.938 493.93 450.591C493.74 451.634 493.456 452.771 492.982 453.909C492.603 454.857 492.034 455.899 491.465 457.037C491.086 457.7 490.707 458.269 490.233 458.743C489.096 460.165 487.863 461.207 486.536 461.966C483.977 463.482 481.323 463.956 479.712 464.146C479.617 464.146 479.617 464.24 479.617 464.24C479.617 464.335 479.712 464.335 479.712 464.335C481.418 464.335 484.167 464.051 486.916 462.724C488.432 461.966 489.854 460.923 491.086 459.501C491.56 458.932 492.034 458.364 492.413 457.606C493.077 456.468 493.645 455.331 493.93 454.288C494.404 452.961 494.593 451.824 494.688 450.686C494.878 447.843 494.119 445.473 493.077 443.577C493.077 443.483 492.982 443.483 492.887 443.483C492.982 443.672 492.982 443.672 492.982 443.767Z" fill="#396DAB"/>
<path fill-rule="evenodd" clip-rule="evenodd" d="M464.735 420.45C466.062 423.104 466.821 426.422 466.252 430.308C466.062 431.824 465.588 433.436 464.925 435.142C464.356 436.563 463.598 438.08 462.65 439.691C462.081 440.639 461.512 441.397 460.944 442.156C459.332 444.146 457.437 445.663 455.541 446.8C451.844 448.885 448.053 449.644 445.683 449.738C445.588 449.738 445.588 449.833 445.588 449.833C445.588 449.928 445.683 449.928 445.683 449.928C448.147 449.928 452.034 449.454 455.92 447.464C458.005 446.421 459.996 444.904 461.797 442.819C462.46 442.061 463.124 441.113 463.693 440.165C464.641 438.554 465.399 436.943 465.873 435.426C466.536 433.625 466.915 431.919 467.01 430.308C467.389 426.327 466.347 422.914 464.83 420.261C464.83 420.166 464.735 420.166 464.641 420.166C464.735 420.355 464.735 420.45 464.735 420.45Z" fill="#396DAB"/>
<path fill-rule="evenodd" clip-rule="evenodd" d="M482.366 425.284C484.072 428.791 485.115 433.056 484.451 437.985C484.167 439.976 483.598 442.061 482.745 444.241C481.987 446.137 481.039 448.032 479.901 450.118C479.238 451.35 478.479 452.392 477.626 453.34C475.541 455.994 473.077 457.89 470.612 459.312C465.873 462.06 460.944 462.913 457.816 463.103C457.721 463.103 457.721 463.198 457.721 463.198C457.721 463.293 457.816 463.293 457.816 463.293C460.944 463.198 465.967 462.629 470.991 460.07C473.645 458.743 476.205 456.752 478.479 454.098C479.333 453.056 480.091 451.918 480.849 450.686C482.081 448.601 483.029 446.516 483.693 444.62C484.546 442.25 485.02 440.07 485.209 438.08C485.683 432.867 484.451 428.602 482.461 425.095C482.461 425 482.366 425 482.271 425C482.271 425.095 482.271 425.189 482.366 425.284Z" fill="#396DAB"/>
<path fill-rule="evenodd" clip-rule="evenodd" d="M449.095 356.66C449.569 356.85 494.499 372.395 508.717 396.28C523.03 420.166 515.447 434.383 500.849 443.103C486.252 451.823 470.138 451.823 455.825 427.938C441.512 404.147 449.001 356.66 449.095 356.66Z" fill="#74C1C7"/>
<path fill-rule="evenodd" clip-rule="evenodd" d="M449.095 356.66C449.569 356.85 494.498 372.395 508.717 396.28C523.03 420.166 515.447 434.383 500.849 443.103L449.095 356.66Z" fill="#4F8CB5"/>
<path fill-rule="evenodd" clip-rule="evenodd" d="M452.602 362.821C454.593 366.233 456.773 370.12 459.143 374.195C462.176 379.503 465.493 385.19 469.001 391.162C471.181 394.858 473.361 398.65 475.636 402.441C477.152 404.905 478.574 407.464 480.091 409.929C481.607 412.488 483.124 414.952 484.641 417.417C487.01 421.208 489.285 425 491.465 428.601C493.835 432.582 496.205 436.279 498.29 439.786C502.555 446.705 506.157 452.582 508.622 456.468C508.622 456.563 508.717 456.563 508.811 456.468C508.906 456.468 508.906 456.373 508.811 456.278C506.442 452.297 503.029 446.421 498.859 439.312C496.773 435.805 494.593 432.014 492.224 428.033C490.043 424.431 487.863 420.639 485.588 416.753C484.167 414.289 482.65 411.73 481.133 409.265C479.617 406.801 478.1 404.242 476.584 401.777C474.309 397.986 472.034 394.289 469.759 390.593C466.157 384.716 462.745 379.029 459.522 373.816C457.057 369.74 454.782 366.044 452.697 362.632C452.697 362.537 452.602 362.537 452.508 362.632C452.602 362.726 452.508 362.821 452.602 362.821Z" fill="#396DAB"/>
<path fill-rule="evenodd" clip-rule="evenodd" d="M473.551 374.195C473.456 376.281 472.887 378.555 471.276 380.735C470.612 381.589 469.854 382.442 468.906 383.295C468.053 383.958 467.2 384.716 466.062 385.38C465.399 385.759 464.83 386.138 464.167 386.328C462.555 387.086 460.944 387.37 459.427 387.465C456.489 387.655 453.93 386.896 452.413 386.233C452.318 386.233 452.318 386.233 452.223 386.328C452.223 386.423 452.223 386.423 452.318 386.517C453.835 387.276 456.394 388.318 459.522 388.413C461.133 388.413 462.934 388.223 464.735 387.465C465.399 387.181 466.062 386.802 466.821 386.423C467.958 385.664 468.906 384.906 469.759 384.148C470.707 383.2 471.56 382.252 472.129 381.304C473.645 378.935 474.025 376.47 473.93 374.29C473.93 374.195 473.835 374.195 473.835 374.195C473.551 374.006 473.551 374.101 473.551 374.195Z" fill="#396DAB"/>
<path fill-rule="evenodd" clip-rule="evenodd" d="M501.987 421.208C501.892 423.294 501.323 425.568 499.712 427.748C499.049 428.601 498.29 429.455 497.342 430.308C496.489 430.971 495.636 431.729 494.499 432.393C493.835 432.772 493.266 433.151 492.603 433.341C490.992 434.099 489.38 434.383 487.864 434.478C484.925 434.668 482.366 433.909 480.849 433.246C480.754 433.246 480.754 433.246 480.66 433.341C480.66 433.435 480.66 433.435 480.754 433.53C482.271 434.289 484.83 435.331 487.958 435.426C489.57 435.426 491.371 435.236 493.172 434.478C493.835 434.194 494.499 433.815 495.257 433.435C496.394 432.677 497.342 431.919 498.195 431.161C499.143 430.213 499.996 429.265 500.565 428.317C502.082 425.948 502.461 423.483 502.366 421.303C502.366 421.208 502.271 421.208 502.271 421.208C502.082 421.114 501.987 421.114 501.987 421.208Z" fill="#396DAB"/>
<path fill-rule="evenodd" clip-rule="evenodd" d="M487.674 387.465C487.579 390.498 486.726 393.721 484.451 396.849C483.598 398.081 482.461 399.313 481.039 400.545C479.901 401.588 478.574 402.536 476.963 403.484C476.11 404.052 475.162 404.526 474.309 404.905C471.939 405.948 469.57 406.422 467.389 406.517C463.124 406.706 459.522 405.569 457.342 404.621C457.247 404.621 457.247 404.621 457.152 404.716C457.152 404.811 457.152 404.811 457.247 404.905C459.427 406.043 463.124 407.465 467.484 407.465C469.759 407.465 472.318 407.085 474.878 406.043C475.826 405.664 476.773 405.19 477.721 404.526C479.333 403.484 480.754 402.441 481.892 401.398C483.314 400.071 484.451 398.744 485.304 397.417C487.484 394.005 488.148 390.593 487.958 387.465C487.958 387.37 487.864 387.37 487.864 387.37C487.674 387.37 487.674 387.465 487.674 387.465Z" fill="#396DAB"/>
<path fill-rule="evenodd" clip-rule="evenodd" d="M501.039 399.882C500.944 403.768 499.901 408.033 496.963 412.109C495.826 413.72 494.404 415.332 492.603 416.943C491.086 418.27 489.38 419.597 487.389 420.829C486.252 421.587 485.02 422.156 483.882 422.725C480.754 424.052 477.721 424.62 474.877 424.81C469.38 425 464.64 423.483 461.797 422.251C461.702 422.251 461.702 422.251 461.607 422.346C461.607 422.44 461.607 422.44 461.702 422.535C464.546 423.957 469.285 425.758 474.877 425.758C477.816 425.758 481.039 425.284 484.356 423.957C485.588 423.483 486.821 422.82 488.053 422.061C490.138 420.734 491.939 419.407 493.456 417.986C495.257 416.279 496.679 414.573 497.816 412.867C500.66 408.507 501.513 404.052 501.418 400.071C501.418 399.977 501.323 399.977 501.323 399.977C501.134 399.787 501.039 399.787 501.039 399.882Z" fill="#396DAB"/>
<path d="M688.624 456.563H677.155V541.159H688.624V456.563Z" fill="#445465"/>
<path d="M691.183 456.563H682.937V541.159H691.183V456.563Z" fill="#6F7B88"/>
<path d="M585.305 456.563H573.836V511.538H585.305V456.563Z" fill="#0097CD"/>
<path d="M587.864 456.563H579.618V511.538H587.864V456.563Z" fill="#9DE6D7"/>
<path d="M720.062 456.622H708.423V541.253H720.062V456.622Z" fill="#445465"/>
<path d="M722.707 456.622H714.243V541.782H722.707V456.622Z" fill="#6F7B88"/>
<path d="M795.923 450.497H577.722V460.449H795.923V450.497Z" fill="#445465"/>
<path fill-rule="evenodd" clip-rule="evenodd" d="M555.732 364.907C563.03 358.935 527.674 381.968 522.556 397.323C517.437 412.678 529.191 427.559 529.191 427.559C535.447 409.834 548.528 370.878 555.732 364.907Z" fill="#F6AC3B"/>
<path fill-rule="evenodd" clip-rule="evenodd" d="M656.965 381.494L755.354 379.693L756.776 381.494L739.904 447.274H640.093L656.965 381.494Z" fill="#717070"/>
<path fill-rule="evenodd" clip-rule="evenodd" d="M655.543 379.693H755.354L738.482 445.378H638.576L655.543 379.693Z" fill="#3E3938"/>
<path fill-rule="evenodd" clip-rule="evenodd" d="M657.723 382.631L642.273 442.535H736.207L751.658 382.631H657.723Z" fill="white"/>
<path fill-rule="evenodd" clip-rule="evenodd" d="M668.244 415.521H701.989L697.723 432.393H663.979L668.244 415.521Z" fill="#D4F6F2"/>
<path fill-rule="evenodd" clip-rule="evenodd" d="M668.244 415.521H701.989L701.515 417.512H667.771L668.244 415.521Z" fill="#00A0E9"/>
<path fill-rule="evenodd" clip-rule="evenodd" d="M672.036 419.881H675.448L674.311 424.241H668.15L669.003 421.019L669.287 419.881L669.382 419.312H672.226L672.036 419.881Z" fill="#FDD000"/>
<path fill-rule="evenodd" clip-rule="evenodd" d="M682.557 419.881H685.97L684.927 424.241H678.671L679.524 421.019L679.809 419.881L679.998 419.312H682.747L682.557 419.881Z" fill="#FDD000"/>
<path fill-rule="evenodd" clip-rule="evenodd" d="M692.415 419.881H695.828L694.69 424.241H688.529L689.382 421.019L689.572 419.881L689.761 419.312H692.51L692.415 419.881Z" fill="#FDD000"/>
<path fill-rule="evenodd" clip-rule="evenodd" d="M670.33 426.611H673.742L672.7 430.876H666.444L667.297 427.654L667.581 426.611L667.771 425.948H670.519L670.33 426.611Z" fill="#FDD000"/>
<path fill-rule="evenodd" clip-rule="evenodd" d="M680.851 426.611H684.264L683.221 430.876H677.06L677.818 427.654L678.102 426.611L678.292 425.948H681.041L680.851 426.611Z" fill="#FDD000"/>
<path fill-rule="evenodd" clip-rule="evenodd" d="M690.709 426.611H694.122L692.984 430.876H686.823L687.676 427.654L687.96 426.611L688.055 425.948H690.804L690.709 426.611Z" fill="#FDD000"/>
<path fill-rule="evenodd" clip-rule="evenodd" d="M660.187 393.437H696.302L691.657 411.446H655.638L660.187 393.437Z" fill="#D4F6F2"/>
<path fill-rule="evenodd" clip-rule="evenodd" d="M660.188 393.437H696.302L695.733 395.617H659.619L660.188 393.437Z" fill="#00A0E9"/>
<path fill-rule="evenodd" clip-rule="evenodd" d="M664.263 398.176H667.865L666.728 402.725H660.093L660.946 399.313L661.23 398.176L661.42 397.417H664.358L664.263 398.176Z" fill="#FDD000"/>
<path fill-rule="evenodd" clip-rule="evenodd" d="M675.448 398.176H679.145L677.913 402.725H671.373L672.226 399.313L672.51 398.176L672.7 397.417H675.638L675.448 398.176Z" fill="#FDD000"/>
<path fill-rule="evenodd" clip-rule="evenodd" d="M685.97 398.176H689.572L688.434 402.725H681.799L682.747 399.313L683.031 398.176L683.221 397.417H686.159L685.97 398.176Z" fill="#FDD000"/>
<path fill-rule="evenodd" clip-rule="evenodd" d="M662.368 405.285H666.065L664.832 409.929H658.292L659.145 406.422L659.429 405.285L659.619 404.621H662.557L662.368 405.285Z" fill="#FDD000"/>
<path fill-rule="evenodd" clip-rule="evenodd" d="M673.647 405.285H677.344L676.112 409.929H669.572L670.425 406.422L670.709 405.285L670.899 404.621H673.837L673.647 405.285Z" fill="#FDD000"/>
<path fill-rule="evenodd" clip-rule="evenodd" d="M684.169 405.285H687.771L686.633 409.929H679.998L680.946 406.422L681.231 405.285L681.325 404.621H684.358L684.169 405.285Z" fill="#FDD000"/>
<path d="M738.482 445.378H599.334V450.497H738.482V445.378Z" fill="#888889"/>
<path fill-rule="evenodd" clip-rule="evenodd" d="M602.746 328.984C601.135 317.325 593.836 314.956 587.391 312.965C580.945 310.975 568.433 310.311 564.168 327.846C559.902 345.476 563.409 352.111 563.409 352.111L556.016 367.845L588.718 374.575L589.381 362.632C589.381 362.632 593.836 364.622 596.395 360.357C599.713 354.86 603.41 333.818 602.746 328.984Z" fill="#FAD9C8"/>
<path d="M738.482 445.378H687.107V450.497H738.482V445.378Z" fill="#C8C9C9"/>
<path fill-rule="evenodd" clip-rule="evenodd" d="M609.761 375.049C609.761 375.049 580.85 365.475 566.158 363.58C560.566 362.821 557.817 362.442 556.68 362.253C556.3 362.158 556.395 362.158 556.016 362.347C493.267 390.688 507.106 522.96 511.655 541.253H562.225H612.794C611.277 529.311 606.443 459.217 607.486 426.421C608.813 387.465 609.761 375.049 609.761 375.049Z" fill="#F6AC3B"/>
<path fill-rule="evenodd" clip-rule="evenodd" d="M537.334 375.707C531.006 383.048 524.357 389.835 520.281 398.271L536.97 547.142L543.504 511.632L599.245 548.659C592.705 495.864 591.932 390.494 537.334 375.707Z" fill="#E39D29"/>
<path fill-rule="evenodd" clip-rule="evenodd" d="M671.752 432.961C672.131 432.108 675.259 427.085 676.112 426.611C680.946 423.104 684.643 424.147 687.96 423.388C691.278 422.725 696.207 427.18 697.818 429.075C699.43 430.971 700.662 432.772 700.283 433.815C699.904 434.857 698.008 433.341 697.344 433.151C696.681 432.961 694.88 430.876 694.88 430.876C694.88 430.876 689.761 431.54 689.572 431.729C689.382 432.014 684.358 435.995 680.472 435.805C676.586 435.521 671.752 432.961 671.752 432.961Z" fill="#FAD9C8"/>
<path fill-rule="evenodd" clip-rule="evenodd" d="M609.381 474.761C609.381 474.761 607.959 478.553 596.395 449.454C584.736 420.355 588.149 394.574 588.149 394.574C588.149 394.574 600.756 412.014 604.737 422.914C608.907 433.909 608.433 448.696 609.381 474.761Z" fill="#E39D29"/>
<path fill-rule="evenodd" clip-rule="evenodd" d="M610.235 375.143C603.884 374.006 596.301 378.176 593.267 382.821C572.699 414.668 617.154 489.168 638.86 489.548C651.278 489.737 684.169 435.9 684.169 435.9C688.15 430.023 678.576 425.379 673.458 428.886L642.841 450.212C630.519 425.568 623.884 377.608 610.235 375.143Z" fill="#F6AC3B"/>
<path fill-rule="evenodd" clip-rule="evenodd" d="M586.064 348.793C584.926 349.078 576.016 353.248 572.888 353.343C569.665 353.438 563.409 352.206 563.409 352.206C563.409 352.206 556.49 335.334 559.333 326.993C562.177 318.652 567.011 315.619 567.011 315.619C567.011 315.619 567.58 313.439 569.571 311.354C571.561 309.174 583.883 308.889 588.149 310.216C592.509 311.448 593.647 312.302 598.67 312.965C603.789 313.629 606.538 313.249 606.538 313.249L606.443 317.799L608.149 317.325C608.149 317.325 608.718 319.884 607.201 325.761C605.685 331.637 603.41 333.059 602.083 333.818C600.756 334.481 598.576 334.481 598.576 334.481L596.68 338.272C596.68 338.272 595.827 334.291 591.466 335.334C587.201 336.377 587.106 339.505 587.391 342.632C587.58 345.76 588.907 348.035 588.433 348.035C588.054 347.751 586.064 348.793 586.064 348.793Z" fill="#445465"/>
<path d="M795.924 450.497H718.008V460.449H795.924V450.497Z" fill="#6F7B88"/>
<path fill-rule="evenodd" clip-rule="evenodd" d="M585.874 511.632C583.315 482.628 572.414 418.175 565.021 406.517C537.532 363.011 492.224 372.774 480.944 411.446C477.247 424.336 480.66 443.577 485.209 460.923C492.129 487.083 496.868 534.933 499.428 543.274H585.874V511.632Z" fill="#445465"/>
<path fill-rule="evenodd" clip-rule="evenodd" d="M552.888 408.033C560.187 419.502 569.121 518.896 571.965 548.658H589.672C589.482 546.857 585.59 507.841 585.4 505.756C584.168 494.571 582.083 479.974 579.618 465.378C579.334 463.671 579.049 462.06 578.765 460.449C578.575 459.217 578.291 457.89 578.102 456.657C578.007 455.994 577.817 455.33 577.722 454.572C573.646 432.582 568.907 412.583 565.116 406.612C556.016 392.11 544.831 383.579 533.646 379.977C530.423 378.935 527.201 378.366 524.073 378.176C522.177 377.987 520.281 378.082 518.385 378.176C515.731 378.366 513.172 378.84 510.708 379.598C512.508 379.693 514.309 379.882 516.11 380.167C517.911 380.451 519.618 380.925 521.419 381.399C524.547 382.347 527.674 383.769 530.708 385.475C538.575 390.119 546.253 397.512 552.888 408.033Z" fill="#6F7B88"/>
<path fill-rule="evenodd" clip-rule="evenodd" d="M573.741 488.505H651.562C655.164 488.505 658.102 491.443 658.102 495.045C658.102 498.647 655.164 501.585 651.562 501.585H573.741C570.139 501.585 567.201 498.647 567.201 495.045C567.201 491.538 570.139 488.505 573.741 488.505Z" fill="#445465"/>
<path fill-rule="evenodd" clip-rule="evenodd" d="M693.268 428.507C693.268 428.507 695.069 431.256 695.354 432.298C695.638 433.341 696.207 434.857 695.069 435.331C693.932 435.805 692.415 433.151 691.941 432.488C691.467 431.824 689.856 430.308 689.856 430.118C690.046 429.929 693.268 428.507 693.268 428.507Z" fill="#FAD9C8"/>
<path fill-rule="evenodd" clip-rule="evenodd" d="M689.288 430.497C689.667 430.971 691.278 432.393 691.183 433.53C690.994 434.573 689.951 435.142 689.003 434.478C688.15 433.815 687.107 432.488 687.107 432.488L689.288 430.497Z" fill="#FAD9C8"/>
<path fill-rule="evenodd" clip-rule="evenodd" d="M715.07 390.404H744.359L733.364 432.772H704.169L715.07 390.404Z" fill="#445465"/>
<path fill-rule="evenodd" clip-rule="evenodd" d="M715.07 390.404H744.359L743.885 392.204H714.691L715.07 390.404Z" fill="#888889"/>
<path fill-rule="evenodd" clip-rule="evenodd" d="M716.776 395.143H731.468L731.278 395.901H716.586L716.776 395.143Z" fill="#C8C9C9"/>
<path fill-rule="evenodd" clip-rule="evenodd" d="M716.207 397.323H723.506L723.316 398.081H716.018L716.207 397.323Z" fill="#C8C9C9"/>
<path fill-rule="evenodd" clip-rule="evenodd" d="M715.638 399.503H727.013L726.823 400.261H715.449L715.638 399.503Z" fill="#C8C9C9"/>
<path fill-rule="evenodd" clip-rule="evenodd" d="M715.069 401.683H721.799L721.515 402.441H714.88L715.069 401.683Z" fill="#C8C9C9"/>
<path fill-rule="evenodd" clip-rule="evenodd" d="M714.501 403.863H734.691L734.501 404.621H714.311L714.501 403.863Z" fill="#C8C9C9"/>
<path fill-rule="evenodd" clip-rule="evenodd" d="M713.932 406.043H728.624L728.435 406.801H713.743L713.932 406.043Z" fill="#C8C9C9"/>
<path fill-rule="evenodd" clip-rule="evenodd" d="M713.364 408.223H722.653L722.463 408.981H713.174L713.364 408.223Z" fill="#C8C9C9"/>
<path fill-rule="evenodd" clip-rule="evenodd" d="M712.795 410.403H717.344L717.06 411.161H712.605L712.795 410.403Z" fill="#C8C9C9"/>
<path fill-rule="evenodd" clip-rule="evenodd" d="M712.226 412.583H726.918L726.728 413.341H712.036L712.226 412.583Z" fill="#C8C9C9"/>
<path fill-rule="evenodd" clip-rule="evenodd" d="M711.752 414.763H722.748L722.558 415.521H711.468L711.752 414.763Z" fill="#C8C9C9"/>
<path fill-rule="evenodd" clip-rule="evenodd" d="M711.089 416.943H729.477L729.288 417.701H710.899L711.089 416.943Z" fill="#C8C9C9"/>
<path fill-rule="evenodd" clip-rule="evenodd" d="M710.614 419.123H715.07L714.88 419.881H710.33L710.614 419.123Z" fill="#C8C9C9"/>
<path fill-rule="evenodd" clip-rule="evenodd" d="M710.046 421.303H712.036L711.847 422.062H709.761L710.046 421.303Z" fill="#C8C9C9"/>
<path fill-rule="evenodd" clip-rule="evenodd" d="M709.477 423.483H724.169L723.885 424.241H709.288L709.477 423.483Z" fill="#C8C9C9"/>
<path fill-rule="evenodd" clip-rule="evenodd" d="M708.908 425.663H719.335L719.145 426.421H708.719L708.908 425.663Z" fill="#C8C9C9"/>
<path fill-rule="evenodd" clip-rule="evenodd" d="M708.34 427.843H713.079L712.89 428.602H708.15L708.34 427.843Z" fill="#C8C9C9"/>
<path fill-rule="evenodd" clip-rule="evenodd" d="M591.182 337.04C589.76 338.652 591.087 344.718 592.035 345.855C592.983 346.898 594.215 345.95 594.689 344.718C595.163 343.486 594.5 343.201 594.405 341.59C594.405 339.978 595.163 340.737 595.163 339.505C595.163 337.23 592.604 335.429 591.182 337.04Z" fill="#F5C9B2"/>
<path fill-rule="evenodd" clip-rule="evenodd" d="M595.637 361.4C594.594 361.684 593.362 361.684 591.656 360.641C587.865 358.366 584.737 354.67 584.737 354.67L585.4 367.75C586.632 368.129 587.865 368.414 589.192 368.793L589.571 362.632C589.381 362.632 592.983 364.243 595.637 361.4Z" fill="#F5C9B2"/>
<path d="M700.472 446.99H694.595V449.359H700.472V446.99Z" fill="#3E3938"/>
<path d="M700.472 446.99H698.861V449.359H700.472V446.99Z" fill="#231915"/>
<path d="M709.382 446.99H703.505V449.359H709.382V446.99Z" fill="#3E3938"/>
<path d="M709.382 446.99H707.771V449.359H709.382V446.99Z" fill="#231915"/>
<path d="M718.198 446.99H712.321V449.359H718.198V446.99Z" fill="#3E3938"/>
<path d="M718.198 446.99H716.586V449.359H718.198V446.99Z" fill="#231915"/>
<path fill-rule="evenodd" clip-rule="evenodd" d="M692.321 203.49C701.231 203.49 709.003 208.323 713.174 215.527C715.07 213.726 717.629 212.684 720.473 212.684C726.16 212.684 730.804 217.233 731.089 222.92C731.278 222.92 731.468 222.92 731.657 222.92C739.999 222.92 746.729 229.65 746.729 237.991C746.729 239.128 746.539 240.266 746.35 241.308C753.174 241.498 758.672 247.185 758.672 254.104C758.672 261.118 752.89 266.9 745.876 266.9H650.519C643.505 266.9 637.723 261.118 637.723 254.104C637.723 247.09 643.505 241.308 650.519 241.308H650.898C650.424 239.981 650.235 238.465 650.235 236.948C650.235 228.607 656.965 221.878 665.306 221.878C666.538 221.878 667.771 222.067 668.908 222.352C671.278 211.546 680.851 203.49 692.321 203.49Z" fill="#FEFEFE"/>
<path fill-rule="evenodd" clip-rule="evenodd" d="M662.652 273.061H667.865V293.724H670.424L667.865 298.179L665.306 302.539L662.747 298.179L660.188 293.724H662.652V273.061Z" fill="white"/>
<path fill-rule="evenodd" clip-rule="evenodd" d="M692.32 277.137H697.723V298.368H700.283L697.629 302.918L694.975 307.468L692.415 302.918L689.761 298.368H692.32V277.137Z" fill="white"/>
<path fill-rule="evenodd" clip-rule="evenodd" d="M708.719 288.226H712.605V303.771H714.501L712.51 307.183L710.615 310.501L708.719 307.183L706.728 303.771H708.719V288.226Z" fill="white"/>
<path fill-rule="evenodd" clip-rule="evenodd" d="M682.652 269.933V282.634H685.685L682.557 288.037L679.429 293.44L676.301 288.037L673.173 282.634H676.301V269.933H682.652Z" fill="white"/>
<path fill-rule="evenodd" clip-rule="evenodd" d="M722.463 269.933V278.748H725.117L722.368 283.582L719.619 288.321L716.871 283.582L714.122 278.748H716.776V269.933H722.463Z" fill="white"/>
<path fill-rule="evenodd" clip-rule="evenodd" d="M729.288 269.933H734.501V290.691H736.966L734.406 295.146L731.847 299.506L729.288 295.146L726.823 290.691H729.288V269.933Z" fill="white"/>
<path fill-rule="evenodd" clip-rule="evenodd" d="M697.25 401.398C665.117 387.655 661.041 372.489 660.756 321.685C676.302 320.927 689.572 317.23 697.25 311.922C704.833 317.23 718.198 320.927 733.743 321.685C733.553 372.489 729.477 387.655 697.25 401.398Z" fill="#F6AC3B"/>
<path fill-rule="evenodd" clip-rule="evenodd" d="M697.25 311.922C704.833 317.23 718.198 320.927 733.743 321.685C733.459 372.489 729.383 387.56 697.25 401.398V311.922Z" fill="#F6BE67"/>
<path fill-rule="evenodd" clip-rule="evenodd" d="M697.818 326.709C704.548 326.709 710.046 332.206 710.046 338.936V349.362H707.108V338.936C707.108 333.818 702.937 329.647 697.818 329.647C692.7 329.647 688.529 333.818 688.529 338.936V349.362H685.591V338.936C685.591 332.206 691.089 326.709 697.818 326.709Z" fill="#FEFEFE"/>
<path fill-rule="evenodd" clip-rule="evenodd" d="M684.359 346.898H711.373C712.7 346.898 713.838 348.035 713.838 349.362V369.646C713.838 370.973 712.7 372.11 711.373 372.11H684.453C683.126 372.11 681.989 370.973 681.989 369.646V349.362C681.894 348.035 683.032 346.898 684.359 346.898Z" fill="#445465"/>
<path fill-rule="evenodd" clip-rule="evenodd" d="M697.818 352.49C700.188 352.49 702.179 354.385 702.179 356.755C702.179 358.651 701.041 360.167 699.335 360.736V365.001C699.335 365.854 698.672 366.518 697.818 366.518C697.06 366.518 696.302 365.854 696.302 365.001V360.736C694.69 360.167 693.458 358.556 693.458 356.755C693.553 354.48 695.449 352.49 697.818 352.49Z" fill="#131313"/>
<path fill-rule="evenodd" clip-rule="evenodd" d="M526.632 324.339C526.632 325.666 525.779 326.709 524.546 326.993V342.158H472.034V331.732H457.247C456.963 332.964 455.825 333.817 454.593 333.817C453.076 333.817 451.844 332.585 451.844 331.069C451.844 329.552 453.076 328.32 454.593 328.32C455.92 328.32 456.963 329.173 457.247 330.405H473.361V340.832H523.125V326.993C521.892 326.709 521.039 325.571 521.039 324.339C521.039 322.823 522.272 321.59 523.788 321.59C525.4 321.496 526.632 322.728 526.632 324.339ZM454.593 329.647C453.835 329.647 453.171 330.31 453.171 331.069C453.171 331.827 453.835 332.491 454.593 332.491C455.351 332.491 456.015 331.827 456.015 331.069C455.92 330.31 455.351 329.647 454.593 329.647ZM523.883 325.666C524.641 325.666 525.305 325.003 525.305 324.244C525.305 323.486 524.641 322.823 523.883 322.823C523.125 322.823 522.461 323.486 522.461 324.244C522.461 325.003 523.125 325.666 523.883 325.666Z" fill="white"/>
<path fill-rule="evenodd" clip-rule="evenodd" d="M535.731 286.899C535.731 285.952 536.395 285.098 537.343 284.814V263.298H575.542V259.317C574.594 259.128 573.931 258.275 573.931 257.232C573.931 256.095 574.879 255.147 576.016 255.147C577.153 255.147 578.101 256.095 578.101 257.232C578.101 258.18 577.438 259.033 576.49 259.317V264.341H538.29V284.814C539.238 285.004 539.902 285.857 539.902 286.899C539.902 288.037 538.954 288.985 537.817 288.985C536.679 288.985 535.731 288.037 535.731 286.899ZM577.059 257.232C577.059 256.663 576.585 256.189 576.016 256.189C575.447 256.189 574.973 256.663 574.973 257.232C574.973 257.801 575.447 258.275 576.016 258.275C576.585 258.369 577.059 257.895 577.059 257.232ZM537.817 285.857C537.248 285.857 536.774 286.331 536.774 286.899C536.774 287.468 537.248 287.942 537.817 287.942C538.385 287.942 538.859 287.468 538.859 286.899C538.859 286.331 538.385 285.857 537.817 285.857Z" fill="white"/>
<path fill-rule="evenodd" clip-rule="evenodd" d="M757.44 213.442C757.44 212.494 758.103 211.641 759.051 211.357V189.841H797.251V185.86C796.303 185.67 795.639 184.817 795.639 183.774C795.639 182.637 796.587 181.689 797.724 181.689C798.862 181.689 799.81 182.637 799.81 183.774C799.81 184.722 799.146 185.575 798.198 185.86V190.883H759.999V211.357C760.947 211.546 761.61 212.399 761.61 213.442C761.61 214.579 760.662 215.527 759.525 215.527C758.388 215.527 757.44 214.579 757.44 213.442ZM798.862 183.774C798.862 183.206 798.388 182.732 797.819 182.732C797.251 182.732 796.777 183.206 796.777 183.774C796.777 184.343 797.251 184.817 797.819 184.817C798.388 184.817 798.862 184.343 798.862 183.774ZM759.62 212.399C759.051 212.399 758.577 212.873 758.577 213.442C758.577 214.011 759.051 214.484 759.62 214.484C760.189 214.484 760.662 214.011 760.662 213.442C760.662 212.873 760.189 212.399 759.62 212.399Z" fill="white"/>
<path fill-rule="evenodd" clip-rule="evenodd" d="M594.689 212.589C593.362 212.589 592.32 211.736 592.035 210.504H577.912V189.177H546.158C545.874 190.409 544.736 191.262 543.504 191.262C541.987 191.262 540.755 190.03 540.755 188.514C540.755 186.997 541.987 185.765 543.504 185.765C544.831 185.765 545.874 186.618 546.158 187.85H579.334V209.082H591.94C592.225 207.85 593.362 206.996 594.594 206.996C596.111 206.996 597.343 208.229 597.343 209.745C597.438 211.357 596.206 212.589 594.689 212.589ZM543.314 187.092C542.556 187.092 541.893 187.755 541.893 188.514C541.893 189.272 542.556 189.935 543.314 189.935C544.073 189.935 544.736 189.272 544.736 188.514C544.736 187.661 544.073 187.092 543.314 187.092ZM593.267 209.84C593.267 210.598 593.931 211.262 594.689 211.262C595.448 211.262 596.111 210.598 596.111 209.84C596.111 209.082 595.448 208.418 594.689 208.418C593.836 208.418 593.267 209.082 593.267 209.84Z" fill="white"/>
<path fill-rule="evenodd" clip-rule="evenodd" d="M537.058 277.99H542.177L535.352 293.25H530.139L537.058 277.99Z" fill="#FEFEFE"/>
<path fill-rule="evenodd" clip-rule="evenodd" d="M546.442 277.99H551.561L544.642 293.25H539.523L546.442 277.99Z" fill="#FEFEFE"/>
<path fill-rule="evenodd" clip-rule="evenodd" d="M555.826 277.99H560.945L554.025 293.25H548.907L555.826 277.99Z" fill="#FEFEFE"/>
<path fill-rule="evenodd" clip-rule="evenodd" d="M565.116 277.99H570.234L563.315 293.25H558.196L565.116 277.99Z" fill="#FEFEFE"/>
<path fill-rule="evenodd" clip-rule="evenodd" d="M574.5 277.99H579.618L572.699 293.25H567.58L574.5 277.99Z" fill="#FEFEFE"/>
<path fill-rule="evenodd" clip-rule="evenodd" d="M583.789 277.99H589.002L582.083 293.25H576.964L583.789 277.99Z" fill="#FEFEFE"/>
<path fill-rule="evenodd" clip-rule="evenodd" d="M593.173 277.99H598.291L591.372 293.25H586.253L593.173 277.99Z" fill="#FEFEFE"/>
<path fill-rule="evenodd" clip-rule="evenodd" d="M602.557 277.99H607.675L600.756 293.25H595.637L602.557 277.99Z" fill="#FEFEFE"/>
<path fill-rule="evenodd" clip-rule="evenodd" d="M643.505 184.533L605.969 184.817C605.021 184.817 604.263 184.059 604.263 183.111C604.263 182.163 605.021 181.405 605.969 181.405L643.505 181.121C644.453 181.121 645.211 181.879 645.211 182.827C645.211 183.775 644.453 184.533 643.505 184.533Z" fill="#FEFEFE"/>
<path fill-rule="evenodd" clip-rule="evenodd" d="M650.329 190.599L628.339 190.789C627.391 190.789 626.633 190.03 626.633 189.082C626.633 188.135 627.391 187.376 628.339 187.376L650.329 187.187C651.277 187.187 652.036 187.945 652.036 188.893C651.941 189.841 651.183 190.599 650.329 190.599Z" fill="#FEFEFE"/>
<path fill-rule="evenodd" clip-rule="evenodd" d="M649.666 177.708L615.258 177.993C614.31 177.993 613.552 177.234 613.552 176.287C613.552 175.339 614.31 174.58 615.258 174.58L649.666 174.296C650.614 174.296 651.372 175.054 651.372 176.002C651.372 176.95 650.614 177.708 649.666 177.708Z" fill="#FEFEFE"/>
<path d="M61.3203 189V177.625H65.0391C66.2734 177.625 67.2005 177.88 67.8203 178.391C68.4453 178.901 68.7578 179.656 68.7578 180.656C68.7578 181.188 68.6068 181.659 68.3047 182.07C68.0026 182.477 67.5911 182.792 67.0703 183.016C67.6849 183.188 68.1693 183.516 68.5234 184C68.8828 184.479 69.0625 185.052 69.0625 185.719C69.0625 186.74 68.7318 187.542 68.0703 188.125C67.4089 188.708 66.474 189 65.2656 189H61.3203ZM62.8203 183.68V187.773H65.2969C65.9948 187.773 66.5443 187.594 66.9453 187.234C67.3516 186.87 67.5547 186.37 67.5547 185.734C67.5547 184.365 66.8099 183.68 65.3203 183.68H62.8203ZM62.8203 182.477H65.0859C65.7422 182.477 66.2656 182.312 66.6562 181.984C67.0521 181.656 67.25 181.211 67.25 180.648C67.25 180.023 67.0677 179.57 66.7031 179.289C66.3385 179.003 65.7839 178.859 65.0391 178.859H62.8203V182.477ZM74.5703 189.156C73.4245 189.156 72.4922 188.781 71.7734 188.031C71.0547 187.276 70.6953 186.268 70.6953 185.008V184.742C70.6953 183.904 70.8542 183.156 71.1719 182.5C71.4948 181.839 71.9427 181.323 72.5156 180.953C73.0938 180.578 73.7188 180.391 74.3906 180.391C75.4896 180.391 76.3438 180.753 76.9531 181.477C77.5625 182.201 77.8672 183.237 77.8672 184.586V185.188H72.1406C72.1615 186.021 72.4036 186.695 72.8672 187.211C73.3359 187.721 73.9297 187.977 74.6484 187.977C75.1589 187.977 75.5911 187.872 75.9453 187.664C76.2995 187.456 76.6094 187.18 76.875 186.836L77.7578 187.523C77.0495 188.612 75.987 189.156 74.5703 189.156ZM74.3906 181.578C73.8073 181.578 73.3177 181.792 72.9219 182.219C72.526 182.641 72.2812 183.234 72.1875 184H76.4219V183.891C76.3802 183.156 76.1823 182.589 75.8281 182.188C75.474 181.781 74.9948 181.578 74.3906 181.578ZM79.4766 187.82L79.9766 187.203C80.5391 186.474 80.8594 185.38 80.9375 183.922L81.0703 180.547H86.5156V187.82H87.6016V191.484H86.1562V189H80.2578V191.484H78.8125L78.8203 187.82H79.4766ZM81.1875 187.82H85.0703V181.883H82.4688L82.3828 183.898C82.2943 185.581 81.8958 186.888 81.1875 187.82ZM91.9688 186.883L93.9375 180.547H95.4844L92.0859 190.305C91.5599 191.711 90.724 192.414 89.5781 192.414L89.3047 192.391L88.7656 192.289V191.117L89.1562 191.148C89.6458 191.148 90.026 191.049 90.2969 190.852C90.5729 190.654 90.7995 190.292 90.9766 189.766L91.2969 188.906L88.2812 180.547H89.8594L91.9688 186.883ZM98.2734 180.547V187.82H101.367V180.547H102.812V187.82H105.898V180.547H107.352V187.82H108.539L108.398 191.508H107.102V189H96.8203V180.547H98.2734ZM115.234 189C115.151 188.833 115.083 188.536 115.031 188.109C114.359 188.807 113.557 189.156 112.625 189.156C111.792 189.156 111.107 188.922 110.57 188.453C110.039 187.979 109.773 187.38 109.773 186.656C109.773 185.776 110.107 185.094 110.773 184.609C111.445 184.12 112.388 183.875 113.602 183.875H115.008V183.211C115.008 182.706 114.857 182.305 114.555 182.008C114.253 181.706 113.807 181.555 113.219 181.555C112.703 181.555 112.271 181.685 111.922 181.945C111.573 182.206 111.398 182.521 111.398 182.891H109.945C109.945 182.469 110.094 182.062 110.391 181.672C110.693 181.276 111.099 180.964 111.609 180.734C112.125 180.505 112.69 180.391 113.305 180.391C114.279 180.391 115.042 180.635 115.594 181.125C116.146 181.609 116.432 182.279 116.453 183.133V187.023C116.453 187.799 116.552 188.417 116.75 188.875V189H115.234ZM112.836 187.898C113.289 187.898 113.719 187.781 114.125 187.547C114.531 187.312 114.826 187.008 115.008 186.633V184.898H113.875C112.104 184.898 111.219 185.417 111.219 186.453C111.219 186.906 111.37 187.26 111.672 187.516C111.974 187.771 112.362 187.898 112.836 187.898ZM125.18 180.547V189H123.727V185.711H121.547L119.555 189H117.992L120.117 185.492C119.576 185.294 119.159 184.99 118.867 184.578C118.581 184.161 118.438 183.677 118.438 183.125C118.438 182.354 118.727 181.734 119.305 181.266C119.883 180.792 120.656 180.552 121.625 180.547H125.18ZM119.891 183.141C119.891 183.552 120.031 183.885 120.312 184.141C120.594 184.391 120.966 184.518 121.43 184.523H123.727V181.719H121.648C121.112 181.719 120.685 181.852 120.367 182.117C120.049 182.378 119.891 182.719 119.891 183.141ZM133.305 189H131.805V177.625H133.305V189ZM143.68 178.859H140.023V189H138.531V178.859H134.883V177.625H143.68V178.859ZM146.336 184.758H142.523V183.578H146.336V184.758ZM151.141 187.977C151.656 187.977 152.107 187.82 152.492 187.508C152.878 187.195 153.091 186.805 153.133 186.336H154.5C154.474 186.82 154.307 187.281 154 187.719C153.693 188.156 153.281 188.505 152.766 188.766C152.255 189.026 151.714 189.156 151.141 189.156C149.99 189.156 149.073 188.773 148.391 188.008C147.714 187.237 147.375 186.185 147.375 184.852V184.609C147.375 183.786 147.526 183.055 147.828 182.414C148.13 181.773 148.562 181.276 149.125 180.922C149.693 180.568 150.362 180.391 151.133 180.391C152.081 180.391 152.867 180.674 153.492 181.242C154.122 181.81 154.458 182.547 154.5 183.453H153.133C153.091 182.906 152.883 182.458 152.508 182.109C152.138 181.755 151.68 181.578 151.133 181.578C150.398 181.578 149.828 181.844 149.422 182.375C149.021 182.901 148.82 183.664 148.82 184.664V184.938C148.82 185.911 149.021 186.661 149.422 187.188C149.823 187.714 150.396 187.977 151.141 187.977ZM159.633 189.156C158.487 189.156 157.555 188.781 156.836 188.031C156.117 187.276 155.758 186.268 155.758 185.008V184.742C155.758 183.904 155.917 183.156 156.234 182.5C156.557 181.839 157.005 181.323 157.578 180.953C158.156 180.578 158.781 180.391 159.453 180.391C160.552 180.391 161.406 180.753 162.016 181.477C162.625 182.201 162.93 183.237 162.93 184.586V185.188H157.203C157.224 186.021 157.466 186.695 157.93 187.211C158.398 187.721 158.992 187.977 159.711 187.977C160.221 187.977 160.654 187.872 161.008 187.664C161.362 187.456 161.672 187.18 161.938 186.836L162.82 187.523C162.112 188.612 161.049 189.156 159.633 189.156ZM159.453 181.578C158.87 181.578 158.38 181.792 157.984 182.219C157.589 182.641 157.344 183.234 157.25 184H161.484V183.891C161.443 183.156 161.245 182.589 160.891 182.188C160.536 181.781 160.057 181.578 159.453 181.578ZM171.75 184.867C171.75 186.154 171.456 187.19 170.867 187.977C170.279 188.763 169.482 189.156 168.477 189.156C167.451 189.156 166.643 188.831 166.055 188.18V192.25H164.609V180.547H165.93L166 181.484C166.589 180.755 167.406 180.391 168.453 180.391C169.469 180.391 170.271 180.773 170.859 181.539C171.453 182.305 171.75 183.37 171.75 184.734V184.867ZM170.305 184.703C170.305 183.75 170.102 182.997 169.695 182.445C169.289 181.893 168.732 181.617 168.023 181.617C167.148 181.617 166.492 182.005 166.055 182.781V186.82C166.487 187.591 167.148 187.977 168.039 187.977C168.732 187.977 169.281 187.703 169.688 187.156C170.099 186.604 170.305 185.786 170.305 184.703ZM173.727 189V180.547H177.023C178.148 180.547 179.01 180.745 179.609 181.141C180.214 181.531 180.516 182.107 180.516 182.867C180.516 183.258 180.398 183.612 180.164 183.93C179.93 184.242 179.583 184.482 179.125 184.648C179.635 184.768 180.044 185.003 180.352 185.352C180.664 185.701 180.82 186.117 180.82 186.602C180.82 187.378 180.534 187.971 179.961 188.383C179.393 188.794 178.589 189 177.547 189H173.727ZM175.172 185.289V187.836H177.562C178.167 187.836 178.617 187.724 178.914 187.5C179.216 187.276 179.367 186.961 179.367 186.555C179.367 185.711 178.747 185.289 177.508 185.289H175.172ZM175.172 184.133H177.039C178.393 184.133 179.07 183.737 179.07 182.945C179.07 182.154 178.43 181.745 177.148 181.719H175.172V184.133ZM188.203 180.547H189.648V189H188.203V182.836L184.305 189H182.859V180.547H184.305V186.719L188.203 180.547ZM195.359 187.977C195.875 187.977 196.326 187.82 196.711 187.508C197.096 187.195 197.31 186.805 197.352 186.336H198.719C198.693 186.82 198.526 187.281 198.219 187.719C197.911 188.156 197.5 188.505 196.984 188.766C196.474 189.026 195.932 189.156 195.359 189.156C194.208 189.156 193.292 188.773 192.609 188.008C191.932 187.237 191.594 186.185 191.594 184.852V184.609C191.594 183.786 191.745 183.055 192.047 182.414C192.349 181.773 192.781 181.276 193.344 180.922C193.911 180.568 194.581 180.391 195.352 180.391C196.299 180.391 197.086 180.674 197.711 181.242C198.341 181.81 198.677 182.547 198.719 183.453H197.352C197.31 182.906 197.102 182.458 196.727 182.109C196.357 181.755 195.898 181.578 195.352 181.578C194.617 181.578 194.047 181.844 193.641 182.375C193.24 182.901 193.039 183.664 193.039 184.664V184.938C193.039 185.911 193.24 186.661 193.641 187.188C194.042 187.714 194.615 187.977 195.359 187.977ZM207.25 189H205.805V185.391H201.922V189H200.469V180.547H201.922V184.211H205.805V180.547H207.25V189ZM214.797 189C214.714 188.833 214.646 188.536 214.594 188.109C213.922 188.807 213.12 189.156 212.188 189.156C211.354 189.156 210.669 188.922 210.133 188.453C209.602 187.979 209.336 187.38 209.336 186.656C209.336 185.776 209.669 185.094 210.336 184.609C211.008 184.12 211.951 183.875 213.164 183.875H214.57V183.211C214.57 182.706 214.419 182.305 214.117 182.008C213.815 181.706 213.37 181.555 212.781 181.555C212.266 181.555 211.833 181.685 211.484 181.945C211.135 182.206 210.961 182.521 210.961 182.891H209.508C209.508 182.469 209.656 182.062 209.953 181.672C210.255 181.276 210.661 180.964 211.172 180.734C211.688 180.505 212.253 180.391 212.867 180.391C213.841 180.391 214.604 180.635 215.156 181.125C215.708 181.609 215.995 182.279 216.016 183.133V187.023C216.016 187.799 216.115 188.417 216.312 188.875V189H214.797ZM212.398 187.898C212.852 187.898 213.281 187.781 213.688 187.547C214.094 187.312 214.388 187.008 214.57 186.633V184.898H213.438C211.667 184.898 210.781 185.417 210.781 186.453C210.781 186.906 210.932 187.26 211.234 187.516C211.536 187.771 211.924 187.898 212.398 187.898ZM224.742 180.547V189H223.289V185.711H221.109L219.117 189H217.555L219.68 185.492C219.138 185.294 218.721 184.99 218.43 184.578C218.143 184.161 218 183.677 218 183.125C218 182.354 218.289 181.734 218.867 181.266C219.445 180.792 220.219 180.552 221.188 180.547H224.742ZM219.453 183.141C219.453 183.552 219.594 183.885 219.875 184.141C220.156 184.391 220.529 184.518 220.992 184.523H223.289V181.719H221.211C220.674 181.719 220.247 181.852 219.93 182.117C219.612 182.378 219.453 182.719 219.453 183.141ZM63.7266 211.398H62.6719V215H61.2188V206.547H62.6719V210.125H63.6172L66.4609 206.547H68.2109L64.8672 210.609L68.4922 215H66.6562L63.7266 211.398ZM69.1797 210.695C69.1797 209.867 69.3411 209.122 69.6641 208.461C69.9922 207.799 70.4453 207.289 71.0234 206.93C71.6068 206.57 72.2708 206.391 73.0156 206.391C74.1667 206.391 75.0964 206.789 75.8047 207.586C76.5182 208.383 76.875 209.443 76.875 210.766V210.867C76.875 211.69 76.7161 212.43 76.3984 213.086C76.0859 213.737 75.6354 214.245 75.0469 214.609C74.4635 214.974 73.7917 215.156 73.0312 215.156C71.8854 215.156 70.9557 214.758 70.2422 213.961C69.5339 213.164 69.1797 212.109 69.1797 210.797V210.695ZM70.6328 210.867C70.6328 211.805 70.849 212.557 71.2812 213.125C71.7188 213.693 72.3021 213.977 73.0312 213.977C73.7656 213.977 74.349 213.69 74.7812 213.117C75.2135 212.539 75.4297 211.732 75.4297 210.695C75.4297 209.768 75.2083 209.018 74.7656 208.445C74.3281 207.867 73.7448 207.578 73.0156 207.578C72.3021 207.578 71.7266 207.862 71.2891 208.43C70.8516 208.997 70.6328 209.81 70.6328 210.867ZM83.5547 213.086L86.4297 206.547H88.2344V215H86.7891V208.852L84.0547 215H83.0547L80.2656 208.719V215H78.8203V206.547H80.6953L83.5547 213.086ZM97.4766 215H96.0312V207.742H92.1406V215H90.6875V206.547H97.4766V215ZM105.016 215C104.932 214.833 104.865 214.536 104.812 214.109C104.141 214.807 103.339 215.156 102.406 215.156C101.573 215.156 100.888 214.922 100.352 214.453C99.8203 213.979 99.5547 213.38 99.5547 212.656C99.5547 211.776 99.888 211.094 100.555 210.609C101.227 210.12 102.169 209.875 103.383 209.875H104.789V209.211C104.789 208.706 104.638 208.305 104.336 208.008C104.034 207.706 103.589 207.555 103 207.555C102.484 207.555 102.052 207.685 101.703 207.945C101.354 208.206 101.18 208.521 101.18 208.891H99.7266C99.7266 208.469 99.875 208.062 100.172 207.672C100.474 207.276 100.88 206.964 101.391 206.734C101.906 206.505 102.471 206.391 103.086 206.391C104.06 206.391 104.823 206.635 105.375 207.125C105.927 207.609 106.214 208.279 106.234 209.133V213.023C106.234 213.799 106.333 214.417 106.531 214.875V215H105.016ZM102.617 213.898C103.07 213.898 103.5 213.781 103.906 213.547C104.312 213.312 104.607 213.008 104.789 212.633V210.898H103.656C101.885 210.898 101 211.417 101 212.453C101 212.906 101.151 213.26 101.453 213.516C101.755 213.771 102.143 213.898 102.617 213.898ZM115.406 215H113.961V211.391H110.078V215H108.625V206.547H110.078V210.211H113.961V206.547H115.406V215ZM123.203 206.547H124.648V215H123.203V208.836L119.305 215H117.859V206.547H119.305V212.719L123.203 206.547ZM133.43 206.547V215H131.977V211.711H129.797L127.805 215H126.242L128.367 211.492C127.826 211.294 127.409 210.99 127.117 210.578C126.831 210.161 126.688 209.677 126.688 209.125C126.688 208.354 126.977 207.734 127.555 207.266C128.133 206.792 128.906 206.552 129.875 206.547H133.43ZM128.141 209.141C128.141 209.552 128.281 209.885 128.562 210.141C128.844 210.391 129.216 210.518 129.68 210.523H131.977V207.719H129.898C129.362 207.719 128.935 207.852 128.617 208.117C128.299 208.378 128.141 208.719 128.141 209.141ZM139.852 215V206.547H143.148C144.273 206.547 145.135 206.745 145.734 207.141C146.339 207.531 146.641 208.107 146.641 208.867C146.641 209.258 146.523 209.612 146.289 209.93C146.055 210.242 145.708 210.482 145.25 210.648C145.76 210.768 146.169 211.003 146.477 211.352C146.789 211.701 146.945 212.117 146.945 212.602C146.945 213.378 146.659 213.971 146.086 214.383C145.518 214.794 144.714 215 143.672 215H139.852ZM141.297 211.289V213.836H143.688C144.292 213.836 144.742 213.724 145.039 213.5C145.341 213.276 145.492 212.961 145.492 212.555C145.492 211.711 144.872 211.289 143.633 211.289H141.297ZM141.297 210.133H143.164C144.518 210.133 145.195 209.737 145.195 208.945C145.195 208.154 144.555 207.745 143.273 207.719H141.297V210.133ZM156.008 209.891H154.625V215H153.125V203.625H154.625V208.641H155.797L159.773 203.625H161.641L157.297 209.141L161.961 215H160.125L156.008 209.891ZM168.328 215C168.245 214.833 168.177 214.536 168.125 214.109C167.453 214.807 166.651 215.156 165.719 215.156C164.885 215.156 164.201 214.922 163.664 214.453C163.133 213.979 162.867 213.38 162.867 212.656C162.867 211.776 163.201 211.094 163.867 210.609C164.539 210.12 165.482 209.875 166.695 209.875H168.102V209.211C168.102 208.706 167.951 208.305 167.648 208.008C167.346 207.706 166.901 207.555 166.312 207.555C165.797 207.555 165.365 207.685 165.016 207.945C164.667 208.206 164.492 208.521 164.492 208.891H163.039C163.039 208.469 163.188 208.062 163.484 207.672C163.786 207.276 164.193 206.964 164.703 206.734C165.219 206.505 165.784 206.391 166.398 206.391C167.372 206.391 168.135 206.635 168.688 207.125C169.24 207.609 169.526 208.279 169.547 209.133V213.023C169.547 213.799 169.646 214.417 169.844 214.875V215H168.328ZM165.93 213.898C166.383 213.898 166.812 213.781 167.219 213.547C167.625 213.312 167.919 213.008 168.102 212.633V210.898H166.969C165.198 210.898 164.312 211.417 164.312 212.453C164.312 212.906 164.464 213.26 164.766 213.516C165.068 213.771 165.456 213.898 165.93 213.898ZM176.461 208.859C176.461 208.464 176.31 208.151 176.008 207.922C175.706 207.688 175.292 207.57 174.766 207.57C174.255 207.57 173.828 207.703 173.484 207.969C173.146 208.234 172.977 208.547 172.977 208.906H171.539C171.539 208.172 171.846 207.57 172.461 207.102C173.076 206.633 173.844 206.398 174.766 206.398C175.755 206.398 176.526 206.612 177.078 207.039C177.63 207.461 177.906 208.065 177.906 208.852C177.906 209.232 177.792 209.581 177.562 209.898C177.333 210.216 177.008 210.469 176.586 210.656C177.57 210.99 178.062 211.646 178.062 212.625C178.062 213.401 177.763 214.016 177.164 214.469C176.565 214.922 175.766 215.148 174.766 215.148C173.792 215.148 172.987 214.911 172.352 214.438C171.721 213.958 171.406 213.312 171.406 212.5H172.844C172.844 212.911 173.026 213.266 173.391 213.562C173.76 213.854 174.219 214 174.766 214C175.318 214 175.763 213.872 176.102 213.617C176.44 213.362 176.609 213.031 176.609 212.625C176.609 212.151 176.466 211.812 176.18 211.609C175.898 211.401 175.458 211.297 174.859 211.297H173.414V210.078H174.984C175.969 210.052 176.461 209.646 176.461 208.859ZM185.156 215C185.073 214.833 185.005 214.536 184.953 214.109C184.281 214.807 183.479 215.156 182.547 215.156C181.714 215.156 181.029 214.922 180.492 214.453C179.961 213.979 179.695 213.38 179.695 212.656C179.695 211.776 180.029 211.094 180.695 210.609C181.367 210.12 182.31 209.875 183.523 209.875H184.93V209.211C184.93 208.706 184.779 208.305 184.477 208.008C184.174 207.706 183.729 207.555 183.141 207.555C182.625 207.555 182.193 207.685 181.844 207.945C181.495 208.206 181.32 208.521 181.32 208.891H179.867C179.867 208.469 180.016 208.062 180.312 207.672C180.615 207.276 181.021 206.964 181.531 206.734C182.047 206.505 182.612 206.391 183.227 206.391C184.201 206.391 184.964 206.635 185.516 207.125C186.068 207.609 186.354 208.279 186.375 209.133V213.023C186.375 213.799 186.474 214.417 186.672 214.875V215H185.156ZM182.758 213.898C183.211 213.898 183.641 213.781 184.047 213.547C184.453 213.312 184.747 213.008 184.93 212.633V210.898H183.797C182.026 210.898 181.141 211.417 181.141 212.453C181.141 212.906 181.292 213.26 181.594 213.516C181.896 213.771 182.284 213.898 182.758 213.898ZM191.477 209.633L193.352 206.547H195.039L192.273 210.727L195.125 215H193.453L191.5 211.836L189.547 215H187.867L190.719 210.727L187.953 206.547H189.625L191.477 209.633ZM199.812 213.977C200.328 213.977 200.779 213.82 201.164 213.508C201.549 213.195 201.763 212.805 201.805 212.336H203.172C203.146 212.82 202.979 213.281 202.672 213.719C202.365 214.156 201.953 214.505 201.438 214.766C200.927 215.026 200.385 215.156 199.812 215.156C198.661 215.156 197.745 214.773 197.062 214.008C196.385 213.237 196.047 212.185 196.047 210.852V210.609C196.047 209.786 196.198 209.055 196.5 208.414C196.802 207.773 197.234 207.276 197.797 206.922C198.365 206.568 199.034 206.391 199.805 206.391C200.753 206.391 201.539 206.674 202.164 207.242C202.794 207.81 203.13 208.547 203.172 209.453H201.805C201.763 208.906 201.555 208.458 201.18 208.109C200.81 207.755 200.352 207.578 199.805 207.578C199.07 207.578 198.5 207.844 198.094 208.375C197.693 208.901 197.492 209.664 197.492 210.664V210.938C197.492 211.911 197.693 212.661 198.094 213.188C198.495 213.714 199.068 213.977 199.812 213.977ZM211.078 207.719H208.242V215H206.797V207.719H204.016V206.547H211.078V207.719ZM217.578 215C217.495 214.833 217.427 214.536 217.375 214.109C216.703 214.807 215.901 215.156 214.969 215.156C214.135 215.156 213.451 214.922 212.914 214.453C212.383 213.979 212.117 213.38 212.117 212.656C212.117 211.776 212.451 211.094 213.117 210.609C213.789 210.12 214.732 209.875 215.945 209.875H217.352V209.211C217.352 208.706 217.201 208.305 216.898 208.008C216.596 207.706 216.151 207.555 215.562 207.555C215.047 207.555 214.615 207.685 214.266 207.945C213.917 208.206 213.742 208.521 213.742 208.891H212.289C212.289 208.469 212.438 208.062 212.734 207.672C213.036 207.276 213.443 206.964 213.953 206.734C214.469 206.505 215.034 206.391 215.648 206.391C216.622 206.391 217.385 206.635 217.938 207.125C218.49 207.609 218.776 208.279 218.797 209.133V213.023C218.797 213.799 218.896 214.417 219.094 214.875V215H217.578ZM215.18 213.898C215.633 213.898 216.062 213.781 216.469 213.547C216.875 213.312 217.169 213.008 217.352 212.633V210.898H216.219C214.448 210.898 213.562 211.417 213.562 212.453C213.562 212.906 213.714 213.26 214.016 213.516C214.318 213.771 214.706 213.898 215.18 213.898ZM227.969 215H226.523V211.391H222.641V215H221.188V206.547H222.641V210.211H226.523V206.547H227.969V215ZM233.805 215.156C232.659 215.156 231.727 214.781 231.008 214.031C230.289 213.276 229.93 212.268 229.93 211.008V210.742C229.93 209.904 230.089 209.156 230.406 208.5C230.729 207.839 231.177 207.323 231.75 206.953C232.328 206.578 232.953 206.391 233.625 206.391C234.724 206.391 235.578 206.753 236.188 207.477C236.797 208.201 237.102 209.237 237.102 210.586V211.188H231.375C231.396 212.021 231.638 212.695 232.102 213.211C232.57 213.721 233.164 213.977 233.883 213.977C234.393 213.977 234.826 213.872 235.18 213.664C235.534 213.456 235.844 213.18 236.109 212.836L236.992 213.523C236.284 214.612 235.221 215.156 233.805 215.156ZM233.625 207.578C233.042 207.578 232.552 207.792 232.156 208.219C231.76 208.641 231.516 209.234 231.422 210H235.656V209.891C235.615 209.156 235.417 208.589 235.062 208.188C234.708 207.781 234.229 207.578 233.625 207.578Z" fill="white"/>
<path d="M121.315 142.507C121.315 141.569 120.983 140.847 120.319 140.339C119.665 139.831 118.479 139.318 116.76 138.801C115.041 138.283 113.674 137.707 112.658 137.072C110.715 135.852 109.743 134.26 109.743 132.297C109.743 130.578 110.441 129.162 111.838 128.049C113.244 126.936 115.065 126.379 117.302 126.379C118.786 126.379 120.109 126.652 121.271 127.199C122.434 127.746 123.347 128.527 124.011 129.543C124.675 130.549 125.007 131.667 125.007 132.897H121.315C121.315 131.784 120.964 130.915 120.261 130.29C119.567 129.655 118.571 129.338 117.272 129.338C116.062 129.338 115.119 129.597 114.445 130.114C113.781 130.632 113.449 131.354 113.449 132.282C113.449 133.063 113.811 133.718 114.533 134.245C115.256 134.763 116.447 135.271 118.107 135.769C119.768 136.257 121.101 136.818 122.106 137.453C123.112 138.078 123.85 138.801 124.318 139.621C124.787 140.432 125.021 141.384 125.021 142.478C125.021 144.255 124.338 145.671 122.971 146.726C121.613 147.771 119.768 148.293 117.434 148.293C115.891 148.293 114.47 148.01 113.171 147.443C111.882 146.867 110.876 146.076 110.153 145.07C109.44 144.064 109.084 142.893 109.084 141.555H112.79C112.79 142.766 113.19 143.703 113.991 144.367C114.792 145.031 115.939 145.363 117.434 145.363C118.723 145.363 119.689 145.104 120.334 144.587C120.988 144.06 121.315 143.366 121.315 142.507ZM131.276 132.15L131.379 133.806C132.492 132.507 134.016 131.857 135.949 131.857C138.068 131.857 139.519 132.668 140.3 134.289C141.452 132.668 143.073 131.857 145.163 131.857C146.911 131.857 148.21 132.341 149.06 133.308C149.919 134.274 150.358 135.7 150.378 137.585V148H146.818V137.688C146.818 136.682 146.599 135.944 146.159 135.476C145.72 135.007 144.992 134.772 143.977 134.772C143.166 134.772 142.502 134.992 141.984 135.432C141.477 135.861 141.12 136.428 140.915 137.131L140.93 148H137.37V137.57C137.321 135.705 136.369 134.772 134.514 134.772C133.088 134.772 132.077 135.354 131.481 136.516V148H127.922V132.15H131.276ZM163.503 148C163.347 147.697 163.21 147.204 163.093 146.521C161.96 147.702 160.573 148.293 158.933 148.293C157.341 148.293 156.042 147.839 155.036 146.931C154.03 146.022 153.527 144.899 153.527 143.562C153.527 141.872 154.152 140.578 155.402 139.68C156.662 138.771 158.459 138.317 160.793 138.317H162.976V137.277C162.976 136.457 162.746 135.803 162.287 135.314C161.828 134.816 161.13 134.567 160.192 134.567C159.382 134.567 158.718 134.772 158.2 135.183C157.683 135.583 157.424 136.096 157.424 136.721H153.864C153.864 135.852 154.152 135.041 154.729 134.289C155.305 133.527 156.086 132.932 157.072 132.502C158.068 132.072 159.177 131.857 160.397 131.857C162.253 131.857 163.732 132.326 164.836 133.264C165.939 134.191 166.506 135.5 166.535 137.189V144.338C166.535 145.764 166.735 146.901 167.136 147.751V148H163.503ZM159.592 145.437C160.295 145.437 160.954 145.266 161.569 144.924C162.194 144.582 162.663 144.123 162.976 143.547V140.559H161.057C159.738 140.559 158.747 140.788 158.083 141.247C157.419 141.706 157.087 142.355 157.087 143.195C157.087 143.879 157.312 144.426 157.761 144.836C158.22 145.236 158.83 145.437 159.592 145.437ZM178.562 135.402C178.093 135.324 177.609 135.285 177.111 135.285C175.48 135.285 174.382 135.91 173.815 137.16V148H170.256V132.15H173.654L173.742 133.923C174.602 132.546 175.793 131.857 177.316 131.857C177.824 131.857 178.244 131.926 178.576 132.062L178.562 135.402ZM186.003 128.298V132.15H188.801V134.787H186.003V143.635C186.003 144.24 186.12 144.68 186.354 144.953C186.599 145.217 187.028 145.349 187.644 145.349C188.054 145.349 188.469 145.3 188.889 145.202V147.956C188.078 148.181 187.297 148.293 186.545 148.293C183.811 148.293 182.443 146.784 182.443 143.767V134.787H179.836V132.15H182.443V128.298H186.003Z" fill="white"/>
<path d="M203.024 142.507C203.024 141.569 202.692 140.847 202.028 140.339C201.374 139.831 200.188 139.318 198.469 138.801C196.75 138.283 195.383 137.707 194.367 137.072C192.424 135.852 191.452 134.26 191.452 132.297C191.452 130.578 192.15 129.162 193.547 128.049C194.953 126.936 196.774 126.379 199.011 126.379C200.495 126.379 201.818 126.652 202.98 127.199C204.143 127.746 205.056 128.527 205.72 129.543C206.384 130.549 206.716 131.667 206.716 132.897H203.024C203.024 131.784 202.673 130.915 201.97 130.29C201.276 129.655 200.28 129.338 198.981 129.338C197.771 129.338 196.828 129.597 196.154 130.114C195.49 130.632 195.158 131.354 195.158 132.282C195.158 133.063 195.52 133.718 196.242 134.245C196.965 134.763 198.156 135.271 199.816 135.769C201.477 136.257 202.81 136.818 203.815 137.453C204.821 138.078 205.559 138.801 206.027 139.621C206.496 140.432 206.73 141.384 206.73 142.478C206.73 144.255 206.047 145.671 204.68 146.726C203.322 147.771 201.477 148.293 199.143 148.293C197.6 148.293 196.179 148.01 194.88 147.443C193.591 146.867 192.585 146.076 191.862 145.07C191.149 144.064 190.793 142.893 190.793 141.555H194.499C194.499 142.766 194.899 143.703 195.7 144.367C196.501 145.031 197.648 145.363 199.143 145.363C200.432 145.363 201.398 145.104 202.043 144.587C202.697 144.06 203.024 143.366 203.024 142.507ZM221.13 142.507C221.13 141.569 220.798 140.847 220.134 140.339C219.479 139.831 218.293 139.318 216.574 138.801C214.855 138.283 213.488 137.707 212.473 137.072C210.529 135.852 209.558 134.26 209.558 132.297C209.558 130.578 210.256 129.162 211.652 128.049C213.059 126.936 214.88 126.379 217.116 126.379C218.601 126.379 219.924 126.652 221.086 127.199C222.248 127.746 223.161 128.527 223.825 129.543C224.489 130.549 224.821 131.667 224.821 132.897H221.13C221.13 131.784 220.778 130.915 220.075 130.29C219.382 129.655 218.386 129.338 217.087 129.338C215.876 129.338 214.934 129.597 214.26 130.114C213.596 130.632 213.264 131.354 213.264 132.282C213.264 133.063 213.625 133.718 214.348 134.245C215.07 134.763 216.262 135.271 217.922 135.769C219.582 136.257 220.915 136.818 221.921 137.453C222.927 138.078 223.664 138.801 224.133 139.621C224.602 140.432 224.836 141.384 224.836 142.478C224.836 144.255 224.152 145.671 222.785 146.726C221.428 147.771 219.582 148.293 217.248 148.293C215.705 148.293 214.284 148.01 212.985 147.443C211.696 146.867 210.69 146.076 209.968 145.07C209.255 144.064 208.898 142.893 208.898 141.555H212.604C212.604 142.766 213.005 143.703 213.806 144.367C214.606 145.031 215.754 145.363 217.248 145.363C218.537 145.363 219.504 145.104 220.148 144.587C220.803 144.06 221.13 143.366 221.13 142.507Z" fill="#FFB95F"/>
<path d="M91.7966 135.378C91.5108 134.987 84.6993 125.802 75.9998 125.802C67.3004 125.802 60.4886 134.987 60.2031 135.377C59.9323 135.748 59.9323 136.251 60.2031 136.622C60.4886 137.014 67.3004 146.198 75.9998 146.198C84.6993 146.198 91.5108 137.013 91.7966 136.623C92.0678 136.252 92.0678 135.748 91.7966 135.378ZM75.9998 144.088C69.5918 144.088 64.0417 137.992 62.3988 135.999C64.0396 134.005 69.578 127.912 75.9998 127.912C82.4076 127.912 87.9573 134.007 89.6009 136.001C87.9601 137.995 82.4217 144.088 75.9998 144.088Z" fill="white"/>
<path d="M75.9999 129.67C72.5097 129.67 69.6702 132.51 69.6702 136C69.6702 139.49 72.5097 142.33 75.9999 142.33C79.49 142.33 82.3296 139.49 82.3296 136C82.3296 132.51 79.49 129.67 75.9999 129.67ZM75.9999 140.22C73.673 140.22 71.7801 138.327 71.7801 136C71.7801 133.673 73.673 131.78 75.9999 131.78C78.3267 131.78 80.2196 133.673 80.2196 136C80.2196 138.327 78.3267 140.22 75.9999 140.22Z" fill="white"/>
<path d="M72.1875 353.938H75.1523V371H72.1875V358.848L64.6992 371H61.7344V353.938H64.6992V366.102L72.1875 353.938ZM89.168 371H86.3203V365.879H81.3867V371H78.5391V358.32H81.3867V363.605H86.3203V358.32H89.168V371ZM91.7344 364.836C91.7344 362.766 92.1406 361.125 92.9531 359.914C93.7734 358.695 94.9141 358.086 96.375 358.086C96.9688 358.086 97.5078 358.195 97.9922 358.414V353H100.828V358.461C101.328 358.211 101.914 358.086 102.586 358.086C104.039 358.086 105.176 358.691 105.996 359.902C106.824 361.105 107.238 362.832 107.238 365.082C107.238 366.98 106.824 368.48 105.996 369.582C105.168 370.684 104.039 371.234 102.609 371.234C101.961 371.234 101.367 371.117 100.828 370.883V375.875H97.9922V370.93C97.5156 371.133 96.9688 371.234 96.3516 371.234C94.9844 371.234 93.8906 370.73 93.0703 369.723C92.2578 368.707 91.8164 367.312 91.7461 365.539L91.7344 364.836ZM104.391 364.836C104.391 363.414 104.164 362.316 103.711 361.543C103.258 360.762 102.617 360.371 101.789 360.371C101.438 360.371 101.117 360.422 100.828 360.523V368.844C101.086 368.922 101.414 368.961 101.812 368.961C103.531 368.961 104.391 367.586 104.391 364.836ZM94.5703 365.082C94.5703 366.348 94.7812 367.312 95.2031 367.977C95.625 368.633 96.25 368.961 97.0781 368.961C97.4297 368.961 97.7344 368.922 97.9922 368.844V360.488C97.7266 360.41 97.4297 360.371 97.1016 360.371C96.2891 360.371 95.6641 360.75 95.2266 361.508C94.7891 362.258 94.5703 363.449 94.5703 365.082ZM109.16 364.543C109.16 363.301 109.406 362.184 109.898 361.191C110.391 360.191 111.082 359.426 111.973 358.895C112.863 358.355 113.887 358.086 115.043 358.086C116.754 358.086 118.141 358.637 119.203 359.738C120.273 360.84 120.852 362.301 120.938 364.121L120.949 364.789C120.949 366.039 120.707 367.156 120.223 368.141C119.746 369.125 119.059 369.887 118.16 370.426C117.27 370.965 116.238 371.234 115.066 371.234C113.277 371.234 111.844 370.641 110.766 369.453C109.695 368.258 109.16 366.668 109.16 364.684V364.543ZM112.008 364.789C112.008 366.094 112.277 367.117 112.816 367.859C113.355 368.594 114.105 368.961 115.066 368.961C116.027 368.961 116.773 368.586 117.305 367.836C117.844 367.086 118.113 365.988 118.113 364.543C118.113 363.262 117.836 362.246 117.281 361.496C116.734 360.746 115.988 360.371 115.043 360.371C114.113 360.371 113.375 360.742 112.828 361.484C112.281 362.219 112.008 363.32 112.008 364.789ZM134.461 364.789C134.461 366.75 134.016 368.316 133.125 369.488C132.234 370.652 131.039 371.234 129.539 371.234C128.148 371.234 127.035 370.777 126.199 369.863V375.875H123.352V358.32H125.977L126.094 359.609C126.93 358.594 128.066 358.086 129.504 358.086C131.051 358.086 132.262 358.664 133.137 359.82C134.02 360.969 134.461 362.566 134.461 364.613V364.789ZM131.625 364.543C131.625 363.277 131.371 362.273 130.863 361.531C130.363 360.789 129.645 360.418 128.707 360.418C127.543 360.418 126.707 360.898 126.199 361.859V367.484C126.715 368.469 127.559 368.961 128.73 368.961C129.637 368.961 130.344 368.598 130.852 367.871C131.367 367.137 131.625 366.027 131.625 364.543ZM144.41 367.496L148.16 358.32H151.723V371H148.875V362.609L145.383 371H143.449L139.945 362.562V371H137.098V358.32H140.684L144.41 367.496ZM162.504 371C162.379 370.758 162.27 370.363 162.176 369.816C161.27 370.762 160.16 371.234 158.848 371.234C157.574 371.234 156.535 370.871 155.73 370.145C154.926 369.418 154.523 368.52 154.523 367.449C154.523 366.098 155.023 365.062 156.023 364.344C157.031 363.617 158.469 363.254 160.336 363.254H162.082V362.422C162.082 361.766 161.898 361.242 161.531 360.852C161.164 360.453 160.605 360.254 159.855 360.254C159.207 360.254 158.676 360.418 158.262 360.746C157.848 361.066 157.641 361.477 157.641 361.977H154.793C154.793 361.281 155.023 360.633 155.484 360.031C155.945 359.422 156.57 358.945 157.359 358.602C158.156 358.258 159.043 358.086 160.02 358.086C161.504 358.086 162.688 358.461 163.57 359.211C164.453 359.953 164.906 361 164.93 362.352V368.07C164.93 369.211 165.09 370.121 165.41 370.801V371H162.504ZM159.375 368.949C159.938 368.949 160.465 368.812 160.957 368.539C161.457 368.266 161.832 367.898 162.082 367.438V365.047H160.547C159.492 365.047 158.699 365.23 158.168 365.598C157.637 365.965 157.371 366.484 157.371 367.156C157.371 367.703 157.551 368.141 157.91 368.469C158.277 368.789 158.766 368.949 159.375 368.949ZM168.023 358.32H170.871V368.727H175.816V358.32H178.664V368.727H180.387L180.152 374.762H177.562V371H168.023V358.32ZM190.312 358.32H193.148V371H190.312V362.539L185.344 371H182.508V358.32H185.344V366.781L190.312 358.32ZM206.332 358.32V371H203.496V366.348H200.836L198.129 371H195.176L198.164 365.879C197.383 365.551 196.781 365.082 196.359 364.473C195.945 363.863 195.738 363.164 195.738 362.375C195.738 361.195 196.191 360.23 197.098 359.48C198.012 358.723 199.242 358.336 200.789 358.32H206.332ZM198.586 362.445C198.586 362.977 198.781 363.41 199.172 363.746C199.57 364.074 200.078 364.238 200.695 364.238H203.496V360.582H200.871C200.176 360.582 199.621 360.758 199.207 361.109C198.793 361.461 198.586 361.906 198.586 362.445ZM214.934 364.543C214.934 363.301 215.18 362.184 215.672 361.191C216.164 360.191 216.855 359.426 217.746 358.895C218.637 358.355 219.66 358.086 220.816 358.086C222.527 358.086 223.914 358.637 224.977 359.738C226.047 360.84 226.625 362.301 226.711 364.121L226.723 364.789C226.723 366.039 226.48 367.156 225.996 368.141C225.52 369.125 224.832 369.887 223.934 370.426C223.043 370.965 222.012 371.234 220.84 371.234C219.051 371.234 217.617 370.641 216.539 369.453C215.469 368.258 214.934 366.668 214.934 364.684V364.543ZM217.781 364.789C217.781 366.094 218.051 367.117 218.59 367.859C219.129 368.594 219.879 368.961 220.84 368.961C221.801 368.961 222.547 368.586 223.078 367.836C223.617 367.086 223.887 365.988 223.887 364.543C223.887 363.262 223.609 362.246 223.055 361.496C222.508 360.746 221.762 360.371 220.816 360.371C219.887 360.371 219.148 360.742 218.602 361.484C218.055 362.219 217.781 363.32 217.781 364.789ZM239.613 365.984H238.172V371H235.324V358.32H238.172V363.383H239.426L242.93 358.32H246.445L241.863 364.391L246.832 371H243.129L239.613 365.984ZM247.184 364.543C247.184 363.301 247.43 362.184 247.922 361.191C248.414 360.191 249.105 359.426 249.996 358.895C250.887 358.355 251.91 358.086 253.066 358.086C254.777 358.086 256.164 358.637 257.227 359.738C258.297 360.84 258.875 362.301 258.961 364.121L258.973 364.789C258.973 366.039 258.73 367.156 258.246 368.141C257.77 369.125 257.082 369.887 256.184 370.426C255.293 370.965 254.262 371.234 253.09 371.234C251.301 371.234 249.867 370.641 248.789 369.453C247.719 368.258 247.184 366.668 247.184 364.684V364.543ZM250.031 364.789C250.031 366.094 250.301 367.117 250.84 367.859C251.379 368.594 252.129 368.961 253.09 368.961C254.051 368.961 254.797 368.586 255.328 367.836C255.867 367.086 256.137 365.988 256.137 364.543C256.137 363.262 255.859 362.246 255.305 361.496C254.758 360.746 254.012 360.371 253.066 360.371C252.137 360.371 251.398 360.742 250.852 361.484C250.305 362.219 250.031 363.32 250.031 364.789ZM268.91 367.496L272.66 358.32H276.223V371H273.375V362.609L269.883 371H267.949L264.445 362.562V371H261.598V358.32H265.184L268.91 367.496ZM290.18 371H287.332V360.617H282.387V371H279.539V358.32H290.18V371ZM300.785 371C300.66 370.758 300.551 370.363 300.457 369.816C299.551 370.762 298.441 371.234 297.129 371.234C295.855 371.234 294.816 370.871 294.012 370.145C293.207 369.418 292.805 368.52 292.805 367.449C292.805 366.098 293.305 365.062 294.305 364.344C295.312 363.617 296.75 363.254 298.617 363.254H300.363V362.422C300.363 361.766 300.18 361.242 299.812 360.852C299.445 360.453 298.887 360.254 298.137 360.254C297.488 360.254 296.957 360.418 296.543 360.746C296.129 361.066 295.922 361.477 295.922 361.977H293.074C293.074 361.281 293.305 360.633 293.766 360.031C294.227 359.422 294.852 358.945 295.641 358.602C296.438 358.258 297.324 358.086 298.301 358.086C299.785 358.086 300.969 358.461 301.852 359.211C302.734 359.953 303.188 361 303.211 362.352V368.07C303.211 369.211 303.371 370.121 303.691 370.801V371H300.785ZM297.656 368.949C298.219 368.949 298.746 368.812 299.238 368.539C299.738 368.266 300.113 367.898 300.363 367.438V365.047H298.828C297.773 365.047 296.98 365.23 296.449 365.598C295.918 365.965 295.652 366.484 295.652 367.156C295.652 367.703 295.832 368.141 296.191 368.469C296.559 368.789 297.047 368.949 297.656 368.949ZM316.934 371H314.086V365.879H309.152V371H306.305V358.32H309.152V363.605H314.086V358.32H316.934V371ZM327.891 358.32H330.727V371H327.891V362.539L322.922 371H320.086V358.32H322.922V366.781L327.891 358.32ZM341.672 358.32H344.508V371H341.672V362.539L336.703 371H333.867V358.32H336.703V366.781L341.672 358.32ZM69.375 396.32H72.2109V409H69.375V400.539L64.4062 409H61.5703V396.32H64.4062V404.781L69.375 396.32ZM91.9688 409H89.1211V398.617H84.1758V409H81.3281V396.32H91.9688V409ZM106.102 402.789C106.102 404.75 105.656 406.316 104.766 407.488C103.875 408.652 102.68 409.234 101.18 409.234C99.7891 409.234 98.6758 408.777 97.8398 407.863V413.875H94.9922V396.32H97.6172L97.7344 397.609C98.5703 396.594 99.707 396.086 101.145 396.086C102.691 396.086 103.902 396.664 104.777 397.82C105.66 398.969 106.102 400.566 106.102 402.613V402.789ZM103.266 402.543C103.266 401.277 103.012 400.273 102.504 399.531C102.004 398.789 101.285 398.418 100.348 398.418C99.1836 398.418 98.3477 398.898 97.8398 399.859V405.484C98.3555 406.469 99.1992 406.961 100.371 406.961C101.277 406.961 101.984 406.598 102.492 405.871C103.008 405.137 103.266 404.027 103.266 402.543ZM114.105 409.234C112.301 409.234 110.836 408.668 109.711 407.535C108.594 406.395 108.035 404.879 108.035 402.988V402.637C108.035 401.371 108.277 400.242 108.762 399.25C109.254 398.25 109.941 397.473 110.824 396.918C111.707 396.363 112.691 396.086 113.777 396.086C115.504 396.086 116.836 396.637 117.773 397.738C118.719 398.84 119.191 400.398 119.191 402.414V403.562H110.906C110.992 404.609 111.34 405.438 111.949 406.047C112.566 406.656 113.34 406.961 114.27 406.961C115.574 406.961 116.637 406.434 117.457 405.379L118.992 406.844C118.484 407.602 117.805 408.191 116.953 408.613C116.109 409.027 115.16 409.234 114.105 409.234ZM113.766 398.371C112.984 398.371 112.352 398.645 111.867 399.191C111.391 399.738 111.086 400.5 110.953 401.477H116.379V401.266C116.316 400.312 116.062 399.594 115.617 399.109C115.172 398.617 114.555 398.371 113.766 398.371ZM131.016 399.789C131.016 400.352 130.844 400.871 130.5 401.348C130.164 401.816 129.688 402.191 129.07 402.473C130.523 402.98 131.25 403.961 131.25 405.414C131.25 406.578 130.777 407.508 129.832 408.203C128.887 408.891 127.621 409.234 126.035 409.234C125.066 409.234 124.184 409.074 123.387 408.754C122.59 408.426 121.969 407.965 121.523 407.371C121.078 406.77 120.855 406.059 120.855 405.238H123.691C123.691 405.754 123.922 406.188 124.383 406.539C124.844 406.883 125.426 407.055 126.129 407.055C126.824 407.055 127.375 406.895 127.781 406.574C128.195 406.246 128.402 405.82 128.402 405.297C128.402 404.68 128.223 404.234 127.863 403.961C127.504 403.688 126.949 403.551 126.199 403.551H124.16V401.5H126.27C127.543 401.484 128.18 400.961 128.18 399.93C128.18 399.414 127.996 399.012 127.629 398.723C127.262 398.434 126.758 398.289 126.117 398.289C125.492 398.289 124.965 398.445 124.535 398.758C124.105 399.062 123.891 399.449 123.891 399.918H121.055C121.055 398.801 121.523 397.887 122.461 397.176C123.398 396.457 124.59 396.098 126.035 396.098C127.605 396.098 128.828 396.418 129.703 397.059C130.578 397.699 131.016 398.609 131.016 399.789ZM139.254 409.234C137.449 409.234 135.984 408.668 134.859 407.535C133.742 406.395 133.184 404.879 133.184 402.988V402.637C133.184 401.371 133.426 400.242 133.91 399.25C134.402 398.25 135.09 397.473 135.973 396.918C136.855 396.363 137.84 396.086 138.926 396.086C140.652 396.086 141.984 396.637 142.922 397.738C143.867 398.84 144.34 400.398 144.34 402.414V403.562H136.055C136.141 404.609 136.488 405.438 137.098 406.047C137.715 406.656 138.488 406.961 139.418 406.961C140.723 406.961 141.785 406.434 142.605 405.379L144.141 406.844C143.633 407.602 142.953 408.191 142.102 408.613C141.258 409.027 140.309 409.234 139.254 409.234ZM138.914 398.371C138.133 398.371 137.5 398.645 137.016 399.191C136.539 399.738 136.234 400.5 136.102 401.477H141.527V401.266C141.465 400.312 141.211 399.594 140.766 399.109C140.32 398.617 139.703 398.371 138.914 398.371ZM157.301 409H154.453V403.879H149.52V409H146.672V396.32H149.52V401.605H154.453V396.32H157.301V409ZM170.32 398.582H166.207V409H163.359V398.582H159.293V396.32H170.32V398.582ZM179.613 409C179.488 408.758 179.379 408.363 179.285 407.816C178.379 408.762 177.27 409.234 175.957 409.234C174.684 409.234 173.645 408.871 172.84 408.145C172.035 407.418 171.633 406.52 171.633 405.449C171.633 404.098 172.133 403.062 173.133 402.344C174.141 401.617 175.578 401.254 177.445 401.254H179.191V400.422C179.191 399.766 179.008 399.242 178.641 398.852C178.273 398.453 177.715 398.254 176.965 398.254C176.316 398.254 175.785 398.418 175.371 398.746C174.957 399.066 174.75 399.477 174.75 399.977H171.902C171.902 399.281 172.133 398.633 172.594 398.031C173.055 397.422 173.68 396.945 174.469 396.602C175.266 396.258 176.152 396.086 177.129 396.086C178.613 396.086 179.797 396.461 180.68 397.211C181.562 397.953 182.016 399 182.039 400.352V406.07C182.039 407.211 182.199 408.121 182.52 408.801V409H179.613ZM176.484 406.949C177.047 406.949 177.574 406.812 178.066 406.539C178.566 406.266 178.941 405.898 179.191 405.438V403.047H177.656C176.602 403.047 175.809 403.23 175.277 403.598C174.746 403.965 174.48 404.484 174.48 405.156C174.48 405.703 174.66 406.141 175.02 406.469C175.387 406.789 175.875 406.949 176.484 406.949ZM185.133 396.32H187.98V406.727H192.926V396.32H195.773V406.727H197.496L197.262 412.762H194.672V409H185.133V396.32ZM207.422 396.32H210.258V409H207.422V400.539L202.453 409H199.617V396.32H202.453V404.781L207.422 396.32ZM223.441 396.32V409H220.605V404.348H217.945L215.238 409H212.285L215.273 403.879C214.492 403.551 213.891 403.082 213.469 402.473C213.055 401.863 212.848 401.164 212.848 400.375C212.848 399.195 213.301 398.23 214.207 397.48C215.121 396.723 216.352 396.336 217.898 396.32H223.441ZM215.695 400.445C215.695 400.977 215.891 401.41 216.281 401.746C216.68 402.074 217.188 402.238 217.805 402.238H220.605V398.582H217.98C217.285 398.582 216.73 398.758 216.316 399.109C215.902 399.461 215.695 399.906 215.695 400.445ZM243.316 409H240.469V403.879H235.535V409H232.688V396.32H235.535V401.605H240.469V396.32H243.316V409ZM253.934 409C253.809 408.758 253.699 408.363 253.605 407.816C252.699 408.762 251.59 409.234 250.277 409.234C249.004 409.234 247.965 408.871 247.16 408.145C246.355 407.418 245.953 406.52 245.953 405.449C245.953 404.098 246.453 403.062 247.453 402.344C248.461 401.617 249.898 401.254 251.766 401.254H253.512V400.422C253.512 399.766 253.328 399.242 252.961 398.852C252.594 398.453 252.035 398.254 251.285 398.254C250.637 398.254 250.105 398.418 249.691 398.746C249.277 399.066 249.07 399.477 249.07 399.977H246.223C246.223 399.281 246.453 398.633 246.914 398.031C247.375 397.422 248 396.945 248.789 396.602C249.586 396.258 250.473 396.086 251.449 396.086C252.934 396.086 254.117 396.461 255 397.211C255.883 397.953 256.336 399 256.359 400.352V406.07C256.359 407.211 256.52 408.121 256.84 408.801V409H253.934ZM250.805 406.949C251.367 406.949 251.895 406.812 252.387 406.539C252.887 406.266 253.262 405.898 253.512 405.438V403.047H251.977C250.922 403.047 250.129 403.23 249.598 403.598C249.066 403.965 248.801 404.484 248.801 405.156C248.801 405.703 248.98 406.141 249.34 406.469C249.707 406.789 250.195 406.949 250.805 406.949ZM262.301 396.32V406.727H266.262V396.32H269.109V406.727H273.082V396.32H275.918V409H259.453V396.32H262.301ZM286.922 396.32H289.758V409H286.922V400.539L281.953 409H279.117V396.32H281.953V404.781L286.922 396.32ZM297.34 400.492L299.754 396.32H302.918L299.039 402.566L303.047 409H299.906L297.375 404.664L294.855 409H291.691L295.699 402.566L291.832 396.32H294.973L297.34 400.492ZM315.27 404.922L317.848 396.32H320.883L315.844 410.922C315.07 413.055 313.758 414.121 311.906 414.121C311.492 414.121 311.035 414.051 310.535 413.91V411.707L311.074 411.742C311.793 411.742 312.332 411.609 312.691 411.344C313.059 411.086 313.348 410.648 313.559 410.031L313.969 408.941L309.516 396.32H312.586L315.27 404.922ZM327.574 406.961C328.285 406.961 328.875 406.754 329.344 406.34C329.812 405.926 330.062 405.414 330.094 404.805H332.777C332.746 405.594 332.5 406.332 332.039 407.02C331.578 407.699 330.953 408.238 330.164 408.637C329.375 409.035 328.523 409.234 327.609 409.234C325.836 409.234 324.43 408.66 323.391 407.512C322.352 406.363 321.832 404.777 321.832 402.754V402.461C321.832 400.531 322.348 398.988 323.379 397.832C324.41 396.668 325.816 396.086 327.598 396.086C329.105 396.086 330.332 396.527 331.277 397.41C332.23 398.285 332.73 399.438 332.777 400.867H330.094C330.062 400.141 329.812 399.543 329.344 399.074C328.883 398.605 328.293 398.371 327.574 398.371C326.652 398.371 325.941 398.707 325.441 399.379C324.941 400.043 324.688 401.055 324.68 402.414V402.871C324.68 404.246 324.926 405.273 325.418 405.953C325.918 406.625 326.637 406.961 327.574 406.961ZM345.703 396.32V409H342.855V398.617H339.27L339.035 403.035C338.887 405.16 338.477 406.688 337.805 407.617C337.141 408.539 336.121 409 334.746 409H333.867L333.855 406.633L334.441 406.574C335.066 406.488 335.52 406.109 335.801 405.438C336.09 404.758 336.273 403.523 336.352 401.734L336.586 396.32H345.703ZM353.168 404.922L355.746 396.32H358.781L353.742 410.922C352.969 413.055 351.656 414.121 349.805 414.121C349.391 414.121 348.934 414.051 348.434 413.91V411.707L348.973 411.742C349.691 411.742 350.23 411.609 350.59 411.344C350.957 411.086 351.246 410.648 351.457 410.031L351.867 408.941L347.414 396.32H350.484L353.168 404.922ZM368.871 398.617H363.363V409H360.527V396.32H368.871V398.617Z" fill="white"/>
</g>
<defs>
<clipPath id="clip0">
<rect width="760" height="540" fill="white"/>
</clipPath>
</defs>
</svg>
