<svg width="112" height="72" viewBox="0 0 112 72" fill="none" xmlns="http://www.w3.org/2000/svg">
<path d="M39.877 15.3379C39.877 14.7129 39.6556 14.2311 39.2129 13.8926C38.7767 13.554 37.9857 13.2122 36.8398 12.8672C35.694 12.5221 34.7826 12.138 34.1055 11.7148C32.8099 10.901 32.1621 9.83984 32.1621 8.53125C32.1621 7.38542 32.6276 6.44141 33.5586 5.69922C34.4961 4.95703 35.7103 4.58594 37.2012 4.58594C38.1908 4.58594 39.0729 4.76823 39.8477 5.13281C40.6224 5.4974 41.2311 6.01823 41.6738 6.69531C42.1165 7.36589 42.3379 8.11133 42.3379 8.93164H39.877C39.877 8.18945 39.6426 7.61003 39.1738 7.19336C38.7116 6.77018 38.0475 6.55859 37.1816 6.55859C36.3743 6.55859 35.7461 6.73112 35.2969 7.07617C34.8542 7.42122 34.6328 7.90299 34.6328 8.52148C34.6328 9.04232 34.8737 9.47852 35.3555 9.83008C35.8372 10.1751 36.6315 10.5137 37.7383 10.8457C38.8451 11.1712 39.7337 11.5456 40.4043 11.9688C41.0749 12.3854 41.5664 12.8672 41.8789 13.4141C42.1914 13.9544 42.3477 14.5892 42.3477 15.3184C42.3477 16.5033 41.8919 17.4473 40.9805 18.1504C40.0755 18.847 38.8451 19.1953 37.2891 19.1953C36.2604 19.1953 35.3132 19.0065 34.4473 18.6289C33.5879 18.2448 32.9173 17.7174 32.4355 17.0469C31.9603 16.3763 31.7227 15.5951 31.7227 14.7031H34.1934C34.1934 15.5104 34.4603 16.1354 34.9941 16.5781C35.528 17.0208 36.293 17.2422 37.2891 17.2422C38.1484 17.2422 38.793 17.0697 39.2227 16.7246C39.6589 16.373 39.877 15.9108 39.877 15.3379ZM46.5176 8.43359L46.5859 9.53711C47.3281 8.67122 48.3438 8.23828 49.6328 8.23828C51.0456 8.23828 52.0124 8.77865 52.5332 9.85938C53.3014 8.77865 54.3822 8.23828 55.7754 8.23828C56.9408 8.23828 57.8066 8.56055 58.373 9.20508C58.946 9.84961 59.2389 10.8001 59.252 12.0566V19H56.8789V12.125C56.8789 11.4544 56.7324 10.9629 56.4395 10.6504C56.1465 10.3379 55.6615 10.1816 54.9844 10.1816C54.444 10.1816 54.0013 10.3281 53.6562 10.6211C53.3177 10.9076 53.0801 11.2852 52.9434 11.7539L52.9531 19H50.5801V12.0469C50.5475 10.8034 49.9128 10.1816 48.6758 10.1816C47.7253 10.1816 47.0514 10.569 46.6543 11.3438V19H44.2812V8.43359H46.5176ZM68.002 19C67.8978 18.7982 67.8066 18.4694 67.7285 18.0137C66.9733 18.8014 66.0488 19.1953 64.9551 19.1953C63.8939 19.1953 63.028 18.8926 62.3574 18.2871C61.6868 17.6816 61.3516 16.9329 61.3516 16.041C61.3516 14.9147 61.7682 14.0521 62.6016 13.4531C63.4414 12.8477 64.6393 12.5449 66.1953 12.5449H67.6504V11.8516C67.6504 11.3047 67.4974 10.8685 67.1914 10.543C66.8854 10.2109 66.4199 10.0449 65.7949 10.0449C65.2546 10.0449 64.8118 10.1816 64.4668 10.4551C64.1217 10.722 63.9492 11.0638 63.9492 11.4805H61.5762C61.5762 10.901 61.7682 10.3607 62.1523 9.85938C62.5365 9.35156 63.0573 8.95443 63.7148 8.66797C64.3789 8.38151 65.1178 8.23828 65.9316 8.23828C67.1686 8.23828 68.1549 8.55078 68.8906 9.17578C69.6263 9.79427 70.0039 10.6667 70.0234 11.793V16.5586C70.0234 17.5091 70.1569 18.2676 70.4238 18.834V19H68.002ZM65.3945 17.291C65.8633 17.291 66.3027 17.1771 66.7129 16.9492C67.1296 16.7214 67.4421 16.4154 67.6504 16.0312V14.0391H66.3711C65.4922 14.0391 64.8314 14.1921 64.3887 14.498C63.946 14.804 63.7246 15.237 63.7246 15.7969C63.7246 16.2526 63.8743 16.6172 64.1738 16.8906C64.4798 17.1576 64.8867 17.291 65.3945 17.291ZM78.041 10.6016C77.7285 10.5495 77.4062 10.5234 77.0742 10.5234C75.987 10.5234 75.2546 10.9401 74.877 11.7734V19H72.5039V8.43359H74.7695L74.8281 9.61523C75.401 8.69727 76.1953 8.23828 77.2109 8.23828C77.5495 8.23828 77.8294 8.28385 78.0508 8.375L78.041 10.6016ZM83.002 5.86523V8.43359H84.8672V10.1914H83.002V16.0898C83.002 16.4935 83.0801 16.7865 83.2363 16.9688C83.3991 17.1445 83.6855 17.2324 84.0957 17.2324C84.3691 17.2324 84.6458 17.1999 84.9258 17.1348V18.9707C84.3854 19.1204 83.8646 19.1953 83.3633 19.1953C81.5404 19.1953 80.6289 18.1895 80.6289 16.1777V10.1914H78.8906V8.43359H80.6289V5.86523H83.002Z" fill="white"/>
<path d="M94.3496 15.3379C94.3496 14.7129 94.1283 14.2311 93.6855 13.8926C93.2493 13.554 92.4583 13.2122 91.3125 12.8672C90.1667 12.5221 89.2552 12.138 88.5781 11.7148C87.2826 10.901 86.6348 9.83984 86.6348 8.53125C86.6348 7.38542 87.1003 6.44141 88.0312 5.69922C88.9688 4.95703 90.1829 4.58594 91.6738 4.58594C92.6634 4.58594 93.5456 4.76823 94.3203 5.13281C95.0951 5.4974 95.7038 6.01823 96.1465 6.69531C96.5892 7.36589 96.8105 8.11133 96.8105 8.93164H94.3496C94.3496 8.18945 94.1152 7.61003 93.6465 7.19336C93.1842 6.77018 92.5202 6.55859 91.6543 6.55859C90.847 6.55859 90.2188 6.73112 89.7695 7.07617C89.3268 7.42122 89.1055 7.90299 89.1055 8.52148C89.1055 9.04232 89.3464 9.47852 89.8281 9.83008C90.3099 10.1751 91.1042 10.5137 92.2109 10.8457C93.3177 11.1712 94.2064 11.5456 94.877 11.9688C95.5475 12.3854 96.0391 12.8672 96.3516 13.4141C96.6641 13.9544 96.8203 14.5892 96.8203 15.3184C96.8203 16.5033 96.3646 17.4473 95.4531 18.1504C94.5482 18.847 93.3177 19.1953 91.7617 19.1953C90.7331 19.1953 89.7858 19.0065 88.9199 18.6289C88.0605 18.2448 87.39 17.7174 86.9082 17.0469C86.4329 16.3763 86.1953 15.5951 86.1953 14.7031H88.666C88.666 15.5104 88.9329 16.1354 89.4668 16.5781C90.0007 17.0208 90.7656 17.2422 91.7617 17.2422C92.6211 17.2422 93.2656 17.0697 93.6953 16.7246C94.1315 16.373 94.3496 15.9108 94.3496 15.3379ZM106.42 15.3379C106.42 14.7129 106.199 14.2311 105.756 13.8926C105.32 13.554 104.529 13.2122 103.383 12.8672C102.237 12.5221 101.326 12.138 100.648 11.7148C99.3529 10.901 98.7051 9.83984 98.7051 8.53125C98.7051 7.38542 99.1706 6.44141 100.102 5.69922C101.039 4.95703 102.253 4.58594 103.744 4.58594C104.734 4.58594 105.616 4.76823 106.391 5.13281C107.165 5.4974 107.774 6.01823 108.217 6.69531C108.66 7.36589 108.881 8.11133 108.881 8.93164H106.42C106.42 8.18945 106.186 7.61003 105.717 7.19336C105.255 6.77018 104.59 6.55859 103.725 6.55859C102.917 6.55859 102.289 6.73112 101.84 7.07617C101.397 7.42122 101.176 7.90299 101.176 8.52148C101.176 9.04232 101.417 9.47852 101.898 9.83008C102.38 10.1751 103.174 10.5137 104.281 10.8457C105.388 11.1712 106.277 11.5456 106.947 11.9688C107.618 12.3854 108.109 12.8672 108.422 13.4141C108.734 13.9544 108.891 14.5892 108.891 15.3184C108.891 16.5033 108.435 17.4473 107.523 18.1504C106.618 18.847 105.388 19.1953 103.832 19.1953C102.803 19.1953 101.856 19.0065 100.99 18.6289C100.131 18.2448 99.4603 17.7174 98.9785 17.0469C98.5033 16.3763 98.2656 15.5951 98.2656 14.7031H100.736C100.736 15.5104 101.003 16.1354 101.537 16.5781C102.071 17.0208 102.836 17.2422 103.832 17.2422C104.691 17.2422 105.336 17.0697 105.766 16.7246C106.202 16.373 106.42 15.9108 106.42 15.3379Z" fill="#FFB95F"/>
<path d="M24.8475 11.5332C24.6331 11.2399 19.5245 4.35168 12.9999 4.35168C6.47529 4.35168 1.36647 11.2399 1.1523 11.5329C0.949234 11.8112 0.949234 12.1886 1.1523 12.4668C1.36647 12.7601 6.47529 19.6484 12.9999 19.6484C19.5245 19.6484 24.6331 12.7601 24.8475 12.4671C25.0508 12.1889 25.0508 11.8112 24.8475 11.5332ZM12.9999 18.066C8.19383 18.066 4.03127 13.4941 2.79907 11.9995C4.02968 10.5036 8.18351 5.93409 12.9999 5.93409C17.8057 5.93409 21.968 10.5052 23.2007 12.0006C21.9701 13.4965 17.8163 18.066 12.9999 18.066Z" fill="white"/>
<path d="M12.9997 7.25275C10.3821 7.25275 8.25244 9.38242 8.25244 12C8.25244 14.6176 10.3821 16.7473 12.9997 16.7473C15.6173 16.7473 17.747 14.6176 17.747 12C17.747 9.38242 15.6173 7.25275 12.9997 7.25275ZM12.9997 15.1648C11.2546 15.1648 9.8349 13.7451 9.8349 12C9.8349 10.2549 11.2546 8.8352 12.9997 8.8352C14.7448 8.8352 16.1645 10.2549 16.1645 12C16.1645 13.7451 14.7449 15.1648 12.9997 15.1648Z" fill="white"/>
<path d="M4.95996 48V40.8906H7.28418C8.05566 40.8906 8.63509 41.0501 9.02246 41.3691C9.41309 41.6882 9.6084 42.1602 9.6084 42.7852C9.6084 43.1172 9.514 43.4118 9.3252 43.6689C9.13639 43.9229 8.87923 44.1198 8.55371 44.2598C8.93783 44.3672 9.24056 44.5723 9.46191 44.875C9.68652 45.1745 9.79883 45.5326 9.79883 45.9492C9.79883 46.5872 9.59212 47.0885 9.17871 47.4531C8.7653 47.8177 8.18099 48 7.42578 48H4.95996ZM5.89746 44.6748V47.2334H7.44531C7.88151 47.2334 8.22493 47.1211 8.47559 46.8965C8.72949 46.6686 8.85645 46.3561 8.85645 45.959C8.85645 45.1029 8.39095 44.6748 7.45996 44.6748H5.89746ZM5.89746 43.9229H7.31348C7.72363 43.9229 8.05078 43.8203 8.29492 43.6152C8.54232 43.4102 8.66602 43.1318 8.66602 42.7803C8.66602 42.3896 8.55208 42.1064 8.32422 41.9307C8.09635 41.7516 7.74967 41.6621 7.28418 41.6621H5.89746V43.9229ZM13.2412 48.0977C12.5251 48.0977 11.9424 47.8633 11.4932 47.3945C11.0439 46.9225 10.8193 46.2926 10.8193 45.5049V45.3389C10.8193 44.8148 10.9186 44.3477 11.1172 43.9375C11.319 43.5241 11.599 43.2018 11.957 42.9707C12.3184 42.7363 12.709 42.6191 13.1289 42.6191C13.8158 42.6191 14.3496 42.8454 14.7305 43.2979C15.1113 43.7503 15.3018 44.3981 15.3018 45.2412V45.6172H11.7227C11.7357 46.138 11.887 46.5596 12.1768 46.8818C12.4697 47.2008 12.8408 47.3604 13.29 47.3604C13.609 47.3604 13.8792 47.2952 14.1006 47.165C14.3219 47.0348 14.5156 46.8623 14.6816 46.6475L15.2334 47.0771C14.7907 47.7575 14.1266 48.0977 13.2412 48.0977ZM13.1289 43.3613C12.7643 43.3613 12.4583 43.4948 12.2109 43.7617C11.9635 44.0254 11.8105 44.3965 11.752 44.875H14.3984V44.8066C14.3724 44.3477 14.2487 43.9928 14.0273 43.7422C13.806 43.4883 13.5065 43.3613 13.1289 43.3613ZM16.3076 47.2627L16.6201 46.877C16.9717 46.4212 17.1719 45.7376 17.2207 44.8262L17.3037 42.7168H20.707V47.2627H21.3857V49.5527H20.4824V48H16.7959V49.5527H15.8926L15.8975 47.2627H16.3076ZM17.377 47.2627H19.8037V43.5518H18.1777L18.124 44.8115C18.0687 45.863 17.8197 46.68 17.377 47.2627ZM24.1152 46.6768L25.3457 42.7168H26.3125L24.1885 48.8154C23.8597 49.6943 23.3372 50.1338 22.6211 50.1338L22.4502 50.1191L22.1133 50.0557V49.3232L22.3574 49.3428C22.6634 49.3428 22.901 49.2809 23.0703 49.1572C23.2428 49.0335 23.3844 48.8073 23.4951 48.4785L23.6953 47.9414L21.8105 42.7168H22.7969L24.1152 46.6768ZM28.0557 42.7168V47.2627H29.9893V42.7168H30.8926V47.2627H32.8213V42.7168H33.7295V47.2627H34.4717L34.3838 49.5674H33.5732V48H27.1475V42.7168H28.0557ZM38.6562 48C38.6042 47.8958 38.5618 47.7103 38.5293 47.4434C38.1094 47.8796 37.6081 48.0977 37.0254 48.0977C36.5046 48.0977 36.0765 47.9512 35.7412 47.6582C35.4092 47.362 35.2432 46.9876 35.2432 46.5352C35.2432 45.985 35.4515 45.5586 35.8682 45.2559C36.2881 44.9499 36.8773 44.7969 37.6357 44.7969H38.5146V44.3818C38.5146 44.0661 38.4202 43.8154 38.2314 43.6299C38.0426 43.4411 37.7643 43.3467 37.3965 43.3467C37.0742 43.3467 36.804 43.4281 36.5859 43.5908C36.3678 43.7536 36.2588 43.9505 36.2588 44.1816H35.3506C35.3506 43.918 35.4434 43.6641 35.6289 43.4199C35.8177 43.1725 36.0716 42.9772 36.3906 42.834C36.7129 42.6908 37.0661 42.6191 37.4502 42.6191C38.0589 42.6191 38.5358 42.7721 38.8809 43.0781C39.2259 43.3809 39.4049 43.7992 39.418 44.333V46.7646C39.418 47.2497 39.4798 47.6354 39.6035 47.9219V48H38.6562ZM37.1572 47.3115C37.4404 47.3115 37.709 47.2383 37.9629 47.0918C38.2168 46.9453 38.4007 46.7549 38.5146 46.5205V45.4365H37.8066C36.6999 45.4365 36.1465 45.7604 36.1465 46.4082C36.1465 46.6914 36.2409 46.9128 36.4297 47.0723C36.6185 47.2318 36.861 47.3115 37.1572 47.3115ZM44.8721 42.7168V48H43.9639V45.9443H42.6016L41.3564 48H40.3799L41.708 45.8076C41.3695 45.6839 41.109 45.4935 40.9268 45.2363C40.7477 44.9759 40.6582 44.6732 40.6582 44.3281C40.6582 43.8464 40.8389 43.459 41.2002 43.166C41.5615 42.8698 42.0449 42.7201 42.6504 42.7168H44.8721ZM41.5664 44.3379C41.5664 44.5951 41.6543 44.8034 41.8301 44.9629C42.0059 45.1191 42.2386 45.1989 42.5283 45.2021H43.9639V43.4492H42.665C42.3298 43.4492 42.0628 43.5322 41.8643 43.6982C41.6657 43.861 41.5664 44.0742 41.5664 44.3379ZM49.9502 48H49.0127V40.8906H49.9502V48ZM56.4346 41.6621H54.1494V48H53.2168V41.6621H50.9365V40.8906H56.4346V41.6621ZM58.0947 45.3486H55.7119V44.6113H58.0947V45.3486ZM61.0977 47.3604C61.4199 47.3604 61.7015 47.2627 61.9424 47.0674C62.1833 46.8721 62.3167 46.6279 62.3428 46.335H63.1973C63.181 46.6377 63.0768 46.9258 62.8848 47.1992C62.6927 47.4727 62.4355 47.6908 62.1133 47.8535C61.7943 48.0163 61.4557 48.0977 61.0977 48.0977C60.3783 48.0977 59.8053 47.8584 59.3789 47.3799C58.9557 46.8981 58.7441 46.2406 58.7441 45.4072V45.2559C58.7441 44.7415 58.8385 44.2842 59.0273 43.8838C59.2161 43.4834 59.4863 43.1725 59.8379 42.9512C60.1927 42.7298 60.611 42.6191 61.0928 42.6191C61.6852 42.6191 62.1768 42.7965 62.5674 43.1514C62.9613 43.5062 63.1712 43.9668 63.1973 44.5332H62.3428C62.3167 44.1914 62.1865 43.9115 61.9521 43.6934C61.721 43.472 61.4346 43.3613 61.0928 43.3613C60.6338 43.3613 60.2773 43.5273 60.0234 43.8594C59.7728 44.1882 59.6475 44.665 59.6475 45.29V45.4609C59.6475 46.0697 59.7728 46.5384 60.0234 46.8672C60.2741 47.196 60.6322 47.3604 61.0977 47.3604ZM66.4053 48.0977C65.6891 48.0977 65.1064 47.8633 64.6572 47.3945C64.208 46.9225 63.9834 46.2926 63.9834 45.5049V45.3389C63.9834 44.8148 64.0827 44.3477 64.2812 43.9375C64.4831 43.5241 64.763 43.2018 65.1211 42.9707C65.4824 42.7363 65.873 42.6191 66.293 42.6191C66.9798 42.6191 67.5137 42.8454 67.8945 43.2979C68.2754 43.7503 68.4658 44.3981 68.4658 45.2412V45.6172H64.8867C64.8997 46.138 65.0511 46.5596 65.3408 46.8818C65.6338 47.2008 66.0049 47.3604 66.4541 47.3604C66.7731 47.3604 67.0433 47.2952 67.2646 47.165C67.486 47.0348 67.6797 46.8623 67.8457 46.6475L68.3975 47.0771C67.9548 47.7575 67.2907 48.0977 66.4053 48.0977ZM66.293 43.3613C65.9284 43.3613 65.6224 43.4948 65.375 43.7617C65.1276 44.0254 64.9746 44.3965 64.916 44.875H67.5625V44.8066C67.5365 44.3477 67.4128 43.9928 67.1914 43.7422C66.9701 43.4883 66.6706 43.3613 66.293 43.3613ZM73.9785 45.417C73.9785 46.221 73.7946 46.8688 73.4268 47.3604C73.0589 47.8519 72.5609 48.0977 71.9326 48.0977C71.2913 48.0977 70.7868 47.8942 70.4189 47.4873V50.0312H69.5156V42.7168H70.3408L70.3848 43.3027C70.7526 42.847 71.2637 42.6191 71.918 42.6191C72.5527 42.6191 73.054 42.8584 73.4219 43.3369C73.793 43.8154 73.9785 44.4811 73.9785 45.334V45.417ZM73.0752 45.3145C73.0752 44.7188 72.9482 44.2484 72.6943 43.9033C72.4404 43.5583 72.0921 43.3857 71.6494 43.3857C71.1025 43.3857 70.6924 43.6283 70.4189 44.1133V46.6377C70.6891 47.1195 71.1025 47.3604 71.6592 47.3604C72.0921 47.3604 72.4355 47.1895 72.6895 46.8477C72.9466 46.5026 73.0752 45.9915 73.0752 45.3145ZM75.2139 48V42.7168H77.2744C77.9775 42.7168 78.5163 42.8405 78.8906 43.0879C79.2682 43.332 79.457 43.6917 79.457 44.167C79.457 44.4111 79.3838 44.6325 79.2373 44.8311C79.0908 45.0264 78.8743 45.1761 78.5879 45.2803C78.9069 45.3551 79.1624 45.5016 79.3545 45.7197C79.5498 45.9378 79.6475 46.1982 79.6475 46.501C79.6475 46.986 79.4684 47.3571 79.1104 47.6143C78.7555 47.8714 78.2526 48 77.6016 48H75.2139ZM76.1172 45.6807V47.2725H77.6113C77.9889 47.2725 78.2705 47.2025 78.4561 47.0625C78.6449 46.9225 78.7393 46.7256 78.7393 46.4717C78.7393 45.9443 78.3519 45.6807 77.5771 45.6807H76.1172ZM76.1172 44.958H77.2842C78.1305 44.958 78.5537 44.7106 78.5537 44.2158C78.5537 43.721 78.1533 43.4655 77.3525 43.4492H76.1172V44.958ZM84.2617 42.7168H85.165V48H84.2617V44.1475L81.8252 48H80.9219V42.7168H81.8252V46.5742L84.2617 42.7168ZM88.7344 47.3604C89.0566 47.3604 89.3382 47.2627 89.5791 47.0674C89.82 46.8721 89.9535 46.6279 89.9795 46.335H90.834C90.8177 46.6377 90.7135 46.9258 90.5215 47.1992C90.3294 47.4727 90.0723 47.6908 89.75 47.8535C89.431 48.0163 89.0924 48.0977 88.7344 48.0977C88.015 48.0977 87.4421 47.8584 87.0156 47.3799C86.5924 46.8981 86.3809 46.2406 86.3809 45.4072V45.2559C86.3809 44.7415 86.4753 44.2842 86.6641 43.8838C86.8529 43.4834 87.123 43.1725 87.4746 42.9512C87.8294 42.7298 88.2477 42.6191 88.7295 42.6191C89.3219 42.6191 89.8135 42.7965 90.2041 43.1514C90.598 43.5062 90.8079 43.9668 90.834 44.5332H89.9795C89.9535 44.1914 89.8232 43.9115 89.5889 43.6934C89.3577 43.472 89.0713 43.3613 88.7295 43.3613C88.2705 43.3613 87.9141 43.5273 87.6602 43.8594C87.4095 44.1882 87.2842 44.665 87.2842 45.29V45.4609C87.2842 46.0697 87.4095 46.5384 87.6602 46.8672C87.9108 47.196 88.2689 47.3604 88.7344 47.3604ZM96.166 48H95.2627V45.7441H92.8359V48H91.9277V42.7168H92.8359V45.0068H95.2627V42.7168H96.166V48ZM100.883 48C100.831 47.8958 100.788 47.7103 100.756 47.4434C100.336 47.8796 99.8346 48.0977 99.252 48.0977C98.7311 48.0977 98.3031 47.9512 97.9678 47.6582C97.6357 47.362 97.4697 46.9876 97.4697 46.5352C97.4697 45.985 97.6781 45.5586 98.0947 45.2559C98.5146 44.9499 99.1038 44.7969 99.8623 44.7969H100.741V44.3818C100.741 44.0661 100.647 43.8154 100.458 43.6299C100.269 43.4411 99.9909 43.3467 99.623 43.3467C99.3008 43.3467 99.0306 43.4281 98.8125 43.5908C98.5944 43.7536 98.4854 43.9505 98.4854 44.1816H97.5771C97.5771 43.918 97.6699 43.6641 97.8555 43.4199C98.0443 43.1725 98.2982 42.9772 98.6172 42.834C98.9395 42.6908 99.2926 42.6191 99.6768 42.6191C100.285 42.6191 100.762 42.7721 101.107 43.0781C101.452 43.3809 101.632 43.7992 101.645 44.333V46.7646C101.645 47.2497 101.706 47.6354 101.83 47.9219V48H100.883ZM99.3838 47.3115C99.667 47.3115 99.9355 47.2383 100.189 47.0918C100.443 46.9453 100.627 46.7549 100.741 46.5205V45.4365H100.033C98.9264 45.4365 98.373 45.7604 98.373 46.4082C98.373 46.6914 98.4674 46.9128 98.6562 47.0723C98.8451 47.2318 99.0876 47.3115 99.3838 47.3115ZM107.099 42.7168V48H106.19V45.9443H104.828L103.583 48H102.606L103.935 45.8076C103.596 45.6839 103.336 45.4935 103.153 45.2363C102.974 44.9759 102.885 44.6732 102.885 44.3281C102.885 43.8464 103.065 43.459 103.427 43.166C103.788 42.8698 104.271 42.7201 104.877 42.7168H107.099ZM103.793 44.3379C103.793 44.5951 103.881 44.8034 104.057 44.9629C104.232 45.1191 104.465 45.1989 104.755 45.2021H106.19V43.4492H104.892C104.556 43.4492 104.289 43.5322 104.091 43.6982C103.892 43.861 103.793 44.0742 103.793 44.3379ZM2.80176 63.749H2.14258V66H1.23438V60.7168H2.14258V62.9531H2.7334L4.51074 60.7168H5.60449L3.51465 63.2559L5.78027 66H4.63281L2.80176 63.749ZM6.20996 63.3096C6.20996 62.792 6.31087 62.3265 6.5127 61.9131C6.71777 61.4997 7.00098 61.1807 7.3623 60.9561C7.72689 60.7314 8.14193 60.6191 8.60742 60.6191C9.32682 60.6191 9.90788 60.8682 10.3506 61.3662C10.7965 61.8643 11.0195 62.5267 11.0195 63.3535V63.417C11.0195 63.9313 10.9202 64.3936 10.7217 64.8037C10.5264 65.2106 10.2448 65.528 9.87695 65.7559C9.51237 65.9837 9.09245 66.0977 8.61719 66.0977C7.90104 66.0977 7.31999 65.8486 6.87402 65.3506C6.43132 64.8525 6.20996 64.1934 6.20996 63.373V63.3096ZM7.11816 63.417C7.11816 64.0029 7.25326 64.4733 7.52344 64.8281C7.79688 65.1829 8.16146 65.3604 8.61719 65.3604C9.07617 65.3604 9.44076 65.1813 9.71094 64.8232C9.98112 64.4619 10.1162 63.9574 10.1162 63.3096C10.1162 62.7301 9.97786 62.2614 9.70117 61.9033C9.42773 61.542 9.06315 61.3613 8.60742 61.3613C8.16146 61.3613 7.80176 61.5387 7.52832 61.8936C7.25488 62.2484 7.11816 62.7562 7.11816 63.417ZM15.1943 64.8037L16.9912 60.7168H18.1191V66H17.2158V62.1572L15.5068 66H14.8818L13.1387 62.0742V66H12.2354V60.7168H13.4072L15.1943 64.8037ZM23.8955 66H22.9922V61.4639H20.5605V66H19.6523V60.7168H23.8955V66ZM28.6074 66C28.5553 65.8958 28.513 65.7103 28.4805 65.4434C28.0605 65.8796 27.5592 66.0977 26.9766 66.0977C26.4557 66.0977 26.0277 65.9512 25.6924 65.6582C25.3604 65.362 25.1943 64.9876 25.1943 64.5352C25.1943 63.985 25.4027 63.5586 25.8193 63.2559C26.2393 62.9499 26.8285 62.7969 27.5869 62.7969H28.4658V62.3818C28.4658 62.0661 28.3714 61.8154 28.1826 61.6299C27.9938 61.4411 27.7155 61.3467 27.3477 61.3467C27.0254 61.3467 26.7552 61.4281 26.5371 61.5908C26.319 61.7536 26.21 61.9505 26.21 62.1816H25.3018C25.3018 61.918 25.3945 61.6641 25.5801 61.4199C25.7689 61.1725 26.0228 60.9772 26.3418 60.834C26.6641 60.6908 27.0173 60.6191 27.4014 60.6191C28.0101 60.6191 28.487 60.7721 28.832 61.0781C29.1771 61.3809 29.3561 61.7992 29.3691 62.333V64.7646C29.3691 65.2497 29.431 65.6354 29.5547 65.9219V66H28.6074ZM27.1084 65.3115C27.3916 65.3115 27.6602 65.2383 27.9141 65.0918C28.168 64.9453 28.3519 64.7549 28.4658 64.5205V63.4365H27.7578C26.651 63.4365 26.0977 63.7604 26.0977 64.4082C26.0977 64.6914 26.1921 64.9128 26.3809 65.0723C26.5697 65.2318 26.8122 65.3115 27.1084 65.3115ZM35.1016 66H34.1982V63.7441H31.7715V66H30.8633V60.7168H31.7715V63.0068H34.1982V60.7168H35.1016V66ZM39.9746 60.7168H40.8779V66H39.9746V62.1475L37.5381 66H36.6348V60.7168H37.5381V64.5742L39.9746 60.7168ZM46.3662 60.7168V66H45.458V63.9443H44.0957L42.8506 66H41.874L43.2021 63.8076C42.8636 63.6839 42.6032 63.4935 42.4209 63.2363C42.2419 62.9759 42.1523 62.6732 42.1523 62.3281C42.1523 61.8464 42.333 61.459 42.6943 61.166C43.0557 60.8698 43.5391 60.7201 44.1445 60.7168H46.3662ZM43.0605 62.3379C43.0605 62.5951 43.1484 62.8034 43.3242 62.9629C43.5 63.1191 43.7327 63.1989 44.0225 63.2021H45.458V61.4492H44.1592C43.8239 61.4492 43.557 61.5322 43.3584 61.6982C43.1598 61.861 43.0605 62.0742 43.0605 62.3379ZM50.3799 66V60.7168H52.4404C53.1436 60.7168 53.6823 60.8405 54.0566 61.0879C54.4342 61.332 54.623 61.6917 54.623 62.167C54.623 62.4111 54.5498 62.6325 54.4033 62.8311C54.2568 63.0264 54.0404 63.1761 53.7539 63.2803C54.0729 63.3551 54.3285 63.5016 54.5205 63.7197C54.7158 63.9378 54.8135 64.1982 54.8135 64.501C54.8135 64.986 54.6344 65.3571 54.2764 65.6143C53.9215 65.8714 53.4186 66 52.7676 66H50.3799ZM51.2832 63.6807V65.2725H52.7773C53.1549 65.2725 53.4365 65.2025 53.6221 65.0625C53.8109 64.9225 53.9053 64.7256 53.9053 64.4717C53.9053 63.9443 53.5179 63.6807 52.7432 63.6807H51.2832ZM51.2832 62.958H52.4502C53.2965 62.958 53.7197 62.7106 53.7197 62.2158C53.7197 61.721 53.3193 61.4655 52.5186 61.4492H51.2832V62.958ZM60.4775 62.8066H59.6133V66H58.6758V58.8906H59.6133V62.0254H60.3457L62.8311 58.8906H63.998L61.2832 62.3379L64.1982 66H63.0508L60.4775 62.8066ZM68.1777 66C68.1257 65.8958 68.0833 65.7103 68.0508 65.4434C67.6309 65.8796 67.1296 66.0977 66.5469 66.0977C66.026 66.0977 65.598 65.9512 65.2627 65.6582C64.9307 65.362 64.7646 64.9876 64.7646 64.5352C64.7646 63.985 64.973 63.5586 65.3896 63.2559C65.8096 62.9499 66.3988 62.7969 67.1572 62.7969H68.0361V62.3818C68.0361 62.0661 67.9417 61.8154 67.7529 61.6299C67.5641 61.4411 67.2858 61.3467 66.918 61.3467C66.5957 61.3467 66.3255 61.4281 66.1074 61.5908C65.8893 61.7536 65.7803 61.9505 65.7803 62.1816H64.8721C64.8721 61.918 64.9648 61.6641 65.1504 61.4199C65.3392 61.1725 65.5931 60.9772 65.9121 60.834C66.2344 60.6908 66.5876 60.6191 66.9717 60.6191C67.5804 60.6191 68.0573 60.7721 68.4023 61.0781C68.7474 61.3809 68.9264 61.7992 68.9395 62.333V64.7646C68.9395 65.2497 69.0013 65.6354 69.125 65.9219V66H68.1777ZM66.6787 65.3115C66.9619 65.3115 67.2305 65.2383 67.4844 65.0918C67.7383 64.9453 67.9222 64.7549 68.0361 64.5205V63.4365H67.3281C66.2214 63.4365 65.668 63.7604 65.668 64.4082C65.668 64.6914 65.7624 64.9128 65.9512 65.0723C66.14 65.2318 66.3825 65.3115 66.6787 65.3115ZM73.2607 62.1621C73.2607 61.9147 73.1663 61.7194 72.9775 61.5762C72.7887 61.4297 72.5299 61.3564 72.2012 61.3564C71.8822 61.3564 71.6152 61.4395 71.4004 61.6055C71.1888 61.7715 71.083 61.9668 71.083 62.1914H70.1846C70.1846 61.7324 70.3766 61.3564 70.7607 61.0635C71.1449 60.7705 71.625 60.624 72.2012 60.624C72.8197 60.624 73.3014 60.7575 73.6465 61.0244C73.9915 61.2881 74.1641 61.6657 74.1641 62.1572C74.1641 62.3949 74.0924 62.613 73.9492 62.8115C73.806 63.0101 73.6025 63.168 73.3389 63.2852C73.9541 63.4935 74.2617 63.9036 74.2617 64.5156C74.2617 65.0007 74.0745 65.3848 73.7002 65.668C73.3258 65.9512 72.8262 66.0928 72.2012 66.0928C71.5924 66.0928 71.0895 65.9447 70.6924 65.6484C70.2985 65.349 70.1016 64.9453 70.1016 64.4375H71C71 64.6947 71.1139 64.916 71.3418 65.1016C71.5729 65.2839 71.8594 65.375 72.2012 65.375C72.5462 65.375 72.8245 65.2952 73.0361 65.1357C73.2477 64.9762 73.3535 64.7695 73.3535 64.5156C73.3535 64.2194 73.264 64.0078 73.085 63.8809C72.9092 63.7507 72.6341 63.6855 72.2598 63.6855H71.3564V62.9238H72.3379C72.9531 62.9076 73.2607 62.6536 73.2607 62.1621ZM78.6953 66C78.6432 65.8958 78.6009 65.7103 78.5684 65.4434C78.1484 65.8796 77.6471 66.0977 77.0645 66.0977C76.5436 66.0977 76.1156 65.9512 75.7803 65.6582C75.4482 65.362 75.2822 64.9876 75.2822 64.5352C75.2822 63.985 75.4906 63.5586 75.9072 63.2559C76.3271 62.9499 76.9163 62.7969 77.6748 62.7969H78.5537V62.3818C78.5537 62.0661 78.4593 61.8154 78.2705 61.6299C78.0817 61.4411 77.8034 61.3467 77.4355 61.3467C77.1133 61.3467 76.8431 61.4281 76.625 61.5908C76.4069 61.7536 76.2979 61.9505 76.2979 62.1816H75.3896C75.3896 61.918 75.4824 61.6641 75.668 61.4199C75.8568 61.1725 76.1107 60.9772 76.4297 60.834C76.752 60.6908 77.1051 60.6191 77.4893 60.6191C78.098 60.6191 78.5749 60.7721 78.9199 61.0781C79.265 61.3809 79.444 61.7992 79.457 62.333V64.7646C79.457 65.2497 79.5189 65.6354 79.6426 65.9219V66H78.6953ZM77.1963 65.3115C77.4795 65.3115 77.748 65.2383 78.002 65.0918C78.2559 64.9453 78.4398 64.7549 78.5537 64.5205V63.4365H77.8457C76.7389 63.4365 76.1855 63.7604 76.1855 64.4082C76.1855 64.6914 76.2799 64.9128 76.4688 65.0723C76.6576 65.2318 76.9001 65.3115 77.1963 65.3115ZM82.6455 62.6455L83.8174 60.7168H84.8721L83.1436 63.3291L84.9258 66H83.8809L82.6602 64.0225L81.4395 66H80.3896L82.1719 63.3291L80.4434 60.7168H81.4883L82.6455 62.6455ZM87.8555 65.3604C88.1777 65.3604 88.4593 65.2627 88.7002 65.0674C88.9411 64.8721 89.0745 64.6279 89.1006 64.335H89.9551C89.9388 64.6377 89.8346 64.9258 89.6426 65.1992C89.4505 65.4727 89.1934 65.6908 88.8711 65.8535C88.5521 66.0163 88.2135 66.0977 87.8555 66.0977C87.1361 66.0977 86.5632 65.8584 86.1367 65.3799C85.7135 64.8981 85.502 64.2406 85.502 63.4072V63.2559C85.502 62.7415 85.5964 62.2842 85.7852 61.8838C85.974 61.4834 86.2441 61.1725 86.5957 60.9512C86.9505 60.7298 87.3688 60.6191 87.8506 60.6191C88.443 60.6191 88.9346 60.7965 89.3252 61.1514C89.7191 61.5062 89.929 61.9668 89.9551 62.5332H89.1006C89.0745 62.1914 88.9443 61.9115 88.71 61.6934C88.4788 61.472 88.1924 61.3613 87.8506 61.3613C87.3916 61.3613 87.0352 61.5273 86.7812 61.8594C86.5306 62.1882 86.4053 62.665 86.4053 63.29V63.4609C86.4053 64.0697 86.5306 64.5384 86.7812 64.8672C87.0319 65.196 87.39 65.3604 87.8555 65.3604ZM94.8965 61.4492H93.124V66H92.2207V61.4492H90.4824V60.7168H94.8965V61.4492ZM98.959 66C98.9069 65.8958 98.8646 65.7103 98.832 65.4434C98.4121 65.8796 97.9108 66.0977 97.3281 66.0977C96.8073 66.0977 96.3792 65.9512 96.0439 65.6582C95.7119 65.362 95.5459 64.9876 95.5459 64.5352C95.5459 63.985 95.7542 63.5586 96.1709 63.2559C96.5908 62.9499 97.18 62.7969 97.9385 62.7969H98.8174V62.3818C98.8174 62.0661 98.723 61.8154 98.5342 61.6299C98.3454 61.4411 98.0671 61.3467 97.6992 61.3467C97.377 61.3467 97.1068 61.4281 96.8887 61.5908C96.6706 61.7536 96.5615 61.9505 96.5615 62.1816H95.6533C95.6533 61.918 95.7461 61.6641 95.9316 61.4199C96.1204 61.1725 96.3743 60.9772 96.6934 60.834C97.0156 60.6908 97.3688 60.6191 97.7529 60.6191C98.3617 60.6191 98.8385 60.7721 99.1836 61.0781C99.5286 61.3809 99.7077 61.7992 99.7207 62.333V64.7646C99.7207 65.2497 99.7826 65.6354 99.9062 65.9219V66H98.959ZM97.46 65.3115C97.7432 65.3115 98.0117 65.2383 98.2656 65.0918C98.5195 64.9453 98.7035 64.7549 98.8174 64.5205V63.4365H98.1094C97.0026 63.4365 96.4492 63.7604 96.4492 64.4082C96.4492 64.6914 96.5436 64.9128 96.7324 65.0723C96.9212 65.2318 97.1637 65.3115 97.46 65.3115ZM105.453 66H104.55V63.7441H102.123V66H101.215V60.7168H102.123V63.0068H104.55V60.7168H105.453V66ZM109.101 66.0977C108.384 66.0977 107.802 65.8633 107.353 65.3945C106.903 64.9225 106.679 64.2926 106.679 63.5049V63.3389C106.679 62.8148 106.778 62.3477 106.977 61.9375C107.178 61.5241 107.458 61.2018 107.816 60.9707C108.178 60.7363 108.568 60.6191 108.988 60.6191C109.675 60.6191 110.209 60.8454 110.59 61.2979C110.971 61.7503 111.161 62.3981 111.161 63.2412V63.6172H107.582C107.595 64.138 107.746 64.5596 108.036 64.8818C108.329 65.2008 108.7 65.3604 109.149 65.3604C109.468 65.3604 109.739 65.2952 109.96 65.165C110.181 65.0348 110.375 64.8623 110.541 64.6475L111.093 65.0771C110.65 65.7575 109.986 66.0977 109.101 66.0977ZM108.988 61.3613C108.624 61.3613 108.318 61.4948 108.07 61.7617C107.823 62.0254 107.67 62.3965 107.611 62.875H110.258V62.8066C110.232 62.3477 110.108 61.9928 109.887 61.7422C109.665 61.4883 109.366 61.3613 108.988 61.3613Z" fill="white"/>
</svg>
