<svg width="109" height="24" viewBox="0 0 109 24" fill="none" xmlns="http://www.w3.org/2000/svg">
<path d="M38.877 15.3379C38.877 14.7129 38.6556 14.2311 38.2129 13.8926C37.7767 13.554 36.9857 13.2122 35.8398 12.8672C34.694 12.5221 33.7826 12.138 33.1055 11.7148C31.8099 10.901 31.1621 9.83984 31.1621 8.53125C31.1621 7.38542 31.6276 6.44141 32.5586 5.69922C33.4961 4.95703 34.7103 4.58594 36.2012 4.58594C37.1908 4.58594 38.0729 4.76823 38.8477 5.13281C39.6224 5.4974 40.2311 6.01823 40.6738 6.69531C41.1165 7.36589 41.3379 8.11133 41.3379 8.93164H38.877C38.877 8.18945 38.6426 7.61003 38.1738 7.19336C37.7116 6.77018 37.0475 6.55859 36.1816 6.55859C35.3743 6.55859 34.7461 6.73112 34.2969 7.07617C33.8542 7.42122 33.6328 7.90299 33.6328 8.52148C33.6328 9.04232 33.8737 9.47852 34.3555 9.83008C34.8372 10.1751 35.6315 10.5137 36.7383 10.8457C37.8451 11.1712 38.7337 11.5456 39.4043 11.9688C40.0749 12.3854 40.5664 12.8672 40.8789 13.4141C41.1914 13.9544 41.3477 14.5892 41.3477 15.3184C41.3477 16.5033 40.8919 17.4473 39.9805 18.1504C39.0755 18.847 37.8451 19.1953 36.2891 19.1953C35.2604 19.1953 34.3132 19.0065 33.4473 18.6289C32.5879 18.2448 31.9173 17.7174 31.4355 17.0469C30.9603 16.3763 30.7227 15.5951 30.7227 14.7031H33.1934C33.1934 15.5104 33.4603 16.1354 33.9941 16.5781C34.528 17.0208 35.293 17.2422 36.2891 17.2422C37.1484 17.2422 37.793 17.0697 38.2227 16.7246C38.6589 16.373 38.877 15.9108 38.877 15.3379ZM45.5176 8.43359L45.5859 9.53711C46.3281 8.67122 47.3438 8.23828 48.6328 8.23828C50.0456 8.23828 51.0124 8.77865 51.5332 9.85938C52.3014 8.77865 53.3822 8.23828 54.7754 8.23828C55.9408 8.23828 56.8066 8.56055 57.373 9.20508C57.946 9.84961 58.2389 10.8001 58.252 12.0566V19H55.8789V12.125C55.8789 11.4544 55.7324 10.9629 55.4395 10.6504C55.1465 10.3379 54.6615 10.1816 53.9844 10.1816C53.444 10.1816 53.0013 10.3281 52.6562 10.6211C52.3177 10.9076 52.0801 11.2852 51.9434 11.7539L51.9531 19H49.5801V12.0469C49.5475 10.8034 48.9128 10.1816 47.6758 10.1816C46.7253 10.1816 46.0514 10.569 45.6543 11.3438V19H43.2812V8.43359H45.5176ZM67.002 19C66.8978 18.7982 66.8066 18.4694 66.7285 18.0137C65.9733 18.8014 65.0488 19.1953 63.9551 19.1953C62.8939 19.1953 62.028 18.8926 61.3574 18.2871C60.6868 17.6816 60.3516 16.9329 60.3516 16.041C60.3516 14.9147 60.7682 14.0521 61.6016 13.4531C62.4414 12.8477 63.6393 12.5449 65.1953 12.5449H66.6504V11.8516C66.6504 11.3047 66.4974 10.8685 66.1914 10.543C65.8854 10.2109 65.4199 10.0449 64.7949 10.0449C64.2546 10.0449 63.8118 10.1816 63.4668 10.4551C63.1217 10.722 62.9492 11.0638 62.9492 11.4805H60.5762C60.5762 10.901 60.7682 10.3607 61.1523 9.85938C61.5365 9.35156 62.0573 8.95443 62.7148 8.66797C63.3789 8.38151 64.1178 8.23828 64.9316 8.23828C66.1686 8.23828 67.1549 8.55078 67.8906 9.17578C68.6263 9.79427 69.0039 10.6667 69.0234 11.793V16.5586C69.0234 17.5091 69.1569 18.2676 69.4238 18.834V19H67.002ZM64.3945 17.291C64.8633 17.291 65.3027 17.1771 65.7129 16.9492C66.1296 16.7214 66.4421 16.4154 66.6504 16.0312V14.0391H65.3711C64.4922 14.0391 63.8314 14.1921 63.3887 14.498C62.946 14.804 62.7246 15.237 62.7246 15.7969C62.7246 16.2526 62.8743 16.6172 63.1738 16.8906C63.4798 17.1576 63.8867 17.291 64.3945 17.291ZM77.041 10.6016C76.7285 10.5495 76.4062 10.5234 76.0742 10.5234C74.987 10.5234 74.2546 10.9401 73.877 11.7734V19H71.5039V8.43359H73.7695L73.8281 9.61523C74.401 8.69727 75.1953 8.23828 76.2109 8.23828C76.5495 8.23828 76.8294 8.28385 77.0508 8.375L77.041 10.6016ZM82.002 5.86523V8.43359H83.8672V10.1914H82.002V16.0898C82.002 16.4935 82.0801 16.7865 82.2363 16.9688C82.3991 17.1445 82.6855 17.2324 83.0957 17.2324C83.3691 17.2324 83.6458 17.1999 83.9258 17.1348V18.9707C83.3854 19.1204 82.8646 19.1953 82.3633 19.1953C80.5404 19.1953 79.6289 18.1895 79.6289 16.1777V10.1914H77.8906V8.43359H79.6289V5.86523H82.002Z" fill="white"/>
<path d="M93.3496 15.3379C93.3496 14.7129 93.1283 14.2311 92.6855 13.8926C92.2493 13.554 91.4583 13.2122 90.3125 12.8672C89.1667 12.5221 88.2552 12.138 87.5781 11.7148C86.2826 10.901 85.6348 9.83984 85.6348 8.53125C85.6348 7.38542 86.1003 6.44141 87.0312 5.69922C87.9688 4.95703 89.1829 4.58594 90.6738 4.58594C91.6634 4.58594 92.5456 4.76823 93.3203 5.13281C94.0951 5.4974 94.7038 6.01823 95.1465 6.69531C95.5892 7.36589 95.8105 8.11133 95.8105 8.93164H93.3496C93.3496 8.18945 93.1152 7.61003 92.6465 7.19336C92.1842 6.77018 91.5202 6.55859 90.6543 6.55859C89.847 6.55859 89.2188 6.73112 88.7695 7.07617C88.3268 7.42122 88.1055 7.90299 88.1055 8.52148C88.1055 9.04232 88.3464 9.47852 88.8281 9.83008C89.3099 10.1751 90.1042 10.5137 91.2109 10.8457C92.3177 11.1712 93.2064 11.5456 93.877 11.9688C94.5475 12.3854 95.0391 12.8672 95.3516 13.4141C95.6641 13.9544 95.8203 14.5892 95.8203 15.3184C95.8203 16.5033 95.3646 17.4473 94.4531 18.1504C93.5482 18.847 92.3177 19.1953 90.7617 19.1953C89.7331 19.1953 88.7858 19.0065 87.9199 18.6289C87.0605 18.2448 86.39 17.7174 85.9082 17.0469C85.4329 16.3763 85.1953 15.5951 85.1953 14.7031H87.666C87.666 15.5104 87.9329 16.1354 88.4668 16.5781C89.0007 17.0208 89.7656 17.2422 90.7617 17.2422C91.6211 17.2422 92.2656 17.0697 92.6953 16.7246C93.1315 16.373 93.3496 15.9108 93.3496 15.3379ZM105.42 15.3379C105.42 14.7129 105.199 14.2311 104.756 13.8926C104.32 13.554 103.529 13.2122 102.383 12.8672C101.237 12.5221 100.326 12.138 99.6484 11.7148C98.3529 10.901 97.7051 9.83984 97.7051 8.53125C97.7051 7.38542 98.1706 6.44141 99.1016 5.69922C100.039 4.95703 101.253 4.58594 102.744 4.58594C103.734 4.58594 104.616 4.76823 105.391 5.13281C106.165 5.4974 106.774 6.01823 107.217 6.69531C107.66 7.36589 107.881 8.11133 107.881 8.93164H105.42C105.42 8.18945 105.186 7.61003 104.717 7.19336C104.255 6.77018 103.59 6.55859 102.725 6.55859C101.917 6.55859 101.289 6.73112 100.84 7.07617C100.397 7.42122 100.176 7.90299 100.176 8.52148C100.176 9.04232 100.417 9.47852 100.898 9.83008C101.38 10.1751 102.174 10.5137 103.281 10.8457C104.388 11.1712 105.277 11.5456 105.947 11.9688C106.618 12.3854 107.109 12.8672 107.422 13.4141C107.734 13.9544 107.891 14.5892 107.891 15.3184C107.891 16.5033 107.435 17.4473 106.523 18.1504C105.618 18.847 104.388 19.1953 102.832 19.1953C101.803 19.1953 100.856 19.0065 99.9902 18.6289C99.1309 18.2448 98.4603 17.7174 97.9785 17.0469C97.5033 16.3763 97.2656 15.5951 97.2656 14.7031H99.7363C99.7363 15.5104 100.003 16.1354 100.537 16.5781C101.071 17.0208 101.836 17.2422 102.832 17.2422C103.691 17.2422 104.336 17.0697 104.766 16.7246C105.202 16.373 105.42 15.9108 105.42 15.3379Z" fill="#FFB95F"/>
<path d="M23.8475 11.5332C23.6331 11.2399 18.5245 4.35165 11.9999 4.35165C5.47529 4.35165 0.366469 11.2399 0.152297 11.5329C-0.0507657 11.8112 -0.0507657 12.1886 0.152297 12.4668C0.366469 12.7601 5.47529 19.6484 11.9999 19.6484C18.5245 19.6484 23.6331 12.7601 23.8475 12.467C24.0508 12.1888 24.0508 11.8112 23.8475 11.5332ZM11.9999 18.0659C7.19383 18.0659 3.03127 13.4941 1.79907 11.9995C3.02968 10.5035 7.18351 5.93406 11.9999 5.93406C16.8057 5.93406 20.968 10.5051 22.2007 12.0005C20.9701 13.4964 16.8163 18.0659 11.9999 18.0659Z" fill="white"/>
<path d="M12 7.25275C9.38236 7.25275 7.25269 9.38242 7.25269 12C7.25269 14.6176 9.38236 16.7473 12 16.7473C14.6176 16.7473 16.7472 14.6176 16.7472 12C16.7472 9.38242 14.6176 7.25275 12 7.25275ZM12 15.1648C10.2548 15.1648 8.83514 13.7451 8.83514 12C8.83514 10.2549 10.2548 8.8352 12 8.8352C13.7451 8.8352 15.1648 10.2549 15.1648 12C15.1648 13.7451 13.7451 15.1648 12 15.1648Z" fill="white"/>
</svg>
