<svg width="760" height="540" viewBox="0 0 760 540" fill="none" xmlns="http://www.w3.org/2000/svg">
<rect width="760" height="540" rx="32" fill="#197BDD"/>
<path d="M380 238C362.354 238 348 252.355 348 270C348 287.645 362.354 302 380 302C397.646 302 412 287.645 412 270C412 252.355 397.646 238 380 238ZM380 299.333C363.826 299.333 350.667 286.174 350.667 270C350.667 253.826 363.826 240.667 380 240.667C396.174 240.667 409.333 253.826 409.333 270C409.333 286.174 396.174 299.333 380 299.333Z" fill="white"/>
<path d="M392.721 268.879L374.055 256.879C373.646 256.612 373.117 256.598 372.695 256.829C372.266 257.064 372 257.512 372 258V282C372 282.488 372.266 282.936 372.695 283.171C372.893 283.279 373.115 283.333 373.333 283.333C373.583 283.333 373.836 283.263 374.055 283.121L392.721 271.121C393.102 270.876 393.333 270.453 393.333 270C393.333 269.547 393.102 269.124 392.721 268.879ZM374.667 279.557V260.443L389.534 270L374.667 279.557Z" fill="white"/>
</svg>
