<svg width="80" height="80" viewBox="0 0 80 80" fill="none" xmlns="http://www.w3.org/2000/svg">
<circle cx="40" cy="40" r="40" fill="#2154D1"/>
<g clip-path="url(#clip0)">
<path d="M36.6763 22.6746C28.9473 22.6746 22.6816 28.9402 22.6816 36.6693C22.6816 44.3983 28.9473 50.6639 36.6763 50.6639C44.4054 50.6639 50.671 44.3983 50.671 36.6693C50.6626 28.9437 44.4019 22.683 36.6763 22.6746ZM36.6763 24.0074C40.7928 24.0106 44.6502 26.0169 47.0164 29.3853L45.3504 31.0514C44.9449 30.8061 44.4808 30.6748 44.0069 30.6715C42.5347 30.6715 41.3412 31.865 41.3412 33.3372C41.3436 33.8116 41.4741 34.2765 41.7191 34.6827L37.3554 39.0464C36.5291 38.5425 35.4907 38.5425 34.6644 39.0464L31.6336 36.0155C31.8786 35.6093 32.0091 35.1444 32.0114 34.67C32.0133 33.2007 30.8237 32.0082 29.3544 32.0064C28.1393 32.0049 27.0776 32.8268 26.7748 34.0036H24.3024C25.5641 28.1769 30.7146 24.0161 36.6763 24.0074ZM45.3397 33.3372C45.3397 34.0733 44.743 34.67 44.0069 34.67C43.2707 34.67 42.6741 34.0733 42.6741 33.3372C42.6741 32.601 43.2707 32.0044 44.0069 32.0044C44.743 32.0044 45.3397 32.601 45.3397 33.3372ZM37.3427 41.3342C37.3427 42.0703 36.7461 42.667 36.0099 42.667C35.2738 42.667 34.6771 42.0703 34.6771 41.3342C34.6771 40.598 35.2738 40.0013 36.0099 40.0013C36.7461 40.0013 37.3427 40.598 37.3427 41.3342ZM30.6786 34.67C30.6786 35.4061 30.0819 36.0028 29.3458 36.0028C28.6096 36.0028 28.013 35.4061 28.013 34.67C28.013 33.9339 28.6096 33.3372 29.3458 33.3372C30.0819 33.3372 30.6786 33.9339 30.6786 34.67ZM42.8285 47.7406C40.9465 48.7855 38.829 49.333 36.6763 49.331C29.6882 49.3358 24.0192 43.6747 24.0145 36.6865C24.0141 36.2355 24.038 35.7848 24.0858 35.3363H26.7748C27.0777 36.5096 28.134 37.331 29.3458 37.3356C29.8202 37.3333 30.2851 37.2027 30.6913 36.9577L33.7221 39.9886C33.4771 40.3948 33.3466 40.8597 33.3443 41.3341C33.3443 42.8063 34.5377 43.9997 36.0099 43.9997C37.4821 43.9997 38.6756 42.8063 38.6756 41.3341C38.6732 40.8597 38.5427 40.3948 38.2977 39.9886L42.6614 35.6249C43.0676 35.8699 43.5325 36.0004 44.0069 36.0028C45.4791 36.0028 46.6725 34.8093 46.6725 33.3371C46.6702 32.8627 46.5397 32.3978 46.2947 31.9916L47.7475 30.5395C51.1391 36.6478 48.9368 44.349 42.8285 47.7406Z" fill="white" stroke="white" stroke-width="0.4"/>
<path d="M53.3358 26.6729C54.5476 26.6683 55.6039 25.847 55.9069 24.6736H60V23.3408H55.9069C55.6039 22.1674 54.5476 21.3461 53.3358 21.3416C51.8636 21.3416 50.6702 22.535 50.6702 24.0072C50.6725 24.4816 50.803 24.9465 51.048 25.3527L49.8771 26.5236C44.2747 19.2246 33.816 17.8493 26.517 23.4518C19.218 29.0542 17.8427 39.513 23.4452 46.812C28.7335 53.7016 38.4274 55.3729 45.7174 50.6518L47.7286 52.663L48.6709 53.6053L54.0356 58.97C55.4 60.3344 57.612 60.3344 58.9764 58.97C60.3408 57.6056 60.3408 55.3936 58.9764 54.0292L53.6117 48.6645L52.6694 47.7222L50.6582 45.711C54.2284 40.2117 54.2284 33.1265 50.6582 27.6272L51.991 26.2943C52.3969 26.5394 52.8617 26.6702 53.3358 26.6729ZM53.3358 22.6744C54.072 22.6744 54.6687 23.2711 54.6687 24.0072C54.6687 24.7434 54.072 25.34 53.3358 25.34C52.5997 25.34 52.003 24.7434 52.003 24.0072C52.003 23.2711 52.5998 22.6744 53.3358 22.6744ZM58.0341 54.9715C58.8876 55.8058 58.9031 57.1741 58.0688 58.0277C57.2344 58.8812 55.8661 58.8967 55.0126 58.0624C55.0009 58.051 54.9894 58.0394 54.9779 58.0277L49.6132 52.663L52.6694 49.6068L58.0341 54.9715ZM51.7271 48.6645L48.6709 51.7207L46.8263 49.8761C46.9203 49.8041 47.0082 49.7248 47.1009 49.6508C47.1935 49.5769 47.3008 49.4882 47.4001 49.4049C47.546 49.2823 47.69 49.1584 47.8313 49.0311C47.9039 48.9644 47.9732 48.8978 48.0445 48.8311C48.3177 48.5752 48.5823 48.3107 48.8382 48.0374C48.9048 47.9661 48.9715 47.8968 49.0381 47.8242C49.1654 47.6829 49.2894 47.539 49.412 47.393C49.4955 47.2944 49.5775 47.1947 49.6579 47.0938C49.7312 47.0018 49.8105 46.9139 49.8825 46.8199L51.7271 48.6645ZM49.1428 45.569C48.9328 45.8623 48.7163 46.1495 48.4877 46.4261C48.421 46.5067 48.3497 46.5847 48.2811 46.664C48.0772 46.9012 47.8666 47.1314 47.6493 47.3544C47.5547 47.4521 47.4585 47.5483 47.3608 47.6429C47.1386 47.8602 46.9085 48.0708 46.6704 48.2747C46.5911 48.3413 46.5131 48.414 46.4325 48.4813C46.1559 48.7099 45.8687 48.9264 45.5754 49.1364C38.6767 54.0649 29.0888 52.4678 24.1602 45.569C19.2317 38.6703 20.8288 29.0824 27.7275 24.1538C34.6263 19.2253 44.2142 20.8223 49.1428 27.7211C52.9564 33.0593 52.9564 40.2309 49.1428 45.569Z" fill="white" stroke="white" stroke-width="0.4"/>
</g>
<defs>
<clipPath id="clip0">
<rect width="40" height="40" fill="white" transform="translate(20 20)"/>
</clipPath>
</defs>
</svg>
