<svg width="80" height="80" viewBox="0 0 80 80" fill="none" xmlns="http://www.w3.org/2000/svg">
<circle cx="40" cy="40" r="40" fill="#2154D1"/>
<path d="M58.75 28.75H40.8812L37.3187 25.1813C37.2603 25.1233 37.1911 25.0775 37.1149 25.0464C37.0388 25.0153 36.9573 24.9995 36.875 25H25.5125C24.9 25 24.375 25 24.375 25.625V28.75H21.25C21.0842 28.75 20.9253 28.8158 20.8081 28.9331C20.6908 29.0503 20.625 29.2092 20.625 29.375V54.375C20.625 54.5407 20.6908 54.6997 20.8081 54.8169C20.9253 54.9341 21.0842 55 21.25 55H55C55.1658 55 55.3247 54.9341 55.4419 54.8169C55.5592 54.6997 55.625 54.5407 55.625 54.375V51.25H58.75C58.9158 51.25 59.0747 51.1841 59.1919 51.0669C59.3092 50.9497 59.375 50.7907 59.375 50.625V29.375C59.375 29.2092 59.3092 29.0503 59.1919 28.9331C59.0747 28.8158 58.9158 28.75 58.75 28.75ZM54.375 53.75H21.875V30H32.8688L36.4313 33.5687C36.4897 33.6267 36.5589 33.6725 36.6351 33.7036C36.7112 33.7347 36.7927 33.7505 36.875 33.75H54.375V53.75ZM58.125 50H55.625V33.125C55.625 32.9592 55.5592 32.8003 55.4419 32.6831C55.3247 32.5658 55.1658 32.5 55 32.5H37.1312L33.5687 28.9313C33.5103 28.8733 33.4411 28.8275 33.3649 28.7964C33.2888 28.7653 33.2073 28.7495 33.125 28.75H25.625V26.25H36.6188L40.1813 29.8188C40.2397 29.8767 40.3089 29.9225 40.3851 29.9536C40.4612 29.9847 40.5427 30.0005 40.625 30H58.125V50Z" fill="white" stroke="white" stroke-width="0.4"/>
<path d="M32.5 40.625C32.5007 41.4156 32.6681 42.1971 32.9911 42.9186C33.3142 43.6401 33.7858 44.2855 34.375 44.8125V46.25C34.375 46.4158 34.4408 46.5747 34.5581 46.6919C34.6753 46.8092 34.8342 46.875 35 46.875H41.25C41.4158 46.875 41.5747 46.8092 41.6919 46.6919C41.8092 46.5747 41.875 46.4158 41.875 46.25V44.8125C42.5745 44.1868 43.1064 43.3961 43.4221 42.5123C43.7379 41.6285 43.8274 40.6797 43.6827 39.7525C43.538 38.8252 43.1636 37.9489 42.5935 37.2033C42.0235 36.4578 41.276 35.8667 40.4191 35.4839C39.5622 35.1012 38.6231 34.9389 37.6874 35.0119C36.7518 35.0849 35.8493 35.3909 35.0621 35.9019C34.2749 36.4129 33.6281 37.1128 33.1806 37.9378C32.7331 38.7627 32.4991 39.6865 32.5 40.625V40.625ZM38.125 36.25C39.0305 36.2514 39.9133 36.5336 40.6515 37.0579C41.3898 37.5822 41.9472 38.3226 42.2469 39.1771C42.5466 40.0315 42.5738 40.9579 42.3247 41.8285C42.0756 42.699 41.5625 43.4709 40.8563 44.0375C40.7837 44.0963 40.7253 44.1707 40.6853 44.255C40.6453 44.3394 40.6247 44.4316 40.625 44.525V45.625H40V43.75H38.75V45.625H37.5V43.75H36.25V45.625H35.625V44.525C35.6253 44.4316 35.6047 44.3394 35.5647 44.255C35.5247 44.1707 35.4663 44.0963 35.3938 44.0375C34.6875 43.4709 34.1744 42.699 33.9253 41.8285C33.6762 40.9579 33.7034 40.0315 34.0031 39.1771C34.3028 38.3226 34.8602 37.5822 35.5985 37.0579C36.3367 36.5336 37.2195 36.2514 38.125 36.25V36.25Z" fill="white" stroke="white" stroke-width="0.4"/>
<path d="M40 41.875C40.3708 41.875 40.7334 41.765 41.0417 41.559C41.35 41.353 41.5904 41.0601 41.7323 40.7175C41.8742 40.3749 41.9113 39.9979 41.839 39.6342C41.7666 39.2705 41.5881 38.9364 41.3258 38.6742C41.0636 38.412 40.7295 38.2334 40.3658 38.161C40.0021 38.0887 39.6251 38.1258 39.2825 38.2677C38.9399 38.4096 38.647 38.65 38.441 38.9583C38.235 39.2666 38.125 39.6292 38.125 40C38.125 40.4973 38.3225 40.9742 38.6742 41.3258C39.0258 41.6775 39.5027 41.875 40 41.875ZM40 39.375C40.1236 39.375 40.2445 39.4117 40.3472 39.4803C40.45 39.549 40.5301 39.6466 40.5774 39.7608C40.6247 39.875 40.6371 40.0007 40.613 40.1219C40.5889 40.2432 40.5294 40.3545 40.4419 40.4419C40.3545 40.5294 40.2432 40.5889 40.1219 40.613C40.0007 40.6371 39.875 40.6247 39.7608 40.5774C39.6466 40.5301 39.549 40.45 39.4803 40.3472C39.4117 40.2445 39.375 40.1236 39.375 40C39.375 39.8342 39.4409 39.6753 39.5581 39.5581C39.6753 39.4408 39.8342 39.375 40 39.375Z" fill="white" stroke="white" stroke-width="0.4"/>
<path d="M36.25 41.875C36.6208 41.875 36.9833 41.765 37.2917 41.559C37.6 41.353 37.8404 41.0601 37.9823 40.7175C38.1242 40.3749 38.1613 39.9979 38.089 39.6342C38.0166 39.2705 37.838 38.9364 37.5758 38.6742C37.3136 38.412 36.9795 38.2334 36.6158 38.161C36.2521 38.0887 35.8751 38.1258 35.5325 38.2677C35.1899 38.4096 34.897 38.65 34.691 38.9583C34.485 39.2666 34.375 39.6292 34.375 40C34.375 40.4973 34.5725 40.9742 34.9242 41.3258C35.2758 41.6775 35.7527 41.875 36.25 41.875ZM36.25 39.375C36.3736 39.375 36.4944 39.4117 36.5972 39.4803C36.7 39.549 36.7801 39.6466 36.8274 39.7608C36.8747 39.875 36.8871 40.0007 36.863 40.1219C36.8389 40.2432 36.7793 40.3545 36.6919 40.4419C36.6045 40.5294 36.4932 40.5889 36.3719 40.613C36.2507 40.6371 36.125 40.6247 36.0108 40.5774C35.8966 40.5301 35.799 40.45 35.7303 40.3472C35.6617 40.2445 35.625 40.1236 35.625 40C35.625 39.8342 35.6908 39.6753 35.8081 39.5581C35.9253 39.4408 36.0842 39.375 36.25 39.375Z" fill="white" stroke="white" stroke-width="0.4"/>
<path d="M31.4125 47.5187L31.0875 48.7312L35.75 50L31.0875 51.2687L31.4125 52.4812L38.125 50.65L44.8375 52.4812L45.1625 51.2687L40.5 50L45.1625 48.7312L44.8375 47.5187L38.125 49.35L31.4125 47.5187Z" fill="white" stroke="white" stroke-width="0.4"/>
</svg>
