<svg width="80" height="80" viewBox="0 0 80 80" fill="none" xmlns="http://www.w3.org/2000/svg">
<circle cx="40" cy="40" r="40" fill="#2154D1"/>
<g clip-path="url(#clip0)">
<path d="M59.0687 41.0203H59.0083C58.6458 39.463 57.418 38.2352 55.8607 37.8728V35.8105C55.8607 27.065 48.7458 19.95 40.0002 19.95C31.2547 19.95 24.1398 27.065 24.1398 35.8105V37.8728C22.5825 38.2353 21.3546 39.463 20.9922 41.0203H20.9318C20.4044 41.0203 19.9769 41.448 19.9769 41.9753C19.9769 42.5026 20.4044 42.9303 20.9318 42.9303H20.9922C21.3648 44.531 22.6517 45.7838 24.2708 46.1063C24.6637 47.7095 26.1118 48.9031 27.8346 48.9031C29.8583 48.9031 31.5045 47.2568 31.5045 45.2332V38.7174C31.5045 36.6937 29.8583 35.0476 27.8346 35.0476C27.1888 35.0476 26.5817 35.2159 26.054 35.5102C26.2145 27.956 32.4084 21.86 40.0002 21.86C47.5875 21.86 53.7786 27.9487 53.9462 35.4964C53.4244 35.2108 52.8265 35.0476 52.1908 35.0476C50.1672 35.0476 48.5209 36.6937 48.5209 38.7174V45.2332C48.5209 47.2568 50.1672 48.9031 52.1908 48.9031C53.9155 48.9031 55.3648 47.7071 55.7558 46.1013C56.2825 45.9929 56.7734 45.7861 57.2087 45.5008V49.404C57.2087 51.0869 56.3907 52.6882 54.8994 53.9123C53.3563 55.1789 51.302 55.8776 49.1139 55.8776H43.2836C43.186 55.1842 42.977 54.6244 42.6718 54.2345C42.3592 53.8351 41.946 53.6152 41.4548 53.6152H38.0612C36.287 53.6152 34.8437 55.0584 34.8437 56.8326C34.8437 58.6067 36.287 60.05 38.0612 60.05H41.4548C41.9461 60.05 42.3593 59.83 42.6719 59.4306C42.977 59.0408 43.186 58.4809 43.2836 57.7876H49.1139C54.6219 57.7876 59.1187 54.0347 59.1187 49.404V42.929C59.6229 42.903 60.0236 42.4859 60.0236 41.9753C60.0236 41.448 59.5961 41.0203 59.0687 41.0203ZM26.0747 38.7174C26.0747 37.7471 26.8642 36.9575 27.8346 36.9575C28.805 36.9575 29.5946 37.7471 29.5946 38.7174V45.2332C29.5946 46.2036 28.805 46.9932 27.8346 46.9932C26.8642 46.9932 26.0747 46.2036 26.0747 45.2332C26.0747 44.7059 25.6471 44.2782 25.1197 44.2782C25.1156 44.2782 25.112 44.2785 25.1099 44.2786L25.1068 44.2788C25.1064 44.2788 25.1058 44.2788 25.1048 44.2787L25.1044 44.2787C25.1025 44.2785 25.0988 44.2782 25.0947 44.2782C23.825 44.2782 22.7918 43.2451 22.7918 41.9753C22.7918 41.0364 23.3568 40.2273 24.1647 39.8692V42.1463C24.1647 42.6737 24.5923 43.1013 25.1197 43.1013C25.6471 43.1013 26.0747 42.6737 26.0747 42.1463V38.7174ZM41.4369 56.8326C41.4369 57.4942 41.3192 57.9379 41.2297 58.14H38.0611C37.3402 58.14 36.7536 57.5535 36.7536 56.8326C36.7536 56.1117 37.3402 55.5251 38.0611 55.5251H41.2297C41.3192 55.7273 41.4369 56.1709 41.4369 56.8326ZM54.9058 44.2782C54.3783 44.2782 53.9508 44.7059 53.9508 45.2332C53.9508 46.2036 53.1612 46.9932 52.1908 46.9932C51.2204 46.9932 50.4309 46.2036 50.4309 45.2332V38.7174C50.4309 37.7471 51.2204 36.9575 52.1908 36.9575C53.1612 36.9575 53.9508 37.7471 53.9508 38.7174V42.1463C53.9508 42.6737 54.3783 43.1013 54.9058 43.1013C55.4332 43.1013 55.8607 42.6737 55.8607 42.1463V39.8801C56.6554 40.2437 57.2087 41.0462 57.2087 41.9753C57.2087 43.2451 56.1755 44.2782 54.9058 44.2782Z" fill="white" stroke="white" stroke-width="0.1"/>
</g>
<defs>
<clipPath id="clip0">
<rect x="20" y="20" width="40" height="40" fill="white"/>
</clipPath>
</defs>
</svg>
