<svg width="80" height="80" viewBox="0 0 80 80" fill="none" xmlns="http://www.w3.org/2000/svg">
<circle cx="40" cy="40" r="40" fill="#2154D1"/>
<g clip-path="url(#clip0)">
<path d="M43.125 41.0938C43.5565 41.0938 43.9062 40.744 43.9062 40.3125C43.9062 39.881 43.5565 39.5312 43.125 39.5312C42.6935 39.5312 42.3438 39.881 42.3438 40.3125C42.3438 40.744 42.6935 41.0938 43.125 41.0938Z" fill="white"/>
<path d="M36.875 41.0938C37.3065 41.0938 37.6562 40.744 37.6562 40.3125C37.6562 39.881 37.3065 39.5312 36.875 39.5312C36.4435 39.5312 36.0938 39.881 36.0938 40.3125C36.0938 40.744 36.4435 41.0938 36.875 41.0938Z" fill="white"/>
<path d="M39.9164 28.5938C39.9242 28.597 40.7812 28.5709 40.7812 29.375C40.7812 29.8058 40.4308 30.1562 40 30.1562C39.752 30.1562 39.5241 30.0422 39.3747 29.8434C39.1156 29.4984 38.6259 29.4287 38.2809 29.6878C37.9359 29.947 37.8662 30.4366 38.1253 30.7816C38.4046 31.1535 38.7885 31.4299 39.2188 31.5829V32.1094C39.2188 32.5409 39.5685 32.8906 40 32.8906C40.4315 32.8906 40.7812 32.5409 40.7812 32.1094V31.5844C41.6905 31.2619 42.3438 30.3935 42.3438 29.375C42.3438 27.9558 41.0917 27.0312 40.1938 27.0312C40.1859 27.0284 39.2188 27.1205 39.2188 26.25C39.2188 25.8192 39.5692 25.4688 40 25.4688C40.248 25.4688 40.4759 25.5828 40.6253 25.7816C40.8845 26.1266 41.3741 26.1963 41.7191 25.9372C42.0641 25.678 42.1338 25.1884 41.8747 24.8434C41.5954 24.4715 41.2115 24.1951 40.7812 24.0421V23.5156C40.7812 23.0841 40.4315 22.7344 40 22.7344C39.5685 22.7344 39.2188 23.0841 39.2188 23.5156V24.0406C38.3095 24.3631 37.6562 25.2315 37.6562 26.25C37.6562 27.5927 38.7883 28.5938 39.9164 28.5938Z" fill="white"/>
<path d="M34.5312 47.3438C34.5312 49.5342 36.9334 51.25 40 51.25C43.0666 51.25 45.4688 49.5342 45.4688 47.3438C45.4688 45.1533 43.0666 43.4375 40 43.4375C36.9334 43.4375 34.5312 45.1533 34.5312 47.3438ZM40 45C42.1174 45 43.9062 46.0733 43.9062 47.3438C43.9062 48.6142 42.1174 49.6875 40 49.6875C37.8826 49.6875 36.0938 48.6142 36.0938 47.3438C36.0938 46.0733 37.8826 45 40 45Z" fill="white"/>
<path d="M49 56.5C49.4315 56.5 52.5 50.9313 52.5 50.4998C52.5 50.0684 51.9315 49.5 51.5 49.5C51.0685 49.5 47.5 56.0685 47.5 56.5C47.5 56.9315 48.5685 56.5 49 56.5Z" fill="white"/>
<path d="M29.4958 53.7844C30.6385 55.0505 31.4062 57.2345 31.4062 59.2188C31.4062 59.6502 31.756 60 32.1875 60H36.875C37.3065 60 37.6562 59.6502 37.6562 59.2188V58.2737C38.4401 58.3826 39.2252 58.4375 40 58.4375C40.7748 58.4375 41.5599 58.3826 42.3438 58.2737V59.2188C42.3438 59.6502 42.6935 60 43.125 60H47.8125C48.244 60 48.5938 59.6502 48.5938 59.2188C48.5938 58.39 48.7305 57.4963 48.9892 56.6343C49.1132 56.221 48.8788 55.7855 48.4655 55.6614C48.0521 55.5375 47.6166 55.772 47.4926 56.1852C47.2698 56.9275 47.1245 57.6936 47.0637 58.4375H43.9062V57.3523C43.9062 56.8617 43.4585 56.4921 42.9765 56.5853C41.9837 56.7775 40.9822 56.875 40 56.875C39.0178 56.875 38.0163 56.7775 37.0235 56.5853C36.5405 56.4922 36.0938 56.8625 36.0938 57.3523V58.4375H32.937C32.7652 56.2967 31.908 54.1251 30.6559 52.7377C29.1911 51.1142 28.2812 48.4487 28.2812 45.7812C28.2812 43.6869 28.8389 41.5023 29.8938 39.4638C30.0459 39.1698 29.9963 38.812 29.7701 38.5705C28.81 37.5459 28.2812 36.2224 28.2812 34.8438V34.0625H29.0625C30.2311 34.0625 31.3591 34.4448 32.3245 35.1682C32.6164 35.3869 33.0207 35.3746 33.2987 35.1385C33.8666 34.6562 34.4638 34.2344 35.0787 33.8778C36.4675 35.0073 38.1931 35.625 40 35.625C41.807 35.625 43.5327 35.0072 44.9213 33.8778C45.5362 34.2343 46.1334 34.6562 46.7013 35.1385C46.9793 35.3745 47.3836 35.3869 47.6755 35.1682C48.6409 34.4448 49.7689 34.0625 50.9375 34.0625H51.7188V34.8438C51.7188 36.2224 51.19 37.5459 50.2299 38.5705C50.0037 38.812 49.9541 39.1698 50.1062 39.4638C51.1611 41.5023 51.7188 43.6869 51.7188 45.7812C51.7188 47.2344 51.4546 48.6964 50.9548 50.0094C50.8013 50.4127 51.0037 50.8639 51.407 51.0174C51.8101 51.1709 52.2615 50.9686 52.415 50.5652C52.9817 49.0766 53.2812 47.4223 53.2812 45.7812C53.2812 43.602 52.7467 41.3455 51.7314 39.2227C52.7345 37.9739 53.2812 36.4387 53.2812 34.8438V33.2812C53.2812 32.8498 52.9315 32.5 52.5 32.5H50.9375C49.6306 32.5 48.3666 32.8677 47.2473 33.5686C46.8621 33.2681 46.4657 32.9918 46.0612 32.7398C47.1834 31.3558 47.8125 29.6092 47.8125 27.8125C47.8125 23.5047 44.3078 20 40 20C35.6922 20 32.1875 23.5047 32.1875 27.8125C32.1875 29.6092 32.8166 31.3558 33.9388 32.7398C33.5343 32.9918 33.1379 33.2681 32.7527 33.5686C31.6334 32.8677 30.3694 32.5 29.0625 32.5H27.5C27.0685 32.5 26.7188 32.8498 26.7188 33.2812V34.8438C26.7188 36.4387 27.2655 37.9739 28.2686 39.2227C27.2533 41.3455 26.7188 43.602 26.7188 45.7812C26.7188 48.8652 27.7569 51.857 29.4958 53.7844V53.7844ZM40 21.5625C43.4462 21.5625 46.25 24.3663 46.25 27.8125C46.25 31.3062 43.416 34.0625 40 34.0625C36.6438 34.0625 33.75 31.3599 33.75 27.8125C33.75 24.3663 36.5538 21.5625 40 21.5625Z" fill="white"/>
</g>
<defs>
<clipPath id="clip0">
<rect width="40" height="40" fill="white" transform="translate(20 20)"/>
</clipPath>
</defs>
</svg>
