<svg width="14" height="14" viewBox="0 0 14 14" fill="none" xmlns="http://www.w3.org/2000/svg">
<g clip-path="url(#clip0)">
<path d="M11.1289 1.25781H2.87109C1.28793 1.25781 0 2.54575 0 4.12891V8.56329C0 9.82655 0.829391 10.9268 2.03123 11.279L3.41786 12.6657C3.49487 12.7426 3.59912 12.7859 3.70796 12.7859C3.8167 12.7859 3.92105 12.7426 3.99796 12.6657L5.26997 11.3936H11.1289C12.7121 11.3936 14 10.1057 14 8.52249V4.12891C14 2.54575 12.7121 1.25781 11.1289 1.25781ZM13.1797 8.52249C13.1797 9.65331 12.2597 10.5733 11.1289 10.5733H5.10014C4.99141 10.5733 4.88705 10.6165 4.81015 10.6934L3.70796 11.7956L2.5341 10.6218C2.48145 10.5691 2.41544 10.5317 2.34312 10.5138C1.44655 10.2906 0.820312 9.4886 0.820312 8.56329V4.12891C0.820312 2.99809 1.74028 2.07812 2.87109 2.07812H11.1289C12.2597 2.07812 13.1797 2.99809 13.1797 4.12891V8.52249Z" fill="#BCBCBC" stroke="#BCBCBC" stroke-width="0.4"/>
<path d="M9.60431 5.19067H4.39575C4.1692 5.19067 3.9856 5.37439 3.9856 5.60083C3.9856 5.82738 4.1692 6.01099 4.39575 6.01099H9.60431C9.83086 6.01099 10.0145 5.82738 10.0145 5.60083C10.0145 5.37439 9.83086 5.19067 9.60431 5.19067Z" fill="#BCBCBC" stroke="#BCBCBC" stroke-width="0.4"/>
<path d="M9.60431 6.64038H4.39575C4.1692 6.64038 3.9856 6.82399 3.9856 7.05054C3.9856 7.27708 4.1692 7.46069 4.39575 7.46069H9.60431C9.83086 7.46069 10.0145 7.27708 10.0145 7.05054C10.0145 6.82399 9.83086 6.64038 9.60431 6.64038Z" fill="#BCBCBC" stroke="#BCBCBC" stroke-width="0.4"/>
</g>
<defs>
<clipPath id="clip0">
<rect width="14" height="14" fill="white"/>
</clipPath>
</defs>
</svg>
