<svg width="80" height="80" viewBox="0 0 80 80" fill="none" xmlns="http://www.w3.org/2000/svg">
<circle cx="40" cy="40" r="40" fill="#2154D1"/>
<g clip-path="url(#clip0)">
<path d="M51.3281 26.4193L40.3906 20.1046C40.1489 19.9651 39.8511 19.9651 39.6094 20.1046L28.6719 26.4193C28.4302 26.5591 28.2812 26.8169 28.2812 27.0959V32.73C28.2812 33.009 28.4302 33.2671 28.6719 33.4066L31.3562 34.9563L28.6719 36.5066C28.4302 36.646 28.2812 36.9039 28.2812 37.1828V42.817C28.2812 43.0959 28.4302 43.3541 28.6719 43.4936L31.3562 45.0433L28.6719 46.5932C28.4302 46.7327 28.2812 46.9909 28.2812 47.2698V52.904C28.2812 53.1829 28.4302 53.4411 28.6719 53.5806L39.6094 59.8952C39.7302 59.9651 39.8651 59.9999 40 59.9999C40.1349 59.9999 40.2698 59.9651 40.3906 59.8952L51.3281 53.5806C51.5698 53.4411 51.7188 53.1829 51.7188 52.904V47.2698C51.7188 46.9909 51.5698 46.7327 51.3281 46.5932L48.6435 45.0436L51.3281 43.4936C51.5698 43.3541 51.7188 43.0959 51.7188 42.817V37.1828C51.7188 36.9039 51.5698 36.646 51.3281 36.5066L48.6438 34.9566L51.3281 33.4066C51.5698 33.2671 51.7188 33.0093 51.7188 32.73V27.0962C51.7188 26.8169 51.5698 26.5591 51.3281 26.4193ZM40 21.6833L49.375 27.0962L40 32.5088L30.625 27.0962L40 21.6833ZM29.8438 28.449L39.2188 33.8619V37.6916L29.8438 32.279V28.449ZM29.8438 38.536L39.2188 43.9489V47.7785L29.8438 42.366V38.536ZM29.8438 48.623L39.2188 54.0356V57.8655L29.8438 52.4529V48.623ZM40.7812 57.8655V54.0359L50.1562 48.623V52.4529L40.7812 57.8655ZM49.375 47.2698L40 52.6824L30.625 47.2698L32.9187 45.9454L39.6094 49.8083C39.7302 49.8782 39.8651 49.9129 40 49.9129C40.1349 49.9129 40.2698 49.8782 40.3906 49.8083L47.081 45.9457L49.375 47.2698ZM40.7812 47.7785V43.9489L50.1562 38.5363V42.366L40.7812 47.7785ZM49.375 37.1828L40 42.5957L30.625 37.1828L32.9187 35.8587L39.6094 39.7213C39.7302 39.7912 39.8651 39.826 40 39.826C40.1349 39.826 40.2698 39.7912 40.3906 39.7213L47.0813 35.8587L49.375 37.1828ZM40.7812 37.6919V33.8619L50.1562 28.4493V32.279L40.7812 37.6919Z" fill="white"/>
<path d="M56.5625 40.3037C56.3571 40.3037 56.1554 40.3867 56.0101 40.5326C55.8649 40.6779 55.7812 40.8787 55.7812 41.085C55.7812 41.2903 55.8649 41.4921 56.0101 41.6373C56.1554 41.7826 56.3571 41.8662 56.5625 41.8662C56.7679 41.8662 56.9696 41.7826 57.1149 41.6373C57.2601 41.4921 57.3438 41.2903 57.3438 41.085C57.3438 40.8787 57.2601 40.6772 57.1149 40.5326C56.9696 40.3867 56.7679 40.3037 56.5625 40.3037Z" fill="white"/>
<path d="M59.2188 28.1638C59.2188 26.6993 58.0273 25.5076 56.5625 25.5076C55.098 25.5076 53.9062 26.6993 53.9062 28.1638C53.9062 29.3568 54.6967 30.3684 55.7812 30.7029V37.5693C55.7812 38.0009 56.131 38.3506 56.5625 38.3506C56.994 38.3506 57.3438 38.0009 57.3438 37.5693V30.7029C58.4283 30.3684 59.2188 29.3568 59.2188 28.1638ZM56.5625 29.2576C55.9595 29.2576 55.4688 28.7672 55.4688 28.1638C55.4688 27.5608 55.9595 27.0701 56.5625 27.0701C57.1655 27.0701 57.6562 27.5608 57.6562 28.1638C57.6562 28.7672 57.1655 29.2576 56.5625 29.2576Z" fill="white"/>
<path d="M23.4375 55.5369C23.006 55.5369 22.6562 55.8869 22.6562 56.3181V59.2188C22.6562 59.6503 23.006 60.0001 23.4375 60.0001C23.869 60.0001 24.2188 59.6503 24.2188 59.2188V56.3181C24.2188 55.8866 23.869 55.5369 23.4375 55.5369Z" fill="white"/>
<path d="M23.4375 40.7405C21.973 40.7405 20.7812 41.9322 20.7812 43.3967C20.7812 44.5897 21.5717 45.6013 22.6562 45.9355V52.4159C22.6562 52.8474 23.006 53.1971 23.4375 53.1971C23.869 53.1971 24.2188 52.8474 24.2188 52.4159V45.9355C25.3033 45.601 26.0938 44.5897 26.0938 43.3967C26.0938 41.9322 24.9023 40.7405 23.4375 40.7405ZM23.4375 44.4905C22.8345 44.4905 22.3438 44.0001 22.3438 43.3967C22.3438 42.7937 22.8345 42.303 23.4375 42.303C24.0405 42.303 24.5312 42.7937 24.5312 43.3967C24.5312 44.0001 24.0405 44.4905 23.4375 44.4905Z" fill="white"/>
</g>
<defs>
<clipPath id="clip0">
<rect width="40" height="40" fill="white" transform="translate(20 20)"/>
</clipPath>
</defs>
</svg>
