<svg width="80" height="80" viewBox="0 0 80 80" fill="none" xmlns="http://www.w3.org/2000/svg">
<circle cx="40" cy="40" r="40" fill="#2154D1"/>
<g clip-path="url(#clip0)">
<path d="M27 23.9333C25.2632 23.9333 23.85 25.3464 23.85 27.0833C23.85 28.8201 25.2632 30.2333 27 30.2333C28.7368 30.2333 30.15 28.8201 30.15 27.0833C30.15 25.3464 28.7368 23.9333 27 23.9333ZM27 28.5999C26.1641 28.5999 25.4833 27.9197 25.4833 27.0833C25.4833 26.2468 26.1641 25.5666 27 25.5666C27.8359 25.5666 28.5167 26.2468 28.5167 27.0833C28.5167 27.9197 27.8359 28.5999 27 28.5999Z" fill="white" stroke="white" stroke-width="0.3"/>
<path d="M53.3337 26.8998C53.7847 26.8998 54.1503 26.5342 54.1503 26.0832C54.1503 25.6321 53.7847 25.2665 53.3337 25.2665C52.8826 25.2665 52.517 25.6321 52.517 26.0832C52.517 26.5342 52.8826 26.8998 53.3337 26.8998Z" fill="white" stroke="white" stroke-width="0.3"/>
<path d="M50.6667 26.8998C51.1177 26.8998 51.4833 26.5342 51.4833 26.0832C51.4833 25.6321 51.1177 25.2665 50.6667 25.2665C50.2156 25.2665 49.85 25.6321 49.85 26.0832C49.85 26.5342 50.2156 26.8998 50.6667 26.8998Z" fill="white" stroke="white" stroke-width="0.3"/>
<path d="M54.6667 28.8998C55.1177 28.8998 55.4833 28.5342 55.4833 28.0832C55.4833 27.6321 55.1177 27.2665 54.6667 27.2665C54.2156 27.2665 53.85 27.6321 53.85 28.0832C53.85 28.5342 54.2156 28.8998 54.6667 28.8998Z" fill="white" stroke="white" stroke-width="0.3"/>
<path d="M51.9997 28.8998C52.4507 28.8998 52.8163 28.5342 52.8163 28.0832C52.8163 27.6321 52.4507 27.2665 51.9997 27.2665C51.5486 27.2665 51.183 27.6321 51.183 28.0832C51.183 28.5342 51.5486 28.8998 51.9997 28.8998Z" fill="white" stroke="white" stroke-width="0.3"/>
<path d="M47.9997 26.8998C48.4507 26.8998 48.8163 26.5342 48.8163 26.0832C48.8163 25.6321 48.4507 25.2665 47.9997 25.2665C47.5486 25.2665 47.183 25.6321 47.183 26.0832C47.183 26.5342 47.5486 26.8998 47.9997 26.8998Z" fill="white" stroke="white" stroke-width="0.3"/>
<path d="M49.3337 28.8998C49.7847 28.8998 50.1503 28.5342 50.1503 28.0832C50.1503 27.6321 49.7847 27.2665 49.3337 27.2665C48.8826 27.2665 48.517 27.6321 48.517 28.0832C48.517 28.5342 48.8826 28.8998 49.3337 28.8998Z" fill="white" stroke="white" stroke-width="0.3"/>
<path d="M45.3337 26.8998C45.7847 26.8998 46.1503 26.5342 46.1503 26.0832C46.1503 25.6321 45.7847 25.2665 45.3337 25.2665C44.8826 25.2665 44.517 25.6321 44.517 26.0832C44.517 26.5342 44.8826 26.8998 45.3337 26.8998Z" fill="white" stroke="white" stroke-width="0.3"/>
<path d="M46.6667 28.8998C47.1177 28.8998 47.4833 28.5342 47.4833 28.0832C47.4833 27.6321 47.1177 27.2665 46.6667 27.2665C46.2156 27.2665 45.85 27.6321 45.85 28.0832C45.85 28.5342 46.2156 28.8998 46.6667 28.8998Z" fill="white" stroke="white" stroke-width="0.3"/>
<path d="M42.6667 26.8998C43.1177 26.8998 43.4833 26.5342 43.4833 26.0832C43.4833 25.6321 43.1177 25.2665 42.6667 25.2665C42.2156 25.2665 41.85 25.6321 41.85 26.0832C41.85 26.5342 42.2156 26.8998 42.6667 26.8998Z" fill="white" stroke="white" stroke-width="0.3"/>
<path d="M43.9997 28.8998C44.4507 28.8998 44.8163 28.5342 44.8163 28.0832C44.8163 27.6321 44.4507 27.2665 43.9997 27.2665C43.5486 27.2665 43.183 27.6321 43.183 28.0832C43.183 28.5342 43.5486 28.8998 43.9997 28.8998Z" fill="white" stroke="white" stroke-width="0.3"/>
<path d="M27 36.6C25.2632 36.6 23.85 38.0132 23.85 39.75C23.85 41.4868 25.2632 42.9 27 42.9C28.7368 42.9 30.15 41.4868 30.15 39.75C30.15 38.0132 28.7368 36.6 27 36.6ZM27 41.2667C26.1641 41.2667 25.4833 40.5865 25.4833 39.75C25.4833 38.9135 26.1641 38.2333 27 38.2333C27.8359 38.2333 28.5167 38.9135 28.5167 39.75C28.5167 40.5865 27.8359 41.2667 27 41.2667Z" fill="white" stroke="white" stroke-width="0.3"/>
<path d="M27 49.2665C25.2632 49.2665 23.85 50.6797 23.85 52.4165C23.85 54.1533 25.2632 55.5665 27 55.5665C28.7368 55.5665 30.15 54.1533 30.15 52.4165C30.15 50.6797 28.7368 49.2665 27 49.2665ZM27 53.9332C26.1641 53.9332 25.4833 53.253 25.4833 52.4165C25.4833 51.5801 26.1641 50.8998 27 50.8998C27.8359 50.8998 28.5167 51.5801 28.5167 52.4165C28.5167 53.253 27.8359 53.9332 27 53.9332Z" fill="white" stroke="white" stroke-width="0.3"/>
<mask id="path-15-outside-1" maskUnits="userSpaceOnUse" x="19" y="19.0833" width="42" height="42" fill="black">
<rect fill="white" x="19" y="19.0833" width="42" height="42"/>
<path d="M60 31.0113V23.1553C60 21.4613 58.622 20.0833 56.928 20.0833H23.072C21.378 20.0833 20 21.4613 20 23.1553V31.0106C20 31.9899 20.4687 32.8533 21.1847 33.4159C20.4687 33.9793 20 34.8433 20 35.8219V43.6773C20 44.6566 20.4687 45.5199 21.1847 46.0826C20.4687 46.6459 20 47.5099 20 48.4886V56.3439C20 58.0379 21.378 59.4159 23.072 59.4159H41.6553C43.4433 59.7453 45.4033 59.9159 47.3333 59.9159C53.1147 59.9159 59.2107 58.4166 59.93 55.5473C59.9747 55.4586 60 55.3573 60 55.2499V49.2499V48.9999V48.7499V43.2499V42.9999V42.7499V36.9999V36.7499C60 36.6499 59.9753 36.5573 59.936 36.4726C59.7047 35.4966 58.8373 34.6746 57.5613 34.0159C58.952 33.7233 60 32.4879 60 31.0113ZM21.3333 43.6779V35.8219C21.3333 34.8633 22.1133 34.0833 23.072 34.0833H36.9787C35.7727 34.7306 34.954 35.5293 34.7307 36.4726C34.6913 36.5579 34.6667 36.6499 34.6667 36.7499V36.9999V42.7499V42.9999V43.2499V45.4166H23.072C22.1133 45.4166 21.3333 44.6366 21.3333 43.6779ZM36.4173 39.5866C36.4473 39.6059 36.4793 39.6253 36.51 39.6446C36.6273 39.7179 36.7493 39.7899 36.8767 39.8606C36.9133 39.8806 36.9487 39.9013 36.9853 39.9206C37.1407 40.0039 37.302 40.0853 37.47 40.1633C37.4967 40.1759 37.5253 40.1879 37.552 40.1999C37.6993 40.2673 37.8507 40.3319 38.0067 40.3953C38.0527 40.4139 38.098 40.4326 38.144 40.4506C38.328 40.5226 38.5153 40.5933 38.7093 40.6599C38.72 40.6633 38.7307 40.6666 38.7413 40.6706C38.9267 40.7339 39.1173 40.7946 39.3113 40.8533C39.3633 40.8693 39.416 40.8846 39.4687 40.8999C39.6607 40.9559 39.8553 41.0106 40.0547 41.0626C40.0707 41.0666 40.086 41.0713 40.102 41.0753C40.3167 41.1306 40.536 41.1819 40.7587 41.2319C40.8147 41.2446 40.8713 41.2566 40.9273 41.2686C41.118 41.3099 41.3107 41.3493 41.5053 41.3866C41.544 41.3939 41.5827 41.4019 41.6213 41.4093C41.85 41.4519 42.0813 41.4913 42.3153 41.5286C42.3707 41.5373 42.4273 41.5459 42.4827 41.5546C42.6767 41.5846 42.872 41.6126 43.0693 41.6386C43.1233 41.6459 43.1767 41.6533 43.2313 41.6599C43.47 41.6899 43.71 41.7179 43.952 41.7433C44.0007 41.7486 44.05 41.7526 44.0987 41.7573C44.302 41.7773 44.5067 41.7953 44.7113 41.8119C44.7733 41.8166 44.8347 41.8219 44.8967 41.8266C45.1413 41.8446 45.3873 41.8606 45.6333 41.8733C45.668 41.8753 45.7033 41.8759 45.7387 41.8779C45.9553 41.8886 46.1727 41.8966 46.39 41.9026C46.4553 41.9046 46.5207 41.9066 46.5867 41.9079C46.8353 41.9133 47.084 41.9173 47.332 41.9173C47.58 41.9173 47.8287 41.9133 48.0773 41.9079C48.1427 41.9066 48.208 41.9046 48.274 41.9026C48.4913 41.8966 48.708 41.8886 48.9253 41.8779C48.9607 41.8759 48.9953 41.8753 49.0307 41.8733C49.2767 41.8606 49.5227 41.8446 49.7673 41.8266C49.8293 41.8219 49.8907 41.8173 49.9527 41.8119C50.158 41.7959 50.362 41.7773 50.5653 41.7573C50.614 41.7526 50.6633 41.7479 50.712 41.7433C50.954 41.7179 51.194 41.6906 51.4327 41.6599C51.4867 41.6533 51.5407 41.6459 51.5947 41.6386C51.7913 41.6126 51.9873 41.5846 52.1813 41.5546C52.2373 41.5459 52.2933 41.5379 52.3487 41.5286C52.5827 41.4913 52.814 41.4519 53.0427 41.4093C53.082 41.4019 53.12 41.3939 53.1587 41.3866C53.354 41.3493 53.5467 41.3099 53.7367 41.2686C53.7933 41.2559 53.8493 41.2439 53.9053 41.2319C54.1273 41.1819 54.3473 41.1306 54.562 41.0753C54.578 41.0713 54.5933 41.0666 54.6093 41.0626C54.8087 41.0113 55.0033 40.9566 55.1953 40.8999C55.248 40.8846 55.3007 40.8693 55.3527 40.8533C55.5467 40.7946 55.7373 40.7339 55.9227 40.6706C55.9333 40.6673 55.944 40.6639 55.9547 40.6599C56.1487 40.5926 56.3367 40.5226 56.52 40.4506C56.5667 40.4326 56.612 40.4139 56.6573 40.3953C56.8133 40.3319 56.9647 40.2673 57.112 40.1999C57.1393 40.1873 57.1673 40.1759 57.194 40.1633C57.362 40.0853 57.5227 40.0039 57.6787 39.9206C57.716 39.9006 57.7513 39.8806 57.7873 39.8606C57.914 39.7906 58.036 39.7186 58.154 39.6446C58.1847 39.6253 58.2167 39.6066 58.2467 39.5866C58.3847 39.4973 58.5153 39.4053 58.6393 39.3106C58.6473 39.3046 58.6567 39.2993 58.6647 39.2933V42.6186C58.6487 42.6959 58.638 42.7746 58.6507 42.8539C58.66 42.9026 58.6667 42.9506 58.6667 42.9999C58.6667 43.0733 58.646 43.1479 58.628 43.2219C58.614 43.2793 58.596 43.3373 58.572 43.3946C58.5507 43.4446 58.524 43.4953 58.4947 43.5453C58.466 43.5953 58.4347 43.6459 58.3987 43.6959C58.3473 43.7653 58.2893 43.8346 58.2233 43.9039C58.1987 43.9306 58.174 43.9573 58.1473 43.9839C56.736 45.3493 52.5713 46.5826 47.334 46.5826C42.1 46.5826 37.9373 45.3506 36.5233 43.9859C36.494 43.9566 36.4673 43.9279 36.4407 43.8986C36.378 43.8319 36.3213 43.7653 36.272 43.6986C36.234 43.6459 36.2007 43.5933 36.1707 43.5399C36.1433 43.4926 36.118 43.4453 36.0973 43.3973C36.0713 43.3366 36.0533 43.2766 36.0387 43.2166C36.0207 43.1446 36 43.0719 36 42.9999C36 42.9526 36.006 42.9053 36.014 42.8586C36.028 42.7719 36.0193 42.6853 36 42.6019V39.2926C36.008 39.2986 36.0173 39.3039 36.0253 39.3099C36.1487 39.4046 36.2793 39.4966 36.4173 39.5866ZM58.5713 49.3946C58.55 49.4446 58.5233 49.4953 58.494 49.5453C58.4653 49.5953 58.434 49.6459 58.398 49.6959C58.3467 49.7653 58.2887 49.8346 58.2227 49.9039C58.198 49.9306 58.1733 49.9573 58.1467 49.9839C56.7353 51.3493 52.5707 52.5826 47.3333 52.5826C42.0993 52.5826 37.9367 51.3506 36.5227 49.9859C36.4933 49.9566 36.4667 49.9279 36.44 49.8986C36.3773 49.8319 36.3207 49.7653 36.2713 49.6986C36.2333 49.6459 36.2 49.5933 36.17 49.5399C36.1427 49.4926 36.1173 49.4453 36.0967 49.3973C36.0707 49.3366 36.0527 49.2766 36.038 49.2166C36.0227 49.1539 36.0067 49.0906 36.0047 49.0279V48.9479C36.0073 48.9179 36.0087 48.8879 36.0133 48.8579C36.0227 48.8006 36.01 48.7446 36.004 48.6879L36 45.4166V45.2926C36.0267 45.3133 36.058 45.3326 36.086 45.3526C36.17 45.4153 36.258 45.4766 36.348 45.5373C36.4213 45.5859 36.4973 45.6339 36.5747 45.6819C36.694 45.7553 36.814 45.8279 36.942 45.8979C36.9433 45.8986 36.9447 45.8993 36.9453 45.8999C38.336 46.6579 40.248 47.2053 42.362 47.5366C42.378 47.5393 42.394 47.5413 42.41 47.5439C43.092 47.6499 43.792 47.7326 44.504 47.7933C44.6553 47.8059 44.806 47.8193 44.9587 47.8299C45.1073 47.8406 45.256 47.8499 45.4053 47.8579C45.6067 47.8693 45.808 47.8793 46.0093 47.8873C46.1267 47.8919 46.244 47.8973 46.362 47.9006C46.6867 47.9099 47.0107 47.9166 47.334 47.9166C47.6567 47.9166 47.9807 47.9106 48.304 47.9013C48.4227 47.8979 48.5407 47.8926 48.6593 47.8879C48.8593 47.8799 49.0587 47.8706 49.258 47.8593C49.4087 47.8506 49.5587 47.8413 49.7087 47.8306C49.8587 47.8199 50.0067 47.8073 50.156 47.7946C50.8747 47.7339 51.5813 47.6499 52.2693 47.5433C52.2793 47.5419 52.29 47.5399 52.3 47.5386C54.61 47.1773 56.676 46.5566 58.0873 45.6859C58.164 45.6386 58.24 45.5913 58.3127 45.5426C58.4027 45.4826 58.4907 45.4213 58.574 45.3586C58.604 45.3366 58.638 45.3159 58.6673 45.2933V48.6186C58.6513 48.6959 58.6407 48.7746 58.6533 48.8539C58.66 48.9026 58.6667 48.9506 58.6667 48.9999C58.6667 49.0733 58.646 49.1479 58.628 49.2219C58.6133 49.2793 58.596 49.3373 58.5713 49.3946ZM23.072 58.0833C22.1133 58.0833 21.3333 57.3033 21.3333 56.3446V48.4886C21.3333 47.5299 22.1133 46.7499 23.072 46.7499H34.6667V48.7499V48.9999V49.2499V55.2499V55.9166H34.864C34.8747 55.9413 34.89 55.9653 34.902 55.9899C34.9253 56.0399 34.9513 56.0886 34.978 56.1379C35.0327 56.2366 35.0947 56.3339 35.1633 56.4299C35.2313 56.5266 35.308 56.6199 35.3893 56.7126C35.4307 56.7593 35.472 56.8053 35.5167 56.8513C35.772 57.1146 36.0787 57.3613 36.4327 57.5919C36.4447 57.5999 36.4573 57.6079 36.47 57.6159C36.726 57.7806 37.0027 57.9366 37.302 58.0839H23.072V58.0833ZM58.6667 55.0793C58.6613 55.0999 58.6567 55.1213 58.6533 55.1419C58.3807 56.8039 53.7667 58.5833 47.3333 58.5833C45.2807 58.5833 43.4167 58.4013 41.816 58.1006L41.8167 58.0953C38.5013 57.4679 36.6667 56.4086 36.1533 55.5153C36.1527 55.5146 36.152 55.5139 36.152 55.5126C36.1287 55.4713 36.112 55.4306 36.094 55.3906C36.0593 55.3073 36.0267 55.2246 36.0133 55.1419L36.008 51.2986C36.032 51.3173 36.0607 51.3346 36.0853 51.3533C36.1693 51.4159 36.2573 51.4773 36.3473 51.5379C36.4207 51.5866 36.4967 51.6346 36.574 51.6826C36.6933 51.7559 36.8133 51.8286 36.9413 51.8986C36.9427 51.8993 36.944 51.8999 36.9447 51.9006C38.3353 52.6586 40.2473 53.2059 42.3613 53.5373C42.3773 53.5399 42.3933 53.5419 42.4093 53.5446C43.0913 53.6506 43.7913 53.7333 44.5033 53.7939C44.6547 53.8066 44.8053 53.8199 44.958 53.8306C45.1067 53.8413 45.2553 53.8506 45.4047 53.8586C45.606 53.8699 45.8073 53.8799 46.0087 53.8879C46.126 53.8926 46.2433 53.8979 46.3613 53.9013C46.686 53.9106 47.01 53.9173 47.3333 53.9173C47.656 53.9173 47.98 53.9113 48.3033 53.9019C48.422 53.8986 48.54 53.8933 48.6587 53.8886C48.8587 53.8806 49.058 53.8713 49.2573 53.8599C49.408 53.8513 49.558 53.8419 49.708 53.8313C49.858 53.8206 50.006 53.8079 50.1553 53.7953C50.874 53.7346 51.5807 53.6506 52.2687 53.5439C52.2787 53.5426 52.2893 53.5406 52.2993 53.5393C54.6093 53.1779 56.6753 52.5573 58.0867 51.6866C58.1633 51.6393 58.2393 51.5919 58.312 51.5433C58.402 51.4833 58.49 51.4219 58.5733 51.3593C58.6033 51.3373 58.6373 51.3166 58.6667 51.2939V55.0793ZM58.6667 36.9999C58.6667 38.6913 53.8193 40.5833 47.3333 40.5833C40.8467 40.5833 36 38.6913 36 36.9999C36 36.9146 36.0207 36.8279 36.0453 36.7413C36.072 36.6553 36.108 36.5673 36.1613 36.4766C36.1633 36.4726 36.1653 36.4686 36.1673 36.4646C36.3893 36.0939 36.8367 35.6953 37.5253 35.3106C37.5547 35.2946 37.5847 35.2786 37.6147 35.2626C37.7327 35.1986 37.8573 35.1353 37.9887 35.0726C38.1413 35.0013 38.298 34.9299 38.466 34.8613C38.4987 34.8473 38.5327 34.8339 38.5667 34.8206C39.3413 34.5119 40.2747 34.2379 41.3253 34.0139C41.654 33.9446 41.9887 33.8793 42.3327 33.8219C42.424 33.8066 42.5133 33.7906 42.606 33.7759C45.5907 33.3159 49.0727 33.3159 52.0573 33.7759C52.1513 33.7906 52.242 33.8073 52.3347 33.8226C52.6767 33.8793 53.0093 33.9439 53.3353 34.0133C56.5853 34.7053 58.6667 35.8939 58.6667 36.9999ZM58.6667 31.0113C58.6667 31.9699 57.8867 32.7499 56.928 32.7499H53.8413C53.8027 32.7413 53.76 32.7359 53.7213 32.7273C53.284 32.6326 52.834 32.5479 52.374 32.4746C52.3293 32.4679 52.2847 32.4606 52.24 32.4539C50.666 32.2093 48.986 32.0833 47.3333 32.0833C45.6807 32.0833 44.002 32.2093 42.428 32.4539C42.382 32.4606 42.3367 32.4679 42.2907 32.4746C41.832 32.5479 41.3833 32.6326 40.9473 32.7266C40.908 32.7353 40.864 32.7406 40.8247 32.7493H23.072C22.1133 32.7499 21.3333 31.9699 21.3333 31.0113V23.1553C21.3333 22.1966 22.1133 21.4166 23.072 21.4166H56.9273C57.8867 21.4166 58.6667 22.1966 58.6667 23.1553V31.0113Z"/>
</mask>
<path d="M60 31.0113V23.1553C60 21.4613 58.622 20.0833 56.928 20.0833H23.072C21.378 20.0833 20 21.4613 20 23.1553V31.0106C20 31.9899 20.4687 32.8533 21.1847 33.4159C20.4687 33.9793 20 34.8433 20 35.8219V43.6773C20 44.6566 20.4687 45.5199 21.1847 46.0826C20.4687 46.6459 20 47.5099 20 48.4886V56.3439C20 58.0379 21.378 59.4159 23.072 59.4159H41.6553C43.4433 59.7453 45.4033 59.9159 47.3333 59.9159C53.1147 59.9159 59.2107 58.4166 59.93 55.5473C59.9747 55.4586 60 55.3573 60 55.2499V49.2499V48.9999V48.7499V43.2499V42.9999V42.7499V36.9999V36.7499C60 36.6499 59.9753 36.5573 59.936 36.4726C59.7047 35.4966 58.8373 34.6746 57.5613 34.0159C58.952 33.7233 60 32.4879 60 31.0113ZM21.3333 43.6779V35.8219C21.3333 34.8633 22.1133 34.0833 23.072 34.0833H36.9787C35.7727 34.7306 34.954 35.5293 34.7307 36.4726C34.6913 36.5579 34.6667 36.6499 34.6667 36.7499V36.9999V42.7499V42.9999V43.2499V45.4166H23.072C22.1133 45.4166 21.3333 44.6366 21.3333 43.6779ZM36.4173 39.5866C36.4473 39.6059 36.4793 39.6253 36.51 39.6446C36.6273 39.7179 36.7493 39.7899 36.8767 39.8606C36.9133 39.8806 36.9487 39.9013 36.9853 39.9206C37.1407 40.0039 37.302 40.0853 37.47 40.1633C37.4967 40.1759 37.5253 40.1879 37.552 40.1999C37.6993 40.2673 37.8507 40.3319 38.0067 40.3953C38.0527 40.4139 38.098 40.4326 38.144 40.4506C38.328 40.5226 38.5153 40.5933 38.7093 40.6599C38.72 40.6633 38.7307 40.6666 38.7413 40.6706C38.9267 40.7339 39.1173 40.7946 39.3113 40.8533C39.3633 40.8693 39.416 40.8846 39.4687 40.8999C39.6607 40.9559 39.8553 41.0106 40.0547 41.0626C40.0707 41.0666 40.086 41.0713 40.102 41.0753C40.3167 41.1306 40.536 41.1819 40.7587 41.2319C40.8147 41.2446 40.8713 41.2566 40.9273 41.2686C41.118 41.3099 41.3107 41.3493 41.5053 41.3866C41.544 41.3939 41.5827 41.4019 41.6213 41.4093C41.85 41.4519 42.0813 41.4913 42.3153 41.5286C42.3707 41.5373 42.4273 41.5459 42.4827 41.5546C42.6767 41.5846 42.872 41.6126 43.0693 41.6386C43.1233 41.6459 43.1767 41.6533 43.2313 41.6599C43.47 41.6899 43.71 41.7179 43.952 41.7433C44.0007 41.7486 44.05 41.7526 44.0987 41.7573C44.302 41.7773 44.5067 41.7953 44.7113 41.8119C44.7733 41.8166 44.8347 41.8219 44.8967 41.8266C45.1413 41.8446 45.3873 41.8606 45.6333 41.8733C45.668 41.8753 45.7033 41.8759 45.7387 41.8779C45.9553 41.8886 46.1727 41.8966 46.39 41.9026C46.4553 41.9046 46.5207 41.9066 46.5867 41.9079C46.8353 41.9133 47.084 41.9173 47.332 41.9173C47.58 41.9173 47.8287 41.9133 48.0773 41.9079C48.1427 41.9066 48.208 41.9046 48.274 41.9026C48.4913 41.8966 48.708 41.8886 48.9253 41.8779C48.9607 41.8759 48.9953 41.8753 49.0307 41.8733C49.2767 41.8606 49.5227 41.8446 49.7673 41.8266C49.8293 41.8219 49.8907 41.8173 49.9527 41.8119C50.158 41.7959 50.362 41.7773 50.5653 41.7573C50.614 41.7526 50.6633 41.7479 50.712 41.7433C50.954 41.7179 51.194 41.6906 51.4327 41.6599C51.4867 41.6533 51.5407 41.6459 51.5947 41.6386C51.7913 41.6126 51.9873 41.5846 52.1813 41.5546C52.2373 41.5459 52.2933 41.5379 52.3487 41.5286C52.5827 41.4913 52.814 41.4519 53.0427 41.4093C53.082 41.4019 53.12 41.3939 53.1587 41.3866C53.354 41.3493 53.5467 41.3099 53.7367 41.2686C53.7933 41.2559 53.8493 41.2439 53.9053 41.2319C54.1273 41.1819 54.3473 41.1306 54.562 41.0753C54.578 41.0713 54.5933 41.0666 54.6093 41.0626C54.8087 41.0113 55.0033 40.9566 55.1953 40.8999C55.248 40.8846 55.3007 40.8693 55.3527 40.8533C55.5467 40.7946 55.7373 40.7339 55.9227 40.6706C55.9333 40.6673 55.944 40.6639 55.9547 40.6599C56.1487 40.5926 56.3367 40.5226 56.52 40.4506C56.5667 40.4326 56.612 40.4139 56.6573 40.3953C56.8133 40.3319 56.9647 40.2673 57.112 40.1999C57.1393 40.1873 57.1673 40.1759 57.194 40.1633C57.362 40.0853 57.5227 40.0039 57.6787 39.9206C57.716 39.9006 57.7513 39.8806 57.7873 39.8606C57.914 39.7906 58.036 39.7186 58.154 39.6446C58.1847 39.6253 58.2167 39.6066 58.2467 39.5866C58.3847 39.4973 58.5153 39.4053 58.6393 39.3106C58.6473 39.3046 58.6567 39.2993 58.6647 39.2933V42.6186C58.6487 42.6959 58.638 42.7746 58.6507 42.8539C58.66 42.9026 58.6667 42.9506 58.6667 42.9999C58.6667 43.0733 58.646 43.1479 58.628 43.2219C58.614 43.2793 58.596 43.3373 58.572 43.3946C58.5507 43.4446 58.524 43.4953 58.4947 43.5453C58.466 43.5953 58.4347 43.6459 58.3987 43.6959C58.3473 43.7653 58.2893 43.8346 58.2233 43.9039C58.1987 43.9306 58.174 43.9573 58.1473 43.9839C56.736 45.3493 52.5713 46.5826 47.334 46.5826C42.1 46.5826 37.9373 45.3506 36.5233 43.9859C36.494 43.9566 36.4673 43.9279 36.4407 43.8986C36.378 43.8319 36.3213 43.7653 36.272 43.6986C36.234 43.6459 36.2007 43.5933 36.1707 43.5399C36.1433 43.4926 36.118 43.4453 36.0973 43.3973C36.0713 43.3366 36.0533 43.2766 36.0387 43.2166C36.0207 43.1446 36 43.0719 36 42.9999C36 42.9526 36.006 42.9053 36.014 42.8586C36.028 42.7719 36.0193 42.6853 36 42.6019V39.2926C36.008 39.2986 36.0173 39.3039 36.0253 39.3099C36.1487 39.4046 36.2793 39.4966 36.4173 39.5866ZM58.5713 49.3946C58.55 49.4446 58.5233 49.4953 58.494 49.5453C58.4653 49.5953 58.434 49.6459 58.398 49.6959C58.3467 49.7653 58.2887 49.8346 58.2227 49.9039C58.198 49.9306 58.1733 49.9573 58.1467 49.9839C56.7353 51.3493 52.5707 52.5826 47.3333 52.5826C42.0993 52.5826 37.9367 51.3506 36.5227 49.9859C36.4933 49.9566 36.4667 49.9279 36.44 49.8986C36.3773 49.8319 36.3207 49.7653 36.2713 49.6986C36.2333 49.6459 36.2 49.5933 36.17 49.5399C36.1427 49.4926 36.1173 49.4453 36.0967 49.3973C36.0707 49.3366 36.0527 49.2766 36.038 49.2166C36.0227 49.1539 36.0067 49.0906 36.0047 49.0279V48.9479C36.0073 48.9179 36.0087 48.8879 36.0133 48.8579C36.0227 48.8006 36.01 48.7446 36.004 48.6879L36 45.4166V45.2926C36.0267 45.3133 36.058 45.3326 36.086 45.3526C36.17 45.4153 36.258 45.4766 36.348 45.5373C36.4213 45.5859 36.4973 45.6339 36.5747 45.6819C36.694 45.7553 36.814 45.8279 36.942 45.8979C36.9433 45.8986 36.9447 45.8993 36.9453 45.8999C38.336 46.6579 40.248 47.2053 42.362 47.5366C42.378 47.5393 42.394 47.5413 42.41 47.5439C43.092 47.6499 43.792 47.7326 44.504 47.7933C44.6553 47.8059 44.806 47.8193 44.9587 47.8299C45.1073 47.8406 45.256 47.8499 45.4053 47.8579C45.6067 47.8693 45.808 47.8793 46.0093 47.8873C46.1267 47.8919 46.244 47.8973 46.362 47.9006C46.6867 47.9099 47.0107 47.9166 47.334 47.9166C47.6567 47.9166 47.9807 47.9106 48.304 47.9013C48.4227 47.8979 48.5407 47.8926 48.6593 47.8879C48.8593 47.8799 49.0587 47.8706 49.258 47.8593C49.4087 47.8506 49.5587 47.8413 49.7087 47.8306C49.8587 47.8199 50.0067 47.8073 50.156 47.7946C50.8747 47.7339 51.5813 47.6499 52.2693 47.5433C52.2793 47.5419 52.29 47.5399 52.3 47.5386C54.61 47.1773 56.676 46.5566 58.0873 45.6859C58.164 45.6386 58.24 45.5913 58.3127 45.5426C58.4027 45.4826 58.4907 45.4213 58.574 45.3586C58.604 45.3366 58.638 45.3159 58.6673 45.2933V48.6186C58.6513 48.6959 58.6407 48.7746 58.6533 48.8539C58.66 48.9026 58.6667 48.9506 58.6667 48.9999C58.6667 49.0733 58.646 49.1479 58.628 49.2219C58.6133 49.2793 58.596 49.3373 58.5713 49.3946ZM23.072 58.0833C22.1133 58.0833 21.3333 57.3033 21.3333 56.3446V48.4886C21.3333 47.5299 22.1133 46.7499 23.072 46.7499H34.6667V48.7499V48.9999V49.2499V55.2499V55.9166H34.864C34.8747 55.9413 34.89 55.9653 34.902 55.9899C34.9253 56.0399 34.9513 56.0886 34.978 56.1379C35.0327 56.2366 35.0947 56.3339 35.1633 56.4299C35.2313 56.5266 35.308 56.6199 35.3893 56.7126C35.4307 56.7593 35.472 56.8053 35.5167 56.8513C35.772 57.1146 36.0787 57.3613 36.4327 57.5919C36.4447 57.5999 36.4573 57.6079 36.47 57.6159C36.726 57.7806 37.0027 57.9366 37.302 58.0839H23.072V58.0833ZM58.6667 55.0793C58.6613 55.0999 58.6567 55.1213 58.6533 55.1419C58.3807 56.8039 53.7667 58.5833 47.3333 58.5833C45.2807 58.5833 43.4167 58.4013 41.816 58.1006L41.8167 58.0953C38.5013 57.4679 36.6667 56.4086 36.1533 55.5153C36.1527 55.5146 36.152 55.5139 36.152 55.5126C36.1287 55.4713 36.112 55.4306 36.094 55.3906C36.0593 55.3073 36.0267 55.2246 36.0133 55.1419L36.008 51.2986C36.032 51.3173 36.0607 51.3346 36.0853 51.3533C36.1693 51.4159 36.2573 51.4773 36.3473 51.5379C36.4207 51.5866 36.4967 51.6346 36.574 51.6826C36.6933 51.7559 36.8133 51.8286 36.9413 51.8986C36.9427 51.8993 36.944 51.8999 36.9447 51.9006C38.3353 52.6586 40.2473 53.2059 42.3613 53.5373C42.3773 53.5399 42.3933 53.5419 42.4093 53.5446C43.0913 53.6506 43.7913 53.7333 44.5033 53.7939C44.6547 53.8066 44.8053 53.8199 44.958 53.8306C45.1067 53.8413 45.2553 53.8506 45.4047 53.8586C45.606 53.8699 45.8073 53.8799 46.0087 53.8879C46.126 53.8926 46.2433 53.8979 46.3613 53.9013C46.686 53.9106 47.01 53.9173 47.3333 53.9173C47.656 53.9173 47.98 53.9113 48.3033 53.9019C48.422 53.8986 48.54 53.8933 48.6587 53.8886C48.8587 53.8806 49.058 53.8713 49.2573 53.8599C49.408 53.8513 49.558 53.8419 49.708 53.8313C49.858 53.8206 50.006 53.8079 50.1553 53.7953C50.874 53.7346 51.5807 53.6506 52.2687 53.5439C52.2787 53.5426 52.2893 53.5406 52.2993 53.5393C54.6093 53.1779 56.6753 52.5573 58.0867 51.6866C58.1633 51.6393 58.2393 51.5919 58.312 51.5433C58.402 51.4833 58.49 51.4219 58.5733 51.3593C58.6033 51.3373 58.6373 51.3166 58.6667 51.2939V55.0793ZM58.6667 36.9999C58.6667 38.6913 53.8193 40.5833 47.3333 40.5833C40.8467 40.5833 36 38.6913 36 36.9999C36 36.9146 36.0207 36.8279 36.0453 36.7413C36.072 36.6553 36.108 36.5673 36.1613 36.4766C36.1633 36.4726 36.1653 36.4686 36.1673 36.4646C36.3893 36.0939 36.8367 35.6953 37.5253 35.3106C37.5547 35.2946 37.5847 35.2786 37.6147 35.2626C37.7327 35.1986 37.8573 35.1353 37.9887 35.0726C38.1413 35.0013 38.298 34.9299 38.466 34.8613C38.4987 34.8473 38.5327 34.8339 38.5667 34.8206C39.3413 34.5119 40.2747 34.2379 41.3253 34.0139C41.654 33.9446 41.9887 33.8793 42.3327 33.8219C42.424 33.8066 42.5133 33.7906 42.606 33.7759C45.5907 33.3159 49.0727 33.3159 52.0573 33.7759C52.1513 33.7906 52.242 33.8073 52.3347 33.8226C52.6767 33.8793 53.0093 33.9439 53.3353 34.0133C56.5853 34.7053 58.6667 35.8939 58.6667 36.9999ZM58.6667 31.0113C58.6667 31.9699 57.8867 32.7499 56.928 32.7499H53.8413C53.8027 32.7413 53.76 32.7359 53.7213 32.7273C53.284 32.6326 52.834 32.5479 52.374 32.4746C52.3293 32.4679 52.2847 32.4606 52.24 32.4539C50.666 32.2093 48.986 32.0833 47.3333 32.0833C45.6807 32.0833 44.002 32.2093 42.428 32.4539C42.382 32.4606 42.3367 32.4679 42.2907 32.4746C41.832 32.5479 41.3833 32.6326 40.9473 32.7266C40.908 32.7353 40.864 32.7406 40.8247 32.7493H23.072C22.1133 32.7499 21.3333 31.9699 21.3333 31.0113V23.1553C21.3333 22.1966 22.1133 21.4166 23.072 21.4166H56.9273C57.8867 21.4166 58.6667 22.1966 58.6667 23.1553V31.0113Z" fill="white"/>
<path d="M60 31.0113V23.1553C60 21.4613 58.622 20.0833 56.928 20.0833H23.072C21.378 20.0833 20 21.4613 20 23.1553V31.0106C20 31.9899 20.4687 32.8533 21.1847 33.4159C20.4687 33.9793 20 34.8433 20 35.8219V43.6773C20 44.6566 20.4687 45.5199 21.1847 46.0826C20.4687 46.6459 20 47.5099 20 48.4886V56.3439C20 58.0379 21.378 59.4159 23.072 59.4159H41.6553C43.4433 59.7453 45.4033 59.9159 47.3333 59.9159C53.1147 59.9159 59.2107 58.4166 59.93 55.5473C59.9747 55.4586 60 55.3573 60 55.2499V49.2499V48.9999V48.7499V43.2499V42.9999V42.7499V36.9999V36.7499C60 36.6499 59.9753 36.5573 59.936 36.4726C59.7047 35.4966 58.8373 34.6746 57.5613 34.0159C58.952 33.7233 60 32.4879 60 31.0113ZM21.3333 43.6779V35.8219C21.3333 34.8633 22.1133 34.0833 23.072 34.0833H36.9787C35.7727 34.7306 34.954 35.5293 34.7307 36.4726C34.6913 36.5579 34.6667 36.6499 34.6667 36.7499V36.9999V42.7499V42.9999V43.2499V45.4166H23.072C22.1133 45.4166 21.3333 44.6366 21.3333 43.6779ZM36.4173 39.5866C36.4473 39.6059 36.4793 39.6253 36.51 39.6446C36.6273 39.7179 36.7493 39.7899 36.8767 39.8606C36.9133 39.8806 36.9487 39.9013 36.9853 39.9206C37.1407 40.0039 37.302 40.0853 37.47 40.1633C37.4967 40.1759 37.5253 40.1879 37.552 40.1999C37.6993 40.2673 37.8507 40.3319 38.0067 40.3953C38.0527 40.4139 38.098 40.4326 38.144 40.4506C38.328 40.5226 38.5153 40.5933 38.7093 40.6599C38.72 40.6633 38.7307 40.6666 38.7413 40.6706C38.9267 40.7339 39.1173 40.7946 39.3113 40.8533C39.3633 40.8693 39.416 40.8846 39.4687 40.8999C39.6607 40.9559 39.8553 41.0106 40.0547 41.0626C40.0707 41.0666 40.086 41.0713 40.102 41.0753C40.3167 41.1306 40.536 41.1819 40.7587 41.2319C40.8147 41.2446 40.8713 41.2566 40.9273 41.2686C41.118 41.3099 41.3107 41.3493 41.5053 41.3866C41.544 41.3939 41.5827 41.4019 41.6213 41.4093C41.85 41.4519 42.0813 41.4913 42.3153 41.5286C42.3707 41.5373 42.4273 41.5459 42.4827 41.5546C42.6767 41.5846 42.872 41.6126 43.0693 41.6386C43.1233 41.6459 43.1767 41.6533 43.2313 41.6599C43.47 41.6899 43.71 41.7179 43.952 41.7433C44.0007 41.7486 44.05 41.7526 44.0987 41.7573C44.302 41.7773 44.5067 41.7953 44.7113 41.8119C44.7733 41.8166 44.8347 41.8219 44.8967 41.8266C45.1413 41.8446 45.3873 41.8606 45.6333 41.8733C45.668 41.8753 45.7033 41.8759 45.7387 41.8779C45.9553 41.8886 46.1727 41.8966 46.39 41.9026C46.4553 41.9046 46.5207 41.9066 46.5867 41.9079C46.8353 41.9133 47.084 41.9173 47.332 41.9173C47.58 41.9173 47.8287 41.9133 48.0773 41.9079C48.1427 41.9066 48.208 41.9046 48.274 41.9026C48.4913 41.8966 48.708 41.8886 48.9253 41.8779C48.9607 41.8759 48.9953 41.8753 49.0307 41.8733C49.2767 41.8606 49.5227 41.8446 49.7673 41.8266C49.8293 41.8219 49.8907 41.8173 49.9527 41.8119C50.158 41.7959 50.362 41.7773 50.5653 41.7573C50.614 41.7526 50.6633 41.7479 50.712 41.7433C50.954 41.7179 51.194 41.6906 51.4327 41.6599C51.4867 41.6533 51.5407 41.6459 51.5947 41.6386C51.7913 41.6126 51.9873 41.5846 52.1813 41.5546C52.2373 41.5459 52.2933 41.5379 52.3487 41.5286C52.5827 41.4913 52.814 41.4519 53.0427 41.4093C53.082 41.4019 53.12 41.3939 53.1587 41.3866C53.354 41.3493 53.5467 41.3099 53.7367 41.2686C53.7933 41.2559 53.8493 41.2439 53.9053 41.2319C54.1273 41.1819 54.3473 41.1306 54.562 41.0753C54.578 41.0713 54.5933 41.0666 54.6093 41.0626C54.8087 41.0113 55.0033 40.9566 55.1953 40.8999C55.248 40.8846 55.3007 40.8693 55.3527 40.8533C55.5467 40.7946 55.7373 40.7339 55.9227 40.6706C55.9333 40.6673 55.944 40.6639 55.9547 40.6599C56.1487 40.5926 56.3367 40.5226 56.52 40.4506C56.5667 40.4326 56.612 40.4139 56.6573 40.3953C56.8133 40.3319 56.9647 40.2673 57.112 40.1999C57.1393 40.1873 57.1673 40.1759 57.194 40.1633C57.362 40.0853 57.5227 40.0039 57.6787 39.9206C57.716 39.9006 57.7513 39.8806 57.7873 39.8606C57.914 39.7906 58.036 39.7186 58.154 39.6446C58.1847 39.6253 58.2167 39.6066 58.2467 39.5866C58.3847 39.4973 58.5153 39.4053 58.6393 39.3106C58.6473 39.3046 58.6567 39.2993 58.6647 39.2933V42.6186C58.6487 42.6959 58.638 42.7746 58.6507 42.8539C58.66 42.9026 58.6667 42.9506 58.6667 42.9999C58.6667 43.0733 58.646 43.1479 58.628 43.2219C58.614 43.2793 58.596 43.3373 58.572 43.3946C58.5507 43.4446 58.524 43.4953 58.4947 43.5453C58.466 43.5953 58.4347 43.6459 58.3987 43.6959C58.3473 43.7653 58.2893 43.8346 58.2233 43.9039C58.1987 43.9306 58.174 43.9573 58.1473 43.9839C56.736 45.3493 52.5713 46.5826 47.334 46.5826C42.1 46.5826 37.9373 45.3506 36.5233 43.9859C36.494 43.9566 36.4673 43.9279 36.4407 43.8986C36.378 43.8319 36.3213 43.7653 36.272 43.6986C36.234 43.6459 36.2007 43.5933 36.1707 43.5399C36.1433 43.4926 36.118 43.4453 36.0973 43.3973C36.0713 43.3366 36.0533 43.2766 36.0387 43.2166C36.0207 43.1446 36 43.0719 36 42.9999C36 42.9526 36.006 42.9053 36.014 42.8586C36.028 42.7719 36.0193 42.6853 36 42.6019V39.2926C36.008 39.2986 36.0173 39.3039 36.0253 39.3099C36.1487 39.4046 36.2793 39.4966 36.4173 39.5866ZM58.5713 49.3946C58.55 49.4446 58.5233 49.4953 58.494 49.5453C58.4653 49.5953 58.434 49.6459 58.398 49.6959C58.3467 49.7653 58.2887 49.8346 58.2227 49.9039C58.198 49.9306 58.1733 49.9573 58.1467 49.9839C56.7353 51.3493 52.5707 52.5826 47.3333 52.5826C42.0993 52.5826 37.9367 51.3506 36.5227 49.9859C36.4933 49.9566 36.4667 49.9279 36.44 49.8986C36.3773 49.8319 36.3207 49.7653 36.2713 49.6986C36.2333 49.6459 36.2 49.5933 36.17 49.5399C36.1427 49.4926 36.1173 49.4453 36.0967 49.3973C36.0707 49.3366 36.0527 49.2766 36.038 49.2166C36.0227 49.1539 36.0067 49.0906 36.0047 49.0279V48.9479C36.0073 48.9179 36.0087 48.8879 36.0133 48.8579C36.0227 48.8006 36.01 48.7446 36.004 48.6879L36 45.4166V45.2926C36.0267 45.3133 36.058 45.3326 36.086 45.3526C36.17 45.4153 36.258 45.4766 36.348 45.5373C36.4213 45.5859 36.4973 45.6339 36.5747 45.6819C36.694 45.7553 36.814 45.8279 36.942 45.8979C36.9433 45.8986 36.9447 45.8993 36.9453 45.8999C38.336 46.6579 40.248 47.2053 42.362 47.5366C42.378 47.5393 42.394 47.5413 42.41 47.5439C43.092 47.6499 43.792 47.7326 44.504 47.7933C44.6553 47.8059 44.806 47.8193 44.9587 47.8299C45.1073 47.8406 45.256 47.8499 45.4053 47.8579C45.6067 47.8693 45.808 47.8793 46.0093 47.8873C46.1267 47.8919 46.244 47.8973 46.362 47.9006C46.6867 47.9099 47.0107 47.9166 47.334 47.9166C47.6567 47.9166 47.9807 47.9106 48.304 47.9013C48.4227 47.8979 48.5407 47.8926 48.6593 47.8879C48.8593 47.8799 49.0587 47.8706 49.258 47.8593C49.4087 47.8506 49.5587 47.8413 49.7087 47.8306C49.8587 47.8199 50.0067 47.8073 50.156 47.7946C50.8747 47.7339 51.5813 47.6499 52.2693 47.5433C52.2793 47.5419 52.29 47.5399 52.3 47.5386C54.61 47.1773 56.676 46.5566 58.0873 45.6859C58.164 45.6386 58.24 45.5913 58.3127 45.5426C58.4027 45.4826 58.4907 45.4213 58.574 45.3586C58.604 45.3366 58.638 45.3159 58.6673 45.2933V48.6186C58.6513 48.6959 58.6407 48.7746 58.6533 48.8539C58.66 48.9026 58.6667 48.9506 58.6667 48.9999C58.6667 49.0733 58.646 49.1479 58.628 49.2219C58.6133 49.2793 58.596 49.3373 58.5713 49.3946ZM23.072 58.0833C22.1133 58.0833 21.3333 57.3033 21.3333 56.3446V48.4886C21.3333 47.5299 22.1133 46.7499 23.072 46.7499H34.6667V48.7499V48.9999V49.2499V55.2499V55.9166H34.864C34.8747 55.9413 34.89 55.9653 34.902 55.9899C34.9253 56.0399 34.9513 56.0886 34.978 56.1379C35.0327 56.2366 35.0947 56.3339 35.1633 56.4299C35.2313 56.5266 35.308 56.6199 35.3893 56.7126C35.4307 56.7593 35.472 56.8053 35.5167 56.8513C35.772 57.1146 36.0787 57.3613 36.4327 57.5919C36.4447 57.5999 36.4573 57.6079 36.47 57.6159C36.726 57.7806 37.0027 57.9366 37.302 58.0839H23.072V58.0833ZM58.6667 55.0793C58.6613 55.0999 58.6567 55.1213 58.6533 55.1419C58.3807 56.8039 53.7667 58.5833 47.3333 58.5833C45.2807 58.5833 43.4167 58.4013 41.816 58.1006L41.8167 58.0953C38.5013 57.4679 36.6667 56.4086 36.1533 55.5153C36.1527 55.5146 36.152 55.5139 36.152 55.5126C36.1287 55.4713 36.112 55.4306 36.094 55.3906C36.0593 55.3073 36.0267 55.2246 36.0133 55.1419L36.008 51.2986C36.032 51.3173 36.0607 51.3346 36.0853 51.3533C36.1693 51.4159 36.2573 51.4773 36.3473 51.5379C36.4207 51.5866 36.4967 51.6346 36.574 51.6826C36.6933 51.7559 36.8133 51.8286 36.9413 51.8986C36.9427 51.8993 36.944 51.8999 36.9447 51.9006C38.3353 52.6586 40.2473 53.2059 42.3613 53.5373C42.3773 53.5399 42.3933 53.5419 42.4093 53.5446C43.0913 53.6506 43.7913 53.7333 44.5033 53.7939C44.6547 53.8066 44.8053 53.8199 44.958 53.8306C45.1067 53.8413 45.2553 53.8506 45.4047 53.8586C45.606 53.8699 45.8073 53.8799 46.0087 53.8879C46.126 53.8926 46.2433 53.8979 46.3613 53.9013C46.686 53.9106 47.01 53.9173 47.3333 53.9173C47.656 53.9173 47.98 53.9113 48.3033 53.9019C48.422 53.8986 48.54 53.8933 48.6587 53.8886C48.8587 53.8806 49.058 53.8713 49.2573 53.8599C49.408 53.8513 49.558 53.8419 49.708 53.8313C49.858 53.8206 50.006 53.8079 50.1553 53.7953C50.874 53.7346 51.5807 53.6506 52.2687 53.5439C52.2787 53.5426 52.2893 53.5406 52.2993 53.5393C54.6093 53.1779 56.6753 52.5573 58.0867 51.6866C58.1633 51.6393 58.2393 51.5919 58.312 51.5433C58.402 51.4833 58.49 51.4219 58.5733 51.3593C58.6033 51.3373 58.6373 51.3166 58.6667 51.2939V55.0793ZM58.6667 36.9999C58.6667 38.6913 53.8193 40.5833 47.3333 40.5833C40.8467 40.5833 36 38.6913 36 36.9999C36 36.9146 36.0207 36.8279 36.0453 36.7413C36.072 36.6553 36.108 36.5673 36.1613 36.4766C36.1633 36.4726 36.1653 36.4686 36.1673 36.4646C36.3893 36.0939 36.8367 35.6953 37.5253 35.3106C37.5547 35.2946 37.5847 35.2786 37.6147 35.2626C37.7327 35.1986 37.8573 35.1353 37.9887 35.0726C38.1413 35.0013 38.298 34.9299 38.466 34.8613C38.4987 34.8473 38.5327 34.8339 38.5667 34.8206C39.3413 34.5119 40.2747 34.2379 41.3253 34.0139C41.654 33.9446 41.9887 33.8793 42.3327 33.8219C42.424 33.8066 42.5133 33.7906 42.606 33.7759C45.5907 33.3159 49.0727 33.3159 52.0573 33.7759C52.1513 33.7906 52.242 33.8073 52.3347 33.8226C52.6767 33.8793 53.0093 33.9439 53.3353 34.0133C56.5853 34.7053 58.6667 35.8939 58.6667 36.9999ZM58.6667 31.0113C58.6667 31.9699 57.8867 32.7499 56.928 32.7499H53.8413C53.8027 32.7413 53.76 32.7359 53.7213 32.7273C53.284 32.6326 52.834 32.5479 52.374 32.4746C52.3293 32.4679 52.2847 32.4606 52.24 32.4539C50.666 32.2093 48.986 32.0833 47.3333 32.0833C45.6807 32.0833 44.002 32.2093 42.428 32.4539C42.382 32.4606 42.3367 32.4679 42.2907 32.4746C41.832 32.5479 41.3833 32.6326 40.9473 32.7266C40.908 32.7353 40.864 32.7406 40.8247 32.7493H23.072C22.1133 32.7499 21.3333 31.9699 21.3333 31.0113V23.1553C21.3333 22.1966 22.1133 21.4166 23.072 21.4166H56.9273C57.8867 21.4166 58.6667 22.1966 58.6667 23.1553V31.0113Z" stroke="white" stroke-width="0.6" mask="url(#path-15-outside-1)"/>
</g>
<defs>
<clipPath id="clip0">
<rect width="40" height="40" fill="white" transform="translate(20 20)"/>
</clipPath>
</defs>
</svg>
