<svg width="80" height="80" viewBox="0 0 80 80" fill="none" xmlns="http://www.w3.org/2000/svg">
<circle cx="40" cy="40" r="40" fill="#2154D1"/>
<g clip-path="url(#clip0)">
<path d="M33.3343 45.1H33.4343V45V43.3334V43.2334H33.3343H22.501C22.096 43.2334 21.7676 42.905 21.7676 42.5V22.5C21.7676 22.095 22.096 21.7666 22.501 21.7666H50.8343C51.2393 21.7666 51.5677 22.095 51.5677 22.5V37.5V37.6H51.6677H53.3343H53.4343V37.5V22.5C53.4343 21.0641 52.2703 19.9 50.8343 19.9H22.501C21.065 19.9 19.901 21.0641 19.901 22.5V42.5C19.901 43.9359 21.065 45.1 22.501 45.1H33.3343Z" fill="white" stroke="white" stroke-width="0.2"/>
<path d="M30 44.0667H29.9V44.1667V49.1667V49.2667H30H31.6666H31.7666V49.1667V44.1667V44.0667H31.6666H30Z" fill="white" stroke="white" stroke-width="0.2"/>
<path d="M25.1001 37.5V37.4H25.0001H23.3335H23.2335V37.5V39.1666C23.2335 40.6026 24.3976 41.7666 25.8335 41.7666H27.5001H27.6001V41.6666V40V39.9H27.5001H25.8335C25.4285 39.9 25.1001 39.5716 25.1001 39.1666V37.5Z" fill="white" stroke="white" stroke-width="0.2"/>
<path d="M23.3335 34.0665H23.2335V34.1665V35.8331V35.9331H23.3335H25.0001H25.1001V35.8331V34.1665V34.0665H25.0001H23.3335Z" fill="white" stroke="white" stroke-width="0.2"/>
<path d="M44.0533 36.7665L44.0536 36.7665C45.9879 36.7613 47.8437 37.531 49.2065 38.9036L49.2067 38.9038C50.5722 40.2709 51.3389 42.1243 51.3383 44.0565C51.3369 48.0813 48.0731 51.3429 44.0484 51.3415C40.0236 51.3401 36.7619 48.0763 36.7633 44.0516C36.7647 40.0268 40.0285 36.7651 44.0533 36.7665ZM50.5265 37.5808C48.8097 35.8636 46.4809 34.8989 44.0526 34.899C38.9969 34.8993 34.8986 38.9979 34.8988 44.0536C34.899 49.1093 38.9976 53.2076 44.0533 53.2074C46.4808 53.2073 48.8087 52.2431 50.5254 50.5268C54.1006 46.9522 54.1011 41.1561 50.5265 37.5808Z" fill="white" stroke="white" stroke-width="0.2"/>
<path d="M59.8267 56.1794L59.8267 56.1794L54.5958 50.9503C54.4208 50.7753 54.1834 50.6769 53.936 50.6769L53.9359 50.6769C53.6884 50.6769 53.4511 50.7753 53.2761 50.9503L50.9511 53.2753L50.9511 53.2753C50.5867 53.6397 50.5868 54.2305 50.9511 54.5951L50.9511 54.5951L56.1819 59.8267C56.182 59.8267 56.182 59.8267 56.182 59.8267C56.357 60.0018 56.5944 60.1001 56.8418 60.1001L56.8421 60.1001C57.0899 60.0993 57.3273 60 57.5018 59.8241C57.5019 59.824 57.5019 59.8239 57.502 59.8239L59.8267 57.4992L59.8267 57.4992C60.191 57.1347 60.191 56.5439 59.8267 56.1794ZM56.8417 57.8471L52.9307 53.9351L53.9359 52.9299L57.847 56.8418L56.8417 57.8471Z" fill="white" stroke="white" stroke-width="0.2"/>
<path d="M49.2066 50.3846L49.1359 50.4553L49.2066 50.526L52.1128 53.4322L52.1835 53.5029L52.2542 53.4322L53.4327 52.2537L53.5034 52.183L53.4327 52.1123L50.5265 49.2061L50.4558 49.1354L50.3851 49.2061L49.2066 50.3846Z" fill="white" stroke="white" stroke-width="0.2"/>
<path d="M44.1669 38.2335L44.0667 38.2334V38.3335V40.0001V40.1L44.1666 40.1001C46.4116 40.1028 48.2307 41.922 48.2334 44.1669L48.2335 44.2668H48.3334H50H50.1001L50.1 44.1667C50.0964 40.8914 47.4422 38.2372 44.1669 38.2335Z" fill="white" stroke="white" stroke-width="0.2"/>
<path d="M28.3335 48.2333H28.2335V48.3333V49.9999V50.0999H28.3335H35.0001H35.1001V49.9999V48.3333V48.2333H35.0001H28.3335Z" fill="white" stroke="white" stroke-width="0.2"/>
<path d="M32.5 23.2333C31.0641 23.2333 29.9 24.3973 29.9 25.8333C29.9 27.2692 31.0641 28.4333 32.5 28.4333C33.9359 28.4333 35.1 27.2692 35.1 25.8333C35.1 24.3973 33.9359 23.2333 32.5 23.2333ZM32.5 26.5665C32.095 26.5665 31.7666 26.2382 31.7666 25.8332C31.7666 25.4282 32.095 25.0998 32.5 25.0998C32.905 25.0998 33.2334 25.4282 33.2334 25.8332C33.2334 26.2383 32.905 26.5665 32.5 26.5665Z" fill="white" stroke="white" stroke-width="0.2"/>
<path d="M37.6001 31.6667C37.6001 32.0717 37.9285 32.4001 38.3335 32.4001C38.7385 32.4001 39.0668 32.0718 39.0669 31.6667H37.6001ZM37.6001 31.6667C37.6001 31.2617 37.9285 30.9334 38.3335 30.9334M37.6001 31.6667L38.3335 30.9334M38.3335 30.9334C38.7385 30.9334 39.0668 31.2617 39.0669 31.6667L38.3335 30.9334ZM38.3335 29.0667C36.8976 29.0667 35.7335 30.2308 35.7335 31.6667C35.7335 33.1027 36.8976 34.2667 38.3335 34.2667C39.7694 34.2667 40.9335 33.1027 40.9335 31.6667C40.9335 30.2308 39.7694 29.0667 38.3335 29.0667Z" fill="white" stroke="white" stroke-width="0.2"/>
<path d="M26.8402 30.1734L26.7695 30.2441L26.8402 30.3149L28.0187 31.4933L28.0894 31.564L28.1601 31.4933L32.3267 27.3267L32.3974 27.256L32.3267 27.1853L31.1482 26.0068L31.0775 25.9361L31.0068 26.0068L26.8402 30.1734Z" fill="white" stroke="white" stroke-width="0.2"/>
<path d="M32.6698 27.1876L32.5991 27.2583L32.6698 27.329L36.8364 31.4956L36.9071 31.5663L36.9778 31.4956L38.1563 30.3171L38.227 30.2464L38.1563 30.1757L33.9897 26.0091L33.919 25.9384L33.8482 26.0091L32.6698 27.1876Z" fill="white" stroke="white" stroke-width="0.2"/>
<path d="M44.1667 23.2333C42.7308 23.2333 41.5667 24.3973 41.5667 25.8333C41.5667 27.2692 42.7308 28.4333 44.1667 28.4333C45.6027 28.4333 46.7667 27.2692 46.7667 25.8333C46.7668 24.3973 45.6028 23.2333 44.1667 23.2333ZM44.1667 26.5665C43.7617 26.5665 43.4334 26.2382 43.4334 25.8332C43.4334 25.4282 43.7617 25.0998 44.1667 25.0998C44.5718 25.0998 44.9001 25.4282 44.9001 25.8332C44.9001 26.2383 44.5718 26.5665 44.1667 26.5665Z" fill="white" stroke="white" stroke-width="0.2"/>
<path d="M38.5062 30.1764L38.4355 30.2471L38.5062 30.3178L39.6847 31.4963L39.7554 31.567L39.8261 31.4963L43.9927 27.3297L44.0634 27.259L43.9927 27.1883L42.8142 26.0098L42.7435 25.9391L42.6728 26.0098L38.5062 30.1764Z" fill="white" stroke="white" stroke-width="0.2"/>
</g>
<defs>
<clipPath id="clip0">
<rect x="20" y="20" width="40" height="40" fill="white"/>
</clipPath>
</defs>
</svg>
