<svg width="26" height="26" viewBox="0 0 26 26" fill="none" xmlns="http://www.w3.org/2000/svg">
<path d="M14.4122 24H11.0265C10.4609 24 10.0009 23.5213 10.0009 22.9328V14.9863H8.02557C7.46004 14.9863 7 14.5074 7 13.9191V10.514C7 9.92555 7.46004 9.44685 8.02557 9.44685H10.0009V7.7417C10.0009 6.05098 10.5111 4.61253 11.4762 3.58212C12.4456 2.54701 13.8004 2 15.3941 2L17.9762 2.00436C18.5408 2.00537 19 2.48407 19 3.07153V6.23309C19 6.82156 18.5401 7.30026 17.9748 7.30026L16.2362 7.30093C15.706 7.30093 15.571 7.41154 15.5421 7.44545C15.4946 7.50168 15.4379 7.66063 15.4379 8.09955V9.44669H17.8441C18.0252 9.44669 18.2007 9.49318 18.3516 9.5808C18.6769 9.76996 18.8792 10.1276 18.8792 10.5142L18.8779 13.9193C18.8779 14.5074 18.4179 14.9861 17.8523 14.9861H15.4379V22.9328C15.4379 23.5213 14.9777 24 14.4122 24ZM11.2403 22.7103H14.1983V14.4089C14.1983 14.016 14.5056 13.6964 14.8831 13.6964H17.6384L17.6396 10.7366H14.8829C14.5054 10.7366 14.1983 10.417 14.1983 10.0241V8.09955C14.1983 7.59567 14.2475 7.02264 14.613 6.59195C15.0547 6.07129 15.7507 6.0112 16.2359 6.0112L17.7605 6.01053V3.29376L15.3931 3.28973C12.8319 3.28973 11.2403 4.99573 11.2403 7.7417V10.0241C11.2403 10.4168 10.9332 10.7366 10.5558 10.7366H8.23945V13.6964H10.5558C10.9332 13.6964 11.2403 14.016 11.2403 14.4089V22.7103ZM17.9738 3.2941H17.9739H17.9738Z" fill="#555555"/>
</svg>
