<svg width="80" height="80" viewBox="0 0 80 80" fill="none" xmlns="http://www.w3.org/2000/svg">
<circle cx="40" cy="40" r="40" fill="#2154D1"/>
<g clip-path="url(#clip0)">
<path d="M59.343 39.0756C59.0353 38.757 58.6548 38.537 58.2376 38.4314C58.4851 38.038 58.6093 37.5797 58.5922 37.1027C58.548 35.8572 57.4783 34.8438 56.2079 34.8438H51.5671L51.5625 27.8906C51.5625 26.3831 50.336 25.1562 48.8281 25.1562C47.3203 25.1562 46.0938 26.3831 46.0938 27.8906V29.7308C46.0938 30.2029 45.994 30.6586 45.8102 31.0745C42.3694 30.9454 39.6094 28.1073 39.6094 24.6353V23.7891C39.6094 23.2504 39.1714 22.8125 38.6328 22.8125H28.5547C28.0161 22.8125 27.5781 23.2504 27.5781 23.7891V24.4531C27.5781 28.0072 24.6869 30.8984 21.1328 30.8984H20.9766C20.4379 30.8984 20 31.3364 20 31.875V43.5938C20 51.0895 26.098 57.1875 33.5938 57.1875C38.9108 57.1875 43.7146 54.1028 45.9363 49.2969H54.1046C54.6378 49.2969 55.159 49.0771 55.5347 48.6945C55.9045 48.3176 56.1032 47.8247 56.0934 47.3065C56.0886 47.0428 56.0303 46.7914 55.929 46.5625H56.2079C57.4783 46.5625 58.548 45.549 58.5922 44.3036C58.6093 43.8226 58.4833 43.3609 58.2315 42.9654C59.2142 42.7011 59.9619 41.825 59.9985 40.788C60.0214 40.1456 59.7885 39.5374 59.343 39.0756ZM33.5938 56.0156C26.7444 56.0156 21.1719 50.4431 21.1719 43.5938V32.0703C25.354 32.049 28.75 28.6401 28.75 24.4531V23.9844H38.4375V24.6353C38.4375 28.4824 41.304 31.6718 45.0131 32.1811C44.8724 32.3093 44.7205 32.4274 44.556 32.532L41.355 34.5688C41.0724 34.7488 40.7462 34.8438 40.4114 34.8438H39.6906C39.472 34.1214 38.8007 33.5938 38.0078 33.5938H34.7266C33.9627 33.5938 33.3115 34.0836 33.0695 34.7656H30.1953C29.3552 34.7656 28.6719 35.4492 28.6719 36.2891V46.3672C28.6719 47.2073 29.3552 47.8906 30.1953 47.8906H32.9688V53.6551C27.7048 53.3505 23.5156 48.9719 23.5156 43.6328V33.9243C27.5403 33.6313 30.7477 30.3464 30.9174 26.2891H32.9688V31.4453C32.9688 31.7691 33.2312 32.0312 33.5547 32.0312C33.8782 32.0312 34.1406 31.7691 34.1406 31.4453V25.7031C34.1406 25.3793 33.8782 25.1172 33.5547 25.1172H30.3384C30.015 25.1172 29.7525 25.3793 29.7525 25.7031V25.9506C29.7525 29.7128 26.6919 32.7734 22.9297 32.7734C22.6062 32.7734 22.3438 33.0356 22.3438 33.3594V43.6328C22.3438 49.8145 27.373 54.8438 33.5547 54.8438C33.8782 54.8438 34.1406 54.5816 34.1406 54.2578V49.0024C34.2776 49.0405 34.4214 49.0625 34.5703 49.0625H38.0078C38.5822 49.0625 39.093 48.7857 39.4138 48.3585L40.0388 48.7125C40.7132 49.0948 41.4792 49.2969 42.254 49.2969H44.632C42.5092 53.4061 38.2687 56.0156 33.5938 56.0156ZM32.9688 46.7188H30.1953C30.0015 46.7188 29.8438 46.561 29.8438 46.3672V36.2891C29.8438 36.0953 30.0015 35.9375 30.1953 35.9375H32.9688V46.7188ZM57.6141 41.875H53.0469C52.7234 41.875 52.4609 42.1371 52.4609 42.4609C52.4609 42.7847 52.7234 43.0469 53.0469 43.0469H56.25C56.5707 43.0469 56.8704 43.1741 57.0935 43.4052C57.3163 43.6359 57.4326 43.9404 57.421 44.2621C57.399 44.8843 56.8546 45.3906 56.2079 45.3906H54.1406C54.1275 45.3906 54.1144 45.3918 54.1016 45.3925C54.0887 45.3918 54.0756 45.3906 54.0625 45.3906H53.0469C52.7234 45.3906 52.4609 45.6528 52.4609 45.9766C52.4609 46.3004 52.7234 46.5625 53.0469 46.5625H54.0625C54.0756 46.5625 54.0887 46.5613 54.1016 46.5607C54.1144 46.5613 54.1275 46.5625 54.1406 46.5625C54.5633 46.5625 54.9139 46.9061 54.9219 47.3288C54.9255 47.5296 54.8462 47.7231 54.6985 47.8738C54.5416 48.0334 54.3253 48.125 54.1049 48.125H42.254C41.6812 48.125 41.1151 47.9758 40.6168 47.6932L39.7656 47.2107V45.8853C39.7656 45.5618 39.5032 45.2994 39.1797 45.2994C38.8562 45.2994 38.5938 45.5618 38.5938 45.8853V47.3047C38.5938 47.6279 38.331 47.8906 38.0078 47.8906H34.5703C34.3335 47.8906 34.1406 47.6978 34.1406 47.4609V35.3516C34.1406 35.0284 34.4034 34.7656 34.7266 34.7656H38.0078C38.331 34.7656 38.5938 35.0284 38.5938 35.3516V43.1509C38.5938 43.4747 38.8562 43.7369 39.1797 43.7369C39.5032 43.7369 39.7656 43.4747 39.7656 43.1509V36.0156H40.4114C40.9692 36.0156 41.5134 35.8572 41.9839 35.5576L45.1852 33.5205C46.488 32.6917 47.2656 31.2747 47.2656 29.7308V27.8906C47.2656 27.0291 47.9666 26.3281 48.8281 26.3281C49.6896 26.3281 50.3906 27.0291 50.3906 27.8909L50.3952 35.0397C50.3955 35.5777 50.8337 36.0156 51.3718 36.0156H56.2079C56.8546 36.0156 57.399 36.5219 57.421 37.1442C57.4326 37.4658 57.316 37.7704 57.0935 38.0011C56.8704 38.2321 56.5707 38.3594 56.25 38.3594H53.0469C52.7234 38.3594 52.4609 38.6215 52.4609 38.9453C52.4609 39.2691 52.7234 39.5312 53.0469 39.5312H57.6562C57.977 39.5312 58.2767 39.6585 58.4998 39.8895C58.7225 40.1202 58.8388 40.4248 58.8272 40.7465C58.8052 41.3687 58.2608 41.875 57.6141 41.875Z" fill="white"/>
</g>
<defs>
<clipPath id="clip0">
<rect width="40" height="40" fill="white" transform="translate(20 20)"/>
</clipPath>
</defs>
</svg>
