<svg width="80" height="80" viewBox="0 0 80 80" fill="none" xmlns="http://www.w3.org/2000/svg">
<circle cx="40" cy="40" r="40" fill="#2154D1"/>
<g clip-path="url(#clip0)">
<path d="M42.6266 41.7912H42.6266C42.4306 41.7911 42.2342 41.7163 42.0845 41.5666C40.9357 40.4178 39.0661 40.4178 37.9172 41.5666C37.6179 41.866 37.1325 41.866 36.8332 41.5666L42.6266 41.7912ZM42.6266 41.7912C43.3029 41.7912 43.6538 40.9676 43.1687 40.4826C41.4219 38.7359 38.5799 38.7358 36.8332 40.4826L42.6266 41.7912ZM45.1329 39.2849H45.1329C45.8092 39.2849 46.1601 38.4613 45.675 37.9763C42.5387 34.8399 37.4628 34.8402 34.3268 37.9762C34.0274 38.2756 34.0274 38.761 34.3268 39.0603C34.6262 39.3597 35.1115 39.3596 35.4109 39.0603C37.948 36.5232 42.0539 36.5234 44.5909 39.0603C44.7405 39.2101 44.9369 39.2848 45.1329 39.2849ZM48.952 43.3796L49.0456 43.415L48.952 43.3796C47.5543 47.0788 43.9568 49.5646 40.0009 49.5646C34.7267 49.5646 30.4355 45.2735 30.4355 39.9993C30.4355 34.7251 34.7267 30.4339 40.0009 30.4339C45.2752 30.4339 49.5662 34.725 49.5662 39.9993C49.5662 40.4226 49.9095 40.7659 50.3328 40.7659C50.7562 40.7659 51.0994 40.4226 51.0994 39.9993C51.0994 33.8795 46.1207 28.9008 40.0009 28.9008C33.881 28.9008 28.9024 33.8795 28.9024 39.9993C28.9024 46.1191 33.881 51.0978 40.0009 51.0978C44.7087 51.0978 48.7845 48.1604 50.3862 43.9215C50.5359 43.5255 50.3361 43.0832 49.9401 42.9335C49.5439 42.7837 49.1017 42.9837 48.952 43.3796ZM31.4649 58.1988L31.5074 58.1083L31.4649 58.1988C37.7317 61.1429 45.2121 60.6723 51.114 56.746C53.7191 58.7863 57.5985 56.9382 57.5985 53.5808C57.5985 52.6507 57.2801 51.7938 56.7476 51.1124C61.2174 44.3938 61.2199 35.6084 56.7476 28.8862C58.7879 26.2813 56.9401 22.4016 53.5824 22.4016C51.3678 22.4016 49.5662 24.2031 49.5662 26.4177C49.5662 29.5191 52.9378 31.4263 55.5804 29.9007C59.5604 36.0234 59.5658 43.9668 55.5804 50.0977C52.9364 48.5713 49.5662 50.4807 49.5662 53.5807C49.5662 54.3074 49.7603 54.9898 50.0994 55.5786C44.6721 59.1066 37.8405 59.5 32.1169 56.8111L32.0744 56.9016L32.1169 56.8111C31.7336 56.6311 31.2771 56.7957 31.0971 57.1789C30.917 57.5621 31.0817 58.0187 31.4649 58.1988ZM38.7224 43.6503C38.7224 44.3568 39.2941 44.9288 40.0009 44.9288C40.7074 44.9288 41.2794 44.357 41.2794 43.6503C41.2794 42.9438 40.7076 42.3717 40.0009 42.3717C39.2943 42.3718 38.7224 42.9436 38.7224 43.6503ZM36.8332 40.4826C36.5337 40.7819 36.5337 41.2673 36.8332 41.5666V40.4826ZM24.4214 50.0977C20.4413 43.9746 20.4359 36.0317 24.4213 29.9007C27.0654 31.4272 30.4356 29.5177 30.4356 26.4177C30.4356 25.691 30.2415 25.0085 29.9024 24.4196C35.2598 20.937 41.98 20.514 47.6435 23.076C48.0293 23.2505 48.4835 23.0792 48.6579 22.6934C48.8324 22.3077 48.6612 21.8535 48.2754 21.679C42.0841 18.8785 34.7259 19.3684 28.8879 23.2525C28.2065 22.7199 27.3495 22.4016 26.4195 22.4016C23.062 22.4016 21.2139 26.2811 23.2542 28.8862C18.7845 35.6048 18.782 44.39 23.2542 51.1123C21.2139 53.7174 23.0619 57.5969 26.4195 57.5969C28.6341 57.5969 30.4356 55.7954 30.4356 53.5808C30.4355 50.4795 27.0641 48.5723 24.4214 50.0977ZM26.4194 23.9348C27.7884 23.9348 28.9024 25.0488 28.9024 26.4178C28.9024 27.7868 27.7884 28.9008 26.4194 28.9008C25.0504 28.9008 23.9364 27.7868 23.9364 26.4178C23.9364 25.0488 25.0504 23.9348 26.4194 23.9348ZM26.4194 56.0638C25.0504 56.0638 23.9364 54.9498 23.9364 53.5808C23.9364 52.2118 25.0504 51.0978 26.4194 51.0978C27.7884 51.0978 28.9024 52.2118 28.9024 53.5808C28.9024 54.9498 27.7885 56.0638 26.4194 56.0638ZM51.0994 26.4178C51.0994 25.0488 52.2134 23.9348 53.5824 23.9348C54.9514 23.9348 56.0653 25.0488 56.0653 26.4178C56.0653 27.7868 54.9514 28.9008 53.5824 28.9008C52.2134 28.9008 51.0994 27.7868 51.0994 26.4178ZM53.5824 56.0638C52.2134 56.0638 51.0994 54.9498 51.0994 53.5808C51.0994 52.2118 52.2134 51.0978 53.5824 51.0978C54.9514 51.0978 56.0653 52.2118 56.0653 53.5808C56.0653 54.9498 54.9514 56.0638 53.5824 56.0638Z" fill="white" stroke="white" stroke-width="0.2"/>
</g>
<defs>
<clipPath id="clip0">
<rect width="40" height="40" fill="white" transform="translate(20 20)"/>
</clipPath>
</defs>
</svg>
