<svg width="26" height="26" viewBox="0 0 26 26" fill="none" xmlns="http://www.w3.org/2000/svg">
<path d="M18.6286 8.48222C19.0561 8.48222 19.4027 8.13565 19.4027 7.70814C19.4027 7.28062 19.0561 6.93405 18.6286 6.93405C18.2011 6.93405 17.8545 7.28062 17.8545 7.70814C17.8545 8.13565 18.2011 8.48222 18.6286 8.48222Z" fill="white" fill-opacity="0.7"/>
<path d="M16.5407 11.0058C16.3492 11.0799 16.1951 11.227 16.1121 11.4147C16.0291 11.6025 16.0241 11.8155 16.0981 12.007C16.3546 12.6686 16.3761 13.3982 16.159 14.0737C15.9419 14.7493 15.4995 15.3298 14.9056 15.7181C14.3118 16.1065 13.6025 16.2791 12.8966 16.2071C12.1907 16.1352 11.531 15.823 11.0277 15.3228C10.5244 14.8226 10.2081 14.1648 10.1318 13.4594C10.0555 12.7539 10.2238 12.0437 10.6085 11.4474C10.9931 10.8512 11.5709 10.4051 12.2451 10.1839C12.9193 9.96264 13.649 9.97963 14.3122 10.232C14.4075 10.27 14.5095 10.2886 14.6121 10.2868C14.7148 10.285 14.816 10.2627 14.91 10.2214C15.004 10.1801 15.0888 10.1205 15.1595 10.0461C15.2302 9.97171 15.2855 9.88398 15.322 9.78803C15.3585 9.69208 15.3755 9.58983 15.3721 9.48723C15.3687 9.38464 15.345 9.28374 15.3022 9.19041C15.2595 9.09708 15.1986 9.01319 15.1231 8.94362C15.0476 8.87404 14.959 8.82018 14.8625 8.78516C13.868 8.4069 12.7738 8.3816 11.7628 8.71351C10.7519 9.04543 9.8856 9.71441 9.30885 10.6086C8.73209 11.5027 8.47986 12.5678 8.59435 13.6256C8.70885 14.6835 9.18312 15.6699 9.93782 16.42C10.6925 17.17 11.6819 17.6382 12.7404 17.7461C13.799 17.854 14.8625 17.5952 15.753 17.0129C16.6436 16.4306 17.3072 15.5602 17.6328 14.5472C17.9585 13.5342 17.9264 12.4402 17.542 11.448C17.4678 11.2566 17.3207 11.1025 17.1329 11.0196C16.9451 10.9366 16.7321 10.9317 16.5407 11.0058Z" fill="white" fill-opacity="0.7"/>
<path d="M22.4991 7.70814C22.5022 6.69423 22.1058 5.7199 21.3957 4.99612C20.6857 4.27235 19.7191 3.8574 18.7053 3.84112H18.6993C15.0453 3.67353 11.3744 3.67159 7.79142 3.83771C6.77986 3.85249 5.81302 4.25706 5.0924 4.96711C4.37177 5.67717 3.95296 6.63792 3.92323 7.64916C3.64548 11.2759 3.64473 14.9185 3.92099 18.5454C3.91755 19.5586 4.31327 20.5324 5.0225 21.2561C5.73173 21.9798 6.69741 22.395 7.71053 22.412H7.71657C9.55386 22.5466 16.843 22.5583 18.668 22.4154C19.6693 22.3827 20.621 21.9717 21.3314 21.2653C22.0418 20.5589 22.4581 19.6095 22.4964 18.6084C22.7931 14.9811 22.794 11.3356 22.4991 7.70814ZM20.9509 18.5454C20.7876 19.7607 20.449 20.6613 18.5538 20.8714C14.9718 21.1532 11.3732 21.152 7.79142 20.8676C7.16981 20.8527 6.57868 20.5952 6.14434 20.1503C5.71 19.7053 5.46688 19.1082 5.46692 18.4864C5.19437 14.8988 5.19512 11.2956 5.46916 7.70814C5.49842 7.0892 5.76194 6.50454 6.20629 6.07268C6.65064 5.64083 7.24257 5.39408 7.86209 5.38248C11.4486 5.19838 15.0422 5.19951 18.6286 5.38588C19.2469 5.41302 19.8316 5.67486 20.2635 6.11805C20.6955 6.56125 20.9423 7.15245 20.9535 7.77123C21.2439 11.3568 21.243 14.96 20.9509 18.5454Z" fill="white" fill-opacity="0.7"/>
</svg>
