<svg width="26" height="26" viewBox="0 0 26 26" fill="none" xmlns="http://www.w3.org/2000/svg">
<path d="M18.6286 8.48219C19.0561 8.48219 19.4027 8.13562 19.4027 7.70811C19.4027 7.28059 19.0561 6.93402 18.6286 6.93402C18.2011 6.93402 17.8545 7.28059 17.8545 7.70811C17.8545 8.13562 18.2011 8.48219 18.6286 8.48219Z" fill="#555555"/>
<path d="M16.5407 11.0058C16.3492 11.0798 16.1951 11.2269 16.1121 11.4147C16.0291 11.6025 16.0241 11.8155 16.0981 12.007C16.3546 12.6685 16.3761 13.3981 16.159 14.0737C15.9419 14.7492 15.4995 15.3297 14.9056 15.7181C14.3118 16.1064 13.6025 16.2791 12.8966 16.2071C12.1907 16.1352 11.531 15.823 11.0277 15.3228C10.5244 14.8226 10.2081 14.1648 10.1318 13.4593C10.0555 12.7539 10.2238 12.0436 10.6085 11.4474C10.9931 10.8511 11.5709 10.4051 12.2451 10.1839C12.9193 9.96261 13.649 9.9796 14.3122 10.232C14.4075 10.2699 14.5095 10.2886 14.6121 10.2867C14.7148 10.2849 14.816 10.2627 14.91 10.2214C15.004 10.1801 15.0888 10.1205 15.1595 10.0461C15.2302 9.97168 15.2855 9.88395 15.322 9.788C15.3585 9.69205 15.3755 9.5898 15.3721 9.4872C15.3687 9.3846 15.345 9.2837 15.3022 9.19038C15.2595 9.09705 15.1986 9.01316 15.1231 8.94359C15.0476 8.87401 14.959 8.82015 14.8625 8.78513C13.868 8.40686 12.7738 8.38157 11.7628 8.71348C10.7519 9.0454 9.8856 9.71438 9.30885 10.6085C8.73209 11.5027 8.47986 12.5678 8.59435 13.6256C8.70885 14.6834 9.18312 15.6699 9.93782 16.4199C10.6925 17.17 11.6819 17.6381 12.7404 17.7461C13.799 17.854 14.8625 17.5952 15.753 17.0129C16.6436 16.4306 17.3072 15.5601 17.6328 14.5472C17.9585 13.5342 17.9264 12.4401 17.542 11.448C17.4678 11.2566 17.3207 11.1025 17.1329 11.0195C16.9451 10.9366 16.7321 10.9316 16.5407 11.0058Z" fill="#555555"/>
<path d="M22.4991 7.70811C22.5022 6.6942 22.1058 5.71987 21.3957 4.99609C20.6857 4.27232 19.7191 3.85737 18.7053 3.84109H18.6993C15.0453 3.6735 11.3744 3.67156 7.79142 3.83768C6.77986 3.85246 5.81302 4.25703 5.0924 4.96708C4.37177 5.67714 3.95296 6.63789 3.92323 7.64913C3.64548 11.2759 3.64473 14.9185 3.92099 18.5453C3.91755 19.5586 4.31327 20.5324 5.0225 21.2561C5.73173 21.9797 6.69741 22.395 7.71053 22.412H7.71657C9.55386 22.5466 16.843 22.5583 18.668 22.4154C19.6693 22.3827 20.621 21.9717 21.3314 21.2653C22.0418 20.5589 22.4581 19.6095 22.4964 18.6084C22.7931 14.9811 22.794 11.3356 22.4991 7.70811ZM20.9509 18.5453C20.7876 19.7606 20.449 20.6613 18.5538 20.8714C14.9718 21.1532 11.3732 21.1519 7.79142 20.8676C7.16981 20.8526 6.57868 20.5952 6.14434 20.1502C5.71 19.7053 5.46688 19.1081 5.46692 18.4863C5.19437 14.8987 5.19512 11.2956 5.46916 7.70811C5.49842 7.08917 5.76194 6.50451 6.20629 6.07265C6.65064 5.64079 7.24257 5.39405 7.86209 5.38245C11.4486 5.19835 15.0422 5.19948 18.6286 5.38585C19.2469 5.41299 19.8316 5.67483 20.2635 6.11802C20.6955 6.56122 20.9423 7.15242 20.9535 7.7712C21.2439 11.3567 21.243 14.9599 20.9509 18.5453Z" fill="#555555"/>
</svg>
