<svg width="80" height="80" viewBox="0 0 80 80" fill="none" xmlns="http://www.w3.org/2000/svg">
<circle cx="40" cy="40" r="40" fill="#2154D1"/>
<g clip-path="url(#clip0)">
<path d="M40.1769 52.9968L40.1769 52.9968C40.4027 52.9146 40.5196 52.6638 40.4374 52.4382L40.4374 52.4381C40.3749 52.2665 40.2099 52.151 40.0276 52.151C39.9775 52.151 39.9274 52.1598 39.8788 52.1775L39.8787 52.1776L40.1769 52.9968ZM40.1769 52.9968C40.1282 53.0146 40.0781 53.0234 40.028 53.0234M40.1769 52.9968L40.028 53.0234M40.028 53.0234C39.8456 53.0234 39.6806 52.9079 39.6182 52.7363L40.028 53.0234ZM39.3754 50.7944L39.3753 50.7944C38.3867 51.1543 37.8755 52.2511 38.2351 53.2397L38.2351 53.2397C38.5085 53.9909 39.2288 54.4952 40.0279 54.4952C40.2505 54.4952 40.4701 54.4563 40.6802 54.3799L40.6802 54.3799C41.6689 54.0201 42.1802 52.9233 41.8204 51.9347C41.5471 51.1834 40.8269 50.6791 40.0277 50.6791C39.8051 50.6791 39.5856 50.718 39.3754 50.7944Z" fill="white" stroke="white" stroke-width="0.3"/>
<mask id="path-4-outside-1" maskUnits="userSpaceOnUse" x="19" y="21.5291" width="42" height="37" fill="black">
<rect fill="white" x="19" y="21.5291" width="42" height="37"/>
<path d="M59.9645 46.583L59.1627 44.3806C59.1079 44.2299 58.9976 44.1156 58.8634 44.0519C58.8622 44.0513 58.861 44.0506 58.8598 44.0501C58.8511 44.0459 58.842 44.0427 58.833 44.0391C58.8245 44.0356 58.8163 44.0317 58.8077 44.0287C58.8056 44.0279 58.8034 44.0274 58.8013 44.0268C58.6792 43.985 58.5426 43.9827 58.4119 44.0304L56.4959 44.7272L52.42 33.5282C52.42 33.5279 52.4197 33.5276 52.4197 33.5274L50.817 29.1237C50.7326 28.8932 50.5115 28.7385 50.2662 28.7385C50.1983 28.7385 50.1303 28.7502 50.0662 28.7736C49.7623 28.8838 49.6053 29.2213 49.7154 29.5244L51.1186 33.3784L43.5941 36.117C43.594 36.117 43.5938 36.117 43.5937 36.1171C43.5935 36.1172 43.5933 36.1173 43.5931 36.1173L39.0057 37.7868L35.9326 29.3451L39.9707 27.8756L40.8391 30.261C40.9227 30.4915 41.1438 30.647 41.3891 30.647C41.4578 30.647 41.525 30.6353 41.5899 30.611L44.5265 29.5423C44.6734 29.4892 44.7906 29.3813 44.857 29.2399C44.906 29.1348 44.922 29.0202 44.9057 28.9082C44.9056 28.9076 44.9056 28.907 44.9056 28.9064C44.9033 28.8912 44.9 28.8759 44.8965 28.8608C44.8955 28.8565 44.8949 28.8524 44.8939 28.8481C44.8892 28.8292 44.8834 28.8103 44.8766 28.7916L44.0085 26.406L48.0456 24.9368L48.9139 27.322C48.9983 27.5524 49.2194 27.7079 49.4647 27.7079C49.5326 27.7079 49.6006 27.6962 49.6654 27.672C49.9686 27.5618 50.1256 27.225 50.0154 26.9212L48.9467 23.9846C48.8729 23.7829 48.6944 23.6393 48.4866 23.6065C48.4569 23.6018 48.4266 23.5993 48.3959 23.5993C48.328 23.5993 48.26 23.6111 48.1959 23.6345L43.0597 25.5041C43.0588 25.5044 43.0579 25.5045 43.0571 25.5048C43.0555 25.5053 43.0541 25.5061 43.0525 25.5067L40.1256 26.5721C40.1239 26.5728 40.1221 26.5729 40.1204 26.5735C40.1175 26.5746 40.1148 26.576 40.1119 26.5771L34.9816 28.4445C34.8347 28.4977 34.7175 28.6055 34.6511 28.7469C34.5847 28.8891 34.5776 29.0484 34.6316 29.1953L38.1048 38.7386L41.4449 47.9161C41.0214 47.7867 40.5768 47.714 40.1215 47.7052L31.6599 24.4568C31.1074 22.9389 29.4231 22.1535 27.905 22.7058C27.9048 22.7059 27.9046 22.7061 27.9043 22.7061L20.387 25.4174C20.3869 25.4175 20.3867 25.4175 20.3866 25.4175C20.3862 25.4177 20.3858 25.4178 20.3853 25.4179C20.3718 25.4228 20.359 25.4287 20.3461 25.4345C20.3412 25.4367 20.336 25.4385 20.3312 25.4408C20.3185 25.4468 20.3065 25.4539 20.2945 25.4607C20.2895 25.4636 20.2843 25.466 20.2795 25.469C20.2679 25.4761 20.2571 25.4839 20.2462 25.4916C20.2413 25.495 20.2362 25.4982 20.2315 25.5017C20.2213 25.5094 20.2119 25.5178 20.2023 25.5261C20.1974 25.5304 20.1922 25.5343 20.1875 25.5386C20.1784 25.5469 20.1702 25.5561 20.1617 25.5649C20.1571 25.5698 20.1522 25.5743 20.1477 25.5793C20.1398 25.5882 20.1325 25.5978 20.1251 25.6073C20.1209 25.6126 20.1162 25.6178 20.1123 25.6233C20.1055 25.6325 20.0996 25.6422 20.0934 25.6518C20.0895 25.6581 20.0851 25.664 20.0813 25.6703C20.0757 25.6799 20.0709 25.6899 20.0658 25.6997C20.0623 25.7065 20.0584 25.7132 20.0551 25.7201C20.0505 25.7298 20.0469 25.7398 20.0428 25.7497C20.0398 25.7573 20.0363 25.7645 20.0337 25.7721C20.0302 25.7818 20.0276 25.7918 20.0247 25.8017C20.0223 25.8098 20.0195 25.8178 20.0173 25.8261C20.0149 25.8358 20.0133 25.8458 20.0113 25.8557C20.0096 25.8643 20.0075 25.8728 20.0062 25.8815C20.0046 25.8915 20.0041 25.9017 20.003 25.9118C20.0022 25.9205 20.0009 25.9293 20.0004 25.9381C19.9998 25.9484 20.0002 25.9587 20.0002 25.969C20.0002 25.9778 19.9998 25.9867 20.0002 25.9955C20.0006 26.006 20.0021 26.0165 20.0031 26.027C20.004 26.0357 20.0045 26.0444 20.0057 26.0532C20.0073 26.0635 20.0098 26.0739 20.0119 26.0843C20.0137 26.0932 20.015 26.1021 20.0172 26.1109C20.0198 26.1213 20.0234 26.1315 20.0266 26.1418C20.0293 26.1503 20.0314 26.159 20.0345 26.1675C20.0345 26.1677 20.0346 26.1679 20.0347 26.1681C20.0348 26.1685 20.0348 26.1688 20.035 26.1692L20.8366 28.3715C20.8427 28.3881 20.8509 28.4031 20.8582 28.4188C20.8639 28.431 20.8685 28.444 20.875 28.4556C20.8841 28.4721 20.8952 28.4868 20.9057 28.5022C20.9123 28.5118 20.918 28.5224 20.9251 28.5315C20.9377 28.5477 20.9521 28.562 20.9662 28.5766C20.9727 28.5834 20.9785 28.5911 20.9854 28.5976C21.0012 28.6125 21.0187 28.6255 21.0359 28.6385C21.0422 28.6432 21.0478 28.6488 21.0542 28.6531C21.0729 28.666 21.0929 28.6769 21.1129 28.6874C21.1188 28.6906 21.1243 28.6946 21.1303 28.6976C21.1508 28.7076 21.1723 28.7153 21.1937 28.7228C21.2 28.725 21.2059 28.7281 21.2122 28.7302C21.2342 28.7371 21.2569 28.7416 21.2797 28.746C21.2859 28.7471 21.292 28.7493 21.2984 28.7503C21.3276 28.7549 21.3573 28.7571 21.3873 28.7571C21.4039 28.7571 21.4205 28.7563 21.4373 28.755C21.4407 28.7547 21.4441 28.754 21.4475 28.7537C21.4608 28.7523 21.474 28.7508 21.4873 28.7485C21.4933 28.7474 21.4994 28.7458 21.5055 28.7445C21.5161 28.7424 21.5266 28.7403 21.5371 28.7375C21.5483 28.7346 21.5593 28.7308 21.5704 28.7271C21.5756 28.7255 21.5808 28.7241 21.586 28.7222L21.5866 28.722C21.5869 28.7219 21.5873 28.7217 21.5876 28.7217C21.5878 28.7216 21.588 28.7214 21.5883 28.7213L28.556 26.2082L36.8186 48.9091C35.3448 50.1983 34.7309 52.3096 35.4399 54.2573C36.1396 56.1795 37.9836 57.4712 40.0285 57.4712C40.5974 57.4712 41.1591 57.3717 41.6981 57.1756C42.9236 56.7295 43.902 55.833 44.4533 54.651C44.7463 54.0226 44.8984 53.3538 44.911 52.6808L59.6141 47.334C59.6141 47.334 59.6142 47.334 59.6143 47.334H59.6144C59.6183 47.3326 59.6219 47.3307 59.6257 47.3292C59.6406 47.3234 59.6554 47.3176 59.6695 47.3107C59.6755 47.3078 59.6811 47.3043 59.687 47.3012C59.6986 47.2951 59.7102 47.2893 59.7212 47.2826C59.7274 47.2787 59.7332 47.2741 59.7393 47.2701C59.7493 47.2634 59.7595 47.2569 59.7691 47.2498C59.7721 47.2474 59.7748 47.2448 59.7777 47.2424C59.7898 47.2328 59.8017 47.2232 59.8129 47.2128C59.8148 47.2108 59.8165 47.2088 59.8184 47.207C59.8302 47.1956 59.8417 47.1841 59.8526 47.1719C59.8548 47.1695 59.8566 47.1668 59.8587 47.1643C59.8689 47.1524 59.8788 47.1404 59.888 47.1278C59.889 47.1265 59.8898 47.125 59.8907 47.1236C59.9006 47.1096 59.9102 47.0954 59.9188 47.0806C59.9204 47.078 59.9216 47.0751 59.9232 47.0723C59.9309 47.0587 59.9384 47.0451 59.945 47.0309C59.9476 47.0254 59.9496 47.0195 59.952 47.0139C59.957 47.0023 59.962 46.9908 59.9663 46.9789C59.9692 46.9707 59.9713 46.9623 59.9738 46.954C59.9768 46.9444 59.9802 46.9348 59.9826 46.9251C59.9862 46.9106 59.9888 46.8959 59.9913 46.8812C59.992 46.8773 59.993 46.8736 59.9936 46.8698C60.0076 46.7763 59.9991 46.678 59.9645 46.583ZM42.9074 26.8068L43.575 28.642L41.7397 29.3099L41.0718 27.4749L42.9074 26.8068ZM46.3809 36.3501L47.0489 38.185L45.2131 38.8532L44.5452 37.0181L46.3809 36.3501ZM39.4068 38.8881L43.4442 37.4188L44.3127 39.8042C44.3963 40.0347 44.6174 40.1901 44.8634 40.1901C44.9314 40.1901 44.9986 40.1777 45.0634 40.1542L48.0001 39.0854C48.304 38.9753 48.461 38.6386 48.3501 38.3346L47.4817 35.9493L51.5197 34.4797L55.3951 45.1271L43.7046 49.3784C43.4851 49.1277 43.2417 48.9001 42.9777 48.6998L39.4068 38.8881ZM29.4575 25.2582C29.4541 25.2489 29.4498 25.24 29.446 25.2308C29.4421 25.2218 29.4387 25.2125 29.4345 25.2037C29.4306 25.1957 29.4261 25.1883 29.422 25.1806C29.4168 25.171 29.4119 25.1611 29.4063 25.1519C29.4024 25.1456 29.3979 25.1398 29.3938 25.1336C29.3871 25.1236 29.3807 25.1135 29.3735 25.104C29.3697 25.099 29.3654 25.0946 29.3615 25.0896C29.3534 25.0796 29.3453 25.0695 29.3365 25.06C29.333 25.0562 29.329 25.0528 29.3253 25.049C29.3156 25.0392 29.306 25.0293 29.2957 25.0202C29.2928 25.0176 29.2896 25.0154 29.2866 25.0129C29.2752 25.0031 29.2636 24.9935 29.2515 24.9847C29.2498 24.9835 29.2479 24.9825 29.2462 24.9812C29.2326 24.9715 29.2187 24.9623 29.2043 24.9538C29.2032 24.9532 29.2021 24.9526 29.201 24.9521C29.121 24.9056 29.0303 24.8782 28.9366 24.8732C28.9357 24.8732 28.9349 24.8733 28.9341 24.8732C28.916 24.8724 28.8978 24.8723 28.8794 24.8732C28.876 24.8733 28.8727 24.8739 28.8693 24.8742C28.8535 24.8752 28.8378 24.8764 28.822 24.8788C28.8144 24.88 28.8069 24.8818 28.7993 24.8833C28.7878 24.8854 28.7761 24.8874 28.7646 24.8903C28.7514 24.8936 28.7384 24.898 28.7253 24.9021C28.7196 24.904 28.7137 24.9054 28.7079 24.9075L28.7071 24.9078C28.7069 24.9079 28.7066 24.9079 28.7063 24.908C28.706 24.9081 28.7058 24.9082 28.7056 24.9083L21.7379 27.4214L21.337 26.3202L28.3039 23.8074C28.304 23.8073 28.3041 23.8072 28.3042 23.8072C28.3046 23.8071 28.305 23.807 28.3055 23.8068C29.2164 23.4754 30.227 23.9466 30.5585 24.8575L38.9204 47.8321C38.7306 47.8765 38.5427 47.9315 38.3576 47.999C38.1711 48.0669 37.9922 48.1462 37.8194 48.2337L29.4575 25.2582ZM43.391 54.1555C42.9721 55.0538 42.2285 55.7352 41.2971 56.0742C40.887 56.2235 40.46 56.2992 40.0283 56.2992C38.4742 56.2992 37.0727 55.3175 36.541 53.8564C35.8412 51.9337 36.8361 49.8 38.7588 49.1001C39.1689 48.9508 39.5958 48.8751 40.0276 48.8751C41.5817 48.8751 42.9832 49.8568 43.5149 51.3181C43.854 52.2495 43.81 53.2572 43.391 54.1555ZM44.7827 51.4804C44.7382 51.291 44.6837 51.103 44.6161 50.9174C44.5486 50.7318 44.4701 50.5523 44.3821 50.379L58.2619 45.3317L58.6627 46.433L44.7827 51.4804Z"/>
</mask>
<path d="M59.9645 46.583L59.1627 44.3806C59.1079 44.2299 58.9976 44.1156 58.8634 44.0519C58.8622 44.0513 58.861 44.0506 58.8598 44.0501C58.8511 44.0459 58.842 44.0427 58.833 44.0391C58.8245 44.0356 58.8163 44.0317 58.8077 44.0287C58.8056 44.0279 58.8034 44.0274 58.8013 44.0268C58.6792 43.985 58.5426 43.9827 58.4119 44.0304L56.4959 44.7272L52.42 33.5282C52.42 33.5279 52.4197 33.5276 52.4197 33.5274L50.817 29.1237C50.7326 28.8932 50.5115 28.7385 50.2662 28.7385C50.1983 28.7385 50.1303 28.7502 50.0662 28.7736C49.7623 28.8838 49.6053 29.2213 49.7154 29.5244L51.1186 33.3784L43.5941 36.117C43.594 36.117 43.5938 36.117 43.5937 36.1171C43.5935 36.1172 43.5933 36.1173 43.5931 36.1173L39.0057 37.7868L35.9326 29.3451L39.9707 27.8756L40.8391 30.261C40.9227 30.4915 41.1438 30.647 41.3891 30.647C41.4578 30.647 41.525 30.6353 41.5899 30.611L44.5265 29.5423C44.6734 29.4892 44.7906 29.3813 44.857 29.2399C44.906 29.1348 44.922 29.0202 44.9057 28.9082C44.9056 28.9076 44.9056 28.907 44.9056 28.9064C44.9033 28.8912 44.9 28.8759 44.8965 28.8608C44.8955 28.8565 44.8949 28.8524 44.8939 28.8481C44.8892 28.8292 44.8834 28.8103 44.8766 28.7916L44.0085 26.406L48.0456 24.9368L48.9139 27.322C48.9983 27.5524 49.2194 27.7079 49.4647 27.7079C49.5326 27.7079 49.6006 27.6962 49.6654 27.672C49.9686 27.5618 50.1256 27.225 50.0154 26.9212L48.9467 23.9846C48.8729 23.7829 48.6944 23.6393 48.4866 23.6065C48.4569 23.6018 48.4266 23.5993 48.3959 23.5993C48.328 23.5993 48.26 23.6111 48.1959 23.6345L43.0597 25.5041C43.0588 25.5044 43.0579 25.5045 43.0571 25.5048C43.0555 25.5053 43.0541 25.5061 43.0525 25.5067L40.1256 26.5721C40.1239 26.5728 40.1221 26.5729 40.1204 26.5735C40.1175 26.5746 40.1148 26.576 40.1119 26.5771L34.9816 28.4445C34.8347 28.4977 34.7175 28.6055 34.6511 28.7469C34.5847 28.8891 34.5776 29.0484 34.6316 29.1953L38.1048 38.7386L41.4449 47.9161C41.0214 47.7867 40.5768 47.714 40.1215 47.7052L31.6599 24.4568C31.1074 22.9389 29.4231 22.1535 27.905 22.7058C27.9048 22.7059 27.9046 22.7061 27.9043 22.7061L20.387 25.4174C20.3869 25.4175 20.3867 25.4175 20.3866 25.4175C20.3862 25.4177 20.3858 25.4178 20.3853 25.4179C20.3718 25.4228 20.359 25.4287 20.3461 25.4345C20.3412 25.4367 20.336 25.4385 20.3312 25.4408C20.3185 25.4468 20.3065 25.4539 20.2945 25.4607C20.2895 25.4636 20.2843 25.466 20.2795 25.469C20.2679 25.4761 20.2571 25.4839 20.2462 25.4916C20.2413 25.495 20.2362 25.4982 20.2315 25.5017C20.2213 25.5094 20.2119 25.5178 20.2023 25.5261C20.1974 25.5304 20.1922 25.5343 20.1875 25.5386C20.1784 25.5469 20.1702 25.5561 20.1617 25.5649C20.1571 25.5698 20.1522 25.5743 20.1477 25.5793C20.1398 25.5882 20.1325 25.5978 20.1251 25.6073C20.1209 25.6126 20.1162 25.6178 20.1123 25.6233C20.1055 25.6325 20.0996 25.6422 20.0934 25.6518C20.0895 25.6581 20.0851 25.664 20.0813 25.6703C20.0757 25.6799 20.0709 25.6899 20.0658 25.6997C20.0623 25.7065 20.0584 25.7132 20.0551 25.7201C20.0505 25.7298 20.0469 25.7398 20.0428 25.7497C20.0398 25.7573 20.0363 25.7645 20.0337 25.7721C20.0302 25.7818 20.0276 25.7918 20.0247 25.8017C20.0223 25.8098 20.0195 25.8178 20.0173 25.8261C20.0149 25.8358 20.0133 25.8458 20.0113 25.8557C20.0096 25.8643 20.0075 25.8728 20.0062 25.8815C20.0046 25.8915 20.0041 25.9017 20.003 25.9118C20.0022 25.9205 20.0009 25.9293 20.0004 25.9381C19.9998 25.9484 20.0002 25.9587 20.0002 25.969C20.0002 25.9778 19.9998 25.9867 20.0002 25.9955C20.0006 26.006 20.0021 26.0165 20.0031 26.027C20.004 26.0357 20.0045 26.0444 20.0057 26.0532C20.0073 26.0635 20.0098 26.0739 20.0119 26.0843C20.0137 26.0932 20.015 26.1021 20.0172 26.1109C20.0198 26.1213 20.0234 26.1315 20.0266 26.1418C20.0293 26.1503 20.0314 26.159 20.0345 26.1675C20.0345 26.1677 20.0346 26.1679 20.0347 26.1681C20.0348 26.1685 20.0348 26.1688 20.035 26.1692L20.8366 28.3715C20.8427 28.3881 20.8509 28.4031 20.8582 28.4188C20.8639 28.431 20.8685 28.444 20.875 28.4556C20.8841 28.4721 20.8952 28.4868 20.9057 28.5022C20.9123 28.5118 20.918 28.5224 20.9251 28.5315C20.9377 28.5477 20.9521 28.562 20.9662 28.5766C20.9727 28.5834 20.9785 28.5911 20.9854 28.5976C21.0012 28.6125 21.0187 28.6255 21.0359 28.6385C21.0422 28.6432 21.0478 28.6488 21.0542 28.6531C21.0729 28.666 21.0929 28.6769 21.1129 28.6874C21.1188 28.6906 21.1243 28.6946 21.1303 28.6976C21.1508 28.7076 21.1723 28.7153 21.1937 28.7228C21.2 28.725 21.2059 28.7281 21.2122 28.7302C21.2342 28.7371 21.2569 28.7416 21.2797 28.746C21.2859 28.7471 21.292 28.7493 21.2984 28.7503C21.3276 28.7549 21.3573 28.7571 21.3873 28.7571C21.4039 28.7571 21.4205 28.7563 21.4373 28.755C21.4407 28.7547 21.4441 28.754 21.4475 28.7537C21.4608 28.7523 21.474 28.7508 21.4873 28.7485C21.4933 28.7474 21.4994 28.7458 21.5055 28.7445C21.5161 28.7424 21.5266 28.7403 21.5371 28.7375C21.5483 28.7346 21.5593 28.7308 21.5704 28.7271C21.5756 28.7255 21.5808 28.7241 21.586 28.7222L21.5866 28.722C21.5869 28.7219 21.5873 28.7217 21.5876 28.7217C21.5878 28.7216 21.588 28.7214 21.5883 28.7213L28.556 26.2082L36.8186 48.9091C35.3448 50.1983 34.7309 52.3096 35.4399 54.2573C36.1396 56.1795 37.9836 57.4712 40.0285 57.4712C40.5974 57.4712 41.1591 57.3717 41.6981 57.1756C42.9236 56.7295 43.902 55.833 44.4533 54.651C44.7463 54.0226 44.8984 53.3538 44.911 52.6808L59.6141 47.334C59.6141 47.334 59.6142 47.334 59.6143 47.334H59.6144C59.6183 47.3326 59.6219 47.3307 59.6257 47.3292C59.6406 47.3234 59.6554 47.3176 59.6695 47.3107C59.6755 47.3078 59.6811 47.3043 59.687 47.3012C59.6986 47.2951 59.7102 47.2893 59.7212 47.2826C59.7274 47.2787 59.7332 47.2741 59.7393 47.2701C59.7493 47.2634 59.7595 47.2569 59.7691 47.2498C59.7721 47.2474 59.7748 47.2448 59.7777 47.2424C59.7898 47.2328 59.8017 47.2232 59.8129 47.2128C59.8148 47.2108 59.8165 47.2088 59.8184 47.207C59.8302 47.1956 59.8417 47.1841 59.8526 47.1719C59.8548 47.1695 59.8566 47.1668 59.8587 47.1643C59.8689 47.1524 59.8788 47.1404 59.888 47.1278C59.889 47.1265 59.8898 47.125 59.8907 47.1236C59.9006 47.1096 59.9102 47.0954 59.9188 47.0806C59.9204 47.078 59.9216 47.0751 59.9232 47.0723C59.9309 47.0587 59.9384 47.0451 59.945 47.0309C59.9476 47.0254 59.9496 47.0195 59.952 47.0139C59.957 47.0023 59.962 46.9908 59.9663 46.9789C59.9692 46.9707 59.9713 46.9623 59.9738 46.954C59.9768 46.9444 59.9802 46.9348 59.9826 46.9251C59.9862 46.9106 59.9888 46.8959 59.9913 46.8812C59.992 46.8773 59.993 46.8736 59.9936 46.8698C60.0076 46.7763 59.9991 46.678 59.9645 46.583ZM42.9074 26.8068L43.575 28.642L41.7397 29.3099L41.0718 27.4749L42.9074 26.8068ZM46.3809 36.3501L47.0489 38.185L45.2131 38.8532L44.5452 37.0181L46.3809 36.3501ZM39.4068 38.8881L43.4442 37.4188L44.3127 39.8042C44.3963 40.0347 44.6174 40.1901 44.8634 40.1901C44.9314 40.1901 44.9986 40.1777 45.0634 40.1542L48.0001 39.0854C48.304 38.9753 48.461 38.6386 48.3501 38.3346L47.4817 35.9493L51.5197 34.4797L55.3951 45.1271L43.7046 49.3784C43.4851 49.1277 43.2417 48.9001 42.9777 48.6998L39.4068 38.8881ZM29.4575 25.2582C29.4541 25.2489 29.4498 25.24 29.446 25.2308C29.4421 25.2218 29.4387 25.2125 29.4345 25.2037C29.4306 25.1957 29.4261 25.1883 29.422 25.1806C29.4168 25.171 29.4119 25.1611 29.4063 25.1519C29.4024 25.1456 29.3979 25.1398 29.3938 25.1336C29.3871 25.1236 29.3807 25.1135 29.3735 25.104C29.3697 25.099 29.3654 25.0946 29.3615 25.0896C29.3534 25.0796 29.3453 25.0695 29.3365 25.06C29.333 25.0562 29.329 25.0528 29.3253 25.049C29.3156 25.0392 29.306 25.0293 29.2957 25.0202C29.2928 25.0176 29.2896 25.0154 29.2866 25.0129C29.2752 25.0031 29.2636 24.9935 29.2515 24.9847C29.2498 24.9835 29.2479 24.9825 29.2462 24.9812C29.2326 24.9715 29.2187 24.9623 29.2043 24.9538C29.2032 24.9532 29.2021 24.9526 29.201 24.9521C29.121 24.9056 29.0303 24.8782 28.9366 24.8732C28.9357 24.8732 28.9349 24.8733 28.9341 24.8732C28.916 24.8724 28.8978 24.8723 28.8794 24.8732C28.876 24.8733 28.8727 24.8739 28.8693 24.8742C28.8535 24.8752 28.8378 24.8764 28.822 24.8788C28.8144 24.88 28.8069 24.8818 28.7993 24.8833C28.7878 24.8854 28.7761 24.8874 28.7646 24.8903C28.7514 24.8936 28.7384 24.898 28.7253 24.9021C28.7196 24.904 28.7137 24.9054 28.7079 24.9075L28.7071 24.9078C28.7069 24.9079 28.7066 24.9079 28.7063 24.908C28.706 24.9081 28.7058 24.9082 28.7056 24.9083L21.7379 27.4214L21.337 26.3202L28.3039 23.8074C28.304 23.8073 28.3041 23.8072 28.3042 23.8072C28.3046 23.8071 28.305 23.807 28.3055 23.8068C29.2164 23.4754 30.227 23.9466 30.5585 24.8575L38.9204 47.8321C38.7306 47.8765 38.5427 47.9315 38.3576 47.999C38.1711 48.0669 37.9922 48.1462 37.8194 48.2337L29.4575 25.2582ZM43.391 54.1555C42.9721 55.0538 42.2285 55.7352 41.2971 56.0742C40.887 56.2235 40.46 56.2992 40.0283 56.2992C38.4742 56.2992 37.0727 55.3175 36.541 53.8564C35.8412 51.9337 36.8361 49.8 38.7588 49.1001C39.1689 48.9508 39.5958 48.8751 40.0276 48.8751C41.5817 48.8751 42.9832 49.8568 43.5149 51.3181C43.854 52.2495 43.81 53.2572 43.391 54.1555ZM44.7827 51.4804C44.7382 51.291 44.6837 51.103 44.6161 50.9174C44.5486 50.7318 44.4701 50.5523 44.3821 50.379L58.2619 45.3317L58.6627 46.433L44.7827 51.4804Z" fill="white"/>
<path d="M59.9645 46.583L59.1627 44.3806C59.1079 44.2299 58.9976 44.1156 58.8634 44.0519C58.8622 44.0513 58.861 44.0506 58.8598 44.0501C58.8511 44.0459 58.842 44.0427 58.833 44.0391C58.8245 44.0356 58.8163 44.0317 58.8077 44.0287C58.8056 44.0279 58.8034 44.0274 58.8013 44.0268C58.6792 43.985 58.5426 43.9827 58.4119 44.0304L56.4959 44.7272L52.42 33.5282C52.42 33.5279 52.4197 33.5276 52.4197 33.5274L50.817 29.1237C50.7326 28.8932 50.5115 28.7385 50.2662 28.7385C50.1983 28.7385 50.1303 28.7502 50.0662 28.7736C49.7623 28.8838 49.6053 29.2213 49.7154 29.5244L51.1186 33.3784L43.5941 36.117C43.594 36.117 43.5938 36.117 43.5937 36.1171C43.5935 36.1172 43.5933 36.1173 43.5931 36.1173L39.0057 37.7868L35.9326 29.3451L39.9707 27.8756L40.8391 30.261C40.9227 30.4915 41.1438 30.647 41.3891 30.647C41.4578 30.647 41.525 30.6353 41.5899 30.611L44.5265 29.5423C44.6734 29.4892 44.7906 29.3813 44.857 29.2399C44.906 29.1348 44.922 29.0202 44.9057 28.9082C44.9056 28.9076 44.9056 28.907 44.9056 28.9064C44.9033 28.8912 44.9 28.8759 44.8965 28.8608C44.8955 28.8565 44.8949 28.8524 44.8939 28.8481C44.8892 28.8292 44.8834 28.8103 44.8766 28.7916L44.0085 26.406L48.0456 24.9368L48.9139 27.322C48.9983 27.5524 49.2194 27.7079 49.4647 27.7079C49.5326 27.7079 49.6006 27.6962 49.6654 27.672C49.9686 27.5618 50.1256 27.225 50.0154 26.9212L48.9467 23.9846C48.8729 23.7829 48.6944 23.6393 48.4866 23.6065C48.4569 23.6018 48.4266 23.5993 48.3959 23.5993C48.328 23.5993 48.26 23.6111 48.1959 23.6345L43.0597 25.5041C43.0588 25.5044 43.0579 25.5045 43.0571 25.5048C43.0555 25.5053 43.0541 25.5061 43.0525 25.5067L40.1256 26.5721C40.1239 26.5728 40.1221 26.5729 40.1204 26.5735C40.1175 26.5746 40.1148 26.576 40.1119 26.5771L34.9816 28.4445C34.8347 28.4977 34.7175 28.6055 34.6511 28.7469C34.5847 28.8891 34.5776 29.0484 34.6316 29.1953L38.1048 38.7386L41.4449 47.9161C41.0214 47.7867 40.5768 47.714 40.1215 47.7052L31.6599 24.4568C31.1074 22.9389 29.4231 22.1535 27.905 22.7058C27.9048 22.7059 27.9046 22.7061 27.9043 22.7061L20.387 25.4174C20.3869 25.4175 20.3867 25.4175 20.3866 25.4175C20.3862 25.4177 20.3858 25.4178 20.3853 25.4179C20.3718 25.4228 20.359 25.4287 20.3461 25.4345C20.3412 25.4367 20.336 25.4385 20.3312 25.4408C20.3185 25.4468 20.3065 25.4539 20.2945 25.4607C20.2895 25.4636 20.2843 25.466 20.2795 25.469C20.2679 25.4761 20.2571 25.4839 20.2462 25.4916C20.2413 25.495 20.2362 25.4982 20.2315 25.5017C20.2213 25.5094 20.2119 25.5178 20.2023 25.5261C20.1974 25.5304 20.1922 25.5343 20.1875 25.5386C20.1784 25.5469 20.1702 25.5561 20.1617 25.5649C20.1571 25.5698 20.1522 25.5743 20.1477 25.5793C20.1398 25.5882 20.1325 25.5978 20.1251 25.6073C20.1209 25.6126 20.1162 25.6178 20.1123 25.6233C20.1055 25.6325 20.0996 25.6422 20.0934 25.6518C20.0895 25.6581 20.0851 25.664 20.0813 25.6703C20.0757 25.6799 20.0709 25.6899 20.0658 25.6997C20.0623 25.7065 20.0584 25.7132 20.0551 25.7201C20.0505 25.7298 20.0469 25.7398 20.0428 25.7497C20.0398 25.7573 20.0363 25.7645 20.0337 25.7721C20.0302 25.7818 20.0276 25.7918 20.0247 25.8017C20.0223 25.8098 20.0195 25.8178 20.0173 25.8261C20.0149 25.8358 20.0133 25.8458 20.0113 25.8557C20.0096 25.8643 20.0075 25.8728 20.0062 25.8815C20.0046 25.8915 20.0041 25.9017 20.003 25.9118C20.0022 25.9205 20.0009 25.9293 20.0004 25.9381C19.9998 25.9484 20.0002 25.9587 20.0002 25.969C20.0002 25.9778 19.9998 25.9867 20.0002 25.9955C20.0006 26.006 20.0021 26.0165 20.0031 26.027C20.004 26.0357 20.0045 26.0444 20.0057 26.0532C20.0073 26.0635 20.0098 26.0739 20.0119 26.0843C20.0137 26.0932 20.015 26.1021 20.0172 26.1109C20.0198 26.1213 20.0234 26.1315 20.0266 26.1418C20.0293 26.1503 20.0314 26.159 20.0345 26.1675C20.0345 26.1677 20.0346 26.1679 20.0347 26.1681C20.0348 26.1685 20.0348 26.1688 20.035 26.1692L20.8366 28.3715C20.8427 28.3881 20.8509 28.4031 20.8582 28.4188C20.8639 28.431 20.8685 28.444 20.875 28.4556C20.8841 28.4721 20.8952 28.4868 20.9057 28.5022C20.9123 28.5118 20.918 28.5224 20.9251 28.5315C20.9377 28.5477 20.9521 28.562 20.9662 28.5766C20.9727 28.5834 20.9785 28.5911 20.9854 28.5976C21.0012 28.6125 21.0187 28.6255 21.0359 28.6385C21.0422 28.6432 21.0478 28.6488 21.0542 28.6531C21.0729 28.666 21.0929 28.6769 21.1129 28.6874C21.1188 28.6906 21.1243 28.6946 21.1303 28.6976C21.1508 28.7076 21.1723 28.7153 21.1937 28.7228C21.2 28.725 21.2059 28.7281 21.2122 28.7302C21.2342 28.7371 21.2569 28.7416 21.2797 28.746C21.2859 28.7471 21.292 28.7493 21.2984 28.7503C21.3276 28.7549 21.3573 28.7571 21.3873 28.7571C21.4039 28.7571 21.4205 28.7563 21.4373 28.755C21.4407 28.7547 21.4441 28.754 21.4475 28.7537C21.4608 28.7523 21.474 28.7508 21.4873 28.7485C21.4933 28.7474 21.4994 28.7458 21.5055 28.7445C21.5161 28.7424 21.5266 28.7403 21.5371 28.7375C21.5483 28.7346 21.5593 28.7308 21.5704 28.7271C21.5756 28.7255 21.5808 28.7241 21.586 28.7222L21.5866 28.722C21.5869 28.7219 21.5873 28.7217 21.5876 28.7217C21.5878 28.7216 21.588 28.7214 21.5883 28.7213L28.556 26.2082L36.8186 48.9091C35.3448 50.1983 34.7309 52.3096 35.4399 54.2573C36.1396 56.1795 37.9836 57.4712 40.0285 57.4712C40.5974 57.4712 41.1591 57.3717 41.6981 57.1756C42.9236 56.7295 43.902 55.833 44.4533 54.651C44.7463 54.0226 44.8984 53.3538 44.911 52.6808L59.6141 47.334C59.6141 47.334 59.6142 47.334 59.6143 47.334H59.6144C59.6183 47.3326 59.6219 47.3307 59.6257 47.3292C59.6406 47.3234 59.6554 47.3176 59.6695 47.3107C59.6755 47.3078 59.6811 47.3043 59.687 47.3012C59.6986 47.2951 59.7102 47.2893 59.7212 47.2826C59.7274 47.2787 59.7332 47.2741 59.7393 47.2701C59.7493 47.2634 59.7595 47.2569 59.7691 47.2498C59.7721 47.2474 59.7748 47.2448 59.7777 47.2424C59.7898 47.2328 59.8017 47.2232 59.8129 47.2128C59.8148 47.2108 59.8165 47.2088 59.8184 47.207C59.8302 47.1956 59.8417 47.1841 59.8526 47.1719C59.8548 47.1695 59.8566 47.1668 59.8587 47.1643C59.8689 47.1524 59.8788 47.1404 59.888 47.1278C59.889 47.1265 59.8898 47.125 59.8907 47.1236C59.9006 47.1096 59.9102 47.0954 59.9188 47.0806C59.9204 47.078 59.9216 47.0751 59.9232 47.0723C59.9309 47.0587 59.9384 47.0451 59.945 47.0309C59.9476 47.0254 59.9496 47.0195 59.952 47.0139C59.957 47.0023 59.962 46.9908 59.9663 46.9789C59.9692 46.9707 59.9713 46.9623 59.9738 46.954C59.9768 46.9444 59.9802 46.9348 59.9826 46.9251C59.9862 46.9106 59.9888 46.8959 59.9913 46.8812C59.992 46.8773 59.993 46.8736 59.9936 46.8698C60.0076 46.7763 59.9991 46.678 59.9645 46.583ZM42.9074 26.8068L43.575 28.642L41.7397 29.3099L41.0718 27.4749L42.9074 26.8068ZM46.3809 36.3501L47.0489 38.185L45.2131 38.8532L44.5452 37.0181L46.3809 36.3501ZM39.4068 38.8881L43.4442 37.4188L44.3127 39.8042C44.3963 40.0347 44.6174 40.1901 44.8634 40.1901C44.9314 40.1901 44.9986 40.1777 45.0634 40.1542L48.0001 39.0854C48.304 38.9753 48.461 38.6386 48.3501 38.3346L47.4817 35.9493L51.5197 34.4797L55.3951 45.1271L43.7046 49.3784C43.4851 49.1277 43.2417 48.9001 42.9777 48.6998L39.4068 38.8881ZM29.4575 25.2582C29.4541 25.2489 29.4498 25.24 29.446 25.2308C29.4421 25.2218 29.4387 25.2125 29.4345 25.2037C29.4306 25.1957 29.4261 25.1883 29.422 25.1806C29.4168 25.171 29.4119 25.1611 29.4063 25.1519C29.4024 25.1456 29.3979 25.1398 29.3938 25.1336C29.3871 25.1236 29.3807 25.1135 29.3735 25.104C29.3697 25.099 29.3654 25.0946 29.3615 25.0896C29.3534 25.0796 29.3453 25.0695 29.3365 25.06C29.333 25.0562 29.329 25.0528 29.3253 25.049C29.3156 25.0392 29.306 25.0293 29.2957 25.0202C29.2928 25.0176 29.2896 25.0154 29.2866 25.0129C29.2752 25.0031 29.2636 24.9935 29.2515 24.9847C29.2498 24.9835 29.2479 24.9825 29.2462 24.9812C29.2326 24.9715 29.2187 24.9623 29.2043 24.9538C29.2032 24.9532 29.2021 24.9526 29.201 24.9521C29.121 24.9056 29.0303 24.8782 28.9366 24.8732C28.9357 24.8732 28.9349 24.8733 28.9341 24.8732C28.916 24.8724 28.8978 24.8723 28.8794 24.8732C28.876 24.8733 28.8727 24.8739 28.8693 24.8742C28.8535 24.8752 28.8378 24.8764 28.822 24.8788C28.8144 24.88 28.8069 24.8818 28.7993 24.8833C28.7878 24.8854 28.7761 24.8874 28.7646 24.8903C28.7514 24.8936 28.7384 24.898 28.7253 24.9021C28.7196 24.904 28.7137 24.9054 28.7079 24.9075L28.7071 24.9078C28.7069 24.9079 28.7066 24.9079 28.7063 24.908C28.706 24.9081 28.7058 24.9082 28.7056 24.9083L21.7379 27.4214L21.337 26.3202L28.3039 23.8074C28.304 23.8073 28.3041 23.8072 28.3042 23.8072C28.3046 23.8071 28.305 23.807 28.3055 23.8068C29.2164 23.4754 30.227 23.9466 30.5585 24.8575L38.9204 47.8321C38.7306 47.8765 38.5427 47.9315 38.3576 47.999C38.1711 48.0669 37.9922 48.1462 37.8194 48.2337L29.4575 25.2582ZM43.391 54.1555C42.9721 55.0538 42.2285 55.7352 41.2971 56.0742C40.887 56.2235 40.46 56.2992 40.0283 56.2992C38.4742 56.2992 37.0727 55.3175 36.541 53.8564C35.8412 51.9337 36.8361 49.8 38.7588 49.1001C39.1689 48.9508 39.5958 48.8751 40.0276 48.8751C41.5817 48.8751 42.9832 49.8568 43.5149 51.3181C43.854 52.2495 43.81 53.2572 43.391 54.1555ZM44.7827 51.4804C44.7382 51.291 44.6837 51.103 44.6161 50.9174C44.5486 50.7318 44.4701 50.5523 44.3821 50.379L58.2619 45.3317L58.6627 46.433L44.7827 51.4804Z" stroke="white" stroke-width="0.6" mask="url(#path-4-outside-1)"/>
</g>
<defs>
<clipPath id="clip0">
<rect x="20" y="20" width="40" height="40" fill="white"/>
</clipPath>
</defs>
</svg>
