<svg width="8" height="8" viewBox="0 0 8 8" fill="none" xmlns="http://www.w3.org/2000/svg">
<path d="M0.127872 5.96768L0.389922 6.23155C0.472394 6.31396 0.582119 6.35936 0.699388 6.35936C0.816592 6.35936 0.926447 6.31396 1.00892 6.23155L3.99821 3.24213L6.99095 6.23487C7.07329 6.31728 7.18315 6.36261 7.30035 6.36261C7.41756 6.36261 7.52748 6.31728 7.60988 6.23487L7.872 5.97262C8.04267 5.80208 8.04267 5.52429 7.872 5.35376L4.30878 1.77773C4.22644 1.69539 4.11672 1.63737 3.99847 1.63737L3.99711 1.63737C3.87984 1.63737 3.77011 1.69545 3.68777 1.77773L0.127872 5.34406C0.0453993 5.42641 0.000130249 5.53945 6.17167e-08 5.65665C5.14647e-08 5.77392 0.0453992 5.8854 0.127872 5.96768Z" fill="#FFB95F"/>
</svg>
