<svg width="80" height="80" viewBox="0 0 80 80" fill="none" xmlns="http://www.w3.org/2000/svg">
<circle cx="40" cy="40" r="40" fill="#2154D1"/>
<g clip-path="url(#clip0)">
<path d="M24.9994 50.4428C25.3528 50.0893 25.3528 49.5162 24.9994 49.1627C24.646 48.8094 24.0729 48.8094 23.7193 49.1627L20.2651 52.6171C19.9116 52.9706 19.9116 53.5437 20.2651 53.8972C20.4417 54.0739 20.6734 54.1623 20.9051 54.1623C21.1367 54.1623 21.3684 54.0739 21.545 53.8972L24.9994 50.4428Z" fill="white"/>
<path d="M47.7784 26.2114C46.9757 27.0141 46.5337 28.0813 46.5337 29.2164C46.5337 30.3515 46.9757 31.4187 47.7784 32.2213C48.6068 33.0497 49.6951 33.4639 50.7833 33.4639C51.8716 33.4639 52.9598 33.0497 53.7882 32.2213C54.5909 31.4187 55.0329 30.3515 55.0329 29.2164C55.0329 28.0813 54.5908 27.0141 53.7882 26.2114C52.1314 24.5545 49.4354 24.5545 47.7784 26.2114ZM52.5082 30.9413C51.5571 31.8927 50.0096 31.8926 49.0583 30.9413C48.5976 30.4806 48.3439 29.8681 48.3439 29.2164C48.3439 28.5648 48.5976 27.9521 49.0583 27.4914C49.534 27.0157 50.1586 26.778 50.7833 26.778C51.4079 26.778 52.0328 27.0158 52.5082 27.4914C52.969 27.9521 53.2228 28.5647 53.2228 29.2164C53.2228 29.8681 52.969 30.4806 52.5082 30.9413Z" fill="white"/>
<path d="M27.8539 52.0172C27.5004 51.6639 26.9273 51.6639 26.5739 52.0172L21.7285 56.8628C21.375 57.2162 21.375 57.7893 21.7285 58.1428C21.9052 58.3195 22.1368 58.4079 22.3684 58.4079C22.6001 58.4079 22.8318 58.3195 23.0084 58.1428L27.8539 53.2973C28.2073 52.9437 28.2073 52.3706 27.8539 52.0172Z" fill="white"/>
<path d="M59.4237 21.2063C59.3388 20.9002 59.0996 20.6612 58.7937 20.5762C55.4951 19.6607 51.9222 19.8389 48.4612 21.091C45.7793 22.0614 43.171 23.688 41.3051 25.554L38.4907 28.3685L28.2945 29.9611C28.105 29.9907 27.9299 30.0798 27.7942 30.2154L21.273 36.7366C21.019 36.9906 20.9392 37.3707 21.0696 37.7053C21.2 38.0399 21.5161 38.2657 21.8749 38.2808L28.3076 38.5514L26.6953 40.1636C26.3419 40.517 26.3419 41.0901 26.6953 41.4437L27.6364 42.3846L24.8258 46.6927C24.5919 47.0512 24.6411 47.5245 24.9438 47.8272L32.1728 55.0561C32.4756 55.3588 32.9488 55.4082 33.3074 55.1741L37.6154 52.3635L38.5564 53.3045C38.9098 53.6579 39.4829 53.6579 39.8364 53.3045L41.4487 51.6923L41.7192 58.1248C41.7343 58.4837 41.9601 58.7996 42.2947 58.9301C42.4015 58.9717 42.5129 58.9919 42.6233 58.9919C42.859 58.9919 43.0905 58.8997 43.2634 58.7268L49.7847 52.2056C49.9203 52.0699 50.0093 51.8947 50.039 51.7052L51.6318 41.5092L54.4461 38.6947C56.312 36.8288 57.9387 34.2205 58.9091 31.5388C60.1611 28.0778 60.3391 24.5048 59.4237 21.2063ZM32.9335 53.2567L26.7432 47.0665L28.9445 43.6925L31.9859 46.734L31.6282 47.0917C31.2747 47.4451 31.2747 48.0182 31.6282 48.3717C31.9817 48.7251 32.5548 48.7251 32.9083 48.3717L33.266 48.014L36.3074 51.0555L32.9335 53.2567ZM53.166 37.4149L50.1429 40.438C50.1425 40.4384 50.1422 40.4387 50.1418 40.4391L46.9963 43.5846C46.6428 43.9381 46.6428 44.5112 46.9963 44.8647C47.3497 45.218 47.9228 45.218 48.2763 44.8647L49.4604 43.6807L48.296 51.1344L43.4411 55.9894L43.1873 49.9537L45.7164 47.4246C46.0698 47.0712 46.0698 46.4981 45.7164 46.1446C45.363 45.7912 44.7899 45.7912 44.4363 46.1446L41.6287 48.9522C41.6271 48.9538 41.6257 48.9552 41.6242 48.9568L39.1964 51.3845L38.3893 50.5774C38.3801 50.5679 38.3708 50.5586 38.3612 50.5494L34.5459 46.734L45.4924 35.7875C45.8458 35.4341 45.8459 34.861 45.4924 34.5075C45.1391 34.1542 44.566 34.1541 44.2124 34.5075L33.2659 45.4541L29.4503 41.6385C29.4413 41.6291 29.432 41.6199 29.4225 41.6107L28.6155 40.8036L31.0433 38.3758C31.0448 38.3743 31.0463 38.3729 31.0477 38.3714L33.8554 35.5637C34.2089 35.2103 34.2089 34.6372 33.8554 34.2836C33.502 33.9303 32.9288 33.9303 32.5754 34.2836L30.0463 36.8127L24.0107 36.5588L28.8656 31.704L36.3193 30.5397L35.1353 31.7236L36.4152 33.0037L39.5512 29.8676C39.558 29.861 39.5648 29.8543 39.5714 29.8475L42.585 26.8339C45.1037 24.3153 51.0841 20.5836 57.8088 22.1911C59.4163 28.9159 55.6845 34.8964 53.166 37.4149Z" fill="white"/>
<path d="M29.5573 55.0007L26.103 58.455C25.7495 58.8084 25.7495 59.3815 26.103 59.7351C26.2797 59.9117 26.5113 60.0002 26.743 60.0002C26.9746 60.0002 27.2063 59.9117 27.3829 59.7351L30.8373 56.2807C31.1907 55.9273 31.1907 55.3542 30.8373 55.0007C30.4839 54.6472 29.9108 54.6472 29.5573 55.0007Z" fill="white"/>
</g>
<defs>
<clipPath id="clip0">
<rect x="20" y="20" width="40" height="40" fill="white"/>
</clipPath>
</defs>
</svg>
