<svg width="80" height="80" viewBox="0 0 80 80" fill="none" xmlns="http://www.w3.org/2000/svg">
<circle cx="40" cy="40" r="40" fill="#2154D1"/>
<g clip-path="url(#clip0)">
<path d="M56 20H24C23.2636 20 22.6666 20.597 22.6666 21.3334V58.6667C22.6666 59.4031 23.2636 60.0001 24 60.0001H54C54.7364 60.0001 55.3333 59.4031 55.3333 58.6667V53.3334H56C56.7364 53.3334 57.3333 52.7364 57.3333 52V21.3334C57.3333 20.597 56.7364 20 56 20ZM56 52H55.3333C54.5969 52 54 52.597 54 53.3334V58.6667H24V21.3334H56V52Z" fill="white" stroke="#2154D1" stroke-width="0.4"/>
<path d="M54 20H36.6666C36.2984 20 36 20.2984 36 20.6666V48.6666C36 49.403 36.597 50 37.3334 50H53.3333C54.0697 50 54.6667 49.403 54.6667 48.6666V20.6666C54.6666 20.2984 54.3682 20 54 20ZM53.3333 48.6666H37.3334V21.3334H53.3333V48.6666Z" fill="white" stroke="#2154D1" stroke-width="0.4"/>
<path d="M34 22.6665H26C25.6318 22.6665 25.3334 22.9649 25.3334 23.3331C25.3334 23.7013 25.6318 23.9999 26 23.9999H34C34.3682 23.9999 34.6667 23.7014 34.6667 23.3332C34.6667 22.965 34.3682 22.6665 34 22.6665Z" fill="white" stroke="#2154D1" stroke-width="0.4"/>
<path d="M34 25.3333H26C25.6318 25.3333 25.3334 25.6317 25.3334 25.9999C25.3334 26.3681 25.6318 26.6665 26 26.6665H34C34.3682 26.6665 34.6667 26.3681 34.6667 25.9999C34.6667 25.6317 34.3682 25.3333 34 25.3333Z" fill="white" stroke="#2154D1" stroke-width="0.4"/>
<path d="M34 28H26C25.6318 28 25.3334 28.2984 25.3334 28.6666C25.3334 29.0348 25.6318 29.3333 26 29.3333H34C34.3682 29.3333 34.6667 29.0348 34.6667 28.6666C34.6667 28.2984 34.3682 28 34 28Z" fill="white" stroke="#2154D1" stroke-width="0.4"/>
<path d="M34 30.6667H26C25.6318 30.6667 25.3334 30.9652 25.3334 31.3334C25.3334 31.7016 25.6318 32 26 32H34C34.3682 32 34.6667 31.7015 34.6667 31.3334C34.6667 30.9653 34.3682 30.6667 34 30.6667Z" fill="white" stroke="#2154D1" stroke-width="0.4"/>
<path d="M34 33.3335H26C25.6318 33.3335 25.3334 33.6319 25.3334 34.0001C25.3334 34.3683 25.6318 34.6668 26 34.6668H34C34.3682 34.6668 34.6667 34.3683 34.6667 34.0001C34.6667 33.6319 34.3682 33.3335 34 33.3335Z" fill="white" stroke="#2154D1" stroke-width="0.4"/>
<path d="M34 36H26C25.6318 36 25.3334 36.2985 25.3334 36.6666C25.3334 37.0348 25.6318 37.3333 26 37.3333H34C34.3682 37.3333 34.6667 37.0348 34.6667 36.6666C34.6667 36.2985 34.3682 36 34 36Z" fill="white" stroke="#2154D1" stroke-width="0.4"/>
<path d="M34 38.6665H26C25.6318 38.6665 25.3334 38.9649 25.3334 39.3331C25.3334 39.7013 25.6318 39.9998 26 39.9998H34C34.3682 39.9998 34.6667 39.7014 34.6667 39.3332C34.6667 38.965 34.3682 38.6665 34 38.6665Z" fill="white" stroke="#2154D1" stroke-width="0.4"/>
<path d="M34 41.3335H26C25.6318 41.3335 25.3334 41.632 25.3334 42.0001C25.3334 42.3683 25.6318 42.6668 26 42.6668H34C34.3682 42.6668 34.6667 42.3683 34.6667 42.0001C34.6667 41.6319 34.3682 41.3335 34 41.3335Z" fill="white" stroke="#2154D1" stroke-width="0.4"/>
<path d="M34 44H26C25.6318 44 25.3334 44.2984 25.3334 44.6666C25.3334 45.0348 25.6318 45.3333 26 45.3333H34C34.3682 45.3333 34.6667 45.0348 34.6667 44.6666C34.6667 44.2984 34.3682 44 34 44Z" fill="white" stroke="#2154D1" stroke-width="0.4"/>
<path d="M34 46.6667H26C25.6318 46.6667 25.3334 46.9652 25.3334 47.3334C25.3334 47.7016 25.6318 48 26 48H34C34.3682 48 34.6667 47.7016 34.6667 47.3334C34.6667 46.9652 34.3682 46.6667 34 46.6667Z" fill="white" stroke="#2154D1" stroke-width="0.4"/>
<path d="M34 49.3333H26C25.6318 49.3333 25.3334 49.6317 25.3334 49.9999C25.3334 50.3681 25.6318 50.6665 26 50.6665H34C34.3682 50.6665 34.6667 50.3681 34.6667 49.9999C34.6667 49.6317 34.3682 49.3333 34 49.3333Z" fill="white" stroke="#2154D1" stroke-width="0.4"/>
<path d="M34 52H26C25.6318 52 25.3334 52.2984 25.3334 52.6666C25.3334 53.0348 25.6318 53.3333 26 53.3333H34C34.3682 53.3333 34.6667 53.0348 34.6667 52.6666C34.6667 52.2984 34.3682 52 34 52Z" fill="white" stroke="#2154D1" stroke-width="0.4"/>
<path d="M34 54.6667H26C25.6318 54.6667 25.3334 54.9653 25.3334 55.3334C25.3334 55.7016 25.6318 56 26 56H34C34.3682 56 34.6667 55.7015 34.6667 55.3334C34.6667 54.9653 34.3682 54.6667 34 54.6667Z" fill="white" stroke="#2154D1" stroke-width="0.4"/>
<path d="M44.52 52.4735C44.2849 51.7994 43.6537 51.344 42.94 51.3335H38.3933C37.683 51.342 37.0529 51.7914 36.8133 52.4601C36.4998 53.2216 36.685 54.0975 37.28 54.6668L39.7533 56.9734C40.0009 57.2052 40.3276 57.3339 40.6667 57.3334C41.005 57.3357 41.3315 57.2094 41.5801 56.98L44.0534 54.6801C44.6484 54.1108 44.8336 53.235 44.52 52.4735ZM43.1534 53.7001L40.6667 56.0001L38.1867 53.7001C37.9941 53.5044 37.9412 53.2108 38.0533 52.9601C38.0867 52.8735 38.1867 52.6668 38.3933 52.6668H42.9467C43.1467 52.6668 43.2534 52.8734 43.2867 52.9601C43.3988 53.2108 43.3459 53.5044 43.1534 53.7001Z" fill="white" stroke="#2154D1" stroke-width="0.4"/>
<path d="M47.7133 32.0933L46.38 30.4933C46.3442 30.4531 46.3062 30.4151 46.2661 30.3794C45.6862 29.8624 44.797 29.9134 44.28 30.4933L42.9466 32.0933C42.6265 32.4887 42.5593 33.0318 42.7733 33.4933C42.994 33.9703 43.4744 34.2731 43.9999 34.2666H46.6266C47.1641 34.2866 47.661 33.9816 47.8865 33.4933C48.1007 33.0317 48.0334 32.4887 47.7133 32.0933ZM43.96 32.9399L45.2934 31.3399L45.3334 31.3333L46.6267 32.9399H43.96Z" fill="white" stroke="#2154D1" stroke-width="0.4"/>
<path d="M51.7134 36.76L50.38 35.16C50.3442 35.1199 50.3062 35.0818 50.2661 35.0461C49.6862 34.5292 48.797 34.5802 48.28 35.16L46.9466 36.76C46.6265 37.1554 46.5593 37.6985 46.7733 38.16C46.994 38.6371 47.4744 38.9399 47.9999 38.9334H50.6666C51.1898 38.9373 51.6669 38.6349 51.8866 38.16C52.1007 37.6985 52.0334 37.1554 51.7134 36.76ZM48 37.6L49.3334 36L50.6667 37.6H48Z" fill="white" stroke="#2154D1" stroke-width="0.4"/>
<path d="M43.7134 36.76L42.3801 35.16C42.3443 35.1199 42.3062 35.0818 42.2662 35.0461C41.6862 34.5292 40.7971 34.5802 40.2801 35.16L38.9467 36.76C38.6265 37.1554 38.5594 37.6985 38.7733 38.16C38.994 38.6371 39.4744 38.9399 40 38.9334H42.6666C43.1898 38.9373 43.6669 38.6349 43.8866 38.16C44.1008 37.6985 44.0335 37.1554 43.7134 36.76ZM40.0001 37.6L41.3334 36L42.6668 37.6H40.0001Z" fill="white" stroke="#2154D1" stroke-width="0.4"/>
<path d="M49.3334 22.6665C47.8607 22.6665 46.6667 23.8604 46.6667 25.3331C46.6667 26.8059 47.8607 27.9998 49.3334 27.9998C50.8061 27.9998 52 26.806 52 25.3332C52 23.8605 50.8061 22.6665 49.3334 22.6665ZM49.3334 26.6665C48.597 26.6665 48 26.0696 48 25.3331C48 24.5967 48.597 23.9999 49.3334 23.9999C50.0698 23.9999 50.6667 24.5968 50.6667 25.3332C50.6667 26.0696 50.0697 26.6665 49.3334 26.6665Z" fill="white" stroke="#2154D1" stroke-width="0.4"/>
<path d="M48.6666 42H42C41.6318 42 41.3333 42.2984 41.3333 42.6666C41.3333 43.0348 41.6318 43.3333 42 43.3333H48.6666C49.0348 43.3333 49.3332 43.0348 49.3332 42.6666C49.3332 42.2984 49.0348 42 48.6666 42Z" fill="white" stroke="#2154D1" stroke-width="0.4"/>
<path d="M51.3333 44.6667H39.3333C38.9651 44.6667 38.6667 44.9652 38.6667 45.3334C38.6667 45.7016 38.9651 46 39.3333 46H51.3333C51.7015 46 52 45.7016 52 45.3334C52 44.9652 51.7015 44.6667 51.3333 44.6667Z" fill="white" stroke="#2154D1" stroke-width="0.4"/>
</g>
<defs>
<clipPath id="clip0">
<rect width="40" height="40" fill="white" transform="translate(20 20)"/>
</clipPath>
</defs>
</svg>
