<svg width="80" height="80" viewBox="0 0 80 80" fill="none" xmlns="http://www.w3.org/2000/svg">
<circle cx="40" cy="40" r="40" fill="#2154D1"/>
<g clip-path="url(#clip0)">
<path d="M23.2257 55.4703H40V54.1797H23.2257C22.1569 54.1797 21.2903 53.3131 21.2903 52.2442V23.8571C21.2903 22.7879 22.1569 21.9216 23.2257 21.9216H51.6129C52.6822 21.9216 53.5483 22.7879 53.5483 23.8571V38.6957H54.8389V23.8571C54.8368 22.0764 53.3937 20.6334 51.6129 20.6313H23.2257C21.4453 20.6334 20.0023 22.0764 20 23.8571V52.2442C20.0023 54.0249 21.4453 55.4678 23.2257 55.4703Z" fill="white" stroke="white" stroke-width="0.5"/>
<path d="M22.5801 23.2122H23.8702V24.5023H22.5801V23.2122Z" fill="white" stroke="white" stroke-width="0.5"/>
<path d="M25.1621 23.2122H26.4527V24.5023H25.1621V23.2122Z" fill="white" stroke="white" stroke-width="0.5"/>
<path d="M27.7422 23.2122H29.0326V24.5023H27.7422V23.2122Z" fill="white" stroke="white" stroke-width="0.5"/>
<path d="M22.5801 25.7927H52.2573V27.0833H22.5801V25.7927Z" fill="white" stroke="white" stroke-width="0.5"/>
<path d="M29.2225 28.5625L27.5837 30.2012C26.1986 29.2842 24.3436 29.5656 23.2923 30.8521C22.2412 32.1385 22.3355 34.0124 23.5102 35.1868C24.6846 36.3618 26.5587 36.4561 27.8452 35.4048C29.1316 34.3537 29.4131 32.4985 28.4959 31.1136L30.1345 29.4749L29.2225 28.5625ZM25.8074 34.8249C24.7387 34.8249 23.8721 33.9585 23.8721 32.8896C23.8721 31.8206 24.7387 30.9543 25.8074 30.9543C26.0952 30.9553 26.3784 31.0213 26.6366 31.1476L25.3515 32.4328L26.2636 33.3452L27.5496 32.0607C27.6759 32.3188 27.742 32.6019 27.743 32.8896C27.743 33.9585 26.8768 34.8249 25.8074 34.8249Z" fill="white" stroke="white" stroke-width="0.5"/>
<path d="M30.9668 30.9541H41.9343V32.2442H30.9668V30.9541Z" fill="white" stroke="white" stroke-width="0.5"/>
<path d="M30.9668 33.5347H35.4828V34.8248H30.9668V33.5347Z" fill="white" stroke="white" stroke-width="0.5"/>
<path d="M36.7754 33.5347H45.8074V34.8248H36.7754V33.5347Z" fill="white" stroke="white" stroke-width="0.5"/>
<path d="M43.2246 30.9541H49.6763V32.2442H43.2246V30.9541Z" fill="white" stroke="white" stroke-width="0.5"/>
<path d="M29.2225 36.3042L27.5837 37.9429C26.1986 37.0259 24.3436 37.3073 23.2923 38.5938C22.2412 39.8804 22.3355 41.7541 23.5102 42.9289C24.6846 44.1035 26.5587 44.1978 27.8452 43.1465C29.1316 42.0953 29.4131 40.2406 28.4959 38.8553L30.1345 37.2166L29.2225 36.3042ZM25.8074 42.5668C24.7387 42.5668 23.8721 41.7002 23.8721 40.6313C23.8721 39.5623 24.7387 38.6957 25.8074 38.6957C26.0952 38.6968 26.3784 38.763 26.6366 38.8893L25.3515 40.1748L26.2636 41.0869L27.5496 39.8023C27.6759 40.0605 27.742 40.3437 27.743 40.6313C27.743 41.7002 26.8768 42.5668 25.8074 42.5668Z" fill="white" stroke="white" stroke-width="0.5"/>
<path d="M30.9668 38.6956H41.9343V39.986H30.9668V38.6956Z" fill="white" stroke="white" stroke-width="0.5"/>
<path d="M30.9668 41.2766H35.4828V42.5669H30.9668V41.2766Z" fill="white" stroke="white" stroke-width="0.5"/>
<path d="M36.7754 41.2766H41.9364V42.5669H36.7754V41.2766Z" fill="white" stroke="white" stroke-width="0.5"/>
<path d="M43.2246 38.6956H45.8052V39.986H43.2246V38.6956Z" fill="white" stroke="white" stroke-width="0.5"/>
<path d="M29.2225 44.0461L27.5837 45.6849C26.1986 44.7678 24.3436 45.0492 23.2923 46.3358C22.2412 47.6223 22.3355 49.496 23.5102 50.6709C24.6846 51.8457 26.5587 51.9396 27.8452 50.8885C29.1316 49.8372 29.4131 47.9825 28.4959 46.5971L30.1345 44.9585L29.2225 44.0461ZM25.8074 50.3088C24.7387 50.3088 23.8721 49.4422 23.8721 48.3733C23.8721 47.3042 24.7387 46.4378 25.8074 46.4378C26.0952 46.4388 26.3784 46.5048 26.6366 46.6312L25.3515 47.9168L26.2636 48.8288L27.5496 47.5442C27.6759 47.8025 27.742 48.0858 27.743 48.3733C27.743 49.4422 26.8768 50.3088 25.8074 50.3088Z" fill="white" stroke="white" stroke-width="0.5"/>
<path d="M30.9668 46.4377H39.3538V47.7283H30.9668V46.4377Z" fill="white" stroke="white" stroke-width="0.5"/>
<path d="M30.9668 49.0183H35.4828V50.3086H30.9668V49.0183Z" fill="white" stroke="white" stroke-width="0.5"/>
<path d="M36.7754 49.0183H39.3559V50.3086H36.7754V49.0183Z" fill="white" stroke="white" stroke-width="0.5"/>
<path d="M50.3221 59.3415C55.667 59.3415 59.9993 55.0083 59.9993 49.6639C59.9993 44.319 55.667 39.9863 50.3221 39.9863C44.9772 39.9863 40.6445 44.319 40.6445 49.6639C40.6508 55.0059 44.9797 59.335 50.3221 59.3415ZM50.3221 41.2768C54.9539 41.2768 58.7092 45.0318 58.7092 49.6639C58.7092 54.296 54.9539 58.0509 50.3221 58.0509C45.6898 58.0509 41.9346 54.296 41.9346 49.6639C41.9401 45.034 45.6919 41.2819 50.3221 41.2768Z" fill="white" stroke="white" stroke-width="0.5"/>
<path d="M46.3873 50.0201L45.2324 50.5967L46.5229 53.1774C46.6154 53.363 46.7919 53.4929 46.9968 53.526C47.0301 53.5312 47.0634 53.534 47.0969 53.5345C47.2678 53.5345 47.432 53.4664 47.5533 53.3454L55.2949 45.6035L54.3828 44.6912L47.2735 51.8001L46.3873 50.0201Z" fill="white" stroke="white" stroke-width="0.5"/>
</g>
<defs>
<clipPath id="clip0">
<rect width="40" height="40" fill="white" transform="translate(20 20)"/>
</clipPath>
</defs>
</svg>
