<svg width="80" height="80" viewBox="0 0 80 80" fill="none" xmlns="http://www.w3.org/2000/svg">
<circle cx="40" cy="40" r="40" fill="#2154D1"/>
<path d="M46.6665 28.9321C46.7383 28.9322 46.8095 28.9181 46.8758 28.8906C46.9422 28.8631 47.0025 28.8228 47.0533 28.772C47.1041 28.7213 47.1444 28.661 47.1718 28.5946C47.1993 28.5282 47.2134 28.4571 47.2134 28.3853V25.1821C47.2134 25.0371 47.1558 24.898 47.0532 24.7954C46.9506 24.6929 46.8115 24.6353 46.6665 24.6353C46.5215 24.6353 46.3824 24.6929 46.2798 24.7954C46.1772 24.898 46.1196 25.0371 46.1196 25.1821V28.3853C46.1196 28.4571 46.1337 28.5282 46.1612 28.5946C46.1886 28.661 46.2289 28.7213 46.2797 28.772C46.3305 28.8228 46.3908 28.8631 46.4572 28.8906C46.5235 28.9181 46.5947 28.9322 46.6665 28.9321V28.9321Z" fill="white"/>
<path d="M56.0938 33.2344H52.9875V25.625C52.9874 25.48 52.9298 25.3409 52.8272 25.2384C52.7247 25.1359 52.5856 25.0782 52.4406 25.0781H49.0875V22.0312C49.0875 21.8862 49.0299 21.7471 48.9273 21.6446C48.8248 21.542 48.6857 21.4844 48.5406 21.4844H31.4594C31.3143 21.4844 31.1752 21.542 31.0727 21.6446C30.9701 21.7471 30.9125 21.8862 30.9125 22.0312V25.0781H27.5594C27.4144 25.0782 27.2753 25.1359 27.1728 25.2384C27.0702 25.3409 27.0126 25.48 27.0125 25.625V33.2344H23.9062C23.2642 33.2351 22.6486 33.4905 22.1945 33.9445C21.7405 34.3986 21.4851 35.0142 21.4844 35.6562V50.5656C21.4851 51.2077 21.7405 51.8233 22.1945 52.2773C22.6486 52.7314 23.2642 52.9868 23.9062 52.9875H30.9116V57.9688C30.9116 58.1138 30.9692 58.2529 31.0717 58.3554C31.1743 58.458 31.3134 58.5156 31.4584 58.5156H48.5416C48.6866 58.5156 48.8257 58.458 48.9283 58.3554C49.0308 58.2529 49.0884 58.1138 49.0884 57.9688V52.9875H56.0938C56.7358 52.9868 57.3514 52.7314 57.8055 52.2773C58.2595 51.8233 58.5149 51.2077 58.5156 50.5656V35.6562C58.5149 35.0142 58.2595 34.3986 57.8055 33.9445C57.3514 33.4905 56.7358 33.2351 56.0938 33.2344ZM51.8937 26.1719V33.2344H49.0875V26.1719H51.8937ZM32.0062 22.5781H47.9938V33.2344H32.0062V22.5781ZM28.1063 26.1719H30.9125V33.2344H28.1063V26.1719ZM28.1063 51.8937V46.3281H30.9116V51.8937H28.1063ZM32.0053 57.4219V46.3281H47.9947C47.9947 46.3281 47.9947 52.4375 47.9947 52.4406C47.9947 52.4437 47.9947 57.4219 47.9947 57.4219H32.0053ZM49.0884 51.8937V46.3281H51.8937V51.8937H49.0884ZM57.4219 50.5656C57.4215 50.9177 57.2814 51.2553 57.0324 51.5043C56.7834 51.7533 56.4459 51.8933 56.0938 51.8937H52.9875V45.7812C52.9874 45.6362 52.9298 45.4972 52.8272 45.3946C52.7247 45.2921 52.5856 45.2345 52.4406 45.2344H27.5594C27.4144 45.2345 27.2753 45.2921 27.1728 45.3946C27.0702 45.4972 27.0126 45.6362 27.0125 45.7812V51.8937H23.9062C23.5541 51.8933 23.2166 51.7533 22.9676 51.5043C22.7186 51.2553 22.5785 50.9177 22.5781 50.5656V35.6562C22.5785 35.3041 22.7186 34.9666 22.9676 34.7176C23.2166 34.4686 23.5541 34.3285 23.9062 34.3281H56.0938C56.4459 34.3285 56.7834 34.4686 57.0324 34.7176C57.2814 34.9666 57.4215 35.3041 57.4219 35.6562V50.5656Z" fill="white"/>
<path d="M32.6041 36.9832H24.8438C24.6987 36.9832 24.5596 37.0408 24.4571 37.1433C24.3545 37.2459 24.2969 37.385 24.2969 37.53C24.2969 37.6751 24.3545 37.8142 24.4571 37.9167C24.5596 38.0193 24.6987 38.0769 24.8438 38.0769H32.6041C32.7491 38.0769 32.8882 38.0193 32.9908 37.9167C33.0933 37.8142 33.1509 37.6751 33.1509 37.53C33.1509 37.385 33.0933 37.2459 32.9908 37.1433C32.8882 37.0408 32.7491 36.9832 32.6041 36.9832Z" fill="white"/>
<path d="M44.6875 47.8906H35.3125C35.1675 47.8906 35.0284 47.9482 34.9258 48.0508C34.8232 48.1534 34.7656 48.2925 34.7656 48.4375C34.7656 48.5825 34.8232 48.7216 34.9258 48.8242C35.0284 48.9268 35.1675 48.9844 35.3125 48.9844H44.6875C44.8325 48.9844 44.9716 48.9268 45.0742 48.8242C45.1768 48.7216 45.2344 48.5825 45.2344 48.4375C45.2344 48.2925 45.1768 48.1534 45.0742 48.0508C44.9716 47.9482 44.8325 47.8906 44.6875 47.8906V47.8906Z" fill="white"/>
<path d="M44.6875 50.7031H35.3125C35.1675 50.7031 35.0284 50.7607 34.9258 50.8633C34.8232 50.9659 34.7656 51.105 34.7656 51.25C34.7656 51.395 34.8232 51.5341 34.9258 51.6367C35.0284 51.7393 35.1675 51.7969 35.3125 51.7969H44.6875C44.8325 51.7969 44.9716 51.7393 45.0742 51.6367C45.1768 51.5341 45.2344 51.395 45.2344 51.25C45.2344 51.105 45.1768 50.9659 45.0742 50.8633C44.9716 50.7607 44.8325 50.7031 44.6875 50.7031Z" fill="white"/>
<path d="M44.6875 53.5156H35.3125C35.1675 53.5156 35.0284 53.5732 34.9258 53.6758C34.8232 53.7784 34.7656 53.9175 34.7656 54.0625C34.7656 54.2075 34.8232 54.3466 34.9258 54.4492C35.0284 54.5518 35.1675 54.6094 35.3125 54.6094H44.6875C44.8325 54.6094 44.9716 54.5518 45.0742 54.4492C45.1768 54.3466 45.2344 54.2075 45.2344 54.0625C45.2344 53.9175 45.1768 53.7784 45.0742 53.6758C44.9716 53.5732 44.8325 53.5156 44.6875 53.5156V53.5156Z" fill="white"/>
<path d="M54.2188 36.0457C53.9252 36.0457 53.6382 36.1327 53.3941 36.2958C53.15 36.4589 52.9597 36.6908 52.8474 36.962C52.735 37.2332 52.7056 37.5317 52.7629 37.8196C52.8202 38.1076 52.9615 38.3721 53.1691 38.5796C53.3767 38.7872 53.6412 38.9286 53.9292 38.9859C54.2171 39.0432 54.5156 39.0138 54.7868 38.9014C55.058 38.7891 55.2899 38.5988 55.453 38.3547C55.6161 38.1106 55.7031 37.8236 55.7031 37.53C55.7026 37.1365 55.5461 36.7592 55.2678 36.481C54.9896 36.2027 54.6123 36.0462 54.2188 36.0457V36.0457ZM54.2188 37.9207C54.1415 37.9207 54.066 37.8977 54.0017 37.8548C53.9375 37.8119 53.8874 37.7509 53.8579 37.6795C53.8283 37.6081 53.8206 37.5296 53.8356 37.4538C53.8507 37.3781 53.8879 37.3084 53.9425 37.2538C53.9972 37.1992 54.0668 37.162 54.1425 37.1469C54.2183 37.1318 54.2969 37.1396 54.3682 37.1691C54.4396 37.1987 54.5006 37.2488 54.5435 37.313C54.5865 37.3773 54.6094 37.4528 54.6094 37.53C54.6093 37.6336 54.5681 37.7329 54.4949 37.8062C54.4216 37.8794 54.3223 37.9206 54.2188 37.9207Z" fill="white"/>
<path d="M50.5078 36.0457C50.2142 36.0457 49.9272 36.1327 49.6831 36.2958C49.439 36.4589 49.2488 36.6908 49.1364 36.962C49.0241 37.2332 48.9947 37.5317 49.052 37.8196C49.1092 38.1076 49.2506 38.3721 49.4582 38.5796C49.6658 38.7872 49.9303 38.9286 50.2182 38.9859C50.5062 39.0432 50.8046 39.0138 51.0759 38.9014C51.3471 38.7891 51.5789 38.5988 51.742 38.3547C51.9051 38.1106 51.9922 37.8236 51.9922 37.53C51.9917 37.1365 51.8351 36.7592 51.5569 36.481C51.2786 36.2027 50.9013 36.0462 50.5078 36.0457V36.0457ZM50.5078 37.9207C50.4306 37.9207 50.355 37.8977 50.2908 37.8548C50.2266 37.8119 50.1765 37.7509 50.1469 37.6795C50.1174 37.6081 50.1096 37.5296 50.1247 37.4538C50.1398 37.3781 50.177 37.3084 50.2316 37.2538C50.2862 37.1992 50.3558 37.162 50.4316 37.1469C50.5074 37.1318 50.5859 37.1396 50.6573 37.1691C50.7287 37.1987 50.7897 37.2488 50.8326 37.313C50.8755 37.3773 50.8984 37.4528 50.8984 37.53C50.8984 37.6336 50.8572 37.7329 50.7839 37.8062C50.7107 37.8794 50.6114 37.9206 50.5078 37.9207Z" fill="white"/>
<path d="M46.7969 36.0457C46.5033 36.0457 46.2164 36.1327 45.9723 36.2957C45.7283 36.4588 45.538 36.6905 45.4256 36.9617C45.3132 37.2329 45.2838 37.5313 45.3409 37.8192C45.3981 38.1071 45.5394 38.3716 45.7468 38.5792C45.9543 38.7868 46.2187 38.9283 46.5065 38.9857C46.7944 39.0432 47.0928 39.0139 47.3641 38.9018C47.6353 38.7896 47.8672 38.5996 48.0305 38.3556C48.1937 38.1117 48.281 37.8248 48.2812 37.5313C48.2811 37.1375 48.1247 36.7599 47.8464 36.4814C47.5681 36.2029 47.1906 36.0462 46.7969 36.0457V36.0457ZM46.7969 37.9207C46.7196 37.9207 46.644 37.8977 46.5797 37.8547C46.5155 37.8118 46.4654 37.7507 46.4359 37.6792C46.4063 37.6078 46.3987 37.5292 46.4139 37.4534C46.429 37.3776 46.4664 37.308 46.5211 37.2534C46.5759 37.1988 46.6456 37.1617 46.7214 37.1468C46.7973 37.1318 46.8759 37.1397 46.9472 37.1695C47.0186 37.1993 47.0795 37.2495 47.1223 37.3139C47.165 37.3783 47.1877 37.454 47.1875 37.5313C47.1871 37.6346 47.1458 37.7336 47.0726 37.8066C46.9994 37.8796 46.9002 37.9206 46.7969 37.9207Z" fill="white"/>
</svg>
