<svg width="80" height="80" viewBox="0 0 80 80" fill="none" xmlns="http://www.w3.org/2000/svg">
<circle cx="40" cy="40" r="40" fill="#2154D1"/>
<g clip-path="url(#clip0)">
<path d="M50.0713 35.8707C50.2409 35.7093 50.3366 35.4858 50.3363 35.2525L50.3198 20.8494C50.3193 20.3794 49.938 19.9994 49.4684 20L30.3819 20.0218C30.156 20.0221 29.9393 20.112 29.7801 20.2725L20.2518 29.8458C20.0962 30.0002 19.9997 30.214 20 30.4506L20.0328 59.1505C20.0334 59.6207 20.4145 60.0004 20.8842 59.9999L39.9708 59.978C40.2594 59.9777 40.5139 59.8335 40.6674 59.6135L40.6676 59.6136L40.6712 59.6083C40.6733 59.6053 40.6754 59.6024 40.6775 59.5993L47.3371 50.0393C47.4366 49.8963 47.49 49.7269 47.4899 49.5525L47.4771 38.3316L50.0713 35.8707ZM21.7327 58.2983L21.7019 31.2991L39.0875 31.2792L39.1184 58.2784L21.7327 58.2983ZM46.0406 37.3493C45.8709 37.5106 45.7753 37.734 45.7756 37.9674L45.7886 49.2871L40.8172 56.4237L40.7875 30.4269C40.7869 29.9569 40.4057 29.577 39.9361 29.5776L22.8989 29.5969L30.7367 21.722L48.6199 21.7016L48.635 34.8882L46.0406 37.3493ZM36.0009 53.4986L36.0029 55.1993L32.6093 55.2033L32.6073 53.5025L36.0009 53.4986ZM28.2325 53.5075L28.2344 55.2082L24.8413 55.2122L24.8393 53.5114L28.2325 53.5075ZM35.2366 34.4193L25.56 34.4305C25.0904 34.4309 24.71 34.8118 24.7105 35.2817L24.7261 48.9059C24.7267 49.3758 25.1079 49.7558 25.5775 49.7553L35.2541 49.7442C35.7238 49.7437 36.1042 49.3628 36.1037 48.8927L36.0881 35.2686C36.0874 34.7988 35.7063 34.4189 35.2366 34.4193ZM26.426 48.0536L26.4124 36.1301L34.388 36.1211L34.4016 48.0446L26.426 48.0536ZM55.618 45.6361C55.3026 45.1581 54.5119 45.159 54.1977 45.6377C53.7508 46.3176 49.8343 52.351 49.8371 54.8755C49.8403 57.6833 52.1224 59.9643 54.9242 59.9611C57.7264 59.9579 60.0032 57.6717 60 54.864C59.9971 52.3393 56.0664 46.3149 55.618 45.6361ZM54.9222 58.2604C53.0584 58.2625 51.5402 56.743 51.538 54.8736C51.5366 53.5673 53.3876 50.1464 54.9101 47.6847C56.4386 50.1428 58.2975 53.5588 58.299 54.8659C58.3011 56.7352 56.7864 58.2582 54.9222 58.2604Z" fill="white" stroke="#2154D1" stroke-width="0.4"/>
</g>
<defs>
<clipPath id="clip0">
<rect width="40" height="40" fill="white" transform="translate(20 20)"/>
</clipPath>
</defs>
</svg>
