<svg width="80" height="80" viewBox="0 0 80 80" fill="none" xmlns="http://www.w3.org/2000/svg">
<circle cx="40" cy="40" r="40" fill="#2154D1"/>
<g clip-path="url(#clip0)">
<path d="M57.3187 37.3992C57.0119 27.7516 49.3636 20 40 20C30.6364 20 22.9881 27.7516 22.6813 37.3992C21.124 37.7116 20.0025 39.0783 20 40.6666V50C20.0022 51.8401 21.4933 53.3312 23.3334 53.3334C23.3372 56.6455 26.0213 59.3295 29.3334 59.3334H35.5187C35.755 59.7445 36.1925 59.9985 36.6666 60H42.6666C43.4027 59.9993 43.9992 59.4027 44 58.6666V56C43.9993 55.2639 43.4027 54.6674 42.6666 54.6666H36.6666C36.1924 54.6681 35.755 54.9222 35.5187 55.3333H29.3334C28.2293 55.3321 27.3345 54.4373 27.3334 53.3333H29.3334C30.0695 53.3326 30.6659 52.736 30.6667 51.9999V38.6666C30.666 37.9305 30.0695 37.3341 29.3334 37.3333H26.6988C27.0336 29.9241 32.8624 24 40 24C47.1376 24 52.9664 29.9241 53.3012 37.3334H50.6667C49.9306 37.3341 49.3341 37.9306 49.3334 38.6667V52C49.3341 52.7361 49.9306 53.3326 50.6667 53.3334H56.6667C58.5067 53.3312 59.9978 51.8401 60 50V40.6666C59.9975 39.0783 58.876 37.7116 57.3187 37.3992ZM36.6666 56H42.6666L42.6676 58.6666H36.6666V56V56ZM29.3334 56.6666H35.3334V58H29.3334C26.7573 57.9971 24.6696 55.9095 24.6667 53.3334H26C26.0022 55.1734 27.4933 56.6645 29.3334 56.6666ZM29.3334 38.6666L29.3343 52H23.3334C22.2293 51.9988 21.3345 51.1041 21.3334 50V40.6666C21.3345 39.5626 22.2293 38.6678 23.3334 38.6666H29.3334V38.6666ZM40 22.6666C32.1266 22.6666 25.6848 29.1869 25.3495 37.3333H24.0163C24.3538 28.4515 31.3924 21.3333 40 21.3333C48.6076 21.3333 55.6463 28.4515 55.9838 37.3333H54.6505C54.3152 29.187 47.8734 22.6666 40 22.6666ZM58.6666 50C58.6655 51.1041 57.7707 51.9988 56.6666 52H50.6666V38.6666H56.6666C57.7707 38.6678 58.6655 39.5626 58.6666 40.6666V50Z" fill="white" stroke="white" stroke-width="0.4"/>
<path d="M47.333 45.9999H45.9996V44.3333C45.9996 43.9651 45.7012 43.6666 45.333 43.6666C44.9647 43.6666 44.6663 43.9651 44.6663 44.3333V45.9999H41.8411L45.2354 40.343C45.358 40.1388 45.3622 39.8847 45.2467 39.6765C45.1312 39.4682 44.9133 39.3374 44.6751 39.3333C44.4369 39.3293 44.2147 39.4526 44.0921 39.6569L40.0921 46.3235C39.9685 46.5294 39.9653 46.7859 40.0836 46.995C40.2019 47.204 40.4235 47.3333 40.6636 47.3333H44.6662V49.3333C44.6662 49.7015 44.9647 49.9999 45.3329 49.9999C45.7011 49.9999 45.9995 49.7015 45.9995 49.3333V47.3333H47.3329C47.7011 47.3333 47.9995 47.0348 47.9995 46.6666C47.9995 46.2984 47.7012 45.9999 47.333 45.9999Z" fill="white" stroke="white" stroke-width="0.4"/>
<path d="M32.3679 48.7374C32.0917 48.8759 31.9469 49.186 32.0179 49.4867C32.0889 49.7874 32.3574 49.9999 32.6664 50H38.6664C39.0346 50 39.333 49.7016 39.333 49.3334C39.333 48.9652 39.0346 48.6667 38.6664 48.6667H34.9567C36.6026 47.4304 38.6664 45.3464 38.6664 42.6667C38.6664 41.2804 37.8083 40.0388 36.5115 39.5487C35.2147 39.0585 33.75 39.4222 32.833 40.462C32.5894 40.7381 32.6158 41.1595 32.8919 41.4031C33.1681 41.6467 33.5894 41.6203 33.833 41.3442C34.3831 40.7202 35.262 40.5018 36.0401 40.7959C36.8182 41.0899 37.3331 41.8349 37.333 42.6667C37.3331 46.2031 32.4174 48.7123 32.3679 48.7374Z" fill="white" stroke="white" stroke-width="0.4"/>
</g>
<defs>
<clipPath id="clip0">
<rect width="40" height="40" fill="white" transform="translate(20 20)"/>
</clipPath>
</defs>
</svg>
