<svg width="80" height="80" viewBox="0 0 80 80" fill="none" xmlns="http://www.w3.org/2000/svg">
<circle cx="40" cy="40" r="40" fill="#2154D1"/>
<path d="M39.375 21.15H39.275V21.25V23.75V23.85H39.375H40.625H40.725V23.75V21.25V21.15H40.625H39.375Z" fill="white" stroke="white" stroke-width="0.2"/>
<path d="M27.9957 26.3812L27.925 26.4519L27.9957 26.5226L29.7632 28.2901L29.8339 28.3608L29.9046 28.2901L30.7884 27.4064L30.8591 27.3357L30.7884 27.2649L29.0209 25.4974L28.9502 25.4267L28.8794 25.4974L27.9957 26.3812Z" fill="white" stroke="white" stroke-width="0.2"/>
<path d="M23.75 36.775H23.65V36.875V38.125V38.225H23.75H26.25H26.35V38.125V36.875V36.775H26.25H23.75Z" fill="white" stroke="white" stroke-width="0.2"/>
<path d="M27.9937 48.4754L27.923 48.5461L27.9937 48.6169L28.8775 49.5006L28.9482 49.5713L29.0189 49.5006L30.7864 47.7331L30.8571 47.6624L30.7864 47.5917L29.9027 46.7079L29.832 46.6372L29.7612 46.7079L27.9937 48.4754Z" fill="white" stroke="white" stroke-width="0.2"/>
<path d="M49.2037 47.5948L49.133 47.6655L49.2037 47.7362L50.9712 49.5037L51.0419 49.5744L51.1126 49.5037L51.9964 48.62L52.0671 48.5493L51.9964 48.4786L50.2289 46.7111L50.1582 46.6404L50.0875 46.7111L49.2037 47.5948Z" fill="white" stroke="white" stroke-width="0.2"/>
<path d="M53.75 36.775H53.65V36.875V38.125V38.225H53.75H56.25H56.35V38.125V36.875V36.775H56.25H53.75Z" fill="white" stroke="white" stroke-width="0.2"/>
<path d="M49.2057 27.266L49.1349 27.3367L49.2057 27.4074L50.0894 28.2911L50.1601 28.3618L50.2308 28.2911L51.9983 26.5236L52.069 26.4529L51.9983 26.3822L51.1146 25.4985L51.0439 25.4277L50.9732 25.4985L49.2057 27.266Z" fill="white" stroke="white" stroke-width="0.2"/>
<mask id="path-9-outside-1" maskUnits="userSpaceOnUse" x="27.751" y="25.3228" width="24" height="34" fill="black">
<rect fill="white" x="27.751" y="25.3228" width="24" height="34"/>
<path d="M38.6777 26.327C36.2123 26.6195 33.9128 27.7191 32.1375 29.4547C30.3621 31.1902 29.2106 33.4641 28.8623 35.9222C28.514 38.3804 28.9884 40.8847 30.2116 43.0452C31.4349 45.2056 33.3383 46.9008 35.6254 47.8667V55.625C35.6264 56.4535 35.9559 57.2478 36.5418 57.8336C37.1276 58.4195 37.9219 58.749 38.7504 58.75H41.2504C42.0789 58.749 42.8733 58.4195 43.4591 57.8336C44.045 57.2478 44.3745 56.4535 44.3754 55.625V46.875C44.3754 46.7092 44.3096 46.5502 44.1924 46.433C44.0752 46.3158 43.9162 46.25 43.7504 46.25H43.1254V44.1676L44.0143 43.7993L45.9287 45.7139C46.046 45.831 46.2049 45.8969 46.3707 45.8969C46.5364 45.8969 46.6954 45.831 46.8126 45.7139L49.4643 43.0622C49.5223 43.0041 49.5684 42.9352 49.5998 42.8594C49.6312 42.7836 49.6474 42.7023 49.6474 42.6202C49.6474 42.5381 49.6312 42.4568 49.5998 42.381C49.5684 42.3052 49.5223 42.2363 49.4643 42.1782L47.5499 40.2639L47.9181 39.375H50.6254C50.7912 39.375 50.9502 39.3091 51.0674 39.1919C51.1846 39.0747 51.2504 38.9157 51.2504 38.75V35C51.2504 34.8342 51.1846 34.6752 51.0674 34.558C50.9502 34.4408 50.7912 34.375 50.6254 34.375H47.9181L47.5499 33.4861L49.4643 31.5717C49.5223 31.5137 49.5684 31.4448 49.5998 31.3689C49.6312 31.2931 49.6474 31.2118 49.6474 31.1297C49.6474 31.0476 49.6312 30.9664 49.5998 30.8905C49.5684 30.8147 49.5223 30.7458 49.4643 30.6878L46.8126 28.0361C46.6954 27.9189 46.5364 27.8531 46.3707 27.8531C46.2049 27.8531 46.046 27.9189 45.9287 28.0361L44.0143 29.9505L43.1254 29.5823V26.9478C43.1254 26.782 43.0596 26.623 42.9424 26.5058C42.8252 26.3886 42.6662 26.3228 42.5004 26.3228H38.7504C38.7261 26.3228 38.7018 26.3242 38.6777 26.327ZM36.8754 47.4434C36.8754 47.3164 36.8367 47.1924 36.7645 47.088C36.6923 46.9835 36.5899 46.9035 36.4711 46.8586C34.4319 46.089 32.6999 44.6744 31.5386 42.8299C30.3773 40.9855 29.8502 38.8122 30.0374 36.6407C30.2247 34.4692 31.1161 32.4183 32.5761 30.7999C34.036 29.1815 35.9846 28.0843 38.1254 27.6751V43.125C38.1267 44.2849 38.5881 45.3969 39.4083 46.2171C40.2285 47.0373 41.3405 47.4987 42.5004 47.5H43.1254V50H36.8754V47.4434ZM43.1254 53.75V55H36.8754V53.75H38.1254V52.5H36.8754V51.25H43.1254V52.5H40.0004V53.75H43.1254ZM41.2504 57.5H38.7504C38.3628 57.4995 37.9849 57.3791 37.6685 57.1553C37.352 56.9315 37.1126 56.6152 36.9829 56.25H43.0179C42.8883 56.6152 42.6489 56.9315 42.3324 57.1553C42.016 57.3791 41.638 57.4995 41.2504 57.5ZM39.3754 34.7093C39.7555 34.4901 40.1865 34.3749 40.6253 34.375C41.064 34.3752 41.4949 34.4909 41.8748 34.7103C42.2547 34.9298 42.5701 35.2454 42.7894 35.6253C43.0087 36.0053 43.1242 36.4363 43.1242 36.875C43.1242 37.3137 43.0087 37.7447 42.7894 38.1247C42.5701 38.5047 42.2547 38.8202 41.8748 39.0397C41.4949 39.2592 41.064 39.3748 40.6253 39.375C40.1865 39.3752 39.7555 39.2599 39.3754 39.0407V34.7093ZM39.3754 40.4123C39.9409 40.6114 40.5459 40.672 41.1397 40.5891C41.7334 40.5061 42.2986 40.282 42.7879 39.9356C43.2772 39.5891 43.6763 39.1304 43.9517 38.5979C44.2271 38.0654 44.3709 37.4746 44.3709 36.8751C44.3709 36.2756 44.2271 35.6848 43.9517 35.1523C43.6763 34.6198 43.2772 34.161 42.7879 33.8146C42.2986 33.4681 41.7334 33.244 41.1397 33.1611C40.5459 33.0781 39.9409 33.1387 39.3754 33.3378V27.5727H41.8754V30C41.8754 30.1236 41.9121 30.2444 41.9808 30.3472C42.0494 30.45 42.147 30.5301 42.2613 30.5774L43.9218 31.2652C44.036 31.3125 44.1617 31.3249 44.2829 31.3008C44.4041 31.2767 44.5155 31.2171 44.6029 31.1297L46.3707 29.3619L48.1385 31.1297L46.3707 32.8975C46.2833 32.9849 46.2238 33.0962 46.1997 33.2175C46.1755 33.3387 46.1879 33.4644 46.2352 33.5786L46.923 35.2392C46.9703 35.3534 47.0504 35.451 47.1532 35.5196C47.256 35.5883 47.3768 35.625 47.5004 35.625H50.0004V38.125H47.5004C47.3768 38.125 47.256 38.1616 47.1532 38.2303C47.0504 38.299 46.9703 38.3966 46.923 38.5108L46.2352 40.1713C46.1879 40.2855 46.1755 40.4112 46.1997 40.5325C46.2238 40.6537 46.2833 40.7651 46.3707 40.8525L48.1385 42.6202L46.3707 44.388L44.6029 42.6201C44.5155 42.5327 44.4041 42.4732 44.2829 42.4491C44.1617 42.425 44.036 42.4374 43.9218 42.4847L42.2613 43.1726C42.1471 43.2199 42.0494 43.3 41.9808 43.4028C41.9121 43.5055 41.8754 43.6264 41.8754 43.75V46.1872C41.1701 46.0421 40.5363 45.6584 40.081 45.1006C39.6256 44.5428 39.3764 43.8451 39.3754 43.125V40.4123Z"/>
</mask>
<path d="M38.6777 26.327C36.2123 26.6195 33.9128 27.7191 32.1375 29.4547C30.3621 31.1902 29.2106 33.4641 28.8623 35.9222C28.514 38.3804 28.9884 40.8847 30.2116 43.0452C31.4349 45.2056 33.3383 46.9008 35.6254 47.8667V55.625C35.6264 56.4535 35.9559 57.2478 36.5418 57.8336C37.1276 58.4195 37.9219 58.749 38.7504 58.75H41.2504C42.0789 58.749 42.8733 58.4195 43.4591 57.8336C44.045 57.2478 44.3745 56.4535 44.3754 55.625V46.875C44.3754 46.7092 44.3096 46.5502 44.1924 46.433C44.0752 46.3158 43.9162 46.25 43.7504 46.25H43.1254V44.1676L44.0143 43.7993L45.9287 45.7139C46.046 45.831 46.2049 45.8969 46.3707 45.8969C46.5364 45.8969 46.6954 45.831 46.8126 45.7139L49.4643 43.0622C49.5223 43.0041 49.5684 42.9352 49.5998 42.8594C49.6312 42.7836 49.6474 42.7023 49.6474 42.6202C49.6474 42.5381 49.6312 42.4568 49.5998 42.381C49.5684 42.3052 49.5223 42.2363 49.4643 42.1782L47.5499 40.2639L47.9181 39.375H50.6254C50.7912 39.375 50.9502 39.3091 51.0674 39.1919C51.1846 39.0747 51.2504 38.9157 51.2504 38.75V35C51.2504 34.8342 51.1846 34.6752 51.0674 34.558C50.9502 34.4408 50.7912 34.375 50.6254 34.375H47.9181L47.5499 33.4861L49.4643 31.5717C49.5223 31.5137 49.5684 31.4448 49.5998 31.3689C49.6312 31.2931 49.6474 31.2118 49.6474 31.1297C49.6474 31.0476 49.6312 30.9664 49.5998 30.8905C49.5684 30.8147 49.5223 30.7458 49.4643 30.6878L46.8126 28.0361C46.6954 27.9189 46.5364 27.8531 46.3707 27.8531C46.2049 27.8531 46.046 27.9189 45.9287 28.0361L44.0143 29.9505L43.1254 29.5823V26.9478C43.1254 26.782 43.0596 26.623 42.9424 26.5058C42.8252 26.3886 42.6662 26.3228 42.5004 26.3228H38.7504C38.7261 26.3228 38.7018 26.3242 38.6777 26.327ZM36.8754 47.4434C36.8754 47.3164 36.8367 47.1924 36.7645 47.088C36.6923 46.9835 36.5899 46.9035 36.4711 46.8586C34.4319 46.089 32.6999 44.6744 31.5386 42.8299C30.3773 40.9855 29.8502 38.8122 30.0374 36.6407C30.2247 34.4692 31.1161 32.4183 32.5761 30.7999C34.036 29.1815 35.9846 28.0843 38.1254 27.6751V43.125C38.1267 44.2849 38.5881 45.3969 39.4083 46.2171C40.2285 47.0373 41.3405 47.4987 42.5004 47.5H43.1254V50H36.8754V47.4434ZM43.1254 53.75V55H36.8754V53.75H38.1254V52.5H36.8754V51.25H43.1254V52.5H40.0004V53.75H43.1254ZM41.2504 57.5H38.7504C38.3628 57.4995 37.9849 57.3791 37.6685 57.1553C37.352 56.9315 37.1126 56.6152 36.9829 56.25H43.0179C42.8883 56.6152 42.6489 56.9315 42.3324 57.1553C42.016 57.3791 41.638 57.4995 41.2504 57.5ZM39.3754 34.7093C39.7555 34.4901 40.1865 34.3749 40.6253 34.375C41.064 34.3752 41.4949 34.4909 41.8748 34.7103C42.2547 34.9298 42.5701 35.2454 42.7894 35.6253C43.0087 36.0053 43.1242 36.4363 43.1242 36.875C43.1242 37.3137 43.0087 37.7447 42.7894 38.1247C42.5701 38.5047 42.2547 38.8202 41.8748 39.0397C41.4949 39.2592 41.064 39.3748 40.6253 39.375C40.1865 39.3752 39.7555 39.2599 39.3754 39.0407V34.7093ZM39.3754 40.4123C39.9409 40.6114 40.5459 40.672 41.1397 40.5891C41.7334 40.5061 42.2986 40.282 42.7879 39.9356C43.2772 39.5891 43.6763 39.1304 43.9517 38.5979C44.2271 38.0654 44.3709 37.4746 44.3709 36.8751C44.3709 36.2756 44.2271 35.6848 43.9517 35.1523C43.6763 34.6198 43.2772 34.161 42.7879 33.8146C42.2986 33.4681 41.7334 33.244 41.1397 33.1611C40.5459 33.0781 39.9409 33.1387 39.3754 33.3378V27.5727H41.8754V30C41.8754 30.1236 41.9121 30.2444 41.9808 30.3472C42.0494 30.45 42.147 30.5301 42.2613 30.5774L43.9218 31.2652C44.036 31.3125 44.1617 31.3249 44.2829 31.3008C44.4041 31.2767 44.5155 31.2171 44.6029 31.1297L46.3707 29.3619L48.1385 31.1297L46.3707 32.8975C46.2833 32.9849 46.2238 33.0962 46.1997 33.2175C46.1755 33.3387 46.1879 33.4644 46.2352 33.5786L46.923 35.2392C46.9703 35.3534 47.0504 35.451 47.1532 35.5196C47.256 35.5883 47.3768 35.625 47.5004 35.625H50.0004V38.125H47.5004C47.3768 38.125 47.256 38.1616 47.1532 38.2303C47.0504 38.299 46.9703 38.3966 46.923 38.5108L46.2352 40.1713C46.1879 40.2855 46.1755 40.4112 46.1997 40.5325C46.2238 40.6537 46.2833 40.7651 46.3707 40.8525L48.1385 42.6202L46.3707 44.388L44.6029 42.6201C44.5155 42.5327 44.4041 42.4732 44.2829 42.4491C44.1617 42.425 44.036 42.4374 43.9218 42.4847L42.2613 43.1726C42.1471 43.2199 42.0494 43.3 41.9808 43.4028C41.9121 43.5055 41.8754 43.6264 41.8754 43.75V46.1872C41.1701 46.0421 40.5363 45.6584 40.081 45.1006C39.6256 44.5428 39.3764 43.8451 39.3754 43.125V40.4123Z" fill="white"/>
<path d="M38.6777 26.327C36.2123 26.6195 33.9128 27.7191 32.1375 29.4547C30.3621 31.1902 29.2106 33.4641 28.8623 35.9222C28.514 38.3804 28.9884 40.8847 30.2116 43.0452C31.4349 45.2056 33.3383 46.9008 35.6254 47.8667V55.625C35.6264 56.4535 35.9559 57.2478 36.5418 57.8336C37.1276 58.4195 37.9219 58.749 38.7504 58.75H41.2504C42.0789 58.749 42.8733 58.4195 43.4591 57.8336C44.045 57.2478 44.3745 56.4535 44.3754 55.625V46.875C44.3754 46.7092 44.3096 46.5502 44.1924 46.433C44.0752 46.3158 43.9162 46.25 43.7504 46.25H43.1254V44.1676L44.0143 43.7993L45.9287 45.7139C46.046 45.831 46.2049 45.8969 46.3707 45.8969C46.5364 45.8969 46.6954 45.831 46.8126 45.7139L49.4643 43.0622C49.5223 43.0041 49.5684 42.9352 49.5998 42.8594C49.6312 42.7836 49.6474 42.7023 49.6474 42.6202C49.6474 42.5381 49.6312 42.4568 49.5998 42.381C49.5684 42.3052 49.5223 42.2363 49.4643 42.1782L47.5499 40.2639L47.9181 39.375H50.6254C50.7912 39.375 50.9502 39.3091 51.0674 39.1919C51.1846 39.0747 51.2504 38.9157 51.2504 38.75V35C51.2504 34.8342 51.1846 34.6752 51.0674 34.558C50.9502 34.4408 50.7912 34.375 50.6254 34.375H47.9181L47.5499 33.4861L49.4643 31.5717C49.5223 31.5137 49.5684 31.4448 49.5998 31.3689C49.6312 31.2931 49.6474 31.2118 49.6474 31.1297C49.6474 31.0476 49.6312 30.9664 49.5998 30.8905C49.5684 30.8147 49.5223 30.7458 49.4643 30.6878L46.8126 28.0361C46.6954 27.9189 46.5364 27.8531 46.3707 27.8531C46.2049 27.8531 46.046 27.9189 45.9287 28.0361L44.0143 29.9505L43.1254 29.5823V26.9478C43.1254 26.782 43.0596 26.623 42.9424 26.5058C42.8252 26.3886 42.6662 26.3228 42.5004 26.3228H38.7504C38.7261 26.3228 38.7018 26.3242 38.6777 26.327ZM36.8754 47.4434C36.8754 47.3164 36.8367 47.1924 36.7645 47.088C36.6923 46.9835 36.5899 46.9035 36.4711 46.8586C34.4319 46.089 32.6999 44.6744 31.5386 42.8299C30.3773 40.9855 29.8502 38.8122 30.0374 36.6407C30.2247 34.4692 31.1161 32.4183 32.5761 30.7999C34.036 29.1815 35.9846 28.0843 38.1254 27.6751V43.125C38.1267 44.2849 38.5881 45.3969 39.4083 46.2171C40.2285 47.0373 41.3405 47.4987 42.5004 47.5H43.1254V50H36.8754V47.4434ZM43.1254 53.75V55H36.8754V53.75H38.1254V52.5H36.8754V51.25H43.1254V52.5H40.0004V53.75H43.1254ZM41.2504 57.5H38.7504C38.3628 57.4995 37.9849 57.3791 37.6685 57.1553C37.352 56.9315 37.1126 56.6152 36.9829 56.25H43.0179C42.8883 56.6152 42.6489 56.9315 42.3324 57.1553C42.016 57.3791 41.638 57.4995 41.2504 57.5ZM39.3754 34.7093C39.7555 34.4901 40.1865 34.3749 40.6253 34.375C41.064 34.3752 41.4949 34.4909 41.8748 34.7103C42.2547 34.9298 42.5701 35.2454 42.7894 35.6253C43.0087 36.0053 43.1242 36.4363 43.1242 36.875C43.1242 37.3137 43.0087 37.7447 42.7894 38.1247C42.5701 38.5047 42.2547 38.8202 41.8748 39.0397C41.4949 39.2592 41.064 39.3748 40.6253 39.375C40.1865 39.3752 39.7555 39.2599 39.3754 39.0407V34.7093ZM39.3754 40.4123C39.9409 40.6114 40.5459 40.672 41.1397 40.5891C41.7334 40.5061 42.2986 40.282 42.7879 39.9356C43.2772 39.5891 43.6763 39.1304 43.9517 38.5979C44.2271 38.0654 44.3709 37.4746 44.3709 36.8751C44.3709 36.2756 44.2271 35.6848 43.9517 35.1523C43.6763 34.6198 43.2772 34.161 42.7879 33.8146C42.2986 33.4681 41.7334 33.244 41.1397 33.1611C40.5459 33.0781 39.9409 33.1387 39.3754 33.3378V27.5727H41.8754V30C41.8754 30.1236 41.9121 30.2444 41.9808 30.3472C42.0494 30.45 42.147 30.5301 42.2613 30.5774L43.9218 31.2652C44.036 31.3125 44.1617 31.3249 44.2829 31.3008C44.4041 31.2767 44.5155 31.2171 44.6029 31.1297L46.3707 29.3619L48.1385 31.1297L46.3707 32.8975C46.2833 32.9849 46.2238 33.0962 46.1997 33.2175C46.1755 33.3387 46.1879 33.4644 46.2352 33.5786L46.923 35.2392C46.9703 35.3534 47.0504 35.451 47.1532 35.5196C47.256 35.5883 47.3768 35.625 47.5004 35.625H50.0004V38.125H47.5004C47.3768 38.125 47.256 38.1616 47.1532 38.2303C47.0504 38.299 46.9703 38.3966 46.923 38.5108L46.2352 40.1713C46.1879 40.2855 46.1755 40.4112 46.1997 40.5325C46.2238 40.6537 46.2833 40.7651 46.3707 40.8525L48.1385 42.6202L46.3707 44.388L44.6029 42.6201C44.5155 42.5327 44.4041 42.4732 44.2829 42.4491C44.1617 42.425 44.036 42.4374 43.9218 42.4847L42.2613 43.1726C42.1471 43.2199 42.0494 43.3 41.9808 43.4028C41.9121 43.5055 41.8754 43.6264 41.8754 43.75V46.1872C41.1701 46.0421 40.5363 45.6584 40.081 45.1006C39.6256 44.5428 39.3764 43.8451 39.3754 43.125V40.4123Z" stroke="white" stroke-width="0.4" mask="url(#path-9-outside-1)"/>
</svg>
