<svg width="80" height="80" viewBox="0 0 80 80" fill="none" xmlns="http://www.w3.org/2000/svg">
<circle cx="40" cy="40" r="40" fill="#2154D1"/>
<path d="M55 41.8125V40.5625C55.345 40.5625 55.625 40.2827 55.625 39.9375V36.1875C55.625 35.8423 55.345 35.5625 55 35.5625H51.625L51.5039 35.093C51.2275 34.0193 50.7983 32.9907 50.2288 32.0393L49.9788 31.6211L52.375 29.2207C52.6162 28.979 52.6162 28.5874 52.375 28.3457L49.7207 25.6875C49.4756 25.4539 49.0906 25.4539 48.8455 25.6875L46.4448 28.0881L46.0269 27.8381C45.074 27.2683 44.0444 26.8391 42.9692 26.5625L42.5 26.4404V23.0625C42.5 22.7173 42.2202 22.4375 41.875 22.4375H38.125C37.7798 22.4375 37.5 22.7173 37.5 23.0625V26.4375L37.0305 26.5588C35.9568 26.835 34.9282 27.2642 33.9763 27.833L33.5581 28.0833L31.1582 25.6875C30.9128 25.4519 30.5254 25.4519 30.28 25.6875L27.625 28.3418C27.5083 28.4583 27.4426 28.6165 27.4426 28.7813C27.4426 28.9463 27.5083 29.1042 27.625 29.2207L30.0256 31.6211L29.7756 32.0393C29.2063 32.9907 28.7769 34.0193 28.5007 35.093L28.3782 35.5625H25C24.6548 35.5625 24.375 35.8423 24.375 36.1875V39.9375C24.375 40.2827 24.6548 40.5625 25 40.5625V41.8125C23.9646 41.8125 23.125 40.9729 23.125 39.9375V36.1875C23.125 35.1521 23.9646 34.3125 25 34.3125H27.4182C27.676 33.4482 28.0247 32.6138 28.4583 31.8232L26.7395 30.1045C26.3879 29.7537 26.1904 29.2776 26.1904 28.7813C26.1904 28.2849 26.3879 27.8088 26.7395 27.4583L29.3958 24.802C30.1357 24.0938 31.3025 24.0938 32.0425 24.802L33.7607 26.52C34.5513 26.0867 35.386 25.7388 36.25 25.4812V23.0625C36.25 22.0271 37.0896 21.1875 38.125 21.1875H41.875C42.9104 21.1875 43.75 22.0271 43.75 23.0625V25.4812C44.6143 25.7388 45.4485 26.0874 46.2393 26.5208L47.958 24.802C48.6982 24.0938 49.8647 24.0938 50.605 24.802L53.2607 27.4575C53.6121 27.8084 53.8093 28.2839 53.8093 28.7805C53.8093 29.2771 53.6121 29.7532 53.2607 30.1038L51.542 31.8225C51.9753 32.6135 52.3237 33.4482 52.5818 34.3125H55C56.0354 34.3125 56.875 35.1521 56.875 36.1875V39.9375C56.875 40.9729 56.0354 41.8125 55 41.8125Z" fill="white" stroke="white" stroke-width="0.4"/>
<path d="M48.75 38.0625H47.5C47.5 33.9204 44.1421 30.5625 40 30.5625C35.8579 30.5625 32.5 33.9204 32.5 38.0625H31.25C31.25 33.23 35.1675 29.3125 40 29.3125C44.8323 29.3125 48.75 33.23 48.75 38.0625Z" fill="white" stroke="white" stroke-width="0.4"/>
<path d="M40 43.0625C37.929 43.0625 36.25 41.3833 36.25 39.3125C36.25 37.2415 37.929 35.5625 40 35.5625C42.0713 35.5625 43.75 37.2415 43.75 39.3125C43.7478 41.3828 42.0703 43.0603 40 43.0625ZM40 36.8125C38.6194 36.8125 37.5 37.9319 37.5 39.3125C37.5 40.6931 38.6194 41.8125 40 41.8125C41.3806 41.8125 42.5 40.6931 42.5 39.3125C42.5 37.9319 41.3806 36.8125 40 36.8125Z" fill="white" stroke="white" stroke-width="0.4"/>
<path d="M50.625 45.5625C48.554 45.5625 46.875 43.8833 46.875 41.8125C46.875 39.7415 48.554 38.0625 50.625 38.0625C52.6961 38.0625 54.375 39.7415 54.375 41.8125C54.3728 43.8828 52.6953 45.5603 50.625 45.5625ZM50.625 39.3125C49.2444 39.3125 48.125 40.4319 48.125 41.8125C48.125 43.1931 49.2444 44.3125 50.625 44.3125C52.0056 44.3125 53.125 43.1931 53.125 41.8125C53.125 40.4319 52.0056 39.3125 50.625 39.3125Z" fill="white" stroke="white" stroke-width="0.4"/>
<path d="M29.375 45.5625C27.304 45.5625 25.625 43.8833 25.625 41.8125C25.625 39.7415 27.304 38.0625 29.375 38.0625C31.4463 38.0625 33.125 39.7415 33.125 41.8125C33.1228 43.8828 31.4453 45.5603 29.375 45.5625ZM29.375 39.3125C27.9944 39.3125 26.875 40.4319 26.875 41.8125C26.875 43.1931 27.9944 44.3125 29.375 44.3125C30.7556 44.3125 31.875 43.1931 31.875 41.8125C31.875 40.4319 30.7556 39.3125 29.375 39.3125Z" fill="white" stroke="white" stroke-width="0.4"/>
<path d="M56.291 47.1661C55.3596 46.5259 54.2554 46.1844 53.125 46.1875H48.125C47.821 46.1902 47.5176 46.2178 47.218 46.2698C46.8181 45.6443 46.2979 45.1048 45.6875 44.6817C45.596 44.6126 45.4998 44.5498 45.3994 44.4944C44.5251 43.9649 43.522 43.6861 42.5 43.6875H37.5C35.5886 43.6807 33.8076 44.656 32.7837 46.2698C32.4834 46.2178 32.1794 46.1902 31.875 46.1875H26.875C25.7456 46.1844 24.6416 46.5254 23.7107 47.1648C22.1721 48.2117 21.251 49.9517 21.25 51.8125V54.3125C21.2522 56.0191 22.2451 57.5689 23.7952 58.2837C24.3674 58.5533 24.9927 58.6912 25.625 58.6876H31.875V57.4376H26.25V50.5625H25V57.3748C24.7646 57.3277 24.5361 57.2515 24.3193 57.1487C23.2122 56.6382 22.5024 55.5315 22.5 54.3125V51.8125C22.5015 50.3643 23.219 49.0105 24.4163 48.1961C25.1396 47.6995 25.9973 47.4351 26.875 47.4375H31.875C31.9851 47.4375 32.0913 47.4493 32.1987 47.4566C31.9873 48.0528 31.8777 48.6802 31.875 49.3125V55.5626C31.8772 57.2877 33.2751 58.6854 35 58.6876H36.875V48.6875H35.625V57.4376H35C33.9646 57.4376 33.125 56.598 33.125 55.5626V49.3125C33.125 46.896 35.084 44.9375 37.5 44.9375H42.5C43.3042 44.938 44.0923 45.1607 44.7781 45.5806C44.8416 45.6153 44.9026 45.6543 44.9605 45.6973C45.5461 46.0984 46.0269 46.6343 46.3618 47.2598C46.6985 47.8916 46.875 48.5965 46.875 49.3125V55.5626C46.875 56.598 46.0354 57.4376 45 57.4376H44.375V48.6875H43.125V58.6876H45C46.7251 58.6854 48.1228 57.2877 48.125 55.5626V49.3125C48.1221 48.6802 48.0129 48.053 47.8018 47.4566C47.9094 47.4493 48.0156 47.4375 48.125 47.4375H53.125C54.0032 47.4351 54.8616 47.7002 55.5855 48.1973C56.7817 49.0122 57.4983 50.365 57.5 51.8125V54.3125C57.4978 55.5359 56.7827 56.6458 55.6702 57.1536C55.4565 57.2547 55.2314 57.3289 55 57.3748V50.5625H53.75V57.4376H48.125V58.6876H54.375C55.0037 58.6915 55.6252 58.5552 56.1943 58.2886C57.7495 57.576 58.7476 56.0232 58.75 54.3125V51.8125C58.749 49.9524 57.8286 48.2132 56.291 47.1661V47.1661Z" fill="white" stroke="white" stroke-width="0.4"/>
<path d="M37.5 57.4375H42.5V58.6875H37.5V57.4375Z" fill="white" stroke="white" stroke-width="0.4"/>
</svg>
