<svg width="80" height="80" viewBox="0 0 80 80" fill="none" xmlns="http://www.w3.org/2000/svg">
<circle cx="40" cy="40" r="40" fill="#2154D1"/>
<g clip-path="url(#clip0)">
<path d="M33.2588 49.5689L42.8195 40.0079L44.9537 39.4278C44.9628 39.4255 44.9722 39.4226 44.981 39.4197C45.5883 39.2254 46.0636 38.7482 46.2554 38.1401L47.382 34.449C47.4539 34.2133 47.3899 33.9572 47.2157 33.783L46.2163 32.7837C46.0422 32.6094 45.786 32.5454 45.5503 32.6174L41.8521 33.7463C41.2384 33.944 40.7602 34.4293 40.5715 35.0457L39.9914 37.1798L30.4303 46.7405L28.5448 44.8549C28.4198 44.7298 28.2502 44.6596 28.0734 44.6596C27.8967 44.6596 27.7271 44.7298 27.6021 44.8549L26.1881 46.269C26.0631 46.394 25.9927 46.5635 25.9927 46.7403V48.626C25.9928 48.8028 26.0631 48.9723 26.1881 49.0973L21.0204 54.265C19.7207 55.5675 19.7207 57.6764 21.0204 58.9789C22.3228 60.2788 24.4318 60.2788 25.7343 58.9789L30.902 53.8112C31.027 53.9362 31.1965 54.0065 31.3733 54.0065H33.259C33.4358 54.0065 33.6053 53.9362 33.7303 53.8112L35.1444 52.3972C35.2695 52.2722 35.3397 52.1026 35.3397 51.9258C35.3397 51.749 35.2695 51.5795 35.1444 51.4545L33.2588 49.5689ZM41.0594 37.9972C41.1417 37.9152 41.201 37.8129 41.2312 37.7006L41.8498 35.4227C41.9089 35.2312 42.0577 35.0806 42.2485 35.0193L45.5568 34.0095L45.9897 34.4425L44.9822 37.7436C44.9233 37.9334 44.7763 38.083 44.5877 38.1456L42.2987 38.768C42.1864 38.7983 42.0841 38.8576 42.0021 38.9399L32.3163 48.6261L31.3732 47.683L41.0594 37.9972ZM24.7915 58.0362C23.9999 58.7914 22.7546 58.7914 21.9631 58.0362C21.1822 57.255 21.1822 55.9889 21.9631 55.2078L27.1307 50.0401L29.9591 52.8686L24.7915 58.0362ZM32.9829 52.6733H31.6492L31.3732 52.3972L27.602 48.6261L27.326 48.3501V47.0164L28.0734 46.269L33.7303 51.9258L32.9829 52.6733Z" fill="white" stroke="white" stroke-width="0.4"/>
<path d="M59.889 37.8876C59.8622 37.6427 59.7026 37.4324 59.4739 37.3407L55.4176 35.7183C55.0688 34.467 54.5675 33.2632 53.9248 32.1343L55.6523 28.1096C55.75 27.8821 55.7135 27.6192 55.5576 27.427C55.138 26.9091 54.6634 26.3814 54.1413 25.8524C53.6182 25.3362 53.0905 24.8616 52.5726 24.442C52.3804 24.286 52.1175 24.2496 51.89 24.3473L47.8652 26.0747C46.7363 25.4321 45.5326 24.9307 44.2813 24.5819L42.6588 20.5256C42.5671 20.2969 42.3569 20.1373 42.112 20.1105C40.7076 19.9634 39.2917 19.9634 37.8874 20.1105C37.6424 20.1373 37.4322 20.2968 37.3405 20.5255L35.7181 24.5818C34.4667 24.9307 33.263 25.432 32.1341 26.0746L28.1093 24.3471C27.8819 24.2492 27.6189 24.2857 27.4268 24.4419C26.9089 24.8615 26.3812 25.3361 25.8522 25.8582C25.336 26.3814 24.8614 26.909 24.4418 27.4269C24.2858 27.6192 24.2493 27.8821 24.347 28.1096L26.0745 32.1343C25.4318 33.2633 24.9304 34.467 24.5817 35.7183L20.5254 37.3407C20.2968 37.4324 20.1372 37.6427 20.1104 37.8876C20.0354 38.5891 19.9985 39.2943 19.9997 39.9999C19.9997 40.3681 20.2982 40.6666 20.6664 40.6666H27.9996C28.3678 40.6666 28.6663 40.3681 28.6663 39.9999C28.6663 33.7407 33.7404 28.6666 39.9996 28.6666C46.2588 28.6666 51.333 33.7407 51.333 39.9999C51.333 46.2591 46.2589 51.3332 39.9996 51.3332C39.6314 51.3332 39.333 51.6316 39.333 51.9998V59.3332C39.333 59.7014 39.6314 59.9998 39.9996 59.9998C40.7052 60.0011 41.4103 59.9642 42.112 59.8891C42.3569 59.8623 42.5671 59.7028 42.6588 59.4741L44.2813 55.4178C45.5326 55.069 46.7363 54.5676 47.8652 53.925L51.89 55.6525C52.1176 55.7496 52.3801 55.7132 52.5726 55.5578C53.0905 55.1382 53.6182 54.6636 54.1475 54.1411C54.6651 53.6164 55.1397 53.0887 55.5576 52.5728C55.7136 52.3805 55.7501 52.1176 55.6523 51.8901L53.9248 47.8654C54.5675 46.7364 55.0689 45.5327 55.4176 44.2814L59.474 42.659C59.7026 42.5673 59.8622 42.357 59.889 42.1121C60.0365 40.7078 60.0365 39.2919 59.889 37.8876ZM58.6019 41.5718L54.6119 43.1678C54.4142 43.2469 54.2661 43.4158 54.2135 43.6223C53.8669 44.9784 53.3258 46.2773 52.607 47.4783C52.4976 47.6618 52.4827 47.8865 52.5669 48.0828L54.2662 52.0415C53.9406 52.4252 53.5836 52.8139 53.2043 53.1987C52.8163 53.5819 52.4263 53.9396 52.0412 54.2665L48.0825 52.5672C47.8862 52.4829 47.6615 52.4979 47.478 52.6073C46.2769 53.326 44.9781 53.8671 43.622 54.2138C43.4156 54.2665 43.2467 54.4145 43.1675 54.6122L41.5715 58.6022C41.2763 58.6272 40.9738 58.6448 40.6663 58.6552V52.6494C47.4794 52.2902 52.7841 46.5993 52.6643 39.7777C52.5445 32.9562 47.0434 27.455 40.2218 27.3353C33.4003 27.2155 27.7094 32.52 27.3503 39.3332H21.3444C21.3548 39.0255 21.3724 38.7232 21.3975 38.4279L25.3874 36.8319C25.5851 36.7527 25.7332 36.5838 25.7858 36.3774C26.1325 35.0213 26.6736 33.7224 27.3923 32.5213C27.5018 32.3379 27.5166 32.1131 27.4324 31.9168L25.7332 27.9581C26.0597 27.5734 26.4164 27.1844 26.795 26.8009C27.183 26.4178 27.573 26.06 27.9582 25.7332L31.9168 27.4324C32.1131 27.5168 32.3379 27.502 32.5214 27.3923C33.7225 26.6736 35.0214 26.1325 36.3774 25.7858C36.5838 25.7332 36.7528 25.5851 36.8319 25.3874L38.4279 21.3975C39.4742 21.3121 40.5256 21.3121 41.5718 21.3975L43.1678 25.3874C43.247 25.5851 43.4158 25.7332 43.6223 25.7858C44.9784 26.1324 46.2773 26.6735 47.4784 27.3923C47.6617 27.5019 47.8866 27.5167 48.0829 27.4324L52.0416 25.7332C52.4263 26.0596 52.8153 26.4164 53.1988 26.795C53.5819 27.183 53.9397 27.573 54.2666 27.9581L52.5673 31.9168C52.483 32.1131 52.498 32.3378 52.6074 32.5213C53.3261 33.7225 53.8672 35.0213 54.2139 36.3774C54.2665 36.5838 54.4146 36.7527 54.6123 36.8319L58.6022 38.4279C58.6449 38.9341 58.6668 39.4611 58.6668 39.9998C58.6663 40.5386 58.6445 41.0656 58.6019 41.5718Z" fill="white" stroke="white" stroke-width="0.4"/>
</g>
<defs>
<clipPath id="clip0">
<rect width="40" height="40" fill="white" transform="translate(20 20)"/>
</clipPath>
</defs>
</svg>
