<svg width="80" height="80" viewBox="0 0 80 80" fill="none" xmlns="http://www.w3.org/2000/svg">
<circle cx="40" cy="40" r="40" fill="#2154D1"/>
<g clip-path="url(#clip0)">
<mask id="path-2-outside-1" maskUnits="userSpaceOnUse" x="19" y="19" width="42" height="42" fill="black">
<rect fill="white" x="19" y="19" width="42" height="42"/>
<path d="M58 48H52V47.3333C52 46.2288 51.1046 45.3333 50 45.3333H40.6667V43.3333H50.832C55.2142 43.2701 58.7186 39.6723 58.6667 35.29C58.7127 31.5751 56.1854 28.3213 52.5747 27.4467C51.7456 23.1734 48.0351 20.066 43.6827 20C40.7398 20.0025 37.986 21.451 36.3167 23.8747C35.822 23.7698 35.3177 23.7171 34.812 23.7173C31.3144 23.7688 28.3144 26.2258 27.5747 29.6447C23.9555 29.9706 21.2185 33.0624 21.334 36.6944C21.4495 40.3264 24.3774 43.2381 28.01 43.3333H39.3333V45.3333H30C28.8954 45.3333 28 46.2288 28 47.3333V48H22C20.8954 48 20 48.8954 20 50V51.3333C20.0035 52.1779 20.5371 52.9292 21.3333 53.2107V54.7893C20.5371 55.0708 20.0035 55.8221 20 56.6667V58C20 59.1046 20.8954 60 22 60H35.3333C36.4379 60 37.3333 59.1046 37.3333 58V56.6667C37.3298 55.8221 36.7962 55.0708 36 54.7893V53.2107C36.7962 52.9292 37.3298 52.1779 37.3333 51.3333V50C37.3333 48.8954 36.4379 48 35.3333 48H29.3333V47.3333C29.3333 46.9651 29.6318 46.6667 30 46.6667H50C50.3682 46.6667 50.6667 46.9651 50.6667 47.3333V48H44.6667C43.5621 48 42.6667 48.8954 42.6667 50V51.3333C42.6702 52.1779 43.2038 52.9292 44 53.2107V54.7893C43.2038 55.0708 42.6702 55.8221 42.6667 56.6667V58C42.6667 59.1046 43.5621 60 44.6667 60H58C59.1046 60 60 59.1046 60 58V56.6667C59.9965 55.8221 59.4629 55.0708 58.6667 54.7893V53.2107C59.4629 52.9292 59.9965 52.1779 60 51.3333V50C60 48.8954 59.1046 48 58 48ZM28.01 42C25.0331 41.9018 22.6707 39.4602 22.6707 36.4817C22.6707 33.5032 25.0331 31.0615 28.01 30.9633H28.1213C28.4595 30.9779 28.7519 30.7295 28.792 30.3933C29.2078 27.372 31.7627 25.104 34.812 25.0493C35.3594 25.0487 35.9042 25.1246 36.4307 25.2747C36.7165 25.3559 37.0215 25.2382 37.1787 24.986C38.5657 22.722 41.0276 21.3394 43.6827 21.3333C47.5525 21.4028 50.7978 24.2752 51.3367 28.108C51.3789 28.3938 51.6004 28.62 51.8853 28.668C55.0777 29.2438 57.3835 32.0465 57.3333 35.29C57.3857 38.9361 54.478 41.9372 50.832 42H40.6667V40H45.3333C46.4379 40 47.3333 39.1046 47.3333 38V37.2387C48.6335 36.903 49.4813 35.6528 49.3121 34.3207C49.1429 32.9885 48.0095 31.99 46.6667 31.99C45.3238 31.99 44.1905 32.9885 44.0213 34.3207C43.852 35.6528 44.6998 36.903 46 37.2387V38C46 38.3682 45.7015 38.6667 45.3333 38.6667H40.6667V32.572C41.9669 32.2363 42.8146 30.9861 42.6454 29.654C42.4762 28.3219 41.3428 27.3233 40 27.3233C38.6572 27.3233 37.5238 28.3219 37.3546 29.654C37.1854 30.9861 38.0331 32.2363 39.3333 32.572V38.6667H34.6667C34.2985 38.6667 34 38.3682 34 38V37.2387C35.3002 36.903 36.148 35.6528 35.9787 34.3207C35.8095 32.9885 34.6762 31.99 33.3333 31.99C31.9905 31.99 30.8571 32.9885 30.6879 34.3207C30.5187 35.6528 31.3665 36.903 32.6667 37.2387V38C32.6667 39.1046 33.5621 40 34.6667 40H39.3333V42H28.01ZM46.6667 36C45.9303 36 45.3333 35.403 45.3333 34.6667C45.3333 33.9303 45.9303 33.3333 46.6667 33.3333C47.403 33.3333 48 33.9303 48 34.6667C48 35.403 47.403 36 46.6667 36ZM40 31.3333C39.2636 31.3333 38.6667 30.7364 38.6667 30C38.6667 29.2636 39.2636 28.6667 40 28.6667C40.7364 28.6667 41.3333 29.2636 41.3333 30C41.3333 30.7364 40.7364 31.3333 40 31.3333ZM33.3333 36C32.597 36 32 35.403 32 34.6667C32 33.9303 32.597 33.3333 33.3333 33.3333C34.0697 33.3333 34.6667 33.9303 34.6667 34.6667C34.6667 35.403 34.0697 36 33.3333 36ZM34.6667 53.3333V54.6667H22.6667V53.3333H34.6667ZM36 58C36 58.3682 35.7015 58.6667 35.3333 58.6667H26.6667V58C26.6667 57.6318 26.3682 57.3333 26 57.3333C25.6318 57.3333 25.3333 57.6318 25.3333 58V58.6667H24V58C24 57.6318 23.7015 57.3333 23.3333 57.3333C22.9651 57.3333 22.6667 57.6318 22.6667 58V58.6667H22C21.6318 58.6667 21.3333 58.3682 21.3333 58V56.6667C21.3333 56.2985 21.6318 56 22 56H35.3333C35.7015 56 36 56.2985 36 56.6667V58ZM36 50V51.3333C36 51.7015 35.7015 52 35.3333 52H26.6667V51.3333C26.6667 50.9651 26.3682 50.6667 26 50.6667C25.6318 50.6667 25.3333 50.9651 25.3333 51.3333V52H24V51.3333C24 50.9651 23.7015 50.6667 23.3333 50.6667C22.9651 50.6667 22.6667 50.9651 22.6667 51.3333V52H22C21.6318 52 21.3333 51.7015 21.3333 51.3333V50C21.3333 49.6318 21.6318 49.3333 22 49.3333H35.3333C35.7015 49.3333 36 49.6318 36 50ZM57.3333 53.3333V54.6667H45.3333V53.3333H57.3333ZM58.6667 58C58.6667 58.3682 58.3682 58.6667 58 58.6667H49.3333V58C49.3333 57.6318 49.0349 57.3333 48.6667 57.3333C48.2985 57.3333 48 57.6318 48 58V58.6667H46.6667V58C46.6667 57.6318 46.3682 57.3333 46 57.3333C45.6318 57.3333 45.3333 57.6318 45.3333 58V58.6667H44.6667C44.2985 58.6667 44 58.3682 44 58V56.6667C44 56.2985 44.2985 56 44.6667 56H58C58.3682 56 58.6667 56.2985 58.6667 56.6667V58ZM58.6667 51.3333C58.6667 51.7015 58.3682 52 58 52H49.3333V51.3333C49.3333 50.9651 49.0349 50.6667 48.6667 50.6667C48.2985 50.6667 48 50.9651 48 51.3333V52H46.6667V51.3333C46.6667 50.9651 46.3682 50.6667 46 50.6667C45.6318 50.6667 45.3333 50.9651 45.3333 51.3333V52H44.6667C44.2985 52 44 51.7015 44 51.3333V50C44 49.6318 44.2985 49.3333 44.6667 49.3333H58C58.3682 49.3333 58.6667 49.6318 58.6667 50V51.3333Z"/>
</mask>
<path d="M58 48H52V47.3333C52 46.2288 51.1046 45.3333 50 45.3333H40.6667V43.3333H50.832C55.2142 43.2701 58.7186 39.6723 58.6667 35.29C58.7127 31.5751 56.1854 28.3213 52.5747 27.4467C51.7456 23.1734 48.0351 20.066 43.6827 20C40.7398 20.0025 37.986 21.451 36.3167 23.8747C35.822 23.7698 35.3177 23.7171 34.812 23.7173C31.3144 23.7688 28.3144 26.2258 27.5747 29.6447C23.9555 29.9706 21.2185 33.0624 21.334 36.6944C21.4495 40.3264 24.3774 43.2381 28.01 43.3333H39.3333V45.3333H30C28.8954 45.3333 28 46.2288 28 47.3333V48H22C20.8954 48 20 48.8954 20 50V51.3333C20.0035 52.1779 20.5371 52.9292 21.3333 53.2107V54.7893C20.5371 55.0708 20.0035 55.8221 20 56.6667V58C20 59.1046 20.8954 60 22 60H35.3333C36.4379 60 37.3333 59.1046 37.3333 58V56.6667C37.3298 55.8221 36.7962 55.0708 36 54.7893V53.2107C36.7962 52.9292 37.3298 52.1779 37.3333 51.3333V50C37.3333 48.8954 36.4379 48 35.3333 48H29.3333V47.3333C29.3333 46.9651 29.6318 46.6667 30 46.6667H50C50.3682 46.6667 50.6667 46.9651 50.6667 47.3333V48H44.6667C43.5621 48 42.6667 48.8954 42.6667 50V51.3333C42.6702 52.1779 43.2038 52.9292 44 53.2107V54.7893C43.2038 55.0708 42.6702 55.8221 42.6667 56.6667V58C42.6667 59.1046 43.5621 60 44.6667 60H58C59.1046 60 60 59.1046 60 58V56.6667C59.9965 55.8221 59.4629 55.0708 58.6667 54.7893V53.2107C59.4629 52.9292 59.9965 52.1779 60 51.3333V50C60 48.8954 59.1046 48 58 48ZM28.01 42C25.0331 41.9018 22.6707 39.4602 22.6707 36.4817C22.6707 33.5032 25.0331 31.0615 28.01 30.9633H28.1213C28.4595 30.9779 28.7519 30.7295 28.792 30.3933C29.2078 27.372 31.7627 25.104 34.812 25.0493C35.3594 25.0487 35.9042 25.1246 36.4307 25.2747C36.7165 25.3559 37.0215 25.2382 37.1787 24.986C38.5657 22.722 41.0276 21.3394 43.6827 21.3333C47.5525 21.4028 50.7978 24.2752 51.3367 28.108C51.3789 28.3938 51.6004 28.62 51.8853 28.668C55.0777 29.2438 57.3835 32.0465 57.3333 35.29C57.3857 38.9361 54.478 41.9372 50.832 42H40.6667V40H45.3333C46.4379 40 47.3333 39.1046 47.3333 38V37.2387C48.6335 36.903 49.4813 35.6528 49.3121 34.3207C49.1429 32.9885 48.0095 31.99 46.6667 31.99C45.3238 31.99 44.1905 32.9885 44.0213 34.3207C43.852 35.6528 44.6998 36.903 46 37.2387V38C46 38.3682 45.7015 38.6667 45.3333 38.6667H40.6667V32.572C41.9669 32.2363 42.8146 30.9861 42.6454 29.654C42.4762 28.3219 41.3428 27.3233 40 27.3233C38.6572 27.3233 37.5238 28.3219 37.3546 29.654C37.1854 30.9861 38.0331 32.2363 39.3333 32.572V38.6667H34.6667C34.2985 38.6667 34 38.3682 34 38V37.2387C35.3002 36.903 36.148 35.6528 35.9787 34.3207C35.8095 32.9885 34.6762 31.99 33.3333 31.99C31.9905 31.99 30.8571 32.9885 30.6879 34.3207C30.5187 35.6528 31.3665 36.903 32.6667 37.2387V38C32.6667 39.1046 33.5621 40 34.6667 40H39.3333V42H28.01ZM46.6667 36C45.9303 36 45.3333 35.403 45.3333 34.6667C45.3333 33.9303 45.9303 33.3333 46.6667 33.3333C47.403 33.3333 48 33.9303 48 34.6667C48 35.403 47.403 36 46.6667 36ZM40 31.3333C39.2636 31.3333 38.6667 30.7364 38.6667 30C38.6667 29.2636 39.2636 28.6667 40 28.6667C40.7364 28.6667 41.3333 29.2636 41.3333 30C41.3333 30.7364 40.7364 31.3333 40 31.3333ZM33.3333 36C32.597 36 32 35.403 32 34.6667C32 33.9303 32.597 33.3333 33.3333 33.3333C34.0697 33.3333 34.6667 33.9303 34.6667 34.6667C34.6667 35.403 34.0697 36 33.3333 36ZM34.6667 53.3333V54.6667H22.6667V53.3333H34.6667ZM36 58C36 58.3682 35.7015 58.6667 35.3333 58.6667H26.6667V58C26.6667 57.6318 26.3682 57.3333 26 57.3333C25.6318 57.3333 25.3333 57.6318 25.3333 58V58.6667H24V58C24 57.6318 23.7015 57.3333 23.3333 57.3333C22.9651 57.3333 22.6667 57.6318 22.6667 58V58.6667H22C21.6318 58.6667 21.3333 58.3682 21.3333 58V56.6667C21.3333 56.2985 21.6318 56 22 56H35.3333C35.7015 56 36 56.2985 36 56.6667V58ZM36 50V51.3333C36 51.7015 35.7015 52 35.3333 52H26.6667V51.3333C26.6667 50.9651 26.3682 50.6667 26 50.6667C25.6318 50.6667 25.3333 50.9651 25.3333 51.3333V52H24V51.3333C24 50.9651 23.7015 50.6667 23.3333 50.6667C22.9651 50.6667 22.6667 50.9651 22.6667 51.3333V52H22C21.6318 52 21.3333 51.7015 21.3333 51.3333V50C21.3333 49.6318 21.6318 49.3333 22 49.3333H35.3333C35.7015 49.3333 36 49.6318 36 50ZM57.3333 53.3333V54.6667H45.3333V53.3333H57.3333ZM58.6667 58C58.6667 58.3682 58.3682 58.6667 58 58.6667H49.3333V58C49.3333 57.6318 49.0349 57.3333 48.6667 57.3333C48.2985 57.3333 48 57.6318 48 58V58.6667H46.6667V58C46.6667 57.6318 46.3682 57.3333 46 57.3333C45.6318 57.3333 45.3333 57.6318 45.3333 58V58.6667H44.6667C44.2985 58.6667 44 58.3682 44 58V56.6667C44 56.2985 44.2985 56 44.6667 56H58C58.3682 56 58.6667 56.2985 58.6667 56.6667V58ZM58.6667 51.3333C58.6667 51.7015 58.3682 52 58 52H49.3333V51.3333C49.3333 50.9651 49.0349 50.6667 48.6667 50.6667C48.2985 50.6667 48 50.9651 48 51.3333V52H46.6667V51.3333C46.6667 50.9651 46.3682 50.6667 46 50.6667C45.6318 50.6667 45.3333 50.9651 45.3333 51.3333V52H44.6667C44.2985 52 44 51.7015 44 51.3333V50C44 49.6318 44.2985 49.3333 44.6667 49.3333H58C58.3682 49.3333 58.6667 49.6318 58.6667 50V51.3333Z" fill="white"/>
<path d="M58 48H52V47.3333C52 46.2288 51.1046 45.3333 50 45.3333H40.6667V43.3333H50.832C55.2142 43.2701 58.7186 39.6723 58.6667 35.29C58.7127 31.5751 56.1854 28.3213 52.5747 27.4467C51.7456 23.1734 48.0351 20.066 43.6827 20C40.7398 20.0025 37.986 21.451 36.3167 23.8747C35.822 23.7698 35.3177 23.7171 34.812 23.7173C31.3144 23.7688 28.3144 26.2258 27.5747 29.6447C23.9555 29.9706 21.2185 33.0624 21.334 36.6944C21.4495 40.3264 24.3774 43.2381 28.01 43.3333H39.3333V45.3333H30C28.8954 45.3333 28 46.2288 28 47.3333V48H22C20.8954 48 20 48.8954 20 50V51.3333C20.0035 52.1779 20.5371 52.9292 21.3333 53.2107V54.7893C20.5371 55.0708 20.0035 55.8221 20 56.6667V58C20 59.1046 20.8954 60 22 60H35.3333C36.4379 60 37.3333 59.1046 37.3333 58V56.6667C37.3298 55.8221 36.7962 55.0708 36 54.7893V53.2107C36.7962 52.9292 37.3298 52.1779 37.3333 51.3333V50C37.3333 48.8954 36.4379 48 35.3333 48H29.3333V47.3333C29.3333 46.9651 29.6318 46.6667 30 46.6667H50C50.3682 46.6667 50.6667 46.9651 50.6667 47.3333V48H44.6667C43.5621 48 42.6667 48.8954 42.6667 50V51.3333C42.6702 52.1779 43.2038 52.9292 44 53.2107V54.7893C43.2038 55.0708 42.6702 55.8221 42.6667 56.6667V58C42.6667 59.1046 43.5621 60 44.6667 60H58C59.1046 60 60 59.1046 60 58V56.6667C59.9965 55.8221 59.4629 55.0708 58.6667 54.7893V53.2107C59.4629 52.9292 59.9965 52.1779 60 51.3333V50C60 48.8954 59.1046 48 58 48ZM28.01 42C25.0331 41.9018 22.6707 39.4602 22.6707 36.4817C22.6707 33.5032 25.0331 31.0615 28.01 30.9633H28.1213C28.4595 30.9779 28.7519 30.7295 28.792 30.3933C29.2078 27.372 31.7627 25.104 34.812 25.0493C35.3594 25.0487 35.9042 25.1246 36.4307 25.2747C36.7165 25.3559 37.0215 25.2382 37.1787 24.986C38.5657 22.722 41.0276 21.3394 43.6827 21.3333C47.5525 21.4028 50.7978 24.2752 51.3367 28.108C51.3789 28.3938 51.6004 28.62 51.8853 28.668C55.0777 29.2438 57.3835 32.0465 57.3333 35.29C57.3857 38.9361 54.478 41.9372 50.832 42H40.6667V40H45.3333C46.4379 40 47.3333 39.1046 47.3333 38V37.2387C48.6335 36.903 49.4813 35.6528 49.3121 34.3207C49.1429 32.9885 48.0095 31.99 46.6667 31.99C45.3238 31.99 44.1905 32.9885 44.0213 34.3207C43.852 35.6528 44.6998 36.903 46 37.2387V38C46 38.3682 45.7015 38.6667 45.3333 38.6667H40.6667V32.572C41.9669 32.2363 42.8146 30.9861 42.6454 29.654C42.4762 28.3219 41.3428 27.3233 40 27.3233C38.6572 27.3233 37.5238 28.3219 37.3546 29.654C37.1854 30.9861 38.0331 32.2363 39.3333 32.572V38.6667H34.6667C34.2985 38.6667 34 38.3682 34 38V37.2387C35.3002 36.903 36.148 35.6528 35.9787 34.3207C35.8095 32.9885 34.6762 31.99 33.3333 31.99C31.9905 31.99 30.8571 32.9885 30.6879 34.3207C30.5187 35.6528 31.3665 36.903 32.6667 37.2387V38C32.6667 39.1046 33.5621 40 34.6667 40H39.3333V42H28.01ZM46.6667 36C45.9303 36 45.3333 35.403 45.3333 34.6667C45.3333 33.9303 45.9303 33.3333 46.6667 33.3333C47.403 33.3333 48 33.9303 48 34.6667C48 35.403 47.403 36 46.6667 36ZM40 31.3333C39.2636 31.3333 38.6667 30.7364 38.6667 30C38.6667 29.2636 39.2636 28.6667 40 28.6667C40.7364 28.6667 41.3333 29.2636 41.3333 30C41.3333 30.7364 40.7364 31.3333 40 31.3333ZM33.3333 36C32.597 36 32 35.403 32 34.6667C32 33.9303 32.597 33.3333 33.3333 33.3333C34.0697 33.3333 34.6667 33.9303 34.6667 34.6667C34.6667 35.403 34.0697 36 33.3333 36ZM34.6667 53.3333V54.6667H22.6667V53.3333H34.6667ZM36 58C36 58.3682 35.7015 58.6667 35.3333 58.6667H26.6667V58C26.6667 57.6318 26.3682 57.3333 26 57.3333C25.6318 57.3333 25.3333 57.6318 25.3333 58V58.6667H24V58C24 57.6318 23.7015 57.3333 23.3333 57.3333C22.9651 57.3333 22.6667 57.6318 22.6667 58V58.6667H22C21.6318 58.6667 21.3333 58.3682 21.3333 58V56.6667C21.3333 56.2985 21.6318 56 22 56H35.3333C35.7015 56 36 56.2985 36 56.6667V58ZM36 50V51.3333C36 51.7015 35.7015 52 35.3333 52H26.6667V51.3333C26.6667 50.9651 26.3682 50.6667 26 50.6667C25.6318 50.6667 25.3333 50.9651 25.3333 51.3333V52H24V51.3333C24 50.9651 23.7015 50.6667 23.3333 50.6667C22.9651 50.6667 22.6667 50.9651 22.6667 51.3333V52H22C21.6318 52 21.3333 51.7015 21.3333 51.3333V50C21.3333 49.6318 21.6318 49.3333 22 49.3333H35.3333C35.7015 49.3333 36 49.6318 36 50ZM57.3333 53.3333V54.6667H45.3333V53.3333H57.3333ZM58.6667 58C58.6667 58.3682 58.3682 58.6667 58 58.6667H49.3333V58C49.3333 57.6318 49.0349 57.3333 48.6667 57.3333C48.2985 57.3333 48 57.6318 48 58V58.6667H46.6667V58C46.6667 57.6318 46.3682 57.3333 46 57.3333C45.6318 57.3333 45.3333 57.6318 45.3333 58V58.6667H44.6667C44.2985 58.6667 44 58.3682 44 58V56.6667C44 56.2985 44.2985 56 44.6667 56H58C58.3682 56 58.6667 56.2985 58.6667 56.6667V58ZM58.6667 51.3333C58.6667 51.7015 58.3682 52 58 52H49.3333V51.3333C49.3333 50.9651 49.0349 50.6667 48.6667 50.6667C48.2985 50.6667 48 50.9651 48 51.3333V52H46.6667V51.3333C46.6667 50.9651 46.3682 50.6667 46 50.6667C45.6318 50.6667 45.3333 50.9651 45.3333 51.3333V52H44.6667C44.2985 52 44 51.7015 44 51.3333V50C44 49.6318 44.2985 49.3333 44.6667 49.3333H58C58.3682 49.3333 58.6667 49.6318 58.6667 50V51.3333Z" stroke="white" stroke-width="0.2" mask="url(#path-2-outside-1)"/>
</g>
<defs>
<clipPath id="clip0">
<rect width="40" height="40" fill="white" transform="translate(20 20)"/>
</clipPath>
</defs>
</svg>
