<svg width="80" height="80" viewBox="0 0 80 80" fill="none" xmlns="http://www.w3.org/2000/svg">
<circle cx="40" cy="40" r="40" fill="#2154D1"/>
<g clip-path="url(#clip0)">
<path d="M36.6436 28.2809C37.0501 28.2809 37.3795 27.9515 37.3795 27.545V26.7168C37.3795 26.3103 37.0501 25.9809 36.6436 25.9809C36.237 25.9809 35.9076 26.3103 35.9076 26.7168V27.5451C35.9076 27.9515 36.2371 28.2809 36.6436 28.2809Z" fill="white" stroke="white" stroke-width="0.3"/>
<path d="M44.1843 30.1446L44.1843 30.1446C44.4716 29.8571 44.4717 29.3912 44.1843 29.1038L44.1842 29.1038C43.8968 28.8165 43.4309 28.8165 43.1435 29.1038L43.1434 29.1038L42.5577 29.6895L42.5577 29.6895C42.2704 29.977 42.2703 30.4429 42.5577 30.7303L42.5578 30.7304C42.8453 31.0178 43.3111 31.0176 43.5985 30.7304L43.4926 30.6244L43.5986 30.7303L44.1843 30.1446Z" fill="white" stroke="white" stroke-width="0.3"/>
<path d="M30.1454 44.184L30.1454 44.184L30.7311 43.5982L30.7311 43.5982C31.0185 43.3108 31.0185 42.8449 30.7311 42.5574L30.7311 42.5574C30.4436 42.2701 29.9778 42.2701 29.6903 42.5574L29.6903 42.5574L29.1046 43.1431C28.8172 43.4306 28.8172 43.8965 29.1046 44.184L29.2107 44.0779L29.1047 44.184C29.3922 44.4714 29.858 44.4713 30.1454 44.184Z" fill="white" stroke="white" stroke-width="0.3"/>
<path d="M27.5452 37.38C27.9517 37.38 28.2811 37.0506 28.2811 36.644C28.2811 36.2375 27.9517 35.9081 27.5452 35.9081H26.7168C26.3103 35.9081 25.9809 36.2375 25.9809 36.644C25.9809 37.0506 26.3103 37.38 26.7168 37.38H27.5452Z" fill="white" stroke="white" stroke-width="0.3"/>
<path d="M29.6893 30.7303L29.6894 30.7304C29.9769 31.0177 30.4427 31.0177 30.7301 30.7304L30.7302 30.7303C31.0175 30.4428 31.0176 29.9769 30.7302 29.6895L30.1444 29.1038L30.1444 29.1038C29.8569 28.8165 29.3911 28.8165 29.1037 29.1038L29.1036 29.1038C28.8163 29.3913 28.8162 29.8572 29.1036 30.1446L29.6893 30.7303Z" fill="white" stroke="white" stroke-width="0.3"/>
<path d="M35.9077 36.7352H35.9076V36.8852C35.9076 37.5736 36.7628 37.8783 37.2031 37.3632L37.2032 37.3631L39.3206 34.8843L39.3206 34.8843C39.5844 34.5753 39.548 34.1107 39.2389 33.8467L39.2389 33.8467C38.9299 33.583 38.4654 33.6194 38.2014 33.9284L38.2014 33.9284L37.3796 34.8905V31.3401C37.3796 30.9336 37.0501 30.6042 36.6436 30.6042C36.2371 30.6042 35.9077 30.9336 35.9077 31.3401V36.7352Z" fill="white" stroke="white" stroke-width="0.3"/>
<mask id="path-8-outside-1" maskUnits="userSpaceOnUse" x="19.001" y="19" width="42" height="42" fill="black">
<rect fill="white" x="19.001" y="19" width="42" height="42"/>
<path d="M59.4757 47.6931L57.9511 46.3557C57.8922 46.3041 57.8518 46.2363 57.8344 46.1599L57.3119 43.8699C57.2944 43.7935 57.3014 43.7151 57.3321 43.643L58.1254 41.7764C58.3471 41.2547 58.2652 40.6553 57.9119 40.2123L56.3856 38.2983C56.0321 37.8552 55.4662 37.642 54.9082 37.7423L53.2288 38.0435C53.2677 37.5777 53.2891 37.1094 53.2891 36.6439C53.2891 32.3639 51.6674 28.297 48.7228 25.1923C48.5 24.9575 48.1292 24.9477 47.8944 25.1704C47.6596 25.3932 47.6498 25.764 47.8725 25.9988C50.6097 28.8848 52.1172 32.6653 52.1172 36.644C52.1172 37.0201 52.1018 37.3981 52.0745 37.775L50.57 37.0504C50.4995 37.0165 50.4424 36.9622 50.4053 36.8932L49.4731 35.1695C49.1192 32.0595 47.6465 29.1892 45.3157 27.0757C42.9374 24.9192 39.8581 23.7315 36.6451 23.7315C29.5251 23.7315 23.7325 29.524 23.7325 36.644C23.7325 38.0787 23.9669 39.4893 24.4292 40.8365C24.5125 41.0796 24.7399 41.2325 24.9834 41.2325C25.0464 41.2325 25.1106 41.2222 25.1735 41.2006C25.4796 41.0956 25.6427 40.7624 25.5376 40.4563C25.1174 39.2317 24.9045 37.949 24.9045 36.644C24.9045 30.1702 30.1713 24.9033 36.6452 24.9033C39.5666 24.9033 42.3663 25.9831 44.5286 27.9438C46.396 29.6371 47.6578 31.864 48.1516 34.3031C48.0525 34.2988 48.4485 34.3023 45.6367 34.3009C45.0698 34.3009 44.5502 34.6106 44.2806 35.1093L43.3159 36.8933C43.2787 36.9622 43.2217 37.0165 43.1512 37.0505L41.0349 38.0696C40.9643 38.1036 40.8862 38.114 40.8091 38.1005L38.813 37.7425C38.2556 37.6425 37.689 37.8554 37.3354 38.2986L35.8094 40.2123C35.4558 40.6555 35.374 41.255 35.5958 41.7766L36.389 43.643C36.4197 43.7152 36.4267 43.7937 36.4093 43.87L35.8867 46.16C35.8692 46.2364 35.8289 46.3041 35.7699 46.3558L34.2453 47.6932C34.1207 47.8026 34.0172 47.9295 33.9354 48.0678C30.799 47.3273 28.0977 45.3227 26.4716 42.5078C26.3096 42.2275 25.9513 42.1317 25.6711 42.2936C25.3909 42.4554 25.295 42.8139 25.4569 43.0941C27.2624 46.2197 30.2742 48.437 33.7675 49.232L34.3038 51.5815C34.3343 51.7149 34.382 51.8414 34.4441 51.959C26.9516 50.8871 21.173 44.4282 21.173 36.644C21.1728 28.1126 28.1136 21.1719 36.6449 21.1719C40.1495 21.1719 43.4544 22.3144 46.2023 24.4758C46.4565 24.6759 46.825 24.6319 47.025 24.3776C47.2251 24.1232 47.1811 23.7548 46.9268 23.5548C43.9703 21.2292 40.4148 20 36.6449 20C27.4674 20 20.001 27.4664 20.001 36.644C20.001 45.8216 27.4674 53.288 36.645 53.288C36.8782 53.288 37.1184 53.2818 37.3596 53.2716C37.4298 53.2938 37.4912 53.335 37.5374 53.3929L39.0018 55.2292C39.0507 55.2905 39.0784 55.3642 39.082 55.4424L39.1772 57.4682C39.2038 58.0344 39.5374 58.539 40.0482 58.7849L42.2536 59.8471C42.7642 60.0929 43.3669 60.0393 43.8261 59.7071L45.4693 58.5183C45.5328 58.4724 45.6077 58.4482 45.6859 58.4482H48.0348C48.1131 58.4482 48.188 58.4725 48.2515 58.5184L49.8946 59.7071C50.1626 59.9009 50.4792 60 50.7981 60C51.0256 60 51.2544 59.9495 51.467 59.847L53.6724 58.785C54.1831 58.5391 54.5169 58.0345 54.5435 57.4683L54.6385 55.4425C54.6423 55.3642 54.67 55.2905 54.7187 55.2293L54.9101 54.9893C55.112 54.7364 55.0705 54.3677 54.8176 54.1659C54.5646 53.964 54.1959 54.0054 53.9941 54.2585L53.8025 54.4986C53.599 54.7539 53.4833 55.0613 53.4679 55.3875L53.3728 57.4133C53.3665 57.5492 53.2864 57.6702 53.1639 57.7292L50.9585 58.7913C50.836 58.8502 50.6916 58.8374 50.5813 58.7577L48.9383 57.5691C48.6737 57.3776 48.3612 57.2763 48.0346 57.2763H45.6857C45.3591 57.2763 45.0466 57.3776 44.7822 57.569L43.139 58.7577C43.0289 58.8374 42.8843 58.8503 42.7619 58.7913L40.5565 57.7292C40.434 57.6702 40.3539 57.5492 40.3476 57.4134L40.2524 55.3877C40.2372 55.0615 40.1214 54.7541 39.9177 54.4986L38.4533 52.6622C37.9606 52.0443 37.4466 52.1504 35.7073 51.5947C35.5763 51.5582 35.4761 51.4532 35.4458 51.3207L34.9011 48.9342C34.8709 48.8016 34.9157 48.6636 35.0178 48.574L36.5424 47.2366C36.7878 47.0212 36.956 46.7391 37.0287 46.4207L37.5513 44.1307C37.6241 43.8125 37.595 43.4853 37.4672 43.1846L36.6739 41.3181C36.6207 41.1929 36.6403 41.0493 36.7252 40.9429L38.2513 39.0292C38.3361 38.9229 38.4717 38.8721 38.6056 38.8957L40.6018 39.2538C40.9231 39.3114 41.2486 39.2672 41.543 39.1253L43.6594 38.1061C43.9536 37.9644 44.1912 37.7376 44.3465 37.4504L45.3111 35.6665C45.3757 35.5469 45.5004 35.4726 45.6364 35.4726H48.0842C48.2201 35.4726 48.3448 35.5469 48.4094 35.6665L49.3741 37.4504C49.5293 37.7377 49.767 37.9644 50.0613 38.1061C51.9948 38.9579 52.3213 39.3968 53.1187 39.2537L55.115 38.8957C55.2495 38.8718 55.3846 38.9229 55.4693 39.029L56.9955 40.9429C57.0803 41.0492 57.0999 41.1929 57.0467 41.3181L56.2534 43.1845C56.1256 43.485 56.0965 43.8122 56.1693 44.1306L56.6919 46.4206C56.7645 46.739 56.9327 47.0212 57.1782 47.2365L58.7028 48.5739C58.805 48.6636 58.8497 48.8016 58.8195 48.9341L58.2747 51.3207C58.2444 51.4532 58.1443 51.5581 58.0133 51.5946L56.0594 52.138C55.917 52.1777 55.7801 52.2384 55.6526 52.3186C55.3785 52.4907 55.2961 52.8525 55.4682 53.1264C55.6405 53.4005 56.0023 53.4829 56.2761 53.3108C56.3076 53.291 56.3405 53.2763 56.3735 53.267L58.3274 52.7236C58.8736 52.5716 59.2911 52.1339 59.4172 51.5814L59.9619 49.1949C60.0882 48.6425 59.9018 48.067 59.4757 47.6931V47.6931Z"/>
</mask>
<path d="M59.4757 47.6931L57.9511 46.3557C57.8922 46.3041 57.8518 46.2363 57.8344 46.1599L57.3119 43.8699C57.2944 43.7935 57.3014 43.7151 57.3321 43.643L58.1254 41.7764C58.3471 41.2547 58.2652 40.6553 57.9119 40.2123L56.3856 38.2983C56.0321 37.8552 55.4662 37.642 54.9082 37.7423L53.2288 38.0435C53.2677 37.5777 53.2891 37.1094 53.2891 36.6439C53.2891 32.3639 51.6674 28.297 48.7228 25.1923C48.5 24.9575 48.1292 24.9477 47.8944 25.1704C47.6596 25.3932 47.6498 25.764 47.8725 25.9988C50.6097 28.8848 52.1172 32.6653 52.1172 36.644C52.1172 37.0201 52.1018 37.3981 52.0745 37.775L50.57 37.0504C50.4995 37.0165 50.4424 36.9622 50.4053 36.8932L49.4731 35.1695C49.1192 32.0595 47.6465 29.1892 45.3157 27.0757C42.9374 24.9192 39.8581 23.7315 36.6451 23.7315C29.5251 23.7315 23.7325 29.524 23.7325 36.644C23.7325 38.0787 23.9669 39.4893 24.4292 40.8365C24.5125 41.0796 24.7399 41.2325 24.9834 41.2325C25.0464 41.2325 25.1106 41.2222 25.1735 41.2006C25.4796 41.0956 25.6427 40.7624 25.5376 40.4563C25.1174 39.2317 24.9045 37.949 24.9045 36.644C24.9045 30.1702 30.1713 24.9033 36.6452 24.9033C39.5666 24.9033 42.3663 25.9831 44.5286 27.9438C46.396 29.6371 47.6578 31.864 48.1516 34.3031C48.0525 34.2988 48.4485 34.3023 45.6367 34.3009C45.0698 34.3009 44.5502 34.6106 44.2806 35.1093L43.3159 36.8933C43.2787 36.9622 43.2217 37.0165 43.1512 37.0505L41.0349 38.0696C40.9643 38.1036 40.8862 38.114 40.8091 38.1005L38.813 37.7425C38.2556 37.6425 37.689 37.8554 37.3354 38.2986L35.8094 40.2123C35.4558 40.6555 35.374 41.255 35.5958 41.7766L36.389 43.643C36.4197 43.7152 36.4267 43.7937 36.4093 43.87L35.8867 46.16C35.8692 46.2364 35.8289 46.3041 35.7699 46.3558L34.2453 47.6932C34.1207 47.8026 34.0172 47.9295 33.9354 48.0678C30.799 47.3273 28.0977 45.3227 26.4716 42.5078C26.3096 42.2275 25.9513 42.1317 25.6711 42.2936C25.3909 42.4554 25.295 42.8139 25.4569 43.0941C27.2624 46.2197 30.2742 48.437 33.7675 49.232L34.3038 51.5815C34.3343 51.7149 34.382 51.8414 34.4441 51.959C26.9516 50.8871 21.173 44.4282 21.173 36.644C21.1728 28.1126 28.1136 21.1719 36.6449 21.1719C40.1495 21.1719 43.4544 22.3144 46.2023 24.4758C46.4565 24.6759 46.825 24.6319 47.025 24.3776C47.2251 24.1232 47.1811 23.7548 46.9268 23.5548C43.9703 21.2292 40.4148 20 36.6449 20C27.4674 20 20.001 27.4664 20.001 36.644C20.001 45.8216 27.4674 53.288 36.645 53.288C36.8782 53.288 37.1184 53.2818 37.3596 53.2716C37.4298 53.2938 37.4912 53.335 37.5374 53.3929L39.0018 55.2292C39.0507 55.2905 39.0784 55.3642 39.082 55.4424L39.1772 57.4682C39.2038 58.0344 39.5374 58.539 40.0482 58.7849L42.2536 59.8471C42.7642 60.0929 43.3669 60.0393 43.8261 59.7071L45.4693 58.5183C45.5328 58.4724 45.6077 58.4482 45.6859 58.4482H48.0348C48.1131 58.4482 48.188 58.4725 48.2515 58.5184L49.8946 59.7071C50.1626 59.9009 50.4792 60 50.7981 60C51.0256 60 51.2544 59.9495 51.467 59.847L53.6724 58.785C54.1831 58.5391 54.5169 58.0345 54.5435 57.4683L54.6385 55.4425C54.6423 55.3642 54.67 55.2905 54.7187 55.2293L54.9101 54.9893C55.112 54.7364 55.0705 54.3677 54.8176 54.1659C54.5646 53.964 54.1959 54.0054 53.9941 54.2585L53.8025 54.4986C53.599 54.7539 53.4833 55.0613 53.4679 55.3875L53.3728 57.4133C53.3665 57.5492 53.2864 57.6702 53.1639 57.7292L50.9585 58.7913C50.836 58.8502 50.6916 58.8374 50.5813 58.7577L48.9383 57.5691C48.6737 57.3776 48.3612 57.2763 48.0346 57.2763H45.6857C45.3591 57.2763 45.0466 57.3776 44.7822 57.569L43.139 58.7577C43.0289 58.8374 42.8843 58.8503 42.7619 58.7913L40.5565 57.7292C40.434 57.6702 40.3539 57.5492 40.3476 57.4134L40.2524 55.3877C40.2372 55.0615 40.1214 54.7541 39.9177 54.4986L38.4533 52.6622C37.9606 52.0443 37.4466 52.1504 35.7073 51.5947C35.5763 51.5582 35.4761 51.4532 35.4458 51.3207L34.9011 48.9342C34.8709 48.8016 34.9157 48.6636 35.0178 48.574L36.5424 47.2366C36.7878 47.0212 36.956 46.7391 37.0287 46.4207L37.5513 44.1307C37.6241 43.8125 37.595 43.4853 37.4672 43.1846L36.6739 41.3181C36.6207 41.1929 36.6403 41.0493 36.7252 40.9429L38.2513 39.0292C38.3361 38.9229 38.4717 38.8721 38.6056 38.8957L40.6018 39.2538C40.9231 39.3114 41.2486 39.2672 41.543 39.1253L43.6594 38.1061C43.9536 37.9644 44.1912 37.7376 44.3465 37.4504L45.3111 35.6665C45.3757 35.5469 45.5004 35.4726 45.6364 35.4726H48.0842C48.2201 35.4726 48.3448 35.5469 48.4094 35.6665L49.3741 37.4504C49.5293 37.7377 49.767 37.9644 50.0613 38.1061C51.9948 38.9579 52.3213 39.3968 53.1187 39.2537L55.115 38.8957C55.2495 38.8718 55.3846 38.9229 55.4693 39.029L56.9955 40.9429C57.0803 41.0492 57.0999 41.1929 57.0467 41.3181L56.2534 43.1845C56.1256 43.485 56.0965 43.8122 56.1693 44.1306L56.6919 46.4206C56.7645 46.739 56.9327 47.0212 57.1782 47.2365L58.7028 48.5739C58.805 48.6636 58.8497 48.8016 58.8195 48.9341L58.2747 51.3207C58.2444 51.4532 58.1443 51.5581 58.0133 51.5946L56.0594 52.138C55.917 52.1777 55.7801 52.2384 55.6526 52.3186C55.3785 52.4907 55.2961 52.8525 55.4682 53.1264C55.6405 53.4005 56.0023 53.4829 56.2761 53.3108C56.3076 53.291 56.3405 53.2763 56.3735 53.267L58.3274 52.7236C58.8736 52.5716 59.2911 52.1339 59.4172 51.5814L59.9619 49.1949C60.0882 48.6425 59.9018 48.067 59.4757 47.6931V47.6931Z" fill="white"/>
<path d="M59.4757 47.6931L57.9511 46.3557C57.8922 46.3041 57.8518 46.2363 57.8344 46.1599L57.3119 43.8699C57.2944 43.7935 57.3014 43.7151 57.3321 43.643L58.1254 41.7764C58.3471 41.2547 58.2652 40.6553 57.9119 40.2123L56.3856 38.2983C56.0321 37.8552 55.4662 37.642 54.9082 37.7423L53.2288 38.0435C53.2677 37.5777 53.2891 37.1094 53.2891 36.6439C53.2891 32.3639 51.6674 28.297 48.7228 25.1923C48.5 24.9575 48.1292 24.9477 47.8944 25.1704C47.6596 25.3932 47.6498 25.764 47.8725 25.9988C50.6097 28.8848 52.1172 32.6653 52.1172 36.644C52.1172 37.0201 52.1018 37.3981 52.0745 37.775L50.57 37.0504C50.4995 37.0165 50.4424 36.9622 50.4053 36.8932L49.4731 35.1695C49.1192 32.0595 47.6465 29.1892 45.3157 27.0757C42.9374 24.9192 39.8581 23.7315 36.6451 23.7315C29.5251 23.7315 23.7325 29.524 23.7325 36.644C23.7325 38.0787 23.9669 39.4893 24.4292 40.8365C24.5125 41.0796 24.7399 41.2325 24.9834 41.2325C25.0464 41.2325 25.1106 41.2222 25.1735 41.2006C25.4796 41.0956 25.6427 40.7624 25.5376 40.4563C25.1174 39.2317 24.9045 37.949 24.9045 36.644C24.9045 30.1702 30.1713 24.9033 36.6452 24.9033C39.5666 24.9033 42.3663 25.9831 44.5286 27.9438C46.396 29.6371 47.6578 31.864 48.1516 34.3031C48.0525 34.2988 48.4485 34.3023 45.6367 34.3009C45.0698 34.3009 44.5502 34.6106 44.2806 35.1093L43.3159 36.8933C43.2787 36.9622 43.2217 37.0165 43.1512 37.0505L41.0349 38.0696C40.9643 38.1036 40.8862 38.114 40.8091 38.1005L38.813 37.7425C38.2556 37.6425 37.689 37.8554 37.3354 38.2986L35.8094 40.2123C35.4558 40.6555 35.374 41.255 35.5958 41.7766L36.389 43.643C36.4197 43.7152 36.4267 43.7937 36.4093 43.87L35.8867 46.16C35.8692 46.2364 35.8289 46.3041 35.7699 46.3558L34.2453 47.6932C34.1207 47.8026 34.0172 47.9295 33.9354 48.0678C30.799 47.3273 28.0977 45.3227 26.4716 42.5078C26.3096 42.2275 25.9513 42.1317 25.6711 42.2936C25.3909 42.4554 25.295 42.8139 25.4569 43.0941C27.2624 46.2197 30.2742 48.437 33.7675 49.232L34.3038 51.5815C34.3343 51.7149 34.382 51.8414 34.4441 51.959C26.9516 50.8871 21.173 44.4282 21.173 36.644C21.1728 28.1126 28.1136 21.1719 36.6449 21.1719C40.1495 21.1719 43.4544 22.3144 46.2023 24.4758C46.4565 24.6759 46.825 24.6319 47.025 24.3776C47.2251 24.1232 47.1811 23.7548 46.9268 23.5548C43.9703 21.2292 40.4148 20 36.6449 20C27.4674 20 20.001 27.4664 20.001 36.644C20.001 45.8216 27.4674 53.288 36.645 53.288C36.8782 53.288 37.1184 53.2818 37.3596 53.2716C37.4298 53.2938 37.4912 53.335 37.5374 53.3929L39.0018 55.2292C39.0507 55.2905 39.0784 55.3642 39.082 55.4424L39.1772 57.4682C39.2038 58.0344 39.5374 58.539 40.0482 58.7849L42.2536 59.8471C42.7642 60.0929 43.3669 60.0393 43.8261 59.7071L45.4693 58.5183C45.5328 58.4724 45.6077 58.4482 45.6859 58.4482H48.0348C48.1131 58.4482 48.188 58.4725 48.2515 58.5184L49.8946 59.7071C50.1626 59.9009 50.4792 60 50.7981 60C51.0256 60 51.2544 59.9495 51.467 59.847L53.6724 58.785C54.1831 58.5391 54.5169 58.0345 54.5435 57.4683L54.6385 55.4425C54.6423 55.3642 54.67 55.2905 54.7187 55.2293L54.9101 54.9893C55.112 54.7364 55.0705 54.3677 54.8176 54.1659C54.5646 53.964 54.1959 54.0054 53.9941 54.2585L53.8025 54.4986C53.599 54.7539 53.4833 55.0613 53.4679 55.3875L53.3728 57.4133C53.3665 57.5492 53.2864 57.6702 53.1639 57.7292L50.9585 58.7913C50.836 58.8502 50.6916 58.8374 50.5813 58.7577L48.9383 57.5691C48.6737 57.3776 48.3612 57.2763 48.0346 57.2763H45.6857C45.3591 57.2763 45.0466 57.3776 44.7822 57.569L43.139 58.7577C43.0289 58.8374 42.8843 58.8503 42.7619 58.7913L40.5565 57.7292C40.434 57.6702 40.3539 57.5492 40.3476 57.4134L40.2524 55.3877C40.2372 55.0615 40.1214 54.7541 39.9177 54.4986L38.4533 52.6622C37.9606 52.0443 37.4466 52.1504 35.7073 51.5947C35.5763 51.5582 35.4761 51.4532 35.4458 51.3207L34.9011 48.9342C34.8709 48.8016 34.9157 48.6636 35.0178 48.574L36.5424 47.2366C36.7878 47.0212 36.956 46.7391 37.0287 46.4207L37.5513 44.1307C37.6241 43.8125 37.595 43.4853 37.4672 43.1846L36.6739 41.3181C36.6207 41.1929 36.6403 41.0493 36.7252 40.9429L38.2513 39.0292C38.3361 38.9229 38.4717 38.8721 38.6056 38.8957L40.6018 39.2538C40.9231 39.3114 41.2486 39.2672 41.543 39.1253L43.6594 38.1061C43.9536 37.9644 44.1912 37.7376 44.3465 37.4504L45.3111 35.6665C45.3757 35.5469 45.5004 35.4726 45.6364 35.4726H48.0842C48.2201 35.4726 48.3448 35.5469 48.4094 35.6665L49.3741 37.4504C49.5293 37.7377 49.767 37.9644 50.0613 38.1061C51.9948 38.9579 52.3213 39.3968 53.1187 39.2537L55.115 38.8957C55.2495 38.8718 55.3846 38.9229 55.4693 39.029L56.9955 40.9429C57.0803 41.0492 57.0999 41.1929 57.0467 41.3181L56.2534 43.1845C56.1256 43.485 56.0965 43.8122 56.1693 44.1306L56.6919 46.4206C56.7645 46.739 56.9327 47.0212 57.1782 47.2365L58.7028 48.5739C58.805 48.6636 58.8497 48.8016 58.8195 48.9341L58.2747 51.3207C58.2444 51.4532 58.1443 51.5581 58.0133 51.5946L56.0594 52.138C55.917 52.1777 55.7801 52.2384 55.6526 52.3186C55.3785 52.4907 55.2961 52.8525 55.4682 53.1264C55.6405 53.4005 56.0023 53.4829 56.2761 53.3108C56.3076 53.291 56.3405 53.2763 56.3735 53.267L58.3274 52.7236C58.8736 52.5716 59.2911 52.1339 59.4172 51.5814L59.9619 49.1949C60.0882 48.6425 59.9018 48.067 59.4757 47.6931V47.6931Z" stroke="white" stroke-width="0.6" mask="url(#path-8-outside-1)"/>
<path d="M41.2621 47.4587V47.4588V47.4595V47.4597V47.4602C41.2621 50.5468 43.7731 53.0578 46.8598 53.0578C49.9465 53.0578 52.4575 50.5469 52.4575 47.4601C52.4575 44.3734 49.9465 41.8625 46.8598 41.8625C43.7736 41.8625 41.2628 44.3727 41.2621 47.4587ZM42.8007 46.7251C43.1053 45.0389 44.4378 43.706 46.1238 43.4012V44.3925H45.5863C45.1798 44.3925 44.8504 44.722 44.8504 45.1285C44.8504 45.535 45.1798 45.8644 45.5863 45.8644H46.8598C47.2663 45.8644 47.5957 45.535 47.5957 45.1285V43.4012C49.2814 43.706 50.6139 45.0384 50.9188 46.7242H48.7673V46.4491C48.7673 46.0426 48.4378 45.7132 48.0313 45.7132C47.6248 45.7132 47.2954 46.0426 47.2954 46.4491V47.4601C47.2954 47.8666 47.6248 48.196 48.0313 48.196H50.9188C50.6139 49.8818 49.2815 51.2143 47.5957 51.5191V50.7007H47.875C48.2815 50.7007 48.6109 50.3712 48.6109 49.9647C48.6109 49.5582 48.2815 49.2288 47.875 49.2288H46.8598C46.4532 49.2288 46.1238 49.5582 46.1238 49.9647V51.5191C44.4384 51.2143 43.1062 49.8823 42.801 48.1969L44.505 48.1989H44.5052H44.5059C44.9119 48.1989 45.2413 47.8699 45.2418 47.4638C45.2423 47.0573 44.9131 46.7275 44.5067 46.727H44.5067L42.8007 46.7251Z" fill="white" stroke="white" stroke-width="0.3"/>
</g>
<defs>
<clipPath id="clip0">
<rect width="40" height="40" fill="white" transform="translate(20 20)"/>
</clipPath>
</defs>
</svg>
