<svg width="80" height="80" viewBox="0 0 80 80" fill="none" xmlns="http://www.w3.org/2000/svg">
<circle cx="40" cy="40" r="40" fill="#2154D1"/>
<g clip-path="url(#clip0)">
<path d="M31.6988 60.0756L31.6989 60.0757C31.8079 60.1259 31.9233 60.15 32.0373 60.15C32.2991 60.15 32.5536 60.0227 32.7083 59.7936L32.5841 59.7096L32.7084 59.7936L48.6328 36.2212C48.8004 35.9731 48.8173 35.6528 48.6768 35.3884C48.5364 35.124 48.2614 34.9588 47.9621 34.9588H42.8616L49.7457 21.0176C49.7457 21.0176 49.7457 21.0176 49.7457 21.0176C49.8696 20.7668 49.855 20.4697 49.7074 20.2321C49.5597 19.9945 49.2998 19.85 49.02 19.85H37.3825C37.0335 19.85 36.7238 20.0737 36.6141 20.405L30.2113 39.7456C30.1296 39.9923 30.1714 40.2633 30.3236 40.4739C30.4757 40.6846 30.7198 40.8093 30.9797 40.8093H36.3192L31.2576 59.125C31.1519 59.5072 31.3388 59.9096 31.6988 60.0756ZM37.967 21.4687H47.7177L40.8335 35.4098C40.8335 35.4098 40.8335 35.4099 40.8335 35.4099C40.7097 35.6607 40.7241 35.9577 40.8717 36.1953C41.0194 36.433 41.2794 36.5775 41.5591 36.5775H46.4384L34.1348 54.7905L38.1626 40.2156L38.1627 40.2155C38.2299 39.9719 38.1796 39.7109 38.0265 39.5098C37.8735 39.3087 37.6352 39.1906 37.3825 39.1906H32.1001L37.967 21.4687Z" fill="white" stroke="white" stroke-width="0.3"/>
</g>
<defs>
<clipPath id="clip0">
<rect x="20" y="20" width="40" height="40" fill="white"/>
</clipPath>
</defs>
</svg>
