<svg width="80" height="80" viewBox="0 0 80 80" fill="none" xmlns="http://www.w3.org/2000/svg">
<circle cx="40" cy="40" r="40" fill="#2154D1"/>
<g clip-path="url(#clip0)">
<path d="M50 59.9998C49.89 59.9998 49.78 59.9781 49.6767 59.9348C49.28 59.7664 40 55.7564 40 47.5598V40.5948C40 40.2364 40.2283 39.9198 40.5667 39.8048L49.7333 36.7098C49.9067 36.6514 50.095 36.6514 50.2667 36.7098L59.4333 39.8048C59.7717 39.9181 60 40.2364 60 40.5948V47.5598C60 55.7564 50.72 59.7664 50.3233 59.9348C50.22 59.9781 50.11 59.9998 50 59.9998ZM41.6667 41.1948V47.5598C41.6667 53.8664 48.425 57.4898 50 58.2481C51.5733 57.4881 58.3333 53.8498 58.3333 47.5598V41.1948L50 38.3798L41.6667 41.1948Z" fill="white"/>
<path d="M49.1668 51.6664C49.1518 51.6664 49.1352 51.6664 49.1218 51.6648C48.8835 51.6514 48.6652 51.5398 48.5168 51.3531L45.1835 47.1864C44.8968 46.8264 44.9535 46.3031 45.3135 46.0148C45.6752 45.7314 46.1968 45.7881 46.4852 46.1448L49.2352 49.5831L54.4102 44.4098C54.7352 44.0848 55.2635 44.0848 55.5885 44.4098C55.9135 44.7348 55.9135 45.2631 55.5885 45.5881L49.7552 51.4214C49.6002 51.5781 49.3868 51.6664 49.1668 51.6664Z" fill="white"/>
<path d="M50.8333 33.3334H25.8333C22.6167 33.3334 20 30.7167 20 27.5001C20 24.2834 22.6167 21.6667 25.8333 21.6667H50.8333C54.05 21.6667 56.6667 24.2834 56.6667 27.5001C56.6667 30.7167 54.05 33.3334 50.8333 33.3334ZM25.8333 23.3334C23.535 23.3334 21.6667 25.2017 21.6667 27.5001C21.6667 29.7984 23.535 31.6667 25.8333 31.6667H50.8333C53.1317 31.6667 55 29.7984 55 27.5001C55 25.2017 53.1317 23.3334 50.8333 23.3334H25.8333Z" fill="white"/>
<path d="M27.5 30C26.1217 30 25 28.8783 25 27.5C25 26.1217 26.1217 25 27.5 25C28.8783 25 30 26.1217 30 27.5C30 28.8783 28.8783 30 27.5 30ZM27.5 26.6667C27.0417 26.6667 26.6667 27.0417 26.6667 27.5C26.6667 27.9583 27.0417 28.3333 27.5 28.3333C27.9583 28.3333 28.3333 27.9583 28.3333 27.5C28.3333 27.0417 27.9583 26.6667 27.5 26.6667Z" fill="white"/>
<path d="M35.833 30C34.4547 30 33.333 28.8783 33.333 27.5C33.333 26.1217 34.4547 25 35.833 25C37.2113 25 38.333 26.1217 38.333 27.5C38.333 28.8783 37.2113 30 35.833 30ZM35.833 26.6667C35.3747 26.6667 34.9997 27.0417 34.9997 27.5C34.9997 27.9583 35.3747 28.3333 35.833 28.3333C36.2913 28.3333 36.6663 27.9583 36.6663 27.5C36.6663 27.0417 36.2913 26.6667 35.833 26.6667Z" fill="white"/>
<path d="M35.8333 43.3334H25.8333C22.6167 43.3334 20 40.7167 20 37.5001C20 35.9434 20.6067 34.4801 21.71 33.3767C22.8133 32.2734 24.2767 31.6667 25.8333 31.6667H50.8333C52.1367 31.6667 53.365 32.0851 54.38 32.8767C54.7433 33.1601 54.8083 33.6834 54.525 34.0467C54.2417 34.4084 53.7183 34.4734 53.355 34.1917C52.635 33.6301 51.7633 33.3334 50.8333 33.3334H25.8333C24.7233 33.3334 23.6767 33.7684 22.8883 34.5551C22.1 35.3417 21.6667 36.3901 21.6667 37.5001C21.6667 39.7984 23.535 41.6667 25.8333 41.6667H35.8333C36.2933 41.6667 36.6667 42.0401 36.6667 42.5001C36.6667 42.9601 36.2933 43.3334 35.8333 43.3334Z" fill="white"/>
<path d="M27.5 40C26.1217 40 25 38.8783 25 37.5C25 36.1217 26.1217 35 27.5 35C28.8783 35 30 36.1217 30 37.5C30 38.8783 28.8783 40 27.5 40ZM27.5 36.6667C27.0417 36.6667 26.6667 37.0417 26.6667 37.5C26.6667 37.9583 27.0417 38.3333 27.5 38.3333C27.9583 38.3333 28.3333 37.9583 28.3333 37.5C28.3333 37.0417 27.9583 36.6667 27.5 36.6667Z" fill="white"/>
<path d="M35.833 40C34.4547 40 33.333 38.8783 33.333 37.5C33.333 36.1217 34.4547 35 35.833 35C37.2113 35 38.333 36.1217 38.333 37.5C38.333 38.8783 37.2113 40 35.833 40ZM35.833 36.6667C35.3747 36.6667 34.9997 37.0417 34.9997 37.5C34.9997 37.9583 35.3747 38.3333 35.833 38.3333C36.2913 38.3333 36.6663 37.9583 36.6663 37.5C36.6663 37.0417 36.2913 36.6667 35.833 36.6667Z" fill="white"/>
<path d="M35.8333 53.3334H25.8333C22.6167 53.3334 20 50.7167 20 47.5001C20 45.9434 20.6067 44.4801 21.71 43.3767C22.8133 42.2734 24.2767 41.6667 25.8333 41.6667H35.8333C36.2933 41.6667 36.6667 42.0401 36.6667 42.5001C36.6667 42.9601 36.2933 43.3334 35.8333 43.3334H25.8333C24.7233 43.3334 23.6767 43.7684 22.8883 44.5551C22.1 45.3417 21.6667 46.3901 21.6667 47.5001C21.6667 49.7984 23.535 51.6667 25.8333 51.6667H35.8333C36.2933 51.6667 36.6667 52.0401 36.6667 52.5001C36.6667 52.9601 36.2933 53.3334 35.8333 53.3334Z" fill="white"/>
<path d="M27.5 50C26.1217 50 25 48.8783 25 47.5C25 46.1217 26.1217 45 27.5 45C28.8783 45 30 46.1217 30 47.5C30 48.8783 28.8783 50 27.5 50ZM27.5 46.6667C27.0417 46.6667 26.6667 47.0417 26.6667 47.5C26.6667 47.9583 27.0417 48.3333 27.5 48.3333C27.9583 48.3333 28.3333 47.9583 28.3333 47.5C28.3333 47.0417 27.9583 46.6667 27.5 46.6667Z" fill="white"/>
<path d="M35.833 50C34.4547 50 33.333 48.8783 33.333 47.5C33.333 46.1217 34.4547 45 35.833 45C37.2113 45 38.333 46.1217 38.333 47.5C38.333 48.8783 37.2113 50 35.833 50ZM35.833 46.6667C35.3747 46.6667 34.9997 47.0417 34.9997 47.5C34.9997 47.9583 35.3747 48.3333 35.833 48.3333C36.2913 48.3333 36.6663 47.9583 36.6663 47.5C36.6663 47.0417 36.2913 46.6667 35.833 46.6667Z" fill="white"/>
</g>
<defs>
<clipPath id="clip0">
<rect width="40" height="40" fill="white" transform="translate(20 20)"/>
</clipPath>
</defs>
</svg>
