<svg width="80" height="80" viewBox="0 0 80 80" fill="none" xmlns="http://www.w3.org/2000/svg">
<circle cx="40" cy="40" r="40" fill="#2154D1"/>
<g clip-path="url(#clip0)">
<path d="M39.9999 20C32.5835 20 26.5498 26.0337 26.5498 33.4501C26.5498 38.1362 29.0066 42.4937 32.9912 44.9311L33.4213 48.1056C33.625 49.6079 34.8692 50.7409 36.3158 50.7409H43.684C45.1306 50.7409 46.3749 49.6079 46.5784 48.1056L47.0085 44.9311C50.9931 42.4937 53.4499 38.1361 53.4499 33.4501C53.45 26.0337 47.4163 20 39.9999 20ZM45.7255 43.5874C45.4795 43.7267 45.3128 43.9729 45.2748 44.253L44.7857 47.8626C44.7046 48.4621 44.2205 48.9317 43.684 48.9317H36.3158C35.7793 48.9317 35.2954 48.4621 35.2141 47.8625L34.725 44.2529C34.6871 43.9728 34.5204 43.7265 34.2743 43.5873C30.6256 41.5217 28.359 37.6373 28.359 33.45C28.3589 27.0312 33.581 21.8091 39.9999 21.8091C46.4188 21.8091 51.641 27.0312 51.641 33.4501C51.641 37.6374 49.3743 41.5218 45.7255 43.5874Z" fill="white"/>
<path d="M44.7371 51.7664H35.2624C34.7629 51.7664 34.3579 52.1713 34.3579 52.6709C34.3579 53.1705 34.7629 53.5754 35.2624 53.5754H44.7371C45.2367 53.5754 45.6416 53.1705 45.6416 52.6709C45.6416 52.1713 45.2367 51.7664 44.7371 51.7664Z" fill="white"/>
<path d="M43.59 54.6008H36.4094C35.9098 54.6008 35.5049 55.0058 35.5049 55.5054C35.5049 57.9838 37.5213 60.0002 39.9997 60.0002C42.4781 60.0002 44.4945 57.9838 44.4945 55.5054C44.4946 55.0058 44.0896 54.6008 43.59 54.6008ZM39.9998 58.1911C38.8361 58.1911 37.8428 57.4471 37.4707 56.4099H42.5288C42.1567 57.4471 41.1634 58.1911 39.9998 58.1911Z" fill="white"/>
<path d="M45.7327 33.9792C45.7327 33.9624 45.7326 33.9455 45.7316 33.9288C45.7309 33.9162 45.7294 33.9037 45.7282 33.8911C45.7266 33.8749 45.725 33.8587 45.7225 33.8427C45.7204 33.8288 45.7175 33.8152 45.7147 33.8014C45.7117 33.7871 45.7089 33.7726 45.7053 33.7584C45.7015 33.7433 45.6968 33.7284 45.6921 33.7134C45.6882 33.7008 45.6844 33.6881 45.6799 33.6757C45.6744 33.6604 45.6682 33.6455 45.6618 33.6304C45.6567 33.6183 45.6517 33.6062 45.6461 33.5943C45.6395 33.5804 45.6322 33.5666 45.6248 33.553C45.6178 33.5401 45.6108 33.5273 45.6032 33.5148C45.5961 33.5029 45.5884 33.4913 45.5806 33.4797C45.5713 33.4657 45.5617 33.4519 45.5516 33.4385C45.548 33.4337 45.5451 33.4287 45.5414 33.424C45.5371 33.4186 45.5324 33.4139 45.5281 33.4086C45.5169 33.395 45.5054 33.3817 45.4935 33.3688C45.4848 33.3594 45.4761 33.3502 45.4671 33.3412C45.4553 33.3295 45.4431 33.3181 45.4306 33.3069C45.4205 33.2979 45.4104 33.289 45.3999 33.2805C45.3879 33.2707 45.3755 33.2613 45.3629 33.2521C45.3512 33.2435 45.3395 33.2351 45.3274 33.2272C45.3153 33.2192 45.3028 33.2116 45.2903 33.2042C45.277 33.1963 45.2637 33.1887 45.2501 33.1816C45.238 33.1752 45.2256 33.1692 45.2131 33.1634C45.1983 33.1564 45.1833 33.1498 45.1681 33.1437C45.156 33.1388 45.1438 33.1343 45.1314 33.1298C45.1152 33.124 45.0989 33.1188 45.0824 33.114C45.0756 33.112 45.0693 33.1094 45.0624 33.1076C45.0564 33.1059 45.0505 33.1052 45.0445 33.1038C45.0287 33.0999 45.0127 33.0965 44.9967 33.0936C44.9824 33.0908 44.9682 33.0883 44.954 33.0862C44.9402 33.0843 44.9264 33.083 44.9124 33.0816C44.8962 33.0801 44.8801 33.0787 44.864 33.078C44.8517 33.0775 44.8393 33.0776 44.827 33.0776C44.8099 33.0776 44.7929 33.0777 44.7759 33.0787C44.7635 33.0794 44.7513 33.0808 44.739 33.082C44.7225 33.0836 44.706 33.0853 44.6896 33.0879C44.6763 33.0899 44.663 33.0927 44.6497 33.0955C44.6347 33.0984 44.6199 33.1014 44.6053 33.1051C44.5907 33.1088 44.5763 33.1134 44.5618 33.1178C44.5486 33.1219 44.5354 33.1258 44.5225 33.1305C44.5077 33.1359 44.4932 33.1419 44.4786 33.1481C44.466 33.1534 44.4535 33.1587 44.4411 33.1645C44.4275 33.1709 44.4141 33.178 44.4008 33.1853C44.3876 33.1924 44.3745 33.1996 44.3617 33.2073C44.3501 33.2144 44.3387 33.2218 44.3273 33.2294C44.3131 33.2388 44.2992 33.2486 44.2855 33.2588C44.2808 33.2623 44.2758 33.2652 44.2712 33.2689L42.414 34.7223L40.5568 33.2689C40.2293 33.0126 39.7693 33.0126 39.4418 33.2689L37.585 34.7222L35.728 33.2689C35.7233 33.2651 35.7183 33.2622 35.7135 33.2586C35.7001 33.2485 35.6863 33.2389 35.6723 33.2296C35.6607 33.2218 35.6491 33.2142 35.6373 33.2071C35.6247 33.1995 35.6119 33.1925 35.599 33.1855C35.5854 33.1781 35.5717 33.1709 35.5578 33.1643C35.5458 33.1586 35.5337 33.1535 35.5215 33.1485C35.5066 33.1421 35.4916 33.1359 35.4764 33.1304C35.4639 33.1258 35.4511 33.122 35.4385 33.1181C35.4235 33.1135 35.4087 33.1087 35.3937 33.1049C35.3794 33.1013 35.365 33.0984 35.3505 33.0955C35.3369 33.0927 35.3232 33.0898 35.3095 33.0878C35.2935 33.0852 35.2772 33.0837 35.261 33.0821C35.2484 33.0808 35.2359 33.0794 35.2234 33.0787C35.2066 33.0777 35.1899 33.0776 35.173 33.0776C35.1603 33.0776 35.1477 33.0775 35.1352 33.078C35.1193 33.0786 35.1033 33.08 35.0873 33.0815C35.0732 33.0828 35.0592 33.0842 35.0453 33.0861C35.0311 33.0881 35.017 33.0907 35.0028 33.0934C34.9867 33.0964 34.9707 33.0997 34.9549 33.1036C34.9489 33.105 34.943 33.1059 34.937 33.1074C34.9301 33.1092 34.9238 33.1118 34.917 33.1138C34.9005 33.1186 34.8843 33.1239 34.8681 33.1296C34.8557 33.134 34.8434 33.1385 34.8313 33.1435C34.8161 33.1495 34.8012 33.1561 34.7864 33.1631C34.7739 33.169 34.7615 33.175 34.7494 33.1814C34.7358 33.1885 34.7224 33.1961 34.7092 33.204C34.6967 33.2114 34.6843 33.219 34.6721 33.2271C34.6601 33.235 34.6483 33.2434 34.6366 33.252C34.6241 33.2612 34.6118 33.2705 34.5999 33.2802C34.5893 33.2888 34.579 33.2979 34.5688 33.307C34.5565 33.3181 34.5445 33.3292 34.5328 33.3409C34.5237 33.35 34.5148 33.3594 34.5059 33.369C34.4942 33.3817 34.4829 33.3947 34.4721 33.4081C34.4676 33.4135 34.4627 33.4183 34.4584 33.4238C34.4546 33.4286 34.4516 33.4337 34.4479 33.4386C34.4381 33.4518 34.4286 33.4653 34.4195 33.479C34.4116 33.4908 34.4038 33.5028 34.3964 33.5149C34.389 33.5271 34.3822 33.5397 34.3755 33.5522C34.368 33.5662 34.3604 33.5802 34.3538 33.5944C34.3482 33.606 34.3433 33.6178 34.3383 33.6297C34.3319 33.645 34.3254 33.6602 34.3198 33.6756C34.3154 33.6878 34.3117 33.7003 34.3078 33.7127C34.3031 33.7278 34.2984 33.7429 34.2945 33.7583C34.2909 33.7723 34.2881 33.7866 34.2852 33.8008C34.2824 33.8146 34.2794 33.8285 34.2773 33.8424C34.2749 33.8583 34.2732 33.8744 34.2716 33.8905C34.2704 33.9032 34.2689 33.9158 34.2682 33.9284C34.2672 33.9451 34.2671 33.9619 34.2671 33.9787C34.2671 33.9914 34.267 34.004 34.2675 34.0165C34.2681 34.0325 34.2695 34.0485 34.271 34.0645C34.2723 34.0785 34.2736 34.0924 34.2756 34.1064C34.2776 34.1206 34.2801 34.1348 34.2828 34.1491C34.2858 34.1651 34.2892 34.181 34.2931 34.1968C34.2945 34.2028 34.2953 34.2087 34.2969 34.2147L37.7781 47.235C37.8862 47.6394 38.2518 47.9061 38.6514 47.9061C38.7286 47.9061 38.8074 47.8961 38.8855 47.8751C39.3681 47.7461 39.6548 47.2503 39.5258 46.7676L36.7432 36.3602L37.0277 36.5829C37.1914 36.711 37.3883 36.7751 37.5852 36.7751C37.7821 36.7751 37.9789 36.711 38.1427 36.5829L39.9996 35.1296L41.8568 36.583C42.1843 36.8392 42.6442 36.8392 42.9718 36.583L43.2566 36.3601L40.4739 46.7677C40.3448 47.2503 40.6315 47.7461 41.1141 47.8752C41.1924 47.8961 41.271 47.9062 41.3483 47.9062C41.7478 47.9062 42.1135 47.6394 42.2215 47.2351L45.7028 34.2148C45.7044 34.2089 45.7052 34.203 45.7066 34.197C45.7105 34.181 45.7138 34.165 45.7169 34.1489C45.7196 34.1348 45.7222 34.1206 45.7242 34.1065C45.7262 34.0925 45.7275 34.0785 45.7288 34.0644C45.7303 34.0484 45.7317 34.0325 45.7323 34.0165C45.7328 34.0043 45.7328 33.9918 45.7327 33.9792Z" fill="white"/>
</g>
<defs>
<clipPath id="clip0">
<rect x="20" y="20" width="40" height="40" fill="white"/>
</clipPath>
</defs>
</svg>
