<svg width="14" height="14" viewBox="0 0 14 14" fill="none" xmlns="http://www.w3.org/2000/svg">
<g clip-path="url(#clip0)">
<path d="M13.911 6.72781C13.786 6.55672 10.8059 2.53857 6.99993 2.53857C3.19392 2.53857 0.213774 6.55672 0.08884 6.72764C-0.0296133 6.88996 -0.0296133 7.1101 0.08884 7.27242C0.213774 7.44351 3.19392 11.4616 6.99993 11.4616C10.8059 11.4616 13.786 7.44348 13.911 7.27255C14.0296 7.11027 14.0296 6.88996 13.911 6.72781ZM6.99993 10.5386C4.1964 10.5386 1.76824 7.87165 1.04946 6.9998C1.76731 6.12718 4.19038 3.46165 6.99993 3.46165C9.80333 3.46165 12.2313 6.1281 12.9504 7.00043C12.2326 7.87302 9.80948 10.5386 6.99993 10.5386Z" fill="#BCBCBC" stroke="#BCBCBC" stroke-width="0.2"/>
<path d="M7.00044 4.23071C5.47351 4.23071 4.2312 5.47302 4.2312 6.99996C4.2312 8.52689 5.47351 9.7692 7.00044 9.7692C8.52737 9.7692 9.76968 8.52689 9.76968 6.99996C9.76968 5.47302 8.52737 4.23071 7.00044 4.23071ZM7.00044 8.8461C5.98243 8.8461 5.1543 8.01794 5.1543 6.99996C5.1543 5.98197 5.98246 5.15381 7.00044 5.15381C8.01842 5.15381 8.84658 5.98197 8.84658 6.99996C8.84658 8.01794 8.01845 8.8461 7.00044 8.8461Z" fill="#BCBCBC" stroke="#BCBCBC" stroke-width="0.2"/>
</g>
<defs>
<clipPath id="clip0">
<rect width="14" height="14" fill="white"/>
</clipPath>
</defs>
</svg>
