<svg width="26" height="26" viewBox="0 0 26 26" fill="none" xmlns="http://www.w3.org/2000/svg">
<path d="M23.4731 17.875C22.5115 16.3613 21.3861 14.9581 20.1174 13.6906C20.0944 13.6618 20.0818 13.626 20.0818 13.5891C20.0818 13.5522 20.0944 13.5163 20.1174 13.4875C21.2092 11.9974 22.174 10.4183 23.0018 8.7669C23.1215 8.53059 23.1785 8.26744 23.1671 8.00277C23.1557 7.73809 23.0764 7.4808 22.9368 7.25565C22.8095 7.02681 22.6234 6.83611 22.3977 6.70327C22.172 6.57043 21.9149 6.50027 21.6531 6.50002H19.2156C18.9062 6.50602 18.6051 6.6002 18.3474 6.77147C18.0898 6.94275 17.8864 7.18401 17.7612 7.4669C17.0532 9.03272 16.2047 10.5311 15.2262 11.9438V7.96252C15.2273 7.77016 15.1902 7.5795 15.117 7.40158C15.0439 7.22365 14.9362 7.062 14.8002 6.92598C14.6642 6.78996 14.5026 6.68227 14.3246 6.60915C14.1467 6.53604 13.956 6.49895 13.7637 6.50002H10.2049C9.99776 6.50324 9.7954 6.56299 9.6197 6.67281C9.444 6.78263 9.30164 6.93836 9.20797 7.12318C9.11431 7.308 9.07291 7.51489 9.08823 7.72152C9.10356 7.92815 9.17503 8.12667 9.29493 8.29565L9.61993 8.75065C9.79426 9.00101 9.88782 9.2987 9.88806 9.60377V12.7238C8.81551 11.1371 7.96276 9.41245 7.35306 7.5969C7.24311 7.27697 7.03606 6.99933 6.76078 6.80271C6.4855 6.60608 6.15572 6.50026 5.81743 6.50002H3.82681C3.6153 6.50255 3.40709 6.55278 3.2177 6.64697C3.0283 6.74116 2.86261 6.87688 2.73296 7.04402C2.60332 7.21115 2.51306 7.40539 2.46893 7.61225C2.42479 7.81912 2.42791 8.03328 2.47806 8.23877C3.57493 12.8944 5.87431 16.7538 8.79118 18.8013C8.96599 18.9255 9.18281 18.9755 9.39437 18.9405C9.60592 18.9055 9.79506 18.7883 9.92056 18.6144C9.98331 18.5276 10.0283 18.4292 10.0529 18.3249C10.0774 18.2206 10.0811 18.1125 10.0638 18.0068C10.0464 17.901 10.0083 17.7998 9.95165 17.7089C9.895 17.6179 9.82092 17.5391 9.73368 17.4769C7.18243 15.6894 5.15118 12.285 4.11931 8.12502H5.82556C6.57325 10.3967 7.69953 12.5256 9.15681 14.4219C9.32524 14.6371 9.5572 14.7938 9.81975 14.8696C10.0823 14.9455 10.3621 14.9366 10.6193 14.8444C10.8833 14.7524 11.1116 14.5797 11.272 14.3508C11.4324 14.1218 11.5167 13.8483 11.5131 13.5688V9.60377C11.5148 9.08727 11.3863 8.57867 11.1393 8.12502H13.5768V12.5369C13.5739 12.8526 13.6749 13.1605 13.8644 13.413C14.0538 13.6656 14.3211 13.8488 14.6249 13.9344C14.9198 14.0325 15.2387 14.0308 15.5324 13.9294C15.8262 13.8281 16.0783 13.6328 16.2499 13.3738C17.404 11.7273 18.3894 9.96888 19.1912 8.12502H21.4662C20.6918 9.64771 19.7979 11.1066 18.7931 12.4881C18.5397 12.8271 18.4167 13.2459 18.4465 13.6681C18.4763 14.0902 18.657 14.4876 18.9556 14.7875C20.1406 15.9817 21.2072 17.2878 22.1406 18.6875H19.4187C18.579 17.2976 17.4514 16.1035 16.1118 15.1856C15.9108 15.0384 15.6726 14.9504 15.4241 14.9318C15.1756 14.9131 14.9269 14.9644 14.7062 15.08C14.4792 15.1962 14.2891 15.3732 14.157 15.5914C14.025 15.8095 13.9563 16.0601 13.9587 16.315V18.2488C13.9631 18.3617 13.923 18.4718 13.847 18.5554C13.771 18.639 13.6652 18.6893 13.5524 18.6956H12.8537C12.6382 18.6956 12.4315 18.7813 12.2792 18.9336C12.1268 19.086 12.0412 19.2927 12.0412 19.5081C12.0412 19.7236 12.1268 19.9303 12.2792 20.0827C12.4315 20.235 12.6382 20.3206 12.8537 20.3206H13.5524C13.822 20.3185 14.0885 20.2632 14.3366 20.1578C14.5848 20.0524 14.8097 19.8991 14.9984 19.7066C15.1871 19.5141 15.336 19.2862 15.4364 19.0361C15.5369 18.7859 15.5869 18.5183 15.5837 18.2488V16.8106C16.5611 17.5458 17.3885 18.4615 18.0212 19.5081C18.1609 19.7502 18.3606 19.9522 18.6012 20.0945C18.8417 20.2369 19.1149 20.3147 19.3943 20.3206H22.1406C22.4214 20.3213 22.6972 20.2462 22.9388 20.1032C23.1805 19.9602 23.3791 19.7546 23.5137 19.5081C23.6517 19.2566 23.7206 18.973 23.7135 18.6861C23.7064 18.3993 23.6234 18.1194 23.4731 17.875Z" fill="#555555" stroke="white" stroke-width="0.2"/>
</svg>
