<svg width="80" height="80" viewBox="0 0 80 80" fill="none" xmlns="http://www.w3.org/2000/svg">
<circle cx="40" cy="40" r="40" fill="#2154D1"/>
<g clip-path="url(#clip0)">
<path d="M59.2452 32.4018L57.9223 31.5059C58.1382 31.2932 58.2725 30.9979 58.2725 30.6716V28.1719C58.2725 27.5257 57.7468 27 57.1007 27H51.7238C51.0776 27 50.5519 27.5257 50.5519 28.1719V30.6715C50.5519 30.9978 50.6863 31.2931 50.9022 31.5058L49.6081 32.3822L48.3141 31.5058C48.5301 31.2931 48.6644 30.9978 48.6644 30.6715V28.1719C48.6644 27.5257 48.1386 27 47.4926 27H42.1157C41.4695 27 40.9438 27.5257 40.9438 28.1719V30.6715C40.9438 30.9978 41.0782 31.2931 41.294 31.5058L40 32.3822L38.7061 31.5059C38.922 31.2932 39.0563 30.9979 39.0563 30.6716V28.1719C39.0563 27.5257 38.5306 27 37.8844 27H32.5075C31.8614 27 31.3357 27.5257 31.3357 28.1719V30.6715C31.3357 30.9978 31.47 31.2931 31.686 31.5058L30.392 32.3822L29.0979 31.5058C29.3138 31.2931 29.4481 30.9978 29.4481 30.6715V28.1719C29.4481 27.5257 28.9224 27 28.2763 27H22.8993C22.2531 27 21.7275 27.5257 21.7275 28.1719V30.6715C21.7275 30.9978 21.8619 31.2931 22.0777 31.5058L20.7548 32.4018C20.2822 32.722 20 33.2539 20 33.8248V49.7236C20 51.0159 21.0513 52.0672 22.3435 52.0672H28.832C29.4306 52.0672 29.9773 51.8414 30.3919 51.4708C30.8065 51.8414 31.3531 52.0672 31.9517 52.0672H38.4402C39.0387 52.0672 39.5854 51.8414 40 51.4708C40.4147 51.8414 40.9612 52.0672 41.5598 52.0672H48.0483C48.6469 52.0672 49.1935 51.8414 49.6081 51.4708C50.0228 51.8414 50.5694 52.0672 51.168 52.0672H57.6565C58.9487 52.0672 60 51.0159 60 49.7236V33.8248C60.0001 33.2539 59.7179 32.722 59.2452 32.4018ZM23.29 28.5625H27.8856V30.2809H23.29V28.5625ZM21.5625 33.8246C21.5625 33.7728 21.5881 33.7245 21.6311 33.6954L23.5263 32.4119C23.7191 32.2813 23.8425 32.0724 23.8656 31.8433H27.3102C27.3332 32.0724 27.4566 32.2813 27.6495 32.4119L29.5445 33.6953C29.5785 33.7183 29.601 33.7533 29.6092 33.7924C29.6091 33.8032 29.6082 33.8138 29.6082 33.8246V35.5145H21.5625V33.8246ZM21.5625 37.0771H29.6081V47.1457H27.9979V43.518C27.9979 43.0866 27.6481 42.7367 27.2167 42.7367C26.7852 42.7367 26.4354 43.0866 26.4354 43.518V47.1457H21.5625V37.0771ZM28.832 50.5047H22.3435C21.9128 50.5047 21.5625 50.1543 21.5625 49.7236V48.7082H29.6081V49.7236C29.6081 49.7455 29.6092 49.7672 29.6098 49.7889C29.5765 50.189 29.2407 50.5047 28.832 50.5047ZM32.8982 28.5625H37.4938V30.2809H32.8982V28.5625ZM31.2392 33.6954L33.1343 32.4119C33.3272 32.2813 33.4506 32.0724 33.4736 31.8434H36.9183C36.9414 32.0725 37.0647 32.2813 37.2576 32.412L39.1527 33.6954C39.1865 33.7183 39.209 33.7534 39.2173 33.7925C39.2171 33.8033 39.2163 33.8139 39.2163 33.8247V35.5145H31.1756V33.8247C31.1756 33.8139 31.1749 33.8032 31.1746 33.7925C31.1829 33.7534 31.2054 33.7184 31.2392 33.6954ZM39.2163 37.0771V47.1457H31.1756V37.0771H39.2163ZM38.4402 50.5047H31.9517C31.543 50.5047 31.2073 50.189 31.1739 49.7889C31.1745 49.7672 31.1756 49.7455 31.1756 49.7236V48.7082H39.2162V49.7236C39.2162 49.7455 39.2173 49.7672 39.2179 49.7889C39.1846 50.189 38.8489 50.5047 38.4402 50.5047ZM42.5063 28.5625H47.1019V30.2809H42.5063V28.5625ZM40.8474 33.6954L42.7425 32.4119C42.9354 32.2813 43.0588 32.0724 43.0818 31.8433H46.5265C46.5496 32.0724 46.6729 32.2813 46.8658 32.4118L48.7609 33.6953V33.6953C48.7947 33.7182 48.8172 33.7533 48.8255 33.7924C48.8254 33.8032 48.8245 33.8138 48.8245 33.8247V35.5145H40.7837V33.8247C40.7837 33.8139 40.7829 33.8032 40.7827 33.7925C40.7911 33.7535 40.8136 33.7185 40.8474 33.6954ZM48.8244 37.0771V47.1457H40.7837V37.0771H48.8244ZM48.0484 50.5047H41.5599C41.1512 50.5047 40.8154 50.189 40.7821 49.7889C40.7826 49.7672 40.7837 49.7455 40.7837 49.7236V48.7082H48.8244V49.7236C48.8244 49.7455 48.8255 49.7672 48.8261 49.7889C48.7928 50.189 48.4571 50.5047 48.0484 50.5047ZM52.1144 28.5625H56.71V30.2809H52.1144V28.5625ZM58.4376 49.7236C58.4376 50.1543 58.0873 50.5047 57.6566 50.5047H51.168C50.7594 50.5047 50.4236 50.189 50.3902 49.7889C50.3908 49.7672 50.3919 49.7455 50.3919 49.7236V48.7082H58.4376V49.7236ZM58.4376 47.1457H56.8751V43.518C56.8751 43.0866 56.5252 42.7367 56.0938 42.7367C55.6624 42.7367 55.3126 43.0866 55.3126 43.518V47.1457H50.3919V37.0771H58.4376V47.1457ZM58.4377 35.5145H50.3919V33.8246C50.3919 33.8138 50.3912 33.8031 50.3909 33.7924C50.3992 33.7534 50.4217 33.7184 50.4555 33.6954L52.3507 32.4119C52.5436 32.2813 52.6669 32.0724 52.69 31.8433H56.1346C56.1577 32.0724 56.281 32.2813 56.4739 32.4119L58.369 33.6953C58.412 33.7245 58.4377 33.7727 58.4377 33.8246V35.5145Z" fill="white"/>
<path d="M48.7609 33.6953L46.8658 32.4118C46.6729 32.2813 46.5496 32.0724 46.5265 31.8433H43.0818C43.0588 32.0724 42.9354 32.2813 42.7425 32.4119L40.8474 33.6954C40.8136 33.7185 40.7911 33.7535 40.7827 33.7925C40.7829 33.8032 40.7837 33.8139 40.7837 33.8247V35.5145H48.8245V33.8247C48.8245 33.8138 48.8254 33.8032 48.8255 33.7924C48.8172 33.7533 48.7947 33.7182 48.7609 33.6953ZM48.7609 33.6953V33.6953ZM59.2452 32.4018L57.9223 31.5059C58.1382 31.2932 58.2725 30.9979 58.2725 30.6716V28.1719C58.2725 27.5257 57.7468 27 57.1007 27H51.7238C51.0776 27 50.5519 27.5257 50.5519 28.1719V30.6715C50.5519 30.9978 50.6863 31.2931 50.9022 31.5058L49.6081 32.3822L48.3141 31.5058C48.5301 31.2931 48.6644 30.9978 48.6644 30.6715V28.1719C48.6644 27.5257 48.1386 27 47.4926 27H42.1157C41.4695 27 40.9438 27.5257 40.9438 28.1719V30.6715C40.9438 30.9978 41.0782 31.2931 41.294 31.5058L40 32.3822L38.7061 31.5059C38.922 31.2932 39.0563 30.9979 39.0563 30.6716V28.1719C39.0563 27.5257 38.5306 27 37.8844 27H32.5075C31.8614 27 31.3357 27.5257 31.3357 28.1719V30.6715C31.3357 30.9978 31.47 31.2931 31.686 31.5058L30.392 32.3822L29.0979 31.5058C29.3138 31.2931 29.4481 30.9978 29.4481 30.6715V28.1719C29.4481 27.5257 28.9224 27 28.2763 27H22.8993C22.2531 27 21.7275 27.5257 21.7275 28.1719V30.6715C21.7275 30.9978 21.8619 31.2931 22.0777 31.5058L20.7548 32.4018C20.2822 32.722 20 33.2539 20 33.8248V49.7236C20 51.0159 21.0513 52.0672 22.3435 52.0672H28.832C29.4306 52.0672 29.9773 51.8414 30.3919 51.4708C30.8065 51.8414 31.3531 52.0672 31.9517 52.0672H38.4402C39.0387 52.0672 39.5854 51.8414 40 51.4708C40.4147 51.8414 40.9612 52.0672 41.5598 52.0672H48.0483C48.6469 52.0672 49.1935 51.8414 49.6081 51.4708C50.0228 51.8414 50.5694 52.0672 51.168 52.0672H57.6565C58.9487 52.0672 60 51.0159 60 49.7236V33.8248C60.0001 33.2539 59.7179 32.722 59.2452 32.4018ZM23.29 28.5625H27.8856V30.2809H23.29V28.5625ZM21.5625 33.8246C21.5625 33.7728 21.5881 33.7245 21.6311 33.6954L23.5263 32.4119C23.7191 32.2813 23.8425 32.0724 23.8656 31.8433H27.3102C27.3332 32.0724 27.4566 32.2813 27.6495 32.4119L29.5445 33.6953C29.5785 33.7183 29.601 33.7533 29.6092 33.7924C29.6091 33.8032 29.6082 33.8138 29.6082 33.8246V35.5145H21.5625V33.8246ZM21.5625 37.0771H29.6081V47.1457H27.9979V43.518C27.9979 43.0866 27.6481 42.7367 27.2167 42.7367C26.7852 42.7367 26.4354 43.0866 26.4354 43.518V47.1457H21.5625V37.0771ZM28.832 50.5047H22.3435C21.9128 50.5047 21.5625 50.1543 21.5625 49.7236V48.7082H29.6081V49.7236C29.6081 49.7455 29.6092 49.7672 29.6098 49.7889C29.5765 50.189 29.2407 50.5047 28.832 50.5047ZM32.8982 28.5625H37.4938V30.2809H32.8982V28.5625ZM31.2392 33.6954L33.1343 32.4119C33.3272 32.2813 33.4506 32.0724 33.4736 31.8434H36.9183C36.9414 32.0725 37.0647 32.2813 37.2576 32.412L39.1527 33.6954C39.1865 33.7183 39.209 33.7534 39.2173 33.7925C39.2171 33.8033 39.2163 33.8139 39.2163 33.8247V35.5145H31.1756V33.8247C31.1756 33.8139 31.1749 33.8032 31.1746 33.7925C31.1829 33.7534 31.2054 33.7184 31.2392 33.6954ZM39.2163 37.0771V47.1457H31.1756V37.0771H39.2163ZM38.4402 50.5047H31.9517C31.543 50.5047 31.2073 50.189 31.1739 49.7889C31.1745 49.7672 31.1756 49.7455 31.1756 49.7236V48.7082H39.2162V49.7236C39.2162 49.7455 39.2173 49.7672 39.2179 49.7889C39.1846 50.189 38.8489 50.5047 38.4402 50.5047ZM42.5063 28.5625H47.1019V30.2809H42.5063V28.5625ZM48.8244 37.0771V47.1457H40.7837V37.0771H48.8244ZM48.0484 50.5047H41.5599C41.1512 50.5047 40.8154 50.189 40.7821 49.7889C40.7826 49.7672 40.7837 49.7455 40.7837 49.7236V48.7082H48.8244V49.7236C48.8244 49.7455 48.8255 49.7672 48.8261 49.7889C48.7928 50.189 48.4571 50.5047 48.0484 50.5047ZM52.1144 28.5625H56.71V30.2809H52.1144V28.5625ZM58.4376 49.7236C58.4376 50.1543 58.0873 50.5047 57.6566 50.5047H51.168C50.7594 50.5047 50.4236 50.189 50.3902 49.7889C50.3908 49.7672 50.3919 49.7455 50.3919 49.7236V48.7082H58.4376V49.7236ZM58.4376 47.1457H56.8751V43.518C56.8751 43.0866 56.5252 42.7367 56.0938 42.7367C55.6624 42.7367 55.3126 43.0866 55.3126 43.518V47.1457H50.3919V37.0771H58.4376V47.1457ZM58.4377 35.5145H50.3919V33.8246C50.3919 33.8138 50.3912 33.8031 50.3909 33.7924C50.3992 33.7534 50.4217 33.7184 50.4555 33.6954L52.3507 32.4119C52.5436 32.2813 52.6669 32.0724 52.69 31.8433H56.1346C56.1577 32.0724 56.281 32.2813 56.4739 32.4119L58.369 33.6953C58.412 33.7245 58.4377 33.7727 58.4377 33.8246V35.5145Z" stroke="#2154D1" stroke-width="0.5"/>
<path d="M56.6464 40.4047C56.5011 40.2594 56.2995 40.1758 56.0941 40.1758C55.8886 40.1758 55.687 40.2593 55.5417 40.4047C55.3965 40.55 55.3128 40.7508 55.3128 40.957C55.3128 41.1625 55.3964 41.3641 55.5417 41.5093C55.687 41.6546 55.8886 41.7383 56.0941 41.7383C56.2995 41.7383 56.5011 41.6547 56.6464 41.5093C56.7916 41.3641 56.8753 41.1625 56.8753 40.957C56.8753 40.7516 56.7917 40.5499 56.6464 40.4047Z" fill="white" stroke="#2154D1" stroke-width="0.3"/>
<path d="M27.7689 40.4047C27.6237 40.2594 27.4221 40.1758 27.2167 40.1758C27.0112 40.1758 26.8096 40.2593 26.6643 40.4047C26.519 40.5501 26.4354 40.7516 26.4354 40.957C26.4354 41.1625 26.5189 41.3641 26.6643 41.5093C26.8096 41.6546 27.0112 41.7383 27.2167 41.7383C27.4221 41.7383 27.6237 41.6547 27.7689 41.5093C27.9142 41.3641 27.9979 41.1625 27.9979 40.957C27.9979 40.7516 27.9143 40.5499 27.7689 40.4047Z" fill="white" stroke="#2154D1" stroke-width="0.3"/>
</g>
<defs>
<clipPath id="clip0">
<rect width="40" height="40" fill="white" transform="translate(20 20)"/>
</clipPath>
</defs>
</svg>
