<svg width="634" height="634" viewBox="0 0 634 634" fill="none" xmlns="http://www.w3.org/2000/svg">
<path d="M97.0021 314.844C97.0021 314.844 83.8149 319.409 97.2557 347.559C110.697 375.708 120.207 389.783 120.207 389.783C120.207 389.783 122.489 396.25 117.037 397.138C111.584 398.025 99.6649 395.743 97.0021 402.336C94.3393 409.184 99.1577 415.777 109.175 421.864C119.192 427.823 140.621 441.771 142.523 443.039C144.425 444.307 146.327 447.35 142.65 448.492C138.973 449.633 111.965 451.788 113.74 464.468C115.515 477.275 146.074 489.321 149.497 490.716C152.794 492.111 153.555 493.506 153.301 495.408C152.921 497.183 143.791 497.056 136.183 497.944C128.575 498.831 119.826 501.24 121.475 508.468C123.123 515.696 141.002 531.419 185.382 536.998L206.05 538.266L217.843 521.021C240.793 482.601 239.398 458.889 234.707 453.056C230.015 447.35 222.661 452.676 217.335 458.128C211.883 463.581 206.431 470.935 204.782 470.048C203.134 469.16 202.5 467.638 203.387 464.215C204.402 460.791 213.658 429.218 204.655 419.962C195.652 410.705 177.393 430.74 174.223 432.895C171.053 435.051 169.785 431.627 170.039 429.472C170.293 427.189 172.448 401.702 173.97 390.164C175.365 378.625 173.209 370.636 166.108 368.608C159.261 366.579 153.682 377.357 149.751 381.161C145.693 384.965 142.016 379.132 142.016 379.132C142.016 379.132 136.817 363.028 122.869 335.006C108.921 306.983 97.0021 314.844 97.0021 314.844" fill="#74C1C7"/>
<path d="M207.065 543.338C196.921 522.796 179.422 485.898 164.333 454.324C149.244 422.751 135.422 394.221 125.405 373.553C120.333 363.282 116.276 354.913 113.486 349.08C112.091 346.164 110.95 344.008 110.189 342.487C109.809 341.726 109.555 341.219 109.302 340.712C109.175 340.331 109.048 340.078 109.048 340.078C109.048 340.078 109.175 340.204 109.428 340.712C109.682 341.092 109.936 341.726 110.316 342.36C111.077 343.882 112.218 346.164 113.613 348.954C116.529 354.66 120.714 363.028 125.786 373.299C135.93 393.841 149.751 422.371 164.967 453.944C180.183 485.517 197.554 522.416 207.572 543.084" fill="#396DAB"/>
<path d="M113.613 406.267C113.613 406.267 114.12 406.394 115.008 406.648C115.895 407.028 117.163 407.408 118.812 408.042C121.982 409.31 126.42 411.212 131.238 413.368C135.93 415.524 140.241 417.426 143.538 418.947C145.059 419.581 146.201 420.215 147.215 420.596C148.103 420.976 148.61 421.23 148.61 421.23C148.61 421.23 148.103 421.103 147.215 420.849C146.327 420.469 145.059 420.088 143.411 419.328C140.241 418.06 135.803 416.031 131.111 413.875C126.42 411.72 122.109 409.818 118.812 408.423C117.29 407.789 116.022 407.282 115.135 406.774C114.12 406.521 113.613 406.267 113.613 406.267Z" fill="#396DAB"/>
<path d="M150.004 420.088C149.878 419.962 153.301 410.832 157.739 399.547C162.177 388.262 165.854 379.132 166.108 379.259C166.235 379.386 162.811 388.515 158.373 399.8C153.935 411.086 150.258 420.088 150.004 420.088Z" fill="#396DAB"/>
<path d="M171.18 469.667C171.18 469.667 171.434 469.16 172.068 468.399C172.702 467.512 173.589 466.37 174.604 465.102C176.759 462.313 179.676 458.509 182.846 454.071C186.016 449.76 188.679 445.702 190.581 442.659C191.468 441.264 192.229 440.123 192.863 439.108C193.37 438.348 193.751 437.84 193.751 437.84C193.751 437.84 193.497 438.348 193.117 439.235C192.609 440.123 191.975 441.391 190.961 442.786C189.186 445.829 186.523 449.886 183.353 454.324C180.183 458.762 177.267 462.566 174.984 465.229C173.843 466.624 172.955 467.638 172.321 468.399C171.561 469.287 171.18 469.667 171.18 469.667Z" fill="#396DAB"/>
<path d="M135.423 464.342C135.423 464.342 135.93 464.342 136.817 464.342C137.832 464.468 139.1 464.595 140.621 464.722C143.791 465.102 148.356 465.61 153.175 466.37C158.12 467.004 162.558 467.638 165.728 468.146C167.249 468.399 168.517 468.653 169.532 468.78C170.419 468.906 170.927 469.033 170.927 469.033C170.927 469.033 170.419 469.033 169.532 469.033C168.517 468.906 167.249 468.78 165.728 468.653C162.558 468.272 157.993 467.765 153.175 467.004C148.229 466.37 143.791 465.736 140.621 465.229C139.1 464.976 137.832 464.722 136.817 464.595C135.93 464.595 135.423 464.468 135.423 464.342Z" fill="#396DAB"/>
<path d="M148.483 510.497C148.483 510.497 149.117 510.497 150.258 510.624C151.526 510.75 153.175 510.877 155.203 511.131C159.388 511.638 165.094 512.272 171.434 513.033C177.774 513.794 183.48 514.554 187.537 515.188C189.566 515.442 191.088 515.696 192.482 515.949C193.624 516.076 194.258 516.203 194.258 516.33C194.258 516.33 193.624 516.33 192.482 516.203C191.215 516.076 189.566 515.949 187.537 515.696C183.353 515.188 177.647 514.554 171.307 513.794C164.967 513.033 159.261 512.272 155.203 511.638C153.175 511.384 151.653 511.131 150.258 510.877C149.117 510.624 148.483 510.497 148.483 510.497Z" fill="#396DAB"/>
<path d="M193.116 515.696C193.116 515.696 193.497 515.062 194.131 514.047C194.892 512.906 195.906 511.511 197.174 509.736C199.71 506.059 203.387 501.114 207.064 495.408C210.868 489.702 214.165 484.503 216.448 480.699C217.589 478.924 218.476 477.402 219.237 476.261C219.871 475.246 220.252 474.612 220.378 474.612C220.378 474.612 220.125 475.246 219.491 476.388C218.857 477.529 217.969 479.05 216.828 480.952C214.546 484.756 211.376 490.082 207.572 495.788C203.768 501.494 200.09 506.439 197.428 509.99C196.033 511.765 195.018 513.16 194.131 514.174C193.624 515.188 193.243 515.696 193.116 515.696Z" fill="#E0E0E0"/>
<path d="M432.135 475.5C399.927 459.65 387.628 422.878 383.57 388.896C382.936 383.19 381.415 377.357 383.317 371.904C385.219 366.579 391.051 362.141 396.504 363.789C401.069 365.184 403.605 369.749 406.521 373.426C410.452 378.371 415.777 382.048 421.737 384.077C425.668 385.345 430.233 385.852 433.529 383.316C437.967 379.893 437.587 373.046 436.699 367.466C435.051 356.942 433.403 346.544 431.754 336.02C430.867 330.441 429.979 324.608 430.867 319.029C431.754 313.45 434.924 307.87 439.996 305.588C445.068 303.306 452.169 305.334 454.198 310.66C454.959 312.942 454.959 315.352 455.466 317.634C455.973 319.916 457.495 322.326 459.777 322.706C462.186 323.086 464.088 321.058 465.61 319.156C470.555 312.562 473.345 304.7 476.007 296.839C478.543 288.977 481.079 280.989 485.391 274.015C489.702 267.041 496.295 260.954 504.284 259.306C512.272 257.658 521.655 261.335 524.825 268.943C528.122 276.551 524.699 285.3 520.641 292.528C514.681 303.179 507.073 312.942 498.324 321.438C496.803 322.96 495.027 324.608 494.647 326.764C494.013 330.694 498.071 333.864 502.001 334.498C506.439 335.259 510.877 334.118 515.315 333.991C519.753 333.864 524.825 335.006 527.108 338.936C530.278 344.389 526.347 351.109 522.289 355.801C514.047 365.184 504.157 373.046 493.252 379.005C489.321 381.161 485.137 383.19 482.347 386.613C479.431 390.037 478.163 395.362 480.826 399.04C483.489 402.717 488.814 403.224 492.999 401.702C497.183 400.181 500.733 397.264 504.664 395.109C511.892 391.051 522.036 390.037 527.995 395.996C531.926 399.927 533.194 406.014 532.307 411.466C531.419 416.918 528.756 421.99 525.84 426.682C515.696 443.166 501.621 457.241 484.63 466.117C467.258 475.12 450.901 479.304 432.135 475.5Z" fill="#74C1C7"/>
<path d="M437.587 452.93C439.996 435.051 444.18 415.65 449.379 395.616C450.647 390.544 451.915 385.599 453.183 380.78C454.451 375.962 455.719 371.017 457.241 366.452C460.284 357.069 463.835 348.446 467.512 340.204C471.189 331.962 474.993 324.354 478.543 317.254C482.221 310.153 485.644 303.559 489.068 297.726C495.915 286.061 502.509 277.185 507.327 271.352C509.736 268.436 511.638 266.153 513.033 264.758C513.667 263.998 514.174 263.49 514.555 263.11C514.935 262.73 515.062 262.603 515.062 262.603C515.062 262.603 514.935 262.856 514.555 263.237C514.174 263.617 513.667 264.251 513.16 265.012C511.892 266.534 509.99 268.816 507.707 271.732C503.016 277.692 496.549 286.441 489.702 298.234C486.278 304.066 482.855 310.66 479.304 317.761C475.754 324.862 471.95 332.47 468.272 340.712C464.595 348.827 461.045 357.576 458.002 366.832C456.48 371.524 455.212 376.216 453.944 381.161C452.676 386.106 451.408 391.051 450.14 395.996C445.068 416.031 440.757 435.431 438.348 453.183" fill="#396DAB"/>
<path d="M457.621 366.325C457.494 366.325 457.241 365.564 456.734 364.043C456.226 362.521 455.466 360.366 454.705 357.576C453.056 352.124 451.028 344.389 448.872 336.02C446.716 327.524 444.561 319.916 442.786 314.591C441.898 311.928 441.264 309.646 440.757 308.124C440.25 306.602 439.996 305.715 440.123 305.715C440.25 305.715 440.503 306.476 441.137 307.997C441.771 309.519 442.532 311.674 443.546 314.337C445.448 319.79 447.731 327.271 449.886 335.766C452.042 344.135 453.944 351.616 455.466 357.449C456.1 359.985 456.734 362.268 457.241 364.043C457.494 365.438 457.621 366.198 457.621 366.325Z" fill="#396DAB"/>
<path d="M527.869 341.726C527.869 341.853 526.854 342.106 525.079 342.487C523.304 342.994 520.641 343.628 517.344 344.516C510.877 346.291 501.875 348.954 492.238 352.377C482.474 355.801 473.852 359.224 467.639 362.014C464.595 363.282 462.059 364.423 460.284 365.311C458.509 366.072 457.621 366.452 457.621 366.452C457.621 366.325 458.509 365.818 460.157 364.93C461.806 364.043 464.215 362.775 467.385 361.38C473.471 358.464 482.094 354.913 491.857 351.49C501.621 348.066 510.624 345.53 517.217 343.882C520.514 343.121 523.177 342.614 525.079 342.233C526.854 341.853 527.869 341.726 527.869 341.726Z" fill="#396DAB"/>
<path d="M438.348 451.408C438.348 451.408 438.094 451.154 437.714 450.647C437.333 450.013 436.699 449.126 436.065 448.238C434.671 446.082 432.642 443.039 430.359 439.108C425.668 431.374 419.328 420.469 412.734 408.296C406.014 396.123 399.927 385.218 395.363 377.357C393.08 373.553 391.305 370.383 389.91 368.1C389.276 367.086 388.896 366.198 388.389 365.564C388.008 364.93 387.881 364.677 387.881 364.677C387.881 364.677 388.135 364.93 388.515 365.438C388.896 366.072 389.53 366.832 390.164 367.847C391.559 370.002 393.587 373.046 395.87 376.976C400.561 384.711 406.901 395.616 413.495 407.789C420.215 419.962 426.302 430.866 430.867 438.728C433.149 442.532 434.924 445.702 436.319 447.984C436.953 448.999 437.333 449.886 437.841 450.52C438.221 451.154 438.348 451.408 438.348 451.408Z" fill="#396DAB"/>
<path d="M529.77 405.887C529.77 405.887 529.517 406.14 528.883 406.394C528.122 406.774 527.234 407.155 526.22 407.789C523.811 409.057 520.514 410.705 516.456 412.734C508.214 416.918 496.802 422.751 484.376 429.218C471.823 435.685 460.411 441.518 452.042 445.448C447.858 447.477 444.434 448.999 442.152 450.013C441.01 450.52 440.123 450.901 439.362 451.154C438.728 451.408 438.348 451.535 438.348 451.535C438.348 451.535 438.601 451.281 439.235 451.028C439.996 450.647 440.884 450.267 441.898 449.633C444.307 448.365 447.604 446.716 451.662 444.688C459.904 440.503 471.316 434.67 483.742 428.204C496.295 421.737 507.707 416.031 516.076 411.973C520.26 409.944 523.684 408.423 525.966 407.408C527.108 406.901 527.995 406.521 528.756 406.267C529.39 405.887 529.77 405.76 529.77 405.887Z" fill="#396DAB"/>
<path d="M141.509 91.1692C146.581 90.2816 151.906 92.0568 155.964 95.2268C160.022 98.3968 163.065 102.708 165.347 107.273C169.785 116.149 170.419 127.688 169.658 137.578C158.754 135.93 150.258 126.42 146.2 121.221C139.86 113.232 133.394 94.5928 141.509 91.1692Z" fill="#74C1C7"/>
<path d="M186.65 146.2C182.465 142.27 181.07 135.803 182.592 130.224C184.114 124.644 188.298 120.08 193.37 117.29C195.652 116.022 198.569 115.134 200.978 116.149C203.26 117.036 204.655 119.572 204.909 122.108C205.162 124.644 204.402 127.054 203.26 129.336C199.71 137.071 194.892 143.791 186.65 146.2Z" fill="#74C1C7"/>
<path d="M190.834 170.8C190.707 170.8 189.693 168.517 188.298 164.713C187.664 162.811 187.03 160.402 186.777 157.739C186.523 155.076 186.143 152.16 186.269 148.99C186.396 142.65 188.171 137.071 190.2 133.52C191.215 131.745 192.229 130.477 192.99 129.59C193.751 128.702 194.258 128.322 194.258 128.448C194.385 128.575 192.609 130.35 190.834 133.901C188.932 137.451 187.411 142.904 187.284 148.99C187.157 152.033 187.537 154.95 187.791 157.612C188.045 160.275 188.425 162.558 189.059 164.46C190.2 168.39 190.961 170.673 190.834 170.8Z" fill="#396DAB"/>
<path d="M147.722 104.99C147.722 104.99 148.483 105.878 149.751 107.653C151.019 109.428 152.794 111.838 155.076 115.008C159.514 121.221 165.474 129.97 171.941 139.734C178.408 149.497 183.86 158.5 187.791 165.094C189.693 168.39 191.214 171.053 192.356 172.955C193.37 174.857 193.877 175.872 193.877 175.872C193.75 175.872 193.116 174.984 191.975 173.082C190.707 171.053 189.059 168.517 187.157 165.347C183.099 158.88 177.393 149.878 171.053 140.114C164.586 130.477 158.88 121.728 154.442 115.261C152.414 112.218 150.765 109.682 149.37 107.653C148.229 106.005 147.595 104.99 147.722 104.99Z" fill="#396DAB"/>
<path d="M178.154 156.218C168.898 148.356 155.71 145.44 144.045 148.61C141.002 149.37 137.705 151.146 137.325 154.189C136.944 157.232 139.734 159.768 142.523 161.163C153.935 167.249 168.898 165.474 178.534 156.978" fill="#74C1C7"/>
<path d="M151.272 154.062C151.272 153.935 151.906 153.808 152.921 153.682C154.062 153.428 155.584 153.301 157.612 153.048C161.543 152.794 167.249 152.54 173.336 154.442C176.379 155.33 179.042 156.725 181.197 158.373C183.353 159.895 185.001 161.797 186.269 163.318C187.537 164.967 188.425 166.362 188.805 167.376C189.312 168.39 189.566 168.898 189.566 169.024C189.312 169.151 188.171 166.869 185.635 163.952C184.367 162.431 182.719 160.782 180.563 159.261C178.408 157.739 175.872 156.471 172.955 155.584C167.249 153.808 161.543 153.935 157.612 153.935C153.682 153.935 151.272 154.189 151.272 154.062Z" fill="#396DAB"/>
<path d="M496.549 188.805L460.284 178.154C456.987 177.14 455.085 173.716 455.973 170.292L466.624 134.028C467.639 130.731 471.062 128.829 474.486 129.716L510.751 140.368C514.047 141.382 515.949 144.806 515.062 148.229L504.411 184.494C503.396 187.918 499.846 189.82 496.549 188.805Z" fill="#48D1EC"/>
<path d="M496.549 173.843C496.549 173.843 496.549 173.716 496.676 173.462C496.803 173.209 496.803 172.702 496.929 172.321C497.183 171.307 497.563 169.785 498.071 167.883C499.085 164.079 500.607 158.627 502.382 152.16L502.509 152.414C494.52 150.131 484.883 147.342 474.486 144.425C474.359 144.425 475.247 144.045 474.866 144.172V144.298V144.425L474.739 144.806L474.486 145.566L474.105 146.961C473.852 147.976 473.598 148.863 473.345 149.878C472.837 151.78 472.33 153.682 471.696 155.457C470.682 159.134 469.667 162.558 468.653 165.728L468.526 165.347C476.768 167.756 483.742 169.785 488.687 171.307C491.097 172.068 492.999 172.575 494.393 173.082C495.027 173.336 495.535 173.462 495.915 173.589C496.422 173.716 496.549 173.843 496.549 173.843C496.549 173.843 496.422 173.843 496.042 173.716C495.661 173.589 495.154 173.462 494.52 173.336C493.125 172.955 491.223 172.448 488.814 171.814C483.742 170.419 476.768 168.39 468.399 166.108L468.146 165.981L468.273 165.728C469.16 162.431 470.175 159.007 471.189 155.457C471.696 153.682 472.203 151.78 472.837 149.878C473.091 148.99 473.345 147.976 473.598 146.961L473.979 145.566L474.232 144.806L474.359 144.425V144.298V144.172C473.979 144.298 474.866 143.918 474.739 143.918C485.137 146.961 494.774 149.751 502.762 152.033L503.016 152.16L502.889 152.414C500.987 158.88 499.339 164.333 498.197 168.137C497.69 169.912 497.183 171.434 496.929 172.448C496.803 172.955 496.676 173.336 496.549 173.589C496.676 173.716 496.549 173.843 496.549 173.843Z" fill="#333333"/>
<path d="M485.264 142.65C485.264 142.65 486.151 142.777 487.8 143.157C489.321 143.538 491.604 144.172 494.266 144.932H494.393V145.059C494.774 146.581 495.281 148.229 495.661 149.878L495.788 150.385L495.281 150.258C494.393 150.004 493.506 149.751 492.618 149.497C488.18 148.229 484.122 147.088 481.206 146.2L480.826 146.074L481.079 145.82C483.615 143.664 485.264 142.523 485.264 142.65C485.264 142.65 484.883 142.904 484.249 143.538C483.488 144.298 482.601 145.186 481.46 146.2L481.333 145.82C484.249 146.581 488.307 147.722 492.745 148.99C493.632 149.244 494.52 149.497 495.408 149.751L495.027 150.131C494.647 148.356 494.14 146.708 493.759 145.313L493.886 145.566C491.223 144.806 489.068 144.172 487.546 143.664C486.151 143.03 485.264 142.777 485.264 142.65Z" fill="#333333"/>
<path d="M490.843 162.558C490.843 162.558 491.096 162.05 491.477 161.036C491.857 160.022 492.111 158.5 491.477 156.725C490.97 154.95 489.321 153.048 487.039 152.54C484.757 151.906 481.713 152.667 480.065 155.076C478.417 157.359 478.67 160.529 480.065 162.431C481.46 164.46 483.742 165.347 485.517 165.22C487.419 165.22 488.814 164.333 489.575 163.699C490.463 163.065 490.843 162.558 490.843 162.558C490.843 162.558 490.843 162.684 490.589 162.938C490.462 163.192 490.209 163.445 489.828 163.826C489.068 164.586 487.673 165.474 485.644 165.601C483.742 165.728 481.206 164.84 479.685 162.684C478.924 161.67 478.417 160.275 478.417 158.88C478.417 157.486 478.797 155.964 479.685 154.696C480.572 153.428 481.84 152.54 483.235 152.16C484.63 151.653 486.024 151.653 487.292 152.033C489.828 152.794 491.477 154.823 491.984 156.725C492.491 158.627 492.111 160.275 491.73 161.29C491.477 161.797 491.35 162.177 491.096 162.431C490.97 162.431 490.843 162.558 490.843 162.558Z" fill="#333333"/>
<path d="M171.687 273.761L118.431 285.173C114.12 286.061 109.809 283.271 108.794 278.96L97.3825 225.704C96.4949 221.393 99.2845 217.082 103.596 216.067L156.852 204.655C161.163 203.768 165.474 206.557 166.488 210.868L177.9 264.124C178.915 268.562 176.125 272.874 171.687 273.761Z" fill="#48D1EC"/>
<path d="M128.068 228.747C128.068 228.747 128.448 228.874 129.336 229.254C130.224 229.635 131.365 230.269 132.886 230.903L133.013 231.03L132.886 231.156C131.745 233.312 130.097 236.228 128.322 239.652L128.195 239.272C132.886 242.315 138.846 246.119 145.44 250.43L144.932 250.557C146.454 248.021 147.976 245.358 149.624 242.568L149.751 242.315L150.004 242.442C152.16 242.949 154.316 243.71 156.344 244.851C158.373 245.992 160.402 247.387 161.543 249.796C161.797 250.43 162.05 250.937 162.05 251.571L162.177 252.586L162.05 253.6C162.05 254.234 161.797 254.868 161.67 255.502C161.543 256.136 161.29 256.643 160.909 257.277C159.768 259.56 157.866 261.462 155.33 262.476C152.921 263.49 150.258 263.744 147.722 263.237C146.454 262.983 145.313 262.603 144.172 261.969C143.03 261.335 142.143 260.701 141.002 260.067C136.944 257.531 133.14 254.995 129.463 252.712C125.786 250.303 122.235 248.148 118.938 245.992C118.178 245.485 117.29 244.978 116.529 244.47C115.768 243.963 114.881 243.456 114.247 242.822C112.852 241.554 112.091 239.779 111.964 238.004C111.838 234.58 113.613 231.664 115.768 230.015C117.924 228.367 120.206 227.733 122.108 227.606C124.01 227.479 125.405 227.86 126.293 228.24C126.8 228.367 127.054 228.62 127.307 228.747C127.941 228.747 128.068 228.747 128.068 228.747C128.068 228.874 126.166 227.606 122.489 227.733C120.714 227.86 118.431 228.494 116.402 230.142C114.5 231.79 112.725 234.58 112.852 237.75C112.852 239.398 113.613 240.92 115.008 242.061C115.642 242.695 116.402 243.076 117.163 243.583C117.924 244.09 118.812 244.597 119.572 245.104C122.869 247.133 126.42 249.416 130.097 251.698C133.774 253.98 137.705 256.516 141.636 259.052C142.65 259.686 143.664 260.32 144.679 260.954C145.693 261.462 146.834 261.842 147.976 262.096C150.258 262.603 152.794 262.349 155.076 261.335C157.359 260.32 159.134 258.545 160.148 256.516C160.402 256.009 160.656 255.502 160.782 254.868C160.909 254.361 161.163 253.727 161.163 253.22L161.29 252.332L161.163 251.444C161.163 250.937 160.909 250.43 160.656 249.796C159.641 247.767 157.739 246.372 155.837 245.231C153.935 244.09 151.78 243.329 149.751 242.822L150.131 242.695C148.483 245.485 146.961 248.148 145.44 250.557L145.186 250.937L144.932 250.684C138.339 246.372 132.506 242.442 127.814 239.398L127.561 239.272L127.688 239.018C129.59 235.594 131.238 232.805 132.506 230.649L132.633 230.903C131.111 230.142 129.97 229.508 129.209 229.128C128.448 229.001 128.068 228.747 128.068 228.747Z" fill="#333333"/>
<path d="M146.201 237.877C146.074 237.877 145.44 235.341 144.806 232.298C144.172 229.128 143.791 226.592 144.045 226.592C144.172 226.592 144.806 229.128 145.44 232.171C146.074 235.214 146.327 237.877 146.201 237.877Z" fill="#333333"/>
<path d="M150.892 230.903C150.892 231.03 148.356 231.79 145.186 232.424C142.016 233.058 139.353 233.566 139.227 233.312C139.1 233.185 141.763 232.424 144.933 231.79C148.229 231.156 150.892 230.776 150.892 230.903Z" fill="#333333"/>
<path d="M361.146 399.804L363.928 421.832L397.55 393.079L415.868 397.485C415.868 397.485 396.854 437.367 381.782 453.135C366.711 468.902 358.595 471.221 353.03 471.453C345.146 471.685 341.668 462.41 341.668 462.41L338.19 407.455L361.146 399.804Z" fill="#FAD9C8"/>
<path d="M363.928 421.368C363.696 421.368 362.537 423.687 361.609 426.933C360.682 430.179 360.682 432.962 360.914 432.962C361.146 432.962 361.609 430.411 362.537 427.165C363.233 423.919 364.16 421.368 363.928 421.368Z" fill="#995037"/>
<path d="M401.028 337.198H426.302C430.244 337.198 433.49 341.603 432.099 345.313L406.593 394.934C405.665 396.789 403.578 398.181 401.491 398.181H370.652C367.174 397.717 365.783 393.775 367.174 391.688L391.753 342.995C393.608 339.516 397.086 337.198 401.028 337.198Z" fill="#455A64"/>
<path d="M402.651 340.212H427.925C431.171 340.212 433.258 343.458 431.635 346.473L406.824 394.934C405.897 396.789 403.81 398.18 401.723 398.18H371.116C369.261 398.18 368.101 396.326 368.797 394.471L393.376 345.777C395.231 342.299 398.709 340.212 402.651 340.212Z" fill="#263238"/>
<path d="M404.738 360.617L420.273 366.877L423.519 379.399L416.099 397.949L388.738 401.89L396.622 393.775L395.695 386.587C395.695 386.587 388.043 384.268 387.811 383.109C387.579 381.949 388.738 378.007 389.898 377.776C391.057 377.544 398.941 380.558 398.941 380.558C398.941 380.558 389.434 373.138 389.666 371.979C389.898 370.819 391.057 367.805 392.912 367.341C394.767 367.109 410.071 374.066 410.071 374.066L412.621 379.631L414.708 370.587C414.94 370.587 401.491 366.646 404.738 360.617Z" fill="#FAD9C8"/>
<path d="M402.882 389.601C402.882 389.601 403.346 389.137 403.346 387.978C403.578 387.051 403.346 385.659 402.882 384.036C402.419 382.645 401.491 381.486 400.796 380.79C400.1 380.094 399.404 379.862 399.404 379.862C399.172 380.094 401.259 381.486 402.187 384.268C403.114 387.282 402.651 389.601 402.882 389.601Z" fill="#995037"/>
<path d="M410.071 387.05C410.071 387.05 409.607 385.659 409.375 383.109C409.144 381.949 409.144 380.326 408.68 378.703C408.448 377.776 407.984 377.08 407.289 376.384C406.593 375.689 405.665 375.225 404.738 374.761C401.028 373.37 397.782 372.442 395.231 371.515C392.912 370.819 391.289 370.356 391.289 370.356C391.289 370.356 392.681 371.051 394.999 371.979C397.318 372.906 400.796 374.066 404.274 375.457C405.202 375.921 405.897 376.152 406.593 376.848C407.289 377.544 407.52 378.239 407.984 378.935C408.448 380.558 408.68 381.949 408.912 383.109C409.375 385.659 410.071 387.05 410.071 387.05Z" fill="#995037"/>
<path d="M413.78 384.268C414.012 384.268 414.012 382.877 413.78 381.254C413.548 379.631 413.085 378.239 412.853 378.239C412.621 378.239 412.621 379.631 412.853 381.254C413.085 382.877 413.548 384.268 413.78 384.268Z" fill="#995037"/>
<path d="M410.998 352.733C412.791 352.733 414.244 351.28 414.244 349.487C414.244 347.694 412.791 346.241 410.998 346.241C409.205 346.241 407.752 347.694 407.752 349.487C407.752 351.28 409.205 352.733 410.998 352.733Z" fill="#FAFAFA"/>
<path d="M319.408 218.942C327.988 242.129 337.494 266.708 357.204 281.548C354.653 282.244 351.871 281.78 349.552 280.389C353.957 287.345 358.363 294.533 360.45 302.417C362.769 310.3 362.537 319.343 358.131 326.3C357.667 325.372 356.972 324.445 356.508 323.749C361.377 340.676 353.726 360.385 338.654 369.428C332.161 373.37 323.35 375.225 317.089 371.051C312.22 367.805 309.901 362.008 307.814 356.675C294.83 321.43 281.845 286.185 268.628 250.941C264.918 241.202 261.208 230.768 263.063 220.333C265.15 208.739 274.656 198.769 286.25 196.218C297.844 193.668 310.829 198.769 317.553 208.276" fill="#263238"/>
<path d="M342.132 348.791C342.132 348.791 342.364 348.56 342.828 348.096C343.292 347.632 343.756 346.936 344.451 346.009C345.842 344.154 347.466 341.14 348.393 337.198C349.321 333.256 349.784 328.386 349.089 322.821C348.393 317.488 346.538 311.692 344.219 305.895C341.669 300.098 338.886 294.997 336.567 290.127C334.249 285.258 332.162 280.852 330.771 277.142C329.379 273.432 328.684 270.186 328.22 267.867C327.756 265.549 327.756 264.389 327.524 264.389C327.524 264.389 327.524 264.621 327.524 265.317C327.524 266.012 327.756 266.708 327.756 267.867C327.988 270.186 328.916 273.432 330.075 277.142C331.466 281.084 333.321 285.49 335.64 290.359C337.959 295.228 340.741 300.33 343.292 306.127C345.842 311.692 347.466 317.488 348.161 322.821C348.857 328.155 348.393 333.024 347.466 336.966C346.538 340.908 344.915 343.922 343.756 345.777C343.06 347.864 342.132 348.791 342.132 348.791Z" fill="#455A64"/>
<path d="M293.439 205.725C311.061 206.653 324.974 221.029 324.974 238.651C324.974 252.332 324.742 267.172 323.814 275.983C321.727 296.388 306.424 299.866 306.424 299.866C306.424 299.866 306.887 312.619 307.583 324.676C308.279 336.27 298.772 346.241 286.482 347.168C274.425 348.096 263.991 339.748 263.063 328.386L258.889 240.042C257.962 220.797 273.961 205.029 293.439 205.725Z" fill="#FAD9C8"/>
<path d="M317.553 246.767C317.785 248.158 316.626 249.317 315.235 249.549C313.843 249.781 312.452 248.622 312.452 247.462C312.22 246.071 313.38 244.912 314.771 244.68C316.162 244.448 317.553 245.376 317.553 246.767Z" fill="#263238"/>
<path d="M320.104 243.752C319.872 244.216 317.785 242.825 315.003 243.057C312.22 243.289 310.133 244.68 309.901 244.448C309.67 244.216 310.133 243.752 310.829 243.057C311.756 242.361 313.148 241.666 314.771 241.434C316.626 241.434 318.017 241.897 318.944 242.593C320.104 242.825 320.336 243.521 320.104 243.752Z" fill="#263238"/>
<path d="M288.569 249.317C288.801 250.709 287.642 251.868 286.25 252.1C284.859 252.332 283.468 251.172 283.468 250.013C283.236 248.622 284.395 247.462 285.787 247.231C287.178 246.767 288.337 247.926 288.569 249.317Z" fill="#263238"/>
<path d="M291.119 246.303C290.888 246.767 288.801 245.376 286.018 245.607C283.236 245.839 281.149 247.231 280.917 246.999C280.685 246.767 281.149 246.303 281.844 245.607C282.772 244.912 284.163 244.216 285.786 243.984C287.641 243.984 289.033 244.448 289.96 245.144C290.888 245.607 291.119 246.303 291.119 246.303Z" fill="#263238"/>
<path d="M302.482 266.476C302.482 266.244 304.105 266.012 306.888 265.317C307.583 265.085 308.279 265.085 308.279 264.621C308.511 264.157 308.047 263.23 307.583 262.534C306.888 260.911 305.96 259.056 305.033 257.201C301.554 249.549 299.236 243.289 299.468 243.289C299.699 243.057 302.714 249.085 306.192 256.737C307.119 258.592 307.815 260.447 308.511 262.07C308.743 262.766 309.438 263.694 308.974 264.853C308.743 265.317 308.279 265.78 307.815 266.012C307.351 266.244 306.888 266.244 306.656 266.244C304.105 266.708 302.482 266.708 302.482 266.476Z" fill="#263238"/>
<path d="M306.424 300.098C306.424 300.098 292.743 301.257 278.599 294.069C278.599 294.069 286.25 308.677 306.655 305.895L306.424 300.098Z" fill="#995037"/>
<path d="M281.845 238.651C282.077 239.115 284.163 238.187 286.714 237.724C289.265 237.028 291.352 237.028 291.583 236.332C291.815 235.869 289.265 234.941 286.25 235.637C283.236 236.332 281.381 238.187 281.845 238.651Z" fill="#263238"/>
<path d="M309.438 233.55C309.67 234.014 311.988 234.014 314.539 234.014C317.321 234.014 319.64 234.245 319.64 233.55C319.872 233.086 317.553 231.927 314.539 231.927C311.757 231.927 309.438 233.086 309.438 233.55Z" fill="#263238"/>
<path d="M230.137 330.241C230.137 330.241 237.325 315.865 232.92 303.112C228.514 290.359 230.137 280.62 236.63 275.519C241.267 272.041 241.731 266.012 241.267 261.375C240.572 253.491 240.572 245.839 241.731 238.187C243.586 227.057 246.832 215.232 253.557 206.653C262.136 195.291 277.903 184.856 290.888 190.653C296.917 193.436 299.931 193.204 306.424 198.769C306.424 198.769 312.221 199.233 315.235 199.696C325.901 201.319 332.626 212.681 334.017 221.029C336.799 240.274 326.365 245.607 325.206 258.592C325.206 258.592 323.351 231.463 320.8 224.507C318.017 216.391 310.366 212.449 310.366 212.449C302.482 213.145 299.468 217.783 297.149 225.202C294.598 232.622 293.207 238.651 286.946 243.289C281.15 247.926 276.976 255.346 266.078 251.636C266.078 251.636 262.831 257.897 263.991 264.621C265.15 271.345 272.57 272.969 270.715 284.33C268.86 295.46 262.136 304.735 262.136 308.909" fill="#263238"/>
<path d="M299.003 273.2C298.076 272.273 296.685 271.577 295.061 272.041C294.134 272.273 292.975 272.737 292.511 273.664C292.047 274.592 291.815 275.751 292.511 276.447C293.206 277.374 294.598 277.374 295.525 276.91C296.685 276.447 297.612 275.751 298.308 274.823C298.54 274.592 298.771 274.36 299.003 274.128C299.235 273.896 299.467 273.432 299.003 273.2Z" fill="#995037"/>
<path d="M292.975 269.722C293.439 269.722 293.439 272.273 295.757 273.896C298.076 275.519 300.627 275.055 300.859 275.287C300.859 275.519 300.395 275.751 299.235 275.983C298.076 276.215 296.453 275.983 295.062 274.824C293.671 273.896 292.975 272.505 292.743 271.345C292.511 270.418 292.743 269.722 292.975 269.722Z" fill="#263238"/>
<path d="M251.933 208.507C247.528 215.232 244.049 220.565 238.948 226.362C233.847 231.927 228.746 238.419 228.282 246.071C228.05 251.636 230.369 257.433 228.05 262.534C226.195 266.94 221.558 269.258 218.08 272.505C212.051 278.302 209.5 287.577 211.819 295.46C213.21 300.561 216.688 305.663 215.529 310.764C214.601 315.401 210.196 318.648 209.036 323.053C207.877 327.227 209.5 331.864 211.355 335.806C214.37 341.835 218.543 348.328 225.268 349.719C229.673 350.646 234.543 349.255 238.253 346.473C241.963 343.69 244.745 339.98 246.832 335.806C251.238 328.154 253.788 319.343 254.716 310.532C255.643 299.866 254.02 289.431 253.093 278.765C251.238 259.288 251.238 239.81 253.093 220.565C253.556 216.391 255.411 211.754 251.933 208.507Z" fill="#263238"/>
<path d="M270.483 254.882C270.483 253.491 267.005 251.172 265.613 251.172C262.599 251.172 257.498 252.795 257.498 261.375C257.498 273.664 269.092 269.954 269.092 269.722C269.092 269.258 270.715 259.52 270.483 254.882Z" fill="#FAD9C8"/>
<path d="M266.078 264.853C266.078 264.853 265.846 265.085 265.614 265.085C265.15 265.317 264.686 265.317 263.991 265.085C262.599 264.621 261.672 262.534 261.672 260.215C261.672 259.056 261.904 258.129 262.368 257.201C262.831 256.274 263.295 255.578 263.991 255.578C264.686 255.346 265.15 255.81 265.15 256.274C265.382 256.505 265.15 256.969 265.382 256.969C265.382 256.969 265.614 256.737 265.614 256.274C265.614 256.042 265.382 255.81 265.15 255.578C264.918 255.346 264.454 255.114 263.991 255.346C263.063 255.346 262.136 256.274 261.672 257.201C261.208 258.129 260.976 259.288 260.976 260.679C260.976 263.23 262.368 265.549 263.991 266.012C264.918 266.244 265.614 266.012 265.846 265.78C266.078 265.085 266.078 264.853 266.078 264.853Z" fill="#995037"/>
<path d="M328.916 250.013C328.916 250.013 328.684 249.317 328.22 247.926C327.988 246.535 327.525 244.68 327.525 242.129C327.525 239.579 327.756 236.796 328.22 233.55C328.684 230.304 329.148 226.594 329.148 222.884C329.148 221.029 328.684 219.174 328.22 217.319C327.524 215.696 326.597 214.072 325.669 212.681C323.583 210.131 320.8 208.508 318.481 207.58C316.163 206.653 314.076 206.421 312.685 206.421C311.989 206.421 311.525 206.421 311.061 206.653C310.598 206.653 310.598 206.653 310.598 206.653C310.598 206.653 311.293 206.653 312.685 206.653C314.076 206.653 316.163 207.116 318.25 208.044C320.568 208.971 323.119 210.594 324.974 213.145C325.901 214.304 326.829 215.927 327.293 217.551C327.756 219.174 328.22 221.029 328.22 222.884C328.452 226.594 327.756 230.304 327.525 233.55C327.061 236.796 326.829 239.811 326.829 242.361C326.829 244.912 327.293 246.767 327.756 248.158C327.988 248.854 328.22 249.317 328.452 249.549C328.916 250.013 328.916 250.013 328.916 250.013Z" fill="#455A64"/>
<path d="M258.89 268.795C258.89 268.795 258.426 269.026 258.194 269.954C257.731 270.65 257.267 271.809 257.267 273.432C257.267 275.055 258.194 276.91 260.049 278.07C261.672 279.229 264.223 279.693 266.542 278.765C268.861 277.838 270.02 275.519 270.252 273.432C270.252 272.505 270.252 271.345 269.788 270.65C269.324 269.722 268.861 269.258 268.165 268.795C267.006 267.867 265.614 267.635 264.919 267.635C263.991 267.635 263.527 267.867 263.527 267.867C263.527 267.867 263.991 267.867 264.919 267.867C265.614 267.867 266.774 268.331 267.933 269.258C269.092 270.186 270.02 271.809 269.788 273.664C269.556 275.519 268.397 277.374 266.31 278.301C264.223 279.229 262.136 278.765 260.513 277.606C258.89 276.678 257.963 275.055 257.963 273.432C257.963 272.041 258.194 270.882 258.658 270.186C258.658 269.027 258.89 268.795 258.89 268.795Z" fill="#E8505B"/>
<path d="M228.513 261.607C228.513 261.607 228.513 261.143 228.745 260.447C228.977 259.752 229.209 258.824 229.904 257.665C231.296 255.346 233.614 252.1 237.556 249.549C239.643 248.158 241.962 246.999 244.976 246.535C247.759 246.071 250.773 246.071 254.019 246.071C257.266 246.071 260.512 246.303 263.758 245.839C267.004 245.375 270.251 244.216 273.265 242.361C276.279 240.506 278.598 237.955 281.381 235.637C283.931 233.55 286.482 231.231 288.337 228.68C292.279 223.811 295.989 219.406 298.771 215.696C301.554 211.986 303.64 208.739 305.032 206.421C306.191 204.102 306.655 202.711 306.887 202.711C306.887 202.711 306.887 203.174 306.655 203.638C306.423 204.334 305.959 205.261 305.495 206.421C304.336 208.739 302.481 212.217 299.699 215.927C296.916 219.869 293.206 224.043 289.496 229.144C287.641 231.695 285.09 234.014 282.54 236.332C279.989 238.419 277.439 241.202 274.424 243.057C271.41 245.144 267.932 246.303 264.454 246.767C260.976 247.23 257.729 246.999 254.483 246.767C251.469 246.535 248.454 246.535 245.672 246.999C242.889 247.462 240.571 248.39 238.716 249.781C234.774 252.332 232.223 255.346 230.832 257.433C228.977 260.215 228.745 261.838 228.513 261.607Z" fill="#455A64"/>
<path d="M294.598 346.241C299.004 332.792 309.902 318.88 321.728 323.749C334.944 329.314 338.654 336.27 345.843 347.168C353.031 358.066 357.436 370.588 361.842 382.877C363.465 387.746 372.508 409.774 369.957 414.18C367.639 417.89 345.147 446.179 340.973 447.338C329.843 450.352 329.379 409.542 318.25 411.629C313.844 412.557 308.743 413.252 304.801 410.934C299.7 408.151 298.308 401.659 297.149 395.862C293.439 375.921 289.729 355.748 286.019 335.806" fill="#E8505B"/>
<path d="M306.656 318.648L324.046 326.068C332.857 333.024 335.408 344.85 334.944 355.98L341.669 448.729L342.132 480.728C342.132 480.728 290.888 508.553 233.615 472.612L243.122 447.338L225.732 387.051C224.572 378.24 223.645 359.921 225.963 351.342C231.76 329.082 247.528 322.59 263.759 317.952C263.759 317.952 279.99 331.633 295.758 328.618C296.221 328.85 305.728 327.923 306.656 318.648Z" fill="#E8505B"/>
<g opacity="0.2">
<g opacity="0.2">
<g opacity="0.2">
<g opacity="0.2">
<path opacity="0.2" d="M330.77 419.513C320.8 434.121 310.597 448.729 300.626 463.105C296.685 468.902 292.511 474.699 286.714 478.409C278.135 483.742 266.541 483.742 258.194 478.177C249.846 472.612 242.426 457.541 244.281 447.802C244.513 446.642 248.455 448.729 248.455 448.729C249.614 447.338 251.933 447.338 253.556 447.802C255.411 448.266 256.802 449.425 258.425 450.352C267.932 455.454 279.99 452.671 288.801 446.642C297.612 440.614 304.105 431.802 311.061 423.687C313.611 420.672 316.394 417.426 320.104 416.035C323.814 414.644 328.683 415.803 330.306 419.513" fill="black"/>
</g>
</g>
</g>
</g>
<path d="M278.831 410.238L281.381 420.441L334.249 381.949L350.48 358.994C352.567 355.98 355.813 353.893 359.523 352.965C363.465 352.27 367.407 352.965 370.885 355.284L385.957 365.95C385.957 365.95 385.493 374.066 381.783 372.443C378.073 370.82 370.885 366.878 370.885 366.878L368.798 386.355L359.755 392.848L350.712 399.804L291.352 459.164C278.599 471.917 256.803 468.439 248.687 452.207L239.876 427.165L278.831 410.238Z" fill="#FAD9C8"/>
<path d="M282.772 419.049C282.772 419.049 281.845 419.281 280.454 420.44C279.294 421.6 277.903 423.455 277.439 426.005C276.744 428.324 276.744 430.643 276.976 432.266C276.976 433.889 277.207 434.817 277.207 434.817C277.207 434.817 277.439 433.889 277.439 432.266C277.439 430.643 277.671 428.556 278.135 426.237C278.831 423.919 279.758 422.064 280.917 420.904C282.077 419.745 282.772 419.049 282.772 419.049Z" fill="#995037"/>
<path d="M370.885 368.037C370.885 368.037 370.653 367.341 370.189 366.414C369.494 365.486 368.566 364.327 366.943 363.631C365.32 362.936 363.465 363.631 362.769 364.559C361.842 365.486 361.842 366.182 362.074 366.182C362.306 366.182 362.306 365.486 363.233 365.023C363.929 364.559 365.552 364.095 366.943 364.559C368.334 365.023 369.494 366.182 370.189 366.878C370.421 367.573 370.885 368.037 370.885 368.037Z" fill="#995037"/>
<path d="M361.61 373.138C361.61 373.138 362.073 372.907 362.769 372.443C363.464 371.979 364.624 371.515 365.783 371.515C366.943 371.515 368.102 371.979 368.798 372.443C369.493 372.907 369.957 373.138 369.957 373.138C369.957 373.138 369.725 372.675 369.03 371.979C368.334 371.515 367.175 370.82 365.783 370.82C364.392 370.82 363.233 371.283 362.537 371.979C361.61 372.675 361.378 373.138 361.61 373.138Z" fill="#995037"/>
<path d="M258.194 319.343C246.368 324.213 233.847 329.546 225.731 339.516C217.384 349.487 214.37 363.399 215.065 376.384C215.761 389.369 215.529 401.659 219.471 414.18C220.862 419.049 224.108 431.107 226.659 436.44C229.673 442.469 244.05 449.193 251.006 448.961C262.368 448.729 267.933 427.165 278.135 422.296C282.309 420.209 288.569 411.629 290.424 407.456C292.743 402.122 285.787 392.152 283.236 386.819C274.425 368.501 265.382 350.183 256.571 331.865" fill="#E8505B"/>
<path d="M280.222 420.672C280.222 420.672 280.222 420.209 280.454 419.745C280.686 419.049 281.149 418.122 281.149 416.962C281.149 415.803 280.686 414.18 279.526 413.021C278.367 411.861 276.28 411.397 273.961 411.629H273.497V411.165C273.034 407.456 271.642 403.282 269.324 399.108C267.005 394.934 263.527 390.992 258.889 387.978C254.02 384.732 248.455 382.877 243.354 381.718C238.253 380.558 233.615 379.862 229.673 379.631C225.731 379.399 222.485 379.399 220.398 379.399C218.08 379.399 216.92 379.399 216.92 379.399C216.92 379.399 218.08 379.167 220.398 378.935C222.717 378.703 225.731 378.703 229.905 378.703C233.847 378.935 238.716 379.399 243.818 380.558C248.919 381.718 254.716 383.572 259.817 387.051C264.454 390.297 268.164 394.471 270.483 398.644C273.034 403.05 274.193 407.456 274.657 411.165L274.193 410.702C276.512 410.47 279.062 410.934 280.454 412.325C281.845 413.716 282.309 415.571 282.077 416.962C281.845 418.354 281.381 419.281 281.149 419.745C280.454 420.44 280.222 420.672 280.222 420.672Z" fill="#263238"/>
<path d="M254.716 429.947C254.484 429.715 257.962 424.846 263.527 419.513C269.092 414.412 274.425 411.166 274.425 411.397C274.657 411.629 269.788 415.339 264.223 420.44C259.121 425.542 255.18 430.179 254.716 429.947Z" fill="#263238"/>
<g opacity="0.3">
<g opacity="0.3">
<path opacity="0.3" d="M273.961 410.702C269.324 412.557 264.454 414.644 260.512 417.89C256.57 421.136 253.324 425.31 252.397 430.411C253.788 429.02 255.411 427.629 256.802 426.469C262.599 421.136 268.396 415.803 275.12 411.397" fill="black"/>
</g>
</g>
<path d="M335.408 380.094C335.176 380.094 335.408 378.239 336.103 375.689C336.799 372.906 338.422 369.428 340.277 365.486C344.219 357.834 348.625 352.501 349.088 352.733C349.32 352.733 348.161 354.124 346.77 356.675C345.378 358.994 343.291 362.472 341.436 366.182C339.582 369.892 337.958 373.37 337.031 375.921C336.103 378.471 335.64 380.094 335.408 380.094Z" fill="#263238"/>
<path d="M342.363 473.54C342.363 473.54 342.132 472.612 341.9 470.989C341.668 469.366 341.668 467.047 341.436 464.265C341.204 458.468 340.972 450.584 340.972 441.773C340.972 432.962 340.972 425.078 341.204 419.281C341.204 416.499 341.436 414.18 341.436 412.557C341.436 410.934 341.668 410.006 341.668 410.006C341.668 410.006 341.9 410.934 341.9 412.557C341.9 414.412 341.9 416.73 341.9 419.281C341.9 425.31 341.9 433.193 341.9 441.773C341.9 450.352 342.132 458.236 342.132 464.265C342.132 467.047 342.132 469.134 342.132 470.989C342.595 472.612 342.363 473.54 342.363 473.54Z" fill="#263238"/>
<path d="M321.263 373.834C321.263 373.834 320.568 371.051 319.872 367.805C319.176 364.327 318.713 361.776 318.945 361.776C319.176 361.776 319.64 364.559 320.336 367.805C320.8 371.051 321.263 373.834 321.263 373.834Z" fill="#EBEBEB"/>
<path d="M324.973 365.486C324.973 365.486 322.886 366.414 320.335 367.341C317.785 368.269 315.466 368.733 315.466 368.733C315.466 368.733 317.553 368.037 320.104 367.11C322.886 366.182 324.973 365.486 324.973 365.486Z" fill="#EBEBEB"/>
<path d="M318.017 372.211C318.017 372.211 318.712 370.124 319.872 367.341C321.031 364.791 321.959 362.704 321.959 362.704C321.959 362.704 321.263 364.791 320.104 367.573C319.176 370.356 318.017 372.211 318.017 372.211Z" fill="#EBEBEB"/>
<path d="M324.973 371.051C324.973 371.051 322.886 369.66 320.336 368.037C317.785 366.182 315.93 364.791 315.93 364.559C315.93 364.559 318.017 365.95 320.567 367.573C323.118 369.428 324.973 371.051 324.973 371.051Z" fill="#EBEBEB"/>
<path d="M334.944 445.019C334.944 445.019 334.248 442.237 333.553 438.99C332.857 435.512 332.393 432.962 332.625 432.962C332.625 432.962 333.321 435.744 334.016 438.99C334.712 442.237 334.944 445.019 334.944 445.019Z" fill="#EBEBEB"/>
<path d="M338.654 436.904C338.654 436.904 336.567 437.831 334.017 438.758C331.466 439.686 329.147 440.15 329.147 440.15C329.147 440.15 331.234 439.454 333.785 438.527C336.567 437.599 338.654 436.904 338.654 436.904Z" fill="#EBEBEB"/>
<path d="M331.698 443.628C331.698 443.628 332.394 441.541 333.553 438.758C334.712 436.208 335.64 434.121 335.64 434.121C335.64 434.121 334.944 436.208 333.785 438.99C332.857 441.541 331.93 443.628 331.698 443.628Z" fill="#EBEBEB"/>
<path d="M338.654 442.469C338.654 442.469 336.567 441.077 334.016 439.454C331.466 437.599 329.611 436.208 329.611 435.976C329.611 435.976 331.697 437.367 334.248 438.99C336.799 440.845 338.654 442.469 338.654 442.469Z" fill="#EBEBEB"/>
<path d="M354.653 416.962C354.653 416.962 353.958 414.18 353.262 410.934C352.566 407.456 352.103 404.905 352.334 404.905C352.334 404.905 353.03 407.687 353.726 410.934C354.421 414.18 354.885 416.962 354.653 416.962Z" fill="#EBEBEB"/>
<path d="M358.364 408.615C358.364 408.615 356.277 409.542 353.726 410.47C351.175 411.397 348.857 411.861 348.857 411.861C348.857 411.861 350.944 411.166 353.494 410.238C356.277 409.311 358.364 408.615 358.364 408.615Z" fill="#EBEBEB"/>
<path d="M351.407 415.339C351.407 415.339 352.103 413.252 353.262 410.47C354.422 407.919 355.349 405.832 355.349 405.832C355.349 405.832 354.653 407.919 353.494 410.702C352.567 413.484 351.639 415.571 351.407 415.339Z" fill="#EBEBEB"/>
<path d="M358.363 414.18C358.363 414.18 356.277 412.789 353.726 411.165C351.175 409.31 349.32 407.919 349.32 407.687C349.32 407.687 351.407 409.079 353.958 410.702C356.508 412.789 358.363 414.18 358.363 414.18Z" fill="#EBEBEB"/>
<path d="M327.525 346.937C327.525 346.937 326.829 344.154 326.133 340.908C325.438 337.43 324.974 334.879 325.206 334.879C325.206 334.879 325.901 337.662 326.597 340.908C327.061 344.154 327.525 346.937 327.525 346.937Z" fill="#EBEBEB"/>
<path d="M331.234 338.821C331.234 338.821 329.148 339.748 326.597 340.676C324.046 341.603 321.728 342.067 321.728 342.067C321.728 342.067 323.814 341.372 326.365 340.444C329.148 339.517 331.234 338.589 331.234 338.821Z" fill="#EBEBEB"/>
<path d="M324.278 345.545C324.278 345.545 324.974 343.458 326.133 340.676C327.293 338.125 328.22 336.038 328.22 336.038C328.22 336.038 327.525 338.125 326.365 340.908C325.438 343.458 324.278 345.545 324.278 345.545Z" fill="#EBEBEB"/>
<path d="M331.234 344.386C331.234 344.386 329.147 342.995 326.597 341.371C324.046 339.516 322.191 338.125 322.191 337.893C322.191 337.893 324.278 339.285 326.829 340.908C329.379 342.763 331.234 344.386 331.234 344.386Z" fill="#EBEBEB"/>
<path d="M301.09 397.021C301.09 397.021 300.395 394.239 299.699 390.993C299.003 387.515 298.54 384.964 298.772 384.964C298.772 384.964 299.467 387.746 300.163 390.993C300.626 394.239 301.09 397.021 301.09 397.021Z" fill="#EBEBEB"/>
<path d="M304.8 388.906C304.8 388.906 302.713 389.833 300.163 390.761C297.612 391.688 295.293 392.152 295.293 392.152C295.293 392.152 297.38 391.456 299.931 390.529C302.713 389.369 304.8 388.674 304.8 388.906Z" fill="#EBEBEB"/>
<path d="M297.844 395.63C297.844 395.63 298.539 393.543 299.699 390.761C300.858 388.21 301.785 386.123 301.785 386.123C301.785 386.123 301.09 388.21 299.93 390.993C299.003 393.543 297.844 395.63 297.844 395.63Z" fill="#EBEBEB"/>
<path d="M304.8 394.471C304.8 394.471 302.714 393.079 300.163 391.456C297.612 389.601 295.757 388.21 295.757 387.978C295.757 387.978 297.844 389.369 300.395 390.993C302.945 392.848 304.8 394.239 304.8 394.471Z" fill="#EBEBEB"/>
<path d="M305.264 463.105C305.264 463.105 304.569 460.323 303.873 457.077C303.177 453.599 302.714 451.048 302.946 451.048C302.946 451.048 303.641 453.83 304.337 457.077C305.032 460.323 305.496 463.105 305.264 463.105Z" fill="#EBEBEB"/>
<path d="M308.974 454.99C308.974 454.99 306.887 455.917 304.337 456.845C301.786 457.772 299.467 458.236 299.467 458.236C299.467 458.236 301.554 457.54 304.105 456.613C306.887 455.454 308.974 454.758 308.974 454.99Z" fill="#EBEBEB"/>
<path d="M302.25 461.714C302.25 461.714 302.945 459.627 304.104 456.845C305.264 454.294 306.191 452.207 306.191 452.207C306.191 452.207 305.496 454.294 304.336 457.077C303.177 459.627 302.25 461.714 302.25 461.714Z" fill="#EBEBEB"/>
<path d="M308.973 460.555C308.973 460.555 306.887 459.164 304.336 457.54C301.785 455.685 299.93 454.294 299.93 454.062C299.93 454.062 302.017 455.454 304.568 457.077C307.119 458.932 308.973 460.323 308.973 460.555Z" fill="#EBEBEB"/>
<path d="M327.987 479.568C327.987 479.568 327.292 476.786 326.596 473.54C325.901 470.062 325.437 467.511 325.669 467.511C325.669 467.511 326.364 470.293 327.06 473.54C327.756 476.786 328.219 479.337 327.987 479.568Z" fill="#EBEBEB"/>
<path d="M331.698 471.221C331.698 471.221 329.611 472.148 327.06 473.076C324.51 474.003 322.191 474.467 322.191 474.467C322.191 474.467 324.278 473.771 326.828 472.844C329.611 471.916 331.698 471.221 331.698 471.221Z" fill="#EBEBEB"/>
<path d="M324.973 477.945C324.973 477.945 325.669 475.858 326.828 473.076C327.987 470.525 328.915 468.438 328.915 468.438C328.915 468.438 328.219 470.525 327.06 473.308C325.901 475.858 324.973 477.945 324.973 477.945Z" fill="#EBEBEB"/>
<path d="M331.698 476.786C331.698 476.786 329.611 475.395 327.061 473.771C324.51 471.916 322.655 470.525 322.655 470.293C322.655 470.293 324.742 471.685 327.293 473.308C329.843 475.163 331.93 476.786 331.698 476.786Z" fill="#EBEBEB"/>
<path d="M284.396 487.916C284.396 487.916 283.7 485.133 283.004 481.887C282.309 478.409 281.845 475.858 282.077 475.858C282.077 475.858 282.773 478.641 283.468 481.887C284.164 485.365 284.628 487.916 284.396 487.916Z" fill="#EBEBEB"/>
<path d="M288.337 479.8C288.337 479.8 286.251 480.728 283.7 481.655C281.149 482.583 278.831 483.046 278.831 483.046C278.831 483.046 280.917 482.351 283.468 481.423C286.019 480.496 288.106 479.8 288.337 479.8Z" fill="#EBEBEB"/>
<path d="M281.382 486.525C281.382 486.525 282.077 484.438 283.237 481.655C284.396 479.105 285.323 477.018 285.323 477.018C285.323 477.018 284.628 479.105 283.468 481.887C282.309 484.438 281.382 486.525 281.382 486.525Z" fill="#EBEBEB"/>
<path d="M288.106 485.365C288.106 485.365 286.019 483.974 283.468 482.351C280.918 480.496 279.063 479.105 279.063 478.873C279.063 478.873 281.15 480.264 283.7 481.887C286.251 483.742 288.338 485.365 288.106 485.365Z" fill="#EBEBEB"/>
<path d="M247.296 474.699C247.296 474.699 246.601 471.917 245.905 468.671C245.209 465.192 244.746 462.642 244.978 462.642C244.978 462.642 245.673 465.424 246.369 468.671C246.833 471.917 247.296 474.699 247.296 474.699Z" fill="#EBEBEB"/>
<path d="M251.006 466.352C251.006 466.352 248.919 467.279 246.369 468.207C243.818 469.134 241.499 469.598 241.499 469.598C241.499 469.598 243.586 468.902 246.137 467.975C248.919 467.047 251.006 466.352 251.006 466.352Z" fill="#EBEBEB"/>
<path d="M244.05 473.076C244.05 473.076 244.746 470.989 245.905 468.207C247.064 465.656 247.992 463.569 247.992 463.569C247.992 463.569 247.296 465.656 246.137 468.439C245.209 471.221 244.05 473.308 244.05 473.076Z" fill="#EBEBEB"/>
<path d="M251.006 471.917C251.006 471.917 248.919 470.525 246.368 468.902C243.818 467.047 241.963 465.656 241.963 465.424C241.963 465.424 244.05 466.815 246.6 468.439C249.151 470.294 251.006 471.917 251.006 471.917Z" fill="#EBEBEB"/>
<path d="M298.308 351.806C298.308 351.806 297.612 349.023 296.917 345.777C296.221 342.299 295.757 339.748 295.989 339.748C295.989 339.748 296.685 342.531 297.381 345.777C298.076 349.023 298.54 351.806 298.308 351.806Z" fill="#EBEBEB"/>
<path d="M302.25 343.69C302.25 343.69 300.163 344.618 297.612 345.545C295.062 346.473 292.743 346.936 292.743 346.936C292.743 346.936 294.83 346.241 297.38 345.313C299.931 344.154 302.018 343.458 302.25 343.69Z" fill="#EBEBEB"/>
<path d="M295.294 350.415C295.294 350.415 295.99 348.328 297.149 345.545C298.308 342.995 299.236 340.908 299.236 340.908C299.236 340.908 298.54 342.995 297.381 345.777C296.221 348.328 295.294 350.415 295.294 350.415Z" fill="#EBEBEB"/>
<path d="M302.018 349.255C302.018 349.255 299.932 347.864 297.381 346.241C294.83 344.386 292.975 342.995 292.975 342.763C292.975 342.763 295.062 344.154 297.613 345.777C300.163 347.632 302.25 349.023 302.018 349.255Z" fill="#EBEBEB"/>
<path d="M232.687 370.588C232.687 370.588 231.992 367.805 231.296 364.559C230.6 361.081 230.137 358.53 230.368 358.53C230.368 358.53 231.064 361.313 231.76 364.559C232.455 367.805 232.919 370.588 232.687 370.588Z" fill="#EBEBEB"/>
<path d="M236.397 362.472C236.397 362.472 234.31 363.399 231.76 364.327C229.209 365.254 226.89 365.718 226.89 365.718C226.89 365.718 228.977 365.022 231.528 364.095C234.31 362.936 236.397 362.24 236.397 362.472Z" fill="#EBEBEB"/>
<path d="M229.673 369.196C229.673 369.196 230.368 367.109 231.528 364.327C232.687 361.776 233.614 359.689 233.614 359.689C233.614 359.689 232.919 361.776 231.759 364.559C230.6 367.109 229.673 369.196 229.673 369.196Z" fill="#EBEBEB"/>
<path d="M236.397 368.037C236.397 368.037 234.31 366.646 231.76 365.023C229.209 363.168 227.354 361.776 227.354 361.544C227.354 361.544 229.441 362.936 231.992 364.559C234.542 366.414 236.629 367.805 236.397 368.037Z" fill="#EBEBEB"/>
<path d="M273.034 386.587C273.034 386.587 272.338 383.805 271.642 380.558C270.947 377.08 270.483 374.53 270.715 374.53C270.715 374.53 271.41 377.312 272.106 380.558C272.802 384.036 273.265 386.587 273.034 386.587Z" fill="#EBEBEB"/>
<path d="M276.975 378.471C276.975 378.471 274.888 379.399 272.338 380.326C269.787 381.254 267.469 381.717 267.469 381.717C267.469 381.717 269.555 381.022 272.106 380.094C274.657 379.167 276.743 378.471 276.975 378.471Z" fill="#EBEBEB"/>
<path d="M270.019 385.196C270.019 385.196 270.715 383.109 271.874 380.326C273.033 377.776 273.961 375.689 273.961 375.689C273.961 375.689 273.265 377.776 272.106 380.558C270.947 383.109 270.019 385.196 270.019 385.196Z" fill="#EBEBEB"/>
<path d="M276.744 384.036C276.744 384.036 274.657 382.645 272.106 381.022C269.555 379.167 267.7 377.776 267.7 377.544C267.7 377.544 269.787 378.935 272.338 380.558C274.889 382.413 276.975 384.036 276.744 384.036Z" fill="#EBEBEB"/>
<path d="M234.079 405.601C234.079 405.601 233.383 402.818 232.688 399.572C231.992 396.094 231.528 393.543 231.76 393.543C231.76 393.543 232.456 396.326 233.151 399.572C233.847 402.818 234.311 405.601 234.079 405.601Z" fill="#EBEBEB"/>
<path d="M237.789 397.253C237.789 397.253 235.702 398.18 233.151 399.108C230.601 400.035 228.282 400.499 228.282 400.499C228.282 400.499 230.369 399.804 232.919 398.876C235.702 397.949 237.789 397.253 237.789 397.253Z" fill="#EBEBEB"/>
<path d="M230.833 403.977C230.833 403.977 231.528 401.89 232.688 399.108C233.847 396.557 234.775 394.471 234.775 394.471C234.775 394.471 234.079 396.557 232.92 399.34C231.992 402.122 231.065 403.977 230.833 403.977Z" fill="#EBEBEB"/>
<path d="M237.789 402.818C237.789 402.818 235.702 401.427 233.151 399.804C230.601 397.949 228.746 396.557 228.746 396.326C228.746 396.326 230.832 397.717 233.383 399.34C235.934 401.195 237.789 402.818 237.789 402.818Z" fill="#EBEBEB"/>
<path d="M258.425 413.484C258.425 413.484 257.73 410.702 257.034 407.455C256.339 403.977 255.875 401.427 256.107 401.427C256.107 401.427 256.802 404.209 257.498 407.455C258.194 410.702 258.657 413.484 258.425 413.484Z" fill="#EBEBEB"/>
<path d="M262.136 405.369C262.136 405.369 260.049 406.296 257.498 407.224C254.947 408.151 252.629 408.615 252.629 408.615C252.629 408.615 254.716 407.919 257.266 406.992C260.049 405.832 262.136 405.137 262.136 405.369Z" fill="#EBEBEB"/>
<path d="M255.18 412.093C255.18 412.093 255.875 410.006 257.035 407.224C258.194 404.673 259.122 402.586 259.122 402.586C259.122 402.586 258.426 404.673 257.267 407.455C256.339 410.006 255.412 412.093 255.18 412.093Z" fill="#EBEBEB"/>
<path d="M262.135 410.934C262.135 410.934 260.048 409.543 257.498 407.919C254.947 406.064 253.092 404.673 253.092 404.441C253.092 404.441 255.179 405.833 257.73 407.456C260.28 409.311 262.135 410.702 262.135 410.934Z" fill="#EBEBEB"/>
<path d="M242.89 436.44C242.89 436.44 242.195 433.657 241.499 430.411C240.803 426.933 240.34 424.383 240.572 424.383C240.572 424.383 241.267 427.165 241.963 430.411C242.658 433.657 243.122 436.44 242.89 436.44Z" fill="#EBEBEB"/>
<path d="M246.6 428.324C246.6 428.324 244.513 429.252 241.962 430.179C239.412 431.107 237.093 431.571 237.093 431.571C237.093 431.571 239.18 430.875 241.73 429.947C244.513 428.788 246.6 428.092 246.6 428.324Z" fill="#EBEBEB"/>
<path d="M239.644 435.049C239.644 435.049 240.34 432.962 241.499 430.179C242.658 427.629 243.586 425.542 243.586 425.542C243.586 425.542 242.89 427.629 241.731 430.411C240.803 432.962 239.876 435.049 239.644 435.049Z" fill="#EBEBEB"/>
<path d="M246.6 433.889C246.6 433.889 244.513 432.498 241.963 430.875C239.412 429.02 237.557 427.629 237.557 427.397C237.557 427.397 239.644 428.788 242.195 430.411C244.745 432.266 246.6 433.657 246.6 433.889Z" fill="#EBEBEB"/>
<path d="M270.483 283.867C266.773 290.359 267.005 298.706 270.947 305.199C273.498 309.373 277.439 312.619 279.526 317.024C281.845 322.589 280.918 328.85 280.222 334.647C279.526 340.676 279.294 347.168 283.236 351.806C284.859 353.661 286.946 355.052 288.569 357.139C290.193 358.994 291.12 361.776 289.961 364.095C289.033 365.718 287.41 366.414 285.787 367.109C273.73 371.747 258.89 367.805 250.542 358.066C250.31 360.153 249.846 362.24 249.615 364.327C241.731 357.371 236.166 347.864 234.311 337.429C232.456 326.995 234.311 316.097 239.18 307.054" fill="#263238"/>
<path d="M411.212 59.596L230.142 59.4692C208.332 59.4692 190.707 77.0944 190.707 98.904L190.58 552.721C190.58 574.531 208.206 592.156 230.015 592.156L411.086 592.283C432.895 592.283 450.52 574.658 450.52 552.848L450.647 99.0308C450.52 77.2212 432.895 59.596 411.212 59.596ZM438.474 546.254C438.474 561.47 426.048 573.897 410.832 573.897L230.142 573.77C214.926 573.77 202.5 561.344 202.5 546.128L202.626 103.088C202.626 87.8724 215.053 75.446 230.269 75.446H260.954H273.254C277.946 75.446 281.75 79.3768 281.75 84.322V90.662C281.75 95.6072 285.554 99.538 290.245 99.538H358.717C363.409 99.538 367.213 95.6072 367.213 90.662V84.322C367.213 79.3768 371.017 75.446 375.708 75.446H410.832C426.048 75.446 438.474 87.8724 438.474 103.088V546.254Z" fill="#263238"/>
<path d="M373.299 474.359H279.34V516.203H373.299V474.359Z" fill="#263238"/>
<path d="M438.474 474.359H357.703C357.703 492.111 342.614 506.693 323.974 506.693C305.334 506.693 290.245 492.238 290.245 474.359H202.753V546.762C202.753 561.978 215.053 574.404 230.396 574.404L411.086 574.531C426.302 574.531 438.728 562.231 438.728 546.888L438.474 474.359Z" fill="#E39D29"/>
<path d="M287.461 517.625L290 525.539L292.531 517.625H296.141V529H293.391V526.344L293.656 520.906L290.906 529H289.094L286.336 520.898L286.602 526.344V529H283.859V517.625H287.461ZM301.859 529.156C300.562 529.156 299.513 528.771 298.711 528C297.909 527.224 297.508 526.216 297.508 524.977V524.758C297.508 523.893 297.667 523.13 297.984 522.469C298.307 521.807 298.776 521.297 299.391 520.938C300.005 520.573 300.734 520.391 301.578 520.391C302.766 520.391 303.703 520.76 304.391 521.5C305.078 522.234 305.422 523.26 305.422 524.578V525.602H300.188C300.281 526.076 300.487 526.448 300.805 526.719C301.122 526.99 301.534 527.125 302.039 527.125C302.872 527.125 303.523 526.833 303.992 526.25L305.195 527.672C304.867 528.125 304.401 528.487 303.797 528.758C303.198 529.023 302.552 529.156 301.859 529.156ZM301.562 522.422C300.792 522.422 300.333 522.932 300.188 523.953H302.844V523.75C302.854 523.328 302.747 523.003 302.523 522.773C302.299 522.539 301.979 522.422 301.562 522.422ZM314.016 529H311.375V525.867H309.07V529H306.438V520.547H309.07V523.844H311.375V520.547H314.016V529ZM319.547 529.156C318.25 529.156 317.201 528.771 316.398 528C315.596 527.224 315.195 526.216 315.195 524.977V524.758C315.195 523.893 315.354 523.13 315.672 522.469C315.995 521.807 316.464 521.297 317.078 520.938C317.693 520.573 318.422 520.391 319.266 520.391C320.453 520.391 321.391 520.76 322.078 521.5C322.766 522.234 323.109 523.26 323.109 524.578V525.602H317.875C317.969 526.076 318.174 526.448 318.492 526.719C318.81 526.99 319.221 527.125 319.727 527.125C320.56 527.125 321.211 526.833 321.68 526.25L322.883 527.672C322.555 528.125 322.089 528.487 321.484 528.758C320.885 529.023 320.24 529.156 319.547 529.156ZM319.25 522.422C318.479 522.422 318.021 522.932 317.875 523.953H320.531V523.75C320.542 523.328 320.435 523.003 320.211 522.773C319.987 522.539 319.667 522.422 319.25 522.422ZM324.398 526.969C324.82 526.547 325.125 526.128 325.312 525.711C325.505 525.294 325.617 524.81 325.648 524.258L325.672 523.68L325.719 520.547H332.305V526.969H333.57V531.562H330.93V529H326.352V531.562H323.648L323.641 526.969H324.398ZM327.43 526.969H329.68V522.578H328.328L328.32 523.273C328.284 524.794 327.987 526.026 327.43 526.969ZM343.305 526.047H342.305V529H339.672V526.047H338.695L337.25 529H334.125L336.641 524.477L334.023 520.547H337.312L338.914 523.586H339.672V520.547H342.305V523.586H343.086L344.695 520.547H347.984L345.352 524.492L345.43 524.453L347.961 529H344.742L343.305 526.047ZM352.844 529.156C351.547 529.156 350.497 528.771 349.695 528C348.893 527.224 348.492 526.216 348.492 524.977V524.758C348.492 523.893 348.651 523.13 348.969 522.469C349.292 521.807 349.76 521.297 350.375 520.938C350.99 520.573 351.719 520.391 352.562 520.391C353.75 520.391 354.688 520.76 355.375 521.5C356.062 522.234 356.406 523.26 356.406 524.578V525.602H351.172C351.266 526.076 351.471 526.448 351.789 526.719C352.107 526.99 352.518 527.125 353.023 527.125C353.857 527.125 354.508 526.833 354.977 526.25L356.18 527.672C355.852 528.125 355.385 528.487 354.781 528.758C354.182 529.023 353.536 529.156 352.844 529.156ZM352.547 522.422C351.776 522.422 351.318 522.932 351.172 523.953H353.828V523.75C353.839 523.328 353.732 523.003 353.508 522.773C353.284 522.539 352.964 522.422 352.547 522.422ZM365.32 524.836C365.32 526.148 365.023 527.198 364.43 527.984C363.841 528.766 363.044 529.156 362.039 529.156C361.263 529.156 360.625 528.872 360.125 528.305V532.25H357.492V520.547H359.953L360.031 521.328C360.536 520.703 361.201 520.391 362.023 520.391C363.065 520.391 363.875 520.776 364.453 521.547C365.031 522.312 365.32 523.367 365.32 524.711V524.836ZM362.688 524.672C362.688 523.172 362.25 522.422 361.375 522.422C360.75 522.422 360.333 522.646 360.125 523.094V526.422C360.354 526.891 360.776 527.125 361.391 527.125C362.229 527.125 362.661 526.401 362.688 524.953V524.672Z" fill="white"/>
<path d="M312.308 539.66V546.761H311.801V540.168H310.026V539.66H312.308Z" fill="white"/>
<path d="M314.083 543.211C314.083 540.929 315.225 539.534 316.873 539.534C318.521 539.534 319.663 540.929 319.663 543.211C319.663 545.494 318.521 546.888 316.873 546.888C315.225 546.888 314.083 545.494 314.083 543.211ZM319.155 543.211C319.155 541.182 318.268 540.041 316.873 540.041C315.478 540.041 314.591 541.182 314.591 543.211C314.591 545.24 315.478 546.381 316.873 546.381C318.268 546.381 319.155 545.24 319.155 543.211Z" fill="white"/>
<path d="M320.804 541.816C320.804 541.563 321.058 541.436 321.184 541.436C321.438 541.436 321.565 541.563 321.565 541.816C321.565 542.07 321.311 542.197 321.184 542.197C321.058 542.324 320.804 542.07 320.804 541.816ZM320.804 546.381C320.804 546.128 321.058 546.001 321.184 546.001C321.438 546.001 321.565 546.128 321.565 546.381C321.565 546.635 321.311 546.762 321.184 546.762C321.058 546.762 320.804 546.635 320.804 546.381Z" fill="white"/>
<path d="M322.833 543.211C322.833 540.929 323.974 539.534 325.622 539.534C327.271 539.534 328.412 540.929 328.412 543.211C328.412 545.494 327.271 546.888 325.622 546.888C323.974 546.888 322.833 545.494 322.833 543.211ZM327.905 543.211C327.905 541.182 327.017 540.041 325.622 540.041C324.228 540.041 323.34 541.182 323.34 543.211C323.34 545.24 324.228 546.381 325.622 546.381C327.017 546.381 327.905 545.24 327.905 543.211Z" fill="white"/>
<path d="M335.513 544.86H333.991V546.888H333.484V544.86H329.426V544.479L333.357 539.661H333.991L330.187 544.352H333.611V542.577H334.118V544.352H335.639V544.86H335.513Z" fill="white"/>
<path d="M248.528 535.603H232.424C229.254 535.603 226.845 533.067 226.845 530.024V513.92C226.845 510.75 229.381 508.341 232.424 508.341H248.528C251.698 508.341 254.107 510.877 254.107 513.92V530.024C254.107 533.067 251.698 535.603 248.528 535.603Z" fill="#FAFAFA"/>
<path d="M411.593 533.701H396.377C393.08 533.701 390.417 531.038 390.417 527.742V512.526C390.417 509.229 393.08 506.566 396.377 506.566H411.593C414.89 506.566 417.552 509.229 417.552 512.526V527.742C417.552 531.038 414.89 533.701 411.593 533.701ZM396.377 507.2C393.46 507.2 391.051 509.609 391.051 512.526V527.742C391.051 530.658 393.46 533.067 396.377 533.067H411.593C414.509 533.067 416.918 530.658 416.918 527.742V512.526C416.918 509.609 414.509 507.2 411.593 507.2H396.377Z" fill="white"/>
<path d="M245.485 517.471H235.468C234.707 517.471 234.2 518.105 234.2 518.739V525.332C234.2 526.093 234.834 526.6 235.468 526.6H236.355V529.517L239.779 526.6H245.612C246.373 526.6 246.88 525.966 246.88 525.332V518.739C246.753 517.978 246.119 517.471 245.485 517.471ZM237.243 523.304C236.736 523.304 236.229 522.923 236.229 522.289C236.229 521.782 236.609 521.275 237.243 521.275C237.75 521.275 238.257 521.655 238.257 522.289C238.257 522.796 237.75 523.304 237.243 523.304ZM240.286 523.304C239.779 523.304 239.272 522.923 239.272 522.289C239.272 521.782 239.652 521.275 240.286 521.275C240.793 521.275 241.301 521.655 241.301 522.289C241.301 522.796 240.793 523.304 240.286 523.304ZM243.583 523.304C243.076 523.304 242.569 522.923 242.569 522.289C242.569 521.782 242.949 521.275 243.583 521.275C244.09 521.275 244.597 521.655 244.597 522.289C244.597 522.796 244.09 523.304 243.583 523.304Z" fill="#F6AC3B"/>
<path d="M400.561 523.684C400.434 523.684 400.308 523.557 400.308 523.43C399.547 517.09 404.238 515.062 404.365 515.062C404.492 514.935 404.746 515.062 404.746 515.188C404.872 515.315 404.746 515.569 404.619 515.569C404.492 515.696 400.308 517.471 400.942 523.304C400.815 523.43 400.815 523.684 400.561 523.684Z" fill="white"/>
<path d="M400.561 523.684C400.434 523.684 400.434 523.684 400.308 523.557L398.279 521.148C398.152 521.021 398.152 520.768 398.279 520.641C398.405 520.514 398.659 520.514 398.786 520.641L400.561 522.67L402.083 520.641C402.21 520.514 402.336 520.514 402.463 520.641C402.59 520.768 402.59 520.894 402.463 521.021L400.688 523.43C400.688 523.557 400.688 523.684 400.561 523.684Z" fill="white"/>
<path d="M403.731 525.332C403.604 525.332 403.478 525.206 403.478 525.079C403.351 524.952 403.478 524.698 403.604 524.698C403.731 524.572 407.916 522.796 407.282 516.964C407.282 516.837 407.408 516.583 407.535 516.583C407.662 516.583 407.916 516.71 407.916 516.837C408.55 523.304 403.858 525.332 403.731 525.332Z" fill="white"/>
<path d="M405.76 519.626C405.633 519.626 405.633 519.626 405.506 519.5C405.379 519.373 405.379 519.246 405.506 519.119L407.281 516.71C407.281 516.583 407.408 516.583 407.535 516.583C407.662 516.583 407.662 516.583 407.789 516.71L409.817 519.119C409.944 519.246 409.944 519.5 409.817 519.626C409.691 519.753 409.437 519.753 409.31 519.626L407.535 517.598L406.013 519.626C405.887 519.626 405.76 519.626 405.76 519.626Z" fill="white"/>
<path d="M240.286 143.03C250.58 143.03 258.925 134.685 258.925 124.391C258.925 114.096 250.58 105.751 240.286 105.751C229.991 105.751 221.646 114.096 221.646 124.391C221.646 134.685 229.991 143.03 240.286 143.03Z" fill="#F6AC3B"/>
<path d="M239.271 129.843C239.144 129.843 239.144 129.843 239.017 129.716L234.199 124.644C234.072 124.518 234.072 124.391 234.199 124.264L239.017 119.192C239.144 119.065 239.397 119.065 239.524 119.192C239.651 119.319 239.651 119.572 239.524 119.699L234.833 124.644L239.524 129.59C239.651 129.716 239.651 129.97 239.524 130.097C239.397 129.843 239.271 129.843 239.271 129.843Z" fill="white"/>
<path d="M247.767 124.771H234.453C234.326 124.771 234.073 124.644 234.073 124.391C234.073 124.137 234.2 124.01 234.453 124.01H247.767C247.894 124.01 248.148 124.137 248.148 124.391C248.148 124.644 247.894 124.771 247.767 124.771Z" fill="white"/>
<path d="M424.117 453.394C425.604 444.27 419.413 435.669 410.289 434.182C401.165 432.696 392.564 438.887 391.077 448.011C389.591 457.135 395.782 465.736 404.906 467.222C414.03 468.709 422.631 462.517 424.117 453.394Z" fill="#F6AC3B"/>
<path d="M407.662 454.578C406.014 454.578 404.619 453.183 404.619 451.535V444.941C404.619 443.293 406.014 441.898 407.662 441.898C409.31 441.898 410.705 443.293 410.705 444.941V451.535C410.578 453.183 409.31 454.578 407.662 454.578ZM407.662 442.532C406.394 442.532 405.253 443.546 405.253 444.941V451.535C405.253 452.803 406.267 453.944 407.662 453.944C408.93 453.944 410.071 452.93 410.071 451.535V444.941C409.944 443.673 408.93 442.532 407.662 442.532Z" fill="white"/>
<path d="M407.662 456.734C405.887 456.734 404.365 456.226 403.351 455.085C401.449 452.93 401.702 449.633 401.702 449.506C401.702 449.379 401.829 449.252 402.083 449.252C402.21 449.252 402.336 449.379 402.336 449.633C402.336 449.633 402.083 452.803 403.731 454.705C404.619 455.719 405.887 456.226 407.535 456.226C409.184 456.226 410.452 455.719 411.339 454.705C413.241 452.803 413.114 449.633 413.114 449.506C413.114 449.379 413.241 449.126 413.368 449.126C413.495 449.126 413.748 449.252 413.748 449.379C413.748 449.506 413.875 452.93 411.846 454.958C410.832 456.1 409.437 456.734 407.662 456.734Z" fill="white"/>
<path d="M407.662 461.298C407.535 461.298 407.281 461.172 407.281 460.918V456.226C407.281 456.1 407.408 455.846 407.662 455.846C407.915 455.846 408.042 455.973 408.042 456.226V460.918C407.915 461.172 407.789 461.298 407.662 461.298Z" fill="white"/>
<path d="M323.974 502.382C340.291 502.382 353.518 489.154 353.518 472.837C353.518 456.52 340.291 443.293 323.974 443.293C307.657 443.293 294.429 456.52 294.429 472.837C294.429 489.154 307.657 502.382 323.974 502.382Z" fill="#F6AC3B"/>
<path d="M321.311 464.722C318.775 462.82 315.098 463.454 313.703 466.244C313.069 467.385 313.069 468.78 314.464 470.048C317.127 472.71 322.833 478.036 325.369 480.318C326.763 481.586 328.539 482.22 330.441 481.967C331.709 481.84 332.977 481.206 333.991 479.684C336.781 475.88 330.06 472.837 330.06 472.837L327.144 475.88L320.297 469.287L323.34 465.99L321.311 464.722Z" fill="white"/>
</svg>
