<svg width="634" height="634" viewBox="0 0 634 634" fill="none" xmlns="http://www.w3.org/2000/svg">
<path d="M97.0021 314.844C97.0021 314.844 83.8149 319.409 97.2557 347.559C110.697 375.708 120.207 389.783 120.207 389.783C120.207 389.783 122.489 396.25 117.037 397.138C111.584 398.025 99.6649 395.743 97.0021 402.336C94.3393 409.184 99.1577 415.777 109.175 421.864C119.192 427.823 140.621 441.771 142.523 443.039C144.425 444.307 146.327 447.35 142.65 448.492C138.973 449.633 111.965 451.788 113.74 464.468C115.515 477.275 146.074 489.321 149.497 490.716C152.794 492.111 153.555 493.506 153.301 495.408C152.921 497.183 143.791 497.056 136.183 497.944C128.575 498.831 119.826 501.24 121.475 508.468C123.123 515.696 141.002 531.419 185.382 536.998L206.05 538.266L217.843 521.021C240.793 482.601 239.398 458.889 234.707 453.056C230.015 447.35 222.661 452.676 217.335 458.128C211.883 463.581 206.431 470.935 204.782 470.048C203.134 469.16 202.5 467.638 203.387 464.215C204.402 460.791 213.658 429.218 204.655 419.962C195.652 410.705 177.393 430.74 174.223 432.895C171.053 435.051 169.785 431.627 170.039 429.472C170.293 427.189 172.448 401.702 173.97 390.164C175.365 378.625 173.209 370.636 166.108 368.608C159.261 366.579 153.682 377.357 149.751 381.161C145.693 384.965 142.016 379.132 142.016 379.132C142.016 379.132 136.817 363.028 122.869 335.006C108.921 306.983 97.0021 314.844 97.0021 314.844" fill="#74C1C7"/>
<path d="M207.065 543.338C196.921 522.796 179.422 485.898 164.333 454.324C149.244 422.751 135.422 394.221 125.405 373.553C120.333 363.282 116.276 354.913 113.486 349.08C112.091 346.164 110.95 344.008 110.189 342.487C109.809 341.726 109.555 341.219 109.302 340.712C109.175 340.331 109.048 340.078 109.048 340.078C109.048 340.078 109.175 340.204 109.428 340.712C109.682 341.092 109.936 341.726 110.316 342.36C111.077 343.882 112.218 346.164 113.613 348.954C116.529 354.66 120.714 363.028 125.786 373.299C135.93 393.841 149.751 422.371 164.967 453.944C180.183 485.517 197.554 522.416 207.572 543.084" fill="#396DAB"/>
<path d="M113.613 406.267C113.613 406.267 114.12 406.394 115.008 406.648C115.895 407.028 117.163 407.408 118.812 408.042C121.982 409.31 126.42 411.212 131.238 413.368C135.93 415.524 140.241 417.426 143.538 418.947C145.059 419.581 146.201 420.215 147.215 420.596C148.103 420.976 148.61 421.23 148.61 421.23C148.61 421.23 148.103 421.103 147.215 420.849C146.327 420.469 145.059 420.088 143.411 419.328C140.241 418.06 135.803 416.031 131.111 413.875C126.42 411.72 122.109 409.818 118.812 408.423C117.29 407.789 116.022 407.282 115.135 406.774C114.12 406.521 113.613 406.267 113.613 406.267Z" fill="#396DAB"/>
<path d="M150.004 420.088C149.878 419.962 153.301 410.832 157.739 399.547C162.177 388.262 165.854 379.132 166.108 379.259C166.235 379.386 162.811 388.515 158.373 399.8C153.935 411.086 150.258 420.088 150.004 420.088Z" fill="#396DAB"/>
<path d="M171.18 469.667C171.18 469.667 171.434 469.16 172.068 468.399C172.702 467.512 173.589 466.37 174.604 465.102C176.759 462.313 179.676 458.509 182.846 454.071C186.016 449.76 188.679 445.702 190.581 442.659C191.468 441.264 192.229 440.123 192.863 439.108C193.37 438.348 193.751 437.84 193.751 437.84C193.751 437.84 193.497 438.348 193.117 439.235C192.609 440.123 191.975 441.391 190.961 442.786C189.186 445.829 186.523 449.886 183.353 454.324C180.183 458.762 177.267 462.566 174.984 465.229C173.843 466.624 172.955 467.638 172.321 468.399C171.561 469.287 171.18 469.667 171.18 469.667Z" fill="#396DAB"/>
<path d="M135.423 464.342C135.423 464.342 135.93 464.342 136.817 464.342C137.832 464.468 139.1 464.595 140.621 464.722C143.791 465.102 148.356 465.61 153.175 466.37C158.12 467.004 162.558 467.638 165.728 468.146C167.249 468.399 168.517 468.653 169.532 468.78C170.419 468.906 170.927 469.033 170.927 469.033C170.927 469.033 170.419 469.033 169.532 469.033C168.517 468.906 167.249 468.78 165.728 468.653C162.558 468.272 157.993 467.765 153.175 467.004C148.229 466.37 143.791 465.736 140.621 465.229C139.1 464.976 137.832 464.722 136.817 464.595C135.93 464.595 135.423 464.468 135.423 464.342Z" fill="#396DAB"/>
<path d="M148.483 510.497C148.483 510.497 149.117 510.497 150.258 510.624C151.526 510.75 153.175 510.877 155.203 511.131C159.388 511.638 165.094 512.272 171.434 513.033C177.774 513.794 183.48 514.554 187.537 515.188C189.566 515.442 191.088 515.696 192.482 515.949C193.624 516.076 194.258 516.203 194.258 516.33C194.258 516.33 193.624 516.33 192.482 516.203C191.215 516.076 189.566 515.949 187.537 515.696C183.353 515.188 177.647 514.554 171.307 513.794C164.967 513.033 159.261 512.272 155.203 511.638C153.175 511.384 151.653 511.131 150.258 510.877C149.117 510.624 148.483 510.497 148.483 510.497Z" fill="#396DAB"/>
<path d="M193.116 515.696C193.116 515.696 193.497 515.062 194.131 514.047C194.892 512.906 195.906 511.511 197.174 509.736C199.71 506.059 203.387 501.114 207.064 495.408C210.868 489.702 214.165 484.503 216.448 480.699C217.589 478.924 218.476 477.402 219.237 476.261C219.871 475.246 220.252 474.612 220.378 474.612C220.378 474.612 220.125 475.246 219.491 476.388C218.857 477.529 217.969 479.05 216.828 480.952C214.546 484.756 211.376 490.082 207.572 495.788C203.768 501.494 200.09 506.439 197.428 509.99C196.033 511.765 195.018 513.16 194.131 514.174C193.624 515.188 193.243 515.696 193.116 515.696Z" fill="#E0E0E0"/>
<path d="M432.135 475.5C399.927 459.65 387.628 422.878 383.57 388.896C382.936 383.19 381.415 377.357 383.317 371.904C385.219 366.579 391.051 362.141 396.504 363.789C401.069 365.184 403.605 369.749 406.521 373.426C410.452 378.371 415.777 382.048 421.737 384.077C425.668 385.345 430.233 385.852 433.529 383.316C437.967 379.893 437.587 373.046 436.699 367.466C435.051 356.942 433.403 346.544 431.754 336.02C430.867 330.441 429.979 324.608 430.867 319.029C431.754 313.45 434.924 307.87 439.996 305.588C445.068 303.306 452.169 305.334 454.198 310.66C454.959 312.942 454.959 315.352 455.466 317.634C455.973 319.916 457.495 322.326 459.777 322.706C462.186 323.086 464.088 321.058 465.61 319.156C470.555 312.562 473.345 304.7 476.007 296.839C478.543 288.977 481.079 280.989 485.391 274.015C489.702 267.041 496.295 260.954 504.284 259.306C512.272 257.658 521.655 261.335 524.825 268.943C528.122 276.551 524.699 285.3 520.641 292.528C514.681 303.179 507.073 312.942 498.324 321.438C496.803 322.96 495.027 324.608 494.647 326.764C494.013 330.694 498.071 333.864 502.001 334.498C506.439 335.259 510.877 334.118 515.315 333.991C519.753 333.864 524.825 335.006 527.108 338.936C530.278 344.389 526.347 351.109 522.289 355.801C514.047 365.184 504.157 373.046 493.252 379.005C489.321 381.161 485.137 383.19 482.347 386.613C479.431 390.037 478.163 395.362 480.826 399.04C483.489 402.717 488.814 403.224 492.999 401.702C497.183 400.181 500.733 397.264 504.664 395.109C511.892 391.051 522.036 390.037 527.995 395.996C531.926 399.927 533.194 406.014 532.307 411.466C531.419 416.918 528.756 421.99 525.84 426.682C515.696 443.166 501.621 457.241 484.63 466.117C467.258 475.12 450.901 479.304 432.135 475.5Z" fill="#74C1C7"/>
<path d="M437.587 452.93C439.996 435.051 444.18 415.65 449.379 395.616C450.647 390.544 451.915 385.599 453.183 380.78C454.451 375.962 455.719 371.017 457.241 366.452C460.284 357.069 463.835 348.446 467.512 340.204C471.189 331.962 474.993 324.354 478.543 317.254C482.221 310.153 485.644 303.559 489.068 297.726C495.915 286.061 502.509 277.185 507.327 271.352C509.736 268.436 511.638 266.153 513.033 264.758C513.667 263.998 514.174 263.49 514.555 263.11C514.935 262.73 515.062 262.603 515.062 262.603C515.062 262.603 514.935 262.856 514.555 263.237C514.174 263.617 513.667 264.251 513.16 265.012C511.892 266.534 509.99 268.816 507.707 271.732C503.016 277.692 496.549 286.441 489.702 298.234C486.278 304.066 482.855 310.66 479.304 317.761C475.754 324.862 471.95 332.47 468.272 340.712C464.595 348.827 461.045 357.576 458.002 366.832C456.48 371.524 455.212 376.216 453.944 381.161C452.676 386.106 451.408 391.051 450.14 395.996C445.068 416.031 440.757 435.431 438.348 453.183" fill="#396DAB"/>
<path d="M457.621 366.325C457.494 366.325 457.241 365.564 456.734 364.043C456.226 362.521 455.466 360.366 454.705 357.576C453.056 352.124 451.028 344.389 448.872 336.02C446.716 327.524 444.561 319.916 442.786 314.591C441.898 311.928 441.264 309.646 440.757 308.124C440.25 306.602 439.996 305.715 440.123 305.715C440.25 305.715 440.503 306.476 441.137 307.997C441.771 309.519 442.532 311.674 443.546 314.337C445.448 319.79 447.731 327.271 449.886 335.766C452.042 344.135 453.944 351.616 455.466 357.449C456.1 359.985 456.734 362.268 457.241 364.043C457.494 365.438 457.621 366.198 457.621 366.325Z" fill="#396DAB"/>
<path d="M527.869 341.726C527.869 341.853 526.854 342.106 525.079 342.487C523.304 342.994 520.641 343.628 517.344 344.516C510.877 346.291 501.875 348.954 492.238 352.377C482.474 355.801 473.852 359.224 467.639 362.014C464.595 363.282 462.059 364.423 460.284 365.311C458.509 366.072 457.621 366.452 457.621 366.452C457.621 366.325 458.509 365.818 460.157 364.93C461.806 364.043 464.215 362.775 467.385 361.38C473.471 358.464 482.094 354.913 491.857 351.49C501.621 348.066 510.624 345.53 517.217 343.882C520.514 343.121 523.177 342.614 525.079 342.233C526.854 341.853 527.869 341.726 527.869 341.726Z" fill="#396DAB"/>
<path d="M438.348 451.408C438.348 451.408 438.094 451.154 437.714 450.647C437.333 450.013 436.699 449.126 436.065 448.238C434.671 446.082 432.642 443.039 430.359 439.108C425.668 431.374 419.328 420.469 412.734 408.296C406.014 396.123 399.927 385.218 395.363 377.357C393.08 373.553 391.305 370.383 389.91 368.1C389.276 367.086 388.896 366.198 388.389 365.564C388.008 364.93 387.881 364.677 387.881 364.677C387.881 364.677 388.135 364.93 388.515 365.438C388.896 366.072 389.53 366.832 390.164 367.847C391.559 370.002 393.587 373.046 395.87 376.976C400.561 384.711 406.901 395.616 413.495 407.789C420.215 419.962 426.302 430.866 430.867 438.728C433.149 442.532 434.924 445.702 436.319 447.984C436.953 448.999 437.333 449.886 437.841 450.52C438.221 451.154 438.348 451.408 438.348 451.408Z" fill="#396DAB"/>
<path d="M529.77 405.887C529.77 405.887 529.517 406.14 528.883 406.394C528.122 406.774 527.234 407.155 526.22 407.789C523.811 409.057 520.514 410.705 516.456 412.734C508.214 416.918 496.802 422.751 484.376 429.218C471.823 435.685 460.411 441.518 452.042 445.448C447.858 447.477 444.434 448.999 442.152 450.013C441.01 450.52 440.123 450.901 439.362 451.154C438.728 451.408 438.348 451.535 438.348 451.535C438.348 451.535 438.601 451.281 439.235 451.028C439.996 450.647 440.884 450.267 441.898 449.633C444.307 448.365 447.604 446.716 451.662 444.688C459.904 440.503 471.316 434.67 483.742 428.204C496.295 421.737 507.707 416.031 516.076 411.973C520.26 409.944 523.684 408.423 525.966 407.408C527.108 406.901 527.995 406.521 528.756 406.267C529.39 405.887 529.77 405.76 529.77 405.887Z" fill="#396DAB"/>
<path d="M141.509 91.1692C146.581 90.2816 151.906 92.0568 155.964 95.2268C160.022 98.3968 163.065 102.708 165.347 107.273C169.785 116.149 170.419 127.688 169.658 137.578C158.754 135.93 150.258 126.42 146.2 121.221C139.86 113.232 133.394 94.5928 141.509 91.1692Z" fill="#74C1C7"/>
<path d="M186.65 146.2C182.465 142.27 181.07 135.803 182.592 130.224C184.114 124.644 188.298 120.08 193.37 117.29C195.652 116.022 198.569 115.134 200.978 116.149C203.26 117.036 204.655 119.572 204.909 122.108C205.162 124.644 204.402 127.054 203.26 129.336C199.71 137.071 194.892 143.791 186.65 146.2Z" fill="#74C1C7"/>
<path d="M190.834 170.8C190.707 170.8 189.693 168.517 188.298 164.713C187.664 162.811 187.03 160.402 186.777 157.739C186.523 155.076 186.143 152.16 186.269 148.99C186.396 142.65 188.171 137.071 190.2 133.52C191.215 131.745 192.229 130.477 192.99 129.59C193.751 128.702 194.258 128.322 194.258 128.448C194.385 128.575 192.609 130.35 190.834 133.901C188.932 137.451 187.411 142.904 187.284 148.99C187.157 152.033 187.537 154.95 187.791 157.612C188.045 160.275 188.425 162.558 189.059 164.46C190.2 168.39 190.961 170.673 190.834 170.8Z" fill="#396DAB"/>
<path d="M147.722 104.99C147.722 104.99 148.483 105.878 149.751 107.653C151.019 109.428 152.794 111.838 155.076 115.008C159.514 121.221 165.474 129.97 171.941 139.734C178.408 149.497 183.86 158.5 187.791 165.094C189.693 168.39 191.214 171.053 192.356 172.955C193.37 174.857 193.877 175.872 193.877 175.872C193.75 175.872 193.116 174.984 191.975 173.082C190.707 171.053 189.059 168.517 187.157 165.347C183.099 158.88 177.393 149.878 171.053 140.114C164.586 130.477 158.88 121.728 154.442 115.261C152.414 112.218 150.765 109.682 149.37 107.653C148.229 106.005 147.595 104.99 147.722 104.99Z" fill="#396DAB"/>
<path d="M178.154 156.218C168.898 148.356 155.71 145.44 144.045 148.61C141.002 149.37 137.705 151.146 137.325 154.189C136.944 157.232 139.734 159.768 142.523 161.163C153.935 167.249 168.898 165.474 178.534 156.978" fill="#74C1C7"/>
<path d="M151.272 154.062C151.272 153.935 151.906 153.808 152.921 153.682C154.062 153.428 155.584 153.301 157.612 153.048C161.543 152.794 167.249 152.54 173.336 154.442C176.379 155.33 179.042 156.725 181.197 158.373C183.353 159.895 185.001 161.797 186.269 163.318C187.537 164.967 188.425 166.362 188.805 167.376C189.312 168.39 189.566 168.898 189.566 169.024C189.312 169.151 188.171 166.869 185.635 163.952C184.367 162.431 182.719 160.782 180.563 159.261C178.408 157.739 175.872 156.471 172.955 155.584C167.249 153.808 161.543 153.935 157.612 153.935C153.682 153.935 151.272 154.189 151.272 154.062Z" fill="#396DAB"/>
<path d="M496.549 188.805L460.284 178.154C456.987 177.14 455.085 173.716 455.973 170.292L466.624 134.028C467.639 130.731 471.062 128.829 474.486 129.716L510.751 140.368C514.047 141.382 515.949 144.806 515.062 148.229L504.411 184.494C503.396 187.918 499.846 189.82 496.549 188.805Z" fill="#48D1EC"/>
<path d="M496.549 173.843C496.549 173.843 496.549 173.716 496.676 173.462C496.803 173.209 496.803 172.702 496.929 172.321C497.183 171.307 497.563 169.785 498.071 167.883C499.085 164.079 500.607 158.627 502.382 152.16L502.509 152.414C494.52 150.131 484.883 147.342 474.486 144.425C474.359 144.425 475.247 144.045 474.866 144.172V144.298V144.425L474.739 144.806L474.486 145.566L474.105 146.961C473.852 147.976 473.598 148.863 473.345 149.878C472.837 151.78 472.33 153.682 471.696 155.457C470.682 159.134 469.667 162.558 468.653 165.728L468.526 165.347C476.768 167.756 483.742 169.785 488.687 171.307C491.097 172.068 492.999 172.575 494.393 173.082C495.027 173.336 495.535 173.462 495.915 173.589C496.422 173.716 496.549 173.843 496.549 173.843C496.549 173.843 496.422 173.843 496.042 173.716C495.661 173.589 495.154 173.462 494.52 173.336C493.125 172.955 491.223 172.448 488.814 171.814C483.742 170.419 476.768 168.39 468.399 166.108L468.146 165.981L468.273 165.728C469.16 162.431 470.175 159.007 471.189 155.457C471.696 153.682 472.203 151.78 472.837 149.878C473.091 148.99 473.345 147.976 473.598 146.961L473.979 145.566L474.232 144.806L474.359 144.425V144.298V144.172C473.979 144.298 474.866 143.918 474.739 143.918C485.137 146.961 494.774 149.751 502.762 152.033L503.016 152.16L502.889 152.414C500.987 158.88 499.339 164.333 498.197 168.137C497.69 169.912 497.183 171.434 496.929 172.448C496.803 172.955 496.676 173.336 496.549 173.589C496.676 173.716 496.549 173.843 496.549 173.843Z" fill="#333333"/>
<path d="M485.264 142.65C485.264 142.65 486.151 142.777 487.8 143.157C489.321 143.538 491.604 144.172 494.266 144.932H494.393V145.059C494.774 146.581 495.281 148.229 495.661 149.878L495.788 150.385L495.281 150.258C494.393 150.004 493.506 149.751 492.618 149.497C488.18 148.229 484.122 147.088 481.206 146.2L480.826 146.074L481.079 145.82C483.615 143.664 485.264 142.523 485.264 142.65C485.264 142.65 484.883 142.904 484.249 143.538C483.488 144.298 482.601 145.186 481.46 146.2L481.333 145.82C484.249 146.581 488.307 147.722 492.745 148.99C493.632 149.244 494.52 149.497 495.408 149.751L495.027 150.131C494.647 148.356 494.14 146.708 493.759 145.313L493.886 145.566C491.223 144.806 489.068 144.172 487.546 143.664C486.151 143.03 485.264 142.777 485.264 142.65Z" fill="#333333"/>
<path d="M490.843 162.558C490.843 162.558 491.096 162.05 491.477 161.036C491.857 160.022 492.111 158.5 491.477 156.725C490.97 154.95 489.321 153.048 487.039 152.54C484.757 151.906 481.713 152.667 480.065 155.076C478.417 157.359 478.67 160.529 480.065 162.431C481.46 164.46 483.742 165.347 485.517 165.22C487.419 165.22 488.814 164.333 489.575 163.699C490.463 163.065 490.843 162.558 490.843 162.558C490.843 162.558 490.843 162.684 490.589 162.938C490.462 163.192 490.209 163.445 489.828 163.826C489.068 164.586 487.673 165.474 485.644 165.601C483.742 165.728 481.206 164.84 479.685 162.684C478.924 161.67 478.417 160.275 478.417 158.88C478.417 157.486 478.797 155.964 479.685 154.696C480.572 153.428 481.84 152.54 483.235 152.16C484.63 151.653 486.024 151.653 487.292 152.033C489.828 152.794 491.477 154.823 491.984 156.725C492.491 158.627 492.111 160.275 491.73 161.29C491.477 161.797 491.35 162.177 491.096 162.431C490.97 162.431 490.843 162.558 490.843 162.558Z" fill="#333333"/>
<path d="M171.687 273.761L118.431 285.173C114.12 286.061 109.809 283.271 108.794 278.96L97.3825 225.704C96.4949 221.393 99.2845 217.082 103.596 216.067L156.852 204.655C161.163 203.768 165.474 206.557 166.488 210.868L177.9 264.124C178.915 268.562 176.125 272.874 171.687 273.761Z" fill="#48D1EC"/>
<path d="M128.068 228.747C128.068 228.747 128.448 228.874 129.336 229.254C130.224 229.635 131.365 230.269 132.886 230.903L133.013 231.03L132.886 231.156C131.745 233.312 130.097 236.228 128.322 239.652L128.195 239.272C132.886 242.315 138.846 246.119 145.44 250.43L144.932 250.557C146.454 248.021 147.976 245.358 149.624 242.568L149.751 242.315L150.004 242.442C152.16 242.949 154.316 243.71 156.344 244.851C158.373 245.992 160.402 247.387 161.543 249.796C161.797 250.43 162.05 250.937 162.05 251.571L162.177 252.586L162.05 253.6C162.05 254.234 161.797 254.868 161.67 255.502C161.543 256.136 161.29 256.643 160.909 257.277C159.768 259.56 157.866 261.462 155.33 262.476C152.921 263.49 150.258 263.744 147.722 263.237C146.454 262.983 145.313 262.603 144.172 261.969C143.03 261.335 142.143 260.701 141.002 260.067C136.944 257.531 133.14 254.995 129.463 252.712C125.786 250.303 122.235 248.148 118.938 245.992C118.178 245.485 117.29 244.978 116.529 244.47C115.768 243.963 114.881 243.456 114.247 242.822C112.852 241.554 112.091 239.779 111.964 238.004C111.838 234.58 113.613 231.664 115.768 230.015C117.924 228.367 120.206 227.733 122.108 227.606C124.01 227.479 125.405 227.86 126.293 228.24C126.8 228.367 127.054 228.62 127.307 228.747C127.941 228.747 128.068 228.747 128.068 228.747C128.068 228.874 126.166 227.606 122.489 227.733C120.714 227.86 118.431 228.494 116.402 230.142C114.5 231.79 112.725 234.58 112.852 237.75C112.852 239.398 113.613 240.92 115.008 242.061C115.642 242.695 116.402 243.076 117.163 243.583C117.924 244.09 118.812 244.597 119.572 245.104C122.869 247.133 126.42 249.416 130.097 251.698C133.774 253.98 137.705 256.516 141.636 259.052C142.65 259.686 143.664 260.32 144.679 260.954C145.693 261.462 146.834 261.842 147.976 262.096C150.258 262.603 152.794 262.349 155.076 261.335C157.359 260.32 159.134 258.545 160.148 256.516C160.402 256.009 160.656 255.502 160.782 254.868C160.909 254.361 161.163 253.727 161.163 253.22L161.29 252.332L161.163 251.444C161.163 250.937 160.909 250.43 160.656 249.796C159.641 247.767 157.739 246.372 155.837 245.231C153.935 244.09 151.78 243.329 149.751 242.822L150.131 242.695C148.483 245.485 146.961 248.148 145.44 250.557L145.186 250.937L144.932 250.684C138.339 246.372 132.506 242.442 127.814 239.398L127.561 239.272L127.688 239.018C129.59 235.594 131.238 232.805 132.506 230.649L132.633 230.903C131.111 230.142 129.97 229.508 129.209 229.128C128.448 229.001 128.068 228.747 128.068 228.747Z" fill="#333333"/>
<path d="M146.201 237.877C146.074 237.877 145.44 235.341 144.806 232.298C144.172 229.128 143.791 226.592 144.045 226.592C144.172 226.592 144.806 229.128 145.44 232.171C146.074 235.214 146.327 237.877 146.201 237.877Z" fill="#333333"/>
<path d="M150.892 230.903C150.892 231.03 148.356 231.79 145.186 232.424C142.016 233.058 139.353 233.566 139.227 233.312C139.1 233.185 141.763 232.424 144.933 231.79C148.229 231.156 150.892 230.776 150.892 230.903Z" fill="#333333"/>
<path d="M396.25 274.268C392.953 269.196 390.671 248.528 386.36 249.669C380.78 251.191 388.642 273.127 389.149 275.156C389.656 277.058 386.74 277.946 386.36 276.044C385.852 273.381 379.639 247.514 374.187 249.542C371.144 250.684 373.172 256.136 373.172 256.136C373.172 256.136 381.922 281.242 379.386 282.13C376.723 283.018 371.777 268.309 370.002 263.11C368.354 258.165 365.691 256.643 363.916 259.052C361.887 261.588 366.705 276.424 368.227 281.496C369.749 286.568 374.187 300.262 366.452 295.064C358.717 289.992 350.982 288.85 348.573 289.992C346.291 291.133 347.178 294.683 349.968 295.19C352.25 295.571 355.927 297.346 358.59 298.868C360.746 300.009 362.648 301.784 364.55 303.432C365.945 304.574 368.227 307.11 370.383 310.914C372.919 315.352 377.23 318.522 382.175 319.663L384.458 329.173L410.832 319.409L406.394 301.53C402.97 287.836 402.717 278.072 401.956 269.577C400.688 256.009 398.913 256.136 397.391 256.643C394.221 257.658 399.547 279.087 396.25 274.268Z" fill="#FAD9C8"/>
<path d="M401.068 291.64C401.068 291.767 399.547 292.147 397.645 293.542C395.616 294.937 393.334 297.473 392.192 301.15C391.939 302.164 391.685 303.052 391.685 303.94V304.447L391.305 304.32C388.515 303.052 385.852 302.545 384.077 302.418C382.175 302.291 381.034 302.291 381.034 302.164C381.034 302.164 382.175 301.911 384.077 301.911C385.979 302.038 388.769 302.418 391.558 303.686L391.051 303.94C391.178 302.925 391.305 301.911 391.558 300.896C392.192 298.994 393.08 297.473 394.094 296.078C395.109 294.81 396.377 293.796 397.391 293.162C398.406 292.401 399.42 292.147 400.054 291.894C400.688 291.64 401.068 291.64 401.068 291.64Z" fill="#EB996E"/>
<path d="M402.59 311.674C402.717 311.801 400.181 313.83 396.503 315.352C392.826 316.873 389.656 317.254 389.656 317.127C389.656 316.873 392.699 316.239 396.25 314.844C399.8 313.196 402.463 311.548 402.59 311.674Z" fill="#EB996E"/>
<path d="M410.198 443.927C404.365 443.42 398.913 441.01 394.475 437.333L351.997 401.322L352.377 442.786L360.746 443.42L358.337 474.232H226.718V473.471C218.603 466.624 213.658 456.226 211.883 444.814C208.713 424.273 207.445 390.798 204.655 367.213C202.626 350.602 206.303 329.046 221.139 321.184L232.551 316.62L268.562 302.418L314.844 304.574L345.657 313.196C354.279 316.493 361.633 326.764 366.832 334.245L392.573 370.002C392.319 364.17 381.668 328.919 380.907 327.271L412.354 314.337C412.354 314.337 444.814 386.486 440.376 417.552C436.699 443.673 410.198 443.927 410.198 443.927Z" fill="#404B51"/>
<path d="M348.827 386.106C348.827 385.979 351.743 386.36 356.181 385.599C360.619 384.965 366.832 383.063 371.904 378.878C376.976 374.694 379.639 369.368 380.78 365.564C381.921 361.634 381.668 359.098 381.921 359.098C381.921 359.098 382.048 359.732 382.048 360.873C382.048 362.014 381.921 363.662 381.414 365.691C380.527 369.749 377.864 375.201 372.538 379.639C367.213 383.95 360.746 385.852 356.181 386.36C353.899 386.613 351.997 386.613 350.729 386.486C349.587 386.36 348.827 386.233 348.827 386.106Z" fill="white"/>
<path d="M352.25 443.42C352.504 443.42 352.884 425.921 353.011 404.492C353.138 382.936 353.011 365.438 352.757 365.438C352.504 365.438 352.123 382.936 351.997 404.365C351.87 425.921 351.997 443.42 352.25 443.42Z" fill="#455A64"/>
<path d="M241.554 456.226C241.427 456.226 241.807 454.451 242.949 452.042C244.09 449.506 246.372 446.336 249.542 443.546C252.839 440.757 256.263 439.108 258.925 438.348C261.588 437.587 263.237 437.46 263.363 437.587C263.363 437.714 261.715 438.094 259.179 439.108C256.643 440.123 253.346 441.771 250.176 444.434C247.133 447.097 244.851 450.14 243.456 452.422C242.315 454.705 241.681 456.353 241.554 456.226Z" fill="#455A64"/>
<path d="M257.023 398.659C257.023 398.659 257.15 398.659 257.531 398.913C257.911 399.166 258.418 399.293 258.925 399.674C260.193 400.308 262.095 401.195 264.505 402.083C269.45 403.858 277.311 405.506 286.695 403.985C295.951 402.463 306.729 397.011 314.21 386.867C317.887 381.922 320.804 375.708 321.438 368.988C321.818 365.691 321.438 362.141 320.423 358.844C319.282 355.547 317.38 352.504 314.717 350.095C312.055 347.686 308.885 346.037 305.461 345.53C302.037 345.023 298.487 345.91 296.205 348.193C295.063 349.334 294.429 350.856 294.429 352.377C294.429 353.899 295.063 355.42 295.951 356.688C297.853 359.224 301.023 360.492 303.939 360.873C310.153 361.76 316.112 360.619 321.184 358.464C326.256 356.308 330.441 353.011 333.484 349.334C336.527 345.657 338.302 341.726 339.443 338.176C340.585 334.625 340.838 331.328 340.965 328.666C340.965 326.003 340.711 323.974 340.585 322.579C340.458 321.945 340.331 321.438 340.331 321.058C340.331 320.677 340.204 320.55 340.204 320.55C340.204 320.55 341.345 323.34 341.472 328.792C341.472 331.455 341.219 334.752 340.077 338.429C339.063 342.106 337.161 346.164 334.118 349.968C331.075 353.772 326.89 357.196 321.691 359.478C316.493 361.76 310.279 362.902 303.939 362.141C300.769 361.634 297.346 360.492 295.19 357.576C294.176 356.181 293.415 354.406 293.415 352.631C293.415 350.856 294.176 348.954 295.571 347.686C298.233 345.15 302.164 344.262 305.715 344.769C309.392 345.276 312.815 347.052 315.605 349.588C318.395 352.124 320.423 355.294 321.565 358.717C322.706 362.141 322.959 365.818 322.706 369.242C322.072 376.216 319.029 382.556 315.225 387.628C307.49 397.898 296.458 403.478 287.075 404.872C277.438 406.394 269.577 404.492 264.631 402.59C259.433 400.434 257.023 398.659 257.023 398.659Z" fill="white"/>
<path d="M205.289 378.371C205.289 378.371 205.669 377.737 206.557 376.723C207.445 375.708 208.839 374.44 210.868 373.046C214.672 370.129 221.012 367.593 228.367 366.832C232.044 366.452 235.594 366.579 238.637 367.213C241.807 367.847 244.47 368.861 246.626 370.002C248.781 371.144 250.43 372.158 251.444 372.919C252.459 373.68 253.093 374.187 253.093 374.314C252.966 374.44 250.557 372.665 246.372 370.763C242.188 368.734 235.721 367.086 228.62 367.974C221.519 368.608 215.306 371.017 211.502 373.68C207.318 376.342 205.416 378.625 205.289 378.371Z" fill="white"/>
<path d="M217.969 324.228C218.096 324.101 219.998 326.637 224.309 328.919C226.465 330.06 229.254 330.948 232.424 331.328C235.594 331.709 239.145 331.328 242.568 329.934C245.992 328.539 248.781 326.256 250.81 323.72C252.839 321.184 254.107 318.648 254.868 316.239C256.389 311.548 255.882 308.378 256.136 308.378C256.136 308.378 256.389 309.138 256.389 310.533C256.389 311.928 256.263 313.957 255.629 316.366C254.995 318.775 253.727 321.565 251.571 324.228C249.542 326.89 246.626 329.3 242.949 330.821C239.398 332.343 235.594 332.596 232.297 332.216C229.001 331.836 226.084 330.821 223.929 329.553C221.773 328.285 220.125 327.017 219.237 326.003C218.349 324.988 217.842 324.228 217.969 324.228Z" fill="white"/>
<path d="M285.173 434.036C285.173 434.036 285.173 433.529 285.3 432.515C285.554 431.5 285.807 430.106 286.695 428.457C288.343 425.034 292.274 420.849 298.487 418.186C304.7 415.397 313.196 414.89 321.692 417.299C325.876 418.567 330.694 420.088 333.738 424.146C335.259 426.175 335.766 429.091 334.625 431.627C333.484 434.036 331.328 435.812 329.046 436.953C326.637 438.094 324.101 438.728 321.565 438.855C319.029 438.855 316.366 438.221 314.337 436.572C312.308 434.924 311.294 432.388 311.167 430.106C311.04 427.696 311.421 425.414 312.182 423.258C315.605 414.763 322.326 409.437 328.412 406.774C334.625 404.112 340.204 403.731 344.008 404.112C347.812 404.492 349.714 405.253 349.714 405.253C349.714 405.38 347.686 404.746 344.008 404.492C340.331 404.238 334.879 404.746 328.792 407.408C325.749 408.803 322.706 410.705 319.916 413.368C317.127 416.031 314.718 419.454 313.069 423.512C312.308 425.541 311.928 427.696 312.055 429.979C312.182 432.134 313.196 434.29 314.971 435.812C316.746 437.206 319.156 437.84 321.438 437.84C323.847 437.84 326.256 437.206 328.412 436.065C330.568 434.924 332.596 433.402 333.611 431.247C334.625 429.091 334.245 426.682 332.85 424.907C331.455 423.005 329.553 421.737 327.524 420.722C325.496 419.708 323.34 419.074 321.311 418.44C312.942 415.904 304.7 416.411 298.614 419.074C292.401 421.483 288.597 425.541 286.822 428.838C285.427 431.881 285.3 434.036 285.173 434.036Z" fill="white"/>
<path d="M208.586 418.44C208.586 418.44 208.966 418.313 209.6 418.06C210.234 417.806 211.122 417.552 212.39 417.299C214.799 416.665 218.476 415.904 223.168 416.158C225.45 416.284 227.986 416.918 230.522 417.933C233.058 419.074 235.468 420.722 237.37 423.258C239.145 425.794 240.286 429.091 240.032 432.515C239.906 434.163 239.398 435.938 238.511 437.46C237.623 438.982 236.228 440.376 234.326 440.884C232.551 441.391 230.396 441.137 229.001 439.869C227.606 438.474 227.226 436.572 227.099 434.924C226.972 431.5 227.733 428.33 229.001 425.541C231.537 419.835 236.228 416.158 240.54 414.636C244.851 412.988 248.782 413.114 251.318 413.622C252.586 413.875 253.6 414.129 254.234 414.382C254.868 414.636 255.248 414.763 255.122 414.763C255.122 414.89 253.727 414.382 251.318 414.002C248.782 413.748 245.104 413.748 240.92 415.397C236.736 417.045 232.424 420.596 230.015 426.048C228.874 428.711 228.113 431.881 228.24 435.051C228.367 436.572 228.62 438.221 229.762 439.235C230.776 440.25 232.551 440.503 234.073 439.996C235.594 439.489 236.862 438.348 237.623 436.953C238.511 435.558 238.891 434.036 239.018 432.515C239.272 429.345 238.257 426.302 236.609 424.019C234.96 421.61 232.551 419.962 230.269 418.947C227.86 417.806 225.45 417.299 223.295 417.045C218.857 416.665 215.18 417.299 212.644 417.806C209.981 418.186 208.586 418.567 208.586 418.44Z" fill="white"/>
<path d="M404.492 424.526C404.492 424.526 404.238 424.4 403.985 424.019C403.604 423.766 403.224 423.258 402.59 422.624C401.449 421.356 399.927 419.328 398.406 416.538C397.011 413.748 395.616 410.325 394.728 406.267C393.841 402.21 393.334 397.772 393.207 392.953C392.953 388.262 393.207 383.697 393.08 379.639C392.953 375.582 392.446 371.904 391.939 368.861C391.432 365.818 390.924 363.409 390.671 361.634C390.544 360.873 390.417 360.239 390.29 359.732C390.164 359.224 390.164 359.098 390.164 359.098C390.164 359.098 390.29 359.351 390.417 359.732C390.544 360.112 390.671 360.873 390.924 361.634C391.305 363.282 391.939 365.818 392.446 368.861C392.953 371.904 393.587 375.582 393.714 379.639C393.841 383.697 393.714 388.262 393.968 392.953C394.094 397.645 394.602 402.083 395.489 406.14C396.377 410.071 397.645 413.622 399.04 416.284C400.434 419.074 401.829 421.103 402.97 422.371C403.858 423.766 404.492 424.526 404.492 424.526Z" fill="#455A64"/>
<path d="M398.152 416.792C398.279 417.045 394.348 418.694 390.29 421.864C386.233 425.034 383.824 428.457 383.57 428.33C383.443 428.33 384.077 427.316 385.092 426.048C386.106 424.653 387.754 423.005 389.783 421.356C391.812 419.708 393.841 418.567 395.362 417.806C397.011 417.045 398.025 416.792 398.152 416.792Z" fill="white"/>
<path d="M435.431 378.371C435.431 378.371 434.797 378.625 433.656 379.005C432.515 379.386 430.866 379.893 428.964 380.654C425.034 382.175 419.581 384.584 414.256 388.135C408.803 391.685 404.619 395.87 401.449 398.532C399.8 399.927 398.279 400.815 397.138 401.195C396.504 401.322 396.123 401.449 395.743 401.449C395.362 401.449 395.236 401.449 395.236 401.449C395.236 401.322 395.87 401.449 397.011 401.068C398.152 400.688 399.547 399.674 401.068 398.406C404.238 395.616 408.423 391.432 413.875 387.754C419.328 384.077 424.78 381.795 428.838 380.4C430.866 379.639 432.515 379.259 433.656 378.878C434.67 378.498 435.304 378.371 435.431 378.371Z" fill="white"/>
<path d="M422.498 339.57C422.498 339.57 421.99 339.697 421.103 339.824C420.088 339.951 418.82 340.204 417.426 340.331C414.256 340.838 409.944 341.599 405.253 342.614C400.561 343.628 396.25 344.769 393.334 345.784C390.29 346.798 388.515 347.686 388.515 347.559C388.515 347.559 388.896 347.305 389.656 346.798C390.417 346.418 391.685 345.91 393.08 345.276C396.123 344.135 400.308 342.994 405.126 341.98C409.818 340.965 414.256 340.331 417.426 339.951C418.947 339.824 420.342 339.697 421.23 339.57C421.99 339.444 422.498 339.444 422.498 339.57Z" fill="white"/>
<path d="M335.639 180.563C327.651 178.408 319.536 185.762 311.421 184.494C306.475 183.733 302.545 179.929 298.107 177.52C291.386 174.096 282.13 173.843 275.536 177.393C268.943 181.07 264.758 184.874 264.124 192.356C257.911 189.059 247.894 197.047 244.724 204.655C241.554 212.263 242.695 219.871 244.851 227.733C248.655 241.3 255.248 254.107 263.997 265.266C264.758 266.28 266.026 267.294 267.167 266.787C267.928 266.407 268.182 265.392 268.309 264.505C269.196 257.15 268.055 249.796 267.167 242.442C266.28 235.087 265.773 227.606 267.801 220.505C269.83 213.404 275.156 206.811 282.383 205.162C287.709 203.894 293.288 205.416 298.107 207.952C302.925 210.488 307.236 213.912 311.928 216.828C316.493 219.744 321.691 222.154 327.144 222.154C332.596 222.154 338.302 219.491 340.458 214.419C342.613 209.474 339.824 202.5 334.371 201.485C339.19 200.851 343.374 196.54 343.755 191.595C343.881 186.776 340.458 181.831 335.639 180.563Z" fill="#263238"/>
<path d="M256.262 229.635L266.914 311.674C268.689 325.622 281.876 335.259 295.697 332.723C308.631 330.441 317.38 318.268 315.732 305.334C314.971 299.121 314.21 294.049 314.21 293.415C314.21 293.415 334.878 288.724 333.61 267.928C332.976 257.784 330.187 237.116 327.397 218.476C324.354 198.442 306.475 184.114 286.187 185.508L284.158 185.635C262.602 188.298 252.839 208.206 256.262 229.635Z" fill="#FAD9C8"/>
<path d="M314.21 293.035C314.21 293.035 301.15 295.064 286.441 287.202C286.441 287.202 293.922 301.784 314.591 298.487L314.21 293.035Z" fill="#EB996E"/>
<path d="M319.663 233.312C319.789 234.834 318.648 236.355 317 236.482C315.351 236.736 313.957 235.594 313.703 233.946C313.576 232.424 314.717 230.903 316.366 230.776C318.014 230.649 319.409 231.79 319.663 233.312Z" fill="#263238"/>
<path d="M323.593 228.874C323.213 229.254 320.93 227.733 317.634 227.986C314.464 228.113 312.181 230.015 311.801 229.635C311.674 229.508 311.928 228.747 312.942 227.986C313.956 227.226 315.605 226.338 317.507 226.211C319.536 226.084 321.184 226.718 322.198 227.352C323.466 227.986 323.847 228.747 323.593 228.874Z" fill="#263238"/>
<path d="M288.723 235.468C288.85 236.989 287.709 238.511 286.061 238.638C284.412 238.891 283.017 237.75 282.764 236.228C282.637 234.707 283.778 233.185 285.427 233.058C287.202 232.805 288.597 233.819 288.723 235.468Z" fill="#263238"/>
<path d="M292.147 231.664C291.767 232.044 289.484 230.522 286.187 230.776C283.017 230.903 280.735 232.805 280.355 232.424C280.228 232.298 280.481 231.537 281.496 230.776C282.51 230.015 284.159 229.128 286.061 229.001C288.089 228.874 289.738 229.508 290.752 230.142C292.02 230.776 292.401 231.537 292.147 231.664Z" fill="#263238"/>
<path d="M305.461 254.614C305.461 254.488 307.363 253.98 310.66 253.346C311.421 253.22 312.181 252.966 312.308 252.459C312.435 251.825 312.055 250.937 311.547 250.05C310.66 248.148 309.645 246.119 308.758 243.963C304.827 235.341 301.911 228.24 302.164 227.986C302.545 227.86 305.968 234.707 310.026 243.329C311.04 245.485 311.928 247.514 312.815 249.416C313.196 250.303 313.83 251.318 313.449 252.586C313.323 253.22 312.689 253.727 312.181 253.854C311.674 254.107 311.167 254.107 310.787 254.107C307.49 254.614 305.461 254.868 305.461 254.614Z" fill="#263238"/>
<path d="M296.205 257.531C296.712 257.404 296.965 260.954 300.135 263.237C303.305 265.519 306.983 264.885 306.983 265.392C306.983 265.646 306.222 266.153 304.7 266.28C303.179 266.407 300.896 266.153 298.994 264.758C297.092 263.364 296.205 261.462 295.951 259.94C295.571 258.418 295.951 257.531 296.205 257.531Z" fill="#263238"/>
<path d="M292.147 219.11C291.893 219.998 288.723 219.871 284.919 220.505C281.115 221.139 278.199 222.407 277.692 221.646C277.438 221.266 277.945 220.378 279.086 219.491C280.228 218.603 282.13 217.589 284.412 217.208C286.694 216.828 288.723 217.082 290.118 217.462C291.513 217.969 292.274 218.603 292.147 219.11Z" fill="#263238"/>
<path d="M321.818 219.744C321.311 220.505 319.028 219.871 316.366 219.998C313.703 219.998 311.547 220.886 310.913 220.125C310.66 219.744 310.913 218.984 311.928 218.223C312.815 217.462 314.464 216.828 316.239 216.701C318.014 216.574 319.662 217.208 320.677 217.842C321.691 218.603 322.072 219.364 321.818 219.744Z" fill="#263238"/>
<path d="M259.052 244.978C258.672 244.851 244.47 241.681 245.865 256.009C247.26 270.211 261.335 265.9 261.208 265.392C261.208 265.012 259.052 244.978 259.052 244.978Z" fill="#FAD9C8"/>
<path d="M256.389 260.447C256.263 260.447 256.136 260.701 255.755 260.828C255.375 261.081 254.614 261.208 253.853 261.081C252.332 260.701 250.81 258.418 250.43 255.882C250.303 254.614 250.43 253.346 250.81 252.205C251.191 251.064 251.698 250.303 252.459 250.176C253.219 249.923 253.727 250.303 253.98 250.684C254.234 251.064 254.107 251.318 254.234 251.318C254.234 251.318 254.487 251.064 254.361 250.43C254.234 250.176 254.107 249.796 253.727 249.542C253.346 249.289 252.839 249.162 252.332 249.289C251.191 249.416 250.303 250.557 249.923 251.698C249.415 252.839 249.289 254.361 249.415 255.756C249.796 258.672 251.571 261.208 253.6 261.588C254.614 261.715 255.375 261.335 255.882 260.954C256.389 260.828 256.389 260.447 256.389 260.447Z" fill="#EB996E"/>
<path d="M331.455 213.785C322.452 216.828 311.928 215.306 304.32 209.6C298.994 205.67 294.556 199.71 288.089 198.188C283.778 197.174 279.087 198.442 275.283 200.851C271.479 203.26 268.562 206.811 266.026 210.615C270.845 220.886 268.943 232.932 266.914 244.09C266.66 245.358 266.407 246.626 265.519 247.514C263.871 248.908 261.335 248.148 259.813 246.626C257.277 244.344 256.136 240.92 255.248 237.623C253.346 230.142 252.585 222.154 253.727 214.546C254.868 206.811 258.038 199.33 263.363 193.624C269.957 186.396 279.467 182.338 289.231 181.704C298.994 181.197 308.631 184.114 316.873 189.439C320.677 191.848 324.227 194.892 326.383 198.949" fill="#263238"/>
<path d="M341.979 185.255C341.979 185.255 342.106 185.635 341.979 186.523C341.853 187.284 341.345 188.552 340.204 189.566C339.063 190.707 337.161 191.468 335.005 191.722C333.864 191.848 332.723 191.848 331.455 191.722C330.187 191.595 328.792 191.214 327.651 190.327C326.51 189.439 325.622 188.044 325.622 186.396C325.622 184.748 326.89 183.226 328.412 182.592C329.173 182.212 330.06 182.085 330.948 182.085C331.835 182.085 332.723 182.465 333.484 182.972C335.005 184.114 335.766 185.889 335.893 187.791C336.02 189.693 335.259 191.722 333.991 193.116C332.723 194.638 330.948 195.779 329.046 196.413C325.115 197.808 320.804 197.301 316.746 195.906C312.689 194.511 309.138 192.356 305.715 190.327C302.291 188.298 299.121 186.269 295.697 184.874C292.401 183.48 288.977 182.846 285.68 183.226C282.51 183.48 279.594 184.621 277.311 186.016C272.62 188.805 269.957 192.609 268.435 195.272C267.675 196.54 267.167 197.681 266.787 198.442C266.407 199.203 266.28 199.583 266.28 199.583C266.28 199.583 266.28 199.456 266.407 199.33C266.533 199.076 266.533 198.822 266.66 198.442C266.914 197.681 267.421 196.54 268.182 195.272C269.703 192.609 272.239 188.678 277.058 185.762C279.467 184.367 282.383 183.099 285.68 182.846C288.977 182.465 292.527 183.099 295.951 184.494C299.375 185.889 302.671 187.918 306.095 189.946C309.519 191.975 312.942 194.131 317 195.526C320.931 196.92 325.115 197.301 328.792 196.033C330.567 195.399 332.216 194.384 333.484 192.99C334.752 191.595 335.386 189.82 335.259 188.044C335.132 186.269 334.371 184.621 333.103 183.606C331.835 182.592 330.06 182.592 328.665 183.226C327.271 183.86 326.256 185.128 326.256 186.523C326.256 187.918 327.017 189.186 328.031 190.073C329.046 190.961 330.314 191.341 331.582 191.468C332.85 191.595 333.991 191.595 335.005 191.468C337.161 191.214 338.936 190.58 340.077 189.566C341.219 188.552 341.726 187.41 341.853 186.65C341.979 185.635 341.979 185.255 341.979 185.255Z" fill="#455A64"/>
<path d="M242.822 217.208C242.822 217.082 244.47 217.969 247.26 218.096C248.655 218.096 250.303 217.969 251.951 217.208C253.6 216.574 255.375 215.56 257.15 214.292C260.447 211.629 262.222 208.079 262.856 205.416C263.49 202.753 263.363 200.978 263.49 200.978C263.49 200.978 263.617 201.358 263.617 202.246C263.617 203.007 263.617 204.148 263.363 205.67C262.856 208.459 261.081 212.263 257.531 215.053C255.755 216.321 253.98 217.462 252.205 218.096C250.43 218.73 248.655 218.984 247.26 218.857C245.865 218.73 244.724 218.35 243.963 218.096C243.202 217.462 242.822 217.208 242.822 217.208Z" fill="#455A64"/>
<path d="M244.217 227.479C244.217 227.352 245.865 227.606 248.655 227.226C251.317 226.845 254.995 225.831 258.291 223.295C261.588 220.759 263.617 217.589 264.505 215.053C265.519 212.517 265.773 210.868 265.899 210.868C265.899 210.868 265.899 211.249 265.773 212.01C265.646 212.77 265.392 213.912 265.012 215.18C264.124 217.716 262.095 221.266 258.672 223.802C255.248 226.338 251.444 227.479 248.655 227.606C247.26 227.733 246.119 227.606 245.358 227.606C244.597 227.606 244.217 227.479 244.217 227.479Z" fill="#455A64"/>
<path d="M282.51 245.992C282.383 245.992 282.13 245.865 282.13 245.738C282.13 245.485 282.13 245.358 282.383 245.231C282.51 245.231 282.764 245.358 282.764 245.485C282.764 245.738 282.637 245.992 282.51 245.992Z" fill="#EB996E"/>
<path d="M288.47 244.217C288.343 244.217 288.089 244.09 287.963 243.836C287.836 243.583 287.963 243.329 288.216 243.329C288.343 243.329 288.597 243.456 288.723 243.71C288.723 243.963 288.723 244.217 288.47 244.217Z" fill="#EB996E"/>
<path d="M292.654 243.836C292.401 243.836 292.274 243.71 292.147 243.329C292.147 243.076 292.147 242.695 292.401 242.695C292.654 242.695 292.781 242.822 292.908 243.202C292.908 243.456 292.781 243.836 292.654 243.836Z" fill="#EB996E"/>
<path d="M285.68 249.669C285.427 249.669 285.3 249.542 285.3 249.416C285.3 249.289 285.427 249.162 285.68 249.162C285.934 249.162 286.061 249.289 286.061 249.416C286.061 249.542 285.934 249.669 285.68 249.669Z" fill="#EB996E"/>
<path d="M291.259 248.021C291.006 248.021 290.879 247.894 290.879 247.64C290.879 247.387 291.006 247.26 291.133 247.133C291.386 247.133 291.513 247.26 291.513 247.514C291.64 247.767 291.513 247.894 291.259 248.021Z" fill="#EB996E"/>
<path d="M320.297 242.442C320.17 242.442 319.916 242.315 319.789 242.188C319.789 241.934 319.789 241.808 320.043 241.681C320.17 241.681 320.423 241.808 320.55 241.934C320.55 242.188 320.423 242.442 320.297 242.442Z" fill="#EB996E"/>
<path d="M324.354 241.808C324.101 241.808 323.974 241.681 323.974 241.427C323.974 241.174 324.101 240.92 324.227 240.92C324.481 240.92 324.608 241.047 324.608 241.3C324.735 241.554 324.608 241.808 324.354 241.808Z" fill="#EB996E"/>
<path d="M316.619 242.822C316.493 242.822 316.239 242.822 316.239 242.568C316.239 242.442 316.366 242.188 316.493 242.188C316.619 242.188 316.873 242.188 316.873 242.442C316.873 242.568 316.746 242.822 316.619 242.822Z" fill="#EB996E"/>
<path d="M319.916 246.753C319.789 246.88 319.536 246.753 319.409 246.499C319.282 246.246 319.409 246.119 319.536 245.992C319.663 245.865 319.916 245.992 320.043 246.246C320.17 246.499 320.17 246.753 319.916 246.753Z" fill="#EB996E"/>
<path d="M323.467 245.865C323.213 245.865 323.086 245.612 323.213 245.485C323.213 245.358 323.467 245.231 323.593 245.231C323.847 245.231 323.974 245.485 323.847 245.612C323.847 245.738 323.593 245.865 323.467 245.865Z" fill="#EB996E"/>
<path d="M360.366 447.35L357.956 474.105H370.636C371.017 474.105 376.089 473.978 381.795 473.978C385.979 474.486 392.573 474.486 394.602 474.359C394.982 474.359 395.109 474.232 395.236 474.232C395.236 474.232 396.25 474.105 397.138 473.725C398.279 473.344 399.42 472.584 399.293 471.316C398.786 467.512 396.504 467.131 396.504 467.131C396.504 467.131 396.123 467.131 395.362 467.004L395.236 466.624C397.011 466.624 398.405 466.624 399.166 466.497C399.547 466.497 399.673 466.37 399.8 466.37C399.8 466.37 404.238 465.863 403.985 463.454C403.478 459.65 401.195 459.27 401.195 459.27C401.195 459.27 399.674 459.143 397.518 459.016C399.293 459.016 400.815 459.016 401.576 458.889C401.956 458.889 402.083 458.762 402.21 458.762C402.21 458.762 406.648 458.255 406.394 455.846C405.887 452.042 403.604 451.662 403.604 451.662C403.604 451.662 402.336 451.535 400.561 451.408C401.956 451.408 403.224 451.408 403.858 451.281C404.238 451.281 404.365 451.154 404.492 451.154C404.492 451.154 408.93 450.647 408.676 448.238C408.169 444.434 405.887 444.054 405.887 444.054C405.887 444.054 398.786 443.546 393.968 443.293C393.968 443.293 388.515 438.348 386.36 438.601C383.063 438.982 364.296 445.956 364.296 445.956L360.366 447.35Z" fill="#FAD9C8"/>
<path d="M384.204 466.37C384.204 466.624 386.994 466.878 390.417 467.004C393.841 467.131 396.63 467.004 396.63 466.751C396.63 466.497 393.841 466.244 390.417 466.117C386.994 465.99 384.204 466.117 384.204 466.37Z" fill="#EB996E"/>
<path d="M384.077 458.762C384.077 459.016 388.008 459.27 392.953 459.523C397.898 459.65 401.956 459.65 401.956 459.396C401.956 459.143 398.025 458.889 393.08 458.636C388.135 458.382 384.077 458.509 384.077 458.762Z" fill="#EB996E"/>
<g opacity="0.78">
<g opacity="0.78">
<g opacity="0.78">
<g opacity="0.78">
<g opacity="0.78">
<path opacity="0.78" d="M384.712 451.028C384.712 451.281 388.643 451.535 393.588 451.788C398.533 451.915 402.591 451.915 402.591 451.662C402.591 451.408 398.66 451.154 393.715 450.901C388.77 450.774 384.839 450.774 384.712 451.028Z" fill="#EB996E"/>
</g>
</g>
</g>
</g>
</g>
<path d="M395.87 443.673C395.87 443.8 394.728 443.8 393.08 443.927C391.051 444.054 388.769 444.054 386.233 444.18C383.697 444.307 381.414 444.307 379.386 444.434C377.61 444.434 376.596 444.561 376.469 444.434C376.469 444.307 377.484 444.18 379.259 444.054C381.034 443.927 383.443 443.673 386.106 443.673C388.769 443.546 391.178 443.546 392.953 443.673C394.728 443.546 395.87 443.673 395.87 443.673Z" fill="#EB996E"/>
<path d="M360.746 443.42C360.746 443.42 360.619 443.42 360.366 443.42C359.985 443.42 359.605 443.42 359.098 443.293C357.956 443.166 356.308 443.166 354.152 443.039C349.841 442.786 343.628 442.405 336.02 441.898C320.677 441.01 299.502 439.616 276.044 438.474C271.732 438.221 267.548 438.094 263.49 437.967H263.237V437.714C262.983 432.642 262.603 427.696 262.222 422.878C261.842 418.06 261.462 413.495 261.081 409.184C260.32 400.561 259.686 392.826 259.052 386.36C258.545 379.893 258.038 374.694 257.658 371.144C257.531 369.368 257.404 367.974 257.277 367.086C257.277 366.706 257.277 366.325 257.15 366.072C257.15 365.818 257.15 365.691 257.15 365.691C257.15 365.691 257.15 365.818 257.277 366.072C257.277 366.325 257.404 366.706 257.404 367.086C257.531 368.1 257.658 369.368 257.911 371.144C258.292 374.694 258.799 379.893 259.433 386.36C260.067 392.826 260.828 400.561 261.588 409.184C261.969 413.495 262.349 418.06 262.856 422.878C263.237 427.696 263.744 432.642 263.871 437.714L263.617 437.333C267.675 437.46 271.859 437.714 276.17 437.84C299.628 438.982 320.804 440.376 336.147 441.518C343.755 442.025 349.968 442.532 354.279 442.786C356.435 442.912 358.083 443.039 359.224 443.166C359.732 443.166 360.239 443.293 360.492 443.293C360.619 443.42 360.746 443.42 360.746 443.42Z" fill="#455A64"/>
<path d="M272.113 474.232C272.113 474.232 271.859 473.725 271.479 472.837C271.225 472.33 271.098 471.823 270.845 471.189C270.718 470.555 270.338 469.794 270.211 468.906C270.084 468.019 269.83 467.131 269.704 466.117C269.577 465.102 269.577 463.961 269.45 462.82C269.45 460.538 269.704 458.002 270.211 455.339C270.845 452.803 271.732 450.394 272.747 448.238C273.254 447.224 273.761 446.209 274.395 445.448C274.902 444.561 275.536 443.8 276.044 443.166C276.551 442.405 277.058 441.898 277.565 441.391C278.072 440.884 278.453 440.503 278.833 440.123C279.594 439.489 279.974 439.108 279.974 439.108C280.101 439.235 278.453 440.63 276.424 443.42C275.917 444.054 275.41 444.941 274.902 445.702C274.395 446.59 273.888 447.477 273.381 448.492C272.493 450.52 271.606 452.93 270.972 455.466C270.464 458.002 270.211 460.538 270.211 462.82C270.211 463.961 270.211 464.976 270.338 465.99C270.464 467.004 270.591 467.892 270.718 468.78C271.479 472.203 272.24 474.105 272.113 474.232Z" fill="white"/>
<path d="M439.235 474.359C439.235 474.486 386.486 474.739 321.311 474.739C256.136 474.739 203.387 474.612 203.387 474.359C203.387 474.105 256.136 473.978 321.311 473.978C386.36 473.978 439.235 474.105 439.235 474.359Z" fill="#263238"/>
<path d="M411.212 59.596L230.142 59.4692C208.332 59.4692 190.707 77.0944 190.707 98.904L190.58 552.721C190.58 574.531 208.206 592.156 230.015 592.156L411.086 592.283C432.895 592.283 450.52 574.658 450.52 552.848L450.647 99.0308C450.52 77.2212 432.895 59.596 411.212 59.596ZM438.474 546.254C438.474 561.47 426.048 573.897 410.832 573.897L230.142 573.77C214.926 573.77 202.5 561.344 202.5 546.128L202.626 103.088C202.626 87.8724 215.053 75.446 230.269 75.446H260.954H273.254C277.946 75.446 281.75 79.3768 281.75 84.322V90.662C281.75 95.6072 285.554 99.538 290.245 99.538H358.717C363.409 99.538 367.213 95.6072 367.213 90.662V84.322C367.213 79.3768 371.017 75.446 375.708 75.446H410.832C426.048 75.446 438.474 87.8724 438.474 103.088V546.254Z" fill="#263238"/>
<path d="M373.299 474.359H279.34V516.203H373.299V474.359Z" fill="#263238"/>
<path d="M438.474 474.359H357.703C357.703 492.111 342.614 506.693 323.974 506.693C305.334 506.693 290.245 492.238 290.245 474.359H202.753V546.762C202.753 561.978 215.053 574.404 230.396 574.404L411.086 574.531C426.302 574.531 438.728 562.231 438.728 546.888L438.474 474.359Z" fill="#E39D29"/>
<path d="M287.461 517.625L290 525.539L292.531 517.625H296.141V529H293.391V526.344L293.656 520.906L290.906 529H289.094L286.336 520.898L286.602 526.344V529H283.859V517.625H287.461ZM301.859 529.156C300.562 529.156 299.513 528.771 298.711 528C297.909 527.224 297.508 526.216 297.508 524.977V524.758C297.508 523.893 297.667 523.13 297.984 522.469C298.307 521.807 298.776 521.297 299.391 520.938C300.005 520.573 300.734 520.391 301.578 520.391C302.766 520.391 303.703 520.76 304.391 521.5C305.078 522.234 305.422 523.26 305.422 524.578V525.602H300.188C300.281 526.076 300.487 526.448 300.805 526.719C301.122 526.99 301.534 527.125 302.039 527.125C302.872 527.125 303.523 526.833 303.992 526.25L305.195 527.672C304.867 528.125 304.401 528.487 303.797 528.758C303.198 529.023 302.552 529.156 301.859 529.156ZM301.562 522.422C300.792 522.422 300.333 522.932 300.188 523.953H302.844V523.75C302.854 523.328 302.747 523.003 302.523 522.773C302.299 522.539 301.979 522.422 301.562 522.422ZM314.016 529H311.375V525.867H309.07V529H306.438V520.547H309.07V523.844H311.375V520.547H314.016V529ZM319.547 529.156C318.25 529.156 317.201 528.771 316.398 528C315.596 527.224 315.195 526.216 315.195 524.977V524.758C315.195 523.893 315.354 523.13 315.672 522.469C315.995 521.807 316.464 521.297 317.078 520.938C317.693 520.573 318.422 520.391 319.266 520.391C320.453 520.391 321.391 520.76 322.078 521.5C322.766 522.234 323.109 523.26 323.109 524.578V525.602H317.875C317.969 526.076 318.174 526.448 318.492 526.719C318.81 526.99 319.221 527.125 319.727 527.125C320.56 527.125 321.211 526.833 321.68 526.25L322.883 527.672C322.555 528.125 322.089 528.487 321.484 528.758C320.885 529.023 320.24 529.156 319.547 529.156ZM319.25 522.422C318.479 522.422 318.021 522.932 317.875 523.953H320.531V523.75C320.542 523.328 320.435 523.003 320.211 522.773C319.987 522.539 319.667 522.422 319.25 522.422ZM324.398 526.969C324.82 526.547 325.125 526.128 325.312 525.711C325.505 525.294 325.617 524.81 325.648 524.258L325.672 523.68L325.719 520.547H332.305V526.969H333.57V531.562H330.93V529H326.352V531.562H323.648L323.641 526.969H324.398ZM327.43 526.969H329.68V522.578H328.328L328.32 523.273C328.284 524.794 327.987 526.026 327.43 526.969ZM343.305 526.047H342.305V529H339.672V526.047H338.695L337.25 529H334.125L336.641 524.477L334.023 520.547H337.312L338.914 523.586H339.672V520.547H342.305V523.586H343.086L344.695 520.547H347.984L345.352 524.492L345.43 524.453L347.961 529H344.742L343.305 526.047ZM352.844 529.156C351.547 529.156 350.497 528.771 349.695 528C348.893 527.224 348.492 526.216 348.492 524.977V524.758C348.492 523.893 348.651 523.13 348.969 522.469C349.292 521.807 349.76 521.297 350.375 520.938C350.99 520.573 351.719 520.391 352.562 520.391C353.75 520.391 354.688 520.76 355.375 521.5C356.062 522.234 356.406 523.26 356.406 524.578V525.602H351.172C351.266 526.076 351.471 526.448 351.789 526.719C352.107 526.99 352.518 527.125 353.023 527.125C353.857 527.125 354.508 526.833 354.977 526.25L356.18 527.672C355.852 528.125 355.385 528.487 354.781 528.758C354.182 529.023 353.536 529.156 352.844 529.156ZM352.547 522.422C351.776 522.422 351.318 522.932 351.172 523.953H353.828V523.75C353.839 523.328 353.732 523.003 353.508 522.773C353.284 522.539 352.964 522.422 352.547 522.422ZM365.32 524.836C365.32 526.148 365.023 527.198 364.43 527.984C363.841 528.766 363.044 529.156 362.039 529.156C361.263 529.156 360.625 528.872 360.125 528.305V532.25H357.492V520.547H359.953L360.031 521.328C360.536 520.703 361.201 520.391 362.023 520.391C363.065 520.391 363.875 520.776 364.453 521.547C365.031 522.312 365.32 523.367 365.32 524.711V524.836ZM362.688 524.672C362.688 523.172 362.25 522.422 361.375 522.422C360.75 522.422 360.333 522.646 360.125 523.094V526.422C360.354 526.891 360.776 527.125 361.391 527.125C362.229 527.125 362.661 526.401 362.688 524.953V524.672Z" fill="white"/>
<path d="M312.308 539.66V546.761H311.801V540.168H310.026V539.66H312.308Z" fill="white"/>
<path d="M314.083 543.211C314.083 540.929 315.225 539.534 316.873 539.534C318.521 539.534 319.663 540.929 319.663 543.211C319.663 545.494 318.521 546.888 316.873 546.888C315.225 546.888 314.083 545.494 314.083 543.211ZM319.155 543.211C319.155 541.182 318.268 540.041 316.873 540.041C315.478 540.041 314.591 541.182 314.591 543.211C314.591 545.24 315.478 546.381 316.873 546.381C318.268 546.381 319.155 545.24 319.155 543.211Z" fill="white"/>
<path d="M320.804 541.816C320.804 541.563 321.058 541.436 321.184 541.436C321.438 541.436 321.565 541.563 321.565 541.816C321.565 542.07 321.311 542.197 321.184 542.197C321.058 542.324 320.804 542.07 320.804 541.816ZM320.804 546.381C320.804 546.128 321.058 546.001 321.184 546.001C321.438 546.001 321.565 546.128 321.565 546.381C321.565 546.635 321.311 546.762 321.184 546.762C321.058 546.762 320.804 546.635 320.804 546.381Z" fill="white"/>
<path d="M322.833 543.211C322.833 540.929 323.974 539.534 325.622 539.534C327.271 539.534 328.412 540.929 328.412 543.211C328.412 545.494 327.271 546.888 325.622 546.888C323.974 546.888 322.833 545.494 322.833 543.211ZM327.905 543.211C327.905 541.182 327.017 540.041 325.622 540.041C324.228 540.041 323.34 541.182 323.34 543.211C323.34 545.24 324.228 546.381 325.622 546.381C327.017 546.381 327.905 545.24 327.905 543.211Z" fill="white"/>
<path d="M335.513 544.86H333.991V546.888H333.484V544.86H329.426V544.479L333.357 539.661H333.991L330.187 544.352H333.611V542.577H334.118V544.352H335.639V544.86H335.513Z" fill="white"/>
<path d="M248.528 535.603H232.424C229.254 535.603 226.845 533.067 226.845 530.024V513.92C226.845 510.75 229.381 508.341 232.424 508.341H248.528C251.698 508.341 254.107 510.877 254.107 513.92V530.024C254.107 533.067 251.698 535.603 248.528 535.603Z" fill="#FAFAFA"/>
<path d="M411.593 533.701H396.377C393.08 533.701 390.417 531.038 390.417 527.742V512.526C390.417 509.229 393.08 506.566 396.377 506.566H411.593C414.89 506.566 417.552 509.229 417.552 512.526V527.742C417.552 531.038 414.89 533.701 411.593 533.701ZM396.377 507.2C393.46 507.2 391.051 509.609 391.051 512.526V527.742C391.051 530.658 393.46 533.067 396.377 533.067H411.593C414.509 533.067 416.918 530.658 416.918 527.742V512.526C416.918 509.609 414.509 507.2 411.593 507.2H396.377Z" fill="white"/>
<path d="M245.485 517.471H235.468C234.707 517.471 234.2 518.105 234.2 518.739V525.332C234.2 526.093 234.834 526.6 235.468 526.6H236.355V529.517L239.779 526.6H245.612C246.373 526.6 246.88 525.966 246.88 525.332V518.739C246.753 517.978 246.119 517.471 245.485 517.471ZM237.243 523.304C236.736 523.304 236.229 522.923 236.229 522.289C236.229 521.782 236.609 521.275 237.243 521.275C237.75 521.275 238.257 521.655 238.257 522.289C238.257 522.796 237.75 523.304 237.243 523.304ZM240.286 523.304C239.779 523.304 239.272 522.923 239.272 522.289C239.272 521.782 239.652 521.275 240.286 521.275C240.793 521.275 241.301 521.655 241.301 522.289C241.301 522.796 240.793 523.304 240.286 523.304ZM243.583 523.304C243.076 523.304 242.569 522.923 242.569 522.289C242.569 521.782 242.949 521.275 243.583 521.275C244.09 521.275 244.597 521.655 244.597 522.289C244.597 522.796 244.09 523.304 243.583 523.304Z" fill="#F6AC3B"/>
<path d="M400.561 523.684C400.434 523.684 400.308 523.557 400.308 523.43C399.547 517.09 404.238 515.062 404.365 515.062C404.492 514.935 404.746 515.062 404.746 515.188C404.872 515.315 404.746 515.569 404.619 515.569C404.492 515.696 400.308 517.471 400.942 523.304C400.815 523.43 400.815 523.684 400.561 523.684Z" fill="white"/>
<path d="M400.561 523.684C400.434 523.684 400.434 523.684 400.308 523.557L398.279 521.148C398.152 521.021 398.152 520.768 398.279 520.641C398.405 520.514 398.659 520.514 398.786 520.641L400.561 522.67L402.083 520.641C402.21 520.514 402.336 520.514 402.463 520.641C402.59 520.768 402.59 520.894 402.463 521.021L400.688 523.43C400.688 523.557 400.688 523.684 400.561 523.684Z" fill="white"/>
<path d="M403.731 525.332C403.604 525.332 403.478 525.206 403.478 525.079C403.351 524.952 403.478 524.698 403.604 524.698C403.731 524.572 407.916 522.796 407.282 516.964C407.282 516.837 407.408 516.583 407.535 516.583C407.662 516.583 407.916 516.71 407.916 516.837C408.55 523.304 403.858 525.332 403.731 525.332Z" fill="white"/>
<path d="M405.76 519.626C405.633 519.626 405.633 519.626 405.506 519.5C405.379 519.373 405.379 519.246 405.506 519.119L407.281 516.71C407.281 516.583 407.408 516.583 407.535 516.583C407.662 516.583 407.662 516.583 407.789 516.71L409.817 519.119C409.944 519.246 409.944 519.5 409.817 519.626C409.691 519.753 409.437 519.753 409.31 519.626L407.535 517.598L406.013 519.626C405.887 519.626 405.76 519.626 405.76 519.626Z" fill="white"/>
<path d="M240.286 143.03C250.58 143.03 258.925 134.685 258.925 124.391C258.925 114.096 250.58 105.751 240.286 105.751C229.991 105.751 221.646 114.096 221.646 124.391C221.646 134.685 229.991 143.03 240.286 143.03Z" fill="#F6AC3B"/>
<path d="M239.271 129.843C239.144 129.843 239.144 129.843 239.017 129.716L234.199 124.644C234.072 124.518 234.072 124.391 234.199 124.264L239.017 119.192C239.144 119.065 239.397 119.065 239.524 119.192C239.651 119.319 239.651 119.572 239.524 119.699L234.833 124.644L239.524 129.59C239.651 129.716 239.651 129.97 239.524 130.097C239.397 129.843 239.271 129.843 239.271 129.843Z" fill="white"/>
<path d="M247.767 124.771H234.453C234.326 124.771 234.073 124.644 234.073 124.391C234.073 124.137 234.2 124.01 234.453 124.01H247.767C247.894 124.01 248.148 124.137 248.148 124.391C248.148 124.644 247.894 124.771 247.767 124.771Z" fill="white"/>
<path d="M424.117 453.394C425.604 444.27 419.413 435.669 410.289 434.182C401.165 432.696 392.564 438.887 391.077 448.011C389.591 457.135 395.782 465.736 404.906 467.222C414.03 468.709 422.631 462.517 424.117 453.394Z" fill="#F6AC3B"/>
<path d="M407.662 454.578C406.014 454.578 404.619 453.183 404.619 451.535V444.941C404.619 443.293 406.014 441.898 407.662 441.898C409.31 441.898 410.705 443.293 410.705 444.941V451.535C410.578 453.183 409.31 454.578 407.662 454.578ZM407.662 442.532C406.394 442.532 405.253 443.546 405.253 444.941V451.535C405.253 452.803 406.267 453.944 407.662 453.944C408.93 453.944 410.071 452.93 410.071 451.535V444.941C409.944 443.673 408.93 442.532 407.662 442.532Z" fill="white"/>
<path d="M407.662 456.734C405.887 456.734 404.365 456.226 403.351 455.085C401.449 452.93 401.702 449.633 401.702 449.506C401.702 449.379 401.829 449.252 402.083 449.252C402.21 449.252 402.336 449.379 402.336 449.633C402.336 449.633 402.083 452.803 403.731 454.705C404.619 455.719 405.887 456.226 407.535 456.226C409.184 456.226 410.452 455.719 411.339 454.705C413.241 452.803 413.114 449.633 413.114 449.506C413.114 449.379 413.241 449.126 413.368 449.126C413.495 449.126 413.748 449.252 413.748 449.379C413.748 449.506 413.875 452.93 411.846 454.958C410.832 456.1 409.437 456.734 407.662 456.734Z" fill="white"/>
<path d="M407.662 461.298C407.535 461.298 407.281 461.172 407.281 460.918V456.226C407.281 456.1 407.408 455.846 407.662 455.846C407.915 455.846 408.042 455.973 408.042 456.226V460.918C407.915 461.172 407.789 461.298 407.662 461.298Z" fill="white"/>
<path d="M323.974 502.382C340.291 502.382 353.518 489.154 353.518 472.837C353.518 456.52 340.291 443.293 323.974 443.293C307.657 443.293 294.429 456.52 294.429 472.837C294.429 489.154 307.657 502.382 323.974 502.382Z" fill="#F6AC3B"/>
<path d="M321.311 464.722C318.775 462.82 315.098 463.454 313.703 466.244C313.069 467.385 313.069 468.78 314.464 470.048C317.127 472.71 322.833 478.036 325.369 480.318C326.763 481.586 328.539 482.22 330.441 481.967C331.709 481.84 332.977 481.206 333.991 479.684C336.781 475.88 330.06 472.837 330.06 472.837L327.144 475.88L320.297 469.287L323.34 465.99L321.311 464.722Z" fill="white"/>
</svg>
