<svg width="1920" height="879" viewBox="0 0 1920 879" fill="none" xmlns="http://www.w3.org/2000/svg">
<g clip-path="url(#clip0)">
<path fill-rule="evenodd" clip-rule="evenodd" d="M1482.72 794.466C1658.16 770.501 1716.95 726.878 1695.23 606.492C1673.7 486.294 1543.57 429.377 1581.39 344.003C1654.79 178.683 1521.48 138.242 1370.57 133.374C1263.47 129.817 1147.57 149.101 1125.29 196.469C1087.28 277.35 1168.54 335.39 1081.66 411.965C994.788 488.353 906.787 488.353 908.66 582.527C912.779 786.041 1192.13 813.188 1385.17 802.704C1421.68 800.644 1454.82 798.21 1482.72 794.466Z" fill="#48D1EC"/>
<path fill-rule="evenodd" clip-rule="evenodd" d="M845 749.157C845.936 748.596 921.017 692.428 975.877 695.611C1030.74 698.794 1045.53 726.878 1043.66 760.578C1041.78 794.092 1023.81 820.49 968.949 817.307C914.09 814.125 844.813 749.345 845 749.157Z" fill="#74C1C7"/>
<path fill-rule="evenodd" clip-rule="evenodd" d="M845 749.157C845.936 748.596 921.017 692.428 975.877 695.611C1030.74 698.794 1045.53 726.878 1043.66 760.578L845 749.157Z" fill="#4F8CB5"/>
<path fill-rule="evenodd" clip-rule="evenodd" d="M859.043 750.281C866.906 750.843 875.519 751.591 884.881 752.153C896.864 753.089 909.971 754.025 923.639 754.774C932.064 755.336 940.677 755.898 949.477 756.459C955.281 756.834 960.898 757.208 966.703 757.395C972.507 757.77 978.311 757.957 983.928 758.331C992.728 758.706 1001.53 759.268 1009.77 759.642C1018.94 760.016 1027.55 760.391 1035.61 760.765C1051.71 761.514 1065.19 762.076 1074.36 762.45C1074.55 762.45 1074.55 762.263 1074.55 762.263C1074.55 762.076 1074.36 762.076 1074.36 762.076C1065.38 761.514 1051.71 760.578 1035.61 759.455C1027.55 758.893 1018.94 758.331 1009.77 757.77C1001.53 757.208 992.728 756.646 983.928 756.085C978.311 755.71 972.507 755.336 966.703 755.149C960.898 754.774 955.281 754.587 949.477 754.213C940.864 753.838 932.064 753.276 923.639 752.902C910.158 752.153 897.051 751.591 884.881 751.03C875.519 750.655 866.906 750.094 859.043 749.719C858.855 749.719 858.855 749.906 858.855 749.906C858.668 750.094 858.855 750.281 859.043 750.281Z" fill="#396DAB"/>
<path fill-rule="evenodd" clip-rule="evenodd" d="M900.609 728.563C903.979 730.997 906.975 734.554 908.66 739.609C909.409 741.668 909.783 743.728 910.158 746.349C910.345 748.409 910.532 750.655 910.345 753.276C910.345 754.774 910.158 756.085 909.971 757.395C909.409 760.953 908.098 763.948 906.6 766.382C903.605 771.437 899.485 774.807 896.864 776.492C896.677 776.492 896.677 776.679 896.864 776.867C896.864 777.054 897.051 777.054 897.239 776.867C900.234 775.182 904.728 772.186 908.285 767.318C910.158 764.697 911.656 761.514 912.592 757.77C912.966 756.272 913.153 754.774 913.153 753.276C913.153 750.655 913.153 748.221 912.779 745.975C912.405 743.353 911.656 740.92 910.719 738.86C908.473 733.805 904.915 730.435 901.17 728.188C900.983 728.188 900.983 728.188 900.796 728.188C900.609 728.376 900.609 728.563 900.609 728.563Z" fill="#396DAB"/>
<path fill-rule="evenodd" clip-rule="evenodd" d="M1009.2 734.179C1012.58 736.613 1015.57 740.171 1017.26 745.226C1018 747.285 1018.38 749.345 1018.75 751.966C1018.94 754.025 1019.13 756.272 1018.94 758.893C1018.94 760.391 1018.75 761.702 1018.57 763.012C1018 766.569 1016.69 769.565 1015.2 771.999C1012.2 777.054 1008.08 780.424 1005.46 782.109C1005.27 782.109 1005.27 782.296 1005.46 782.484C1005.46 782.671 1005.65 782.671 1005.83 782.484C1008.83 780.799 1013.32 777.803 1016.88 772.935C1018.75 770.314 1020.25 767.131 1021.19 763.387C1021.56 761.889 1021.75 760.391 1021.75 758.893C1021.75 756.272 1021.75 753.838 1021.38 751.591C1021 748.97 1020.25 746.536 1019.32 744.477C1017.07 739.422 1013.51 736.052 1009.77 733.805C1009.58 733.805 1009.58 733.805 1009.39 733.805C1009.02 733.992 1009.02 734.179 1009.2 734.179Z" fill="#396DAB"/>
<path fill-rule="evenodd" clip-rule="evenodd" d="M938.243 720.325C943.111 723.695 947.418 728.75 950.039 736.052C951.162 738.86 951.911 742.043 952.286 745.6C952.66 748.596 952.847 751.966 952.66 755.523C952.66 757.583 952.286 759.642 952.098 761.514C951.162 766.569 949.29 770.876 947.043 774.62C942.737 781.735 936.745 786.415 932.813 789.036C932.626 789.036 932.626 789.224 932.813 789.411C932.813 789.598 933.001 789.598 933.188 789.411C937.307 787.164 943.86 782.671 948.728 775.556C951.35 771.812 953.409 767.318 954.533 762.076C954.907 760.016 955.281 757.957 955.281 755.71C955.469 751.966 955.281 748.596 954.72 745.413C954.158 741.668 953.222 738.298 951.911 735.49C948.728 728.188 943.86 723.32 938.618 720.138C938.43 720.138 938.43 720.138 938.243 720.138C938.056 720.138 938.056 720.325 938.243 720.325Z" fill="#396DAB"/>
<path fill-rule="evenodd" clip-rule="evenodd" d="M973.256 712.087C979.435 716.58 985.239 722.946 988.796 732.307C990.107 736.052 991.23 740.171 991.792 744.851C992.354 748.783 992.541 753.089 992.354 757.77C992.354 760.578 991.979 763.012 991.418 765.633C990.107 772.186 987.86 777.803 984.864 782.671C979.06 791.845 971.383 798.023 966.141 801.206C965.954 801.206 965.954 801.393 966.141 801.581C966.141 801.768 966.328 801.768 966.515 801.581C971.945 798.585 980.184 792.781 986.362 783.607C989.733 778.739 992.354 772.935 993.852 766.195C994.413 763.574 994.788 760.953 994.788 757.957C994.975 753.089 994.601 748.783 994.039 744.664C993.29 739.796 992.167 735.49 990.481 731.746C986.55 722.384 980.184 716.019 973.63 711.713C973.443 711.713 973.443 711.713 973.256 711.713C973.069 711.9 973.069 712.087 973.256 712.087Z" fill="#396DAB"/>
<path fill-rule="evenodd" clip-rule="evenodd" d="M859.417 621.657C860.353 621.657 953.222 607.99 1000.03 636.635C1046.84 665.468 1046.46 697.296 1028.86 725.942C1011.26 754.587 982.992 769.191 936.183 740.358C889.374 711.525 859.23 621.657 859.417 621.657Z" fill="#74C1C7"/>
<path fill-rule="evenodd" clip-rule="evenodd" d="M859.417 621.657C860.353 621.657 953.221 607.99 1000.03 636.635C1046.84 665.468 1046.46 697.296 1028.86 725.942L859.417 621.657Z" fill="#4F8CB5"/>
<path fill-rule="evenodd" clip-rule="evenodd" d="M871.213 629.146C877.766 633.452 885.068 638.133 892.932 643.001C903.043 649.554 914.277 656.481 925.698 663.783C932.813 668.276 940.302 672.957 947.605 677.45C952.473 680.446 957.341 683.441 962.209 686.437C967.077 689.433 972.132 692.428 977 695.424C984.49 700.104 991.979 704.411 999.094 708.717C1006.96 713.397 1014.45 717.891 1021.19 722.01C1035.04 730.248 1046.65 737.175 1054.52 741.856C1054.7 741.856 1054.7 741.856 1054.89 741.856C1054.89 741.668 1054.89 741.668 1054.89 741.481C1047.21 736.613 1035.79 729.499 1022.12 720.886C1015.38 716.58 1007.89 712.087 1000.22 707.219C993.103 702.726 985.8 698.232 978.311 693.552C973.443 690.556 968.575 687.56 963.707 684.565C958.839 681.569 953.971 678.574 948.915 675.578C941.426 671.085 934.124 666.591 926.821 662.098C915.213 655.17 903.979 648.243 893.681 642.065C885.63 637.197 878.328 632.703 871.587 628.772C871.4 628.772 871.4 628.772 871.213 628.772C871.025 628.959 871.025 629.146 871.213 629.146Z" fill="#396DAB"/>
<path fill-rule="evenodd" clip-rule="evenodd" d="M918.209 629.895C919.894 633.64 921.017 638.133 920.081 643.375C919.707 645.435 919.145 647.682 918.209 649.928C917.46 651.8 916.336 653.86 915.213 656.107C914.464 657.417 913.715 658.541 912.779 659.477C910.532 662.285 908.098 664.345 905.477 665.842C900.421 668.838 895.179 669.774 891.996 670.149C891.809 670.149 891.809 670.336 891.809 670.336C891.809 670.523 891.996 670.523 891.996 670.523C895.366 670.523 900.796 669.961 906.226 667.34C909.221 665.842 912.03 663.783 914.464 660.974C915.4 659.851 916.336 658.728 917.085 657.23C918.396 654.983 919.519 652.737 920.081 650.677C921.017 648.056 921.392 645.809 921.579 643.563C921.953 637.946 920.456 633.265 918.396 629.521C918.396 629.334 918.209 629.333 918.021 629.333C918.209 629.708 918.209 629.708 918.209 629.895Z" fill="#396DAB"/>
<path fill-rule="evenodd" clip-rule="evenodd" d="M1010.89 686.437C1012.57 690.182 1013.7 694.675 1012.76 699.917C1012.39 701.977 1011.83 704.223 1010.89 706.47C1010.14 708.342 1009.02 710.402 1007.89 712.649C1007.15 713.959 1006.4 715.082 1005.46 716.019C1003.21 718.827 1000.78 720.886 998.158 722.384C993.103 725.38 987.86 726.316 984.677 726.69C984.49 726.69 984.49 726.878 984.49 726.878C984.49 727.065 984.677 727.065 984.677 727.065C988.047 727.065 993.477 726.503 998.907 723.882C1001.9 722.384 1004.71 720.325 1007.15 717.516C1008.08 716.393 1009.02 715.27 1009.77 713.772C1011.08 711.525 1012.2 709.279 1012.76 707.219C1013.7 704.598 1014.07 702.351 1014.26 700.104C1014.63 694.488 1013.14 689.807 1011.08 686.063C1011.08 685.875 1010.89 685.875 1010.7 685.875C1010.89 686.25 1010.89 686.25 1010.89 686.437Z" fill="#396DAB"/>
<path fill-rule="evenodd" clip-rule="evenodd" d="M955.094 640.38C957.715 645.622 959.213 652.175 958.09 659.851C957.715 662.847 956.779 666.03 955.468 669.4C954.345 672.208 952.847 675.204 950.975 678.386C949.851 680.259 948.728 681.757 947.605 683.254C944.422 687.186 940.677 690.182 936.932 692.428C929.63 696.547 922.141 698.045 917.46 698.232C917.272 698.232 917.272 698.42 917.272 698.42C917.272 698.607 917.46 698.607 917.46 698.607C922.328 698.607 930.004 697.671 937.681 693.739C941.8 691.679 945.732 688.684 949.29 684.565C950.6 683.067 951.911 681.195 953.034 679.323C954.907 676.14 956.405 672.957 957.341 669.961C958.651 666.404 959.4 663.034 959.588 659.851C960.337 651.988 958.277 645.248 955.281 640.005C955.281 639.818 955.094 639.818 954.907 639.818C955.094 640.193 955.094 640.38 955.094 640.38Z" fill="#396DAB"/>
<path fill-rule="evenodd" clip-rule="evenodd" d="M989.92 649.928C993.29 656.856 995.35 665.281 994.039 675.016C993.477 678.948 992.354 683.067 990.669 687.373C989.171 691.118 987.299 694.862 985.052 698.981C983.741 701.415 982.243 703.475 980.558 705.347C976.439 710.589 971.571 714.334 966.703 717.142C957.341 722.571 947.605 724.257 941.426 724.631C941.239 724.631 941.239 724.818 941.239 724.818C941.239 725.005 941.426 725.005 941.426 725.005C947.605 724.818 957.528 723.695 967.452 718.64C972.694 716.019 977.75 712.087 982.243 706.845C983.928 704.785 985.426 702.538 986.924 700.104C989.358 695.986 991.231 691.867 992.541 688.122C994.226 683.441 995.162 679.135 995.537 675.204C996.473 664.906 994.039 656.481 990.107 649.554C990.107 649.367 989.92 649.367 989.733 649.367C989.733 649.554 989.733 649.741 989.92 649.928Z" fill="#396DAB"/>
<path fill-rule="evenodd" clip-rule="evenodd" d="M924.2 514.377C925.136 514.752 1013.89 545.457 1041.97 592.637C1070.24 639.818 1055.26 667.902 1026.43 685.127C997.596 702.351 965.766 702.351 937.494 655.171C909.222 608.177 924.013 514.377 924.2 514.377Z" fill="#74C1C7"/>
<path fill-rule="evenodd" clip-rule="evenodd" d="M924.2 514.377C925.136 514.752 1013.89 545.457 1041.97 592.637C1070.24 639.818 1055.26 667.902 1026.43 685.126L924.2 514.377Z" fill="#4F8CB5"/>
<path fill-rule="evenodd" clip-rule="evenodd" d="M931.128 526.547C935.06 533.287 939.366 540.963 944.047 549.014C950.039 559.499 956.592 570.732 963.52 582.527C967.826 589.829 972.133 597.318 976.626 604.807C979.622 609.675 982.431 614.73 985.426 619.598C988.422 624.653 991.418 629.521 994.414 634.389C999.094 641.878 1003.59 649.367 1007.89 656.481C1012.58 664.345 1017.26 671.646 1021.38 678.574C1029.8 692.241 1036.92 703.849 1041.78 711.525C1041.78 711.713 1041.97 711.713 1042.16 711.525C1042.35 711.525 1042.35 711.338 1042.16 711.151C1037.48 703.287 1030.74 691.679 1022.5 677.638C1018.38 670.71 1014.07 663.221 1009.39 655.358C1005.09 648.243 1000.78 640.754 996.286 633.078C993.477 628.21 990.482 623.155 987.486 618.287C984.49 613.419 981.494 608.364 978.499 603.496C974.005 596.007 969.511 588.706 965.018 581.404C957.903 569.796 951.162 558.562 944.796 548.265C939.928 540.214 935.435 532.913 931.315 526.173C931.315 525.985 931.128 525.985 930.941 526.173C931.128 526.36 930.941 526.547 931.128 526.547Z" fill="#396DAB"/>
<path fill-rule="evenodd" clip-rule="evenodd" d="M972.507 549.014C972.32 553.133 971.196 557.626 968.013 561.932C966.703 563.617 965.205 565.303 963.332 566.988C961.647 568.298 959.962 569.796 957.715 571.106C956.405 571.855 955.281 572.604 953.971 572.979C950.788 574.477 947.605 575.038 944.609 575.225C938.804 575.6 933.749 574.102 930.753 572.791C930.566 572.791 930.566 572.792 930.379 572.979C930.379 573.166 930.379 573.166 930.566 573.353C933.562 574.851 938.617 576.91 944.796 577.098C947.979 577.098 951.536 576.723 955.094 575.225C956.405 574.664 957.715 573.915 959.213 573.166C961.46 571.668 963.332 570.17 965.017 568.673C966.89 566.8 968.575 564.928 969.698 563.056C972.694 558.375 973.443 553.507 973.256 549.201C973.256 549.014 973.069 549.014 973.069 549.014C972.507 548.639 972.507 548.827 972.507 549.014Z" fill="#396DAB"/>
<path fill-rule="evenodd" clip-rule="evenodd" d="M1028.68 641.877C1028.49 645.996 1027.37 650.49 1024.18 654.796C1022.87 656.481 1021.38 658.166 1019.5 659.851C1017.82 661.162 1016.13 662.659 1013.89 663.97C1012.57 664.719 1011.45 665.468 1010.14 665.842C1006.96 667.34 1003.77 667.902 1000.78 668.089C994.975 668.463 989.92 666.966 986.924 665.655C986.737 665.655 986.737 665.655 986.549 665.842C986.549 666.03 986.549 666.03 986.737 666.217C989.732 667.715 994.788 669.774 1000.97 669.961C1004.15 669.961 1007.71 669.587 1011.26 668.089C1012.57 667.527 1013.89 666.778 1015.38 666.03C1017.63 664.532 1019.5 663.034 1021.19 661.536C1023.06 659.664 1024.75 657.792 1025.87 655.919C1028.86 651.239 1029.61 646.371 1029.43 642.065C1029.43 641.877 1029.24 641.877 1029.24 641.877C1028.86 641.69 1028.68 641.69 1028.68 641.877Z" fill="#396DAB"/>
<path fill-rule="evenodd" clip-rule="evenodd" d="M1000.4 575.225C1000.22 581.217 998.533 587.582 994.039 593.761C992.354 596.195 990.107 598.629 987.298 601.062C985.052 603.122 982.43 604.994 979.247 606.866C977.562 607.99 975.69 608.926 974.005 609.675C969.324 611.734 964.643 612.67 960.337 612.858C951.911 613.232 944.796 610.985 940.49 609.113C940.302 609.113 940.302 609.113 940.115 609.3C940.115 609.488 940.115 609.488 940.302 609.675C944.609 611.922 951.911 614.73 960.524 614.73C965.017 614.73 970.073 613.981 975.128 611.922C977.001 611.173 978.873 610.236 980.745 608.926C983.928 606.866 986.737 604.807 988.984 602.747C991.792 600.126 994.039 597.505 995.724 594.884C1000.03 588.144 1001.34 581.404 1000.97 575.225C1000.97 575.038 1000.78 575.038 1000.78 575.038C1000.4 575.038 1000.4 575.225 1000.4 575.225Z" fill="#396DAB"/>
<path fill-rule="evenodd" clip-rule="evenodd" d="M1026.81 599.752C1026.62 607.428 1024.56 615.853 1018.75 623.904C1016.51 627.087 1013.7 630.27 1010.14 633.452C1007.15 636.074 1003.78 638.695 999.843 641.129C997.597 642.626 995.163 643.75 992.916 644.873C986.737 647.494 980.745 648.618 975.128 648.992C964.269 649.367 954.907 646.371 949.29 643.937C949.103 643.937 949.103 643.937 948.916 644.124C948.916 644.311 948.916 644.312 949.103 644.499C954.72 647.307 964.082 650.864 975.128 650.864C980.933 650.864 987.299 649.928 993.852 647.307C996.286 646.371 998.72 645.06 1001.15 643.563C1005.27 640.941 1008.83 638.32 1011.83 635.512C1015.38 632.142 1018.19 628.772 1020.44 625.402C1026.06 616.789 1027.74 607.99 1027.55 600.126C1027.55 599.939 1027.37 599.939 1027.37 599.939C1026.99 599.565 1026.81 599.565 1026.81 599.752Z" fill="#396DAB"/>
<path d="M1397.34 711.712H1374.69V878.813H1397.34V711.712Z" fill="#445465"/>
<path d="M1402.4 711.712H1386.11V878.813H1402.4V711.712Z" fill="#6F7B88"/>
<path d="M1193.26 711.712H1170.6V820.303H1193.26V711.712Z" fill="#0097CD"/>
<path d="M1198.31 711.712H1182.02V820.303H1198.31V711.712Z" fill="#9DE6D7"/>
<path d="M1593.2 711.829H1570.21V879H1593.2V711.829Z" fill="#445465"/>
<path d="M1598.42 711.829H1581.7V879H1598.42V711.829Z" fill="#6F7B88"/>
<path d="M1459.44 711.829H1436.45V879H1459.44V711.829Z" fill="#445465"/>
<path d="M1464.67 711.829H1447.95V880.045H1464.67V711.829Z" fill="#6F7B88"/>
<path d="M1609.29 699.73H1178.28V719.389H1609.29V699.73Z" fill="#445465"/>
<path fill-rule="evenodd" clip-rule="evenodd" d="M1134.84 530.666C1149.26 518.871 1079.42 564.366 1069.31 594.697C1059.2 625.027 1082.41 654.422 1082.41 654.422C1094.77 619.411 1120.61 542.461 1134.84 530.666Z" fill="#F6AC3B"/>
<path fill-rule="evenodd" clip-rule="evenodd" d="M1334.81 563.43L1529.16 559.873L1531.96 563.43L1498.64 693.364H1301.48L1334.81 563.43Z" fill="#717070"/>
<path fill-rule="evenodd" clip-rule="evenodd" d="M1332 559.873H1529.16L1495.83 689.62H1298.48L1332 559.873Z" fill="#3E3938"/>
<path fill-rule="evenodd" clip-rule="evenodd" d="M1336.3 565.677L1305.79 684.003H1491.33L1521.85 565.677H1336.3Z" fill="white"/>
<path fill-rule="evenodd" clip-rule="evenodd" d="M1357.09 630.644H1423.74L1415.32 663.97H1348.66L1357.09 630.644Z" fill="#D4F6F2"/>
<path fill-rule="evenodd" clip-rule="evenodd" d="M1357.09 630.644H1423.74L1422.81 634.576H1356.15L1357.09 630.644Z" fill="#00A0E9"/>
<path fill-rule="evenodd" clip-rule="evenodd" d="M1364.58 639.256H1371.32L1369.07 647.869H1356.9L1358.59 641.503L1359.15 639.256L1359.33 638.133H1364.95L1364.58 639.256Z" fill="#FDD000"/>
<path fill-rule="evenodd" clip-rule="evenodd" d="M1385.36 639.256H1392.1L1390.04 647.869H1377.68L1379.37 641.503L1379.93 639.256L1380.3 638.133H1385.73L1385.36 639.256Z" fill="#FDD000"/>
<path fill-rule="evenodd" clip-rule="evenodd" d="M1404.83 639.256H1411.57L1409.33 647.869H1397.16L1398.84 641.503L1399.22 639.256L1399.59 638.133H1405.02L1404.83 639.256Z" fill="#FDD000"/>
<path fill-rule="evenodd" clip-rule="evenodd" d="M1361.21 652.549H1367.95L1365.89 660.974H1353.53L1355.22 654.609L1355.78 652.549L1356.15 651.239H1361.58L1361.21 652.549Z" fill="#FDD000"/>
<path fill-rule="evenodd" clip-rule="evenodd" d="M1381.99 652.549H1388.73L1386.67 660.974H1374.5L1376 654.609L1376.56 652.549L1376.93 651.239H1382.36L1381.99 652.549Z" fill="#FDD000"/>
<path fill-rule="evenodd" clip-rule="evenodd" d="M1401.46 652.549H1408.2L1405.96 660.974H1393.79L1395.47 654.609L1396.03 652.549L1396.22 651.239H1401.65L1401.46 652.549Z" fill="#FDD000"/>
<path fill-rule="evenodd" clip-rule="evenodd" d="M1341.17 587.021H1412.51L1403.33 622.593H1332.19L1341.17 587.021Z" fill="#D4F6F2"/>
<path fill-rule="evenodd" clip-rule="evenodd" d="M1341.17 587.021H1412.51L1411.39 591.327H1340.05L1341.17 587.021Z" fill="#00A0E9"/>
<path fill-rule="evenodd" clip-rule="evenodd" d="M1349.22 596.382H1356.34L1354.09 605.369H1340.99L1342.67 598.629L1343.23 596.382L1343.61 594.884H1349.41L1349.22 596.382Z" fill="#FDD000"/>
<path fill-rule="evenodd" clip-rule="evenodd" d="M1371.32 596.382H1378.62L1376.19 605.369H1363.27L1364.95 598.629L1365.51 596.382L1365.89 594.884H1371.69L1371.32 596.382Z" fill="#FDD000"/>
<path fill-rule="evenodd" clip-rule="evenodd" d="M1392.1 596.382H1399.22L1396.97 605.369H1383.86L1385.73 598.629L1386.3 596.382L1386.67 594.884H1392.48L1392.1 596.382Z" fill="#FDD000"/>
<path fill-rule="evenodd" clip-rule="evenodd" d="M1345.48 610.424H1352.78L1350.35 619.598H1337.43L1339.11 612.67L1339.67 610.424L1340.05 609.113H1345.85L1345.48 610.424Z" fill="#FDD000"/>
<path fill-rule="evenodd" clip-rule="evenodd" d="M1367.76 610.424H1375.06L1372.63 619.598H1359.71L1361.39 612.67L1361.96 610.424L1362.33 609.113H1368.13L1367.76 610.424Z" fill="#FDD000"/>
<path fill-rule="evenodd" clip-rule="evenodd" d="M1388.54 610.424H1395.66L1393.41 619.598H1380.3L1382.18 612.67L1382.74 610.424L1382.93 609.113H1388.92L1388.54 610.424Z" fill="#FDD000"/>
<path d="M1495.83 689.62H1220.97V699.73H1495.83V689.62Z" fill="#888889"/>
<path fill-rule="evenodd" clip-rule="evenodd" d="M1227.71 459.708C1224.53 436.679 1210.11 431.998 1197.38 428.067C1184.64 424.135 1159.93 422.824 1151.5 457.461C1143.08 492.285 1150.01 505.39 1150.01 505.39L1135.4 536.47L1200 549.763L1201.31 526.172C1201.31 526.172 1210.11 530.104 1215.16 521.679C1221.72 510.82 1229.02 469.256 1227.71 459.708Z" fill="#FAD9C8"/>
<path d="M1495.83 689.62H1394.35V699.73H1495.83V689.62Z" fill="#C8C9C9"/>
<path fill-rule="evenodd" clip-rule="evenodd" d="M1241.56 550.699C1241.56 550.699 1184.46 531.789 1155.44 528.045C1144.39 526.547 1138.96 525.798 1136.71 525.424C1135.96 525.236 1136.15 525.236 1135.4 525.611C1011.45 581.591 1038.79 842.866 1047.78 879H1147.67H1247.55C1244.56 855.41 1235.01 716.955 1237.07 652.175C1239.69 575.225 1241.56 550.699 1241.56 550.699Z" fill="#F6AC3B"/>
<path fill-rule="evenodd" clip-rule="evenodd" d="M1098.5 552C1086 566.5 1072.86 579.906 1064.81 596.569L1097.78 890.632L1110.69 820.49L1220.79 893.627C1207.87 789.343 1206.35 581.207 1098.5 552Z" fill="#E39D29"/>
<path fill-rule="evenodd" clip-rule="evenodd" d="M1364.02 665.093C1364.76 663.408 1370.94 653.485 1372.63 652.549C1382.18 645.622 1389.48 647.681 1396.03 646.184C1402.59 644.873 1412.32 653.673 1415.5 657.417C1418.69 661.162 1421.12 664.719 1420.37 666.778C1419.62 668.838 1415.88 665.842 1414.57 665.468C1413.26 665.093 1409.7 660.974 1409.7 660.974C1409.7 660.974 1399.59 662.285 1399.22 662.659C1398.84 663.221 1388.92 671.085 1381.24 670.71C1373.56 670.149 1364.02 665.093 1364.02 665.093Z" fill="#FAD9C8"/>
<path fill-rule="evenodd" clip-rule="evenodd" d="M1240.81 747.66C1240.81 747.66 1238.01 755.149 1215.16 697.671C1192.13 640.192 1198.87 589.267 1198.87 589.267C1198.87 589.267 1223.78 623.717 1231.64 645.248C1239.88 666.966 1238.94 696.173 1240.81 747.66Z" fill="#E39D29"/>
<path fill-rule="evenodd" clip-rule="evenodd" d="M1242.5 550.886C1229.96 548.639 1214.98 556.877 1208.98 566.051C1168.35 628.959 1256.17 776.118 1299.04 776.867C1323.57 777.241 1388.54 670.897 1388.54 670.897C1396.41 659.289 1377.5 650.115 1367.39 657.043L1306.91 699.168C1282.57 650.49 1269.46 555.754 1242.5 550.886Z" fill="#F6AC3B"/>
<path fill-rule="evenodd" clip-rule="evenodd" d="M1194.75 498.838C1192.51 499.399 1174.91 507.637 1168.73 507.824C1162.36 508.012 1150.01 505.578 1150.01 505.578C1150.01 505.578 1136.34 472.252 1141.95 455.776C1147.57 439.3 1157.12 433.309 1157.12 433.309C1157.12 433.309 1158.24 429.003 1162.18 424.884C1166.11 420.578 1190.45 420.016 1198.87 422.637C1207.49 425.071 1209.73 426.756 1219.66 428.067C1229.77 429.377 1235.2 428.628 1235.2 428.628L1235.01 437.615L1238.38 436.679C1238.38 436.679 1239.5 441.734 1236.51 453.342C1233.51 464.95 1229.02 467.758 1226.4 469.256C1223.78 470.567 1219.47 470.567 1219.47 470.567L1215.73 478.056C1215.73 478.056 1214.04 470.192 1205.43 472.252C1197 474.311 1196.81 480.49 1197.38 486.668C1197.75 492.846 1200.37 497.34 1199.44 497.34C1198.69 496.778 1194.75 498.838 1194.75 498.838Z" fill="#445465"/>
<path d="M1609.29 699.73H1455.39V719.389H1609.29V699.73Z" fill="#6F7B88"/>
<path fill-rule="evenodd" clip-rule="evenodd" d="M1194.38 820.49C1189.33 763.199 1167.79 635.886 1153.19 612.858C1098.89 526.921 1009.39 546.206 987.111 622.593C979.809 648.056 986.55 686.063 995.537 720.325C1009.21 771.999 1018.57 866.516 1023.62 882.992H1194.38V820.49Z" fill="#445465"/>
<path fill-rule="evenodd" clip-rule="evenodd" d="M1129.22 615.853C1143.64 638.507 1161.29 834.839 1166.9 893.627H1201.88C1201.51 890.07 1193.82 813.001 1193.44 808.882C1191.01 786.79 1186.89 757.957 1182.02 729.124C1181.46 725.754 1180.9 722.572 1180.34 719.389C1179.96 716.955 1179.4 714.334 1179.03 711.9C1178.84 710.589 1178.47 709.279 1178.28 707.781C1170.23 664.345 1160.87 624.84 1153.38 613.045C1135.4 584.399 1113.31 567.549 1091.21 560.435C1084.85 558.375 1078.48 557.252 1072.3 556.877C1068.56 556.503 1064.81 556.69 1061.07 556.877C1055.83 557.252 1050.77 558.188 1045.9 559.686C1049.46 559.873 1053.02 560.247 1056.58 560.809C1060.13 561.371 1063.5 562.307 1067.06 563.243C1073.24 565.115 1079.42 567.924 1085.41 571.294C1100.95 580.468 1116.12 595.071 1129.22 615.853Z" fill="#6F7B88"/>
<path fill-rule="evenodd" clip-rule="evenodd" d="M1170.41 774.807H1324.13C1331.25 774.807 1337.05 780.611 1337.05 787.726C1337.05 794.84 1331.25 800.644 1324.13 800.644H1170.41C1163.3 800.644 1157.5 794.84 1157.5 787.726C1157.5 780.799 1163.3 774.807 1170.41 774.807Z" fill="#445465"/>
<path fill-rule="evenodd" clip-rule="evenodd" d="M1406.52 656.294C1406.52 656.294 1410.07 661.723 1410.64 663.783C1411.2 665.842 1412.32 668.838 1410.07 669.774C1407.83 670.71 1404.83 665.468 1403.9 664.157C1402.96 662.847 1399.78 659.851 1399.78 659.477C1400.15 659.102 1406.52 656.294 1406.52 656.294Z" fill="#FAD9C8"/>
<path fill-rule="evenodd" clip-rule="evenodd" d="M1398.65 660.226C1399.4 661.162 1402.59 663.97 1402.4 666.217C1402.02 668.276 1399.96 669.4 1398.09 668.089C1396.41 666.778 1394.35 664.157 1394.35 664.157L1398.65 660.226Z" fill="#FAD9C8"/>
<path fill-rule="evenodd" clip-rule="evenodd" d="M1449.58 581.029H1507.44L1485.72 664.719H1428.05L1449.58 581.029Z" fill="#445465"/>
<path fill-rule="evenodd" clip-rule="evenodd" d="M1449.58 581.029H1507.44L1506.5 584.587H1448.83L1449.58 581.029Z" fill="#888889"/>
<path fill-rule="evenodd" clip-rule="evenodd" d="M1452.95 590.391H1481.97L1481.6 591.888H1452.58L1452.95 590.391Z" fill="#C8C9C9"/>
<path fill-rule="evenodd" clip-rule="evenodd" d="M1451.83 594.697H1466.25L1465.87 596.195H1451.45L1451.83 594.697Z" fill="#C8C9C9"/>
<path fill-rule="evenodd" clip-rule="evenodd" d="M1450.71 599.003H1473.17L1472.8 600.501H1450.33L1450.71 599.003Z" fill="#C8C9C9"/>
<path fill-rule="evenodd" clip-rule="evenodd" d="M1449.58 603.309H1462.88L1462.31 604.807H1449.21L1449.58 603.309Z" fill="#C8C9C9"/>
<path fill-rule="evenodd" clip-rule="evenodd" d="M1448.46 607.615H1488.34L1487.97 609.113H1448.08L1448.46 607.615Z" fill="#C8C9C9"/>
<path fill-rule="evenodd" clip-rule="evenodd" d="M1447.33 611.922H1476.36L1475.98 613.419H1446.96L1447.33 611.922Z" fill="#C8C9C9"/>
<path fill-rule="evenodd" clip-rule="evenodd" d="M1446.21 616.228H1464.56L1464.19 617.725H1445.84L1446.21 616.228Z" fill="#C8C9C9"/>
<path fill-rule="evenodd" clip-rule="evenodd" d="M1445.09 620.534H1454.08L1453.51 622.032H1444.71L1445.09 620.534Z" fill="#C8C9C9"/>
<path fill-rule="evenodd" clip-rule="evenodd" d="M1443.96 624.84H1472.99L1472.61 626.338H1443.59L1443.96 624.84Z" fill="#C8C9C9"/>
<path fill-rule="evenodd" clip-rule="evenodd" d="M1443.03 629.146H1464.75L1464.37 630.644H1442.47L1443.03 629.146Z" fill="#C8C9C9"/>
<path fill-rule="evenodd" clip-rule="evenodd" d="M1441.72 633.452H1478.04L1477.67 634.95H1441.34L1441.72 633.452Z" fill="#C8C9C9"/>
<path fill-rule="evenodd" clip-rule="evenodd" d="M1440.78 637.758H1449.58L1449.21 639.256H1440.22L1440.78 637.758Z" fill="#C8C9C9"/>
<path fill-rule="evenodd" clip-rule="evenodd" d="M1439.66 642.065H1443.59L1443.22 643.563H1439.1L1439.66 642.065Z" fill="#C8C9C9"/>
<path fill-rule="evenodd" clip-rule="evenodd" d="M1438.53 646.371H1467.56L1466.99 647.869H1438.16L1438.53 646.371Z" fill="#C8C9C9"/>
<path fill-rule="evenodd" clip-rule="evenodd" d="M1437.41 650.677H1458.01L1457.63 652.175H1437.04L1437.41 650.677Z" fill="#C8C9C9"/>
<path fill-rule="evenodd" clip-rule="evenodd" d="M1436.29 654.983H1445.65L1445.28 656.481H1435.91L1436.29 654.983Z" fill="#C8C9C9"/>
<path fill-rule="evenodd" clip-rule="evenodd" d="M1204.87 475.622C1202.06 478.805 1204.68 490.787 1206.55 493.034C1208.42 495.093 1210.86 493.221 1211.79 490.787C1212.73 488.353 1211.42 487.791 1211.23 484.609C1211.23 481.426 1212.73 482.923 1212.73 480.49C1212.73 475.996 1207.67 472.439 1204.87 475.622Z" fill="#F5C9B2"/>
<path fill-rule="evenodd" clip-rule="evenodd" d="M1213.67 523.739C1211.61 524.3 1209.17 524.3 1205.8 522.241C1198.31 517.747 1192.13 510.446 1192.13 510.446L1193.44 536.283C1195.88 537.032 1198.31 537.593 1200.93 538.342L1201.68 526.172C1201.31 526.172 1208.42 529.355 1213.67 523.739Z" fill="#F5C9B2"/>
<path d="M1420.75 692.803H1409.14V697.483H1420.75V692.803Z" fill="#3E3938"/>
<path d="M1420.75 692.803H1417.56V697.483H1420.75V692.803Z" fill="#231915"/>
<path d="M1438.35 692.803H1426.74V697.483H1438.35V692.803Z" fill="#3E3938"/>
<path d="M1438.35 692.803H1435.16V697.483H1438.35V692.803Z" fill="#231915"/>
<path d="M1455.76 692.803H1444.15V697.483H1455.76V692.803Z" fill="#3E3938"/>
<path d="M1455.76 692.803H1452.58V697.483H1455.76V692.803Z" fill="#231915"/>
<path fill-rule="evenodd" clip-rule="evenodd" d="M1404.65 211.822C1422.25 211.822 1437.6 221.37 1445.84 235.599C1449.58 232.042 1454.64 229.983 1460.25 229.983C1471.49 229.983 1480.66 238.969 1481.22 250.203C1481.6 250.203 1481.97 250.203 1482.35 250.203C1498.82 250.203 1512.12 263.496 1512.12 279.972C1512.12 282.218 1511.74 284.465 1511.37 286.524C1524.85 286.899 1535.71 298.132 1535.71 311.8C1535.71 325.655 1524.29 337.075 1510.43 337.075H1322.07C1308.22 337.075 1296.8 325.655 1296.8 311.8C1296.8 297.945 1308.22 286.524 1322.07 286.524H1322.82C1321.89 283.903 1321.51 280.908 1321.51 277.912C1321.51 261.436 1334.81 248.143 1351.28 248.143C1353.72 248.143 1356.15 248.518 1358.4 249.079C1363.08 227.736 1381.99 211.822 1404.65 211.822Z" fill="#FEFEFE"/>
<path fill-rule="evenodd" clip-rule="evenodd" d="M1346.04 349.245H1356.34V390.06H1361.39L1356.34 398.859L1351.28 407.472L1346.23 398.859L1341.17 390.06H1346.04V349.245Z" fill="white"/>
<path fill-rule="evenodd" clip-rule="evenodd" d="M1404.65 357.296H1415.32V399.234H1420.37L1415.13 408.221L1409.89 417.208L1404.83 408.221L1399.59 399.234H1404.65V357.296Z" fill="white"/>
<path fill-rule="evenodd" clip-rule="evenodd" d="M1437.04 379.201H1444.71V409.906H1448.46L1444.53 416.646L1440.78 423.199L1437.04 416.646L1433.1 409.906H1437.04V379.201Z" fill="white"/>
<path fill-rule="evenodd" clip-rule="evenodd" d="M1385.55 343.066V368.155H1391.54L1385.36 378.826L1379.18 389.498L1373 378.826L1366.82 368.155H1373V343.066H1385.55Z" fill="white"/>
<path fill-rule="evenodd" clip-rule="evenodd" d="M1464.19 343.066V360.478H1469.43L1464 370.027L1458.57 379.388L1453.14 370.027L1447.71 360.478H1452.95V343.066H1464.19Z" fill="white"/>
<path fill-rule="evenodd" clip-rule="evenodd" d="M1477.67 343.066H1487.96V384.069H1492.83L1487.78 392.868L1482.72 401.481L1477.67 392.868L1472.8 384.069H1477.67V343.066Z" fill="white"/>
<path fill-rule="evenodd" clip-rule="evenodd" d="M1414.38 602.748C1350.91 575.6 1342.86 545.644 1342.3 445.291C1373 443.794 1399.22 436.492 1414.38 426.007C1429.36 436.492 1455.76 443.794 1486.47 445.291C1486.09 545.644 1478.04 575.6 1414.38 602.748Z" fill="#F6AC3B"/>
<path fill-rule="evenodd" clip-rule="evenodd" d="M1414.38 426.007C1429.36 436.492 1455.76 443.793 1486.47 445.291C1485.91 545.644 1477.85 575.413 1414.38 602.747V426.007Z" fill="#F6BE67"/>
<path fill-rule="evenodd" clip-rule="evenodd" d="M1415.5 455.214C1428.8 455.214 1439.66 466.073 1439.66 479.366V499.961H1433.85V479.366C1433.85 469.256 1425.62 461.018 1415.5 461.018C1405.39 461.018 1397.16 469.256 1397.16 479.366V499.961H1391.35V479.366C1391.35 466.073 1402.21 455.214 1415.5 455.214Z" fill="#FEFEFE"/>
<path fill-rule="evenodd" clip-rule="evenodd" d="M1388.92 495.093H1442.28C1444.9 495.093 1447.15 497.34 1447.15 499.961V540.027C1447.15 542.648 1444.9 544.895 1442.28 544.895H1389.1C1386.48 544.895 1384.24 542.648 1384.24 540.027V499.961C1384.05 497.34 1386.3 495.093 1388.92 495.093Z" fill="#445465"/>
<path fill-rule="evenodd" clip-rule="evenodd" d="M1415.5 506.139C1420.19 506.139 1424.12 509.884 1424.12 514.565C1424.12 518.309 1421.87 521.305 1418.5 522.428V530.853C1418.5 532.538 1417.19 533.849 1415.5 533.849C1414.01 533.849 1412.51 532.538 1412.51 530.853V522.428C1409.33 521.305 1406.89 518.122 1406.89 514.565C1407.08 510.071 1410.82 506.139 1415.5 506.139Z" fill="#131313"/>
<path fill-rule="evenodd" clip-rule="evenodd" d="M1077.36 450.534C1077.36 453.155 1075.67 455.214 1073.24 455.776V485.732H969.511V465.137H940.302C939.741 467.571 937.494 469.256 935.06 469.256C932.064 469.256 929.63 466.822 929.63 463.827C929.63 460.831 932.064 458.397 935.06 458.397C937.681 458.397 939.741 460.082 940.302 462.516H972.132V483.111H1070.43V455.776C1068 455.214 1066.31 452.968 1066.31 450.534C1066.31 447.538 1068.75 445.104 1071.74 445.104C1074.92 444.917 1077.36 447.351 1077.36 450.534ZM935.06 461.018C933.562 461.018 932.251 462.329 932.251 463.827C932.251 465.324 933.562 466.635 935.06 466.635C936.558 466.635 937.868 465.324 937.868 463.827C937.681 462.329 936.558 461.018 935.06 461.018ZM1071.93 453.155C1073.43 453.155 1074.74 451.844 1074.74 450.346C1074.74 448.849 1073.43 447.538 1071.93 447.538C1070.43 447.538 1069.12 448.849 1069.12 450.346C1069.12 451.844 1070.43 453.155 1071.93 453.155Z" fill="white"/>
<path fill-rule="evenodd" clip-rule="evenodd" d="M1722.76 587.77C1722.76 590.391 1721.07 592.45 1718.64 593.012V622.968H1614.91V602.373H1585.7C1585.14 604.807 1582.89 606.492 1580.46 606.492C1577.46 606.492 1575.03 604.058 1575.03 601.062C1575.03 598.067 1577.46 595.633 1580.46 595.633C1583.08 595.633 1585.14 597.318 1585.7 599.752H1617.53V620.347H1715.83V593.012C1713.4 592.45 1711.71 590.203 1711.71 587.77C1711.71 584.774 1714.14 582.34 1717.14 582.34C1720.32 582.34 1722.76 584.774 1722.76 587.77ZM1580.46 598.441C1578.96 598.441 1577.65 599.752 1577.65 601.25C1577.65 602.748 1578.96 604.058 1580.46 604.058C1581.96 604.058 1583.27 602.748 1583.27 601.25C1583.08 599.752 1581.96 598.441 1580.46 598.441ZM1717.33 590.578C1718.83 590.578 1720.14 589.267 1720.14 587.77C1720.14 586.272 1718.83 584.961 1717.33 584.961C1715.83 584.961 1714.52 586.272 1714.52 587.77C1714.52 589.267 1715.64 590.578 1717.33 590.578Z" fill="white"/>
<path fill-rule="evenodd" clip-rule="evenodd" d="M1554.99 502.957C1554.99 500.71 1556.49 499.025 1558.55 498.463V440.985H1631.2V413.837C1629.14 413.276 1627.64 411.404 1627.64 409.344C1627.64 406.723 1629.7 404.663 1632.32 404.663C1634.94 404.663 1637 406.723 1637 409.344C1637 411.591 1635.51 413.276 1633.45 413.837V443.232H1560.8V498.276C1562.86 498.838 1564.36 500.71 1564.36 502.769C1564.36 505.391 1562.3 507.45 1559.68 507.45C1557.05 507.637 1554.99 505.578 1554.99 502.957ZM1634.57 409.344C1634.57 408.034 1633.45 407.097 1632.32 407.097C1631.01 407.097 1630.08 408.221 1630.08 409.344C1630.08 410.655 1631.2 411.591 1632.32 411.591C1633.45 411.778 1634.57 410.655 1634.57 409.344ZM1559.68 500.71C1558.36 500.71 1557.43 501.833 1557.43 502.957C1557.43 504.08 1558.55 505.203 1559.68 505.203C1560.99 505.203 1561.92 504.08 1561.92 502.957C1561.92 501.833 1560.99 500.71 1559.68 500.71Z" fill="white"/>
<path fill-rule="evenodd" clip-rule="evenodd" d="M1095.33 376.58C1095.33 374.707 1096.64 373.022 1098.52 372.461V329.961H1173.97V322.097C1172.1 321.723 1170.79 320.038 1170.79 317.978C1170.79 315.732 1172.66 313.859 1174.91 313.859C1177.15 313.859 1179.03 315.732 1179.03 317.978C1179.03 319.851 1177.72 321.536 1175.84 322.097V332.02H1100.39V372.461C1102.26 372.835 1103.57 374.52 1103.57 376.58C1103.57 378.826 1101.7 380.699 1099.45 380.699C1097.21 380.699 1095.33 378.826 1095.33 376.58ZM1176.97 317.978C1176.97 316.855 1176.03 315.919 1174.91 315.919C1173.78 315.919 1172.85 316.855 1172.85 317.978C1172.85 319.102 1173.78 320.038 1174.91 320.038C1176.03 320.225 1176.97 319.289 1176.97 317.978ZM1099.45 374.52C1098.33 374.52 1097.39 375.456 1097.39 376.58C1097.39 377.703 1098.33 378.639 1099.45 378.639C1100.58 378.639 1101.51 377.703 1101.51 376.58C1101.51 375.456 1100.58 374.52 1099.45 374.52Z" fill="white"/>
<path fill-rule="evenodd" clip-rule="evenodd" d="M1533.28 231.48C1533.28 229.608 1534.59 227.923 1536.46 227.361V184.861H1611.91V176.998C1610.04 176.623 1608.73 174.938 1608.73 172.879C1608.73 170.632 1610.6 168.76 1612.85 168.76C1615.1 168.76 1616.97 170.632 1616.97 172.879C1616.97 174.751 1615.66 176.436 1613.79 176.998V186.921H1538.33V227.361C1540.2 227.736 1541.51 229.421 1541.51 231.48C1541.51 233.727 1539.64 235.599 1537.39 235.599C1535.15 235.599 1533.28 233.727 1533.28 231.48ZM1615.1 172.879C1615.1 171.756 1614.16 170.819 1613.04 170.819C1611.91 170.819 1610.98 171.756 1610.98 172.879C1610.98 174.002 1611.91 174.938 1613.04 174.938C1614.16 174.938 1615.1 174.002 1615.1 172.879ZM1537.58 229.421C1536.46 229.421 1535.52 230.357 1535.52 231.48C1535.52 232.604 1536.46 233.54 1537.58 233.54C1538.71 233.54 1539.64 232.604 1539.64 231.48C1539.64 230.357 1538.71 229.421 1537.58 229.421Z" fill="white"/>
<path fill-rule="evenodd" clip-rule="evenodd" d="M1211.79 229.795C1209.17 229.795 1207.11 228.11 1206.55 225.676H1178.65V183.551H1115.93C1115.37 185.985 1113.12 187.67 1110.69 187.67C1107.69 187.67 1105.26 185.236 1105.26 182.24C1105.26 179.245 1107.69 176.811 1110.69 176.811C1113.31 176.811 1115.37 178.496 1115.93 180.93H1181.46V222.868H1206.36C1206.92 220.434 1209.17 218.749 1211.61 218.749C1214.6 218.749 1217.04 221.183 1217.04 224.179C1217.22 227.361 1214.79 229.795 1211.79 229.795ZM1110.31 179.432C1108.81 179.432 1107.5 180.742 1107.5 182.24C1107.5 183.738 1108.81 185.049 1110.31 185.049C1111.81 185.049 1113.12 183.738 1113.12 182.24C1113.12 180.555 1111.81 179.432 1110.31 179.432ZM1208.98 224.366C1208.98 225.864 1210.3 227.174 1211.79 227.174C1213.29 227.174 1214.6 225.864 1214.6 224.366C1214.6 222.868 1213.29 221.557 1211.79 221.557C1210.11 221.557 1208.98 222.868 1208.98 224.366Z" fill="white"/>
<path fill-rule="evenodd" clip-rule="evenodd" d="M1097.95 358.981H1108.06L1094.58 389.124H1084.29L1097.95 358.981Z" fill="#FEFEFE"/>
<path fill-rule="evenodd" clip-rule="evenodd" d="M1116.49 358.981H1126.6L1112.93 389.124H1102.82L1116.49 358.981Z" fill="#FEFEFE"/>
<path fill-rule="evenodd" clip-rule="evenodd" d="M1135.03 358.981H1145.14L1131.47 389.124H1121.36L1135.03 358.981Z" fill="#FEFEFE"/>
<path fill-rule="evenodd" clip-rule="evenodd" d="M1153.38 358.981H1163.49L1149.82 389.124H1139.71L1153.38 358.981Z" fill="#FEFEFE"/>
<path fill-rule="evenodd" clip-rule="evenodd" d="M1171.91 358.981H1182.02L1168.35 389.124H1158.24L1171.91 358.981Z" fill="#FEFEFE"/>
<path fill-rule="evenodd" clip-rule="evenodd" d="M1190.26 358.981H1200.56L1186.89 389.124H1176.78L1190.26 358.981Z" fill="#FEFEFE"/>
<path fill-rule="evenodd" clip-rule="evenodd" d="M1208.8 358.981H1218.91L1205.24 389.124H1195.13L1208.8 358.981Z" fill="#FEFEFE"/>
<path fill-rule="evenodd" clip-rule="evenodd" d="M1227.33 358.981H1237.44L1223.78 389.124H1213.67L1227.33 358.981Z" fill="#FEFEFE"/>
<path fill-rule="evenodd" clip-rule="evenodd" d="M1581.96 645.435H1592.07L1578.4 675.578H1568.29L1581.96 645.435Z" fill="#FEFEFE"/>
<path fill-rule="evenodd" clip-rule="evenodd" d="M1600.49 645.435H1610.6L1596.94 675.578H1586.82L1600.49 645.435Z" fill="#FEFEFE"/>
<path fill-rule="evenodd" clip-rule="evenodd" d="M1618.84 645.435H1628.95L1615.28 675.578H1605.17L1618.84 645.435Z" fill="#FEFEFE"/>
<path fill-rule="evenodd" clip-rule="evenodd" d="M1637.38 645.435H1647.49L1633.82 675.578H1623.71L1637.38 645.435Z" fill="#FEFEFE"/>
<path fill-rule="evenodd" clip-rule="evenodd" d="M1655.73 645.435H1666.02L1652.36 675.578H1642.25L1655.73 645.435Z" fill="#FEFEFE"/>
<path fill-rule="evenodd" clip-rule="evenodd" d="M1674.26 645.435H1684.37L1670.71 675.578H1660.6L1674.26 645.435Z" fill="#FEFEFE"/>
<path fill-rule="evenodd" clip-rule="evenodd" d="M1692.8 645.435H1702.91L1689.24 675.578H1679.13L1692.8 645.435Z" fill="#FEFEFE"/>
<path fill-rule="evenodd" clip-rule="evenodd" d="M1711.15 645.435H1721.26L1707.78 675.578H1697.48L1711.15 645.435Z" fill="#FEFEFE"/>
<path fill-rule="evenodd" clip-rule="evenodd" d="M1308.22 174.377L1234.07 174.938C1232.2 174.938 1230.7 173.441 1230.7 171.568C1230.7 169.696 1232.2 168.198 1234.07 168.198L1308.22 167.637C1310.09 167.637 1311.59 169.134 1311.59 171.007C1311.59 172.879 1310.09 174.377 1308.22 174.377Z" fill="#FEFEFE"/>
<path fill-rule="evenodd" clip-rule="evenodd" d="M1321.7 186.359L1278.26 186.734C1276.39 186.734 1274.89 185.236 1274.89 183.364C1274.89 181.491 1276.39 179.993 1278.26 179.993L1321.7 179.619C1323.57 179.619 1325.07 181.117 1325.07 182.989C1324.88 184.861 1323.39 186.359 1321.7 186.359Z" fill="#FEFEFE"/>
<path fill-rule="evenodd" clip-rule="evenodd" d="M1320.39 160.897L1252.42 161.458C1250.55 161.458 1249.05 159.96 1249.05 158.088C1249.05 156.216 1250.55 154.718 1252.42 154.718L1320.39 154.156C1322.26 154.156 1323.76 155.654 1323.76 157.526C1323.76 159.399 1322.26 160.897 1320.39 160.897Z" fill="#FEFEFE"/>
</g>
<defs>
<clipPath id="clip0">
<rect width="1920" height="879" fill="white"/>
</clipPath>
</defs>
</svg>
