<svg width="800" height="380" viewBox="0 0 800 380" fill="none" xmlns="http://www.w3.org/2000/svg">
<g clip-path="url(#clip0)">
<path fill-rule="evenodd" clip-rule="evenodd" d="M676.984 336.94C766.393 324.732 796.355 302.511 785.286 241.189C774.313 179.962 707.996 150.97 727.271 107.481C764.675 23.2701 696.736 2.67037 619.828 0.190767C565.248 -1.62125 506.183 8.20179 494.828 32.3302C475.458 73.5298 516.87 103.094 472.595 142.1C428.32 181.011 383.473 181.011 384.427 228.982C386.526 332.648 528.893 346.477 627.271 341.136C645.877 340.087 662.767 338.847 676.984 336.94Z" fill="#48D1EC"/>
<path fill-rule="evenodd" clip-rule="evenodd" d="M351.985 313.86C352.462 313.574 390.725 284.963 418.683 286.585C446.641 288.206 454.179 302.511 453.225 319.678C452.271 336.749 443.111 350.196 415.153 348.575C387.194 346.954 351.889 313.956 351.985 313.86Z" fill="#74C1C7"/>
<path fill-rule="evenodd" clip-rule="evenodd" d="M351.984 313.86C352.461 313.574 390.725 284.963 418.683 286.585C446.641 288.206 454.179 302.511 453.225 319.678L351.984 313.86Z" fill="#4F8CB5"/>
<path fill-rule="evenodd" clip-rule="evenodd" d="M359.141 314.433C363.149 314.719 367.538 315.1 372.309 315.386C378.416 315.863 385.095 316.34 392.061 316.721C396.355 317.008 400.744 317.294 405.229 317.58C408.187 317.77 411.05 317.961 414.008 318.057C416.966 318.247 419.924 318.343 422.786 318.533C427.271 318.724 431.756 319.01 435.954 319.201C440.63 319.392 445.019 319.582 449.122 319.773C457.328 320.155 464.199 320.441 468.874 320.632C468.97 320.632 468.97 320.536 468.97 320.536C468.97 320.441 468.874 320.441 468.874 320.441C464.294 320.155 457.328 319.678 449.122 319.106C445.019 318.82 440.63 318.533 435.954 318.247C431.756 317.961 427.271 317.675 422.786 317.389C419.924 317.198 416.966 317.008 414.008 316.912C411.05 316.721 408.187 316.626 405.229 316.435C400.84 316.245 396.355 315.959 392.061 315.768C385.191 315.386 378.512 315.1 372.309 314.814C367.538 314.623 363.149 314.337 359.141 314.146C359.046 314.146 359.046 314.242 359.046 314.242C358.95 314.337 359.046 314.433 359.141 314.433Z" fill="#396DAB"/>
<path fill-rule="evenodd" clip-rule="evenodd" d="M380.324 303.37C382.042 304.61 383.568 306.422 384.427 308.997C384.809 310.046 385 311.095 385.191 312.43C385.286 313.479 385.381 314.623 385.286 315.958C385.286 316.721 385.191 317.389 385.095 318.057C384.809 319.869 384.141 321.395 383.378 322.634C381.851 325.209 379.752 326.926 378.416 327.784C378.32 327.784 378.32 327.88 378.416 327.975C378.416 328.07 378.511 328.07 378.607 327.975C380.133 327.117 382.423 325.591 384.236 323.111C385.191 321.776 385.954 320.155 386.431 318.247C386.622 317.484 386.717 316.721 386.717 315.958C386.717 314.623 386.717 313.384 386.526 312.239C386.336 310.904 385.954 309.664 385.477 308.615C384.332 306.04 382.519 304.323 380.61 303.179C380.515 303.179 380.515 303.179 380.42 303.179C380.324 303.274 380.324 303.37 380.324 303.37Z" fill="#396DAB"/>
<path fill-rule="evenodd" clip-rule="evenodd" d="M435.668 306.231C437.385 307.471 438.912 309.283 439.771 311.858C440.153 312.907 440.344 313.956 440.534 315.291C440.63 316.34 440.725 317.484 440.63 318.82C440.63 319.583 440.534 320.25 440.439 320.918C440.153 322.73 439.485 324.256 438.721 325.495C437.195 328.07 435.095 329.787 433.76 330.645C433.664 330.645 433.664 330.741 433.76 330.836C433.76 330.932 433.855 330.932 433.95 330.836C435.477 329.978 437.767 328.452 439.58 325.972C440.534 324.637 441.298 323.016 441.775 321.108C441.966 320.346 442.061 319.583 442.061 318.82C442.061 317.484 442.061 316.245 441.87 315.1C441.679 313.765 441.298 312.525 440.821 311.476C439.676 308.901 437.863 307.185 435.954 306.04C435.859 306.04 435.859 306.04 435.763 306.04C435.573 306.135 435.573 306.231 435.668 306.231Z" fill="#396DAB"/>
<path fill-rule="evenodd" clip-rule="evenodd" d="M399.504 299.174C401.985 300.89 404.179 303.465 405.515 307.185C406.088 308.615 406.469 310.236 406.66 312.048C406.851 313.574 406.947 315.291 406.851 317.103C406.851 318.152 406.66 319.201 406.565 320.155C406.088 322.73 405.134 324.923 403.989 326.831C401.794 330.455 398.74 332.839 396.737 334.174C396.641 334.174 396.641 334.269 396.737 334.365C396.737 334.46 396.832 334.46 396.927 334.365C399.027 333.22 402.366 330.931 404.847 327.307C406.183 325.4 407.233 323.111 407.805 320.441C407.996 319.392 408.187 318.343 408.187 317.198C408.282 315.291 408.187 313.574 407.901 311.953C407.614 310.046 407.137 308.329 406.469 306.898C404.847 303.179 402.366 300.699 399.695 299.078C399.599 299.078 399.599 299.078 399.504 299.078C399.408 299.078 399.408 299.174 399.504 299.174Z" fill="#396DAB"/>
<path fill-rule="evenodd" clip-rule="evenodd" d="M417.347 294.977C420.496 297.266 423.454 300.509 425.267 305.277C425.935 307.185 426.507 309.283 426.793 311.667C427.08 313.67 427.175 315.863 427.08 318.247C427.08 319.678 426.889 320.918 426.603 322.253C425.935 325.591 424.79 328.452 423.263 330.931C420.305 335.605 416.393 338.752 413.721 340.373C413.626 340.373 413.626 340.468 413.721 340.564C413.721 340.659 413.816 340.659 413.912 340.564C416.679 339.038 420.877 336.081 424.026 331.408C425.744 328.929 427.08 325.972 427.843 322.539C428.129 321.204 428.32 319.869 428.32 318.343C428.416 315.863 428.225 313.67 427.939 311.572C427.557 309.092 426.984 306.898 426.126 304.991C424.122 300.223 420.877 296.98 417.538 294.787C417.442 294.787 417.442 294.787 417.347 294.787C417.252 294.882 417.252 294.977 417.347 294.977Z" fill="#396DAB"/>
<path fill-rule="evenodd" clip-rule="evenodd" d="M359.332 248.914C359.809 248.914 407.137 241.952 430.992 256.543C454.847 271.23 454.656 287.443 445.687 302.035C436.717 316.626 422.309 324.065 398.454 309.378C374.599 294.691 359.237 248.914 359.332 248.914Z" fill="#74C1C7"/>
<path fill-rule="evenodd" clip-rule="evenodd" d="M359.332 248.914C359.809 248.914 407.137 241.952 430.992 256.543C454.847 271.23 454.656 287.443 445.687 302.035L359.332 248.914Z" fill="#4F8CB5"/>
<path fill-rule="evenodd" clip-rule="evenodd" d="M365.344 252.729C368.683 254.922 372.405 257.306 376.412 259.786C381.565 263.124 387.29 266.653 393.111 270.372C396.737 272.661 400.553 275.045 404.275 277.334C406.756 278.86 409.237 280.386 411.718 281.912C414.198 283.438 416.775 284.963 419.256 286.489C423.073 288.874 426.889 291.067 430.515 293.261C434.523 295.645 438.34 297.934 441.775 300.032C448.836 304.228 454.752 307.757 458.76 310.141C458.855 310.141 458.855 310.141 458.95 310.141C458.95 310.046 458.95 310.046 458.95 309.95C455.038 307.471 449.218 303.847 442.252 299.46C438.817 297.266 435 294.977 431.088 292.498C427.462 290.209 423.74 287.92 419.924 285.536C417.443 284.01 414.962 282.484 412.481 280.958C410 279.432 407.519 277.906 404.943 276.38C401.126 274.091 397.405 271.803 393.683 269.514C387.767 265.985 382.042 262.456 376.794 259.309C372.691 256.83 368.969 254.541 365.534 252.538C365.439 252.538 365.439 252.538 365.344 252.538C365.248 252.633 365.248 252.729 365.344 252.729Z" fill="#396DAB"/>
<path fill-rule="evenodd" clip-rule="evenodd" d="M389.294 253.11C390.152 255.018 390.725 257.306 390.248 259.977C390.057 261.026 389.771 262.17 389.294 263.315C388.912 264.268 388.339 265.317 387.767 266.462C387.385 267.129 387.003 267.702 386.526 268.178C385.381 269.609 384.141 270.658 382.805 271.421C380.229 272.947 377.557 273.424 375.935 273.615C375.839 273.615 375.839 273.71 375.839 273.71C375.839 273.805 375.935 273.805 375.935 273.805C377.652 273.805 380.42 273.519 383.187 272.184C384.713 271.421 386.145 270.372 387.385 268.941C387.862 268.369 388.339 267.797 388.721 267.034C389.389 265.89 389.961 264.745 390.248 263.696C390.725 262.361 390.916 261.217 391.011 260.072C391.202 257.211 390.439 254.827 389.389 252.919C389.389 252.824 389.294 252.824 389.198 252.824C389.294 253.015 389.294 253.015 389.294 253.11Z" fill="#396DAB"/>
<path fill-rule="evenodd" clip-rule="evenodd" d="M436.527 281.912C437.386 283.819 437.958 286.108 437.481 288.778C437.29 289.827 437.004 290.972 436.527 292.116C436.145 293.07 435.573 294.119 435 295.263C434.619 295.931 434.237 296.503 433.76 296.98C432.615 298.411 431.374 299.46 430.038 300.223C427.462 301.748 424.79 302.225 423.168 302.416C423.073 302.416 423.073 302.511 423.073 302.511C423.073 302.607 423.168 302.607 423.168 302.607C424.886 302.607 427.653 302.321 430.42 300.986C431.947 300.223 433.378 299.174 434.619 297.743C435.096 297.171 435.573 296.599 435.954 295.836C436.622 294.691 437.195 293.547 437.481 292.498C437.958 291.163 438.149 290.018 438.244 288.874C438.435 286.013 437.672 283.628 436.622 281.721C436.622 281.626 436.527 281.626 436.432 281.626C436.527 281.816 436.527 281.816 436.527 281.912Z" fill="#396DAB"/>
<path fill-rule="evenodd" clip-rule="evenodd" d="M408.091 258.451C409.427 261.121 410.19 264.459 409.618 268.369C409.427 269.895 408.95 271.516 408.282 273.233C407.71 274.664 406.946 276.189 405.992 277.811C405.419 278.764 404.847 279.527 404.274 280.29C402.652 282.293 400.744 283.819 398.835 284.963C395.114 287.062 391.297 287.825 388.912 287.92C388.816 287.92 388.816 288.015 388.816 288.015C388.816 288.111 388.912 288.111 388.912 288.111C391.393 288.111 395.305 287.634 399.217 285.631C401.316 284.582 403.32 283.056 405.133 280.958C405.801 280.195 406.469 279.241 407.042 278.288C407.996 276.666 408.759 275.045 409.236 273.519C409.904 271.707 410.286 269.99 410.381 268.369C410.763 264.364 409.713 260.93 408.187 258.26C408.187 258.165 408.091 258.165 407.996 258.165C408.091 258.355 408.091 258.451 408.091 258.451Z" fill="#396DAB"/>
<path fill-rule="evenodd" clip-rule="evenodd" d="M425.839 263.315C427.557 266.843 428.607 271.135 427.939 276.094C427.652 278.097 427.08 280.195 426.221 282.389C425.458 284.296 424.504 286.203 423.359 288.301C422.691 289.541 421.927 290.59 421.068 291.544C418.969 294.214 416.488 296.122 414.007 297.552C409.236 300.318 404.275 301.176 401.126 301.367C401.03 301.367 401.03 301.462 401.03 301.462C401.03 301.558 401.126 301.558 401.126 301.558C404.275 301.462 409.332 300.89 414.389 298.315C417.061 296.98 419.637 294.977 421.927 292.307C422.786 291.258 423.549 290.113 424.313 288.874C425.553 286.775 426.507 284.677 427.175 282.77C428.034 280.386 428.511 278.192 428.702 276.19C429.179 270.944 427.939 266.653 425.935 263.124C425.935 263.029 425.839 263.029 425.744 263.029C425.744 263.124 425.744 263.219 425.839 263.315Z" fill="#396DAB"/>
<path fill-rule="evenodd" clip-rule="evenodd" d="M392.347 194.267C392.824 194.458 438.053 210.099 452.366 234.132C466.775 258.165 459.141 272.47 444.446 281.244C429.752 290.018 413.53 290.018 399.122 265.985C384.714 242.047 392.252 194.267 392.347 194.267Z" fill="#74C1C7"/>
<path fill-rule="evenodd" clip-rule="evenodd" d="M392.347 194.267C392.824 194.458 438.053 210.099 452.366 234.132C466.775 258.165 459.141 272.47 444.446 281.244L392.347 194.267Z" fill="#4F8CB5"/>
<path fill-rule="evenodd" clip-rule="evenodd" d="M395.878 200.466C397.881 203.9 400.076 207.81 402.462 211.911C405.515 217.251 408.855 222.973 412.385 228.982C414.58 232.701 416.775 236.516 419.065 240.331C420.591 242.81 422.023 245.385 423.549 247.865C425.076 250.44 426.603 252.919 428.13 255.399C430.515 259.214 432.805 263.029 435 266.653C437.385 270.658 439.771 274.378 441.87 277.906C446.164 284.868 449.79 290.781 452.271 294.691C452.271 294.787 452.366 294.787 452.462 294.691C452.557 294.691 452.557 294.596 452.462 294.5C450.076 290.495 446.641 284.582 442.443 277.429C440.343 273.901 438.149 270.086 435.763 266.08C433.569 262.456 431.374 258.642 429.084 254.731C427.652 252.252 426.126 249.677 424.599 247.197C423.072 244.718 421.546 242.143 420.019 239.663C417.729 235.848 415.439 232.129 413.149 228.41C409.523 222.497 406.088 216.774 402.843 211.529C400.362 207.428 398.072 203.709 395.973 200.276C395.973 200.18 395.878 200.18 395.782 200.276C395.878 200.371 395.782 200.466 395.878 200.466Z" fill="#396DAB"/>
<path fill-rule="evenodd" clip-rule="evenodd" d="M416.966 211.911C416.87 214.009 416.298 216.298 414.675 218.491C414.008 219.349 413.244 220.208 412.29 221.066C411.431 221.734 410.572 222.497 409.427 223.164C408.759 223.546 408.187 223.927 407.519 224.118C405.897 224.881 404.275 225.167 402.748 225.262C399.79 225.453 397.214 224.69 395.687 224.022C395.592 224.022 395.592 224.022 395.496 224.118C395.496 224.213 395.496 224.213 395.592 224.309C397.118 225.072 399.695 226.121 402.843 226.216C404.466 226.216 406.279 226.025 408.092 225.262C408.759 224.976 409.427 224.595 410.191 224.213C411.336 223.45 412.29 222.687 413.149 221.924C414.103 220.971 414.962 220.017 415.534 219.063C417.061 216.679 417.443 214.199 417.347 212.006C417.347 211.911 417.252 211.911 417.252 211.911C416.966 211.72 416.966 211.815 416.966 211.911Z" fill="#396DAB"/>
<path fill-rule="evenodd" clip-rule="evenodd" d="M445.592 259.214C445.496 261.312 444.924 263.601 443.301 265.794C442.633 266.653 441.87 267.511 440.916 268.369C440.057 269.037 439.198 269.8 438.053 270.467C437.385 270.849 436.813 271.23 436.145 271.421C434.523 272.184 432.901 272.47 431.374 272.565C428.416 272.756 425.84 271.993 424.313 271.326C424.217 271.326 424.217 271.326 424.122 271.421C424.122 271.516 424.122 271.516 424.217 271.612C425.744 272.375 428.321 273.424 431.469 273.519C433.092 273.519 434.905 273.328 436.717 272.565C437.385 272.279 438.053 271.898 438.817 271.516C439.962 270.753 440.916 269.99 441.775 269.228C442.729 268.274 443.588 267.32 444.16 266.366C445.687 263.982 446.069 261.503 445.973 259.309C445.973 259.214 445.878 259.214 445.878 259.214C445.687 259.118 445.592 259.118 445.592 259.214Z" fill="#396DAB"/>
<path fill-rule="evenodd" clip-rule="evenodd" d="M431.183 225.262C431.088 228.314 430.229 231.557 427.939 234.704C427.08 235.944 425.935 237.183 424.504 238.423C423.359 239.472 422.023 240.426 420.401 241.38C419.542 241.952 418.588 242.429 417.729 242.81C415.344 243.859 412.958 244.336 410.763 244.432C406.469 244.622 402.844 243.478 400.649 242.524C400.553 242.524 400.553 242.524 400.458 242.62C400.458 242.715 400.458 242.715 400.553 242.81C402.748 243.955 406.469 245.385 410.859 245.385C413.149 245.385 415.725 245.004 418.302 243.955C419.256 243.573 420.21 243.096 421.164 242.429C422.786 241.38 424.218 240.331 425.363 239.282C426.794 237.946 427.939 236.611 428.798 235.276C430.992 231.843 431.66 228.409 431.469 225.262C431.469 225.167 431.374 225.167 431.374 225.167C431.183 225.167 431.183 225.262 431.183 225.262Z" fill="#396DAB"/>
<path fill-rule="evenodd" clip-rule="evenodd" d="M444.637 237.756C444.542 241.666 443.492 245.957 440.534 250.058C439.389 251.68 437.958 253.301 436.145 254.922C434.618 256.257 432.9 257.593 430.897 258.832C429.752 259.595 428.511 260.167 427.366 260.74C424.217 262.075 421.164 262.647 418.301 262.838C412.767 263.029 407.996 261.503 405.133 260.263C405.038 260.263 405.038 260.263 404.942 260.358C404.942 260.454 404.942 260.454 405.038 260.549C407.9 261.98 412.671 263.792 418.301 263.792C421.259 263.792 424.503 263.315 427.843 261.98C429.084 261.503 430.324 260.835 431.565 260.072C433.664 258.737 435.477 257.402 437.003 255.971C438.816 254.255 440.248 252.538 441.393 250.821C444.255 246.434 445.114 241.952 445.019 237.946C445.019 237.851 444.923 237.851 444.923 237.851C444.732 237.66 444.637 237.66 444.637 237.756Z" fill="#396DAB"/>
<path d="M633.473 294.786H621.927V379.905H633.473V294.786Z" fill="#445465"/>
<path d="M636.05 294.786H627.748V379.905H636.05V294.786Z" fill="#6F7B88"/>
<path d="M529.466 294.786H517.92V350.101H529.466V294.786Z" fill="#0097CD"/>
<path d="M532.042 294.786H523.74V350.101H532.042V294.786Z" fill="#9DE6D7"/>
<path d="M733.286 294.846H721.57V380H733.286V294.846Z" fill="#445465"/>
<path d="M735.949 294.846H727.428V380H735.949V294.846Z" fill="#6F7B88"/>
<path d="M665.121 294.846H653.405V380H665.121V294.846Z" fill="#445465"/>
<path d="M667.783 294.846H659.263V380.532H667.783V294.846Z" fill="#6F7B88"/>
<path d="M741.488 288.683H521.832V298.697H741.488V288.683Z" fill="#445465"/>
<path fill-rule="evenodd" clip-rule="evenodd" d="M499.695 202.564C507.042 196.556 471.45 219.731 466.298 235.181C461.145 250.631 472.977 265.604 472.977 265.604C479.275 247.769 492.443 208.573 499.695 202.564Z" fill="#F6AC3B"/>
<path fill-rule="evenodd" clip-rule="evenodd" d="M601.603 219.254L700.649 217.442L702.08 219.254L685.095 285.44H584.618L601.603 219.254Z" fill="#717070"/>
<path fill-rule="evenodd" clip-rule="evenodd" d="M600.171 217.442H700.648L683.664 283.533H583.091L600.171 217.442Z" fill="#3E3938"/>
<path fill-rule="evenodd" clip-rule="evenodd" d="M602.366 220.398L586.813 280.672H681.374L696.927 220.398H602.366Z" fill="white"/>
<path fill-rule="evenodd" clip-rule="evenodd" d="M612.958 253.492H646.927L642.633 270.467H608.664L612.958 253.492Z" fill="#D4F6F2"/>
<path fill-rule="evenodd" clip-rule="evenodd" d="M612.958 253.492H646.927L646.45 255.494H612.481L612.958 253.492Z" fill="#00A0E9"/>
<path fill-rule="evenodd" clip-rule="evenodd" d="M616.775 257.879H620.21L619.065 262.266H612.862L613.721 259.023L614.007 257.879L614.103 257.306H616.965L616.775 257.879Z" fill="#FDD000"/>
<path fill-rule="evenodd" clip-rule="evenodd" d="M627.366 257.879H630.801L629.752 262.266H623.454L624.313 259.023L624.599 257.879L624.79 257.306H627.557L627.366 257.879Z" fill="#FDD000"/>
<path fill-rule="evenodd" clip-rule="evenodd" d="M637.29 257.879H640.725L639.58 262.266H633.378L634.237 259.023L634.428 257.879L634.618 257.306H637.386L637.29 257.879Z" fill="#FDD000"/>
<path fill-rule="evenodd" clip-rule="evenodd" d="M615.057 264.65H618.492L617.443 268.941H611.145L612.004 265.699L612.29 264.65L612.481 263.982H615.248L615.057 264.65Z" fill="#FDD000"/>
<path fill-rule="evenodd" clip-rule="evenodd" d="M625.649 264.65H629.084L628.034 268.941H621.832L622.595 265.699L622.882 264.65L623.073 263.982H625.84L625.649 264.65Z" fill="#FDD000"/>
<path fill-rule="evenodd" clip-rule="evenodd" d="M635.572 264.65H639.008L637.863 268.941H631.66L632.519 265.699L632.805 264.65L632.901 263.982H635.668L635.572 264.65Z" fill="#FDD000"/>
<path fill-rule="evenodd" clip-rule="evenodd" d="M604.847 231.271H641.202L636.527 249.391H600.267L604.847 231.271Z" fill="#D4F6F2"/>
<path fill-rule="evenodd" clip-rule="evenodd" d="M604.847 231.271H641.202L640.63 233.464H604.275L604.847 231.271Z" fill="#00A0E9"/>
<path fill-rule="evenodd" clip-rule="evenodd" d="M608.95 236.039H612.576L611.431 240.617H604.751L605.61 237.183L605.897 236.039L606.087 235.276H609.045L608.95 236.039Z" fill="#FDD000"/>
<path fill-rule="evenodd" clip-rule="evenodd" d="M620.21 236.039H623.931L622.691 240.617H616.107L616.966 237.183L617.252 236.039L617.443 235.276H620.401L620.21 236.039Z" fill="#FDD000"/>
<path fill-rule="evenodd" clip-rule="evenodd" d="M630.801 236.039H634.427L633.282 240.617H626.603L627.557 237.183L627.843 236.039L628.034 235.276H630.992L630.801 236.039Z" fill="#FDD000"/>
<path fill-rule="evenodd" clip-rule="evenodd" d="M607.042 243.192H610.763L609.523 247.865H602.939L603.798 244.336L604.084 243.192L604.275 242.524H607.233L607.042 243.192Z" fill="#FDD000"/>
<path fill-rule="evenodd" clip-rule="evenodd" d="M618.397 243.192H622.118L620.878 247.865H614.294L615.153 244.336L615.439 243.192L615.63 242.524H618.588L618.397 243.192Z" fill="#FDD000"/>
<path fill-rule="evenodd" clip-rule="evenodd" d="M628.988 243.192H632.614L631.469 247.865H624.79L625.744 244.336L626.03 243.192L626.126 242.524H629.179L628.988 243.192Z" fill="#FDD000"/>
<path d="M683.664 283.533H543.587V288.683H683.664V283.533Z" fill="#888889"/>
<path fill-rule="evenodd" clip-rule="evenodd" d="M547.023 166.419C545.401 154.689 538.053 152.305 531.565 150.302C525.076 148.299 512.481 147.632 508.187 165.275C503.893 183.014 507.424 189.69 507.424 189.69L499.981 205.521L532.901 212.292L533.569 200.276C533.569 200.276 538.053 202.278 540.63 197.987C543.969 192.455 547.691 171.283 547.023 166.419Z" fill="#FAD9C8"/>
<path d="M683.664 283.533H631.946V288.683H683.664V283.533Z" fill="#C8C9C9"/>
<path fill-rule="evenodd" clip-rule="evenodd" d="M554.084 212.769C554.084 212.769 524.981 203.137 510.191 201.229C504.561 200.466 501.794 200.085 500.649 199.894C500.267 199.799 500.362 199.799 499.981 199.989C436.813 228.505 450.744 361.594 455.324 380H506.231H557.137C555.61 367.983 550.744 297.457 551.794 264.459C553.13 225.262 554.084 212.769 554.084 212.769Z" fill="#F6AC3B"/>
<path fill-rule="evenodd" clip-rule="evenodd" d="M481.175 213.432C474.805 220.818 468.111 227.647 464.008 236.134L480.808 385.925L487.386 350.196L543.499 387.451C536.915 334.33 536.137 228.309 481.175 213.432Z" fill="#E39D29"/>
<path fill-rule="evenodd" clip-rule="evenodd" d="M616.488 271.04C616.87 270.181 620.019 265.127 620.878 264.65C625.744 261.121 629.465 262.17 632.805 261.407C636.145 260.74 641.107 265.222 642.729 267.129C644.351 269.037 645.591 270.849 645.21 271.898C644.828 272.947 642.92 271.421 642.252 271.23C641.584 271.04 639.771 268.941 639.771 268.941C639.771 268.941 634.618 269.609 634.427 269.8C634.236 270.086 629.179 274.091 625.267 273.901C621.355 273.615 616.488 271.04 616.488 271.04Z" fill="#FAD9C8"/>
<path fill-rule="evenodd" clip-rule="evenodd" d="M553.702 313.097C553.702 313.097 552.271 316.912 540.63 287.634C528.893 258.355 532.328 232.415 532.328 232.415C532.328 232.415 545.019 249.963 549.027 260.93C553.225 271.993 552.748 286.871 553.702 313.097Z" fill="#E39D29"/>
<path fill-rule="evenodd" clip-rule="evenodd" d="M554.561 212.864C548.168 211.72 540.534 215.916 537.481 220.589C516.774 252.633 561.526 327.594 583.378 327.975C595.878 328.166 628.988 273.996 628.988 273.996C632.996 268.083 623.358 263.41 618.206 266.939L587.385 288.397C574.981 263.601 568.301 215.344 554.561 212.864Z" fill="#F6AC3B"/>
<path fill-rule="evenodd" clip-rule="evenodd" d="M530.229 186.352C529.084 186.638 520.114 190.834 516.965 190.929C513.721 191.025 507.423 189.785 507.423 189.785C507.423 189.785 500.458 172.809 503.32 164.417C506.183 156.024 511.049 152.972 511.049 152.972C511.049 152.972 511.622 150.779 513.626 148.681C515.629 146.487 528.034 146.201 532.328 147.536C536.717 148.776 537.862 149.634 542.919 150.302C548.072 150.97 550.839 150.588 550.839 150.588L550.744 155.166L552.461 154.689C552.461 154.689 553.034 157.264 551.507 163.177C549.981 169.09 547.69 170.52 546.355 171.283C545.019 171.951 542.824 171.951 542.824 171.951L540.916 175.766C540.916 175.766 540.057 171.76 535.668 172.809C531.374 173.858 531.278 177.005 531.564 180.153C531.755 183.3 533.091 185.589 532.614 185.589C532.232 185.303 530.229 186.352 530.229 186.352Z" fill="#445465"/>
<path d="M741.488 288.683H663.053V298.697H741.488V288.683Z" fill="#6F7B88"/>
<path fill-rule="evenodd" clip-rule="evenodd" d="M530.038 350.196C527.461 321.013 516.488 256.162 509.045 244.432C481.374 200.657 435.763 210.48 424.408 249.391C420.687 262.361 424.122 281.721 428.702 299.174C435.668 325.495 440.439 373.641 443.015 382.033H530.038V350.196Z" fill="#445465"/>
<path fill-rule="evenodd" clip-rule="evenodd" d="M496.832 245.957C504.179 257.497 513.173 357.505 516.036 387.451H533.861C533.67 385.639 529.752 346.381 529.561 344.283C528.321 333.03 526.221 318.343 523.74 303.656C523.454 301.939 523.168 300.318 522.882 298.697C522.691 297.457 522.404 296.122 522.214 294.882C522.118 294.214 521.927 293.547 521.832 292.784C517.729 270.658 512.958 250.535 509.141 244.527C499.981 229.935 488.721 221.352 477.462 217.728C474.217 216.679 470.973 216.107 467.824 215.916C465.916 215.725 464.008 215.821 462.099 215.916C459.427 216.107 456.851 216.584 454.37 217.347C456.183 217.442 457.996 217.633 459.809 217.919C461.622 218.205 463.34 218.682 465.153 219.159C468.301 220.112 471.45 221.543 474.504 223.26C482.424 227.933 490.153 235.371 496.832 245.957Z" fill="#6F7B88"/>
<path fill-rule="evenodd" clip-rule="evenodd" d="M517.824 326.926H596.164C599.79 326.926 602.748 329.883 602.748 333.507C602.748 337.131 599.79 340.087 596.164 340.087H517.824C514.198 340.087 511.24 337.131 511.24 333.507C511.24 329.978 514.198 326.926 517.824 326.926Z" fill="#445465"/>
<path fill-rule="evenodd" clip-rule="evenodd" d="M638.149 266.557C638.149 266.557 639.962 269.323 640.248 270.372C640.535 271.421 641.107 272.947 639.962 273.424C638.817 273.901 637.29 271.23 636.813 270.563C636.336 269.895 634.714 268.369 634.714 268.178C634.905 267.988 638.149 266.557 638.149 266.557Z" fill="#FAD9C8"/>
<path fill-rule="evenodd" clip-rule="evenodd" d="M634.141 268.56C634.523 269.037 636.145 270.467 636.049 271.612C635.858 272.661 634.809 273.233 633.855 272.565C632.996 271.898 631.946 270.563 631.946 270.563L634.141 268.56Z" fill="#FAD9C8"/>
<path fill-rule="evenodd" clip-rule="evenodd" d="M660.095 228.219H689.58L678.511 270.849H649.122L660.095 228.219Z" fill="#445465"/>
<path fill-rule="evenodd" clip-rule="evenodd" d="M660.095 228.219H689.58L689.103 230.031H659.713L660.095 228.219Z" fill="#888889"/>
<path fill-rule="evenodd" clip-rule="evenodd" d="M661.813 232.987H676.603L676.412 233.75H661.622L661.813 232.987Z" fill="#C8C9C9"/>
<path fill-rule="evenodd" clip-rule="evenodd" d="M661.24 235.181H668.588L668.397 235.944H661.049L661.24 235.181Z" fill="#C8C9C9"/>
<path fill-rule="evenodd" clip-rule="evenodd" d="M660.668 237.374H672.118L671.927 238.137H660.477L660.668 237.374Z" fill="#C8C9C9"/>
<path fill-rule="evenodd" clip-rule="evenodd" d="M660.095 239.568H666.87L666.584 240.331H659.904L660.095 239.568Z" fill="#C8C9C9"/>
<path fill-rule="evenodd" clip-rule="evenodd" d="M659.523 241.761H679.847L679.656 242.524H659.332L659.523 241.761Z" fill="#C8C9C9"/>
<path fill-rule="evenodd" clip-rule="evenodd" d="M658.95 243.955H673.74L673.549 244.718H658.759L658.95 243.955Z" fill="#C8C9C9"/>
<path fill-rule="evenodd" clip-rule="evenodd" d="M658.378 246.148H667.729L667.538 246.911H658.187L658.378 246.148Z" fill="#C8C9C9"/>
<path fill-rule="evenodd" clip-rule="evenodd" d="M657.805 248.342H662.385L662.099 249.105H657.614L657.805 248.342Z" fill="#C8C9C9"/>
<path fill-rule="evenodd" clip-rule="evenodd" d="M657.233 250.535H672.023L671.832 251.298H657.042L657.233 250.535Z" fill="#C8C9C9"/>
<path fill-rule="evenodd" clip-rule="evenodd" d="M656.755 252.729H667.824L667.633 253.492H656.469L656.755 252.729Z" fill="#C8C9C9"/>
<path fill-rule="evenodd" clip-rule="evenodd" d="M656.088 254.922H674.599L674.408 255.685H655.897L656.088 254.922Z" fill="#C8C9C9"/>
<path fill-rule="evenodd" clip-rule="evenodd" d="M655.61 257.116H660.095L659.904 257.879H655.324L655.61 257.116Z" fill="#C8C9C9"/>
<path fill-rule="evenodd" clip-rule="evenodd" d="M655.038 259.309H657.042L656.851 260.072H654.752L655.038 259.309Z" fill="#C8C9C9"/>
<path fill-rule="evenodd" clip-rule="evenodd" d="M654.466 261.503H669.256L668.97 262.266H654.275L654.466 261.503Z" fill="#C8C9C9"/>
<path fill-rule="evenodd" clip-rule="evenodd" d="M653.893 263.696H664.389L664.198 264.459H653.702L653.893 263.696Z" fill="#C8C9C9"/>
<path fill-rule="evenodd" clip-rule="evenodd" d="M653.321 265.89H658.092L657.901 266.653H653.13L653.321 265.89Z" fill="#C8C9C9"/>
<path fill-rule="evenodd" clip-rule="evenodd" d="M535.382 174.526C533.95 176.147 535.286 182.251 536.24 183.395C537.195 184.444 538.435 183.491 538.912 182.251C539.389 181.011 538.721 180.725 538.626 179.104C538.626 177.482 539.389 178.245 539.389 177.005C539.389 174.717 536.813 172.905 535.382 174.526Z" fill="#F5C9B2"/>
<path fill-rule="evenodd" clip-rule="evenodd" d="M539.866 199.036C538.817 199.322 537.576 199.322 535.859 198.273C532.042 195.984 528.893 192.265 528.893 192.265L529.561 205.425C530.801 205.807 532.042 206.093 533.378 206.475L533.759 200.276C533.569 200.276 537.195 201.897 539.866 199.036Z" fill="#F5C9B2"/>
<path d="M645.401 285.154H639.485V287.538H645.401V285.154Z" fill="#3E3938"/>
<path d="M645.4 285.154H643.778V287.538H645.4V285.154Z" fill="#231915"/>
<path d="M654.37 285.154H648.454V287.538H654.37V285.154Z" fill="#3E3938"/>
<path d="M654.37 285.154H652.748V287.538H654.37V285.154Z" fill="#231915"/>
<path d="M663.244 285.154H657.328V287.538H663.244V285.154Z" fill="#3E3938"/>
<path d="M663.244 285.154H661.622V287.538H663.244V285.154Z" fill="#231915"/>
<path fill-rule="evenodd" clip-rule="evenodd" d="M637.194 40.1505C646.164 40.1505 653.988 45.0143 658.187 52.2624C660.095 50.4504 662.671 49.4013 665.534 49.4013C671.259 49.4013 675.935 53.979 676.221 59.7012C676.412 59.7012 676.603 59.7012 676.794 59.7012C685.19 59.7012 691.965 66.4724 691.965 74.8649C691.965 76.0093 691.774 77.1538 691.584 78.2028C698.454 78.3936 703.988 84.1157 703.988 91.0777C703.988 98.135 698.168 103.953 691.106 103.953H595.114C588.053 103.953 582.232 98.135 582.232 91.0777C582.232 84.0204 588.053 78.2028 595.114 78.2028H595.496C595.019 76.8677 594.828 75.3418 594.828 73.8159C594.828 65.4234 601.603 58.6521 610 58.6521C611.24 58.6521 612.481 58.8429 613.626 59.129C616.011 48.2569 625.648 40.1505 637.194 40.1505Z" fill="#FEFEFE"/>
<path fill-rule="evenodd" clip-rule="evenodd" d="M607.328 110.152H612.576V130.942H615.152L612.576 135.424L610 139.811L607.424 135.424L604.847 130.942H607.328V110.152Z" fill="white"/>
<path fill-rule="evenodd" clip-rule="evenodd" d="M637.194 114.252H642.633V135.615H645.21L642.538 140.193L639.866 144.771L637.29 140.193L634.618 135.615H637.194V114.252Z" fill="white"/>
<path fill-rule="evenodd" clip-rule="evenodd" d="M653.702 125.411H657.614V141.051H659.523L657.519 144.484L655.61 147.822L653.702 144.484L651.698 141.051H653.702V125.411Z" fill="white"/>
<path fill-rule="evenodd" clip-rule="evenodd" d="M627.461 107.004V119.784H630.515L627.366 125.22L624.217 130.656L621.068 125.22L617.919 119.784H621.068V107.004H627.461Z" fill="white"/>
<path fill-rule="evenodd" clip-rule="evenodd" d="M667.538 107.004V115.874H670.21L667.443 120.738L664.675 125.506L661.908 120.738L659.141 115.874H661.813V107.004H667.538Z" fill="white"/>
<path fill-rule="evenodd" clip-rule="evenodd" d="M674.408 107.004H679.656V127.89H682.137L679.561 132.373L676.985 136.76L674.408 132.373L671.927 127.89H674.408V107.004Z" fill="white"/>
<path fill-rule="evenodd" clip-rule="evenodd" d="M642.156 239.282C609.809 225.453 605.706 210.194 605.419 159.076C621.068 158.313 634.427 154.594 642.156 149.253C649.79 154.594 663.244 158.313 678.893 159.076C678.702 210.194 674.599 225.453 642.156 239.282Z" fill="#F6AC3B"/>
<path fill-rule="evenodd" clip-rule="evenodd" d="M642.156 149.253C649.79 154.594 663.244 158.313 678.893 159.076C678.607 210.194 674.504 225.358 642.156 239.282V149.253Z" fill="#F6BE67"/>
<path fill-rule="evenodd" clip-rule="evenodd" d="M642.729 164.131C649.503 164.131 655.038 169.662 655.038 176.433V186.924H652.08V176.433C652.08 171.283 647.881 167.087 642.729 167.087C637.576 167.087 633.377 171.283 633.377 176.433V186.924H630.419V176.433C630.419 169.662 635.954 164.131 642.729 164.131Z" fill="#FEFEFE"/>
<path fill-rule="evenodd" clip-rule="evenodd" d="M629.179 184.444H656.374C657.71 184.444 658.855 185.589 658.855 186.924V207.333C658.855 208.668 657.71 209.812 656.374 209.812H629.275C627.939 209.812 626.794 208.668 626.794 207.333V186.924C626.698 185.589 627.843 184.444 629.179 184.444Z" fill="#445465"/>
<path fill-rule="evenodd" clip-rule="evenodd" d="M642.729 190.071C645.114 190.071 647.118 191.978 647.118 194.363C647.118 196.27 645.973 197.796 644.255 198.368V202.66C644.255 203.518 643.587 204.186 642.729 204.186C641.965 204.186 641.202 203.518 641.202 202.66V198.368C639.58 197.796 638.339 196.175 638.339 194.363C638.435 192.074 640.343 190.071 642.729 190.071Z" fill="#131313"/>
<path fill-rule="evenodd" clip-rule="evenodd" d="M470.401 161.746C470.401 163.082 469.542 164.131 468.301 164.417V179.676H415.439V169.185H400.553C400.267 170.425 399.122 171.283 397.881 171.283C396.355 171.283 395.114 170.043 395.114 168.518C395.114 166.992 396.355 165.752 397.881 165.752C399.217 165.752 400.267 166.61 400.553 167.85H416.775V178.341H466.87V164.417C465.63 164.131 464.771 162.986 464.771 161.746C464.771 160.22 466.011 158.981 467.538 158.981C469.16 158.885 470.401 160.125 470.401 161.746ZM397.881 167.087C397.118 167.087 396.45 167.755 396.45 168.518C396.45 169.281 397.118 169.948 397.881 169.948C398.645 169.948 399.313 169.281 399.313 168.518C399.217 167.755 398.645 167.087 397.881 167.087ZM467.633 163.082C468.397 163.082 469.065 162.414 469.065 161.651C469.065 160.888 468.397 160.22 467.633 160.22C466.87 160.22 466.202 160.888 466.202 161.651C466.202 162.414 466.87 163.082 467.633 163.082Z" fill="white"/>
<path fill-rule="evenodd" clip-rule="evenodd" d="M799.313 231.652C799.313 232.987 798.454 234.036 797.213 234.322V249.581H744.351V239.091H729.465C729.179 240.331 728.034 241.189 726.794 241.189C725.267 241.189 724.026 239.949 724.026 238.423C724.026 236.897 725.267 235.658 726.794 235.658C728.129 235.658 729.179 236.516 729.465 237.756H745.687V248.246H795.782V234.322C794.542 234.036 793.683 232.892 793.683 231.652C793.683 230.126 794.923 228.886 796.45 228.886C798.072 228.886 799.313 230.126 799.313 231.652ZM726.794 237.088C726.03 237.088 725.362 237.756 725.362 238.519C725.362 239.282 726.03 239.949 726.794 239.949C727.557 239.949 728.225 239.282 728.225 238.519C728.129 237.756 727.557 237.088 726.794 237.088ZM796.545 233.083C797.309 233.083 797.977 232.415 797.977 231.652C797.977 230.889 797.309 230.222 796.545 230.222C795.782 230.222 795.114 230.889 795.114 231.652C795.114 232.415 795.687 233.083 796.545 233.083Z" fill="white"/>
<path fill-rule="evenodd" clip-rule="evenodd" d="M713.817 188.45C713.817 187.305 714.58 186.447 715.63 186.161V156.883H752.653V143.054C751.603 142.768 750.84 141.814 750.84 140.765C750.84 139.43 751.889 138.381 753.225 138.381C754.561 138.381 755.611 139.43 755.611 140.765C755.611 141.91 754.847 142.768 753.798 143.054V158.027H716.775V186.066C717.824 186.352 718.588 187.305 718.588 188.354C718.588 189.69 717.538 190.739 716.202 190.739C714.867 190.834 713.817 189.785 713.817 188.45ZM754.37 140.765C754.37 140.098 753.798 139.621 753.225 139.621C752.557 139.621 752.08 140.193 752.08 140.765C752.08 141.433 752.653 141.91 753.225 141.91C753.798 142.005 754.37 141.433 754.37 140.765ZM716.202 187.305C715.534 187.305 715.057 187.878 715.057 188.45C715.057 189.022 715.63 189.594 716.202 189.594C716.87 189.594 717.347 189.022 717.347 188.45C717.347 187.878 716.87 187.305 716.202 187.305Z" fill="white"/>
<path fill-rule="evenodd" clip-rule="evenodd" d="M479.561 124.075C479.561 123.122 480.229 122.263 481.183 121.977V100.329H519.637V96.323C518.683 96.1323 518.015 95.2739 518.015 94.2249C518.015 93.0805 518.969 92.1268 520.114 92.1268C521.26 92.1268 522.214 93.0805 522.214 94.2249C522.214 95.1786 521.546 96.0369 520.592 96.323V101.378H482.137V121.977C483.092 122.168 483.76 123.026 483.76 124.075C483.76 125.22 482.805 126.174 481.66 126.174C480.515 126.174 479.561 125.22 479.561 124.075ZM521.164 94.2249C521.164 93.6527 520.687 93.1758 520.114 93.1758C519.542 93.1758 519.065 93.6527 519.065 94.2249C519.065 94.7971 519.542 95.2739 520.114 95.2739C520.687 95.3693 521.164 94.8925 521.164 94.2249ZM481.66 123.026C481.088 123.026 480.611 123.503 480.611 124.075C480.611 124.648 481.088 125.125 481.66 125.125C482.233 125.125 482.71 124.648 482.71 124.075C482.71 123.503 482.233 123.026 481.66 123.026Z" fill="white"/>
<path fill-rule="evenodd" clip-rule="evenodd" d="M702.748 50.1643C702.748 49.2106 703.416 48.3523 704.37 48.0661V26.4173H742.824V22.4118C741.87 22.2211 741.202 21.3627 741.202 20.3137C741.202 19.1693 742.156 18.2156 743.302 18.2156C744.447 18.2156 745.401 19.1693 745.401 20.3137C745.401 21.2674 744.733 22.1257 743.779 22.4118V27.4664H705.324V48.0661C706.279 48.2569 706.947 49.1152 706.947 50.1643C706.947 51.3087 705.992 52.2624 704.847 52.2624C703.702 52.2624 702.748 51.3087 702.748 50.1643ZM744.447 20.3137C744.447 19.7415 743.969 19.2646 743.397 19.2646C742.824 19.2646 742.347 19.7415 742.347 20.3137C742.347 20.8859 742.824 21.3627 743.397 21.3627C743.969 21.3627 744.447 20.8859 744.447 20.3137ZM704.943 49.1152C704.37 49.1152 703.893 49.5921 703.893 50.1643C703.893 50.7365 704.37 51.2133 704.943 51.2133C705.515 51.2133 705.992 50.7365 705.992 50.1643C705.992 49.5921 705.515 49.1152 704.943 49.1152Z" fill="white"/>
<path fill-rule="evenodd" clip-rule="evenodd" d="M538.912 49.306C537.576 49.306 536.527 48.4476 536.24 47.2078H522.023V25.7497H490.057C489.771 26.9895 488.626 27.8479 487.385 27.8479C485.859 27.8479 484.618 26.6081 484.618 25.0821C484.618 23.5562 485.859 22.3164 487.385 22.3164C488.721 22.3164 489.771 23.1748 490.057 24.4146H523.454V45.7773H536.145C536.431 44.5375 537.576 43.6792 538.817 43.6792C540.343 43.6792 541.584 44.919 541.584 46.4449C541.679 48.0662 540.439 49.306 538.912 49.306ZM487.194 23.6516C486.431 23.6516 485.763 24.3192 485.763 25.0821C485.763 25.8451 486.431 26.5127 487.194 26.5127C487.958 26.5127 488.626 25.8451 488.626 25.0821C488.626 24.2238 487.958 23.6516 487.194 23.6516ZM537.481 46.5402C537.481 47.3032 538.149 47.9708 538.912 47.9708C539.675 47.9708 540.343 47.3032 540.343 46.5402C540.343 45.7773 539.675 45.1097 538.912 45.1097C538.053 45.1097 537.481 45.7773 537.481 46.5402Z" fill="white"/>
<path fill-rule="evenodd" clip-rule="evenodd" d="M480.897 115.111H486.049L479.179 130.465H473.931L480.897 115.111Z" fill="#FEFEFE"/>
<path fill-rule="evenodd" clip-rule="evenodd" d="M490.344 115.111H495.496L488.531 130.465H483.378L490.344 115.111Z" fill="#FEFEFE"/>
<path fill-rule="evenodd" clip-rule="evenodd" d="M499.79 115.111H504.943L497.977 130.465H492.824L499.79 115.111Z" fill="#FEFEFE"/>
<path fill-rule="evenodd" clip-rule="evenodd" d="M509.141 115.111H514.294L507.328 130.465H502.175L509.141 115.111Z" fill="#FEFEFE"/>
<path fill-rule="evenodd" clip-rule="evenodd" d="M518.588 115.111H523.74L516.775 130.465H511.622L518.588 115.111Z" fill="#FEFEFE"/>
<path fill-rule="evenodd" clip-rule="evenodd" d="M527.939 115.111H533.187L526.221 130.465H521.068L527.939 115.111Z" fill="#FEFEFE"/>
<path fill-rule="evenodd" clip-rule="evenodd" d="M537.385 115.111H542.538L535.572 130.465H530.419L537.385 115.111Z" fill="#FEFEFE"/>
<path fill-rule="evenodd" clip-rule="evenodd" d="M546.832 115.111H551.985L545.019 130.465H539.866L546.832 115.111Z" fill="#FEFEFE"/>
<path fill-rule="evenodd" clip-rule="evenodd" d="M727.557 261.026H732.71L725.744 276.38H720.591L727.557 261.026Z" fill="#FEFEFE"/>
<path fill-rule="evenodd" clip-rule="evenodd" d="M737.004 261.026H742.156L735.191 276.38H730.038L737.004 261.026Z" fill="#FEFEFE"/>
<path fill-rule="evenodd" clip-rule="evenodd" d="M746.355 261.026H751.508L744.542 276.38H739.389L746.355 261.026Z" fill="#FEFEFE"/>
<path fill-rule="evenodd" clip-rule="evenodd" d="M755.801 261.026H760.954L753.988 276.38H748.835L755.801 261.026Z" fill="#FEFEFE"/>
<path fill-rule="evenodd" clip-rule="evenodd" d="M765.152 261.026H770.401L763.435 276.38H758.282L765.152 261.026Z" fill="#FEFEFE"/>
<path fill-rule="evenodd" clip-rule="evenodd" d="M774.599 261.026H779.752L772.786 276.38H767.633L774.599 261.026Z" fill="#FEFEFE"/>
<path fill-rule="evenodd" clip-rule="evenodd" d="M784.045 261.026H789.198L782.232 276.38H777.08L784.045 261.026Z" fill="#FEFEFE"/>
<path fill-rule="evenodd" clip-rule="evenodd" d="M793.396 261.026H798.549L791.679 276.38H786.431L793.396 261.026Z" fill="#FEFEFE"/>
<path fill-rule="evenodd" clip-rule="evenodd" d="M588.053 21.0766L550.267 21.3627C549.313 21.3627 548.549 20.5998 548.549 19.6461C548.549 18.6924 549.313 17.9294 550.267 17.9294L588.053 17.6433C589.007 17.6433 589.771 18.4063 589.771 19.36C589.771 20.3137 589.007 21.0766 588.053 21.0766Z" fill="#FEFEFE"/>
<path fill-rule="evenodd" clip-rule="evenodd" d="M594.923 27.1803L572.786 27.371C571.832 27.371 571.068 26.6081 571.068 25.6544C571.068 24.7007 571.832 23.9377 572.786 23.9377L594.923 23.747C595.878 23.747 596.641 24.5099 596.641 25.4636C596.545 26.4173 595.782 27.1803 594.923 27.1803Z" fill="#FEFEFE"/>
<path fill-rule="evenodd" clip-rule="evenodd" d="M594.255 14.21L559.618 14.4962C558.664 14.4962 557.9 13.7332 557.9 12.7795C557.9 11.8258 558.664 11.0629 559.618 11.0629L594.255 10.7767C595.21 10.7767 595.973 11.5397 595.973 12.4934C595.973 13.4471 595.21 14.21 594.255 14.21Z" fill="#FEFEFE"/>
</g>
<defs>
<clipPath id="clip0">
<rect width="800" height="380" fill="white"/>
</clipPath>
</defs>
</svg>
