<svg width="1366" height="662" viewBox="0 0 1366 662" fill="none" xmlns="http://www.w3.org/2000/svg">
<g clip-path="url(#clip0)">
<path fill-rule="evenodd" clip-rule="evenodd" d="M1172.11 600.356C1300.06 582.88 1342.94 551.069 1327.1 463.281C1311.4 375.63 1216.49 334.125 1244.08 271.868C1297.61 151.313 1200.38 121.823 1090.31 118.273C1012.2 115.679 927.675 129.741 911.425 164.283C883.704 223.264 942.969 265.587 879.607 321.428C816.245 377.131 752.064 377.131 753.429 445.805C756.433 594.212 960.176 614.009 1100.97 606.363C1127.59 604.861 1151.76 603.086 1172.11 600.356Z" fill="#48D1EC"/>
<path fill-rule="evenodd" clip-rule="evenodd" d="M707 567.316C707.683 566.906 762.442 525.948 802.453 528.269C842.464 530.59 853.252 551.069 851.886 575.644C850.521 600.083 837.411 619.333 797.4 617.012C757.389 614.691 706.863 567.452 707 567.316Z" fill="#74C1C7"/>
<path fill-rule="evenodd" clip-rule="evenodd" d="M707 567.316C707.682 566.906 762.441 525.948 802.452 528.269C842.463 530.59 853.251 551.069 851.886 575.644L707 567.316Z" fill="#4F8CB5"/>
<path fill-rule="evenodd" clip-rule="evenodd" d="M717.241 568.135C722.977 568.545 729.258 569.091 736.086 569.5C744.826 570.183 754.385 570.866 764.353 571.412C770.498 571.821 776.78 572.231 783.198 572.64C787.431 572.914 791.528 573.187 795.761 573.323C799.995 573.596 804.228 573.733 808.325 574.006C814.743 574.279 821.161 574.688 827.169 574.961C833.861 575.235 840.142 575.508 846.014 575.781C857.758 576.327 867.59 576.736 874.281 577.009C874.418 577.009 874.418 576.873 874.418 576.873C874.418 576.736 874.281 576.736 874.281 576.736C867.727 576.327 857.758 575.644 846.014 574.825C840.142 574.415 833.861 574.006 827.169 573.596C821.161 573.187 814.743 572.777 808.325 572.367C804.228 572.094 799.995 571.821 795.761 571.685C791.528 571.412 787.431 571.275 783.198 571.002C776.917 570.729 770.498 570.32 764.353 570.046C754.521 569.5 744.962 569.091 736.086 568.681C729.258 568.408 722.977 567.999 717.241 567.725C717.105 567.725 717.105 567.862 717.105 567.862C716.968 567.999 717.105 568.135 717.241 568.135Z" fill="#396DAB"/>
<path fill-rule="evenodd" clip-rule="evenodd" d="M747.557 552.298C750.015 554.073 752.2 556.667 753.429 560.353C753.975 561.855 754.248 563.357 754.522 565.268C754.658 566.77 754.795 568.408 754.658 570.32C754.658 571.412 754.522 572.367 754.385 573.323C753.975 575.917 753.019 578.102 751.927 579.877C749.742 583.563 746.738 586.02 744.826 587.249C744.689 587.249 744.689 587.386 744.826 587.522C744.826 587.659 744.963 587.659 745.099 587.522C747.284 586.293 750.561 584.109 753.156 580.559C754.522 578.648 755.614 576.327 756.297 573.596C756.57 572.504 756.706 571.412 756.706 570.32C756.706 568.408 756.706 566.633 756.433 564.995C756.16 563.084 755.614 561.309 754.931 559.807C753.293 556.121 750.698 553.663 747.967 552.025C747.83 552.025 747.83 552.025 747.694 552.025C747.557 552.161 747.557 552.298 747.557 552.298Z" fill="#396DAB"/>
<path fill-rule="evenodd" clip-rule="evenodd" d="M826.76 556.394C829.218 558.168 831.403 560.762 832.632 564.449C833.178 565.951 833.451 567.452 833.724 569.364C833.861 570.866 833.997 572.504 833.861 574.415C833.861 575.508 833.724 576.463 833.588 577.419C833.178 580.013 832.222 582.198 831.13 583.972C828.945 587.659 825.94 590.116 824.029 591.345C823.892 591.345 823.892 591.482 824.029 591.618C824.029 591.755 824.165 591.755 824.302 591.618C826.487 590.389 829.764 588.205 832.359 584.655C833.724 582.744 834.817 580.423 835.499 577.692C835.773 576.6 835.909 575.508 835.909 574.415C835.909 572.504 835.909 570.729 835.636 569.091C835.363 567.179 834.817 565.404 834.134 563.903C832.495 560.216 829.901 557.759 827.169 556.12C827.033 556.12 827.033 556.12 826.896 556.12C826.623 556.257 826.623 556.394 826.76 556.394Z" fill="#396DAB"/>
<path fill-rule="evenodd" clip-rule="evenodd" d="M775.005 546.29C778.555 548.748 781.696 552.434 783.608 557.759C784.427 559.807 784.974 562.128 785.247 564.722C785.52 566.906 785.656 569.364 785.52 571.958C785.52 573.46 785.247 574.961 785.11 576.327C784.427 580.013 783.062 583.153 781.423 585.884C778.282 591.072 773.912 594.485 771.045 596.396C770.908 596.396 770.908 596.533 771.045 596.67C771.045 596.806 771.181 596.806 771.318 596.67C774.322 595.031 779.102 591.754 782.652 586.566C784.564 583.836 786.066 580.559 786.885 576.736C787.158 575.235 787.432 573.733 787.432 572.094C787.568 569.364 787.432 566.906 787.022 564.585C786.612 561.855 785.929 559.397 784.974 557.349C782.652 552.025 779.102 548.475 775.278 546.154C775.141 546.154 775.141 546.154 775.005 546.154C774.868 546.154 774.868 546.29 775.005 546.29Z" fill="#396DAB"/>
<path fill-rule="evenodd" clip-rule="evenodd" d="M800.541 540.283C805.047 543.56 809.281 548.202 811.875 555.028C812.831 557.759 813.65 560.763 814.06 564.176C814.47 567.043 814.606 570.183 814.47 573.596C814.47 575.644 814.197 577.419 813.787 579.33C812.831 584.109 811.192 588.205 809.008 591.755C804.774 598.444 799.176 602.95 795.352 605.271C795.215 605.271 795.215 605.407 795.352 605.544C795.352 605.68 795.488 605.68 795.625 605.544C799.585 603.36 805.594 599.127 810.1 592.437C812.558 588.887 814.47 584.655 815.562 579.74C815.972 577.829 816.245 575.917 816.245 573.733C816.382 570.183 816.108 567.043 815.699 564.039C815.153 560.49 814.333 557.349 813.104 554.619C810.237 547.792 805.594 543.15 800.814 540.01C800.678 540.01 800.678 540.01 800.541 540.01C800.405 540.147 800.405 540.283 800.541 540.283Z" fill="#396DAB"/>
<path fill-rule="evenodd" clip-rule="evenodd" d="M717.515 474.34C718.198 474.34 785.93 464.373 820.069 485.262C854.208 506.288 853.935 529.497 841.098 550.386C828.262 571.275 807.642 581.924 773.503 560.899C739.364 539.874 717.378 474.34 717.515 474.34Z" fill="#74C1C7"/>
<path fill-rule="evenodd" clip-rule="evenodd" d="M717.515 474.34C718.197 474.34 785.929 464.373 820.069 485.262C854.208 506.288 853.934 529.497 841.098 550.386L717.515 474.34Z" fill="#4F8CB5"/>
<path fill-rule="evenodd" clip-rule="evenodd" d="M726.118 479.801C730.898 482.941 736.223 486.354 741.959 489.904C749.333 494.683 757.526 499.734 765.856 505.059C771.045 508.335 776.507 511.749 781.833 515.025C785.384 517.21 788.934 519.394 792.484 521.579C796.035 523.763 799.722 525.948 803.272 528.132C808.735 531.545 814.197 534.685 819.386 537.826C825.121 541.239 830.584 544.516 835.5 547.519C845.605 553.526 854.071 558.578 859.807 561.991C859.943 561.991 859.943 561.991 860.08 561.991C860.08 561.855 860.08 561.855 860.08 561.718C854.481 558.168 846.151 552.98 836.182 546.7C831.266 543.56 825.804 540.283 820.205 536.733C815.016 533.457 809.691 530.18 804.228 526.767C800.678 524.582 797.127 522.398 793.577 520.213C790.026 518.029 786.476 515.845 782.789 513.66C777.327 510.383 772.001 507.107 766.675 503.83C758.209 498.778 750.015 493.727 742.505 489.221C736.633 485.672 731.307 482.395 726.391 479.528C726.255 479.528 726.255 479.528 726.118 479.528C725.981 479.664 725.981 479.801 726.118 479.801Z" fill="#396DAB"/>
<path fill-rule="evenodd" clip-rule="evenodd" d="M760.394 480.347C761.623 483.078 762.442 486.354 761.759 490.177C761.486 491.679 761.076 493.317 760.394 494.956C759.847 496.321 759.028 497.823 758.209 499.461C757.662 500.417 757.116 501.236 756.433 501.919C754.795 503.967 753.02 505.468 751.108 506.561C747.421 508.745 743.597 509.428 741.276 509.701C741.139 509.701 741.139 509.837 741.139 509.837C741.139 509.974 741.276 509.974 741.276 509.974C743.734 509.974 747.694 509.564 751.654 507.653C753.839 506.561 755.887 505.059 757.662 503.011C758.345 502.192 759.028 501.373 759.574 500.28C760.53 498.642 761.35 497.004 761.759 495.502C762.442 493.59 762.715 491.952 762.852 490.314C763.125 486.218 762.032 482.805 760.53 480.074C760.53 479.938 760.394 479.938 760.257 479.938C760.394 480.211 760.394 480.211 760.394 480.347Z" fill="#396DAB"/>
<path fill-rule="evenodd" clip-rule="evenodd" d="M827.989 521.579C829.218 524.309 830.037 527.586 829.354 531.409C829.081 532.911 828.672 534.549 827.989 536.187C827.443 537.553 826.623 539.054 825.804 540.693C825.258 541.648 824.711 542.468 824.029 543.15C822.39 545.198 820.615 546.7 818.703 547.792C815.016 549.977 811.192 550.659 808.871 550.932C808.734 550.932 808.734 551.069 808.734 551.069C808.734 551.206 808.871 551.205 808.871 551.205C811.329 551.205 815.289 550.796 819.249 548.885C821.434 547.792 823.482 546.29 825.258 544.243C825.94 543.423 826.623 542.604 827.169 541.512C828.125 539.874 828.945 538.235 829.354 536.733C830.037 534.822 830.31 533.184 830.447 531.545C830.72 527.449 829.627 524.036 828.125 521.306C828.125 521.169 827.989 521.169 827.852 521.169C827.989 521.442 827.989 521.442 827.989 521.579Z" fill="#396DAB"/>
<path fill-rule="evenodd" clip-rule="evenodd" d="M787.295 487.993C789.207 491.815 790.3 496.594 789.48 502.192C789.207 504.376 788.524 506.697 787.568 509.155C786.749 511.203 785.657 513.387 784.291 515.708C783.472 517.073 782.652 518.166 781.833 519.258C779.512 522.125 776.78 524.309 774.049 525.948C768.724 528.951 763.261 530.044 759.847 530.18C759.711 530.18 759.711 530.317 759.711 530.317C759.711 530.453 759.847 530.453 759.847 530.453C763.398 530.453 768.997 529.771 774.596 526.903C777.6 525.402 780.468 523.217 783.062 520.214C784.018 519.121 784.974 517.756 785.793 516.391C787.159 514.07 788.251 511.749 788.934 509.564C789.89 506.97 790.436 504.513 790.573 502.192C791.119 496.457 789.617 491.542 787.432 487.72C787.432 487.583 787.295 487.583 787.159 487.583C787.295 487.856 787.295 487.993 787.295 487.993Z" fill="#396DAB"/>
<path fill-rule="evenodd" clip-rule="evenodd" d="M812.695 494.956C815.153 500.007 816.655 506.151 815.699 513.251C815.289 516.118 814.47 519.121 813.241 522.261C812.148 524.992 810.783 527.723 809.144 530.726C808.188 532.501 807.096 534.003 805.867 535.368C802.863 539.191 799.312 541.922 795.762 543.969C788.934 547.929 781.833 549.158 777.326 549.431C777.19 549.431 777.19 549.567 777.19 549.567C777.19 549.704 777.326 549.704 777.326 549.704C781.833 549.567 789.07 548.748 796.308 545.062C800.131 543.15 803.818 540.283 807.096 536.46C808.325 534.959 809.417 533.32 810.51 531.545C812.285 528.542 813.651 525.538 814.606 522.808C815.835 519.394 816.518 516.254 816.791 513.387C817.474 505.878 815.699 499.734 812.831 494.683C812.831 494.546 812.695 494.546 812.558 494.546C812.558 494.683 812.558 494.819 812.695 494.956Z" fill="#396DAB"/>
<path fill-rule="evenodd" clip-rule="evenodd" d="M764.763 396.109C765.446 396.382 830.174 418.773 850.657 453.178C871.277 487.583 860.353 508.062 839.323 520.623C818.293 533.184 795.079 533.184 774.459 498.778C753.839 464.51 764.626 396.109 764.763 396.109Z" fill="#74C1C7"/>
<path fill-rule="evenodd" clip-rule="evenodd" d="M764.763 396.109C765.446 396.382 830.174 418.773 850.657 453.178C871.277 487.583 860.353 508.062 839.323 520.623L764.763 396.109Z" fill="#4F8CB5"/>
<path fill-rule="evenodd" clip-rule="evenodd" d="M769.816 404.983C772.683 409.898 775.824 415.496 779.238 421.367C783.608 429.012 788.387 437.204 793.44 445.805C796.581 451.13 799.722 456.591 802.999 462.052C805.184 465.602 807.232 469.288 809.417 472.838C811.602 476.524 813.787 480.074 815.972 483.624C819.386 489.085 822.663 494.546 825.804 499.734C829.218 505.468 832.632 510.793 835.636 515.845C841.781 525.811 846.97 534.276 850.521 539.874C850.521 540.01 850.657 540.01 850.794 539.874C850.93 539.874 850.93 539.737 850.794 539.601C847.38 533.866 842.464 525.402 836.455 515.162C833.451 510.11 830.31 504.649 826.896 498.915C823.756 493.727 820.615 488.266 817.337 482.668C815.289 479.118 813.104 475.432 810.919 471.882C808.734 468.333 806.549 464.646 804.365 461.097C801.087 455.635 797.81 450.311 794.532 444.986C789.343 436.521 784.427 428.33 779.784 420.821C776.234 414.95 772.957 409.625 769.952 404.71C769.952 404.574 769.816 404.574 769.679 404.71C769.816 404.847 769.679 404.983 769.816 404.983Z" fill="#396DAB"/>
<path fill-rule="evenodd" clip-rule="evenodd" d="M799.995 421.367C799.858 424.37 799.039 427.647 796.717 430.787C795.761 432.016 794.669 433.245 793.303 434.473C792.074 435.429 790.845 436.521 789.207 437.477C788.251 438.023 787.432 438.569 786.476 438.842C784.154 439.935 781.833 440.344 779.648 440.481C775.415 440.754 771.728 439.662 769.543 438.706C769.406 438.706 769.406 438.706 769.27 438.842C769.27 438.979 769.27 438.979 769.406 439.115C771.591 440.208 775.278 441.71 779.784 441.846C782.106 441.846 784.7 441.573 787.295 440.481C788.251 440.071 789.207 439.525 790.299 438.979C791.938 437.887 793.303 436.794 794.532 435.702C795.898 434.337 797.127 432.972 797.946 431.606C800.131 428.193 800.678 424.643 800.541 421.503C800.541 421.367 800.404 421.367 800.404 421.367C799.995 421.094 799.995 421.23 799.995 421.367Z" fill="#396DAB"/>
<path fill-rule="evenodd" clip-rule="evenodd" d="M840.962 489.085C840.825 492.089 840.006 495.365 837.684 498.505C836.728 499.734 835.636 500.963 834.27 502.192C833.041 503.147 831.812 504.24 830.174 505.195C829.218 505.741 828.398 506.288 827.442 506.561C825.121 507.653 822.8 508.062 820.615 508.199C816.381 508.472 812.694 507.38 810.509 506.424C810.373 506.424 810.373 506.424 810.236 506.561C810.236 506.697 810.236 506.697 810.373 506.834C812.558 507.926 816.245 509.428 820.751 509.564C823.073 509.564 825.667 509.291 828.262 508.199C829.218 507.789 830.174 507.243 831.266 506.697C832.905 505.605 834.27 504.513 835.499 503.42C836.865 502.055 838.094 500.69 838.913 499.325C841.098 495.911 841.644 492.362 841.508 489.221C841.508 489.085 841.371 489.085 841.371 489.085C841.098 488.948 840.962 488.948 840.962 489.085Z" fill="#396DAB"/>
<path fill-rule="evenodd" clip-rule="evenodd" d="M820.341 440.481C820.205 444.85 818.976 449.492 815.698 453.997C814.469 455.772 812.831 457.547 810.782 459.322C809.144 460.823 807.232 462.189 804.91 463.554C803.681 464.373 802.316 465.056 801.087 465.602C797.673 467.104 794.259 467.786 791.118 467.923C784.973 468.196 779.784 466.558 776.643 465.192C776.507 465.192 776.507 465.192 776.37 465.329C776.37 465.465 776.37 465.465 776.507 465.602C779.647 467.24 784.973 469.288 791.255 469.288C794.532 469.288 798.219 468.742 801.906 467.24C803.272 466.694 804.637 466.012 806.003 465.056C808.324 463.554 810.373 462.052 812.011 460.55C814.06 458.639 815.698 456.728 816.927 454.816C820.068 449.901 821.024 444.986 820.751 440.481C820.751 440.344 820.614 440.344 820.614 440.344C820.341 440.344 820.341 440.481 820.341 440.481Z" fill="#396DAB"/>
<path fill-rule="evenodd" clip-rule="evenodd" d="M839.596 458.366C839.459 463.964 837.957 470.107 833.724 475.978C832.085 478.299 830.037 480.62 827.443 482.941C825.258 484.853 822.8 486.764 819.932 488.539C818.293 489.631 816.518 490.45 814.879 491.269C810.373 493.181 806.003 494 801.906 494.273C793.986 494.546 787.158 492.362 783.062 490.587C782.925 490.587 782.925 490.587 782.789 490.723C782.789 490.86 782.789 490.86 782.925 490.996C787.022 493.044 793.85 495.638 801.906 495.638C806.14 495.638 810.783 494.956 815.562 493.044C817.337 492.362 819.113 491.406 820.888 490.314C823.892 488.402 826.487 486.491 828.672 484.443C831.266 481.985 833.314 479.528 834.953 477.07C839.05 470.79 840.279 464.373 840.142 458.639C840.142 458.503 840.006 458.503 840.006 458.503C839.733 458.229 839.596 458.229 839.596 458.366Z" fill="#396DAB"/>
<path d="M1109.84 540.01H1093.32V661.863H1109.84V540.01Z" fill="#445465"/>
<path d="M1113.53 540.01H1101.65V661.863H1113.53V540.01Z" fill="#6F7B88"/>
<path d="M960.994 540.01H944.471V619.197H960.994V540.01Z" fill="#0097CD"/>
<path d="M964.682 540.01H952.801V619.197H964.682V540.01Z" fill="#9DE6D7"/>
<path d="M1252.68 540.095H1235.92V662H1252.68V540.095Z" fill="#445465"/>
<path d="M1256.5 540.095H1244.3V662H1256.5V540.095Z" fill="#6F7B88"/>
<path d="M1155.13 540.095H1138.37V662H1155.13V540.095Z" fill="#445465"/>
<path d="M1158.94 540.095H1146.75V662.762H1158.94V540.095Z" fill="#6F7B88"/>
<path d="M1264.42 531.272H950.07V545.608H1264.42V531.272Z" fill="#445465"/>
<path fill-rule="evenodd" clip-rule="evenodd" d="M918.389 407.987C928.904 399.386 877.968 432.562 870.594 454.68C863.22 476.797 880.153 498.232 880.153 498.232C889.166 472.702 908.011 416.588 918.389 407.987Z" fill="#F6AC3B"/>
<path fill-rule="evenodd" clip-rule="evenodd" d="M1064.23 431.879L1205.98 429.285L1208.03 431.879L1183.72 526.63H1039.92L1064.23 431.879Z" fill="#717070"/>
<path fill-rule="evenodd" clip-rule="evenodd" d="M1062.18 429.285H1205.98L1181.67 523.9H1037.74L1062.18 429.285Z" fill="#3E3938"/>
<path fill-rule="evenodd" clip-rule="evenodd" d="M1065.32 433.518L1043.06 519.804H1178.39L1200.65 433.518H1065.32Z" fill="white"/>
<path fill-rule="evenodd" clip-rule="evenodd" d="M1080.48 480.893H1129.1L1122.95 505.195H1074.34L1080.48 480.893Z" fill="#D4F6F2"/>
<path fill-rule="evenodd" clip-rule="evenodd" d="M1080.48 480.893H1129.1L1128.41 483.76H1079.8L1080.48 480.893Z" fill="#00A0E9"/>
<path fill-rule="evenodd" clip-rule="evenodd" d="M1085.94 487.173H1090.86L1089.22 493.454H1080.34L1081.57 488.812L1081.98 487.173L1082.12 486.354H1086.22L1085.94 487.173Z" fill="#FDD000"/>
<path fill-rule="evenodd" clip-rule="evenodd" d="M1101.1 487.173H1106.02L1104.52 493.454H1095.5L1096.73 488.812L1097.14 487.173L1097.41 486.354H1101.37L1101.1 487.173Z" fill="#FDD000"/>
<path fill-rule="evenodd" clip-rule="evenodd" d="M1115.3 487.173H1120.22L1118.58 493.454H1109.7L1110.93 488.812L1111.21 487.173L1111.48 486.354H1115.44L1115.3 487.173Z" fill="#FDD000"/>
<path fill-rule="evenodd" clip-rule="evenodd" d="M1083.49 496.867H1088.4L1086.9 503.011H1077.89L1079.12 498.369L1079.53 496.867L1079.8 495.911H1083.76L1083.49 496.867Z" fill="#FDD000"/>
<path fill-rule="evenodd" clip-rule="evenodd" d="M1098.64 496.867H1103.56L1102.06 503.011H1093.18L1094.27 498.369L1094.68 496.867L1094.96 495.911H1098.92L1098.64 496.867Z" fill="#FDD000"/>
<path fill-rule="evenodd" clip-rule="evenodd" d="M1112.85 496.867H1117.76L1116.12 503.011H1107.25L1108.48 498.369L1108.89 496.867L1109.02 495.911H1112.98L1112.85 496.867Z" fill="#FDD000"/>
<path fill-rule="evenodd" clip-rule="evenodd" d="M1068.87 449.082H1120.9L1114.21 475.023H1062.32L1068.87 449.082Z" fill="#D4F6F2"/>
<path fill-rule="evenodd" clip-rule="evenodd" d="M1068.87 449.082H1120.9L1120.08 452.222H1068.05L1068.87 449.082Z" fill="#00A0E9"/>
<path fill-rule="evenodd" clip-rule="evenodd" d="M1074.75 455.908H1079.94L1078.3 462.462H1068.74L1069.97 457.547L1070.38 455.908L1070.65 454.816H1074.88L1074.75 455.908Z" fill="#FDD000"/>
<path fill-rule="evenodd" clip-rule="evenodd" d="M1090.86 455.908H1096.19L1094.41 462.462H1084.99L1086.22 457.547L1086.63 455.908L1086.9 454.816H1091.13L1090.86 455.908Z" fill="#FDD000"/>
<path fill-rule="evenodd" clip-rule="evenodd" d="M1106.02 455.908H1111.21L1109.57 462.462H1100.01L1101.37 457.547L1101.78 455.908L1102.06 454.816H1106.29L1106.02 455.908Z" fill="#FDD000"/>
<path fill-rule="evenodd" clip-rule="evenodd" d="M1072.01 466.148H1077.34L1075.57 472.838H1066.14L1067.37 467.786L1067.78 466.148L1068.05 465.192H1072.29L1072.01 466.148Z" fill="#FDD000"/>
<path fill-rule="evenodd" clip-rule="evenodd" d="M1088.27 466.148H1093.59L1091.82 472.838H1082.39L1083.62 467.786L1084.03 466.148L1084.3 465.192H1088.54L1088.27 466.148Z" fill="#FDD000"/>
<path fill-rule="evenodd" clip-rule="evenodd" d="M1103.42 466.148H1108.61L1106.97 472.838H1097.41L1098.78 467.786L1099.19 466.148L1099.33 465.192H1103.7L1103.42 466.148Z" fill="#FDD000"/>
<path d="M1181.67 523.9H981.205V531.272H1181.67V523.9Z" fill="#888889"/>
<path fill-rule="evenodd" clip-rule="evenodd" d="M986.121 356.243C983.8 339.449 973.285 336.036 963.999 333.169C954.713 330.302 936.688 329.346 930.543 354.604C924.398 379.999 929.45 389.556 929.45 389.556L918.799 412.219L965.911 421.913L966.867 404.71C966.867 404.71 973.285 407.577 976.972 401.434C981.751 393.515 987.077 363.205 986.121 356.243Z" fill="#FAD9C8"/>
<path d="M1181.67 523.9H1107.66V531.272H1181.67V523.9Z" fill="#C8C9C9"/>
<path fill-rule="evenodd" clip-rule="evenodd" d="M996.226 422.595C996.226 422.595 954.577 408.806 933.41 406.075C925.353 404.983 921.393 404.437 919.755 404.164C919.208 404.028 919.345 404.028 918.799 404.301C828.398 445.123 848.336 635.65 854.89 662H927.743H1000.6C998.411 644.797 991.447 543.833 992.949 496.594C994.861 440.481 996.226 422.595 996.226 422.595Z" fill="#F6AC3B"/>
<path fill-rule="evenodd" clip-rule="evenodd" d="M891.885 423.544C882.769 434.118 873.189 443.894 867.317 456.045L891.36 670.482L900.773 619.333L981.078 672.667C971.655 596.62 970.542 444.843 891.885 423.544Z" fill="#E39D29"/>
<path fill-rule="evenodd" clip-rule="evenodd" d="M1085.53 506.015C1086.08 504.786 1090.59 497.55 1091.82 496.867C1098.78 491.816 1104.11 493.317 1108.89 492.225C1113.66 491.269 1120.77 497.686 1123.09 500.417C1125.41 503.147 1127.18 505.741 1126.64 507.243C1126.09 508.745 1123.36 506.561 1122.4 506.288C1121.45 506.014 1118.85 503.011 1118.85 503.011C1118.85 503.011 1111.48 503.967 1111.21 504.24C1110.93 504.649 1103.7 510.383 1098.1 510.11C1092.5 509.701 1085.53 506.015 1085.53 506.015Z" fill="#FAD9C8"/>
<path fill-rule="evenodd" clip-rule="evenodd" d="M995.68 566.224C995.68 566.224 993.632 571.685 976.972 529.77C960.176 487.856 965.092 450.72 965.092 450.72C965.092 450.72 983.254 475.842 988.989 491.542C994.997 507.38 994.315 528.678 995.68 566.224Z" fill="#E39D29"/>
<path fill-rule="evenodd" clip-rule="evenodd" d="M996.909 422.732C987.76 421.094 976.835 427.101 972.465 433.791C942.832 479.664 1006.88 586.976 1038.15 587.522C1056.04 587.795 1103.42 510.247 1103.42 510.247C1109.16 501.782 1095.37 495.092 1087.99 500.144L1043.88 530.863C1026.13 495.365 1016.57 426.282 996.909 422.732Z" fill="#F6AC3B"/>
<path fill-rule="evenodd" clip-rule="evenodd" d="M962.087 384.777C960.449 385.187 947.612 391.194 943.106 391.33C938.463 391.467 929.45 389.692 929.45 389.692C929.45 389.692 919.482 365.39 923.578 353.375C927.675 341.361 934.639 336.992 934.639 336.992C934.639 336.992 935.459 333.852 938.326 330.848C941.194 327.708 958.946 327.298 965.091 329.21C971.373 330.985 973.012 332.214 980.249 333.169C987.623 334.125 991.583 333.579 991.583 333.579L991.447 340.132L993.905 339.45C993.905 339.45 994.724 343.136 992.539 351.601C990.354 360.065 987.077 362.113 985.165 363.206C983.253 364.161 980.113 364.161 980.113 364.161L977.382 369.622C977.382 369.622 976.152 363.888 969.871 365.39C963.726 366.892 963.589 371.397 963.999 375.903C964.272 380.408 966.184 383.685 965.501 383.685C964.955 383.275 962.087 384.777 962.087 384.777Z" fill="#445465"/>
<path d="M1264.42 531.272H1152.17V545.608H1264.42V531.272Z" fill="#6F7B88"/>
<path fill-rule="evenodd" clip-rule="evenodd" d="M961.814 619.333C958.127 577.556 942.423 484.716 931.772 467.923C892.17 405.256 826.896 419.319 810.646 475.022C805.32 493.59 810.236 521.306 816.791 546.29C826.76 583.972 833.588 652.897 837.275 664.911H961.814V619.333Z" fill="#445465"/>
<path fill-rule="evenodd" clip-rule="evenodd" d="M914.293 470.107C924.807 486.627 937.679 629.797 941.775 672.667H967.286C967.012 670.073 961.404 613.872 961.131 610.869C959.356 594.758 956.352 573.733 952.801 552.707C952.392 550.25 951.982 547.929 951.572 545.608C951.299 543.833 950.89 541.922 950.617 540.147C950.48 539.191 950.207 538.235 950.07 537.143C944.198 505.468 937.371 476.661 931.908 468.06C918.799 447.171 902.685 434.883 886.572 429.695C881.929 428.193 877.286 427.374 872.779 427.101C870.048 426.828 867.317 426.964 864.586 427.101C860.762 427.374 857.075 428.057 853.525 429.149C856.119 429.285 858.714 429.558 861.309 429.968C863.903 430.378 866.361 431.06 868.956 431.743C873.462 433.108 877.968 435.156 882.338 437.614C893.672 444.304 904.734 454.953 914.293 470.107Z" fill="#6F7B88"/>
<path fill-rule="evenodd" clip-rule="evenodd" d="M944.335 586.02H1056.45C1061.64 586.02 1065.87 590.253 1065.87 595.441C1065.87 600.629 1061.64 604.861 1056.45 604.861H944.335C939.146 604.861 934.913 600.629 934.913 595.441C934.913 590.389 939.146 586.02 944.335 586.02Z" fill="#445465"/>
<path fill-rule="evenodd" clip-rule="evenodd" d="M1116.53 499.598C1116.53 499.598 1119.13 503.557 1119.54 505.059C1119.95 506.561 1120.77 508.745 1119.13 509.428C1117.49 510.11 1115.3 506.288 1114.62 505.332C1113.94 504.376 1111.62 502.192 1111.62 501.919C1111.89 501.646 1116.53 499.598 1116.53 499.598Z" fill="#FAD9C8"/>
<path fill-rule="evenodd" clip-rule="evenodd" d="M1110.8 502.465C1111.34 503.147 1113.66 505.195 1113.53 506.834C1113.26 508.335 1111.75 509.155 1110.39 508.199C1109.16 507.243 1107.66 505.332 1107.66 505.332L1110.8 502.465Z" fill="#FAD9C8"/>
<path fill-rule="evenodd" clip-rule="evenodd" d="M1147.94 444.713H1190.14L1174.3 505.741H1132.24L1147.94 444.713Z" fill="#445465"/>
<path fill-rule="evenodd" clip-rule="evenodd" d="M1147.94 444.713H1190.14L1189.45 447.307H1147.39L1147.94 444.713Z" fill="#888889"/>
<path fill-rule="evenodd" clip-rule="evenodd" d="M1150.4 451.54H1171.56L1171.29 452.632H1150.13L1150.4 451.54Z" fill="#C8C9C9"/>
<path fill-rule="evenodd" clip-rule="evenodd" d="M1149.58 454.68H1160.09L1159.82 455.772H1149.31L1149.58 454.68Z" fill="#C8C9C9"/>
<path fill-rule="evenodd" clip-rule="evenodd" d="M1148.76 457.82H1165.15L1164.87 458.912H1148.49L1148.76 457.82Z" fill="#C8C9C9"/>
<path fill-rule="evenodd" clip-rule="evenodd" d="M1147.94 460.96H1157.64L1157.23 462.052H1147.67L1147.94 460.96Z" fill="#C8C9C9"/>
<path fill-rule="evenodd" clip-rule="evenodd" d="M1147.12 464.1H1176.21L1175.93 465.192H1146.85L1147.12 464.1Z" fill="#C8C9C9"/>
<path fill-rule="evenodd" clip-rule="evenodd" d="M1146.3 467.24H1167.47L1167.19 468.333H1146.03L1146.3 467.24Z" fill="#C8C9C9"/>
<path fill-rule="evenodd" clip-rule="evenodd" d="M1145.48 470.381H1158.87L1158.59 471.473H1145.21L1145.48 470.381Z" fill="#C8C9C9"/>
<path fill-rule="evenodd" clip-rule="evenodd" d="M1144.66 473.521H1151.22L1150.81 474.613H1144.39L1144.66 473.521Z" fill="#C8C9C9"/>
<path fill-rule="evenodd" clip-rule="evenodd" d="M1143.84 476.661H1165.01L1164.74 477.753H1143.57L1143.84 476.661Z" fill="#C8C9C9"/>
<path fill-rule="evenodd" clip-rule="evenodd" d="M1143.16 479.801H1159L1158.73 480.893H1142.75L1143.16 479.801Z" fill="#C8C9C9"/>
<path fill-rule="evenodd" clip-rule="evenodd" d="M1142.2 482.941H1168.7L1168.42 484.033H1141.93L1142.2 482.941Z" fill="#C8C9C9"/>
<path fill-rule="evenodd" clip-rule="evenodd" d="M1141.52 486.081H1147.94L1147.67 487.174H1141.11L1141.52 486.081Z" fill="#C8C9C9"/>
<path fill-rule="evenodd" clip-rule="evenodd" d="M1140.7 489.221H1143.57L1143.3 490.314H1140.29L1140.7 489.221Z" fill="#C8C9C9"/>
<path fill-rule="evenodd" clip-rule="evenodd" d="M1139.88 492.362H1161.05L1160.64 493.454H1139.61L1139.88 492.362Z" fill="#C8C9C9"/>
<path fill-rule="evenodd" clip-rule="evenodd" d="M1139.06 495.502H1154.09L1153.81 496.594H1138.79L1139.06 495.502Z" fill="#C8C9C9"/>
<path fill-rule="evenodd" clip-rule="evenodd" d="M1138.24 498.642H1145.07L1144.8 499.734H1137.97L1138.24 498.642Z" fill="#C8C9C9"/>
<path fill-rule="evenodd" clip-rule="evenodd" d="M969.461 367.847C967.413 370.168 969.325 378.906 970.69 380.545C972.056 382.046 973.831 380.681 974.514 378.906C975.197 377.131 974.241 376.722 974.104 374.401C974.104 372.08 975.197 373.172 975.197 371.397C975.197 368.12 971.51 365.526 969.461 367.847Z" fill="#F5C9B2"/>
<path fill-rule="evenodd" clip-rule="evenodd" d="M975.879 402.935C974.377 403.345 972.602 403.345 970.144 401.843C964.682 398.566 960.175 393.242 960.175 393.242L961.131 412.083C962.906 412.629 964.682 413.038 966.593 413.585L967.14 404.71C966.867 404.71 972.056 407.031 975.879 402.935Z" fill="#F5C9B2"/>
<path d="M1126.91 526.221H1118.44V529.634H1126.91V526.221Z" fill="#3E3938"/>
<path d="M1126.91 526.221H1124.59V529.634H1126.91V526.221Z" fill="#231915"/>
<path d="M1139.75 526.221H1131.28V529.634H1139.75V526.221Z" fill="#3E3938"/>
<path d="M1139.75 526.221H1137.43V529.634H1139.75V526.221Z" fill="#231915"/>
<path d="M1152.45 526.221H1143.98V529.634H1152.45V526.221Z" fill="#3E3938"/>
<path d="M1152.45 526.221H1150.13V529.634H1152.45V526.221Z" fill="#231915"/>
<path fill-rule="evenodd" clip-rule="evenodd" d="M1115.17 175.479C1128 175.479 1139.2 182.442 1145.21 192.818C1147.94 190.224 1151.63 188.722 1155.72 188.722C1163.92 188.722 1170.61 195.275 1171.02 203.467C1171.29 203.467 1171.56 203.467 1171.84 203.467C1183.85 203.467 1193.55 213.16 1193.55 225.175C1193.55 226.813 1193.28 228.452 1193 229.954C1202.84 230.227 1210.76 238.418 1210.76 248.385C1210.76 258.488 1202.43 266.816 1192.32 266.816H1054.95C1044.84 266.816 1036.51 258.488 1036.51 248.385C1036.51 238.282 1044.84 229.954 1054.95 229.954H1055.49C1054.81 228.042 1054.54 225.858 1054.54 223.673C1054.54 211.659 1064.23 201.965 1076.25 201.965C1078.02 201.965 1079.8 202.238 1081.44 202.648C1084.85 187.084 1098.64 175.479 1115.17 175.479Z" fill="#FEFEFE"/>
<path fill-rule="evenodd" clip-rule="evenodd" d="M1072.42 275.691H1079.94V305.454H1083.62L1079.94 311.871L1076.25 318.151L1072.56 311.871L1068.87 305.454H1072.42V275.691Z" fill="white"/>
<path fill-rule="evenodd" clip-rule="evenodd" d="M1115.17 281.561H1122.95V312.144H1126.64L1122.81 318.697L1118.99 325.251L1115.3 318.697L1111.48 312.144H1115.17V281.561Z" fill="white"/>
<path fill-rule="evenodd" clip-rule="evenodd" d="M1138.79 297.535H1144.39V319.926H1147.12L1144.25 324.841L1141.52 329.619L1138.79 324.841L1135.92 319.926H1138.79V297.535Z" fill="white"/>
<path fill-rule="evenodd" clip-rule="evenodd" d="M1101.24 271.185V289.48H1105.61L1101.1 297.262L1096.6 305.044L1092.09 297.262L1087.58 289.48H1092.09V271.185H1101.24Z" fill="white"/>
<path fill-rule="evenodd" clip-rule="evenodd" d="M1158.59 271.185V283.882H1162.42L1158.46 290.845L1154.5 297.672L1150.53 290.845L1146.57 283.882H1150.4V271.185H1158.59Z" fill="white"/>
<path fill-rule="evenodd" clip-rule="evenodd" d="M1168.42 271.185H1175.93V301.085H1179.49L1175.8 307.502L1172.11 313.782L1168.42 307.502L1164.87 301.085H1168.42V271.185Z" fill="white"/>
<path fill-rule="evenodd" clip-rule="evenodd" d="M1122.27 460.55C1075.98 440.754 1070.1 418.909 1069.69 345.73C1092.09 344.638 1111.21 339.313 1122.27 331.667C1133.19 339.313 1152.45 344.638 1174.84 345.73C1174.57 418.909 1168.7 440.754 1122.27 460.55Z" fill="#F6AC3B"/>
<path fill-rule="evenodd" clip-rule="evenodd" d="M1122.27 331.667C1133.19 339.313 1152.45 344.638 1174.84 345.73C1174.43 418.909 1168.56 440.617 1122.27 460.55V331.667Z" fill="#F6BE67"/>
<path fill-rule="evenodd" clip-rule="evenodd" d="M1123.09 352.966C1132.78 352.966 1140.7 360.885 1140.7 370.578V385.596H1136.47V370.578C1136.47 363.205 1130.46 357.198 1123.09 357.198C1115.71 357.198 1109.7 363.205 1109.7 370.578V385.596H1105.47V370.578C1105.47 360.885 1113.39 352.966 1123.09 352.966Z" fill="#FEFEFE"/>
<path fill-rule="evenodd" clip-rule="evenodd" d="M1103.7 382.046H1142.61C1144.53 382.046 1146.17 383.685 1146.17 385.596V414.813C1146.17 416.725 1144.53 418.363 1142.61 418.363H1103.83C1101.92 418.363 1100.28 416.725 1100.28 414.813V385.596C1100.15 383.685 1101.78 382.046 1103.7 382.046Z" fill="#445465"/>
<path fill-rule="evenodd" clip-rule="evenodd" d="M1123.09 390.102C1126.5 390.102 1129.37 392.832 1129.37 396.245C1129.37 398.976 1127.73 401.16 1125.27 401.98V408.123C1125.27 409.352 1124.32 410.308 1123.09 410.308C1121.99 410.308 1120.9 409.352 1120.9 408.123V401.98C1118.58 401.16 1116.81 398.839 1116.81 396.245C1116.94 392.969 1119.67 390.102 1123.09 390.102Z" fill="#131313"/>
<path fill-rule="evenodd" clip-rule="evenodd" d="M876.466 349.553C876.466 351.464 875.237 352.966 873.462 353.375V375.22H797.81V360.202H776.507C776.097 361.977 774.459 363.206 772.683 363.206C770.498 363.206 768.723 361.431 768.723 359.246C768.723 357.062 770.498 355.287 772.683 355.287C774.595 355.287 776.097 356.516 776.507 358.29H799.721V373.309H871.414V353.375C869.638 352.966 868.409 351.328 868.409 349.553C868.409 347.368 870.185 345.593 872.369 345.593C874.691 345.457 876.466 347.232 876.466 349.553ZM772.683 357.198C771.591 357.198 770.635 358.154 770.635 359.246C770.635 360.338 771.591 361.294 772.683 361.294C773.776 361.294 774.732 360.338 774.732 359.246C774.595 358.154 773.776 357.198 772.683 357.198ZM872.506 351.464C873.598 351.464 874.554 350.508 874.554 349.416C874.554 348.324 873.598 347.368 872.506 347.368C871.414 347.368 870.458 348.324 870.458 349.416C870.458 350.508 871.414 351.464 872.506 351.464Z" fill="white"/>
<path fill-rule="evenodd" clip-rule="evenodd" d="M1347.18 449.628C1347.18 451.54 1345.95 453.041 1344.17 453.451V475.296H1268.52V460.277H1247.22C1246.81 462.052 1245.17 463.281 1243.39 463.281C1241.21 463.281 1239.43 461.506 1239.43 459.322C1239.43 457.137 1241.21 455.362 1243.39 455.362C1245.31 455.362 1246.81 456.591 1247.22 458.366H1270.43V473.384H1342.12V453.451C1340.35 453.041 1339.12 451.403 1339.12 449.628C1339.12 447.444 1340.89 445.669 1343.08 445.669C1345.4 445.669 1347.18 447.444 1347.18 449.628ZM1243.39 457.41C1242.3 457.41 1241.34 458.366 1241.34 459.458C1241.34 460.551 1242.3 461.506 1243.39 461.506C1244.49 461.506 1245.44 460.551 1245.44 459.458C1245.31 458.366 1244.49 457.41 1243.39 457.41ZM1343.22 451.676C1344.31 451.676 1345.26 450.72 1345.26 449.628C1345.26 448.536 1344.31 447.58 1343.22 447.58C1342.12 447.58 1341.17 448.536 1341.17 449.628C1341.17 450.72 1341.99 451.676 1343.22 451.676Z" fill="white"/>
<path fill-rule="evenodd" clip-rule="evenodd" d="M1224.82 387.781C1224.82 386.142 1225.91 384.914 1227.42 384.504V342.59H1280.4V322.793C1278.9 322.383 1277.81 321.018 1277.81 319.516C1277.81 317.605 1279.31 316.103 1281.22 316.103C1283.13 316.103 1284.63 317.605 1284.63 319.516C1284.63 321.155 1283.54 322.383 1282.04 322.793V344.228H1229.05V384.367C1230.56 384.777 1231.65 386.142 1231.65 387.644C1231.65 389.556 1230.15 391.057 1228.24 391.057C1226.32 391.194 1224.82 389.692 1224.82 387.781ZM1282.86 319.516C1282.86 318.561 1282.04 317.878 1281.22 317.878C1280.26 317.878 1279.58 318.697 1279.58 319.516C1279.58 320.472 1280.4 321.155 1281.22 321.155C1282.04 321.291 1282.86 320.472 1282.86 319.516ZM1228.24 386.142C1227.28 386.142 1226.6 386.962 1226.6 387.781C1226.6 388.6 1227.42 389.419 1228.24 389.419C1229.19 389.419 1229.87 388.6 1229.87 387.781C1229.87 386.962 1229.19 386.142 1228.24 386.142Z" fill="white"/>
<path fill-rule="evenodd" clip-rule="evenodd" d="M889.576 295.624C889.576 294.259 890.532 293.03 891.897 292.62V261.628H946.929V255.894C945.564 255.621 944.608 254.392 944.608 252.89C944.608 251.252 945.973 249.887 947.612 249.887C949.251 249.887 950.616 251.252 950.616 252.89C950.616 254.256 949.66 255.484 948.295 255.894V263.13H893.263V292.62C894.628 292.893 895.584 294.122 895.584 295.624C895.584 297.262 894.219 298.627 892.58 298.627C890.941 298.627 889.576 297.262 889.576 295.624ZM949.114 252.89C949.114 252.071 948.431 251.389 947.612 251.389C946.793 251.389 946.11 252.071 946.11 252.89C946.11 253.709 946.793 254.392 947.612 254.392C948.431 254.529 949.114 253.846 949.114 252.89ZM892.58 294.122C891.761 294.122 891.078 294.805 891.078 295.624C891.078 296.443 891.761 297.126 892.58 297.126C893.399 297.126 894.082 296.443 894.082 295.624C894.082 294.805 893.399 294.122 892.58 294.122Z" fill="white"/>
<path fill-rule="evenodd" clip-rule="evenodd" d="M1208.98 189.814C1208.98 188.449 1209.94 187.22 1211.3 186.81V155.818H1266.34V150.084C1264.97 149.811 1264.01 148.582 1264.01 147.081C1264.01 145.442 1265.38 144.077 1267.02 144.077C1268.66 144.077 1270.02 145.442 1270.02 147.081C1270.02 148.446 1269.07 149.675 1267.7 150.084V157.32H1212.67V186.81C1214.03 187.083 1214.99 188.312 1214.99 189.814C1214.99 191.452 1213.62 192.818 1211.99 192.818C1210.35 192.818 1208.98 191.452 1208.98 189.814ZM1268.66 147.081C1268.66 146.261 1267.97 145.579 1267.15 145.579C1266.34 145.579 1265.65 146.261 1265.65 147.081C1265.65 147.9 1266.34 148.582 1267.15 148.582C1267.97 148.582 1268.66 147.9 1268.66 147.081ZM1212.12 188.312C1211.3 188.312 1210.62 188.995 1210.62 189.814C1210.62 190.633 1211.3 191.316 1212.12 191.316C1212.94 191.316 1213.62 190.633 1213.62 189.814C1213.62 188.995 1212.94 188.312 1212.12 188.312Z" fill="white"/>
<path fill-rule="evenodd" clip-rule="evenodd" d="M974.514 188.585C972.602 188.585 971.1 187.357 970.69 185.582H950.344V154.863H904.597C904.188 156.638 902.549 157.866 900.774 157.866C898.589 157.866 896.813 156.091 896.813 153.907C896.813 151.723 898.589 149.948 900.774 149.948C902.685 149.948 904.188 151.176 904.597 152.951H952.392V183.534H970.554C970.964 181.759 972.602 180.53 974.378 180.53C976.562 180.53 978.338 182.305 978.338 184.489C978.474 186.81 976.699 188.585 974.514 188.585ZM900.5 151.859C899.408 151.859 898.452 152.815 898.452 153.907C898.452 154.999 899.408 155.955 900.5 155.955C901.593 155.955 902.549 154.999 902.549 153.907C902.549 152.678 901.593 151.859 900.5 151.859ZM972.466 184.626C972.466 185.718 973.422 186.674 974.514 186.674C975.606 186.674 976.562 185.718 976.562 184.626C976.562 183.534 975.606 182.578 974.514 182.578C973.285 182.578 972.466 183.534 972.466 184.626Z" fill="white"/>
<path fill-rule="evenodd" clip-rule="evenodd" d="M891.488 282.79H898.862L889.03 304.771H881.519L891.488 282.79Z" fill="#FEFEFE"/>
<path fill-rule="evenodd" clip-rule="evenodd" d="M905.007 282.79H912.381L902.412 304.771H895.038L905.007 282.79Z" fill="#FEFEFE"/>
<path fill-rule="evenodd" clip-rule="evenodd" d="M918.526 282.79H925.9L915.931 304.771H908.557L918.526 282.79Z" fill="#FEFEFE"/>
<path fill-rule="evenodd" clip-rule="evenodd" d="M931.909 282.79H939.283L929.314 304.771H921.94L931.909 282.79Z" fill="#FEFEFE"/>
<path fill-rule="evenodd" clip-rule="evenodd" d="M945.428 282.79H952.802L942.833 304.771H935.459L945.428 282.79Z" fill="#FEFEFE"/>
<path fill-rule="evenodd" clip-rule="evenodd" d="M958.81 282.79H966.321L956.352 304.771H948.978L958.81 282.79Z" fill="#FEFEFE"/>
<path fill-rule="evenodd" clip-rule="evenodd" d="M972.329 282.79H979.703L969.734 304.771H962.36L972.329 282.79Z" fill="#FEFEFE"/>
<path fill-rule="evenodd" clip-rule="evenodd" d="M985.848 282.79H993.222L983.253 304.771H975.879L985.848 282.79Z" fill="#FEFEFE"/>
<path fill-rule="evenodd" clip-rule="evenodd" d="M1244.49 491.679H1251.86L1241.89 513.66H1234.52L1244.49 491.679Z" fill="#FEFEFE"/>
<path fill-rule="evenodd" clip-rule="evenodd" d="M1258 491.679H1265.38L1255.41 513.66H1248.04L1258 491.679Z" fill="#FEFEFE"/>
<path fill-rule="evenodd" clip-rule="evenodd" d="M1271.39 491.679H1278.76L1268.79 513.66H1261.42L1271.39 491.679Z" fill="#FEFEFE"/>
<path fill-rule="evenodd" clip-rule="evenodd" d="M1284.91 491.679H1292.28L1282.31 513.66H1274.94L1284.91 491.679Z" fill="#FEFEFE"/>
<path fill-rule="evenodd" clip-rule="evenodd" d="M1298.29 491.679H1305.8L1295.83 513.66H1288.46L1298.29 491.679Z" fill="#FEFEFE"/>
<path fill-rule="evenodd" clip-rule="evenodd" d="M1311.81 491.679H1319.18L1309.21 513.66H1301.84L1311.81 491.679Z" fill="#FEFEFE"/>
<path fill-rule="evenodd" clip-rule="evenodd" d="M1325.33 491.679H1332.7L1322.73 513.66H1315.36L1325.33 491.679Z" fill="#FEFEFE"/>
<path fill-rule="evenodd" clip-rule="evenodd" d="M1338.71 491.679H1346.08L1336.25 513.66H1328.74L1338.71 491.679Z" fill="#FEFEFE"/>
<path fill-rule="evenodd" clip-rule="evenodd" d="M1044.84 148.173L990.764 148.582C989.398 148.582 988.306 147.49 988.306 146.125C988.306 144.76 989.398 143.667 990.764 143.667L1044.84 143.258C1046.21 143.258 1047.3 144.35 1047.3 145.715C1047.3 147.081 1046.21 148.173 1044.84 148.173Z" fill="#FEFEFE"/>
<path fill-rule="evenodd" clip-rule="evenodd" d="M1054.67 156.911L1022.99 157.184C1021.63 157.184 1020.53 156.091 1020.53 154.726C1020.53 153.361 1021.63 152.269 1022.99 152.269L1054.67 151.996C1056.04 151.996 1057.13 153.088 1057.13 154.453C1056.99 155.818 1055.9 156.911 1054.67 156.911Z" fill="#FEFEFE"/>
<path fill-rule="evenodd" clip-rule="evenodd" d="M1053.72 138.343L1004.15 138.752C1002.78 138.752 1001.69 137.66 1001.69 136.295C1001.69 134.93 1002.78 133.837 1004.15 133.837L1053.72 133.428C1055.08 133.428 1056.17 134.52 1056.17 135.885C1056.17 137.251 1055.08 138.343 1053.72 138.343Z" fill="#FEFEFE"/>
</g>
<defs>
<clipPath id="clip0">
<rect width="1366" height="662" fill="white"/>
</clipPath>
</defs>
</svg>
