<svg width="800" height="600" viewBox="0 0 800 600" fill="none" xmlns="http://www.w3.org/2000/svg">
<g clip-path="url(#clip0)">
<path d="M856.201 535.169H357.936V535.469H856.201V535.169Z" fill="#EBEBEB"/>
<path d="M792.124 551.256H773.289V551.555H792.124V551.256Z" fill="#EBEBEB"/>
<path d="M679.417 549.557H650.02V549.856H679.417V549.557Z" fill="#EBEBEB"/>
<path d="M772.292 541.964H725.355V542.263H772.292V541.964Z" fill="#EBEBEB"/>
<path d="M421.214 543.662H410.252V543.962H421.214V543.662Z" fill="#EBEBEB"/>
<path d="M468.45 543.662H429.984V543.962H468.45V543.662Z" fill="#EBEBEB"/>
<path d="M582.254 547.858H528.342V548.158H582.254V547.858Z" fill="#EBEBEB"/>
<path d="M594.112 490.608H401.682C398.593 490.608 396.002 488.01 396.002 484.913V213.748C396.002 210.65 398.593 208.053 401.682 208.053H594.112C597.201 208.053 599.792 210.65 599.792 213.748V484.913C599.792 488.01 597.301 490.608 594.112 490.608ZM401.682 208.252C398.693 208.252 396.201 210.65 396.201 213.748V484.913C396.201 487.91 398.593 490.408 401.682 490.408H594.112C597.102 490.408 599.593 488.01 599.593 484.913V213.748C599.593 210.75 597.201 208.252 594.112 208.252H401.682Z" fill="#EBEBEB"/>
<path d="M809.663 490.608H617.233C614.144 490.608 611.553 488.01 611.553 484.913V213.748C611.553 210.65 614.144 208.053 617.233 208.053H809.663C812.752 208.053 815.343 210.65 815.343 213.748V484.913C815.343 488.01 812.852 490.608 809.663 490.608ZM617.233 208.252C614.243 208.252 611.752 210.65 611.752 213.748V484.913C611.752 487.91 614.144 490.408 617.233 490.408H809.663C812.653 490.408 815.144 488.01 815.144 484.913V213.748C815.144 210.75 812.752 208.252 809.663 208.252H617.233Z" fill="#EBEBEB"/>
<path d="M420.493 419.555H494.834V233.317H420.493V419.555Z" fill="#5CDBF5"/>
<path d="M409.721 419.555H492.932V233.317H409.721V419.555Z" fill="#79A2FD"/>
<path d="M484.369 410.887L484.369 241.833H418.299V410.887H484.369Z" fill="#5CDBF5"/>
<path d="M511.772 419.555H586.113V233.317H511.772V419.555Z" fill="#5CDBF5"/>
<path d="M501.001 419.555H584.211V233.317H501.001V419.555Z" fill="#79A2FD"/>
<path d="M575.602 410.939V241.885H509.532V410.939H575.602Z" fill="#5CDBF5"/>
<path d="M636.962 461.933H576.074V535.169H636.962V461.933Z" fill="#E0E0E0"/>
<path d="M637.062 461.933H576.074L562.422 447.945H623.31L637.062 461.933Z" fill="#E0E0E0"/>
<path d="M540.501 447.945H479.513L468.053 461.933H528.941L540.501 447.945Z" fill="#4DCCE6"/>
<path d="M467.976 535.209H576.1V461.973H467.976V535.209Z" fill="#5CDBF5"/>
<path d="M568.231 515.626H576.104V481.556H568.231V515.626Z" fill="#F0F0F0"/>
<path d="M504.762 474.504V504.178H534.359V474.504H504.762Z" fill="#F0F0F0"/>
<path d="M468.131 474.546V504.22H497.728V474.546H468.131Z" fill="#F0F0F0"/>
<path d="M504.773 506.065V508.463H534.37V506.065H504.773Z" fill="#F0F0F0"/>
<path d="M468.145 506.107V508.505H497.741V506.107H468.145Z" fill="#F0F0F0"/>
<path d="M504.787 513.146V515.544H534.384V513.146H504.787Z" fill="#F0F0F0"/>
<path d="M468.156 513.188V515.585H497.753V513.188H468.156Z" fill="#F0F0F0"/>
<path d="M504.801 520.226V522.624H534.398V520.226H504.801Z" fill="#F0F0F0"/>
<path d="M468.17 520.268V522.666H497.767V520.268H468.17Z" fill="#F0F0F0"/>
<path d="M593.613 481.516H576.074V515.586H593.613V481.516Z" fill="#E6E6E6"/>
<path d="M660.091 535.136H689.389V370.578H660.091V535.136Z" fill="#67AEC1"/>
<path d="M667.957 535.17H660.084V506.694H676.128L667.957 535.17Z" fill="#F5F5F5"/>
<path d="M743.985 535.136H773.283V370.578H743.985V535.136Z" fill="#4DCCE5"/>
<path d="M660.165 525.344H750.85V370.578H660.165V525.344Z" fill="#67AEC1"/>
<path d="M742.996 535.17H750.868V506.694H734.824L742.996 535.17Z" fill="#67AEC1"/>
<path d="M666.143 518.963H744.77V451.321H666.143V518.963Z" fill="#55CAF0"/>
<path d="M691.187 518.963H744.801V451.321H691.187V518.963Z" fill="#55CAF0"/>
<path d="M666.143 445.393H744.77V377.751H666.143V445.393Z" fill="#F0F0F0"/>
<path d="M691.187 445.393H744.801V377.751H691.187V445.393Z" fill="#55CAF0"/>
<path d="M717.981 429.461C717.981 438.153 710.607 445.347 701.538 445.347H693.367C684.298 445.347 676.924 438.253 676.924 429.461H717.981Z" fill="#64AEC2"/>
<path d="M717.981 418.371C717.981 427.063 710.607 434.257 701.538 434.257H693.367C684.298 434.257 676.924 427.163 676.924 418.371H717.981Z" fill="#4FA7BE"/>
<path d="M709.711 473.123H733.926C733.926 473.123 729.741 483.314 729.741 489.309C729.741 495.304 748.177 518.884 721.868 518.884C695.56 518.884 713.996 495.304 713.996 489.309C713.896 483.414 709.711 473.123 709.711 473.123Z" fill="#4FA7BE"/>
<path d="M717.981 407.28C717.981 415.973 710.607 423.166 701.538 423.166H693.367C684.298 423.166 676.924 416.073 676.924 407.28H717.981Z" fill="#67AEC1"/>
<path d="M710.707 358.622C709.81 332.545 708.814 284.886 710.807 271.797L714.095 269.3C714.095 269.3 713.398 293.179 712.999 333.044C712.601 372.91 712.202 352.727 712.601 358.622H710.707Z" fill="#396DAB"/>
<path d="M703.233 289.482C695.659 283.987 679.615 280.09 663.073 280.09C656.595 280.09 682.505 286.485 692.968 293.579C701.14 299.074 710.109 308.266 712.999 313.361C711.504 302.571 710.806 294.977 703.233 289.482Z" fill="#74C1C7"/>
<path d="M718.48 303.77C725.455 298.075 741.001 293.678 757.544 293.179C764.021 292.979 738.909 300.173 729.242 307.566C721.669 313.261 713.796 322.753 711.404 327.949C711.604 317.158 711.504 309.465 718.48 303.77Z" fill="#4F8CB5"/>
<path d="M712.004 370.612C705.626 370.612 700.344 365.616 699.946 359.222L698.85 350.429H725.058L723.962 359.222C723.663 365.616 718.382 370.612 712.004 370.612Z" fill="#6F7B88"/>
<path d="M726.752 354.626H697.155L696.357 346.932H727.648L726.752 354.626Z" fill="#6F7B88"/>
<path d="M607.069 580.23C713.786 580.23 800.296 575.176 800.296 568.94C800.296 562.705 713.786 557.65 607.069 557.65C500.353 557.65 413.842 562.705 413.842 568.94C413.842 575.176 500.353 580.23 607.069 580.23Z" fill="#5CDBF5"/>
<path d="M711.007 550.656L703.832 552.155L698.949 535.769L706.124 534.27L711.007 550.656Z" fill="#F5C9B2"/>
<path d="M703.433 551.355L711.305 549.657C711.604 549.557 711.903 549.757 712.003 550.057L714.793 556.151C715.092 556.751 714.693 557.55 713.996 557.65C711.205 558.15 707.02 558.849 703.532 559.648C699.347 560.547 698.848 561.447 693.866 562.046C690.876 562.446 689.68 559.548 690.876 559.049C696.357 557.05 697.653 556.251 701.838 552.255C702.237 551.855 702.735 551.555 703.433 551.355Z" fill="#0F264C"/>
<path opacity="0.2" d="M698.949 535.769L701.54 544.262L708.616 542.763L706.124 534.27L698.949 535.769Z" fill="black"/>
<path d="M659.088 316.758C657.593 321.654 655.998 326.35 654.304 331.146C652.511 335.842 650.717 340.638 648.425 345.334L647.528 347.132L646.531 348.931C646.233 349.53 645.834 350.13 645.535 350.729C645.236 351.329 644.837 351.928 644.439 352.428C642.944 354.726 641.25 356.824 639.456 358.822C637.662 360.82 635.769 362.719 633.776 364.417C632.779 365.316 631.683 366.116 630.587 366.815C629.491 367.614 628.494 368.314 627.199 369.013L623.711 364.317C624.409 363.518 625.206 362.619 626.003 361.72C626.8 360.82 627.498 359.821 628.195 358.922C629.59 357.024 630.986 355.125 632.181 353.127C633.377 351.129 634.573 349.23 635.57 347.132C636.068 346.133 636.566 345.134 636.965 344.035L637.662 342.436L638.26 340.838C639.954 336.441 641.549 331.745 643.044 327.05L647.727 313.062L659.088 316.758Z" fill="#F5C9B2"/>
<path d="M664.369 308.865C666.86 315.559 653.507 339.539 653.507 339.539L638.459 327.849C638.459 327.849 642.644 317.358 647.826 309.665C653.008 301.771 661.578 301.472 664.369 308.865Z" fill="#F6AC3B"/>
<path opacity="0.2" d="M661.379 315.559C656.595 317.558 650.118 325.251 648.125 335.442L653.407 339.539C653.407 339.539 661.379 325.351 663.87 315.759C663.173 315.26 662.375 315.06 661.379 315.559Z" fill="black"/>
<path d="M655.399 303.77C655.399 303.77 646.529 320.555 655 362.819C667.058 362.819 689.181 362.819 695.061 362.819C695.36 356.624 691.473 332.445 697.452 303.47C697.452 303.47 690.576 302.071 683.999 301.771C678.917 301.572 671.443 301.372 666.958 301.771C661.079 302.171 655.399 303.77 655.399 303.77Z" fill="#F6AC3B"/>
<path d="M610.855 369.513L614.941 373.21L621.02 371.611L616.835 364.317L610.855 369.513Z" fill="#F5C9B2"/>
<path d="M625.703 364.717L616.834 364.317L620.92 371.611C620.92 371.611 627.497 372.31 628.095 367.415L625.703 364.717Z" fill="#F0B89A"/>
<path d="M682.309 282.388C681.212 287.883 680.116 297.975 684.003 301.572C684.003 301.572 682.309 305.268 672.144 305.268C662.876 305.268 667.062 301.572 667.062 301.572C673.141 300.073 673.041 295.577 671.945 291.281L682.309 282.388Z" fill="#F5C9B2"/>
<path opacity="0.2" d="M678.02 286.085L671.842 291.38C672.141 292.38 672.34 293.379 672.34 294.378C673.835 296.676 677.921 293.279 678.618 289.682C678.917 288.483 678.22 286.684 678.02 286.085Z" fill="black"/>
<path d="M657.692 270.299C655.599 273.696 660.183 283.287 665.365 282.388C670.547 281.589 661.579 263.804 657.692 270.299Z" fill="#445465"/>
<path d="M679.814 273.796C680.911 281.189 681.907 285.386 679.017 289.982C674.732 296.776 665.066 295.377 661.777 288.483C658.887 282.288 657.592 271.298 664.069 266.902C670.447 262.405 678.718 266.402 679.814 273.796Z" fill="#F5C9B2"/>
<path d="M680.413 264.104L674.035 268.7C677.822 273.296 673.537 283.287 679.516 280.989C682.406 279.89 689.481 269.1 680.413 264.104Z" fill="#445465"/>
<path d="M672.841 258.409C663.175 260.707 662.378 257.909 662.976 254.312C655.801 255.511 650.419 261.206 654.605 268.101C659.288 275.694 673.439 269.499 675.93 269.499L679.518 268.6C687.69 266.202 684.899 255.511 672.841 258.409Z" fill="#445465"/>
<path d="M681.41 277.592C681.41 277.592 681.41 277.692 681.41 277.592C679.516 277.592 673.936 277.592 673.836 277.592C673.736 277.592 673.637 277.492 673.637 277.392C673.637 277.292 673.736 277.193 673.836 277.193C673.936 277.193 679.516 277.193 681.41 277.193C681.509 277.193 681.609 277.292 681.609 277.392C681.509 277.592 681.509 277.592 681.41 277.592Z" fill="#263238"/>
<path d="M684.797 281.089C684.1 282.988 682.605 284.386 681.11 285.086C678.818 286.085 677.323 284.187 677.622 281.889C677.921 279.79 679.416 276.693 681.807 276.693C684.299 276.593 685.594 278.991 684.797 281.089Z" fill="#F5C9B2"/>
<path d="M670.648 559.848H663.274L663.074 542.863H670.349L670.648 559.848Z" fill="#F5C9B2"/>
<path d="M662.973 559.049H670.945C671.244 559.049 671.543 559.249 671.543 559.548L673.038 566.043C673.237 566.742 672.639 567.342 671.942 567.342C669.052 567.342 664.866 567.142 661.279 567.142C656.994 567.142 653.406 567.342 648.424 567.342C645.434 567.342 644.537 564.344 645.833 564.044C651.513 562.746 656.196 562.646 661.179 559.548C661.777 559.249 662.375 559.049 662.973 559.049Z" fill="#0F264C"/>
<path opacity="0.2" d="M663.074 542.863L663.174 551.655H670.548L670.349 542.863H663.074Z" fill="black"/>
<path d="M659.985 560.146C659.387 560.246 658.889 560.246 658.49 559.947C658.191 559.747 657.992 559.447 657.992 559.048C657.992 558.749 658.092 558.549 658.191 558.549C658.889 558.05 661.58 559.048 661.879 559.248C661.978 559.248 661.978 559.348 661.978 559.447C661.978 559.547 661.978 559.547 661.879 559.647C661.38 559.747 660.683 560.046 659.985 560.146ZM658.69 558.749C658.59 558.749 658.49 558.749 658.49 558.848C658.49 558.848 658.391 558.948 658.391 559.048C658.391 559.348 658.49 559.547 658.69 559.647C659.188 559.947 660.085 559.847 661.38 559.348C660.384 559.048 659.188 558.749 658.69 558.749Z" fill="#407BFF"/>
<path d="M661.878 559.548C661.779 559.648 661.779 559.648 661.878 559.548C660.981 559.249 659.188 557.85 659.287 557.051C659.287 556.851 659.387 556.651 659.785 556.551C660.084 556.451 660.284 556.551 660.583 556.651C661.579 557.25 662.078 559.349 662.078 559.448C661.978 559.448 661.978 559.548 661.878 559.548ZM659.885 556.851C659.885 556.851 659.785 556.851 659.885 556.851C659.586 556.951 659.586 557.051 659.586 557.051C659.586 557.55 660.682 558.649 661.579 559.049C661.38 558.449 660.981 557.25 660.383 556.851C660.184 556.851 659.985 556.851 659.885 556.851Z" fill="#407BFF"/>
<path d="M655.003 362.719C655.003 362.719 649.622 431.559 648.625 454.439C647.529 478.219 660.783 549.457 660.783 549.457H672.741C672.741 549.457 668.855 483.414 670.848 460.034C673.04 434.656 681.311 362.619 681.311 362.619H655.003V362.719Z" fill="#6F7B88"/>
<path opacity="0.2" d="M667.059 416.872C668.055 428.362 671.045 439.352 672.44 444.248C674.234 426.164 676.924 401.885 678.917 384.5C674.333 387.597 665.165 396.29 667.059 416.872Z" fill="black"/>
<path d="M668.854 362.719C668.854 362.719 671.943 431.359 676.626 452.841C681.709 476.42 696.956 543.063 696.956 543.063L710.409 540.265C710.409 540.265 701.34 477.12 698.45 453.74C695.262 428.462 694.763 362.719 694.763 362.719H668.854Z" fill="#6F7B88"/>
<path d="M711.306 540.365L696.857 543.362L694.465 538.167L710.31 534.37L711.306 540.365Z" fill="#0F264C"/>
<path d="M675.032 549.857H660.284L658.988 544.262L675.232 544.561L675.032 549.857Z" fill="#0F264C"/>
<path d="M669.749 278.092C669.848 278.691 669.649 279.191 669.25 279.291C668.852 279.391 668.453 278.991 668.354 278.392C668.254 277.792 668.453 277.293 668.852 277.193C669.151 277.093 669.549 277.492 669.749 278.092Z" fill="#263238"/>
<path d="M662.973 279.491C663.073 280.09 662.874 280.59 662.475 280.69C662.076 280.79 661.678 280.39 661.578 279.79C661.478 279.191 661.678 278.691 662.076 278.591C662.475 278.492 662.874 278.891 662.973 279.491Z" fill="#263238"/>
<path d="M664.766 279.391C664.766 279.391 664.168 283.088 662.973 285.086C664.268 285.885 665.862 284.986 665.862 284.986L664.766 279.391Z" fill="#F0B89A"/>
<path d="M667.358 287.384C667.258 287.384 667.158 287.384 667.158 287.284C667.158 287.184 667.158 287.084 667.258 287.084C669.849 286.684 670.746 284.586 670.746 284.586C670.746 284.486 670.845 284.486 670.945 284.486C671.045 284.486 671.045 284.586 671.045 284.686C671.144 284.686 670.148 286.884 667.358 287.384Z" fill="#263238"/>
<path d="M672.839 272.795C672.74 272.795 672.64 272.795 672.54 272.695C671.245 271.797 670.049 272.196 670.049 272.196C669.85 272.296 669.65 272.196 669.551 271.997C669.451 271.797 669.551 271.597 669.75 271.497C669.85 271.497 671.345 270.899 672.939 272.096C673.138 272.196 673.138 272.396 673.039 272.596C672.939 272.795 672.939 272.795 672.839 272.795Z" fill="#263238"/>
<path d="M658.987 274.995C658.888 274.995 658.888 274.995 658.788 274.895C658.589 274.795 658.589 274.595 658.689 274.395C659.785 272.697 661.379 272.697 661.479 272.697C661.678 272.697 661.877 272.896 661.877 273.096C661.877 273.296 661.678 273.496 661.479 273.496C661.379 273.496 660.183 273.496 659.286 274.895C659.286 274.995 659.087 275.094 658.987 274.995Z" fill="#263238"/>
<path d="M691.476 301.971L689.582 301.771C689.383 301.771 689.184 301.871 689.184 302.071C683.902 330.447 686.892 360.521 686.892 360.521H688.984C687.29 329.348 691.276 305.668 691.874 302.371C691.874 302.171 691.675 301.971 691.476 301.971Z" fill="#6F7B88"/>
<path d="M689.281 360.521C689.281 360.121 688.982 359.821 688.583 359.821H687.188C686.789 359.821 686.49 360.121 686.49 360.521C686.49 360.82 686.69 361.12 686.989 361.12V362.918C686.989 363.418 687.387 363.818 687.885 363.818C688.384 363.818 688.782 363.418 688.782 362.918V361.12C689.081 361.12 689.281 360.92 689.281 360.521Z" fill="white"/>
<path d="M659.784 302.371L657.891 302.771C657.691 302.771 657.592 302.97 657.592 303.07C653.606 331.446 657.99 360.62 657.99 360.62H660.083C656.994 329.747 659.685 306.467 660.183 302.87C660.183 302.571 659.983 302.371 659.784 302.371Z" fill="#6F7B88"/>
<path d="M660.382 360.521C660.382 360.121 660.083 359.821 659.684 359.821H658.189C657.791 359.821 657.492 360.121 657.592 360.521C657.592 360.82 657.791 361.12 658.09 361.12L658.189 362.918C658.189 363.418 658.588 363.818 659.086 363.818C659.585 363.818 659.983 363.418 659.884 362.918L659.784 361.12C660.183 361.12 660.382 360.92 660.382 360.521Z" fill="white"/>
<path d="M700.642 553.153C700.144 553.352 699.546 553.452 699.147 553.352C698.848 553.252 698.549 552.953 698.449 552.653C698.35 552.354 698.449 552.154 698.549 552.054C699.147 551.356 701.937 551.855 702.236 551.955C702.336 551.955 702.336 552.054 702.336 552.054C702.336 552.154 702.336 552.154 702.236 552.254C701.937 552.454 701.339 552.853 700.642 553.153ZM699.047 552.054C698.948 552.054 698.848 552.154 698.848 552.154C698.848 552.154 698.748 552.254 698.848 552.354C698.948 552.653 699.047 552.753 699.346 552.853C699.845 553.053 700.741 552.753 701.838 552.054C700.841 551.955 699.645 551.855 699.047 552.054Z" fill="#407BFF"/>
<path d="M702.337 552.155C701.341 552.055 699.348 551.056 699.248 550.157C699.248 549.957 699.248 549.757 699.647 549.557C699.846 549.457 700.145 549.457 700.444 549.457C701.54 549.857 702.437 551.755 702.536 551.855C702.536 551.955 702.437 552.055 702.337 552.155C702.437 552.155 702.437 552.155 702.337 552.155ZM699.846 549.857C699.547 549.957 699.547 550.057 699.547 550.157C699.647 550.656 700.942 551.455 701.939 551.755C701.64 551.156 700.942 550.057 700.245 549.857C700.145 549.857 700.045 549.857 699.846 549.857Z" fill="#407BFF"/>
<path d="M670.746 283.088C668.354 283.587 665.962 281.589 665.364 278.691C664.766 276.094 666.062 274.295 668.752 273.696C671.543 273.096 673.336 274.195 673.934 276.893C674.532 279.79 673.137 282.588 670.746 283.088ZM668.852 273.995C667.058 274.395 665.065 275.494 665.663 278.591C666.261 281.389 668.553 283.287 670.646 282.788C672.739 282.288 674.134 279.691 673.536 276.893C672.938 273.796 670.646 273.596 668.852 273.995Z" fill="#263238"/>
<path d="M661.08 285.086C659.087 285.485 656.994 283.487 656.396 280.49C655.699 276.993 657.791 275.994 659.187 275.694C660.482 275.394 662.874 275.494 663.671 278.991C664.169 281.988 663.073 284.686 661.08 285.086ZM659.187 275.994C657.692 276.293 655.998 277.293 656.695 280.49C657.293 283.287 659.187 285.186 661.08 284.786C662.874 284.386 663.87 281.789 663.272 279.091C662.575 275.994 660.681 275.694 659.187 275.994Z" fill="#263238"/>
<path d="M665.467 276.793C664.37 276.493 663.474 276.693 662.776 277.292C662.676 277.392 662.577 277.392 662.577 277.292C662.477 277.192 662.477 277.092 662.577 277.092C663.374 276.393 664.37 276.194 665.467 276.493C665.566 276.493 665.566 276.593 665.566 276.693C665.566 276.693 665.566 276.793 665.467 276.793Z" fill="#263238"/>
<path d="M672.74 305.368L674.135 304.269L677.324 307.267L672.74 305.368Z" fill="#263238"/>
<path d="M674.135 304.269C674.135 304.269 676.726 307.866 677.224 310.464C680.313 309.165 686.093 305.968 686.89 301.472C685.694 301.272 683.701 299.973 683.701 299.973C683.701 299.973 680.612 302.671 674.135 304.269Z" fill="#6F7B88"/>
<path d="M672.74 305.368L672.142 304.069L668.057 307.267L672.74 305.368Z" fill="#263238"/>
<path d="M672.141 304.069C672.141 304.069 669.55 306.367 669.152 309.864C666.062 308.566 664.867 304.369 665.664 301.671C667.358 300.872 669.351 300.473 669.351 300.473C669.351 300.473 668.952 303.17 672.141 304.069Z" fill="#6F7B88"/>
<path d="M667.26 367.115L672.442 372.61L677.624 370.112L673.239 361.919L667.26 367.115Z" fill="#F5C9B2"/>
<path d="M682.107 362.319L673.238 361.919L677.623 370.212C677.623 370.212 683.901 369.912 684.499 365.117L682.107 362.319Z" fill="#F0B89A"/>
<path d="M704.73 313.661C706.025 319.056 707.221 324.552 708.218 329.947C708.716 332.645 709.214 335.442 709.712 338.24C710.211 341.037 710.609 343.735 710.908 346.633C710.908 346.832 711.008 347.632 711.008 348.231C711.008 348.831 711.008 349.53 710.908 350.13C710.709 351.428 710.31 352.527 709.812 353.627C708.816 355.725 707.52 357.124 706.125 358.422C703.434 360.82 700.644 362.319 697.953 363.618C692.373 366.116 686.892 367.515 681.112 368.414L679.617 362.719C682.009 361.72 684.5 360.62 686.892 359.422C689.284 358.223 691.576 357.024 693.668 355.625C695.761 354.326 697.754 352.727 699.05 351.329C699.647 350.629 700.146 349.83 700.245 349.43C700.345 349.23 700.345 349.031 700.345 348.931C700.345 348.831 700.345 348.831 700.345 348.731C700.345 348.631 700.345 348.731 700.245 348.331C699.149 343.136 697.854 337.74 696.658 332.445C695.462 327.05 694.266 321.654 693.07 316.359L704.73 313.661Z" fill="#F5C9B2"/>
<path d="M697.455 303.37C707.42 305.168 711.805 330.147 711.805 330.147L695.761 339.938C695.761 339.938 690.679 325.151 690.978 315.959C691.177 307.067 689.881 301.971 697.455 303.37Z" fill="#F6AC3B"/>
<path d="M629.891 375.308H527.248V569.04H629.891V375.308Z" fill="#407BFF"/>
<path d="M648.924 372.91H536.715V375.308H648.924V372.91Z" fill="#407BFF"/>
<path opacity="0.3" d="M648.924 372.91H536.715V375.308H648.924V372.91Z" fill="black"/>
<path d="M629.818 568.952H658.318V375.22H629.818V568.952Z" fill="#407BFF"/>
<path opacity="0.2" d="M629.818 568.952H658.318V375.22H629.818V568.952Z" fill="black"/>
<path opacity="0.1" d="M621.62 392.193H615.84C615.342 392.193 614.943 391.794 614.943 391.294V385.499C614.943 384.999 615.342 384.6 615.84 384.6H621.62C622.118 384.6 622.517 384.999 622.517 385.499V391.294C622.517 391.794 622.118 392.193 621.62 392.193Z" fill="black"/>
<path opacity="0.3" d="M605.874 392.193H600.094C599.596 392.193 599.197 391.794 599.197 391.294V385.499C599.197 384.999 599.596 384.6 600.094 384.6H605.874C606.372 384.6 606.771 384.999 606.771 385.499V391.294C606.871 391.794 606.472 392.193 605.874 392.193Z" fill="black"/>
<path opacity="0.3" d="M590.228 392.193H584.448C583.949 392.193 583.551 391.794 583.551 391.294V385.499C583.551 384.999 583.949 384.6 584.448 384.6H590.228C590.726 384.6 591.124 384.999 591.124 385.499V391.294C591.224 391.794 590.726 392.193 590.228 392.193Z" fill="black"/>
<path opacity="0.1" d="M574.583 392.193H568.803C568.305 392.193 567.906 391.794 567.906 391.294V385.499C567.906 384.999 568.305 384.6 568.803 384.6H574.583C575.081 384.6 575.48 384.999 575.48 385.499V391.294C575.48 391.794 575.081 392.193 574.583 392.193Z" fill="black"/>
<path opacity="0.3" d="M558.939 392.193H553.159C552.66 392.193 552.262 391.794 552.262 391.294V385.499C552.262 384.999 552.66 384.6 553.159 384.6H558.939C559.437 384.6 559.835 384.999 559.835 385.499V391.294C559.835 391.794 559.437 392.193 558.939 392.193Z" fill="black"/>
<path opacity="0.3" d="M543.294 392.193H537.514C537.016 392.193 536.617 391.794 536.617 391.294V385.499C536.617 384.999 537.016 384.6 537.514 384.6H543.294C543.792 384.6 544.191 384.999 544.191 385.499V391.294C544.191 391.794 543.792 392.193 543.294 392.193Z" fill="black"/>
<g opacity="0.1">
<path opacity="0.1" d="M626.503 396.589H530.637V426.963H626.503V396.589Z" fill="black"/>
</g>
<path d="M621.123 422.567H618.432C617.735 422.567 617.137 421.967 617.137 421.268V402.185C617.137 401.485 617.735 400.886 618.432 400.886H621.123C621.82 400.886 622.418 401.485 622.418 402.185V421.268C622.418 421.967 621.82 422.567 621.123 422.567Z" fill="#407BFF"/>
<path opacity="0.1" d="M610.16 422.567H607.469C606.772 422.567 606.174 421.967 606.174 421.268V402.185C606.174 401.485 606.772 400.886 607.469 400.886H610.16C610.857 400.886 611.455 401.485 611.455 402.185V421.268C611.455 421.967 610.857 422.567 610.16 422.567Z" fill="black"/>
<path d="M599.199 422.567H596.508C595.811 422.567 595.213 421.967 595.213 421.268V402.185C595.213 401.485 595.811 400.886 596.508 400.886H599.199C599.897 400.886 600.494 401.485 600.494 402.185V421.268C600.494 421.967 599.996 422.567 599.199 422.567Z" fill="#407BFF"/>
<path d="M588.336 422.567H585.645C584.948 422.567 584.35 421.967 584.35 421.268V402.185C584.35 401.485 584.948 400.886 585.645 400.886H588.336C589.033 400.886 589.631 401.485 589.631 402.185V421.268C589.631 421.967 589.033 422.567 588.336 422.567Z" fill="#407BFF"/>
<path opacity="0.3" d="M558.041 406.88C558.041 404.982 559.635 403.384 561.529 403.384C563.422 403.384 565.017 404.982 565.017 406.88C565.017 408.779 563.422 410.377 561.529 410.377C559.635 410.377 558.041 408.779 558.041 406.88Z" fill="white"/>
<path opacity="0.1" d="M574.984 416.572C574.984 418.471 573.389 420.069 571.496 420.069C569.602 420.069 568.008 418.471 568.008 416.572C568.008 414.674 569.602 413.075 571.496 413.075C573.489 413.075 574.984 414.674 574.984 416.572Z" fill="black"/>
<path opacity="0.1" d="M568.008 406.88C568.008 404.982 569.602 403.384 571.496 403.384C573.389 403.384 574.984 404.982 574.984 406.88C574.984 408.779 573.389 410.377 571.496 410.377C569.602 410.377 568.008 408.779 568.008 406.88Z" fill="black"/>
<path opacity="0.1" d="M565.017 416.572C565.017 418.471 563.422 420.069 561.529 420.069C559.635 420.069 558.041 418.471 558.041 416.572C558.041 414.674 559.635 413.075 561.529 413.075C563.422 413.075 565.017 414.674 565.017 416.572Z" fill="black"/>
<path opacity="0.3" d="M549.503 417.044C552.461 414.079 552.461 409.271 549.503 406.306C546.546 403.34 541.75 403.34 538.793 406.306C535.835 409.271 535.835 414.079 538.793 417.044C541.75 420.01 546.546 420.01 549.503 417.044Z" fill="white"/>
<g opacity="0.1">
<path opacity="0.1" d="M626.503 431.06H530.637V461.433H626.503V431.06Z" fill="black"/>
</g>
<path d="M621.123 457.037H618.432C617.735 457.037 617.137 456.438 617.137 455.738V436.655C617.137 435.955 617.735 435.356 618.432 435.356H621.123C621.82 435.356 622.418 435.955 622.418 436.655V455.738C622.418 456.438 621.82 457.037 621.123 457.037Z" fill="#407BFF"/>
<path opacity="0.1" d="M610.16 457.037H607.469C606.772 457.037 606.174 456.438 606.174 455.738V436.655C606.174 435.955 606.772 435.356 607.469 435.356H610.16C610.857 435.356 611.455 435.955 611.455 436.655V455.738C611.455 456.438 610.857 457.037 610.16 457.037Z" fill="black"/>
<path d="M599.199 457.037H596.508C595.811 457.037 595.213 456.438 595.213 455.738V436.655C595.213 435.955 595.811 435.356 596.508 435.356H599.199C599.897 435.356 600.494 435.955 600.494 436.655V455.738C600.494 456.438 599.996 457.037 599.199 457.037Z" fill="#407BFF"/>
<path d="M588.336 457.037H585.645C584.948 457.037 584.35 456.438 584.35 455.738V436.655C584.35 435.955 584.948 435.356 585.645 435.356H588.336C589.033 435.356 589.631 435.955 589.631 436.655V455.738C589.631 456.438 589.033 457.037 588.336 457.037Z" fill="#407BFF"/>
<path opacity="0.3" d="M558.041 441.351C558.041 439.452 559.635 437.854 561.529 437.854C563.422 437.854 565.017 439.452 565.017 441.351C565.017 443.249 563.422 444.848 561.529 444.848C559.635 444.848 558.041 443.349 558.041 441.351Z" fill="white"/>
<path opacity="0.3" d="M571.496 454.539C573.422 454.539 574.984 452.974 574.984 451.042C574.984 449.111 573.422 447.545 571.496 447.545C569.569 447.545 568.008 449.111 568.008 451.042C568.008 452.974 569.569 454.539 571.496 454.539Z" fill="white"/>
<path opacity="0.1" d="M568.008 441.351C568.008 439.452 569.602 437.854 571.496 437.854C573.389 437.854 574.984 439.452 574.984 441.351C574.984 443.249 573.389 444.848 571.496 444.848C569.602 444.848 568.008 443.349 568.008 441.351Z" fill="black"/>
<path opacity="0.1" d="M561.529 454.539C563.455 454.539 565.017 452.974 565.017 451.042C565.017 449.111 563.455 447.545 561.529 447.545C559.603 447.545 558.041 449.111 558.041 451.042C558.041 452.974 559.603 454.539 561.529 454.539Z" fill="black"/>
<path opacity="0.3" d="M544.189 453.84C548.372 453.84 551.763 450.44 551.763 446.246C551.763 442.053 548.372 438.653 544.189 438.653C540.006 438.653 536.615 442.053 536.615 446.246C536.615 450.44 540.006 453.84 544.189 453.84Z" fill="white"/>
<g opacity="0.1">
<path opacity="0.1" d="M626.503 465.53H530.637V495.903H626.503V465.53Z" fill="black"/>
</g>
<path d="M621.123 491.507H618.432C617.735 491.507 617.137 490.908 617.137 490.208V471.125C617.137 470.425 617.735 469.826 618.432 469.826H621.123C621.82 469.826 622.418 470.425 622.418 471.125V490.208C622.418 490.908 621.82 491.507 621.123 491.507Z" fill="#407BFF"/>
<path opacity="0.1" d="M610.16 491.507H607.469C606.772 491.507 606.174 490.908 606.174 490.208V471.125C606.174 470.425 606.772 469.826 607.469 469.826H610.16C610.857 469.826 611.455 470.425 611.455 471.125V490.208C611.455 490.908 610.857 491.507 610.16 491.507Z" fill="black"/>
<path d="M599.199 491.507H596.508C595.811 491.507 595.213 490.908 595.213 490.208V471.125C595.213 470.425 595.811 469.826 596.508 469.826H599.199C599.897 469.826 600.494 470.425 600.494 471.125V490.208C600.494 490.908 599.996 491.507 599.199 491.507Z" fill="#407BFF"/>
<path d="M588.336 491.507H585.645C584.948 491.507 584.35 490.908 584.35 490.208V471.125C584.35 470.425 584.948 469.826 585.645 469.826H588.336C589.033 469.826 589.631 470.425 589.631 471.125V490.208C589.631 490.908 589.033 491.507 588.336 491.507Z" fill="#407BFF"/>
<path opacity="0.3" d="M558.041 475.821C558.041 473.922 559.635 472.324 561.529 472.324C563.422 472.324 565.017 473.922 565.017 475.821C565.017 477.719 563.422 479.318 561.529 479.318C559.635 479.318 558.041 477.819 558.041 475.821Z" fill="white"/>
<path opacity="0.3" d="M571.496 489.009C573.422 489.009 574.984 487.444 574.984 485.512C574.984 483.581 573.422 482.016 571.496 482.016C569.569 482.016 568.008 483.581 568.008 485.512C568.008 487.444 569.569 489.009 571.496 489.009Z" fill="white"/>
<path opacity="0.1" d="M568.008 475.821C568.008 473.922 569.602 472.324 571.496 472.324C573.389 472.324 574.984 473.922 574.984 475.821C574.984 477.719 573.389 479.318 571.496 479.318C569.602 479.318 568.008 477.819 568.008 475.821Z" fill="black"/>
<path opacity="0.1" d="M561.529 489.009C563.455 489.009 565.017 487.444 565.017 485.512C565.017 483.581 563.455 482.016 561.529 482.016C559.603 482.016 558.041 483.581 558.041 485.512C558.041 487.444 559.603 489.009 561.529 489.009Z" fill="black"/>
<path opacity="0.1" d="M544.189 488.31C548.372 488.31 551.763 484.91 551.763 480.717C551.763 476.523 548.372 473.123 544.189 473.123C540.006 473.123 536.615 476.523 536.615 480.717C536.615 484.91 540.006 488.31 544.189 488.31Z" fill="black"/>
<g opacity="0.1">
<path opacity="0.1" d="M626.503 500H530.637V530.374H626.503V500Z" fill="black"/>
</g>
<path d="M621.123 525.977H618.432C617.735 525.977 617.137 525.378 617.137 524.678V505.595C617.137 504.896 617.735 504.296 618.432 504.296H621.123C621.82 504.296 622.418 504.896 622.418 505.595V524.678C622.418 525.378 621.82 525.977 621.123 525.977Z" fill="#407BFF"/>
<path opacity="0.1" d="M610.16 525.977H607.469C606.772 525.977 606.174 525.378 606.174 524.678V505.595C606.174 504.896 606.772 504.296 607.469 504.296H610.16C610.857 504.296 611.455 504.896 611.455 505.595V524.678C611.455 525.378 610.857 525.977 610.16 525.977Z" fill="black"/>
<path d="M599.199 525.977H596.508C595.811 525.977 595.213 525.378 595.213 524.678V505.595C595.213 504.896 595.811 504.296 596.508 504.296H599.199C599.897 504.296 600.494 504.896 600.494 505.595V524.678C600.494 525.378 599.996 525.977 599.199 525.977Z" fill="#407BFF"/>
<path d="M588.336 525.977H585.645C584.948 525.977 584.35 525.378 584.35 524.678V505.595C584.35 504.896 584.948 504.296 585.645 504.296H588.336C589.033 504.296 589.631 504.896 589.631 505.595V524.678C589.631 525.378 589.033 525.977 588.336 525.977Z" fill="#407BFF"/>
<path opacity="0.3" d="M561.529 513.788C563.455 513.788 565.017 512.222 565.017 510.291C565.017 508.36 563.455 506.794 561.529 506.794C559.603 506.794 558.041 508.36 558.041 510.291C558.041 512.222 559.603 513.788 561.529 513.788Z" fill="white"/>
<path opacity="0.3" d="M571.496 523.48C573.422 523.48 574.984 521.914 574.984 519.983C574.984 518.051 573.422 516.486 571.496 516.486C569.569 516.486 568.008 518.051 568.008 519.983C568.008 521.914 569.569 523.48 571.496 523.48Z" fill="white"/>
<path opacity="0.3" d="M571.496 513.788C573.422 513.788 574.984 512.222 574.984 510.291C574.984 508.36 573.422 506.794 571.496 506.794C569.569 506.794 568.008 508.36 568.008 510.291C568.008 512.222 569.569 513.788 571.496 513.788Z" fill="white"/>
<path opacity="0.1" d="M561.529 523.48C563.455 523.48 565.017 521.914 565.017 519.983C565.017 518.051 563.455 516.486 561.529 516.486C559.603 516.486 558.041 518.051 558.041 519.983C558.041 521.914 559.603 523.48 561.529 523.48Z" fill="black"/>
<path opacity="0.3" d="M544.189 522.78C548.372 522.78 551.763 519.38 551.763 515.187C551.763 510.993 548.372 507.593 544.189 507.593C540.006 507.593 536.615 510.993 536.615 515.187C536.615 519.38 540.006 522.78 544.189 522.78Z" fill="white"/>
<g opacity="0.1">
<path opacity="0.1" d="M626.503 534.47H530.637V564.844H626.503V534.47Z" fill="black"/>
</g>
<path d="M621.123 560.448H618.432C617.735 560.448 617.137 559.848 617.137 559.149V540.065C617.137 539.366 617.735 538.766 618.432 538.766H621.123C621.82 538.766 622.418 539.366 622.418 540.065V559.149C622.418 559.948 621.82 560.448 621.123 560.448Z" fill="#407BFF"/>
<path opacity="0.1" d="M610.16 560.448H607.469C606.772 560.448 606.174 559.848 606.174 559.149V540.065C606.174 539.366 606.772 538.766 607.469 538.766H610.16C610.857 538.766 611.455 539.366 611.455 540.065V559.149C611.455 559.948 610.857 560.448 610.16 560.448Z" fill="black"/>
<path d="M599.199 560.448H596.508C595.811 560.448 595.213 559.848 595.213 559.149V540.065C595.213 539.366 595.811 538.766 596.508 538.766H599.199C599.897 538.766 600.494 539.366 600.494 540.065V559.149C600.494 559.948 599.996 560.448 599.199 560.448Z" fill="#407BFF"/>
<path d="M588.336 560.448H585.645C584.948 560.448 584.35 559.848 584.35 559.149V540.065C584.35 539.366 584.948 538.766 585.645 538.766H588.336C589.033 538.766 589.631 539.366 589.631 540.065V559.149C589.631 559.948 589.033 560.448 588.336 560.448Z" fill="#407BFF"/>
<path opacity="0.3" d="M561.529 548.358C563.455 548.358 565.017 546.792 565.017 544.861C565.017 542.93 563.455 541.364 561.529 541.364C559.603 541.364 558.041 542.93 558.041 544.861C558.041 546.792 559.603 548.358 561.529 548.358Z" fill="white"/>
<path opacity="0.3" d="M571.496 557.95C573.422 557.95 574.984 556.384 574.984 554.453C574.984 552.521 573.422 550.956 571.496 550.956C569.569 550.956 568.008 552.521 568.008 554.453C568.008 556.384 569.569 557.95 571.496 557.95Z" fill="white"/>
<path opacity="0.3" d="M571.496 548.358C573.422 548.358 574.984 546.792 574.984 544.861C574.984 542.93 573.422 541.364 571.496 541.364C569.569 541.364 568.008 542.93 568.008 544.861C568.008 546.792 569.569 548.358 571.496 548.358Z" fill="white"/>
<path opacity="0.1" d="M561.529 557.95C563.455 557.95 565.017 556.384 565.017 554.453C565.017 552.521 563.455 550.956 561.529 550.956C559.603 550.956 558.041 552.521 558.041 554.453C558.041 556.384 559.603 557.95 561.529 557.95Z" fill="black"/>
<path opacity="0.3" d="M544.189 557.25C548.372 557.25 551.763 553.851 551.763 549.657C551.763 545.463 548.372 542.064 544.189 542.064C540.006 542.064 536.615 545.463 536.615 549.657C536.615 553.851 540.006 557.25 544.189 557.25Z" fill="white"/>
<path d="M530.137 328.049H604.179L614.543 370.612H540.501L530.137 328.049Z" fill="#407BFF"/>
<path d="M561.428 370.612L561.727 372.91H640.851L640.552 370.612H561.428Z" fill="#407BFF"/>
<path d="M601.887 328.049L612.35 370.612L612.649 372.91H540.8L540.501 370.612L530.137 328.049H601.887Z" fill="#407BFF"/>
<path d="M601.887 328.049L612.35 370.612L612.649 372.91H540.8L540.501 370.612L530.137 328.049H601.887Z" fill="#0F264C"/>
<path d="M572.09 302.87L571.592 302.671C570.994 302.371 557.042 294.877 555.049 285.086C553.156 275.594 553.555 266.402 553.555 266.002V265.103L554.451 265.003C554.551 265.003 565.015 264.204 571.691 262.006L571.99 261.906L572.289 262.006C579.066 264.204 589.43 265.003 589.529 265.003L590.426 265.103V266.002C590.426 266.402 590.924 275.594 588.931 285.086C586.938 294.877 572.987 302.371 572.389 302.671L572.09 302.87ZM555.548 267.002C555.448 269.499 555.448 277.093 557.042 284.686C558.637 292.579 569.698 299.274 572.09 300.672C574.482 299.274 585.543 292.679 587.138 284.686C588.632 277.093 588.632 269.499 588.632 267.002C585.942 266.802 577.97 265.902 572.09 264.104C566.21 265.902 558.238 266.702 555.548 267.002Z" fill="#F6AC3B"/>
<path d="M572.09 297.375C567.905 294.778 560.929 289.482 559.833 284.187C558.736 278.592 558.438 272.996 558.438 269.599C561.925 269.2 567.506 268.4 572.09 267.101C576.674 268.4 582.255 269.2 585.742 269.599C585.742 272.996 585.443 278.592 584.347 284.187C583.251 289.482 576.275 294.778 572.09 297.375Z" fill="#F6AC3B"/>
<path opacity="0.3" d="M501.337 568.94H499.344V335.542C499.344 323.553 509.01 313.861 520.968 313.861H565.414C568.503 313.861 571.094 311.263 571.094 308.166H573.087C573.087 312.362 569.699 315.859 565.414 315.859H520.968C510.106 315.859 501.337 324.652 501.337 335.542V568.94Z" fill="#407BFF"/>
</g>
<defs>
<clipPath id="clip0">
<rect width="800" height="600" rx="16" fill="white"/>
</clipPath>
</defs>
</svg>
