<svg width="800" height="600" viewBox="0 0 800 600" fill="none" xmlns="http://www.w3.org/2000/svg">
<g clip-path="url(#clip0)">
<path d="M841.008 464.718H311.927V464.982H841.008V464.718Z" fill="#D1E3FF"/>
<path d="M459.117 474.724H407.69V474.988H459.117V474.724Z" fill="#D1E3FF"/>
<path d="M396.262 474.812H382.718V475.075H396.262V474.812Z" fill="#D1E3FF"/>
<path d="M533.824 473.32H517.951V473.583H533.824V473.32Z" fill="#D1E3FF"/>
<path d="M604.615 473.32H539.855V473.583H604.615V473.32Z" fill="#D1E3FF"/>
<path d="M757.096 474.988H696.992V475.251H757.096V474.988Z" fill="#D1E3FF"/>
<path d="M691.066 474.988H675.193V475.251H691.066V474.988Z" fill="#D1E3FF"/>
<path d="M786.618 471.038H772.968V471.301H786.618V471.038Z" fill="#D1E3FF"/>
<path d="M562.83 425.498H358.523C355.243 425.498 352.492 423.361 352.492 420.812V197.686C352.492 195.138 355.243 193 358.523 193H562.83C566.11 193 568.861 195.138 568.861 197.686V420.812C568.861 423.361 566.216 425.498 562.83 425.498ZM358.523 193.164C355.349 193.164 352.704 195.138 352.704 197.686V420.812C352.704 423.279 355.243 425.334 358.523 425.334H562.83C566.004 425.334 568.649 423.361 568.649 420.812V197.686C568.649 195.22 566.11 193.164 562.83 193.164H358.523Z" fill="#D1E3FF"/>
<path d="M791.592 425.498H587.285C584.005 425.498 581.254 423.361 581.254 420.812V197.686C581.254 195.138 584.005 193 587.285 193H791.592C794.872 193 797.623 195.138 797.623 197.686V420.812C797.623 423.361 794.978 425.498 791.592 425.498ZM587.285 193.164C584.111 193.164 581.466 195.138 581.466 197.686V420.812C581.466 423.279 584.005 425.334 587.285 425.334H791.592C794.766 425.334 797.411 423.361 797.411 420.812V197.686C797.411 195.22 794.872 193.164 791.592 193.164H587.285Z" fill="#D1E3FF"/>
<path d="M841.007 451.728H768.1C766.512 451.728 765.137 450.587 765.137 449.271V290.229C765.137 289.088 764.079 288.21 762.703 288.21H754.979V287.772H762.703C764.29 287.772 765.666 288.913 765.666 290.229V449.271C765.666 450.412 766.724 451.289 768.1 451.289H841.007V451.728Z" fill="#60DBF3"/>
<path d="M841.007 448.481H770.533C768.946 448.481 767.571 447.34 767.571 446.023V287.069C767.571 285.928 766.512 285.051 765.137 285.051H754.979V284.612H765.137C766.724 284.612 768.1 285.753 768.1 287.069V446.111C768.1 447.252 769.158 448.13 770.533 448.13H841.007V448.481Z" fill="#60DBF3"/>
<path d="M841.008 445.321H773.074C771.486 445.321 770.111 444.18 770.111 442.863V283.822C770.111 282.681 769.053 281.803 767.677 281.803H755.085V281.364H767.677C769.264 281.364 770.64 282.505 770.64 283.822V442.863C770.64 444.004 771.698 444.882 773.074 444.882H841.008V445.321Z" fill="#60DBF3"/>
<path d="M841.007 442.073H775.507C773.92 442.073 772.544 440.932 772.544 439.616V280.574C772.544 279.433 771.486 278.556 770.11 278.556H754.979V278.117H770.11C771.697 278.117 773.073 279.258 773.073 280.574V439.616C773.073 440.757 774.131 441.634 775.507 441.634H841.007V442.073Z" fill="#60DBF3"/>
<path d="M841.008 438.914H778.047C776.46 438.914 775.084 437.773 775.084 436.456V277.415C775.084 276.274 774.026 275.396 772.65 275.396H755.085V274.957H772.65C774.238 274.957 775.613 276.098 775.613 277.415V436.456C775.613 437.597 776.671 438.475 778.047 438.475H841.008V438.914Z" fill="#60DBF3"/>
<path d="M841.007 435.666H780.48C778.893 435.666 777.517 434.525 777.517 433.208V274.167C777.517 273.026 776.459 272.148 775.084 272.148H754.979V271.709H775.084C776.671 271.709 778.046 272.85 778.046 274.167V433.208C778.046 434.35 779.105 435.227 780.48 435.227H841.007V435.666Z" fill="#60DBF3"/>
<path d="M841.008 432.418H782.915C781.328 432.418 779.952 431.277 779.952 429.961V271.007C779.952 269.866 778.894 268.989 777.518 268.989H754.979V268.55H777.518C779.106 268.55 780.481 269.691 780.481 271.007V430.049C780.481 431.19 781.539 432.067 782.915 432.067H841.008V432.418Z" fill="#60DBF3"/>
<path d="M606.942 303.746H541.548V304.185H606.942V303.746Z" fill="#60DBF3"/>
<path d="M606.942 300.586H541.548V301.025H606.942V300.586Z" fill="#60DBF3"/>
<path d="M606.942 297.339H541.548V297.777H606.942V297.339Z" fill="#60DBF3"/>
<path d="M606.942 294.091H541.548V294.53H606.942V294.091Z" fill="#60DBF3"/>
<path d="M606.942 290.931H541.548V291.37H606.942V290.931Z" fill="#60DBF3"/>
<path d="M606.942 287.684H541.548V288.123H606.942V287.684Z" fill="#60DBF3"/>
<path d="M606.942 284.524H541.548V284.963H606.942V284.524Z" fill="#60DBF3"/>
<path d="M606.942 412.582H541.548V413.021H606.942V412.582Z" fill="#60DBF3"/>
<path d="M606.942 409.335H541.548V409.773H606.942V409.335Z" fill="#60DBF3"/>
<path d="M606.942 406.175H541.548V406.614H606.942V406.175Z" fill="#60DBF3"/>
<path d="M606.942 402.927H541.548V403.366H606.942V402.927Z" fill="#60DBF3"/>
<path d="M606.942 399.68H541.548V400.119H606.942V399.68Z" fill="#60DBF3"/>
<path d="M606.942 396.52H541.548V396.959H606.942V396.52Z" fill="#60DBF3"/>
<path d="M606.942 393.273H541.548V393.711H606.942V393.273Z" fill="#60DBF3"/>
<path d="M413.405 436.105H388.009C386.421 436.105 385.046 434.964 385.046 433.647V274.606C385.046 273.465 383.988 272.587 382.612 272.587H352.666V272.148H382.718C384.305 272.148 385.681 273.289 385.681 274.606V433.647C385.681 434.788 386.739 435.666 388.114 435.666H413.51V436.105H413.405Z" fill="#60DBF3"/>
<path d="M413.405 439.265H385.575C383.988 439.265 382.612 438.124 382.612 436.807V277.853C382.612 276.712 381.554 275.835 380.178 275.835H352.666V275.396H380.178C381.765 275.396 383.141 276.537 383.141 277.853V436.895C383.141 438.036 384.199 438.914 385.575 438.914H413.405V439.265Z" fill="#60DBF3"/>
<path d="M413.405 442.512H383.141C381.554 442.512 380.178 441.371 380.178 440.055V281.013C380.178 279.872 379.12 278.994 377.744 278.994H352.666V278.556H377.744C379.332 278.556 380.707 279.697 380.707 281.013V440.055C380.707 441.196 381.765 442.073 383.141 442.073H413.51V442.512H413.405Z" fill="#60DBF3"/>
<path d="M413.405 445.672H380.602C379.014 445.672 377.639 444.531 377.639 443.214V284.261C377.639 283.12 376.58 282.242 375.205 282.242H352.666V281.803H375.205C376.792 281.803 378.168 282.944 378.168 284.261V443.302C378.168 444.443 379.226 445.321 380.602 445.321H413.405V445.672Z" fill="#60DBF3"/>
<path d="M413.405 448.919H378.168C376.58 448.919 375.205 447.778 375.205 446.462V287.42C375.205 286.279 374.147 285.402 372.771 285.402H352.666V284.963H372.771C374.358 284.963 375.734 286.104 375.734 287.42V446.462C375.734 447.603 376.792 448.481 378.168 448.481H413.51V448.919H413.405Z" fill="#60DBF3"/>
<path d="M413.405 452.167H375.628C374.041 452.167 372.665 451.026 372.665 449.709V290.668C372.665 289.527 371.607 288.649 370.232 288.649H352.666V288.21H370.337C371.925 288.21 373.3 289.351 373.3 290.668V449.709C373.3 450.85 374.358 451.728 375.734 451.728H413.51V452.167H413.405Z" fill="#60DBF3"/>
<path d="M413.405 455.327H373.194C371.607 455.327 370.232 454.186 370.232 452.869V293.828C370.232 292.687 369.173 291.809 367.798 291.809H352.666V291.37H367.798C369.385 291.37 370.761 292.511 370.761 293.828V452.869C370.761 454.01 371.819 454.888 373.194 454.888H413.405V455.327Z" fill="#60DBF3"/>
<path d="M520.808 451.465H413.404V464.718H520.808V451.465Z" fill="#5CDBF5"/>
<path d="M520.787 464.756H542.585V451.503H520.787V464.756Z" fill="#60DBF3"/>
<path d="M520.808 218.081H406.209V451.553H520.808V218.081Z" fill="#67AEC1"/>
<path d="M540.278 216.063H415.838V218.081H540.278V216.063Z" fill="#5CDBF5"/>
<path d="M520.855 451.483H549.849V218.012H520.855V451.483Z" fill="#5CDBF5"/>
<path d="M517.422 220.89H409.595V246.431H517.422V220.89Z" fill="#5CDBF5"/>
<path d="M517.422 423.027H409.595V448.568H517.422V423.027Z" fill="#5CDBF5"/>
<path d="M517.422 394.15H409.595V419.692H517.422V394.15Z" fill="#5CDBF5"/>
<path d="M517.422 365.274H409.595V390.815H517.422V365.274Z" fill="#5CDBF5"/>
<path d="M517.422 336.397H409.595V361.938H517.422V336.397Z" fill="#5CDBF5"/>
<path d="M517.422 307.52H409.595V333.061H517.422V307.52Z" fill="#5CDBF5"/>
<path d="M517.422 278.643H409.595V304.185H517.422V278.643Z" fill="#5CDBF5"/>
<path d="M517.422 249.767H409.595V275.308H517.422V249.767Z" fill="#5CDBF5"/>
<path opacity="0.7" d="M508.64 242.745H487.582C485.149 242.745 483.032 241.077 483.032 238.971V228.263C483.032 226.244 485.043 224.488 487.582 224.488H508.64C511.073 224.488 513.19 226.156 513.19 228.263V239.059C513.19 241.077 511.179 242.745 508.64 242.745Z" fill="#5CDBF5"/>
<path d="M504.089 234.846V232.388C504.089 231.774 504.724 231.247 505.464 231.247H508.427C509.168 231.247 509.803 231.774 509.803 232.388V234.846C509.803 235.46 509.168 235.987 508.427 235.987H505.464C504.618 235.987 504.089 235.46 504.089 234.846Z" fill="#67AEC1"/>
<path opacity="0.7" d="M508.64 271.622H487.582C485.149 271.622 483.032 269.954 483.032 267.848V257.052C483.032 255.033 485.043 253.278 487.582 253.278H508.64C511.073 253.278 513.19 254.945 513.19 257.052V267.848C513.19 269.954 511.179 271.622 508.64 271.622Z" fill="#5CDBF5"/>
<path d="M504.089 263.722V261.265C504.089 260.65 504.724 260.124 505.464 260.124H508.427C509.168 260.124 509.803 260.65 509.803 261.265V263.722C509.803 264.337 509.168 264.863 508.427 264.863H505.464C504.618 264.863 504.089 264.337 504.089 263.722Z" fill="#67AEC1"/>
<path opacity="0.7" d="M508.64 300.498H487.582C485.149 300.498 483.032 298.831 483.032 296.724V285.928C483.032 283.91 485.043 282.154 487.582 282.154H508.64C511.073 282.154 513.19 283.822 513.19 285.928V296.724C513.19 298.831 511.179 300.498 508.64 300.498Z" fill="#5CDBF5"/>
<path d="M504.089 292.599V290.141C504.089 289.527 504.724 289 505.464 289H508.427C509.168 289 509.803 289.527 509.803 290.141V292.599C509.803 293.213 509.168 293.74 508.427 293.74H505.464C504.618 293.74 504.089 293.213 504.089 292.599Z" fill="#67AEC1"/>
<path opacity="0.7" d="M508.64 329.375H487.582C485.149 329.375 483.032 327.707 483.032 325.601V314.805C483.032 312.786 485.043 311.031 487.582 311.031H508.64C511.073 311.031 513.19 312.699 513.19 314.805V325.689C513.19 327.707 511.179 329.375 508.64 329.375Z" fill="#5EDBF4"/>
<path d="M504.089 321.476V319.018C504.089 318.404 504.724 317.877 505.464 317.877H508.427C509.168 317.877 509.803 318.404 509.803 319.018V321.476C509.803 322.09 509.168 322.617 508.427 322.617H505.464C504.618 322.617 504.089 322.09 504.089 321.476Z" fill="#67AEC1"/>
<path opacity="0.7" d="M508.64 358.252H487.582C485.149 358.252 483.032 356.584 483.032 354.478V343.682C483.032 341.663 485.043 339.908 487.582 339.908H508.64C511.073 339.908 513.19 341.575 513.19 343.682V354.478C513.19 356.584 511.179 358.252 508.64 358.252Z" fill="#5CDBF5"/>
<path d="M504.089 350.352V347.895C504.089 347.28 504.724 346.754 505.464 346.754H508.427C509.168 346.754 509.803 347.28 509.803 347.895V350.352C509.803 350.967 509.168 351.493 508.427 351.493H505.464C504.618 351.493 504.089 350.967 504.089 350.352Z" fill="#67AEC1"/>
<path opacity="0.7" d="M508.64 387.129H487.582C485.149 387.129 483.032 385.461 483.032 383.354V372.559C483.032 370.54 485.043 368.784 487.582 368.784H508.64C511.073 368.784 513.19 370.452 513.19 372.559V383.354C513.19 385.461 511.179 387.129 508.64 387.129Z" fill="#5CDBF5"/>
<path d="M504.089 379.229V376.772C504.089 376.157 504.724 375.63 505.464 375.63H508.427C509.168 375.63 509.803 376.157 509.803 376.772V379.229C509.803 379.844 509.168 380.37 508.427 380.37H505.464C504.618 380.37 504.089 379.844 504.089 379.229Z" fill="#67AEC1"/>
<path opacity="0.7" d="M508.64 416.005H487.582C485.149 416.005 483.032 414.338 483.032 412.231V401.435C483.032 399.417 485.043 397.661 487.582 397.661H508.64C511.073 397.661 513.19 399.329 513.19 401.435V412.231C513.19 414.338 511.179 416.005 508.64 416.005Z" fill="white"/>
<path d="M504.089 408.106V405.648C504.089 405.034 504.724 404.507 505.464 404.507H508.427C509.168 404.507 509.803 405.034 509.803 405.648V408.106C509.803 408.72 509.168 409.247 508.427 409.247H505.464C504.618 409.247 504.089 408.72 504.089 408.106Z" fill="#67AEC1"/>
<path opacity="0.7" d="M508.64 444.882H487.582C485.149 444.882 483.032 443.214 483.032 441.108V430.312C483.032 428.293 485.043 426.538 487.582 426.538H508.64C511.073 426.538 513.19 428.205 513.19 430.312V441.108C513.19 443.214 511.179 444.882 508.64 444.882Z" fill="white"/>
<path d="M504.089 436.982V434.525C504.089 433.91 504.724 433.384 505.464 433.384H508.427C509.168 433.384 509.803 433.91 509.803 434.525V436.982C509.803 437.597 509.168 438.123 508.427 438.123H505.464C504.618 438.123 504.089 437.597 504.089 436.982Z" fill="#67AEC1"/>
<path d="M495.306 234.846V232.388C495.306 231.774 495.941 231.247 496.681 231.247H499.644C500.385 231.247 501.02 231.774 501.02 232.388V234.846C501.02 235.46 500.385 235.987 499.644 235.987H496.681C495.941 235.987 495.306 235.46 495.306 234.846Z" fill="#67AEC1"/>
<path d="M495.306 263.722V261.265C495.306 260.65 495.941 260.124 496.681 260.124H499.644C500.385 260.124 501.02 260.65 501.02 261.265V263.722C501.02 264.337 500.385 264.863 499.644 264.863H496.681C495.941 264.863 495.306 264.337 495.306 263.722Z" fill="#67AEC1"/>
<path d="M495.306 292.599V290.141C495.306 289.527 495.941 289 496.681 289H499.644C500.385 289 501.02 289.527 501.02 290.141V292.599C501.02 293.213 500.385 293.74 499.644 293.74H496.681C495.941 293.74 495.306 293.213 495.306 292.599Z" fill="#67AEC1"/>
<path d="M495.306 321.476V319.018C495.306 318.404 495.941 317.877 496.681 317.877H499.644C500.385 317.877 501.02 318.404 501.02 319.018V321.476C501.02 322.09 500.385 322.617 499.644 322.617H496.681C495.941 322.617 495.306 322.09 495.306 321.476Z" fill="#67AEC1"/>
<path d="M495.306 350.352V347.895C495.306 347.28 495.941 346.754 496.681 346.754H499.644C500.385 346.754 501.02 347.28 501.02 347.895V350.352C501.02 350.967 500.385 351.493 499.644 351.493H496.681C495.941 351.493 495.306 350.967 495.306 350.352Z" fill="#67AEC1"/>
<path d="M495.306 379.229V376.772C495.306 376.157 495.941 375.63 496.681 375.63H499.644C500.385 375.63 501.02 376.157 501.02 376.772V379.229C501.02 379.844 500.385 380.37 499.644 380.37H496.681C495.941 380.37 495.306 379.844 495.306 379.229Z" fill="#67AEC1"/>
<path d="M495.306 408.106V405.648C495.306 405.034 495.941 404.507 496.681 404.507H499.644C500.385 404.507 501.02 405.034 501.02 405.648V408.106C501.02 408.72 500.385 409.247 499.644 409.247H496.681C495.941 409.247 495.306 408.72 495.306 408.106Z" fill="#67AEC1"/>
<path d="M495.306 436.982V434.525C495.306 433.91 495.941 433.384 496.681 433.384H499.644C500.385 433.384 501.02 433.91 501.02 434.525V436.982C501.02 437.597 500.385 438.123 499.644 438.123H496.681C495.941 438.123 495.306 437.597 495.306 436.982Z" fill="#67AEC1"/>
<path d="M472.343 236.601C474.33 236.601 475.941 235.265 475.941 233.617C475.941 231.969 474.33 230.632 472.343 230.632C470.356 230.632 468.745 231.969 468.745 233.617C468.745 235.265 470.356 236.601 472.343 236.601Z" fill="#67AEC1"/>
<path d="M465.783 233.617C465.783 235.284 464.196 236.601 462.186 236.601C460.175 236.601 458.588 235.284 458.588 233.617C458.588 231.949 460.175 230.632 462.186 230.632C464.196 230.72 465.783 232.037 465.783 233.617Z" fill="#67AEC1"/>
<path d="M455.519 233.617C455.519 235.284 453.932 236.601 451.921 236.601C449.91 236.601 448.323 235.284 448.323 233.617C448.323 231.949 449.91 230.632 451.921 230.632C453.932 230.72 455.519 232.037 455.519 233.617Z" fill="#67AEC1"/>
<path d="M441.868 236.601C443.855 236.601 445.466 235.265 445.466 233.617C445.466 231.969 443.855 230.632 441.868 230.632C439.881 230.632 438.271 231.969 438.271 233.617C438.271 235.265 439.881 236.601 441.868 236.601Z" fill="#67AEC1"/>
<path d="M472.343 265.478C474.33 265.478 475.941 264.142 475.941 262.493C475.941 260.845 474.33 259.509 472.343 259.509C470.356 259.509 468.745 260.845 468.745 262.493C468.745 264.142 470.356 265.478 472.343 265.478Z" fill="#67AEC1"/>
<path d="M465.783 262.493C465.783 264.161 464.196 265.478 462.186 265.478C460.175 265.478 458.588 264.161 458.588 262.493C458.588 260.826 460.175 259.509 462.186 259.509C464.196 259.597 465.783 260.914 465.783 262.493Z" fill="#67AEC1"/>
<path d="M455.519 262.493C455.519 264.161 453.932 265.478 451.921 265.478C449.91 265.478 448.323 264.161 448.323 262.493C448.323 260.826 449.91 259.509 451.921 259.509C453.932 259.597 455.519 260.914 455.519 262.493Z" fill="#67AEC1"/>
<path d="M441.868 265.478C443.855 265.478 445.466 264.142 445.466 262.493C445.466 260.845 443.855 259.509 441.868 259.509C439.881 259.509 438.271 260.845 438.271 262.493C438.271 264.142 439.881 265.478 441.868 265.478Z" fill="#67AEC1"/>
<path d="M475.942 291.37C475.942 293.038 474.354 294.354 472.344 294.354C470.333 294.354 468.746 293.038 468.746 291.37C468.746 289.703 470.333 288.386 472.344 288.386C474.354 288.386 475.942 289.79 475.942 291.37Z" fill="#67AEC1"/>
<path d="M465.782 291.37C465.782 293.038 464.195 294.354 462.185 294.354C460.174 294.354 458.587 293.038 458.587 291.37C458.587 289.703 460.174 288.386 462.185 288.386C464.195 288.474 465.782 289.79 465.782 291.37Z" fill="#67AEC1"/>
<path d="M455.519 291.37C455.519 293.038 453.932 294.354 451.921 294.354C449.91 294.354 448.323 293.038 448.323 291.37C448.323 289.703 449.91 288.386 451.921 288.386C453.932 288.474 455.519 289.79 455.519 291.37Z" fill="#67AEC1"/>
<path d="M445.361 291.37C445.361 293.038 443.773 294.354 441.763 294.354C439.752 294.354 438.165 293.038 438.165 291.37C438.165 289.703 439.752 288.386 441.763 288.386C443.773 288.386 445.361 289.79 445.361 291.37Z" fill="#67AEC1"/>
<path d="M475.942 320.247C475.942 321.915 474.354 323.231 472.344 323.231C470.333 323.231 468.746 321.915 468.746 320.247C468.746 318.579 470.333 317.263 472.344 317.263C474.354 317.263 475.942 318.667 475.942 320.247Z" fill="#67AEC1"/>
<path d="M465.782 320.247C465.782 321.915 464.195 323.231 462.185 323.231C460.174 323.231 458.587 321.915 458.587 320.247C458.587 318.579 460.174 317.263 462.185 317.263C464.195 317.35 465.782 318.667 465.782 320.247Z" fill="#67AEC1"/>
<path d="M455.519 320.247C455.519 321.915 453.932 323.231 451.921 323.231C449.91 323.231 448.323 321.915 448.323 320.247C448.323 318.579 449.91 317.263 451.921 317.263C453.932 317.35 455.519 318.667 455.519 320.247Z" fill="#67AEC1"/>
<path d="M445.361 320.247C445.361 321.915 443.773 323.231 441.763 323.231C439.752 323.231 438.165 321.915 438.165 320.247C438.165 318.579 439.752 317.263 441.763 317.263C443.773 317.263 445.361 318.667 445.361 320.247Z" fill="#67AEC1"/>
<path d="M475.942 349.124C475.942 350.791 474.354 352.108 472.344 352.108C470.333 352.108 468.746 350.791 468.746 349.124C468.746 347.456 470.333 346.139 472.344 346.139C474.354 346.139 475.942 347.544 475.942 349.124Z" fill="#67AEC1"/>
<path d="M465.782 349.124C465.782 350.791 464.195 352.108 462.185 352.108C460.174 352.108 458.587 350.791 458.587 349.124C458.587 347.456 460.174 346.139 462.185 346.139C464.195 346.227 465.782 347.544 465.782 349.124Z" fill="#67AEC1"/>
<path d="M455.519 349.124C455.519 350.791 453.932 352.108 451.921 352.108C449.91 352.108 448.323 350.791 448.323 349.124C448.323 347.456 449.91 346.139 451.921 346.139C453.932 346.227 455.519 347.544 455.519 349.124Z" fill="#67AEC1"/>
<path d="M445.361 349.124C445.361 350.791 443.773 352.108 441.763 352.108C439.752 352.108 438.165 350.791 438.165 349.124C438.165 347.456 439.752 346.139 441.763 346.139C443.773 346.139 445.361 347.544 445.361 349.124Z" fill="#67AEC1"/>
<path d="M475.942 378C475.942 379.668 474.354 380.985 472.344 380.985C470.333 380.985 468.746 379.668 468.746 378C468.746 376.333 470.333 375.016 472.344 375.016C474.354 375.016 475.942 376.42 475.942 378Z" fill="#67AEC1"/>
<path d="M465.782 378C465.782 379.668 464.195 380.985 462.185 380.985C460.174 380.985 458.587 379.668 458.587 378C458.587 376.333 460.174 375.016 462.185 375.016C464.195 375.104 465.782 376.42 465.782 378Z" fill="#67AEC1"/>
<path d="M455.519 378C455.519 379.668 453.932 380.985 451.921 380.985C449.91 380.985 448.323 379.668 448.323 378C448.323 376.333 449.91 375.016 451.921 375.016C453.932 375.104 455.519 376.42 455.519 378Z" fill="#67AEC1"/>
<path d="M445.361 378C445.361 379.668 443.773 380.984 441.763 380.984C439.752 380.984 438.165 379.668 438.165 378C438.165 376.333 439.752 375.016 441.763 375.016C443.773 375.016 445.361 376.42 445.361 378Z" fill="#67AEC1"/>
<path d="M472.343 409.861C474.33 409.861 475.941 408.525 475.941 406.877C475.941 405.229 474.33 403.893 472.343 403.893C470.356 403.893 468.745 405.229 468.745 406.877C468.745 408.525 470.356 409.861 472.343 409.861Z" fill="#67AEC1"/>
<path d="M465.783 406.877C465.783 408.545 464.196 409.861 462.186 409.861C460.175 409.861 458.588 408.545 458.588 406.877C458.588 405.209 460.175 403.893 462.186 403.893C464.196 403.981 465.783 405.297 465.783 406.877Z" fill="#67AEC1"/>
<path d="M455.519 406.877C455.519 408.545 453.932 409.861 451.921 409.861C449.91 409.861 448.323 408.545 448.323 406.877C448.323 405.209 449.91 403.893 451.921 403.893C453.932 403.981 455.519 405.297 455.519 406.877Z" fill="#67AEC1"/>
<path d="M441.868 409.861C443.855 409.861 445.466 408.525 445.466 406.877C445.466 405.229 443.855 403.893 441.868 403.893C439.881 403.893 438.271 405.229 438.271 406.877C438.271 408.525 439.881 409.861 441.868 409.861Z" fill="#67AEC1"/>
<path d="M472.343 438.738C474.33 438.738 475.941 437.402 475.941 435.754C475.941 434.106 474.33 432.77 472.343 432.77C470.356 432.77 468.745 434.106 468.745 435.754C468.745 437.402 470.356 438.738 472.343 438.738Z" fill="#67AEC1"/>
<path d="M465.783 435.754C465.783 437.421 464.196 438.738 462.186 438.738C460.175 438.738 458.588 437.421 458.588 435.754C458.588 434.086 460.175 432.77 462.186 432.77C464.196 432.857 465.783 434.174 465.783 435.754Z" fill="#67AEC1"/>
<path d="M455.519 435.754C455.519 437.421 453.932 438.738 451.921 438.738C449.91 438.738 448.323 437.421 448.323 435.754C448.323 434.086 449.91 432.77 451.921 432.77C453.932 432.857 455.519 434.174 455.519 435.754Z" fill="#67AEC1"/>
<path d="M441.868 438.738C443.855 438.738 445.466 437.402 445.466 435.754C445.466 434.106 443.855 432.77 441.868 432.77C439.881 432.77 438.271 434.106 438.271 435.754C438.271 437.402 439.881 438.738 441.868 438.738Z" fill="#67AEC1"/>
<path d="M423.457 240.024C427.723 240.024 431.182 237.155 431.182 233.617C431.182 230.078 427.723 227.209 423.457 227.209C419.191 227.209 415.732 230.078 415.732 233.617C415.732 237.155 419.191 240.024 423.457 240.024Z" fill="#60DBF3"/>
<path d="M423.457 268.901C427.723 268.901 431.182 266.032 431.182 262.493C431.182 258.955 427.723 256.086 423.457 256.086C419.191 256.086 415.732 258.955 415.732 262.493C415.732 266.032 419.191 268.901 423.457 268.901Z" fill="#60DBF3"/>
<path d="M431.055 292.435C431.736 288.942 428.875 285.652 424.664 285.087C420.453 284.521 416.486 286.894 415.805 290.387C415.123 293.88 417.984 297.17 422.195 297.736C426.406 298.301 430.373 295.928 431.055 292.435Z" fill="#60DBF3"/>
<path d="M431.055 321.31C431.736 317.817 428.875 314.527 424.664 313.962C420.453 313.396 416.486 315.769 415.805 319.262C415.123 322.755 417.984 326.045 422.195 326.611C426.406 327.176 430.373 324.803 431.055 321.31Z" fill="#60DBF3"/>
<path d="M426.395 355.06C430.34 353.711 432.22 349.966 430.595 346.694C428.969 343.422 424.454 341.863 420.509 343.211C416.565 344.56 414.685 348.305 416.31 351.577C417.936 354.849 422.451 356.408 426.395 355.06Z" fill="#60DBF3"/>
<path d="M426.397 383.937C430.342 382.589 432.222 378.843 430.597 375.572C428.971 372.3 424.456 370.74 420.511 372.089C416.567 373.437 414.687 377.182 416.312 380.454C417.938 383.726 422.453 385.285 426.397 383.937Z" fill="#60DBF3"/>
<path d="M423.457 413.284C427.723 413.284 431.182 410.416 431.182 406.877C431.182 403.338 427.723 400.47 423.457 400.47C419.191 400.47 415.732 403.338 415.732 406.877C415.732 410.416 419.191 413.284 423.457 413.284Z" fill="#60DBF3"/>
<path d="M423.457 442.161C427.723 442.161 431.182 439.292 431.182 435.754C431.182 432.215 427.723 429.346 423.457 429.346C419.191 429.346 415.732 432.215 415.732 435.754C415.732 439.292 419.191 442.161 423.457 442.161Z" fill="#60DBF3"/>
<path d="M727.466 452.606H603.344V464.718H727.466V452.606Z" fill="#5CDBF5"/>
<path d="M727.452 464.709H748.086V452.597H727.452V464.709Z" fill="#60DBF3"/>
<path d="M727.361 238.444H596.36V452.518H727.361V238.444Z" fill="#67AEC1"/>
<path d="M745.879 236.689H605.566V238.532H745.879V236.689Z" fill="#5CDBF5"/>
<path d="M727.363 452.64H754.981V238.566H727.363V452.64Z" fill="#5CDBF5"/>
<path d="M599.665 264.486H724.211V241.051H599.665V264.486Z" fill="#5CDBF5"/>
<path d="M599.665 449.892H724.211V426.457H599.665V449.892Z" fill="#5CDBF5"/>
<path d="M599.665 423.431H724.211V399.996H599.665V423.431Z" fill="#5CDBF5"/>
<path d="M599.665 396.969H724.211V373.534H599.665V396.969Z" fill="#5CDBF5"/>
<path d="M599.665 370.42H724.211V346.985H599.665V370.42Z" fill="#5CDBF5"/>
<path d="M599.665 343.958H724.211V320.524H599.665V343.958Z" fill="#5CDBF5"/>
<path d="M599.665 317.497H724.211V294.062H599.665V317.497Z" fill="#5CDBF5"/>
<path d="M599.665 291.035H724.211V267.6H599.665V291.035Z" fill="#5CDBF5"/>
<path d="M607.895 261.177H667.893C670.221 261.177 672.125 259.597 672.125 257.666V247.836C672.125 245.905 670.221 244.325 667.893 244.325H607.895C605.567 244.325 603.662 245.905 603.662 247.836V257.666C603.662 259.597 605.567 261.177 607.895 261.177Z" fill="#60DBF3"/>
<path d="M612.339 253.892V251.698C612.339 251.083 611.81 250.644 611.069 250.644H608.212C607.471 250.644 606.942 251.083 606.942 251.698V253.892C606.942 254.506 607.471 254.945 608.212 254.945H611.069C611.81 254.945 612.339 254.419 612.339 253.892Z" fill="#67AEC1"/>
<path d="M607.895 287.684H667.893C670.221 287.684 672.125 286.104 672.125 284.173V274.343C672.125 272.412 670.221 270.832 667.893 270.832H607.895C605.567 270.832 603.662 272.412 603.662 274.343V284.173C603.662 286.104 605.567 287.684 607.895 287.684Z" fill="#60DBF3"/>
<path d="M612.339 280.399V278.204C612.339 277.59 611.81 277.151 611.069 277.151H608.212C607.471 277.151 606.942 277.59 606.942 278.204V280.399C606.942 281.013 607.471 281.452 608.212 281.452H611.069C611.81 281.364 612.339 280.925 612.339 280.399Z" fill="#67AEC1"/>
<path d="M607.895 314.103H667.893C670.221 314.103 672.125 312.523 672.125 310.592V300.762C672.125 298.831 670.221 297.251 667.893 297.251H607.895C605.567 297.251 603.662 298.831 603.662 300.762V310.592C603.662 312.523 605.567 314.103 607.895 314.103Z" fill="#60DBF3"/>
<path d="M612.339 306.818V304.624C612.339 304.009 611.81 303.57 611.069 303.57H608.212C607.471 303.57 606.942 304.009 606.942 304.624V306.818C606.942 307.432 607.471 307.871 608.212 307.871H611.069C611.81 307.871 612.339 307.432 612.339 306.818Z" fill="#67AEC1"/>
<path d="M607.895 340.61H667.893C670.221 340.61 672.125 339.03 672.125 337.099V327.269C672.125 325.338 670.221 323.758 667.893 323.758H607.895C605.567 323.758 603.662 325.338 603.662 327.269V337.099C603.662 339.03 605.567 340.61 607.895 340.61Z" fill="#60DBF3"/>
<path d="M612.339 333.325V331.131C612.339 330.516 611.81 330.077 611.069 330.077H608.212C607.471 330.077 606.942 330.516 606.942 331.131V333.325C606.942 333.939 607.471 334.378 608.212 334.378H611.069C611.81 334.378 612.339 333.939 612.339 333.325Z" fill="#67AEC1"/>
<path d="M607.895 367.117H667.893C670.221 367.117 672.125 365.537 672.125 363.606V353.775C672.125 351.844 670.221 350.265 667.893 350.265H607.895C605.567 350.265 603.662 351.844 603.662 353.775V363.606C603.662 365.537 605.567 367.117 607.895 367.117Z" fill="#60DBF3"/>
<path d="M612.339 359.832V357.637C612.339 357.023 611.81 356.584 611.069 356.584H608.212C607.471 356.584 606.942 357.023 606.942 357.637V359.832C606.942 360.446 607.471 360.885 608.212 360.885H611.069C611.81 360.885 612.339 360.358 612.339 359.832Z" fill="#67AEC1"/>
<path d="M607.895 393.624H667.893C670.221 393.624 672.125 392.044 672.125 390.113V380.282C672.125 378.351 670.221 376.772 667.893 376.772H607.895C605.567 376.772 603.662 378.351 603.662 380.282V390.113C603.662 392.044 605.567 393.624 607.895 393.624Z" fill="#60DBF3"/>
<path d="M612.339 386.339V384.144C612.339 383.53 611.81 383.091 611.069 383.091H608.212C607.471 383.091 606.942 383.53 606.942 384.144V386.339C606.942 386.953 607.471 387.392 608.212 387.392H611.069C611.81 387.304 612.339 386.865 612.339 386.339Z" fill="#67AEC1"/>
<path d="M607.895 420.043H667.893C670.221 420.043 672.125 418.463 672.125 416.532V406.701C672.125 404.771 670.221 403.191 667.893 403.191H607.895C605.567 403.191 603.662 404.771 603.662 406.701V416.532C603.662 418.463 605.567 420.043 607.895 420.043Z" fill="#60DBF3"/>
<path d="M612.339 412.758V410.563C612.339 409.949 611.81 409.51 611.069 409.51H608.212C607.471 409.51 606.942 409.949 606.942 410.563V412.758C606.942 413.372 607.471 413.811 608.212 413.811H611.069C611.81 413.811 612.339 413.372 612.339 412.758Z" fill="#67AEC1"/>
<path d="M607.895 446.55H667.893C670.221 446.55 672.125 444.97 672.125 443.039V433.208C672.125 431.277 670.221 429.698 667.893 429.698H607.895C605.567 429.698 603.662 431.277 603.662 433.208V443.039C603.662 444.97 605.567 446.55 607.895 446.55Z" fill="#60DBF3"/>
<path d="M612.339 439.265V437.07C612.339 436.456 611.81 436.017 611.069 436.017H608.212C607.471 436.017 606.942 436.456 606.942 437.07V439.265C606.942 439.879 607.471 440.318 608.212 440.318H611.069C611.81 440.318 612.339 439.879 612.339 439.265Z" fill="#67AEC1"/>
<path d="M620.593 253.892V251.698C620.593 251.083 620.064 250.644 619.323 250.644H616.466C615.725 250.644 615.196 251.083 615.196 251.698V253.892C615.196 254.506 615.725 254.945 616.466 254.945H619.323C620.064 254.945 620.593 254.419 620.593 253.892Z" fill="#67AEC1"/>
<path d="M620.593 280.399V278.204C620.593 277.59 620.064 277.151 619.323 277.151H616.466C615.725 277.151 615.196 277.59 615.196 278.204V280.399C615.196 281.013 615.725 281.452 616.466 281.452H619.323C620.064 281.364 620.593 280.925 620.593 280.399Z" fill="#67AEC1"/>
<path d="M620.593 306.818V304.624C620.593 304.009 620.064 303.57 619.323 303.57H616.466C615.725 303.57 615.196 304.009 615.196 304.624V306.818C615.196 307.432 615.725 307.871 616.466 307.871H619.323C620.064 307.871 620.593 307.432 620.593 306.818Z" fill="#67AEC1"/>
<path d="M620.593 333.325V331.131C620.593 330.516 620.064 330.077 619.323 330.077H616.466C615.725 330.077 615.196 330.516 615.196 331.131V333.325C615.196 333.939 615.725 334.378 616.466 334.378H619.323C620.064 334.378 620.593 333.939 620.593 333.325Z" fill="#67AEC1"/>
<path d="M620.593 359.832V357.637C620.593 357.023 620.064 356.584 619.323 356.584H616.466C615.725 356.584 615.196 357.023 615.196 357.637V359.832C615.196 360.446 615.725 360.885 616.466 360.885H619.323C620.064 360.885 620.593 360.358 620.593 359.832Z" fill="#67AEC1"/>
<path d="M620.593 386.339V384.144C620.593 383.53 620.064 383.091 619.323 383.091H616.466C615.725 383.091 615.196 383.53 615.196 384.144V386.339C615.196 386.953 615.725 387.392 616.466 387.392H619.323C620.064 387.304 620.593 386.865 620.593 386.339Z" fill="#67AEC1"/>
<path d="M620.593 412.758V410.563C620.593 409.949 620.064 409.51 619.323 409.51H616.466C615.725 409.51 615.196 409.949 615.196 410.563V412.758C615.196 413.372 615.725 413.811 616.466 413.811H619.323C620.064 413.811 620.593 413.372 620.593 412.758Z" fill="#67AEC1"/>
<path d="M620.593 439.265V437.07C620.593 436.456 620.064 436.017 619.323 436.017H616.466C615.725 436.017 615.196 436.456 615.196 437.07V439.265C615.196 439.879 615.725 440.318 616.466 440.318H619.323C620.064 440.318 620.593 439.879 620.593 439.265Z" fill="#67AEC1"/>
<path d="M628.846 253.892V251.698C628.846 251.083 628.317 250.644 627.576 250.644H624.719C623.978 250.644 623.449 251.083 623.449 251.698V253.892C623.449 254.506 623.978 254.945 624.719 254.945H627.576C628.211 254.945 628.846 254.419 628.846 253.892Z" fill="#67AEC1"/>
<path d="M628.846 280.399V278.204C628.846 277.59 628.317 277.151 627.576 277.151H624.719C623.978 277.151 623.449 277.59 623.449 278.204V280.399C623.449 281.013 623.978 281.452 624.719 281.452H627.576C628.211 281.364 628.846 280.925 628.846 280.399Z" fill="#67AEC1"/>
<path d="M628.846 306.818V304.624C628.846 304.009 628.317 303.57 627.576 303.57H624.719C623.978 303.57 623.449 304.009 623.449 304.624V306.818C623.449 307.432 623.978 307.871 624.719 307.871H627.576C628.211 307.871 628.846 307.432 628.846 306.818Z" fill="#67AEC1"/>
<path d="M628.846 333.325V331.131C628.846 330.516 628.317 330.077 627.576 330.077H624.719C623.978 330.077 623.449 330.516 623.449 331.131V333.325C623.449 333.939 623.978 334.378 624.719 334.378H627.576C628.211 334.378 628.846 333.939 628.846 333.325Z" fill="#67AEC1"/>
<path d="M628.846 359.832V357.637C628.846 357.023 628.317 356.584 627.576 356.584H624.719C623.978 356.584 623.449 357.023 623.449 357.637V359.832C623.449 360.446 623.978 360.885 624.719 360.885H627.576C628.211 360.885 628.846 360.358 628.846 359.832Z" fill="#67AEC1"/>
<path d="M628.846 386.339V384.144C628.846 383.53 628.317 383.091 627.576 383.091H624.719C623.978 383.091 623.449 383.53 623.449 384.144V386.339C623.449 386.953 623.978 387.392 624.719 387.392H627.576C628.211 387.304 628.846 386.865 628.846 386.339Z" fill="#67AEC1"/>
<path d="M628.846 412.758V410.563C628.846 409.949 628.317 409.51 627.576 409.51H624.719C623.978 409.51 623.449 409.949 623.449 410.563V412.758C623.449 413.372 623.978 413.811 624.719 413.811H627.576C628.211 413.811 628.846 413.372 628.846 412.758Z" fill="#67AEC1"/>
<path d="M628.846 439.265V437.07C628.846 436.456 628.317 436.017 627.576 436.017H624.719C623.978 436.017 623.449 436.456 623.449 437.07V439.265C623.449 439.879 623.978 440.318 624.719 440.318H627.576C628.211 440.318 628.846 439.879 628.846 439.265Z" fill="#67AEC1"/>
<path d="M637.1 253.892V251.698C637.1 251.083 636.571 250.644 635.83 250.644H632.973C632.232 250.644 631.703 251.083 631.703 251.698V253.892C631.703 254.506 632.232 254.945 632.973 254.945H635.83C636.465 254.945 637.1 254.419 637.1 253.892Z" fill="#67AEC1"/>
<path d="M637.1 280.399V278.204C637.1 277.59 636.571 277.151 635.83 277.151H632.973C632.232 277.151 631.703 277.59 631.703 278.204V280.399C631.703 281.013 632.232 281.452 632.973 281.452H635.83C636.465 281.364 637.1 280.925 637.1 280.399Z" fill="#67AEC1"/>
<path d="M637.1 306.818V304.624C637.1 304.009 636.571 303.57 635.83 303.57H632.973C632.232 303.57 631.703 304.009 631.703 304.624V306.818C631.703 307.432 632.232 307.871 632.973 307.871H635.83C636.465 307.871 637.1 307.432 637.1 306.818Z" fill="#67AEC1"/>
<path d="M637.1 333.325V331.131C637.1 330.516 636.571 330.077 635.83 330.077H632.973C632.232 330.077 631.703 330.516 631.703 331.131V333.325C631.703 333.939 632.232 334.378 632.973 334.378H635.83C636.465 334.378 637.1 333.939 637.1 333.325Z" fill="#67AEC1"/>
<path d="M637.1 359.832V357.637C637.1 357.023 636.571 356.584 635.83 356.584H632.973C632.232 356.584 631.703 357.023 631.703 357.637V359.832C631.703 360.446 632.232 360.885 632.973 360.885H635.83C636.465 360.885 637.1 360.358 637.1 359.832Z" fill="#67AEC1"/>
<path d="M637.1 386.339V384.144C637.1 383.53 636.571 383.091 635.83 383.091H632.973C632.232 383.091 631.703 383.53 631.703 384.144V386.339C631.703 386.953 632.232 387.392 632.973 387.392H635.83C636.465 387.304 637.1 386.865 637.1 386.339Z" fill="#67AEC1"/>
<path d="M637.1 412.758V410.563C637.1 409.949 636.571 409.51 635.83 409.51H632.973C632.232 409.51 631.703 409.949 631.703 410.563V412.758C631.703 413.372 632.232 413.811 632.973 413.811H635.83C636.465 413.811 637.1 413.372 637.1 412.758Z" fill="#67AEC1"/>
<path d="M637.1 439.265V437.07C637.1 436.456 636.571 436.017 635.83 436.017H632.973C632.232 436.017 631.703 436.456 631.703 437.07V439.265C631.703 439.879 632.232 440.318 632.973 440.318H635.83C636.465 440.318 637.1 439.879 637.1 439.265Z" fill="#67AEC1"/>
<path d="M678.896 252.751C678.896 254.243 680.378 255.472 682.283 255.472C684.187 255.472 685.669 254.243 685.669 252.751C685.669 251.259 684.187 250.03 682.283 250.03C680.378 250.118 678.896 251.259 678.896 252.751Z" fill="#67AEC1"/>
<path d="M688.525 252.751C688.525 254.243 690.007 255.472 691.911 255.472C693.816 255.472 695.298 254.243 695.298 252.751C695.298 251.259 693.816 250.03 691.911 250.03C690.113 250.118 688.525 251.259 688.525 252.751Z" fill="#67AEC1"/>
<path d="M698.262 252.751C698.262 254.243 699.743 255.472 701.648 255.472C703.553 255.472 705.034 254.243 705.034 252.751C705.034 251.259 703.553 250.03 701.648 250.03C699.743 250.118 698.262 251.259 698.262 252.751Z" fill="#67AEC1"/>
<path d="M707.89 252.751C707.89 254.243 709.371 255.472 711.276 255.472C713.18 255.472 714.662 254.243 714.662 252.751C714.662 251.259 713.18 250.03 711.276 250.03C709.371 250.118 707.89 251.259 707.89 252.751Z" fill="#67AEC1"/>
<path d="M678.896 279.258C678.896 280.75 680.378 281.979 682.283 281.979C684.187 281.979 685.669 280.75 685.669 279.258C685.669 277.766 684.187 276.537 682.283 276.537C680.378 276.537 678.896 277.766 678.896 279.258Z" fill="#67AEC1"/>
<path d="M688.525 279.258C688.525 280.75 690.007 281.979 691.911 281.979C693.816 281.979 695.298 280.75 695.298 279.258C695.298 277.766 693.816 276.537 691.911 276.537C690.113 276.537 688.525 277.766 688.525 279.258Z" fill="#67AEC1"/>
<path d="M698.262 279.258C698.262 280.75 699.743 281.979 701.648 281.979C703.553 281.979 705.034 280.75 705.034 279.258C705.034 277.766 703.553 276.537 701.648 276.537C699.743 276.537 698.262 277.766 698.262 279.258Z" fill="#67AEC1"/>
<path d="M707.89 279.258C707.89 280.75 709.371 281.979 711.276 281.979C713.18 281.979 714.662 280.75 714.662 279.258C714.662 277.766 713.18 276.537 711.276 276.537C709.371 276.537 707.89 277.766 707.89 279.258Z" fill="#67AEC1"/>
<path d="M678.896 305.765C678.896 307.257 680.378 308.486 682.283 308.486C684.187 308.486 685.669 307.257 685.669 305.765C685.669 304.273 684.187 303.044 682.283 303.044C680.378 303.044 678.896 304.273 678.896 305.765Z" fill="#67AEC1"/>
<path d="M688.525 305.765C688.525 307.257 690.007 308.486 691.911 308.486C693.816 308.486 695.298 307.257 695.298 305.765C695.298 304.273 693.816 303.044 691.911 303.044C690.113 303.044 688.525 304.273 688.525 305.765Z" fill="#67AEC1"/>
<path d="M698.262 305.765C698.262 307.257 699.743 308.486 701.648 308.486C703.553 308.486 705.034 307.257 705.034 305.765C705.034 304.273 703.553 303.044 701.648 303.044C699.743 303.044 698.262 304.273 698.262 305.765Z" fill="#67AEC1"/>
<path d="M707.89 305.765C707.89 307.257 709.371 308.486 711.276 308.486C713.18 308.486 714.662 307.257 714.662 305.765C714.662 304.273 713.18 303.044 711.276 303.044C709.371 303.044 707.89 304.273 707.89 305.765Z" fill="#67AEC1"/>
<path d="M678.896 332.272C678.896 333.764 680.378 334.992 682.283 334.992C684.187 334.992 685.669 333.764 685.669 332.272C685.669 330.779 684.187 329.551 682.283 329.551C680.378 329.551 678.896 330.779 678.896 332.272Z" fill="#67AEC1"/>
<path d="M688.525 332.272C688.525 333.764 690.007 334.992 691.911 334.992C693.816 334.992 695.298 333.764 695.298 332.272C695.298 330.779 693.816 329.551 691.911 329.551C690.113 329.551 688.525 330.779 688.525 332.272Z" fill="#67AEC1"/>
<path d="M698.262 332.272C698.262 333.764 699.743 334.992 701.648 334.992C703.553 334.992 705.034 333.764 705.034 332.272C705.034 330.779 703.553 329.551 701.648 329.551C699.743 329.551 698.262 330.779 698.262 332.272Z" fill="#67AEC1"/>
<path d="M707.89 332.272C707.89 333.764 709.371 334.992 711.276 334.992C713.18 334.992 714.662 333.764 714.662 332.272C714.662 330.779 713.18 329.551 711.276 329.551C709.371 329.551 707.89 330.779 707.89 332.272Z" fill="#67AEC1"/>
<path d="M678.896 358.691C678.896 360.183 680.378 361.412 682.283 361.412C684.187 361.412 685.669 360.183 685.669 358.691C685.669 357.199 684.187 355.97 682.283 355.97C680.378 355.97 678.896 357.199 678.896 358.691Z" fill="#67AEC1"/>
<path d="M688.525 358.691C688.525 360.183 690.007 361.412 691.911 361.412C693.816 361.412 695.298 360.183 695.298 358.691C695.298 357.199 693.816 355.97 691.911 355.97C690.113 355.97 688.525 357.199 688.525 358.691Z" fill="#67AEC1"/>
<path d="M698.262 358.691C698.262 360.183 699.743 361.412 701.648 361.412C703.553 361.412 705.034 360.183 705.034 358.691C705.034 357.199 703.553 355.97 701.648 355.97C699.743 355.97 698.262 357.199 698.262 358.691Z" fill="#67AEC1"/>
<path d="M707.89 358.691C707.89 360.183 709.371 361.412 711.276 361.412C713.18 361.412 714.662 360.183 714.662 358.691C714.662 357.199 713.18 355.97 711.276 355.97C709.371 355.97 707.89 357.199 707.89 358.691Z" fill="#67AEC1"/>
<path d="M678.896 385.198C678.896 386.69 680.378 387.918 682.283 387.918C684.187 387.918 685.669 386.69 685.669 385.198C685.669 383.705 684.187 382.477 682.283 382.477C680.378 382.477 678.896 383.705 678.896 385.198Z" fill="#67AEC1"/>
<path d="M688.525 385.198C688.525 386.69 690.007 387.918 691.911 387.918C693.816 387.918 695.298 386.69 695.298 385.198C695.298 383.705 693.816 382.477 691.911 382.477C690.113 382.477 688.525 383.705 688.525 385.198Z" fill="#67AEC1"/>
<path d="M698.262 385.198C698.262 386.69 699.743 387.918 701.648 387.918C703.553 387.918 705.034 386.69 705.034 385.198C705.034 383.705 703.553 382.477 701.648 382.477C699.743 382.477 698.262 383.705 698.262 385.198Z" fill="#67AEC1"/>
<path d="M707.89 385.198C707.89 386.69 709.371 387.918 711.276 387.918C713.18 387.918 714.662 386.69 714.662 385.198C714.662 383.705 713.18 382.477 711.276 382.477C709.371 382.477 707.89 383.705 707.89 385.198Z" fill="#67AEC1"/>
<path d="M678.896 411.704C678.896 413.197 680.378 414.425 682.283 414.425C684.187 414.425 685.669 413.197 685.669 411.704C685.669 410.212 684.187 408.984 682.283 408.984C680.378 408.984 678.896 410.212 678.896 411.704Z" fill="#67AEC1"/>
<path d="M688.525 411.704C688.525 413.197 690.007 414.425 691.911 414.425C693.816 414.425 695.298 413.197 695.298 411.704C695.298 410.212 693.816 408.984 691.911 408.984C690.113 408.984 688.525 410.212 688.525 411.704Z" fill="#67AEC1"/>
<path d="M698.262 411.704C698.262 413.197 699.743 414.425 701.648 414.425C703.553 414.425 705.034 413.197 705.034 411.704C705.034 410.212 703.553 408.984 701.648 408.984C699.743 408.984 698.262 410.212 698.262 411.704Z" fill="#67AEC1"/>
<path d="M707.89 411.704C707.89 413.197 709.371 414.425 711.276 414.425C713.18 414.425 714.662 413.197 714.662 411.704C714.662 410.212 713.18 408.984 711.276 408.984C709.371 408.984 707.89 410.212 707.89 411.704Z" fill="#67AEC1"/>
<path d="M678.896 438.211C678.896 439.703 680.378 440.932 682.283 440.932C684.187 440.932 685.669 439.703 685.669 438.211C685.669 436.719 684.187 435.49 682.283 435.49C680.378 435.49 678.896 436.719 678.896 438.211Z" fill="#67AEC1"/>
<path d="M688.525 438.211C688.525 439.703 690.007 440.932 691.911 440.932C693.816 440.932 695.298 439.703 695.298 438.211C695.298 436.719 693.816 435.49 691.911 435.49C690.113 435.49 688.525 436.719 688.525 438.211Z" fill="#67AEC1"/>
<path d="M698.262 438.211C698.262 439.703 699.743 440.932 701.648 440.932C703.553 440.932 705.034 439.703 705.034 438.211C705.034 436.719 703.553 435.49 701.648 435.49C699.743 435.49 698.262 436.719 698.262 438.211Z" fill="#67AEC1"/>
<path d="M707.89 438.211C707.89 439.703 709.371 440.932 711.276 440.932C713.18 440.932 714.662 439.703 714.662 438.211C714.662 436.719 713.18 435.49 711.276 435.49C709.371 435.49 707.89 436.719 707.89 438.211Z" fill="#67AEC1"/>
<path d="M581.759 558.231C695.075 558.231 786.936 553.041 786.936 546.64C786.936 540.238 695.075 535.049 581.759 535.049C468.442 535.049 376.581 540.238 376.581 546.64C376.581 553.041 468.442 558.231 581.759 558.231Z" fill="#5CDBF5"/>
<path d="M566.734 533.92H443.035V547.563H566.734V533.92Z" fill="#0053CC"/>
<g opacity="0.2">
<path opacity="0.2" d="M449.278 535.869H446.209V545.614H449.278V535.869Z" fill="#0F264C"/>
<path opacity="0.2" d="M454.78 535.869H451.711V545.614H454.78V535.869Z" fill="#0F264C"/>
<path opacity="0.2" d="M460.176 535.869H457.107V545.614H460.176V535.869Z" fill="#0F264C"/>
<path opacity="0.2" d="M465.574 535.869H462.505V545.614H465.574V535.869Z" fill="#0F264C"/>
<path opacity="0.2" d="M471.076 535.869H468.008V545.614H471.076V535.869Z" fill="#0F264C"/>
<path opacity="0.2" d="M476.472 535.869H473.403V545.614H476.472V535.869Z" fill="#0F264C"/>
<path opacity="0.2" d="M481.975 535.869H478.906V545.614H481.975V535.869Z" fill="#0F264C"/>
<path opacity="0.2" d="M487.371 535.869H484.303V545.614H487.371V535.869Z" fill="#0F264C"/>
<path opacity="0.2" d="M492.873 535.869H489.805V545.614H492.873V535.869Z" fill="#0F264C"/>
<path opacity="0.2" d="M498.271 535.869H495.202V545.614H498.271V535.869Z" fill="#0F264C"/>
<path opacity="0.2" d="M503.667 535.869H500.599V545.614H503.667V535.869Z" fill="#0F264C"/>
<path opacity="0.2" d="M509.169 535.869H506.101V545.614H509.169V535.869Z" fill="#0F264C"/>
<path opacity="0.2" d="M514.566 535.869H511.497V545.614H514.566V535.869Z" fill="#0F264C"/>
<path opacity="0.2" d="M520.07 535.869H517.001V545.614H520.07V535.869Z" fill="#0F264C"/>
<path opacity="0.2" d="M525.465 535.869H522.396V545.614H525.465V535.869Z" fill="#0F264C"/>
<path opacity="0.2" d="M530.968 535.869H527.899V545.614H530.968V535.869Z" fill="#0F264C"/>
<path opacity="0.2" d="M536.365 535.869H533.296V545.614H536.365V535.869Z" fill="#0F264C"/>
<path opacity="0.2" d="M541.761 535.869H538.692V545.614H541.761V535.869Z" fill="#0F264C"/>
<path opacity="0.2" d="M547.264 535.869H544.195V545.614H547.264V535.869Z" fill="#0F264C"/>
<path opacity="0.2" d="M552.66 535.869H549.592V545.614H552.66V535.869Z" fill="#0F264C"/>
<path opacity="0.2" d="M558.162 535.869H555.094V545.614H558.162V535.869Z" fill="#0F264C"/>
<path opacity="0.2" d="M563.559 535.869H560.49V545.614H563.559V535.869Z" fill="#0F264C"/>
</g>
<path d="M566.808 547.611H586.066V533.968H566.808V547.611Z" fill="#0050AF"/>
<path d="M566.735 292.043H436.581V533.92H566.735V292.043Z" fill="#4EA4F9"/>
<path d="M583.983 289.992H445.152V292.043H583.983V289.992Z" fill="#0D6AB7"/>
<path d="M432.454 404.776H431.396V414.931H432.454V404.776Z" fill="#197BDD"/>
<path d="M432.454 418.418H431.396V444.883H432.454V418.418Z" fill="#197BDD"/>
<path d="M566.792 533.972H592.505V292.095H566.792V533.972Z" fill="#197BDD"/>
<path opacity="0.6" d="M560.278 380.054H443.034C441.129 380.054 439.542 378.516 439.542 376.669V359.334C439.542 357.487 441.129 355.949 443.034 355.949H560.278C562.183 355.949 563.77 357.487 563.77 359.334V376.669C563.77 378.516 562.183 380.054 560.278 380.054Z" fill="#0D6AB7"/>
<path d="M553.296 364.873L548.322 354.82V381.285H553.507H554.883H563.771V368.053H558.586C556.364 368.053 554.248 366.822 553.296 364.873Z" fill="#197BDD"/>
<path d="M563.771 295.018H439.648V321.483H563.771V295.018Z" fill="#2B97EF"/>
<path d="M563.771 504.378H439.648V530.843H563.771V504.378Z" fill="#2B97EF"/>
<path d="M563.771 474.426H439.648V500.89H563.771V474.426Z" fill="#2B97EF"/>
<path d="M563.771 444.576H439.648V471.041H563.771V444.576Z" fill="#2B97EF"/>
<path d="M563.771 414.623H439.648V441.088H563.771V414.623Z" fill="#2B97EF"/>
<path d="M563.771 384.773H439.648V411.238H563.771V384.773Z" fill="#2B97EF"/>
<path d="M548.322 354.82H424.199V381.285H548.322V354.82Z" fill="#2B97EF"/>
<path d="M563.771 324.868H439.648V351.333H563.771V324.868Z" fill="#2B97EF"/>
<path d="M556.046 317.687H508.852C506.63 317.687 504.831 315.944 504.831 313.79V302.609C504.831 300.454 506.63 298.711 508.852 298.711H556.046C558.268 298.711 560.067 300.454 560.067 302.609V313.79C559.961 315.944 558.162 317.687 556.046 317.687Z" fill="#197BDD"/>
<path opacity="0.2" d="M534.036 308.968V307.43C534.036 306.507 534.777 305.789 535.729 305.789H551.073C552.025 305.789 552.766 306.507 552.766 307.43V308.968C552.766 309.892 552.025 310.61 551.073 310.61H535.729C534.777 310.61 534.036 309.892 534.036 308.968Z" fill="white"/>
<path d="M556.046 347.64H508.852C506.63 347.64 504.831 345.896 504.831 343.742V332.561C504.831 330.407 506.63 328.663 508.852 328.663H556.046C558.268 328.663 560.067 330.407 560.067 332.561V343.742C559.961 345.896 558.162 347.64 556.046 347.64Z" fill="#197BDD"/>
<path opacity="0.2" d="M534.036 338.921V337.382C534.036 336.459 534.777 335.741 535.729 335.741H551.073C552.025 335.741 552.766 336.459 552.766 337.382V338.921C552.766 339.844 552.025 340.562 551.073 340.562H535.729C534.777 340.562 534.036 339.844 534.036 338.921Z" fill="white"/>
<path d="M540.598 377.49H493.404C491.182 377.49 489.383 375.746 489.383 373.592V362.411C489.383 360.257 491.182 358.513 493.404 358.513H540.598C542.82 358.513 544.619 360.257 544.619 362.411V373.592C544.513 375.746 542.714 377.49 540.598 377.49Z" fill="#197BDD"/>
<path opacity="0.2" d="M518.587 368.873V367.335C518.587 366.412 519.328 365.694 520.28 365.694H535.623C536.576 365.694 537.316 366.412 537.316 367.335V368.873C537.316 369.797 536.576 370.515 535.623 370.515H520.28C519.328 370.515 518.587 369.797 518.587 368.873Z" fill="white"/>
<path d="M556.046 407.443H508.852C506.63 407.443 504.831 405.699 504.831 403.545V392.364C504.831 390.21 506.63 388.466 508.852 388.466H556.046C558.268 388.466 560.067 390.21 560.067 392.364V403.545C559.961 405.699 558.162 407.443 556.046 407.443Z" fill="#197BDD"/>
<path opacity="0.2" d="M534.036 398.723V397.185C534.036 396.262 534.777 395.544 535.729 395.544H551.073C552.025 395.544 552.766 396.262 552.766 397.185V398.723C552.766 399.647 552.025 400.365 551.073 400.365H535.729C534.777 400.365 534.036 399.647 534.036 398.723Z" fill="white"/>
<path d="M556.046 437.395H508.852C506.63 437.395 504.831 435.651 504.831 433.497V422.316C504.831 420.162 506.63 418.418 508.852 418.418H556.046C558.268 418.418 560.067 420.162 560.067 422.316V433.497C559.961 435.651 558.162 437.395 556.046 437.395Z" fill="#197BDD"/>
<path opacity="0.2" d="M534.036 428.676V427.137C534.036 426.214 534.777 425.496 535.729 425.496H551.073C552.025 425.496 552.766 426.214 552.766 427.137V428.676C552.766 429.599 552.025 430.317 551.073 430.317H535.729C534.777 430.317 534.036 429.599 534.036 428.676Z" fill="white"/>
<path d="M556.046 467.245H508.852C506.63 467.245 504.831 465.501 504.831 463.347V452.166C504.831 450.012 506.63 448.268 508.852 448.268H556.046C558.268 448.268 560.067 450.012 560.067 452.166V463.347C559.961 465.501 558.162 467.245 556.046 467.245Z" fill="#197BDD"/>
<path opacity="0.2" d="M534.036 458.629V457.09C534.036 456.167 534.777 455.449 535.729 455.449H551.073C552.025 455.449 552.766 456.167 552.766 457.09V458.629C552.766 459.552 552.025 460.27 551.073 460.27H535.729C534.777 460.27 534.036 459.449 534.036 458.629Z" fill="white"/>
<path d="M556.046 497.198H508.852C506.63 497.198 504.831 495.454 504.831 493.3V482.119C504.831 479.965 506.63 478.221 508.852 478.221H556.046C558.268 478.221 560.067 479.965 560.067 482.119V493.3C559.961 495.454 558.162 497.198 556.046 497.198Z" fill="#197BDD"/>
<path opacity="0.2" d="M534.036 488.479V486.94C534.036 486.017 534.777 485.299 535.729 485.299H551.073C552.025 485.299 552.766 486.017 552.766 486.94V488.479C552.766 489.402 552.025 490.12 551.073 490.12H535.729C534.777 490.12 534.036 489.402 534.036 488.479Z" fill="white"/>
<path d="M556.046 527.048H508.852C506.63 527.048 504.831 525.304 504.831 523.15V511.969C504.831 509.815 506.63 508.071 508.852 508.071H556.046C558.268 508.071 560.067 509.815 560.067 511.969V523.15C559.961 525.304 558.162 527.048 556.046 527.048Z" fill="#197BDD"/>
<path opacity="0.2" d="M534.036 518.431V516.893C534.036 515.969 534.777 515.251 535.729 515.251H551.073C552.025 515.251 552.766 515.969 552.766 516.893V518.431C552.766 519.354 552.025 520.072 551.073 520.072H535.729C534.777 520.072 534.036 519.354 534.036 518.431Z" fill="white"/>
<path d="M495.202 311.328C496.955 311.328 498.376 309.95 498.376 308.25C498.376 306.551 496.955 305.173 495.202 305.173C493.449 305.173 492.027 306.551 492.027 308.25C492.027 309.95 493.449 311.328 495.202 311.328Z" fill="#197BDD"/>
<path d="M486.208 311.328C487.961 311.328 489.382 309.95 489.382 308.25C489.382 306.551 487.961 305.173 486.208 305.173C484.454 305.173 483.033 306.551 483.033 308.25C483.033 309.95 484.454 311.328 486.208 311.328Z" fill="#197BDD"/>
<path d="M477.214 311.328C478.967 311.328 480.388 309.95 480.388 308.25C480.388 306.551 478.967 305.173 477.214 305.173C475.46 305.173 474.039 306.551 474.039 308.25C474.039 309.95 475.46 311.328 477.214 311.328Z" fill="#64B9FF"/>
<path d="M471.287 308.25C471.287 309.892 469.912 311.328 468.113 311.328C466.42 311.328 464.938 309.994 464.938 308.25C464.938 306.609 466.314 305.173 468.113 305.173C469.912 305.173 471.287 306.507 471.287 308.25Z" fill="#197BDD"/>
<path d="M495.202 341.28C496.955 341.28 498.376 339.902 498.376 338.203C498.376 336.503 496.955 335.126 495.202 335.126C493.449 335.126 492.027 336.503 492.027 338.203C492.027 339.902 493.449 341.28 495.202 341.28Z" fill="#197BDD"/>
<path d="M486.208 341.28C487.961 341.28 489.382 339.902 489.382 338.203C489.382 336.503 487.961 335.126 486.208 335.126C484.454 335.126 483.033 336.503 483.033 338.203C483.033 339.902 484.454 341.28 486.208 341.28Z" fill="#197BDD"/>
<path d="M477.214 341.28C478.967 341.28 480.388 339.902 480.388 338.203C480.388 336.503 478.967 335.126 477.214 335.126C475.46 335.126 474.039 336.503 474.039 338.203C474.039 339.902 475.46 341.28 477.214 341.28Z" fill="#197BDD"/>
<path d="M471.287 338.203C471.287 339.844 469.912 341.28 468.113 341.28C466.42 341.28 464.938 339.947 464.938 338.203C464.938 336.562 466.314 335.126 468.113 335.126C469.912 335.126 471.287 336.459 471.287 338.203Z" fill="#64B9FF"/>
<path d="M479.753 371.13C481.506 371.13 482.927 369.752 482.927 368.053C482.927 366.353 481.506 364.976 479.753 364.976C477.999 364.976 476.578 366.353 476.578 368.053C476.578 369.752 477.999 371.13 479.753 371.13Z" fill="#64B9FF"/>
<path d="M470.758 371.13C472.512 371.13 473.933 369.752 473.933 368.053C473.933 366.353 472.512 364.976 470.758 364.976C469.005 364.976 467.584 366.353 467.584 368.053C467.584 369.752 469.005 371.13 470.758 371.13Z" fill="#197BDD"/>
<path d="M461.764 371.13C463.518 371.13 464.939 369.752 464.939 368.053C464.939 366.353 463.518 364.976 461.764 364.976C460.011 364.976 458.59 366.353 458.59 368.053C458.59 369.752 460.011 371.13 461.764 371.13Z" fill="#64B9FF"/>
<path d="M452.77 371.13C454.523 371.13 455.945 369.752 455.945 368.053C455.945 366.353 454.523 364.976 452.77 364.976C451.017 364.976 449.596 366.353 449.596 368.053C449.596 369.752 451.017 371.13 452.77 371.13Z" fill="#197BDD"/>
<path d="M495.202 401.083C496.955 401.083 498.376 399.705 498.376 398.005C498.376 396.306 496.955 394.928 495.202 394.928C493.449 394.928 492.027 396.306 492.027 398.005C492.027 399.705 493.449 401.083 495.202 401.083Z" fill="#64B9FF"/>
<path d="M486.208 401.083C487.961 401.083 489.382 399.705 489.382 398.005C489.382 396.306 487.961 394.928 486.208 394.928C484.454 394.928 483.033 396.306 483.033 398.005C483.033 399.705 484.454 401.083 486.208 401.083Z" fill="#64B9FF"/>
<path d="M477.214 401.083C478.967 401.083 480.388 399.705 480.388 398.005C480.388 396.306 478.967 394.928 477.214 394.928C475.46 394.928 474.039 396.306 474.039 398.005C474.039 399.705 475.46 401.083 477.214 401.083Z" fill="#197BDD"/>
<path d="M471.287 398.005C471.287 399.647 469.912 401.083 468.113 401.083C466.42 401.083 464.938 399.749 464.938 398.005C464.938 396.262 466.314 394.928 468.113 394.928C469.912 394.928 471.287 396.262 471.287 398.005Z" fill="#197BDD"/>
<path d="M495.202 430.933C496.955 430.933 498.376 429.555 498.376 427.855C498.376 426.156 496.955 424.778 495.202 424.778C493.449 424.778 492.027 426.156 492.027 427.855C492.027 429.555 493.449 430.933 495.202 430.933Z" fill="#197BDD"/>
<path d="M486.208 430.933C487.961 430.933 489.382 429.555 489.382 427.855C489.382 426.156 487.961 424.778 486.208 424.778C484.454 424.778 483.033 426.156 483.033 427.855C483.033 429.555 484.454 430.933 486.208 430.933Z" fill="#64B9FF"/>
<path d="M477.214 430.933C478.967 430.933 480.388 429.555 480.388 427.855C480.388 426.156 478.967 424.778 477.214 424.778C475.46 424.778 474.039 426.156 474.039 427.855C474.039 429.555 475.46 430.933 477.214 430.933Z" fill="#197BDD"/>
<path d="M471.287 427.855C471.287 429.497 469.912 430.933 468.113 430.933C466.42 430.933 464.938 429.599 464.938 427.855C464.938 426.214 466.314 424.778 468.113 424.778C469.912 424.881 471.287 426.214 471.287 427.855Z" fill="#197BDD"/>
<path d="M495.202 460.885C496.955 460.885 498.376 459.508 498.376 457.808C498.376 456.108 496.955 454.731 495.202 454.731C493.449 454.731 492.027 456.108 492.027 457.808C492.027 459.508 493.449 460.885 495.202 460.885Z" fill="#197BDD"/>
<path d="M486.208 460.885C487.961 460.885 489.382 459.508 489.382 457.808C489.382 456.108 487.961 454.731 486.208 454.731C484.454 454.731 483.033 456.108 483.033 457.808C483.033 459.508 484.454 460.885 486.208 460.885Z" fill="#197BDD"/>
<path d="M477.214 460.885C478.967 460.885 480.388 459.508 480.388 457.808C480.388 456.108 478.967 454.731 477.214 454.731C475.46 454.731 474.039 456.108 474.039 457.808C474.039 459.508 475.46 460.885 477.214 460.885Z" fill="#64B9FF"/>
<path d="M471.287 457.808C471.287 459.449 469.912 460.885 468.113 460.885C466.42 460.885 464.938 459.552 464.938 457.808C464.938 456.064 466.314 454.731 468.113 454.731C469.912 454.731 471.287 456.064 471.287 457.808Z" fill="#64B9FF"/>
<path d="M498.376 487.761C498.376 489.402 497.001 490.838 495.202 490.838C493.403 490.838 492.027 489.504 492.027 487.761C492.027 486.119 493.403 484.683 495.202 484.683C497.001 484.683 498.376 486.017 498.376 487.761Z" fill="#64B9FF"/>
<path d="M489.382 487.761C489.382 489.402 488.007 490.838 486.208 490.838C484.515 490.838 483.033 489.504 483.033 487.761C483.033 486.119 484.409 484.683 486.208 484.683C488.007 484.683 489.382 486.017 489.382 487.761Z" fill="#197BDD"/>
<path d="M480.388 487.761C480.388 489.402 479.012 490.838 477.214 490.838C475.52 490.838 474.039 489.504 474.039 487.761C474.039 486.119 475.415 484.683 477.214 484.683C478.907 484.683 480.388 486.017 480.388 487.761Z" fill="#197BDD"/>
<path d="M471.287 487.76C471.287 489.402 469.912 490.838 468.113 490.838C466.42 490.838 464.938 489.504 464.938 487.76C464.938 486.119 466.314 484.683 468.113 484.683C469.912 484.683 471.287 486.017 471.287 487.76Z" fill="#197BDD"/>
<path d="M495.202 520.688C496.955 520.688 498.376 519.31 498.376 517.61C498.376 515.911 496.955 514.533 495.202 514.533C493.449 514.533 492.027 515.911 492.027 517.61C492.027 519.31 493.449 520.688 495.202 520.688Z" fill="#197BDD"/>
<path d="M486.208 520.688C487.961 520.688 489.382 519.31 489.382 517.61C489.382 515.911 487.961 514.533 486.208 514.533C484.454 514.533 483.033 515.911 483.033 517.61C483.033 519.31 484.454 520.688 486.208 520.688Z" fill="#197BDD"/>
<path d="M477.214 520.688C478.967 520.688 480.388 519.31 480.388 517.61C480.388 515.911 478.967 514.533 477.214 514.533C475.46 514.533 474.039 515.911 474.039 517.61C474.039 519.31 475.46 520.688 477.214 520.688Z" fill="#64B9FF"/>
<path d="M471.287 517.611C471.287 519.252 469.912 520.688 468.113 520.688C466.42 520.688 464.938 519.354 464.938 517.611C464.938 515.867 466.314 514.533 468.113 514.533C469.912 514.533 471.287 515.969 471.287 517.611Z" fill="#197BDD"/>
<path opacity="0.2" d="M458.696 308.25C458.696 311.943 455.627 314.918 451.818 314.918C448.008 314.918 444.939 311.943 444.939 308.25C444.939 304.558 448.008 301.583 451.818 301.583C455.733 301.583 458.696 304.558 458.696 308.25Z" fill="white"/>
<path opacity="0.2" d="M458.696 338.203C458.696 341.896 455.627 344.87 451.818 344.87C448.008 344.87 444.939 341.896 444.939 338.203C444.939 334.51 448.008 331.535 451.818 331.535C455.733 331.535 458.696 334.51 458.696 338.203Z" fill="white"/>
<path opacity="0.2" d="M443.245 368.053C443.245 371.746 440.177 374.72 436.367 374.72C432.558 374.72 429.489 371.746 429.489 368.053C429.489 364.36 432.558 361.385 436.367 361.385C440.283 361.488 443.245 364.36 443.245 368.053Z" fill="white"/>
<path opacity="0.2" d="M458.696 398.005C458.696 401.698 455.627 404.673 451.818 404.673C448.008 404.673 444.939 401.698 444.939 398.005C444.939 394.313 448.008 391.338 451.818 391.338C455.733 391.338 458.696 394.313 458.696 398.005Z" fill="white"/>
<path opacity="0.2" d="M458.696 427.855C458.696 431.548 455.627 434.523 451.818 434.523C448.008 434.523 444.939 431.548 444.939 427.855C444.939 424.163 448.008 421.188 451.818 421.188C455.733 421.291 458.696 424.265 458.696 427.855Z" fill="white"/>
<path opacity="0.2" d="M458.696 457.808C458.696 461.501 455.627 464.476 451.818 464.476C448.008 464.476 444.939 461.501 444.939 457.808C444.939 454.115 448.008 451.141 451.818 451.141C455.733 451.141 458.696 454.115 458.696 457.808Z" fill="white"/>
<path opacity="0.2" d="M458.696 487.761C458.696 491.453 455.627 494.428 451.818 494.428C448.008 494.428 444.939 491.453 444.939 487.761C444.939 484.068 448.008 481.093 451.818 481.093C455.733 481.093 458.696 484.068 458.696 487.761Z" fill="white"/>
<path opacity="0.2" d="M458.696 517.61C458.696 521.303 455.627 524.278 451.818 524.278C448.008 524.278 444.939 521.303 444.939 517.61C444.939 513.918 448.008 510.943 451.818 510.943C455.733 511.046 458.696 513.918 458.696 517.61Z" fill="white"/>
<path d="M520.916 228.753H520.069V231.317H520.916V228.753Z" fill="#0053CC"/>
<path d="M691.174 287.222H690.328V282.093H691.174V287.222ZM691.174 277.067H690.328V271.938H691.174V277.067ZM691.174 266.809H690.328V261.68H691.174V266.809ZM691.174 256.551H690.328V251.423H691.174V256.551ZM691.174 246.294H690.328V241.165H691.174V246.294ZM691.174 236.036H690.328V230.907H691.174V236.036ZM691.174 225.778H690.328V220.649H691.174V225.778ZM520.916 223.624H520.069V220.136C520.069 219.624 520.069 219.008 520.175 218.495L521.022 218.598C520.916 219.111 520.916 219.624 520.916 220.136V223.624ZM689.481 215.726C688.952 214.187 688 212.751 686.942 211.52L687.576 211.007C688.74 212.341 689.693 213.879 690.328 215.52L689.481 215.726ZM522.609 213.879L521.868 213.469C522.715 211.93 523.879 210.597 525.36 209.468L525.889 210.084C524.514 211.11 523.35 212.443 522.609 213.879ZM682.921 208.545C681.439 207.827 679.746 207.314 678.053 207.212L678.159 206.391C679.958 206.494 681.757 207.007 683.344 207.827L682.921 208.545ZM530.228 207.725L529.91 206.904C531.286 206.494 532.767 206.289 534.249 206.289H535.307V207.109H534.249C532.979 207.109 531.603 207.314 530.228 207.725ZM672.762 207.109H667.471V206.289H672.762V207.109ZM662.181 207.109H656.89V206.289H662.181V207.109ZM651.599 207.109H646.308V206.289H651.599V207.109ZM641.017 207.109H635.727V206.289H641.017V207.109ZM630.436 207.109H625.145V206.289H630.436V207.109ZM619.854 207.109H614.563V206.289H619.854V207.109ZM609.378 207.109H604.087V206.289H609.378V207.109ZM598.797 207.109H593.506V206.289H598.797V207.109ZM588.215 207.109H582.924V206.289H588.215V207.109ZM577.633 207.109H572.343V206.289H577.633V207.109ZM567.052 207.109H561.761V206.289H567.052V207.109ZM556.47 207.109H551.179V206.289H556.47V207.109ZM545.889 207.109H540.598V206.289H545.889V207.109Z" fill="#0053CC"/>
<path d="M691.068 292.453H690.222V295.018H691.068V292.453Z" fill="#0053CC"/>
<path d="M620.064 539.87H627.789L628.635 522.432H620.911L620.064 539.87Z" fill="#F5C9B2"/>
<path d="M628.107 539.049H619.642C619.324 539.049 619.007 539.254 619.007 539.562L617.737 546.229C617.631 546.948 618.16 547.563 618.901 547.563C621.97 547.563 626.414 547.358 630.223 547.358C634.774 547.358 635.408 547.563 640.593 547.563C643.768 547.563 644.509 544.486 643.239 544.178C637.102 542.844 635.408 542.742 630.012 539.562C629.377 539.254 628.742 539.049 628.107 539.049Z" fill="#0F264C"/>
<path d="M628.636 522.432L628.213 531.458H620.488L620.912 522.432H628.636Z" fill="#F0B89A"/>
<path d="M672.126 289.068C672.02 291.428 671.808 293.992 671.703 296.557C671.597 299.018 671.597 301.583 671.597 304.045C671.597 306.507 671.703 308.968 671.914 311.328C672.126 313.687 672.443 315.944 673.078 317.893C673.29 318.918 673.713 319.739 674.031 320.252C674.031 320.354 674.242 320.662 674.454 320.867L674.983 321.585C675.3 322.098 675.618 322.611 676.041 323.124C677.417 325.176 679.004 327.125 680.591 329.074C683.766 333.074 687.258 336.972 690.644 340.87L686.623 345.486C681.861 342.511 677.523 339.229 673.396 335.536C671.279 333.689 669.375 331.741 667.47 329.586C667.047 329.074 666.518 328.561 666.094 327.945L665.46 327.125C665.248 326.817 665.036 326.612 664.719 326.201C663.555 324.56 662.92 322.919 662.285 321.483C661.121 318.405 660.592 315.533 660.169 312.764C659.745 309.892 659.534 307.122 659.428 304.455C659.322 301.685 659.322 299.018 659.428 296.249C659.534 293.479 659.64 290.915 659.957 288.043L672.126 289.068Z" fill="#FF8B7B"/>
<path d="M674.878 304.558L671.598 305.891L665.99 308.045L656.149 311.841C656.149 311.841 651.599 289.171 654.033 282.298C656.678 274.708 666.096 274.913 671.175 283.529C676.254 291.838 674.878 304.558 674.878 304.558Z" fill="#E39D29"/>
<path d="M671.174 305.994L666.095 307.943C665.249 304.352 664.508 298.403 666.942 293.992C670.328 296.762 670.857 302.403 671.174 305.994Z" fill="#E39D29"/>
<path d="M666.096 337.485H623.558C623.24 333.792 624.193 323.739 623.558 310.097C623.452 306.917 623.134 303.634 622.817 300.147C622.076 292.864 620.806 284.863 618.796 276.554C618.796 276.554 626.097 275.118 632.975 274.81C638.372 274.502 646.308 274.4 651.07 274.81C657.419 275.323 663.45 276.964 663.45 276.964C663.45 276.964 673.397 294.197 666.096 337.485Z" fill="#F6AC3B"/>
<path d="M623.557 310.097C623.451 306.917 623.134 303.634 622.816 300.147C624.192 299.326 625.991 299.224 626.308 304.147C626.732 308.661 625.144 309.892 623.557 310.097Z" fill="#E2A549"/>
<path d="M702.602 346.512L696.464 350.204L688.846 348.666L694.877 341.383L702.602 346.512Z" fill="#F5C9B2"/>
<path d="M687.788 340.254L694.877 341.383L688.846 348.666C688.846 348.666 685.036 348.255 684.084 343.332L687.788 340.254Z" fill="#F0B89A"/>
<path d="M634.034 255.013C635.409 260.654 636.891 271.015 632.976 274.708C632.976 274.708 634.986 278.503 645.779 278.503C655.62 278.503 651.07 274.708 651.07 274.708C644.51 273.169 644.51 268.553 645.462 264.142L634.034 255.013Z" fill="#F5C9B2"/>
<path d="M638.689 258.808L645.461 264.245C645.25 265.27 645.038 266.296 645.038 267.322C643.028 269.271 639.006 264.347 638.689 261.783C638.477 260.552 638.477 259.424 638.689 258.808Z" fill="#F0B89A"/>
<path d="M657.102 240.755C659.853 244.037 656.678 254.295 651.07 253.987C645.462 253.679 652.022 234.497 657.102 240.755Z" fill="#495C71"/>
<path d="M635.197 245.678C634.562 253.269 633.821 257.68 637.207 262.193C642.287 268.963 652.445 267.22 655.408 260.039C658.053 253.577 658.582 242.191 651.387 237.882C644.297 233.677 635.832 238.088 635.197 245.678Z" fill="#F5C9B2"/>
<path d="M632.34 236.139L640.805 239.011C637.101 243.832 642.498 255.218 635.937 253.064C632.975 252.038 623.134 241.575 632.34 236.139Z" fill="#445465"/>
<path d="M636.466 238.087C639.641 240.344 652.656 243.114 660.063 239.011C658.159 238.6 655.619 237.369 655.619 237.369C655.619 237.369 661.227 237.062 663.661 233.164C658.37 233.984 654.773 232.446 653.397 231.933C655.831 231.42 658.37 228.958 659.111 227.214C648.847 227.317 626.731 229.368 630.541 236.344C634.562 243.421 636.466 238.087 636.466 238.087Z" fill="#445465"/>
<path d="M632.022 237.164C632.022 237.164 629.483 236.036 627.79 234.292C627.366 235.421 627.366 238.6 632.022 237.164Z" fill="#0F264C"/>
<path d="M630.434 253.372C631.281 255.321 632.974 256.654 634.561 257.372C636.995 258.295 638.476 256.346 637.947 253.884C637.524 251.73 635.619 248.653 633.08 248.653C630.646 248.756 629.482 251.217 630.434 253.372Z" fill="#F5C9B2"/>
<path d="M643.874 539.87H651.704L653.292 522.432H645.567L643.874 539.87Z" fill="#F5C9B2"/>
<path d="M652.022 539.049H643.557C643.239 539.049 642.922 539.254 642.922 539.562L641.652 546.229C641.546 546.948 642.075 547.563 642.816 547.563C645.885 547.563 650.329 547.358 654.138 547.358C658.689 547.358 662.498 547.563 667.789 547.563C670.963 547.563 671.704 544.486 670.434 544.178C664.297 542.844 659.323 542.742 653.927 539.562C653.398 539.254 652.763 539.049 652.022 539.049Z" fill="#0F264C"/>
<path d="M653.291 522.432L652.444 531.458H644.72L645.566 522.432H653.291Z" fill="#F0B89A"/>
<path d="M655.302 540.177C655.937 540.28 656.466 540.28 656.889 539.972C657.206 539.767 657.418 539.459 657.418 539.049C657.418 538.741 657.312 538.536 657.206 538.536C656.36 538.023 653.609 539.049 653.291 539.254C653.186 539.254 653.186 539.357 653.186 539.459C653.186 539.562 653.186 539.562 653.291 539.665C653.82 539.87 654.561 540.075 655.302 540.177ZM656.677 538.844C656.783 538.844 656.889 538.844 656.889 538.947C656.889 538.947 656.995 539.049 656.995 539.152C656.995 539.459 656.889 539.665 656.677 539.767C656.254 540.075 655.196 539.972 653.82 539.459C654.773 539.049 656.043 538.741 656.677 538.844Z" fill="#407BFF"/>
<path d="M653.292 539.665C653.292 539.665 653.398 539.665 653.292 539.665C654.244 539.357 656.043 537.921 655.937 537.1C655.937 536.895 655.831 536.69 655.408 536.587C655.091 536.485 654.879 536.587 654.561 536.69C653.503 537.305 653.08 539.459 653.08 539.562C653.186 539.459 653.186 539.562 653.292 539.665C653.292 539.562 653.292 539.665 653.292 539.665ZM655.302 536.792C655.62 536.895 655.62 536.997 655.62 536.997C655.62 537.51 654.456 538.639 653.609 539.049C653.821 538.434 654.244 537.203 654.879 536.792C654.985 536.792 655.091 536.792 655.302 536.792Z" fill="#407BFF"/>
<path d="M641.758 529.304H654.456C654.456 529.304 673.926 457.192 673.608 432.677C673.291 409.186 666.201 337.485 666.201 337.485H638.266C638.266 337.485 640.488 353.384 642.922 373.079C645.144 390.415 647.577 410.725 648.953 425.496C649.376 429.907 649.694 433.805 649.905 436.985C651.175 461.09 641.758 529.304 641.758 529.304Z" fill="#6F7B88"/>
<path d="M642.815 373.079C645.038 390.415 647.471 410.725 648.847 425.496C651.81 412.571 659.006 375.131 648.212 356.154C645.461 359.949 643.768 366.412 642.815 373.079Z" fill="#445465"/>
<path d="M650.964 337.485C650.964 337.485 649.905 406.622 645.779 428.676C641.229 452.884 632.234 529.304 632.234 529.304H617.737C617.737 529.304 619.854 454.833 622.076 430.933C624.51 404.981 623.557 337.587 623.557 337.587H650.964V337.485Z" fill="#6F7B88"/>
<path d="M617.102 529.612H632.869L634.033 523.868L616.573 523.355L617.102 529.612Z" fill="#0F264C"/>
<path d="M641.017 529.612H656.784L657.948 523.868L640.594 524.175L641.017 529.612Z" fill="#0F264C"/>
<path d="M623.24 520.995C623.134 520.995 623.134 520.893 623.134 520.893C623.24 520.175 624.298 453.295 626.308 431.856C628.425 408.468 627.155 346.614 627.155 346.101C627.155 345.999 627.261 345.999 627.261 345.999C627.366 345.999 627.366 346.101 627.366 346.101C627.366 346.614 628.636 408.571 626.52 431.856C624.509 453.397 623.451 520.175 623.345 520.893C623.345 520.893 623.345 520.995 623.24 520.995Z" fill="#445465"/>
<path d="M646.73 249.884C646.625 250.499 646.942 251.012 647.365 251.115C647.789 251.217 648.212 250.705 648.318 250.089C648.423 249.474 648.106 248.961 647.683 248.858C647.26 248.858 646.836 249.268 646.73 249.884Z" fill="#0F264C"/>
<path d="M654.032 250.705C653.926 251.32 654.244 251.833 654.667 251.936C655.09 252.038 655.514 251.525 655.62 250.91C655.725 250.294 655.408 249.781 654.985 249.679C654.561 249.679 654.138 250.089 654.032 250.705Z" fill="#0F264C"/>
<path d="M651.598 250.91C651.598 250.91 652.551 254.705 653.926 256.654C652.656 257.475 650.857 256.654 650.857 256.654L651.598 250.91Z" fill="#F0B89A"/>
<path d="M649.482 259.218C649.588 259.218 649.693 259.116 649.693 259.013C649.693 258.911 649.588 258.808 649.482 258.808C646.625 258.398 645.566 256.346 645.566 256.346C645.566 256.244 645.355 256.244 645.355 256.244C645.249 256.244 645.249 256.346 645.249 256.449C645.249 256.654 646.413 258.808 649.482 259.218Z" fill="#0F264C"/>
<path d="M644.826 245.473C644.932 245.473 645.038 245.473 645.144 245.371C646.414 244.345 647.789 244.755 647.789 244.755C648.001 244.858 648.212 244.755 648.212 244.55C648.318 244.345 648.213 244.14 648.001 244.037C647.895 244.037 646.308 243.524 644.615 244.755C644.403 244.858 644.403 245.063 644.615 245.268C644.615 245.371 644.721 245.371 644.826 245.473Z" fill="#0F264C"/>
<path d="M625.039 275.118L627.05 274.913C627.261 274.913 627.473 275.015 627.473 275.221C634.139 304.352 632.129 335.228 632.129 335.228H629.907C630.542 303.224 625.462 278.913 624.722 275.528C624.722 275.323 624.827 275.118 625.039 275.118Z" fill="#6F7B88"/>
<path d="M630.33 335.946H631.811C632.234 335.946 632.552 335.638 632.552 335.228C632.552 334.818 632.234 334.51 631.811 334.51H630.33C629.906 334.51 629.589 334.818 629.589 335.228C629.589 335.638 630.012 335.946 630.33 335.946Z" fill="#0F264C"/>
<path d="M632.129 337.793L632.023 335.844C632.023 335.331 631.6 334.92 631.07 334.92C630.541 334.92 630.118 335.331 630.118 335.844L630.224 337.793C630.224 338.306 630.647 338.716 631.176 338.716C631.705 338.716 632.129 338.306 632.129 337.793Z" fill="#0F264C"/>
<path d="M657.418 247.012C657.524 247.012 657.524 247.012 657.63 247.012C657.842 246.909 657.947 246.704 657.842 246.601C657.207 244.652 655.514 244.14 655.514 244.14C655.302 244.037 655.09 244.14 655.09 244.345C654.985 244.55 655.196 244.755 655.302 244.755C655.408 244.755 656.678 245.165 657.101 246.704C657.101 246.909 657.207 247.012 657.418 247.012Z" fill="#0F264C"/>
<path d="M623.557 288.761C622.393 293.582 621.123 298.608 620.065 303.532C619.536 305.994 619.007 308.456 618.689 310.815C618.372 313.174 617.949 315.636 618.055 317.482C618.16 321.38 619.642 325.381 622.393 328.868C623.769 330.612 625.462 332.356 627.261 333.895C628.213 334.715 629.165 335.433 630.118 336.151C630.647 336.459 631.07 336.869 631.599 337.177C632.128 337.485 632.657 337.895 633.08 338.1L630.753 343.742C629.906 343.537 629.271 343.332 628.53 343.024C627.895 342.716 627.155 342.511 626.52 342.203C625.144 341.588 623.874 340.973 622.605 340.255C620.065 338.818 617.631 337.075 615.409 334.92C613.187 332.766 611.282 330.305 609.695 327.535C608.214 324.663 607.155 321.585 606.838 318.303C606.521 315.021 606.626 312.251 606.838 309.379C607.05 306.609 607.473 303.942 607.896 301.275C608.743 295.941 610.013 290.812 611.494 285.581L623.557 288.761Z" fill="#F5C9B2"/>
<path d="M618.795 276.554C610.33 277.99 605.568 299.839 605.568 299.839L626.414 307.019C626.414 307.019 628.001 299.839 626.414 290.402C624.933 281.17 626.732 275.118 618.795 276.554Z" fill="#E39D29"/>
<path d="M658.794 275.528L660.804 275.939C661.016 275.939 661.122 276.144 661.122 276.246C666.412 305.378 662.92 335.331 662.92 335.331H660.698C662.815 303.634 659.005 279.734 658.37 276.041C658.264 275.733 658.476 275.528 658.794 275.528Z" fill="#6F7B88"/>
<path d="M661.016 335.946H662.497C662.921 335.946 663.238 335.638 663.238 335.228C663.238 334.818 662.921 334.51 662.497 334.51H661.016C660.593 334.51 660.275 334.818 660.275 335.228C660.275 335.638 660.593 335.946 661.016 335.946Z" fill="#0F264C"/>
<path d="M662.708 337.793V335.844C662.708 335.331 662.285 334.92 661.756 334.92C661.227 334.92 660.804 335.331 660.804 335.844V337.793C660.804 338.306 661.227 338.716 661.756 338.716C662.285 338.716 662.708 338.306 662.708 337.793Z" fill="#0F264C"/>
<path d="M631.388 540.177C632.023 540.28 632.552 540.28 632.975 539.972C633.293 539.767 633.504 539.459 633.504 539.049C633.504 538.741 633.398 538.536 633.293 538.536C632.446 538.023 629.695 539.049 629.377 539.254C629.271 539.254 629.271 539.357 629.271 539.459C629.271 539.562 629.271 539.562 629.377 539.665C629.906 539.87 630.647 540.075 631.388 540.177ZM632.763 538.844C632.869 538.844 632.975 538.844 632.975 538.947C632.975 538.947 633.081 539.049 633.081 539.152C633.081 539.459 632.975 539.665 632.763 539.767C632.34 540.075 631.282 539.972 629.906 539.459C630.859 539.049 632.129 538.741 632.763 538.844Z" fill="#407BFF"/>
<path d="M629.377 539.665C629.377 539.665 629.483 539.665 629.377 539.665C630.329 539.357 632.128 537.921 632.022 537.1C632.022 536.895 631.916 536.69 631.493 536.587C631.176 536.485 630.964 536.587 630.647 536.69C629.588 537.305 629.165 539.459 629.165 539.562C629.165 539.459 629.271 539.562 629.377 539.665C629.271 539.562 629.377 539.665 629.377 539.665ZM631.387 536.792C631.705 536.895 631.705 536.997 631.705 536.997C631.705 537.51 630.541 538.639 629.694 539.049C629.906 538.434 630.329 537.203 630.964 536.792C631.07 536.792 631.176 536.792 631.387 536.792Z" fill="#407BFF"/>
<path d="M626.626 342.306L629.06 337.998L635.726 338.203L640.911 340.254L644.403 345.281L635.303 344.768C635.409 344.768 629.906 346.307 626.626 342.306Z" fill="#F5C9B2"/>
<path d="M645.144 278.606L643.557 277.477L640.276 280.554L645.144 278.606Z" fill="#6F7B88"/>
<path d="M643.557 277.477C643.557 277.477 640.911 281.17 640.488 283.837C637.208 282.504 630.859 279.221 629.906 274.605C631.176 274.4 633.187 273.066 633.187 273.066C633.187 273.066 636.573 275.836 643.557 277.477Z" fill="#6F7B88"/>
<path d="M645.144 278.605L645.673 277.272L650.117 280.554L645.144 278.605Z" fill="#6F7B88"/>
<path d="M645.672 277.272C645.672 277.272 648.529 279.631 649.058 283.221C652.233 281.888 653.396 277.58 652.444 274.81C650.645 273.99 648.529 273.579 648.529 273.579C648.529 273.579 648.952 276.349 645.672 277.272Z" fill="#6F7B88"/>
<path d="M721.861 307.84L655.302 305.583L645.673 343.332L712.231 345.588L721.861 307.84Z" fill="#C8C9C9"/>
<path d="M723.977 307.943L657.313 305.686L647.684 343.435L714.348 345.691L723.977 307.943Z" fill="#0F264C"/>
<path d="M714.348 345.691L714.03 347.845L647.472 345.486L647.683 343.434L714.348 345.691Z" fill="#0F264C"/>
<path d="M647.684 343.434L647.472 345.486L621.229 344.665L621.547 342.511L647.684 343.434Z" fill="#C8C9C9"/>
</g>
<defs>
<clipPath id="clip0">
<rect width="800" height="600" fill="white"/>
</clipPath>
</defs>
</svg>
