<svg width="1366" height="666" viewBox="0 0 1366 666" fill="none" xmlns="http://www.w3.org/2000/svg">
<path d="M1362.59 560.027H662.006V560.447H1362.59V560.027Z" fill="#EBEBEB"/>
<path d="M1272.5 582.623H1246.01V583.043H1272.5V582.623Z" fill="#EBEBEB"/>
<path d="M1114.02 580.237H1072.69V580.657H1114.02V580.237Z" fill="#EBEBEB"/>
<path d="M1244.61 569.57H1178.62V569.991H1244.61V569.57Z" fill="#EBEBEB"/>
<path d="M750.979 571.956H735.566V572.377H750.979V571.956Z" fill="#EBEBEB"/>
<path d="M817.396 571.956H763.311V572.377H817.396V571.956Z" fill="#EBEBEB"/>
<path d="M977.409 577.851H901.605V578.272H977.409V577.851Z" fill="#EBEBEB"/>
<path d="M994.082 497.431H723.516C719.172 497.431 715.529 493.782 715.529 489.431V108.525C715.529 104.175 719.172 100.525 723.516 100.525H994.082C998.425 100.525 1002.07 104.175 1002.07 108.525V489.431C1002.07 493.782 998.566 497.431 994.082 497.431ZM723.516 100.806C719.312 100.806 715.81 104.175 715.81 108.525V489.431C715.81 493.642 719.172 497.15 723.516 497.15H994.082C998.285 497.15 1001.79 493.782 1001.79 489.431V108.525C1001.79 104.315 998.425 100.806 994.082 100.806H723.516Z" fill="#EBEBEB"/>
<path d="M1297.16 497.431H1026.59C1022.25 497.431 1018.6 493.782 1018.6 489.431V108.525C1018.6 104.175 1022.25 100.525 1026.59 100.525H1297.16C1301.5 100.525 1305.14 104.175 1305.14 108.525V489.431C1305.14 493.782 1301.64 497.431 1297.16 497.431ZM1026.59 100.806C1022.39 100.806 1018.88 104.175 1018.88 108.525V489.431C1018.88 493.642 1022.25 497.15 1026.59 497.15H1297.16C1301.36 497.15 1304.86 493.782 1304.86 489.431V108.525C1304.86 104.315 1301.5 100.806 1297.16 100.806H1026.59Z" fill="#EBEBEB"/>
<path d="M749.967 397.624H854.494V136.014H749.967V397.624Z" fill="#5CDBF5"/>
<path d="M734.821 397.624H851.818V136.014H734.821V397.624Z" fill="#79A2FD"/>
<path d="M839.779 385.447V147.977L746.882 147.977V385.447H839.779Z" fill="#5CDBF5"/>
<path d="M878.311 397.624H982.838V136.014H878.311V397.624Z" fill="#5CDBF5"/>
<path d="M863.164 397.624H980.162V136.014H863.164V397.624Z" fill="#79A2FD"/>
<path d="M968.057 385.519V148.05L875.159 148.05V385.519H968.057Z" fill="#5CDBF5"/>
<path d="M1054.34 457.151H968.725V560.027H1054.34V457.151Z" fill="#E0E0E0"/>
<path d="M1054.47 457.151H968.723L949.527 437.502H1035.14L1054.47 457.151Z" fill="#E0E0E0"/>
<path d="M918.705 437.502H832.953L816.84 457.151H902.451L918.705 437.502Z" fill="#4DCCE6"/>
<path d="M816.733 560.083H968.76V457.207H816.733V560.083Z" fill="#5CDBF5"/>
<path d="M957.694 532.574H968.764V484.715H957.694V532.574Z" fill="#F0F0F0"/>
<path d="M868.455 474.81V516.493H910.07V474.81H868.455Z" fill="#F0F0F0"/>
<path d="M816.951 474.869V516.552H858.566V474.869H816.951Z" fill="#F0F0F0"/>
<path d="M868.471 519.144V522.512H910.085V519.144H868.471Z" fill="#F0F0F0"/>
<path d="M816.969 519.202V522.571H858.583V519.202H816.969Z" fill="#F0F0F0"/>
<path d="M868.49 529.09V532.458H910.105V529.09H868.49Z" fill="#F0F0F0"/>
<path d="M816.986 529.149V532.517H858.601V529.149H816.986Z" fill="#F0F0F0"/>
<path d="M868.508 539.035V542.404H910.123V539.035H868.508Z" fill="#F0F0F0"/>
<path d="M817.004 539.095V542.463H858.619V539.095H817.004Z" fill="#F0F0F0"/>
<path d="M993.385 484.659H968.725V532.518H993.385V484.659Z" fill="#E6E6E6"/>
<path d="M1086.85 559.98H1128.04V328.826H1086.85V559.98Z" fill="#67AEC1"/>
<path d="M1097.91 560.027H1086.84V520.027H1109.4L1097.91 560.027Z" fill="#F5F5F5"/>
<path d="M1204.81 559.98H1246V328.826H1204.81V559.98Z" fill="#4DCCE5"/>
<path d="M1086.95 546.225H1214.46V328.825H1086.95V546.225Z" fill="#67AEC1"/>
<path d="M1203.42 560.027H1214.49V520.027H1191.93L1203.42 560.027Z" fill="#67AEC1"/>
<path d="M1095.36 537.261H1205.91V442.245H1095.36V537.261Z" fill="#55CAF0"/>
<path d="M1130.57 537.261H1205.96V442.245H1130.57V537.261Z" fill="#55CAF0"/>
<path d="M1095.36 433.917H1205.91V338.902H1095.36V433.917Z" fill="#F0F0F0"/>
<path d="M1130.57 433.917H1205.96V338.902H1130.57V433.917Z" fill="#55CAF0"/>
<path d="M1168.25 411.538C1168.25 423.748 1157.88 433.853 1145.13 433.853H1133.64C1120.89 433.853 1110.52 423.888 1110.52 411.538H1168.25Z" fill="#64AEC2"/>
<path d="M1168.25 395.959C1168.25 408.169 1157.88 418.275 1145.13 418.275H1133.64C1120.89 418.275 1110.52 408.31 1110.52 395.959H1168.25Z" fill="#4FA7BE"/>
<path d="M1156.62 472.87H1190.67C1190.67 472.87 1184.78 487.186 1184.78 495.607C1184.78 504.028 1210.71 537.15 1173.71 537.15C1136.72 537.15 1162.64 504.028 1162.64 495.607C1162.5 487.326 1156.62 472.87 1156.62 472.87Z" fill="#4FA7BE"/>
<path d="M1168.25 380.38C1168.25 392.591 1157.88 402.696 1145.13 402.696H1133.64C1120.89 402.696 1110.52 392.731 1110.52 380.38H1168.25Z" fill="#67AEC1"/>
<path d="M1158.02 312.031C1156.76 275.4 1155.36 208.453 1158.16 190.068L1162.79 186.559C1162.79 186.559 1161.8 220.102 1161.24 276.101C1160.68 332.101 1160.12 303.75 1160.68 312.031H1158.02Z" fill="#396DAB"/>
<path d="M1147.51 214.91C1136.86 207.19 1114.31 201.717 1091.05 201.717C1081.94 201.717 1118.37 210.699 1133.08 220.664C1144.57 228.383 1157.18 241.295 1161.24 248.453C1159.14 233.295 1158.16 222.629 1147.51 214.91Z" fill="#74C1C7"/>
<path d="M1168.95 234.979C1178.76 226.98 1200.62 220.804 1223.88 220.102C1232.98 219.822 1197.67 229.927 1184.08 240.313C1173.43 248.312 1162.36 261.646 1159 268.944C1159.28 253.786 1159.14 242.979 1168.95 234.979Z" fill="#4F8CB5"/>
<path d="M1159.84 328.873C1150.88 328.873 1143.45 321.855 1142.89 312.873L1141.35 300.522H1178.2L1176.66 312.873C1176.24 321.855 1168.81 328.873 1159.84 328.873Z" fill="#6F7B88"/>
<path d="M1180.58 306.417H1138.96L1137.84 295.61H1181.84L1180.58 306.417Z" fill="#6F7B88"/>
<path d="M1012.3 623.324C1162.35 623.324 1283.99 616.223 1283.99 607.464C1283.99 598.706 1162.35 591.605 1012.3 591.605C862.252 591.605 740.613 598.706 740.613 607.464C740.613 616.223 862.252 623.324 1012.3 623.324Z" fill="#5CDBF5"/>
<path d="M1158.44 581.781L1148.35 583.886L1141.49 560.869L1151.57 558.763L1158.44 581.781Z" fill="#F5C9B2"/>
<path d="M1147.79 582.763L1158.86 580.377C1159.28 580.237 1159.7 580.517 1159.84 580.938L1163.76 589.5C1164.18 590.342 1163.62 591.465 1162.64 591.605C1158.72 592.307 1152.84 593.289 1147.93 594.412C1142.05 595.675 1141.35 596.938 1134.34 597.78C1130.14 598.342 1128.46 594.272 1130.14 593.57C1137.84 590.763 1139.66 589.64 1145.55 584.026C1146.11 583.465 1146.81 583.044 1147.79 582.763Z" fill="#0F264C"/>
<path opacity="0.2" d="M1141.49 560.869L1145.13 572.798L1155.08 570.693L1151.57 558.763L1141.49 560.869Z" fill="black"/>
<path d="M1085.44 253.225C1083.34 260.102 1081.1 266.698 1078.72 273.435C1076.19 280.031 1073.67 286.768 1070.45 293.364L1069.19 295.891L1067.79 298.417C1067.37 299.259 1066.81 300.101 1066.38 300.943C1065.96 301.785 1065.4 302.627 1064.84 303.329C1062.74 306.557 1060.36 309.504 1057.84 312.311C1055.32 315.118 1052.65 317.785 1049.85 320.171C1048.45 321.434 1046.91 322.557 1045.37 323.539C1043.83 324.662 1042.42 325.645 1040.6 326.627L1035.7 320.031C1036.68 318.908 1037.8 317.645 1038.92 316.382C1040.04 315.118 1041.02 313.715 1042 312.452C1043.97 309.785 1045.93 307.119 1047.61 304.312C1049.29 301.505 1050.97 298.838 1052.37 295.891C1053.07 294.487 1053.77 293.084 1054.33 291.54L1055.32 289.294L1056.16 287.049C1058.54 280.873 1060.78 274.277 1062.88 267.681L1069.47 248.032L1085.44 253.225Z" fill="#F5C9B2"/>
<path d="M1092.87 242.137C1096.37 251.54 1077.59 285.224 1077.59 285.224L1056.44 268.803C1056.44 268.803 1062.32 254.067 1069.61 243.26C1076.89 232.172 1088.94 231.751 1092.87 242.137Z" fill="#F6AC3B"/>
<path opacity="0.2" d="M1088.66 251.54C1081.94 254.347 1072.83 265.154 1070.03 279.47L1077.45 285.224C1077.45 285.224 1088.66 265.295 1092.16 251.821C1091.18 251.119 1090.06 250.839 1088.66 251.54Z" fill="black"/>
<path d="M1080.26 234.979C1080.26 234.979 1067.78 258.558 1079.69 317.925C1096.65 317.925 1127.75 317.925 1136.02 317.925C1136.44 309.224 1130.98 275.259 1139.38 234.558C1139.38 234.558 1129.72 232.593 1120.47 232.172C1113.32 231.892 1102.81 231.611 1096.51 232.172C1088.24 232.734 1080.26 234.979 1080.26 234.979Z" fill="#F6AC3B"/>
<path d="M1017.62 327.329L1023.37 332.522L1031.92 330.276L1026.03 320.031L1017.62 327.329Z" fill="#F5C9B2"/>
<path d="M1038.5 320.592L1026.03 320.031L1031.77 330.276C1031.77 330.276 1041.02 331.258 1041.86 324.381L1038.5 320.592Z" fill="#F0B89A"/>
<path d="M1118.09 204.945C1116.55 212.664 1115 226.839 1120.47 231.892C1120.47 231.892 1118.09 237.085 1103.8 237.085C1090.76 237.085 1096.65 231.892 1096.65 231.892C1105.2 229.786 1105.06 223.471 1103.52 217.436L1118.09 204.945Z" fill="#F5C9B2"/>
<path opacity="0.2" d="M1112.06 210.138L1103.37 217.576C1103.79 218.98 1104.07 220.383 1104.07 221.787C1106.18 225.015 1111.92 220.243 1112.9 215.19C1113.32 213.506 1112.34 210.98 1112.06 210.138Z" fill="black"/>
<path d="M1083.48 187.963C1080.54 192.734 1086.98 206.208 1094.27 204.945C1101.55 203.822 1088.94 178.84 1083.48 187.963Z" fill="#445465"/>
<path d="M1114.58 192.875C1116.12 203.261 1117.52 209.155 1113.46 215.611C1107.44 225.155 1093.84 223.19 1089.22 213.506C1085.16 204.804 1083.34 189.366 1092.44 183.191C1101.41 176.875 1113.04 182.489 1114.58 192.875Z" fill="#F5C9B2"/>
<path d="M1115.42 179.261L1106.46 185.717C1111.78 192.173 1105.76 206.208 1114.16 202.98C1118.23 201.436 1128.18 186.278 1115.42 179.261Z" fill="#445465"/>
<path d="M1104.78 171.261C1091.18 174.489 1090.06 170.559 1090.9 165.507C1080.82 167.191 1073.25 175.191 1079.13 184.875C1085.72 195.541 1105.62 186.84 1109.12 186.84L1114.16 185.577C1125.65 182.208 1121.73 167.191 1104.78 171.261Z" fill="#445465"/>
<path d="M1116.83 198.207C1116.83 198.207 1116.83 198.348 1116.83 198.207C1114.16 198.207 1106.32 198.207 1106.18 198.207C1106.04 198.207 1105.9 198.067 1105.9 197.927C1105.9 197.787 1106.04 197.647 1106.18 197.647C1106.32 197.647 1114.16 197.647 1116.83 197.647C1116.97 197.647 1117.11 197.787 1117.11 197.927C1116.97 198.208 1116.97 198.207 1116.83 198.207Z" fill="#263238"/>
<path d="M1121.59 203.12C1120.61 205.787 1118.51 207.752 1116.4 208.734C1113.18 210.138 1111.08 207.471 1111.5 204.243C1111.92 201.296 1114.02 196.945 1117.39 196.945C1120.89 196.805 1122.71 200.173 1121.59 203.12Z" fill="#F5C9B2"/>
<path d="M1101.69 594.693H1091.33L1091.04 570.833H1101.27L1101.69 594.693Z" fill="#F5C9B2"/>
<path d="M1090.9 593.57H1102.11C1102.53 593.57 1102.95 593.85 1102.95 594.272L1105.06 603.394C1105.34 604.377 1104.49 605.219 1103.51 605.219C1099.45 605.219 1093.57 604.938 1088.52 604.938C1082.5 604.938 1077.45 605.219 1070.45 605.219C1066.24 605.219 1064.98 601.008 1066.8 600.587C1074.79 598.763 1081.38 598.622 1088.38 594.272C1089.22 593.85 1090.06 593.57 1090.9 593.57Z" fill="#0F264C"/>
<path opacity="0.2" d="M1091.04 570.833L1091.19 583.184H1101.55L1101.27 570.833H1091.04Z" fill="black"/>
<path d="M1086.7 595.111C1085.86 595.252 1085.16 595.252 1084.6 594.831C1084.18 594.551 1083.9 594.13 1083.9 593.569C1083.9 593.148 1084.04 592.868 1084.18 592.868C1085.16 592.167 1088.94 593.569 1089.36 593.849C1089.51 593.849 1089.51 593.99 1089.51 594.13C1089.51 594.27 1089.51 594.27 1089.36 594.41C1088.66 594.55 1087.68 594.971 1086.7 595.111ZM1084.88 593.148C1084.74 593.148 1084.6 593.148 1084.6 593.288C1084.6 593.288 1084.46 593.429 1084.46 593.569C1084.46 593.99 1084.6 594.27 1084.88 594.41C1085.58 594.831 1086.84 594.691 1088.66 593.99C1087.26 593.569 1085.58 593.148 1084.88 593.148Z" fill="#407BFF"/>
<path d="M1089.36 594.272C1089.22 594.412 1089.22 594.412 1089.36 594.272C1088.1 593.851 1085.58 591.886 1085.72 590.763C1085.72 590.482 1085.86 590.201 1086.42 590.061C1086.84 589.921 1087.12 590.061 1087.54 590.201C1088.94 591.044 1089.64 593.991 1089.64 594.131C1089.5 594.131 1089.5 594.272 1089.36 594.272ZM1086.56 590.482C1086.56 590.482 1086.42 590.482 1086.56 590.482C1086.14 590.622 1086.14 590.763 1086.14 590.763C1086.14 591.465 1087.68 593.008 1088.94 593.57C1088.66 592.728 1088.1 591.044 1087.26 590.482C1086.98 590.482 1086.7 590.482 1086.56 590.482Z" fill="#407BFF"/>
<path d="M1079.7 317.785C1079.7 317.785 1072.13 414.485 1070.73 446.625C1069.19 480.028 1087.82 580.096 1087.82 580.096H1104.64C1104.64 580.096 1099.17 487.326 1101.98 454.484C1105.06 418.836 1116.69 317.645 1116.69 317.645H1079.7V317.785Z" fill="#6F7B88"/>
<path opacity="0.2" d="M1096.65 393.854C1098.05 409.994 1102.25 425.432 1104.21 432.309C1106.74 406.906 1110.52 372.802 1113.32 348.381C1106.88 352.732 1093.99 364.942 1096.65 393.854Z" fill="black"/>
<path d="M1099.17 317.785C1099.17 317.785 1103.52 414.204 1110.1 444.379C1117.25 477.502 1138.68 571.114 1138.68 571.114L1157.6 567.184C1157.6 567.184 1144.85 478.484 1140.79 445.642C1136.3 410.134 1135.6 317.785 1135.6 317.785H1099.17Z" fill="#6F7B88"/>
<path d="M1158.86 567.325L1138.54 571.535L1135.18 564.237L1157.46 558.904L1158.86 567.325Z" fill="#0F264C"/>
<path d="M1107.86 580.658H1087.12L1085.3 572.798L1108.14 573.219L1107.86 580.658Z" fill="#0F264C"/>
<path d="M1100.43 198.91C1100.57 199.752 1100.29 200.454 1099.73 200.594C1099.17 200.734 1098.61 200.173 1098.47 199.331C1098.33 198.489 1098.61 197.787 1099.17 197.647C1099.59 197.506 1100.15 198.068 1100.43 198.91Z" fill="#263238"/>
<path d="M1090.9 200.875C1091.04 201.717 1090.76 202.418 1090.2 202.559C1089.64 202.699 1089.08 202.138 1088.94 201.296C1088.8 200.454 1089.08 199.752 1089.64 199.611C1090.2 199.471 1090.76 200.033 1090.9 200.875Z" fill="#263238"/>
<path d="M1093.42 200.734C1093.42 200.734 1092.58 205.927 1090.9 208.734C1092.72 209.857 1094.97 208.594 1094.97 208.594L1093.42 200.734Z" fill="#F0B89A"/>
<path d="M1097.07 211.962C1096.93 211.962 1096.79 211.962 1096.79 211.822C1096.79 211.681 1096.79 211.541 1096.93 211.541C1100.57 210.98 1101.83 208.032 1101.83 208.032C1101.83 207.892 1101.97 207.892 1102.11 207.892C1102.25 207.892 1102.25 208.032 1102.25 208.173C1102.39 208.173 1100.99 211.26 1097.07 211.962Z" fill="#263238"/>
<path d="M1104.77 191.469C1104.63 191.469 1104.49 191.469 1104.35 191.329C1102.53 190.067 1100.85 190.628 1100.85 190.628C1100.57 190.768 1100.29 190.628 1100.15 190.348C1100.01 190.067 1100.15 189.787 1100.43 189.647C1100.57 189.647 1102.67 188.805 1104.91 190.488C1105.19 190.628 1105.19 190.909 1105.05 191.189C1104.91 191.469 1104.91 191.469 1104.77 191.469Z" fill="#263238"/>
<path d="M1085.3 194.559C1085.16 194.559 1085.16 194.559 1085.02 194.419C1084.74 194.278 1084.74 193.998 1084.88 193.717C1086.42 191.331 1088.66 191.331 1088.8 191.331C1089.08 191.331 1089.36 191.612 1089.36 191.892C1089.36 192.173 1089.08 192.454 1088.8 192.454C1088.66 192.454 1086.98 192.454 1085.72 194.419C1085.72 194.559 1085.44 194.699 1085.3 194.559Z" fill="#263238"/>
<path d="M1130.98 232.453L1128.32 232.172C1128.04 232.172 1127.76 232.313 1127.76 232.593C1120.33 272.452 1124.53 314.697 1124.53 314.697H1127.48C1125.09 270.909 1130.7 237.646 1131.54 233.014C1131.54 232.734 1131.26 232.453 1130.98 232.453Z" fill="#6F7B88"/>
<path d="M1127.89 314.697C1127.89 314.136 1127.47 313.715 1126.91 313.715H1124.95C1124.39 313.715 1123.97 314.136 1123.97 314.697C1123.97 315.118 1124.25 315.539 1124.67 315.539V318.066C1124.67 318.767 1125.23 319.329 1125.93 319.329C1126.63 319.329 1127.19 318.767 1127.19 318.066V315.539C1127.61 315.539 1127.89 315.259 1127.89 314.697Z" fill="white"/>
<path d="M1086.42 233.014L1083.76 233.576C1083.48 233.576 1083.34 233.857 1083.34 233.997C1077.73 273.856 1083.9 314.838 1083.9 314.838H1086.84C1082.5 271.47 1086.28 238.769 1086.98 233.716C1086.98 233.295 1086.7 233.014 1086.42 233.014Z" fill="#6F7B88"/>
<path d="M1087.26 314.697C1087.26 314.136 1086.84 313.715 1086.28 313.715H1084.18C1083.62 313.715 1083.2 314.136 1083.34 314.697C1083.34 315.118 1083.62 315.539 1084.04 315.539L1084.18 318.066C1084.18 318.767 1084.74 319.329 1085.44 319.329C1086.14 319.329 1086.7 318.767 1086.56 318.066L1086.42 315.539C1086.98 315.539 1087.26 315.259 1087.26 314.697Z" fill="white"/>
<path d="M1143.87 585.287C1143.17 585.568 1142.33 585.708 1141.77 585.568C1141.35 585.428 1140.92 585.007 1140.78 584.586C1140.64 584.166 1140.78 583.885 1140.92 583.745C1141.77 582.763 1145.69 583.464 1146.11 583.605C1146.25 583.605 1146.25 583.745 1146.25 583.745C1146.25 583.885 1146.25 583.885 1146.11 584.025C1145.69 584.306 1144.85 584.867 1143.87 585.287ZM1141.63 583.745C1141.49 583.745 1141.35 583.885 1141.35 583.885C1141.35 583.885 1141.2 584.025 1141.35 584.166C1141.49 584.586 1141.63 584.726 1142.05 584.867C1142.75 585.147 1144.01 584.726 1145.55 583.745C1144.15 583.605 1142.47 583.464 1141.63 583.745Z" fill="#407BFF"/>
<path d="M1146.25 583.886C1144.85 583.746 1142.05 582.342 1141.91 581.079C1141.91 580.798 1141.91 580.517 1142.47 580.237C1142.75 580.096 1143.17 580.096 1143.59 580.096C1145.13 580.658 1146.39 583.325 1146.53 583.465C1146.53 583.605 1146.39 583.746 1146.25 583.886C1146.39 583.886 1146.39 583.886 1146.25 583.886ZM1142.75 580.658C1142.33 580.798 1142.33 580.939 1142.33 581.079C1142.47 581.781 1144.29 582.903 1145.69 583.325C1145.27 582.482 1144.29 580.939 1143.31 580.658C1143.17 580.658 1143.03 580.658 1142.75 580.658Z" fill="#407BFF"/>
<path d="M1101.83 205.927C1098.47 206.629 1095.11 203.822 1094.27 199.752C1093.43 196.103 1095.25 193.577 1099.03 192.734C1102.95 191.892 1105.48 193.436 1106.32 197.226C1107.16 201.296 1105.2 205.225 1101.83 205.927ZM1099.17 193.155C1096.65 193.717 1093.85 195.261 1094.69 199.611C1095.53 203.541 1098.75 206.208 1101.69 205.506C1104.63 204.804 1106.6 201.155 1105.76 197.226C1104.92 192.875 1101.69 192.594 1099.17 193.155Z" fill="#263238"/>
<path d="M1088.24 208.734C1085.44 209.296 1082.5 206.489 1081.66 202.278C1080.67 197.366 1083.62 195.962 1085.58 195.541C1087.4 195.12 1090.76 195.261 1091.88 200.173C1092.58 204.383 1091.04 208.173 1088.24 208.734ZM1085.58 195.962C1083.48 196.383 1081.1 197.787 1082.08 202.278C1082.92 206.208 1085.58 208.874 1088.24 208.313C1090.76 207.752 1092.16 204.103 1091.32 200.313C1090.34 195.962 1087.68 195.541 1085.58 195.962Z" fill="#263238"/>
<path d="M1094.41 197.085C1092.87 196.664 1091.61 196.944 1090.63 197.786C1090.49 197.926 1090.35 197.926 1090.35 197.786C1090.21 197.646 1090.21 197.505 1090.35 197.505C1091.47 196.524 1092.87 196.243 1094.41 196.664C1094.55 196.664 1094.55 196.804 1094.55 196.944C1094.55 196.944 1094.55 197.085 1094.41 197.085Z" fill="#263238"/>
<path d="M1104.63 237.225L1106.6 235.681L1111.08 239.892L1104.63 237.225Z" fill="#263238"/>
<path d="M1106.6 235.681C1106.6 235.681 1110.24 240.734 1110.94 244.383C1115.28 242.558 1123.41 238.067 1124.53 231.751C1122.85 231.471 1120.05 229.646 1120.05 229.646C1120.05 229.646 1115.7 233.436 1106.6 235.681Z" fill="#6F7B88"/>
<path d="M1104.64 237.225L1103.8 235.4L1098.05 239.892L1104.64 237.225Z" fill="#263238"/>
<path d="M1103.79 235.4C1103.79 235.4 1100.15 238.628 1099.59 243.541C1095.25 241.716 1093.56 235.821 1094.69 232.032C1097.07 230.909 1099.87 230.348 1099.87 230.348C1099.87 230.348 1099.31 234.137 1103.79 235.4Z" fill="#6F7B88"/>
<path d="M1096.93 323.96L1104.22 331.679L1111.5 328.171L1105.34 316.662L1096.93 323.96Z" fill="#F5C9B2"/>
<path d="M1117.81 317.224L1105.34 316.662L1111.5 328.311C1111.5 328.311 1120.33 327.89 1121.17 321.153L1117.81 317.224Z" fill="#F0B89A"/>
<path d="M1149.61 248.874C1151.44 256.453 1153.12 264.172 1154.52 271.751C1155.22 275.54 1155.92 279.47 1156.62 283.4C1157.32 287.329 1157.88 291.119 1158.3 295.189C1158.3 295.47 1158.44 296.592 1158.44 297.434C1158.44 298.277 1158.44 299.259 1158.3 300.101C1158.02 301.926 1157.46 303.469 1156.76 305.013C1155.36 307.961 1153.54 309.925 1151.58 311.75C1147.79 315.118 1143.87 317.224 1140.09 319.048C1132.24 322.557 1124.53 324.522 1116.41 325.785L1114.3 317.785C1117.67 316.381 1121.17 314.838 1124.53 313.153C1127.9 311.469 1131.12 309.785 1134.06 307.82C1137 305.996 1139.81 303.75 1141.63 301.785C1142.47 300.803 1143.17 299.68 1143.31 299.119C1143.45 298.838 1143.45 298.557 1143.45 298.417C1143.45 298.277 1143.45 298.277 1143.45 298.136C1143.45 297.996 1143.45 298.136 1143.31 297.575C1141.77 290.277 1139.95 282.698 1138.26 275.259C1136.58 267.681 1134.9 260.102 1133.22 252.663L1149.61 248.874Z" fill="#F5C9B2"/>
<path d="M1139.39 234.418C1153.4 236.944 1159.56 272.031 1159.56 272.031L1137 285.785C1137 285.785 1129.86 265.014 1130.28 252.102C1130.56 239.611 1128.74 232.453 1139.39 234.418Z" fill="#F6AC3B"/>
<path d="M1044.38 335.469H900.064V607.605H1044.38V335.469Z" fill="#407BFF"/>
<path d="M1071.15 332.101H913.375V335.469H1071.15V332.101Z" fill="#407BFF"/>
<path opacity="0.3" d="M1071.15 332.101H913.375V335.469H1071.15V332.101Z" fill="black"/>
<path d="M1044.29 607.482H1084.36V335.346H1044.29V607.482Z" fill="#407BFF"/>
<path opacity="0.2" d="M1044.29 607.482H1084.36V335.346H1044.29V607.482Z" fill="black"/>
<path opacity="0.1" d="M1032.75 359.188H1024.63C1023.93 359.188 1023.37 358.626 1023.37 357.925V349.785C1023.37 349.083 1023.93 348.521 1024.63 348.521H1032.75C1033.46 348.521 1034.02 349.083 1034.02 349.785V357.925C1034.02 358.626 1033.46 359.188 1032.75 359.188Z" fill="black"/>
<path opacity="0.3" d="M1010.62 359.188H1002.49C1001.79 359.188 1001.23 358.626 1001.23 357.925V349.785C1001.23 349.083 1001.79 348.521 1002.49 348.521H1010.62C1011.32 348.521 1011.88 349.083 1011.88 349.785V357.925C1012.02 358.626 1011.46 359.188 1010.62 359.188Z" fill="black"/>
<path opacity="0.3" d="M988.618 359.188H980.492C979.791 359.188 979.23 358.626 979.23 357.925V349.785C979.23 349.083 979.791 348.521 980.492 348.521H988.618C989.319 348.521 989.879 349.083 989.879 349.785V357.925C990.019 358.626 989.319 359.188 988.618 359.188Z" fill="black"/>
<path opacity="0.1" d="M966.62 359.188H958.493C957.793 359.188 957.232 358.626 957.232 357.925V349.785C957.232 349.083 957.793 348.521 958.493 348.521H966.62C967.321 348.521 967.881 349.083 967.881 349.785V357.925C967.881 358.626 967.321 359.188 966.62 359.188Z" fill="black"/>
<path opacity="0.3" d="M944.622 359.188H936.495C935.795 359.188 935.234 358.626 935.234 357.925V349.785C935.234 349.083 935.795 348.521 936.495 348.521H944.622C945.323 348.521 945.883 349.083 945.883 349.785V357.925C945.883 358.626 945.323 359.188 944.622 359.188Z" fill="black"/>
<path opacity="0.3" d="M922.624 359.188H914.497C913.797 359.188 913.236 358.626 913.236 357.925V349.785C913.236 349.083 913.797 348.521 914.497 348.521H922.624C923.325 348.521 923.885 349.083 923.885 349.785V357.925C923.885 358.626 923.325 359.188 922.624 359.188Z" fill="black"/>
<g opacity="0.1">
<path opacity="0.1" d="M1039.62 365.363H904.83V408.029H1039.62V365.363Z" fill="black"/>
</g>
<path d="M1032.06 401.854H1028.27C1027.29 401.854 1026.45 401.012 1026.45 400.029V373.223C1026.45 372.24 1027.29 371.398 1028.27 371.398H1032.06C1033.04 371.398 1033.88 372.24 1033.88 373.223V400.029C1033.88 401.012 1033.04 401.854 1032.06 401.854Z" fill="#407BFF"/>
<path opacity="0.1" d="M1016.64 401.854H1012.86C1011.88 401.854 1011.04 401.012 1011.04 400.029V373.223C1011.04 372.24 1011.88 371.398 1012.86 371.398H1016.64C1017.62 371.398 1018.47 372.24 1018.47 373.223V400.029C1018.47 401.012 1017.62 401.854 1016.64 401.854Z" fill="black"/>
<path d="M1001.23 401.854H997.446C996.466 401.854 995.625 401.012 995.625 400.029V373.223C995.625 372.24 996.466 371.398 997.446 371.398H1001.23C1002.21 371.398 1003.05 372.24 1003.05 373.223V400.029C1003.05 401.012 1002.35 401.854 1001.23 401.854Z" fill="#407BFF"/>
<path d="M985.958 401.854H982.175C981.194 401.854 980.354 401.012 980.354 400.029V373.223C980.354 372.24 981.194 371.398 982.175 371.398H985.958C986.939 371.398 987.78 372.24 987.78 373.223V400.029C987.78 401.012 986.939 401.854 985.958 401.854Z" fill="#407BFF"/>
<path opacity="0.3" d="M943.361 379.819C943.361 377.152 945.603 374.907 948.265 374.907C950.928 374.907 953.17 377.152 953.17 379.819C953.17 382.486 950.928 384.731 948.265 384.731C945.603 384.731 943.361 382.486 943.361 379.819Z" fill="white"/>
<path opacity="0.1" d="M967.181 393.433C967.181 396.1 964.939 398.345 962.277 398.345C959.615 398.345 957.373 396.1 957.373 393.433C957.373 390.766 959.615 388.521 962.277 388.521C965.079 388.521 967.181 390.766 967.181 393.433Z" fill="black"/>
<path opacity="0.1" d="M957.373 379.819C957.373 377.152 959.615 374.907 962.277 374.907C964.939 374.907 967.181 377.152 967.181 379.819C967.181 382.486 964.939 384.731 962.277 384.731C959.615 384.731 957.373 382.486 957.373 379.819Z" fill="black"/>
<path opacity="0.1" d="M953.17 393.433C953.17 396.1 950.928 398.345 948.265 398.345C945.603 398.345 943.361 396.1 943.361 393.433C943.361 390.766 945.603 388.521 948.265 388.521C950.928 388.521 953.17 390.766 953.17 393.433Z" fill="black"/>
<path opacity="0.3" d="M931.359 394.096C935.518 389.931 935.518 383.177 931.359 379.011C927.2 374.846 920.458 374.846 916.299 379.011C912.141 383.177 912.141 389.931 916.299 394.096C920.458 398.261 927.2 398.261 931.359 394.096Z" fill="white"/>
<g opacity="0.1">
<path opacity="0.1" d="M1039.62 413.783H904.83V456.449H1039.62V413.783Z" fill="black"/>
</g>
<path d="M1032.06 450.274H1028.27C1027.29 450.274 1026.45 449.432 1026.45 448.449V421.643C1026.45 420.66 1027.29 419.818 1028.27 419.818H1032.06C1033.04 419.818 1033.88 420.66 1033.88 421.643V448.449C1033.88 449.432 1033.04 450.274 1032.06 450.274Z" fill="#407BFF"/>
<path opacity="0.1" d="M1016.64 450.274H1012.86C1011.88 450.274 1011.04 449.432 1011.04 448.449V421.643C1011.04 420.66 1011.88 419.818 1012.86 419.818H1016.64C1017.62 419.818 1018.47 420.66 1018.47 421.643V448.449C1018.47 449.432 1017.62 450.274 1016.64 450.274Z" fill="black"/>
<path d="M1001.23 450.274H997.446C996.466 450.274 995.625 449.432 995.625 448.449V421.643C995.625 420.66 996.466 419.818 997.446 419.818H1001.23C1002.21 419.818 1003.05 420.66 1003.05 421.643V448.449C1003.05 449.432 1002.35 450.274 1001.23 450.274Z" fill="#407BFF"/>
<path d="M985.958 450.274H982.175C981.194 450.274 980.354 449.432 980.354 448.449V421.643C980.354 420.66 981.194 419.818 982.175 419.818H985.958C986.939 419.818 987.78 420.66 987.78 421.643V448.449C987.78 449.432 986.939 450.274 985.958 450.274Z" fill="#407BFF"/>
<path opacity="0.3" d="M943.361 428.239C943.361 425.573 945.603 423.327 948.265 423.327C950.928 423.327 953.17 425.573 953.17 428.239C953.17 430.906 950.928 433.152 948.265 433.152C945.603 433.152 943.361 431.046 943.361 428.239Z" fill="white"/>
<path opacity="0.3" d="M962.277 446.765C964.986 446.765 967.181 444.566 967.181 441.853C967.181 439.14 964.986 436.941 962.277 436.941C959.569 436.941 957.373 439.14 957.373 441.853C957.373 444.566 959.569 446.765 962.277 446.765Z" fill="white"/>
<path opacity="0.1" d="M957.373 428.239C957.373 425.573 959.615 423.327 962.277 423.327C964.939 423.327 967.181 425.573 967.181 428.239C967.181 430.906 964.939 433.152 962.277 433.152C959.615 433.152 957.373 431.046 957.373 428.239Z" fill="black"/>
<path opacity="0.1" d="M948.265 446.765C950.974 446.765 953.17 444.566 953.17 441.853C953.17 439.14 950.974 436.941 948.265 436.941C945.557 436.941 943.361 439.14 943.361 441.853C943.361 444.566 945.557 446.765 948.265 446.765Z" fill="black"/>
<path opacity="0.3" d="M923.885 445.783C929.766 445.783 934.534 441.007 934.534 435.116C934.534 429.225 929.766 424.45 923.885 424.45C918.004 424.45 913.236 429.225 913.236 435.116C913.236 441.007 918.004 445.783 923.885 445.783Z" fill="white"/>
<g opacity="0.1">
<path opacity="0.1" d="M1039.62 462.204H904.83V504.87H1039.62V462.204Z" fill="black"/>
</g>
<path d="M1032.06 498.694H1028.27C1027.29 498.694 1026.45 497.852 1026.45 496.87V470.063C1026.45 469.081 1027.29 468.239 1028.27 468.239H1032.06C1033.04 468.239 1033.88 469.081 1033.88 470.063V496.87C1033.88 497.852 1033.04 498.694 1032.06 498.694Z" fill="#407BFF"/>
<path opacity="0.1" d="M1016.64 498.694H1012.86C1011.88 498.694 1011.04 497.852 1011.04 496.87V470.063C1011.04 469.081 1011.88 468.239 1012.86 468.239H1016.64C1017.62 468.239 1018.47 469.081 1018.47 470.063V496.87C1018.47 497.852 1017.62 498.694 1016.64 498.694Z" fill="black"/>
<path d="M1001.23 498.694H997.446C996.466 498.694 995.625 497.852 995.625 496.87V470.063C995.625 469.081 996.466 468.239 997.446 468.239H1001.23C1002.21 468.239 1003.05 469.081 1003.05 470.063V496.87C1003.05 497.852 1002.35 498.694 1001.23 498.694Z" fill="#407BFF"/>
<path d="M985.958 498.694H982.175C981.194 498.694 980.354 497.852 980.354 496.87V470.063C980.354 469.081 981.194 468.239 982.175 468.239H985.958C986.939 468.239 987.78 469.081 987.78 470.063V496.87C987.78 497.852 986.939 498.694 985.958 498.694Z" fill="#407BFF"/>
<path opacity="0.3" d="M943.361 476.66C943.361 473.993 945.603 471.747 948.265 471.747C950.928 471.747 953.17 473.993 953.17 476.66C953.17 479.326 950.928 481.572 948.265 481.572C945.603 481.572 943.361 479.467 943.361 476.66Z" fill="white"/>
<path opacity="0.3" d="M962.277 495.186C964.986 495.186 967.181 492.986 967.181 490.273C967.181 487.56 964.986 485.361 962.277 485.361C959.569 485.361 957.373 487.56 957.373 490.273C957.373 492.986 959.569 495.186 962.277 495.186Z" fill="white"/>
<path opacity="0.1" d="M957.373 476.66C957.373 473.993 959.615 471.747 962.277 471.747C964.939 471.747 967.181 473.993 967.181 476.66C967.181 479.326 964.939 481.572 962.277 481.572C959.615 481.572 957.373 479.467 957.373 476.66Z" fill="black"/>
<path opacity="0.1" d="M948.265 495.186C950.974 495.186 953.17 492.986 953.17 490.273C953.17 487.56 950.974 485.361 948.265 485.361C945.557 485.361 943.361 487.56 943.361 490.273C943.361 492.986 945.557 495.186 948.265 495.186Z" fill="black"/>
<path opacity="0.1" d="M923.885 494.203C929.766 494.203 934.534 489.428 934.534 483.537C934.534 477.646 929.766 472.87 923.885 472.87C918.004 472.87 913.236 477.646 913.236 483.537C913.236 489.428 918.004 494.203 923.885 494.203Z" fill="black"/>
<g opacity="0.1">
<path opacity="0.1" d="M1039.62 510.624H904.83V553.29H1039.62V510.624Z" fill="black"/>
</g>
<path d="M1032.06 547.114H1028.27C1027.29 547.114 1026.45 546.272 1026.45 545.29V518.483C1026.45 517.501 1027.29 516.659 1028.27 516.659H1032.06C1033.04 516.659 1033.88 517.501 1033.88 518.483V545.29C1033.88 546.272 1033.04 547.114 1032.06 547.114Z" fill="#407BFF"/>
<path opacity="0.1" d="M1016.64 547.114H1012.86C1011.88 547.114 1011.04 546.272 1011.04 545.29V518.483C1011.04 517.501 1011.88 516.659 1012.86 516.659H1016.64C1017.62 516.659 1018.47 517.501 1018.47 518.483V545.29C1018.47 546.272 1017.62 547.114 1016.64 547.114Z" fill="black"/>
<path d="M1001.23 547.114H997.446C996.466 547.114 995.625 546.272 995.625 545.29V518.483C995.625 517.501 996.466 516.659 997.446 516.659H1001.23C1002.21 516.659 1003.05 517.501 1003.05 518.483V545.29C1003.05 546.272 1002.35 547.114 1001.23 547.114Z" fill="#407BFF"/>
<path d="M985.958 547.114H982.175C981.194 547.114 980.354 546.272 980.354 545.29V518.483C980.354 517.501 981.194 516.659 982.175 516.659H985.958C986.939 516.659 987.78 517.501 987.78 518.483V545.29C987.78 546.272 986.939 547.114 985.958 547.114Z" fill="#407BFF"/>
<path opacity="0.3" d="M948.265 529.992C950.974 529.992 953.17 527.793 953.17 525.08C953.17 522.367 950.974 520.168 948.265 520.168C945.557 520.168 943.361 522.367 943.361 525.08C943.361 527.793 945.557 529.992 948.265 529.992Z" fill="white"/>
<path opacity="0.3" d="M962.277 543.606C964.986 543.606 967.181 541.407 967.181 538.694C967.181 535.981 964.986 533.781 962.277 533.781C959.569 533.781 957.373 535.981 957.373 538.694C957.373 541.407 959.569 543.606 962.277 543.606Z" fill="white"/>
<path opacity="0.3" d="M962.277 529.992C964.986 529.992 967.181 527.793 967.181 525.08C967.181 522.367 964.986 520.168 962.277 520.168C959.569 520.168 957.373 522.367 957.373 525.08C957.373 527.793 959.569 529.992 962.277 529.992Z" fill="white"/>
<path opacity="0.1" d="M948.265 543.606C950.974 543.606 953.17 541.407 953.17 538.694C953.17 535.981 950.974 533.781 948.265 533.781C945.557 533.781 943.361 535.981 943.361 538.694C943.361 541.407 945.557 543.606 948.265 543.606Z" fill="black"/>
<path opacity="0.3" d="M923.885 542.623C929.766 542.623 934.534 537.848 934.534 531.957C934.534 526.066 929.766 521.29 923.885 521.29C918.004 521.29 913.236 526.066 913.236 531.957C913.236 537.848 918.004 542.623 923.885 542.623Z" fill="white"/>
<g opacity="0.1">
<path opacity="0.1" d="M1039.62 559.044H904.83V601.71H1039.62V559.044Z" fill="black"/>
</g>
<path d="M1032.06 595.535H1028.27C1027.29 595.535 1026.45 594.693 1026.45 593.71V566.904C1026.45 565.921 1027.29 565.079 1028.27 565.079H1032.06C1033.04 565.079 1033.88 565.921 1033.88 566.904V593.71C1033.88 594.833 1033.04 595.535 1032.06 595.535Z" fill="#407BFF"/>
<path opacity="0.1" d="M1016.64 595.535H1012.86C1011.88 595.535 1011.04 594.693 1011.04 593.71V566.904C1011.04 565.921 1011.88 565.079 1012.86 565.079H1016.64C1017.62 565.079 1018.47 565.921 1018.47 566.904V593.71C1018.47 594.833 1017.62 595.535 1016.64 595.535Z" fill="black"/>
<path d="M1001.23 595.535H997.446C996.466 595.535 995.625 594.693 995.625 593.71V566.904C995.625 565.921 996.466 565.079 997.446 565.079H1001.23C1002.21 565.079 1003.05 565.921 1003.05 566.904V593.71C1003.05 594.833 1002.35 595.535 1001.23 595.535Z" fill="#407BFF"/>
<path d="M985.958 595.535H982.175C981.194 595.535 980.354 594.693 980.354 593.71V566.904C980.354 565.921 981.194 565.079 982.175 565.079H985.958C986.939 565.079 987.78 565.921 987.78 566.904V593.71C987.78 594.833 986.939 595.535 985.958 595.535Z" fill="#407BFF"/>
<path opacity="0.3" d="M948.265 578.553C950.974 578.553 953.17 576.353 953.17 573.64C953.17 570.927 950.974 568.728 948.265 568.728C945.557 568.728 943.361 570.927 943.361 573.64C943.361 576.353 945.557 578.553 948.265 578.553Z" fill="white"/>
<path opacity="0.3" d="M962.277 592.026C964.986 592.026 967.181 589.827 967.181 587.114C967.181 584.401 964.986 582.202 962.277 582.202C959.569 582.202 957.373 584.401 957.373 587.114C957.373 589.827 959.569 592.026 962.277 592.026Z" fill="white"/>
<path opacity="0.3" d="M962.277 578.553C964.986 578.553 967.181 576.353 967.181 573.64C967.181 570.927 964.986 568.728 962.277 568.728C959.569 568.728 957.373 570.927 957.373 573.64C957.373 576.353 959.569 578.553 962.277 578.553Z" fill="white"/>
<path opacity="0.1" d="M948.265 592.026C950.974 592.026 953.17 589.827 953.17 587.114C953.17 584.401 950.974 582.202 948.265 582.202C945.557 582.202 943.361 584.401 943.361 587.114C943.361 589.827 945.557 592.026 948.265 592.026Z" fill="black"/>
<path opacity="0.3" d="M923.885 591.044C929.766 591.044 934.534 586.268 934.534 580.377C934.534 574.486 929.766 569.711 923.885 569.711C918.004 569.711 913.236 574.486 913.236 580.377C913.236 586.268 918.004 591.044 923.885 591.044Z" fill="white"/>
<path d="M904.129 269.084H1008.24L1022.81 328.873H918.701L904.129 269.084Z" fill="#407BFF"/>
<path d="M948.125 328.873L948.545 332.101H1059.8L1059.38 328.873H948.125Z" fill="#407BFF"/>
<path d="M1005.01 269.084L1019.73 328.873L1020.15 332.101H919.121L918.701 328.873L904.129 269.084H1005.01Z" fill="#407BFF"/>
<path d="M1005.01 269.084L1019.73 328.873L1020.15 332.101H919.121L918.701 328.873L904.129 269.084H1005.01Z" fill="#0F264C"/>
<path d="M963.117 233.716L962.416 233.436C961.576 233.015 941.959 222.488 939.157 208.734C936.495 195.401 937.055 182.489 937.055 181.928V180.665L938.316 180.524C938.456 180.524 953.169 179.401 962.556 176.314L962.977 176.173L963.397 176.314C972.925 179.401 987.497 180.524 987.637 180.524L988.898 180.665V181.928C988.898 182.489 989.599 195.401 986.797 208.734C983.994 222.488 964.378 233.015 963.537 233.436L963.117 233.716ZM939.857 183.331C939.717 186.84 939.717 197.506 941.959 208.173C944.201 219.26 959.754 228.664 963.117 230.629C966.48 228.664 982.033 219.401 984.275 208.173C986.376 197.506 986.376 186.84 986.376 183.331C982.593 183.05 971.384 181.787 963.117 179.261C954.85 181.787 943.641 182.91 939.857 183.331Z" fill="#F6AC3B"/>
<path d="M963.116 225.997C957.231 222.348 947.423 214.91 945.882 207.471C944.34 199.612 943.92 191.752 943.92 186.98C948.824 186.419 956.671 185.296 963.116 183.471C969.561 185.296 977.408 186.419 982.312 186.98C982.312 191.752 981.892 199.612 980.35 207.471C978.809 214.91 969.001 222.348 963.116 225.997Z" fill="#F6AC3B"/>
<path opacity="0.3" d="M863.634 607.465H860.832V279.61C860.832 262.768 874.423 249.155 891.237 249.155H953.73C958.073 249.155 961.716 245.506 961.716 241.155H964.519C964.519 247.049 959.755 251.962 953.73 251.962H891.237C875.965 251.962 863.634 264.312 863.634 279.61V607.465Z" fill="#407BFF"/>
</svg>
