<svg width="1920" height="879" viewBox="0 0 1920 879" fill="none" xmlns="http://www.w3.org/2000/svg">
<g clip-path="url(#clip0)">
<path d="M1775.02 650.91H750.445V651.42H1775.02V650.91Z" fill="#D1E3FF"/>
<path d="M1035.48 670.277H935.893V670.786H1035.48V670.277Z" fill="#D1E3FF"/>
<path d="M913.76 670.447H887.531V670.956H913.76V670.447Z" fill="#D1E3FF"/>
<path d="M1180.15 667.559H1149.41V668.068H1180.15V667.559Z" fill="#D1E3FF"/>
<path d="M1317.24 667.559H1191.83V668.068H1317.24V667.559Z" fill="#D1E3FF"/>
<path d="M1612.52 670.786H1496.13V671.296H1612.52V670.786Z" fill="#D1E3FF"/>
<path d="M1484.65 670.786H1453.91V671.296H1484.65V670.786Z" fill="#D1E3FF"/>
<path d="M1669.69 663.142H1643.25V663.651H1669.69V663.142Z" fill="#D1E3FF"/>
<path d="M1236.32 575H840.679C834.327 575 829 570.863 829 565.93V134.07C829 129.137 834.327 125 840.679 125H1236.32C1242.67 125 1248 129.137 1248 134.07V565.93C1248 570.863 1242.88 575 1236.32 575ZM840.679 125.318C834.532 125.318 829.41 129.137 829.41 134.07V565.93C829.41 570.704 834.327 574.682 840.679 574.682H1236.32C1242.47 574.682 1247.59 570.863 1247.59 565.93V134.07C1247.59 129.296 1242.67 125.318 1236.32 125.318H840.679Z" fill="#D1E3FF"/>
<path d="M1679.32 575H1283.68C1277.33 575 1272 570.863 1272 565.93V134.07C1272 129.137 1277.33 125 1283.68 125H1679.32C1685.67 125 1691 129.137 1691 134.07V565.93C1691 570.863 1685.88 575 1679.32 575ZM1283.68 125.318C1277.53 125.318 1272.41 129.137 1272.41 134.07V565.93C1272.41 570.704 1277.33 574.682 1283.68 574.682H1679.32C1685.47 574.682 1690.59 570.863 1690.59 565.93V134.07C1690.59 129.296 1685.67 125.318 1679.32 125.318H1283.68Z" fill="#D1E3FF"/>
<path d="M1775.02 625.768H1633.83C1630.76 625.768 1628.09 623.559 1628.09 621.011V313.187C1628.09 310.978 1626.04 309.28 1623.38 309.28H1608.42V308.43H1623.38C1626.45 308.43 1629.12 310.639 1629.12 313.187V621.011C1629.12 623.22 1631.17 624.919 1633.83 624.919H1775.02V625.768Z" fill="#60DBF3"/>
<path d="M1775.02 619.482H1638.54C1635.47 619.482 1632.81 617.274 1632.81 614.726V307.071C1632.81 304.863 1630.76 303.164 1628.09 303.164H1608.42V302.315H1628.09C1631.17 302.315 1633.83 304.523 1633.83 307.071V614.896C1633.83 617.104 1635.88 618.803 1638.54 618.803H1775.02V619.482Z" fill="#60DBF3"/>
<path d="M1775.02 613.367H1643.46C1640.39 613.367 1637.72 611.158 1637.72 608.61V300.786C1637.72 298.577 1635.67 296.878 1633.01 296.878H1608.63V296.029H1633.01C1636.08 296.029 1638.75 298.237 1638.75 300.786V608.61C1638.75 610.818 1640.8 612.517 1643.46 612.517H1775.02V613.367Z" fill="#60DBF3"/>
<path d="M1775.02 607.081H1648.17C1645.1 607.081 1642.44 604.872 1642.44 602.324V294.5C1642.44 292.292 1640.39 290.593 1637.72 290.593H1608.42V289.743H1637.72C1640.8 289.743 1643.46 291.952 1643.46 294.5V602.324C1643.46 604.533 1645.51 606.232 1648.17 606.232H1775.02V607.081Z" fill="#60DBF3"/>
<path d="M1775.02 600.965H1653.09C1650.02 600.965 1647.35 598.757 1647.35 596.209V288.384C1647.35 286.176 1645.31 284.477 1642.64 284.477H1608.63V283.628H1642.64C1645.72 283.628 1648.38 285.836 1648.38 288.384V596.209C1648.38 598.417 1650.43 600.116 1653.09 600.116H1775.02V600.965Z" fill="#60DBF3"/>
<path d="M1775.02 594.68H1657.81C1654.73 594.68 1652.07 592.471 1652.07 589.923V282.099C1652.07 279.89 1650.02 278.191 1647.35 278.191H1608.42V277.342H1647.35C1650.43 277.342 1653.09 279.55 1653.09 282.099V589.923C1653.09 592.132 1655.14 593.83 1657.81 593.83H1775.02V594.68Z" fill="#60DBF3"/>
<path d="M1775.01 588.394H1662.52C1659.44 588.394 1656.78 586.186 1656.78 583.637V275.983C1656.78 273.774 1654.73 272.076 1652.07 272.076H1608.42V271.226H1652.07C1655.14 271.226 1657.8 273.435 1657.8 275.983V583.807C1657.8 586.016 1659.85 587.714 1662.52 587.714H1775.01V588.394Z" fill="#60DBF3"/>
<path d="M1321.75 339.349H1195.11V340.198H1321.75V339.349Z" fill="#60DBF3"/>
<path d="M1321.75 333.233H1195.11V334.082H1321.75V333.233Z" fill="#60DBF3"/>
<path d="M1321.75 326.947H1195.11V327.797H1321.75V326.947Z" fill="#60DBF3"/>
<path d="M1321.75 320.662H1195.11V321.511H1321.75V320.662Z" fill="#60DBF3"/>
<path d="M1321.75 314.546H1195.11V315.395H1321.75V314.546Z" fill="#60DBF3"/>
<path d="M1321.75 308.26H1195.11V309.11H1321.75V308.26Z" fill="#60DBF3"/>
<path d="M1321.75 302.145H1195.11V302.994H1321.75V302.145Z" fill="#60DBF3"/>
<path d="M1321.75 550.001H1195.11V550.85H1321.75V550.001Z" fill="#60DBF3"/>
<path d="M1321.75 543.715H1195.11V544.565H1321.75V543.715Z" fill="#60DBF3"/>
<path d="M1321.75 537.6H1195.11V538.449H1321.75V537.6Z" fill="#60DBF3"/>
<path d="M1321.75 531.314H1195.11V532.163H1321.75V531.314Z" fill="#60DBF3"/>
<path d="M1321.75 525.028H1195.11V525.878H1321.75V525.028Z" fill="#60DBF3"/>
<path d="M1321.75 518.913H1195.11V519.762H1321.75V518.913Z" fill="#60DBF3"/>
<path d="M1321.75 512.627H1195.11V513.477H1321.75V512.627Z" fill="#60DBF3"/>
<path d="M946.959 595.529H897.779C894.705 595.529 892.042 593.321 892.042 590.772V282.948C892.042 280.74 889.992 279.041 887.329 279.041H829.338V278.191H887.533C890.607 278.191 893.271 280.4 893.271 282.948V590.772C893.271 592.981 895.32 594.68 897.984 594.68H947.163V595.529H946.959Z" fill="#60DBF3"/>
<path d="M946.959 601.645H893.066C889.992 601.645 887.329 599.436 887.329 596.888V289.234C887.329 287.025 885.279 285.326 882.616 285.326H829.338V284.477H882.616C885.689 284.477 888.353 286.685 888.353 289.234V597.058C888.353 599.266 890.402 600.965 893.066 600.965H946.959V601.645Z" fill="#60DBF3"/>
<path d="M946.959 607.93H888.353C885.279 607.93 882.616 605.722 882.616 603.174V295.349C882.616 293.141 880.566 291.442 877.903 291.442H829.338V290.593H877.903C880.976 290.593 883.64 292.801 883.64 295.349V603.174C883.64 605.382 885.689 607.081 888.353 607.081H947.163V607.93H946.959Z" fill="#60DBF3"/>
<path d="M946.959 614.046H883.435C880.361 614.046 877.698 611.838 877.698 609.289V301.635C877.698 299.426 875.648 297.728 872.985 297.728H829.338V296.878H872.985C876.058 296.878 878.722 299.087 878.722 301.635V609.459C878.722 611.668 880.771 613.367 883.435 613.367H946.959V614.046Z" fill="#60DBF3"/>
<path d="M946.959 620.331H878.722C875.648 620.331 872.985 618.123 872.985 615.575V307.751C872.985 305.542 870.935 303.843 868.272 303.843H829.338V302.994H868.272C871.345 302.994 874.009 305.202 874.009 307.751V615.575C874.009 617.783 876.058 619.482 878.722 619.482H947.163V620.331H946.959Z" fill="#60DBF3"/>
<path d="M946.959 626.617H873.804C870.731 626.617 868.067 624.409 868.067 621.861V314.036C868.067 311.828 866.017 310.129 863.354 310.129H829.338V309.28H863.559C866.632 309.28 869.296 311.488 869.296 314.036V621.861C869.296 624.069 871.345 625.768 874.009 625.768H947.163V626.617H946.959Z" fill="#60DBF3"/>
<path d="M946.959 632.733H869.091C866.018 632.733 863.354 630.525 863.354 627.976V320.152C863.354 317.944 861.304 316.245 858.641 316.245H829.338V315.395H858.641C861.714 315.395 864.378 317.604 864.378 320.152V627.976C864.378 630.185 866.427 631.884 869.091 631.884H946.959V632.733Z" fill="#60DBF3"/>
<path d="M1154.94 625.258H946.957V650.91H1154.94V625.258Z" fill="#5CDBF5"/>
<path d="M1154.9 650.983H1197.12V625.331H1154.9V650.983Z" fill="#60DBF3"/>
<path d="M1154.95 173.545H933.023V625.428H1154.95V173.545Z" fill="#67AEC1"/>
<path d="M1192.65 169.637H951.67V173.545H1192.65V169.637Z" fill="#5CDBF5"/>
<path d="M1155.04 625.294H1211.18V173.411H1155.04V625.294Z" fill="#5CDBF5"/>
<path d="M1148.39 178.981H939.58V228.416H1148.39V178.981Z" fill="#5CDBF5"/>
<path d="M1148.39 570.217H939.58V619.652H1148.39V570.217Z" fill="#5CDBF5"/>
<path d="M1148.39 514.326H939.58V563.761H1148.39V514.326Z" fill="#5CDBF5"/>
<path d="M1148.39 458.435H939.58V507.87H1148.39V458.435Z" fill="#5CDBF5"/>
<path d="M1148.39 402.544H939.58V451.98H1148.39V402.544Z" fill="#5CDBF5"/>
<path d="M1148.39 346.653H939.58V396.089H1148.39V346.653Z" fill="#5CDBF5"/>
<path d="M1148.39 290.763H939.58V340.198H1148.39V290.763Z" fill="#5CDBF5"/>
<path d="M1148.39 234.872H939.58V284.307H1148.39V234.872Z" fill="#5CDBF5"/>
<path opacity="0.7" d="M1131.38 221.281H1090.6C1085.89 221.281 1081.79 218.053 1081.79 213.976V193.251C1081.79 189.344 1085.68 185.946 1090.6 185.946H1131.38C1136.09 185.946 1140.19 189.174 1140.19 193.251V214.146C1140.19 218.053 1136.3 221.281 1131.38 221.281Z" fill="#5CDBF5"/>
<path d="M1122.57 205.992V201.235C1122.57 200.046 1123.8 199.027 1125.23 199.027H1130.97C1132.4 199.027 1133.63 200.046 1133.63 201.235V205.992C1133.63 207.181 1132.4 208.2 1130.97 208.2H1125.23C1123.59 208.2 1122.57 207.181 1122.57 205.992Z" fill="#67AEC1"/>
<path opacity="0.7" d="M1131.38 277.172H1090.6C1085.89 277.172 1081.79 273.944 1081.79 269.867V248.972C1081.79 245.065 1085.68 241.667 1090.6 241.667H1131.38C1136.09 241.667 1140.19 244.895 1140.19 248.972V269.867C1140.19 273.944 1136.3 277.172 1131.38 277.172Z" fill="#5CDBF5"/>
<path d="M1122.57 261.883V257.126C1122.57 255.937 1123.8 254.918 1125.23 254.918H1130.97C1132.4 254.918 1133.63 255.937 1133.63 257.126V261.883C1133.63 263.072 1132.4 264.091 1130.97 264.091H1125.23C1123.59 264.091 1122.57 263.072 1122.57 261.883Z" fill="#67AEC1"/>
<path opacity="0.7" d="M1131.38 333.063H1090.6C1085.89 333.063 1081.79 329.835 1081.79 325.758V304.863C1081.79 300.955 1085.68 297.558 1090.6 297.558H1131.38C1136.09 297.558 1140.19 300.786 1140.19 304.863V325.758C1140.19 329.835 1136.3 333.063 1131.38 333.063Z" fill="#5CDBF5"/>
<path d="M1122.57 317.774V313.017C1122.57 311.828 1123.8 310.808 1125.23 310.808H1130.97C1132.4 310.808 1133.63 311.828 1133.63 313.017V317.774C1133.63 318.963 1132.4 319.982 1130.97 319.982H1125.23C1123.59 319.982 1122.57 318.963 1122.57 317.774Z" fill="#67AEC1"/>
<path opacity="0.7" d="M1131.38 388.954H1090.6C1085.89 388.954 1081.79 385.726 1081.79 381.649V360.753C1081.79 356.846 1085.68 353.449 1090.6 353.449H1131.38C1136.09 353.449 1140.19 356.676 1140.19 360.753V381.819C1140.19 385.726 1136.3 388.954 1131.38 388.954Z" fill="#5EDBF4"/>
<path d="M1122.57 373.664V368.908C1122.57 367.719 1123.8 366.699 1125.23 366.699H1130.97C1132.4 366.699 1133.63 367.719 1133.63 368.908V373.664C1133.63 374.854 1132.4 375.873 1130.97 375.873H1125.23C1123.59 375.873 1122.57 374.854 1122.57 373.664Z" fill="#67AEC1"/>
<path opacity="0.7" d="M1131.38 444.845H1090.6C1085.89 444.845 1081.79 441.617 1081.79 437.54V416.644C1081.79 412.737 1085.68 409.339 1090.6 409.339H1131.38C1136.09 409.339 1140.19 412.567 1140.19 416.644V437.54C1140.19 441.617 1136.3 444.845 1131.38 444.845Z" fill="#5CDBF5"/>
<path d="M1122.57 429.555V424.799C1122.57 423.609 1123.8 422.59 1125.23 422.59H1130.97C1132.4 422.59 1133.63 423.609 1133.63 424.799V429.555C1133.63 430.744 1132.4 431.764 1130.97 431.764H1125.23C1123.59 431.764 1122.57 430.744 1122.57 429.555Z" fill="#67AEC1"/>
<path opacity="0.7" d="M1131.38 500.735H1090.6C1085.89 500.735 1081.79 497.508 1081.79 493.431V472.535C1081.79 468.628 1085.68 465.23 1090.6 465.23H1131.38C1136.09 465.23 1140.19 468.458 1140.19 472.535V493.431C1140.19 497.508 1136.3 500.735 1131.38 500.735Z" fill="#5CDBF5"/>
<path d="M1122.57 485.446V480.69C1122.57 479.5 1123.8 478.481 1125.23 478.481H1130.97C1132.4 478.481 1133.63 479.5 1133.63 480.69V485.446C1133.63 486.635 1132.4 487.655 1130.97 487.655H1125.23C1123.59 487.655 1122.57 486.635 1122.57 485.446Z" fill="#67AEC1"/>
<path opacity="0.7" d="M1131.38 556.626H1090.6C1085.89 556.626 1081.79 553.399 1081.79 549.321V528.426C1081.79 524.519 1085.68 521.121 1090.6 521.121H1131.38C1136.09 521.121 1140.19 524.349 1140.19 528.426V549.321C1140.19 553.399 1136.3 556.626 1131.38 556.626Z" fill="white"/>
<path d="M1122.57 541.337V536.58C1122.57 535.391 1123.8 534.372 1125.23 534.372H1130.97C1132.4 534.372 1133.63 535.391 1133.63 536.58V541.337C1133.63 542.526 1132.4 543.545 1130.97 543.545H1125.23C1123.59 543.545 1122.57 542.526 1122.57 541.337Z" fill="#67AEC1"/>
<path opacity="0.7" d="M1131.38 612.517H1090.6C1085.89 612.517 1081.79 609.289 1081.79 605.212V584.317C1081.79 580.41 1085.68 577.012 1090.6 577.012H1131.38C1136.09 577.012 1140.19 580.24 1140.19 584.317V605.212C1140.19 609.289 1136.3 612.517 1131.38 612.517Z" fill="white"/>
<path d="M1122.57 597.228V592.471C1122.57 591.282 1123.8 590.263 1125.23 590.263H1130.97C1132.4 590.263 1133.63 591.282 1133.63 592.471V597.228C1133.63 598.417 1132.4 599.436 1130.97 599.436H1125.23C1123.59 599.436 1122.57 598.417 1122.57 597.228Z" fill="#67AEC1"/>
<path d="M1105.56 205.992V201.235C1105.56 200.046 1106.79 199.027 1108.22 199.027H1113.96C1115.4 199.027 1116.63 200.046 1116.63 201.235V205.992C1116.63 207.181 1115.4 208.2 1113.96 208.2H1108.22C1106.79 208.2 1105.56 207.181 1105.56 205.992Z" fill="#67AEC1"/>
<path d="M1105.56 261.883V257.126C1105.56 255.937 1106.79 254.918 1108.22 254.918H1113.96C1115.4 254.918 1116.63 255.937 1116.63 257.126V261.883C1116.63 263.072 1115.4 264.091 1113.96 264.091H1108.22C1106.79 264.091 1105.56 263.072 1105.56 261.883Z" fill="#67AEC1"/>
<path d="M1105.56 317.774V313.017C1105.56 311.828 1106.79 310.808 1108.22 310.808H1113.96C1115.4 310.808 1116.63 311.828 1116.63 313.017V317.774C1116.63 318.963 1115.4 319.982 1113.96 319.982H1108.22C1106.79 319.982 1105.56 318.963 1105.56 317.774Z" fill="#67AEC1"/>
<path d="M1105.56 373.664V368.908C1105.56 367.719 1106.79 366.699 1108.22 366.699H1113.96C1115.4 366.699 1116.63 367.719 1116.63 368.908V373.664C1116.63 374.854 1115.4 375.873 1113.96 375.873H1108.22C1106.79 375.873 1105.56 374.854 1105.56 373.664Z" fill="#67AEC1"/>
<path d="M1105.56 429.555V424.799C1105.56 423.609 1106.79 422.59 1108.22 422.59H1113.96C1115.4 422.59 1116.63 423.609 1116.63 424.799V429.555C1116.63 430.744 1115.4 431.764 1113.96 431.764H1108.22C1106.79 431.764 1105.56 430.744 1105.56 429.555Z" fill="#67AEC1"/>
<path d="M1105.56 485.446V480.69C1105.56 479.5 1106.79 478.481 1108.22 478.481H1113.96C1115.4 478.481 1116.63 479.5 1116.63 480.69V485.446C1116.63 486.635 1115.4 487.655 1113.96 487.655H1108.22C1106.79 487.655 1105.56 486.635 1105.56 485.446Z" fill="#67AEC1"/>
<path d="M1105.56 541.337V536.58C1105.56 535.391 1106.79 534.372 1108.22 534.372H1113.96C1115.4 534.372 1116.63 535.391 1116.63 536.58V541.337C1116.63 542.526 1115.4 543.545 1113.96 543.545H1108.22C1106.79 543.545 1105.56 542.526 1105.56 541.337Z" fill="#67AEC1"/>
<path d="M1105.56 597.228V592.471C1105.56 591.282 1106.79 590.263 1108.22 590.263H1113.96C1115.4 590.263 1116.63 591.282 1116.63 592.471V597.228C1116.63 598.417 1115.4 599.436 1113.96 599.436H1108.22C1106.79 599.436 1105.56 598.417 1105.56 597.228Z" fill="#67AEC1"/>
<path d="M1061.09 209.39C1064.94 209.39 1068.06 206.804 1068.06 203.614C1068.06 200.424 1064.94 197.838 1061.09 197.838C1057.25 197.838 1054.13 200.424 1054.13 203.614C1054.13 206.804 1057.25 209.39 1061.09 209.39Z" fill="#67AEC1"/>
<path d="M1048.39 203.614C1048.39 206.841 1045.32 209.39 1041.42 209.39C1037.53 209.39 1034.46 206.841 1034.46 203.614C1034.46 200.386 1037.53 197.838 1041.42 197.838C1045.32 198.008 1048.39 200.556 1048.39 203.614Z" fill="#67AEC1"/>
<path d="M1028.51 203.614C1028.51 206.841 1025.44 209.39 1021.55 209.39C1017.65 209.39 1014.58 206.841 1014.58 203.614C1014.58 200.386 1017.65 197.838 1021.55 197.838C1025.44 198.008 1028.51 200.556 1028.51 203.614Z" fill="#67AEC1"/>
<path d="M1002.08 209.39C1005.93 209.39 1009.05 206.804 1009.05 203.614C1009.05 200.424 1005.93 197.838 1002.08 197.838C998.231 197.838 995.111 200.424 995.111 203.614C995.111 206.804 998.231 209.39 1002.08 209.39Z" fill="#67AEC1"/>
<path d="M1061.09 265.28C1064.94 265.28 1068.06 262.694 1068.06 259.504C1068.06 256.314 1064.94 253.729 1061.09 253.729C1057.25 253.729 1054.13 256.314 1054.13 259.504C1054.13 262.694 1057.25 265.28 1061.09 265.28Z" fill="#67AEC1"/>
<path d="M1048.39 259.504C1048.39 262.732 1045.32 265.28 1041.42 265.28C1037.53 265.28 1034.46 262.732 1034.46 259.504C1034.46 256.277 1037.53 253.729 1041.42 253.729C1045.32 253.898 1048.39 256.447 1048.39 259.504Z" fill="#67AEC1"/>
<path d="M1028.51 259.504C1028.51 262.732 1025.44 265.28 1021.55 265.28C1017.65 265.28 1014.58 262.732 1014.58 259.504C1014.58 256.277 1017.65 253.729 1021.55 253.729C1025.44 253.898 1028.51 256.447 1028.51 259.504Z" fill="#67AEC1"/>
<path d="M1002.08 265.28C1005.93 265.28 1009.05 262.694 1009.05 259.504C1009.05 256.314 1005.93 253.729 1002.08 253.729C998.231 253.729 995.111 256.314 995.111 259.504C995.111 262.694 998.231 265.28 1002.08 265.28Z" fill="#67AEC1"/>
<path d="M1068.06 315.395C1068.06 318.623 1064.99 321.171 1061.1 321.171C1057.2 321.171 1054.13 318.623 1054.13 315.395C1054.13 312.168 1057.2 309.619 1061.1 309.619C1064.99 309.619 1068.06 312.337 1068.06 315.395Z" fill="#67AEC1"/>
<path d="M1048.39 315.395C1048.39 318.623 1045.32 321.171 1041.42 321.171C1037.53 321.171 1034.46 318.623 1034.46 315.395C1034.46 312.168 1037.53 309.619 1041.42 309.619C1045.32 309.789 1048.39 312.337 1048.39 315.395Z" fill="#67AEC1"/>
<path d="M1028.51 315.395C1028.51 318.623 1025.44 321.171 1021.55 321.171C1017.65 321.171 1014.58 318.623 1014.58 315.395C1014.58 312.168 1017.65 309.619 1021.55 309.619C1025.44 309.789 1028.51 312.337 1028.51 315.395Z" fill="#67AEC1"/>
<path d="M1008.84 315.395C1008.84 318.623 1005.77 321.171 1001.88 321.171C997.982 321.171 994.908 318.623 994.908 315.395C994.908 312.168 997.982 309.619 1001.88 309.619C1005.77 309.619 1008.84 312.337 1008.84 315.395Z" fill="#67AEC1"/>
<path d="M1068.06 371.286C1068.06 374.514 1064.99 377.062 1061.1 377.062C1057.2 377.062 1054.13 374.514 1054.13 371.286C1054.13 368.058 1057.2 365.51 1061.1 365.51C1064.99 365.51 1068.06 368.228 1068.06 371.286Z" fill="#67AEC1"/>
<path d="M1048.39 371.286C1048.39 374.514 1045.32 377.062 1041.42 377.062C1037.53 377.062 1034.46 374.514 1034.46 371.286C1034.46 368.058 1037.53 365.51 1041.42 365.51C1045.32 365.68 1048.39 368.228 1048.39 371.286Z" fill="#67AEC1"/>
<path d="M1028.51 371.286C1028.51 374.514 1025.44 377.062 1021.55 377.062C1017.65 377.062 1014.58 374.514 1014.58 371.286C1014.58 368.058 1017.65 365.51 1021.55 365.51C1025.44 365.68 1028.51 368.228 1028.51 371.286Z" fill="#67AEC1"/>
<path d="M1008.84 371.286C1008.84 374.514 1005.77 377.062 1001.88 377.062C997.982 377.062 994.908 374.514 994.908 371.286C994.908 368.058 997.982 365.51 1001.88 365.51C1005.77 365.51 1008.84 368.228 1008.84 371.286Z" fill="#67AEC1"/>
<path d="M1068.06 427.177C1068.06 430.405 1064.99 432.953 1061.1 432.953C1057.2 432.953 1054.13 430.405 1054.13 427.177C1054.13 423.949 1057.2 421.401 1061.1 421.401C1064.99 421.401 1068.06 424.119 1068.06 427.177Z" fill="#67AEC1"/>
<path d="M1048.39 427.177C1048.39 430.405 1045.32 432.953 1041.42 432.953C1037.53 432.953 1034.46 430.405 1034.46 427.177C1034.46 423.949 1037.53 421.401 1041.42 421.401C1045.32 421.571 1048.39 424.119 1048.39 427.177Z" fill="#67AEC1"/>
<path d="M1028.51 427.177C1028.51 430.405 1025.44 432.953 1021.55 432.953C1017.65 432.953 1014.58 430.405 1014.58 427.177C1014.58 423.949 1017.65 421.401 1021.55 421.401C1025.44 421.571 1028.51 424.119 1028.51 427.177Z" fill="#67AEC1"/>
<path d="M1008.84 427.177C1008.84 430.405 1005.77 432.953 1001.88 432.953C997.982 432.953 994.908 430.405 994.908 427.177C994.908 423.949 997.982 421.401 1001.88 421.401C1005.77 421.401 1008.84 424.119 1008.84 427.177Z" fill="#67AEC1"/>
<path d="M1068.06 483.068C1068.06 486.295 1064.99 488.844 1061.1 488.844C1057.2 488.844 1054.13 486.295 1054.13 483.068C1054.13 479.84 1057.2 477.292 1061.1 477.292C1064.99 477.292 1068.06 480.01 1068.06 483.068Z" fill="#67AEC1"/>
<path d="M1048.39 483.068C1048.39 486.295 1045.32 488.844 1041.42 488.844C1037.53 488.844 1034.46 486.295 1034.46 483.068C1034.46 479.84 1037.53 477.292 1041.42 477.292C1045.32 477.462 1048.39 480.01 1048.39 483.068Z" fill="#67AEC1"/>
<path d="M1028.51 483.068C1028.51 486.295 1025.44 488.844 1021.55 488.844C1017.65 488.844 1014.58 486.295 1014.58 483.068C1014.58 479.84 1017.65 477.292 1021.55 477.292C1025.44 477.462 1028.51 480.01 1028.51 483.068Z" fill="#67AEC1"/>
<path d="M1008.84 483.068C1008.84 486.295 1005.77 488.844 1001.88 488.844C997.982 488.844 994.908 486.295 994.908 483.068C994.908 479.84 997.982 477.292 1001.88 477.292C1005.77 477.292 1008.84 480.01 1008.84 483.068Z" fill="#67AEC1"/>
<path d="M1061.09 544.735C1064.94 544.735 1068.06 542.149 1068.06 538.959C1068.06 535.769 1064.94 533.183 1061.09 533.183C1057.25 533.183 1054.13 535.769 1054.13 538.959C1054.13 542.149 1057.25 544.735 1061.09 544.735Z" fill="#67AEC1"/>
<path d="M1048.39 538.959C1048.39 542.186 1045.32 544.735 1041.42 544.735C1037.53 544.735 1034.46 542.186 1034.46 538.959C1034.46 535.731 1037.53 533.183 1041.42 533.183C1045.32 533.353 1048.39 535.901 1048.39 538.959Z" fill="#67AEC1"/>
<path d="M1028.51 538.959C1028.51 542.186 1025.44 544.735 1021.55 544.735C1017.65 544.735 1014.58 542.186 1014.58 538.959C1014.58 535.731 1017.65 533.183 1021.55 533.183C1025.44 533.353 1028.51 535.901 1028.51 538.959Z" fill="#67AEC1"/>
<path d="M1002.08 544.735C1005.93 544.735 1009.05 542.149 1009.05 538.959C1009.05 535.769 1005.93 533.183 1002.08 533.183C998.231 533.183 995.111 535.769 995.111 538.959C995.111 542.149 998.231 544.735 1002.08 544.735Z" fill="#67AEC1"/>
<path d="M1061.09 600.625C1064.94 600.625 1068.06 598.039 1068.06 594.849C1068.06 591.659 1064.94 589.073 1061.09 589.073C1057.25 589.073 1054.13 591.659 1054.13 594.849C1054.13 598.039 1057.25 600.625 1061.09 600.625Z" fill="#67AEC1"/>
<path d="M1048.39 594.849C1048.39 598.077 1045.32 600.625 1041.42 600.625C1037.53 600.625 1034.46 598.077 1034.46 594.849C1034.46 591.622 1037.53 589.073 1041.42 589.073C1045.32 589.243 1048.39 591.792 1048.39 594.849Z" fill="#67AEC1"/>
<path d="M1028.51 594.849C1028.51 598.077 1025.44 600.625 1021.55 600.625C1017.65 600.625 1014.58 598.077 1014.58 594.849C1014.58 591.622 1017.65 589.073 1021.55 589.073C1025.44 589.243 1028.51 591.792 1028.51 594.849Z" fill="#67AEC1"/>
<path d="M1002.08 600.625C1005.93 600.625 1009.05 598.039 1009.05 594.849C1009.05 591.66 1005.93 589.074 1002.08 589.074C998.231 589.074 995.111 591.66 995.111 594.849C995.111 598.039 998.231 600.625 1002.08 600.625Z" fill="#67AEC1"/>
<path d="M966.425 216.015C974.686 216.015 981.383 210.463 981.383 203.614C981.383 196.765 974.686 191.212 966.425 191.212C958.163 191.212 951.466 196.765 951.466 203.614C951.466 210.463 958.163 216.015 966.425 216.015Z" fill="#60DBF3"/>
<path d="M966.425 271.906C974.686 271.906 981.383 266.353 981.383 259.504C981.383 252.655 974.686 247.103 966.425 247.103C958.163 247.103 951.466 252.655 951.466 259.504C951.466 266.353 958.163 271.906 966.425 271.906Z" fill="#60DBF3"/>
<path d="M981.138 317.456C982.458 310.696 976.917 304.328 968.762 303.233C960.607 302.139 952.926 306.732 951.606 313.493C950.286 320.254 955.827 326.622 963.982 327.716C972.136 328.811 979.818 324.217 981.138 317.456Z" fill="#60DBF3"/>
<path d="M981.138 373.344C982.458 366.583 976.917 360.215 968.762 359.121C960.607 358.026 952.926 362.62 951.606 369.381C950.286 376.141 955.827 382.509 963.982 383.604C972.136 384.698 979.818 380.105 981.138 373.344Z" fill="#60DBF3"/>
<path d="M972.115 438.666C979.754 436.057 983.394 428.808 980.247 422.475C977.099 416.142 968.355 413.124 960.717 415.734C953.078 418.343 949.437 425.592 952.585 431.925C955.733 438.258 964.477 441.276 972.115 438.666Z" fill="#60DBF3"/>
<path d="M972.117 494.558C979.756 491.949 983.396 484.7 980.249 478.367C977.101 472.034 968.357 469.016 960.719 471.626C953.08 474.235 949.439 481.484 952.587 487.817C955.735 494.149 964.479 497.168 972.117 494.558Z" fill="#60DBF3"/>
<path d="M966.425 551.36C974.686 551.36 981.383 545.808 981.383 538.958C981.383 532.109 974.686 526.557 966.425 526.557C958.163 526.557 951.466 532.109 951.466 538.958C951.466 545.808 958.163 551.36 966.425 551.36Z" fill="#60DBF3"/>
<path d="M966.425 607.251C974.686 607.251 981.383 601.698 981.383 594.849C981.383 588 974.686 582.448 966.425 582.448C958.163 582.448 951.466 588 951.466 594.849C951.466 601.698 958.163 607.251 966.425 607.251Z" fill="#60DBF3"/>
<path d="M1555.14 627.467H1314.78V650.91H1555.14V627.467Z" fill="#5CDBF5"/>
<path d="M1555.11 650.892H1595.07V627.449H1555.11V650.892Z" fill="#60DBF3"/>
<path d="M1554.94 212.957H1301.25V627.297H1554.94V212.957Z" fill="#67AEC1"/>
<path d="M1590.8 209.559H1319.08V213.127H1590.8V209.559Z" fill="#5CDBF5"/>
<path d="M1554.94 627.533H1608.43V213.193H1554.94V627.533Z" fill="#5CDBF5"/>
<path d="M1307.65 263.361H1548.84V218.003L1307.65 218.003V263.361Z" fill="#5CDBF5"/>
<path d="M1307.65 622.214H1548.84V576.856H1307.65V622.214Z" fill="#5CDBF5"/>
<path d="M1307.65 570.998H1548.84V525.64H1307.65V570.998Z" fill="#5CDBF5"/>
<path d="M1307.65 519.782H1548.84V474.423H1307.65V519.782Z" fill="#5CDBF5"/>
<path d="M1307.65 468.396H1548.84V423.038H1307.65V468.396Z" fill="#5CDBF5"/>
<path d="M1307.65 417.18H1548.84V371.822H1307.65V417.18Z" fill="#5CDBF5"/>
<path d="M1307.65 365.964H1548.84V320.605H1307.65V365.964Z" fill="#5CDBF5"/>
<path d="M1307.65 314.747H1548.84V269.389H1307.65V314.747Z" fill="#5CDBF5"/>
<path d="M1323.59 256.956H1439.78C1444.28 256.956 1447.97 253.898 1447.97 250.161V231.134C1447.97 227.397 1444.28 224.339 1439.78 224.339H1323.59C1319.08 224.339 1315.39 227.397 1315.39 231.134V250.161C1315.39 253.898 1319.08 256.956 1323.59 256.956Z" fill="#60DBF3"/>
<path d="M1332.2 242.856V238.609C1332.2 237.42 1331.17 236.571 1329.74 236.571H1324.21C1322.77 236.571 1321.75 237.42 1321.75 238.609V242.856C1321.75 244.045 1322.77 244.895 1324.21 244.895H1329.74C1331.17 244.895 1332.2 243.875 1332.2 242.856Z" fill="#67AEC1"/>
<path d="M1323.59 308.26H1439.78C1444.28 308.26 1447.97 305.202 1447.97 301.465V282.438C1447.97 278.701 1444.28 275.643 1439.78 275.643H1323.59C1319.08 275.643 1315.39 278.701 1315.39 282.438V301.465C1315.39 305.202 1319.08 308.26 1323.59 308.26Z" fill="#60DBF3"/>
<path d="M1332.2 294.16V289.913C1332.2 288.724 1331.17 287.875 1329.74 287.875H1324.21C1322.77 287.875 1321.75 288.724 1321.75 289.913V294.16C1321.75 295.349 1322.77 296.199 1324.21 296.199H1329.74C1331.17 296.029 1332.2 295.179 1332.2 294.16Z" fill="#67AEC1"/>
<path d="M1323.59 359.394H1439.78C1444.28 359.394 1447.97 356.337 1447.97 352.599V333.573C1447.97 329.835 1444.28 326.777 1439.78 326.777H1323.59C1319.08 326.777 1315.39 329.835 1315.39 333.573V352.599C1315.39 356.337 1319.08 359.394 1323.59 359.394Z" fill="#60DBF3"/>
<path d="M1332.2 345.294V341.047C1332.2 339.858 1331.17 339.009 1329.74 339.009H1324.21C1322.77 339.009 1321.75 339.858 1321.75 341.047V345.294C1321.75 346.484 1322.77 347.333 1324.21 347.333H1329.74C1331.17 347.333 1332.2 346.484 1332.2 345.294Z" fill="#67AEC1"/>
<path d="M1323.59 410.699H1439.78C1444.28 410.699 1447.97 407.641 1447.97 403.903V384.877C1447.97 381.139 1444.28 378.081 1439.78 378.081H1323.59C1319.08 378.081 1315.39 381.139 1315.39 384.877V403.903C1315.39 407.641 1319.08 410.699 1323.59 410.699Z" fill="#60DBF3"/>
<path d="M1332.2 396.598V392.351C1332.2 391.162 1331.17 390.313 1329.74 390.313H1324.21C1322.77 390.313 1321.75 391.162 1321.75 392.351V396.598C1321.75 397.788 1322.77 398.637 1324.21 398.637H1329.74C1331.17 398.637 1332.2 397.788 1332.2 396.598Z" fill="#67AEC1"/>
<path d="M1323.59 462.003H1439.78C1444.28 462.003 1447.97 458.945 1447.97 455.207V436.181C1447.97 432.443 1444.28 429.385 1439.78 429.385H1323.59C1319.08 429.385 1315.39 432.443 1315.39 436.181V455.207C1315.39 458.945 1319.08 462.003 1323.59 462.003Z" fill="#60DBF3"/>
<path d="M1332.2 447.902V443.655C1332.2 442.466 1331.17 441.617 1329.74 441.617H1324.21C1322.77 441.617 1321.75 442.466 1321.75 443.655V447.902C1321.75 449.091 1322.77 449.941 1324.21 449.941H1329.74C1331.17 449.941 1332.2 448.922 1332.2 447.902Z" fill="#67AEC1"/>
<path d="M1323.59 513.306H1439.78C1444.28 513.306 1447.97 510.249 1447.97 506.511V487.485C1447.97 483.747 1444.28 480.689 1439.78 480.689H1323.59C1319.08 480.689 1315.39 483.747 1315.39 487.485V506.511C1315.39 510.249 1319.08 513.306 1323.59 513.306Z" fill="#60DBF3"/>
<path d="M1332.2 499.206V494.959C1332.2 493.77 1331.17 492.921 1329.74 492.921H1324.21C1322.77 492.921 1321.75 493.77 1321.75 494.959V499.206C1321.75 500.396 1322.77 501.245 1324.21 501.245H1329.74C1331.17 501.075 1332.2 500.226 1332.2 499.206Z" fill="#67AEC1"/>
<path d="M1323.59 564.441H1439.78C1444.28 564.441 1447.97 561.383 1447.97 557.645V538.619C1447.97 534.881 1444.28 531.824 1439.78 531.824H1323.59C1319.08 531.824 1315.39 534.881 1315.39 538.619V557.645C1315.39 561.383 1319.08 564.441 1323.59 564.441Z" fill="#60DBF3"/>
<path d="M1332.2 550.341V546.094C1332.2 544.905 1331.17 544.055 1329.74 544.055H1324.21C1322.77 544.055 1321.75 544.905 1321.75 546.094V550.341C1321.75 551.53 1322.77 552.379 1324.21 552.379H1329.74C1331.17 552.379 1332.2 551.53 1332.2 550.341Z" fill="#67AEC1"/>
<path d="M1323.59 615.745H1439.78C1444.28 615.745 1447.97 612.687 1447.97 608.95V589.923C1447.97 586.185 1444.28 583.128 1439.78 583.128H1323.59C1319.08 583.128 1315.39 586.185 1315.39 589.923V608.95C1315.39 612.687 1319.08 615.745 1323.59 615.745Z" fill="#60DBF3"/>
<path d="M1332.2 601.645V597.398C1332.2 596.208 1331.17 595.359 1329.74 595.359H1324.21C1322.77 595.359 1321.75 596.208 1321.75 597.398V601.645C1321.75 602.834 1322.77 603.683 1324.21 603.683H1329.74C1331.17 603.683 1332.2 602.834 1332.2 601.645Z" fill="#67AEC1"/>
<path d="M1348.18 242.856V238.609C1348.18 237.42 1347.16 236.571 1345.72 236.571H1340.19C1338.76 236.571 1337.73 237.42 1337.73 238.609V242.856C1337.73 244.045 1338.76 244.895 1340.19 244.895H1345.72C1347.16 244.895 1348.18 243.875 1348.18 242.856Z" fill="#67AEC1"/>
<path d="M1348.18 294.16V289.913C1348.18 288.724 1347.16 287.875 1345.72 287.875H1340.19C1338.76 287.875 1337.73 288.724 1337.73 289.913V294.16C1337.73 295.349 1338.76 296.199 1340.19 296.199H1345.72C1347.16 296.029 1348.18 295.179 1348.18 294.16Z" fill="#67AEC1"/>
<path d="M1348.18 345.294V341.047C1348.18 339.858 1347.16 339.009 1345.72 339.009H1340.19C1338.76 339.009 1337.73 339.858 1337.73 341.047V345.294C1337.73 346.484 1338.76 347.333 1340.19 347.333H1345.72C1347.16 347.333 1348.18 346.484 1348.18 345.294Z" fill="#67AEC1"/>
<path d="M1348.18 396.598V392.351C1348.18 391.162 1347.16 390.313 1345.72 390.313H1340.19C1338.76 390.313 1337.73 391.162 1337.73 392.351V396.598C1337.73 397.788 1338.76 398.637 1340.19 398.637H1345.72C1347.16 398.637 1348.18 397.788 1348.18 396.598Z" fill="#67AEC1"/>
<path d="M1348.18 447.902V443.655C1348.18 442.466 1347.16 441.617 1345.72 441.617H1340.19C1338.76 441.617 1337.73 442.466 1337.73 443.655V447.902C1337.73 449.091 1338.76 449.941 1340.19 449.941H1345.72C1347.16 449.941 1348.18 448.922 1348.18 447.902Z" fill="#67AEC1"/>
<path d="M1348.18 499.206V494.959C1348.18 493.77 1347.16 492.921 1345.72 492.921H1340.19C1338.76 492.921 1337.73 493.77 1337.73 494.959V499.206C1337.73 500.396 1338.76 501.245 1340.19 501.245H1345.72C1347.16 501.075 1348.18 500.226 1348.18 499.206Z" fill="#67AEC1"/>
<path d="M1348.18 550.341V546.094C1348.18 544.905 1347.16 544.055 1345.72 544.055H1340.19C1338.76 544.055 1337.73 544.905 1337.73 546.094V550.341C1337.73 551.53 1338.76 552.379 1340.19 552.379H1345.72C1347.16 552.379 1348.18 551.53 1348.18 550.341Z" fill="#67AEC1"/>
<path d="M1348.18 601.645V597.398C1348.18 596.208 1347.16 595.359 1345.72 595.359H1340.19C1338.76 595.359 1337.73 596.208 1337.73 597.398V601.645C1337.73 602.834 1338.76 603.683 1340.19 603.683H1345.72C1347.16 603.683 1348.18 602.834 1348.18 601.645Z" fill="#67AEC1"/>
<path d="M1364.16 242.856V238.609C1364.16 237.42 1363.14 236.571 1361.7 236.571H1356.17C1354.74 236.571 1353.71 237.42 1353.71 238.609V242.856C1353.71 244.045 1354.74 244.895 1356.17 244.895H1361.7C1362.93 244.895 1364.16 243.875 1364.16 242.856Z" fill="#67AEC1"/>
<path d="M1364.16 294.16V289.913C1364.16 288.724 1363.14 287.875 1361.7 287.875H1356.17C1354.74 287.875 1353.71 288.724 1353.71 289.913V294.16C1353.71 295.349 1354.74 296.199 1356.17 296.199H1361.7C1362.93 296.029 1364.16 295.179 1364.16 294.16Z" fill="#67AEC1"/>
<path d="M1364.16 345.294V341.047C1364.16 339.858 1363.14 339.009 1361.7 339.009H1356.17C1354.74 339.009 1353.71 339.858 1353.71 341.047V345.294C1353.71 346.484 1354.74 347.333 1356.17 347.333H1361.7C1362.93 347.333 1364.16 346.484 1364.16 345.294Z" fill="#67AEC1"/>
<path d="M1364.16 396.598V392.351C1364.16 391.162 1363.14 390.313 1361.7 390.313H1356.17C1354.74 390.313 1353.71 391.162 1353.71 392.351V396.598C1353.71 397.788 1354.74 398.637 1356.17 398.637H1361.7C1362.93 398.637 1364.16 397.788 1364.16 396.598Z" fill="#67AEC1"/>
<path d="M1364.16 447.902V443.655C1364.16 442.466 1363.14 441.617 1361.7 441.617H1356.17C1354.74 441.617 1353.71 442.466 1353.71 443.655V447.902C1353.71 449.091 1354.74 449.941 1356.17 449.941H1361.7C1362.93 449.941 1364.16 448.922 1364.16 447.902Z" fill="#67AEC1"/>
<path d="M1364.16 499.206V494.959C1364.16 493.77 1363.14 492.921 1361.7 492.921H1356.17C1354.74 492.921 1353.71 493.77 1353.71 494.959V499.206C1353.71 500.396 1354.74 501.245 1356.17 501.245H1361.7C1362.93 501.075 1364.16 500.226 1364.16 499.206Z" fill="#67AEC1"/>
<path d="M1364.16 550.341V546.094C1364.16 544.905 1363.14 544.055 1361.7 544.055H1356.17C1354.74 544.055 1353.71 544.905 1353.71 546.094V550.341C1353.71 551.53 1354.74 552.379 1356.17 552.379H1361.7C1362.93 552.379 1364.16 551.53 1364.16 550.341Z" fill="#67AEC1"/>
<path d="M1364.16 601.645V597.398C1364.16 596.208 1363.14 595.359 1361.7 595.359H1356.17C1354.74 595.359 1353.71 596.208 1353.71 597.398V601.645C1353.71 602.834 1354.74 603.683 1356.17 603.683H1361.7C1362.93 603.683 1364.16 602.834 1364.16 601.645Z" fill="#67AEC1"/>
<path d="M1380.15 242.856V238.609C1380.15 237.42 1379.12 236.571 1377.69 236.571H1372.16C1370.72 236.571 1369.7 237.42 1369.7 238.609V242.856C1369.7 244.045 1370.72 244.895 1372.16 244.895H1377.69C1378.92 244.895 1380.15 243.875 1380.15 242.856Z" fill="#67AEC1"/>
<path d="M1380.15 294.16V289.913C1380.15 288.724 1379.12 287.875 1377.69 287.875H1372.16C1370.72 287.875 1369.7 288.724 1369.7 289.913V294.16C1369.7 295.349 1370.72 296.199 1372.16 296.199H1377.69C1378.92 296.029 1380.15 295.179 1380.15 294.16Z" fill="#67AEC1"/>
<path d="M1380.15 345.294V341.047C1380.15 339.858 1379.12 339.009 1377.69 339.009H1372.16C1370.72 339.009 1369.7 339.858 1369.7 341.047V345.294C1369.7 346.484 1370.72 347.333 1372.16 347.333H1377.69C1378.92 347.333 1380.15 346.484 1380.15 345.294Z" fill="#67AEC1"/>
<path d="M1380.15 396.598V392.351C1380.15 391.162 1379.12 390.313 1377.69 390.313H1372.16C1370.72 390.313 1369.7 391.162 1369.7 392.351V396.598C1369.7 397.788 1370.72 398.637 1372.16 398.637H1377.69C1378.92 398.637 1380.15 397.788 1380.15 396.598Z" fill="#67AEC1"/>
<path d="M1380.15 447.902V443.655C1380.15 442.466 1379.12 441.617 1377.69 441.617H1372.16C1370.72 441.617 1369.7 442.466 1369.7 443.655V447.902C1369.7 449.091 1370.72 449.941 1372.16 449.941H1377.69C1378.92 449.941 1380.15 448.922 1380.15 447.902Z" fill="#67AEC1"/>
<path d="M1380.15 499.206V494.959C1380.15 493.77 1379.12 492.921 1377.69 492.921H1372.16C1370.72 492.921 1369.7 493.77 1369.7 494.959V499.206C1369.7 500.396 1370.72 501.245 1372.16 501.245H1377.69C1378.92 501.075 1380.15 500.226 1380.15 499.206Z" fill="#67AEC1"/>
<path d="M1380.15 550.341V546.094C1380.15 544.905 1379.12 544.055 1377.69 544.055H1372.16C1370.72 544.055 1369.7 544.905 1369.7 546.094V550.341C1369.7 551.53 1370.72 552.379 1372.16 552.379H1377.69C1378.92 552.379 1380.15 551.53 1380.15 550.341Z" fill="#67AEC1"/>
<path d="M1380.15 601.645V597.398C1380.15 596.208 1379.12 595.359 1377.69 595.359H1372.16C1370.72 595.359 1369.7 596.208 1369.7 597.398V601.645C1369.7 602.834 1370.72 603.683 1372.16 603.683H1377.69C1378.92 603.683 1380.15 602.834 1380.15 601.645Z" fill="#67AEC1"/>
<path d="M1461.09 240.648C1461.09 243.536 1463.96 245.914 1467.64 245.914C1471.33 245.914 1474.2 243.536 1474.2 240.648C1474.2 237.76 1471.33 235.381 1467.64 235.381C1463.96 235.551 1461.09 237.76 1461.09 240.648Z" fill="#67AEC1"/>
<path d="M1479.73 240.648C1479.73 243.536 1482.6 245.914 1486.29 245.914C1489.98 245.914 1492.85 243.536 1492.85 240.648C1492.85 237.76 1489.98 235.381 1486.29 235.381C1482.81 235.551 1479.73 237.76 1479.73 240.648Z" fill="#67AEC1"/>
<path d="M1498.59 240.648C1498.59 243.536 1501.46 245.914 1505.14 245.914C1508.83 245.914 1511.7 243.536 1511.7 240.648C1511.7 237.76 1508.83 235.381 1505.14 235.381C1501.46 235.551 1498.59 237.76 1498.59 240.648Z" fill="#67AEC1"/>
<path d="M1517.23 240.648C1517.23 243.536 1520.1 245.914 1523.79 245.914C1527.48 245.914 1530.35 243.536 1530.35 240.648C1530.35 237.76 1527.48 235.381 1523.79 235.381C1520.1 235.551 1517.23 237.76 1517.23 240.648Z" fill="#67AEC1"/>
<path d="M1461.09 291.952C1461.09 294.84 1463.96 297.218 1467.64 297.218C1471.33 297.218 1474.2 294.84 1474.2 291.952C1474.2 289.064 1471.33 286.685 1467.64 286.685C1463.96 286.685 1461.09 289.064 1461.09 291.952Z" fill="#67AEC1"/>
<path d="M1479.73 291.952C1479.73 294.84 1482.6 297.218 1486.29 297.218C1489.98 297.218 1492.85 294.84 1492.85 291.952C1492.85 289.064 1489.98 286.685 1486.29 286.685C1482.81 286.685 1479.73 289.064 1479.73 291.952Z" fill="#67AEC1"/>
<path d="M1498.59 291.952C1498.59 294.84 1501.46 297.218 1505.14 297.218C1508.83 297.218 1511.7 294.84 1511.7 291.952C1511.7 289.064 1508.83 286.685 1505.14 286.685C1501.46 286.685 1498.59 289.064 1498.59 291.952Z" fill="#67AEC1"/>
<path d="M1517.23 291.952C1517.23 294.84 1520.1 297.218 1523.79 297.218C1527.48 297.218 1530.35 294.84 1530.35 291.952C1530.35 289.064 1527.48 286.685 1523.79 286.685C1520.1 286.685 1517.23 289.064 1517.23 291.952Z" fill="#67AEC1"/>
<path d="M1461.09 343.256C1461.09 346.144 1463.96 348.522 1467.64 348.522C1471.33 348.522 1474.2 346.144 1474.2 343.256C1474.2 340.368 1471.33 337.989 1467.64 337.989C1463.96 337.989 1461.09 340.368 1461.09 343.256Z" fill="#67AEC1"/>
<path d="M1479.73 343.256C1479.73 346.144 1482.6 348.522 1486.29 348.522C1489.98 348.522 1492.85 346.144 1492.85 343.256C1492.85 340.368 1489.98 337.989 1486.29 337.989C1482.81 337.989 1479.73 340.368 1479.73 343.256Z" fill="#67AEC1"/>
<path d="M1498.59 343.256C1498.59 346.144 1501.46 348.522 1505.14 348.522C1508.83 348.522 1511.7 346.144 1511.7 343.256C1511.7 340.368 1508.83 337.989 1505.14 337.989C1501.46 337.989 1498.59 340.368 1498.59 343.256Z" fill="#67AEC1"/>
<path d="M1517.23 343.256C1517.23 346.144 1520.1 348.522 1523.79 348.522C1527.48 348.522 1530.35 346.144 1530.35 343.256C1530.35 340.368 1527.48 337.989 1523.79 337.989C1520.1 337.989 1517.23 340.368 1517.23 343.256Z" fill="#67AEC1"/>
<path d="M1461.09 394.56C1461.09 397.448 1463.96 399.826 1467.64 399.826C1471.33 399.826 1474.2 397.448 1474.2 394.56C1474.2 391.672 1471.33 389.294 1467.64 389.294C1463.96 389.294 1461.09 391.672 1461.09 394.56Z" fill="#67AEC1"/>
<path d="M1479.73 394.56C1479.73 397.448 1482.6 399.826 1486.29 399.826C1489.98 399.826 1492.85 397.448 1492.85 394.56C1492.85 391.672 1489.98 389.293 1486.29 389.293C1482.81 389.293 1479.73 391.672 1479.73 394.56Z" fill="#67AEC1"/>
<path d="M1498.59 394.56C1498.59 397.448 1501.46 399.826 1505.14 399.826C1508.83 399.826 1511.7 397.448 1511.7 394.56C1511.7 391.672 1508.83 389.293 1505.14 389.293C1501.46 389.293 1498.59 391.672 1498.59 394.56Z" fill="#67AEC1"/>
<path d="M1517.23 394.56C1517.23 397.448 1520.1 399.826 1523.79 399.826C1527.48 399.826 1530.35 397.448 1530.35 394.56C1530.35 391.672 1527.48 389.293 1523.79 389.293C1520.1 389.293 1517.23 391.672 1517.23 394.56Z" fill="#67AEC1"/>
<path d="M1461.09 445.694C1461.09 448.582 1463.96 450.96 1467.64 450.96C1471.33 450.96 1474.2 448.582 1474.2 445.694C1474.2 442.806 1471.33 440.428 1467.64 440.428C1463.96 440.428 1461.09 442.806 1461.09 445.694Z" fill="#67AEC1"/>
<path d="M1479.73 445.694C1479.73 448.582 1482.6 450.96 1486.29 450.96C1489.98 450.96 1492.85 448.582 1492.85 445.694C1492.85 442.806 1489.98 440.428 1486.29 440.428C1482.81 440.428 1479.73 442.806 1479.73 445.694Z" fill="#67AEC1"/>
<path d="M1498.59 445.694C1498.59 448.582 1501.46 450.96 1505.14 450.96C1508.83 450.96 1511.7 448.582 1511.7 445.694C1511.7 442.806 1508.83 440.428 1505.14 440.428C1501.46 440.428 1498.59 442.806 1498.59 445.694Z" fill="#67AEC1"/>
<path d="M1517.23 445.694C1517.23 448.582 1520.1 450.96 1523.79 450.96C1527.48 450.96 1530.35 448.582 1530.35 445.694C1530.35 442.806 1527.48 440.428 1523.79 440.428C1520.1 440.428 1517.23 442.806 1517.23 445.694Z" fill="#67AEC1"/>
<path d="M1461.09 496.998C1461.09 499.886 1463.96 502.264 1467.64 502.264C1471.33 502.264 1474.2 499.886 1474.2 496.998C1474.2 494.11 1471.33 491.732 1467.64 491.732C1463.96 491.732 1461.09 494.11 1461.09 496.998Z" fill="#67AEC1"/>
<path d="M1479.73 496.998C1479.73 499.886 1482.6 502.264 1486.29 502.264C1489.98 502.264 1492.85 499.886 1492.85 496.998C1492.85 494.11 1489.98 491.732 1486.29 491.732C1482.81 491.732 1479.73 494.11 1479.73 496.998Z" fill="#67AEC1"/>
<path d="M1498.59 496.998C1498.59 499.886 1501.46 502.264 1505.14 502.264C1508.83 502.264 1511.7 499.886 1511.7 496.998C1511.7 494.11 1508.83 491.732 1505.14 491.732C1501.46 491.732 1498.59 494.11 1498.59 496.998Z" fill="#67AEC1"/>
<path d="M1517.23 496.998C1517.23 499.886 1520.1 502.264 1523.79 502.264C1527.48 502.264 1530.35 499.886 1530.35 496.998C1530.35 494.11 1527.48 491.732 1523.79 491.732C1520.1 491.732 1517.23 494.11 1517.23 496.998Z" fill="#67AEC1"/>
<path d="M1461.09 548.302C1461.09 551.19 1463.96 553.568 1467.64 553.568C1471.33 553.568 1474.2 551.19 1474.2 548.302C1474.2 545.414 1471.33 543.036 1467.64 543.036C1463.96 543.036 1461.09 545.414 1461.09 548.302Z" fill="#67AEC1"/>
<path d="M1479.73 548.302C1479.73 551.19 1482.6 553.568 1486.29 553.568C1489.98 553.568 1492.85 551.19 1492.85 548.302C1492.85 545.414 1489.98 543.036 1486.29 543.036C1482.81 543.036 1479.73 545.414 1479.73 548.302Z" fill="#67AEC1"/>
<path d="M1498.59 548.302C1498.59 551.19 1501.46 553.568 1505.14 553.568C1508.83 553.568 1511.7 551.19 1511.7 548.302C1511.7 545.414 1508.83 543.036 1505.14 543.036C1501.46 543.036 1498.59 545.414 1498.59 548.302Z" fill="#67AEC1"/>
<path d="M1517.23 548.302C1517.23 551.19 1520.1 553.568 1523.79 553.568C1527.48 553.568 1530.35 551.19 1530.35 548.302C1530.35 545.414 1527.48 543.036 1523.79 543.036C1520.1 543.036 1517.23 545.414 1517.23 548.302Z" fill="#67AEC1"/>
<path d="M1461.09 599.606C1461.09 602.494 1463.96 604.872 1467.64 604.872C1471.33 604.872 1474.2 602.494 1474.2 599.606C1474.2 596.718 1471.33 594.34 1467.64 594.34C1463.96 594.34 1461.09 596.718 1461.09 599.606Z" fill="#67AEC1"/>
<path d="M1479.73 599.606C1479.73 602.494 1482.6 604.872 1486.29 604.872C1489.98 604.872 1492.85 602.494 1492.85 599.606C1492.85 596.718 1489.98 594.34 1486.29 594.34C1482.81 594.34 1479.73 596.718 1479.73 599.606Z" fill="#67AEC1"/>
<path d="M1498.59 599.606C1498.59 602.494 1501.46 604.872 1505.14 604.872C1508.83 604.872 1511.7 602.494 1511.7 599.606C1511.7 596.718 1508.83 594.34 1505.14 594.34C1501.46 594.34 1498.59 596.718 1498.59 599.606Z" fill="#67AEC1"/>
<path d="M1517.23 599.606C1517.23 602.494 1520.1 604.872 1523.79 604.872C1527.48 604.872 1530.35 602.494 1530.35 599.606C1530.35 596.718 1527.48 594.34 1523.79 594.34C1520.1 594.34 1517.23 596.718 1517.23 599.606Z" fill="#67AEC1"/>
<path d="M1272.98 831.904C1492.41 831.904 1670.3 821.86 1670.3 809.469C1670.3 797.079 1492.41 787.034 1272.98 787.034C1053.54 787.034 875.648 797.079 875.648 809.469C875.648 821.86 1053.54 831.904 1272.98 831.904Z" fill="#5CDBF5"/>
<path d="M1243.88 784.851H1004.34V811.256H1243.88V784.851Z" fill="#0053CC"/>
<g opacity="0.2">
<path opacity="0.2" d="M1016.43 788.623H1010.48V807.484H1016.43V788.623Z" fill="#0F264C"/>
<path opacity="0.2" d="M1027.08 788.623H1021.14V807.484H1027.08V788.623Z" fill="#0F264C"/>
<path opacity="0.2" d="M1037.53 788.623H1031.59V807.484H1037.53V788.623Z" fill="#0F264C"/>
<path opacity="0.2" d="M1047.98 788.623H1042.04V807.484H1047.98V788.623Z" fill="#0F264C"/>
<path opacity="0.2" d="M1058.64 788.623H1052.7V807.484H1058.64V788.623Z" fill="#0F264C"/>
<path opacity="0.2" d="M1069.09 788.623H1063.15V807.484H1069.09V788.623Z" fill="#0F264C"/>
<path opacity="0.2" d="M1079.74 788.623H1073.8V807.484H1079.74V788.623Z" fill="#0F264C"/>
<path opacity="0.2" d="M1090.2 788.623H1084.25V807.484H1090.2V788.623Z" fill="#0F264C"/>
<path opacity="0.2" d="M1100.85 788.623H1094.91V807.484H1100.85V788.623Z" fill="#0F264C"/>
<path opacity="0.2" d="M1111.3 788.623H1105.36V807.484H1111.3V788.623Z" fill="#0F264C"/>
<path opacity="0.2" d="M1121.75 788.623H1115.81V807.484H1121.75V788.623Z" fill="#0F264C"/>
<path opacity="0.2" d="M1132.41 788.623H1126.46V807.484H1132.41V788.623Z" fill="#0F264C"/>
<path opacity="0.2" d="M1142.86 788.623H1136.92V807.484H1142.86V788.623Z" fill="#0F264C"/>
<path opacity="0.2" d="M1153.51 788.623H1147.57V807.484H1153.51V788.623Z" fill="#0F264C"/>
<path opacity="0.2" d="M1163.96 788.623H1158.02V807.484H1163.96V788.623Z" fill="#0F264C"/>
<path opacity="0.2" d="M1174.62 788.623H1168.68V807.484H1174.62V788.623Z" fill="#0F264C"/>
<path opacity="0.2" d="M1185.07 788.623H1179.13V807.484H1185.07V788.623Z" fill="#0F264C"/>
<path opacity="0.2" d="M1195.52 788.623H1189.58V807.484H1195.52V788.623Z" fill="#0F264C"/>
<path opacity="0.2" d="M1206.18 788.623H1200.23V807.484H1206.18V788.623Z" fill="#0F264C"/>
<path opacity="0.2" d="M1216.63 788.623H1210.68V807.484H1216.63V788.623Z" fill="#0F264C"/>
<path opacity="0.2" d="M1227.28 788.623H1221.34V807.484H1227.28V788.623Z" fill="#0F264C"/>
<path opacity="0.2" d="M1237.73 788.623H1231.79V807.484H1237.73V788.623Z" fill="#0F264C"/>
</g>
<path d="M1244.02 811.348H1281.32V784.943H1244.02V811.348Z" fill="#0050AF"/>
<path d="M1243.88 316.698H991.837V784.851H1243.88V316.698Z" fill="#4EA4F9"/>
<path d="M1277.28 312.727H1008.44V316.698H1277.28V312.727Z" fill="#0D6AB7"/>
<path d="M983.845 534.891H981.796V554.547H983.845V534.891Z" fill="#197BDD"/>
<path d="M983.845 561.297H981.796V612.52H983.845V561.297Z" fill="#197BDD"/>
<path d="M1243.99 784.951H1293.79V316.798H1243.99V784.951Z" fill="#197BDD"/>
<path opacity="0.6" d="M1231.38 487.044H1004.34C1000.65 487.044 997.573 484.065 997.573 480.492V446.939C997.573 443.365 1000.65 440.387 1004.34 440.387H1231.38C1235.07 440.387 1238.14 443.365 1238.14 446.939V480.492C1238.14 484.065 1235.07 487.044 1231.38 487.044Z" fill="#0D6AB7"/>
<path d="M1217.86 457.66L1208.22 438.203V489.426H1218.27H1220.93H1238.14V463.815H1228.1C1223.8 463.815 1219.7 461.432 1217.86 457.66Z" fill="#197BDD"/>
<path d="M1238.14 322.455H997.778V373.678H1238.14V322.455Z" fill="#2B97EF"/>
<path d="M1238.14 727.672H997.778V778.895H1238.14V727.672Z" fill="#2B97EF"/>
<path d="M1238.14 669.699H997.778V720.921H1238.14V669.699Z" fill="#2B97EF"/>
<path d="M1238.14 611.924H997.778V663.147H1238.14V611.924Z" fill="#2B97EF"/>
<path d="M1238.14 553.951H997.778V605.174H1238.14V553.951Z" fill="#2B97EF"/>
<path d="M1238.14 496.176H997.778V547.399H1238.14V496.176Z" fill="#2B97EF"/>
<path d="M1208.22 438.203H967.86V489.426H1208.22V438.203Z" fill="#2B97EF"/>
<path d="M1238.14 380.23H997.778V431.453H1238.14V380.23Z" fill="#2B97EF"/>
<path d="M1223.18 366.332H1131.79C1127.49 366.332 1124 362.957 1124 358.788V337.147C1124 332.978 1127.49 329.603 1131.79 329.603H1223.18C1227.49 329.603 1230.97 332.978 1230.97 337.147V358.788C1230.77 362.957 1227.28 366.332 1223.18 366.332Z" fill="#197BDD"/>
<path opacity="0.2" d="M1180.56 349.457V346.479C1180.56 344.692 1181.99 343.302 1183.84 343.302H1213.55C1215.4 343.302 1216.83 344.692 1216.83 346.479V349.457C1216.83 351.244 1215.4 352.633 1213.55 352.633H1183.84C1181.99 352.633 1180.56 351.244 1180.56 349.457Z" fill="white"/>
<path d="M1223.18 424.306H1131.79C1127.49 424.306 1124 420.93 1124 416.761V395.121C1124 390.951 1127.49 387.576 1131.79 387.576H1223.18C1227.49 387.576 1230.97 390.951 1230.97 395.121V416.761C1230.77 420.93 1227.28 424.306 1223.18 424.306Z" fill="#197BDD"/>
<path opacity="0.2" d="M1180.56 407.43V404.452C1180.56 402.665 1181.99 401.275 1183.84 401.275H1213.55C1215.4 401.275 1216.83 402.665 1216.83 404.452V407.43C1216.83 409.217 1215.4 410.607 1213.55 410.607H1183.84C1181.99 410.607 1180.56 409.217 1180.56 407.43Z" fill="white"/>
<path d="M1193.27 482.08H1101.87C1097.57 482.08 1094.09 478.705 1094.09 474.536V452.895C1094.09 448.726 1097.57 445.351 1101.87 445.351H1193.27C1197.57 445.351 1201.05 448.726 1201.05 452.895V474.536C1200.85 478.705 1197.36 482.08 1193.27 482.08Z" fill="#197BDD"/>
<path opacity="0.2" d="M1150.64 465.403V462.425C1150.64 460.638 1152.08 459.248 1153.92 459.248H1183.64C1185.48 459.248 1186.91 460.638 1186.91 462.425V465.403C1186.91 467.19 1185.48 468.579 1183.64 468.579H1153.92C1152.08 468.579 1150.64 467.19 1150.64 465.403Z" fill="white"/>
<path d="M1223.18 540.053H1131.79C1127.49 540.053 1124 536.678 1124 532.509V510.868C1124 506.699 1127.49 503.324 1131.79 503.324H1223.18C1227.49 503.324 1230.97 506.699 1230.97 510.868V532.509C1230.77 536.678 1227.28 540.053 1223.18 540.053Z" fill="#197BDD"/>
<path opacity="0.2" d="M1180.56 523.177V520.199C1180.56 518.412 1181.99 517.023 1183.84 517.023H1213.55C1215.4 517.023 1216.83 518.412 1216.83 520.199V523.177C1216.83 524.964 1215.4 526.354 1213.55 526.354H1183.84C1181.99 526.354 1180.56 524.964 1180.56 523.177Z" fill="white"/>
<path d="M1223.18 598.026H1131.79C1127.49 598.026 1124 594.651 1124 590.482V568.841C1124 564.672 1127.49 561.297 1131.79 561.297H1223.18C1227.49 561.297 1230.97 564.672 1230.97 568.841V590.482C1230.77 594.651 1227.28 598.026 1223.18 598.026Z" fill="#197BDD"/>
<path opacity="0.2" d="M1180.56 581.151V578.173C1180.56 576.386 1181.99 574.996 1183.84 574.996H1213.55C1215.4 574.996 1216.83 576.386 1216.83 578.173V581.151C1216.83 582.938 1215.4 584.327 1213.55 584.327H1183.84C1181.99 584.327 1180.56 582.938 1180.56 581.151Z" fill="white"/>
<path d="M1223.18 655.801H1131.79C1127.49 655.801 1124 652.426 1124 648.257V626.616C1124 622.447 1127.49 619.071 1131.79 619.071H1223.18C1227.49 619.071 1230.97 622.447 1230.97 626.616V648.257C1230.77 652.426 1227.28 655.801 1223.18 655.801Z" fill="#197BDD"/>
<path opacity="0.2" d="M1180.56 639.124V636.146C1180.56 634.359 1181.99 632.969 1183.84 632.969H1213.55C1215.4 632.969 1216.83 634.359 1216.83 636.146V639.124C1216.83 640.911 1215.4 642.3 1213.55 642.3H1183.84C1181.99 642.3 1180.56 640.712 1180.56 639.124Z" fill="white"/>
<path d="M1223.18 713.774H1131.79C1127.49 713.774 1124 710.399 1124 706.23V684.589C1124 680.42 1127.49 677.045 1131.79 677.045H1223.18C1227.49 677.045 1230.97 680.42 1230.97 684.589V706.23C1230.77 710.399 1227.28 713.774 1223.18 713.774Z" fill="#197BDD"/>
<path opacity="0.2" d="M1180.56 696.898V693.92C1180.56 692.133 1181.99 690.743 1183.84 690.743H1213.55C1215.4 690.743 1216.83 692.133 1216.83 693.92V696.898C1216.83 698.685 1215.4 700.075 1213.55 700.075H1183.84C1181.99 700.075 1180.56 698.685 1180.56 696.898Z" fill="white"/>
<path d="M1223.18 771.549H1131.79C1127.49 771.549 1124 768.174 1124 764.004V742.364C1124 738.194 1127.49 734.819 1131.79 734.819H1223.18C1227.49 734.819 1230.97 738.194 1230.97 742.364V764.004C1230.77 768.174 1227.28 771.549 1223.18 771.549Z" fill="#197BDD"/>
<path opacity="0.2" d="M1180.56 754.872V751.894C1180.56 750.107 1181.99 748.717 1183.84 748.717H1213.55C1215.4 748.717 1216.83 750.107 1216.83 751.894V754.872C1216.83 756.658 1215.4 758.048 1213.55 758.048H1183.84C1181.99 758.048 1180.56 756.658 1180.56 754.872Z" fill="white"/>
<path d="M1105.36 354.023C1108.75 354.023 1111.51 351.356 1111.51 348.067C1111.51 344.777 1108.75 342.111 1105.36 342.111C1101.96 342.111 1099.21 344.777 1099.21 348.067C1099.21 351.356 1101.96 354.023 1105.36 354.023Z" fill="#197BDD"/>
<path d="M1087.94 354.023C1091.34 354.023 1094.09 351.356 1094.09 348.067C1094.09 344.777 1091.34 342.111 1087.94 342.111C1084.55 342.111 1081.79 344.777 1081.79 348.067C1081.79 351.356 1084.55 354.023 1087.94 354.023Z" fill="#197BDD"/>
<path d="M1070.52 354.023C1073.92 354.023 1076.67 351.356 1076.67 348.067C1076.67 344.777 1073.92 342.111 1070.52 342.111C1067.13 342.111 1064.38 344.777 1064.38 348.067C1064.38 351.356 1067.13 354.023 1070.52 354.023Z" fill="#64B9FF"/>
<path d="M1059.05 348.067C1059.05 351.244 1056.38 354.023 1052.9 354.023C1049.62 354.023 1046.75 351.442 1046.75 348.067C1046.75 344.89 1049.42 342.111 1052.9 342.111C1056.38 342.111 1059.05 344.692 1059.05 348.067Z" fill="#197BDD"/>
<path d="M1105.36 411.996C1108.75 411.996 1111.51 409.33 1111.51 406.04C1111.51 402.751 1108.75 400.084 1105.36 400.084C1101.96 400.084 1099.21 402.751 1099.21 406.04C1099.21 409.33 1101.96 411.996 1105.36 411.996Z" fill="#197BDD"/>
<path d="M1087.94 411.996C1091.34 411.996 1094.09 409.33 1094.09 406.04C1094.09 402.751 1091.34 400.084 1087.94 400.084C1084.55 400.084 1081.79 402.751 1081.79 406.04C1081.79 409.33 1084.55 411.996 1087.94 411.996Z" fill="#197BDD"/>
<path d="M1070.52 411.996C1073.92 411.996 1076.67 409.33 1076.67 406.04C1076.67 402.751 1073.92 400.084 1070.52 400.084C1067.13 400.084 1064.38 402.751 1064.38 406.04C1064.38 409.33 1067.13 411.996 1070.52 411.996Z" fill="#197BDD"/>
<path d="M1059.05 406.04C1059.05 409.217 1056.38 411.996 1052.9 411.996C1049.62 411.996 1046.75 409.415 1046.75 406.04C1046.75 402.863 1049.42 400.084 1052.9 400.084C1056.38 400.084 1059.05 402.665 1059.05 406.04Z" fill="#64B9FF"/>
<path d="M1075.44 469.771C1078.84 469.771 1081.59 467.104 1081.59 463.815C1081.59 460.525 1078.84 457.859 1075.44 457.859C1072.05 457.859 1069.29 460.525 1069.29 463.815C1069.29 467.104 1072.05 469.771 1075.44 469.771Z" fill="#64B9FF"/>
<path d="M1058.02 469.771C1061.42 469.771 1064.17 467.104 1064.17 463.815C1064.17 460.525 1061.42 457.859 1058.02 457.859C1054.63 457.859 1051.88 460.525 1051.88 463.815C1051.88 467.104 1054.63 469.771 1058.02 469.771Z" fill="#197BDD"/>
<path d="M1040.61 469.771C1044 469.771 1046.75 467.104 1046.75 463.815C1046.75 460.525 1044 457.859 1040.61 457.859C1037.21 457.859 1034.46 460.525 1034.46 463.815C1034.46 467.104 1037.21 469.771 1040.61 469.771Z" fill="#64B9FF"/>
<path d="M1023.19 469.771C1026.58 469.771 1029.33 467.104 1029.33 463.815C1029.33 460.525 1026.58 457.859 1023.19 457.859C1019.79 457.859 1017.04 460.525 1017.04 463.815C1017.04 467.104 1019.79 469.771 1023.19 469.771Z" fill="#197BDD"/>
<path d="M1105.36 527.744C1108.75 527.744 1111.51 525.077 1111.51 521.788C1111.51 518.498 1108.75 515.832 1105.36 515.832C1101.96 515.832 1099.21 518.498 1099.21 521.788C1099.21 525.077 1101.96 527.744 1105.36 527.744Z" fill="#64B9FF"/>
<path d="M1087.94 527.744C1091.34 527.744 1094.09 525.077 1094.09 521.788C1094.09 518.498 1091.34 515.832 1087.94 515.832C1084.55 515.832 1081.79 518.498 1081.79 521.788C1081.79 525.077 1084.55 527.744 1087.94 527.744Z" fill="#64B9FF"/>
<path d="M1070.52 527.744C1073.92 527.744 1076.67 525.077 1076.67 521.788C1076.67 518.498 1073.92 515.832 1070.52 515.832C1067.13 515.832 1064.38 518.498 1064.38 521.788C1064.38 525.077 1067.13 527.744 1070.52 527.744Z" fill="#197BDD"/>
<path d="M1059.05 521.788C1059.05 524.964 1056.38 527.744 1052.9 527.744C1049.62 527.744 1046.75 525.163 1046.75 521.788C1046.75 518.413 1049.42 515.832 1052.9 515.832C1056.38 515.832 1059.05 518.413 1059.05 521.788Z" fill="#197BDD"/>
<path d="M1105.36 585.518C1108.75 585.518 1111.51 582.852 1111.51 579.562C1111.51 576.273 1108.75 573.606 1105.36 573.606C1101.96 573.606 1099.21 576.273 1099.21 579.562C1099.21 582.852 1101.96 585.518 1105.36 585.518Z" fill="#197BDD"/>
<path d="M1087.94 585.518C1091.34 585.518 1094.09 582.852 1094.09 579.562C1094.09 576.273 1091.34 573.606 1087.94 573.606C1084.55 573.606 1081.79 576.273 1081.79 579.562C1081.79 582.852 1084.55 585.518 1087.94 585.518Z" fill="#64B9FF"/>
<path d="M1070.52 585.518C1073.92 585.518 1076.67 582.852 1076.67 579.562C1076.67 576.273 1073.92 573.606 1070.52 573.606C1067.13 573.606 1064.38 576.273 1064.38 579.562C1064.38 582.852 1067.13 585.518 1070.52 585.518Z" fill="#197BDD"/>
<path d="M1059.05 579.562C1059.05 582.739 1056.38 585.518 1052.9 585.518C1049.62 585.518 1046.75 582.937 1046.75 579.562C1046.75 576.386 1049.42 573.606 1052.9 573.606C1056.38 573.805 1059.05 576.386 1059.05 579.562Z" fill="#197BDD"/>
<path d="M1105.36 643.492C1108.75 643.492 1111.51 640.825 1111.51 637.536C1111.51 634.246 1108.75 631.579 1105.36 631.579C1101.96 631.579 1099.21 634.246 1099.21 637.536C1099.21 640.825 1101.96 643.492 1105.36 643.492Z" fill="#197BDD"/>
<path d="M1087.94 643.492C1091.34 643.492 1094.09 640.825 1094.09 637.536C1094.09 634.246 1091.34 631.579 1087.94 631.579C1084.55 631.579 1081.79 634.246 1081.79 637.536C1081.79 640.825 1084.55 643.492 1087.94 643.492Z" fill="#197BDD"/>
<path d="M1070.52 643.492C1073.92 643.492 1076.67 640.825 1076.67 637.536C1076.67 634.246 1073.92 631.579 1070.52 631.579C1067.13 631.579 1064.38 634.246 1064.38 637.536C1064.38 640.825 1067.13 643.492 1070.52 643.492Z" fill="#64B9FF"/>
<path d="M1059.05 637.536C1059.05 640.712 1056.38 643.492 1052.9 643.492C1049.62 643.492 1046.75 640.911 1046.75 637.536C1046.75 634.16 1049.42 631.579 1052.9 631.579C1056.38 631.579 1059.05 634.16 1059.05 637.536Z" fill="#64B9FF"/>
<path d="M1111.51 695.509C1111.51 698.685 1108.84 701.465 1105.36 701.465C1101.87 701.465 1099.21 698.884 1099.21 695.509C1099.21 692.332 1101.87 689.552 1105.36 689.552C1108.84 689.552 1111.51 692.133 1111.51 695.509Z" fill="#64B9FF"/>
<path d="M1094.09 695.509C1094.09 698.685 1091.42 701.465 1087.94 701.465C1084.66 701.465 1081.79 698.884 1081.79 695.509C1081.79 692.332 1084.46 689.552 1087.94 689.552C1091.42 689.552 1094.09 692.133 1094.09 695.509Z" fill="#197BDD"/>
<path d="M1076.67 695.509C1076.67 698.685 1074.01 701.465 1070.52 701.465C1067.24 701.465 1064.38 698.884 1064.38 695.509C1064.38 692.332 1067.04 689.552 1070.52 689.552C1073.8 689.552 1076.67 692.133 1076.67 695.509Z" fill="#197BDD"/>
<path d="M1059.05 695.508C1059.05 698.685 1056.38 701.465 1052.9 701.465C1049.62 701.465 1046.75 698.884 1046.75 695.508C1046.75 692.332 1049.42 689.552 1052.9 689.552C1056.38 689.552 1059.05 692.133 1059.05 695.508Z" fill="#197BDD"/>
<path d="M1105.36 759.239C1108.75 759.239 1111.51 756.573 1111.51 753.283C1111.51 749.994 1108.75 747.327 1105.36 747.327C1101.96 747.327 1099.21 749.994 1099.21 753.283C1099.21 756.573 1101.96 759.239 1105.36 759.239Z" fill="#197BDD"/>
<path d="M1087.94 759.239C1091.34 759.239 1094.09 756.573 1094.09 753.283C1094.09 749.994 1091.34 747.327 1087.94 747.327C1084.55 747.327 1081.79 749.994 1081.79 753.283C1081.79 756.573 1084.55 759.239 1087.94 759.239Z" fill="#197BDD"/>
<path d="M1070.52 759.239C1073.92 759.239 1076.67 756.573 1076.67 753.283C1076.67 749.994 1073.92 747.327 1070.52 747.327C1067.13 747.327 1064.38 749.994 1064.38 753.283C1064.38 756.573 1067.13 759.239 1070.52 759.239Z" fill="#64B9FF"/>
<path d="M1059.05 753.283C1059.05 756.46 1056.38 759.239 1052.9 759.239C1049.62 759.239 1046.75 756.658 1046.75 753.283C1046.75 749.908 1049.42 747.327 1052.9 747.327C1056.38 747.327 1059.05 750.106 1059.05 753.283Z" fill="#197BDD"/>
<path opacity="0.2" d="M1034.66 348.067C1034.66 355.214 1028.72 360.972 1021.34 360.972C1013.97 360.972 1008.02 355.214 1008.02 348.067C1008.02 340.92 1013.97 335.162 1021.34 335.162C1028.92 335.162 1034.66 340.92 1034.66 348.067Z" fill="white"/>
<path opacity="0.2" d="M1034.66 406.04C1034.66 413.187 1028.72 418.945 1021.34 418.945C1013.97 418.945 1008.02 413.187 1008.02 406.04C1008.02 398.893 1013.97 393.135 1021.34 393.135C1028.92 393.135 1034.66 398.893 1034.66 406.04Z" fill="white"/>
<path opacity="0.2" d="M1004.74 463.815C1004.74 470.962 998.802 476.72 991.425 476.72C984.048 476.72 978.105 470.962 978.105 463.815C978.105 456.667 984.048 450.91 991.425 450.91C999.007 451.108 1004.74 456.667 1004.74 463.815Z" fill="white"/>
<path opacity="0.2" d="M1034.66 521.788C1034.66 528.935 1028.72 534.693 1021.34 534.693C1013.97 534.693 1008.02 528.935 1008.02 521.788C1008.02 514.64 1013.97 508.883 1021.34 508.883C1028.92 508.883 1034.66 514.64 1034.66 521.788Z" fill="white"/>
<path opacity="0.2" d="M1034.66 579.562C1034.66 586.71 1028.72 592.467 1021.34 592.467C1013.97 592.467 1008.02 586.71 1008.02 579.562C1008.02 572.415 1013.97 566.657 1021.34 566.657C1028.92 566.856 1034.66 572.613 1034.66 579.562Z" fill="white"/>
<path opacity="0.2" d="M1034.66 637.535C1034.66 644.683 1028.72 650.44 1021.34 650.44C1013.97 650.44 1008.02 644.683 1008.02 637.535C1008.02 630.388 1013.97 624.63 1021.34 624.63C1028.92 624.63 1034.66 630.388 1034.66 637.535Z" fill="white"/>
<path opacity="0.2" d="M1034.66 695.509C1034.66 702.656 1028.72 708.413 1021.34 708.413C1013.97 708.413 1008.02 702.656 1008.02 695.509C1008.02 688.361 1013.97 682.604 1021.34 682.604C1028.92 682.604 1034.66 688.361 1034.66 695.509Z" fill="white"/>
<path opacity="0.2" d="M1034.66 753.283C1034.66 760.43 1028.72 766.188 1021.34 766.188C1013.97 766.188 1008.02 760.43 1008.02 753.283C1008.02 746.136 1013.97 740.378 1021.34 740.378C1028.92 740.577 1034.66 746.136 1034.66 753.283Z" fill="white"/>
<path d="M1155.15 194.2H1153.51V199.163H1155.15V194.2Z" fill="#0053CC"/>
<path d="M1484.86 307.367H1483.22V297.44H1484.86V307.367ZM1484.86 287.711H1483.22V277.784H1484.86V287.711ZM1484.86 267.857H1483.22V257.931H1484.86V267.857ZM1484.86 248.004H1483.22V238.077H1484.86V248.004ZM1484.86 228.15H1483.22V218.223H1484.86V228.15ZM1484.86 208.296H1483.22V198.369H1484.86V208.296ZM1484.86 188.442H1483.22V178.515H1484.86V188.442ZM1155.15 184.273H1153.51V177.523C1153.51 176.53 1153.51 175.339 1153.72 174.346L1155.36 174.545C1155.15 175.537 1155.15 176.53 1155.15 177.523V184.273ZM1481.58 168.985C1480.56 166.007 1478.71 163.228 1476.66 160.845L1477.89 159.853C1480.15 162.434 1481.99 165.412 1483.22 168.588L1481.58 168.985ZM1158.43 165.412L1157 164.618C1158.64 161.64 1160.89 159.059 1163.76 156.875L1164.78 158.066C1162.12 160.051 1159.87 162.632 1158.43 165.412ZM1468.88 155.088C1466.01 153.698 1462.73 152.705 1459.45 152.507L1459.65 150.919C1463.14 151.117 1466.62 152.11 1469.7 153.698L1468.88 155.088ZM1173.18 153.5L1172.57 151.911C1175.23 151.117 1178.1 150.72 1180.97 150.72H1183.02V152.308H1180.97C1178.51 152.308 1175.85 152.705 1173.18 153.5ZM1449.2 152.308H1438.96V150.72H1449.2V152.308ZM1428.71 152.308H1418.47V150.72H1428.71V152.308ZM1408.22 152.308H1397.98V150.72H1408.22V152.308ZM1387.73 152.308H1377.48V150.72H1387.73V152.308ZM1367.24 152.308H1356.99V150.72H1367.24V152.308ZM1346.75 152.308H1336.5V150.72H1346.75V152.308ZM1326.46 152.308H1316.21V150.72H1326.46V152.308ZM1305.97 152.308H1295.72V150.72H1305.97V152.308ZM1285.48 152.308H1275.23V150.72H1285.48V152.308ZM1264.99 152.308H1254.74V150.72H1264.99V152.308ZM1244.49 152.308H1234.25V150.72H1244.49V152.308ZM1224 152.308H1213.76V150.72H1224V152.308ZM1203.51 152.308H1193.27V150.72H1203.51V152.308Z" fill="#0053CC"/>
<path d="M1484.65 317.492H1483.01V322.455H1484.65V317.492Z" fill="#0053CC"/>
<path d="M1347.16 796.366H1362.11L1363.75 762.614H1348.79L1347.16 796.366Z" fill="#F5C9B2"/>
<path d="M1362.73 794.777H1346.34C1345.72 794.777 1345.11 795.174 1345.11 795.77L1342.65 808.675C1342.44 810.065 1343.47 811.256 1344.9 811.256C1350.84 811.256 1359.45 810.859 1366.83 810.859C1375.64 810.859 1376.87 811.256 1386.91 811.256C1393.06 811.256 1394.49 805.3 1392.03 804.704C1380.15 802.123 1376.87 801.925 1366.42 795.77C1365.19 795.174 1363.96 794.777 1362.73 794.777Z" fill="#0F264C"/>
<path d="M1363.75 762.614L1362.94 780.086H1347.98L1348.8 762.614H1363.75Z" fill="#F0B89A"/>
<path d="M1447.97 310.94C1447.77 315.507 1447.36 320.47 1447.15 325.433C1446.95 330.198 1446.95 335.162 1446.95 339.927C1446.95 344.692 1447.15 349.457 1447.56 354.023C1447.97 358.589 1448.59 362.957 1449.82 366.729C1450.23 368.715 1451.05 370.303 1451.66 371.296C1451.66 371.494 1452.07 372.09 1452.48 372.487L1453.51 373.877C1454.12 374.869 1454.74 375.862 1455.55 376.855C1458.22 380.826 1461.29 384.598 1464.37 388.37C1470.51 396.113 1477.28 403.657 1483.83 411.202L1476.05 420.136C1466.82 414.379 1458.42 408.025 1450.43 400.878C1446.33 397.304 1442.65 393.532 1438.96 389.363C1438.14 388.37 1437.11 387.377 1436.29 386.186L1435.06 384.598C1434.65 384.002 1434.24 383.605 1433.63 382.811C1431.37 379.634 1430.15 376.458 1428.92 373.678C1426.66 367.722 1425.64 362.163 1424.82 356.802C1424 351.243 1423.59 345.883 1423.38 340.721C1423.18 335.36 1423.18 330.198 1423.38 324.838C1423.59 319.477 1423.79 314.514 1424.41 308.955L1447.97 310.94Z" fill="#FF8B7B"/>
<path d="M1453.3 340.919L1446.95 343.5L1436.09 347.67L1417.03 355.016C1417.03 355.016 1408.22 311.139 1412.93 297.837C1418.06 283.145 1436.29 283.542 1446.13 300.219C1455.97 316.301 1453.3 340.919 1453.3 340.919Z" fill="#E39D29"/>
<path d="M1446.13 343.699L1436.29 347.471C1434.65 340.522 1433.22 329.007 1437.93 320.47C1444.49 325.831 1445.51 336.75 1446.13 343.699Z" fill="#E39D29"/>
<path d="M1436.29 404.65H1353.92C1353.3 397.503 1355.15 378.046 1353.92 351.641C1353.71 345.486 1353.1 339.133 1352.48 332.382C1351.05 318.286 1348.59 302.8 1344.7 286.719C1344.7 286.719 1358.84 283.939 1372.16 283.343C1382.61 282.748 1397.97 282.549 1407.2 283.343C1419.49 284.336 1431.17 287.513 1431.17 287.513C1431.17 287.513 1450.43 320.867 1436.29 404.65Z" fill="#F6AC3B"/>
<path d="M1353.92 351.641C1353.71 345.486 1353.1 339.133 1352.48 332.382C1355.15 330.794 1358.63 330.595 1359.25 340.125C1360.07 348.861 1356.99 351.243 1353.92 351.641Z" fill="#E2A549"/>
<path d="M1506.99 422.121L1495.1 429.269L1480.35 426.291L1492.03 412.195L1506.99 422.121Z" fill="#F5C9B2"/>
<path d="M1478.3 410.011L1492.03 412.195L1480.35 426.291C1480.35 426.291 1472.97 425.497 1471.13 415.967L1478.3 410.011Z" fill="#F0B89A"/>
<path d="M1374.21 245.026C1376.87 255.945 1379.74 275.998 1372.16 283.145C1372.16 283.145 1376.05 290.491 1396.95 290.491C1416.01 290.491 1407.2 283.145 1407.2 283.145C1394.49 280.167 1394.49 271.233 1396.34 262.695L1374.21 245.026Z" fill="#F5C9B2"/>
<path d="M1383.22 252.372L1396.34 262.894C1395.93 264.879 1395.52 266.865 1395.52 268.85C1391.62 272.622 1383.84 263.093 1383.22 258.129C1382.81 255.747 1382.81 253.563 1383.22 252.372Z" fill="#F0B89A"/>
<path d="M1418.88 217.429C1424.2 223.782 1418.06 243.636 1407.2 243.04C1396.34 242.445 1409.04 205.318 1418.88 217.429Z" fill="#495C71"/>
<path d="M1376.46 226.959C1375.23 241.651 1373.79 250.188 1380.35 258.923C1390.19 272.027 1409.86 268.652 1415.6 254.754C1420.72 242.246 1421.74 220.209 1407.81 211.87C1394.08 203.73 1377.69 212.267 1376.46 226.959Z" fill="#F5C9B2"/>
<path d="M1370.93 208.495L1387.32 214.054C1380.15 223.385 1390.6 245.423 1377.89 241.253C1372.16 239.268 1353.1 219.017 1370.93 208.495Z" fill="#445465"/>
<path d="M1378.92 212.267C1385.06 216.635 1410.27 221.995 1424.61 214.054C1420.92 213.259 1416.01 210.877 1416.01 210.877C1416.01 210.877 1426.87 210.281 1431.58 202.737C1421.33 204.325 1414.37 201.347 1411.7 200.354C1416.42 199.362 1421.33 194.597 1422.77 191.222C1402.89 191.42 1360.07 195.391 1367.44 208.892C1375.23 222.591 1378.92 212.267 1378.92 212.267Z" fill="#445465"/>
<path d="M1370.31 210.48C1370.31 210.48 1365.39 208.296 1362.12 204.921C1361.3 207.105 1361.3 213.26 1370.31 210.48Z" fill="#0F264C"/>
<path d="M1367.24 241.849C1368.88 245.621 1372.16 248.202 1375.23 249.592C1379.94 251.379 1382.81 247.607 1381.79 242.842C1380.97 238.673 1377.28 232.716 1372.36 232.716C1367.65 232.915 1365.39 237.68 1367.24 241.849Z" fill="#F5C9B2"/>
<path d="M1393.26 796.366H1408.43L1411.5 762.614H1396.54L1393.26 796.366Z" fill="#F5C9B2"/>
<path d="M1409.04 794.777H1392.65C1392.03 794.777 1391.42 795.174 1391.42 795.77L1388.96 808.675C1388.75 810.065 1389.78 811.256 1391.21 811.256C1397.16 811.256 1405.76 810.859 1413.14 810.859C1421.95 810.859 1429.33 811.256 1439.57 811.256C1445.72 811.256 1447.15 805.3 1444.7 804.704C1432.81 802.123 1423.18 801.925 1412.73 795.77C1411.7 795.174 1410.47 794.777 1409.04 794.777Z" fill="#0F264C"/>
<path d="M1411.5 762.614L1409.86 780.086H1394.9L1396.54 762.614H1411.5Z" fill="#F0B89A"/>
<path d="M1415.39 796.961C1416.62 797.16 1417.65 797.16 1418.47 796.564C1419.08 796.167 1419.49 795.572 1419.49 794.777C1419.49 794.182 1419.29 793.785 1419.08 793.785C1417.44 792.792 1412.11 794.777 1411.5 795.174C1411.29 795.174 1411.29 795.373 1411.29 795.572C1411.29 795.77 1411.29 795.77 1411.5 795.969C1412.52 796.366 1413.96 796.763 1415.39 796.961ZM1418.06 794.38C1418.26 794.38 1418.47 794.38 1418.47 794.579C1418.47 794.579 1418.67 794.777 1418.67 794.976C1418.67 795.572 1418.47 795.969 1418.06 796.167C1417.24 796.763 1415.19 796.564 1412.52 795.572C1414.37 794.777 1416.83 794.182 1418.06 794.38Z" fill="#407BFF"/>
<path d="M1411.5 795.969C1411.5 795.969 1411.7 795.969 1411.5 795.969C1413.34 795.373 1416.83 792.593 1416.62 791.005C1416.62 790.608 1416.42 790.211 1415.6 790.012C1414.98 789.814 1414.57 790.012 1413.96 790.211C1411.91 791.402 1411.09 795.571 1411.09 795.77C1411.29 795.571 1411.29 795.77 1411.5 795.969C1411.5 795.77 1411.5 795.969 1411.5 795.969ZM1415.39 790.41C1416.01 790.608 1416.01 790.807 1416.01 790.807C1416.01 791.799 1413.75 793.983 1412.11 794.777C1412.52 793.586 1413.34 791.204 1414.57 790.41C1414.78 790.41 1414.98 790.41 1415.39 790.41Z" fill="#407BFF"/>
<path d="M1389.16 775.916H1413.75C1413.75 775.916 1451.46 636.344 1450.84 588.894C1450.23 543.428 1436.5 404.65 1436.5 404.65H1382.4C1382.4 404.65 1386.7 435.424 1391.42 473.543C1395.72 507.096 1400.43 546.406 1403.1 574.996C1403.92 583.533 1404.53 591.077 1404.94 597.232C1407.4 643.889 1389.16 775.916 1389.16 775.916Z" fill="#6F7B88"/>
<path d="M1391.21 473.543C1395.52 507.096 1400.23 546.407 1402.89 574.996C1408.63 549.98 1422.56 477.514 1401.66 440.784C1396.33 448.13 1393.06 460.638 1391.21 473.543Z" fill="#445465"/>
<path d="M1406.99 404.65C1406.99 404.65 1404.94 538.465 1396.95 581.151C1388.14 628.006 1370.72 775.916 1370.72 775.916H1342.65C1342.65 775.916 1346.75 631.778 1351.05 585.518C1355.76 535.288 1353.92 404.849 1353.92 404.849H1406.99V404.65Z" fill="#6F7B88"/>
<path d="M1341.42 776.512H1371.95L1374.21 765.394L1340.39 764.401L1341.42 776.512Z" fill="#0F264C"/>
<path d="M1387.73 776.512H1418.26L1420.52 765.394L1386.91 765.99L1387.73 776.512Z" fill="#0F264C"/>
<path d="M1353.3 759.835C1353.1 759.835 1353.1 759.636 1353.1 759.636C1353.3 758.246 1355.35 628.8 1359.25 587.305C1363.34 542.038 1360.89 422.32 1360.89 421.327C1360.89 421.129 1361.09 421.129 1361.09 421.129C1361.3 421.129 1361.3 421.327 1361.3 421.327C1361.3 422.32 1363.75 542.237 1359.66 587.305C1355.76 628.998 1353.71 758.246 1353.51 759.636C1353.51 759.636 1353.51 759.835 1353.3 759.835Z" fill="#445465"/>
<path d="M1398.79 235.099C1398.59 236.29 1399.2 237.283 1400.02 237.481C1400.84 237.68 1401.66 236.687 1401.87 235.496C1402.07 234.305 1401.46 233.312 1400.64 233.113C1399.82 233.113 1399 233.908 1398.79 235.099Z" fill="#0F264C"/>
<path d="M1412.93 236.687C1412.73 237.878 1413.34 238.871 1414.16 239.07C1414.98 239.268 1415.8 238.275 1416.01 237.084C1416.21 235.893 1415.6 234.9 1414.78 234.702C1413.96 234.702 1413.14 235.496 1412.93 236.687Z" fill="#0F264C"/>
<path d="M1408.22 237.084C1408.22 237.084 1410.06 244.43 1412.73 248.202C1410.27 249.791 1406.79 248.202 1406.79 248.202L1408.22 237.084Z" fill="#F0B89A"/>
<path d="M1404.12 253.166C1404.33 253.166 1404.53 252.967 1404.53 252.769C1404.53 252.57 1404.33 252.372 1404.12 252.372C1398.59 251.577 1396.54 247.607 1396.54 247.607C1396.54 247.408 1396.13 247.408 1396.13 247.408C1395.93 247.408 1395.93 247.607 1395.93 247.805C1395.93 248.202 1398.18 252.372 1404.12 253.166Z" fill="#0F264C"/>
<path d="M1395.11 226.562C1395.31 226.562 1395.52 226.562 1395.72 226.363C1398.18 224.378 1400.84 225.172 1400.84 225.172C1401.25 225.37 1401.66 225.172 1401.66 224.775C1401.87 224.378 1401.66 223.981 1401.25 223.782C1401.05 223.782 1397.97 222.789 1394.7 225.172C1394.29 225.37 1394.29 225.768 1394.7 226.165C1394.7 226.363 1394.9 226.363 1395.11 226.562Z" fill="#0F264C"/>
<path d="M1356.79 283.939L1360.68 283.542C1361.09 283.542 1361.5 283.741 1361.5 284.138C1374.41 340.522 1370.52 400.282 1370.52 400.282H1366.21C1367.44 338.339 1357.61 291.285 1356.17 284.733C1356.17 284.336 1356.38 283.939 1356.79 283.939Z" fill="#6F7B88"/>
<path d="M1367.03 401.672H1369.9C1370.72 401.672 1371.34 401.076 1371.34 400.282C1371.34 399.488 1370.72 398.893 1369.9 398.893H1367.03C1366.21 398.893 1365.6 399.488 1365.6 400.282C1365.6 401.076 1366.42 401.672 1367.03 401.672Z" fill="#0F264C"/>
<path d="M1370.52 405.246L1370.31 401.474C1370.31 400.481 1369.49 399.687 1368.47 399.687C1367.44 399.687 1366.62 400.481 1366.62 401.474L1366.83 405.246C1366.83 406.239 1367.65 407.033 1368.67 407.033C1369.7 407.033 1370.52 406.239 1370.52 405.246Z" fill="#0F264C"/>
<path d="M1419.49 229.54C1419.7 229.54 1419.7 229.54 1419.9 229.54C1420.31 229.341 1420.52 228.944 1420.31 228.746C1419.08 224.973 1415.8 223.981 1415.8 223.981C1415.39 223.782 1414.98 223.981 1414.98 224.378C1414.78 224.775 1415.19 225.172 1415.39 225.172C1415.6 225.172 1418.06 225.966 1418.88 228.944C1418.88 229.341 1419.08 229.54 1419.49 229.54Z" fill="#0F264C"/>
<path d="M1353.92 310.345C1351.66 319.676 1349.2 329.404 1347.16 338.934C1346.13 343.699 1345.11 348.464 1344.49 353.03C1343.88 357.597 1343.06 362.362 1343.26 365.935C1343.47 373.48 1346.34 381.223 1351.66 387.973C1354.33 391.348 1357.61 394.723 1361.09 397.701C1362.93 399.29 1364.78 400.68 1366.62 402.069C1367.65 402.665 1368.47 403.459 1369.49 404.055C1370.52 404.65 1371.54 405.444 1372.36 405.842L1367.85 416.761C1366.21 416.364 1364.98 415.967 1363.55 415.371C1362.32 414.776 1360.88 414.379 1359.66 413.783C1356.99 412.592 1354.53 411.401 1352.07 410.011C1347.16 407.231 1342.44 403.856 1338.14 399.687C1333.84 395.518 1330.15 390.753 1327.07 385.392C1324.21 379.833 1322.16 373.877 1321.54 367.524C1320.93 361.17 1321.13 355.81 1321.54 350.251C1321.95 344.89 1322.77 339.728 1323.59 334.566C1325.23 324.242 1327.69 314.315 1330.56 304.19L1353.92 310.345Z" fill="#F5C9B2"/>
<path d="M1344.7 286.719C1328.3 289.498 1319.08 331.787 1319.08 331.787L1359.45 345.684C1359.45 345.684 1362.52 331.787 1359.45 313.521C1356.58 295.653 1360.07 283.939 1344.7 286.719Z" fill="#E39D29"/>
<path d="M1422.15 284.733L1426.05 285.527C1426.46 285.527 1426.66 285.925 1426.66 286.123C1436.91 342.508 1430.15 400.481 1430.15 400.481H1425.84C1429.94 339.133 1422.56 292.873 1421.33 285.726C1421.13 285.13 1421.54 284.733 1422.15 284.733Z" fill="#6F7B88"/>
<path d="M1426.46 401.672H1429.33C1430.15 401.672 1430.76 401.076 1430.76 400.282C1430.76 399.488 1430.15 398.893 1429.33 398.893H1426.46C1425.64 398.893 1425.02 399.488 1425.02 400.282C1425.02 401.076 1425.64 401.672 1426.46 401.672Z" fill="#0F264C"/>
<path d="M1429.74 405.246V401.474C1429.74 400.481 1428.92 399.687 1427.89 399.687C1426.87 399.687 1426.05 400.481 1426.05 401.474V405.246C1426.05 406.239 1426.87 407.033 1427.89 407.033C1428.92 407.033 1429.74 406.239 1429.74 405.246Z" fill="#0F264C"/>
<path d="M1369.08 796.961C1370.31 797.16 1371.34 797.16 1372.16 796.564C1372.77 796.167 1373.18 795.572 1373.18 794.777C1373.18 794.182 1372.98 793.785 1372.77 793.785C1371.13 792.792 1365.8 794.777 1365.19 795.174C1364.98 795.174 1364.98 795.373 1364.98 795.572C1364.98 795.77 1364.98 795.77 1365.19 795.969C1366.21 796.366 1367.65 796.763 1369.08 796.961ZM1371.75 794.38C1371.95 794.38 1372.16 794.38 1372.16 794.579C1372.16 794.579 1372.36 794.777 1372.36 794.976C1372.36 795.572 1372.16 795.969 1371.75 796.167C1370.93 796.763 1368.88 796.564 1366.21 795.572C1368.06 794.777 1370.52 794.182 1371.75 794.38Z" fill="#407BFF"/>
<path d="M1365.19 795.969C1365.19 795.969 1365.39 795.969 1365.19 795.969C1367.03 795.373 1370.52 792.593 1370.31 791.005C1370.31 790.608 1370.11 790.211 1369.29 790.012C1368.67 789.814 1368.26 790.012 1367.65 790.211C1365.6 791.402 1364.78 795.571 1364.78 795.77C1364.78 795.571 1364.98 795.77 1365.19 795.969C1364.98 795.77 1365.19 795.969 1365.19 795.969ZM1369.08 790.41C1369.7 790.608 1369.7 790.807 1369.7 790.807C1369.7 791.799 1367.44 793.983 1365.8 794.777C1366.21 793.586 1367.03 791.204 1368.26 790.41C1368.47 790.41 1368.67 790.41 1369.08 790.41Z" fill="#407BFF"/>
<path d="M1359.86 413.982L1364.57 405.643L1377.48 406.04L1387.52 410.011L1394.29 419.739L1376.66 418.746C1376.87 418.746 1366.21 421.725 1359.86 413.982Z" fill="#F5C9B2"/>
<path d="M1395.72 290.689L1392.65 288.505L1386.3 294.462L1395.72 290.689Z" fill="#6F7B88"/>
<path d="M1392.65 288.506C1392.65 288.506 1387.52 295.653 1386.7 300.815C1380.35 298.234 1368.06 291.881 1366.21 282.947C1368.67 282.549 1372.57 279.968 1372.57 279.968C1372.57 279.968 1379.12 285.329 1392.65 288.506Z" fill="#6F7B88"/>
<path d="M1395.72 290.689L1396.75 288.108L1405.35 294.462L1395.72 290.689Z" fill="#6F7B88"/>
<path d="M1396.74 288.108C1396.74 288.108 1402.28 292.675 1403.3 299.624C1409.45 297.043 1411.7 288.704 1409.86 283.343C1406.38 281.755 1402.28 280.961 1402.28 280.961C1402.28 280.961 1403.1 286.322 1396.74 288.108Z" fill="#6F7B88"/>
<path d="M1544.29 347.273L1415.39 342.905L1396.75 415.967L1525.64 420.335L1544.29 347.273Z" fill="#C8C9C9"/>
<path d="M1548.38 347.472L1419.29 343.104L1400.64 416.166L1529.73 420.534L1548.38 347.472Z" fill="#0F264C"/>
<path d="M1529.74 420.533L1529.12 424.703L1400.23 420.136L1400.64 416.166L1529.74 420.533Z" fill="#0F264C"/>
<path d="M1400.64 416.166L1400.23 420.136L1349.41 418.548L1350.03 414.379L1400.64 416.166Z" fill="#C8C9C9"/>
</g>
<defs>
<clipPath id="clip0">
<rect width="1920" height="879" fill="white"/>
</clipPath>
</defs>
</svg>
