<svg width="1920" height="879" viewBox="0 0 1920 879" fill="none" xmlns="http://www.w3.org/2000/svg">
<path d="M1855.32 731.489H915.824V732.054H1855.32V731.489Z" fill="#EBEBEB"/>
<path d="M1734.5 761.813H1698.99V762.378H1734.5V761.813Z" fill="#EBEBEB"/>
<path d="M1521.99 758.611H1466.56V759.176H1521.99V758.611Z" fill="#EBEBEB"/>
<path d="M1697.11 744.297H1608.61V744.861H1697.11V744.297Z" fill="#EBEBEB"/>
<path d="M1035.14 747.499H1014.47V748.063H1035.14V747.499Z" fill="#EBEBEB"/>
<path d="M1124.2 747.499H1051.68V748.063H1124.2V747.499Z" fill="#EBEBEB"/>
<path d="M1338.78 755.409H1237.13V755.974H1338.78V755.409Z" fill="#EBEBEB"/>
<path d="M1361.14 647.486H998.31C992.485 647.486 987.6 642.589 987.6 636.75V125.571C987.6 119.732 992.485 114.835 998.31 114.835H1361.14C1366.97 114.835 1371.85 119.732 1371.85 125.571V636.75C1371.85 642.589 1367.16 647.486 1361.14 647.486ZM998.31 115.212C992.673 115.212 987.975 119.732 987.975 125.571V636.75C987.975 642.4 992.485 647.109 998.31 647.109H1361.14C1366.78 647.109 1371.48 642.589 1371.48 636.75V125.571C1371.48 119.921 1366.97 115.212 1361.14 115.212H998.31Z" fill="#EBEBEB"/>
<path d="M1767.57 647.486H1404.74C1398.91 647.486 1394.03 642.589 1394.03 636.75V125.571C1394.03 119.732 1398.91 114.835 1404.74 114.835H1767.57C1773.4 114.835 1778.28 119.732 1778.28 125.571V636.75C1778.28 642.589 1773.58 647.486 1767.57 647.486ZM1404.74 115.212C1399.1 115.212 1394.4 119.732 1394.4 125.571V636.75C1394.4 642.4 1398.91 647.109 1404.74 647.109H1767.57C1773.21 647.109 1777.9 642.589 1777.9 636.75V125.571C1777.9 119.921 1773.4 115.212 1767.57 115.212H1404.74Z" fill="#EBEBEB"/>
<path d="M1033.78 513.543H1173.95V162.461H1033.78V513.543Z" fill="#5CDBF5"/>
<path d="M1013.47 513.543H1170.36V162.461H1013.47V513.543Z" fill="#79A2FD"/>
<path d="M1154.22 497.202V178.516L1029.64 178.516V497.202H1154.22Z" fill="#5CDBF5"/>
<path d="M1205.89 513.543H1346.06V162.461H1205.89V513.543Z" fill="#5CDBF5"/>
<path d="M1185.58 513.543H1342.48V162.461H1185.58V513.543Z" fill="#79A2FD"/>
<path d="M1326.24 497.299V178.613L1201.67 178.613V497.299H1326.24Z" fill="#5CDBF5"/>
<path d="M1441.94 593.43H1327.14V731.489H1441.94V593.43Z" fill="#E0E0E0"/>
<path d="M1442.13 593.43H1327.14L1301.39 567.061H1416.2L1442.13 593.43Z" fill="#E0E0E0"/>
<path d="M1260.06 567.061H1145.06L1123.46 593.429H1238.26L1260.06 567.061Z" fill="#4DCCE6"/>
<path d="M1123.32 731.564H1327.19V593.505H1123.32V731.564Z" fill="#5CDBF5"/>
<path d="M1312.35 694.648H1327.19V630.421H1312.35V694.648Z" fill="#F0F0F0"/>
<path d="M1192.67 617.128V673.067H1248.48V617.128H1192.67Z" fill="#F0F0F0"/>
<path d="M1123.61 617.207V673.146H1179.41V617.207H1123.61Z" fill="#F0F0F0"/>
<path d="M1192.7 676.624V681.145H1248.5V676.624H1192.7Z" fill="#F0F0F0"/>
<path d="M1123.63 676.703V681.223H1179.43V676.703H1123.63Z" fill="#F0F0F0"/>
<path d="M1192.72 689.972V694.492H1248.53V689.972H1192.72Z" fill="#F0F0F0"/>
<path d="M1123.65 690.051V694.571H1179.46V690.051H1123.65Z" fill="#F0F0F0"/>
<path d="M1192.75 703.319V707.84H1248.55V703.319H1192.75Z" fill="#F0F0F0"/>
<path d="M1123.68 703.398V707.919H1179.48V703.398H1123.68Z" fill="#F0F0F0"/>
<path d="M1360.21 630.346H1327.14V694.573H1360.21V630.346Z" fill="#E6E6E6"/>
<path d="M1485.55 731.426H1540.79V421.216H1485.55V731.426Z" fill="#67AEC1"/>
<path d="M1500.38 731.489H1485.54V677.81H1515.79L1500.38 731.489Z" fill="#F5F5F5"/>
<path d="M1643.73 731.426H1698.97V421.216H1643.73V731.426Z" fill="#4DCCE5"/>
<path d="M1485.69 712.967H1656.67V421.215H1485.69V712.967Z" fill="#67AEC1"/>
<path d="M1641.87 731.489H1656.71V677.81H1626.46L1641.87 731.489Z" fill="#67AEC1"/>
<path d="M1496.96 700.938H1645.21V573.425H1496.96V700.938Z" fill="#55CAF0"/>
<path d="M1544.18 700.938H1645.27V573.425H1544.18V700.938Z" fill="#55CAF0"/>
<path d="M1496.96 562.25H1645.21V434.738H1496.96V562.25Z" fill="#F0F0F0"/>
<path d="M1544.18 562.25H1645.27V434.738H1544.18V562.25Z" fill="#55CAF0"/>
<path d="M1594.7 532.216C1594.7 548.602 1580.8 562.164 1563.7 562.164H1548.29C1531.19 562.164 1517.29 548.791 1517.29 532.216H1594.7Z" fill="#64AEC2"/>
<path d="M1594.7 511.309C1594.7 527.696 1580.8 541.257 1563.7 541.257H1548.29C1531.19 541.257 1517.29 527.884 1517.29 511.309H1594.7Z" fill="#4FA7BE"/>
<path d="M1579.11 614.525H1624.77C1624.77 614.525 1616.88 633.736 1616.88 645.037C1616.88 656.338 1651.64 700.788 1602.03 700.788C1552.43 700.788 1587.19 656.338 1587.19 645.037C1587 633.925 1579.11 614.525 1579.11 614.525Z" fill="#4FA7BE"/>
<path d="M1594.7 490.403C1594.7 506.789 1580.8 520.35 1563.7 520.35H1548.29C1531.19 520.35 1517.29 506.977 1517.29 490.403H1594.7Z" fill="#67AEC1"/>
<path d="M1580.99 398.677C1579.3 349.518 1577.42 259.675 1581.18 235.002L1587.38 230.293C1587.38 230.293 1586.06 275.308 1585.31 350.46C1584.56 425.611 1583.81 387.564 1584.56 398.677H1580.99Z" fill="#396DAB"/>
<path d="M1566.9 268.34C1552.61 257.98 1522.36 250.635 1491.17 250.635C1478.96 250.635 1527.81 262.689 1547.54 276.062C1562.95 286.421 1579.86 303.749 1585.31 313.355C1582.49 293.013 1581.18 278.699 1566.9 268.34Z" fill="#74C1C7"/>
<path d="M1595.64 295.273C1608.8 284.538 1638.11 276.25 1669.3 275.308C1681.51 274.932 1634.16 288.493 1615.94 302.431C1601.66 313.167 1586.81 331.06 1582.3 340.854C1582.68 320.512 1582.49 306.009 1595.64 295.273Z" fill="#4F8CB5"/>
<path d="M1583.43 421.279C1571.4 421.279 1561.45 411.861 1560.69 399.807L1558.63 383.232H1608.04L1605.98 399.807C1605.41 411.861 1595.46 421.279 1583.43 421.279Z" fill="#6F7B88"/>
<path d="M1611.24 391.143H1555.43L1553.93 376.64H1612.93L1611.24 391.143Z" fill="#6F7B88"/>
<path d="M1385.57 816.435C1586.79 816.435 1749.91 806.906 1749.91 795.151C1749.91 783.397 1586.79 773.868 1385.57 773.868C1184.36 773.868 1021.24 783.397 1021.24 795.151C1021.24 806.906 1184.36 816.435 1385.57 816.435Z" fill="#5CDBF5"/>
<path d="M1581.55 760.683L1568.02 763.509L1558.81 732.619L1572.34 729.794L1581.55 760.683Z" fill="#F5C9B2"/>
<path d="M1567.27 762.002L1582.11 758.8C1582.68 758.611 1583.24 758.988 1583.43 759.553L1588.69 771.042C1589.25 772.172 1588.5 773.679 1587.19 773.868C1581.92 774.809 1574.03 776.128 1567.46 777.634C1559.56 779.33 1558.62 781.025 1549.23 782.155C1543.59 782.908 1541.34 777.446 1543.59 776.504C1553.93 772.737 1556.37 771.231 1564.26 763.697C1565.01 762.943 1565.95 762.378 1567.27 762.002Z" fill="#0F264C"/>
<path opacity="0.2" d="M1558.81 732.619L1563.7 748.629L1577.04 745.804L1572.34 729.794L1558.81 732.619Z" fill="black"/>
<path d="M1483.66 319.759C1480.84 328.988 1477.83 337.84 1474.64 346.881C1471.25 355.733 1467.87 364.774 1463.55 373.626L1461.86 377.017L1459.98 380.407C1459.42 381.537 1458.66 382.667 1458.1 383.797C1457.54 384.927 1456.79 386.058 1456.03 386.999C1453.22 391.331 1450.02 395.287 1446.64 399.054C1443.26 402.821 1439.69 406.399 1435.93 409.601C1434.05 411.296 1431.98 412.803 1429.92 414.121C1427.85 415.628 1425.97 416.947 1423.53 418.265L1416.95 409.413C1418.27 407.906 1419.77 406.211 1421.27 404.516C1422.78 402.821 1424.09 400.937 1425.41 399.242C1428.04 395.663 1430.67 392.085 1432.92 388.318C1435.18 384.551 1437.43 380.972 1439.31 377.017C1440.25 375.133 1441.19 373.25 1441.94 371.178L1443.26 368.164L1444.38 365.151C1447.58 356.863 1450.59 348.011 1453.4 339.159L1462.23 312.79L1483.66 319.759Z" fill="#F5C9B2"/>
<path d="M1493.61 304.879C1498.31 317.498 1473.13 362.702 1473.13 362.702L1444.76 340.665C1444.76 340.665 1452.65 320.889 1462.42 306.386C1472.19 291.506 1488.35 290.941 1493.61 304.879Z" fill="#F6AC3B"/>
<path opacity="0.2" d="M1487.97 317.499C1478.96 321.266 1466.74 335.768 1462.98 354.98L1472.94 362.702C1472.94 362.702 1487.97 335.957 1492.67 317.875C1491.36 316.934 1489.85 316.557 1487.97 317.499Z" fill="black"/>
<path d="M1476.7 295.273C1476.7 295.273 1459.98 326.916 1475.95 406.587C1498.69 406.587 1540.4 406.587 1551.49 406.587C1552.05 394.91 1544.72 349.329 1555.99 294.708C1555.99 294.708 1543.03 292.071 1530.63 291.506C1521.05 291.13 1506.95 290.753 1498.5 291.506C1487.41 292.26 1476.7 295.273 1476.7 295.273Z" fill="#F6AC3B"/>
<path d="M1392.71 419.207L1400.41 426.176L1411.88 423.162L1403.98 409.413L1392.71 419.207Z" fill="#F5C9B2"/>
<path d="M1420.71 410.166L1403.98 409.413L1411.69 423.162C1411.69 423.162 1424.09 424.481 1425.22 415.252L1420.71 410.166Z" fill="#F0B89A"/>
<path d="M1527.44 254.967C1525.37 265.326 1523.3 284.349 1530.63 291.13C1530.63 291.13 1527.44 298.099 1508.27 298.099C1490.8 298.099 1498.69 291.13 1498.69 291.13C1510.15 288.304 1509.96 279.829 1507.89 271.73L1527.44 254.967Z" fill="#F5C9B2"/>
<path opacity="0.2" d="M1519.35 261.936L1507.7 271.918C1508.27 273.802 1508.64 275.685 1508.64 277.569C1511.46 281.901 1519.16 275.497 1520.48 268.716C1521.04 266.456 1519.73 263.066 1519.35 261.936Z" fill="black"/>
<path d="M1481.02 232.177C1477.08 238.58 1485.72 256.662 1495.49 254.967C1505.26 253.46 1488.35 219.934 1481.02 232.177Z" fill="#445465"/>
<path d="M1522.74 238.769C1524.8 252.707 1526.68 260.617 1521.23 269.281C1513.15 282.089 1494.93 279.452 1488.73 266.456C1483.28 254.778 1480.83 234.06 1493.05 225.773C1505.07 217.297 1520.67 224.831 1522.74 238.769Z" fill="#F5C9B2"/>
<path d="M1523.87 220.499L1511.84 229.163C1518.98 237.827 1510.9 256.662 1522.17 252.33C1527.62 250.258 1540.96 229.916 1523.87 220.499Z" fill="#445465"/>
<path d="M1509.59 209.763C1491.36 214.095 1489.86 208.821 1490.98 202.041C1477.45 204.301 1467.31 215.037 1475.2 228.033C1484.03 242.347 1510.71 230.67 1515.41 230.67L1522.17 228.975C1537.58 224.454 1532.32 204.301 1509.59 209.763Z" fill="#445465"/>
<path d="M1525.74 245.925C1525.74 245.925 1525.74 246.113 1525.74 245.925C1522.17 245.925 1511.65 245.925 1511.46 245.925C1511.28 245.925 1511.09 245.737 1511.09 245.549C1511.09 245.361 1511.28 245.173 1511.46 245.173C1511.65 245.173 1522.17 245.173 1525.74 245.173C1525.93 245.173 1526.12 245.361 1526.12 245.549C1525.93 245.925 1525.93 245.925 1525.74 245.925Z" fill="#263238"/>
<path d="M1532.13 252.518C1530.81 256.097 1528 258.734 1525.18 260.052C1520.86 261.936 1518.04 258.357 1518.6 254.025C1519.16 250.07 1521.98 244.231 1526.49 244.231C1531.19 244.042 1533.63 248.563 1532.13 252.518Z" fill="#F5C9B2"/>
<path d="M1505.45 778.011H1491.55L1491.17 745.992H1504.89L1505.45 778.011Z" fill="#F5C9B2"/>
<path d="M1490.98 776.504H1506.01C1506.58 776.504 1507.14 776.881 1507.14 777.446L1509.96 789.689C1510.34 791.007 1509.21 792.137 1507.89 792.137C1502.44 792.137 1494.55 791.761 1487.79 791.761C1479.71 791.761 1472.94 792.137 1463.55 792.137C1457.91 792.137 1456.22 786.487 1458.66 785.922C1469.37 783.473 1478.21 783.285 1487.6 777.446C1488.73 776.881 1489.85 776.504 1490.98 776.504Z" fill="#0F264C"/>
<path opacity="0.2" d="M1491.17 745.992L1491.36 762.567H1505.26L1504.89 745.992H1491.17Z" fill="black"/>
<path d="M1485.35 778.573C1484.22 778.761 1483.28 778.761 1482.53 778.197C1481.96 777.821 1481.59 777.256 1481.59 776.503C1481.59 775.939 1481.78 775.562 1481.96 775.562C1483.28 774.621 1488.35 776.503 1488.92 776.88C1489.1 776.88 1489.1 777.068 1489.1 777.256C1489.1 777.444 1489.1 777.444 1488.92 777.632C1487.98 777.82 1486.66 778.385 1485.35 778.573ZM1482.9 775.939C1482.72 775.939 1482.53 775.939 1482.53 776.127C1482.53 776.127 1482.34 776.315 1482.34 776.503C1482.34 777.068 1482.53 777.444 1482.9 777.632C1483.84 778.197 1485.53 778.009 1487.98 777.068C1486.1 776.503 1483.84 775.939 1482.9 775.939Z" fill="#407BFF"/>
<path d="M1488.91 777.446C1488.73 777.634 1488.73 777.634 1488.91 777.446C1487.22 776.881 1483.84 774.244 1484.03 772.737C1484.03 772.361 1484.22 771.984 1484.97 771.796C1485.53 771.607 1485.91 771.796 1486.47 771.984C1488.35 773.114 1489.29 777.069 1489.29 777.258C1489.1 777.258 1489.1 777.446 1488.91 777.446ZM1485.16 772.361C1485.16 772.361 1484.97 772.361 1485.16 772.361C1484.59 772.549 1484.59 772.737 1484.59 772.737C1484.59 773.679 1486.66 775.751 1488.35 776.504C1487.98 775.374 1487.22 773.114 1486.1 772.361C1485.72 772.361 1485.34 772.361 1485.16 772.361Z" fill="#407BFF"/>
<path d="M1475.95 406.399C1475.95 406.399 1465.81 536.171 1463.93 579.303C1461.86 624.13 1486.85 758.423 1486.85 758.423H1509.4C1509.4 758.423 1502.07 633.925 1505.83 589.851C1509.96 542.01 1525.56 406.211 1525.56 406.211H1475.95V406.399Z" fill="#6F7B88"/>
<path opacity="0.2" d="M1498.68 508.484C1500.56 530.144 1506.2 550.863 1508.83 560.092C1512.21 526.001 1517.29 480.232 1521.04 447.459C1512.4 453.298 1495.11 469.684 1498.68 508.484Z" fill="black"/>
<path d="M1502.07 406.399C1502.07 406.399 1507.89 535.795 1516.72 576.29C1526.31 620.74 1555.06 746.369 1555.06 746.369L1580.42 741.095C1580.42 741.095 1563.32 622.059 1557.87 577.985C1551.86 530.333 1550.92 406.399 1550.92 406.399H1502.07Z" fill="#6F7B88"/>
<path d="M1582.11 741.283L1554.87 746.934L1550.36 737.139L1580.24 729.982L1582.11 741.283Z" fill="#0F264C"/>
<path d="M1513.72 759.177H1485.91L1483.47 748.629L1514.09 749.194L1513.72 759.177Z" fill="#0F264C"/>
<path d="M1503.76 246.868C1503.95 247.998 1503.57 248.94 1502.82 249.128C1502.07 249.316 1501.32 248.563 1501.13 247.433C1500.94 246.303 1501.32 245.361 1502.07 245.173C1502.63 244.984 1503.38 245.738 1503.76 246.868Z" fill="#263238"/>
<path d="M1490.98 249.505C1491.17 250.635 1490.79 251.576 1490.04 251.765C1489.29 251.953 1488.54 251.2 1488.35 250.07C1488.16 248.94 1488.54 247.998 1489.29 247.809C1490.04 247.621 1490.79 248.375 1490.98 249.505Z" fill="#263238"/>
<path d="M1494.36 249.316C1494.36 249.316 1493.24 256.285 1490.98 260.052C1493.42 261.559 1496.43 259.864 1496.43 259.864L1494.36 249.316Z" fill="#F0B89A"/>
<path d="M1499.25 264.384C1499.06 264.384 1498.87 264.384 1498.87 264.196C1498.87 264.007 1498.87 263.819 1499.06 263.819C1503.95 263.066 1505.64 259.11 1505.64 259.11C1505.64 258.922 1505.83 258.922 1506.01 258.922C1506.2 258.922 1506.2 259.11 1506.2 259.299C1506.39 259.299 1504.51 263.442 1499.25 264.384Z" fill="#263238"/>
<path d="M1509.58 236.883C1509.39 236.883 1509.21 236.883 1509.02 236.695C1506.58 235.001 1504.32 235.754 1504.32 235.754C1503.95 235.942 1503.57 235.754 1503.38 235.377C1503.19 235.001 1503.38 234.625 1503.76 234.436C1503.95 234.436 1506.76 233.307 1509.77 235.566C1510.15 235.754 1510.15 236.13 1509.96 236.506C1509.77 236.883 1509.77 236.883 1509.58 236.883Z" fill="#263238"/>
<path d="M1483.46 241.029C1483.28 241.029 1483.28 241.029 1483.09 240.841C1482.71 240.652 1482.71 240.276 1482.9 239.899C1484.97 236.697 1487.97 236.697 1488.16 236.697C1488.54 236.697 1488.91 237.074 1488.91 237.45C1488.91 237.827 1488.54 238.204 1488.16 238.204C1487.97 238.204 1485.72 238.204 1484.03 240.841C1484.03 241.029 1483.65 241.217 1483.46 241.029Z" fill="#263238"/>
<path d="M1544.72 291.883L1541.15 291.506C1540.77 291.506 1540.4 291.695 1540.4 292.071C1530.44 345.563 1536.08 402.255 1536.08 402.255H1540.02C1536.83 343.491 1544.35 298.852 1545.47 292.637C1545.47 292.26 1545.1 291.883 1544.72 291.883Z" fill="#6F7B88"/>
<path d="M1540.59 402.255C1540.59 401.502 1540.02 400.937 1539.27 400.937H1536.64C1535.89 400.937 1535.32 401.502 1535.32 402.255C1535.32 402.821 1535.7 403.386 1536.26 403.386V406.776C1536.26 407.718 1537.02 408.471 1537.95 408.471C1538.89 408.471 1539.65 407.718 1539.65 406.776V403.386C1540.21 403.386 1540.59 403.009 1540.59 402.255Z" fill="white"/>
<path d="M1484.97 292.637L1481.4 293.39C1481.02 293.39 1480.84 293.767 1480.84 293.955C1473.32 347.446 1481.59 402.444 1481.59 402.444H1485.53C1479.71 344.244 1484.78 300.359 1485.72 293.578C1485.72 293.013 1485.35 292.637 1484.97 292.637Z" fill="#6F7B88"/>
<path d="M1486.1 402.255C1486.1 401.502 1485.53 400.937 1484.78 400.937H1481.96C1481.21 400.937 1480.65 401.502 1480.84 402.255C1480.84 402.82 1481.21 403.386 1481.77 403.386L1481.96 406.776C1481.96 407.718 1482.71 408.471 1483.65 408.471C1484.59 408.471 1485.34 407.718 1485.16 406.776L1484.97 403.386C1485.72 403.386 1486.1 403.009 1486.1 402.255Z" fill="white"/>
<path d="M1562.01 765.389C1561.07 765.766 1559.94 765.954 1559.19 765.766C1558.62 765.577 1558.06 765.013 1557.87 764.448C1557.68 763.884 1557.87 763.507 1558.06 763.319C1559.19 762.002 1564.45 762.943 1565.01 763.131C1565.2 763.131 1565.2 763.319 1565.2 763.319C1565.2 763.507 1565.2 763.507 1565.01 763.696C1564.45 764.072 1563.32 764.825 1562.01 765.389ZM1559 763.319C1558.81 763.319 1558.62 763.507 1558.62 763.507C1558.62 763.507 1558.44 763.696 1558.62 763.884C1558.81 764.448 1559 764.637 1559.56 764.825C1560.5 765.201 1562.19 764.637 1564.26 763.319C1562.38 763.131 1560.13 762.943 1559 763.319Z" fill="#407BFF"/>
<path d="M1565.2 763.509C1563.32 763.32 1559.57 761.437 1559.38 759.742C1559.38 759.365 1559.38 758.988 1560.13 758.611C1560.51 758.423 1561.07 758.423 1561.63 758.423C1563.7 759.177 1565.39 762.755 1565.58 762.944C1565.58 763.132 1565.39 763.32 1565.2 763.509C1565.39 763.509 1565.39 763.509 1565.2 763.509ZM1560.51 759.176C1559.94 759.365 1559.94 759.553 1559.94 759.742C1560.13 760.683 1562.57 762.19 1564.45 762.755C1563.89 761.625 1562.57 759.553 1561.26 759.176C1561.07 759.176 1560.88 759.176 1560.51 759.176Z" fill="#407BFF"/>
<path d="M1505.64 256.285C1501.13 257.227 1496.62 253.46 1495.49 247.998C1494.36 243.101 1496.8 239.71 1501.88 238.58C1507.14 237.45 1510.52 239.522 1511.65 244.608C1512.78 250.07 1510.15 255.343 1505.64 256.285ZM1502.07 239.145C1498.68 239.899 1494.93 241.971 1496.05 247.809C1497.18 253.083 1501.5 256.662 1505.45 255.72C1509.39 254.778 1512.02 249.881 1510.9 244.608C1509.77 238.769 1505.45 238.392 1502.07 239.145Z" fill="#263238"/>
<path d="M1487.41 260.052C1483.65 260.806 1479.71 257.039 1478.58 251.388C1477.26 244.796 1481.21 242.912 1483.84 242.347C1486.28 241.782 1490.79 241.971 1492.3 248.563C1493.24 254.213 1491.17 259.299 1487.41 260.052ZM1483.84 242.912C1481.02 243.477 1477.83 245.361 1479.14 251.388C1480.27 256.662 1483.84 260.24 1487.41 259.487C1490.79 258.734 1492.67 253.837 1491.54 248.751C1490.23 242.912 1486.66 242.347 1483.84 242.912Z" fill="#263238"/>
<path d="M1495.68 244.418C1493.61 243.854 1491.92 244.23 1490.61 245.359C1490.42 245.548 1490.23 245.548 1490.23 245.359C1490.04 245.171 1490.04 244.983 1490.23 244.983C1491.73 243.666 1493.61 243.289 1495.68 243.854C1495.87 243.854 1495.87 244.042 1495.87 244.23C1495.87 244.23 1495.87 244.418 1495.68 244.418Z" fill="#263238"/>
<path d="M1509.4 298.287L1512.03 296.215L1518.04 301.866L1509.4 298.287Z" fill="#263238"/>
<path d="M1512.03 296.215C1512.03 296.215 1516.91 302.996 1517.85 307.893C1523.68 305.444 1534.57 299.417 1536.08 290.941C1533.82 290.565 1530.06 288.116 1530.06 288.116C1530.06 288.116 1524.24 293.202 1512.03 296.215Z" fill="#6F7B88"/>
<path d="M1509.4 298.287L1508.27 295.838L1500.57 301.866L1509.4 298.287Z" fill="#263238"/>
<path d="M1508.27 295.838C1508.27 295.838 1503.38 300.17 1502.63 306.763C1496.81 304.314 1494.55 296.403 1496.05 291.318C1499.25 289.811 1503.01 289.058 1503.01 289.058C1503.01 289.058 1502.25 294.143 1508.27 295.838Z" fill="#6F7B88"/>
<path d="M1499.06 414.686L1508.83 425.046L1518.6 420.337L1510.34 404.892L1499.06 414.686Z" fill="#F5C9B2"/>
<path d="M1527.06 405.646L1510.34 404.892L1518.6 420.525C1518.6 420.525 1530.44 419.96 1531.57 410.919L1527.06 405.646Z" fill="#F0B89A"/>
<path d="M1569.71 313.92C1572.15 324.091 1574.41 334.45 1576.29 344.621C1577.23 349.706 1578.17 354.98 1579.11 360.254C1580.05 365.527 1580.8 370.613 1581.36 376.075C1581.36 376.452 1581.55 377.958 1581.55 379.089C1581.55 380.219 1581.55 381.537 1581.36 382.667C1580.99 385.116 1580.23 387.188 1579.29 389.259C1577.42 393.215 1574.97 395.852 1572.34 398.3C1567.27 402.821 1562.01 405.646 1556.93 408.094C1546.41 412.803 1536.08 415.44 1525.18 417.135L1522.36 406.399C1526.87 404.516 1531.57 402.444 1536.08 400.184C1540.59 397.923 1544.91 395.663 1548.86 393.026C1552.8 390.578 1556.56 387.564 1559 384.927C1560.13 383.609 1561.07 382.102 1561.26 381.349C1561.44 380.972 1561.44 380.595 1561.44 380.407C1561.44 380.219 1561.44 380.219 1561.44 380.03C1561.44 379.842 1561.44 380.03 1561.26 379.277C1559.19 369.483 1556.75 359.312 1554.49 349.329C1552.24 339.159 1549.98 328.988 1547.73 319.005L1569.71 313.92Z" fill="#F5C9B2"/>
<path d="M1556 294.52C1574.79 297.91 1583.05 344.997 1583.05 344.997L1552.8 363.456C1552.8 363.456 1543.22 335.58 1543.78 318.252C1544.16 301.489 1541.72 291.883 1556 294.52Z" fill="#F6AC3B"/>
<path d="M1428.6 430.131H1235.07V795.339H1428.6V430.131Z" fill="#407BFF"/>
<path d="M1464.49 425.611H1252.92V430.131H1464.49V425.611Z" fill="#407BFF"/>
<path opacity="0.3" d="M1464.49 425.611H1252.92V430.131H1464.49V425.611Z" fill="black"/>
<path d="M1428.47 795.174H1482.21V429.966H1428.47V795.174Z" fill="#407BFF"/>
<path opacity="0.2" d="M1428.47 795.174H1482.21V429.966H1428.47V795.174Z" fill="black"/>
<path opacity="0.1" d="M1413.01 461.962H1402.11C1401.17 461.962 1400.42 461.209 1400.42 460.267V449.343C1400.42 448.401 1401.17 447.648 1402.11 447.648H1413.01C1413.95 447.648 1414.7 448.401 1414.7 449.343V460.267C1414.7 461.209 1413.95 461.962 1413.01 461.962Z" fill="black"/>
<path opacity="0.3" d="M1383.32 461.962H1372.42C1371.48 461.962 1370.73 461.209 1370.73 460.267V449.343C1370.73 448.401 1371.48 447.648 1372.42 447.648H1383.32C1384.26 447.648 1385.01 448.401 1385.01 449.343V460.267C1385.2 461.209 1384.45 461.962 1383.32 461.962Z" fill="black"/>
<path opacity="0.3" d="M1353.82 461.962H1342.92C1341.98 461.962 1341.23 461.209 1341.23 460.267V449.343C1341.23 448.401 1341.98 447.648 1342.92 447.648H1353.82C1354.76 447.648 1355.51 448.401 1355.51 449.343V460.267C1355.7 461.209 1354.76 461.962 1353.82 461.962Z" fill="black"/>
<path opacity="0.1" d="M1324.32 461.962H1313.42C1312.48 461.962 1311.73 461.209 1311.73 460.267V449.343C1311.73 448.401 1312.48 447.648 1313.42 447.648H1324.32C1325.26 447.648 1326.01 448.401 1326.01 449.343V460.267C1326.01 461.209 1325.26 461.962 1324.32 461.962Z" fill="black"/>
<path opacity="0.3" d="M1294.82 461.962H1283.92C1282.98 461.962 1282.23 461.209 1282.23 460.267V449.343C1282.23 448.401 1282.98 447.648 1283.92 447.648H1294.82C1295.76 447.648 1296.51 448.401 1296.51 449.343V460.267C1296.51 461.209 1295.76 461.962 1294.82 461.962Z" fill="black"/>
<path opacity="0.3" d="M1265.32 461.962H1254.42C1253.48 461.962 1252.73 461.209 1252.73 460.267V449.343C1252.73 448.401 1253.48 447.648 1254.42 447.648H1265.32C1266.26 447.648 1267.01 448.401 1267.01 449.343V460.267C1267.01 461.209 1266.26 461.962 1265.32 461.962Z" fill="black"/>
<g opacity="0.1">
<path opacity="0.1" d="M1422.22 470.25H1241.46V527.508H1422.22V470.25Z" fill="black"/>
</g>
<path d="M1412.07 519.22H1407C1405.68 519.22 1404.55 518.09 1404.55 516.772V480.797C1404.55 479.479 1405.68 478.349 1407 478.349H1412.07C1413.39 478.349 1414.51 479.479 1414.51 480.797V516.772C1414.51 518.09 1413.39 519.22 1412.07 519.22Z" fill="#407BFF"/>
<path opacity="0.1" d="M1391.4 519.22H1386.33C1385.01 519.22 1383.88 518.09 1383.88 516.772V480.797C1383.88 479.479 1385.01 478.349 1386.33 478.349H1391.4C1392.72 478.349 1393.84 479.479 1393.84 480.797V516.772C1393.84 518.09 1392.72 519.22 1391.4 519.22Z" fill="black"/>
<path d="M1370.73 519.22H1365.66C1364.34 519.22 1363.21 518.09 1363.21 516.772V480.797C1363.21 479.479 1364.34 478.349 1365.66 478.349H1370.73C1372.05 478.349 1373.17 479.479 1373.17 480.797V516.772C1373.17 518.09 1372.23 519.22 1370.73 519.22Z" fill="#407BFF"/>
<path d="M1350.25 519.22H1345.18C1343.86 519.22 1342.74 518.09 1342.74 516.772V480.797C1342.74 479.479 1343.86 478.349 1345.18 478.349H1350.25C1351.57 478.349 1352.7 479.479 1352.7 480.797V516.772C1352.7 518.09 1351.57 519.22 1350.25 519.22Z" fill="#407BFF"/>
<path opacity="0.3" d="M1293.13 489.649C1293.13 486.071 1296.14 483.057 1299.71 483.057C1303.28 483.057 1306.28 486.071 1306.28 489.649C1306.28 493.228 1303.28 496.242 1299.71 496.242C1296.14 496.242 1293.13 493.228 1293.13 489.649Z" fill="white"/>
<path opacity="0.1" d="M1325.07 507.919C1325.07 511.498 1322.07 514.512 1318.5 514.512C1314.93 514.512 1311.92 511.498 1311.92 507.919C1311.92 504.341 1314.93 501.327 1318.5 501.327C1322.25 501.327 1325.07 504.341 1325.07 507.919Z" fill="black"/>
<path opacity="0.1" d="M1311.92 489.649C1311.92 486.071 1314.93 483.057 1318.5 483.057C1322.07 483.057 1325.07 486.071 1325.07 489.649C1325.07 493.228 1322.07 496.242 1318.5 496.242C1314.93 496.242 1311.92 493.228 1311.92 489.649Z" fill="black"/>
<path opacity="0.1" d="M1306.28 507.919C1306.28 511.498 1303.28 514.512 1299.71 514.512C1296.14 514.512 1293.13 511.498 1293.13 507.919C1293.13 504.341 1296.14 501.327 1299.71 501.327C1303.28 501.327 1306.28 504.341 1306.28 507.919Z" fill="black"/>
<path opacity="0.3" d="M1277.03 508.809C1282.61 503.219 1282.61 494.156 1277.03 488.566C1271.45 482.975 1262.41 482.975 1256.84 488.566C1251.26 494.156 1251.26 503.219 1256.84 508.809C1262.41 514.399 1271.45 514.399 1277.03 508.809Z" fill="white"/>
<g opacity="0.1">
<path opacity="0.1" d="M1422.22 535.23H1241.46V592.488H1422.22V535.23Z" fill="black"/>
</g>
<path d="M1412.07 584.2H1407C1405.68 584.2 1404.55 583.07 1404.55 581.752V545.777C1404.55 544.459 1405.68 543.329 1407 543.329H1412.07C1413.39 543.329 1414.51 544.459 1414.51 545.777V581.752C1414.51 583.07 1413.39 584.2 1412.07 584.2Z" fill="#407BFF"/>
<path opacity="0.1" d="M1391.4 584.2H1386.33C1385.01 584.2 1383.88 583.07 1383.88 581.752V545.777C1383.88 544.459 1385.01 543.329 1386.33 543.329H1391.4C1392.72 543.329 1393.84 544.459 1393.84 545.777V581.752C1393.84 583.07 1392.72 584.2 1391.4 584.2Z" fill="black"/>
<path d="M1370.73 584.2H1365.66C1364.34 584.2 1363.21 583.07 1363.21 581.752V545.777C1363.21 544.459 1364.34 543.329 1365.66 543.329H1370.73C1372.05 543.329 1373.17 544.459 1373.17 545.777V581.752C1373.17 583.07 1372.23 584.2 1370.73 584.2Z" fill="#407BFF"/>
<path d="M1350.25 584.2H1345.18C1343.86 584.2 1342.74 583.07 1342.74 581.752V545.777C1342.74 544.459 1343.86 543.329 1345.18 543.329H1350.25C1351.57 543.329 1352.7 544.459 1352.7 545.777V581.752C1352.7 583.07 1351.57 584.2 1350.25 584.2Z" fill="#407BFF"/>
<path opacity="0.3" d="M1293.13 554.63C1293.13 551.051 1296.14 548.038 1299.71 548.038C1303.28 548.038 1306.28 551.051 1306.28 554.63C1306.28 558.208 1303.28 561.222 1299.71 561.222C1296.14 561.222 1293.13 558.397 1293.13 554.63Z" fill="white"/>
<path opacity="0.3" d="M1318.5 579.492C1322.13 579.492 1325.07 576.54 1325.07 572.9C1325.07 569.259 1322.13 566.307 1318.5 566.307C1314.86 566.307 1311.92 569.259 1311.92 572.9C1311.92 576.54 1314.86 579.492 1318.5 579.492Z" fill="white"/>
<path opacity="0.1" d="M1311.92 554.63C1311.92 551.051 1314.93 548.038 1318.5 548.038C1322.07 548.038 1325.07 551.051 1325.07 554.63C1325.07 558.208 1322.07 561.222 1318.5 561.222C1314.93 561.222 1311.92 558.397 1311.92 554.63Z" fill="black"/>
<path opacity="0.1" d="M1299.71 579.492C1303.34 579.492 1306.28 576.54 1306.28 572.9C1306.28 569.259 1303.34 566.307 1299.71 566.307C1296.07 566.307 1293.13 569.259 1293.13 572.9C1293.13 576.54 1296.07 579.492 1299.71 579.492Z" fill="black"/>
<path opacity="0.3" d="M1267.01 578.173C1274.9 578.173 1281.29 571.764 1281.29 563.859C1281.29 555.953 1274.9 549.544 1267.01 549.544C1259.12 549.544 1252.73 555.953 1252.73 563.859C1252.73 571.764 1259.12 578.173 1267.01 578.173Z" fill="white"/>
<g opacity="0.1">
<path opacity="0.1" d="M1422.22 600.21H1241.46V657.468H1422.22V600.21Z" fill="black"/>
</g>
<path d="M1412.07 649.181H1407C1405.68 649.181 1404.55 648.051 1404.55 646.732V610.758C1404.55 609.439 1405.68 608.309 1407 608.309H1412.07C1413.39 608.309 1414.51 609.439 1414.51 610.758V646.732C1414.51 648.051 1413.39 649.181 1412.07 649.181Z" fill="#407BFF"/>
<path opacity="0.1" d="M1391.4 649.181H1386.33C1385.01 649.181 1383.88 648.051 1383.88 646.732V610.758C1383.88 609.439 1385.01 608.309 1386.33 608.309H1391.4C1392.72 608.309 1393.84 609.439 1393.84 610.758V646.732C1393.84 648.051 1392.72 649.181 1391.4 649.181Z" fill="black"/>
<path d="M1370.73 649.181H1365.66C1364.34 649.181 1363.21 648.051 1363.21 646.732V610.758C1363.21 609.439 1364.34 608.309 1365.66 608.309H1370.73C1372.05 608.309 1373.17 609.439 1373.17 610.758V646.732C1373.17 648.051 1372.23 649.181 1370.73 649.181Z" fill="#407BFF"/>
<path d="M1350.25 649.181H1345.18C1343.86 649.181 1342.74 648.051 1342.74 646.732V610.758C1342.74 609.439 1343.86 608.309 1345.18 608.309H1350.25C1351.57 608.309 1352.7 609.439 1352.7 610.758V646.732C1352.7 648.051 1351.57 649.181 1350.25 649.181Z" fill="#407BFF"/>
<path opacity="0.3" d="M1293.13 619.61C1293.13 616.031 1296.14 613.018 1299.71 613.018C1303.28 613.018 1306.28 616.031 1306.28 619.61C1306.28 623.189 1303.28 626.202 1299.71 626.202C1296.14 626.202 1293.13 623.377 1293.13 619.61Z" fill="white"/>
<path opacity="0.3" d="M1318.5 644.472C1322.13 644.472 1325.07 641.521 1325.07 637.88C1325.07 634.239 1322.13 631.288 1318.5 631.288C1314.86 631.288 1311.92 634.239 1311.92 637.88C1311.92 641.521 1314.86 644.472 1318.5 644.472Z" fill="white"/>
<path opacity="0.1" d="M1311.92 619.61C1311.92 616.031 1314.93 613.018 1318.5 613.018C1322.07 613.018 1325.07 616.031 1325.07 619.61C1325.07 623.189 1322.07 626.202 1318.5 626.202C1314.93 626.202 1311.92 623.377 1311.92 619.61Z" fill="black"/>
<path opacity="0.1" d="M1299.71 644.472C1303.34 644.472 1306.28 641.521 1306.28 637.88C1306.28 634.239 1303.34 631.288 1299.71 631.288C1296.07 631.288 1293.13 634.239 1293.13 637.88C1293.13 641.521 1296.07 644.472 1299.71 644.472Z" fill="black"/>
<path opacity="0.1" d="M1267.01 643.154C1274.9 643.154 1281.29 636.745 1281.29 628.839C1281.29 620.933 1274.9 614.525 1267.01 614.525C1259.12 614.525 1252.73 620.933 1252.73 628.839C1252.73 636.745 1259.12 643.154 1267.01 643.154Z" fill="black"/>
<g opacity="0.1">
<path opacity="0.1" d="M1422.22 665.19H1241.46V722.448H1422.22V665.19Z" fill="black"/>
</g>
<path d="M1412.07 714.161H1407C1405.68 714.161 1404.55 713.031 1404.55 711.713V675.738C1404.55 674.42 1405.68 673.289 1407 673.289H1412.07C1413.39 673.289 1414.51 674.42 1414.51 675.738V711.713C1414.51 713.031 1413.39 714.161 1412.07 714.161Z" fill="#407BFF"/>
<path opacity="0.1" d="M1391.4 714.161H1386.33C1385.01 714.161 1383.88 713.031 1383.88 711.713V675.738C1383.88 674.42 1385.01 673.289 1386.33 673.289H1391.4C1392.72 673.289 1393.84 674.42 1393.84 675.738V711.713C1393.84 713.031 1392.72 714.161 1391.4 714.161Z" fill="black"/>
<path d="M1370.73 714.161H1365.66C1364.34 714.161 1363.21 713.031 1363.21 711.713V675.738C1363.21 674.42 1364.34 673.289 1365.66 673.289H1370.73C1372.05 673.289 1373.17 674.42 1373.17 675.738V711.713C1373.17 713.031 1372.23 714.161 1370.73 714.161Z" fill="#407BFF"/>
<path d="M1350.25 714.161H1345.18C1343.86 714.161 1342.74 713.031 1342.74 711.713V675.738C1342.74 674.42 1343.86 673.289 1345.18 673.289H1350.25C1351.57 673.289 1352.7 674.42 1352.7 675.738V711.713C1352.7 713.031 1351.57 714.161 1350.25 714.161Z" fill="#407BFF"/>
<path opacity="0.3" d="M1299.71 691.182C1303.34 691.182 1306.28 688.231 1306.28 684.59C1306.28 680.95 1303.34 677.998 1299.71 677.998C1296.07 677.998 1293.13 680.95 1293.13 684.59C1293.13 688.231 1296.07 691.182 1299.71 691.182Z" fill="white"/>
<path opacity="0.3" d="M1318.5 709.452C1322.13 709.452 1325.07 706.501 1325.07 702.86C1325.07 699.219 1322.13 696.268 1318.5 696.268C1314.86 696.268 1311.92 699.219 1311.92 702.86C1311.92 706.501 1314.86 709.452 1318.5 709.452Z" fill="white"/>
<path opacity="0.3" d="M1318.5 691.182C1322.13 691.182 1325.07 688.231 1325.07 684.59C1325.07 680.95 1322.13 677.998 1318.5 677.998C1314.86 677.998 1311.92 680.95 1311.92 684.59C1311.92 688.231 1314.86 691.182 1318.5 691.182Z" fill="white"/>
<path opacity="0.1" d="M1299.71 709.452C1303.34 709.452 1306.28 706.501 1306.28 702.86C1306.28 699.219 1303.34 696.268 1299.71 696.268C1296.07 696.268 1293.13 699.219 1293.13 702.86C1293.13 706.501 1296.07 709.452 1299.71 709.452Z" fill="black"/>
<path opacity="0.3" d="M1267.01 708.134C1274.9 708.134 1281.29 701.725 1281.29 693.819C1281.29 685.914 1274.9 679.505 1267.01 679.505C1259.12 679.505 1252.73 685.914 1252.73 693.819C1252.73 701.725 1259.12 708.134 1267.01 708.134Z" fill="white"/>
<g opacity="0.1">
<path opacity="0.1" d="M1422.22 730.171H1241.46V787.429H1422.22V730.171Z" fill="black"/>
</g>
<path d="M1412.07 779.142H1407C1405.68 779.142 1404.55 778.011 1404.55 776.693V740.718C1404.55 739.4 1405.68 738.27 1407 738.27H1412.07C1413.39 738.27 1414.51 739.4 1414.51 740.718V776.693C1414.51 778.2 1413.39 779.142 1412.07 779.142Z" fill="#407BFF"/>
<path opacity="0.1" d="M1391.4 779.142H1386.33C1385.01 779.142 1383.88 778.011 1383.88 776.693V740.718C1383.88 739.4 1385.01 738.27 1386.33 738.27H1391.4C1392.72 738.27 1393.84 739.4 1393.84 740.718V776.693C1393.84 778.2 1392.72 779.142 1391.4 779.142Z" fill="black"/>
<path d="M1370.73 779.142H1365.66C1364.34 779.142 1363.21 778.011 1363.21 776.693V740.718C1363.21 739.4 1364.34 738.27 1365.66 738.27H1370.73C1372.05 738.27 1373.17 739.4 1373.17 740.718V776.693C1373.17 778.2 1372.23 779.142 1370.73 779.142Z" fill="#407BFF"/>
<path d="M1350.25 779.142H1345.18C1343.86 779.142 1342.74 778.011 1342.74 776.693V740.718C1342.74 739.4 1343.86 738.27 1345.18 738.27H1350.25C1351.57 738.27 1352.7 739.4 1352.7 740.718V776.693C1352.7 778.2 1351.57 779.142 1350.25 779.142Z" fill="#407BFF"/>
<path opacity="0.3" d="M1299.71 756.351C1303.34 756.351 1306.28 753.4 1306.28 749.759C1306.28 746.118 1303.34 743.167 1299.71 743.167C1296.07 743.167 1293.13 746.118 1293.13 749.759C1293.13 753.4 1296.07 756.351 1299.71 756.351Z" fill="white"/>
<path opacity="0.3" d="M1318.5 774.433C1322.13 774.433 1325.07 771.481 1325.07 767.841C1325.07 764.2 1322.13 761.248 1318.5 761.248C1314.86 761.248 1311.92 764.2 1311.92 767.841C1311.92 771.481 1314.86 774.433 1318.5 774.433Z" fill="white"/>
<path opacity="0.3" d="M1318.5 756.351C1322.13 756.351 1325.07 753.4 1325.07 749.759C1325.07 746.118 1322.13 743.167 1318.5 743.167C1314.86 743.167 1311.92 746.118 1311.92 749.759C1311.92 753.4 1314.86 756.351 1318.5 756.351Z" fill="white"/>
<path opacity="0.1" d="M1299.71 774.433C1303.34 774.433 1306.28 771.481 1306.28 767.841C1306.28 764.2 1303.34 761.248 1299.71 761.248C1296.07 761.248 1293.13 764.2 1293.13 767.841C1293.13 771.481 1296.07 774.433 1299.71 774.433Z" fill="black"/>
<path opacity="0.3" d="M1267.01 773.114C1274.9 773.114 1281.29 766.706 1281.29 758.8C1281.29 750.894 1274.9 744.485 1267.01 744.485C1259.12 744.485 1252.73 750.894 1252.73 758.8C1252.73 766.706 1259.12 773.114 1267.01 773.114Z" fill="white"/>
<path d="M1240.52 341.042H1380.12L1399.67 421.279H1260.06L1240.52 341.042Z" fill="#407BFF"/>
<path d="M1299.51 421.279L1300.08 425.611H1449.27L1448.71 421.279H1299.51Z" fill="#407BFF"/>
<path d="M1375.8 341.042L1395.53 421.279L1396.1 425.611H1260.62L1260.06 421.279L1240.52 341.042H1375.8Z" fill="#407BFF"/>
<path d="M1375.8 341.042L1395.53 421.279L1396.1 425.611H1260.62L1260.06 421.279L1240.52 341.042H1375.8Z" fill="#0F264C"/>
<path d="M1319.62 293.578L1318.68 293.202C1317.55 292.637 1291.25 278.51 1287.49 260.052C1283.92 242.159 1284.67 224.831 1284.67 224.078V222.383L1286.36 222.194C1286.55 222.194 1306.28 220.687 1318.87 216.544L1319.43 216.355L1319.99 216.544C1332.77 220.687 1352.31 222.194 1352.5 222.194L1354.19 222.383V224.078C1354.19 224.831 1355.13 242.159 1351.37 260.052C1347.62 278.51 1321.31 292.637 1320.18 293.202L1319.62 293.578ZM1288.43 225.961C1288.24 230.67 1288.24 244.984 1291.25 259.299C1294.25 274.178 1315.11 286.798 1319.62 289.435C1324.13 286.798 1344.99 274.367 1347.99 259.299C1350.81 244.984 1350.81 230.67 1350.81 225.961C1345.74 225.584 1330.7 223.889 1319.62 220.499C1308.53 223.889 1293.5 225.396 1288.43 225.961Z" fill="#F6AC3B"/>
<path d="M1319.62 283.219C1311.73 278.322 1298.57 268.34 1296.51 258.357C1294.44 247.81 1293.88 237.262 1293.88 230.858C1300.45 230.105 1310.97 228.598 1319.62 226.149C1328.26 228.598 1338.78 230.105 1345.36 230.858C1345.36 237.262 1344.8 247.81 1342.73 258.357C1340.66 268.34 1327.51 278.322 1319.62 283.219Z" fill="#F6AC3B"/>
<path opacity="0.3" d="M1186.21 795.151H1182.45V355.168C1182.45 332.567 1200.68 314.297 1223.23 314.297H1307.03C1312.85 314.297 1317.74 309.4 1317.74 303.561H1321.5C1321.5 311.471 1315.11 318.064 1307.03 318.064H1223.23C1202.75 318.064 1186.21 334.638 1186.21 355.168V795.151Z" fill="#407BFF"/>
</svg>
