<svg width="1366" height="666" viewBox="0 0 1366 666" fill="none" xmlns="http://www.w3.org/2000/svg">
<g clip-path="url(#clip0)">
<path d="M1311.01 540.857H568.828V541.226H1311.01V540.857Z" fill="#D1E3FF"/>
<path d="M775.303 554.882H703.163V555.251H775.303V554.882Z" fill="#D1E3FF"/>
<path d="M687.132 555.005H668.132V555.374H687.132V555.005Z" fill="#D1E3FF"/>
<path d="M880.1 552.914H857.835V553.283H880.1V552.914Z" fill="#D1E3FF"/>
<path d="M979.404 552.914H888.561V553.283H979.404V552.914Z" fill="#D1E3FF"/>
<path d="M1193.3 555.251H1108.99V555.62H1193.3V555.251Z" fill="#D1E3FF"/>
<path d="M1100.68 555.251H1078.41V555.62H1100.68V555.251Z" fill="#D1E3FF"/>
<path d="M1234.71 549.715H1215.57V550.084H1234.71V549.715Z" fill="#D1E3FF"/>
<path d="M920.79 485.884H634.192C629.591 485.884 625.732 482.888 625.732 479.316V166.568C625.732 162.996 629.591 160 634.192 160H920.79C925.391 160 929.25 162.996 929.25 166.568V479.316C929.25 482.888 925.539 485.884 920.79 485.884ZM634.192 160.23C629.74 160.23 626.029 162.996 626.029 166.568V479.316C626.029 482.773 629.591 485.654 634.192 485.654H920.79C925.242 485.654 928.953 482.888 928.953 479.316V166.568C928.953 163.111 925.391 160.23 920.79 160.23H634.192Z" fill="#D1E3FF"/>
<path d="M1241.69 485.884H955.095C950.494 485.884 946.635 482.888 946.635 479.316V166.568C946.635 162.996 950.494 160 955.095 160H1241.69C1246.29 160 1250.15 162.996 1250.15 166.568V479.316C1250.15 482.888 1246.44 485.884 1241.69 485.884ZM955.095 160.23C950.642 160.23 946.932 162.996 946.932 166.568V479.316C946.932 482.773 950.494 485.654 955.095 485.654H1241.69C1246.14 485.654 1249.86 482.888 1249.86 479.316V166.568C1249.86 163.111 1246.29 160.23 1241.69 160.23H955.095Z" fill="#D1E3FF"/>
<path d="M1311.01 522.649H1208.74C1206.51 522.649 1204.58 521.05 1204.58 519.205V296.282C1204.58 294.683 1203.1 293.453 1201.17 293.453H1190.33V292.838H1201.17C1203.4 292.838 1205.33 294.437 1205.33 296.282V519.205C1205.33 520.804 1206.81 522.034 1208.74 522.034H1311.01V522.649Z" fill="#60DBF3"/>
<path d="M1311.01 518.098H1212.15C1209.93 518.098 1208 516.498 1208 514.653V291.854C1208 290.254 1206.51 289.024 1204.58 289.024H1190.33V288.409H1204.58C1206.81 288.409 1208.74 290.008 1208.74 291.854V514.776C1208.74 516.375 1210.22 517.605 1212.15 517.605H1311.01V518.098Z" fill="#60DBF3"/>
<path d="M1311.01 513.669H1215.72C1213.49 513.669 1211.56 512.069 1211.56 510.224V287.302C1211.56 285.702 1210.08 284.472 1208.15 284.472H1190.48V283.857H1208.15C1210.37 283.857 1212.3 285.456 1212.3 287.302V510.224C1212.3 511.823 1213.79 513.053 1215.72 513.053H1311.01V513.669Z" fill="#60DBF3"/>
<path d="M1311.01 509.117H1219.13C1216.9 509.117 1214.97 507.517 1214.97 505.672V282.75C1214.97 281.15 1213.49 279.92 1211.56 279.92H1190.33V279.305H1211.56C1213.79 279.305 1215.72 280.904 1215.72 282.75V505.672C1215.72 507.271 1217.2 508.501 1219.13 508.501H1311.01V509.117Z" fill="#60DBF3"/>
<path d="M1311.01 504.688H1222.69C1220.47 504.688 1218.54 503.088 1218.54 501.243V278.321C1218.54 276.721 1217.05 275.491 1215.12 275.491H1190.48V274.876H1215.12C1217.35 274.876 1219.28 276.475 1219.28 278.321V501.243C1219.28 502.842 1220.76 504.073 1222.69 504.073H1311.01V504.688Z" fill="#60DBF3"/>
<path d="M1311.01 500.136H1226.11C1223.88 500.136 1221.95 498.536 1221.95 496.691V273.769C1221.95 272.169 1220.47 270.939 1218.54 270.939H1190.33V270.324H1218.54C1220.76 270.324 1222.69 271.923 1222.69 273.769V496.691C1222.69 498.29 1224.18 499.521 1226.11 499.521H1311.01V500.136Z" fill="#60DBF3"/>
<path d="M1311.01 495.584H1229.52C1227.29 495.584 1225.36 493.984 1225.36 492.139V269.34C1225.36 267.74 1223.88 266.51 1221.95 266.51H1190.33V265.895H1221.95C1224.18 265.895 1226.11 267.494 1226.11 269.34V492.262C1226.11 493.861 1227.59 495.092 1229.52 495.092H1311.01V495.584Z" fill="#60DBF3"/>
<path d="M982.67 315.228H890.937V315.844H982.67V315.228Z" fill="#60DBF3"/>
<path d="M982.67 310.799H890.937V311.415H982.67V310.799Z" fill="#60DBF3"/>
<path d="M982.67 306.247H890.937V306.863H982.67V306.247Z" fill="#60DBF3"/>
<path d="M982.67 301.696H890.937V302.311H982.67V301.696Z" fill="#60DBF3"/>
<path d="M982.67 297.267H890.937V297.882H982.67V297.267Z" fill="#60DBF3"/>
<path d="M982.67 292.715H890.937V293.33H982.67V292.715Z" fill="#60DBF3"/>
<path d="M982.67 288.286H890.937V288.901H982.67V288.286Z" fill="#60DBF3"/>
<path d="M982.67 467.78H890.937V468.395H982.67V467.78Z" fill="#60DBF3"/>
<path d="M982.67 463.228H890.937V463.843H982.67V463.228Z" fill="#60DBF3"/>
<path d="M982.67 458.799H890.937V459.414H982.67V458.799Z" fill="#60DBF3"/>
<path d="M982.67 454.247H890.937V454.862H982.67V454.247Z" fill="#60DBF3"/>
<path d="M982.67 449.695H890.937V450.31H982.67V449.695Z" fill="#60DBF3"/>
<path d="M982.67 445.266H890.937V445.881H982.67V445.266Z" fill="#60DBF3"/>
<path d="M982.67 440.714H890.937V441.33H982.67V440.714Z" fill="#60DBF3"/>
<path d="M711.179 500.751H675.554C673.328 500.751 671.398 499.152 671.398 497.306V274.384C671.398 272.785 669.914 271.554 667.984 271.554H625.977V270.939H668.133C670.359 270.939 672.289 272.539 672.289 274.384V497.306C672.289 498.906 673.773 500.136 675.703 500.136H711.328V500.751H711.179Z" fill="#60DBF3"/>
<path d="M711.179 505.18H672.14C669.914 505.18 667.984 503.58 667.984 501.735V278.936C667.984 277.337 666.5 276.106 664.57 276.106H625.977V275.491H664.57C666.797 275.491 668.726 277.09 668.726 278.936V501.858C668.726 503.457 670.211 504.688 672.14 504.688H711.179V505.18Z" fill="#60DBF3"/>
<path d="M711.179 509.732H668.726C666.5 509.732 664.57 508.132 664.57 506.287V283.365C664.57 281.765 663.086 280.535 661.156 280.535H625.977V279.92H661.156C663.383 279.92 665.312 281.519 665.312 283.365V506.287C665.312 507.886 666.797 509.117 668.726 509.117H711.328V509.732H711.179Z" fill="#60DBF3"/>
<path d="M711.179 514.161H665.164C662.937 514.161 661.008 512.561 661.008 510.716V287.917C661.008 286.317 659.523 285.087 657.594 285.087H625.977V284.472H657.594C659.82 284.472 661.75 286.071 661.75 287.917V510.839C661.75 512.438 663.234 513.669 665.164 513.669H711.179V514.161Z" fill="#60DBF3"/>
<path d="M711.179 518.712H661.75C659.523 518.712 657.594 517.113 657.594 515.268V292.346C657.594 290.746 656.109 289.516 654.18 289.516H625.977V288.901H654.18C656.406 288.901 658.336 290.5 658.336 292.346V515.268C658.336 516.867 659.82 518.097 661.75 518.097H711.328V518.712H711.179Z" fill="#60DBF3"/>
<path d="M711.179 523.265H658.187C655.961 523.265 654.031 521.665 654.031 519.82V296.898C654.031 295.298 652.547 294.068 650.617 294.068H625.977V293.453H650.765C652.992 293.453 654.922 295.052 654.922 296.898V519.82C654.922 521.419 656.406 522.649 658.336 522.649H711.328V523.265H711.179Z" fill="#60DBF3"/>
<path d="M711.179 527.694H654.773C652.547 527.694 650.617 526.094 650.617 524.249V301.326C650.617 299.727 649.133 298.497 647.203 298.497H625.977V297.882H647.203C649.43 297.882 651.359 299.481 651.359 301.326V524.249C651.359 525.848 652.844 527.078 654.773 527.078H711.179V527.694Z" fill="#60DBF3"/>
<path d="M861.841 522.28H711.178V540.857H861.841V522.28Z" fill="#5CDBF5"/>
<path d="M861.813 540.91H892.391V522.333H861.813V540.91Z" fill="#60DBF3"/>
<path d="M861.842 195.155H701.085V522.403H861.842V195.155Z" fill="#67AEC1"/>
<path d="M889.153 192.326H714.592V195.155H889.153V192.326Z" fill="#5CDBF5"/>
<path d="M861.908 522.306H902.58V195.058H861.908V522.306Z" fill="#5CDBF5"/>
<path d="M857.092 199.092H705.835V234.893H857.092V199.092Z" fill="#5CDBF5"/>
<path d="M857.092 482.42H705.835V518.22H857.092V482.42Z" fill="#5CDBF5"/>
<path d="M857.092 441.945H705.835V477.745H857.092V441.945Z" fill="#5CDBF5"/>
<path d="M857.092 401.469H705.835V437.27H857.092V401.469Z" fill="#5CDBF5"/>
<path d="M857.092 360.994H705.835V396.794H857.092V360.994Z" fill="#5CDBF5"/>
<path d="M857.092 320.518H705.835V356.319H857.092V320.518Z" fill="#5CDBF5"/>
<path d="M857.092 280.043H705.835V315.843H857.092V280.043Z" fill="#5CDBF5"/>
<path d="M857.092 239.568H705.835V275.368H857.092V239.568Z" fill="#5CDBF5"/>
<path opacity="0.7" d="M844.772 229.726H815.233C811.819 229.726 808.851 227.388 808.851 224.435V209.426C808.851 206.597 811.671 204.136 815.233 204.136H844.772C848.186 204.136 851.155 206.474 851.155 209.426V224.558C851.155 227.388 848.335 229.726 844.772 229.726Z" fill="#5CDBF5"/>
<path d="M838.389 218.653V215.209C838.389 214.347 839.279 213.609 840.318 213.609H844.475C845.514 213.609 846.404 214.347 846.404 215.209V218.653C846.404 219.514 845.514 220.253 844.475 220.253H840.318C839.131 220.253 838.389 219.514 838.389 218.653Z" fill="#67AEC1"/>
<path opacity="0.7" d="M844.772 270.201H815.233C811.819 270.201 808.851 267.864 808.851 264.911V249.779C808.851 246.949 811.671 244.489 815.233 244.489H844.772C848.186 244.489 851.155 246.826 851.155 249.779V264.911C851.155 267.864 848.335 270.201 844.772 270.201Z" fill="#5CDBF5"/>
<path d="M838.389 259.129V255.684C838.389 254.823 839.279 254.085 840.318 254.085H844.475C845.514 254.085 846.404 254.823 846.404 255.684V259.129C846.404 259.99 845.514 260.728 844.475 260.728H840.318C839.131 260.728 838.389 259.99 838.389 259.129Z" fill="#67AEC1"/>
<path opacity="0.7" d="M844.772 310.676H815.233C811.819 310.676 808.851 308.339 808.851 305.386V290.254C808.851 287.425 811.671 284.964 815.233 284.964H844.772C848.186 284.964 851.155 287.302 851.155 290.254V305.386C851.155 308.339 848.335 310.676 844.772 310.676Z" fill="#5CDBF5"/>
<path d="M838.389 299.604V296.159C838.389 295.298 839.279 294.56 840.318 294.56H844.475C845.514 294.56 846.404 295.298 846.404 296.159V299.604C846.404 300.465 845.514 301.203 844.475 301.203H840.318C839.131 301.203 838.389 300.465 838.389 299.604Z" fill="#67AEC1"/>
<path opacity="0.7" d="M844.772 351.152H815.233C811.819 351.152 808.851 348.814 808.851 345.862V330.73C808.851 327.9 811.671 325.439 815.233 325.439H844.772C848.186 325.439 851.155 327.777 851.155 330.73V345.985C851.155 348.814 848.335 351.152 844.772 351.152Z" fill="#5EDBF4"/>
<path d="M838.389 340.079V336.635C838.389 335.774 839.279 335.035 840.318 335.035H844.475C845.514 335.035 846.404 335.774 846.404 336.635V340.079C846.404 340.941 845.514 341.679 844.475 341.679H840.318C839.131 341.679 838.389 340.941 838.389 340.079Z" fill="#67AEC1"/>
<path opacity="0.7" d="M844.772 391.627H815.233C811.819 391.627 808.851 389.29 808.851 386.337V371.205C808.851 368.375 811.671 365.915 815.233 365.915H844.772C848.186 365.915 851.155 368.252 851.155 371.205V386.337C851.155 389.29 848.335 391.627 844.772 391.627Z" fill="#5CDBF5"/>
<path d="M838.389 380.555V377.11C838.389 376.249 839.279 375.511 840.318 375.511H844.475C845.514 375.511 846.404 376.249 846.404 377.11V380.555C846.404 381.416 845.514 382.154 844.475 382.154H840.318C839.131 382.154 838.389 381.416 838.389 380.555Z" fill="#67AEC1"/>
<path opacity="0.7" d="M844.772 432.103H815.233C811.819 432.103 808.851 429.765 808.851 426.813V411.68C808.851 408.851 811.671 406.39 815.233 406.39H844.772C848.186 406.39 851.155 408.728 851.155 411.68V426.813C851.155 429.765 848.335 432.103 844.772 432.103Z" fill="#5CDBF5"/>
<path d="M838.389 421.03V417.586C838.389 416.724 839.279 415.986 840.318 415.986H844.475C845.514 415.986 846.404 416.724 846.404 417.586V421.03C846.404 421.891 845.514 422.63 844.475 422.63H840.318C839.131 422.63 838.389 421.891 838.389 421.03Z" fill="#67AEC1"/>
<path opacity="0.7" d="M844.772 472.578H815.233C811.819 472.578 808.851 470.241 808.851 467.288V452.156C808.851 449.326 811.671 446.866 815.233 446.866H844.772C848.186 446.866 851.155 449.203 851.155 452.156V467.288C851.155 470.241 848.335 472.578 844.772 472.578Z" fill="white"/>
<path d="M838.389 461.506V458.061C838.389 457.2 839.279 456.462 840.318 456.462H844.475C845.514 456.462 846.404 457.2 846.404 458.061V461.506C846.404 462.367 845.514 463.105 844.475 463.105H840.318C839.131 463.105 838.389 462.367 838.389 461.506Z" fill="#67AEC1"/>
<path opacity="0.7" d="M844.772 513.053H815.233C811.819 513.053 808.851 510.716 808.851 507.763V492.631C808.851 489.802 811.671 487.341 815.233 487.341H844.772C848.186 487.341 851.155 489.679 851.155 492.631V507.763C851.155 510.716 848.335 513.053 844.772 513.053Z" fill="white"/>
<path d="M838.389 501.981V498.536C838.389 497.675 839.279 496.937 840.318 496.937H844.475C845.514 496.937 846.404 497.675 846.404 498.536V501.981C846.404 502.842 845.514 503.58 844.475 503.58H840.318C839.131 503.58 838.389 502.842 838.389 501.981Z" fill="#67AEC1"/>
<path d="M826.068 218.653V215.209C826.068 214.347 826.959 213.609 827.998 213.609H832.154C833.193 213.609 834.084 214.347 834.084 215.209V218.653C834.084 219.514 833.193 220.253 832.154 220.253H827.998C826.959 220.253 826.068 219.514 826.068 218.653Z" fill="#67AEC1"/>
<path d="M826.068 259.129V255.684C826.068 254.823 826.959 254.085 827.998 254.085H832.154C833.193 254.085 834.084 254.823 834.084 255.684V259.129C834.084 259.99 833.193 260.728 832.154 260.728H827.998C826.959 260.728 826.068 259.99 826.068 259.129Z" fill="#67AEC1"/>
<path d="M826.068 299.604V296.159C826.068 295.298 826.959 294.56 827.998 294.56H832.154C833.193 294.56 834.084 295.298 834.084 296.159V299.604C834.084 300.465 833.193 301.203 832.154 301.203H827.998C826.959 301.203 826.068 300.465 826.068 299.604Z" fill="#67AEC1"/>
<path d="M826.068 340.079V336.635C826.068 335.774 826.959 335.035 827.998 335.035H832.154C833.193 335.035 834.084 335.774 834.084 336.635V340.079C834.084 340.941 833.193 341.679 832.154 341.679H827.998C826.959 341.679 826.068 340.941 826.068 340.079Z" fill="#67AEC1"/>
<path d="M826.068 380.555V377.11C826.068 376.249 826.959 375.511 827.998 375.511H832.154C833.193 375.511 834.084 376.249 834.084 377.11V380.555C834.084 381.416 833.193 382.154 832.154 382.154H827.998C826.959 382.154 826.068 381.416 826.068 380.555Z" fill="#67AEC1"/>
<path d="M826.068 421.03V417.586C826.068 416.724 826.959 415.986 827.998 415.986H832.154C833.193 415.986 834.084 416.724 834.084 417.586V421.03C834.084 421.891 833.193 422.63 832.154 422.63H827.998C826.959 422.63 826.068 421.891 826.068 421.03Z" fill="#67AEC1"/>
<path d="M826.068 461.506V458.061C826.068 457.2 826.959 456.462 827.998 456.462H832.154C833.193 456.462 834.084 457.2 834.084 458.061V461.506C834.084 462.367 833.193 463.105 832.154 463.105H827.998C826.959 463.105 826.068 462.367 826.068 461.506Z" fill="#67AEC1"/>
<path d="M826.068 501.981V498.536C826.068 497.675 826.959 496.937 827.998 496.937H832.154C833.193 496.937 834.084 497.675 834.084 498.536V501.981C834.084 502.842 833.193 503.58 832.154 503.58H827.998C826.959 503.58 826.068 502.842 826.068 501.981Z" fill="#67AEC1"/>
<path d="M793.857 221.114C796.645 221.114 798.904 219.241 798.904 216.931C798.904 214.621 796.645 212.748 793.857 212.748C791.07 212.748 788.811 214.621 788.811 216.931C788.811 219.241 791.07 221.114 793.857 221.114Z" fill="#67AEC1"/>
<path d="M784.654 216.931C784.654 219.268 782.428 221.114 779.607 221.114C776.787 221.114 774.561 219.268 774.561 216.931C774.561 214.593 776.787 212.748 779.607 212.748C782.428 212.871 784.654 214.716 784.654 216.931Z" fill="#67AEC1"/>
<path d="M770.256 216.931C770.256 219.268 768.029 221.114 765.209 221.114C762.389 221.114 760.162 219.268 760.162 216.931C760.162 214.593 762.389 212.748 765.209 212.748C768.029 212.871 770.256 214.716 770.256 216.931Z" fill="#67AEC1"/>
<path d="M751.107 221.114C753.895 221.114 756.154 219.241 756.154 216.931C756.154 214.621 753.895 212.748 751.107 212.748C748.32 212.748 746.061 214.621 746.061 216.931C746.061 219.241 748.32 221.114 751.107 221.114Z" fill="#67AEC1"/>
<path d="M793.857 261.589C796.645 261.589 798.904 259.716 798.904 257.406C798.904 255.096 796.645 253.223 793.857 253.223C791.07 253.223 788.811 255.096 788.811 257.406C788.811 259.716 791.07 261.589 793.857 261.589Z" fill="#67AEC1"/>
<path d="M784.654 257.406C784.654 259.744 782.428 261.589 779.607 261.589C776.787 261.589 774.561 259.744 774.561 257.406C774.561 255.069 776.787 253.223 779.607 253.223C782.428 253.346 784.654 255.192 784.654 257.406Z" fill="#67AEC1"/>
<path d="M770.256 257.406C770.256 259.744 768.029 261.589 765.209 261.589C762.389 261.589 760.162 259.744 760.162 257.406C760.162 255.069 762.389 253.223 765.209 253.223C768.029 253.346 770.256 255.192 770.256 257.406Z" fill="#67AEC1"/>
<path d="M751.107 261.589C753.895 261.589 756.154 259.716 756.154 257.406C756.154 255.096 753.895 253.223 751.107 253.223C748.32 253.223 746.061 255.096 746.061 257.406C746.061 259.716 748.32 261.589 751.107 261.589Z" fill="#67AEC1"/>
<path d="M798.905 297.882C798.905 300.219 796.679 302.065 793.858 302.065C791.038 302.065 788.812 300.219 788.812 297.882C788.812 295.544 791.038 293.699 793.858 293.699C796.679 293.699 798.905 295.667 798.905 297.882Z" fill="#67AEC1"/>
<path d="M784.655 297.882C784.655 300.219 782.429 302.065 779.608 302.065C776.788 302.065 774.562 300.219 774.562 297.882C774.562 295.544 776.788 293.699 779.608 293.699C782.429 293.822 784.655 295.667 784.655 297.882Z" fill="#67AEC1"/>
<path d="M770.257 297.882C770.257 300.219 768.03 302.065 765.21 302.065C762.39 302.065 760.163 300.219 760.163 297.882C760.163 295.544 762.39 293.699 765.21 293.699C768.03 293.822 770.257 295.667 770.257 297.882Z" fill="#67AEC1"/>
<path d="M756.007 297.882C756.007 300.219 753.78 302.065 750.96 302.065C748.14 302.065 745.913 300.219 745.913 297.882C745.913 295.544 748.14 293.699 750.96 293.699C753.78 293.699 756.007 295.667 756.007 297.882Z" fill="#67AEC1"/>
<path d="M798.905 338.357C798.905 340.695 796.679 342.54 793.858 342.54C791.038 342.54 788.812 340.695 788.812 338.357C788.812 336.02 791.038 334.174 793.858 334.174C796.679 334.174 798.905 336.143 798.905 338.357Z" fill="#67AEC1"/>
<path d="M784.655 338.357C784.655 340.695 782.429 342.54 779.608 342.54C776.788 342.54 774.562 340.695 774.562 338.357C774.562 336.02 776.788 334.174 779.608 334.174C782.429 334.297 784.655 336.143 784.655 338.357Z" fill="#67AEC1"/>
<path d="M770.257 338.357C770.257 340.695 768.03 342.54 765.21 342.54C762.39 342.54 760.163 340.695 760.163 338.357C760.163 336.02 762.39 334.174 765.21 334.174C768.03 334.297 770.257 336.143 770.257 338.357Z" fill="#67AEC1"/>
<path d="M756.007 338.357C756.007 340.695 753.78 342.54 750.96 342.54C748.14 342.54 745.913 340.695 745.913 338.357C745.913 336.02 748.14 334.174 750.96 334.174C753.78 334.174 756.007 336.143 756.007 338.357Z" fill="#67AEC1"/>
<path d="M798.905 378.833C798.905 381.17 796.679 383.015 793.858 383.015C791.038 383.015 788.812 381.17 788.812 378.833C788.812 376.495 791.038 374.65 793.858 374.65C796.679 374.65 798.905 376.618 798.905 378.833Z" fill="#67AEC1"/>
<path d="M784.655 378.833C784.655 381.17 782.429 383.015 779.608 383.015C776.788 383.015 774.562 381.17 774.562 378.833C774.562 376.495 776.788 374.65 779.608 374.65C782.429 374.773 784.655 376.618 784.655 378.833Z" fill="#67AEC1"/>
<path d="M770.257 378.833C770.257 381.17 768.03 383.015 765.21 383.015C762.39 383.015 760.163 381.17 760.163 378.833C760.163 376.495 762.39 374.65 765.21 374.65C768.03 374.773 770.257 376.618 770.257 378.833Z" fill="#67AEC1"/>
<path d="M756.007 378.833C756.007 381.17 753.78 383.015 750.96 383.015C748.14 383.015 745.913 381.17 745.913 378.833C745.913 376.495 748.14 374.65 750.96 374.65C753.78 374.65 756.007 376.618 756.007 378.833Z" fill="#67AEC1"/>
<path d="M798.905 419.308C798.905 421.645 796.679 423.491 793.858 423.491C791.038 423.491 788.812 421.645 788.812 419.308C788.812 416.97 791.038 415.125 793.858 415.125C796.679 415.125 798.905 417.093 798.905 419.308Z" fill="#67AEC1"/>
<path d="M784.655 419.308C784.655 421.645 782.429 423.491 779.608 423.491C776.788 423.491 774.562 421.645 774.562 419.308C774.562 416.97 776.788 415.125 779.608 415.125C782.429 415.248 784.655 417.093 784.655 419.308Z" fill="#67AEC1"/>
<path d="M770.257 419.308C770.257 421.645 768.03 423.491 765.21 423.491C762.39 423.491 760.163 421.645 760.163 419.308C760.163 416.97 762.39 415.125 765.21 415.125C768.03 415.248 770.257 417.093 770.257 419.308Z" fill="#67AEC1"/>
<path d="M756.007 419.308C756.007 421.645 753.78 423.491 750.96 423.491C748.14 423.491 745.913 421.645 745.913 419.308C745.913 416.97 748.14 415.125 750.96 415.125C753.78 415.125 756.007 417.093 756.007 419.308Z" fill="#67AEC1"/>
<path d="M793.857 463.966C796.645 463.966 798.904 462.093 798.904 459.783C798.904 457.473 796.645 455.6 793.857 455.6C791.07 455.6 788.811 457.473 788.811 459.783C788.811 462.093 791.07 463.966 793.857 463.966Z" fill="#67AEC1"/>
<path d="M784.654 459.783C784.654 462.121 782.428 463.966 779.607 463.966C776.787 463.966 774.561 462.121 774.561 459.783C774.561 457.446 776.787 455.6 779.607 455.6C782.428 455.723 784.654 457.569 784.654 459.783Z" fill="#67AEC1"/>
<path d="M770.256 459.783C770.256 462.121 768.029 463.966 765.209 463.966C762.389 463.966 760.162 462.121 760.162 459.783C760.162 457.446 762.389 455.6 765.209 455.6C768.029 455.723 770.256 457.569 770.256 459.783Z" fill="#67AEC1"/>
<path d="M751.107 463.966C753.895 463.966 756.154 462.093 756.154 459.783C756.154 457.473 753.895 455.6 751.107 455.6C748.32 455.6 746.061 457.473 746.061 459.783C746.061 462.093 748.32 463.966 751.107 463.966Z" fill="#67AEC1"/>
<path d="M793.857 504.442C796.645 504.442 798.904 502.569 798.904 500.259C798.904 497.949 796.645 496.076 793.857 496.076C791.07 496.076 788.811 497.949 788.811 500.259C788.811 502.569 791.07 504.442 793.857 504.442Z" fill="#67AEC1"/>
<path d="M784.654 500.259C784.654 502.596 782.428 504.442 779.607 504.442C776.787 504.442 774.561 502.596 774.561 500.259C774.561 497.921 776.787 496.076 779.607 496.076C782.428 496.199 784.654 498.044 784.654 500.259Z" fill="#67AEC1"/>
<path d="M770.256 500.259C770.256 502.596 768.029 504.442 765.209 504.442C762.389 504.442 760.162 502.596 760.162 500.259C760.162 497.921 762.389 496.076 765.209 496.076C768.029 496.199 770.256 498.044 770.256 500.259Z" fill="#67AEC1"/>
<path d="M751.107 504.442C753.895 504.442 756.154 502.569 756.154 500.259C756.154 497.949 753.895 496.076 751.107 496.076C748.32 496.076 746.061 497.949 746.061 500.259C746.061 502.569 748.32 504.442 751.107 504.442Z" fill="#67AEC1"/>
<path d="M725.28 225.912C731.265 225.912 736.116 221.891 736.116 216.931C736.116 211.971 731.265 207.95 725.28 207.95C719.296 207.95 714.444 211.971 714.444 216.931C714.444 221.891 719.296 225.912 725.28 225.912Z" fill="#60DBF3"/>
<path d="M725.28 266.387C731.265 266.387 736.116 262.366 736.116 257.406C736.116 252.446 731.265 248.425 725.28 248.425C719.296 248.425 714.444 252.446 714.444 257.406C714.444 262.366 719.296 266.387 725.28 266.387Z" fill="#60DBF3"/>
<path d="M735.938 299.374C736.895 294.478 732.881 289.867 726.974 289.074C721.066 288.282 715.502 291.608 714.546 296.504C713.59 301.4 717.603 306.012 723.511 306.804C729.418 307.597 734.982 304.27 735.938 299.374Z" fill="#60DBF3"/>
<path d="M735.938 339.847C736.895 334.951 732.881 330.34 726.974 329.547C721.066 328.755 715.502 332.081 714.546 336.977C713.59 341.873 717.603 346.485 723.511 347.277C729.418 348.07 734.982 344.743 735.938 339.847Z" fill="#60DBF3"/>
<path d="M729.402 387.153C734.935 385.263 737.572 380.014 735.292 375.428C733.012 370.841 726.678 368.656 721.145 370.546C715.612 372.435 712.974 377.685 715.254 382.271C717.535 386.857 723.869 389.043 729.402 387.153Z" fill="#60DBF3"/>
<path d="M729.404 427.629C734.937 425.739 737.574 420.49 735.294 415.904C733.014 411.318 726.68 409.132 721.147 411.022C715.614 412.911 712.976 418.161 715.256 422.747C717.537 427.333 723.87 429.519 729.404 427.629Z" fill="#60DBF3"/>
<path d="M725.28 468.764C731.265 468.764 736.116 464.743 736.116 459.783C736.116 454.823 731.265 450.802 725.28 450.802C719.296 450.802 714.444 454.823 714.444 459.783C714.444 464.743 719.296 468.764 725.28 468.764Z" fill="#60DBF3"/>
<path d="M725.28 509.24C731.265 509.24 736.116 505.219 736.116 500.259C736.116 495.299 731.265 491.278 725.28 491.278C719.296 491.278 714.444 495.299 714.444 500.259C714.444 505.219 719.296 509.24 725.28 509.24Z" fill="#60DBF3"/>
<path d="M1151.74 523.88H977.623V540.857H1151.74V523.88Z" fill="#5CDBF5"/>
<path d="M1151.72 540.844H1180.66V523.867H1151.72V540.844Z" fill="#60DBF3"/>
<path d="M1151.59 223.697H967.826V523.757H1151.59V223.697Z" fill="#67AEC1"/>
<path d="M1177.57 221.237H980.74V223.82H1177.57V221.237Z" fill="#5CDBF5"/>
<path d="M1151.6 523.928H1190.34V223.868H1151.6V523.928Z" fill="#5CDBF5"/>
<path d="M972.461 260.2H1147.17V227.352H972.461V260.2Z" fill="#5CDBF5"/>
<path d="M972.461 520.076H1147.17V487.228H972.461V520.076Z" fill="#5CDBF5"/>
<path d="M972.461 482.986H1147.17V450.138H972.461V482.986Z" fill="#5CDBF5"/>
<path d="M972.461 445.896H1147.17V413.048H972.461V445.896Z" fill="#5CDBF5"/>
<path d="M972.461 408.683H1147.17V375.835H972.461V408.683Z" fill="#5CDBF5"/>
<path d="M972.461 371.593H1147.17V338.745H972.461V371.593Z" fill="#5CDBF5"/>
<path d="M972.461 334.503H1147.17V301.655H972.461V334.503Z" fill="#5CDBF5"/>
<path d="M972.461 297.412H1147.17V264.565H972.461V297.412Z" fill="#5CDBF5"/>
<path d="M984.006 255.561H1068.17C1071.44 255.561 1074.11 253.346 1074.11 250.64V236.861C1074.11 234.155 1071.44 231.94 1068.17 231.94H984.006C980.74 231.94 978.068 234.155 978.068 236.861V250.64C978.068 253.346 980.74 255.561 984.006 255.561Z" fill="#60DBF3"/>
<path d="M990.24 245.35V242.274C990.24 241.413 989.498 240.798 988.459 240.798H984.451C983.412 240.798 982.67 241.413 982.67 242.274V245.35C982.67 246.211 983.412 246.826 984.451 246.826H988.459C989.498 246.826 990.24 246.088 990.24 245.35Z" fill="#67AEC1"/>
<path d="M984.006 292.715H1068.17C1071.44 292.715 1074.11 290.5 1074.11 287.794V274.015C1074.11 271.308 1071.44 269.094 1068.17 269.094H984.006C980.74 269.094 978.068 271.308 978.068 274.015V287.794C978.068 290.5 980.74 292.715 984.006 292.715Z" fill="#60DBF3"/>
<path d="M990.24 282.503V279.428C990.24 278.567 989.498 277.952 988.459 277.952H984.451C983.412 277.952 982.67 278.567 982.67 279.428V282.503C982.67 283.365 983.412 283.98 984.451 283.98H988.459C989.498 283.857 990.24 283.242 990.24 282.503Z" fill="#67AEC1"/>
<path d="M984.006 329.745H1068.17C1071.44 329.745 1074.11 327.531 1074.11 324.824V311.045C1074.11 308.339 1071.44 306.124 1068.17 306.124H984.006C980.74 306.124 978.068 308.339 978.068 311.045V324.824C978.068 327.531 980.74 329.745 984.006 329.745Z" fill="#60DBF3"/>
<path d="M990.24 319.534V316.459C990.24 315.597 989.498 314.982 988.459 314.982H984.451C983.412 314.982 982.67 315.597 982.67 316.459V319.534C982.67 320.395 983.412 321.011 984.451 321.011H988.459C989.498 321.011 990.24 320.395 990.24 319.534Z" fill="#67AEC1"/>
<path d="M984.006 366.899H1068.17C1071.44 366.899 1074.11 364.685 1074.11 361.978V348.199C1074.11 345.493 1071.44 343.278 1068.17 343.278H984.006C980.74 343.278 978.068 345.493 978.068 348.199V361.978C978.068 364.685 980.74 366.899 984.006 366.899Z" fill="#60DBF3"/>
<path d="M990.24 356.688V353.612C990.24 352.751 989.498 352.136 988.459 352.136H984.451C983.412 352.136 982.67 352.751 982.67 353.612V356.688C982.67 357.549 983.412 358.164 984.451 358.164H988.459C989.498 358.164 990.24 357.549 990.24 356.688Z" fill="#67AEC1"/>
<path d="M984.006 404.053H1068.17C1071.44 404.053 1074.11 401.838 1074.11 399.132V385.353C1074.11 382.646 1071.44 380.432 1068.17 380.432H984.006C980.74 380.432 978.068 382.646 978.068 385.353V399.132C978.068 401.838 980.74 404.053 984.006 404.053Z" fill="#60DBF3"/>
<path d="M990.24 393.842V390.766C990.24 389.905 989.498 389.29 988.459 389.29H984.451C983.412 389.29 982.67 389.905 982.67 390.766V393.842C982.67 394.703 983.412 395.318 984.451 395.318H988.459C989.498 395.318 990.24 394.58 990.24 393.842Z" fill="#67AEC1"/>
<path d="M984.006 441.206H1068.17C1071.44 441.206 1074.11 438.992 1074.11 436.285V422.507C1074.11 419.8 1071.44 417.586 1068.17 417.586H984.006C980.74 417.586 978.068 419.8 978.068 422.507V436.285C978.068 438.992 980.74 441.206 984.006 441.206Z" fill="#60DBF3"/>
<path d="M990.24 430.995V427.92C990.24 427.059 989.498 426.443 988.459 426.443H984.451C983.412 426.443 982.67 427.059 982.67 427.92V430.995C982.67 431.856 983.412 432.472 984.451 432.472H988.459C989.498 432.349 990.24 431.733 990.24 430.995Z" fill="#67AEC1"/>
<path d="M984.006 478.237H1068.17C1071.44 478.237 1074.11 476.023 1074.11 473.316V459.537C1074.11 456.831 1071.44 454.616 1068.17 454.616H984.006C980.74 454.616 978.068 456.831 978.068 459.537V473.316C978.068 476.023 980.74 478.237 984.006 478.237Z" fill="#60DBF3"/>
<path d="M990.24 468.026V464.95C990.24 464.089 989.498 463.474 988.459 463.474H984.451C983.412 463.474 982.67 464.089 982.67 464.95V468.026C982.67 468.887 983.412 469.502 984.451 469.502H988.459C989.498 469.502 990.24 468.887 990.24 468.026Z" fill="#67AEC1"/>
<path d="M984.006 515.391H1068.17C1071.44 515.391 1074.11 513.176 1074.11 510.47V496.691C1074.11 493.984 1071.44 491.77 1068.17 491.77H984.006C980.74 491.77 978.068 493.984 978.068 496.691V510.47C978.068 513.176 980.74 515.391 984.006 515.391Z" fill="#60DBF3"/>
<path d="M990.24 505.18V502.104C990.24 501.243 989.498 500.628 988.459 500.628H984.451C983.412 500.628 982.67 501.243 982.67 502.104V505.18C982.67 506.041 983.412 506.656 984.451 506.656H988.459C989.498 506.656 990.24 506.041 990.24 505.18Z" fill="#67AEC1"/>
<path d="M1001.82 245.35V242.274C1001.82 241.413 1001.08 240.798 1000.04 240.798H996.029C994.99 240.798 994.248 241.413 994.248 242.274V245.35C994.248 246.211 994.99 246.826 996.029 246.826H1000.04C1001.08 246.826 1001.82 246.088 1001.82 245.35Z" fill="#67AEC1"/>
<path d="M1001.82 282.503V279.428C1001.82 278.567 1001.08 277.952 1000.04 277.952H996.029C994.99 277.952 994.248 278.567 994.248 279.428V282.503C994.248 283.365 994.99 283.98 996.029 283.98H1000.04C1001.08 283.857 1001.82 283.242 1001.82 282.503Z" fill="#67AEC1"/>
<path d="M1001.82 319.534V316.459C1001.82 315.597 1001.08 314.982 1000.04 314.982H996.029C994.99 314.982 994.248 315.597 994.248 316.459V319.534C994.248 320.395 994.99 321.011 996.029 321.011H1000.04C1001.08 321.011 1001.82 320.395 1001.82 319.534Z" fill="#67AEC1"/>
<path d="M1001.82 356.688V353.612C1001.82 352.751 1001.08 352.136 1000.04 352.136H996.029C994.99 352.136 994.248 352.751 994.248 353.612V356.688C994.248 357.549 994.99 358.164 996.029 358.164H1000.04C1001.08 358.164 1001.82 357.549 1001.82 356.688Z" fill="#67AEC1"/>
<path d="M1001.82 393.842V390.766C1001.82 389.905 1001.08 389.29 1000.04 389.29H996.029C994.99 389.29 994.248 389.905 994.248 390.766V393.842C994.248 394.703 994.99 395.318 996.029 395.318H1000.04C1001.08 395.318 1001.82 394.58 1001.82 393.842Z" fill="#67AEC1"/>
<path d="M1001.82 430.995V427.92C1001.82 427.059 1001.08 426.443 1000.04 426.443H996.029C994.99 426.443 994.248 427.059 994.248 427.92V430.995C994.248 431.856 994.99 432.472 996.029 432.472H1000.04C1001.08 432.349 1001.82 431.733 1001.82 430.995Z" fill="#67AEC1"/>
<path d="M1001.82 468.026V464.95C1001.82 464.089 1001.08 463.474 1000.04 463.474H996.029C994.99 463.474 994.248 464.089 994.248 464.95V468.026C994.248 468.887 994.99 469.502 996.029 469.502H1000.04C1001.08 469.502 1001.82 468.887 1001.82 468.026Z" fill="#67AEC1"/>
<path d="M1001.82 505.18V502.104C1001.82 501.243 1001.08 500.628 1000.04 500.628H996.029C994.99 500.628 994.248 501.243 994.248 502.104V505.18C994.248 506.041 994.99 506.656 996.029 506.656H1000.04C1001.08 506.656 1001.82 506.041 1001.82 505.18Z" fill="#67AEC1"/>
<path d="M1013.4 245.35V242.274C1013.4 241.413 1012.65 240.798 1011.62 240.798H1007.61C1006.57 240.798 1005.83 241.413 1005.83 242.274V245.35C1005.83 246.211 1006.57 246.826 1007.61 246.826H1011.62C1012.51 246.826 1013.4 246.088 1013.4 245.35Z" fill="#67AEC1"/>
<path d="M1013.4 282.503V279.428C1013.4 278.567 1012.65 277.952 1011.62 277.952H1007.61C1006.57 277.952 1005.83 278.567 1005.83 279.428V282.503C1005.83 283.365 1006.57 283.98 1007.61 283.98H1011.62C1012.51 283.857 1013.4 283.242 1013.4 282.503Z" fill="#67AEC1"/>
<path d="M1013.4 319.534V316.459C1013.4 315.597 1012.65 314.982 1011.62 314.982H1007.61C1006.57 314.982 1005.83 315.597 1005.83 316.459V319.534C1005.83 320.395 1006.57 321.011 1007.61 321.011H1011.62C1012.51 321.011 1013.4 320.395 1013.4 319.534Z" fill="#67AEC1"/>
<path d="M1013.4 356.688V353.612C1013.4 352.751 1012.65 352.136 1011.62 352.136H1007.61C1006.57 352.136 1005.83 352.751 1005.83 353.612V356.688C1005.83 357.549 1006.57 358.164 1007.61 358.164H1011.62C1012.51 358.164 1013.4 357.549 1013.4 356.688Z" fill="#67AEC1"/>
<path d="M1013.4 393.842V390.766C1013.4 389.905 1012.65 389.29 1011.62 389.29H1007.61C1006.57 389.29 1005.83 389.905 1005.83 390.766V393.842C1005.83 394.703 1006.57 395.318 1007.61 395.318H1011.62C1012.51 395.318 1013.4 394.58 1013.4 393.842Z" fill="#67AEC1"/>
<path d="M1013.4 430.995V427.92C1013.4 427.059 1012.65 426.443 1011.62 426.443H1007.61C1006.57 426.443 1005.83 427.059 1005.83 427.92V430.995C1005.83 431.856 1006.57 432.472 1007.61 432.472H1011.62C1012.51 432.349 1013.4 431.733 1013.4 430.995Z" fill="#67AEC1"/>
<path d="M1013.4 468.026V464.95C1013.4 464.089 1012.65 463.474 1011.62 463.474H1007.61C1006.57 463.474 1005.83 464.089 1005.83 464.95V468.026C1005.83 468.887 1006.57 469.502 1007.61 469.502H1011.62C1012.51 469.502 1013.4 468.887 1013.4 468.026Z" fill="#67AEC1"/>
<path d="M1013.4 505.18V502.104C1013.4 501.243 1012.65 500.628 1011.62 500.628H1007.61C1006.57 500.628 1005.83 501.243 1005.83 502.104V505.18C1005.83 506.041 1006.57 506.656 1007.61 506.656H1011.62C1012.51 506.656 1013.4 506.041 1013.4 505.18Z" fill="#67AEC1"/>
<path d="M1024.97 245.35V242.274C1024.97 241.413 1024.23 240.798 1023.19 240.798H1019.19C1018.15 240.798 1017.4 241.413 1017.4 242.274V245.35C1017.4 246.211 1018.15 246.826 1019.19 246.826H1023.19C1024.08 246.826 1024.97 246.088 1024.97 245.35Z" fill="#67AEC1"/>
<path d="M1024.97 282.503V279.428C1024.97 278.567 1024.23 277.952 1023.19 277.952H1019.19C1018.15 277.952 1017.4 278.567 1017.4 279.428V282.503C1017.4 283.365 1018.15 283.98 1019.19 283.98H1023.19C1024.08 283.857 1024.97 283.242 1024.97 282.503Z" fill="#67AEC1"/>
<path d="M1024.97 319.534V316.459C1024.97 315.597 1024.23 314.982 1023.19 314.982H1019.19C1018.15 314.982 1017.4 315.597 1017.4 316.459V319.534C1017.4 320.395 1018.15 321.011 1019.19 321.011H1023.19C1024.08 321.011 1024.97 320.395 1024.97 319.534Z" fill="#67AEC1"/>
<path d="M1024.97 356.688V353.612C1024.97 352.751 1024.23 352.136 1023.19 352.136H1019.19C1018.15 352.136 1017.4 352.751 1017.4 353.612V356.688C1017.4 357.549 1018.15 358.164 1019.19 358.164H1023.19C1024.08 358.164 1024.97 357.549 1024.97 356.688Z" fill="#67AEC1"/>
<path d="M1024.97 393.842V390.766C1024.97 389.905 1024.23 389.29 1023.19 389.29H1019.19C1018.15 389.29 1017.4 389.905 1017.4 390.766V393.842C1017.4 394.703 1018.15 395.318 1019.19 395.318H1023.19C1024.08 395.318 1024.97 394.58 1024.97 393.842Z" fill="#67AEC1"/>
<path d="M1024.97 430.995V427.92C1024.97 427.059 1024.23 426.443 1023.19 426.443H1019.19C1018.15 426.443 1017.4 427.059 1017.4 427.92V430.995C1017.4 431.856 1018.15 432.472 1019.19 432.472H1023.19C1024.08 432.349 1024.97 431.733 1024.97 430.995Z" fill="#67AEC1"/>
<path d="M1024.97 468.026V464.95C1024.97 464.089 1024.23 463.474 1023.19 463.474H1019.19C1018.15 463.474 1017.4 464.089 1017.4 464.95V468.026C1017.4 468.887 1018.15 469.502 1019.19 469.502H1023.19C1024.08 469.502 1024.97 468.887 1024.97 468.026Z" fill="#67AEC1"/>
<path d="M1024.97 505.18V502.104C1024.97 501.243 1024.23 500.628 1023.19 500.628H1019.19C1018.15 500.628 1017.4 501.243 1017.4 502.104V505.18C1017.4 506.041 1018.15 506.656 1019.19 506.656H1023.19C1024.08 506.656 1024.97 506.041 1024.97 505.18Z" fill="#67AEC1"/>
<path d="M1083.61 243.75C1083.61 245.842 1085.68 247.564 1088.36 247.564C1091.03 247.564 1093.11 245.842 1093.11 243.75C1093.11 241.659 1091.03 239.937 1088.36 239.937C1085.68 240.06 1083.61 241.659 1083.61 243.75Z" fill="#67AEC1"/>
<path d="M1097.11 243.75C1097.11 245.842 1099.19 247.564 1101.86 247.564C1104.54 247.564 1106.61 245.842 1106.61 243.75C1106.61 241.659 1104.54 239.937 1101.86 239.937C1099.34 240.06 1097.11 241.659 1097.11 243.75Z" fill="#67AEC1"/>
<path d="M1110.77 243.75C1110.77 245.842 1112.85 247.564 1115.52 247.564C1118.19 247.564 1120.27 245.842 1120.27 243.75C1120.27 241.659 1118.19 239.937 1115.52 239.937C1112.85 240.06 1110.77 241.659 1110.77 243.75Z" fill="#67AEC1"/>
<path d="M1124.28 243.75C1124.28 245.842 1126.36 247.564 1129.03 247.564C1131.7 247.564 1133.78 245.842 1133.78 243.75C1133.78 241.659 1131.7 239.937 1129.03 239.937C1126.36 240.06 1124.28 241.659 1124.28 243.75Z" fill="#67AEC1"/>
<path d="M1083.61 280.904C1083.61 282.996 1085.68 284.718 1088.36 284.718C1091.03 284.718 1093.11 282.996 1093.11 280.904C1093.11 278.813 1091.03 277.09 1088.36 277.09C1085.68 277.09 1083.61 278.813 1083.61 280.904Z" fill="#67AEC1"/>
<path d="M1097.11 280.904C1097.11 282.996 1099.19 284.718 1101.86 284.718C1104.54 284.718 1106.61 282.996 1106.61 280.904C1106.61 278.813 1104.54 277.09 1101.86 277.09C1099.34 277.09 1097.11 278.813 1097.11 280.904Z" fill="#67AEC1"/>
<path d="M1110.77 280.904C1110.77 282.996 1112.85 284.718 1115.52 284.718C1118.19 284.718 1120.27 282.996 1120.27 280.904C1120.27 278.813 1118.19 277.09 1115.52 277.09C1112.85 277.09 1110.77 278.813 1110.77 280.904Z" fill="#67AEC1"/>
<path d="M1124.28 280.904C1124.28 282.996 1126.36 284.718 1129.03 284.718C1131.7 284.718 1133.78 282.996 1133.78 280.904C1133.78 278.813 1131.7 277.09 1129.03 277.09C1126.36 277.09 1124.28 278.813 1124.28 280.904Z" fill="#67AEC1"/>
<path d="M1083.61 318.058C1083.61 320.149 1085.68 321.872 1088.36 321.872C1091.03 321.872 1093.11 320.149 1093.11 318.058C1093.11 315.966 1091.03 314.244 1088.36 314.244C1085.68 314.244 1083.61 315.966 1083.61 318.058Z" fill="#67AEC1"/>
<path d="M1097.11 318.058C1097.11 320.149 1099.19 321.872 1101.86 321.872C1104.54 321.872 1106.61 320.149 1106.61 318.058C1106.61 315.966 1104.54 314.244 1101.86 314.244C1099.34 314.244 1097.11 315.966 1097.11 318.058Z" fill="#67AEC1"/>
<path d="M1110.77 318.058C1110.77 320.149 1112.85 321.872 1115.52 321.872C1118.19 321.872 1120.27 320.149 1120.27 318.058C1120.27 315.966 1118.19 314.244 1115.52 314.244C1112.85 314.244 1110.77 315.966 1110.77 318.058Z" fill="#67AEC1"/>
<path d="M1124.28 318.058C1124.28 320.149 1126.36 321.872 1129.03 321.872C1131.7 321.872 1133.78 320.149 1133.78 318.058C1133.78 315.966 1131.7 314.244 1129.03 314.244C1126.36 314.244 1124.28 315.966 1124.28 318.058Z" fill="#67AEC1"/>
<path d="M1083.61 355.212C1083.61 357.303 1085.68 359.025 1088.36 359.025C1091.03 359.025 1093.11 357.303 1093.11 355.212C1093.11 353.12 1091.03 351.398 1088.36 351.398C1085.68 351.398 1083.61 353.12 1083.61 355.212Z" fill="#67AEC1"/>
<path d="M1097.11 355.212C1097.11 357.303 1099.19 359.025 1101.86 359.025C1104.54 359.025 1106.61 357.303 1106.61 355.212C1106.61 353.12 1104.54 351.398 1101.86 351.398C1099.34 351.398 1097.11 353.12 1097.11 355.212Z" fill="#67AEC1"/>
<path d="M1110.77 355.212C1110.77 357.303 1112.85 359.025 1115.52 359.025C1118.19 359.025 1120.27 357.303 1120.27 355.212C1120.27 353.12 1118.19 351.398 1115.52 351.398C1112.85 351.398 1110.77 353.12 1110.77 355.212Z" fill="#67AEC1"/>
<path d="M1124.28 355.212C1124.28 357.303 1126.36 359.025 1129.03 359.025C1131.7 359.025 1133.78 357.303 1133.78 355.212C1133.78 353.12 1131.7 351.398 1129.03 351.398C1126.36 351.398 1124.28 353.12 1124.28 355.212Z" fill="#67AEC1"/>
<path d="M1083.61 392.242C1083.61 394.334 1085.68 396.056 1088.36 396.056C1091.03 396.056 1093.11 394.334 1093.11 392.242C1093.11 390.151 1091.03 388.429 1088.36 388.429C1085.68 388.429 1083.61 390.151 1083.61 392.242Z" fill="#67AEC1"/>
<path d="M1097.11 392.242C1097.11 394.334 1099.19 396.056 1101.86 396.056C1104.54 396.056 1106.61 394.334 1106.61 392.242C1106.61 390.151 1104.54 388.429 1101.86 388.429C1099.34 388.429 1097.11 390.151 1097.11 392.242Z" fill="#67AEC1"/>
<path d="M1110.77 392.242C1110.77 394.334 1112.85 396.056 1115.52 396.056C1118.19 396.056 1120.27 394.334 1120.27 392.242C1120.27 390.151 1118.19 388.429 1115.52 388.429C1112.85 388.429 1110.77 390.151 1110.77 392.242Z" fill="#67AEC1"/>
<path d="M1124.28 392.242C1124.28 394.334 1126.36 396.056 1129.03 396.056C1131.7 396.056 1133.78 394.334 1133.78 392.242C1133.78 390.151 1131.7 388.429 1129.03 388.429C1126.36 388.429 1124.28 390.151 1124.28 392.242Z" fill="#67AEC1"/>
<path d="M1083.61 429.396C1083.61 431.487 1085.68 433.21 1088.36 433.21C1091.03 433.21 1093.11 431.487 1093.11 429.396C1093.11 427.305 1091.03 425.582 1088.36 425.582C1085.68 425.582 1083.61 427.305 1083.61 429.396Z" fill="#67AEC1"/>
<path d="M1097.11 429.396C1097.11 431.487 1099.19 433.21 1101.86 433.21C1104.54 433.21 1106.61 431.487 1106.61 429.396C1106.61 427.305 1104.54 425.582 1101.86 425.582C1099.34 425.582 1097.11 427.305 1097.11 429.396Z" fill="#67AEC1"/>
<path d="M1110.77 429.396C1110.77 431.487 1112.85 433.21 1115.52 433.21C1118.19 433.21 1120.27 431.487 1120.27 429.396C1120.27 427.305 1118.19 425.582 1115.52 425.582C1112.85 425.582 1110.77 427.305 1110.77 429.396Z" fill="#67AEC1"/>
<path d="M1124.28 429.396C1124.28 431.487 1126.36 433.21 1129.03 433.21C1131.7 433.21 1133.78 431.487 1133.78 429.396C1133.78 427.305 1131.7 425.582 1129.03 425.582C1126.36 425.582 1124.28 427.305 1124.28 429.396Z" fill="#67AEC1"/>
<path d="M1083.61 466.55C1083.61 468.641 1085.68 470.363 1088.36 470.363C1091.03 470.363 1093.11 468.641 1093.11 466.55C1093.11 464.458 1091.03 462.736 1088.36 462.736C1085.68 462.736 1083.61 464.458 1083.61 466.55Z" fill="#67AEC1"/>
<path d="M1097.11 466.55C1097.11 468.641 1099.19 470.364 1101.86 470.364C1104.54 470.364 1106.61 468.641 1106.61 466.55C1106.61 464.458 1104.54 462.736 1101.86 462.736C1099.34 462.736 1097.11 464.458 1097.11 466.55Z" fill="#67AEC1"/>
<path d="M1110.77 466.55C1110.77 468.641 1112.85 470.364 1115.52 470.364C1118.19 470.364 1120.27 468.641 1120.27 466.55C1120.27 464.458 1118.19 462.736 1115.52 462.736C1112.85 462.736 1110.77 464.458 1110.77 466.55Z" fill="#67AEC1"/>
<path d="M1124.28 466.55C1124.28 468.641 1126.36 470.364 1129.03 470.364C1131.7 470.364 1133.78 468.641 1133.78 466.55C1133.78 464.458 1131.7 462.736 1129.03 462.736C1126.36 462.736 1124.28 464.458 1124.28 466.55Z" fill="#67AEC1"/>
<path d="M1083.61 503.703C1083.61 505.795 1085.68 507.517 1088.36 507.517C1091.03 507.517 1093.11 505.795 1093.11 503.703C1093.11 501.612 1091.03 499.89 1088.36 499.89C1085.68 499.89 1083.61 501.612 1083.61 503.703Z" fill="#67AEC1"/>
<path d="M1097.11 503.704C1097.11 505.795 1099.19 507.517 1101.86 507.517C1104.54 507.517 1106.61 505.795 1106.61 503.704C1106.61 501.612 1104.54 499.89 1101.86 499.89C1099.34 499.89 1097.11 501.612 1097.11 503.704Z" fill="#67AEC1"/>
<path d="M1110.77 503.704C1110.77 505.795 1112.85 507.517 1115.52 507.517C1118.19 507.517 1120.27 505.795 1120.27 503.704C1120.27 501.612 1118.19 499.89 1115.52 499.89C1112.85 499.89 1110.77 501.612 1110.77 503.704Z" fill="#67AEC1"/>
<path d="M1124.28 503.704C1124.28 505.795 1126.36 507.517 1129.03 507.517C1131.7 507.517 1133.78 505.795 1133.78 503.704C1133.78 501.612 1131.7 499.89 1129.03 499.89C1126.36 499.89 1124.28 501.612 1124.28 503.704Z" fill="#67AEC1"/>
<path d="M949.342 671.93C1108.3 671.93 1237.16 664.656 1237.16 655.684C1237.16 646.711 1108.3 639.437 949.342 639.437C790.384 639.437 661.523 646.711 661.523 655.684C661.523 664.656 790.384 671.93 949.342 671.93Z" fill="#5CDBF5"/>
<path d="M928.266 637.855H754.743V656.978H928.266V637.855Z" fill="#0053CC"/>
<g opacity="0.2">
<path opacity="0.2" d="M763.501 640.587H759.196V654.246H763.501V640.587Z" fill="#0F264C"/>
<path opacity="0.2" d="M771.219 640.587H766.914V654.246H771.219V640.587Z" fill="#0F264C"/>
<path opacity="0.2" d="M778.79 640.587H774.485V654.246H778.79V640.587Z" fill="#0F264C"/>
<path opacity="0.2" d="M786.36 640.587H782.056V654.246H786.36V640.587Z" fill="#0F264C"/>
<path opacity="0.2" d="M794.079 640.587H789.774V654.246H794.079V640.587Z" fill="#0F264C"/>
<path opacity="0.2" d="M801.648 640.587H797.344V654.246H801.648V640.587Z" fill="#0F264C"/>
<path opacity="0.2" d="M809.368 640.587H805.063V654.246H809.368V640.587Z" fill="#0F264C"/>
<path opacity="0.2" d="M816.938 640.587H812.634V654.246H816.938V640.587Z" fill="#0F264C"/>
<path opacity="0.2" d="M824.657 640.587H820.353V654.246H824.657V640.587Z" fill="#0F264C"/>
<path opacity="0.2" d="M832.228 640.587H827.923V654.246H832.228V640.587Z" fill="#0F264C"/>
<path opacity="0.2" d="M839.798 640.587H835.493V654.246H839.798V640.587Z" fill="#0F264C"/>
<path opacity="0.2" d="M847.516 640.587H843.211V654.246H847.516V640.587Z" fill="#0F264C"/>
<path opacity="0.2" d="M855.086 640.587H850.781V654.246H855.086V640.587Z" fill="#0F264C"/>
<path opacity="0.2" d="M862.806 640.587H858.501V654.246H862.806V640.587Z" fill="#0F264C"/>
<path opacity="0.2" d="M870.375 640.587H866.07V654.246H870.375V640.587Z" fill="#0F264C"/>
<path opacity="0.2" d="M878.094 640.587H873.789V654.246H878.094V640.587Z" fill="#0F264C"/>
<path opacity="0.2" d="M885.665 640.587H881.36V654.246H885.665V640.587Z" fill="#0F264C"/>
<path opacity="0.2" d="M893.235 640.587H888.931V654.246H893.235V640.587Z" fill="#0F264C"/>
<path opacity="0.2" d="M900.953 640.587H896.648V654.246H900.953V640.587Z" fill="#0F264C"/>
<path opacity="0.2" d="M908.523 640.587H904.219V654.246H908.523V640.587Z" fill="#0F264C"/>
<path opacity="0.2" d="M916.242 640.587H911.938V654.246H916.242V640.587Z" fill="#0F264C"/>
<path opacity="0.2" d="M923.812 640.587H919.508V654.246H923.812V640.587Z" fill="#0F264C"/>
</g>
<path d="M928.368 657.044H955.384V637.922H928.368V657.044Z" fill="#0050AF"/>
<path d="M928.266 298.825H745.688V637.855H928.266V298.825Z" fill="#4EA4F9"/>
<path d="M952.461 295.949H757.712V298.825H952.461V295.949Z" fill="#0D6AB7"/>
<path d="M739.899 456.838H738.415V471.072H739.899V456.838Z" fill="#197BDD"/>
<path d="M739.899 475.96H738.415V513.055H739.899V475.96Z" fill="#197BDD"/>
<path d="M928.345 637.928H964.415V298.898H928.345V637.928Z" fill="#197BDD"/>
<path opacity="0.6" d="M919.21 422.187H754.742C752.07 422.187 749.844 420.03 749.844 417.442V393.144C749.844 390.556 752.07 388.399 754.742 388.399H919.21C921.882 388.399 924.108 390.556 924.108 393.144V417.442C924.108 420.03 921.882 422.187 919.21 422.187Z" fill="#0D6AB7"/>
<path d="M909.413 400.908L902.437 386.818V423.912H909.71H911.64H924.108V405.365H916.835C913.718 405.365 910.749 403.64 909.413 400.908Z" fill="#197BDD"/>
<path d="M924.108 302.995H749.992V340.089H924.108V302.995Z" fill="#2B97EF"/>
<path d="M924.109 596.447H749.993V633.542H924.109V596.447Z" fill="#2B97EF"/>
<path d="M924.109 554.464H749.993V591.558H924.109V554.464Z" fill="#2B97EF"/>
<path d="M924.109 512.624H749.993V549.719H924.109V512.624Z" fill="#2B97EF"/>
<path d="M924.109 470.641H749.993V507.735H924.109V470.641Z" fill="#2B97EF"/>
<path d="M924.109 428.801H749.993V465.896H924.109V428.801Z" fill="#2B97EF"/>
<path d="M902.437 386.818H728.32V423.912H902.437V386.818Z" fill="#2B97EF"/>
<path d="M924.109 344.834H749.993V381.929H924.109V344.834Z" fill="#2B97EF"/>
<path d="M913.272 334.77H847.069C843.952 334.77 841.429 332.325 841.429 329.306V313.634C841.429 310.615 843.952 308.171 847.069 308.171H913.272C916.389 308.171 918.913 310.615 918.913 313.634V329.306C918.764 332.325 916.241 334.77 913.272 334.77Z" fill="#197BDD"/>
<path opacity="0.2" d="M882.397 322.549V320.392C882.397 319.098 883.437 318.091 884.772 318.091H906.296C907.632 318.091 908.671 319.098 908.671 320.392V322.549C908.671 323.843 907.632 324.849 906.296 324.849H884.772C883.437 324.849 882.397 323.843 882.397 322.549Z" fill="white"/>
<path d="M913.272 376.753H847.069C843.952 376.753 841.429 374.309 841.429 371.29V355.618C841.429 352.598 843.952 350.154 847.069 350.154H913.272C916.389 350.154 918.913 352.598 918.913 355.618V371.29C918.764 374.309 916.241 376.753 913.272 376.753Z" fill="#197BDD"/>
<path opacity="0.2" d="M882.397 364.532V362.375C882.397 361.081 883.437 360.075 884.772 360.075H906.296C907.632 360.075 908.671 361.081 908.671 362.375V364.532C908.671 365.826 907.632 366.832 906.296 366.832H884.772C883.437 366.832 882.397 365.826 882.397 364.532Z" fill="white"/>
<path d="M891.601 418.593H825.398C822.281 418.593 819.758 416.148 819.758 413.129V397.457C819.758 394.438 822.281 391.994 825.398 391.994H891.601C894.718 391.994 897.242 394.438 897.242 397.457V413.129C897.093 416.148 894.57 418.593 891.601 418.593Z" fill="#197BDD"/>
<path opacity="0.2" d="M860.727 406.515V404.358C860.727 403.064 861.766 402.058 863.102 402.058H884.625C885.961 402.058 887 403.064 887 404.358V406.515C887 407.809 885.961 408.816 884.625 408.816H863.102C861.766 408.816 860.727 407.809 860.727 406.515Z" fill="white"/>
<path d="M913.272 460.576H847.069C843.952 460.576 841.429 458.132 841.429 455.112V439.441C841.429 436.421 843.952 433.977 847.069 433.977H913.272C916.389 433.977 918.913 436.421 918.913 439.441V455.112C918.764 458.132 916.241 460.576 913.272 460.576Z" fill="#197BDD"/>
<path opacity="0.2" d="M882.397 448.355V446.198C882.397 444.904 883.437 443.898 884.772 443.898H906.296C907.632 443.898 908.671 444.904 908.671 446.198V448.355C908.671 449.649 907.632 450.655 906.296 450.655H884.772C883.437 450.655 882.397 449.649 882.397 448.355Z" fill="white"/>
<path d="M913.272 502.559H847.069C843.952 502.559 841.429 500.115 841.429 497.096V481.424C841.429 478.405 843.952 475.96 847.069 475.96H913.272C916.389 475.96 918.913 478.405 918.913 481.424V497.096C918.764 500.115 916.241 502.559 913.272 502.559Z" fill="#197BDD"/>
<path opacity="0.2" d="M882.397 490.338V488.182C882.397 486.888 883.437 485.881 884.772 485.881H906.296C907.632 485.881 908.671 486.888 908.671 488.182V490.338C908.671 491.632 907.632 492.639 906.296 492.639H884.772C883.437 492.639 882.397 491.632 882.397 490.338Z" fill="white"/>
<path d="M913.272 544.399H847.069C843.952 544.399 841.429 541.955 841.429 538.935V523.264C841.429 520.244 843.952 517.8 847.069 517.8H913.272C916.389 517.8 918.913 520.244 918.913 523.264V538.935C918.764 541.955 916.241 544.399 913.272 544.399Z" fill="#197BDD"/>
<path opacity="0.2" d="M882.397 532.322V530.165C882.397 528.871 883.437 527.864 884.772 527.864H906.296C907.632 527.864 908.671 528.871 908.671 530.165V532.322C908.671 533.616 907.632 534.622 906.296 534.622H884.772C883.437 534.622 882.397 533.472 882.397 532.322Z" fill="white"/>
<path d="M913.272 586.382H847.069C843.952 586.382 841.429 583.938 841.429 580.919V565.247C841.429 562.228 843.952 559.783 847.069 559.783H913.272C916.389 559.783 918.913 562.228 918.913 565.247V580.919C918.764 583.938 916.241 586.382 913.272 586.382Z" fill="#197BDD"/>
<path opacity="0.2" d="M882.397 574.161V572.004C882.397 570.71 883.437 569.704 884.772 569.704H906.296C907.632 569.704 908.671 570.71 908.671 572.004V574.161C908.671 575.455 907.632 576.462 906.296 576.462H884.772C883.437 576.462 882.397 575.455 882.397 574.161Z" fill="white"/>
<path d="M913.272 628.222H847.069C843.952 628.222 841.429 625.778 841.429 622.758V607.087C841.429 604.067 843.952 601.623 847.069 601.623H913.272C916.389 601.623 918.913 604.067 918.913 607.087V622.758C918.764 625.778 916.241 628.222 913.272 628.222Z" fill="#197BDD"/>
<path opacity="0.2" d="M882.397 616.145V613.988C882.397 612.694 883.437 611.688 884.772 611.688H906.296C907.632 611.688 908.671 612.694 908.671 613.988V616.145C908.671 617.439 907.632 618.445 906.296 618.445H884.772C883.437 618.445 882.397 617.439 882.397 616.145Z" fill="white"/>
<path d="M827.922 325.855C830.381 325.855 832.375 323.924 832.375 321.542C832.375 319.16 830.381 317.229 827.922 317.229C825.462 317.229 823.469 319.16 823.469 321.542C823.469 323.924 825.462 325.855 827.922 325.855Z" fill="#197BDD"/>
<path d="M815.305 325.855C817.764 325.855 819.758 323.924 819.758 321.542C819.758 319.16 817.764 317.229 815.305 317.229C812.845 317.229 810.852 319.16 810.852 321.542C810.852 323.924 812.845 325.855 815.305 325.855Z" fill="#197BDD"/>
<path d="M802.687 325.855C805.147 325.855 807.141 323.924 807.141 321.542C807.141 319.16 805.147 317.229 802.687 317.229C800.228 317.229 798.234 319.16 798.234 321.542C798.234 323.924 800.228 325.855 802.687 325.855Z" fill="#64B9FF"/>
<path d="M794.375 321.542C794.375 323.843 792.445 325.855 789.922 325.855C787.547 325.855 785.469 323.986 785.469 321.542C785.469 319.242 787.398 317.229 789.922 317.229C792.445 317.229 794.375 319.098 794.375 321.542Z" fill="#197BDD"/>
<path d="M827.922 367.839C830.381 367.839 832.375 365.908 832.375 363.525C832.375 361.143 830.381 359.212 827.922 359.212C825.462 359.212 823.469 361.143 823.469 363.525C823.469 365.908 825.462 367.839 827.922 367.839Z" fill="#197BDD"/>
<path d="M815.305 367.839C817.764 367.839 819.758 365.908 819.758 363.525C819.758 361.143 817.764 359.212 815.305 359.212C812.845 359.212 810.852 361.143 810.852 363.525C810.852 365.908 812.845 367.839 815.305 367.839Z" fill="#197BDD"/>
<path d="M802.687 367.839C805.147 367.839 807.141 365.908 807.141 363.525C807.141 361.143 805.147 359.212 802.687 359.212C800.228 359.212 798.234 361.143 798.234 363.525C798.234 365.908 800.228 367.839 802.687 367.839Z" fill="#197BDD"/>
<path d="M794.375 363.525C794.375 365.826 792.445 367.839 789.922 367.839C787.547 367.839 785.469 365.97 785.469 363.525C785.469 361.225 787.398 359.212 789.922 359.212C792.445 359.212 794.375 361.081 794.375 363.525Z" fill="#64B9FF"/>
<path d="M806.249 409.678C808.708 409.678 810.702 407.747 810.702 405.365C810.702 402.983 808.708 401.052 806.249 401.052C803.79 401.052 801.796 402.983 801.796 405.365C801.796 407.747 803.79 409.678 806.249 409.678Z" fill="#64B9FF"/>
<path d="M793.633 409.678C796.092 409.678 798.086 407.747 798.086 405.365C798.086 402.983 796.092 401.052 793.633 401.052C791.173 401.052 789.18 402.983 789.18 405.365C789.18 407.747 791.173 409.678 793.633 409.678Z" fill="#197BDD"/>
<path d="M781.016 409.678C783.475 409.678 785.469 407.747 785.469 405.365C785.469 402.983 783.475 401.052 781.016 401.052C778.556 401.052 776.562 402.983 776.562 405.365C776.562 407.747 778.556 409.678 781.016 409.678Z" fill="#64B9FF"/>
<path d="M768.398 409.678C770.858 409.678 772.852 407.747 772.852 405.365C772.852 402.983 770.858 401.052 768.398 401.052C765.939 401.052 763.945 402.983 763.945 405.365C763.945 407.747 765.939 409.678 768.398 409.678Z" fill="#197BDD"/>
<path d="M827.922 451.662C830.381 451.662 832.375 449.731 832.375 447.348C832.375 444.966 830.381 443.035 827.922 443.035C825.462 443.035 823.469 444.966 823.469 447.348C823.469 449.731 825.462 451.662 827.922 451.662Z" fill="#64B9FF"/>
<path d="M815.305 451.662C817.764 451.662 819.758 449.731 819.758 447.348C819.758 444.966 817.764 443.035 815.305 443.035C812.845 443.035 810.852 444.966 810.852 447.348C810.852 449.731 812.845 451.662 815.305 451.662Z" fill="#64B9FF"/>
<path d="M802.687 451.662C805.147 451.662 807.141 449.731 807.141 447.348C807.141 444.966 805.147 443.035 802.687 443.035C800.228 443.035 798.234 444.966 798.234 447.348C798.234 449.731 800.228 451.662 802.687 451.662Z" fill="#197BDD"/>
<path d="M794.375 447.348C794.375 449.649 792.445 451.662 789.922 451.662C787.547 451.662 785.469 449.793 785.469 447.348C785.469 444.904 787.398 443.035 789.922 443.035C792.445 443.035 794.375 444.904 794.375 447.348Z" fill="#197BDD"/>
<path d="M827.922 493.501C830.381 493.501 832.375 491.57 832.375 489.188C832.375 486.806 830.381 484.875 827.922 484.875C825.462 484.875 823.469 486.806 823.469 489.188C823.469 491.57 825.462 493.501 827.922 493.501Z" fill="#197BDD"/>
<path d="M815.305 493.501C817.764 493.501 819.758 491.57 819.758 489.188C819.758 486.806 817.764 484.875 815.305 484.875C812.845 484.875 810.852 486.806 810.852 489.188C810.852 491.57 812.845 493.501 815.305 493.501Z" fill="#64B9FF"/>
<path d="M802.687 493.501C805.147 493.501 807.141 491.57 807.141 489.188C807.141 486.806 805.147 484.875 802.687 484.875C800.228 484.875 798.234 486.806 798.234 489.188C798.234 491.57 800.228 493.501 802.687 493.501Z" fill="#197BDD"/>
<path d="M794.375 489.188C794.375 491.488 792.445 493.501 789.922 493.501C787.547 493.501 785.469 491.632 785.469 489.188C785.469 486.887 787.398 484.875 789.922 484.875C792.445 485.018 794.375 486.887 794.375 489.188Z" fill="#197BDD"/>
<path d="M827.922 535.485C830.381 535.485 832.375 533.554 832.375 531.171C832.375 528.789 830.381 526.858 827.922 526.858C825.462 526.858 823.469 528.789 823.469 531.171C823.469 533.554 825.462 535.485 827.922 535.485Z" fill="#197BDD"/>
<path d="M815.305 535.485C817.764 535.485 819.758 533.554 819.758 531.171C819.758 528.789 817.764 526.858 815.305 526.858C812.845 526.858 810.852 528.789 810.852 531.171C810.852 533.554 812.845 535.485 815.305 535.485Z" fill="#197BDD"/>
<path d="M802.687 535.485C805.147 535.485 807.141 533.554 807.141 531.171C807.141 528.789 805.147 526.858 802.687 526.858C800.228 526.858 798.234 528.789 798.234 531.171C798.234 533.554 800.228 535.485 802.687 535.485Z" fill="#64B9FF"/>
<path d="M794.375 531.171C794.375 533.472 792.445 535.485 789.922 535.485C787.547 535.485 785.469 533.616 785.469 531.171C785.469 528.727 787.398 526.858 789.922 526.858C792.445 526.858 794.375 528.727 794.375 531.171Z" fill="#64B9FF"/>
<path d="M832.375 573.155C832.375 575.455 830.445 577.468 827.922 577.468C825.398 577.468 823.469 575.599 823.469 573.155C823.469 570.854 825.398 568.841 827.922 568.841C830.445 568.841 832.375 570.71 832.375 573.155Z" fill="#64B9FF"/>
<path d="M819.758 573.155C819.758 575.455 817.828 577.468 815.305 577.468C812.93 577.468 810.852 575.599 810.852 573.155C810.852 570.854 812.781 568.841 815.305 568.841C817.828 568.841 819.758 570.71 819.758 573.155Z" fill="#197BDD"/>
<path d="M807.141 573.155C807.141 575.455 805.211 577.468 802.687 577.468C800.312 577.468 798.234 575.599 798.234 573.155C798.234 570.854 800.164 568.841 802.687 568.841C805.062 568.841 807.141 570.71 807.141 573.155Z" fill="#197BDD"/>
<path d="M794.375 573.155C794.375 575.455 792.445 577.468 789.922 577.468C787.547 577.468 785.469 575.599 785.469 573.155C785.469 570.854 787.398 568.841 789.922 568.841C792.445 568.841 794.375 570.71 794.375 573.155Z" fill="#197BDD"/>
<path d="M827.922 619.308C830.381 619.308 832.375 617.376 832.375 614.994C832.375 612.612 830.381 610.681 827.922 610.681C825.462 610.681 823.469 612.612 823.469 614.994C823.469 617.376 825.462 619.308 827.922 619.308Z" fill="#197BDD"/>
<path d="M815.305 619.308C817.764 619.308 819.758 617.376 819.758 614.994C819.758 612.612 817.764 610.681 815.305 610.681C812.845 610.681 810.852 612.612 810.852 614.994C810.852 617.376 812.845 619.308 815.305 619.308Z" fill="#197BDD"/>
<path d="M802.687 619.308C805.147 619.308 807.141 617.376 807.141 614.994C807.141 612.612 805.147 610.681 802.687 610.681C800.228 610.681 798.234 612.612 798.234 614.994C798.234 617.376 800.228 619.308 802.687 619.308Z" fill="#64B9FF"/>
<path d="M794.375 614.994C794.375 617.295 792.445 619.308 789.922 619.308C787.547 619.308 785.469 617.438 785.469 614.994C785.469 612.55 787.398 610.681 789.922 610.681C792.445 610.681 794.375 612.694 794.375 614.994Z" fill="#197BDD"/>
<path opacity="0.2" d="M776.711 321.542C776.711 326.718 772.406 330.888 767.062 330.888C761.719 330.888 757.414 326.718 757.414 321.542C757.414 316.366 761.719 312.196 767.062 312.196C772.555 312.196 776.711 316.366 776.711 321.542Z" fill="white"/>
<path opacity="0.2" d="M776.711 363.525C776.711 368.701 772.406 372.871 767.062 372.871C761.719 372.871 757.414 368.701 757.414 363.525C757.414 358.349 761.719 354.18 767.062 354.18C772.555 354.18 776.711 358.349 776.711 363.525Z" fill="white"/>
<path opacity="0.2" d="M755.039 405.365C755.039 410.541 750.734 414.711 745.391 414.711C740.047 414.711 735.742 410.541 735.742 405.365C735.742 400.189 740.047 396.019 745.391 396.019C750.883 396.163 755.039 400.189 755.039 405.365Z" fill="white"/>
<path opacity="0.2" d="M776.711 447.348C776.711 452.524 772.406 456.694 767.062 456.694C761.719 456.694 757.414 452.524 757.414 447.348C757.414 442.172 761.719 438.003 767.062 438.003C772.555 438.003 776.711 442.172 776.711 447.348Z" fill="white"/>
<path opacity="0.2" d="M776.711 489.188C776.711 494.364 772.406 498.534 767.062 498.534C761.719 498.534 757.414 494.364 757.414 489.188C757.414 484.012 761.719 479.842 767.062 479.842C772.555 479.986 776.711 484.156 776.711 489.188Z" fill="white"/>
<path opacity="0.2" d="M776.711 531.171C776.711 536.347 772.406 540.517 767.062 540.517C761.719 540.517 757.414 536.347 757.414 531.171C757.414 525.995 761.719 521.826 767.062 521.826C772.555 521.826 776.711 525.995 776.711 531.171Z" fill="white"/>
<path opacity="0.2" d="M776.711 573.155C776.711 578.331 772.406 582.5 767.062 582.5C761.719 582.5 757.414 578.331 757.414 573.155C757.414 567.979 761.719 563.809 767.062 563.809C772.555 563.809 776.711 567.979 776.711 573.155Z" fill="white"/>
<path opacity="0.2" d="M776.711 614.994C776.711 620.17 772.406 624.34 767.062 624.34C761.719 624.34 757.414 620.17 757.414 614.994C757.414 609.818 761.719 605.649 767.062 605.649C772.555 605.792 776.711 609.818 776.711 614.994Z" fill="white"/>
<path d="M863.992 210.114H862.805V213.708H863.992V210.114Z" fill="#0053CC"/>
<path d="M1102.83 292.067H1101.64V284.878H1102.83V292.067ZM1102.83 277.833H1101.64V270.644H1102.83V277.833ZM1102.83 263.455H1101.64V256.267H1102.83V263.455ZM1102.83 249.078H1101.64V241.889H1102.83V249.078ZM1102.83 234.7H1101.64V227.511H1102.83V234.7ZM1102.83 220.322H1101.64V213.133H1102.83V220.322ZM1102.83 205.944H1101.64V198.755H1102.83V205.944ZM863.992 202.925H862.805V198.036C862.805 197.317 862.805 196.455 862.953 195.736L864.141 195.88C863.992 196.598 863.992 197.317 863.992 198.036V202.925ZM1100.45 191.854C1099.71 189.697 1098.37 187.684 1096.89 185.959L1097.78 185.24C1099.41 187.109 1100.75 189.266 1101.64 191.566L1100.45 191.854ZM866.367 189.266L865.328 188.691C866.516 186.534 868.148 184.665 870.227 183.083L870.969 183.946C869.039 185.384 867.406 187.253 866.367 189.266ZM1091.25 181.789C1089.17 180.783 1086.8 180.064 1084.42 179.92L1084.57 178.77C1087.09 178.914 1089.62 179.633 1091.84 180.783L1091.25 181.789ZM877.055 180.639L876.609 179.489C878.539 178.914 880.617 178.626 882.695 178.626H884.18V179.776H882.695C880.914 179.776 878.984 180.064 877.055 180.639ZM1077 179.776H1069.58V178.626H1077V179.776ZM1062.16 179.776H1054.73V178.626H1062.16V179.776ZM1047.31 179.776H1039.89V178.626H1047.31V179.776ZM1032.47 179.776H1025.05V178.626H1032.47V179.776ZM1017.62 179.776H1010.2V178.626H1017.62V179.776ZM1002.78 179.776H995.359V178.626H1002.78V179.776ZM988.085 179.776H980.663V178.626H988.085V179.776ZM973.242 179.776H965.82V178.626H973.242V179.776ZM958.398 179.776H950.976V178.626H958.398V179.776ZM943.554 179.776H936.132V178.626H943.554V179.776ZM928.711 179.776H921.289V178.626H928.711V179.776ZM913.867 179.776H906.445V178.626H913.867V179.776ZM899.023 179.776H891.601V178.626H899.023V179.776Z" fill="#0053CC"/>
<path d="M1102.68 299.4H1101.49V302.994H1102.68V299.4Z" fill="#0053CC"/>
<path d="M1003.08 646.194H1013.91L1015.1 621.752H1004.26L1003.08 646.194Z" fill="#F5C9B2"/>
<path d="M1014.36 645.044H1002.48C1002.04 645.044 1001.59 645.331 1001.59 645.763L999.812 655.108C999.663 656.115 1000.41 656.978 1001.44 656.978C1005.75 656.978 1011.98 656.69 1017.33 656.69C1023.71 656.69 1024.6 656.978 1031.87 656.978C1036.33 656.978 1037.37 652.664 1035.59 652.233C1026.98 650.364 1024.6 650.22 1017.03 645.763C1016.14 645.331 1015.25 645.044 1014.36 645.044Z" fill="#0F264C"/>
<path d="M1015.1 621.752L1014.51 634.404H1003.67L1004.26 621.752H1015.1Z" fill="#F0B89A"/>
<path d="M1076.11 294.655C1075.96 297.962 1075.66 301.557 1075.51 305.151C1075.37 308.602 1075.37 312.196 1075.37 315.647C1075.37 319.098 1075.51 322.548 1075.81 325.855C1076.11 329.162 1076.55 332.325 1077.44 335.057C1077.74 336.495 1078.33 337.645 1078.78 338.364C1078.78 338.508 1079.08 338.939 1079.37 339.227L1080.12 340.233C1080.56 340.952 1081.01 341.671 1081.6 342.39C1083.53 345.266 1085.76 347.997 1087.98 350.729C1092.44 356.336 1097.33 361.8 1102.08 367.264L1096.44 373.734C1089.76 369.564 1083.68 364.963 1077.89 359.787C1074.92 357.199 1072.25 354.467 1069.58 351.448C1068.98 350.729 1068.24 350.01 1067.65 349.148L1066.76 347.997C1066.46 347.566 1066.16 347.278 1065.72 346.703C1064.08 344.403 1063.19 342.102 1062.3 340.089C1060.67 335.776 1059.93 331.75 1059.33 327.868C1058.74 323.842 1058.44 319.96 1058.29 316.222C1058.15 312.34 1058.15 308.602 1058.29 304.72C1058.44 300.838 1058.59 297.243 1059.04 293.218L1076.11 294.655Z" fill="#FF8B7B"/>
<path d="M1079.97 316.366L1075.37 318.235L1067.5 321.254L1053.69 326.574C1053.69 326.574 1047.31 294.799 1050.73 285.166C1054.44 274.526 1067.65 274.814 1074.77 286.891C1081.9 298.537 1079.97 316.366 1079.97 316.366Z" fill="#E39D29"/>
<path d="M1074.77 318.379L1067.65 321.111C1066.46 316.078 1065.42 307.739 1068.83 301.557C1073.58 305.439 1074.33 313.347 1074.77 318.379Z" fill="#E39D29"/>
<path d="M1067.65 362.519H1007.98C1007.53 357.343 1008.87 343.253 1007.98 324.13C1007.83 319.673 1007.38 315.072 1006.94 310.184C1005.9 299.975 1004.12 288.761 1001.3 277.114C1001.3 277.114 1011.54 275.102 1021.19 274.67C1028.76 274.239 1039.89 274.095 1046.57 274.67C1055.48 275.389 1063.94 277.69 1063.94 277.69C1063.94 277.69 1077.89 301.844 1067.65 362.519Z" fill="#F6AC3B"/>
<path d="M1007.98 324.13C1007.83 319.673 1007.38 315.072 1006.94 310.184C1008.87 309.033 1011.39 308.89 1011.83 315.791C1012.43 322.117 1010.2 323.842 1007.98 324.13Z" fill="#E2A549"/>
<path d="M1118.86 375.171L1110.25 380.347L1099.56 378.191L1108.02 367.982L1118.86 375.171Z" fill="#F5C9B2"/>
<path d="M1098.08 366.401L1108.02 367.983L1099.56 378.191C1099.56 378.191 1094.22 377.616 1092.88 370.714L1098.08 366.401Z" fill="#F0B89A"/>
<path d="M1022.67 246.921C1024.6 254.829 1026.68 269.35 1021.19 274.526C1021.19 274.526 1024.01 279.846 1039.15 279.846C1052.95 279.846 1046.57 274.526 1046.57 274.526C1037.37 272.37 1037.37 265.9 1038.7 259.717L1022.67 246.921Z" fill="#F5C9B2"/>
<path d="M1029.2 252.241L1038.7 259.861C1038.4 261.299 1038.11 262.737 1038.11 264.174C1035.29 266.906 1029.65 260.005 1029.2 256.41C1028.9 254.685 1028.9 253.103 1029.2 252.241Z" fill="#F0B89A"/>
<path d="M1055.03 226.936C1058.89 231.537 1054.44 245.915 1046.57 245.483C1038.7 245.052 1047.9 218.165 1055.03 226.936Z" fill="#495C71"/>
<path d="M1024.3 233.837C1023.41 244.477 1022.37 250.659 1027.12 256.986C1034.25 266.475 1048.5 264.031 1052.65 253.966C1056.37 244.908 1057.11 228.949 1047.01 222.91C1037.07 217.015 1025.19 223.198 1024.3 233.837Z" fill="#F5C9B2"/>
<path d="M1020.29 220.466L1032.17 224.492C1026.97 231.249 1034.54 247.209 1025.34 244.189C1021.19 242.751 1007.38 228.086 1020.29 220.466Z" fill="#445465"/>
<path d="M1026.08 223.197C1030.54 226.361 1048.8 230.243 1059.19 224.491C1056.51 223.916 1052.95 222.191 1052.95 222.191C1052.95 222.191 1060.82 221.76 1064.23 216.296C1056.81 217.446 1051.76 215.29 1049.83 214.571C1053.25 213.852 1056.81 210.401 1057.85 207.957C1043.45 208.101 1012.43 210.976 1017.77 220.753C1023.41 230.674 1026.08 223.197 1026.08 223.197Z" fill="#445465"/>
<path d="M1019.85 221.904C1019.85 221.904 1016.29 220.322 1013.91 217.878C1013.32 219.459 1013.32 223.916 1019.85 221.904Z" fill="#0F264C"/>
<path d="M1017.62 244.621C1018.81 247.352 1021.19 249.222 1023.41 250.228C1026.83 251.522 1028.9 248.79 1028.16 245.34C1027.57 242.32 1024.9 238.007 1021.33 238.007C1017.92 238.151 1016.29 241.601 1017.62 244.621Z" fill="#F5C9B2"/>
<path d="M1036.48 646.194H1047.46L1049.69 621.752H1038.85L1036.48 646.194Z" fill="#F5C9B2"/>
<path d="M1047.91 645.044H1036.03C1035.59 645.044 1035.14 645.331 1035.14 645.763L1033.36 655.108C1033.21 656.115 1033.95 656.978 1034.99 656.978C1039.3 656.978 1045.53 656.69 1050.87 656.69C1057.26 656.69 1062.6 656.978 1070.02 656.978C1074.48 656.978 1075.51 652.664 1073.73 652.233C1065.12 650.364 1058.15 650.22 1050.58 645.763C1049.84 645.331 1048.94 645.044 1047.91 645.044Z" fill="#0F264C"/>
<path d="M1049.69 621.752L1048.5 634.404H1037.66L1038.85 621.752H1049.69Z" fill="#F0B89A"/>
<path d="M1052.51 646.625C1053.4 646.769 1054.14 646.769 1054.73 646.338C1055.18 646.05 1055.48 645.619 1055.48 645.044C1055.48 644.613 1055.33 644.325 1055.18 644.325C1053.99 643.606 1050.13 645.044 1049.69 645.331C1049.54 645.331 1049.54 645.475 1049.54 645.619C1049.54 645.763 1049.54 645.763 1049.69 645.907C1050.43 646.194 1051.47 646.482 1052.51 646.625ZM1054.44 644.756C1054.58 644.756 1054.73 644.756 1054.73 644.9C1054.73 644.9 1054.88 645.044 1054.88 645.188C1054.88 645.619 1054.73 645.907 1054.44 646.05C1053.84 646.482 1052.36 646.338 1050.43 645.619C1051.76 645.044 1053.55 644.613 1054.44 644.756Z" fill="#407BFF"/>
<path d="M1049.69 645.907C1049.69 645.907 1049.83 645.907 1049.69 645.907C1051.02 645.475 1053.55 643.462 1053.4 642.312C1053.4 642.024 1053.25 641.737 1052.66 641.593C1052.21 641.449 1051.91 641.593 1051.47 641.737C1049.98 642.6 1049.39 645.619 1049.39 645.763C1049.54 645.619 1049.54 645.763 1049.69 645.907C1049.69 645.763 1049.69 645.907 1049.69 645.907ZM1052.51 641.881C1052.95 642.025 1052.95 642.168 1052.95 642.168C1052.95 642.887 1051.32 644.469 1050.13 645.044C1050.43 644.181 1051.02 642.456 1051.91 641.881C1052.06 641.881 1052.21 641.881 1052.51 641.881Z" fill="#407BFF"/>
<path d="M1033.51 631.385H1051.32C1051.32 631.385 1078.63 530.309 1078.19 495.946C1077.74 463.02 1067.8 362.519 1067.8 362.519H1028.61C1028.61 362.519 1031.73 384.805 1035.14 412.41C1038.26 436.709 1041.67 465.177 1043.6 485.881C1044.19 492.064 1044.64 497.527 1044.94 501.984C1046.72 535.772 1033.51 631.385 1033.51 631.385Z" fill="#6F7B88"/>
<path d="M1034.99 412.41C1038.11 436.709 1041.52 465.177 1043.45 485.881C1047.61 467.765 1057.7 415.286 1042.56 388.687C1038.7 394.007 1036.33 403.065 1034.99 412.41Z" fill="#445465"/>
<path d="M1046.42 362.519C1046.42 362.519 1044.94 459.426 1039.15 490.338C1032.76 524.27 1020.15 631.385 1020.15 631.385H999.812C999.812 631.385 1002.78 527.002 1005.9 493.501C1009.31 457.125 1007.98 362.663 1007.98 362.663H1046.42V362.519Z" fill="#6F7B88"/>
<path d="M998.921 631.816H1021.04L1022.67 623.765L998.179 623.046L998.921 631.816Z" fill="#0F264C"/>
<path d="M1032.47 631.816H1054.58L1056.22 623.765L1031.87 624.196L1032.47 631.816Z" fill="#0F264C"/>
<path d="M1007.53 619.739C1007.38 619.739 1007.38 619.595 1007.38 619.595C1007.53 618.589 1009.01 524.845 1011.83 494.795C1014.8 462.014 1013.02 375.315 1013.02 374.596C1013.02 374.453 1013.17 374.453 1013.17 374.453C1013.32 374.453 1013.32 374.596 1013.32 374.596C1013.32 375.315 1015.1 462.157 1012.13 494.795C1009.31 524.989 1007.83 618.589 1007.68 619.595C1007.68 619.595 1007.68 619.739 1007.53 619.739Z" fill="#445465"/>
<path d="M1040.48 239.732C1040.33 240.595 1040.78 241.314 1041.37 241.457C1041.97 241.601 1042.56 240.882 1042.71 240.02C1042.86 239.157 1042.41 238.438 1041.82 238.294C1041.23 238.294 1040.63 238.869 1040.48 239.732Z" fill="#0F264C"/>
<path d="M1050.73 240.882C1050.58 241.745 1051.02 242.464 1051.62 242.608C1052.21 242.751 1052.8 242.033 1052.95 241.17C1053.1 240.307 1052.65 239.588 1052.06 239.445C1051.47 239.445 1050.87 240.02 1050.73 240.882Z" fill="#0F264C"/>
<path d="M1047.31 241.17C1047.31 241.17 1048.65 246.49 1050.58 249.221C1048.79 250.372 1046.27 249.221 1046.27 249.221L1047.31 241.17Z" fill="#F0B89A"/>
<path d="M1044.34 252.816C1044.49 252.816 1044.64 252.672 1044.64 252.528C1044.64 252.385 1044.49 252.241 1044.34 252.241C1040.33 251.666 1038.85 248.79 1038.85 248.79C1038.85 248.646 1038.55 248.646 1038.55 248.646C1038.4 248.646 1038.4 248.79 1038.4 248.934C1038.4 249.221 1040.04 252.241 1044.34 252.816Z" fill="#0F264C"/>
<path d="M1037.81 233.55C1037.96 233.55 1038.11 233.55 1038.26 233.406C1040.04 231.968 1041.97 232.543 1041.97 232.543C1042.26 232.687 1042.56 232.543 1042.56 232.256C1042.71 231.968 1042.56 231.68 1042.26 231.537C1042.12 231.537 1039.89 230.818 1037.51 232.543C1037.22 232.687 1037.22 232.975 1037.51 233.262C1037.51 233.406 1037.66 233.406 1037.81 233.55Z" fill="#0F264C"/>
<path d="M1010.05 275.102L1012.87 274.814C1013.17 274.814 1013.47 274.958 1013.47 275.245C1022.82 316.079 1020 359.356 1020 359.356H1016.88C1017.77 314.497 1010.65 280.421 1009.61 275.677C1009.61 275.389 1009.76 275.102 1010.05 275.102Z" fill="#6F7B88"/>
<path d="M1017.48 360.362H1019.55C1020.15 360.362 1020.59 359.931 1020.59 359.356C1020.59 358.781 1020.15 358.349 1019.55 358.349H1017.48C1016.88 358.349 1016.44 358.781 1016.44 359.356C1016.44 359.931 1017.03 360.362 1017.48 360.362Z" fill="#0F264C"/>
<path d="M1020 362.95L1019.85 360.219C1019.85 359.5 1019.26 358.925 1018.52 358.925C1017.77 358.925 1017.18 359.5 1017.18 360.219L1017.33 362.95C1017.33 363.669 1017.92 364.244 1018.66 364.244C1019.41 364.244 1020 363.669 1020 362.95Z" fill="#0F264C"/>
<path d="M1055.47 235.706C1055.62 235.706 1055.62 235.706 1055.77 235.706C1056.07 235.562 1056.22 235.275 1056.07 235.131C1055.18 232.399 1052.8 231.68 1052.8 231.68C1052.51 231.537 1052.21 231.68 1052.21 231.968C1052.06 232.256 1052.36 232.543 1052.51 232.543C1052.65 232.543 1054.44 233.118 1055.03 235.275C1055.03 235.562 1055.18 235.706 1055.47 235.706Z" fill="#0F264C"/>
<path d="M1007.98 294.224C1006.34 300.982 1004.56 308.027 1003.08 314.928C1002.33 318.379 1001.59 321.83 1001.15 325.137C1000.7 328.444 1000.11 331.894 1000.26 334.482C1000.4 339.946 1002.48 345.553 1006.34 350.442C1008.27 352.886 1010.65 355.33 1013.17 357.487C1014.51 358.637 1015.84 359.643 1017.18 360.65C1017.92 361.081 1018.51 361.656 1019.26 362.088C1020 362.519 1020.74 363.094 1021.33 363.382L1018.07 371.29C1016.88 371.002 1015.99 370.714 1014.95 370.283C1014.06 369.852 1013.02 369.564 1012.13 369.133C1010.2 368.27 1008.42 367.408 1006.64 366.401C1003.08 364.388 999.663 361.944 996.546 358.925C993.428 355.905 990.757 352.455 988.53 348.573C986.452 344.547 984.968 340.233 984.522 335.632C984.077 331.032 984.225 327.149 984.522 323.124C984.819 319.242 985.413 315.503 986.007 311.765C987.194 304.289 988.975 297.1 991.053 289.767L1007.98 294.224Z" fill="#F5C9B2"/>
<path d="M1001.3 277.114C989.421 279.127 982.741 309.752 982.741 309.752L1011.98 319.817C1011.98 319.817 1014.21 309.752 1011.98 296.525C1009.91 283.584 1012.43 275.102 1001.3 277.114Z" fill="#E39D29"/>
<path d="M1057.4 275.677L1060.22 276.252C1060.52 276.252 1060.67 276.539 1060.67 276.683C1068.09 317.516 1063.19 359.5 1063.19 359.5H1060.08C1063.04 315.072 1057.7 281.572 1056.81 276.396C1056.66 275.964 1056.96 275.677 1057.4 275.677Z" fill="#6F7B88"/>
<path d="M1060.52 360.362H1062.6C1063.19 360.362 1063.64 359.931 1063.64 359.356C1063.64 358.781 1063.19 358.349 1062.6 358.349H1060.52C1059.93 358.349 1059.48 358.781 1059.48 359.356C1059.48 359.931 1059.93 360.362 1060.52 360.362Z" fill="#0F264C"/>
<path d="M1062.9 362.95V360.219C1062.9 359.5 1062.3 358.925 1061.56 358.925C1060.82 358.925 1060.22 359.5 1060.22 360.219V362.95C1060.22 363.669 1060.82 364.244 1061.56 364.244C1062.3 364.244 1062.9 363.669 1062.9 362.95Z" fill="#0F264C"/>
<path d="M1018.96 646.625C1019.85 646.769 1020.59 646.769 1021.19 646.338C1021.63 646.05 1021.93 645.619 1021.93 645.044C1021.93 644.613 1021.78 644.325 1021.63 644.325C1020.44 643.606 1016.58 645.044 1016.14 645.331C1015.99 645.331 1015.99 645.475 1015.99 645.619C1015.99 645.763 1015.99 645.763 1016.14 645.907C1016.88 646.194 1017.92 646.482 1018.96 646.625ZM1020.89 644.756C1021.04 644.756 1021.19 644.756 1021.19 644.9C1021.19 644.9 1021.33 645.044 1021.33 645.188C1021.33 645.619 1021.19 645.907 1020.89 646.05C1020.3 646.482 1018.81 646.338 1016.88 645.619C1018.22 645.044 1020 644.613 1020.89 644.756Z" fill="#407BFF"/>
<path d="M1016.14 645.907C1016.14 645.907 1016.29 645.907 1016.14 645.907C1017.48 645.475 1020 643.462 1019.85 642.312C1019.85 642.024 1019.7 641.737 1019.11 641.593C1018.66 641.449 1018.37 641.593 1017.92 641.737C1016.44 642.6 1015.84 645.619 1015.84 645.763C1015.84 645.619 1015.99 645.763 1016.14 645.907C1015.99 645.763 1016.14 645.907 1016.14 645.907ZM1018.96 641.881C1019.41 642.025 1019.41 642.168 1019.41 642.168C1019.41 642.887 1017.77 644.469 1016.58 645.044C1016.88 644.181 1017.48 642.456 1018.37 641.881C1018.51 641.881 1018.66 641.881 1018.96 641.881Z" fill="#407BFF"/>
<path d="M1012.28 369.277L1015.69 363.238L1025.05 363.525L1032.32 366.401L1037.22 373.446L1024.45 372.727C1024.6 372.727 1016.88 374.884 1012.28 369.277Z" fill="#F5C9B2"/>
<path d="M1038.26 279.99L1036.03 278.408L1031.43 282.722L1038.26 279.99Z" fill="#6F7B88"/>
<path d="M1036.03 278.409C1036.03 278.409 1032.32 283.585 1031.73 287.323C1027.12 285.454 1018.22 280.853 1016.88 274.383C1018.66 274.095 1021.48 272.226 1021.48 272.226C1021.48 272.226 1026.23 276.108 1036.03 278.409Z" fill="#6F7B88"/>
<path d="M1038.26 279.99L1039 278.121L1045.23 282.722L1038.26 279.99Z" fill="#6F7B88"/>
<path d="M1039 278.121C1039 278.121 1043.01 281.428 1043.75 286.46C1048.2 284.591 1049.83 278.552 1048.5 274.67C1045.97 273.52 1043.01 272.945 1043.01 272.945C1043.01 272.945 1043.6 276.827 1039 278.121Z" fill="#6F7B88"/>
<path d="M1145.87 320.967L1052.51 317.804L1039 370.714L1132.37 373.878L1145.87 320.967Z" fill="#C8C9C9"/>
<path d="M1148.84 321.111L1055.33 317.948L1041.82 370.859L1135.33 374.022L1148.84 321.111Z" fill="#0F264C"/>
<path d="M1135.33 374.021L1134.89 377.041L1041.52 373.734L1041.82 370.858L1135.33 374.021Z" fill="#0F264C"/>
<path d="M1041.82 370.858L1041.52 373.734L1004.71 372.584L1005.16 369.564L1041.82 370.858Z" fill="#C8C9C9"/>
</g>
<defs>
<clipPath id="clip0">
<rect width="1366" height="666" fill="white"/>
</clipPath>
</defs>
</svg>
