<svg width="1920" height="879" viewBox="0 0 1920 879" fill="none" xmlns="http://www.w3.org/2000/svg">
<path d="M1859.17 649.937H855.4V650.403H1859.17V649.937Z" fill="#EBEBEB"/>
<path d="M1758.6 674.946H1652V675.412H1758.6V674.946Z" fill="#EBEBEB"/>
<path d="M1520.5 670.131H1402.66V670.597H1520.5V670.131Z" fill="#EBEBEB"/>
<path d="M1657.22 667.801H1618.67V668.267H1657.22V667.801Z" fill="#EBEBEB"/>
<path d="M1143.89 663.14H1057.16V663.606H1143.89V663.14Z" fill="#EBEBEB"/>
<path d="M1045.92 663.14H1015V663.606H1045.92V663.14Z" fill="#EBEBEB"/>
<path d="M1228.2 669.665H1119.39V670.131H1228.2V669.665Z" fill="#EBEBEB"/>
<path d="M1331.19 580.656H943.532C937.308 580.656 932.089 576.618 932.089 571.802V150.216C932.089 145.401 937.308 141.362 943.532 141.362H1331.19C1337.41 141.362 1342.63 145.401 1342.63 150.216V571.802C1342.63 576.618 1337.61 580.656 1331.19 580.656ZM943.532 141.673C937.509 141.673 932.49 145.401 932.49 150.216V571.802C932.49 576.462 937.308 580.346 943.532 580.346H1331.19C1337.21 580.346 1342.23 576.618 1342.23 571.802V150.216C1342.23 145.556 1337.41 141.673 1331.19 141.673H943.532Z" fill="#EBEBEB"/>
<path d="M1765.42 580.656H1377.76C1371.54 580.656 1366.32 576.618 1366.32 571.802V150.216C1366.32 145.401 1371.54 141.362 1377.76 141.362H1765.42C1771.65 141.362 1776.87 145.401 1776.87 150.216V571.802C1776.87 576.618 1771.85 580.656 1765.42 580.656ZM1377.76 141.673C1371.74 141.673 1366.72 145.401 1366.72 150.216V571.802C1366.72 576.462 1371.54 580.346 1377.76 580.346H1765.42C1771.44 580.346 1776.46 576.618 1776.46 571.802V150.216C1776.46 145.556 1771.65 141.673 1765.42 141.673H1377.76Z" fill="#EBEBEB"/>
<path d="M1219.37 480.93C1144.69 480.93 1071.81 451.882 1030.06 399.222C1029.86 398.912 1029.86 398.446 1030.46 398.135C1030.86 397.98 1031.46 397.98 1031.86 398.446C1073.42 450.639 1145.69 479.376 1219.57 479.376C1258.92 479.376 1298.67 471.299 1334.4 454.212C1384.39 430.445 1419.52 392.853 1433.17 348.738C1446.82 304.466 1437.39 258.797 1406.47 220.118C1406.27 219.807 1406.27 219.341 1406.87 219.031C1407.27 218.875 1407.88 218.875 1408.28 219.341C1439.4 258.331 1448.83 304.466 1435.18 349.048C1421.53 393.63 1385.99 431.533 1335.61 455.455C1299.27 472.852 1259.12 480.93 1219.37 480.93Z" fill="#E6E6E6"/>
<path d="M1544.5 462.259C1544.34 462.259 1544.18 462.259 1544.03 462.137C1543.71 461.893 1543.56 461.527 1543.87 461.283C1571.61 432.876 1583.67 397.884 1577.56 362.527C1571.45 327.169 1547.94 295.836 1511.59 274.134C1475.08 252.553 1429.94 243.166 1384.66 247.92C1339.21 252.675 1298.94 270.964 1271.05 299.249C1270.73 299.493 1270.26 299.615 1269.95 299.371C1269.64 299.128 1269.48 298.762 1269.79 298.518C1297.84 269.866 1338.59 251.456 1384.5 246.701C1430.41 241.946 1475.86 251.334 1512.68 273.158C1549.51 294.982 1573.17 326.682 1579.28 362.405C1585.4 398.128 1573.33 433.485 1545.28 462.137C1544.97 462.137 1544.81 462.259 1544.5 462.259Z" fill="#E6E6E6"/>
<path d="M1576.18 470.759H1576.04C1575.63 470.653 1575.49 470.44 1575.49 470.122C1584.63 439.834 1577.84 408.59 1556.5 382.235C1535.02 355.88 1501.49 337.389 1462 330.375C1380.52 315.815 1298.76 354.923 1279.77 417.411C1279.64 417.73 1279.36 417.836 1278.94 417.836C1278.53 417.73 1278.39 417.517 1278.39 417.198C1297.51 354.073 1379.96 314.647 1462.27 329.312C1502.18 336.432 1535.99 355.03 1557.61 381.598C1579.23 408.272 1586.02 439.728 1576.87 470.334C1576.73 470.653 1576.46 470.759 1576.18 470.759Z" fill="#E6E6E6"/>
<path d="M1252.9 518.521C1178.21 518.521 1105.34 489.473 1063.58 436.814C1063.38 436.503 1063.38 436.037 1063.99 435.726C1064.39 435.571 1064.99 435.571 1065.39 436.037C1106.95 488.231 1179.22 516.968 1253.1 516.968C1292.44 516.968 1332.19 508.89 1367.93 491.803C1471.12 442.561 1503.44 337.553 1440 257.71C1439.8 257.399 1439.8 256.933 1440.4 256.622C1440.8 256.467 1441.4 256.467 1441.81 256.933C1505.85 337.553 1473.32 443.493 1369.13 493.201C1332.8 510.444 1292.65 518.521 1252.9 518.521Z" fill="#E6E6E6"/>
<path d="M1220.85 245.194H1004.43V649.066H1220.85V245.194Z" fill="#5CDBF5"/>
<path d="M1209.22 578.537V253.147L1016.3 253.147L1016.3 578.537H1209.22Z" fill="#8FB1FD"/>
<path d="M1198.56 261.106H1026.52V282.547H1198.56V261.106Z" fill="#5CDBF5"/>
<path d="M1194.95 262.994H1188.73V280.659H1194.95V262.994Z" fill="#8FB1FD"/>
<path d="M1184.11 262.994H1177.88V280.659H1184.11V262.994Z" fill="#8FB1FD"/>
<path d="M1173.47 262.994H1167.24V280.659H1173.47V262.994Z" fill="#8FB1FD"/>
<path d="M1162.63 262.994H1156.4V280.659H1162.63V262.994Z" fill="#8FB1FD"/>
<path d="M1151.99 262.994H1145.76V280.659H1151.99V262.994Z" fill="#8FB1FD"/>
<path d="M1141.15 262.994H1134.92V280.659H1141.15V262.994Z" fill="#8FB1FD"/>
<path d="M1130.31 262.994H1124.08V280.659H1130.31V262.994Z" fill="#8FB1FD"/>
<path d="M1119.66 262.994H1113.44V280.659H1119.66V262.994Z" fill="#8FB1FD"/>
<path d="M1108.83 262.994H1102.6V280.659H1108.83V262.994Z" fill="#8FB1FD"/>
<path d="M1098.19 262.994H1091.96V280.659H1098.19V262.994Z" fill="#8FB1FD"/>
<path d="M1087.34 262.994H1081.12V280.659H1087.34V262.994Z" fill="#8FB1FD"/>
<path d="M1076.7 262.994H1070.48V280.659H1076.7V262.994Z" fill="#8FB1FD"/>
<path d="M1065.86 262.994H1059.64V280.659H1065.86V262.994Z" fill="#8FB1FD"/>
<path d="M1055.02 262.994H1048.8V280.659H1055.02V262.994Z" fill="#8FB1FD"/>
<path d="M1039.76 270.545C1041.98 270.545 1043.78 269.338 1043.78 267.848C1043.78 266.359 1041.98 265.151 1039.76 265.151C1037.55 265.151 1035.75 266.359 1035.75 267.848C1035.75 269.338 1037.55 270.545 1039.76 270.545Z" fill="#79A2FD"/>
<path d="M1039.76 278.501C1041.98 278.501 1043.78 277.294 1043.78 275.804C1043.78 274.315 1041.98 273.107 1039.76 273.107C1037.55 273.107 1035.75 274.315 1035.75 275.804C1035.75 277.294 1037.55 278.501 1039.76 278.501Z" fill="#8FB1FD"/>
<path d="M1198.56 288.75H1026.52V310.191H1198.56V288.75Z" fill="#5CDBF5"/>
<path d="M1194.95 290.503H1188.73V308.168H1194.95V290.503Z" fill="#8FB1FD"/>
<path d="M1184.11 290.503H1177.88V308.168H1184.11V290.503Z" fill="#8FB1FD"/>
<path d="M1173.47 290.503H1167.24V308.168H1173.47V290.503Z" fill="#8FB1FD"/>
<path d="M1162.63 290.503H1156.4V308.168H1162.63V290.503Z" fill="#8FB1FD"/>
<path d="M1151.99 290.503H1145.76V308.168H1151.99V290.503Z" fill="#8FB1FD"/>
<path d="M1130.31 290.503H1124.08V308.168H1130.31V290.503Z" fill="#8FB1FD"/>
<path d="M1119.66 290.503H1113.44V308.168H1119.66V290.503Z" fill="#8FB1FD"/>
<path d="M1108.83 290.503H1102.6V308.168H1108.83V290.503Z" fill="#8FB1FD"/>
<path d="M1098.19 290.503H1091.96V308.168H1098.19V290.503Z" fill="#8FB1FD"/>
<path d="M1087.34 290.503H1081.12V308.168H1087.34V290.503Z" fill="#8FB1FD"/>
<path d="M1076.7 290.503H1070.48V308.168H1076.7V290.503Z" fill="#8FB1FD"/>
<path d="M1065.86 290.503H1059.64V308.168H1065.86V290.503Z" fill="#8FB1FD"/>
<path d="M1055.02 290.503H1048.8V308.168H1055.02V290.503Z" fill="#8FB1FD"/>
<path d="M1039.76 298.189C1041.98 298.189 1043.78 296.982 1043.78 295.492C1043.78 294.003 1041.98 292.795 1039.76 292.795C1037.55 292.795 1035.75 294.003 1035.75 295.492C1035.75 296.982 1037.55 298.189 1039.76 298.189Z" fill="#79A2FD"/>
<path d="M1035.75 303.314C1035.75 304.797 1037.56 306.011 1039.76 306.011C1041.97 306.011 1043.78 304.797 1043.78 303.314C1043.78 301.83 1041.97 300.617 1039.76 300.617C1037.56 300.617 1035.75 301.83 1035.75 303.314Z" fill="#8FB1FD"/>
<path d="M1198.56 316.259H1026.52V337.7H1198.56V316.259Z" fill="#5CDBF5"/>
<path d="M1194.95 318.012H1188.73V335.677H1194.95V318.012Z" fill="#8FB1FD"/>
<path d="M1184.11 318.012H1177.88V335.677H1184.11V318.012Z" fill="#8FB1FD"/>
<path d="M1173.47 318.012H1167.24V335.677H1173.47V318.012Z" fill="#8FB1FD"/>
<path d="M1162.63 318.012H1156.4V335.677H1162.63V318.012Z" fill="#8FB1FD"/>
<path d="M1151.99 318.012H1145.76V335.677H1151.99V318.012Z" fill="#8FB1FD"/>
<path d="M1141.15 318.012H1134.92V335.677H1141.15V318.012Z" fill="#8FB1FD"/>
<path d="M1130.31 318.012H1124.08V335.677H1130.31V318.012Z" fill="#8FB1FD"/>
<path d="M1119.66 318.012H1113.44V335.677H1119.66V318.012Z" fill="#8FB1FD"/>
<path d="M1108.83 318.012H1102.6V335.677H1108.83V318.012Z" fill="#8FB1FD"/>
<path d="M1098.19 318.012H1091.96V335.677H1098.19V318.012Z" fill="#8FB1FD"/>
<path d="M1087.34 318.012H1081.12V335.677H1087.34V318.012Z" fill="#8FB1FD"/>
<path d="M1076.7 318.012H1070.48V335.677H1076.7V318.012Z" fill="#8FB1FD"/>
<path d="M1065.86 318.012H1059.64V335.677H1065.86V318.012Z" fill="#8FB1FD"/>
<path d="M1055.02 318.012H1048.8V335.677H1055.02V318.012Z" fill="#8FB1FD"/>
<path d="M1039.76 325.698C1041.98 325.698 1043.78 324.491 1043.78 323.002C1043.78 321.512 1041.98 320.305 1039.76 320.305C1037.55 320.305 1035.75 321.512 1035.75 323.002C1035.75 324.491 1037.55 325.698 1039.76 325.698Z" fill="#79A2FD"/>
<path d="M1039.76 333.52C1041.98 333.52 1043.78 332.312 1043.78 330.823C1043.78 329.333 1041.98 328.126 1039.76 328.126C1037.55 328.126 1035.75 329.333 1035.75 330.823C1035.75 332.312 1037.55 333.52 1039.76 333.52Z" fill="#8FB1FD"/>
<path d="M1198.56 343.768H1026.52V365.209H1198.56V343.768Z" fill="#5CDBF5"/>
<path d="M1194.95 345.656H1188.73V363.321H1194.95V345.656Z" fill="#8FB1FD"/>
<path d="M1184.11 345.656H1177.88V363.321H1184.11V345.656Z" fill="#8FB1FD"/>
<path d="M1173.47 345.656H1167.24V363.321H1173.47V345.656Z" fill="#8FB1FD"/>
<path d="M1162.63 345.656H1156.4V363.321H1162.63V345.656Z" fill="#8FB1FD"/>
<path d="M1151.99 345.656H1145.76V363.321H1151.99V345.656Z" fill="#8FB1FD"/>
<path d="M1141.15 345.656H1134.92V363.321H1141.15V345.656Z" fill="#8FB1FD"/>
<path d="M1130.31 345.656H1124.08V363.321H1130.31V345.656Z" fill="#8FB1FD"/>
<path d="M1098.19 345.656H1091.96V363.321H1098.19V345.656Z" fill="#8FB1FD"/>
<path d="M1087.34 345.656H1081.12V363.321H1087.34V345.656Z" fill="#8FB1FD"/>
<path d="M1076.7 345.656H1070.48V363.321H1076.7V345.656Z" fill="#8FB1FD"/>
<path d="M1065.86 345.656H1059.64V363.321H1065.86V345.656Z" fill="#8FB1FD"/>
<path d="M1055.02 345.656H1048.8V363.321H1055.02V345.656Z" fill="#8FB1FD"/>
<path d="M1035.75 350.511C1035.75 351.994 1037.56 353.208 1039.76 353.208C1041.97 353.208 1043.78 351.994 1043.78 350.511C1043.78 349.027 1041.97 347.814 1039.76 347.814C1037.56 347.814 1035.75 349.027 1035.75 350.511Z" fill="#79A2FD"/>
<path d="M1039.76 361.164C1041.98 361.164 1043.78 359.956 1043.78 358.467C1043.78 356.977 1041.98 355.77 1039.76 355.77C1037.55 355.77 1035.75 356.977 1035.75 358.467C1035.75 359.956 1037.55 361.164 1039.76 361.164Z" fill="#8FB1FD"/>
<path d="M1198.56 371.412H1026.52V392.853H1198.56V371.412Z" fill="#5CDBF5"/>
<path d="M1184.11 373.165H1177.88V390.831H1184.11V373.165Z" fill="#8FB1FD"/>
<path d="M1173.47 373.165H1167.24V390.831H1173.47V373.165Z" fill="#8FB1FD"/>
<path d="M1162.63 373.165H1156.4V390.831H1162.63V373.165Z" fill="#8FB1FD"/>
<path d="M1151.99 373.165H1145.76V390.831H1151.99V373.165Z" fill="#8FB1FD"/>
<path d="M1141.15 373.165H1134.92V390.831H1141.15V373.165Z" fill="#8FB1FD"/>
<path d="M1130.31 373.165H1124.08V390.831H1130.31V373.165Z" fill="#8FB1FD"/>
<path d="M1119.66 373.165H1113.44V390.831H1119.66V373.165Z" fill="#8FB1FD"/>
<path d="M1108.83 373.165H1102.6V390.831H1108.83V373.165Z" fill="#8FB1FD"/>
<path d="M1098.19 373.165H1091.96V390.831H1098.19V373.165Z" fill="#8FB1FD"/>
<path d="M1087.34 373.165H1081.12V390.831H1087.34V373.165Z" fill="#8FB1FD"/>
<path d="M1076.7 373.165H1070.48V390.831H1076.7V373.165Z" fill="#8FB1FD"/>
<path d="M1065.86 373.165H1059.64V390.831H1065.86V373.165Z" fill="#8FB1FD"/>
<path d="M1055.02 373.165H1048.8V390.831H1055.02V373.165Z" fill="#8FB1FD"/>
<path d="M1039.76 380.852C1041.98 380.852 1043.78 379.644 1043.78 378.155C1043.78 376.665 1041.98 375.458 1039.76 375.458C1037.55 375.458 1035.75 376.665 1035.75 378.155C1035.75 379.644 1037.55 380.852 1039.76 380.852Z" fill="#79A2FD"/>
<path d="M1039.76 388.673C1041.98 388.673 1043.78 387.466 1043.78 385.976C1043.78 384.487 1041.98 383.279 1039.76 383.279C1037.55 383.279 1035.75 384.487 1035.75 385.976C1035.75 387.466 1037.55 388.673 1039.76 388.673Z" fill="#8FB1FD"/>
<path d="M1198.56 398.921H1026.52V420.363H1198.56V398.921Z" fill="#5CDBF5"/>
<path d="M1194.95 400.809H1188.73V418.475H1194.95V400.809Z" fill="#8FB1FD"/>
<path d="M1184.11 400.809H1177.88V418.475H1184.11V400.809Z" fill="#8FB1FD"/>
<path d="M1162.63 400.809H1156.4V418.475H1162.63V400.809Z" fill="#8FB1FD"/>
<path d="M1151.99 400.809H1145.76V418.475H1151.99V400.809Z" fill="#8FB1FD"/>
<path d="M1141.15 400.809H1134.92V418.475H1141.15V400.809Z" fill="#8FB1FD"/>
<path d="M1130.31 400.809H1124.08V418.475H1130.31V400.809Z" fill="#8FB1FD"/>
<path d="M1119.66 400.809H1113.44V418.475H1119.66V400.809Z" fill="#8FB1FD"/>
<path d="M1108.83 400.809H1102.6V418.475H1108.83V400.809Z" fill="#8FB1FD"/>
<path d="M1087.34 400.809H1081.12V418.475H1087.34V400.809Z" fill="#8FB1FD"/>
<path d="M1076.7 400.809H1070.48V418.475H1076.7V400.809Z" fill="#8FB1FD"/>
<path d="M1065.86 400.809H1059.64V418.475H1065.86V400.809Z" fill="#8FB1FD"/>
<path d="M1055.02 400.809H1048.8V418.475H1055.02V400.809Z" fill="#8FB1FD"/>
<path d="M1039.76 408.361C1041.98 408.361 1043.78 407.153 1043.78 405.664C1043.78 404.174 1041.98 402.967 1039.76 402.967C1037.55 402.967 1035.75 404.174 1035.75 405.664C1035.75 407.153 1037.55 408.361 1039.76 408.361Z" fill="#79A2FD"/>
<path d="M1039.76 416.182C1041.98 416.182 1043.78 414.975 1043.78 413.485C1043.78 411.996 1041.98 410.788 1039.76 410.788C1037.55 410.788 1035.75 411.996 1035.75 413.485C1035.75 414.975 1037.55 416.182 1039.76 416.182Z" fill="#8FB1FD"/>
<path d="M1198.56 426.431H1026.52V447.872H1198.56V426.431Z" fill="#5CDBF5"/>
<path d="M1194.95 428.319H1188.73V445.984H1194.95V428.319Z" fill="#8FB1FD"/>
<path d="M1184.11 428.319H1177.88V445.984H1184.11V428.319Z" fill="#8FB1FD"/>
<path d="M1173.47 428.319H1167.24V445.984H1173.47V428.319Z" fill="#8FB1FD"/>
<path d="M1162.63 428.319H1156.4V445.984H1162.63V428.319Z" fill="#8FB1FD"/>
<path d="M1151.99 428.319H1145.76V445.984H1151.99V428.319Z" fill="#8FB1FD"/>
<path d="M1141.15 428.319H1134.92V445.984H1141.15V428.319Z" fill="#8FB1FD"/>
<path d="M1130.31 428.319H1124.08V445.984H1130.31V428.319Z" fill="#8FB1FD"/>
<path d="M1119.66 428.319H1113.44V445.984H1119.66V428.319Z" fill="#8FB1FD"/>
<path d="M1108.83 428.319H1102.6V445.984H1108.83V428.319Z" fill="#8FB1FD"/>
<path d="M1098.19 428.319H1091.96V445.984H1098.19V428.319Z" fill="#8FB1FD"/>
<path d="M1087.34 428.319H1081.12V445.984H1087.34V428.319Z" fill="#8FB1FD"/>
<path d="M1076.7 428.319H1070.48V445.984H1076.7V428.319Z" fill="#8FB1FD"/>
<path d="M1065.86 428.319H1059.64V445.984H1065.86V428.319Z" fill="#8FB1FD"/>
<path d="M1055.02 428.319H1048.8V445.984H1055.02V428.319Z" fill="#8FB1FD"/>
<path d="M1039.76 435.87C1041.98 435.87 1043.78 434.663 1043.78 433.173C1043.78 431.684 1041.98 430.476 1039.76 430.476C1037.55 430.476 1035.75 431.684 1035.75 433.173C1035.75 434.663 1037.55 435.87 1039.76 435.87Z" fill="#79A2FD"/>
<path d="M1035.75 441.129C1035.75 442.613 1037.56 443.826 1039.76 443.826C1041.97 443.826 1043.78 442.613 1043.78 441.129C1043.78 439.646 1041.97 438.432 1039.76 438.432C1037.56 438.432 1035.75 439.646 1035.75 441.129Z" fill="#8FB1FD"/>
<path d="M1198.56 454.075H1026.52V475.516H1198.56V454.075Z" fill="#5CDBF5"/>
<path d="M1194.95 455.828H1188.73V473.493H1194.95V455.828Z" fill="#8FB1FD"/>
<path d="M1184.11 455.828H1177.88V473.493H1184.11V455.828Z" fill="#8FB1FD"/>
<path d="M1173.47 455.828H1167.24V473.493H1173.47V455.828Z" fill="#8FB1FD"/>
<path d="M1162.63 455.828H1156.4V473.493H1162.63V455.828Z" fill="#8FB1FD"/>
<path d="M1151.99 455.828H1145.76V473.493H1151.99V455.828Z" fill="#8FB1FD"/>
<path d="M1141.15 455.828H1134.92V473.493H1141.15V455.828Z" fill="#8FB1FD"/>
<path d="M1130.31 455.828H1124.08V473.493H1130.31V455.828Z" fill="#8FB1FD"/>
<path d="M1119.66 455.828H1113.44V473.493H1119.66V455.828Z" fill="#8FB1FD"/>
<path d="M1098.19 455.828H1091.96V473.493H1098.19V455.828Z" fill="#8FB1FD"/>
<path d="M1087.34 455.828H1081.12V473.493H1087.34V455.828Z" fill="#8FB1FD"/>
<path d="M1076.7 455.828H1070.48V473.493H1076.7V455.828Z" fill="#8FB1FD"/>
<path d="M1065.86 455.828H1059.64V473.493H1065.86V455.828Z" fill="#8FB1FD"/>
<path d="M1055.02 455.828H1048.8V473.493H1055.02V455.828Z" fill="#8FB1FD"/>
<path d="M1039.76 463.514C1041.98 463.514 1043.78 462.307 1043.78 460.817C1043.78 459.328 1041.98 458.12 1039.76 458.12C1037.55 458.12 1035.75 459.328 1035.75 460.817C1035.75 462.307 1037.55 463.514 1039.76 463.514Z" fill="#79A2FD"/>
<path d="M1039.76 471.336C1041.98 471.336 1043.78 470.128 1043.78 468.639C1043.78 467.149 1041.98 465.942 1039.76 465.942C1037.55 465.942 1035.75 467.149 1035.75 468.639C1035.75 470.128 1037.55 471.336 1039.76 471.336Z" fill="#8FB1FD"/>
<path d="M1198.56 481.584H1026.52V503.025H1198.56V481.584Z" fill="#5CDBF5"/>
<path d="M1194.95 483.472H1188.73V501.137H1194.95V483.472Z" fill="#8FB1FD"/>
<path d="M1184.11 483.472H1177.88V501.137H1184.11V483.472Z" fill="#8FB1FD"/>
<path d="M1173.47 483.472H1167.24V501.137H1173.47V483.472Z" fill="#8FB1FD"/>
<path d="M1162.63 483.472H1156.4V501.137H1162.63V483.472Z" fill="#8FB1FD"/>
<path d="M1151.99 483.472H1145.76V501.137H1151.99V483.472Z" fill="#8FB1FD"/>
<path d="M1141.15 483.472H1134.92V501.137H1141.15V483.472Z" fill="#8FB1FD"/>
<path d="M1130.31 483.472H1124.08V501.137H1130.31V483.472Z" fill="#8FB1FD"/>
<path d="M1119.66 483.472H1113.44V501.137H1119.66V483.472Z" fill="#8FB1FD"/>
<path d="M1108.83 483.472H1102.6V501.137H1108.83V483.472Z" fill="#8FB1FD"/>
<path d="M1098.19 483.472H1091.96V501.137H1098.19V483.472Z" fill="#8FB1FD"/>
<path d="M1087.34 483.472H1081.12V501.137H1087.34V483.472Z" fill="#8FB1FD"/>
<path d="M1076.7 483.472H1070.48V501.137H1076.7V483.472Z" fill="#8FB1FD"/>
<path d="M1065.86 483.472H1059.64V501.137H1065.86V483.472Z" fill="#8FB1FD"/>
<path d="M1055.02 483.472H1048.8V501.137H1055.02V483.472Z" fill="#8FB1FD"/>
<path d="M1035.75 488.326C1035.75 489.81 1037.56 491.023 1039.76 491.023C1041.97 491.023 1043.78 489.81 1043.78 488.326C1043.78 486.843 1041.97 485.629 1039.76 485.629C1037.56 485.629 1035.75 486.843 1035.75 488.326Z" fill="#79A2FD"/>
<path d="M1039.76 498.845C1041.98 498.845 1043.78 497.637 1043.78 496.148C1043.78 494.658 1041.98 493.451 1039.76 493.451C1037.55 493.451 1035.75 494.658 1035.75 496.148C1035.75 497.637 1037.55 498.845 1039.76 498.845Z" fill="#8FB1FD"/>
<path d="M1198.56 509.093H1026.52V530.534H1198.56V509.093Z" fill="#5CDBF5"/>
<path d="M1194.95 510.981H1188.73V528.646H1194.95V510.981Z" fill="#8FB1FD"/>
<path d="M1184.11 510.981H1177.88V528.646H1184.11V510.981Z" fill="#8FB1FD"/>
<path d="M1173.47 510.981H1167.24V528.646H1173.47V510.981Z" fill="#8FB1FD"/>
<path d="M1162.63 510.981H1156.4V528.646H1162.63V510.981Z" fill="#8FB1FD"/>
<path d="M1151.99 510.981H1145.76V528.646H1151.99V510.981Z" fill="#8FB1FD"/>
<path d="M1141.15 510.981H1134.92V528.646H1141.15V510.981Z" fill="#8FB1FD"/>
<path d="M1130.31 510.981H1124.08V528.646H1130.31V510.981Z" fill="#8FB1FD"/>
<path d="M1119.66 510.981H1113.44V528.646H1119.66V510.981Z" fill="#8FB1FD"/>
<path d="M1108.83 510.981H1102.6V528.646H1108.83V510.981Z" fill="#8FB1FD"/>
<path d="M1098.19 510.981H1091.96V528.646H1098.19V510.981Z" fill="#8FB1FD"/>
<path d="M1087.34 510.981H1081.12V528.646H1087.34V510.981Z" fill="#8FB1FD"/>
<path d="M1076.7 510.981H1070.48V528.646H1076.7V510.981Z" fill="#8FB1FD"/>
<path d="M1065.86 510.981H1059.64V528.646H1065.86V510.981Z" fill="#8FB1FD"/>
<path d="M1055.02 510.981H1048.8V528.646H1055.02V510.981Z" fill="#8FB1FD"/>
<path d="M1039.76 518.533C1041.98 518.533 1043.78 517.325 1043.78 515.836C1043.78 514.346 1041.98 513.139 1039.76 513.139C1037.55 513.139 1035.75 514.346 1035.75 515.836C1035.75 517.325 1037.55 518.533 1039.76 518.533Z" fill="#79A2FD"/>
<path d="M1039.76 526.489C1041.98 526.489 1043.78 525.281 1043.78 523.792C1043.78 522.302 1041.98 521.095 1039.76 521.095C1037.55 521.095 1035.75 522.302 1035.75 523.792C1035.75 525.281 1037.55 526.489 1039.76 526.489Z" fill="#8FB1FD"/>
<path d="M1198.56 536.737H1026.52V558.178H1198.56V536.737Z" fill="#5CDBF5"/>
<path d="M1194.95 538.49H1188.73V556.155H1194.95V538.49Z" fill="#8FB1FD"/>
<path d="M1184.11 538.49H1177.88V556.155H1184.11V538.49Z" fill="#8FB1FD"/>
<path d="M1173.47 538.49H1167.24V556.155H1173.47V538.49Z" fill="#8FB1FD"/>
<path d="M1162.63 538.49H1156.4V556.155H1162.63V538.49Z" fill="#8FB1FD"/>
<path d="M1151.99 538.49H1145.76V556.155H1151.99V538.49Z" fill="#8FB1FD"/>
<path d="M1141.15 538.49H1134.92V556.155H1141.15V538.49Z" fill="#8FB1FD"/>
<path d="M1130.31 538.49H1124.08V556.155H1130.31V538.49Z" fill="#8FB1FD"/>
<path d="M1119.66 538.49H1113.44V556.155H1119.66V538.49Z" fill="#8FB1FD"/>
<path d="M1108.83 538.49H1102.6V556.155H1108.83V538.49Z" fill="#8FB1FD"/>
<path d="M1098.19 538.49H1091.96V556.155H1098.19V538.49Z" fill="#8FB1FD"/>
<path d="M1087.34 538.49H1081.12V556.155H1087.34V538.49Z" fill="#8FB1FD"/>
<path d="M1076.7 538.49H1070.48V556.155H1076.7V538.49Z" fill="#8FB1FD"/>
<path d="M1065.86 538.49H1059.64V556.155H1065.86V538.49Z" fill="#8FB1FD"/>
<path d="M1055.02 538.49H1048.8V556.155H1055.02V538.49Z" fill="#8FB1FD"/>
<path d="M1039.76 546.176C1041.98 546.176 1043.78 544.969 1043.78 543.48C1043.78 541.99 1041.98 540.783 1039.76 540.783C1037.55 540.783 1035.75 541.99 1035.75 543.48C1035.75 544.969 1037.55 546.176 1039.76 546.176Z" fill="#79A2FD"/>
<path d="M1039.76 553.998C1041.98 553.998 1043.78 552.79 1043.78 551.301C1043.78 549.811 1041.98 548.604 1039.76 548.604C1037.55 548.604 1035.75 549.811 1035.75 551.301C1035.75 552.79 1037.55 553.998 1039.76 553.998Z" fill="#8FB1FD"/>
<path d="M1451.11 184.701H1234.7V649.937H1451.11V184.701Z" fill="#5CDBF5"/>
<path d="M1439.53 568.658V193.828L1246.61 193.828V568.658H1439.53Z" fill="#5CDBF5"/>
<path d="M1429.03 203.031H1256.98V227.73H1429.03V203.031Z" fill="#79A2FD"/>
<path d="M1425.21 205.206H1418.99V225.555H1425.21V205.206Z" fill="#5CDBF5"/>
<path d="M1414.57 205.206H1408.35V225.555H1414.57V205.206Z" fill="#5CDBF5"/>
<path d="M1403.73 205.206H1397.51V225.555H1403.73V205.206Z" fill="#5CDBF5"/>
<path d="M1392.89 205.206H1386.67V225.555H1392.89V205.206Z" fill="#5CDBF5"/>
<path d="M1382.25 205.206H1376.03V225.555H1382.25V205.206Z" fill="#5CDBF5"/>
<path d="M1371.41 205.206H1365.19V225.555H1371.41V205.206Z" fill="#5CDBF5"/>
<path d="M1360.77 205.206H1354.55V225.555H1360.77V205.206Z" fill="#5CDBF5"/>
<path d="M1349.93 205.206H1343.71V225.555H1349.93V205.206Z" fill="#5CDBF5"/>
<path d="M1339.29 205.206H1333.07V225.555H1339.29V205.206Z" fill="#5CDBF5"/>
<path d="M1328.45 205.206H1322.23V225.555H1328.45V205.206Z" fill="#5CDBF5"/>
<path d="M1317.61 205.206H1311.39V225.555H1317.61V205.206Z" fill="#5CDBF5"/>
<path d="M1306.97 205.206H1300.75V225.555H1306.97V205.206Z" fill="#5CDBF5"/>
<path d="M1296.13 205.206H1289.91V225.555H1296.13V205.206Z" fill="#5CDBF5"/>
<path d="M1285.49 205.206H1279.27V225.555H1285.49V205.206Z" fill="#5CDBF5"/>
<path d="M1270.03 213.905C1272.25 213.905 1274.05 212.514 1274.05 210.798C1274.05 209.082 1272.25 207.691 1270.03 207.691C1267.81 207.691 1266.02 209.082 1266.02 210.798C1266.02 212.514 1267.81 213.905 1270.03 213.905Z" fill="#5CDBF5"/>
<path d="M1270.03 223.069C1272.25 223.069 1274.05 221.679 1274.05 219.963C1274.05 218.247 1272.25 216.856 1270.03 216.856C1267.81 216.856 1266.02 218.247 1266.02 219.963C1266.02 221.679 1267.81 223.069 1270.03 223.069Z" fill="#5CDBF5"/>
<path d="M1429.03 234.875H1256.98V259.574H1429.03V234.875Z" fill="#79A2FD"/>
<path d="M1425.21 236.894H1418.99V257.244H1425.21V236.894Z" fill="#5CDBF5"/>
<path d="M1403.73 236.894H1397.51V257.244H1403.73V236.894Z" fill="#5CDBF5"/>
<path d="M1392.89 236.894H1386.67V257.244H1392.89V236.894Z" fill="#5CDBF5"/>
<path d="M1382.25 236.894H1376.03V257.244H1382.25V236.894Z" fill="#5CDBF5"/>
<path d="M1371.41 236.894H1365.19V257.244H1371.41V236.894Z" fill="#5CDBF5"/>
<path d="M1360.77 236.894H1354.55V257.244H1360.77V236.894Z" fill="#5CDBF5"/>
<path d="M1349.93 236.894H1343.71V257.244H1349.93V236.894Z" fill="#5CDBF5"/>
<path d="M1328.45 236.894H1322.23V257.244H1328.45V236.894Z" fill="#5CDBF5"/>
<path d="M1317.61 236.894H1311.39V257.244H1317.61V236.894Z" fill="#5CDBF5"/>
<path d="M1306.97 236.894H1300.75V257.244H1306.97V236.894Z" fill="#5CDBF5"/>
<path d="M1296.13 236.894H1289.91V257.244H1296.13V236.894Z" fill="#5CDBF5"/>
<path d="M1285.49 236.894H1279.27V257.244H1285.49V236.894Z" fill="#5CDBF5"/>
<path d="M1270.03 245.749C1272.25 245.749 1274.05 244.358 1274.05 242.642C1274.05 240.926 1272.25 239.535 1270.03 239.535C1267.81 239.535 1266.02 240.926 1266.02 242.642C1266.02 244.358 1267.81 245.749 1270.03 245.749Z" fill="#5CDBF5"/>
<path d="M1266.02 251.652C1266.02 253.36 1267.82 254.758 1270.03 254.758C1272.24 254.758 1274.05 253.36 1274.05 251.652C1274.05 249.943 1272.24 248.545 1270.03 248.545C1267.82 248.545 1266.02 249.943 1266.02 251.652Z" fill="#5CDBF5"/>
<path d="M1429.03 266.564H1256.98V291.263H1429.03V266.564Z" fill="#79A2FD"/>
<path d="M1425.21 268.583H1418.99V288.933H1425.21V268.583Z" fill="#5CDBF5"/>
<path d="M1414.57 268.583H1408.35V288.933H1414.57V268.583Z" fill="#5CDBF5"/>
<path d="M1403.73 268.583H1397.51V288.933H1403.73V268.583Z" fill="#5CDBF5"/>
<path d="M1392.89 268.583H1386.67V288.933H1392.89V268.583Z" fill="#5CDBF5"/>
<path d="M1382.25 268.583H1376.03V288.933H1382.25V268.583Z" fill="#5CDBF5"/>
<path d="M1371.41 268.583H1365.19V288.933H1371.41V268.583Z" fill="#5CDBF5"/>
<path d="M1360.77 268.583H1354.55V288.933H1360.77V268.583Z" fill="#5CDBF5"/>
<path d="M1349.93 268.583H1343.71V288.933H1349.93V268.583Z" fill="#5CDBF5"/>
<path d="M1339.29 268.583H1333.07V288.933H1339.29V268.583Z" fill="#5CDBF5"/>
<path d="M1328.45 268.583H1322.23V288.933H1328.45V268.583Z" fill="#5CDBF5"/>
<path d="M1317.61 268.583H1311.39V288.933H1317.61V268.583Z" fill="#5CDBF5"/>
<path d="M1306.97 268.583H1300.75V288.933H1306.97V268.583Z" fill="#5CDBF5"/>
<path d="M1296.13 268.583H1289.91V288.933H1296.13V268.583Z" fill="#5CDBF5"/>
<path d="M1285.49 268.583H1279.27V288.933H1285.49V268.583Z" fill="#5CDBF5"/>
<path d="M1270.03 277.438C1272.25 277.438 1274.05 276.047 1274.05 274.331C1274.05 272.615 1272.25 271.224 1270.03 271.224C1267.81 271.224 1266.02 272.615 1266.02 274.331C1266.02 276.047 1267.81 277.438 1270.03 277.438Z" fill="#5CDBF5"/>
<path d="M1270.03 286.447C1272.25 286.447 1274.05 285.056 1274.05 283.341C1274.05 281.625 1272.25 280.234 1270.03 280.234C1267.81 280.234 1266.02 281.625 1266.02 283.341C1266.02 285.056 1267.81 286.447 1270.03 286.447Z" fill="#5CDBF5"/>
<path d="M1429.03 298.253H1256.98V322.951H1429.03V298.253Z" fill="#79A2FD"/>
<path d="M1425.21 300.428H1418.99V320.777H1425.21V300.428Z" fill="#5CDBF5"/>
<path d="M1414.57 300.428H1408.35V320.777H1414.57V300.428Z" fill="#5CDBF5"/>
<path d="M1403.73 300.428H1397.51V320.777H1403.73V300.428Z" fill="#5CDBF5"/>
<path d="M1392.89 300.428H1386.67V320.777H1392.89V300.428Z" fill="#5CDBF5"/>
<path d="M1382.25 300.428H1376.03V320.777H1382.25V300.428Z" fill="#5CDBF5"/>
<path d="M1371.41 300.428H1365.19V320.777H1371.41V300.428Z" fill="#5CDBF5"/>
<path d="M1360.77 300.428H1354.55V320.777H1360.77V300.428Z" fill="#5CDBF5"/>
<path d="M1349.93 300.428H1343.71V320.777H1349.93V300.428Z" fill="#5CDBF5"/>
<path d="M1339.29 300.428H1333.07V320.777H1339.29V300.428Z" fill="#5CDBF5"/>
<path d="M1317.61 300.428H1311.39V320.777H1317.61V300.428Z" fill="#5CDBF5"/>
<path d="M1306.97 300.428H1300.75V320.777H1306.97V300.428Z" fill="#5CDBF5"/>
<path d="M1296.13 300.428H1289.91V320.777H1296.13V300.428Z" fill="#5CDBF5"/>
<path d="M1285.49 300.428H1279.27V320.777H1285.49V300.428Z" fill="#5CDBF5"/>
<path d="M1266.02 306.02C1266.02 307.728 1267.82 309.127 1270.03 309.127C1272.24 309.127 1274.05 307.728 1274.05 306.02C1274.05 304.311 1272.24 302.913 1270.03 302.913C1267.82 302.913 1266.02 304.311 1266.02 306.02Z" fill="#5CDBF5"/>
<path d="M1270.03 318.291C1272.25 318.291 1274.05 316.9 1274.05 315.185C1274.05 313.469 1272.25 312.078 1270.03 312.078C1267.81 312.078 1266.02 313.469 1266.02 315.185C1266.02 316.9 1267.81 318.291 1270.03 318.291Z" fill="#5CDBF5"/>
<path d="M1429.03 330.097H1256.98V354.796H1429.03V330.097Z" fill="#79A2FD"/>
<path d="M1425.21 332.116H1418.99V352.466H1425.21V332.116Z" fill="#5CDBF5"/>
<path d="M1414.57 332.116H1408.35V352.466H1414.57V332.116Z" fill="#5CDBF5"/>
<path d="M1403.73 332.116H1397.51V352.466H1403.73V332.116Z" fill="#5CDBF5"/>
<path d="M1392.89 332.116H1386.67V352.466H1392.89V332.116Z" fill="#5CDBF5"/>
<path d="M1382.25 332.116H1376.03V352.466H1382.25V332.116Z" fill="#5CDBF5"/>
<path d="M1371.41 332.116H1365.19V352.466H1371.41V332.116Z" fill="#5CDBF5"/>
<path d="M1360.77 332.116H1354.55V352.466H1360.77V332.116Z" fill="#5CDBF5"/>
<path d="M1349.93 332.116H1343.71V352.466H1349.93V332.116Z" fill="#5CDBF5"/>
<path d="M1339.29 332.116H1333.07V352.466H1339.29V332.116Z" fill="#5CDBF5"/>
<path d="M1328.45 332.116H1322.23V352.466H1328.45V332.116Z" fill="#5CDBF5"/>
<path d="M1317.61 332.116H1311.39V352.466H1317.61V332.116Z" fill="#5CDBF5"/>
<path d="M1306.97 332.116H1300.75V352.466H1306.97V332.116Z" fill="#5CDBF5"/>
<path d="M1296.13 332.116H1289.91V352.466H1296.13V332.116Z" fill="#5CDBF5"/>
<path d="M1285.49 332.116H1279.27V352.466H1285.49V332.116Z" fill="#5CDBF5"/>
<path d="M1270.03 340.971C1272.25 340.971 1274.05 339.58 1274.05 337.864C1274.05 336.148 1272.25 334.757 1270.03 334.757C1267.81 334.757 1266.02 336.148 1266.02 337.864C1266.02 339.58 1267.81 340.971 1270.03 340.971Z" fill="#5CDBF5"/>
<path d="M1270.03 349.98C1272.25 349.98 1274.05 348.589 1274.05 346.873C1274.05 345.158 1272.25 343.767 1270.03 343.767C1267.81 343.767 1266.02 345.158 1266.02 346.873C1266.02 348.589 1267.81 349.98 1270.03 349.98Z" fill="#5CDBF5"/>
<path d="M1429.03 361.786H1256.98V386.485H1429.03V361.786Z" fill="#79A2FD"/>
<path d="M1425.21 363.961H1418.99V384.31H1425.21V363.961Z" fill="#5CDBF5"/>
<path d="M1414.57 363.961H1408.35V384.31H1414.57V363.961Z" fill="#5CDBF5"/>
<path d="M1403.73 363.961H1397.51V384.31H1403.73V363.961Z" fill="#5CDBF5"/>
<path d="M1392.89 363.961H1386.67V384.31H1392.89V363.961Z" fill="#5CDBF5"/>
<path d="M1382.25 363.961H1376.03V384.31H1382.25V363.961Z" fill="#5CDBF5"/>
<path d="M1371.41 363.961H1365.19V384.31H1371.41V363.961Z" fill="#5CDBF5"/>
<path d="M1349.93 363.961H1343.71V384.31H1349.93V363.961Z" fill="#5CDBF5"/>
<path d="M1339.29 363.961H1333.07V384.31H1339.29V363.961Z" fill="#5CDBF5"/>
<path d="M1328.45 363.961H1322.23V384.31H1328.45V363.961Z" fill="#5CDBF5"/>
<path d="M1317.61 363.961H1311.39V384.31H1317.61V363.961Z" fill="#5CDBF5"/>
<path d="M1306.97 363.961H1300.75V384.31H1306.97V363.961Z" fill="#5CDBF5"/>
<path d="M1296.13 363.961H1289.91V384.31H1296.13V363.961Z" fill="#5CDBF5"/>
<path d="M1285.49 363.961H1279.27V384.31H1285.49V363.961Z" fill="#5CDBF5"/>
<path d="M1270.03 372.659C1272.25 372.659 1274.05 371.268 1274.05 369.553C1274.05 367.837 1272.25 366.446 1270.03 366.446C1267.81 366.446 1266.02 367.837 1266.02 369.553C1266.02 371.268 1267.81 372.659 1270.03 372.659Z" fill="#5CDBF5"/>
<path d="M1270.03 381.669C1272.25 381.669 1274.05 380.278 1274.05 378.562C1274.05 376.846 1272.25 375.455 1270.03 375.455C1267.81 375.455 1266.02 376.846 1266.02 378.562C1266.02 380.278 1267.81 381.669 1270.03 381.669Z" fill="#5CDBF5"/>
<path d="M1429.03 393.475H1256.98V418.173H1429.03V393.475Z" fill="#79A2FD"/>
<path d="M1425.21 395.649H1418.99V415.999H1425.21V395.649Z" fill="#5CDBF5"/>
<path d="M1414.57 395.649H1408.35V415.999H1414.57V395.649Z" fill="#5CDBF5"/>
<path d="M1403.73 395.649H1397.51V415.999H1403.73V395.649Z" fill="#5CDBF5"/>
<path d="M1392.89 395.649H1386.67V415.999H1392.89V395.649Z" fill="#5CDBF5"/>
<path d="M1382.25 395.649H1376.03V415.999H1382.25V395.649Z" fill="#5CDBF5"/>
<path d="M1371.41 395.649H1365.19V415.999H1371.41V395.649Z" fill="#5CDBF5"/>
<path d="M1360.77 395.649H1354.55V415.999H1360.77V395.649Z" fill="#5CDBF5"/>
<path d="M1349.93 395.649H1343.71V415.999H1349.93V395.649Z" fill="#5CDBF5"/>
<path d="M1339.29 395.649H1333.07V415.999H1339.29V395.649Z" fill="#5CDBF5"/>
<path d="M1328.45 395.649H1322.23V415.999H1328.45V395.649Z" fill="#5CDBF5"/>
<path d="M1317.61 395.649H1311.39V415.999H1317.61V395.649Z" fill="#5CDBF5"/>
<path d="M1306.97 395.649H1300.75V415.999H1306.97V395.649Z" fill="#5CDBF5"/>
<path d="M1296.13 395.649H1289.91V415.999H1296.13V395.649Z" fill="#5CDBF5"/>
<path d="M1285.49 395.649H1279.27V415.999H1285.49V395.649Z" fill="#5CDBF5"/>
<path d="M1270.03 404.348C1272.25 404.348 1274.05 402.957 1274.05 401.241C1274.05 399.526 1272.25 398.135 1270.03 398.135C1267.81 398.135 1266.02 399.526 1266.02 401.241C1266.02 402.957 1267.81 404.348 1270.03 404.348Z" fill="#5CDBF5"/>
<path d="M1266.02 410.406C1266.02 412.115 1267.82 413.513 1270.03 413.513C1272.24 413.513 1274.05 412.115 1274.05 410.406C1274.05 408.698 1272.24 407.3 1270.03 407.3C1267.82 407.3 1266.02 408.698 1266.02 410.406Z" fill="#5CDBF5"/>
<path d="M1429.03 425.319H1256.98V450.018H1429.03V425.319Z" fill="#79A2FD"/>
<path d="M1425.21 427.338H1418.99V447.687H1425.21V427.338Z" fill="#5CDBF5"/>
<path d="M1414.57 427.338H1408.35V447.687H1414.57V427.338Z" fill="#5CDBF5"/>
<path d="M1403.73 427.338H1397.51V447.687H1403.73V427.338Z" fill="#5CDBF5"/>
<path d="M1392.89 427.338H1386.67V447.687H1392.89V427.338Z" fill="#5CDBF5"/>
<path d="M1382.25 427.338H1376.03V447.687H1382.25V427.338Z" fill="#5CDBF5"/>
<path d="M1371.41 427.338H1365.19V447.687H1371.41V427.338Z" fill="#5CDBF5"/>
<path d="M1360.77 427.338H1354.55V447.687H1360.77V427.338Z" fill="#5CDBF5"/>
<path d="M1349.93 427.338H1343.71V447.687H1349.93V427.338Z" fill="#5CDBF5"/>
<path d="M1339.29 427.338H1333.07V447.687H1339.29V427.338Z" fill="#5CDBF5"/>
<path d="M1328.45 427.338H1322.23V447.687H1328.45V427.338Z" fill="#5CDBF5"/>
<path d="M1317.61 427.338H1311.39V447.687H1317.61V427.338Z" fill="#5CDBF5"/>
<path d="M1306.97 427.338H1300.75V447.687H1306.97V427.338Z" fill="#5CDBF5"/>
<path d="M1296.13 427.338H1289.91V447.687H1296.13V427.338Z" fill="#5CDBF5"/>
<path d="M1285.49 427.338H1279.27V447.687H1285.49V427.338Z" fill="#5CDBF5"/>
<path d="M1270.03 436.192C1272.25 436.192 1274.05 434.801 1274.05 433.086C1274.05 431.37 1272.25 429.979 1270.03 429.979C1267.81 429.979 1266.02 431.37 1266.02 433.086C1266.02 434.801 1267.81 436.192 1270.03 436.192Z" fill="#5CDBF5"/>
<path d="M1270.03 445.202C1272.25 445.202 1274.05 443.811 1274.05 442.095C1274.05 440.38 1272.25 438.989 1270.03 438.989C1267.81 438.989 1266.02 440.38 1266.02 442.095C1266.02 443.811 1267.81 445.202 1270.03 445.202Z" fill="#5CDBF5"/>
<path d="M1429.03 457.008H1256.98V481.706H1429.03V457.008Z" fill="#79A2FD"/>
<path d="M1425.21 459.183H1418.99V479.532H1425.21V459.183Z" fill="#5CDBF5"/>
<path d="M1414.57 459.183H1408.35V479.532H1414.57V459.183Z" fill="#5CDBF5"/>
<path d="M1403.73 459.183H1397.51V479.532H1403.73V459.183Z" fill="#5CDBF5"/>
<path d="M1392.89 459.183H1386.67V479.532H1392.89V459.183Z" fill="#5CDBF5"/>
<path d="M1382.25 459.183H1376.03V479.532H1382.25V459.183Z" fill="#5CDBF5"/>
<path d="M1371.41 459.183H1365.19V479.532H1371.41V459.183Z" fill="#5CDBF5"/>
<path d="M1360.77 459.183H1354.55V479.532H1360.77V459.183Z" fill="#5CDBF5"/>
<path d="M1349.93 459.183H1343.71V479.532H1349.93V459.183Z" fill="#5CDBF5"/>
<path d="M1339.29 459.183H1333.07V479.532H1339.29V459.183Z" fill="#5CDBF5"/>
<path d="M1328.45 459.183H1322.23V479.532H1328.45V459.183Z" fill="#5CDBF5"/>
<path d="M1306.97 459.183H1300.75V479.532H1306.97V459.183Z" fill="#5CDBF5"/>
<path d="M1296.13 459.183H1289.91V479.532H1296.13V459.183Z" fill="#5CDBF5"/>
<path d="M1285.49 459.183H1279.27V479.532H1285.49V459.183Z" fill="#5CDBF5"/>
<path d="M1266.02 464.775C1266.02 466.483 1267.82 467.881 1270.03 467.881C1272.24 467.881 1274.05 466.483 1274.05 464.775C1274.05 463.066 1272.24 461.668 1270.03 461.668C1267.82 461.668 1266.02 463.066 1266.02 464.775Z" fill="#5CDBF5"/>
<path d="M1270.03 476.891C1272.25 476.891 1274.05 475.5 1274.05 473.784C1274.05 472.068 1272.25 470.678 1270.03 470.678C1267.81 470.678 1266.02 472.068 1266.02 473.784C1266.02 475.5 1267.81 476.891 1270.03 476.891Z" fill="#5CDBF5"/>
<path d="M1429.03 488.697H1256.98V513.395H1429.03V488.697Z" fill="#79A2FD"/>
<path d="M1425.21 490.871H1418.99V511.221H1425.21V490.871Z" fill="#5CDBF5"/>
<path d="M1414.57 490.871H1408.35V511.221H1414.57V490.871Z" fill="#5CDBF5"/>
<path d="M1403.73 490.871H1397.51V511.221H1403.73V490.871Z" fill="#5CDBF5"/>
<path d="M1371.41 490.871H1365.19V511.221H1371.41V490.871Z" fill="#5CDBF5"/>
<path d="M1360.77 490.871H1354.55V511.221H1360.77V490.871Z" fill="#5CDBF5"/>
<path d="M1349.93 490.871H1343.71V511.221H1349.93V490.871Z" fill="#5CDBF5"/>
<path d="M1339.29 490.871H1333.07V511.221H1339.29V490.871Z" fill="#5CDBF5"/>
<path d="M1328.45 490.871H1322.23V511.221H1328.45V490.871Z" fill="#5CDBF5"/>
<path d="M1317.61 490.871H1311.39V511.221H1317.61V490.871Z" fill="#5CDBF5"/>
<path d="M1306.97 490.871H1300.75V511.221H1306.97V490.871Z" fill="#5CDBF5"/>
<path d="M1296.13 490.871H1289.91V511.221H1296.13V490.871Z" fill="#5CDBF5"/>
<path d="M1285.49 490.871H1279.27V511.221H1285.49V490.871Z" fill="#5CDBF5"/>
<path d="M1270.03 499.57C1272.25 499.57 1274.05 498.179 1274.05 496.463C1274.05 494.748 1272.25 493.357 1270.03 493.357C1267.81 493.357 1266.02 494.748 1266.02 496.463C1266.02 498.179 1267.81 499.57 1270.03 499.57Z" fill="#5CDBF5"/>
<path d="M1270.03 508.735C1272.25 508.735 1274.05 507.344 1274.05 505.628C1274.05 503.913 1272.25 502.522 1270.03 502.522C1267.81 502.522 1266.02 503.913 1266.02 505.628C1266.02 507.344 1267.81 508.735 1270.03 508.735Z" fill="#5CDBF5"/>
<path d="M1429.03 520.541H1256.98V545.239H1429.03V520.541Z" fill="#79A2FD"/>
<path d="M1425.21 522.56H1418.99V542.909H1425.21V522.56Z" fill="#5CDBF5"/>
<path d="M1414.57 522.56H1408.35V542.909H1414.57V522.56Z" fill="#5CDBF5"/>
<path d="M1403.73 522.56H1397.51V542.909H1403.73V522.56Z" fill="#5CDBF5"/>
<path d="M1392.89 522.56H1386.67V542.909H1392.89V522.56Z" fill="#5CDBF5"/>
<path d="M1382.25 522.56H1376.03V542.909H1382.25V522.56Z" fill="#5CDBF5"/>
<path d="M1371.41 522.56H1365.19V542.909H1371.41V522.56Z" fill="#5CDBF5"/>
<path d="M1360.77 522.56H1354.55V542.909H1360.77V522.56Z" fill="#5CDBF5"/>
<path d="M1349.93 522.56H1343.71V542.909H1349.93V522.56Z" fill="#5CDBF5"/>
<path d="M1339.29 522.56H1333.07V542.909H1339.29V522.56Z" fill="#5CDBF5"/>
<path d="M1328.45 522.56H1322.23V542.909H1328.45V522.56Z" fill="#5CDBF5"/>
<path d="M1317.61 522.56H1311.39V542.909H1317.61V522.56Z" fill="#5CDBF5"/>
<path d="M1306.97 522.56H1300.75V542.909H1306.97V522.56Z" fill="#5CDBF5"/>
<path d="M1296.13 522.56H1289.91V542.909H1296.13V522.56Z" fill="#5CDBF5"/>
<path d="M1285.49 522.56H1279.27V542.909H1285.49V522.56Z" fill="#5CDBF5"/>
<path d="M1270.03 531.414C1272.25 531.414 1274.05 530.023 1274.05 528.308C1274.05 526.592 1272.25 525.201 1270.03 525.201C1267.81 525.201 1266.02 526.592 1266.02 528.308C1266.02 530.023 1267.81 531.414 1270.03 531.414Z" fill="#5CDBF5"/>
<path d="M1270.03 540.424C1272.25 540.424 1274.05 539.033 1274.05 537.317C1274.05 535.601 1272.25 534.21 1270.03 534.21C1267.81 534.21 1266.02 535.601 1266.02 537.317C1266.02 539.033 1267.81 540.424 1270.03 540.424Z" fill="#5CDBF5"/>
<path d="M1680.98 184.701H1464.56V649.937H1680.98V184.701Z" fill="#5CDBF5"/>
<path d="M1669.46 568.612V193.783L1476.53 193.783V568.612H1669.46Z" fill="#5CDBF5"/>
<path d="M1658.89 203.031H1486.85V227.73H1658.89V203.031Z" fill="#79A2FD"/>
<path d="M1655.08 205.206H1648.86V225.555H1655.08V205.206Z" fill="#5CDBF5"/>
<path d="M1644.44 205.206H1638.22V225.555H1644.44V205.206Z" fill="#5CDBF5"/>
<path d="M1633.6 205.206H1627.38V225.555H1633.6V205.206Z" fill="#5CDBF5"/>
<path d="M1622.96 205.206H1616.74V225.555H1622.96V205.206Z" fill="#5CDBF5"/>
<path d="M1612.12 205.206H1605.89V225.555H1612.12V205.206Z" fill="#5CDBF5"/>
<path d="M1601.48 205.206H1595.25V225.555H1601.48V205.206Z" fill="#5CDBF5"/>
<path d="M1590.64 205.206H1584.41V225.555H1590.64V205.206Z" fill="#5CDBF5"/>
<path d="M1579.8 205.206H1573.57V225.555H1579.8V205.206Z" fill="#5CDBF5"/>
<path d="M1569.16 205.206H1562.93V225.555H1569.16V205.206Z" fill="#5CDBF5"/>
<path d="M1547.67 205.206H1541.45V225.555H1547.67V205.206Z" fill="#5CDBF5"/>
<path d="M1536.83 205.206H1530.61V225.555H1536.83V205.206Z" fill="#5CDBF5"/>
<path d="M1526.2 205.206H1519.97V225.555H1526.2V205.206Z" fill="#5CDBF5"/>
<path d="M1515.35 205.206H1509.13V225.555H1515.35V205.206Z" fill="#5CDBF5"/>
<path d="M1500.1 213.905C1502.31 213.905 1504.11 212.514 1504.11 210.798C1504.11 209.082 1502.31 207.691 1500.1 207.691C1497.88 207.691 1496.08 209.082 1496.08 210.798C1496.08 212.514 1497.88 213.905 1500.1 213.905Z" fill="#79A2FD"/>
<path d="M1500.1 223.069C1502.31 223.069 1504.11 221.679 1504.11 219.963C1504.11 218.247 1502.31 216.856 1500.1 216.856C1497.88 216.856 1496.08 218.247 1496.08 219.963C1496.08 221.679 1497.88 223.069 1500.1 223.069Z" fill="#5CDBF5"/>
<path d="M1658.89 234.875H1486.85V259.574H1658.89V234.875Z" fill="#79A2FD"/>
<path d="M1655.08 236.894H1648.86V257.244H1655.08V236.894Z" fill="#5CDBF5"/>
<path d="M1644.44 236.894H1638.22V257.244H1644.44V236.894Z" fill="#5CDBF5"/>
<path d="M1622.96 236.894H1616.74V257.244H1622.96V236.894Z" fill="#5CDBF5"/>
<path d="M1612.12 236.894H1605.89V257.244H1612.12V236.894Z" fill="#5CDBF5"/>
<path d="M1601.48 236.894H1595.25V257.244H1601.48V236.894Z" fill="#5CDBF5"/>
<path d="M1590.64 236.894H1584.41V257.244H1590.64V236.894Z" fill="#5CDBF5"/>
<path d="M1579.8 236.894H1573.57V257.244H1579.8V236.894Z" fill="#5CDBF5"/>
<path d="M1569.16 236.894H1562.93V257.244H1569.16V236.894Z" fill="#5CDBF5"/>
<path d="M1558.32 236.894H1552.09V257.244H1558.32V236.894Z" fill="#5CDBF5"/>
<path d="M1547.67 236.894H1541.45V257.244H1547.67V236.894Z" fill="#5CDBF5"/>
<path d="M1536.83 236.894H1530.61V257.244H1536.83V236.894Z" fill="#5CDBF5"/>
<path d="M1526.2 236.894H1519.97V257.244H1526.2V236.894Z" fill="#5CDBF5"/>
<path d="M1515.35 236.894H1509.13V257.244H1515.35V236.894Z" fill="#5CDBF5"/>
<path d="M1500.1 245.749C1502.31 245.749 1504.11 244.358 1504.11 242.642C1504.11 240.926 1502.31 239.535 1500.1 239.535C1497.88 239.535 1496.08 240.926 1496.08 242.642C1496.08 244.358 1497.88 245.749 1500.1 245.749Z" fill="#79A2FD"/>
<path d="M1496.08 251.652C1496.08 253.36 1497.89 254.758 1500.1 254.758C1502.31 254.758 1504.11 253.36 1504.11 251.652C1504.11 249.943 1502.31 248.545 1500.1 248.545C1497.89 248.545 1496.08 249.943 1496.08 251.652Z" fill="#5CDBF5"/>
<path d="M1658.89 266.564H1486.85V291.263H1658.89V266.564Z" fill="#79A2FD"/>
<path d="M1655.08 268.583H1648.86V288.933H1655.08V268.583Z" fill="#5CDBF5"/>
<path d="M1644.44 268.583H1638.22V288.933H1644.44V268.583Z" fill="#5CDBF5"/>
<path d="M1633.6 268.583H1627.38V288.933H1633.6V268.583Z" fill="#5CDBF5"/>
<path d="M1622.96 268.583H1616.74V288.933H1622.96V268.583Z" fill="#5CDBF5"/>
<path d="M1612.12 268.583H1605.89V288.933H1612.12V268.583Z" fill="#5CDBF5"/>
<path d="M1601.48 268.583H1595.25V288.933H1601.48V268.583Z" fill="#5CDBF5"/>
<path d="M1590.64 268.583H1584.41V288.933H1590.64V268.583Z" fill="#5CDBF5"/>
<path d="M1579.8 268.583H1573.57V288.933H1579.8V268.583Z" fill="#5CDBF5"/>
<path d="M1569.16 268.583H1562.93V288.933H1569.16V268.583Z" fill="#5CDBF5"/>
<path d="M1558.32 268.583H1552.09V288.933H1558.32V268.583Z" fill="#5CDBF5"/>
<path d="M1547.67 268.583H1541.45V288.933H1547.67V268.583Z" fill="#5CDBF5"/>
<path d="M1536.83 268.583H1530.61V288.933H1536.83V268.583Z" fill="#5CDBF5"/>
<path d="M1526.2 268.583H1519.97V288.933H1526.2V268.583Z" fill="#5CDBF5"/>
<path d="M1515.35 268.583H1509.13V288.933H1515.35V268.583Z" fill="#5CDBF5"/>
<path d="M1500.1 277.438C1502.31 277.438 1504.11 276.047 1504.11 274.331C1504.11 272.615 1502.31 271.224 1500.1 271.224C1497.88 271.224 1496.08 272.615 1496.08 274.331C1496.08 276.047 1497.88 277.438 1500.1 277.438Z" fill="#79A2FD"/>
<path d="M1500.1 286.447C1502.31 286.447 1504.11 285.056 1504.11 283.341C1504.11 281.625 1502.31 280.234 1500.1 280.234C1497.88 280.234 1496.08 281.625 1496.08 283.341C1496.08 285.056 1497.88 286.447 1500.1 286.447Z" fill="#5CDBF5"/>
<path d="M1658.89 298.253H1486.85V322.951H1658.89V298.253Z" fill="#79A2FD"/>
<path d="M1655.08 300.428H1648.86V320.777H1655.08V300.428Z" fill="#5CDBF5"/>
<path d="M1644.44 300.428H1638.22V320.777H1644.44V300.428Z" fill="#5CDBF5"/>
<path d="M1622.96 300.428H1616.74V320.777H1622.96V300.428Z" fill="#5CDBF5"/>
<path d="M1612.12 300.428H1605.89V320.777H1612.12V300.428Z" fill="#5CDBF5"/>
<path d="M1601.48 300.428H1595.25V320.777H1601.48V300.428Z" fill="#5CDBF5"/>
<path d="M1590.64 300.428H1584.41V320.777H1590.64V300.428Z" fill="#5CDBF5"/>
<path d="M1547.67 300.428H1541.45V320.777H1547.67V300.428Z" fill="#5CDBF5"/>
<path d="M1536.83 300.428H1530.61V320.777H1536.83V300.428Z" fill="#5CDBF5"/>
<path d="M1526.2 300.428H1519.97V320.777H1526.2V300.428Z" fill="#5CDBF5"/>
<path d="M1515.35 300.428H1509.13V320.777H1515.35V300.428Z" fill="#5CDBF5"/>
<path d="M1496.08 306.02C1496.08 307.728 1497.89 309.127 1500.1 309.127C1502.31 309.127 1504.11 307.728 1504.11 306.02C1504.11 304.311 1502.31 302.913 1500.1 302.913C1497.89 302.913 1496.08 304.311 1496.08 306.02Z" fill="#79A2FD"/>
<path d="M1500.1 318.291C1502.31 318.291 1504.11 316.9 1504.11 315.185C1504.11 313.469 1502.31 312.078 1500.1 312.078C1497.88 312.078 1496.08 313.469 1496.08 315.185C1496.08 316.9 1497.88 318.291 1500.1 318.291Z" fill="#5CDBF5"/>
<path d="M1658.89 330.097H1486.85V354.796H1658.89V330.097Z" fill="#79A2FD"/>
<path d="M1655.08 332.116H1648.86V352.466H1655.08V332.116Z" fill="#5CDBF5"/>
<path d="M1644.44 332.116H1638.22V352.466H1644.44V332.116Z" fill="#5CDBF5"/>
<path d="M1633.6 332.116H1627.38V352.466H1633.6V332.116Z" fill="#5CDBF5"/>
<path d="M1622.96 332.116H1616.74V352.466H1622.96V332.116Z" fill="#5CDBF5"/>
<path d="M1612.12 332.116H1605.89V352.466H1612.12V332.116Z" fill="#5CDBF5"/>
<path d="M1601.48 332.116H1595.25V352.466H1601.48V332.116Z" fill="#5CDBF5"/>
<path d="M1590.64 332.116H1584.41V352.466H1590.64V332.116Z" fill="#5CDBF5"/>
<path d="M1579.8 332.116H1573.57V352.466H1579.8V332.116Z" fill="#5CDBF5"/>
<path d="M1569.16 332.116H1562.93V352.466H1569.16V332.116Z" fill="#5CDBF5"/>
<path d="M1558.32 332.116H1552.09V352.466H1558.32V332.116Z" fill="#5CDBF5"/>
<path d="M1547.67 332.116H1541.45V352.466H1547.67V332.116Z" fill="#5CDBF5"/>
<path d="M1536.83 332.116H1530.61V352.466H1536.83V332.116Z" fill="#5CDBF5"/>
<path d="M1515.35 332.116H1509.13V352.466H1515.35V332.116Z" fill="#5CDBF5"/>
<path d="M1500.1 340.971C1502.31 340.971 1504.11 339.58 1504.11 337.864C1504.11 336.148 1502.31 334.757 1500.1 334.757C1497.88 334.757 1496.08 336.148 1496.08 337.864C1496.08 339.58 1497.88 340.971 1500.1 340.971Z" fill="#79A2FD"/>
<path d="M1500.1 349.98C1502.31 349.98 1504.11 348.589 1504.11 346.873C1504.11 345.158 1502.31 343.767 1500.1 343.767C1497.88 343.767 1496.08 345.158 1496.08 346.873C1496.08 348.589 1497.88 349.98 1500.1 349.98Z" fill="#5CDBF5"/>
<path d="M1658.89 361.786H1486.85V386.485H1658.89V361.786Z" fill="#79A2FD"/>
<path d="M1655.08 363.961H1648.86V384.31H1655.08V363.961Z" fill="#5CDBF5"/>
<path d="M1644.44 363.961H1638.22V384.31H1644.44V363.961Z" fill="#5CDBF5"/>
<path d="M1633.6 363.961H1627.38V384.31H1633.6V363.961Z" fill="#5CDBF5"/>
<path d="M1622.96 363.961H1616.74V384.31H1622.96V363.961Z" fill="#5CDBF5"/>
<path d="M1612.12 363.961H1605.89V384.31H1612.12V363.961Z" fill="#5CDBF5"/>
<path d="M1601.48 363.961H1595.25V384.31H1601.48V363.961Z" fill="#5CDBF5"/>
<path d="M1590.64 363.961H1584.41V384.31H1590.64V363.961Z" fill="#5CDBF5"/>
<path d="M1579.8 363.961H1573.57V384.31H1579.8V363.961Z" fill="#5CDBF5"/>
<path d="M1569.16 363.961H1562.93V384.31H1569.16V363.961Z" fill="#5CDBF5"/>
<path d="M1558.32 363.961H1552.09V384.31H1558.32V363.961Z" fill="#5CDBF5"/>
<path d="M1547.67 363.961H1541.45V384.31H1547.67V363.961Z" fill="#5CDBF5"/>
<path d="M1536.83 363.961H1530.61V384.31H1536.83V363.961Z" fill="#5CDBF5"/>
<path d="M1526.2 363.961H1519.97V384.31H1526.2V363.961Z" fill="#5CDBF5"/>
<path d="M1515.35 363.961H1509.13V384.31H1515.35V363.961Z" fill="#5CDBF5"/>
<path d="M1500.1 372.659C1502.31 372.659 1504.11 371.268 1504.11 369.553C1504.11 367.837 1502.31 366.446 1500.1 366.446C1497.88 366.446 1496.08 367.837 1496.08 369.553C1496.08 371.268 1497.88 372.659 1500.1 372.659Z" fill="#79A2FD"/>
<path d="M1500.1 381.669C1502.31 381.669 1504.11 380.278 1504.11 378.562C1504.11 376.846 1502.31 375.455 1500.1 375.455C1497.88 375.455 1496.08 376.846 1496.08 378.562C1496.08 380.278 1497.88 381.669 1500.1 381.669Z" fill="#5CDBF5"/>
<path d="M1658.89 393.475H1486.85V418.173H1658.89V393.475Z" fill="#79A2FD"/>
<path d="M1655.08 395.649H1648.86V415.999H1655.08V395.649Z" fill="#5CDBF5"/>
<path d="M1644.44 395.649H1638.22V415.999H1644.44V395.649Z" fill="#5CDBF5"/>
<path d="M1633.6 395.649H1627.38V415.999H1633.6V395.649Z" fill="#5CDBF5"/>
<path d="M1612.12 395.649H1605.89V415.999H1612.12V395.649Z" fill="#5CDBF5"/>
<path d="M1601.48 395.649H1595.25V415.999H1601.48V395.649Z" fill="#5CDBF5"/>
<path d="M1590.64 395.649H1584.41V415.999H1590.64V395.649Z" fill="#5CDBF5"/>
<path d="M1579.8 395.649H1573.57V415.999H1579.8V395.649Z" fill="#5CDBF5"/>
<path d="M1569.16 395.649H1562.93V415.999H1569.16V395.649Z" fill="#5CDBF5"/>
<path d="M1558.32 395.649H1552.09V415.999H1558.32V395.649Z" fill="#5CDBF5"/>
<path d="M1547.67 395.649H1541.45V415.999H1547.67V395.649Z" fill="#5CDBF5"/>
<path d="M1536.83 395.649H1530.61V415.999H1536.83V395.649Z" fill="#5CDBF5"/>
<path d="M1526.2 395.649H1519.97V415.999H1526.2V395.649Z" fill="#5CDBF5"/>
<path d="M1515.35 395.649H1509.13V415.999H1515.35V395.649Z" fill="#5CDBF5"/>
<path d="M1500.1 404.348C1502.31 404.348 1504.11 402.957 1504.11 401.241C1504.11 399.526 1502.31 398.135 1500.1 398.135C1497.88 398.135 1496.08 399.526 1496.08 401.241C1496.08 402.957 1497.88 404.348 1500.1 404.348Z" fill="#79A2FD"/>
<path d="M1496.08 410.406C1496.08 412.115 1497.89 413.513 1500.1 413.513C1502.31 413.513 1504.11 412.115 1504.11 410.406C1504.11 408.698 1502.31 407.3 1500.1 407.3C1497.89 407.3 1496.08 408.698 1496.08 410.406Z" fill="#5CDBF5"/>
<path d="M1658.89 425.319H1486.85V450.018H1658.89V425.319Z" fill="#79A2FD"/>
<path d="M1655.08 427.338H1648.86V447.687H1655.08V427.338Z" fill="#5CDBF5"/>
<path d="M1644.44 427.338H1638.22V447.687H1644.44V427.338Z" fill="#5CDBF5"/>
<path d="M1633.6 427.338H1627.38V447.687H1633.6V427.338Z" fill="#5CDBF5"/>
<path d="M1622.96 427.338H1616.74V447.687H1622.96V427.338Z" fill="#5CDBF5"/>
<path d="M1612.12 427.338H1605.89V447.687H1612.12V427.338Z" fill="#5CDBF5"/>
<path d="M1601.48 427.338H1595.25V447.687H1601.48V427.338Z" fill="#5CDBF5"/>
<path d="M1590.64 427.338H1584.41V447.687H1590.64V427.338Z" fill="#5CDBF5"/>
<path d="M1579.8 427.338H1573.57V447.687H1579.8V427.338Z" fill="#5CDBF5"/>
<path d="M1569.16 427.338H1562.93V447.687H1569.16V427.338Z" fill="#5CDBF5"/>
<path d="M1547.67 427.338H1541.45V447.687H1547.67V427.338Z" fill="#5CDBF5"/>
<path d="M1536.83 427.338H1530.61V447.687H1536.83V427.338Z" fill="#5CDBF5"/>
<path d="M1526.2 427.338H1519.97V447.687H1526.2V427.338Z" fill="#5CDBF5"/>
<path d="M1515.35 427.338H1509.13V447.687H1515.35V427.338Z" fill="#5CDBF5"/>
<path d="M1500.1 436.192C1502.31 436.192 1504.11 434.801 1504.11 433.086C1504.11 431.37 1502.31 429.979 1500.1 429.979C1497.88 429.979 1496.08 431.37 1496.08 433.086C1496.08 434.801 1497.88 436.192 1500.1 436.192Z" fill="#79A2FD"/>
<path d="M1500.1 445.202C1502.31 445.202 1504.11 443.811 1504.11 442.095C1504.11 440.38 1502.31 438.989 1500.1 438.989C1497.88 438.989 1496.08 440.38 1496.08 442.095C1496.08 443.811 1497.88 445.202 1500.1 445.202Z" fill="#5CDBF5"/>
<path d="M1658.89 457.008H1486.85V481.706H1658.89V457.008Z" fill="#79A2FD"/>
<path d="M1655.08 459.183H1648.86V479.532H1655.08V459.183Z" fill="#5CDBF5"/>
<path d="M1644.44 459.183H1638.22V479.532H1644.44V459.183Z" fill="#5CDBF5"/>
<path d="M1633.6 459.183H1627.38V479.532H1633.6V459.183Z" fill="#5CDBF5"/>
<path d="M1622.96 459.183H1616.74V479.532H1622.96V459.183Z" fill="#5CDBF5"/>
<path d="M1612.12 459.183H1605.89V479.532H1612.12V459.183Z" fill="#5CDBF5"/>
<path d="M1601.48 459.183H1595.25V479.532H1601.48V459.183Z" fill="#5CDBF5"/>
<path d="M1590.64 459.183H1584.41V479.532H1590.64V459.183Z" fill="#5CDBF5"/>
<path d="M1579.8 459.183H1573.57V479.532H1579.8V459.183Z" fill="#5CDBF5"/>
<path d="M1569.16 459.183H1562.93V479.532H1569.16V459.183Z" fill="#5CDBF5"/>
<path d="M1558.32 459.183H1552.09V479.532H1558.32V459.183Z" fill="#5CDBF5"/>
<path d="M1547.67 459.183H1541.45V479.532H1547.67V459.183Z" fill="#5CDBF5"/>
<path d="M1536.83 459.183H1530.61V479.532H1536.83V459.183Z" fill="#5CDBF5"/>
<path d="M1526.2 459.183H1519.97V479.532H1526.2V459.183Z" fill="#5CDBF5"/>
<path d="M1515.35 459.183H1509.13V479.532H1515.35V459.183Z" fill="#5CDBF5"/>
<path d="M1496.08 464.775C1496.08 466.483 1497.89 467.881 1500.1 467.881C1502.31 467.881 1504.11 466.483 1504.11 464.775C1504.11 463.066 1502.31 461.668 1500.1 461.668C1497.89 461.668 1496.08 463.066 1496.08 464.775Z" fill="#79A2FD"/>
<path d="M1500.1 476.891C1502.31 476.891 1504.11 475.5 1504.11 473.784C1504.11 472.068 1502.31 470.678 1500.1 470.678C1497.88 470.678 1496.08 472.068 1496.08 473.784C1496.08 475.5 1497.88 476.891 1500.1 476.891Z" fill="#5CDBF5"/>
<path d="M1658.89 488.697H1486.85V513.395H1658.89V488.697Z" fill="#79A2FD"/>
<path d="M1655.08 490.871H1648.86V511.221H1655.08V490.871Z" fill="#5CDBF5"/>
<path d="M1644.44 490.871H1638.22V511.221H1644.44V490.871Z" fill="#5CDBF5"/>
<path d="M1622.96 490.871H1616.74V511.221H1622.96V490.871Z" fill="#5CDBF5"/>
<path d="M1612.12 490.871H1605.89V511.221H1612.12V490.871Z" fill="#5CDBF5"/>
<path d="M1601.48 490.871H1595.25V511.221H1601.48V490.871Z" fill="#5CDBF5"/>
<path d="M1590.64 490.871H1584.41V511.221H1590.64V490.871Z" fill="#5CDBF5"/>
<path d="M1579.8 490.871H1573.57V511.221H1579.8V490.871Z" fill="#5CDBF5"/>
<path d="M1558.32 490.871H1552.09V511.221H1558.32V490.871Z" fill="#5CDBF5"/>
<path d="M1547.67 490.871H1541.45V511.221H1547.67V490.871Z" fill="#5CDBF5"/>
<path d="M1536.83 490.871H1530.61V511.221H1536.83V490.871Z" fill="#5CDBF5"/>
<path d="M1526.2 490.871H1519.97V511.221H1526.2V490.871Z" fill="#5CDBF5"/>
<path d="M1515.35 490.871H1509.13V511.221H1515.35V490.871Z" fill="#5CDBF5"/>
<path d="M1500.1 499.57C1502.31 499.57 1504.11 498.179 1504.11 496.463C1504.11 494.748 1502.31 493.357 1500.1 493.357C1497.88 493.357 1496.08 494.748 1496.08 496.463C1496.08 498.179 1497.88 499.57 1500.1 499.57Z" fill="#79A2FD"/>
<path d="M1500.1 508.735C1502.31 508.735 1504.11 507.344 1504.11 505.628C1504.11 503.913 1502.31 502.522 1500.1 502.522C1497.88 502.522 1496.08 503.913 1496.08 505.628C1496.08 507.344 1497.88 508.735 1500.1 508.735Z" fill="#5CDBF5"/>
<path d="M1658.89 520.541H1486.85V545.239H1658.89V520.541Z" fill="#79A2FD"/>
<path d="M1655.08 522.56H1648.86V542.909H1655.08V522.56Z" fill="#5CDBF5"/>
<path d="M1644.44 522.56H1638.22V542.909H1644.44V522.56Z" fill="#5CDBF5"/>
<path d="M1633.6 522.56H1627.38V542.909H1633.6V522.56Z" fill="#5CDBF5"/>
<path d="M1622.96 522.56H1616.74V542.909H1622.96V522.56Z" fill="#5CDBF5"/>
<path d="M1612.12 522.56H1605.89V542.909H1612.12V522.56Z" fill="#5CDBF5"/>
<path d="M1601.48 522.56H1595.25V542.909H1601.48V522.56Z" fill="#5CDBF5"/>
<path d="M1590.64 522.56H1584.41V542.909H1590.64V522.56Z" fill="#5CDBF5"/>
<path d="M1579.8 522.56H1573.57V542.909H1579.8V522.56Z" fill="#5CDBF5"/>
<path d="M1569.16 522.56H1562.93V542.909H1569.16V522.56Z" fill="#5CDBF5"/>
<path d="M1558.32 522.56H1552.09V542.909H1558.32V522.56Z" fill="#5CDBF5"/>
<path d="M1547.67 522.56H1541.45V542.909H1547.67V522.56Z" fill="#5CDBF5"/>
<path d="M1536.83 522.56H1530.61V542.909H1536.83V522.56Z" fill="#5CDBF5"/>
<path d="M1526.2 522.56H1519.97V542.909H1526.2V522.56Z" fill="#5CDBF5"/>
<path d="M1515.35 522.56H1509.13V542.909H1515.35V522.56Z" fill="#5CDBF5"/>
<path d="M1500.1 531.414C1502.31 531.414 1504.11 530.023 1504.11 528.308C1504.11 526.592 1502.31 525.201 1500.1 525.201C1497.88 525.201 1496.08 526.592 1496.08 528.308C1496.08 530.023 1497.88 531.414 1500.1 531.414Z" fill="#79A2FD"/>
<path d="M1500.1 540.424C1502.31 540.424 1504.11 539.033 1504.11 537.317C1504.11 535.601 1502.31 534.21 1500.1 534.21C1497.88 534.21 1496.08 535.601 1496.08 537.317C1496.08 539.033 1497.88 540.424 1500.1 540.424Z" fill="#5CDBF5"/>
<path opacity="0.3" d="M1048.27 569.541L1083.82 269.301H1122.78L1087.23 569.541H1048.27Z" fill="white"/>
<path opacity="0.3" d="M1096.48 569.541L1131.27 269.301H1146.89L1111.9 569.541H1096.48Z" fill="white"/>
<path opacity="0.3" d="M1265.21 568.54L1300.75 193.866H1339.69L1304.36 568.54H1265.21Z" fill="white"/>
<path opacity="0.3" d="M1571.77 568.54L1607.3 193.866H1646.25L1610.91 568.54H1571.77Z" fill="white"/>
<path opacity="0.3" d="M1340.7 568.54L1376.23 193.866H1391.89L1356.56 568.54H1340.7Z" fill="white"/>
<path d="M1357.29 816.286C1572.27 816.286 1746.55 806.438 1746.55 794.289C1746.55 782.141 1572.27 772.292 1357.29 772.292C1142.3 772.292 968.024 782.141 968.024 794.289C968.024 806.438 1142.3 816.286 1357.29 816.286Z" fill="#5CDBF5"/>
<path d="M1335.61 329.044H1086.27V790.396C1086.27 792.537 1088.07 794.289 1090.28 794.289H1331.39C1333.6 794.289 1335.4 792.537 1335.4 790.396V329.044H1335.61Z" fill="#407BFF"/>
<path d="M1339.02 705.134H1321.75V766.453H1339.02V705.134Z" fill="#407BFF"/>
<path opacity="0.2" d="M1316.36 766.614H1321.58V705.295H1316.36V766.614Z" fill="black"/>
<path opacity="0.1" d="M1339.02 705.134H1316.53V766.453H1339.02V705.134Z" fill="black"/>
<path d="M1330.38 762.17C1333.82 762.17 1336.61 750.404 1336.61 735.89C1336.61 721.377 1333.82 709.611 1330.38 709.611C1326.95 709.611 1324.16 721.377 1324.16 735.89C1324.16 750.404 1326.95 762.17 1330.38 762.17Z" fill="#407BFF"/>
<path opacity="0.15" d="M1303.08 329.044H1086.27V790.396C1086.27 792.537 1088.07 794.289 1090.28 794.289H1299.07C1301.28 794.289 1303.08 792.537 1303.08 790.396V329.044Z" fill="white"/>
<path opacity="0.2" d="M1303.08 329.044H1304.69V794.289C1303.69 794.289 1303.08 793.511 1303.08 792.732V329.044Z" fill="black"/>
<path d="M1278.39 348.316H1079.24V383.939H1278.39V348.316Z" fill="#407BFF"/>
<path opacity="0.3" d="M1273.97 351.431H1266.75V381.02H1273.97V351.431Z" fill="white"/>
<path opacity="0.3" d="M1261.53 351.431H1254.3V381.02H1261.53V351.431Z" fill="white"/>
<path opacity="0.3" d="M1249.08 351.431H1241.85V381.02H1249.08V351.431Z" fill="white"/>
<path opacity="0.3" d="M1236.63 351.431H1229.41V381.02H1236.63V351.431Z" fill="white"/>
<path opacity="0.3" d="M1224.19 351.431H1216.96V381.02H1224.19V351.431Z" fill="white"/>
<path opacity="0.3" d="M1211.74 351.431H1204.51V381.02H1211.74V351.431Z" fill="white"/>
<path opacity="0.3" d="M1199.29 351.431H1192.07V381.02H1199.29V351.431Z" fill="white"/>
<path opacity="0.3" d="M1186.85 351.431H1179.62V381.02H1186.85V351.431Z" fill="white"/>
<path opacity="0.3" d="M1174.4 351.431H1167.17V381.02H1174.4V351.431Z" fill="white"/>
<path opacity="0.3" d="M1161.95 351.431H1154.72V381.02H1161.95V351.431Z" fill="white"/>
<path opacity="0.3" d="M1149.51 351.431H1142.28V381.02H1149.51V351.431Z" fill="white"/>
<path opacity="0.3" d="M1137.06 351.431H1129.83V381.02H1137.06V351.431Z" fill="white"/>
<path opacity="0.3" d="M1124.61 351.431H1117.38V381.02H1124.61V351.431Z" fill="white"/>
<path opacity="0.3" d="M1112.16 351.431H1104.94V381.02H1112.16V351.431Z" fill="white"/>
<path d="M1278.39 397.955H1079.24V433.578H1278.39V397.955Z" fill="#407BFF"/>
<path d="M1278.39 447.594H1079.24V483.218H1278.39V447.594Z" fill="#407BFF"/>
<path d="M1278.39 497.428H1079.24V533.051H1278.39V497.428Z" fill="#407BFF"/>
<path d="M1278.39 547.067H1079.24V582.691H1278.39V547.067Z" fill="#407BFF"/>
<path d="M1278.39 596.706H1079.24V632.33H1278.39V596.706Z" fill="#407BFF"/>
<path d="M1278.39 646.345H1079.24V681.969H1278.39V646.345Z" fill="#407BFF"/>
<path d="M1278.39 696.179H1079.24V731.802H1278.39V696.179Z" fill="#407BFF"/>
<path opacity="0.2" d="M1278.19 384.046H1283.21V348.422H1278.19V384.046Z" fill="black"/>
<path opacity="0.2" d="M1278.19 433.772H1283.21V398.149H1278.19V433.772Z" fill="black"/>
<path opacity="0.2" d="M1278.19 483.499H1283.21V447.875H1278.19V483.499Z" fill="black"/>
<path opacity="0.2" d="M1278.19 533.03H1283.21V497.407H1278.19V533.03Z" fill="black"/>
<path opacity="0.2" d="M1278.19 582.756H1283.21V547.133H1278.19V582.756Z" fill="black"/>
<path opacity="0.2" d="M1278.19 632.483H1283.21V596.86H1278.19V632.483Z" fill="black"/>
<path opacity="0.2" d="M1278.19 682.209H1283.21V646.586H1278.19V682.209Z" fill="black"/>
<path opacity="0.2" d="M1278.19 731.741H1283.21V696.118H1278.19V731.741Z" fill="black"/>
<path d="M1089.88 359.607C1089.88 362.137 1091.89 364.084 1094.5 364.084C1097.11 364.084 1099.12 362.137 1099.12 359.607C1099.12 357.076 1097.11 355.129 1094.5 355.129C1091.89 355.129 1089.88 357.076 1089.88 359.607Z" fill="white"/>
<path opacity="0.3" d="M1089.88 372.844C1089.88 375.374 1091.89 377.321 1094.5 377.321C1097.11 377.321 1099.12 375.374 1099.12 372.844C1099.12 370.313 1097.11 368.366 1094.5 368.366C1091.89 368.366 1089.88 370.313 1089.88 372.844Z" fill="#263238"/>
<path opacity="0.3" d="M1273.97 401.07H1266.75V430.659H1273.97V401.07Z" fill="white"/>
<path opacity="0.3" d="M1261.53 401.07H1254.3V430.659H1261.53V401.07Z" fill="white"/>
<path opacity="0.3" d="M1249.08 401.07H1241.85V430.659H1249.08V401.07Z" fill="white"/>
<path opacity="0.3" d="M1236.63 401.07H1229.41V430.659H1236.63V401.07Z" fill="white"/>
<path opacity="0.3" d="M1224.19 401.07H1216.96V430.659H1224.19V401.07Z" fill="white"/>
<path opacity="0.3" d="M1211.74 401.07H1204.51V430.659H1211.74V401.07Z" fill="white"/>
<path opacity="0.3" d="M1199.29 401.07H1192.07V430.659H1199.29V401.07Z" fill="white"/>
<path opacity="0.3" d="M1186.85 401.07H1179.62V430.659H1186.85V401.07Z" fill="white"/>
<path opacity="0.3" d="M1174.4 401.07H1167.17V430.659H1174.4V401.07Z" fill="white"/>
<path opacity="0.3" d="M1161.95 401.07H1154.72V430.659H1161.95V401.07Z" fill="white"/>
<path opacity="0.3" d="M1149.51 401.07H1142.28V430.659H1149.51V401.07Z" fill="white"/>
<path opacity="0.3" d="M1137.06 401.07H1129.83V430.659H1137.06V401.07Z" fill="white"/>
<path opacity="0.3" d="M1124.61 401.07H1117.38V430.659H1124.61V401.07Z" fill="white"/>
<path opacity="0.3" d="M1112.16 401.07H1104.94V430.659H1112.16V401.07Z" fill="white"/>
<path d="M1089.88 409.246C1089.88 411.776 1091.89 413.723 1094.5 413.723C1097.11 413.723 1099.12 411.776 1099.12 409.246C1099.12 406.715 1097.11 404.768 1094.5 404.768C1091.89 404.768 1089.88 406.715 1089.88 409.246Z" fill="white"/>
<path opacity="0.3" d="M1089.88 422.483C1089.88 425.013 1091.89 426.96 1094.5 426.96C1097.11 426.96 1099.12 425.013 1099.12 422.483C1099.12 419.952 1097.11 418.005 1094.5 418.005C1091.89 418.005 1089.88 419.952 1089.88 422.483Z" fill="#263238"/>
<path opacity="0.3" d="M1273.97 450.709H1266.75V480.298H1273.97V450.709Z" fill="white"/>
<path opacity="0.3" d="M1261.53 450.709H1254.3V480.298H1261.53V450.709Z" fill="white"/>
<path opacity="0.3" d="M1249.08 450.709H1241.85V480.298H1249.08V450.709Z" fill="white"/>
<path opacity="0.3" d="M1236.63 450.709H1229.41V480.298H1236.63V450.709Z" fill="white"/>
<path opacity="0.3" d="M1224.19 450.709H1216.96V480.298H1224.19V450.709Z" fill="white"/>
<path opacity="0.3" d="M1211.74 450.709H1204.51V480.298H1211.74V450.709Z" fill="white"/>
<path opacity="0.3" d="M1199.29 450.709H1192.07V480.298H1199.29V450.709Z" fill="white"/>
<path opacity="0.3" d="M1186.85 450.709H1179.62V480.298H1186.85V450.709Z" fill="white"/>
<path opacity="0.3" d="M1174.4 450.709H1167.17V480.298H1174.4V450.709Z" fill="white"/>
<path opacity="0.3" d="M1161.95 450.709H1154.72V480.298H1161.95V450.709Z" fill="white"/>
<path opacity="0.3" d="M1149.51 450.709H1142.28V480.298H1149.51V450.709Z" fill="white"/>
<path opacity="0.3" d="M1137.06 450.709H1129.83V480.298H1137.06V450.709Z" fill="white"/>
<path opacity="0.3" d="M1124.61 450.709H1117.38V480.298H1124.61V450.709Z" fill="white"/>
<path opacity="0.3" d="M1112.16 450.709H1104.94V480.298H1112.16V450.709Z" fill="white"/>
<path d="M1089.88 458.885C1089.88 461.415 1091.89 463.362 1094.5 463.362C1097.11 463.362 1099.12 461.415 1099.12 458.885C1099.12 456.354 1097.11 454.408 1094.5 454.408C1091.89 454.408 1089.88 456.549 1089.88 458.885Z" fill="white"/>
<path opacity="0.3" d="M1089.88 472.122C1089.88 474.652 1091.89 476.599 1094.5 476.599C1097.11 476.599 1099.12 474.652 1099.12 472.122C1099.12 469.591 1097.11 467.645 1094.5 467.645C1091.89 467.645 1089.88 469.591 1089.88 472.122Z" fill="#263238"/>
<path opacity="0.3" d="M1273.97 500.348H1266.75V529.937H1273.97V500.348Z" fill="white"/>
<path opacity="0.3" d="M1261.53 500.348H1254.3V529.937H1261.53V500.348Z" fill="white"/>
<path opacity="0.3" d="M1249.08 500.348H1241.85V529.937H1249.08V500.348Z" fill="white"/>
<path opacity="0.3" d="M1236.63 500.348H1229.41V529.937H1236.63V500.348Z" fill="white"/>
<path opacity="0.3" d="M1224.19 500.348H1216.96V529.937H1224.19V500.348Z" fill="white"/>
<path opacity="0.3" d="M1211.74 500.348H1204.51V529.937H1211.74V500.348Z" fill="white"/>
<path opacity="0.3" d="M1199.29 500.348H1192.07V529.937H1199.29V500.348Z" fill="white"/>
<path opacity="0.3" d="M1186.85 500.348H1179.62V529.937H1186.85V500.348Z" fill="white"/>
<path opacity="0.3" d="M1174.4 500.348H1167.17V529.937H1174.4V500.348Z" fill="white"/>
<path opacity="0.3" d="M1161.95 500.348H1154.72V529.937H1161.95V500.348Z" fill="white"/>
<path opacity="0.3" d="M1149.51 500.348H1142.28V529.937H1149.51V500.348Z" fill="white"/>
<path opacity="0.3" d="M1137.06 500.348H1129.83V529.937H1137.06V500.348Z" fill="white"/>
<path opacity="0.3" d="M1124.61 500.348H1117.38V529.937H1124.61V500.348Z" fill="white"/>
<path opacity="0.3" d="M1112.16 500.348H1104.94V529.937H1112.16V500.348Z" fill="white"/>
<path d="M1089.88 508.719C1089.88 511.249 1091.89 513.196 1094.5 513.196C1097.11 513.196 1099.12 511.249 1099.12 508.719C1099.12 506.188 1097.11 504.241 1094.5 504.241C1091.89 504.241 1089.88 506.188 1089.88 508.719Z" fill="white"/>
<path opacity="0.3" d="M1089.88 521.761C1089.88 524.292 1091.89 526.238 1094.5 526.238C1097.11 526.238 1099.12 524.292 1099.12 521.761C1099.12 519.23 1097.11 517.284 1094.5 517.284C1091.89 517.284 1089.88 519.23 1089.88 521.761Z" fill="#263238"/>
<path opacity="0.3" d="M1273.97 550.182H1266.75V579.771H1273.97V550.182Z" fill="white"/>
<path opacity="0.3" d="M1261.53 550.182H1254.3V579.771H1261.53V550.182Z" fill="white"/>
<path opacity="0.3" d="M1249.08 550.182H1241.85V579.771H1249.08V550.182Z" fill="white"/>
<path opacity="0.3" d="M1236.63 550.182H1229.41V579.771H1236.63V550.182Z" fill="white"/>
<path opacity="0.3" d="M1224.19 550.182H1216.96V579.771H1224.19V550.182Z" fill="white"/>
<path opacity="0.3" d="M1211.74 550.182H1204.51V579.771H1211.74V550.182Z" fill="white"/>
<path opacity="0.3" d="M1199.29 550.182H1192.07V579.771H1199.29V550.182Z" fill="white"/>
<path opacity="0.3" d="M1186.85 550.182H1179.62V579.771H1186.85V550.182Z" fill="white"/>
<path opacity="0.3" d="M1174.4 550.182H1167.17V579.771H1174.4V550.182Z" fill="white"/>
<path opacity="0.3" d="M1161.95 550.182H1154.72V579.771H1161.95V550.182Z" fill="white"/>
<path opacity="0.3" d="M1149.51 550.182H1142.28V579.771H1149.51V550.182Z" fill="white"/>
<path opacity="0.3" d="M1137.06 550.182H1129.83V579.771H1137.06V550.182Z" fill="white"/>
<path opacity="0.3" d="M1124.61 550.182H1117.38V579.771H1124.61V550.182Z" fill="white"/>
<path opacity="0.3" d="M1112.16 550.182H1104.94V579.771H1112.16V550.182Z" fill="white"/>
<path d="M1089.88 558.358C1089.88 560.888 1091.89 562.835 1094.5 562.835C1097.11 562.835 1099.12 560.888 1099.12 558.358C1099.12 555.827 1097.11 553.88 1094.5 553.88C1091.89 553.88 1089.88 555.827 1089.88 558.358Z" fill="white"/>
<path opacity="0.3" d="M1089.88 571.4C1089.88 573.931 1091.89 575.877 1094.5 575.877C1097.11 575.877 1099.12 573.931 1099.12 571.4C1099.12 568.869 1097.11 566.923 1094.5 566.923C1091.89 566.923 1089.88 569.064 1089.88 571.4Z" fill="#263238"/>
<path opacity="0.3" d="M1273.97 599.821H1266.75V629.41H1273.97V599.821Z" fill="white"/>
<path opacity="0.3" d="M1261.53 599.821H1254.3V629.41H1261.53V599.821Z" fill="white"/>
<path opacity="0.3" d="M1249.08 599.821H1241.85V629.41H1249.08V599.821Z" fill="white"/>
<path opacity="0.3" d="M1236.63 599.821H1229.41V629.41H1236.63V599.821Z" fill="white"/>
<path opacity="0.3" d="M1224.19 599.821H1216.96V629.41H1224.19V599.821Z" fill="white"/>
<path opacity="0.3" d="M1211.74 599.821H1204.51V629.41H1211.74V599.821Z" fill="white"/>
<path opacity="0.3" d="M1199.29 599.821H1192.07V629.41H1199.29V599.821Z" fill="white"/>
<path opacity="0.3" d="M1186.85 599.821H1179.62V629.41H1186.85V599.821Z" fill="white"/>
<path opacity="0.3" d="M1174.4 599.821H1167.17V629.41H1174.4V599.821Z" fill="white"/>
<path opacity="0.3" d="M1161.95 599.821H1154.72V629.41H1161.95V599.821Z" fill="white"/>
<path opacity="0.3" d="M1149.51 599.821H1142.28V629.41H1149.51V599.821Z" fill="white"/>
<path opacity="0.3" d="M1137.06 599.821H1129.83V629.41H1137.06V599.821Z" fill="white"/>
<path opacity="0.3" d="M1124.61 599.821H1117.38V629.41H1124.61V599.821Z" fill="white"/>
<path opacity="0.3" d="M1112.16 599.821H1104.94V629.41H1112.16V599.821Z" fill="white"/>
<path d="M1089.88 607.997C1089.88 610.527 1091.89 612.474 1094.5 612.474C1097.11 612.474 1099.12 610.527 1099.12 607.997C1099.12 605.466 1097.11 603.519 1094.5 603.519C1091.89 603.519 1089.88 605.466 1089.88 607.997Z" fill="white"/>
<path opacity="0.3" d="M1089.88 621.234C1089.88 623.764 1091.89 625.711 1094.5 625.711C1097.11 625.711 1099.12 623.764 1099.12 621.234C1099.12 618.703 1097.11 616.756 1094.5 616.756C1091.89 616.756 1089.88 618.703 1089.88 621.234Z" fill="#263238"/>
<path opacity="0.3" d="M1273.97 649.46H1266.75V679.049H1273.97V649.46Z" fill="white"/>
<path opacity="0.3" d="M1261.53 649.46H1254.3V679.049H1261.53V649.46Z" fill="white"/>
<path opacity="0.3" d="M1249.08 649.46H1241.85V679.049H1249.08V649.46Z" fill="white"/>
<path opacity="0.3" d="M1236.63 649.46H1229.41V679.049H1236.63V649.46Z" fill="white"/>
<path opacity="0.3" d="M1224.19 649.46H1216.96V679.049H1224.19V649.46Z" fill="white"/>
<path opacity="0.3" d="M1211.74 649.46H1204.51V679.049H1211.74V649.46Z" fill="white"/>
<path opacity="0.3" d="M1199.29 649.46H1192.07V679.049H1199.29V649.46Z" fill="white"/>
<path opacity="0.3" d="M1186.85 649.46H1179.62V679.049H1186.85V649.46Z" fill="white"/>
<path opacity="0.3" d="M1174.4 649.46H1167.17V679.049H1174.4V649.46Z" fill="white"/>
<path opacity="0.3" d="M1161.95 649.46H1154.72V679.049H1161.95V649.46Z" fill="white"/>
<path opacity="0.3" d="M1149.51 649.46H1142.28V679.049H1149.51V649.46Z" fill="white"/>
<path opacity="0.3" d="M1137.06 649.46H1129.83V679.049H1137.06V649.46Z" fill="white"/>
<path opacity="0.3" d="M1124.61 649.46H1117.38V679.049H1124.61V649.46Z" fill="white"/>
<path opacity="0.3" d="M1112.16 649.46H1104.94V679.049H1112.16V649.46Z" fill="white"/>
<path d="M1089.88 657.636C1089.88 660.167 1091.89 662.113 1094.5 662.113C1097.11 662.113 1099.12 660.167 1099.12 657.636C1099.12 655.105 1097.11 653.159 1094.5 653.159C1091.89 653.159 1089.88 655.105 1089.88 657.636Z" fill="white"/>
<path opacity="0.3" d="M1089.88 670.873C1089.88 673.404 1091.89 675.35 1094.5 675.35C1097.11 675.35 1099.12 673.404 1099.12 670.873C1099.12 668.342 1097.11 666.396 1094.5 666.396C1091.89 666.396 1089.88 668.342 1089.88 670.873Z" fill="#263238"/>
<path opacity="0.3" d="M1273.97 699.099H1266.75V728.688H1273.97V699.099Z" fill="white"/>
<path opacity="0.3" d="M1261.53 699.099H1254.3V728.688H1261.53V699.099Z" fill="white"/>
<path opacity="0.3" d="M1249.08 699.099H1241.85V728.688H1249.08V699.099Z" fill="white"/>
<path opacity="0.3" d="M1236.63 699.099H1229.41V728.688H1236.63V699.099Z" fill="white"/>
<path opacity="0.3" d="M1224.19 699.099H1216.96V728.688H1224.19V699.099Z" fill="white"/>
<path opacity="0.3" d="M1211.74 699.099H1204.51V728.688H1211.74V699.099Z" fill="white"/>
<path opacity="0.3" d="M1199.29 699.099H1192.07V728.688H1199.29V699.099Z" fill="white"/>
<path opacity="0.3" d="M1186.85 699.099H1179.62V728.688H1186.85V699.099Z" fill="white"/>
<path opacity="0.3" d="M1174.4 699.099H1167.17V728.688H1174.4V699.099Z" fill="white"/>
<path opacity="0.3" d="M1161.95 699.099H1154.72V728.688H1161.95V699.099Z" fill="white"/>
<path opacity="0.3" d="M1149.51 699.099H1142.28V728.688H1149.51V699.099Z" fill="white"/>
<path opacity="0.3" d="M1137.06 699.099H1129.83V728.688H1137.06V699.099Z" fill="white"/>
<path opacity="0.3" d="M1124.61 699.099H1117.38V728.688H1124.61V699.099Z" fill="white"/>
<path opacity="0.3" d="M1112.16 699.099H1104.94V728.688H1112.16V699.099Z" fill="white"/>
<path d="M1089.88 707.469C1089.88 710 1091.89 711.947 1094.5 711.947C1097.11 711.947 1099.12 710 1099.12 707.469C1099.12 704.939 1097.11 702.992 1094.5 702.992C1091.89 702.992 1089.88 704.939 1089.88 707.469Z" fill="white"/>
<path opacity="0.3" d="M1089.88 720.512C1089.88 723.043 1091.89 724.989 1094.5 724.989C1097.11 724.989 1099.12 723.043 1099.12 720.512C1099.12 717.981 1097.11 716.035 1094.5 716.035C1091.89 716.035 1089.88 717.981 1089.88 720.512Z" fill="#263238"/>
<path d="M1235.43 210.689V222.953L1228 224.705C1227.4 226.846 1226.6 228.793 1225.39 230.74L1229.41 237.163L1220.57 245.729L1213.95 241.835C1211.94 242.809 1209.93 243.782 1207.72 244.366L1205.92 251.569H1193.27L1191.46 244.366C1189.25 243.782 1187.25 243.003 1185.24 241.835L1178.61 245.729L1169.78 237.163L1173.8 230.74C1172.79 228.793 1171.79 226.846 1171.19 224.705L1163.76 222.953V210.689L1171.19 208.937C1171.79 206.796 1172.59 204.849 1173.8 202.903L1169.78 196.479L1178.61 187.914L1185.24 191.807C1187.25 190.834 1189.25 189.86 1191.46 189.276L1193.27 182.074H1205.92L1207.72 189.276C1209.93 189.86 1211.94 190.639 1213.95 191.807L1220.57 187.914L1229.41 196.479L1225.39 202.903C1226.39 204.849 1227.4 206.796 1228 208.937L1235.43 210.689ZM1199.49 205.044C1192.87 205.044 1187.45 210.3 1187.45 216.724C1187.45 223.148 1192.87 228.404 1199.49 228.404C1206.12 228.404 1211.54 223.148 1211.54 216.724C1211.54 210.3 1206.12 205.044 1199.49 205.044Z" fill="#407BFF"/>
<path d="M1271.16 242.03L1268.55 248.259L1264.34 247.675C1263.53 248.649 1262.73 249.427 1261.73 250.206L1262.33 254.294L1255.91 256.825L1253.3 253.515C1252.09 253.71 1250.89 253.71 1249.68 253.515L1247.07 256.825L1240.65 254.294L1241.25 250.206C1240.25 249.427 1239.44 248.649 1238.64 247.675L1234.43 248.259L1231.82 242.03L1235.23 239.499C1235.03 238.331 1235.03 237.164 1235.23 235.996L1231.82 233.465L1234.43 227.236L1238.64 227.82C1239.44 226.846 1240.25 226.068 1241.25 225.289L1240.65 221.201L1247.07 218.671L1249.68 221.98C1250.89 221.785 1252.09 221.785 1253.3 221.98L1255.91 218.671L1262.33 221.201L1261.73 225.289C1262.73 226.068 1263.53 226.846 1264.34 227.82L1268.55 227.236L1271.16 233.465L1267.75 235.996C1267.95 237.164 1267.95 238.331 1267.75 239.499L1271.16 242.03Z" fill="#407BFF"/>
<path opacity="0.3" d="M1271.16 242.03L1268.55 248.259L1264.34 247.675C1263.53 248.649 1262.73 249.427 1261.73 250.206L1262.33 254.294L1255.91 256.825L1253.3 253.515C1252.09 253.71 1250.89 253.71 1249.68 253.515L1247.07 256.825L1240.65 254.294L1241.25 250.206C1240.25 249.427 1239.44 248.649 1238.64 247.675L1234.43 248.259L1231.82 242.03L1235.23 239.499C1235.03 238.331 1235.03 237.164 1235.23 235.996L1231.82 233.465L1234.43 227.236L1238.64 227.82C1239.44 226.846 1240.25 226.068 1241.25 225.289L1240.65 221.201L1247.07 218.671L1249.68 221.98C1250.89 221.785 1252.09 221.785 1253.3 221.98L1255.91 218.671L1262.33 221.201L1261.73 225.289C1262.73 226.068 1263.53 226.846 1264.34 227.82L1268.55 227.236L1271.16 233.465L1267.75 235.996C1267.95 237.164 1267.95 238.331 1267.75 239.499L1271.16 242.03Z" fill="white"/>
<path d="M1294.05 292.643H1139.87C1135.65 292.643 1132.04 289.333 1132.04 285.051C1132.04 280.963 1135.45 277.459 1139.87 277.459H1294.05C1298.27 277.459 1301.88 280.768 1301.88 285.051C1301.88 289.333 1298.47 292.643 1294.05 292.643Z" fill="#407BFF"/>
<path d="M1139.87 290.891C1136.66 290.891 1133.85 288.36 1133.85 285.051C1133.85 281.936 1136.46 279.211 1139.87 279.211H1194.27C1197.49 279.211 1200.3 281.741 1200.3 285.051C1200.3 288.165 1197.69 290.891 1194.27 290.891H1139.87Z" fill="white"/>
<path d="M1207.12 301.986L1216.96 311.525L1227 301.986H1207.12Z" fill="#407BFF"/>
<path d="M1354.27 793.316H1350.06C1344.84 793.316 1340.62 789.228 1340.62 784.167V755.551C1340.62 754.578 1339.82 753.8 1338.82 753.8H1330.38V751.853H1338.82C1341.02 751.853 1342.63 753.605 1342.63 755.551V784.167C1342.63 788.255 1346.04 791.37 1350.06 791.37H1354.27C1358.49 791.37 1361.7 788.06 1361.7 784.167V442.533C1361.7 440.392 1363.51 438.835 1365.52 438.835H1387.4V440.781H1365.52C1364.51 440.781 1363.71 441.56 1363.71 442.533V784.167C1363.71 789.228 1359.49 793.316 1354.27 793.316Z" fill="#407BFF"/>
<path d="M1537.36 441.754H1326.77V447.594H1537.36V441.754Z" fill="#407BFF"/>
<path opacity="0.2" d="M1395.83 441.754H1326.77V447.594H1395.83V441.754Z" fill="black"/>
<path d="M1445.02 447.594H1430.16V792.343H1445.02V447.594Z" fill="#407BFF"/>
<path opacity="0.2" d="M1445.02 447.594H1435.18H1430.16V457.327V792.343H1435.18V456.354L1445.02 454.408V447.594Z" fill="black"/>
<path d="M1490.19 357.271H1374.55C1370.54 357.271 1367.53 360.58 1368.13 364.473L1376.76 430.853C1377.36 434.747 1380.98 438.056 1385.19 438.056H1500.83C1504.84 438.056 1507.85 434.747 1507.25 430.853L1498.62 364.473C1498.02 360.385 1494.4 357.271 1490.19 357.271Z" fill="#0F264C"/>
<path d="M1526.52 437.667H1381.78C1379.37 437.667 1377.76 439.613 1377.96 441.755H1531.34C1531.14 439.613 1528.93 437.667 1526.52 437.667Z" fill="#407BFF"/>
<path opacity="0.2" d="M1416.11 437.667H1381.78C1379.37 437.667 1377.76 439.613 1377.96 441.755H1420.93C1420.73 439.613 1418.52 437.667 1416.11 437.667Z" fill="black"/>
<path opacity="0.9" d="M1386 433.968C1383.99 433.968 1381.98 432.216 1381.58 430.269L1372.95 363.889C1372.75 363.111 1372.95 362.332 1373.55 361.943C1373.95 361.359 1374.55 361.164 1375.36 361.164H1490.99C1493 361.164 1495.01 362.916 1495.41 364.863L1504.04 431.243C1504.24 432.021 1504.04 432.8 1503.44 433.189C1503.04 433.773 1502.43 433.968 1501.63 433.968H1386Z" fill="white"/>
<g opacity="0.5">
<path opacity="0.2" d="M1447.43 388.806L1448.63 396.203L1444.01 397.371C1443.81 398.539 1443.41 399.902 1443.01 401.07L1446.22 404.963L1441.4 410.219L1436.79 407.883C1435.58 408.467 1434.38 409.051 1433.17 409.44L1432.77 413.723H1424.74L1422.73 409.44C1421.33 409.051 1419.92 408.662 1418.52 407.883L1414.7 410.219L1408.08 404.963L1409.89 401.07C1409.08 399.902 1408.28 398.734 1407.68 397.566L1402.86 396.593L1401.66 389.195L1406.27 388.027C1406.47 386.859 1406.87 385.497 1407.28 384.329L1404.06 380.436L1408.88 375.18L1413.5 377.516C1414.5 376.932 1415.91 376.348 1417.11 375.958L1417.51 371.676H1425.55L1427.55 375.958C1428.96 376.348 1430.36 376.737 1431.77 377.516L1435.58 375.18L1442.21 380.436L1440.4 384.329C1441.2 385.497 1442.01 386.665 1442.61 387.833L1447.43 388.806ZM1424.14 385.497C1419.92 385.497 1417.11 388.611 1417.72 392.505C1418.32 396.398 1422.33 399.513 1426.55 399.513C1430.76 399.513 1433.58 396.398 1432.97 392.505C1432.37 388.611 1428.36 385.497 1424.14 385.497Z" fill="#407BFF"/>
</g>
<path opacity="0.2" d="M1473.52 407.688L1472.52 411.387L1469.71 410.998C1469.31 411.582 1468.91 412.166 1468.3 412.555L1469.11 415.086L1465.29 416.643L1463.28 414.696C1462.48 414.696 1461.68 414.696 1460.88 414.696L1459.67 416.643L1455.25 415.086V412.555C1454.65 412.166 1453.85 411.582 1453.25 410.998L1450.64 411.387L1448.23 407.688L1450.24 406.131C1450.04 405.353 1449.83 404.769 1449.83 403.99L1447.63 402.627L1448.63 398.929L1451.44 399.318C1451.84 398.734 1452.24 398.15 1452.85 397.761L1452.04 395.23L1455.86 393.673L1457.86 395.619C1458.67 395.619 1459.47 395.619 1460.27 395.619L1461.48 393.673L1465.89 395.23V397.761C1466.5 398.15 1467.3 398.734 1467.9 399.318L1470.51 398.929L1472.92 402.627L1470.91 404.185C1471.11 404.963 1471.32 405.547 1471.32 406.326L1473.52 407.688Z" fill="#407BFF"/>
<path d="M1569.68 270.84C1568.08 281.157 1567.07 299.845 1574.7 306.269C1574.7 306.269 1567.88 320.09 1550.41 328.266C1535.96 320.479 1541.98 307.826 1541.98 307.826C1553.62 304.517 1552.82 296.146 1550.41 288.36L1569.68 270.84Z" fill="#F5C9B2"/>
<path d="M1574.5 300.818C1574.1 300.818 1573.5 301.013 1573.1 301.013C1572.09 299.261 1570.29 298.093 1568.08 298.093C1566.47 298.093 1565.27 298.872 1564.26 299.845C1563.26 298.872 1561.85 298.288 1560.25 298.482C1558.44 298.482 1557.04 299.456 1556.03 300.624C1555.03 299.65 1553.62 299.261 1552.22 299.261C1550.01 299.261 1548.4 300.624 1547.4 302.181C1546.6 301.792 1545.79 301.597 1544.99 301.597C1541.98 301.792 1539.57 304.128 1539.57 307.242C1539.77 310.162 1542.18 312.498 1545.39 312.498C1547.6 312.498 1549.21 311.135 1550.21 309.578C1551.01 309.967 1551.82 310.162 1552.62 310.162C1554.43 310.162 1555.83 309.189 1556.84 308.021C1557.84 308.994 1559.24 309.384 1560.65 309.384C1562.26 309.384 1563.46 308.605 1564.46 307.632C1565.47 308.605 1566.87 309.189 1568.48 308.994C1568.88 308.994 1569.48 308.8 1569.88 308.8C1570.89 310.551 1572.69 311.719 1574.9 311.719C1577.91 311.525 1580.32 309.189 1580.32 306.074C1580.12 303.154 1577.71 300.818 1574.5 300.818Z" fill="white"/>
<path opacity="0.5" d="M1574.5 300.818C1574.1 300.818 1573.5 301.013 1573.1 301.013C1572.09 299.261 1570.29 298.093 1568.08 298.093C1566.47 298.093 1565.27 298.872 1564.26 299.845C1563.26 298.872 1561.85 298.288 1560.25 298.482C1558.44 298.482 1557.04 299.456 1556.03 300.624C1555.03 299.65 1553.62 299.261 1552.22 299.261C1550.01 299.261 1548.4 300.624 1547.4 302.181C1546.6 301.792 1545.79 301.597 1544.99 301.597C1541.98 301.792 1539.57 304.128 1539.57 307.242C1539.77 310.162 1542.18 312.498 1545.39 312.498C1547.6 312.498 1549.21 311.135 1550.21 309.578C1551.01 309.967 1551.82 310.162 1552.62 310.162C1554.43 310.162 1555.83 309.189 1556.84 308.021C1557.84 308.994 1559.24 309.384 1560.65 309.384C1562.26 309.384 1563.46 308.605 1564.46 307.632C1565.47 308.605 1566.87 309.189 1568.48 308.994C1568.88 308.994 1569.48 308.8 1569.88 308.8C1570.89 310.551 1572.69 311.719 1574.9 311.719C1577.91 311.525 1580.32 309.189 1580.32 306.074C1580.12 303.154 1577.71 300.818 1574.5 300.818Z" fill="#407BFF"/>
<path d="M1524.11 264.222C1524.52 265.584 1524.11 266.752 1523.31 267.142C1522.51 267.336 1521.3 266.558 1520.9 265.195C1520.5 263.832 1520.9 262.664 1521.7 262.275C1522.51 261.886 1523.71 262.859 1524.11 264.222Z" fill="#263238"/>
<path d="M1522.11 262.08H1518.49C1518.69 262.08 1521.1 264.222 1522.11 262.08Z" fill="#263238"/>
<path d="M1519.7 256.824C1519.5 256.824 1519.3 256.824 1519.09 256.63C1518.69 256.435 1518.69 255.851 1518.89 255.462C1521.7 251.958 1525.52 252.153 1525.72 252.153C1526.12 252.153 1526.52 252.542 1526.52 252.931C1526.52 253.321 1526.12 253.71 1525.72 253.71C1525.52 253.71 1522.51 253.515 1520.3 256.435C1520.1 256.63 1519.9 256.824 1519.7 256.824Z" fill="#263238"/>
<path d="M1526.12 268.115C1526.12 268.115 1525.52 274.539 1523.91 278.043C1526.32 279.211 1529.13 277.459 1529.13 277.459L1526.12 268.115Z" fill="#ED847E"/>
<path d="M1568.88 245.339C1572.9 261.886 1574.91 268.894 1568.88 279.795C1559.85 296.146 1537.97 297.12 1528.93 281.936C1520.9 268.31 1515.68 243.393 1530.34 232.102C1544.59 221.201 1564.87 228.793 1568.88 245.339Z" fill="#F5C9B2"/>
<path d="M1535.56 261.302C1536.56 254.878 1527.53 262.859 1525.32 253.32C1523.91 247.675 1517.09 248.843 1518.69 240.083C1520.3 231.324 1527.73 231.908 1528.53 228.598C1529.94 222.953 1533.75 220.033 1539.77 218.67C1549.21 216.529 1551.22 224.9 1558.64 222.758C1565.67 220.812 1575.51 222.369 1578.92 229.182C1582.53 236.19 1576.91 243.977 1580.53 247.286C1587.35 253.515 1589.56 265.195 1581.53 273.371C1575.51 279.6 1584.54 283.493 1577.92 286.997C1571.09 290.306 1562.86 290.112 1559.45 281.547C1557.24 275.707 1532.55 281.352 1535.56 261.302Z" fill="#445465"/>
<path d="M1538.37 261.496C1539.37 264.806 1538.77 268.504 1537.36 271.035C1535.16 274.928 1530.94 273.76 1528.73 270.062C1526.92 266.752 1525.72 260.912 1529.33 258.187C1532.75 255.656 1537.16 257.603 1538.37 261.496Z" fill="#F5C9B2"/>
<path d="M1590.36 330.602C1587.15 342.476 1583.54 353.767 1579.52 365.057C1577.51 370.702 1575.31 376.348 1572.9 381.993C1571.69 384.718 1570.49 387.638 1569.28 390.363L1567.28 394.451L1565.27 398.734L1564.26 400.875L1562.66 403.406C1561.65 404.963 1560.45 406.326 1559.25 407.688C1556.84 410.414 1554.23 412.75 1551.62 414.696C1546.2 418.784 1540.58 422.094 1534.75 424.819C1523.11 430.269 1511.27 433.968 1498.62 436.304L1496.41 427.933C1501.83 425.987 1507.45 423.651 1512.67 421.12C1518.09 418.59 1523.31 416.059 1528.13 413.139C1537.76 407.299 1547 400.291 1550.21 391.726L1551.82 387.833L1553.42 383.745C1554.43 381.02 1555.43 378.294 1556.64 375.569C1558.64 370.118 1560.65 364.668 1562.46 359.023C1566.07 347.927 1569.68 336.636 1572.9 325.735L1590.36 330.602Z" fill="#F5C9B2"/>
<path d="M1500.62 426.96L1485.17 424.429L1487.58 438.25C1487.58 438.25 1501.43 439.029 1505.84 433.384L1500.62 426.96Z" fill="#F5C9B2"/>
<path d="M1473.52 430.853L1471.92 437.666L1487.57 438.25L1485.17 424.429L1473.52 430.853Z" fill="#F5C9B2"/>
<path d="M1514.88 320.674C1514.68 333.132 1517.69 361.553 1530.34 414.696L1597.39 410.608C1594.58 385.886 1593.77 371.481 1600.6 328.266C1602.41 316.391 1593.37 305.295 1580.93 304.712C1580.53 304.712 1580.12 304.712 1579.72 304.712C1567.68 304.128 1557.64 303.738 1547 304.712C1539.97 305.295 1532.34 306.463 1526.72 307.437C1519.9 308.605 1514.88 314.055 1514.88 320.674Z" fill="#F6AC3B"/>
<path d="M1572.9 290.696C1580.73 303.933 1539.77 319.506 1567.07 325.93C1594.38 332.354 1569.08 337.026 1574.7 355.129C1579.52 370.897 1600.8 350.068 1593.77 331.38C1585.74 309.967 1602.81 309.967 1582.53 290.501C1574.9 282.909 1572.9 290.696 1572.9 290.696Z" fill="#445465"/>
<path d="M1581.13 291.669L1575.91 292.058C1572.9 292.253 1569.48 290.307 1568.48 287.776C1567.47 285.245 1569.08 282.909 1572.29 282.52L1577.51 282.131C1580.52 281.936 1583.94 283.883 1584.94 286.413C1585.74 288.944 1584.14 291.28 1581.13 291.669Z" fill="#C58A2F"/>
<path opacity="0.2" d="M1528.93 325.541L1516.69 345.007C1517.69 352.209 1519.09 360.969 1520.9 371.092L1529.73 366.03C1533.95 335.274 1528.93 325.541 1528.93 325.541Z" fill="black"/>
<path d="M1531.14 330.602C1528.13 342.087 1524.51 353.377 1520.5 364.473C1518.49 370.118 1516.48 375.569 1514.07 381.019C1512.87 383.745 1511.67 386.47 1510.46 389.195C1509.26 391.921 1508.05 394.646 1506.65 397.371L1505.64 399.512C1505.24 400.291 1505.04 400.875 1504.44 401.654C1503.84 402.432 1503.43 403.406 1502.83 403.99L1501.23 406.131C1499.02 408.856 1496.61 411.387 1494 413.528C1488.78 417.811 1483.16 421.12 1477.54 423.845C1466.09 429.296 1454.25 432.8 1442 434.941L1440 426.376C1445.22 424.429 1450.84 422.288 1456.06 419.952C1461.28 417.616 1466.29 414.891 1471.11 412.166C1475.73 409.246 1480.15 406.131 1483.96 402.627C1485.77 400.875 1487.37 398.928 1488.78 397.177L1489.78 395.814C1490.18 395.425 1490.18 394.841 1490.59 394.451C1490.79 394.062 1491.19 393.283 1491.39 392.699L1492.19 390.753C1496.61 380.435 1500.42 369.729 1504.04 358.828C1507.65 347.927 1511.06 337.026 1514.07 326.124L1531.14 330.602Z" fill="#F5C9B2"/>
<path d="M1533.15 321.453C1530.14 314.445 1523.11 308.41 1523.11 308.41C1511.27 313.666 1507.05 319.311 1500.22 352.209C1510.06 360.58 1526.52 360.58 1526.52 360.58L1535.36 338.388C1535.36 338.583 1536.16 328.46 1533.15 321.453Z" fill="#F6AC3B"/>
<path d="M1441.4 426.96L1426.14 425.013L1430.76 437.472C1430.76 437.472 1442 439.224 1446.42 433.384L1441.4 426.96Z" fill="#F5C9B2"/>
<path d="M1418.11 430.853L1413.7 437.666L1430.76 437.472L1426.14 425.013L1418.11 430.853Z" fill="#F5C9B2"/>
<path d="M1532.34 414.696C1532.34 414.696 1523.91 534.998 1522.51 593.008C1522.31 600.016 1523.71 607.023 1526.72 613.642C1553.42 674.572 1607.23 741.536 1607.23 741.536L1618.07 731.024C1618.07 731.024 1582.33 653.353 1557.84 595.149C1572.29 537.529 1581.53 411.776 1581.53 411.776L1532.34 414.696Z" fill="#F5C9B2"/>
<path opacity="0.2" d="M1603.81 699.878C1594.98 680.217 1583.14 653.937 1571.89 627.852L1571.69 691.312C1571.69 692.286 1572.09 693.259 1572.7 694.232C1588.36 717.203 1601.81 734.917 1606.02 740.173L1603.81 699.878Z" fill="black"/>
<path d="M1544.19 414.112C1544.19 414.112 1555.83 538.113 1565.67 589.698C1575.91 643.815 1583.74 773.071 1583.94 776.964H1596.18C1596.18 776.964 1613.05 631.746 1597.39 583.274C1594.78 523.902 1597.39 410.803 1597.39 410.803L1544.19 414.112Z" fill="#F5C9B2"/>
<path d="M1603.21 738.616L1616.26 727.52C1616.86 727.131 1617.67 726.936 1618.07 727.52L1629.91 737.642C1631.12 738.616 1631.12 740.757 1629.71 741.925C1624.29 746.402 1623.89 746.402 1617.06 752.047C1612.85 755.551 1606.22 761.586 1600.6 766.453C1594.98 771.319 1589.76 766.258 1591.77 763.727C1600.6 752.242 1600.6 747.57 1601.6 741.536C1601.81 740.368 1602.21 739.394 1603.21 738.616Z" fill="#263238"/>
<path d="M1582.33 774.628H1596.39C1597.19 774.628 1597.79 775.212 1597.79 775.796L1599.8 791.37C1600 792.927 1598.59 794.484 1596.79 794.484C1589.76 794.289 1592.57 793.9 1583.74 793.9C1578.32 793.9 1570.29 794.484 1562.66 794.484C1555.23 794.484 1554.83 787.282 1558.04 786.503C1572.09 783.583 1574.5 779.495 1579.32 775.602C1580.32 775.018 1581.33 774.628 1582.33 774.628Z" fill="#263238"/>
<path d="M1530.14 414.891L1516.69 594.37L1603.81 571.595C1596.18 497.428 1624.29 447.789 1597.19 410.803L1530.14 414.891Z" fill="#6F7B88"/>
<path d="M1598.59 413.918L1529.94 418.784C1529.33 418.784 1528.73 418.395 1528.73 417.811L1528.53 414.696C1528.53 414.112 1528.93 413.528 1529.53 413.528L1597.79 408.856C1598.39 408.856 1598.79 409.246 1599 409.635L1599.8 412.555C1599.8 413.139 1599.4 413.918 1598.59 413.918Z" fill="#407BFF"/>
<path opacity="0.7" d="M1598.59 413.918L1529.94 418.784C1529.33 418.784 1528.73 418.395 1528.73 417.811L1528.53 414.696C1528.53 414.112 1528.93 413.528 1529.53 413.528L1597.79 408.856C1598.39 408.856 1598.79 409.246 1599 409.635L1599.8 412.555C1599.8 413.139 1599.4 413.918 1598.59 413.918Z" fill="#C58A2F"/>
<path opacity="0.2" d="M1589.16 450.709C1589.16 450.709 1576.51 465.503 1554.23 475.82C1576.71 472.9 1586.15 463.946 1589.16 450.709Z" fill="black"/>
</svg>
