<svg width="798" height="600" viewBox="0 0 798 600" fill="none" xmlns="http://www.w3.org/2000/svg">
<g clip-path="url(#clip0)">
<path d="M550.5 334.173C548.7 327.673 540.2 328.273 540.2 328.273L540.4 332.773C545.3 331.973 548.4 337.673 548.4 337.673L550.5 334.173Z" fill="#E0E0E0"/>
<path d="M675.2 258.673C685 261.673 691.2 250.273 691.2 250.273L685.2 246.873C682.3 253.873 672.4 253.073 672.4 253.073L675.2 258.673Z" fill="#E0E0E0"/>
<path d="M756.9 319.673C755 314.273 747.8 315.273 747.8 315.273L748.2 319.073C752.3 318.073 755.2 322.773 755.2 322.773L756.9 319.673Z" fill="#E0E0E0"/>
<path d="M644 192.473C642.1 187.073 634.9 188.073 634.9 188.073L635.3 191.873C639.4 190.873 642.3 195.573 642.3 195.573L644 192.473Z" fill="#E0E0E0"/>
<path d="M558.6 261.973C556.7 256.573 549.5 257.573 549.5 257.573L549.9 261.373C554 260.373 556.9 265.073 556.9 265.073L558.6 261.973Z" fill="#EBEBEB"/>
<path d="M540.7 211.173C535 212.073 534.7 219.273 534.7 219.273L538.6 219.473C538.4 215.273 543.5 213.273 543.5 213.273L540.7 211.173Z" fill="#EBEBEB"/>
<path d="M499.8 380.173C509.7 383.173 515.8 371.773 515.8 371.773L509.8 368.373C506.9 375.373 497 374.573 497 374.573L499.8 380.173Z" fill="#EBEBEB"/>
<path d="M780.4 259.373C781.1 254.773 775.6 252.873 775.6 252.873L774.5 255.773C777.8 256.573 778.1 260.973 778.1 260.973L780.4 259.373Z" fill="#E0E0E0"/>
<path d="M747.7 209.273C743.9 211.773 746 217.173 746 217.173L748.9 216.073C747.3 213.073 750.4 209.873 750.4 209.873L747.7 209.273Z" fill="#EBEBEB"/>
<path d="M0.499954 334.173C-1.30005 327.673 -9.80005 328.273 -9.80005 328.273L-9.60005 332.773C-4.70005 331.973 -1.60005 337.673 -1.60005 337.673L0.499954 334.173Z" fill="#E0E0E0"/>
<path d="M125.2 258.673C135 261.673 141.2 250.273 141.2 250.273L135.2 246.873C132.3 253.873 122.4 253.073 122.4 253.073L125.2 258.673Z" fill="#E0E0E0"/>
<path d="M206.9 319.673C205 314.273 197.8 315.273 197.8 315.273L198.2 319.073C202.3 318.073 205.2 322.773 205.2 322.773L206.9 319.673Z" fill="#E0E0E0"/>
<path d="M93.9999 192.473C92.0999 187.073 84.8999 188.073 84.8999 188.073L85.2999 191.873C89.3999 190.873 92.2999 195.573 92.2999 195.573L93.9999 192.473Z" fill="#E0E0E0"/>
<path d="M8.6 261.973C6.7 256.573 -0.5 257.573 -0.5 257.573L-0.100006 261.373C3.99999 260.373 6.89999 265.073 6.89999 265.073L8.6 261.973Z" fill="#EBEBEB"/>
<path d="M230.4 259.373C231.1 254.773 225.6 252.873 225.6 252.873L224.5 255.773C227.8 256.573 228.1 260.973 228.1 260.973L230.4 259.373Z" fill="#E0E0E0"/>
<path d="M197.7 209.273C193.9 211.773 196 217.173 196 217.173L198.9 216.073C197.3 213.073 200.4 209.873 200.4 209.873L197.7 209.273Z" fill="#EBEBEB"/>
<path d="M679.1 595.2C679.1 595.3 576.5 595.5 450 595.5C323.5 595.5 220.9 595.4 220.9 595.2C220.9 595 323.4 594.9 450 594.9C576.5 594.9 679.1 595 679.1 595.2Z" fill="#263238"/>
<path d="M481.7 291.8H237.8V482.7H481.7V291.8Z" fill="#FAFAFA"/>
<path d="M481.6 482.7C481.6 480.9 481.5 407 481.4 291.8L481.6 292C412.1 292 328.2 292 237.8 292L238.1 291.7C238.1 360.5 238.1 425.6 238.1 482.6L237.9 482.4C382.5 482.6 479.6 482.7 481.6 482.7C479.6 482.7 382.5 482.8 237.7 482.9H237.5V482.7C237.5 425.7 237.5 360.6 237.5 291.8V291.5H237.8C328.2 291.5 412.1 291.5 481.6 291.5H481.8V291.7C481.7 407 481.6 480.9 481.6 482.7Z" fill="#263238"/>
<path d="M395.9 456.7H323.4C315.1 456.7 308.4 450 308.4 441.7C308.4 433.4 315.1 426.7 323.4 426.7H395.9C404.2 426.7 410.9 433.4 410.9 441.7C411 450 404.2 456.7 395.9 456.7Z" fill="#E39D29"/>
<path d="M395.9 456.7H323.4C315.1 456.7 308.4 450 308.4 441.7C308.4 433.4 315.1 426.7 323.4 426.7H395.9C404.2 426.7 410.9 433.4 410.9 441.7C411 450 404.2 456.7 395.9 456.7Z" fill="url(#paint0_linear)"/>
<path d="M361.7 365C351 365 342.3 356.3 342.3 345.6C342.3 334.9 351 326.2 361.7 326.2C372.4 326.2 381.1 334.9 381.1 345.6C381.1 356.3 372.4 365 361.7 365ZM361.7 328.2C352.1 328.2 344.3 336 344.3 345.6C344.3 355.2 352.1 363 361.7 363C371.3 363 379.1 355.2 379.1 345.6C379.1 336 371.3 328.2 361.7 328.2Z" fill="#E39D29"/>
<path d="M360.3 351.6C360.1 351.6 359.8 351.5 359.6 351.4C357.9 349.9 355 347.3 354.6 346.8C354.3 346.3 354.4 345.7 354.9 345.4C355.4 345.1 356 345.2 356.3 345.7C356.6 346 358.4 347.7 360.3 349.4L370.1 340.1C370.5 339.7 371.1 339.7 371.5 340.1C371.9 340.5 371.9 341.1 371.5 341.5L361 351.4C360.8 351.5 360.5 351.6 360.3 351.6Z" fill="#E39D29"/>
<path d="M481.6 310.5C481.6 310.6 427.1 310.8 360 310.8C292.8 310.8 238.4 310.7 238.4 310.5C238.4 310.3 292.8 310.2 360 310.2C427.2 310.2 481.6 310.3 481.6 310.5Z" fill="#263238"/>
<path d="M246.4 302.3C247.173 302.3 247.8 301.673 247.8 300.9C247.8 300.127 247.173 299.5 246.4 299.5C245.627 299.5 245 300.127 245 300.9C245 301.673 245.627 302.3 246.4 302.3Z" fill="#263238"/>
<path d="M251.7 302.3C252.473 302.3 253.1 301.673 253.1 300.9C253.1 300.127 252.473 299.5 251.7 299.5C250.927 299.5 250.3 300.127 250.3 300.9C250.3 301.673 250.927 302.3 251.7 302.3Z" fill="#263238"/>
<path d="M258.3 300.9C258.3 301.7 257.7 302.3 256.9 302.3C256.1 302.3 255.5 301.7 255.5 300.9C255.5 300.1 256.1 299.5 256.9 299.5C257.6 299.5 258.3 300.1 258.3 300.9Z" fill="#263238"/>
<path d="M641.868 419.7C641.868 419.7 653.968 412.3 656.768 414.5C660.668 417.6 662.068 422.9 662.068 422.9C662.068 422.9 668.468 398.5 674.568 399.4C678.068 399.9 676.368 402.7 674.768 406.1C673.268 409.3 670.768 421 670.768 421C670.768 421 682.368 407.2 685.768 407.5C688.368 407.7 688.768 410 684.968 413.7C681.168 417.4 674.868 429.1 674.868 429.1C674.868 429.1 682.968 421.5 686.368 421.5C689.068 421.5 690.768 423.3 687.268 426.3C683.768 429.3 678.568 431.6 675.768 437C672.368 443.7 664.968 460.4 664.968 460.4L639.268 451.3C639.268 451.3 635.068 434.2 634.868 430.1C634.868 430.1 635.268 421.3 635.168 419.8C635.168 418.2 639.268 417.8 640.468 420.8C641.768 423.8 641.168 426.9 641.668 428.9C642.168 430.9 643.068 432.7 644.568 433.6C646.068 434.5 649.768 434.6 650.668 433.5C651.568 432.4 652.768 429.2 652.968 427.2C653.168 425.2 652.868 422.1 652.868 422.1C652.868 422.1 642.368 426.5 641.868 419.7Z" fill="#FFBE9D"/>
<path d="M352.868 499.3L334.968 492.6C334.968 492.6 316.768 481.9 313.368 485.7C313.368 485.7 309.768 484 308.168 487.8C307.268 490 310.268 493.3 310.268 493.3C310.268 493.3 309.268 494.3 310.868 497.5C312.368 500.8 329.668 511.1 329.668 511.1C329.668 511.1 352.168 523.3 361.168 529.2L376.868 507.9L374.668 507.1C374.668 507.1 373.368 496.5 369.068 493.6C364.368 490.5 358.668 482.2 357.368 478.9C356.068 475.6 350.068 477.1 351.068 483.9C352.068 490.7 357.368 492.4 356.868 497C356.368 501.6 352.868 499.3 352.868 499.3Z" fill="#FFBE9D"/>
<path d="M325.468 501.8C325.368 501.9 321.868 500.1 317.668 497.7C313.468 495.3 310.068 493.3 310.168 493.2C310.268 493.1 313.768 494.9 317.968 497.3C322.168 499.6 325.468 501.7 325.468 501.8Z" fill="#EB996E"/>
<path d="M334.169 496.8C334.169 496.9 332.869 496.4 330.969 495.5C328.969 494.6 326.369 493.4 323.469 491.9C320.569 490.4 317.969 488.9 316.269 487.8C315.369 487.2 314.669 486.7 314.169 486.4C313.669 486 313.469 485.8 313.469 485.8C313.469 485.7 314.569 486.5 316.469 487.5C318.269 488.6 320.869 490 323.769 491.5C326.669 493 329.269 494.2 331.269 495.2C333.069 496.1 334.169 496.7 334.169 496.8Z" fill="#EB996E"/>
<path d="M337.968 506.6C337.968 506.6 337.368 506.3 336.368 505.7C335.268 505.1 333.868 504.2 332.168 503.2V503.1C331.368 501.4 330.368 499.4 329.168 497.3C328.568 496.3 327.868 495.2 326.868 494.3C325.968 493.4 324.468 493.3 323.368 494C323.168 494.1 322.868 494.4 322.768 494.5V494.6L322.868 494.8C322.868 494.9 322.968 495.1 323.068 495.2C323.268 495.8 323.568 496.4 323.768 497C324.268 498.2 324.668 499.3 325.168 500.3C326.068 502.4 326.868 504.4 327.568 506.1V506C329.068 507.7 330.268 509.1 331.168 510.2C331.568 510.7 331.868 511.1 332.168 511.4C332.368 511.7 332.468 511.8 332.468 511.8C332.468 511.8 332.268 511.7 332.068 511.4C331.768 511.1 331.468 510.7 331.068 510.3C330.168 509.3 328.868 507.9 327.368 506.2C326.668 504.5 325.768 502.6 324.868 500.5C324.468 499.4 323.968 498.3 323.468 497.2C323.268 496.6 322.968 496 322.768 495.4C322.668 495.2 322.668 495.1 322.568 494.9L322.468 494.7C322.468 494.6 322.468 494.5 322.368 494.3C322.468 494 322.568 493.9 322.768 493.8C322.868 493.7 323.068 493.6 323.168 493.5C323.768 493.1 324.568 492.9 325.368 492.9C326.168 492.9 326.768 493.3 327.368 493.8C328.368 494.8 329.068 495.9 329.768 496.9C331.068 499 331.968 501.1 332.768 502.8L332.668 502.7C334.368 503.8 335.768 504.7 336.768 505.4C337.468 506.2 337.968 506.6 337.968 506.6Z" fill="#EB996E"/>
<path d="M355.868 506.8C355.868 506.9 354.969 506.6 353.669 506.3C352.369 505.9 350.469 505.4 348.368 505.4C346.268 505.4 344.469 505.9 343.269 506.6C342.069 507.3 341.569 508 341.469 508C341.469 508 341.869 507.2 343.069 506.3C344.269 505.5 346.168 504.8 348.368 504.8C350.568 504.9 352.469 505.4 353.769 505.9C355.069 506.4 355.868 506.7 355.868 506.8Z" fill="#EB996E"/>
<path d="M354.468 502.1C354.568 502.2 354.168 503 353.668 504C353.268 505 352.968 505.8 352.768 505.8C352.668 505.8 352.668 504.8 353.168 503.8C353.768 502.7 354.368 502 354.468 502.1Z" fill="#EB996E"/>
<path d="M457.568 417.1C458.768 408.7 468.568 396.6 477.268 396.6C472.268 389.4 472.168 379.2 477.068 372C480.368 367 485.868 363.3 488.068 357.7C490.668 351.4 488.668 344.3 488.968 337.5C489.368 327.6 494.468 318.5 499.468 309.9C504.068 302 509.668 293.4 518.768 291.4C524.468 290.2 530.468 292 535.868 294.3C561.568 305.3 581.668 328.4 588.468 355.1C590.068 361.5 591.169 368.4 595.669 373.3C600.368 378.5 608.669 381.4 610.068 388.2C611.068 393.1 607.968 398 608.368 403C608.768 407.2 616.568 419.3 618.368 423.1C621.468 429.6 620.368 436.7 617.169 443.2C613.969 449.7 605.968 456.1 598.868 457.9L519.068 431.3C511.568 435.6 504.068 452.1 495.468 453.1C486.868 454.1 476.368 457.9 468.068 448.8C459.368 439.4 456.268 425.5 457.568 417.1Z" fill="#263238"/>
<path d="M589.868 337.7C588.968 344.4 590.768 355.4 594.468 361.1C596.868 364.9 600.968 367.4 605.068 369.6C609.068 371.8 613.368 373.9 616.368 377.3C619.468 380.7 621.068 385.8 619.068 389.8C626.268 392.5 629.468 401.6 626.868 408.7C624.268 415.8 616.968 420.5 609.468 422L576.568 412.1L569.368 370.1L588.368 337.7" fill="#263238"/>
<path d="M593.868 380.5C593.868 380.5 594.068 380.6 594.468 380.8C594.868 381 595.568 381.3 596.268 381.7C597.768 382.6 599.868 384.1 602.068 386.5C603.168 387.7 604.168 389.1 605.168 390.8C606.068 392.5 606.968 394.3 607.568 396.4C608.868 400.5 609.168 405.5 607.668 410.4L607.568 410.1C609.468 411.2 611.268 412.5 612.968 414.2C617.168 418.4 619.568 423.8 620.168 428.9C620.768 434 619.468 438.6 617.768 442.1C616.068 445.6 613.968 447.9 612.368 449.4C611.568 450.1 610.968 450.6 610.468 451C609.968 451.3 609.768 451.5 609.768 451.5C609.768 451.5 609.968 451.3 610.468 450.9C610.868 450.6 611.568 450 612.268 449.3C613.768 447.8 615.868 445.5 617.468 442C619.068 438.6 620.268 434 619.668 429C619.068 424 616.668 418.7 612.568 414.7C610.968 413.1 609.168 411.7 607.368 410.7L607.168 410.6L607.268 410.4C608.668 405.6 608.468 400.7 607.268 396.7C606.668 394.6 605.868 392.8 604.968 391.2C604.068 389.6 603.068 388.1 601.968 387C599.868 384.6 597.868 383 596.368 382.1C595.668 381.6 594.968 381.3 594.668 381.1C594.068 380.7 593.868 380.5 593.868 380.5Z" fill="#455A64"/>
<path d="M496.568 424C496.568 424 481.868 428.5 476.668 436C473.068 441.3 435.668 522.2 435.668 522.2L378.968 505.2L358.668 532L421.768 567C433.468 573.5 447.668 573.4 459.268 566.8C465.768 563.1 470.968 557.7 474.368 551.1L490.368 520.4L496.568 424Z" fill="#F6AC3B"/>
<path d="M481.468 600.1L490.368 562L483.668 534.3C479.368 520 475.668 496.8 480.368 478.1L496.068 424.3L513.268 416.4L552.668 409.6C554.168 410.1 593.868 421.3 593.868 421.3C599.368 422.6 601.568 423.5 601.568 423.5L606.168 453L592.468 501.6L586.468 550L599.568 600.3H481.468V600.1Z" fill="#F6AC3B"/>
<path d="M504.268 420.5L515.668 415.4L567.168 416.1L579.368 423.2C579.368 423.2 536.768 470.2 526.068 471.8C499.268 475.6 504.268 420.5 504.268 420.5Z" fill="#FFBE9D"/>
<path d="M600.468 423C600.468 423 608.168 424.7 614.768 438.9C621.368 453 632.068 492.3 632.068 492.3L636.668 450.7L673.968 454.8L666.768 554.3C666.768 554.3 653.568 573.4 631.468 571.7C609.368 569.9 581.368 500.2 581.368 500.2L600.468 423Z" fill="#F6AC3B"/>
<path d="M626.368 543.2C626.368 543.2 626.368 543.1 626.368 543C626.368 542.8 626.368 542.6 626.368 542.3C626.368 541.6 626.468 540.7 626.568 539.6C626.668 537.2 626.968 533.8 627.368 529.7C628.168 521.3 629.568 509.8 631.268 497C632.968 484.3 634.468 472.7 635.368 464.3C635.768 460.1 636.168 456.7 636.368 454.4C636.468 453.3 636.568 452.4 636.668 451.7C636.668 451.4 636.768 451.2 636.768 451C636.768 450.8 636.768 450.8 636.768 450.8C636.768 450.8 636.768 450.9 636.768 451C636.768 451.2 636.768 451.4 636.768 451.7C636.768 452.4 636.668 453.3 636.568 454.4C636.468 456.8 636.168 460.2 635.768 464.3C634.968 472.7 633.568 484.2 631.868 497C630.168 509.7 628.668 521.3 627.768 529.6C627.368 533.8 626.968 537.2 626.768 539.5C626.668 540.6 626.568 541.5 626.468 542.2C626.468 542.5 626.368 542.7 626.368 542.9C626.368 543.1 626.368 543.2 626.368 543.2Z" fill="#263238"/>
<path d="M436.368 543.6C436.368 543.6 436.168 543.3 435.968 542.9C435.768 542.4 435.468 541.7 435.068 540.8C434.368 539 433.768 536.3 433.468 533.3C433.168 530.3 433.368 527.6 433.668 525.7C433.768 524.7 433.968 524 434.068 523.4C434.168 522.9 434.268 522.6 434.368 522.6C434.468 522.6 434.268 523.8 434.068 525.7C433.868 527.6 433.768 530.3 434.068 533.2C434.368 536.1 434.968 538.7 435.568 540.6C435.968 542.5 436.368 543.6 436.368 543.6Z" fill="#263238"/>
<path d="M442.569 544.6C442.569 544.6 442.269 544.4 441.869 543.9C441.469 543.4 440.969 542.7 440.269 541.7C439.069 539.8 437.569 537 436.369 533.7C435.269 530.4 434.669 527.3 434.469 525C434.369 523.9 434.269 522.9 434.269 522.3C434.269 521.7 434.269 521.3 434.369 521.3C434.469 521.3 434.569 522.7 434.869 524.9C435.169 527.1 435.769 530.2 436.969 533.5C438.069 536.8 439.569 539.5 440.669 541.5C441.869 543.4 442.669 544.5 442.569 544.6Z" fill="#263238"/>
<path d="M486.669 455.6C486.669 455.6 486.668 455.9 486.468 456.4C486.268 457 486.068 457.7 485.868 458.7C485.268 460.7 484.468 463.6 483.468 467.1C481.568 474.2 478.868 484 477.568 495.2C476.968 500.8 476.768 506.1 477.368 511C477.868 515.8 478.968 520.1 479.968 523.6C481.068 527.1 482.069 529.9 482.669 531.9C482.969 532.8 483.268 533.6 483.468 534.1C483.668 534.6 483.769 534.9 483.669 534.9C483.669 534.9 483.568 534.6 483.368 534.1C483.168 533.6 482.868 532.8 482.468 531.9C481.768 530 480.668 527.2 479.568 523.7C478.468 520.2 477.368 515.9 476.768 511C476.168 506.1 476.268 500.7 476.968 495.1C478.268 483.9 481.068 474 483.068 467C484.068 463.5 484.968 460.6 485.568 458.7C485.868 457.8 486.068 457 486.268 456.4C486.568 455.9 486.669 455.6 486.669 455.6Z" fill="#263238"/>
<path d="M590.969 521.2C590.969 521.2 590.869 521.1 590.869 521C590.769 520.8 590.669 520.6 590.569 520.3C590.269 519.6 589.869 518.7 589.269 517.4C588.669 516.2 587.969 514.6 587.269 512.8C586.569 511 585.769 508.9 584.869 506.7C583.969 504.4 583.169 501.9 582.169 499.2C581.769 497.8 581.269 496.4 580.869 494.9C580.669 494.2 580.369 493.4 580.169 492.7C579.969 491.9 579.769 491.2 579.569 490.4C577.869 484.2 576.469 477.2 576.069 469.7C575.569 462.2 576.369 455 578.269 448.8C580.069 442.5 583.169 437.4 586.569 433.8C589.869 430.2 593.369 428.1 595.869 427C597.169 426.5 598.169 426.1 598.869 425.9C599.169 425.8 599.469 425.7 599.669 425.7C599.869 425.7 599.969 425.6 599.969 425.6C599.969 425.6 599.869 425.6 599.669 425.7C599.469 425.8 599.169 425.9 598.869 426C598.169 426.2 597.169 426.6 595.969 427.2C593.569 428.4 590.069 430.5 586.869 434.1C583.569 437.7 580.569 442.8 578.769 448.9C576.869 455.1 576.269 462.2 576.669 469.6C577.069 477 578.469 484 580.169 490.2C580.369 491 580.569 491.7 580.769 492.5C580.969 493.3 581.169 494 581.469 494.7C581.869 496.2 582.369 497.6 582.769 499C583.769 501.7 584.569 504.2 585.369 506.5C586.269 508.8 587.069 510.8 587.769 512.6C588.469 514.4 589.169 515.9 589.669 517.2C590.169 518.4 590.569 519.4 590.869 520.1C590.969 520.4 591.069 520.7 591.169 520.9C590.869 521.1 590.969 521.2 590.969 521.2Z" fill="#263238"/>
<g opacity="0.3">
<g opacity="0.3">
<path opacity="0.3" d="M576.768 476.1C571.868 499.1 571.868 522.9 580.268 544.9C580.768 546.2 582.668 550.7 584.068 550.8C585.768 550.9 586.668 548.7 586.968 547C587.568 543.5 587.968 537.7 588.568 534.2C589.368 529.8 590.368 519.6 590.368 519.6C590.368 519.6 586.368 510.4 584.568 505.4C581.268 496.2 578.468 487.5 576.968 476.8" fill="black"/>
</g>
</g>
<path d="M572.768 565.4C572.768 565.4 572.668 565.6 572.368 566C572.068 566.4 571.668 567 571.168 567.7C570.868 568.1 570.568 568.5 570.268 568.9C569.968 569.3 569.568 569.8 569.168 570.2C568.368 571.1 567.468 572.3 566.268 573.4C565.668 574 565.068 574.5 564.468 575.2C563.868 575.8 563.068 576.4 562.368 577C560.968 578.3 559.268 579.4 557.568 580.6C554.068 582.9 549.968 585.2 545.368 587C540.768 588.7 536.268 589.9 532.068 590.5C529.968 590.7 527.968 591 526.068 591.1C525.168 591.1 524.268 591.2 523.368 591.2C522.468 591.2 521.668 591.1 520.868 591.1C519.268 591.1 517.868 590.9 516.568 590.7C515.968 590.6 515.368 590.6 514.768 590.5C514.268 590.4 513.768 590.3 513.268 590.2C512.468 590 511.768 589.9 511.268 589.8C510.768 589.7 510.568 589.6 510.568 589.6C510.568 589.6 510.868 589.6 511.268 589.7C511.768 589.8 512.468 589.9 513.268 590C513.668 590.1 514.168 590.2 514.768 590.2C515.268 590.3 515.868 590.3 516.568 590.4C517.868 590.5 519.268 590.7 520.868 590.7C521.668 590.7 522.468 590.7 523.368 590.7C524.268 590.7 525.168 590.6 526.068 590.6C527.968 590.6 529.868 590.3 531.968 590C536.068 589.3 540.568 588.2 545.168 586.5C549.668 584.7 553.768 582.5 557.268 580.2C558.968 579 560.668 577.9 562.068 576.6C562.768 576 563.468 575.5 564.168 574.9C564.768 574.3 565.368 573.7 565.968 573.2C567.168 572.1 568.068 571 568.968 570.1C569.368 569.6 569.768 569.2 570.168 568.8C570.468 568.4 570.768 568 571.068 567.6C571.568 566.9 571.968 566.4 572.368 566C572.568 565.6 572.768 565.4 572.768 565.4Z" fill="#263238"/>
<path d="M564.669 550.2C564.669 550.2 564.669 550.6 564.569 551.3C564.469 552 564.269 553 563.869 554.2C563.169 556.6 561.869 559.9 559.769 563.2C557.669 566.5 555.169 569 553.269 570.6C552.269 571.4 551.469 572 550.869 572.4C550.269 572.8 549.969 573 549.969 573C549.869 572.9 551.169 572 553.069 570.3C554.969 568.6 557.269 566.1 559.369 562.8C561.469 559.6 562.769 556.4 563.569 554C564.269 551.7 564.569 550.2 564.669 550.2Z" fill="#263238"/>
<path d="M546.468 285C560.468 285.1 574.068 293 581.168 305C588.268 317 588.468 332.8 581.768 345C579.468 349.2 576.168 353.1 571.668 354.6C573.168 330.7 563.668 306.3 546.368 289.7" fill="#F6AC3B"/>
<path d="M562.768 288.7C560.668 284.4 562.868 279 566.568 276C570.268 273 575.068 271.7 579.768 270.6C584.368 269.5 589.268 268.3 592.968 265.4C592.468 272.9 590.568 280.6 585.668 286.3C580.868 292 572.468 295.2 565.468 292.3" fill="#F6AC3B"/>
<path d="M567.568 293.6C564.368 294.9 560.568 294.1 557.768 292.2C554.968 290.2 552.868 287.3 551.168 284.3C549.068 280.6 547.468 276.6 546.968 272.4C546.468 268.2 546.968 263.8 549.068 260.1C554.568 265.9 560.568 270.8 563.668 278.2C565.468 282.5 565.268 289.5 563.268 293.7" fill="#F6AC3B"/>
<path d="M583.068 317.8C583.068 317.8 583.168 318.3 583.368 319.2C583.468 319.7 583.568 320.2 583.568 320.8C583.668 321.4 583.668 322.2 583.768 323C583.868 324.6 583.868 326.6 583.668 328.7C583.468 330.9 583.168 333.2 582.568 335.6C581.968 338 581.268 340.3 580.468 342.3C579.668 344.3 578.768 346.1 577.968 347.5C577.568 348.2 577.168 348.8 576.868 349.4C576.568 350 576.168 350.4 575.968 350.8C575.468 351.5 575.168 351.9 575.068 351.9C575.068 351.9 575.268 351.4 575.768 350.7C575.968 350.3 576.268 349.8 576.568 349.3C576.868 348.7 577.268 348.1 577.668 347.4C578.468 346 579.268 344.2 580.068 342.2C580.868 340.2 581.568 338 582.168 335.6C582.768 333.2 583.068 330.9 583.268 328.7C583.468 326.6 583.568 324.6 583.468 323C583.468 322.2 583.368 321.5 583.368 320.8C583.368 320.2 583.268 319.6 583.268 319.2C583.068 318.4 583.068 317.8 583.068 317.8Z" fill="#263238"/>
<path d="M579.968 291C579.968 291 579.568 291.3 578.868 291.9C578.068 292.3 576.868 293 575.268 293.3C572.068 294 567.368 293.9 562.468 292.6H562.368V292.5C562.268 292.2 562.268 291.9 562.168 291.6C561.668 289 561.568 286.4 561.868 284.2C562.168 281.9 562.968 279.9 563.968 278.5C564.968 277 566.168 276.2 566.968 275.7C567.868 275.2 568.268 275 568.268 275C568.268 275 567.868 275.3 567.068 275.8C566.368 276.4 565.168 277.2 564.268 278.7C563.368 280.1 562.568 282 562.368 284.3C562.068 286.5 562.168 289 562.768 291.6C562.868 291.9 562.868 292.2 562.968 292.5L562.768 292.3C567.568 293.6 572.168 293.8 575.268 293.2C576.868 292.9 578.068 292.4 578.868 292C579.568 291.3 579.968 291 579.968 291Z" fill="#263238"/>
<path d="M584.068 278.1C584.068 278.2 582.568 278.4 580.268 279.1C579.168 279.4 577.768 279.9 576.368 280.6C574.968 281.3 573.368 282.1 571.868 283.1C570.368 284.1 568.968 285.2 567.868 286.2C566.668 287.3 565.768 288.3 564.968 289.2C563.468 291 562.668 292.3 562.568 292.3C562.568 292.3 562.668 292 563.068 291.4C563.368 290.8 563.968 290 564.668 289C565.368 288 566.368 287 567.568 285.9C568.768 284.8 570.068 283.7 571.668 282.7C573.268 281.7 574.768 280.9 576.268 280.2C577.768 279.6 579.068 279.1 580.268 278.8C581.468 278.5 582.368 278.3 583.068 278.2C583.668 278.1 584.068 278 584.068 278.1Z" fill="#263238"/>
<path d="M567.369 293.5C567.369 293.5 567.369 293.6 567.369 293.8C567.369 294 567.269 294.3 567.069 294.6C566.769 295.3 566.169 296.3 565.069 297.1C563.969 297.9 562.469 298.6 560.569 298.6C558.769 298.5 556.769 297.4 555.669 295.7C554.469 294 554.168 291.8 554.768 290C555.368 288.2 556.568 287 557.768 286.3C558.968 285.6 560.068 285.4 560.768 285.4C561.168 285.4 561.469 285.4 561.669 285.4C561.869 285.4 561.969 285.5 561.969 285.5C561.969 285.6 561.569 285.5 560.869 285.6C560.169 285.7 559.069 286 557.969 286.7C556.869 287.4 555.768 288.6 555.268 290.2C554.768 291.8 555.069 293.8 556.169 295.4C557.269 297 559.069 298 560.669 298.1C562.369 298.2 563.869 297.6 564.869 296.8C565.869 296 566.569 295.2 566.869 294.5C567.269 293.9 567.369 293.5 567.369 293.5Z" fill="#263238"/>
<path d="M555.268 293.7C555.268 293.7 554.968 293.2 555.368 292.4C555.568 292 555.968 291.7 556.568 291.5C557.068 291.3 557.768 291.3 558.368 291.3C560.868 291.5 562.668 292.5 562.568 292.6C562.468 292.7 560.668 292 558.268 291.9C557.068 291.8 556.068 292.1 555.668 292.7C555.268 293.2 555.368 293.7 555.268 293.7Z" fill="#263238"/>
<path d="M549.068 260C549.168 260 547.968 261.5 547.568 264.3C547.368 265.7 547.268 267.4 547.368 269.3C547.368 271.2 547.468 273.2 547.868 275.4C548.768 279.6 550.568 283.2 552.168 285.5C552.968 286.7 553.668 287.6 554.168 288.2C554.668 288.8 554.968 289.1 554.968 289.1C554.868 289.2 553.568 288 551.868 285.7C550.168 283.4 548.368 279.8 547.368 275.5C546.968 273.3 546.868 271.2 546.868 269.3C546.868 267.4 546.968 265.7 547.268 264.3C547.568 262.9 547.968 261.8 548.368 261.1C548.768 260.3 549.068 260 549.068 260Z" fill="#263238"/>
<path d="M554.268 271.9C554.368 271.9 554.869 272.5 555.669 273.6C556.469 274.7 557.469 276.3 558.369 278.2C559.269 280.1 559.769 281.9 560.169 283.2C560.469 284.5 560.569 285.4 560.469 285.4C560.269 285.4 559.669 282.1 557.869 278.4C556.169 274.7 554.168 272 554.268 271.9Z" fill="#263238"/>
<path d="M552.568 278.1C552.668 278 554.368 279.7 556.568 281.7C558.768 283.7 560.568 285.3 560.468 285.5C560.368 285.6 558.468 284.1 556.268 282.1C554.068 280.1 552.468 278.2 552.568 278.1Z" fill="#263238"/>
<path d="M578.768 301.6C578.768 301.6 578.769 301.7 578.669 301.7C578.569 301.8 578.368 301.9 578.268 302.1C577.868 302.4 577.269 302.9 576.569 303.4C575.069 304.4 572.868 305.6 570.268 306.5C567.668 307.4 565.168 307.7 563.368 307.8C562.468 307.8 561.768 307.8 561.268 307.8C561.068 307.8 560.869 307.8 560.669 307.8C560.569 307.8 560.469 307.8 560.469 307.8C560.469 307.8 560.569 307.8 560.669 307.8C560.869 307.8 561.068 307.8 561.268 307.8C561.768 307.8 562.468 307.8 563.368 307.7C565.168 307.6 567.569 307.2 570.169 306.4C572.769 305.5 574.969 304.4 576.469 303.4C577.169 302.9 577.769 302.5 578.169 302.2C578.369 302.1 578.469 302 578.669 301.9C578.669 301.6 578.768 301.5 578.768 301.6Z" fill="#FAFAFA"/>
<path d="M584.669 313.7C584.669 313.7 584.669 313.8 584.569 313.8C584.469 313.9 584.269 314 584.169 314.2C583.769 314.5 583.169 315 582.469 315.5C580.969 316.5 578.769 317.7 576.169 318.7C573.569 319.6 571.068 320.1 569.368 320.3C568.468 320.4 567.768 320.4 567.268 320.4C567.068 320.4 566.869 320.4 566.669 320.4C566.569 320.4 566.469 320.4 566.469 320.4C566.469 320.4 566.569 320.4 566.669 320.4C566.869 320.4 567.068 320.4 567.268 320.4C567.768 320.4 568.468 320.3 569.368 320.2C571.168 320 573.569 319.5 576.169 318.6C578.769 317.7 580.868 316.5 582.368 315.5C583.168 315 583.669 314.6 584.069 314.3C584.269 314.2 584.369 314.1 584.569 314C584.569 313.7 584.669 313.6 584.669 313.7Z" fill="#FAFAFA"/>
<path d="M583.069 331.3C583.069 331.3 582.969 331.4 582.669 331.6C582.369 331.8 581.969 332 581.469 332.3C580.369 332.9 578.869 333.6 577.069 334C575.269 334.5 573.568 334.6 572.368 334.6C571.768 334.6 571.269 334.6 570.969 334.6C570.669 334.6 570.469 334.5 570.469 334.5C570.469 334.5 570.669 334.5 570.969 334.5C571.269 334.5 571.768 334.5 572.368 334.5C573.568 334.5 575.269 334.3 576.969 333.8C578.769 333.3 580.268 332.7 581.368 332.1C581.868 331.8 582.369 331.6 582.669 331.4C582.869 331.4 583.069 331.3 583.069 331.3Z" fill="#FAFAFA"/>
<path d="M586.468 328.6C586.468 328.7 585.868 328.8 585.068 329C584.268 329.1 583.668 329.2 583.668 329.2C583.668 329.2 584.268 329 585.068 328.8C585.768 328.6 586.368 328.5 586.468 328.6Z" fill="#FAFAFA"/>
<path d="M576.468 349.4C576.468 349.5 575.468 349.6 574.168 349.5C572.868 349.4 571.868 349.1 571.968 349.1C571.968 349 572.968 349.3 574.268 349.3C575.468 349.4 576.468 349.3 576.468 349.4Z" fill="#FAFAFA"/>
<path d="M557.568 297.1C557.568 297.2 556.968 297.5 556.268 298C555.468 298.4 554.868 298.7 554.868 298.7C554.868 298.7 555.468 298.3 556.168 297.8C556.868 297.3 557.468 297 557.568 297.1Z" fill="#FAFAFA"/>
<path d="M552.568 286.6C552.568 286.7 551.168 287.1 549.668 288.2C548.168 289.3 547.268 290.5 547.168 290.5C547.168 290.5 547.368 290.2 547.768 289.7C548.168 289.2 548.768 288.6 549.568 288.1C550.368 287.6 551.068 287.2 551.668 287C552.168 286.6 552.568 286.5 552.568 286.6Z" fill="#FAFAFA"/>
<path d="M561.568 298.2C561.468 298.2 561.868 296.8 561.668 295.2C561.468 293.5 560.768 292.3 560.868 292.3C560.868 292.3 561.068 292.6 561.268 293.1C561.468 293.6 561.768 294.4 561.868 295.2C561.968 296.1 561.968 296.8 561.868 297.4C561.668 297.9 561.568 298.2 561.568 298.2Z" fill="#FAFAFA"/>
<path d="M592.468 265.6C592.468 265.6 592.068 266.1 591.368 266.8C590.668 267.5 589.468 268.5 587.868 269.5C586.268 270.5 584.368 271.5 582.068 272.5C579.868 273.5 577.368 274.5 574.868 275.7C572.368 276.9 570.068 278.3 568.268 279.9C566.468 281.5 565.168 283.3 564.368 285C563.568 286.7 563.268 288.1 563.168 289.1C563.068 290.1 563.168 290.7 563.168 290.7C563.168 290.7 563.168 290.6 563.168 290.3C563.168 290 563.168 289.6 563.168 289.1C563.268 288.1 563.568 286.6 564.268 284.9C565.068 283.2 566.368 281.4 568.168 279.8C569.968 278.2 572.268 276.7 574.868 275.5C577.368 274.3 579.868 273.3 582.168 272.3C584.368 271.3 586.368 270.3 587.868 269.4C589.468 268.4 590.568 267.5 591.368 266.8C591.768 266.5 592.068 266.2 592.268 266C592.368 265.7 592.468 265.6 592.468 265.6Z" fill="#FAFAFA"/>
<path d="M589.768 277.5C589.768 277.5 589.768 277.6 589.668 277.7C589.568 277.9 589.368 278.1 589.268 278.3C588.868 278.8 588.368 279.6 587.568 280.5C586.068 282.3 583.868 284.7 581.068 286.9C578.268 289.1 575.368 290.7 573.268 291.6C572.168 292.1 571.368 292.4 570.668 292.7C570.368 292.8 570.168 292.9 569.968 292.9C569.768 293 569.668 293 569.668 293C569.668 293 569.768 293 569.868 292.9C570.068 292.8 570.268 292.7 570.568 292.6C571.168 292.4 572.068 292 573.068 291.5C575.168 290.5 577.968 288.9 580.768 286.7C583.568 284.5 585.768 282.2 587.268 280.4C587.968 279.5 588.568 278.8 588.968 278.2C589.168 278 589.268 277.8 589.368 277.6C589.768 277.5 589.768 277.4 589.768 277.5Z" fill="#FAFAFA"/>
<path d="M548.068 263.4C548.068 263.4 549.268 263.9 551.068 265C552.868 266.1 555.168 268 557.168 270.5C559.168 273.1 560.468 275.7 561.168 277.7C561.868 279.7 562.068 281 562.068 281C562.068 281 562.068 280.9 561.968 280.8C561.868 280.6 561.868 280.4 561.768 280.1C561.668 279.5 561.368 278.7 560.968 277.7C560.268 275.7 558.968 273.1 556.968 270.5C554.968 268 552.668 266.1 550.968 265C550.068 264.4 549.368 264 548.868 263.7C548.668 263.6 548.468 263.5 548.268 263.4C548.168 263.4 548.068 263.4 548.068 263.4Z" fill="#FAFAFA"/>
<path d="M497.869 301C498.269 306.3 494.768 311 491.268 315C487.768 319 483.769 323.1 483.069 328.4C481.669 337.7 490.869 346.4 488.969 355.6C487.969 360.5 483.869 364.5 483.169 369.5C482.469 374.3 485.068 379.1 488.268 382.7C491.468 386.4 495.169 385.8 498.069 389.8C501.069 394 505.869 398.3 510.369 400.7C520.569 406.3 532.868 398.2 537.768 396.7" fill="#263238"/>
<path d="M575.269 322.7C579.968 320.6 580.369 303.8 568.569 301.8C563.869 301 559.869 298.7 555.869 296C552.369 293.6 551.269 287.6 548.269 284.6C540.969 277.2 529.469 274.1 519.369 276.8C509.269 279.5 500.969 288 498.469 298.2C496.769 305 497.969 313.1 503.369 317.7C509.669 323 518.869 321.8 526.969 320.2C534.969 318.6 544.069 316.9 550.769 321.7C554.769 324.5 557.169 329.2 559.569 333.4C562.069 337.7 565.169 342 569.769 343.7C569.769 343.7 573.369 352.1 570.469 357.9C567.569 363.7 573.869 353.8 573.869 353.8C573.869 353.8 585.368 333.2 575.269 322.7Z" fill="#263238"/>
<path d="M515.369 441.3C515.269 430.3 515.369 399.3 515.369 399.4C515.369 399.4 497.869 396.5 494.269 373.6C492.469 362.2 493.069 343.6 494.069 328.3C494.969 314.6 504.069 297.8 517.769 299.2L560.469 310.1C564.669 310.5 567.769 314.1 567.669 318.3L565.069 424.3L515.369 441.3Z" fill="#FFBE9D"/>
<path d="M501.368 341.3C501.268 342.8 502.568 344.2 504.168 344.3C505.768 344.4 507.168 343.2 507.168 341.7C507.268 340.2 505.968 338.8 504.368 338.7C502.768 338.6 501.368 339.8 501.368 341.3Z" fill="#263238"/>
<path d="M498.069 338C498.469 338.4 500.669 336.7 503.769 336.8C506.969 336.8 509.269 338.4 509.569 338C509.769 337.8 509.369 337.1 508.369 336.4C507.369 335.7 505.669 335 503.769 335C501.769 335 500.169 335.7 499.169 336.5C498.269 337.1 497.869 337.8 498.069 338Z" fill="#263238"/>
<path d="M529.069 343C529.469 343.4 531.669 341.7 534.769 341.8C537.969 341.8 540.269 343.4 540.569 343C540.769 342.8 540.369 342.1 539.369 341.4C538.369 340.7 536.669 340 534.769 340C532.769 340 531.169 340.7 530.169 341.5C529.269 342.1 528.969 342.8 529.069 343Z" fill="#263238"/>
<path d="M517.569 362C517.569 361.8 515.669 361.5 512.469 361.1C511.669 361 510.869 360.9 510.769 360.3C510.569 359.7 510.969 358.8 511.269 357.9C512.069 356 512.869 353.9 513.669 351.8C516.969 343.1 519.369 335.9 519.069 335.8C518.669 335.7 515.769 342.6 512.369 351.4C511.569 353.6 510.769 355.6 510.069 357.6C509.769 358.5 509.269 359.6 509.669 360.8C509.869 361.4 510.469 361.8 510.969 362C511.469 362.2 511.969 362.2 512.369 362.2C515.569 362.2 517.569 362.2 517.569 362Z" fill="#263238"/>
<path d="M515.369 399.4C515.369 399.4 530.769 400.4 545.969 391.3C545.669 391.4 537.569 407.2 515.669 404.8L515.369 399.4Z" fill="#EB996E"/>
<path d="M518.468 371.1C518.068 369.2 520.368 368.5 522.068 367.5C523.768 366.5 524.668 365.1 526.268 366.3C527.168 367 527.769 368 528.169 369C528.469 369.7 528.568 370.5 528.468 371.2C528.268 372.1 527.768 372.9 527.068 373.5C526.168 374.4 524.969 375.1 523.669 375.3C522.369 375.5 520.968 375.2 519.968 374.4C518.968 373.6 518.368 372.2 518.568 370.9" fill="#EB996E"/>
<path d="M526.869 364.2C526.369 364.2 526.369 367.6 523.369 370C520.469 372.4 516.769 372 516.769 372.5C516.769 372.7 517.569 373.2 519.169 373.2C520.669 373.3 522.869 372.8 524.669 371.3C526.469 369.8 527.269 367.8 527.369 366.4C527.469 365 527.169 364.2 526.869 364.2Z" fill="#263238"/>
<path d="M528.668 336C528.968 336.9 532.168 336.5 535.868 336.9C539.568 337.3 542.568 338.4 543.068 337.6C543.268 337.2 542.768 336.4 541.568 335.6C540.368 334.8 538.468 334 536.268 333.7C534.068 333.5 531.968 333.8 530.668 334.3C529.168 334.9 528.468 335.5 528.668 336Z" fill="#263238"/>
<path d="M498.569 327.1C499.169 327.8 501.269 327.1 503.869 327C506.469 326.9 508.669 327.5 509.169 326.7C509.369 326.3 509.069 325.6 508.069 324.9C507.069 324.2 505.569 323.7 503.769 323.7C501.969 323.8 500.369 324.4 499.469 325.1C498.569 326 498.269 326.7 498.569 327.1Z" fill="#263238"/>
<path d="M570.069 386.6C563.769 387.9 563.169 384.7 558.569 380.3C553.869 375.9 551.469 369.2 552.269 362.9C552.969 357.3 555.969 351.6 554.069 346.3C551.469 339.3 541.669 337.1 539.069 330.1C537.569 326 538.869 321.3 537.169 317.3C535.569 313.5 531.569 311.4 527.769 310C523.969 308.6 519.769 307.6 516.569 305.1C513.369 302.6 511.369 297.9 513.369 294.3C530.469 296.3 547.269 300.4 563.369 306.4C567.069 307.8 571.069 309.5 573.269 312.8C575.569 316.3 575.469 320.8 575.269 325.1C574.269 345.6 573.369 366.2 572.369 386.7" fill="#263238"/>
<path d="M584.669 378.9C584.669 378.9 584.769 378.8 584.969 378.6C585.069 378.4 585.369 378.1 585.569 377.7C586.069 376.9 586.669 375.5 587.069 373.7C587.469 371.9 587.469 369.5 586.669 366.9C585.969 364.3 584.169 361.6 581.368 359.7C578.669 357.8 575.168 356.5 572.868 353.4C571.769 351.9 571.269 350 571.669 348C571.969 346 572.869 344.1 573.669 342.1C575.369 338 575.468 332.9 573.368 328.4C572.368 326.2 570.768 324.1 568.768 322.6C566.768 321.1 564.268 320.3 561.768 319.7C559.268 319.1 556.869 318.8 554.569 318.1C552.269 317.4 550.069 316.4 548.469 314.8C546.869 313.2 546.168 311 545.868 308.8C545.569 306.6 545.368 304.3 544.768 302.2C543.668 297.9 541.469 294.1 538.569 291.4C535.669 288.7 532.168 287.1 528.868 286.6C525.568 286.1 522.369 286.7 520.069 287.9C517.669 289.1 516.069 290.8 514.969 292.3C513.869 293.8 513.369 295.2 513.169 296.2C512.969 297.2 512.969 297.7 512.969 297.7C513.069 297.8 513.168 295.6 515.268 292.6C516.368 291.2 517.968 289.6 520.268 288.4C522.568 287.3 525.568 286.7 528.768 287.3C531.968 287.8 535.269 289.4 537.969 292C540.669 294.6 542.768 298.3 543.868 302.5C544.469 304.6 544.569 306.8 544.868 309.1C545.168 311.4 545.968 313.9 547.768 315.6C549.568 317.4 551.868 318.5 554.268 319.2C556.668 319.9 559.169 320.3 561.569 320.8C563.969 321.3 566.369 322.1 568.169 323.5C570.069 324.9 571.569 326.8 572.469 328.9C574.369 333.1 574.468 337.9 572.768 341.8C571.968 343.8 571.068 345.8 570.768 347.9C570.368 350 570.969 352.3 572.169 353.9C574.669 357.2 578.269 358.5 580.969 360.3C583.669 362.1 585.369 364.6 586.169 367C586.969 369.4 586.969 371.7 586.669 373.5C586.069 377.3 584.569 378.9 584.669 378.9Z" fill="#455A64"/>
<path d="M554.869 356.2C549.669 368.1 548.769 381.8 552.169 394.3C553.169 398 554.669 401.9 553.769 405.7C552.769 409.8 549.369 412.8 546.869 416.1C542.569 421.9 540.869 429.6 542.369 436.7C543.869 443.8 548.469 450.1 554.769 453.7C555.469 449.9 558.969 447.4 562.369 445.7C565.869 444.1 569.669 442.9 572.269 440.1C574.869 437.3 575.669 432.3 572.569 430C581.369 427.7 586.369 417.2 584.469 408.3C582.569 399.4 575.369 392.4 567.169 388.5" fill="#263238"/>
<path d="M564.269 445C562.669 445.9 561.169 446.6 560.969 448.4C560.769 450.5 562.769 454.2 563.469 456.2C564.869 460.1 563.769 464.7 560.869 467.6C557.869 470.5 553.269 471.4 549.369 469.9C552.169 470.1 554.569 467.4 554.869 464.6C555.169 461.8 553.769 459.1 552.069 456.8C550.369 454.5 548.369 452.5 546.969 450.1C544.069 445.1 539.769 431.6 543.069 424" fill="#263238"/>
<path d="M572.269 430.5C572.269 430.5 572.469 430.3 572.769 430C573.169 429.7 573.669 429.3 574.369 428.7C575.669 427.6 577.569 425.9 579.469 423.4C581.369 420.9 583.369 417.7 584.369 413.7C585.369 409.7 585.469 405 583.769 400.6C582.869 398.4 581.669 396.4 580.169 394.8C578.669 393.1 577.069 391.6 575.569 390.2C574.069 388.8 572.669 387.4 571.469 385.9C570.269 384.5 569.369 382.9 568.769 381.5C567.469 378.6 567.469 375.9 567.869 374.2C568.069 373.3 568.369 372.7 568.569 372.3C568.769 371.9 568.969 371.7 568.969 371.7C569.069 371.7 568.469 372.5 568.069 374.2C567.669 375.9 567.769 378.5 569.069 381.4C569.669 382.8 570.569 384.3 571.769 385.7C572.969 387.1 574.369 388.5 575.869 389.9C577.369 391.3 578.969 392.8 580.469 394.5C581.969 396.2 583.269 398.2 584.169 400.5C585.969 405.1 585.869 409.9 584.769 413.9C583.669 418 581.669 421.3 579.769 423.7C577.769 426.2 575.869 427.9 574.469 428.9C573.769 429.4 573.269 429.8 572.869 430.1C572.569 430.3 572.269 430.5 572.269 430.5Z" fill="#455A64"/>
<path d="M284.9 545.016C287.4 548.216 291.9 546.816 293.8 544.616C295.8 542.416 296.5 539.516 297.1 536.616C298.5 530.116 300 523.316 298.2 516.916C297.7 515.016 296.8 513.116 295.4 511.716C293.9 510.316 291.8 509.616 289.9 510.216C287.7 510.916 286.4 513.316 285.5 515.416C282.9 521.816 281.7 528.816 282.1 535.716C282.4 539.116 283 542.416 284.9 545.016Z" fill="#74C1C7"/>
<g opacity="0.2">
<g opacity="0.2">
<path opacity="0.2" d="M284.9 545.016C287.4 548.216 291.9 546.816 293.8 544.616C295.8 542.416 296.5 539.516 297.1 536.616C298.5 530.116 300 523.316 298.2 516.916C297.7 515.016 296.8 513.116 295.4 511.716C293.9 510.316 291.8 509.616 289.9 510.216C287.7 510.916 286.4 513.316 285.5 515.416C282.9 521.816 281.7 528.816 282.1 535.716C282.4 539.116 283 542.416 284.9 545.016Z" fill="#74C1C7"/>
</g>
</g>
<path d="M294.7 561.216C298.4 559.016 302.8 558.516 307.1 558.916C309.4 559.116 311.8 559.716 313.4 561.316C315 562.916 315.5 565.916 313.9 567.416C312.9 568.316 311.4 568.616 310.1 568.616C306.8 568.816 303.1 568.416 300.6 570.616C299.2 571.816 298.3 573.816 296.5 574.416C294.8 575.116 292.7 574.116 291.7 572.616C290.7 571.116 290.5 569.116 290.8 567.316C290.8 567.416 291 563.416 294.7 561.216Z" fill="#74C1C7"/>
<path d="M278.9 550.116C281.2 547.016 281.4 542.616 280.1 538.916C278.7 535.216 276 532.216 272.9 529.816C269.3 527.016 265.1 524.816 260.7 523.616C259 523.116 257.1 522.716 255.4 523.016C253.6 523.316 251.9 524.316 251.1 526.016C250 528.416 251.4 531.216 252.8 533.516C255.3 537.516 258.2 541.316 261.3 544.816C263.8 547.616 266.6 550.416 270.3 551.516C273.9 552.616 277.6 552.216 279.3 549.716" fill="#74C1C7"/>
<path d="M287.9 595.016C287.9 595.016 288 594.516 288 593.516C288 592.416 288.1 591.016 288.1 589.416C288.2 587.716 288.3 585.616 288.6 583.316C288.9 581.016 289.5 578.616 290.3 576.016C291.1 573.516 292.2 571.216 293.5 569.316C294.8 567.416 296.4 566.016 297.9 565.216C299.4 564.316 300.7 563.916 301.7 563.816C302.7 563.616 303.2 563.516 303.2 563.516C303.2 563.516 302.7 563.516 301.7 563.616C300.7 563.716 299.3 564.116 297.7 564.916C296.1 565.716 294.5 567.116 293.1 569.116C291.7 571.016 290.6 573.416 289.7 575.916C288.9 578.516 288.3 581.016 288 583.316C287.7 585.616 287.6 587.716 287.6 589.516C287.6 591.316 287.6 592.716 287.7 593.616C287.8 594.416 287.9 595.016 287.9 595.016Z" fill="#263238"/>
<path d="M288 591.816C288 591.816 288 591.616 288 591.116C288 590.616 287.9 589.916 287.9 589.116C287.8 587.416 287.6 584.916 287.5 581.816C287.3 575.616 287.3 567.016 287.7 557.516C288.1 548.016 289 539.516 289.9 533.316C290.1 531.816 290.3 530.416 290.5 529.216C290.7 528.016 290.9 526.916 291 526.116C291.1 525.316 291.3 524.616 291.3 524.116C291.4 523.616 291.4 523.416 291.4 523.416C291.4 523.416 291.3 523.616 291.2 524.116C291.1 524.616 290.9 525.316 290.7 526.116C290.5 526.916 290.3 528.016 290.1 529.216C289.9 530.416 289.6 531.816 289.4 533.316C288.4 539.416 287.5 548.016 287.1 557.516C286.7 567.016 286.7 575.616 287.1 581.816C287.3 584.916 287.5 587.416 287.7 589.116C287.8 589.916 287.9 590.616 287.9 591.116C288 591.616 288 591.816 288 591.816Z" fill="#263238"/>
<path d="M287 575.316C287 575.316 287 574.616 286.9 573.216C286.7 571.916 286.4 569.916 285.9 567.616C285.4 565.316 284.6 562.516 283.5 559.516C282.5 556.516 281.1 553.216 279.4 550.016C276.1 543.416 271.9 538.116 268.3 534.916C267.5 534.016 266.5 533.416 265.8 532.816C265.4 532.516 265.1 532.216 264.7 532.016C264.4 531.816 264 531.616 263.7 531.416C262.5 530.716 261.9 530.316 261.9 530.416C261.8 530.516 264.5 531.916 268 535.216C271.5 538.516 275.6 543.716 278.9 550.316C280.6 553.516 281.9 556.816 283 559.716C284.1 562.716 284.9 565.416 285.5 567.716C286.1 570.016 286.4 571.916 286.7 573.216C286.8 574.516 287 575.316 287 575.316Z" fill="#263238"/>
<path d="M291.889 384V374.047H295.375C296.583 374.047 297.499 374.279 298.123 374.744C298.747 375.204 299.06 375.881 299.06 376.774C299.06 377.262 298.934 377.693 298.684 378.066C298.433 378.436 298.084 378.707 297.638 378.88C298.148 379.007 298.549 379.265 298.841 379.652C299.137 380.04 299.285 380.514 299.285 381.074C299.285 382.031 298.98 382.756 298.369 383.248C297.758 383.74 296.888 383.991 295.758 384H291.889ZM293.939 379.666V382.353H295.696C296.179 382.353 296.555 382.239 296.824 382.011C297.098 381.778 297.234 381.459 297.234 381.054C297.234 380.142 296.763 379.68 295.819 379.666H293.939ZM293.939 378.217H295.457C296.492 378.199 297.009 377.786 297.009 376.979C297.009 376.528 296.877 376.205 296.612 376.009C296.353 375.808 295.94 375.708 295.375 375.708H293.939V378.217ZM304.986 384C304.895 383.822 304.829 383.601 304.788 383.337C304.31 383.87 303.688 384.137 302.922 384.137C302.197 384.137 301.596 383.927 301.117 383.508C300.643 383.089 300.406 382.56 300.406 381.922C300.406 381.138 300.696 380.536 301.274 380.117C301.858 379.698 302.699 379.486 303.797 379.481H304.706V379.058C304.706 378.716 304.617 378.442 304.439 378.237C304.266 378.032 303.991 377.93 303.612 377.93C303.28 377.93 303.018 378.009 302.826 378.169C302.639 378.328 302.546 378.547 302.546 378.825H300.57C300.57 378.397 300.702 378 300.967 377.636C301.231 377.271 301.605 376.986 302.088 376.781C302.571 376.572 303.113 376.467 303.715 376.467C304.626 376.467 305.349 376.697 305.882 377.157C306.42 377.613 306.688 378.256 306.688 379.085V382.291C306.693 382.993 306.791 383.524 306.982 383.884V384H304.986ZM303.353 382.626C303.644 382.626 303.913 382.562 304.159 382.435C304.405 382.302 304.588 382.127 304.706 381.908V380.637H303.968C302.979 380.637 302.452 380.979 302.389 381.662L302.382 381.778C302.382 382.024 302.468 382.227 302.642 382.387C302.815 382.546 303.052 382.626 303.353 382.626ZM310.182 376.604V382.407H312.212V376.604H314.194V382.407H316.225V376.604H318.2V384H308.206V376.604H310.182ZM324.072 384C323.981 383.822 323.915 383.601 323.874 383.337C323.396 383.87 322.773 384.137 322.008 384.137C321.283 384.137 320.682 383.927 320.203 383.508C319.729 383.089 319.492 382.56 319.492 381.922C319.492 381.138 319.782 380.536 320.36 380.117C320.944 379.698 321.785 379.486 322.883 379.481H323.792V379.058C323.792 378.716 323.703 378.442 323.525 378.237C323.352 378.032 323.076 377.93 322.698 377.93C322.366 377.93 322.104 378.009 321.912 378.169C321.725 378.328 321.632 378.547 321.632 378.825H319.656C319.656 378.397 319.788 378 320.053 377.636C320.317 377.271 320.691 376.986 321.174 376.781C321.657 376.572 322.199 376.467 322.801 376.467C323.712 376.467 324.435 376.697 324.968 377.157C325.506 377.613 325.774 378.256 325.774 379.085V382.291C325.779 382.993 325.877 383.524 326.068 383.884V384H324.072ZM322.438 382.626C322.73 382.626 322.999 382.562 323.245 382.435C323.491 382.302 323.674 382.127 323.792 381.908V380.637H323.054C322.065 380.637 321.538 380.979 321.475 381.662L321.468 381.778C321.468 382.024 321.554 382.227 321.728 382.387C321.901 382.546 322.138 382.626 322.438 382.626ZM334.661 378.784C334.661 378.524 334.575 378.324 334.401 378.183C334.233 378.037 333.991 377.964 333.677 377.964C333.353 377.964 333.089 378.032 332.884 378.169C332.683 378.301 332.583 378.49 332.583 378.736H330.607C330.607 378.066 330.885 377.522 331.441 377.103C331.997 376.683 332.708 376.474 333.574 376.474C334.527 376.474 335.274 376.66 335.816 377.034C336.363 377.408 336.637 377.939 336.637 378.627C336.637 378.955 336.536 379.258 336.336 379.536C336.14 379.81 335.862 380.028 335.502 380.192C336.345 380.489 336.767 381.061 336.767 381.908C336.767 382.587 336.475 383.13 335.892 383.535C335.313 383.936 334.54 384.137 333.574 384.137C332.676 384.137 331.938 383.927 331.359 383.508C330.781 383.089 330.491 382.523 330.491 381.812H332.467C332.467 382.063 332.578 382.266 332.802 382.421C333.025 382.576 333.317 382.653 333.677 382.653C334.028 382.653 334.301 382.571 334.497 382.407C334.693 382.243 334.791 382.029 334.791 381.765C334.791 381.441 334.698 381.211 334.511 381.074C334.324 380.933 334.044 380.862 333.67 380.862H332.597V379.577H333.738C334.354 379.559 334.661 379.295 334.661 378.784ZM342.256 384C342.165 383.822 342.099 383.601 342.058 383.337C341.579 383.87 340.957 384.137 340.191 384.137C339.467 384.137 338.865 383.927 338.387 383.508C337.913 383.089 337.676 382.56 337.676 381.922C337.676 381.138 337.965 380.536 338.544 380.117C339.127 379.698 339.968 379.486 341.066 379.481H341.976V379.058C341.976 378.716 341.887 378.442 341.709 378.237C341.536 378.032 341.26 377.93 340.882 377.93C340.549 377.93 340.287 378.009 340.096 378.169C339.909 378.328 339.815 378.547 339.815 378.825H337.84C337.84 378.397 337.972 378 338.236 377.636C338.501 377.271 338.874 376.986 339.357 376.781C339.84 376.572 340.383 376.467 340.984 376.467C341.896 376.467 342.618 376.697 343.151 377.157C343.689 377.613 343.958 378.256 343.958 379.085V382.291C343.963 382.993 344.061 383.524 344.252 383.884V384H342.256ZM340.622 382.626C340.914 382.626 341.183 382.562 341.429 382.435C341.675 382.302 341.857 382.127 341.976 381.908V380.637H341.237C340.248 380.637 339.722 380.979 339.658 381.662L339.651 381.778C339.651 382.024 339.738 382.227 339.911 382.387C340.084 382.546 340.321 382.626 340.622 382.626ZM351.642 376.604V384H349.673V381.443H348.422L347 384H344.997L346.61 381.108C346.168 380.903 345.826 380.625 345.585 380.274C345.348 379.924 345.229 379.525 345.229 379.078C345.229 378.363 345.505 377.777 346.057 377.321C346.613 376.861 347.355 376.622 348.285 376.604H351.642ZM348.319 380.062H349.673V378.189H348.388C348.037 378.189 347.752 378.283 347.533 378.47C347.314 378.652 347.205 378.875 347.205 379.14C347.205 379.404 347.31 379.623 347.52 379.796C347.729 379.969 347.996 380.058 348.319 380.062ZM353.439 384V376.604H356.529C357.536 376.604 358.309 376.781 358.847 377.137C359.384 377.492 359.653 378.003 359.653 378.668C359.653 379.01 359.539 379.317 359.312 379.591C359.088 379.86 358.76 380.067 358.327 380.213C358.856 380.313 359.271 380.511 359.571 380.808C359.877 381.099 360.029 381.459 360.029 381.888C360.029 382.576 359.77 383.1 359.25 383.46C358.735 383.82 357.985 384 357.001 384H353.439ZM355.415 380.931V382.421H357.008C357.705 382.421 358.054 382.177 358.054 381.689C358.054 381.193 357.721 380.94 357.056 380.931H355.415ZM355.415 379.604H356.639C357.331 379.595 357.678 379.372 357.678 378.935C357.678 378.666 357.582 378.474 357.391 378.36C357.204 378.246 356.917 378.189 356.529 378.189H355.415V379.604ZM364.138 381.272H363.345V384H361.369V376.604H363.345V379.386H364.049L365.662 376.604H368.157L365.737 380.124L368.383 384H365.751L364.138 381.272ZM373.414 384C373.323 383.822 373.257 383.601 373.216 383.337C372.737 383.87 372.115 384.137 371.35 384.137C370.625 384.137 370.023 383.927 369.545 383.508C369.071 383.089 368.834 382.56 368.834 381.922C368.834 381.138 369.123 380.536 369.702 380.117C370.285 379.698 371.126 379.486 372.225 379.481H373.134V379.058C373.134 378.716 373.045 378.442 372.867 378.237C372.694 378.032 372.418 377.93 372.04 377.93C371.707 377.93 371.445 378.009 371.254 378.169C371.067 378.328 370.974 378.547 370.974 378.825H368.998C368.998 378.397 369.13 378 369.395 377.636C369.659 377.271 370.033 376.986 370.516 376.781C370.999 376.572 371.541 376.467 372.143 376.467C373.054 376.467 373.776 376.697 374.31 377.157C374.847 377.613 375.116 378.256 375.116 379.085V382.291C375.121 382.993 375.219 383.524 375.41 383.884V384H373.414ZM371.78 382.626C372.072 382.626 372.341 382.562 372.587 382.435C372.833 382.302 373.015 382.127 373.134 381.908V380.637H372.396C371.407 380.637 370.88 380.979 370.816 381.662L370.81 381.778C370.81 382.024 370.896 382.227 371.069 382.387C371.243 382.546 371.479 382.626 371.78 382.626ZM386.553 384H384.57V378.203H382.096V384H380.12V376.604H386.553V384ZM394.722 380.37C394.722 381.509 394.462 382.423 393.942 383.111C393.427 383.795 392.73 384.137 391.851 384.137C391.103 384.137 390.499 383.877 390.039 383.357V386.844H388.063V376.604H389.896L389.964 377.328C390.442 376.754 391.067 376.467 391.837 376.467C392.748 376.467 393.457 376.804 393.963 377.479C394.469 378.153 394.722 379.083 394.722 380.268V380.37ZM392.746 380.227C392.746 379.538 392.623 379.007 392.377 378.634C392.135 378.26 391.782 378.073 391.317 378.073C390.698 378.073 390.271 378.31 390.039 378.784V381.812C390.281 382.3 390.711 382.544 391.331 382.544C392.274 382.544 392.746 381.771 392.746 380.227ZM400.409 376.604H402.385V384H400.409V379.434L397.935 384H395.952V376.604H397.935V381.163L400.409 376.604ZM410.308 384H408.325V381.156H405.871V384H403.896V376.604H405.871V379.57H408.325V376.604H410.308V384ZM418.005 376.604V384H416.036V381.443H414.785L413.363 384H411.36L412.974 381.108C412.532 380.903 412.19 380.625 411.948 380.274C411.711 379.924 411.593 379.525 411.593 379.078C411.593 378.363 411.868 377.777 412.42 377.321C412.976 376.861 413.719 376.622 414.648 376.604H418.005ZM414.683 380.062H416.036V378.189H414.751C414.4 378.189 414.115 378.283 413.896 378.47C413.678 378.652 413.568 378.875 413.568 379.14C413.568 379.404 413.673 379.623 413.883 379.796C414.092 379.969 414.359 380.058 414.683 380.062ZM425.812 378.189H423.439V384H421.457V378.189H419.126V376.604H425.812V378.189ZM430.986 384C430.895 383.822 430.829 383.601 430.788 383.337C430.31 383.87 429.688 384.137 428.922 384.137C428.197 384.137 427.596 383.927 427.117 383.508C426.643 383.089 426.406 382.56 426.406 381.922C426.406 381.138 426.696 380.536 427.274 380.117C427.858 379.698 428.699 379.486 429.797 379.481H430.706V379.058C430.706 378.716 430.617 378.442 430.439 378.237C430.266 378.032 429.991 377.93 429.612 377.93C429.28 377.93 429.018 378.009 428.826 378.169C428.639 378.328 428.546 378.547 428.546 378.825H426.57C426.57 378.397 426.702 378 426.967 377.636C427.231 377.271 427.605 376.986 428.088 376.781C428.571 376.572 429.113 376.467 429.715 376.467C430.626 376.467 431.349 376.697 431.882 377.157C432.42 377.613 432.688 378.256 432.688 379.085V382.291C432.693 382.993 432.791 383.524 432.982 383.884V384H430.986ZM429.353 382.626C429.644 382.626 429.913 382.562 430.159 382.435C430.405 382.302 430.588 382.127 430.706 381.908V380.637H429.968C428.979 380.637 428.452 380.979 428.389 381.662L428.382 381.778C428.382 382.024 428.468 382.227 428.642 382.387C428.815 382.546 429.052 382.626 429.353 382.626Z" fill="#333333"/>
<path d="M301.513 400.616H300.712V404H300.111V400.616H299.286L296.874 404H296.112L298.744 400.328L296.288 396.891H297.016L299.252 400.104H300.111V396.891H300.712V400.104H301.552L303.788 396.891H304.511L302.055 400.323L304.691 404H303.935L301.513 400.616ZM305.438 403.507L305.697 403.17C306.107 402.613 306.343 401.799 306.405 400.729L306.498 398.717H309.618V403.507H310.165V405.553H309.584V404H305.614V405.553H305.053L305.058 403.507H305.438ZM306.112 403.507H309.032V399.264H307.055L306.991 400.636C306.933 401.896 306.64 402.853 306.112 403.507ZM314.765 398.717H315.351V404H314.765V399.659L311.913 404H311.332V398.717H311.913V403.062L314.765 398.717ZM320.712 399.215H318.788V404H318.202V399.215H316.352V398.717H320.712V399.215ZM323.329 404.098C322.88 404.098 322.473 403.987 322.108 403.766C321.747 403.544 321.465 403.237 321.264 402.843C321.062 402.446 320.961 402.001 320.961 401.51V401.3C320.961 400.792 321.059 400.335 321.254 399.928C321.452 399.521 321.728 399.202 322.079 398.971C322.431 398.736 322.812 398.619 323.222 398.619C323.863 398.619 324.371 398.839 324.745 399.278C325.123 399.715 325.312 400.312 325.312 401.07V401.397H321.542V401.51C321.542 402.109 321.713 402.608 322.055 403.009C322.4 403.406 322.833 403.604 323.354 403.604C323.666 403.604 323.941 403.548 324.179 403.434C324.42 403.32 324.638 403.137 324.833 402.887L325.199 403.165C324.77 403.787 324.146 404.098 323.329 404.098ZM323.222 399.117C322.782 399.117 322.411 399.278 322.108 399.601C321.809 399.923 321.627 400.356 321.562 400.899H324.73V400.836C324.714 400.328 324.569 399.915 324.296 399.596C324.022 399.277 323.664 399.117 323.222 399.117ZM331.977 400.113C331.977 399.794 331.858 399.549 331.62 399.376C331.382 399.203 331.055 399.117 330.639 399.117C330.261 399.117 329.937 399.215 329.667 399.41C329.4 399.602 329.267 399.846 329.267 400.143H328.686C328.686 399.703 328.873 399.34 329.247 399.054C329.625 398.767 330.089 398.624 330.639 398.624C331.244 398.624 331.716 398.754 332.055 399.015C332.393 399.275 332.562 399.645 332.562 400.123C332.562 400.377 332.484 400.606 332.328 400.812C332.172 401.017 331.944 401.176 331.645 401.29C332.322 401.476 332.66 401.896 332.66 402.55C332.66 403.025 332.476 403.401 332.108 403.678C331.741 403.954 331.252 404.093 330.644 404.093C330.054 404.093 329.566 403.945 329.179 403.648C328.791 403.352 328.598 402.965 328.598 402.486H329.184C329.184 402.805 329.324 403.072 329.604 403.287C329.887 403.499 330.233 403.604 330.644 403.604C331.09 403.604 331.438 403.512 331.688 403.326C331.942 403.137 332.069 402.882 332.069 402.56C332.069 402.205 331.954 401.949 331.723 401.793C331.492 401.637 331.138 401.559 330.663 401.559H329.857V401.051H330.761C331.571 401.031 331.977 400.719 331.977 400.113ZM334.013 404V398.717H335.951C336.622 398.717 337.136 398.837 337.494 399.078C337.852 399.316 338.031 399.666 338.031 400.128C338.031 400.392 337.951 400.628 337.792 400.836C337.632 401.041 337.4 401.191 337.094 401.285C337.439 401.35 337.715 401.498 337.924 401.729C338.135 401.961 338.241 402.229 338.241 402.535C338.241 403.001 338.069 403.362 337.724 403.619C337.382 403.873 336.897 404 336.269 404H334.013ZM334.594 401.568V403.512H336.288C336.728 403.512 337.066 403.427 337.304 403.258C337.541 403.089 337.66 402.844 337.66 402.525C337.66 402.232 337.541 402 337.304 401.827C337.066 401.655 336.728 401.568 336.288 401.568H334.594ZM334.594 401.08H336.073C336.991 401.067 337.45 400.755 337.45 400.143C337.45 399.82 337.323 399.586 337.069 399.439C336.819 399.29 336.446 399.215 335.951 399.215H334.594V401.08ZM339.223 401.28C339.223 400.772 339.32 400.315 339.516 399.908C339.714 399.501 339.993 399.186 340.351 398.961C340.712 398.733 341.12 398.619 341.576 398.619C342.279 398.619 342.849 398.867 343.285 399.361C343.721 399.853 343.939 400.506 343.939 401.319V401.441C343.939 401.952 343.84 402.413 343.642 402.823C343.446 403.23 343.17 403.544 342.812 403.766C342.453 403.987 342.045 404.098 341.586 404.098C340.886 404.098 340.316 403.852 339.877 403.36C339.441 402.866 339.223 402.211 339.223 401.397V401.28ZM339.809 401.441C339.809 402.073 339.971 402.592 340.297 402.999C340.626 403.403 341.055 403.604 341.586 403.604C342.113 403.604 342.54 403.403 342.865 402.999C343.194 402.592 343.358 402.057 343.358 401.393V401.28C343.358 400.877 343.284 400.507 343.134 400.172C342.984 399.837 342.774 399.578 342.504 399.396C342.234 399.21 341.924 399.117 341.576 399.117C341.055 399.117 340.631 399.322 340.302 399.732C339.973 400.139 339.809 400.673 339.809 401.334V401.441ZM349.208 404H348.622V401.578H345.775V404H345.189V398.717H345.775V401.085H348.622V398.717H349.208V404ZM350.453 401.28C350.453 400.772 350.551 400.315 350.746 399.908C350.945 399.501 351.223 399.186 351.581 398.961C351.942 398.733 352.351 398.619 352.807 398.619C353.51 398.619 354.079 398.867 354.516 399.361C354.952 399.853 355.17 400.506 355.17 401.319V401.441C355.17 401.952 355.071 402.413 354.872 402.823C354.677 403.23 354.4 403.544 354.042 403.766C353.684 403.987 353.275 404.098 352.816 404.098C352.117 404.098 351.547 403.852 351.107 403.36C350.671 402.866 350.453 402.211 350.453 401.397V401.28ZM351.039 401.441C351.039 402.073 351.202 402.592 351.527 402.999C351.856 403.403 352.286 403.604 352.816 403.604C353.344 403.604 353.77 403.403 354.096 402.999C354.424 402.592 354.589 402.057 354.589 401.393V401.28C354.589 400.877 354.514 400.507 354.364 400.172C354.215 399.837 354.005 399.578 353.734 399.396C353.464 399.21 353.155 399.117 352.807 399.117C352.286 399.117 351.861 399.322 351.532 399.732C351.203 400.139 351.039 400.673 351.039 401.334V401.441ZM357.816 401.578H357.006V404H356.415V398.717H357.006V401.061H357.807L359.745 398.717H360.482L358.314 401.28L360.722 404H359.95L357.816 401.578ZM363.676 401.28C363.676 400.772 363.773 400.315 363.969 399.908C364.167 399.501 364.446 399.186 364.804 398.961C365.165 398.733 365.574 398.619 366.029 398.619C366.732 398.619 367.302 398.867 367.738 399.361C368.174 399.853 368.393 400.506 368.393 401.319V401.441C368.393 401.952 368.293 402.413 368.095 402.823C367.899 403.23 367.623 403.544 367.265 403.766C366.907 403.987 366.498 404.098 366.039 404.098C365.339 404.098 364.77 403.852 364.33 403.36C363.894 402.866 363.676 402.211 363.676 401.397V401.28ZM364.262 401.441C364.262 402.073 364.424 402.592 364.75 402.999C365.079 403.403 365.508 403.604 366.039 403.604C366.566 403.604 366.993 403.403 367.318 402.999C367.647 402.592 367.812 402.057 367.812 401.393V401.28C367.812 400.877 367.737 400.507 367.587 400.172C367.437 399.837 367.227 399.578 366.957 399.396C366.687 399.21 366.378 399.117 366.029 399.117C365.508 399.117 365.084 399.322 364.755 399.732C364.426 400.139 364.262 400.673 364.262 401.334V401.441ZM373.29 399.215H371.366V404H370.78V399.215H368.93V398.717H373.29V399.215ZM379.608 403.209L381.708 398.717H382.431V404H381.845V399.664L379.813 404H379.398L377.328 399.566V404H376.747V398.717H377.514L379.608 403.209ZM386.044 404.098C385.595 404.098 385.188 403.987 384.823 403.766C384.462 403.544 384.18 403.237 383.979 402.843C383.777 402.446 383.676 402.001 383.676 401.51V401.3C383.676 400.792 383.773 400.335 383.969 399.928C384.167 399.521 384.442 399.202 384.794 398.971C385.146 398.736 385.526 398.619 385.937 398.619C386.578 398.619 387.086 398.839 387.46 399.278C387.838 399.715 388.026 400.312 388.026 401.07V401.397H384.257V401.51C384.257 402.109 384.428 402.608 384.77 403.009C385.115 403.406 385.548 403.604 386.068 403.604C386.381 403.604 386.656 403.548 386.894 403.434C387.134 403.32 387.353 403.137 387.548 402.887L387.914 403.165C387.484 403.787 386.861 404.098 386.044 404.098ZM385.937 399.117C385.497 399.117 385.126 399.278 384.823 399.601C384.524 399.923 384.341 400.356 384.276 400.899H387.445V400.836C387.429 400.328 387.284 399.915 387.011 399.596C386.737 399.277 386.379 399.117 385.937 399.117ZM393.222 404H392.636V401.578H389.789V404H389.203V398.717H389.789V401.085H392.636V398.717H393.222V404ZM396.835 404.098C396.386 404.098 395.979 403.987 395.614 403.766C395.253 403.544 394.971 403.237 394.77 402.843C394.568 402.446 394.467 402.001 394.467 401.51V401.3C394.467 400.792 394.564 400.335 394.76 399.928C394.958 399.521 395.233 399.202 395.585 398.971C395.937 398.736 396.317 398.619 396.728 398.619C397.369 398.619 397.877 398.839 398.251 399.278C398.629 399.715 398.817 400.312 398.817 401.07V401.397H395.048V401.51C395.048 402.109 395.219 402.608 395.561 403.009C395.906 403.406 396.339 403.604 396.859 403.604C397.172 403.604 397.447 403.548 397.685 403.434C397.925 403.32 398.144 403.137 398.339 402.887L398.705 403.165C398.275 403.787 397.652 404.098 396.835 404.098ZM396.728 399.117C396.288 399.117 395.917 399.278 395.614 399.601C395.315 399.923 395.132 400.356 395.067 400.899H398.236V400.836C398.22 400.328 398.075 399.915 397.802 399.596C397.528 399.277 397.17 399.117 396.728 399.117ZM399.833 403.507L400.092 403.17C400.502 402.613 400.738 401.799 400.8 400.729L400.893 398.717H404.013V403.507H404.56V405.553H403.979V404H400.009V405.553H399.447L399.452 403.507H399.833ZM400.507 403.507H403.427V399.264H401.449L401.386 400.636C401.327 401.896 401.034 402.853 400.507 403.507ZM409.726 401.559H409.022V404H408.437V401.559H407.738L405.785 404H405.043L407.23 401.29L405.287 398.717H405.995L407.729 401.036H408.437V398.717H409.022V401.036H409.735L411.469 398.717H412.187L410.233 401.29L412.426 404H411.679L409.726 401.559ZM415.312 404.098C414.862 404.098 414.455 403.987 414.091 403.766C413.729 403.544 413.448 403.237 413.246 402.843C413.044 402.446 412.943 402.001 412.943 401.51V401.3C412.943 400.792 413.041 400.335 413.236 399.928C413.435 399.521 413.71 399.202 414.062 398.971C414.413 398.736 414.794 398.619 415.204 398.619C415.845 398.619 416.353 398.839 416.728 399.278C417.105 399.715 417.294 400.312 417.294 401.07V401.397H413.524V401.51C413.524 402.109 413.695 402.608 414.037 403.009C414.382 403.406 414.815 403.604 415.336 403.604C415.648 403.604 415.924 403.548 416.161 403.434C416.402 403.32 416.62 403.137 416.815 402.887L417.182 403.165C416.752 403.787 416.129 404.098 415.312 404.098ZM415.204 399.117C414.765 399.117 414.394 399.278 414.091 399.601C413.791 399.923 413.609 400.356 413.544 400.899H416.713V400.836C416.697 400.328 416.552 399.915 416.278 399.596C416.005 399.277 415.647 399.117 415.204 399.117ZM422.68 401.412C422.68 402.236 422.497 402.89 422.133 403.375C421.768 403.857 421.28 404.098 420.668 404.098C419.945 404.098 419.392 403.844 419.008 403.336V406.031H418.427V398.717H418.969L418.998 399.464C419.379 398.901 419.931 398.619 420.653 398.619C421.285 398.619 421.78 398.858 422.138 399.337C422.499 399.815 422.68 400.479 422.68 401.329V401.412ZM422.094 401.31C422.094 400.636 421.955 400.104 421.679 399.713C421.402 399.322 421.016 399.127 420.521 399.127C420.163 399.127 419.856 399.213 419.599 399.386C419.341 399.558 419.145 399.809 419.008 400.138V402.672C419.148 402.975 419.348 403.206 419.608 403.365C419.869 403.525 420.176 403.604 420.531 403.604C421.023 403.604 421.405 403.409 421.679 403.019C421.955 402.625 422.094 402.055 422.094 401.31ZM427.313 404C427.255 403.834 427.217 403.588 427.201 403.263C426.996 403.53 426.734 403.736 426.415 403.883C426.099 404.026 425.764 404.098 425.409 404.098C424.901 404.098 424.49 403.956 424.174 403.673C423.861 403.39 423.705 403.032 423.705 402.599C423.705 402.084 423.918 401.677 424.345 401.378C424.774 401.078 425.372 400.929 426.137 400.929H427.196V400.328C427.196 399.951 427.079 399.654 426.845 399.439C426.614 399.221 426.275 399.112 425.829 399.112C425.422 399.112 425.085 399.216 424.818 399.425C424.551 399.633 424.418 399.884 424.418 400.177L423.832 400.172C423.832 399.752 424.027 399.389 424.418 399.083C424.809 398.774 425.289 398.619 425.858 398.619C426.448 398.619 426.911 398.767 427.25 399.063C427.592 399.356 427.768 399.767 427.777 400.294V402.794C427.777 403.305 427.831 403.688 427.938 403.941V404H427.313ZM425.478 403.58C425.868 403.58 426.216 403.486 426.522 403.297C426.832 403.108 427.056 402.856 427.196 402.54V401.378H426.151C425.569 401.384 425.113 401.492 424.784 401.7C424.455 401.905 424.291 402.188 424.291 402.55C424.291 402.846 424.4 403.092 424.618 403.287C424.84 403.482 425.126 403.58 425.478 403.58Z" fill="#555555"/>
<path d="M354.386 442.31C354.386 441.792 354.488 441.326 354.693 440.913C354.898 440.496 355.187 440.177 355.558 439.956C355.929 439.731 356.355 439.619 356.837 439.619C357.55 439.619 358.128 439.849 358.57 440.308C359.016 440.767 359.257 441.375 359.293 442.134L359.298 442.412C359.298 442.933 359.197 443.398 358.995 443.809C358.797 444.219 358.51 444.536 358.136 444.761C357.765 444.985 357.335 445.098 356.847 445.098C356.101 445.098 355.504 444.85 355.055 444.355C354.609 443.857 354.386 443.195 354.386 442.368V442.31ZM355.572 442.412C355.572 442.956 355.685 443.382 355.909 443.691C356.134 443.997 356.446 444.15 356.847 444.15C357.247 444.15 357.558 443.994 357.779 443.682C358.004 443.369 358.116 442.912 358.116 442.31C358.116 441.776 358.001 441.353 357.77 441.04C357.542 440.728 357.231 440.571 356.837 440.571C356.45 440.571 356.142 440.726 355.914 441.035C355.686 441.341 355.572 441.8 355.572 442.412ZM362.179 442.91H361.578V445H360.392V439.717H361.578V441.826H362.101L363.561 439.717H365.025L363.116 442.246L365.187 445H363.644L362.179 442.91Z" fill="white"/>
<path d="M197.048 346.8C195.248 340.3 186.748 340.9 186.748 340.9L186.948 345.4C191.848 344.6 194.948 350.3 194.948 350.3L197.048 346.8Z" fill="#E8505B"/>
<path d="M113.448 270.7C108.848 271.2 108.348 276.9 108.348 276.9L111.448 277.3C111.448 273.9 115.648 272.5 115.648 272.5L113.448 270.7Z" fill="#E8505B"/>
<path d="M156.148 209.8C158.948 216.9 168.448 215.3 168.448 215.3L167.648 210.2C162.248 211.7 158.148 205.6 158.148 205.6L156.148 209.8Z" fill="#E8505B"/>
<path d="M49.5478 330.1C44.9478 330.6 44.4478 336.3 44.4478 336.3L47.5478 336.7C47.5478 333.3 51.7478 331.9 51.7478 331.9L49.5478 330.1Z" fill="#E8505B"/>
<path d="M68.4479 232.5C69.1479 227.9 63.6479 226 63.6479 226L62.5479 228.9C65.8479 229.7 66.1479 234.1 66.1479 234.1L68.4479 232.5Z" fill="#E8505B"/>
<path d="M-9.95217 302.5C-10.7522 309.7 -1.25217 311.4 -1.25217 311.4L0.447831 306.7C-5.25217 306.2 -6.05217 299.5 -6.05217 299.5L-9.95217 302.5Z" fill="#E8505B"/>
<path d="M215.248 268C219.848 268.3 221.348 262.7 221.348 262.7L218.348 261.8C217.848 265.1 213.448 265.8 213.448 265.8L215.248 268Z" fill="#E8505B"/>
<path d="M730.448 270.7C725.848 271.2 725.348 276.9 725.348 276.9L728.448 277.3C728.448 273.9 732.648 272.5 732.648 272.5L730.448 270.7Z" fill="#E8505B"/>
<path d="M773.148 209.8C775.948 216.9 785.448 215.3 785.448 215.3L784.648 210.2C779.248 211.7 775.148 205.6 775.148 205.6L773.148 209.8Z" fill="#E8505B"/>
<path d="M666.548 330.1C661.948 330.6 661.448 336.3 661.448 336.3L664.548 336.7C664.548 333.3 668.748 331.9 668.748 331.9L666.548 330.1Z" fill="#E8505B"/>
<path d="M685.448 232.5C686.148 227.9 680.648 226 680.648 226L679.548 228.9C682.848 229.7 683.148 234.1 683.148 234.1L685.448 232.5Z" fill="#E8505B"/>
<path d="M607.048 302.5C606.248 309.7 615.748 311.4 615.748 311.4L617.448 306.7C611.748 306.2 610.948 299.5 610.948 299.5L607.048 302.5Z" fill="#E8505B"/>
</g>
<defs>
<linearGradient id="paint0_linear" x1="308.4" y1="441.7" x2="337.027" y2="395.713" gradientUnits="userSpaceOnUse">
<stop stop-color="#E2792F"/>
<stop offset="1" stop-color="#E8A23A"/>
</linearGradient>
<clipPath id="clip0">
<rect width="798" height="600" fill="white"/>
</clipPath>
</defs>
</svg>
