<svg width="800" height="600" viewBox="0 0 800 600" fill="none" xmlns="http://www.w3.org/2000/svg">
<g clip-path="url(#clip0)">
<path d="M855.174 469.777H309.4V470.031H855.174V469.777Z" fill="#EBEBEB"/>
<path d="M800.489 483.4H742.527V483.654H800.489V483.4Z" fill="#EBEBEB"/>
<path d="M671.031 480.777H606.957V481.031H671.031V480.777Z" fill="#EBEBEB"/>
<path d="M745.366 479.508H724.408V479.761H745.366V479.508Z" fill="#EBEBEB"/>
<path d="M466.256 476.969H419.102V477.223H466.256V476.969Z" fill="#EBEBEB"/>
<path d="M412.99 476.969H396.18V477.223H412.99V476.969Z" fill="#EBEBEB"/>
<path d="M512.101 480.523H452.939V480.777H512.101V480.523Z" fill="#EBEBEB"/>
<path d="M568.097 432.038H357.319C353.936 432.038 351.098 429.838 351.098 427.214V197.565C351.098 194.942 353.936 192.742 357.319 192.742H568.097C571.481 192.742 574.319 194.942 574.319 197.565V427.214C574.319 429.838 571.59 432.038 568.097 432.038ZM357.319 192.911C354.045 192.911 351.316 194.942 351.316 197.565V427.214C351.316 429.753 353.936 431.868 357.319 431.868H568.097C571.372 431.868 574.101 429.838 574.101 427.214V197.565C574.101 195.027 571.481 192.911 568.097 192.911H357.319Z" fill="#EBEBEB"/>
<path d="M804.199 432.038H593.421C590.037 432.038 587.199 429.838 587.199 427.214V197.565C587.199 194.942 590.037 192.742 593.421 192.742H804.199C807.583 192.742 810.421 194.942 810.421 197.565V427.214C810.421 429.838 807.692 432.038 804.199 432.038ZM593.421 192.911C590.146 192.911 587.418 194.942 587.418 197.565V427.214C587.418 429.753 590.037 431.868 593.421 431.868H804.199C807.474 431.868 810.203 429.838 810.203 427.214V197.565C810.203 195.027 807.583 192.911 804.199 192.911H593.421Z" fill="#EBEBEB"/>
<path d="M507.297 377.714C466.691 377.714 427.068 361.891 404.364 333.206C404.255 333.036 404.255 332.782 404.582 332.613C404.801 332.529 405.128 332.529 405.347 332.782C427.942 361.214 467.237 376.868 507.406 376.868C528.801 376.868 550.413 372.468 569.843 363.16C597.022 350.213 616.124 329.736 623.547 305.705C630.969 281.589 625.839 256.712 609.029 235.643C608.92 235.473 608.92 235.219 609.248 235.05C609.466 234.966 609.793 234.966 610.012 235.219C626.931 256.458 632.061 281.589 624.638 305.874C617.216 330.159 597.896 350.806 570.498 363.837C550.741 373.314 528.91 377.714 507.297 377.714Z" fill="#E6E6E6"/>
<path d="M684.076 367.543C683.991 367.543 683.906 367.543 683.82 367.477C683.65 367.344 683.565 367.145 683.735 367.012C698.816 351.537 705.377 332.477 702.054 313.216C698.731 293.956 685.951 276.888 666.183 265.066C646.331 253.311 621.792 248.197 597.168 250.787C572.459 253.377 550.562 263.339 535.396 278.748C535.225 278.88 534.97 278.947 534.799 278.814C534.629 278.681 534.544 278.482 534.714 278.349C549.965 262.742 572.118 252.713 597.083 250.123C622.048 247.533 646.757 252.647 666.78 264.535C686.803 276.423 699.668 293.691 702.991 313.15C706.314 332.609 699.754 351.869 684.502 367.477C684.332 367.477 684.246 367.543 684.076 367.543Z" fill="#E6E6E6"/>
<path d="M701.302 372.174H701.227C701.001 372.116 700.926 372 700.926 371.826C705.898 355.328 702.206 338.309 690.603 323.952C678.925 309.596 660.692 299.523 639.218 295.702C594.916 287.772 550.462 309.075 540.14 343.113C540.065 343.287 539.914 343.345 539.688 343.345C539.462 343.287 539.387 343.171 539.387 342.998C549.784 308.612 594.614 287.135 639.369 295.123C661.068 299.002 679.452 309.133 691.206 323.605C702.96 338.135 706.652 355.27 701.679 371.942C701.604 372.116 701.453 372.174 701.302 372.174Z" fill="#E6E6E6"/>
<path d="M525.526 398.191C484.92 398.191 445.297 382.368 422.593 353.683C422.483 353.513 422.483 353.26 422.811 353.09C423.029 353.006 423.357 353.006 423.575 353.26C446.17 381.691 485.466 397.345 525.635 397.345C547.029 397.345 568.642 392.945 588.071 383.637C644.177 356.813 661.751 299.613 627.258 256.12C627.149 255.951 627.149 255.697 627.476 255.527C627.695 255.443 628.022 255.443 628.24 255.697C663.061 299.613 645.378 357.321 588.726 384.398C568.969 393.791 547.138 398.191 525.526 398.191Z" fill="#E6E6E6"/>
<path d="M508.101 249.302H390.432V469.302H508.101V249.302Z" fill="#5CDBF5"/>
<path d="M501.781 430.883L501.781 253.634H396.884L396.884 430.883H501.781Z" fill="#8FB1FD"/>
<path d="M495.985 257.97H402.439V269.649H495.985V257.97Z" fill="#5CDBF5"/>
<path d="M494.021 258.998H490.637V268.621H494.021V258.998Z" fill="#8FB1FD"/>
<path d="M488.126 258.998H484.742V268.621H488.126V258.998Z" fill="#8FB1FD"/>
<path d="M482.341 258.998H478.957V268.621H482.341V258.998Z" fill="#8FB1FD"/>
<path d="M476.446 258.998H473.062V268.621H476.446V258.998Z" fill="#8FB1FD"/>
<path d="M470.661 258.998H467.277V268.621H470.661V258.998Z" fill="#8FB1FD"/>
<path d="M464.767 258.998H461.383V268.621H464.767V258.998Z" fill="#8FB1FD"/>
<path d="M458.872 258.998H455.488V268.621H458.872V258.998Z" fill="#8FB1FD"/>
<path d="M453.087 258.998H449.703V268.621H453.087V258.998Z" fill="#8FB1FD"/>
<path d="M447.194 258.998H443.811V268.621H447.194V258.998Z" fill="#8FB1FD"/>
<path d="M441.407 258.998H438.023V268.621H441.407V258.998Z" fill="#8FB1FD"/>
<path d="M435.513 258.998H432.129V268.621H435.513V258.998Z" fill="#8FB1FD"/>
<path d="M429.728 258.998H426.344V268.621H429.728V258.998Z" fill="#8FB1FD"/>
<path d="M423.833 258.998H420.449V268.621H423.833V258.998Z" fill="#8FB1FD"/>
<path d="M417.94 258.998H414.557V268.621H417.94V258.998Z" fill="#8FB1FD"/>
<path d="M409.642 263.112C410.848 263.112 411.825 262.454 411.825 261.642C411.825 260.831 410.848 260.173 409.642 260.173C408.436 260.173 407.459 260.831 407.459 261.642C407.459 262.454 408.436 263.112 409.642 263.112Z" fill="#79A2FD"/>
<path d="M409.642 267.445C410.848 267.445 411.825 266.788 411.825 265.976C411.825 265.165 410.848 264.507 409.642 264.507C408.436 264.507 407.459 265.165 407.459 265.976C407.459 266.788 408.436 267.445 409.642 267.445Z" fill="#8FB1FD"/>
<path d="M495.985 273.028H402.439V284.708H495.985V273.028Z" fill="#5CDBF5"/>
<path d="M494.021 273.983H490.637V283.606H494.021V273.983Z" fill="#8FB1FD"/>
<path d="M488.126 273.983H484.742V283.606H488.126V273.983Z" fill="#8FB1FD"/>
<path d="M482.341 273.983H478.957V283.606H482.341V273.983Z" fill="#8FB1FD"/>
<path d="M476.446 273.983H473.062V283.606H476.446V273.983Z" fill="#8FB1FD"/>
<path d="M470.661 273.983H467.277V283.606H470.661V273.983Z" fill="#8FB1FD"/>
<path d="M458.872 273.983H455.488V283.606H458.872V273.983Z" fill="#8FB1FD"/>
<path d="M453.087 273.983H449.703V283.606H453.087V273.983Z" fill="#8FB1FD"/>
<path d="M447.194 273.983H443.811V283.606H447.194V273.983Z" fill="#8FB1FD"/>
<path d="M441.407 273.983H438.023V283.606H441.407V273.983Z" fill="#8FB1FD"/>
<path d="M435.513 273.983H432.129V283.606H435.513V273.983Z" fill="#8FB1FD"/>
<path d="M429.728 273.983H426.344V283.606H429.728V273.983Z" fill="#8FB1FD"/>
<path d="M423.833 273.983H420.449V283.606H423.833V273.983Z" fill="#8FB1FD"/>
<path d="M417.94 273.983H414.557V283.606H417.94V273.983Z" fill="#8FB1FD"/>
<path d="M409.642 278.17C410.848 278.17 411.825 277.512 411.825 276.701C411.825 275.89 410.848 275.232 409.642 275.232C408.436 275.232 407.459 275.89 407.459 276.701C407.459 277.512 408.436 278.17 409.642 278.17Z" fill="#79A2FD"/>
<path d="M407.459 280.961C407.459 281.769 408.441 282.431 409.642 282.431C410.843 282.431 411.825 281.769 411.825 280.961C411.825 280.153 410.843 279.492 409.642 279.492C408.441 279.492 407.459 280.153 407.459 280.961Z" fill="#8FB1FD"/>
<path d="M495.985 288.013H402.439V299.693H495.985V288.013Z" fill="#5CDBF5"/>
<path d="M494.021 288.968H490.637V298.591H494.021V288.968Z" fill="#8FB1FD"/>
<path d="M488.126 288.968H484.742V298.591H488.126V288.968Z" fill="#8FB1FD"/>
<path d="M482.341 288.968H478.957V298.591H482.341V288.968Z" fill="#8FB1FD"/>
<path d="M476.446 288.968H473.062V298.591H476.446V288.968Z" fill="#8FB1FD"/>
<path d="M470.661 288.968H467.277V298.591H470.661V288.968Z" fill="#8FB1FD"/>
<path d="M464.767 288.968H461.383V298.591H464.767V288.968Z" fill="#8FB1FD"/>
<path d="M458.872 288.968H455.488V298.591H458.872V288.968Z" fill="#8FB1FD"/>
<path d="M453.087 288.968H449.703V298.591H453.087V288.968Z" fill="#8FB1FD"/>
<path d="M447.194 288.968H443.811V298.591H447.194V288.968Z" fill="#8FB1FD"/>
<path d="M441.407 288.968H438.023V298.591H441.407V288.968Z" fill="#8FB1FD"/>
<path d="M435.513 288.968H432.129V298.591H435.513V288.968Z" fill="#8FB1FD"/>
<path d="M429.728 288.968H426.344V298.591H429.728V288.968Z" fill="#8FB1FD"/>
<path d="M423.833 288.968H420.449V298.591H423.833V288.968Z" fill="#8FB1FD"/>
<path d="M417.94 288.968H414.557V298.591H417.94V288.968Z" fill="#8FB1FD"/>
<path d="M409.642 293.155C410.848 293.155 411.825 292.497 411.825 291.686C411.825 290.875 410.848 290.217 409.642 290.217C408.436 290.217 407.459 290.875 407.459 291.686C407.459 292.497 408.436 293.155 409.642 293.155Z" fill="#79A2FD"/>
<path d="M409.642 297.416C410.848 297.416 411.825 296.758 411.825 295.946C411.825 295.135 410.848 294.477 409.642 294.477C408.436 294.477 407.459 295.135 407.459 295.946C407.459 296.758 408.436 297.416 409.642 297.416Z" fill="#8FB1FD"/>
<path d="M495.985 302.998H402.439V314.678H495.985V302.998Z" fill="#5CDBF5"/>
<path d="M494.021 304.027H490.637V313.649H494.021V304.027Z" fill="#8FB1FD"/>
<path d="M488.126 304.027H484.742V313.649H488.126V304.027Z" fill="#8FB1FD"/>
<path d="M482.341 304.027H478.957V313.649H482.341V304.027Z" fill="#8FB1FD"/>
<path d="M476.446 304.027H473.062V313.649H476.446V304.027Z" fill="#8FB1FD"/>
<path d="M470.661 304.027H467.277V313.649H470.661V304.027Z" fill="#8FB1FD"/>
<path d="M464.767 304.027H461.383V313.649H464.767V304.027Z" fill="#8FB1FD"/>
<path d="M458.872 304.027H455.488V313.649H458.872V304.027Z" fill="#8FB1FD"/>
<path d="M441.407 304.027H438.023V313.649H441.407V304.027Z" fill="#8FB1FD"/>
<path d="M435.513 304.027H432.129V313.649H435.513V304.027Z" fill="#8FB1FD"/>
<path d="M429.728 304.027H426.344V313.649H429.728V304.027Z" fill="#8FB1FD"/>
<path d="M423.833 304.027H420.449V313.649H423.833V304.027Z" fill="#8FB1FD"/>
<path d="M417.94 304.027H414.557V313.649H417.94V304.027Z" fill="#8FB1FD"/>
<path d="M407.459 306.671C407.459 307.479 408.441 308.14 409.642 308.14C410.843 308.14 411.825 307.479 411.825 306.671C411.825 305.863 410.843 305.202 409.642 305.202C408.441 305.202 407.459 305.863 407.459 306.671Z" fill="#79A2FD"/>
<path d="M409.642 312.474C410.848 312.474 411.825 311.816 411.825 311.005C411.825 310.193 410.848 309.536 409.642 309.536C408.436 309.536 407.459 310.193 407.459 311.005C407.459 311.816 408.436 312.474 409.642 312.474Z" fill="#8FB1FD"/>
<path d="M495.985 318.057H402.439V329.736H495.985V318.057Z" fill="#5CDBF5"/>
<path d="M488.126 319.012H484.742V328.634H488.126V319.012Z" fill="#8FB1FD"/>
<path d="M482.341 319.012H478.957V328.634H482.341V319.012Z" fill="#8FB1FD"/>
<path d="M476.446 319.012H473.062V328.634H476.446V319.012Z" fill="#8FB1FD"/>
<path d="M470.661 319.012H467.277V328.634H470.661V319.012Z" fill="#8FB1FD"/>
<path d="M464.767 319.012H461.383V328.634H464.767V319.012Z" fill="#8FB1FD"/>
<path d="M458.872 319.012H455.488V328.634H458.872V319.012Z" fill="#8FB1FD"/>
<path d="M453.087 319.012H449.703V328.634H453.087V319.012Z" fill="#8FB1FD"/>
<path d="M447.194 319.012H443.811V328.634H447.194V319.012Z" fill="#8FB1FD"/>
<path d="M441.407 319.012H438.023V328.634H441.407V319.012Z" fill="#8FB1FD"/>
<path d="M435.513 319.012H432.129V328.634H435.513V319.012Z" fill="#8FB1FD"/>
<path d="M429.728 319.012H426.344V328.634H429.728V319.012Z" fill="#8FB1FD"/>
<path d="M423.833 319.012H420.449V328.634H423.833V319.012Z" fill="#8FB1FD"/>
<path d="M417.94 319.012H414.557V328.634H417.94V319.012Z" fill="#8FB1FD"/>
<path d="M409.642 323.199C410.848 323.199 411.825 322.541 411.825 321.729C411.825 320.918 410.848 320.26 409.642 320.26C408.436 320.26 407.459 320.918 407.459 321.729C407.459 322.541 408.436 323.199 409.642 323.199Z" fill="#79A2FD"/>
<path d="M409.642 327.459C410.848 327.459 411.825 326.801 411.825 325.99C411.825 325.179 410.848 324.521 409.642 324.521C408.436 324.521 407.459 325.179 407.459 325.99C407.459 326.801 408.436 327.459 409.642 327.459Z" fill="#8FB1FD"/>
<path d="M495.985 333.042H402.439V344.721H495.985V333.042Z" fill="#5CDBF5"/>
<path d="M494.021 334.07H490.637V343.693H494.021V334.07Z" fill="#8FB1FD"/>
<path d="M488.126 334.07H484.742V343.693H488.126V334.07Z" fill="#8FB1FD"/>
<path d="M476.446 334.07H473.062V343.693H476.446V334.07Z" fill="#8FB1FD"/>
<path d="M470.661 334.07H467.277V343.693H470.661V334.07Z" fill="#8FB1FD"/>
<path d="M464.767 334.07H461.383V343.693H464.767V334.07Z" fill="#8FB1FD"/>
<path d="M458.872 334.07H455.488V343.693H458.872V334.07Z" fill="#8FB1FD"/>
<path d="M453.087 334.07H449.703V343.693H453.087V334.07Z" fill="#8FB1FD"/>
<path d="M447.194 334.07H443.811V343.693H447.194V334.07Z" fill="#8FB1FD"/>
<path d="M435.513 334.07H432.129V343.693H435.513V334.07Z" fill="#8FB1FD"/>
<path d="M429.728 334.07H426.344V343.693H429.728V334.07Z" fill="#8FB1FD"/>
<path d="M423.833 334.07H420.449V343.693H423.833V334.07Z" fill="#8FB1FD"/>
<path d="M417.94 334.07H414.557V343.693H417.94V334.07Z" fill="#8FB1FD"/>
<path d="M409.642 338.184C410.848 338.184 411.825 337.526 411.825 336.714C411.825 335.903 410.848 335.245 409.642 335.245C408.436 335.245 407.459 335.903 407.459 336.714C407.459 337.526 408.436 338.184 409.642 338.184Z" fill="#79A2FD"/>
<path d="M409.642 342.444C410.848 342.444 411.825 341.786 411.825 340.975C411.825 340.163 410.848 339.506 409.642 339.506C408.436 339.506 407.459 340.163 407.459 340.975C407.459 341.786 408.436 342.444 409.642 342.444Z" fill="#8FB1FD"/>
<path d="M495.985 348.027H402.439V359.706H495.985V348.027Z" fill="#5CDBF5"/>
<path d="M494.021 349.055H490.637V358.678H494.021V349.055Z" fill="#8FB1FD"/>
<path d="M488.126 349.055H484.742V358.678H488.126V349.055Z" fill="#8FB1FD"/>
<path d="M482.341 349.055H478.957V358.678H482.341V349.055Z" fill="#8FB1FD"/>
<path d="M476.446 349.055H473.062V358.678H476.446V349.055Z" fill="#8FB1FD"/>
<path d="M470.661 349.055H467.277V358.678H470.661V349.055Z" fill="#8FB1FD"/>
<path d="M464.767 349.055H461.383V358.678H464.767V349.055Z" fill="#8FB1FD"/>
<path d="M458.872 349.055H455.488V358.678H458.872V349.055Z" fill="#8FB1FD"/>
<path d="M453.087 349.055H449.703V358.678H453.087V349.055Z" fill="#8FB1FD"/>
<path d="M447.194 349.055H443.811V358.678H447.194V349.055Z" fill="#8FB1FD"/>
<path d="M441.407 349.055H438.023V358.678H441.407V349.055Z" fill="#8FB1FD"/>
<path d="M435.513 349.055H432.129V358.678H435.513V349.055Z" fill="#8FB1FD"/>
<path d="M429.728 349.055H426.344V358.678H429.728V349.055Z" fill="#8FB1FD"/>
<path d="M423.833 349.055H420.449V358.678H423.833V349.055Z" fill="#8FB1FD"/>
<path d="M417.94 349.055H414.557V358.678H417.94V349.055Z" fill="#8FB1FD"/>
<path d="M409.642 353.169C410.848 353.169 411.825 352.511 411.825 351.699C411.825 350.888 410.848 350.23 409.642 350.23C408.436 350.23 407.459 350.888 407.459 351.699C407.459 352.511 408.436 353.169 409.642 353.169Z" fill="#79A2FD"/>
<path d="M407.459 356.033C407.459 356.841 408.441 357.502 409.642 357.502C410.843 357.502 411.825 356.841 411.825 356.033C411.825 355.225 410.843 354.564 409.642 354.564C408.441 354.564 407.459 355.225 407.459 356.033Z" fill="#8FB1FD"/>
<path d="M495.985 363.085H402.439V374.765H495.985V363.085Z" fill="#5CDBF5"/>
<path d="M494.021 364.04H490.637V373.663H494.021V364.04Z" fill="#8FB1FD"/>
<path d="M488.126 364.04H484.742V373.663H488.126V364.04Z" fill="#8FB1FD"/>
<path d="M482.341 364.04H478.957V373.663H482.341V364.04Z" fill="#8FB1FD"/>
<path d="M476.446 364.04H473.062V373.663H476.446V364.04Z" fill="#8FB1FD"/>
<path d="M470.661 364.04H467.277V373.663H470.661V364.04Z" fill="#8FB1FD"/>
<path d="M464.767 364.04H461.383V373.663H464.767V364.04Z" fill="#8FB1FD"/>
<path d="M458.872 364.04H455.488V373.663H458.872V364.04Z" fill="#8FB1FD"/>
<path d="M453.087 364.04H449.703V373.663H453.087V364.04Z" fill="#8FB1FD"/>
<path d="M441.407 364.04H438.023V373.663H441.407V364.04Z" fill="#8FB1FD"/>
<path d="M435.513 364.04H432.129V373.663H435.513V364.04Z" fill="#8FB1FD"/>
<path d="M429.728 364.04H426.344V373.663H429.728V364.04Z" fill="#8FB1FD"/>
<path d="M423.833 364.04H420.449V373.663H423.833V364.04Z" fill="#8FB1FD"/>
<path d="M417.94 364.04H414.557V373.663H417.94V364.04Z" fill="#8FB1FD"/>
<path d="M409.642 368.227C410.848 368.227 411.825 367.569 411.825 366.758C411.825 365.947 410.848 365.289 409.642 365.289C408.436 365.289 407.459 365.947 407.459 366.758C407.459 367.569 408.436 368.227 409.642 368.227Z" fill="#79A2FD"/>
<path d="M409.642 372.488C410.848 372.488 411.825 371.83 411.825 371.018C411.825 370.207 410.848 369.549 409.642 369.549C408.436 369.549 407.459 370.207 407.459 371.018C407.459 371.83 408.436 372.488 409.642 372.488Z" fill="#8FB1FD"/>
<path d="M495.985 378.07H402.439V389.75H495.985V378.07Z" fill="#5CDBF5"/>
<path d="M494.021 379.099H490.637V388.721H494.021V379.099Z" fill="#8FB1FD"/>
<path d="M488.126 379.099H484.742V388.721H488.126V379.099Z" fill="#8FB1FD"/>
<path d="M482.341 379.099H478.957V388.721H482.341V379.099Z" fill="#8FB1FD"/>
<path d="M476.446 379.099H473.062V388.721H476.446V379.099Z" fill="#8FB1FD"/>
<path d="M470.661 379.099H467.277V388.721H470.661V379.099Z" fill="#8FB1FD"/>
<path d="M464.767 379.099H461.383V388.721H464.767V379.099Z" fill="#8FB1FD"/>
<path d="M458.872 379.099H455.488V388.721H458.872V379.099Z" fill="#8FB1FD"/>
<path d="M453.087 379.099H449.703V388.721H453.087V379.099Z" fill="#8FB1FD"/>
<path d="M447.194 379.099H443.811V388.721H447.194V379.099Z" fill="#8FB1FD"/>
<path d="M441.407 379.099H438.023V388.721H441.407V379.099Z" fill="#8FB1FD"/>
<path d="M435.513 379.099H432.129V388.721H435.513V379.099Z" fill="#8FB1FD"/>
<path d="M429.728 379.099H426.344V388.721H429.728V379.099Z" fill="#8FB1FD"/>
<path d="M423.833 379.099H420.449V388.721H423.833V379.099Z" fill="#8FB1FD"/>
<path d="M417.94 379.099H414.557V388.721H417.94V379.099Z" fill="#8FB1FD"/>
<path d="M407.459 381.743C407.459 382.551 408.441 383.212 409.642 383.212C410.843 383.212 411.825 382.551 411.825 381.743C411.825 380.935 410.843 380.274 409.642 380.274C408.441 380.274 407.459 380.935 407.459 381.743Z" fill="#79A2FD"/>
<path d="M409.642 387.473C410.848 387.473 411.825 386.815 411.825 386.003C411.825 385.192 410.848 384.534 409.642 384.534C408.436 384.534 407.459 385.192 407.459 386.003C407.459 386.815 408.436 387.473 409.642 387.473Z" fill="#8FB1FD"/>
<path d="M495.985 393.055H402.439V404.735H495.985V393.055Z" fill="#5CDBF5"/>
<path d="M494.021 394.084H490.637V403.706H494.021V394.084Z" fill="#8FB1FD"/>
<path d="M488.126 394.084H484.742V403.706H488.126V394.084Z" fill="#8FB1FD"/>
<path d="M482.341 394.084H478.957V403.706H482.341V394.084Z" fill="#8FB1FD"/>
<path d="M476.446 394.084H473.062V403.706H476.446V394.084Z" fill="#8FB1FD"/>
<path d="M470.661 394.084H467.277V403.706H470.661V394.084Z" fill="#8FB1FD"/>
<path d="M464.767 394.084H461.383V403.706H464.767V394.084Z" fill="#8FB1FD"/>
<path d="M458.872 394.084H455.488V403.706H458.872V394.084Z" fill="#8FB1FD"/>
<path d="M453.087 394.084H449.703V403.706H453.087V394.084Z" fill="#8FB1FD"/>
<path d="M447.194 394.084H443.811V403.706H447.194V394.084Z" fill="#8FB1FD"/>
<path d="M441.407 394.084H438.023V403.706H441.407V394.084Z" fill="#8FB1FD"/>
<path d="M435.513 394.084H432.129V403.706H435.513V394.084Z" fill="#8FB1FD"/>
<path d="M429.728 394.084H426.344V403.706H429.728V394.084Z" fill="#8FB1FD"/>
<path d="M423.833 394.084H420.449V403.706H423.833V394.084Z" fill="#8FB1FD"/>
<path d="M417.94 394.084H414.557V403.706H417.94V394.084Z" fill="#8FB1FD"/>
<path d="M409.642 398.197C410.848 398.197 411.825 397.539 411.825 396.728C411.825 395.917 410.848 395.259 409.642 395.259C408.436 395.259 407.459 395.917 407.459 396.728C407.459 397.539 408.436 398.197 409.642 398.197Z" fill="#79A2FD"/>
<path d="M409.642 402.531C410.848 402.531 411.825 401.873 411.825 401.062C411.825 400.251 410.848 399.593 409.642 399.593C408.436 399.593 407.459 400.251 407.459 401.062C407.459 401.873 408.436 402.531 409.642 402.531Z" fill="#8FB1FD"/>
<path d="M495.985 408.114H402.439V419.793H495.985V408.114Z" fill="#5CDBF5"/>
<path d="M494.021 409.069H490.637V418.691H494.021V409.069Z" fill="#8FB1FD"/>
<path d="M488.126 409.069H484.742V418.691H488.126V409.069Z" fill="#8FB1FD"/>
<path d="M482.341 409.069H478.957V418.691H482.341V409.069Z" fill="#8FB1FD"/>
<path d="M476.446 409.069H473.062V418.691H476.446V409.069Z" fill="#8FB1FD"/>
<path d="M470.661 409.069H467.277V418.691H470.661V409.069Z" fill="#8FB1FD"/>
<path d="M464.767 409.069H461.383V418.691H464.767V409.069Z" fill="#8FB1FD"/>
<path d="M458.872 409.069H455.488V418.691H458.872V409.069Z" fill="#8FB1FD"/>
<path d="M453.087 409.069H449.703V418.691H453.087V409.069Z" fill="#8FB1FD"/>
<path d="M447.194 409.069H443.811V418.691H447.194V409.069Z" fill="#8FB1FD"/>
<path d="M441.407 409.069H438.023V418.691H441.407V409.069Z" fill="#8FB1FD"/>
<path d="M435.513 409.069H432.129V418.691H435.513V409.069Z" fill="#8FB1FD"/>
<path d="M429.728 409.069H426.344V418.691H429.728V409.069Z" fill="#8FB1FD"/>
<path d="M423.833 409.069H420.449V418.691H423.833V409.069Z" fill="#8FB1FD"/>
<path d="M417.94 409.069H414.557V418.691H417.94V409.069Z" fill="#8FB1FD"/>
<path d="M409.642 413.256C410.848 413.256 411.825 412.598 411.825 411.786C411.825 410.975 410.848 410.317 409.642 410.317C408.436 410.317 407.459 410.975 407.459 411.786C407.459 412.598 408.436 413.256 409.642 413.256Z" fill="#79A2FD"/>
<path d="M409.642 417.516C410.848 417.516 411.825 416.858 411.825 416.047C411.825 415.235 410.848 414.578 409.642 414.578C408.436 414.578 407.459 415.235 407.459 416.047C407.459 416.858 408.436 417.516 409.642 417.516Z" fill="#8FB1FD"/>
<path d="M633.3 216.35H515.631V469.777H633.3V216.35Z" fill="#5CDBF5"/>
<path d="M627.004 425.502V221.322L522.106 221.322V425.502H627.004Z" fill="#5CDBF5"/>
<path d="M621.294 226.335H527.748V239.789H621.294V226.335Z" fill="#79A2FD"/>
<path d="M619.22 227.519H615.836V238.604H619.22V227.519Z" fill="#5CDBF5"/>
<path d="M613.435 227.519H610.051V238.604H613.435V227.519Z" fill="#5CDBF5"/>
<path d="M607.54 227.519H604.156V238.604H607.54V227.519Z" fill="#5CDBF5"/>
<path d="M601.645 227.519H598.262V238.604H601.645V227.519Z" fill="#5CDBF5"/>
<path d="M595.86 227.519H592.477V238.604H595.86V227.519Z" fill="#5CDBF5"/>
<path d="M589.968 227.519H586.584V238.604H589.968V227.519Z" fill="#5CDBF5"/>
<path d="M584.181 227.519H580.797V238.604H584.181V227.519Z" fill="#5CDBF5"/>
<path d="M578.286 227.519H574.902V238.604H578.286V227.519Z" fill="#5CDBF5"/>
<path d="M572.503 227.519H569.119V238.604H572.503V227.519Z" fill="#5CDBF5"/>
<path d="M566.606 227.519H563.223V238.604H566.606V227.519Z" fill="#5CDBF5"/>
<path d="M560.714 227.519H557.33V238.604H560.714V227.519Z" fill="#5CDBF5"/>
<path d="M554.929 227.519H551.545V238.604H554.929V227.519Z" fill="#5CDBF5"/>
<path d="M549.034 227.519H545.65V238.604H549.034V227.519Z" fill="#5CDBF5"/>
<path d="M543.249 227.519H539.865V238.604H543.249V227.519Z" fill="#5CDBF5"/>
<path d="M534.843 232.258C536.049 232.258 537.026 231.5 537.026 230.566C537.026 229.631 536.049 228.873 534.843 228.873C533.638 228.873 532.66 229.631 532.66 230.566C532.66 231.5 533.638 232.258 534.843 232.258Z" fill="#5CDBF5"/>
<path d="M534.843 237.25C536.049 237.25 537.026 236.493 537.026 235.558C537.026 234.623 536.049 233.866 534.843 233.866C533.638 233.866 532.66 234.623 532.66 235.558C532.66 236.493 533.638 237.25 534.843 237.25Z" fill="#5CDBF5"/>
<path d="M621.294 243.681H527.748V257.135H621.294V243.681Z" fill="#79A2FD"/>
<path d="M619.22 244.781H615.836V255.866H619.22V244.781Z" fill="#5CDBF5"/>
<path d="M607.54 244.781H604.156V255.866H607.54V244.781Z" fill="#5CDBF5"/>
<path d="M601.645 244.781H598.262V255.866H601.645V244.781Z" fill="#5CDBF5"/>
<path d="M595.86 244.781H592.477V255.866H595.86V244.781Z" fill="#5CDBF5"/>
<path d="M589.968 244.781H586.584V255.866H589.968V244.781Z" fill="#5CDBF5"/>
<path d="M584.181 244.781H580.797V255.866H584.181V244.781Z" fill="#5CDBF5"/>
<path d="M578.286 244.781H574.902V255.866H578.286V244.781Z" fill="#5CDBF5"/>
<path d="M566.606 244.781H563.223V255.866H566.606V244.781Z" fill="#5CDBF5"/>
<path d="M560.714 244.781H557.33V255.866H560.714V244.781Z" fill="#5CDBF5"/>
<path d="M554.929 244.781H551.545V255.866H554.929V244.781Z" fill="#5CDBF5"/>
<path d="M549.034 244.781H545.65V255.866H549.034V244.781Z" fill="#5CDBF5"/>
<path d="M543.249 244.781H539.865V255.866H543.249V244.781Z" fill="#5CDBF5"/>
<path d="M534.843 249.604C536.049 249.604 537.026 248.847 537.026 247.912C537.026 246.977 536.049 246.22 534.843 246.22C533.638 246.22 532.66 246.977 532.66 247.912C532.66 248.847 533.638 249.604 534.843 249.604Z" fill="#5CDBF5"/>
<path d="M532.66 252.82C532.66 253.75 533.643 254.512 534.843 254.512C536.044 254.512 537.026 253.75 537.026 252.82C537.026 251.889 536.044 251.127 534.843 251.127C533.643 251.127 532.66 251.889 532.66 252.82Z" fill="#5CDBF5"/>
<path d="M621.294 260.943H527.748V274.397H621.294V260.943Z" fill="#79A2FD"/>
<path d="M619.22 262.043H615.836V273.128H619.22V262.043Z" fill="#5CDBF5"/>
<path d="M613.435 262.043H610.051V273.128H613.435V262.043Z" fill="#5CDBF5"/>
<path d="M607.54 262.043H604.156V273.128H607.54V262.043Z" fill="#5CDBF5"/>
<path d="M601.645 262.043H598.262V273.128H601.645V262.043Z" fill="#5CDBF5"/>
<path d="M595.86 262.043H592.477V273.128H595.86V262.043Z" fill="#5CDBF5"/>
<path d="M589.968 262.043H586.584V273.128H589.968V262.043Z" fill="#5CDBF5"/>
<path d="M584.181 262.043H580.797V273.128H584.181V262.043Z" fill="#5CDBF5"/>
<path d="M578.286 262.043H574.902V273.128H578.286V262.043Z" fill="#5CDBF5"/>
<path d="M572.503 262.043H569.119V273.128H572.503V262.043Z" fill="#5CDBF5"/>
<path d="M566.606 262.043H563.223V273.128H566.606V262.043Z" fill="#5CDBF5"/>
<path d="M560.714 262.043H557.33V273.128H560.714V262.043Z" fill="#5CDBF5"/>
<path d="M554.929 262.043H551.545V273.128H554.929V262.043Z" fill="#5CDBF5"/>
<path d="M549.034 262.043H545.65V273.128H549.034V262.043Z" fill="#5CDBF5"/>
<path d="M543.249 262.043H539.865V273.128H543.249V262.043Z" fill="#5CDBF5"/>
<path d="M534.843 266.866C536.049 266.866 537.026 266.108 537.026 265.174C537.026 264.239 536.049 263.481 534.843 263.481C533.638 263.481 532.66 264.239 532.66 265.174C532.66 266.108 533.638 266.866 534.843 266.866Z" fill="#5CDBF5"/>
<path d="M534.843 271.774C536.049 271.774 537.026 271.016 537.026 270.082C537.026 269.147 536.049 268.389 534.843 268.389C533.638 268.389 532.66 269.147 532.66 270.082C532.66 271.016 533.638 271.774 534.843 271.774Z" fill="#5CDBF5"/>
<path d="M621.294 278.205H527.748V291.659H621.294V278.205Z" fill="#79A2FD"/>
<path d="M619.22 279.389H615.836V290.474H619.22V279.389Z" fill="#5CDBF5"/>
<path d="M613.435 279.389H610.051V290.474H613.435V279.389Z" fill="#5CDBF5"/>
<path d="M607.54 279.389H604.156V290.474H607.54V279.389Z" fill="#5CDBF5"/>
<path d="M601.645 279.389H598.262V290.474H601.645V279.389Z" fill="#5CDBF5"/>
<path d="M595.86 279.389H592.477V290.474H595.86V279.389Z" fill="#5CDBF5"/>
<path d="M589.968 279.389H586.584V290.474H589.968V279.389Z" fill="#5CDBF5"/>
<path d="M584.181 279.389H580.797V290.474H584.181V279.389Z" fill="#5CDBF5"/>
<path d="M578.286 279.389H574.902V290.474H578.286V279.389Z" fill="#5CDBF5"/>
<path d="M572.503 279.389H569.119V290.474H572.503V279.389Z" fill="#5CDBF5"/>
<path d="M560.714 279.389H557.33V290.474H560.714V279.389Z" fill="#5CDBF5"/>
<path d="M554.929 279.389H551.545V290.474H554.929V279.389Z" fill="#5CDBF5"/>
<path d="M549.034 279.389H545.65V290.474H549.034V279.389Z" fill="#5CDBF5"/>
<path d="M543.249 279.389H539.865V290.474H543.249V279.389Z" fill="#5CDBF5"/>
<path d="M532.66 282.436C532.66 283.366 533.643 284.128 534.843 284.128C536.044 284.128 537.026 283.366 537.026 282.436C537.026 281.505 536.044 280.743 534.843 280.743C533.643 280.743 532.66 281.505 532.66 282.436Z" fill="#5CDBF5"/>
<path d="M534.843 289.12C536.049 289.12 537.026 288.363 537.026 287.428C537.026 286.493 536.049 285.736 534.843 285.736C533.638 285.736 532.66 286.493 532.66 287.428C532.66 288.363 533.638 289.12 534.843 289.12Z" fill="#5CDBF5"/>
<path d="M621.294 295.551H527.748V309.005H621.294V295.551Z" fill="#79A2FD"/>
<path d="M619.22 296.651H615.836V307.736H619.22V296.651Z" fill="#5CDBF5"/>
<path d="M613.435 296.651H610.051V307.736H613.435V296.651Z" fill="#5CDBF5"/>
<path d="M607.54 296.651H604.156V307.736H607.54V296.651Z" fill="#5CDBF5"/>
<path d="M601.645 296.651H598.262V307.736H601.645V296.651Z" fill="#5CDBF5"/>
<path d="M595.86 296.651H592.477V307.736H595.86V296.651Z" fill="#5CDBF5"/>
<path d="M589.968 296.651H586.584V307.736H589.968V296.651Z" fill="#5CDBF5"/>
<path d="M584.181 296.651H580.797V307.736H584.181V296.651Z" fill="#5CDBF5"/>
<path d="M578.286 296.651H574.902V307.736H578.286V296.651Z" fill="#5CDBF5"/>
<path d="M572.503 296.651H569.119V307.736H572.503V296.651Z" fill="#5CDBF5"/>
<path d="M566.606 296.651H563.223V307.736H566.606V296.651Z" fill="#5CDBF5"/>
<path d="M560.714 296.651H557.33V307.736H560.714V296.651Z" fill="#5CDBF5"/>
<path d="M554.929 296.651H551.545V307.736H554.929V296.651Z" fill="#5CDBF5"/>
<path d="M549.034 296.651H545.65V307.736H549.034V296.651Z" fill="#5CDBF5"/>
<path d="M543.249 296.651H539.865V307.736H543.249V296.651Z" fill="#5CDBF5"/>
<path d="M534.843 301.474C536.049 301.474 537.026 300.717 537.026 299.782C537.026 298.847 536.049 298.09 534.843 298.09C533.638 298.09 532.66 298.847 532.66 299.782C532.66 300.717 533.638 301.474 534.843 301.474Z" fill="#5CDBF5"/>
<path d="M534.843 306.382C536.049 306.382 537.026 305.624 537.026 304.69C537.026 303.755 536.049 302.997 534.843 302.997C533.638 302.997 532.66 303.755 532.66 304.69C532.66 305.624 533.638 306.382 534.843 306.382Z" fill="#5CDBF5"/>
<path d="M621.294 312.813H527.748V326.267H621.294V312.813Z" fill="#79A2FD"/>
<path d="M619.22 313.997H615.836V325.082H619.22V313.997Z" fill="#5CDBF5"/>
<path d="M613.435 313.997H610.051V325.082H613.435V313.997Z" fill="#5CDBF5"/>
<path d="M607.54 313.997H604.156V325.082H607.54V313.997Z" fill="#5CDBF5"/>
<path d="M601.645 313.997H598.262V325.082H601.645V313.997Z" fill="#5CDBF5"/>
<path d="M595.86 313.997H592.477V325.082H595.86V313.997Z" fill="#5CDBF5"/>
<path d="M589.968 313.997H586.584V325.082H589.968V313.997Z" fill="#5CDBF5"/>
<path d="M578.286 313.997H574.902V325.082H578.286V313.997Z" fill="#5CDBF5"/>
<path d="M572.503 313.997H569.119V325.082H572.503V313.997Z" fill="#5CDBF5"/>
<path d="M566.606 313.997H563.223V325.082H566.606V313.997Z" fill="#5CDBF5"/>
<path d="M560.714 313.997H557.33V325.082H560.714V313.997Z" fill="#5CDBF5"/>
<path d="M554.929 313.997H551.545V325.082H554.929V313.997Z" fill="#5CDBF5"/>
<path d="M549.034 313.997H545.65V325.082H549.034V313.997Z" fill="#5CDBF5"/>
<path d="M543.249 313.997H539.865V325.082H543.249V313.997Z" fill="#5CDBF5"/>
<path d="M534.843 318.736C536.049 318.736 537.026 317.978 537.026 317.044C537.026 316.109 536.049 315.351 534.843 315.351C533.638 315.351 532.66 316.109 532.66 317.044C532.66 317.978 533.638 318.736 534.843 318.736Z" fill="#5CDBF5"/>
<path d="M534.843 323.644C536.049 323.644 537.026 322.886 537.026 321.951C537.026 321.017 536.049 320.259 534.843 320.259C533.638 320.259 532.66 321.017 532.66 321.951C532.66 322.886 533.638 323.644 534.843 323.644Z" fill="#5CDBF5"/>
<path d="M621.294 330.075H527.748V343.529H621.294V330.075Z" fill="#79A2FD"/>
<path d="M619.22 331.259H615.836V342.344H619.22V331.259Z" fill="#5CDBF5"/>
<path d="M613.435 331.259H610.051V342.344H613.435V331.259Z" fill="#5CDBF5"/>
<path d="M607.54 331.259H604.156V342.344H607.54V331.259Z" fill="#5CDBF5"/>
<path d="M601.645 331.259H598.262V342.344H601.645V331.259Z" fill="#5CDBF5"/>
<path d="M595.86 331.259H592.477V342.344H595.86V331.259Z" fill="#5CDBF5"/>
<path d="M589.968 331.259H586.584V342.344H589.968V331.259Z" fill="#5CDBF5"/>
<path d="M584.181 331.259H580.797V342.344H584.181V331.259Z" fill="#5CDBF5"/>
<path d="M578.286 331.259H574.902V342.344H578.286V331.259Z" fill="#5CDBF5"/>
<path d="M572.503 331.259H569.119V342.344H572.503V331.259Z" fill="#5CDBF5"/>
<path d="M566.606 331.259H563.223V342.344H566.606V331.259Z" fill="#5CDBF5"/>
<path d="M560.714 331.259H557.33V342.344H560.714V331.259Z" fill="#5CDBF5"/>
<path d="M554.929 331.259H551.545V342.344H554.929V331.259Z" fill="#5CDBF5"/>
<path d="M549.034 331.259H545.65V342.344H549.034V331.259Z" fill="#5CDBF5"/>
<path d="M543.249 331.259H539.865V342.344H543.249V331.259Z" fill="#5CDBF5"/>
<path d="M534.843 335.998C536.049 335.998 537.026 335.24 537.026 334.305C537.026 333.371 536.049 332.613 534.843 332.613C533.638 332.613 532.66 333.371 532.66 334.305C532.66 335.24 533.638 335.998 534.843 335.998Z" fill="#5CDBF5"/>
<path d="M532.66 339.298C532.66 340.229 533.643 340.99 534.843 340.99C536.044 340.99 537.026 340.229 537.026 339.298C537.026 338.367 536.044 337.605 534.843 337.605C533.643 337.605 532.66 338.367 532.66 339.298Z" fill="#5CDBF5"/>
<path d="M621.294 347.421H527.748V360.875H621.294V347.421Z" fill="#79A2FD"/>
<path d="M619.22 348.521H615.836V359.606H619.22V348.521Z" fill="#5CDBF5"/>
<path d="M613.435 348.521H610.051V359.606H613.435V348.521Z" fill="#5CDBF5"/>
<path d="M607.54 348.521H604.156V359.606H607.54V348.521Z" fill="#5CDBF5"/>
<path d="M601.645 348.521H598.262V359.606H601.645V348.521Z" fill="#5CDBF5"/>
<path d="M595.86 348.521H592.477V359.606H595.86V348.521Z" fill="#5CDBF5"/>
<path d="M589.968 348.521H586.584V359.606H589.968V348.521Z" fill="#5CDBF5"/>
<path d="M584.181 348.521H580.797V359.606H584.181V348.521Z" fill="#5CDBF5"/>
<path d="M578.286 348.521H574.902V359.606H578.286V348.521Z" fill="#5CDBF5"/>
<path d="M572.503 348.521H569.119V359.606H572.503V348.521Z" fill="#5CDBF5"/>
<path d="M566.606 348.521H563.223V359.606H566.606V348.521Z" fill="#5CDBF5"/>
<path d="M560.714 348.521H557.33V359.606H560.714V348.521Z" fill="#5CDBF5"/>
<path d="M554.929 348.521H551.545V359.606H554.929V348.521Z" fill="#5CDBF5"/>
<path d="M549.034 348.521H545.65V359.606H549.034V348.521Z" fill="#5CDBF5"/>
<path d="M543.249 348.521H539.865V359.606H543.249V348.521Z" fill="#5CDBF5"/>
<path d="M534.843 353.344C536.049 353.344 537.026 352.586 537.026 351.652C537.026 350.717 536.049 349.959 534.843 349.959C533.638 349.959 532.66 350.717 532.66 351.652C532.66 352.586 533.638 353.344 534.843 353.344Z" fill="#5CDBF5"/>
<path d="M534.843 358.252C536.049 358.252 537.026 357.494 537.026 356.56C537.026 355.625 536.049 354.867 534.843 354.867C533.638 354.867 532.66 355.625 532.66 356.56C532.66 357.494 533.638 358.252 534.843 358.252Z" fill="#5CDBF5"/>
<path d="M621.294 364.683H527.748V378.137H621.294V364.683Z" fill="#79A2FD"/>
<path d="M619.22 365.867H615.836V376.952H619.22V365.867Z" fill="#5CDBF5"/>
<path d="M613.435 365.867H610.051V376.952H613.435V365.867Z" fill="#5CDBF5"/>
<path d="M607.54 365.867H604.156V376.952H607.54V365.867Z" fill="#5CDBF5"/>
<path d="M601.645 365.867H598.262V376.952H601.645V365.867Z" fill="#5CDBF5"/>
<path d="M595.86 365.867H592.477V376.952H595.86V365.867Z" fill="#5CDBF5"/>
<path d="M589.968 365.867H586.584V376.952H589.968V365.867Z" fill="#5CDBF5"/>
<path d="M584.181 365.867H580.797V376.952H584.181V365.867Z" fill="#5CDBF5"/>
<path d="M578.286 365.867H574.902V376.952H578.286V365.867Z" fill="#5CDBF5"/>
<path d="M572.503 365.867H569.119V376.952H572.503V365.867Z" fill="#5CDBF5"/>
<path d="M566.606 365.867H563.223V376.952H566.606V365.867Z" fill="#5CDBF5"/>
<path d="M554.929 365.867H551.545V376.952H554.929V365.867Z" fill="#5CDBF5"/>
<path d="M549.034 365.867H545.65V376.952H549.034V365.867Z" fill="#5CDBF5"/>
<path d="M543.249 365.867H539.865V376.952H543.249V365.867Z" fill="#5CDBF5"/>
<path d="M532.66 368.914C532.66 369.844 533.643 370.606 534.843 370.606C536.044 370.606 537.026 369.844 537.026 368.914C537.026 367.983 536.044 367.221 534.843 367.221C533.643 367.221 532.66 367.983 532.66 368.914Z" fill="#5CDBF5"/>
<path d="M534.843 375.514C536.049 375.514 537.026 374.756 537.026 373.821C537.026 372.887 536.049 372.129 534.843 372.129C533.638 372.129 532.66 372.887 532.66 373.821C532.66 374.756 533.638 375.514 534.843 375.514Z" fill="#5CDBF5"/>
<path d="M621.294 381.945H527.748V395.399H621.294V381.945Z" fill="#79A2FD"/>
<path d="M619.22 383.129H615.836V394.214H619.22V383.129Z" fill="#5CDBF5"/>
<path d="M613.435 383.129H610.051V394.214H613.435V383.129Z" fill="#5CDBF5"/>
<path d="M607.54 383.129H604.156V394.214H607.54V383.129Z" fill="#5CDBF5"/>
<path d="M589.968 383.129H586.584V394.214H589.968V383.129Z" fill="#5CDBF5"/>
<path d="M584.181 383.129H580.797V394.214H584.181V383.129Z" fill="#5CDBF5"/>
<path d="M578.286 383.129H574.902V394.214H578.286V383.129Z" fill="#5CDBF5"/>
<path d="M572.503 383.129H569.119V394.214H572.503V383.129Z" fill="#5CDBF5"/>
<path d="M566.606 383.129H563.223V394.214H566.606V383.129Z" fill="#5CDBF5"/>
<path d="M560.714 383.129H557.33V394.214H560.714V383.129Z" fill="#5CDBF5"/>
<path d="M554.929 383.129H551.545V394.214H554.929V383.129Z" fill="#5CDBF5"/>
<path d="M549.034 383.129H545.65V394.214H549.034V383.129Z" fill="#5CDBF5"/>
<path d="M543.249 383.129H539.865V394.214H543.249V383.129Z" fill="#5CDBF5"/>
<path d="M534.843 387.868C536.049 387.868 537.026 387.11 537.026 386.175C537.026 385.241 536.049 384.483 534.843 384.483C533.638 384.483 532.66 385.241 532.66 386.175C532.66 387.11 533.638 387.868 534.843 387.868Z" fill="#5CDBF5"/>
<path d="M534.843 392.86C536.049 392.86 537.026 392.103 537.026 391.168C537.026 390.233 536.049 389.476 534.843 389.476C533.638 389.476 532.66 390.233 532.66 391.168C532.66 392.103 533.638 392.86 534.843 392.86Z" fill="#5CDBF5"/>
<path d="M621.294 399.291H527.748V412.745H621.294V399.291Z" fill="#79A2FD"/>
<path d="M619.22 400.391H615.836V411.476H619.22V400.391Z" fill="#5CDBF5"/>
<path d="M613.435 400.391H610.051V411.476H613.435V400.391Z" fill="#5CDBF5"/>
<path d="M607.54 400.391H604.156V411.476H607.54V400.391Z" fill="#5CDBF5"/>
<path d="M601.645 400.391H598.262V411.476H601.645V400.391Z" fill="#5CDBF5"/>
<path d="M595.86 400.391H592.477V411.476H595.86V400.391Z" fill="#5CDBF5"/>
<path d="M589.968 400.391H586.584V411.476H589.968V400.391Z" fill="#5CDBF5"/>
<path d="M584.181 400.391H580.797V411.476H584.181V400.391Z" fill="#5CDBF5"/>
<path d="M578.286 400.391H574.902V411.476H578.286V400.391Z" fill="#5CDBF5"/>
<path d="M572.503 400.391H569.119V411.476H572.503V400.391Z" fill="#5CDBF5"/>
<path d="M566.606 400.391H563.223V411.476H566.606V400.391Z" fill="#5CDBF5"/>
<path d="M560.714 400.391H557.33V411.476H560.714V400.391Z" fill="#5CDBF5"/>
<path d="M554.929 400.391H551.545V411.476H554.929V400.391Z" fill="#5CDBF5"/>
<path d="M549.034 400.391H545.65V411.476H549.034V400.391Z" fill="#5CDBF5"/>
<path d="M543.249 400.391H539.865V411.476H543.249V400.391Z" fill="#5CDBF5"/>
<path d="M534.843 405.214C536.049 405.214 537.026 404.456 537.026 403.522C537.026 402.587 536.049 401.829 534.843 401.829C533.638 401.829 532.66 402.587 532.66 403.522C532.66 404.456 533.638 405.214 534.843 405.214Z" fill="#5CDBF5"/>
<path d="M534.843 410.122C536.049 410.122 537.026 409.364 537.026 408.43C537.026 407.495 536.049 406.737 534.843 406.737C533.638 406.737 532.66 407.495 532.66 408.43C532.66 409.364 533.638 410.122 534.843 410.122Z" fill="#5CDBF5"/>
<path d="M758.284 216.35H640.615V469.777H758.284V216.35Z" fill="#5CDBF5"/>
<path d="M752.02 425.477V221.297L647.122 221.297V425.477H752.02Z" fill="#5CDBF5"/>
<path d="M746.278 226.335H652.732V239.789H746.278V226.335Z" fill="#79A2FD"/>
<path d="M744.204 227.519H740.82V238.604H744.204V227.519Z" fill="#5CDBF5"/>
<path d="M738.419 227.519H735.035V238.604H738.419V227.519Z" fill="#5CDBF5"/>
<path d="M732.524 227.519H729.141V238.604H732.524V227.519Z" fill="#5CDBF5"/>
<path d="M726.739 227.519H723.355V238.604H726.739V227.519Z" fill="#5CDBF5"/>
<path d="M720.845 227.519H717.461V238.604H720.845V227.519Z" fill="#5CDBF5"/>
<path d="M715.06 227.519H711.676V238.604H715.06V227.519Z" fill="#5CDBF5"/>
<path d="M709.165 227.519H705.781V238.604H709.165V227.519Z" fill="#5CDBF5"/>
<path d="M703.271 227.519H699.887V238.604H703.271V227.519Z" fill="#5CDBF5"/>
<path d="M697.487 227.519H694.104V238.604H697.487V227.519Z" fill="#5CDBF5"/>
<path d="M685.806 227.519H682.422V238.604H685.806V227.519Z" fill="#5CDBF5"/>
<path d="M679.913 227.519H676.529V238.604H679.913V227.519Z" fill="#5CDBF5"/>
<path d="M674.126 227.519H670.742V238.604H674.126V227.519Z" fill="#5CDBF5"/>
<path d="M668.233 227.519H664.85V238.604H668.233V227.519Z" fill="#5CDBF5"/>
<path d="M659.937 232.258C661.143 232.258 662.12 231.5 662.12 230.566C662.12 229.631 661.143 228.873 659.937 228.873C658.731 228.873 657.754 229.631 657.754 230.566C657.754 231.5 658.731 232.258 659.937 232.258Z" fill="#79A2FD"/>
<path d="M659.937 237.25C661.143 237.25 662.12 236.493 662.12 235.558C662.12 234.623 661.143 233.866 659.937 233.866C658.731 233.866 657.754 234.623 657.754 235.558C657.754 236.493 658.731 237.25 659.937 237.25Z" fill="#5CDBF5"/>
<path d="M746.278 243.681H652.732V257.135H746.278V243.681Z" fill="#79A2FD"/>
<path d="M744.204 244.781H740.82V255.866H744.204V244.781Z" fill="#5CDBF5"/>
<path d="M738.419 244.781H735.035V255.866H738.419V244.781Z" fill="#5CDBF5"/>
<path d="M726.739 244.781H723.355V255.866H726.739V244.781Z" fill="#5CDBF5"/>
<path d="M720.845 244.781H717.461V255.866H720.845V244.781Z" fill="#5CDBF5"/>
<path d="M715.06 244.781H711.676V255.866H715.06V244.781Z" fill="#5CDBF5"/>
<path d="M709.165 244.781H705.781V255.866H709.165V244.781Z" fill="#5CDBF5"/>
<path d="M703.271 244.781H699.887V255.866H703.271V244.781Z" fill="#5CDBF5"/>
<path d="M697.487 244.781H694.104V255.866H697.487V244.781Z" fill="#5CDBF5"/>
<path d="M691.591 244.781H688.207V255.866H691.591V244.781Z" fill="#5CDBF5"/>
<path d="M685.806 244.781H682.422V255.866H685.806V244.781Z" fill="#5CDBF5"/>
<path d="M679.913 244.781H676.529V255.866H679.913V244.781Z" fill="#5CDBF5"/>
<path d="M674.126 244.781H670.742V255.866H674.126V244.781Z" fill="#5CDBF5"/>
<path d="M668.233 244.781H664.85V255.866H668.233V244.781Z" fill="#5CDBF5"/>
<path d="M659.937 249.604C661.143 249.604 662.12 248.847 662.12 247.912C662.12 246.977 661.143 246.22 659.937 246.22C658.731 246.22 657.754 246.977 657.754 247.912C657.754 248.847 658.731 249.604 659.937 249.604Z" fill="#79A2FD"/>
<path d="M657.754 252.82C657.754 253.75 658.736 254.512 659.937 254.512C661.138 254.512 662.12 253.75 662.12 252.82C662.12 251.889 661.138 251.127 659.937 251.127C658.736 251.127 657.754 251.889 657.754 252.82Z" fill="#5CDBF5"/>
<path d="M746.278 260.943H652.732V274.397H746.278V260.943Z" fill="#79A2FD"/>
<path d="M744.204 262.043H740.82V273.128H744.204V262.043Z" fill="#5CDBF5"/>
<path d="M738.419 262.043H735.035V273.128H738.419V262.043Z" fill="#5CDBF5"/>
<path d="M732.524 262.043H729.141V273.128H732.524V262.043Z" fill="#5CDBF5"/>
<path d="M726.739 262.043H723.355V273.128H726.739V262.043Z" fill="#5CDBF5"/>
<path d="M720.845 262.043H717.461V273.128H720.845V262.043Z" fill="#5CDBF5"/>
<path d="M715.06 262.043H711.676V273.128H715.06V262.043Z" fill="#5CDBF5"/>
<path d="M709.165 262.043H705.781V273.128H709.165V262.043Z" fill="#5CDBF5"/>
<path d="M703.271 262.043H699.887V273.128H703.271V262.043Z" fill="#5CDBF5"/>
<path d="M697.487 262.043H694.104V273.128H697.487V262.043Z" fill="#5CDBF5"/>
<path d="M691.591 262.043H688.207V273.128H691.591V262.043Z" fill="#5CDBF5"/>
<path d="M685.806 262.043H682.422V273.128H685.806V262.043Z" fill="#5CDBF5"/>
<path d="M679.913 262.043H676.529V273.128H679.913V262.043Z" fill="#5CDBF5"/>
<path d="M674.126 262.043H670.742V273.128H674.126V262.043Z" fill="#5CDBF5"/>
<path d="M668.233 262.043H664.85V273.128H668.233V262.043Z" fill="#5CDBF5"/>
<path d="M659.937 266.866C661.143 266.866 662.12 266.108 662.12 265.174C662.12 264.239 661.143 263.481 659.937 263.481C658.731 263.481 657.754 264.239 657.754 265.174C657.754 266.108 658.731 266.866 659.937 266.866Z" fill="#79A2FD"/>
<path d="M659.937 271.774C661.143 271.774 662.12 271.016 662.12 270.082C662.12 269.147 661.143 268.389 659.937 268.389C658.731 268.389 657.754 269.147 657.754 270.082C657.754 271.016 658.731 271.774 659.937 271.774Z" fill="#5CDBF5"/>
<path d="M746.278 278.205H652.732V291.659H746.278V278.205Z" fill="#79A2FD"/>
<path d="M744.204 279.389H740.82V290.474H744.204V279.389Z" fill="#5CDBF5"/>
<path d="M738.419 279.389H735.035V290.474H738.419V279.389Z" fill="#5CDBF5"/>
<path d="M726.739 279.389H723.355V290.474H726.739V279.389Z" fill="#5CDBF5"/>
<path d="M720.845 279.389H717.461V290.474H720.845V279.389Z" fill="#5CDBF5"/>
<path d="M715.06 279.389H711.676V290.474H715.06V279.389Z" fill="#5CDBF5"/>
<path d="M709.165 279.389H705.781V290.474H709.165V279.389Z" fill="#5CDBF5"/>
<path d="M685.806 279.389H682.422V290.474H685.806V279.389Z" fill="#5CDBF5"/>
<path d="M679.913 279.389H676.529V290.474H679.913V279.389Z" fill="#5CDBF5"/>
<path d="M674.126 279.389H670.742V290.474H674.126V279.389Z" fill="#5CDBF5"/>
<path d="M668.233 279.389H664.85V290.474H668.233V279.389Z" fill="#5CDBF5"/>
<path d="M657.754 282.436C657.754 283.366 658.736 284.128 659.937 284.128C661.138 284.128 662.12 283.366 662.12 282.436C662.12 281.505 661.138 280.743 659.937 280.743C658.736 280.743 657.754 281.505 657.754 282.436Z" fill="#79A2FD"/>
<path d="M659.937 289.12C661.143 289.12 662.12 288.363 662.12 287.428C662.12 286.493 661.143 285.736 659.937 285.736C658.731 285.736 657.754 286.493 657.754 287.428C657.754 288.363 658.731 289.12 659.937 289.12Z" fill="#5CDBF5"/>
<path d="M746.278 295.551H652.732V309.005H746.278V295.551Z" fill="#79A2FD"/>
<path d="M744.204 296.651H740.82V307.736H744.204V296.651Z" fill="#5CDBF5"/>
<path d="M738.419 296.651H735.035V307.736H738.419V296.651Z" fill="#5CDBF5"/>
<path d="M732.524 296.651H729.141V307.736H732.524V296.651Z" fill="#5CDBF5"/>
<path d="M726.739 296.651H723.355V307.736H726.739V296.651Z" fill="#5CDBF5"/>
<path d="M720.845 296.651H717.461V307.736H720.845V296.651Z" fill="#5CDBF5"/>
<path d="M715.06 296.651H711.676V307.736H715.06V296.651Z" fill="#5CDBF5"/>
<path d="M709.165 296.651H705.781V307.736H709.165V296.651Z" fill="#5CDBF5"/>
<path d="M703.271 296.651H699.887V307.736H703.271V296.651Z" fill="#5CDBF5"/>
<path d="M697.487 296.651H694.104V307.736H697.487V296.651Z" fill="#5CDBF5"/>
<path d="M691.591 296.651H688.207V307.736H691.591V296.651Z" fill="#5CDBF5"/>
<path d="M685.806 296.651H682.422V307.736H685.806V296.651Z" fill="#5CDBF5"/>
<path d="M679.913 296.651H676.529V307.736H679.913V296.651Z" fill="#5CDBF5"/>
<path d="M668.233 296.651H664.85V307.736H668.233V296.651Z" fill="#5CDBF5"/>
<path d="M659.937 301.474C661.143 301.474 662.12 300.717 662.12 299.782C662.12 298.847 661.143 298.09 659.937 298.09C658.731 298.09 657.754 298.847 657.754 299.782C657.754 300.717 658.731 301.474 659.937 301.474Z" fill="#79A2FD"/>
<path d="M659.937 306.382C661.143 306.382 662.12 305.624 662.12 304.69C662.12 303.755 661.143 302.997 659.937 302.997C658.731 302.997 657.754 303.755 657.754 304.69C657.754 305.624 658.731 306.382 659.937 306.382Z" fill="#5CDBF5"/>
<path d="M746.278 312.813H652.732V326.267H746.278V312.813Z" fill="#79A2FD"/>
<path d="M744.204 313.997H740.82V325.082H744.204V313.997Z" fill="#5CDBF5"/>
<path d="M738.419 313.997H735.035V325.082H738.419V313.997Z" fill="#5CDBF5"/>
<path d="M732.524 313.997H729.141V325.082H732.524V313.997Z" fill="#5CDBF5"/>
<path d="M726.739 313.997H723.355V325.082H726.739V313.997Z" fill="#5CDBF5"/>
<path d="M720.845 313.997H717.461V325.082H720.845V313.997Z" fill="#5CDBF5"/>
<path d="M715.06 313.997H711.676V325.082H715.06V313.997Z" fill="#5CDBF5"/>
<path d="M709.165 313.997H705.781V325.082H709.165V313.997Z" fill="#5CDBF5"/>
<path d="M703.271 313.997H699.887V325.082H703.271V313.997Z" fill="#5CDBF5"/>
<path d="M697.487 313.997H694.104V325.082H697.487V313.997Z" fill="#5CDBF5"/>
<path d="M691.591 313.997H688.207V325.082H691.591V313.997Z" fill="#5CDBF5"/>
<path d="M685.806 313.997H682.422V325.082H685.806V313.997Z" fill="#5CDBF5"/>
<path d="M679.913 313.997H676.529V325.082H679.913V313.997Z" fill="#5CDBF5"/>
<path d="M674.126 313.997H670.742V325.082H674.126V313.997Z" fill="#5CDBF5"/>
<path d="M668.233 313.997H664.85V325.082H668.233V313.997Z" fill="#5CDBF5"/>
<path d="M659.937 318.736C661.143 318.736 662.12 317.978 662.12 317.044C662.12 316.109 661.143 315.351 659.937 315.351C658.731 315.351 657.754 316.109 657.754 317.044C657.754 317.978 658.731 318.736 659.937 318.736Z" fill="#79A2FD"/>
<path d="M659.937 323.644C661.143 323.644 662.12 322.886 662.12 321.951C662.12 321.017 661.143 320.259 659.937 320.259C658.731 320.259 657.754 321.017 657.754 321.951C657.754 322.886 658.731 323.644 659.937 323.644Z" fill="#5CDBF5"/>
<path d="M746.278 330.075H652.732V343.529H746.278V330.075Z" fill="#79A2FD"/>
<path d="M744.204 331.259H740.82V342.344H744.204V331.259Z" fill="#5CDBF5"/>
<path d="M738.419 331.259H735.035V342.344H738.419V331.259Z" fill="#5CDBF5"/>
<path d="M732.524 331.259H729.141V342.344H732.524V331.259Z" fill="#5CDBF5"/>
<path d="M720.845 331.259H717.461V342.344H720.845V331.259Z" fill="#5CDBF5"/>
<path d="M715.06 331.259H711.676V342.344H715.06V331.259Z" fill="#5CDBF5"/>
<path d="M709.165 331.259H705.781V342.344H709.165V331.259Z" fill="#5CDBF5"/>
<path d="M703.271 331.259H699.887V342.344H703.271V331.259Z" fill="#5CDBF5"/>
<path d="M697.487 331.259H694.104V342.344H697.487V331.259Z" fill="#5CDBF5"/>
<path d="M691.591 331.259H688.207V342.344H691.591V331.259Z" fill="#5CDBF5"/>
<path d="M685.806 331.259H682.422V342.344H685.806V331.259Z" fill="#5CDBF5"/>
<path d="M679.913 331.259H676.529V342.344H679.913V331.259Z" fill="#5CDBF5"/>
<path d="M674.126 331.259H670.742V342.344H674.126V331.259Z" fill="#5CDBF5"/>
<path d="M668.233 331.259H664.85V342.344H668.233V331.259Z" fill="#5CDBF5"/>
<path d="M659.937 335.998C661.143 335.998 662.12 335.24 662.12 334.305C662.12 333.371 661.143 332.613 659.937 332.613C658.731 332.613 657.754 333.371 657.754 334.305C657.754 335.24 658.731 335.998 659.937 335.998Z" fill="#79A2FD"/>
<path d="M657.754 339.298C657.754 340.229 658.736 340.99 659.937 340.99C661.138 340.99 662.12 340.229 662.12 339.298C662.12 338.367 661.138 337.605 659.937 337.605C658.736 337.605 657.754 338.367 657.754 339.298Z" fill="#5CDBF5"/>
<path d="M746.278 347.421H652.732V360.875H746.278V347.421Z" fill="#79A2FD"/>
<path d="M744.204 348.521H740.82V359.606H744.204V348.521Z" fill="#5CDBF5"/>
<path d="M738.419 348.521H735.035V359.606H738.419V348.521Z" fill="#5CDBF5"/>
<path d="M732.524 348.521H729.141V359.606H732.524V348.521Z" fill="#5CDBF5"/>
<path d="M726.739 348.521H723.355V359.606H726.739V348.521Z" fill="#5CDBF5"/>
<path d="M720.845 348.521H717.461V359.606H720.845V348.521Z" fill="#5CDBF5"/>
<path d="M715.06 348.521H711.676V359.606H715.06V348.521Z" fill="#5CDBF5"/>
<path d="M709.165 348.521H705.781V359.606H709.165V348.521Z" fill="#5CDBF5"/>
<path d="M703.271 348.521H699.887V359.606H703.271V348.521Z" fill="#5CDBF5"/>
<path d="M697.487 348.521H694.104V359.606H697.487V348.521Z" fill="#5CDBF5"/>
<path d="M685.806 348.521H682.422V359.606H685.806V348.521Z" fill="#5CDBF5"/>
<path d="M679.913 348.521H676.529V359.606H679.913V348.521Z" fill="#5CDBF5"/>
<path d="M674.126 348.521H670.742V359.606H674.126V348.521Z" fill="#5CDBF5"/>
<path d="M668.233 348.521H664.85V359.606H668.233V348.521Z" fill="#5CDBF5"/>
<path d="M659.937 353.344C661.143 353.344 662.12 352.586 662.12 351.652C662.12 350.717 661.143 349.959 659.937 349.959C658.731 349.959 657.754 350.717 657.754 351.652C657.754 352.586 658.731 353.344 659.937 353.344Z" fill="#79A2FD"/>
<path d="M659.937 358.252C661.143 358.252 662.12 357.494 662.12 356.56C662.12 355.625 661.143 354.867 659.937 354.867C658.731 354.867 657.754 355.625 657.754 356.56C657.754 357.494 658.731 358.252 659.937 358.252Z" fill="#5CDBF5"/>
<path d="M746.278 364.683H652.732V378.137H746.278V364.683Z" fill="#79A2FD"/>
<path d="M744.204 365.867H740.82V376.952H744.204V365.867Z" fill="#5CDBF5"/>
<path d="M738.419 365.867H735.035V376.952H738.419V365.867Z" fill="#5CDBF5"/>
<path d="M732.524 365.867H729.141V376.952H732.524V365.867Z" fill="#5CDBF5"/>
<path d="M726.739 365.867H723.355V376.952H726.739V365.867Z" fill="#5CDBF5"/>
<path d="M720.845 365.867H717.461V376.952H720.845V365.867Z" fill="#5CDBF5"/>
<path d="M715.06 365.867H711.676V376.952H715.06V365.867Z" fill="#5CDBF5"/>
<path d="M709.165 365.867H705.781V376.952H709.165V365.867Z" fill="#5CDBF5"/>
<path d="M703.271 365.867H699.887V376.952H703.271V365.867Z" fill="#5CDBF5"/>
<path d="M697.487 365.867H694.104V376.952H697.487V365.867Z" fill="#5CDBF5"/>
<path d="M691.591 365.867H688.207V376.952H691.591V365.867Z" fill="#5CDBF5"/>
<path d="M685.806 365.867H682.422V376.952H685.806V365.867Z" fill="#5CDBF5"/>
<path d="M679.913 365.867H676.529V376.952H679.913V365.867Z" fill="#5CDBF5"/>
<path d="M674.126 365.867H670.742V376.952H674.126V365.867Z" fill="#5CDBF5"/>
<path d="M668.233 365.867H664.85V376.952H668.233V365.867Z" fill="#5CDBF5"/>
<path d="M657.754 368.914C657.754 369.844 658.736 370.606 659.937 370.606C661.138 370.606 662.12 369.844 662.12 368.914C662.12 367.983 661.138 367.221 659.937 367.221C658.736 367.221 657.754 367.983 657.754 368.914Z" fill="#79A2FD"/>
<path d="M659.937 375.514C661.143 375.514 662.12 374.756 662.12 373.821C662.12 372.887 661.143 372.129 659.937 372.129C658.731 372.129 657.754 372.887 657.754 373.821C657.754 374.756 658.731 375.514 659.937 375.514Z" fill="#5CDBF5"/>
<path d="M746.278 381.945H652.732V395.399H746.278V381.945Z" fill="#79A2FD"/>
<path d="M744.204 383.129H740.82V394.214H744.204V383.129Z" fill="#5CDBF5"/>
<path d="M738.419 383.129H735.035V394.214H738.419V383.129Z" fill="#5CDBF5"/>
<path d="M726.739 383.129H723.355V394.214H726.739V383.129Z" fill="#5CDBF5"/>
<path d="M720.845 383.129H717.461V394.214H720.845V383.129Z" fill="#5CDBF5"/>
<path d="M715.06 383.129H711.676V394.214H715.06V383.129Z" fill="#5CDBF5"/>
<path d="M709.165 383.129H705.781V394.214H709.165V383.129Z" fill="#5CDBF5"/>
<path d="M703.271 383.129H699.887V394.214H703.271V383.129Z" fill="#5CDBF5"/>
<path d="M691.591 383.129H688.207V394.214H691.591V383.129Z" fill="#5CDBF5"/>
<path d="M685.806 383.129H682.422V394.214H685.806V383.129Z" fill="#5CDBF5"/>
<path d="M679.913 383.129H676.529V394.214H679.913V383.129Z" fill="#5CDBF5"/>
<path d="M674.126 383.129H670.742V394.214H674.126V383.129Z" fill="#5CDBF5"/>
<path d="M668.233 383.129H664.85V394.214H668.233V383.129Z" fill="#5CDBF5"/>
<path d="M659.937 387.868C661.143 387.868 662.12 387.11 662.12 386.175C662.12 385.241 661.143 384.483 659.937 384.483C658.731 384.483 657.754 385.241 657.754 386.175C657.754 387.11 658.731 387.868 659.937 387.868Z" fill="#79A2FD"/>
<path d="M659.937 392.86C661.143 392.86 662.12 392.103 662.12 391.168C662.12 390.233 661.143 389.476 659.937 389.476C658.731 389.476 657.754 390.233 657.754 391.168C657.754 392.103 658.731 392.86 659.937 392.86Z" fill="#5CDBF5"/>
<path d="M746.278 399.291H652.732V412.745H746.278V399.291Z" fill="#79A2FD"/>
<path d="M744.204 400.391H740.82V411.476H744.204V400.391Z" fill="#5CDBF5"/>
<path d="M738.419 400.391H735.035V411.476H738.419V400.391Z" fill="#5CDBF5"/>
<path d="M732.524 400.391H729.141V411.476H732.524V400.391Z" fill="#5CDBF5"/>
<path d="M726.739 400.391H723.355V411.476H726.739V400.391Z" fill="#5CDBF5"/>
<path d="M720.845 400.391H717.461V411.476H720.845V400.391Z" fill="#5CDBF5"/>
<path d="M715.06 400.391H711.676V411.476H715.06V400.391Z" fill="#5CDBF5"/>
<path d="M709.165 400.391H705.781V411.476H709.165V400.391Z" fill="#5CDBF5"/>
<path d="M703.271 400.391H699.887V411.476H703.271V400.391Z" fill="#5CDBF5"/>
<path d="M697.487 400.391H694.104V411.476H697.487V400.391Z" fill="#5CDBF5"/>
<path d="M691.591 400.391H688.207V411.476H691.591V400.391Z" fill="#5CDBF5"/>
<path d="M685.806 400.391H682.422V411.476H685.806V400.391Z" fill="#5CDBF5"/>
<path d="M679.913 400.391H676.529V411.476H679.913V400.391Z" fill="#5CDBF5"/>
<path d="M674.126 400.391H670.742V411.476H674.126V400.391Z" fill="#5CDBF5"/>
<path d="M668.233 400.391H664.85V411.476H668.233V400.391Z" fill="#5CDBF5"/>
<path d="M659.937 405.214C661.143 405.214 662.12 404.456 662.12 403.522C662.12 402.587 661.143 401.829 659.937 401.829C658.731 401.829 657.754 402.587 657.754 403.522C657.754 404.456 658.731 405.214 659.937 405.214Z" fill="#79A2FD"/>
<path d="M659.937 410.122C661.143 410.122 662.12 409.364 662.12 408.43C662.12 407.495 661.143 406.737 659.937 406.737C658.731 406.737 657.754 407.495 657.754 408.43C657.754 409.364 658.731 410.122 659.937 410.122Z" fill="#5CDBF5"/>
<path opacity="0.3" d="M414.266 425.983L433.595 262.434H454.782L435.452 425.983H414.266Z" fill="white"/>
<path opacity="0.3" d="M440.48 425.983L459.397 262.434H467.888L448.864 425.983H440.48Z" fill="white"/>
<path opacity="0.3" d="M532.225 425.438L551.545 221.342H572.721L553.51 425.438H532.225Z" fill="white"/>
<path opacity="0.3" d="M698.902 425.438L718.223 221.342H739.399L720.187 425.438H698.902Z" fill="white"/>
<path opacity="0.3" d="M573.266 425.438L592.586 221.342H601.1L581.889 425.438H573.266Z" fill="white"/>
<path d="M582.288 560.392C699.18 560.392 793.939 555.027 793.939 548.409C793.939 541.792 699.18 536.427 582.288 536.427C465.396 536.427 370.637 541.792 370.637 548.409C370.637 555.027 465.396 560.392 582.288 560.392Z" fill="#5CDBF5"/>
<path d="M570.498 294.978H434.928V546.289C434.928 547.455 435.91 548.409 437.111 548.409H568.206C569.406 548.409 570.389 547.455 570.389 546.289V294.978H570.498Z" fill="#407BFF"/>
<path d="M572.354 499.844H562.967V533.246H572.354V499.844Z" fill="#407BFF"/>
<path opacity="0.2" d="M560.035 533.334H562.873V499.932H560.035V533.334Z" fill="black"/>
<path opacity="0.1" d="M572.354 499.844H560.129V533.246H572.354V499.844Z" fill="black"/>
<path d="M567.661 530.913C569.53 530.913 571.045 524.504 571.045 516.598C571.045 508.692 569.53 502.283 567.661 502.283C565.792 502.283 564.277 508.692 564.277 516.598C564.277 524.504 565.792 530.913 567.661 530.913Z" fill="#407BFF"/>
<path opacity="0.15" d="M552.815 294.978H434.928V546.289C434.928 547.455 435.91 548.409 437.111 548.409H550.632C551.833 548.409 552.815 547.455 552.815 546.289V294.978Z" fill="white"/>
<path opacity="0.2" d="M552.814 294.978H553.688V548.409C553.142 548.409 552.814 547.985 552.814 547.561V294.978Z" fill="black"/>
<path d="M539.389 305.476H431.107V324.881H539.389V305.476Z" fill="#407BFF"/>
<path opacity="0.3" d="M536.988 307.172H533.059V323.29H536.988V307.172Z" fill="white"/>
<path opacity="0.3" d="M530.219 307.172H526.289V323.29H530.219V307.172Z" fill="white"/>
<path opacity="0.3" d="M523.453 307.172H519.523V323.29H523.453V307.172Z" fill="white"/>
<path opacity="0.3" d="M516.685 307.172H512.756V323.29H516.685V307.172Z" fill="white"/>
<path opacity="0.3" d="M509.918 307.172H505.988V323.29H509.918V307.172Z" fill="white"/>
<path opacity="0.3" d="M503.15 307.172H499.221V323.29H503.15V307.172Z" fill="white"/>
<path opacity="0.3" d="M496.383 307.172H492.453V323.29H496.383V307.172Z" fill="white"/>
<path opacity="0.3" d="M489.615 307.172H485.686V323.29H489.615V307.172Z" fill="white"/>
<path opacity="0.3" d="M482.846 307.172H478.916V323.29H482.846V307.172Z" fill="white"/>
<path opacity="0.3" d="M476.078 307.172H472.148V323.29H476.078V307.172Z" fill="white"/>
<path opacity="0.3" d="M469.312 307.172H465.383V323.29H469.312V307.172Z" fill="white"/>
<path opacity="0.3" d="M462.545 307.172H458.615V323.29H462.545V307.172Z" fill="white"/>
<path opacity="0.3" d="M455.775 307.172H451.846V323.29H455.775V307.172Z" fill="white"/>
<path opacity="0.3" d="M449.01 307.172H445.08V323.29H449.01V307.172Z" fill="white"/>
<path d="M539.389 332.515H431.107V351.92H539.389V332.515Z" fill="#407BFF"/>
<path d="M539.389 359.555H431.107V378.96H539.389V359.555Z" fill="#407BFF"/>
<path d="M539.389 386.701H431.107V406.106H539.389V386.701Z" fill="#407BFF"/>
<path d="M539.389 413.741H431.107V433.146H539.389V413.741Z" fill="#407BFF"/>
<path d="M539.389 440.781H431.107V460.186H539.389V440.781Z" fill="#407BFF"/>
<path d="M539.389 467.82H431.107V487.225H539.389V467.82Z" fill="#407BFF"/>
<path d="M539.389 494.966H431.107V514.371H539.389V494.966Z" fill="#407BFF"/>
<path opacity="0.2" d="M539.281 324.938H542.01V305.533H539.281V324.938Z" fill="black"/>
<path opacity="0.2" d="M539.281 352.026H542.01V332.621H539.281V352.026Z" fill="black"/>
<path opacity="0.2" d="M539.281 379.113H542.01V359.708H539.281V379.113Z" fill="black"/>
<path opacity="0.2" d="M539.281 406.094H542.01V386.689H539.281V406.094Z" fill="black"/>
<path opacity="0.2" d="M539.281 433.182H542.01V413.777H539.281V433.182Z" fill="black"/>
<path opacity="0.2" d="M539.281 460.269H542.01V440.864H539.281V460.269Z" fill="black"/>
<path opacity="0.2" d="M539.281 487.356H542.01V467.951H539.281V487.356Z" fill="black"/>
<path opacity="0.2" d="M539.281 514.338H542.01V494.933H539.281V514.338Z" fill="black"/>
<path d="M436.893 311.626C436.893 313.004 437.984 314.065 439.403 314.065C440.822 314.065 441.914 313.004 441.914 311.626C441.914 310.247 440.822 309.187 439.403 309.187C437.984 309.187 436.893 310.247 436.893 311.626Z" fill="white"/>
<path opacity="0.3" d="M436.893 318.836C436.893 320.215 437.984 321.275 439.403 321.275C440.822 321.275 441.914 320.215 441.914 318.836C441.914 317.458 440.822 316.397 439.403 316.397C437.984 316.397 436.893 317.458 436.893 318.836Z" fill="#263238"/>
<path opacity="0.3" d="M536.988 334.212H533.059V350.33H536.988V334.212Z" fill="white"/>
<path opacity="0.3" d="M530.219 334.212H526.289V350.33H530.219V334.212Z" fill="white"/>
<path opacity="0.3" d="M523.453 334.212H519.523V350.33H523.453V334.212Z" fill="white"/>
<path opacity="0.3" d="M516.685 334.212H512.756V350.33H516.685V334.212Z" fill="white"/>
<path opacity="0.3" d="M509.918 334.212H505.988V350.33H509.918V334.212Z" fill="white"/>
<path opacity="0.3" d="M503.15 334.212H499.221V350.33H503.15V334.212Z" fill="white"/>
<path opacity="0.3" d="M496.383 334.212H492.453V350.33H496.383V334.212Z" fill="white"/>
<path opacity="0.3" d="M489.615 334.212H485.686V350.33H489.615V334.212Z" fill="white"/>
<path opacity="0.3" d="M482.846 334.212H478.916V350.33H482.846V334.212Z" fill="white"/>
<path opacity="0.3" d="M476.078 334.212H472.148V350.33H476.078V334.212Z" fill="white"/>
<path opacity="0.3" d="M469.312 334.212H465.383V350.33H469.312V334.212Z" fill="white"/>
<path opacity="0.3" d="M462.545 334.212H458.615V350.33H462.545V334.212Z" fill="white"/>
<path opacity="0.3" d="M455.775 334.212H451.846V350.33H455.775V334.212Z" fill="white"/>
<path opacity="0.3" d="M449.01 334.212H445.08V350.33H449.01V334.212Z" fill="white"/>
<path d="M436.893 338.666C436.893 340.044 437.984 341.104 439.403 341.104C440.822 341.104 441.914 340.044 441.914 338.666C441.914 337.287 440.822 336.227 439.403 336.227C437.984 336.227 436.893 337.287 436.893 338.666Z" fill="white"/>
<path opacity="0.3" d="M436.893 345.876C436.893 347.255 437.984 348.315 439.403 348.315C440.822 348.315 441.914 347.255 441.914 345.876C441.914 344.498 440.822 343.437 439.403 343.437C437.984 343.437 436.893 344.498 436.893 345.876Z" fill="#263238"/>
<path opacity="0.3" d="M536.988 361.252H533.059V377.369H536.988V361.252Z" fill="white"/>
<path opacity="0.3" d="M530.219 361.252H526.289V377.369H530.219V361.252Z" fill="white"/>
<path opacity="0.3" d="M523.453 361.252H519.523V377.369H523.453V361.252Z" fill="white"/>
<path opacity="0.3" d="M516.685 361.252H512.756V377.369H516.685V361.252Z" fill="white"/>
<path opacity="0.3" d="M509.918 361.252H505.988V377.369H509.918V361.252Z" fill="white"/>
<path opacity="0.3" d="M503.15 361.252H499.221V377.369H503.15V361.252Z" fill="white"/>
<path opacity="0.3" d="M496.383 361.252H492.453V377.369H496.383V361.252Z" fill="white"/>
<path opacity="0.3" d="M489.615 361.252H485.686V377.369H489.615V361.252Z" fill="white"/>
<path opacity="0.3" d="M482.846 361.252H478.916V377.369H482.846V361.252Z" fill="white"/>
<path opacity="0.3" d="M476.078 361.252H472.148V377.369H476.078V361.252Z" fill="white"/>
<path opacity="0.3" d="M469.312 361.252H465.383V377.369H469.312V361.252Z" fill="white"/>
<path opacity="0.3" d="M462.545 361.252H458.615V377.369H462.545V361.252Z" fill="white"/>
<path opacity="0.3" d="M455.775 361.252H451.846V377.369H455.775V361.252Z" fill="white"/>
<path opacity="0.3" d="M449.01 361.252H445.08V377.369H449.01V361.252Z" fill="white"/>
<path d="M436.893 365.705C436.893 367.084 437.984 368.144 439.403 368.144C440.822 368.144 441.914 367.084 441.914 365.705C441.914 364.327 440.822 363.266 439.403 363.266C437.984 363.266 436.893 364.433 436.893 365.705Z" fill="white"/>
<path opacity="0.3" d="M436.893 372.916C436.893 374.294 437.984 375.355 439.403 375.355C440.822 375.355 441.914 374.294 441.914 372.916C441.914 371.537 440.822 370.477 439.403 370.477C437.984 370.477 436.893 371.537 436.893 372.916Z" fill="#263238"/>
<path opacity="0.3" d="M536.988 388.292H533.059V404.409H536.988V388.292Z" fill="white"/>
<path opacity="0.3" d="M530.219 388.292H526.289V404.409H530.219V388.292Z" fill="white"/>
<path opacity="0.3" d="M523.453 388.292H519.523V404.409H523.453V388.292Z" fill="white"/>
<path opacity="0.3" d="M516.685 388.292H512.756V404.409H516.685V388.292Z" fill="white"/>
<path opacity="0.3" d="M509.918 388.292H505.988V404.409H509.918V388.292Z" fill="white"/>
<path opacity="0.3" d="M503.15 388.292H499.221V404.409H503.15V388.292Z" fill="white"/>
<path opacity="0.3" d="M496.383 388.292H492.453V404.409H496.383V388.292Z" fill="white"/>
<path opacity="0.3" d="M489.615 388.292H485.686V404.409H489.615V388.292Z" fill="white"/>
<path opacity="0.3" d="M482.846 388.292H478.916V404.409H482.846V388.292Z" fill="white"/>
<path opacity="0.3" d="M476.078 388.292H472.148V404.409H476.078V388.292Z" fill="white"/>
<path opacity="0.3" d="M469.312 388.292H465.383V404.409H469.312V388.292Z" fill="white"/>
<path opacity="0.3" d="M462.545 388.292H458.615V404.409H462.545V388.292Z" fill="white"/>
<path opacity="0.3" d="M455.775 388.292H451.846V404.409H455.775V388.292Z" fill="white"/>
<path opacity="0.3" d="M449.01 388.292H445.08V404.409H449.01V388.292Z" fill="white"/>
<path d="M436.893 392.851C436.893 394.23 437.984 395.29 439.403 395.29C440.822 395.29 441.914 394.23 441.914 392.851C441.914 391.473 440.822 390.412 439.403 390.412C437.984 390.412 436.893 391.473 436.893 392.851Z" fill="white"/>
<path opacity="0.3" d="M436.893 399.956C436.893 401.334 437.984 402.395 439.403 402.395C440.822 402.395 441.914 401.334 441.914 399.956C441.914 398.577 440.822 397.517 439.403 397.517C437.984 397.517 436.893 398.577 436.893 399.956Z" fill="#263238"/>
<path opacity="0.3" d="M536.988 415.437H533.059V431.555H536.988V415.437Z" fill="white"/>
<path opacity="0.3" d="M530.219 415.437H526.289V431.555H530.219V415.437Z" fill="white"/>
<path opacity="0.3" d="M523.453 415.437H519.523V431.555H523.453V415.437Z" fill="white"/>
<path opacity="0.3" d="M516.685 415.437H512.756V431.555H516.685V415.437Z" fill="white"/>
<path opacity="0.3" d="M509.918 415.437H505.988V431.555H509.918V415.437Z" fill="white"/>
<path opacity="0.3" d="M503.15 415.437H499.221V431.555H503.15V415.437Z" fill="white"/>
<path opacity="0.3" d="M496.383 415.437H492.453V431.555H496.383V415.437Z" fill="white"/>
<path opacity="0.3" d="M489.615 415.437H485.686V431.555H489.615V415.437Z" fill="white"/>
<path opacity="0.3" d="M482.846 415.437H478.916V431.555H482.846V415.437Z" fill="white"/>
<path opacity="0.3" d="M476.078 415.437H472.148V431.555H476.078V415.437Z" fill="white"/>
<path opacity="0.3" d="M469.312 415.437H465.383V431.555H469.312V415.437Z" fill="white"/>
<path opacity="0.3" d="M462.545 415.437H458.615V431.555H462.545V415.437Z" fill="white"/>
<path opacity="0.3" d="M455.775 415.437H451.846V431.555H455.775V415.437Z" fill="white"/>
<path opacity="0.3" d="M449.01 415.437H445.08V431.555H449.01V415.437Z" fill="white"/>
<path d="M436.893 419.891C436.893 421.269 437.984 422.33 439.403 422.33C440.822 422.33 441.914 421.269 441.914 419.891C441.914 418.512 440.822 417.452 439.403 417.452C437.984 417.452 436.893 418.512 436.893 419.891Z" fill="white"/>
<path opacity="0.3" d="M436.893 426.995C436.893 428.374 437.984 429.434 439.403 429.434C440.822 429.434 441.914 428.374 441.914 426.995C441.914 425.617 440.822 424.557 439.403 424.557C437.984 424.557 436.893 425.723 436.893 426.995Z" fill="#263238"/>
<path opacity="0.3" d="M536.988 442.477H533.059V458.595H536.988V442.477Z" fill="white"/>
<path opacity="0.3" d="M530.219 442.477H526.289V458.595H530.219V442.477Z" fill="white"/>
<path opacity="0.3" d="M523.453 442.477H519.523V458.595H523.453V442.477Z" fill="white"/>
<path opacity="0.3" d="M516.685 442.477H512.756V458.595H516.685V442.477Z" fill="white"/>
<path opacity="0.3" d="M509.918 442.477H505.988V458.595H509.918V442.477Z" fill="white"/>
<path opacity="0.3" d="M503.15 442.477H499.221V458.595H503.15V442.477Z" fill="white"/>
<path opacity="0.3" d="M496.383 442.477H492.453V458.595H496.383V442.477Z" fill="white"/>
<path opacity="0.3" d="M489.615 442.477H485.686V458.595H489.615V442.477Z" fill="white"/>
<path opacity="0.3" d="M482.846 442.477H478.916V458.595H482.846V442.477Z" fill="white"/>
<path opacity="0.3" d="M476.078 442.477H472.148V458.595H476.078V442.477Z" fill="white"/>
<path opacity="0.3" d="M469.312 442.477H465.383V458.595H469.312V442.477Z" fill="white"/>
<path opacity="0.3" d="M462.545 442.477H458.615V458.595H462.545V442.477Z" fill="white"/>
<path opacity="0.3" d="M455.775 442.477H451.846V458.595H455.775V442.477Z" fill="white"/>
<path opacity="0.3" d="M449.01 442.477H445.08V458.595H449.01V442.477Z" fill="white"/>
<path d="M436.893 446.931C436.893 448.309 437.984 449.37 439.403 449.37C440.822 449.37 441.914 448.309 441.914 446.931C441.914 445.552 440.822 444.492 439.403 444.492C437.984 444.492 436.893 445.552 436.893 446.931Z" fill="white"/>
<path opacity="0.3" d="M436.893 454.141C436.893 455.52 437.984 456.58 439.403 456.58C440.822 456.58 441.914 455.52 441.914 454.141C441.914 452.763 440.822 451.702 439.403 451.702C437.984 451.702 436.893 452.763 436.893 454.141Z" fill="#263238"/>
<path opacity="0.3" d="M536.988 469.517H533.059V485.635H536.988V469.517Z" fill="white"/>
<path opacity="0.3" d="M530.219 469.517H526.289V485.635H530.219V469.517Z" fill="white"/>
<path opacity="0.3" d="M523.453 469.517H519.523V485.635H523.453V469.517Z" fill="white"/>
<path opacity="0.3" d="M516.685 469.517H512.756V485.635H516.685V469.517Z" fill="white"/>
<path opacity="0.3" d="M509.918 469.517H505.988V485.635H509.918V469.517Z" fill="white"/>
<path opacity="0.3" d="M503.15 469.517H499.221V485.635H503.15V469.517Z" fill="white"/>
<path opacity="0.3" d="M496.383 469.517H492.453V485.635H496.383V469.517Z" fill="white"/>
<path opacity="0.3" d="M489.615 469.517H485.686V485.635H489.615V469.517Z" fill="white"/>
<path opacity="0.3" d="M482.846 469.517H478.916V485.635H482.846V469.517Z" fill="white"/>
<path opacity="0.3" d="M476.078 469.517H472.148V485.635H476.078V469.517Z" fill="white"/>
<path opacity="0.3" d="M469.312 469.517H465.383V485.635H469.312V469.517Z" fill="white"/>
<path opacity="0.3" d="M462.545 469.517H458.615V485.635H462.545V469.517Z" fill="white"/>
<path opacity="0.3" d="M455.775 469.517H451.846V485.635H455.775V469.517Z" fill="white"/>
<path opacity="0.3" d="M449.01 469.517H445.08V485.635H449.01V469.517Z" fill="white"/>
<path d="M436.893 473.97C436.893 475.349 437.984 476.409 439.403 476.409C440.822 476.409 441.914 475.349 441.914 473.97C441.914 472.592 440.822 471.532 439.403 471.532C437.984 471.532 436.893 472.592 436.893 473.97Z" fill="white"/>
<path opacity="0.3" d="M436.893 481.181C436.893 482.56 437.984 483.62 439.403 483.62C440.822 483.62 441.914 482.56 441.914 481.181C441.914 479.803 440.822 478.742 439.403 478.742C437.984 478.742 436.893 479.803 436.893 481.181Z" fill="#263238"/>
<path opacity="0.3" d="M536.988 496.557H533.059V512.674H536.988V496.557Z" fill="white"/>
<path opacity="0.3" d="M530.219 496.557H526.289V512.674H530.219V496.557Z" fill="white"/>
<path opacity="0.3" d="M523.453 496.557H519.523V512.674H523.453V496.557Z" fill="white"/>
<path opacity="0.3" d="M516.685 496.557H512.756V512.674H516.685V496.557Z" fill="white"/>
<path opacity="0.3" d="M509.918 496.557H505.988V512.674H509.918V496.557Z" fill="white"/>
<path opacity="0.3" d="M503.15 496.557H499.221V512.674H503.15V496.557Z" fill="white"/>
<path opacity="0.3" d="M496.383 496.557H492.453V512.674H496.383V496.557Z" fill="white"/>
<path opacity="0.3" d="M489.615 496.557H485.686V512.674H489.615V496.557Z" fill="white"/>
<path opacity="0.3" d="M482.846 496.557H478.916V512.674H482.846V496.557Z" fill="white"/>
<path opacity="0.3" d="M476.078 496.557H472.148V512.674H476.078V496.557Z" fill="white"/>
<path opacity="0.3" d="M469.312 496.557H465.383V512.674H469.312V496.557Z" fill="white"/>
<path opacity="0.3" d="M462.545 496.557H458.615V512.674H462.545V496.557Z" fill="white"/>
<path opacity="0.3" d="M455.775 496.557H451.846V512.674H455.775V496.557Z" fill="white"/>
<path opacity="0.3" d="M449.01 496.557H445.08V512.674H449.01V496.557Z" fill="white"/>
<path d="M436.893 501.116C436.893 502.495 437.984 503.555 439.403 503.555C440.822 503.555 441.914 502.495 441.914 501.116C441.914 499.738 440.822 498.677 439.403 498.677C437.984 498.677 436.893 499.738 436.893 501.116Z" fill="white"/>
<path opacity="0.3" d="M436.893 508.221C436.893 509.599 437.984 510.66 439.403 510.66C440.822 510.66 441.914 509.599 441.914 508.221C441.914 506.842 440.822 505.782 439.403 505.782C437.984 505.782 436.893 506.842 436.893 508.221Z" fill="#263238"/>
<path d="M516.029 230.506V237.187L511.99 238.141C511.663 239.308 511.226 240.368 510.571 241.428L512.754 244.928L507.951 249.593L504.349 247.473C503.258 248.003 502.166 248.533 500.965 248.851L499.983 252.774H493.106L492.124 248.851C490.923 248.533 489.832 248.109 488.74 247.473L485.138 249.593L480.335 244.928L482.518 241.428C481.973 240.368 481.427 239.308 481.099 238.141L477.061 237.187V230.506L481.099 229.552C481.427 228.386 481.863 227.325 482.518 226.265L480.335 222.766L485.138 218.1L488.74 220.221C489.832 219.69 490.923 219.16 492.124 218.842L493.106 214.919H499.983L500.965 218.842C502.166 219.16 503.258 219.584 504.349 220.221L507.951 218.1L512.754 222.766L510.571 226.265C511.117 227.325 511.663 228.386 511.99 229.552L516.029 230.506ZM496.49 227.431C492.888 227.431 489.941 230.294 489.941 233.794C489.941 237.293 492.888 240.156 496.49 240.156C500.092 240.156 503.039 237.293 503.039 233.794C503.039 230.294 500.092 227.431 496.49 227.431Z" fill="#407BFF"/>
<path d="M535.459 247.579L534.04 250.972L531.748 250.654C531.311 251.184 530.874 251.608 530.329 252.032L530.656 254.259L527.163 255.638L525.744 253.835C525.089 253.941 524.434 253.941 523.779 253.835L522.36 255.638L518.867 254.259L519.195 252.032C518.649 251.608 518.212 251.184 517.776 250.654L515.483 250.972L514.064 247.579L515.92 246.2C515.811 245.564 515.811 244.928 515.92 244.291L514.064 242.913L515.483 239.52L517.776 239.838C518.212 239.308 518.649 238.883 519.195 238.459L518.867 236.232L522.36 234.854L523.779 236.657C524.434 236.551 525.089 236.551 525.744 236.657L527.163 234.854L530.656 236.232L530.329 238.459C530.874 238.883 531.311 239.308 531.748 239.838L534.04 239.52L535.459 242.913L533.603 244.291C533.712 244.928 533.712 245.564 533.603 246.2L535.459 247.579Z" fill="#407BFF"/>
<path opacity="0.3" d="M535.459 247.579L534.04 250.972L531.748 250.654C531.311 251.184 530.874 251.608 530.329 252.032L530.656 254.259L527.163 255.638L525.744 253.835C525.089 253.941 524.434 253.941 523.779 253.835L522.36 255.638L518.867 254.259L519.195 252.032C518.649 251.608 518.212 251.184 517.776 250.654L515.483 250.972L514.064 247.579L515.92 246.2C515.811 245.564 515.811 244.928 515.92 244.291L514.064 242.913L515.483 239.52L517.776 239.838C518.212 239.308 518.649 238.883 519.195 238.459L518.867 236.232L522.36 234.854L523.779 236.657C524.434 236.551 525.089 236.551 525.744 236.657L527.163 234.854L530.656 236.232L530.329 238.459C530.874 238.883 531.311 239.308 531.748 239.838L534.04 239.52L535.459 242.913L533.603 244.291C533.712 244.928 533.712 245.564 533.603 246.2L535.459 247.579Z" fill="white"/>
<path d="M547.902 275.149H464.071C461.779 275.149 459.814 273.346 459.814 271.013C459.814 268.786 461.67 266.878 464.071 266.878H547.902C550.195 266.878 552.159 268.68 552.159 271.013C552.159 273.346 550.304 275.149 547.902 275.149Z" fill="#407BFF"/>
<path d="M464.072 274.194C462.325 274.194 460.797 272.816 460.797 271.013C460.797 269.316 462.216 267.832 464.072 267.832H493.652C495.399 267.832 496.927 269.21 496.927 271.013C496.927 272.71 495.508 274.194 493.652 274.194H464.072Z" fill="white"/>
<path d="M500.637 280.238L505.985 285.434L511.443 280.238H500.637Z" fill="#407BFF"/>
<path d="M580.65 547.879H578.357C575.519 547.879 573.227 545.652 573.227 542.895V527.308C573.227 526.778 572.79 526.353 572.245 526.353H567.66V525.293H572.245C573.445 525.293 574.319 526.247 574.319 527.308V542.895C574.319 545.122 576.174 546.819 578.357 546.819H580.65C582.942 546.819 584.688 545.016 584.688 542.895V356.798C584.688 355.632 585.671 354.783 586.762 354.783H598.66V355.844H586.762C586.217 355.844 585.78 356.268 585.78 356.798V542.895C585.78 545.652 583.488 547.879 580.65 547.879Z" fill="#407BFF"/>
<path d="M680.199 356.374H565.695V359.555H680.199V356.374Z" fill="#407BFF"/>
<path opacity="0.2" d="M603.245 356.374H565.695V359.555H603.245V356.374Z" fill="black"/>
<path d="M629.988 359.555H621.91V547.349H629.988V359.555Z" fill="#407BFF"/>
<path opacity="0.2" d="M629.988 359.555H624.639H621.91V364.857V547.349H624.639V364.327L629.988 363.266V359.555Z" fill="black"/>
<path d="M654.549 310.353H591.675C589.492 310.353 587.855 312.156 588.182 314.277L592.876 350.436C593.204 352.557 595.168 354.359 597.461 354.359H660.334C662.517 354.359 664.154 352.557 663.827 350.436L659.133 314.277C658.806 312.05 656.841 310.353 654.549 310.353Z" fill="#0F264C"/>
<path d="M674.305 354.147H595.605C594.295 354.147 593.422 355.208 593.531 356.374H676.925C676.816 355.208 675.615 354.147 674.305 354.147Z" fill="#407BFF"/>
<path opacity="0.2" d="M614.27 354.147H595.605C594.295 354.147 593.422 355.208 593.531 356.374H616.89C616.781 355.208 615.58 354.147 614.27 354.147Z" fill="black"/>
<path opacity="0.9" d="M597.898 352.132C596.806 352.132 595.715 351.178 595.496 350.118L590.803 313.959C590.693 313.535 590.803 313.11 591.13 312.898C591.348 312.58 591.676 312.474 592.113 312.474H654.986C656.077 312.474 657.169 313.428 657.387 314.489L662.081 350.648C662.19 351.072 662.081 351.496 661.753 351.708C661.535 352.026 661.207 352.132 660.771 352.132H597.898Z" fill="white"/>
<g opacity="0.5">
<path opacity="0.2" d="M631.299 327.531L631.954 331.561L629.444 332.197C629.335 332.833 629.116 333.576 628.898 334.212L630.645 336.333L628.025 339.196L625.514 337.923C624.859 338.241 624.204 338.559 623.549 338.772L623.331 341.104H618.965L617.873 338.772C617.109 338.559 616.345 338.347 615.581 337.923L613.507 339.196L609.905 336.333L610.887 334.212C610.451 333.576 610.014 332.939 609.687 332.303L607.067 331.773L606.412 327.744L608.923 327.107C609.032 326.471 609.25 325.729 609.468 325.093L607.722 322.972L610.342 320.109L612.852 321.381C613.398 321.063 614.162 320.745 614.817 320.533L615.035 318.2H619.402L620.493 320.533C621.257 320.745 622.021 320.957 622.785 321.381L624.859 320.109L628.461 322.972L627.479 325.093C627.916 325.729 628.352 326.365 628.68 327.001L631.299 327.531ZM618.637 325.729C616.345 325.729 614.817 327.425 615.145 329.546C615.472 331.667 617.655 333.364 619.947 333.364C622.24 333.364 623.768 331.667 623.44 329.546C623.113 327.425 620.93 325.729 618.637 325.729Z" fill="#407BFF"/>
</g>
<path opacity="0.2" d="M645.489 337.817L644.943 339.832L643.415 339.62C643.197 339.938 642.979 340.256 642.651 340.468L643.088 341.847L641.014 342.695L639.922 341.635C639.486 341.635 639.049 341.635 638.612 341.635L637.958 342.695L635.556 341.847V340.468C635.229 340.256 634.792 339.938 634.465 339.62L633.046 339.832L631.736 337.817L632.827 336.969C632.718 336.545 632.609 336.227 632.609 335.803L631.408 335.06L631.954 333.046L633.482 333.258C633.7 332.94 633.919 332.621 634.246 332.409L633.81 331.031L635.884 330.183L636.975 331.243C637.412 331.243 637.848 331.243 638.285 331.243L638.94 330.183L641.341 331.031V332.409C641.669 332.621 642.105 332.94 642.433 333.258L643.852 333.046L645.162 335.06L644.07 335.909C644.179 336.333 644.288 336.651 644.288 337.075L645.489 337.817Z" fill="#407BFF"/>
<path d="M697.773 263.272C696.9 268.892 696.354 279.072 700.502 282.571C700.502 282.571 696.791 290.1 687.294 294.554C679.435 290.312 682.71 283.42 682.71 283.42C689.041 281.617 688.604 277.057 687.294 272.816L697.773 263.272Z" fill="#F5C9B2"/>
<path d="M700.391 279.602C700.173 279.602 699.846 279.708 699.627 279.708C699.082 278.754 698.099 278.118 696.898 278.118C696.025 278.118 695.37 278.542 694.824 279.072C694.279 278.542 693.515 278.224 692.641 278.33C691.659 278.33 690.895 278.86 690.349 279.496C689.803 278.966 689.039 278.754 688.275 278.754C687.075 278.754 686.201 279.496 685.656 280.344C685.219 280.132 684.782 280.026 684.346 280.026C682.708 280.132 681.398 281.405 681.398 283.101C681.508 284.692 682.817 285.964 684.564 285.964C685.765 285.964 686.638 285.222 687.184 284.374C687.62 284.586 688.057 284.692 688.494 284.692C689.476 284.692 690.24 284.162 690.786 283.526C691.332 284.056 692.096 284.268 692.86 284.268C693.733 284.268 694.388 283.844 694.934 283.314C695.479 283.844 696.244 284.162 697.117 284.056C697.335 284.056 697.663 283.95 697.881 283.95C698.427 284.904 699.409 285.54 700.61 285.54C702.247 285.434 703.557 284.162 703.557 282.465C703.448 280.875 702.138 279.602 700.391 279.602Z" fill="white"/>
<path opacity="0.5" d="M700.391 279.602C700.173 279.602 699.846 279.708 699.627 279.708C699.082 278.754 698.099 278.118 696.898 278.118C696.025 278.118 695.37 278.542 694.824 279.072C694.279 278.542 693.515 278.224 692.641 278.33C691.659 278.33 690.895 278.86 690.349 279.496C689.803 278.966 689.039 278.754 688.275 278.754C687.075 278.754 686.201 279.496 685.656 280.344C685.219 280.132 684.782 280.026 684.346 280.026C682.708 280.132 681.398 281.405 681.398 283.101C681.508 284.692 682.817 285.964 684.564 285.964C685.765 285.964 686.638 285.222 687.184 284.374C687.62 284.586 688.057 284.692 688.494 284.692C689.476 284.692 690.24 284.162 690.786 283.526C691.332 284.056 692.096 284.268 692.86 284.268C693.733 284.268 694.388 283.844 694.934 283.314C695.479 283.844 696.244 284.162 697.117 284.056C697.335 284.056 697.663 283.95 697.881 283.95C698.427 284.904 699.409 285.54 700.61 285.54C702.247 285.434 703.557 284.162 703.557 282.465C703.448 280.875 702.138 279.602 700.391 279.602Z" fill="#407BFF"/>
<path d="M672.994 259.667C673.213 260.409 672.994 261.045 672.558 261.258C672.121 261.364 671.466 260.939 671.248 260.197C671.029 259.455 671.248 258.819 671.684 258.607C672.121 258.394 672.776 258.925 672.994 259.667Z" fill="#263238"/>
<path d="M671.902 258.501H669.938C670.047 258.501 671.357 259.667 671.902 258.501Z" fill="#263238"/>
<path d="M670.592 255.638C670.483 255.638 670.374 255.637 670.265 255.531C670.047 255.425 670.047 255.107 670.156 254.895C671.684 252.987 673.758 253.093 673.867 253.093C674.085 253.093 674.304 253.305 674.304 253.517C674.304 253.729 674.085 253.941 673.867 253.941C673.758 253.941 672.12 253.835 670.92 255.425C670.811 255.531 670.701 255.638 670.592 255.638Z" fill="#263238"/>
<path d="M674.085 261.788C674.085 261.788 673.758 265.287 672.885 267.196C674.195 267.832 675.723 266.878 675.723 266.878L674.085 261.788Z" fill="#ED847E"/>
<path d="M697.337 249.381C699.52 258.395 700.612 262.212 697.337 268.15C692.425 277.057 680.527 277.587 675.615 269.316C671.249 261.894 668.411 248.321 676.379 242.171C684.129 236.232 695.154 240.368 697.337 249.381Z" fill="#F5C9B2"/>
<path d="M679.215 258.076C679.761 254.577 674.849 258.925 673.648 253.729C672.884 250.654 669.173 251.29 670.046 246.518C670.919 241.746 674.958 242.065 675.395 240.262C676.159 237.187 678.233 235.596 681.507 234.854C686.638 233.688 687.729 238.247 691.768 237.081C695.588 236.02 700.937 236.869 702.793 240.58C704.757 244.397 701.701 248.639 703.666 250.442C707.377 253.835 708.578 260.197 704.212 264.651C700.937 268.044 705.849 270.165 702.247 272.073C698.536 273.876 694.06 273.77 692.205 269.104C691.004 265.923 677.578 268.998 679.215 258.076Z" fill="#445465"/>
<path d="M680.745 258.182C681.291 259.985 680.963 262 680.199 263.378C678.998 265.499 676.706 264.863 675.505 262.848C674.523 261.045 673.868 257.864 675.833 256.38C677.688 255.001 680.09 256.062 680.745 258.182Z" fill="#F5C9B2"/>
<path d="M709.016 295.826C707.27 302.294 705.305 308.445 703.122 314.595C702.03 317.67 700.829 320.745 699.52 323.82C698.865 325.305 698.21 326.895 697.555 328.38L696.463 330.607L695.372 332.939L694.826 334.106L693.953 335.484C693.407 336.333 692.752 337.075 692.097 337.817C690.787 339.302 689.368 340.574 687.949 341.635C685.002 343.861 681.946 345.664 678.78 347.149C672.449 350.118 666.009 352.132 659.132 353.405L657.932 348.845C660.879 347.785 663.935 346.512 666.773 345.134C669.72 343.755 672.558 342.377 675.178 340.786C680.417 337.605 685.439 333.788 687.185 329.122L688.058 327.001L688.932 324.775C689.477 323.29 690.023 321.805 690.678 320.321C691.77 317.352 692.861 314.383 693.844 311.308C695.808 305.263 697.773 299.113 699.52 293.175L709.016 295.826Z" fill="#F5C9B2"/>
<path d="M660.223 348.315L651.818 346.936L653.128 354.465C653.128 354.465 660.66 354.889 663.061 351.814L660.223 348.315Z" fill="#F5C9B2"/>
<path d="M645.487 350.436L644.613 354.147L653.127 354.465L651.818 346.936L645.487 350.436Z" fill="#F5C9B2"/>
<path d="M667.972 290.418C667.863 297.204 669.5 312.686 676.377 341.635L712.834 339.408C711.306 325.941 710.87 318.094 714.581 294.554C715.563 288.085 710.651 282.041 703.884 281.723C703.665 281.723 703.447 281.723 703.229 281.723C696.679 281.405 691.222 281.193 685.437 281.723C681.616 282.041 677.468 282.677 674.412 283.207C670.701 283.844 667.972 286.813 667.972 290.418Z" fill="#F6AC3B"/>
<path d="M699.519 274.088C703.776 281.299 681.509 289.782 696.354 293.281C711.199 296.78 697.445 299.325 700.502 309.187C703.121 317.776 714.692 306.43 710.871 296.25C706.505 284.586 715.783 284.586 704.759 273.982C700.611 269.847 699.519 274.088 699.519 274.088Z" fill="#445465"/>
<path d="M703.993 274.618L701.155 274.83C699.518 274.936 697.662 273.876 697.117 272.498C696.571 271.119 697.444 269.847 699.191 269.635L702.029 269.423C703.666 269.316 705.522 270.377 706.067 271.755C706.504 273.134 705.631 274.406 703.993 274.618Z" fill="#C58A2F"/>
<path opacity="0.2" d="M675.614 293.069L668.955 303.673C669.501 307.596 670.265 312.368 671.247 317.882L676.05 315.125C678.342 298.371 675.614 293.069 675.614 293.069Z" fill="black"/>
<path d="M676.814 295.826C675.177 302.082 673.212 308.232 671.029 314.277C669.937 317.352 668.846 320.321 667.536 323.29C666.881 324.774 666.226 326.259 665.571 327.744C664.916 329.228 664.261 330.713 663.497 332.197L662.951 333.364C662.733 333.788 662.624 334.106 662.296 334.53C661.969 334.954 661.751 335.484 661.423 335.802L660.55 336.969C659.349 338.453 658.039 339.832 656.62 340.998C653.782 343.331 650.726 345.134 647.67 346.618C641.448 349.587 635.008 351.496 628.349 352.663L627.258 347.997C630.096 346.936 633.152 345.77 635.99 344.498C638.828 343.225 641.557 341.741 644.177 340.256C646.687 338.665 649.089 336.969 651.163 335.06C652.145 334.106 653.018 333.045 653.782 332.091L654.328 331.349C654.546 331.137 654.546 330.819 654.765 330.607C654.874 330.395 655.092 329.97 655.201 329.652L655.638 328.592C658.039 322.972 660.113 317.14 662.078 311.202C664.043 305.263 665.899 299.325 667.536 293.387L676.814 295.826Z" fill="#F5C9B2"/>
<path d="M677.905 290.842C676.268 287.025 672.447 283.738 672.447 283.738C666.007 286.601 663.715 289.676 660.004 307.596C665.352 312.156 674.303 312.156 674.303 312.156L679.106 300.068C679.106 300.174 679.543 294.66 677.905 290.842Z" fill="#F6AC3B"/>
<path d="M628.022 348.315L619.727 347.255L622.237 354.041C622.237 354.041 628.35 354.995 630.751 351.814L628.022 348.315Z" fill="#F5C9B2"/>
<path d="M615.36 350.436L612.959 354.147L622.237 354.041L619.727 347.255L615.36 350.436Z" fill="#F5C9B2"/>
<path d="M677.47 341.635C677.47 341.635 672.886 407.166 672.122 438.766C672.012 442.583 672.776 446.4 674.414 450.006C688.931 483.196 718.185 519.673 718.185 519.673L724.079 513.947C724.079 513.947 704.65 471.638 691.333 439.932C699.192 408.545 704.213 340.044 704.213 340.044L677.47 341.635Z" fill="#F5C9B2"/>
<path opacity="0.2" d="M716.328 496.981C711.525 486.271 705.085 471.956 698.972 457.747L698.863 492.315C698.863 492.845 699.082 493.375 699.409 493.906C707.923 506.418 715.237 516.068 717.529 518.931L716.328 496.981Z" fill="black"/>
<path d="M683.91 341.316C683.91 341.316 690.241 408.863 695.59 436.963C701.157 466.442 705.414 536.851 705.523 538.972H712.181C712.181 538.972 721.35 459.867 712.836 433.464C711.417 401.122 712.836 339.514 712.836 339.514L683.91 341.316Z" fill="#F5C9B2"/>
<path d="M716.001 518.082L723.096 512.038C723.424 511.826 723.86 511.72 724.079 512.038L730.519 517.552C731.174 518.082 731.174 519.249 730.41 519.885C727.463 522.324 727.244 522.324 723.533 525.399C721.241 527.308 717.639 530.595 714.582 533.246C711.526 535.897 708.688 533.14 709.779 531.761C714.582 525.505 714.582 522.96 715.128 519.673C715.237 519.037 715.456 518.507 716.001 518.082Z" fill="#263238"/>
<path d="M704.648 537.7H712.289C712.726 537.7 713.053 538.018 713.053 538.336L714.145 546.819C714.254 547.667 713.49 548.516 712.507 548.516C708.687 548.41 710.215 548.197 705.412 548.197C702.465 548.197 698.099 548.516 693.951 548.516C689.912 548.516 689.694 544.592 691.44 544.168C699.081 542.577 700.391 540.351 703.011 538.23C703.557 537.912 704.102 537.7 704.648 537.7Z" fill="#263238"/>
<path d="M676.268 341.741L668.955 439.508L716.328 427.101C712.18 386.701 727.462 359.661 712.726 339.514L676.268 341.741Z" fill="#6F7B88"/>
<path d="M713.491 341.21L676.161 343.861C675.833 343.861 675.506 343.649 675.506 343.331L675.396 341.635C675.396 341.316 675.615 340.998 675.942 340.998L713.055 338.453C713.382 338.453 713.601 338.666 713.71 338.878L714.146 340.468C714.146 340.786 713.928 341.21 713.491 341.21Z" fill="#407BFF"/>
<path opacity="0.7" d="M713.491 341.21L676.161 343.861C675.833 343.861 675.506 343.649 675.506 343.331L675.396 341.635C675.396 341.316 675.615 340.998 675.942 340.998L713.055 338.453C713.382 338.453 713.601 338.666 713.71 338.878L714.146 340.468C714.146 340.786 713.928 341.21 713.491 341.21Z" fill="#C58A2F"/>
<path opacity="0.2" d="M708.36 361.252C708.36 361.252 701.483 369.311 689.367 374.931C701.592 373.34 706.723 368.462 708.36 361.252Z" fill="black"/>
</g>
<defs>
<clipPath id="clip0">
<rect width="800" height="600" fill="white"/>
</clipPath>
</defs>
</svg>
