<svg width="1366" height="666" viewBox="0 0 1366 666" fill="none" xmlns="http://www.w3.org/2000/svg">
<g clip-path="url(#clip0)">
<path d="M1439.43 537.435H634.838V537.809H1439.43V537.435Z" fill="#EBEBEB"/>
<path d="M1358.81 557.515H1273.36V557.89H1358.81V557.515Z" fill="#EBEBEB"/>
<path d="M1167.96 553.649H1073.5V554.023H1167.96V553.649Z" fill="#EBEBEB"/>
<path d="M1277.55 551.778H1246.65V552.152H1277.55V551.778Z" fill="#EBEBEB"/>
<path d="M866.079 548.036H796.562V548.411H866.079V548.036Z" fill="#EBEBEB"/>
<path d="M787.549 548.036H762.768V548.411H787.549V548.036Z" fill="#EBEBEB"/>
<path d="M933.665 553.275H846.447V553.649H933.665V553.275Z" fill="#EBEBEB"/>
<path d="M1016.22 481.809H705.481C700.492 481.809 696.309 478.566 696.309 474.7V136.203C696.309 132.336 700.492 129.094 705.481 129.094H1016.22C1021.2 129.094 1025.39 132.336 1025.39 136.203V474.7C1025.39 478.566 1021.36 481.809 1016.22 481.809ZM705.481 129.343C700.653 129.343 696.63 132.336 696.63 136.203V474.7C696.63 478.441 700.492 481.559 705.481 481.559H1016.22C1021.04 481.559 1025.07 478.566 1025.07 474.7V136.203C1025.07 132.461 1021.2 129.343 1016.22 129.343H705.481Z" fill="#EBEBEB"/>
<path d="M1364.28 481.809H1053.55C1048.56 481.809 1044.38 478.566 1044.38 474.7V136.203C1044.38 132.336 1048.56 129.094 1053.55 129.094H1364.28C1369.27 129.094 1373.46 132.336 1373.46 136.203V474.7C1373.46 478.566 1369.43 481.809 1364.28 481.809ZM1053.55 129.343C1048.72 129.343 1044.7 132.336 1044.7 136.203V474.7C1044.7 478.441 1048.56 481.559 1053.55 481.559H1364.28C1369.11 481.559 1373.13 478.566 1373.13 474.7V136.203C1373.13 132.461 1369.27 129.343 1364.28 129.343H1053.55Z" fill="#EBEBEB"/>
<path d="M926.583 401.737C866.721 401.737 808.308 378.414 774.836 336.133C774.676 335.884 774.676 335.509 775.158 335.26C775.48 335.135 775.963 335.135 776.285 335.509C809.595 377.416 867.526 400.49 926.744 400.49C958.284 400.49 990.146 394.004 1018.79 380.285C1058.86 361.202 1087.02 331.019 1097.96 295.598C1108.9 260.052 1101.34 223.384 1076.56 192.328C1076.4 192.079 1076.4 191.704 1076.88 191.455C1077.2 191.33 1077.69 191.33 1078.01 191.704C1102.95 223.01 1110.51 260.052 1099.57 295.848C1088.63 331.643 1060.15 362.075 1019.76 381.283C990.629 395.252 958.445 401.737 926.583 401.737Z" fill="#E6E6E6"/>
<path d="M1187.2 386.746C1187.07 386.746 1186.94 386.746 1186.82 386.648C1186.57 386.452 1186.44 386.158 1186.69 385.963C1208.93 363.154 1218.6 335.059 1213.7 306.67C1208.8 278.281 1189.96 253.123 1160.82 235.698C1131.55 218.371 1095.38 210.833 1059.07 214.651C1022.65 218.469 990.366 233.152 968.007 255.864C967.756 256.059 967.379 256.157 967.128 255.961C966.877 255.766 966.751 255.472 967.002 255.276C989.486 232.271 1022.14 217.49 1058.95 213.672C1095.75 209.854 1132.18 217.392 1161.7 234.915C1191.22 252.437 1210.18 277.889 1215.08 306.572C1219.98 335.254 1210.31 363.643 1187.82 386.648C1187.57 386.648 1187.45 386.746 1187.2 386.746Z" fill="#E6E6E6"/>
<path d="M1212.59 393.571H1212.48C1212.15 393.486 1212.04 393.315 1212.04 393.059C1219.37 368.741 1213.92 343.655 1196.82 322.494C1179.6 301.333 1152.72 286.486 1121.07 280.854C1055.75 269.165 990.219 300.565 975.001 350.737C974.89 350.993 974.668 351.078 974.335 351.078C974.002 350.993 973.891 350.822 973.891 350.566C989.219 299.882 1055.31 268.226 1121.29 280.001C1153.28 285.718 1180.38 300.65 1197.71 321.982C1215.03 343.399 1220.48 368.656 1213.15 393.23C1213.04 393.486 1212.81 393.571 1212.59 393.571Z" fill="#E6E6E6"/>
<path d="M953.458 431.92C893.596 431.92 835.183 408.597 801.711 366.316C801.551 366.066 801.551 365.692 802.033 365.443C802.355 365.318 802.838 365.318 803.16 365.692C836.47 407.599 894.401 430.673 953.619 430.673C985.159 430.673 1017.02 424.187 1045.66 410.468C1128.38 370.931 1154.29 286.618 1103.43 222.511C1103.27 222.261 1103.27 221.887 1103.76 221.638C1104.08 221.513 1104.56 221.513 1104.88 221.887C1156.22 286.618 1130.15 371.679 1046.63 411.59C1017.5 425.434 985.32 431.92 953.458 431.92Z" fill="#E6E6E6"/>
<path d="M927.768 212.461H754.297V536.736H927.768V212.461Z" fill="#5CDBF5"/>
<path d="M918.451 480.108L918.451 218.847L763.808 218.847L763.808 480.108H918.451Z" fill="#8FB1FD"/>
<path d="M909.906 225.238H771.998V242.453H909.906V225.238Z" fill="#5CDBF5"/>
<path d="M907.008 226.753H902.02V240.937H907.008V226.753Z" fill="#8FB1FD"/>
<path d="M898.319 226.753H893.33V240.937H898.319V226.753Z" fill="#8FB1FD"/>
<path d="M889.789 226.753H884.801V240.937H889.789V226.753Z" fill="#8FB1FD"/>
<path d="M881.102 226.753H876.113V240.937H881.102V226.753Z" fill="#8FB1FD"/>
<path d="M872.572 226.753H867.584V240.937H872.572V226.753Z" fill="#8FB1FD"/>
<path d="M863.883 226.753H858.895V240.937H863.883V226.753Z" fill="#8FB1FD"/>
<path d="M855.194 226.753H850.205V240.937H855.194V226.753Z" fill="#8FB1FD"/>
<path d="M846.664 226.753H841.676V240.937H846.664V226.753Z" fill="#8FB1FD"/>
<path d="M837.975 226.753H832.986V240.937H837.975V226.753Z" fill="#8FB1FD"/>
<path d="M829.446 226.753H824.457V240.937H829.446V226.753Z" fill="#8FB1FD"/>
<path d="M820.756 226.753H815.768V240.937H820.756V226.753Z" fill="#8FB1FD"/>
<path d="M812.229 226.753H807.24V240.937H812.229V226.753Z" fill="#8FB1FD"/>
<path d="M803.537 226.753H798.549V240.937H803.537V226.753Z" fill="#8FB1FD"/>
<path d="M794.848 226.753H789.859V240.937H794.848V226.753Z" fill="#8FB1FD"/>
<path d="M782.619 232.817C784.396 232.817 785.837 231.847 785.837 230.651C785.837 229.455 784.396 228.486 782.619 228.486C780.841 228.486 779.4 229.455 779.4 230.651C779.4 231.847 780.841 232.817 782.619 232.817Z" fill="#79A2FD"/>
<path d="M782.619 239.205C784.396 239.205 785.837 238.235 785.837 237.039C785.837 235.843 784.396 234.874 782.619 234.874C780.841 234.874 779.4 235.843 779.4 237.039C779.4 238.235 780.841 239.205 782.619 239.205Z" fill="#8FB1FD"/>
<path d="M909.906 247.433H771.998V264.649H909.906V247.433Z" fill="#5CDBF5"/>
<path d="M907.008 248.841H902.02V263.024H907.008V248.841Z" fill="#8FB1FD"/>
<path d="M898.319 248.841H893.33V263.024H898.319V248.841Z" fill="#8FB1FD"/>
<path d="M889.789 248.841H884.801V263.024H889.789V248.841Z" fill="#8FB1FD"/>
<path d="M881.102 248.841H876.113V263.024H881.102V248.841Z" fill="#8FB1FD"/>
<path d="M872.572 248.841H867.584V263.024H872.572V248.841Z" fill="#8FB1FD"/>
<path d="M855.194 248.841H850.205V263.024H855.194V248.841Z" fill="#8FB1FD"/>
<path d="M846.664 248.841H841.676V263.024H846.664V248.841Z" fill="#8FB1FD"/>
<path d="M837.975 248.841H832.986V263.024H837.975V248.841Z" fill="#8FB1FD"/>
<path d="M829.446 248.841H824.457V263.024H829.446V248.841Z" fill="#8FB1FD"/>
<path d="M820.756 248.841H815.768V263.024H820.756V248.841Z" fill="#8FB1FD"/>
<path d="M812.229 248.841H807.24V263.024H812.229V248.841Z" fill="#8FB1FD"/>
<path d="M803.537 248.841H798.549V263.024H803.537V248.841Z" fill="#8FB1FD"/>
<path d="M794.848 248.841H789.859V263.024H794.848V248.841Z" fill="#8FB1FD"/>
<path d="M782.619 255.012C784.396 255.012 785.837 254.043 785.837 252.847C785.837 251.651 784.396 250.681 782.619 250.681C780.841 250.681 779.4 251.651 779.4 252.847C779.4 254.043 780.841 255.012 782.619 255.012Z" fill="#79A2FD"/>
<path d="M779.4 259.127C779.4 260.318 780.849 261.292 782.619 261.292C784.389 261.292 785.837 260.318 785.837 259.127C785.837 257.936 784.389 256.961 782.619 256.961C780.849 256.961 779.4 257.936 779.4 259.127Z" fill="#8FB1FD"/>
<path d="M909.906 269.521H771.998V286.736H909.906V269.521Z" fill="#5CDBF5"/>
<path d="M907.008 270.928H902.02V285.112H907.008V270.928Z" fill="#8FB1FD"/>
<path d="M898.319 270.928H893.33V285.112H898.319V270.928Z" fill="#8FB1FD"/>
<path d="M889.789 270.928H884.801V285.112H889.789V270.928Z" fill="#8FB1FD"/>
<path d="M881.102 270.928H876.113V285.112H881.102V270.928Z" fill="#8FB1FD"/>
<path d="M872.572 270.928H867.584V285.112H872.572V270.928Z" fill="#8FB1FD"/>
<path d="M863.883 270.928H858.895V285.112H863.883V270.928Z" fill="#8FB1FD"/>
<path d="M855.194 270.928H850.205V285.112H855.194V270.928Z" fill="#8FB1FD"/>
<path d="M846.664 270.928H841.676V285.112H846.664V270.928Z" fill="#8FB1FD"/>
<path d="M837.975 270.928H832.986V285.112H837.975V270.928Z" fill="#8FB1FD"/>
<path d="M829.446 270.928H824.457V285.112H829.446V270.928Z" fill="#8FB1FD"/>
<path d="M820.756 270.928H815.768V285.112H820.756V270.928Z" fill="#8FB1FD"/>
<path d="M812.229 270.928H807.24V285.112H812.229V270.928Z" fill="#8FB1FD"/>
<path d="M803.537 270.928H798.549V285.112H803.537V270.928Z" fill="#8FB1FD"/>
<path d="M794.848 270.928H789.859V285.112H794.848V270.928Z" fill="#8FB1FD"/>
<path d="M782.619 277.1C784.396 277.1 785.837 276.13 785.837 274.934C785.837 273.738 784.396 272.769 782.619 272.769C780.841 272.769 779.4 273.738 779.4 274.934C779.4 276.13 780.841 277.1 782.619 277.1Z" fill="#79A2FD"/>
<path d="M782.619 283.38C784.396 283.38 785.837 282.41 785.837 281.214C785.837 280.018 784.396 279.049 782.619 279.049C780.841 279.049 779.4 280.018 779.4 281.214C779.4 282.41 780.841 283.38 782.619 283.38Z" fill="#8FB1FD"/>
<path d="M909.906 291.608H771.998V308.824H909.906V291.608Z" fill="#5CDBF5"/>
<path d="M907.008 293.124H902.02V307.308H907.008V293.124Z" fill="#8FB1FD"/>
<path d="M898.319 293.124H893.33V307.308H898.319V293.124Z" fill="#8FB1FD"/>
<path d="M889.789 293.124H884.801V307.308H889.789V293.124Z" fill="#8FB1FD"/>
<path d="M881.102 293.124H876.113V307.308H881.102V293.124Z" fill="#8FB1FD"/>
<path d="M872.572 293.124H867.584V307.308H872.572V293.124Z" fill="#8FB1FD"/>
<path d="M863.883 293.124H858.895V307.308H863.883V293.124Z" fill="#8FB1FD"/>
<path d="M855.194 293.124H850.205V307.308H855.194V293.124Z" fill="#8FB1FD"/>
<path d="M829.446 293.124H824.457V307.308H829.446V293.124Z" fill="#8FB1FD"/>
<path d="M820.756 293.124H815.768V307.308H820.756V293.124Z" fill="#8FB1FD"/>
<path d="M812.229 293.124H807.24V307.308H812.229V293.124Z" fill="#8FB1FD"/>
<path d="M803.537 293.124H798.549V307.308H803.537V293.124Z" fill="#8FB1FD"/>
<path d="M794.848 293.124H789.859V307.308H794.848V293.124Z" fill="#8FB1FD"/>
<path d="M779.4 297.022C779.4 298.213 780.849 299.187 782.619 299.187C784.389 299.187 785.837 298.213 785.837 297.022C785.837 295.831 784.389 294.856 782.619 294.856C780.849 294.856 779.4 295.831 779.4 297.022Z" fill="#79A2FD"/>
<path d="M782.619 305.575C784.396 305.575 785.837 304.606 785.837 303.41C785.837 302.214 784.396 301.244 782.619 301.244C780.841 301.244 779.4 302.214 779.4 303.41C779.4 304.606 780.841 305.575 782.619 305.575Z" fill="#8FB1FD"/>
<path d="M909.906 313.804H771.998V331.019H909.906V313.804Z" fill="#5CDBF5"/>
<path d="M898.319 315.212H893.33V329.395H898.319V315.212Z" fill="#8FB1FD"/>
<path d="M889.789 315.212H884.801V329.395H889.789V315.212Z" fill="#8FB1FD"/>
<path d="M881.102 315.212H876.113V329.395H881.102V315.212Z" fill="#8FB1FD"/>
<path d="M872.572 315.212H867.584V329.395H872.572V315.212Z" fill="#8FB1FD"/>
<path d="M863.883 315.212H858.895V329.395H863.883V315.212Z" fill="#8FB1FD"/>
<path d="M855.194 315.212H850.205V329.395H855.194V315.212Z" fill="#8FB1FD"/>
<path d="M846.664 315.212H841.676V329.395H846.664V315.212Z" fill="#8FB1FD"/>
<path d="M837.975 315.212H832.986V329.395H837.975V315.212Z" fill="#8FB1FD"/>
<path d="M829.446 315.212H824.457V329.395H829.446V315.212Z" fill="#8FB1FD"/>
<path d="M820.756 315.212H815.768V329.395H820.756V315.212Z" fill="#8FB1FD"/>
<path d="M812.229 315.212H807.24V329.395H812.229V315.212Z" fill="#8FB1FD"/>
<path d="M803.537 315.212H798.549V329.395H803.537V315.212Z" fill="#8FB1FD"/>
<path d="M794.848 315.212H789.859V329.395H794.848V315.212Z" fill="#8FB1FD"/>
<path d="M782.619 321.383C784.396 321.383 785.837 320.414 785.837 319.218C785.837 318.022 784.396 317.052 782.619 317.052C780.841 317.052 779.4 318.022 779.4 319.218C779.4 320.414 780.841 321.383 782.619 321.383Z" fill="#79A2FD"/>
<path d="M782.619 327.663C784.396 327.663 785.837 326.693 785.837 325.497C785.837 324.302 784.396 323.332 782.619 323.332C780.841 323.332 779.4 324.302 779.4 325.497C779.4 326.693 780.841 327.663 782.619 327.663Z" fill="#8FB1FD"/>
<path d="M909.906 335.892H771.998V353.107H909.906V335.892Z" fill="#5CDBF5"/>
<path d="M907.008 337.407H902.02V351.591H907.008V337.407Z" fill="#8FB1FD"/>
<path d="M898.319 337.407H893.33V351.591H898.319V337.407Z" fill="#8FB1FD"/>
<path d="M881.102 337.407H876.113V351.591H881.102V337.407Z" fill="#8FB1FD"/>
<path d="M872.572 337.407H867.584V351.591H872.572V337.407Z" fill="#8FB1FD"/>
<path d="M863.883 337.407H858.895V351.591H863.883V337.407Z" fill="#8FB1FD"/>
<path d="M855.194 337.407H850.205V351.591H855.194V337.407Z" fill="#8FB1FD"/>
<path d="M846.664 337.407H841.676V351.591H846.664V337.407Z" fill="#8FB1FD"/>
<path d="M837.975 337.407H832.986V351.591H837.975V337.407Z" fill="#8FB1FD"/>
<path d="M820.756 337.407H815.768V351.591H820.756V337.407Z" fill="#8FB1FD"/>
<path d="M812.229 337.407H807.24V351.591H812.229V337.407Z" fill="#8FB1FD"/>
<path d="M803.537 337.407H798.549V351.591H803.537V337.407Z" fill="#8FB1FD"/>
<path d="M794.848 337.407H789.859V351.591H794.848V337.407Z" fill="#8FB1FD"/>
<path d="M782.619 343.471C784.396 343.471 785.837 342.501 785.837 341.305C785.837 340.109 784.396 339.14 782.619 339.14C780.841 339.14 779.4 340.109 779.4 341.305C779.4 342.501 780.841 343.471 782.619 343.471Z" fill="#79A2FD"/>
<path d="M782.619 349.75C784.396 349.75 785.837 348.781 785.837 347.585C785.837 346.389 784.396 345.419 782.619 345.419C780.841 345.419 779.4 346.389 779.4 347.585C779.4 348.781 780.841 349.75 782.619 349.75Z" fill="#8FB1FD"/>
<path d="M909.906 357.979H771.998V375.194H909.906V357.979Z" fill="#5CDBF5"/>
<path d="M907.008 359.495H902.02V373.679H907.008V359.495Z" fill="#8FB1FD"/>
<path d="M898.319 359.495H893.33V373.679H898.319V359.495Z" fill="#8FB1FD"/>
<path d="M889.789 359.495H884.801V373.679H889.789V359.495Z" fill="#8FB1FD"/>
<path d="M881.102 359.495H876.113V373.679H881.102V359.495Z" fill="#8FB1FD"/>
<path d="M872.572 359.495H867.584V373.679H872.572V359.495Z" fill="#8FB1FD"/>
<path d="M863.883 359.495H858.895V373.679H863.883V359.495Z" fill="#8FB1FD"/>
<path d="M855.194 359.495H850.205V373.679H855.194V359.495Z" fill="#8FB1FD"/>
<path d="M846.664 359.495H841.676V373.679H846.664V359.495Z" fill="#8FB1FD"/>
<path d="M837.975 359.495H832.986V373.679H837.975V359.495Z" fill="#8FB1FD"/>
<path d="M829.446 359.495H824.457V373.679H829.446V359.495Z" fill="#8FB1FD"/>
<path d="M820.756 359.495H815.768V373.679H820.756V359.495Z" fill="#8FB1FD"/>
<path d="M812.229 359.495H807.24V373.679H812.229V359.495Z" fill="#8FB1FD"/>
<path d="M803.537 359.495H798.549V373.679H803.537V359.495Z" fill="#8FB1FD"/>
<path d="M794.848 359.495H789.859V373.679H794.848V359.495Z" fill="#8FB1FD"/>
<path d="M782.619 365.558C784.396 365.558 785.837 364.589 785.837 363.393C785.837 362.197 784.396 361.227 782.619 361.227C780.841 361.227 779.4 362.197 779.4 363.393C779.4 364.589 780.841 365.558 782.619 365.558Z" fill="#79A2FD"/>
<path d="M779.4 369.781C779.4 370.972 780.849 371.946 782.619 371.946C784.389 371.946 785.837 370.972 785.837 369.781C785.837 368.59 784.389 367.615 782.619 367.615C780.849 367.615 779.4 368.59 779.4 369.781Z" fill="#8FB1FD"/>
<path d="M909.906 380.175H771.998V397.39H909.906V380.175Z" fill="#5CDBF5"/>
<path d="M907.008 381.582H902.02V395.766H907.008V381.582Z" fill="#8FB1FD"/>
<path d="M898.319 381.582H893.33V395.766H898.319V381.582Z" fill="#8FB1FD"/>
<path d="M889.789 381.582H884.801V395.766H889.789V381.582Z" fill="#8FB1FD"/>
<path d="M881.102 381.582H876.113V395.766H881.102V381.582Z" fill="#8FB1FD"/>
<path d="M872.572 381.582H867.584V395.766H872.572V381.582Z" fill="#8FB1FD"/>
<path d="M863.883 381.582H858.895V395.766H863.883V381.582Z" fill="#8FB1FD"/>
<path d="M855.194 381.582H850.205V395.766H855.194V381.582Z" fill="#8FB1FD"/>
<path d="M846.664 381.582H841.676V395.766H846.664V381.582Z" fill="#8FB1FD"/>
<path d="M829.446 381.582H824.457V395.766H829.446V381.582Z" fill="#8FB1FD"/>
<path d="M820.756 381.582H815.768V395.766H820.756V381.582Z" fill="#8FB1FD"/>
<path d="M812.229 381.582H807.24V395.766H812.229V381.582Z" fill="#8FB1FD"/>
<path d="M803.537 381.582H798.549V395.766H803.537V381.582Z" fill="#8FB1FD"/>
<path d="M794.848 381.582H789.859V395.766H794.848V381.582Z" fill="#8FB1FD"/>
<path d="M782.619 387.754C784.396 387.754 785.837 386.784 785.837 385.588C785.837 384.392 784.396 383.423 782.619 383.423C780.841 383.423 779.4 384.392 779.4 385.588C779.4 386.784 780.841 387.754 782.619 387.754Z" fill="#79A2FD"/>
<path d="M782.619 394.034C784.396 394.034 785.837 393.064 785.837 391.868C785.837 390.672 784.396 389.703 782.619 389.703C780.841 389.703 779.4 390.672 779.4 391.868C779.4 393.064 780.841 394.034 782.619 394.034Z" fill="#8FB1FD"/>
<path d="M909.906 402.262H771.998V419.478H909.906V402.262Z" fill="#5CDBF5"/>
<path d="M907.008 403.778H902.02V417.962H907.008V403.778Z" fill="#8FB1FD"/>
<path d="M898.319 403.778H893.33V417.962H898.319V403.778Z" fill="#8FB1FD"/>
<path d="M889.789 403.778H884.801V417.962H889.789V403.778Z" fill="#8FB1FD"/>
<path d="M881.102 403.778H876.113V417.962H881.102V403.778Z" fill="#8FB1FD"/>
<path d="M872.572 403.778H867.584V417.962H872.572V403.778Z" fill="#8FB1FD"/>
<path d="M863.883 403.778H858.895V417.962H863.883V403.778Z" fill="#8FB1FD"/>
<path d="M855.194 403.778H850.205V417.962H855.194V403.778Z" fill="#8FB1FD"/>
<path d="M846.664 403.778H841.676V417.962H846.664V403.778Z" fill="#8FB1FD"/>
<path d="M837.975 403.778H832.986V417.962H837.975V403.778Z" fill="#8FB1FD"/>
<path d="M829.446 403.778H824.457V417.962H829.446V403.778Z" fill="#8FB1FD"/>
<path d="M820.756 403.778H815.768V417.962H820.756V403.778Z" fill="#8FB1FD"/>
<path d="M812.229 403.778H807.24V417.962H812.229V403.778Z" fill="#8FB1FD"/>
<path d="M803.537 403.778H798.549V417.962H803.537V403.778Z" fill="#8FB1FD"/>
<path d="M794.848 403.778H789.859V417.962H794.848V403.778Z" fill="#8FB1FD"/>
<path d="M779.4 407.676C779.4 408.867 780.849 409.841 782.619 409.841C784.389 409.841 785.837 408.867 785.837 407.676C785.837 406.485 784.389 405.511 782.619 405.511C780.849 405.511 779.4 406.485 779.4 407.676Z" fill="#79A2FD"/>
<path d="M782.619 416.121C784.396 416.121 785.837 415.152 785.837 413.956C785.837 412.76 784.396 411.79 782.619 411.79C780.841 411.79 779.4 412.76 779.4 413.956C779.4 415.152 780.841 416.121 782.619 416.121Z" fill="#8FB1FD"/>
<path d="M909.906 424.35H771.998V441.565H909.906V424.35Z" fill="#5CDBF5"/>
<path d="M907.008 425.866H902.02V440.049H907.008V425.866Z" fill="#8FB1FD"/>
<path d="M898.319 425.866H893.33V440.049H898.319V425.866Z" fill="#8FB1FD"/>
<path d="M889.789 425.866H884.801V440.049H889.789V425.866Z" fill="#8FB1FD"/>
<path d="M881.102 425.866H876.113V440.049H881.102V425.866Z" fill="#8FB1FD"/>
<path d="M872.572 425.866H867.584V440.049H872.572V425.866Z" fill="#8FB1FD"/>
<path d="M863.883 425.866H858.895V440.049H863.883V425.866Z" fill="#8FB1FD"/>
<path d="M855.194 425.866H850.205V440.049H855.194V425.866Z" fill="#8FB1FD"/>
<path d="M846.664 425.866H841.676V440.049H846.664V425.866Z" fill="#8FB1FD"/>
<path d="M837.975 425.866H832.986V440.049H837.975V425.866Z" fill="#8FB1FD"/>
<path d="M829.446 425.866H824.457V440.049H829.446V425.866Z" fill="#8FB1FD"/>
<path d="M820.756 425.866H815.768V440.049H820.756V425.866Z" fill="#8FB1FD"/>
<path d="M812.229 425.866H807.24V440.049H812.229V425.866Z" fill="#8FB1FD"/>
<path d="M803.537 425.866H798.549V440.049H803.537V425.866Z" fill="#8FB1FD"/>
<path d="M794.848 425.866H789.859V440.049H794.848V425.866Z" fill="#8FB1FD"/>
<path d="M782.619 431.929C784.396 431.929 785.837 430.959 785.837 429.763C785.837 428.568 784.396 427.598 782.619 427.598C780.841 427.598 779.4 428.568 779.4 429.763C779.4 430.959 780.841 431.929 782.619 431.929Z" fill="#79A2FD"/>
<path d="M782.619 438.317C784.396 438.317 785.837 437.347 785.837 436.152C785.837 434.956 784.396 433.986 782.619 433.986C780.841 433.986 779.4 434.956 779.4 436.152C779.4 437.347 780.841 438.317 782.619 438.317Z" fill="#8FB1FD"/>
<path d="M909.906 446.546H771.998V463.761H909.906V446.546Z" fill="#5CDBF5"/>
<path d="M907.008 447.953H902.02V462.137H907.008V447.953Z" fill="#8FB1FD"/>
<path d="M898.319 447.953H893.33V462.137H898.319V447.953Z" fill="#8FB1FD"/>
<path d="M889.789 447.953H884.801V462.137H889.789V447.953Z" fill="#8FB1FD"/>
<path d="M881.102 447.953H876.113V462.137H881.102V447.953Z" fill="#8FB1FD"/>
<path d="M872.572 447.953H867.584V462.137H872.572V447.953Z" fill="#8FB1FD"/>
<path d="M863.883 447.953H858.895V462.137H863.883V447.953Z" fill="#8FB1FD"/>
<path d="M855.194 447.953H850.205V462.137H855.194V447.953Z" fill="#8FB1FD"/>
<path d="M846.664 447.953H841.676V462.137H846.664V447.953Z" fill="#8FB1FD"/>
<path d="M837.975 447.953H832.986V462.137H837.975V447.953Z" fill="#8FB1FD"/>
<path d="M829.446 447.953H824.457V462.137H829.446V447.953Z" fill="#8FB1FD"/>
<path d="M820.756 447.953H815.768V462.137H820.756V447.953Z" fill="#8FB1FD"/>
<path d="M812.229 447.953H807.24V462.137H812.229V447.953Z" fill="#8FB1FD"/>
<path d="M803.537 447.953H798.549V462.137H803.537V447.953Z" fill="#8FB1FD"/>
<path d="M794.848 447.953H789.859V462.137H794.848V447.953Z" fill="#8FB1FD"/>
<path d="M782.619 454.125C784.396 454.125 785.837 453.155 785.837 451.959C785.837 450.763 784.396 449.794 782.619 449.794C780.841 449.794 779.4 450.763 779.4 451.959C779.4 453.155 780.841 454.125 782.619 454.125Z" fill="#79A2FD"/>
<path d="M782.619 460.404C784.396 460.404 785.837 459.435 785.837 458.239C785.837 457.043 784.396 456.073 782.619 456.073C780.841 456.073 779.4 457.043 779.4 458.239C779.4 459.435 780.841 460.404 782.619 460.404Z" fill="#8FB1FD"/>
<path d="M1112.34 163.891H938.869V537.435H1112.34V163.891Z" fill="#5CDBF5"/>
<path d="M1103.06 472.175V171.22L948.415 171.22L948.415 472.175H1103.06Z" fill="#5CDBF5"/>
<path d="M1094.64 178.608H956.732V198.439H1094.64V178.608Z" fill="#79A2FD"/>
<path d="M1091.58 180.355H1086.6V196.693H1091.58V180.355Z" fill="#5CDBF5"/>
<path d="M1083.05 180.355H1078.06V196.693H1083.05V180.355Z" fill="#5CDBF5"/>
<path d="M1074.36 180.355H1069.38V196.693H1074.36V180.355Z" fill="#5CDBF5"/>
<path d="M1065.68 180.355H1060.69V196.693H1065.68V180.355Z" fill="#5CDBF5"/>
<path d="M1057.14 180.355H1052.16V196.693H1057.14V180.355Z" fill="#5CDBF5"/>
<path d="M1048.46 180.355H1043.47V196.693H1048.46V180.355Z" fill="#5CDBF5"/>
<path d="M1039.93 180.355H1034.94V196.693H1039.93V180.355Z" fill="#5CDBF5"/>
<path d="M1031.24 180.355H1026.25V196.693H1031.24V180.355Z" fill="#5CDBF5"/>
<path d="M1022.71 180.355H1017.72V196.693H1022.71V180.355Z" fill="#5CDBF5"/>
<path d="M1014.02 180.355H1009.03V196.693H1014.02V180.355Z" fill="#5CDBF5"/>
<path d="M1005.33 180.355H1000.34V196.693H1005.33V180.355Z" fill="#5CDBF5"/>
<path d="M996.801 180.355H991.812V196.693H996.801V180.355Z" fill="#5CDBF5"/>
<path d="M988.112 180.355H983.123V196.693H988.112V180.355Z" fill="#5CDBF5"/>
<path d="M979.584 180.355H974.596V196.693H979.584V180.355Z" fill="#5CDBF5"/>
<path d="M967.193 187.339C968.97 187.339 970.411 186.222 970.411 184.845C970.411 183.467 968.97 182.35 967.193 182.35C965.416 182.35 963.975 183.467 963.975 184.845C963.975 186.222 965.416 187.339 967.193 187.339Z" fill="#5CDBF5"/>
<path d="M967.193 194.698C968.97 194.698 970.411 193.581 970.411 192.203C970.411 190.826 968.97 189.709 967.193 189.709C965.416 189.709 963.975 190.826 963.975 192.203C963.975 193.581 965.416 194.698 967.193 194.698Z" fill="#5CDBF5"/>
<path d="M1094.64 204.177H956.732V224.008H1094.64V204.177Z" fill="#79A2FD"/>
<path d="M1091.58 205.798H1086.6V222.137H1091.58V205.798Z" fill="#5CDBF5"/>
<path d="M1074.36 205.798H1069.38V222.137H1074.36V205.798Z" fill="#5CDBF5"/>
<path d="M1065.68 205.798H1060.69V222.137H1065.68V205.798Z" fill="#5CDBF5"/>
<path d="M1057.14 205.798H1052.16V222.137H1057.14V205.798Z" fill="#5CDBF5"/>
<path d="M1048.46 205.798H1043.47V222.137H1048.46V205.798Z" fill="#5CDBF5"/>
<path d="M1039.93 205.798H1034.94V222.137H1039.93V205.798Z" fill="#5CDBF5"/>
<path d="M1031.24 205.798H1026.25V222.137H1031.24V205.798Z" fill="#5CDBF5"/>
<path d="M1014.02 205.798H1009.03V222.137H1014.02V205.798Z" fill="#5CDBF5"/>
<path d="M1005.33 205.798H1000.34V222.137H1005.33V205.798Z" fill="#5CDBF5"/>
<path d="M996.801 205.798H991.812V222.137H996.801V205.798Z" fill="#5CDBF5"/>
<path d="M988.112 205.798H983.123V222.137H988.112V205.798Z" fill="#5CDBF5"/>
<path d="M979.584 205.798H974.596V222.137H979.584V205.798Z" fill="#5CDBF5"/>
<path d="M967.193 212.907C968.97 212.907 970.411 211.79 970.411 210.413C970.411 209.035 968.97 207.918 967.193 207.918C965.416 207.918 963.975 209.035 963.975 210.413C963.975 211.79 965.416 212.907 967.193 212.907Z" fill="#5CDBF5"/>
<path d="M963.975 217.647C963.975 219.018 965.423 220.141 967.193 220.141C968.963 220.141 970.411 219.018 970.411 217.647C970.411 216.275 968.963 215.152 967.193 215.152C965.423 215.152 963.975 216.275 963.975 217.647Z" fill="#5CDBF5"/>
<path d="M1094.64 229.62H956.732V249.451H1094.64V229.62Z" fill="#79A2FD"/>
<path d="M1091.58 231.241H1086.6V247.58H1091.58V231.241Z" fill="#5CDBF5"/>
<path d="M1083.05 231.241H1078.06V247.58H1083.05V231.241Z" fill="#5CDBF5"/>
<path d="M1074.36 231.241H1069.38V247.58H1074.36V231.241Z" fill="#5CDBF5"/>
<path d="M1065.68 231.241H1060.69V247.58H1065.68V231.241Z" fill="#5CDBF5"/>
<path d="M1057.14 231.241H1052.16V247.58H1057.14V231.241Z" fill="#5CDBF5"/>
<path d="M1048.46 231.241H1043.47V247.58H1048.46V231.241Z" fill="#5CDBF5"/>
<path d="M1039.93 231.241H1034.94V247.58H1039.93V231.241Z" fill="#5CDBF5"/>
<path d="M1031.24 231.241H1026.25V247.58H1031.24V231.241Z" fill="#5CDBF5"/>
<path d="M1022.71 231.241H1017.72V247.58H1022.71V231.241Z" fill="#5CDBF5"/>
<path d="M1014.02 231.241H1009.03V247.58H1014.02V231.241Z" fill="#5CDBF5"/>
<path d="M1005.33 231.241H1000.34V247.58H1005.33V231.241Z" fill="#5CDBF5"/>
<path d="M996.801 231.241H991.812V247.58H996.801V231.241Z" fill="#5CDBF5"/>
<path d="M988.112 231.241H983.123V247.58H988.112V231.241Z" fill="#5CDBF5"/>
<path d="M979.584 231.241H974.596V247.58H979.584V231.241Z" fill="#5CDBF5"/>
<path d="M967.193 238.35C968.97 238.35 970.411 237.234 970.411 235.856C970.411 234.478 968.97 233.362 967.193 233.362C965.416 233.362 963.975 234.478 963.975 235.856C963.975 237.234 965.416 238.35 967.193 238.35Z" fill="#5CDBF5"/>
<path d="M967.193 245.584C968.97 245.584 970.411 244.468 970.411 243.09C970.411 241.712 968.97 240.596 967.193 240.596C965.416 240.596 963.975 241.712 963.975 243.09C963.975 244.468 965.416 245.584 967.193 245.584Z" fill="#5CDBF5"/>
<path d="M1094.64 255.063H956.732V274.894H1094.64V255.063Z" fill="#79A2FD"/>
<path d="M1091.58 256.809H1086.6V273.148H1091.58V256.809Z" fill="#5CDBF5"/>
<path d="M1083.05 256.809H1078.06V273.148H1083.05V256.809Z" fill="#5CDBF5"/>
<path d="M1074.36 256.809H1069.38V273.148H1074.36V256.809Z" fill="#5CDBF5"/>
<path d="M1065.68 256.809H1060.69V273.148H1065.68V256.809Z" fill="#5CDBF5"/>
<path d="M1057.14 256.809H1052.16V273.148H1057.14V256.809Z" fill="#5CDBF5"/>
<path d="M1048.46 256.809H1043.47V273.148H1048.46V256.809Z" fill="#5CDBF5"/>
<path d="M1039.93 256.809H1034.94V273.148H1039.93V256.809Z" fill="#5CDBF5"/>
<path d="M1031.24 256.809H1026.25V273.148H1031.24V256.809Z" fill="#5CDBF5"/>
<path d="M1022.71 256.809H1017.72V273.148H1022.71V256.809Z" fill="#5CDBF5"/>
<path d="M1005.33 256.809H1000.34V273.148H1005.33V256.809Z" fill="#5CDBF5"/>
<path d="M996.801 256.809H991.812V273.148H996.801V256.809Z" fill="#5CDBF5"/>
<path d="M988.112 256.809H983.123V273.148H988.112V256.809Z" fill="#5CDBF5"/>
<path d="M979.584 256.809H974.596V273.148H979.584V256.809Z" fill="#5CDBF5"/>
<path d="M963.975 261.3C963.975 262.671 965.423 263.794 967.193 263.794C968.963 263.794 970.411 262.671 970.411 261.3C970.411 259.928 968.963 258.805 967.193 258.805C965.423 258.805 963.975 259.928 963.975 261.3Z" fill="#5CDBF5"/>
<path d="M967.193 271.153C968.97 271.153 970.411 270.036 970.411 268.658C970.411 267.28 968.97 266.164 967.193 266.164C965.416 266.164 963.975 267.28 963.975 268.658C963.975 270.036 965.416 271.153 967.193 271.153Z" fill="#5CDBF5"/>
<path d="M1094.64 280.631H956.732V300.462H1094.64V280.631Z" fill="#79A2FD"/>
<path d="M1091.58 282.253H1086.6V298.592H1091.58V282.253Z" fill="#5CDBF5"/>
<path d="M1083.05 282.253H1078.06V298.592H1083.05V282.253Z" fill="#5CDBF5"/>
<path d="M1074.36 282.253H1069.38V298.592H1074.36V282.253Z" fill="#5CDBF5"/>
<path d="M1065.68 282.253H1060.69V298.592H1065.68V282.253Z" fill="#5CDBF5"/>
<path d="M1057.14 282.253H1052.16V298.592H1057.14V282.253Z" fill="#5CDBF5"/>
<path d="M1048.46 282.253H1043.47V298.592H1048.46V282.253Z" fill="#5CDBF5"/>
<path d="M1039.93 282.253H1034.94V298.592H1039.93V282.253Z" fill="#5CDBF5"/>
<path d="M1031.24 282.253H1026.25V298.592H1031.24V282.253Z" fill="#5CDBF5"/>
<path d="M1022.71 282.253H1017.72V298.592H1022.71V282.253Z" fill="#5CDBF5"/>
<path d="M1014.02 282.253H1009.03V298.592H1014.02V282.253Z" fill="#5CDBF5"/>
<path d="M1005.33 282.253H1000.34V298.592H1005.33V282.253Z" fill="#5CDBF5"/>
<path d="M996.801 282.253H991.812V298.592H996.801V282.253Z" fill="#5CDBF5"/>
<path d="M988.112 282.253H983.123V298.592H988.112V282.253Z" fill="#5CDBF5"/>
<path d="M979.584 282.253H974.596V298.592H979.584V282.253Z" fill="#5CDBF5"/>
<path d="M967.193 289.362C968.97 289.362 970.411 288.245 970.411 286.868C970.411 285.49 968.97 284.373 967.193 284.373C965.416 284.373 963.975 285.49 963.975 286.868C963.975 288.245 965.416 289.362 967.193 289.362Z" fill="#5CDBF5"/>
<path d="M967.193 296.596C968.97 296.596 970.411 295.479 970.411 294.101C970.411 292.724 968.97 291.607 967.193 291.607C965.416 291.607 963.975 292.724 963.975 294.101C963.975 295.479 965.416 296.596 967.193 296.596Z" fill="#5CDBF5"/>
<path d="M1094.64 306.075H956.732V325.906H1094.64V306.075Z" fill="#79A2FD"/>
<path d="M1091.58 307.821H1086.6V324.16H1091.58V307.821Z" fill="#5CDBF5"/>
<path d="M1083.05 307.821H1078.06V324.16H1083.05V307.821Z" fill="#5CDBF5"/>
<path d="M1074.36 307.821H1069.38V324.16H1074.36V307.821Z" fill="#5CDBF5"/>
<path d="M1065.68 307.821H1060.69V324.16H1065.68V307.821Z" fill="#5CDBF5"/>
<path d="M1057.14 307.821H1052.16V324.16H1057.14V307.821Z" fill="#5CDBF5"/>
<path d="M1048.46 307.821H1043.47V324.16H1048.46V307.821Z" fill="#5CDBF5"/>
<path d="M1031.24 307.821H1026.25V324.16H1031.24V307.821Z" fill="#5CDBF5"/>
<path d="M1022.71 307.821H1017.72V324.16H1022.71V307.821Z" fill="#5CDBF5"/>
<path d="M1014.02 307.821H1009.03V324.16H1014.02V307.821Z" fill="#5CDBF5"/>
<path d="M1005.33 307.821H1000.34V324.16H1005.33V307.821Z" fill="#5CDBF5"/>
<path d="M996.801 307.821H991.812V324.16H996.801V307.821Z" fill="#5CDBF5"/>
<path d="M988.112 307.821H983.123V324.16H988.112V307.821Z" fill="#5CDBF5"/>
<path d="M979.584 307.821H974.596V324.16H979.584V307.821Z" fill="#5CDBF5"/>
<path d="M967.193 314.805C968.97 314.805 970.411 313.689 970.411 312.311C970.411 310.933 968.97 309.816 967.193 309.816C965.416 309.816 963.975 310.933 963.975 312.311C963.975 313.689 965.416 314.805 967.193 314.805Z" fill="#5CDBF5"/>
<path d="M967.193 322.039C968.97 322.039 970.411 320.922 970.411 319.545C970.411 318.167 968.97 317.05 967.193 317.05C965.416 317.05 963.975 318.167 963.975 319.545C963.975 320.922 965.416 322.039 967.193 322.039Z" fill="#5CDBF5"/>
<path d="M1094.64 331.518H956.732V351.349H1094.64V331.518Z" fill="#79A2FD"/>
<path d="M1091.58 333.264H1086.6V349.603H1091.58V333.264Z" fill="#5CDBF5"/>
<path d="M1083.05 333.264H1078.06V349.603H1083.05V333.264Z" fill="#5CDBF5"/>
<path d="M1074.36 333.264H1069.38V349.603H1074.36V333.264Z" fill="#5CDBF5"/>
<path d="M1065.68 333.264H1060.69V349.603H1065.68V333.264Z" fill="#5CDBF5"/>
<path d="M1057.14 333.264H1052.16V349.603H1057.14V333.264Z" fill="#5CDBF5"/>
<path d="M1048.46 333.264H1043.47V349.603H1048.46V333.264Z" fill="#5CDBF5"/>
<path d="M1039.93 333.264H1034.94V349.603H1039.93V333.264Z" fill="#5CDBF5"/>
<path d="M1031.24 333.264H1026.25V349.603H1031.24V333.264Z" fill="#5CDBF5"/>
<path d="M1022.71 333.264H1017.72V349.603H1022.71V333.264Z" fill="#5CDBF5"/>
<path d="M1014.02 333.264H1009.03V349.603H1014.02V333.264Z" fill="#5CDBF5"/>
<path d="M1005.33 333.264H1000.34V349.603H1005.33V333.264Z" fill="#5CDBF5"/>
<path d="M996.801 333.264H991.812V349.603H996.801V333.264Z" fill="#5CDBF5"/>
<path d="M988.112 333.264H983.123V349.603H988.112V333.264Z" fill="#5CDBF5"/>
<path d="M979.584 333.264H974.596V349.603H979.584V333.264Z" fill="#5CDBF5"/>
<path d="M967.193 340.249C968.97 340.249 970.411 339.132 970.411 337.754C970.411 336.377 968.97 335.26 967.193 335.26C965.416 335.26 963.975 336.377 963.975 337.754C963.975 339.132 965.416 340.249 967.193 340.249Z" fill="#5CDBF5"/>
<path d="M963.975 345.113C963.975 346.485 965.423 347.607 967.193 347.607C968.963 347.607 970.411 346.485 970.411 345.113C970.411 343.741 968.963 342.619 967.193 342.619C965.423 342.619 963.975 343.741 963.975 345.113Z" fill="#5CDBF5"/>
<path d="M1094.64 357.086H956.732V376.917H1094.64V357.086Z" fill="#79A2FD"/>
<path d="M1091.58 358.708H1086.6V375.046H1091.58V358.708Z" fill="#5CDBF5"/>
<path d="M1083.05 358.708H1078.06V375.046H1083.05V358.708Z" fill="#5CDBF5"/>
<path d="M1074.36 358.708H1069.38V375.046H1074.36V358.708Z" fill="#5CDBF5"/>
<path d="M1065.68 358.708H1060.69V375.046H1065.68V358.708Z" fill="#5CDBF5"/>
<path d="M1057.14 358.708H1052.16V375.046H1057.14V358.708Z" fill="#5CDBF5"/>
<path d="M1048.46 358.708H1043.47V375.046H1048.46V358.708Z" fill="#5CDBF5"/>
<path d="M1039.93 358.708H1034.94V375.046H1039.93V358.708Z" fill="#5CDBF5"/>
<path d="M1031.24 358.708H1026.25V375.046H1031.24V358.708Z" fill="#5CDBF5"/>
<path d="M1022.71 358.708H1017.72V375.046H1022.71V358.708Z" fill="#5CDBF5"/>
<path d="M1014.02 358.708H1009.03V375.046H1014.02V358.708Z" fill="#5CDBF5"/>
<path d="M1005.33 358.708H1000.34V375.046H1005.33V358.708Z" fill="#5CDBF5"/>
<path d="M996.801 358.708H991.812V375.046H996.801V358.708Z" fill="#5CDBF5"/>
<path d="M988.112 358.708H983.123V375.046H988.112V358.708Z" fill="#5CDBF5"/>
<path d="M979.584 358.708H974.596V375.046H979.584V358.708Z" fill="#5CDBF5"/>
<path d="M967.193 365.817C968.97 365.817 970.411 364.7 970.411 363.322C970.411 361.945 968.97 360.828 967.193 360.828C965.416 360.828 963.975 361.945 963.975 363.322C963.975 364.7 965.416 365.817 967.193 365.817Z" fill="#5CDBF5"/>
<path d="M967.193 373.051C968.97 373.051 970.411 371.934 970.411 370.556C970.411 369.179 968.97 368.062 967.193 368.062C965.416 368.062 963.975 369.179 963.975 370.556C963.975 371.934 965.416 373.051 967.193 373.051Z" fill="#5CDBF5"/>
<path d="M1094.64 382.53H956.732V402.361H1094.64V382.53Z" fill="#79A2FD"/>
<path d="M1091.58 384.276H1086.6V400.615H1091.58V384.276Z" fill="#5CDBF5"/>
<path d="M1083.05 384.276H1078.06V400.615H1083.05V384.276Z" fill="#5CDBF5"/>
<path d="M1074.36 384.276H1069.38V400.615H1074.36V384.276Z" fill="#5CDBF5"/>
<path d="M1065.68 384.276H1060.69V400.615H1065.68V384.276Z" fill="#5CDBF5"/>
<path d="M1057.14 384.276H1052.16V400.615H1057.14V384.276Z" fill="#5CDBF5"/>
<path d="M1048.46 384.276H1043.47V400.615H1048.46V384.276Z" fill="#5CDBF5"/>
<path d="M1039.93 384.276H1034.94V400.615H1039.93V384.276Z" fill="#5CDBF5"/>
<path d="M1031.24 384.276H1026.25V400.615H1031.24V384.276Z" fill="#5CDBF5"/>
<path d="M1022.71 384.276H1017.72V400.615H1022.71V384.276Z" fill="#5CDBF5"/>
<path d="M1014.02 384.276H1009.03V400.615H1014.02V384.276Z" fill="#5CDBF5"/>
<path d="M996.801 384.276H991.812V400.615H996.801V384.276Z" fill="#5CDBF5"/>
<path d="M988.112 384.276H983.123V400.615H988.112V384.276Z" fill="#5CDBF5"/>
<path d="M979.584 384.276H974.596V400.615H979.584V384.276Z" fill="#5CDBF5"/>
<path d="M963.975 388.766C963.975 390.138 965.423 391.26 967.193 391.26C968.963 391.26 970.411 390.138 970.411 388.766C970.411 387.394 968.963 386.272 967.193 386.272C965.423 386.272 963.975 387.394 963.975 388.766Z" fill="#5CDBF5"/>
<path d="M967.193 398.494C968.97 398.494 970.411 397.378 970.411 396C970.411 394.622 968.97 393.505 967.193 393.505C965.416 393.505 963.975 394.622 963.975 396C963.975 397.378 965.416 398.494 967.193 398.494Z" fill="#5CDBF5"/>
<path d="M1094.64 407.973H956.732V427.804H1094.64V407.973Z" fill="#79A2FD"/>
<path d="M1091.58 409.719H1086.6V426.058H1091.58V409.719Z" fill="#5CDBF5"/>
<path d="M1083.05 409.719H1078.06V426.058H1083.05V409.719Z" fill="#5CDBF5"/>
<path d="M1074.36 409.719H1069.38V426.058H1074.36V409.719Z" fill="#5CDBF5"/>
<path d="M1048.46 409.719H1043.47V426.058H1048.46V409.719Z" fill="#5CDBF5"/>
<path d="M1039.93 409.719H1034.94V426.058H1039.93V409.719Z" fill="#5CDBF5"/>
<path d="M1031.24 409.719H1026.25V426.058H1031.24V409.719Z" fill="#5CDBF5"/>
<path d="M1022.71 409.719H1017.72V426.058H1022.71V409.719Z" fill="#5CDBF5"/>
<path d="M1014.02 409.719H1009.03V426.058H1014.02V409.719Z" fill="#5CDBF5"/>
<path d="M1005.33 409.719H1000.34V426.058H1005.33V409.719Z" fill="#5CDBF5"/>
<path d="M996.801 409.719H991.812V426.058H996.801V409.719Z" fill="#5CDBF5"/>
<path d="M988.112 409.719H983.123V426.058H988.112V409.719Z" fill="#5CDBF5"/>
<path d="M979.584 409.719H974.596V426.058H979.584V409.719Z" fill="#5CDBF5"/>
<path d="M967.193 416.704C968.97 416.704 970.411 415.587 970.411 414.209C970.411 412.832 968.97 411.715 967.193 411.715C965.416 411.715 963.975 412.832 963.975 414.209C963.975 415.587 965.416 416.704 967.193 416.704Z" fill="#5CDBF5"/>
<path d="M967.193 424.062C968.97 424.062 970.411 422.946 970.411 421.568C970.411 420.19 968.97 419.074 967.193 419.074C965.416 419.074 963.975 420.19 963.975 421.568C963.975 422.946 965.416 424.062 967.193 424.062Z" fill="#5CDBF5"/>
<path d="M1094.64 433.541H956.732V453.372H1094.64V433.541Z" fill="#79A2FD"/>
<path d="M1091.58 435.163H1086.6V451.501H1091.58V435.163Z" fill="#5CDBF5"/>
<path d="M1083.05 435.163H1078.06V451.501H1083.05V435.163Z" fill="#5CDBF5"/>
<path d="M1074.36 435.163H1069.38V451.501H1074.36V435.163Z" fill="#5CDBF5"/>
<path d="M1065.68 435.163H1060.69V451.501H1065.68V435.163Z" fill="#5CDBF5"/>
<path d="M1057.14 435.163H1052.16V451.501H1057.14V435.163Z" fill="#5CDBF5"/>
<path d="M1048.46 435.163H1043.47V451.501H1048.46V435.163Z" fill="#5CDBF5"/>
<path d="M1039.93 435.163H1034.94V451.501H1039.93V435.163Z" fill="#5CDBF5"/>
<path d="M1031.24 435.163H1026.25V451.501H1031.24V435.163Z" fill="#5CDBF5"/>
<path d="M1022.71 435.163H1017.72V451.501H1022.71V435.163Z" fill="#5CDBF5"/>
<path d="M1014.02 435.163H1009.03V451.501H1014.02V435.163Z" fill="#5CDBF5"/>
<path d="M1005.33 435.163H1000.34V451.501H1005.33V435.163Z" fill="#5CDBF5"/>
<path d="M996.801 435.163H991.812V451.501H996.801V435.163Z" fill="#5CDBF5"/>
<path d="M988.112 435.163H983.123V451.501H988.112V435.163Z" fill="#5CDBF5"/>
<path d="M979.584 435.163H974.596V451.501H979.584V435.163Z" fill="#5CDBF5"/>
<path d="M967.193 442.272C968.97 442.272 970.411 441.155 970.411 439.777C970.411 438.4 968.97 437.283 967.193 437.283C965.416 437.283 963.975 438.4 963.975 439.777C963.975 441.155 965.416 442.272 967.193 442.272Z" fill="#5CDBF5"/>
<path d="M967.193 449.506C968.97 449.506 970.411 448.389 970.411 447.011C970.411 445.634 968.97 444.517 967.193 444.517C965.416 444.517 963.975 445.634 963.975 447.011C963.975 448.389 965.416 449.506 967.193 449.506Z" fill="#5CDBF5"/>
<path d="M1296.59 163.891H1123.12V537.435H1296.59V163.891Z" fill="#5CDBF5"/>
<path d="M1287.36 472.138V171.183L1132.72 171.183V472.138H1287.36Z" fill="#5CDBF5"/>
<path d="M1278.89 178.608H1140.98V198.439H1278.89V178.608Z" fill="#79A2FD"/>
<path d="M1275.84 180.355H1270.85V196.693H1275.84V180.355Z" fill="#5CDBF5"/>
<path d="M1267.31 180.355H1262.32V196.693H1267.31V180.355Z" fill="#5CDBF5"/>
<path d="M1258.62 180.355H1253.63V196.693H1258.62V180.355Z" fill="#5CDBF5"/>
<path d="M1250.09 180.355H1245.1V196.693H1250.09V180.355Z" fill="#5CDBF5"/>
<path d="M1241.4 180.355H1236.41V196.693H1241.4V180.355Z" fill="#5CDBF5"/>
<path d="M1232.87 180.355H1227.88V196.693H1232.87V180.355Z" fill="#5CDBF5"/>
<path d="M1224.18 180.355H1219.19V196.693H1224.18V180.355Z" fill="#5CDBF5"/>
<path d="M1215.49 180.355H1210.5V196.693H1215.49V180.355Z" fill="#5CDBF5"/>
<path d="M1206.96 180.355H1201.97V196.693H1206.96V180.355Z" fill="#5CDBF5"/>
<path d="M1189.74 180.355H1184.75V196.693H1189.74V180.355Z" fill="#5CDBF5"/>
<path d="M1181.05 180.355H1176.06V196.693H1181.05V180.355Z" fill="#5CDBF5"/>
<path d="M1172.53 180.355H1167.54V196.693H1172.53V180.355Z" fill="#5CDBF5"/>
<path d="M1163.84 180.355H1158.85V196.693H1163.84V180.355Z" fill="#5CDBF5"/>
<path d="M1151.61 187.339C1153.38 187.339 1154.82 186.222 1154.82 184.845C1154.82 183.467 1153.38 182.35 1151.61 182.35C1149.83 182.35 1148.39 183.467 1148.39 184.845C1148.39 186.222 1149.83 187.339 1151.61 187.339Z" fill="#79A2FD"/>
<path d="M1151.61 194.698C1153.38 194.698 1154.82 193.581 1154.82 192.203C1154.82 190.826 1153.38 189.709 1151.61 189.709C1149.83 189.709 1148.39 190.826 1148.39 192.203C1148.39 193.581 1149.83 194.698 1151.61 194.698Z" fill="#5CDBF5"/>
<path d="M1278.89 204.177H1140.98V224.008H1278.89V204.177Z" fill="#79A2FD"/>
<path d="M1275.84 205.798H1270.85V222.137H1275.84V205.798Z" fill="#5CDBF5"/>
<path d="M1267.31 205.798H1262.32V222.137H1267.31V205.798Z" fill="#5CDBF5"/>
<path d="M1250.09 205.798H1245.1V222.137H1250.09V205.798Z" fill="#5CDBF5"/>
<path d="M1241.4 205.798H1236.41V222.137H1241.4V205.798Z" fill="#5CDBF5"/>
<path d="M1232.87 205.798H1227.88V222.137H1232.87V205.798Z" fill="#5CDBF5"/>
<path d="M1224.18 205.798H1219.19V222.137H1224.18V205.798Z" fill="#5CDBF5"/>
<path d="M1215.49 205.798H1210.5V222.137H1215.49V205.798Z" fill="#5CDBF5"/>
<path d="M1206.96 205.798H1201.97V222.137H1206.96V205.798Z" fill="#5CDBF5"/>
<path d="M1198.27 205.798H1193.28V222.137H1198.27V205.798Z" fill="#5CDBF5"/>
<path d="M1189.74 205.798H1184.75V222.137H1189.74V205.798Z" fill="#5CDBF5"/>
<path d="M1181.05 205.798H1176.06V222.137H1181.05V205.798Z" fill="#5CDBF5"/>
<path d="M1172.53 205.798H1167.54V222.137H1172.53V205.798Z" fill="#5CDBF5"/>
<path d="M1163.84 205.798H1158.85V222.137H1163.84V205.798Z" fill="#5CDBF5"/>
<path d="M1151.61 212.907C1153.38 212.907 1154.82 211.79 1154.82 210.413C1154.82 209.035 1153.38 207.918 1151.61 207.918C1149.83 207.918 1148.39 209.035 1148.39 210.413C1148.39 211.79 1149.83 212.907 1151.61 212.907Z" fill="#79A2FD"/>
<path d="M1148.39 217.647C1148.39 219.018 1149.83 220.141 1151.61 220.141C1153.38 220.141 1154.82 219.018 1154.82 217.647C1154.82 216.275 1153.38 215.152 1151.61 215.152C1149.83 215.152 1148.39 216.275 1148.39 217.647Z" fill="#5CDBF5"/>
<path d="M1278.89 229.62H1140.98V249.451H1278.89V229.62Z" fill="#79A2FD"/>
<path d="M1275.84 231.241H1270.85V247.58H1275.84V231.241Z" fill="#5CDBF5"/>
<path d="M1267.31 231.241H1262.32V247.58H1267.31V231.241Z" fill="#5CDBF5"/>
<path d="M1258.62 231.241H1253.63V247.58H1258.62V231.241Z" fill="#5CDBF5"/>
<path d="M1250.09 231.241H1245.1V247.58H1250.09V231.241Z" fill="#5CDBF5"/>
<path d="M1241.4 231.241H1236.41V247.58H1241.4V231.241Z" fill="#5CDBF5"/>
<path d="M1232.87 231.241H1227.88V247.58H1232.87V231.241Z" fill="#5CDBF5"/>
<path d="M1224.18 231.241H1219.19V247.58H1224.18V231.241Z" fill="#5CDBF5"/>
<path d="M1215.49 231.241H1210.5V247.58H1215.49V231.241Z" fill="#5CDBF5"/>
<path d="M1206.96 231.241H1201.97V247.58H1206.96V231.241Z" fill="#5CDBF5"/>
<path d="M1198.27 231.241H1193.28V247.58H1198.27V231.241Z" fill="#5CDBF5"/>
<path d="M1189.74 231.241H1184.75V247.58H1189.74V231.241Z" fill="#5CDBF5"/>
<path d="M1181.05 231.241H1176.06V247.58H1181.05V231.241Z" fill="#5CDBF5"/>
<path d="M1172.53 231.241H1167.54V247.58H1172.53V231.241Z" fill="#5CDBF5"/>
<path d="M1163.84 231.241H1158.85V247.58H1163.84V231.241Z" fill="#5CDBF5"/>
<path d="M1151.61 238.35C1153.38 238.35 1154.82 237.234 1154.82 235.856C1154.82 234.478 1153.38 233.362 1151.61 233.362C1149.83 233.362 1148.39 234.478 1148.39 235.856C1148.39 237.234 1149.83 238.35 1151.61 238.35Z" fill="#79A2FD"/>
<path d="M1151.61 245.584C1153.38 245.584 1154.82 244.468 1154.82 243.09C1154.82 241.712 1153.38 240.596 1151.61 240.596C1149.83 240.596 1148.39 241.712 1148.39 243.09C1148.39 244.468 1149.83 245.584 1151.61 245.584Z" fill="#5CDBF5"/>
<path d="M1278.89 255.063H1140.98V274.894H1278.89V255.063Z" fill="#79A2FD"/>
<path d="M1275.84 256.809H1270.85V273.148H1275.84V256.809Z" fill="#5CDBF5"/>
<path d="M1267.31 256.809H1262.32V273.148H1267.31V256.809Z" fill="#5CDBF5"/>
<path d="M1250.09 256.809H1245.1V273.148H1250.09V256.809Z" fill="#5CDBF5"/>
<path d="M1241.4 256.809H1236.41V273.148H1241.4V256.809Z" fill="#5CDBF5"/>
<path d="M1232.87 256.809H1227.88V273.148H1232.87V256.809Z" fill="#5CDBF5"/>
<path d="M1224.18 256.809H1219.19V273.148H1224.18V256.809Z" fill="#5CDBF5"/>
<path d="M1189.74 256.809H1184.75V273.148H1189.74V256.809Z" fill="#5CDBF5"/>
<path d="M1181.05 256.809H1176.06V273.148H1181.05V256.809Z" fill="#5CDBF5"/>
<path d="M1172.53 256.809H1167.54V273.148H1172.53V256.809Z" fill="#5CDBF5"/>
<path d="M1163.84 256.809H1158.85V273.148H1163.84V256.809Z" fill="#5CDBF5"/>
<path d="M1148.39 261.3C1148.39 262.671 1149.83 263.794 1151.61 263.794C1153.38 263.794 1154.82 262.671 1154.82 261.3C1154.82 259.928 1153.38 258.805 1151.61 258.805C1149.83 258.805 1148.39 259.928 1148.39 261.3Z" fill="#79A2FD"/>
<path d="M1151.61 271.153C1153.38 271.153 1154.82 270.036 1154.82 268.658C1154.82 267.28 1153.38 266.164 1151.61 266.164C1149.83 266.164 1148.39 267.28 1148.39 268.658C1148.39 270.036 1149.83 271.153 1151.61 271.153Z" fill="#5CDBF5"/>
<path d="M1278.89 280.631H1140.98V300.462H1278.89V280.631Z" fill="#79A2FD"/>
<path d="M1275.84 282.253H1270.85V298.592H1275.84V282.253Z" fill="#5CDBF5"/>
<path d="M1267.31 282.253H1262.32V298.592H1267.31V282.253Z" fill="#5CDBF5"/>
<path d="M1258.62 282.253H1253.63V298.592H1258.62V282.253Z" fill="#5CDBF5"/>
<path d="M1250.09 282.253H1245.1V298.592H1250.09V282.253Z" fill="#5CDBF5"/>
<path d="M1241.4 282.253H1236.41V298.592H1241.4V282.253Z" fill="#5CDBF5"/>
<path d="M1232.87 282.253H1227.88V298.592H1232.87V282.253Z" fill="#5CDBF5"/>
<path d="M1224.18 282.253H1219.19V298.592H1224.18V282.253Z" fill="#5CDBF5"/>
<path d="M1215.49 282.253H1210.5V298.592H1215.49V282.253Z" fill="#5CDBF5"/>
<path d="M1206.96 282.253H1201.97V298.592H1206.96V282.253Z" fill="#5CDBF5"/>
<path d="M1198.27 282.253H1193.28V298.592H1198.27V282.253Z" fill="#5CDBF5"/>
<path d="M1189.74 282.253H1184.75V298.592H1189.74V282.253Z" fill="#5CDBF5"/>
<path d="M1181.05 282.253H1176.06V298.592H1181.05V282.253Z" fill="#5CDBF5"/>
<path d="M1163.84 282.253H1158.85V298.592H1163.84V282.253Z" fill="#5CDBF5"/>
<path d="M1151.61 289.362C1153.38 289.362 1154.82 288.245 1154.82 286.868C1154.82 285.49 1153.38 284.373 1151.61 284.373C1149.83 284.373 1148.39 285.49 1148.39 286.868C1148.39 288.245 1149.83 289.362 1151.61 289.362Z" fill="#79A2FD"/>
<path d="M1151.61 296.596C1153.38 296.596 1154.82 295.479 1154.82 294.101C1154.82 292.724 1153.38 291.607 1151.61 291.607C1149.83 291.607 1148.39 292.724 1148.39 294.101C1148.39 295.479 1149.83 296.596 1151.61 296.596Z" fill="#5CDBF5"/>
<path d="M1278.89 306.075H1140.98V325.906H1278.89V306.075Z" fill="#79A2FD"/>
<path d="M1275.84 307.821H1270.85V324.16H1275.84V307.821Z" fill="#5CDBF5"/>
<path d="M1267.31 307.821H1262.32V324.16H1267.31V307.821Z" fill="#5CDBF5"/>
<path d="M1258.62 307.821H1253.63V324.16H1258.62V307.821Z" fill="#5CDBF5"/>
<path d="M1250.09 307.821H1245.1V324.16H1250.09V307.821Z" fill="#5CDBF5"/>
<path d="M1241.4 307.821H1236.41V324.16H1241.4V307.821Z" fill="#5CDBF5"/>
<path d="M1232.87 307.821H1227.88V324.16H1232.87V307.821Z" fill="#5CDBF5"/>
<path d="M1224.18 307.821H1219.19V324.16H1224.18V307.821Z" fill="#5CDBF5"/>
<path d="M1215.49 307.821H1210.5V324.16H1215.49V307.821Z" fill="#5CDBF5"/>
<path d="M1206.96 307.821H1201.97V324.16H1206.96V307.821Z" fill="#5CDBF5"/>
<path d="M1198.27 307.821H1193.28V324.16H1198.27V307.821Z" fill="#5CDBF5"/>
<path d="M1189.74 307.821H1184.75V324.16H1189.74V307.821Z" fill="#5CDBF5"/>
<path d="M1181.05 307.821H1176.06V324.16H1181.05V307.821Z" fill="#5CDBF5"/>
<path d="M1172.53 307.821H1167.54V324.16H1172.53V307.821Z" fill="#5CDBF5"/>
<path d="M1163.84 307.821H1158.85V324.16H1163.84V307.821Z" fill="#5CDBF5"/>
<path d="M1151.61 314.805C1153.38 314.805 1154.82 313.689 1154.82 312.311C1154.82 310.933 1153.38 309.816 1151.61 309.816C1149.83 309.816 1148.39 310.933 1148.39 312.311C1148.39 313.689 1149.83 314.805 1151.61 314.805Z" fill="#79A2FD"/>
<path d="M1151.61 322.039C1153.38 322.039 1154.82 320.922 1154.82 319.545C1154.82 318.167 1153.38 317.05 1151.61 317.05C1149.83 317.05 1148.39 318.167 1148.39 319.545C1148.39 320.922 1149.83 322.039 1151.61 322.039Z" fill="#5CDBF5"/>
<path d="M1278.89 331.518H1140.98V351.349H1278.89V331.518Z" fill="#79A2FD"/>
<path d="M1275.84 333.264H1270.85V349.603H1275.84V333.264Z" fill="#5CDBF5"/>
<path d="M1267.31 333.264H1262.32V349.603H1267.31V333.264Z" fill="#5CDBF5"/>
<path d="M1258.62 333.264H1253.63V349.603H1258.62V333.264Z" fill="#5CDBF5"/>
<path d="M1241.4 333.264H1236.41V349.603H1241.4V333.264Z" fill="#5CDBF5"/>
<path d="M1232.87 333.264H1227.88V349.603H1232.87V333.264Z" fill="#5CDBF5"/>
<path d="M1224.18 333.264H1219.19V349.603H1224.18V333.264Z" fill="#5CDBF5"/>
<path d="M1215.49 333.264H1210.5V349.603H1215.49V333.264Z" fill="#5CDBF5"/>
<path d="M1206.96 333.264H1201.97V349.603H1206.96V333.264Z" fill="#5CDBF5"/>
<path d="M1198.27 333.264H1193.28V349.603H1198.27V333.264Z" fill="#5CDBF5"/>
<path d="M1189.74 333.264H1184.75V349.603H1189.74V333.264Z" fill="#5CDBF5"/>
<path d="M1181.05 333.264H1176.06V349.603H1181.05V333.264Z" fill="#5CDBF5"/>
<path d="M1172.53 333.264H1167.54V349.603H1172.53V333.264Z" fill="#5CDBF5"/>
<path d="M1163.84 333.264H1158.85V349.603H1163.84V333.264Z" fill="#5CDBF5"/>
<path d="M1151.61 340.249C1153.38 340.249 1154.82 339.132 1154.82 337.754C1154.82 336.377 1153.38 335.26 1151.61 335.26C1149.83 335.26 1148.39 336.377 1148.39 337.754C1148.39 339.132 1149.83 340.249 1151.61 340.249Z" fill="#79A2FD"/>
<path d="M1148.39 345.113C1148.39 346.485 1149.83 347.607 1151.61 347.607C1153.38 347.607 1154.82 346.485 1154.82 345.113C1154.82 343.741 1153.38 342.619 1151.61 342.619C1149.83 342.619 1148.39 343.741 1148.39 345.113Z" fill="#5CDBF5"/>
<path d="M1278.89 357.086H1140.98V376.917H1278.89V357.086Z" fill="#79A2FD"/>
<path d="M1275.84 358.708H1270.85V375.046H1275.84V358.708Z" fill="#5CDBF5"/>
<path d="M1267.31 358.708H1262.32V375.046H1267.31V358.708Z" fill="#5CDBF5"/>
<path d="M1258.62 358.708H1253.63V375.046H1258.62V358.708Z" fill="#5CDBF5"/>
<path d="M1250.09 358.708H1245.1V375.046H1250.09V358.708Z" fill="#5CDBF5"/>
<path d="M1241.4 358.708H1236.41V375.046H1241.4V358.708Z" fill="#5CDBF5"/>
<path d="M1232.87 358.708H1227.88V375.046H1232.87V358.708Z" fill="#5CDBF5"/>
<path d="M1224.18 358.708H1219.19V375.046H1224.18V358.708Z" fill="#5CDBF5"/>
<path d="M1215.49 358.708H1210.5V375.046H1215.49V358.708Z" fill="#5CDBF5"/>
<path d="M1206.96 358.708H1201.97V375.046H1206.96V358.708Z" fill="#5CDBF5"/>
<path d="M1189.74 358.708H1184.75V375.046H1189.74V358.708Z" fill="#5CDBF5"/>
<path d="M1181.05 358.708H1176.06V375.046H1181.05V358.708Z" fill="#5CDBF5"/>
<path d="M1172.53 358.708H1167.54V375.046H1172.53V358.708Z" fill="#5CDBF5"/>
<path d="M1163.84 358.708H1158.85V375.046H1163.84V358.708Z" fill="#5CDBF5"/>
<path d="M1151.61 365.817C1153.38 365.817 1154.82 364.7 1154.82 363.322C1154.82 361.945 1153.38 360.828 1151.61 360.828C1149.83 360.828 1148.39 361.945 1148.39 363.322C1148.39 364.7 1149.83 365.817 1151.61 365.817Z" fill="#79A2FD"/>
<path d="M1151.61 373.051C1153.38 373.051 1154.82 371.934 1154.82 370.556C1154.82 369.179 1153.38 368.062 1151.61 368.062C1149.83 368.062 1148.39 369.179 1148.39 370.556C1148.39 371.934 1149.83 373.051 1151.61 373.051Z" fill="#5CDBF5"/>
<path d="M1278.89 382.53H1140.98V402.361H1278.89V382.53Z" fill="#79A2FD"/>
<path d="M1275.84 384.276H1270.85V400.615H1275.84V384.276Z" fill="#5CDBF5"/>
<path d="M1267.31 384.276H1262.32V400.615H1267.31V384.276Z" fill="#5CDBF5"/>
<path d="M1258.62 384.276H1253.63V400.615H1258.62V384.276Z" fill="#5CDBF5"/>
<path d="M1250.09 384.276H1245.1V400.615H1250.09V384.276Z" fill="#5CDBF5"/>
<path d="M1241.4 384.276H1236.41V400.615H1241.4V384.276Z" fill="#5CDBF5"/>
<path d="M1232.87 384.276H1227.88V400.615H1232.87V384.276Z" fill="#5CDBF5"/>
<path d="M1224.18 384.276H1219.19V400.615H1224.18V384.276Z" fill="#5CDBF5"/>
<path d="M1215.49 384.276H1210.5V400.615H1215.49V384.276Z" fill="#5CDBF5"/>
<path d="M1206.96 384.276H1201.97V400.615H1206.96V384.276Z" fill="#5CDBF5"/>
<path d="M1198.27 384.276H1193.28V400.615H1198.27V384.276Z" fill="#5CDBF5"/>
<path d="M1189.74 384.276H1184.75V400.615H1189.74V384.276Z" fill="#5CDBF5"/>
<path d="M1181.05 384.276H1176.06V400.615H1181.05V384.276Z" fill="#5CDBF5"/>
<path d="M1172.53 384.276H1167.54V400.615H1172.53V384.276Z" fill="#5CDBF5"/>
<path d="M1163.84 384.276H1158.85V400.615H1163.84V384.276Z" fill="#5CDBF5"/>
<path d="M1148.39 388.766C1148.39 390.138 1149.83 391.26 1151.61 391.26C1153.38 391.26 1154.82 390.138 1154.82 388.766C1154.82 387.394 1153.38 386.272 1151.61 386.272C1149.83 386.272 1148.39 387.394 1148.39 388.766Z" fill="#79A2FD"/>
<path d="M1151.61 398.494C1153.38 398.494 1154.82 397.378 1154.82 396C1154.82 394.622 1153.38 393.505 1151.61 393.505C1149.83 393.505 1148.39 394.622 1148.39 396C1148.39 397.378 1149.83 398.494 1151.61 398.494Z" fill="#5CDBF5"/>
<path d="M1278.89 407.973H1140.98V427.804H1278.89V407.973Z" fill="#79A2FD"/>
<path d="M1275.84 409.719H1270.85V426.058H1275.84V409.719Z" fill="#5CDBF5"/>
<path d="M1267.31 409.719H1262.32V426.058H1267.31V409.719Z" fill="#5CDBF5"/>
<path d="M1250.09 409.719H1245.1V426.058H1250.09V409.719Z" fill="#5CDBF5"/>
<path d="M1241.4 409.719H1236.41V426.058H1241.4V409.719Z" fill="#5CDBF5"/>
<path d="M1232.87 409.719H1227.88V426.058H1232.87V409.719Z" fill="#5CDBF5"/>
<path d="M1224.18 409.719H1219.19V426.058H1224.18V409.719Z" fill="#5CDBF5"/>
<path d="M1215.49 409.719H1210.5V426.058H1215.49V409.719Z" fill="#5CDBF5"/>
<path d="M1198.27 409.719H1193.28V426.058H1198.27V409.719Z" fill="#5CDBF5"/>
<path d="M1189.74 409.719H1184.75V426.058H1189.74V409.719Z" fill="#5CDBF5"/>
<path d="M1181.05 409.719H1176.06V426.058H1181.05V409.719Z" fill="#5CDBF5"/>
<path d="M1172.53 409.719H1167.54V426.058H1172.53V409.719Z" fill="#5CDBF5"/>
<path d="M1163.84 409.719H1158.85V426.058H1163.84V409.719Z" fill="#5CDBF5"/>
<path d="M1151.61 416.704C1153.38 416.704 1154.82 415.587 1154.82 414.209C1154.82 412.832 1153.38 411.715 1151.61 411.715C1149.83 411.715 1148.39 412.832 1148.39 414.209C1148.39 415.587 1149.83 416.704 1151.61 416.704Z" fill="#79A2FD"/>
<path d="M1151.61 424.062C1153.38 424.062 1154.82 422.946 1154.82 421.568C1154.82 420.19 1153.38 419.074 1151.61 419.074C1149.83 419.074 1148.39 420.19 1148.39 421.568C1148.39 422.946 1149.83 424.062 1151.61 424.062Z" fill="#5CDBF5"/>
<path d="M1278.89 433.541H1140.98V453.372H1278.89V433.541Z" fill="#79A2FD"/>
<path d="M1275.84 435.163H1270.85V451.501H1275.84V435.163Z" fill="#5CDBF5"/>
<path d="M1267.31 435.163H1262.32V451.501H1267.31V435.163Z" fill="#5CDBF5"/>
<path d="M1258.62 435.163H1253.63V451.501H1258.62V435.163Z" fill="#5CDBF5"/>
<path d="M1250.09 435.163H1245.1V451.501H1250.09V435.163Z" fill="#5CDBF5"/>
<path d="M1241.4 435.163H1236.41V451.501H1241.4V435.163Z" fill="#5CDBF5"/>
<path d="M1232.87 435.163H1227.88V451.501H1232.87V435.163Z" fill="#5CDBF5"/>
<path d="M1224.18 435.163H1219.19V451.501H1224.18V435.163Z" fill="#5CDBF5"/>
<path d="M1215.49 435.163H1210.5V451.501H1215.49V435.163Z" fill="#5CDBF5"/>
<path d="M1206.96 435.163H1201.97V451.501H1206.96V435.163Z" fill="#5CDBF5"/>
<path d="M1198.27 435.163H1193.28V451.501H1198.27V435.163Z" fill="#5CDBF5"/>
<path d="M1189.74 435.163H1184.75V451.501H1189.74V435.163Z" fill="#5CDBF5"/>
<path d="M1181.05 435.163H1176.06V451.501H1181.05V435.163Z" fill="#5CDBF5"/>
<path d="M1172.53 435.163H1167.54V451.501H1172.53V435.163Z" fill="#5CDBF5"/>
<path d="M1163.84 435.163H1158.85V451.501H1163.84V435.163Z" fill="#5CDBF5"/>
<path d="M1151.61 442.272C1153.38 442.272 1154.82 441.155 1154.82 439.777C1154.82 438.4 1153.38 437.283 1151.61 437.283C1149.83 437.283 1148.39 438.4 1148.39 439.777C1148.39 441.155 1149.83 442.272 1151.61 442.272Z" fill="#79A2FD"/>
<path d="M1151.61 449.506C1153.38 449.506 1154.82 448.389 1154.82 447.011C1154.82 445.634 1153.38 444.517 1151.61 444.517C1149.83 444.517 1148.39 445.634 1148.39 447.011C1148.39 448.389 1149.83 449.506 1151.61 449.506Z" fill="#5CDBF5"/>
<path opacity="0.3" d="M789.432 472.884L817.928 231.817H849.161L820.665 472.884H789.432Z" fill="white"/>
<path opacity="0.3" d="M828.08 472.884L855.968 231.817H868.485L840.439 472.884H828.08Z" fill="white"/>
<path opacity="0.3" d="M963.33 472.081L991.813 171.25H1023.03L994.709 472.081H963.33Z" fill="white"/>
<path opacity="0.3" d="M1209.05 472.081L1237.54 171.25H1268.75L1240.43 472.081H1209.05Z" fill="white"/>
<path opacity="0.3" d="M1023.84 472.081L1052.32 171.25H1064.87L1036.55 472.081H1023.84Z" fill="white"/>
<path d="M1037.14 670.999C1209.46 670.999 1349.16 663.092 1349.16 653.338C1349.16 643.583 1209.46 635.676 1037.14 635.676C864.81 635.676 725.113 643.583 725.113 653.338C725.113 663.092 864.81 670.999 1037.14 670.999Z" fill="#5CDBF5"/>
<path d="M1019.76 279.786H819.895V650.212C819.895 651.931 821.343 653.338 823.113 653.338H1016.38C1018.15 653.338 1019.59 651.931 1019.59 650.212V279.786H1019.76Z" fill="#407BFF"/>
<path d="M1022.49 581.753H1008.65V630.987H1022.49V581.753Z" fill="#407BFF"/>
<path opacity="0.2" d="M1004.33 631.117H1008.51V581.883H1004.33V631.117Z" fill="black"/>
<path opacity="0.1" d="M1022.49 581.753H1004.47V630.987H1022.49V581.753Z" fill="black"/>
<path d="M1015.57 627.549C1018.33 627.549 1020.56 618.102 1020.56 606.448C1020.56 594.795 1018.33 585.348 1015.57 585.348C1012.82 585.348 1010.58 594.795 1010.58 606.448C1010.58 618.102 1012.82 627.549 1015.57 627.549Z" fill="#407BFF"/>
<path opacity="0.15" d="M993.687 279.786H819.895V650.212C819.895 651.931 821.343 653.338 823.113 653.338H990.469C992.239 653.338 993.687 651.931 993.687 650.212V279.786Z" fill="white"/>
<path opacity="0.2" d="M993.686 279.786H994.973V653.338C994.168 653.338 993.686 652.712 993.686 652.087V279.786Z" fill="black"/>
<path d="M973.893 295.26H814.262V323.862H973.893V295.26Z" fill="#407BFF"/>
<path opacity="0.3" d="M970.352 297.761H964.559V321.518H970.352V297.761Z" fill="white"/>
<path opacity="0.3" d="M960.375 297.761H954.582V321.518H960.375V297.761Z" fill="white"/>
<path opacity="0.3" d="M950.399 297.761H944.605V321.518H950.399V297.761Z" fill="white"/>
<path opacity="0.3" d="M940.422 297.761H934.629V321.518H940.422V297.761Z" fill="white"/>
<path opacity="0.3" d="M930.443 297.761H924.65V321.518H930.443V297.761Z" fill="white"/>
<path opacity="0.3" d="M920.467 297.761H914.674V321.518H920.467V297.761Z" fill="white"/>
<path opacity="0.3" d="M910.492 297.761H904.699V321.518H910.492V297.761Z" fill="white"/>
<path opacity="0.3" d="M900.514 297.761H894.721V321.518H900.514V297.761Z" fill="white"/>
<path opacity="0.3" d="M890.537 297.761H884.744V321.518H890.537V297.761Z" fill="white"/>
<path opacity="0.3" d="M880.561 297.761H874.768V321.518H880.561V297.761Z" fill="white"/>
<path opacity="0.3" d="M870.584 297.761H864.791V321.518H870.584V297.761Z" fill="white"/>
<path opacity="0.3" d="M860.606 297.761H854.812V321.518H860.606V297.761Z" fill="white"/>
<path opacity="0.3" d="M850.629 297.761H844.836V321.518H850.629V297.761Z" fill="white"/>
<path opacity="0.3" d="M840.652 297.761H834.859V321.518H840.652V297.761Z" fill="white"/>
<path d="M973.893 335.116H814.262V363.718H973.893V335.116Z" fill="#407BFF"/>
<path d="M973.893 374.972H814.262V403.574H973.893V374.972Z" fill="#407BFF"/>
<path d="M973.893 414.984H814.262V443.586H973.893V414.984Z" fill="#407BFF"/>
<path d="M973.893 454.84H814.262V483.442H973.893V454.84Z" fill="#407BFF"/>
<path d="M973.893 494.696H814.262V523.298H973.893V494.696Z" fill="#407BFF"/>
<path d="M973.893 534.552H814.262V563.154H973.893V534.552Z" fill="#407BFF"/>
<path d="M973.893 574.564H814.262V603.166H973.893V574.564Z" fill="#407BFF"/>
<path opacity="0.2" d="M973.735 323.948H977.758V295.345H973.735V323.948Z" fill="black"/>
<path opacity="0.2" d="M973.735 363.874H977.758V335.271H973.735V363.874Z" fill="black"/>
<path opacity="0.2" d="M973.735 403.8H977.758V375.197H973.735V403.8Z" fill="black"/>
<path opacity="0.2" d="M973.735 443.569H977.758V414.967H973.735V443.569Z" fill="black"/>
<path opacity="0.2" d="M973.735 483.495H977.758V454.893H973.735V483.495Z" fill="black"/>
<path opacity="0.2" d="M973.735 523.421H977.758V494.819H973.735V523.421Z" fill="black"/>
<path opacity="0.2" d="M973.735 563.347H977.758V534.745H973.735V563.347Z" fill="black"/>
<path opacity="0.2" d="M973.735 603.117H977.758V574.514H973.735V603.117Z" fill="black"/>
<path d="M822.789 304.325C822.789 306.357 824.398 307.92 826.49 307.92C828.582 307.92 830.191 306.357 830.191 304.325C830.191 302.293 828.582 300.73 826.49 300.73C824.398 300.73 822.789 302.293 822.789 304.325Z" fill="white"/>
<path opacity="0.3" d="M822.789 314.953C822.789 316.985 824.398 318.548 826.49 318.548C828.582 318.548 830.191 316.985 830.191 314.953C830.191 312.921 828.582 311.358 826.49 311.358C824.398 311.358 822.789 312.921 822.789 314.953Z" fill="#263238"/>
<path opacity="0.3" d="M970.352 337.617H964.559V361.374H970.352V337.617Z" fill="white"/>
<path opacity="0.3" d="M960.375 337.617H954.582V361.374H960.375V337.617Z" fill="white"/>
<path opacity="0.3" d="M950.399 337.617H944.605V361.374H950.399V337.617Z" fill="white"/>
<path opacity="0.3" d="M940.422 337.617H934.629V361.374H940.422V337.617Z" fill="white"/>
<path opacity="0.3" d="M930.443 337.617H924.65V361.374H930.443V337.617Z" fill="white"/>
<path opacity="0.3" d="M920.467 337.617H914.674V361.374H920.467V337.617Z" fill="white"/>
<path opacity="0.3" d="M910.492 337.617H904.699V361.374H910.492V337.617Z" fill="white"/>
<path opacity="0.3" d="M900.514 337.617H894.721V361.374H900.514V337.617Z" fill="white"/>
<path opacity="0.3" d="M890.537 337.617H884.744V361.374H890.537V337.617Z" fill="white"/>
<path opacity="0.3" d="M880.561 337.617H874.768V361.374H880.561V337.617Z" fill="white"/>
<path opacity="0.3" d="M870.584 337.617H864.791V361.374H870.584V337.617Z" fill="white"/>
<path opacity="0.3" d="M860.606 337.617H854.812V361.374H860.606V337.617Z" fill="white"/>
<path opacity="0.3" d="M850.629 337.617H844.836V361.374H850.629V337.617Z" fill="white"/>
<path opacity="0.3" d="M840.652 337.617H834.859V361.374H840.652V337.617Z" fill="white"/>
<path d="M822.789 344.181C822.789 346.213 824.398 347.776 826.49 347.776C828.582 347.776 830.191 346.213 830.191 344.181C830.191 342.149 828.582 340.586 826.49 340.586C824.398 340.586 822.789 342.149 822.789 344.181Z" fill="white"/>
<path opacity="0.3" d="M822.789 354.809C822.789 356.841 824.398 358.404 826.49 358.404C828.582 358.404 830.191 356.841 830.191 354.809C830.191 352.777 828.582 351.214 826.49 351.214C824.398 351.214 822.789 352.777 822.789 354.809Z" fill="#263238"/>
<path opacity="0.3" d="M970.352 377.472H964.559V401.23H970.352V377.472Z" fill="white"/>
<path opacity="0.3" d="M960.375 377.472H954.582V401.23H960.375V377.472Z" fill="white"/>
<path opacity="0.3" d="M950.399 377.472H944.605V401.23H950.399V377.472Z" fill="white"/>
<path opacity="0.3" d="M940.422 377.472H934.629V401.23H940.422V377.472Z" fill="white"/>
<path opacity="0.3" d="M930.443 377.472H924.65V401.23H930.443V377.472Z" fill="white"/>
<path opacity="0.3" d="M920.467 377.472H914.674V401.23H920.467V377.472Z" fill="white"/>
<path opacity="0.3" d="M910.492 377.472H904.699V401.23H910.492V377.472Z" fill="white"/>
<path opacity="0.3" d="M900.514 377.472H894.721V401.23H900.514V377.472Z" fill="white"/>
<path opacity="0.3" d="M890.537 377.472H884.744V401.23H890.537V377.472Z" fill="white"/>
<path opacity="0.3" d="M880.561 377.472H874.768V401.23H880.561V377.472Z" fill="white"/>
<path opacity="0.3" d="M870.584 377.472H864.791V401.23H870.584V377.472Z" fill="white"/>
<path opacity="0.3" d="M860.606 377.472H854.812V401.23H860.606V377.472Z" fill="white"/>
<path opacity="0.3" d="M850.629 377.472H844.836V401.23H850.629V377.472Z" fill="white"/>
<path opacity="0.3" d="M840.652 377.472H834.859V401.23H840.652V377.472Z" fill="white"/>
<path d="M822.789 384.037C822.789 386.069 824.398 387.632 826.49 387.632C828.582 387.632 830.191 386.069 830.191 384.037C830.191 382.005 828.582 380.442 826.49 380.442C824.398 380.442 822.789 382.161 822.789 384.037Z" fill="white"/>
<path opacity="0.3" d="M822.789 394.665C822.789 396.697 824.398 398.26 826.49 398.26C828.582 398.26 830.191 396.697 830.191 394.665C830.191 392.633 828.582 391.07 826.49 391.07C824.398 391.07 822.789 392.633 822.789 394.665Z" fill="#263238"/>
<path opacity="0.3" d="M970.352 417.328H964.559V441.086H970.352V417.328Z" fill="white"/>
<path opacity="0.3" d="M960.375 417.328H954.582V441.086H960.375V417.328Z" fill="white"/>
<path opacity="0.3" d="M950.399 417.328H944.605V441.086H950.399V417.328Z" fill="white"/>
<path opacity="0.3" d="M940.422 417.328H934.629V441.086H940.422V417.328Z" fill="white"/>
<path opacity="0.3" d="M930.443 417.328H924.65V441.086H930.443V417.328Z" fill="white"/>
<path opacity="0.3" d="M920.467 417.328H914.674V441.086H920.467V417.328Z" fill="white"/>
<path opacity="0.3" d="M910.492 417.328H904.699V441.086H910.492V417.328Z" fill="white"/>
<path opacity="0.3" d="M900.514 417.328H894.721V441.086H900.514V417.328Z" fill="white"/>
<path opacity="0.3" d="M890.537 417.328H884.744V441.086H890.537V417.328Z" fill="white"/>
<path opacity="0.3" d="M880.561 417.328H874.768V441.086H880.561V417.328Z" fill="white"/>
<path opacity="0.3" d="M870.584 417.328H864.791V441.086H870.584V417.328Z" fill="white"/>
<path opacity="0.3" d="M860.606 417.328H854.812V441.086H860.606V417.328Z" fill="white"/>
<path opacity="0.3" d="M850.629 417.328H844.836V441.086H850.629V417.328Z" fill="white"/>
<path opacity="0.3" d="M840.652 417.328H834.859V441.086H840.652V417.328Z" fill="white"/>
<path d="M822.789 424.049C822.789 426.081 824.398 427.644 826.49 427.644C828.582 427.644 830.191 426.081 830.191 424.049C830.191 422.017 828.582 420.454 826.49 420.454C824.398 420.454 822.789 422.017 822.789 424.049Z" fill="white"/>
<path opacity="0.3" d="M822.789 434.521C822.789 436.553 824.398 438.116 826.49 438.116C828.582 438.116 830.191 436.553 830.191 434.521C830.191 432.489 828.582 430.926 826.49 430.926C824.398 430.926 822.789 432.489 822.789 434.521Z" fill="#263238"/>
<path opacity="0.3" d="M970.352 457.341H964.559V481.098H970.352V457.341Z" fill="white"/>
<path opacity="0.3" d="M960.375 457.341H954.582V481.098H960.375V457.341Z" fill="white"/>
<path opacity="0.3" d="M950.399 457.341H944.605V481.098H950.399V457.341Z" fill="white"/>
<path opacity="0.3" d="M940.422 457.341H934.629V481.098H940.422V457.341Z" fill="white"/>
<path opacity="0.3" d="M930.443 457.341H924.65V481.098H930.443V457.341Z" fill="white"/>
<path opacity="0.3" d="M920.467 457.341H914.674V481.098H920.467V457.341Z" fill="white"/>
<path opacity="0.3" d="M910.492 457.341H904.699V481.098H910.492V457.341Z" fill="white"/>
<path opacity="0.3" d="M900.514 457.341H894.721V481.098H900.514V457.341Z" fill="white"/>
<path opacity="0.3" d="M890.537 457.341H884.744V481.098H890.537V457.341Z" fill="white"/>
<path opacity="0.3" d="M880.561 457.341H874.768V481.098H880.561V457.341Z" fill="white"/>
<path opacity="0.3" d="M870.584 457.341H864.791V481.098H870.584V457.341Z" fill="white"/>
<path opacity="0.3" d="M860.606 457.341H854.812V481.098H860.606V457.341Z" fill="white"/>
<path opacity="0.3" d="M850.629 457.341H844.836V481.098H850.629V457.341Z" fill="white"/>
<path opacity="0.3" d="M840.652 457.341H834.859V481.098H840.652V457.341Z" fill="white"/>
<path d="M822.789 463.905C822.789 465.937 824.398 467.5 826.49 467.5C828.582 467.5 830.191 465.937 830.191 463.905C830.191 461.873 828.582 460.31 826.49 460.31C824.398 460.31 822.789 461.873 822.789 463.905Z" fill="white"/>
<path opacity="0.3" d="M822.789 474.377C822.789 476.409 824.398 477.972 826.49 477.972C828.582 477.972 830.191 476.409 830.191 474.377C830.191 472.345 828.582 470.782 826.49 470.782C824.398 470.782 822.789 472.501 822.789 474.377Z" fill="#263238"/>
<path opacity="0.3" d="M970.352 497.196H964.559V520.954H970.352V497.196Z" fill="white"/>
<path opacity="0.3" d="M960.375 497.196H954.582V520.954H960.375V497.196Z" fill="white"/>
<path opacity="0.3" d="M950.399 497.196H944.605V520.954H950.399V497.196Z" fill="white"/>
<path opacity="0.3" d="M940.422 497.196H934.629V520.954H940.422V497.196Z" fill="white"/>
<path opacity="0.3" d="M930.443 497.196H924.65V520.954H930.443V497.196Z" fill="white"/>
<path opacity="0.3" d="M920.467 497.196H914.674V520.954H920.467V497.196Z" fill="white"/>
<path opacity="0.3" d="M910.492 497.196H904.699V520.954H910.492V497.196Z" fill="white"/>
<path opacity="0.3" d="M900.514 497.196H894.721V520.954H900.514V497.196Z" fill="white"/>
<path opacity="0.3" d="M890.537 497.196H884.744V520.954H890.537V497.196Z" fill="white"/>
<path opacity="0.3" d="M880.561 497.196H874.768V520.954H880.561V497.196Z" fill="white"/>
<path opacity="0.3" d="M870.584 497.196H864.791V520.954H870.584V497.196Z" fill="white"/>
<path opacity="0.3" d="M860.606 497.196H854.812V520.954H860.606V497.196Z" fill="white"/>
<path opacity="0.3" d="M850.629 497.196H844.836V520.954H850.629V497.196Z" fill="white"/>
<path opacity="0.3" d="M840.652 497.196H834.859V520.954H840.652V497.196Z" fill="white"/>
<path d="M822.789 503.761C822.789 505.793 824.398 507.356 826.49 507.356C828.582 507.356 830.191 505.793 830.191 503.761C830.191 501.729 828.582 500.166 826.49 500.166C824.398 500.166 822.789 501.729 822.789 503.761Z" fill="white"/>
<path opacity="0.3" d="M822.789 514.389C822.789 516.421 824.398 517.984 826.49 517.984C828.582 517.984 830.191 516.421 830.191 514.389C830.191 512.357 828.582 510.794 826.49 510.794C824.398 510.794 822.789 512.357 822.789 514.389Z" fill="#263238"/>
<path opacity="0.3" d="M970.352 537.052H964.559V560.81H970.352V537.052Z" fill="white"/>
<path opacity="0.3" d="M960.375 537.052H954.582V560.81H960.375V537.052Z" fill="white"/>
<path opacity="0.3" d="M950.399 537.052H944.605V560.81H950.399V537.052Z" fill="white"/>
<path opacity="0.3" d="M940.422 537.052H934.629V560.81H940.422V537.052Z" fill="white"/>
<path opacity="0.3" d="M930.443 537.052H924.65V560.81H930.443V537.052Z" fill="white"/>
<path opacity="0.3" d="M920.467 537.052H914.674V560.81H920.467V537.052Z" fill="white"/>
<path opacity="0.3" d="M910.492 537.052H904.699V560.81H910.492V537.052Z" fill="white"/>
<path opacity="0.3" d="M900.514 537.052H894.721V560.81H900.514V537.052Z" fill="white"/>
<path opacity="0.3" d="M890.537 537.052H884.744V560.81H890.537V537.052Z" fill="white"/>
<path opacity="0.3" d="M880.561 537.052H874.768V560.81H880.561V537.052Z" fill="white"/>
<path opacity="0.3" d="M870.584 537.052H864.791V560.81H870.584V537.052Z" fill="white"/>
<path opacity="0.3" d="M860.606 537.052H854.812V560.81H860.606V537.052Z" fill="white"/>
<path opacity="0.3" d="M850.629 537.052H844.836V560.81H850.629V537.052Z" fill="white"/>
<path opacity="0.3" d="M840.652 537.052H834.859V560.81H840.652V537.052Z" fill="white"/>
<path d="M822.789 543.617C822.789 545.649 824.398 547.212 826.49 547.212C828.582 547.212 830.191 545.649 830.191 543.617C830.191 541.585 828.582 540.022 826.49 540.022C824.398 540.022 822.789 541.585 822.789 543.617Z" fill="white"/>
<path opacity="0.3" d="M822.789 554.245C822.789 556.277 824.398 557.84 826.49 557.84C828.582 557.84 830.191 556.277 830.191 554.245C830.191 552.213 828.582 550.65 826.49 550.65C824.398 550.65 822.789 552.213 822.789 554.245Z" fill="#263238"/>
<path opacity="0.3" d="M970.352 576.908H964.559V600.665H970.352V576.908Z" fill="white"/>
<path opacity="0.3" d="M960.375 576.908H954.582V600.665H960.375V576.908Z" fill="white"/>
<path opacity="0.3" d="M950.399 576.908H944.605V600.665H950.399V576.908Z" fill="white"/>
<path opacity="0.3" d="M940.422 576.908H934.629V600.665H940.422V576.908Z" fill="white"/>
<path opacity="0.3" d="M930.443 576.908H924.65V600.665H930.443V576.908Z" fill="white"/>
<path opacity="0.3" d="M920.467 576.908H914.674V600.665H920.467V576.908Z" fill="white"/>
<path opacity="0.3" d="M910.492 576.908H904.699V600.665H910.492V576.908Z" fill="white"/>
<path opacity="0.3" d="M900.514 576.908H894.721V600.665H900.514V576.908Z" fill="white"/>
<path opacity="0.3" d="M890.537 576.908H884.744V600.665H890.537V576.908Z" fill="white"/>
<path opacity="0.3" d="M880.561 576.908H874.768V600.665H880.561V576.908Z" fill="white"/>
<path opacity="0.3" d="M870.584 576.908H864.791V600.665H870.584V576.908Z" fill="white"/>
<path opacity="0.3" d="M860.606 576.908H854.812V600.665H860.606V576.908Z" fill="white"/>
<path opacity="0.3" d="M850.629 576.908H844.836V600.665H850.629V576.908Z" fill="white"/>
<path opacity="0.3" d="M840.652 576.908H834.859V600.665H840.652V576.908Z" fill="white"/>
<path d="M822.789 583.629C822.789 585.661 824.398 587.224 826.49 587.224C828.582 587.224 830.191 585.661 830.191 583.629C830.191 581.597 828.582 580.034 826.49 580.034C824.398 580.034 822.789 581.597 822.789 583.629Z" fill="white"/>
<path opacity="0.3" d="M822.789 594.101C822.789 596.133 824.398 597.696 826.49 597.696C828.582 597.696 830.191 596.133 830.191 594.101C830.191 592.069 828.582 590.506 826.49 590.506C824.398 590.506 822.789 592.069 822.789 594.101Z" fill="#263238"/>
<path d="M939.458 184.757V194.604L933.504 196.011C933.021 197.73 932.377 199.293 931.412 200.856L934.63 206.014L927.55 212.891L922.24 209.765C920.63 210.546 919.021 211.328 917.251 211.797L915.803 217.58H905.665L904.217 211.797C902.446 211.328 900.837 210.703 899.228 209.765L893.918 212.891L886.837 206.014L890.056 200.856C889.251 199.293 888.447 197.73 887.964 196.011L882.01 194.604V184.757L887.964 183.351C888.447 181.631 889.09 180.068 890.056 178.505L886.837 173.348L893.918 166.471L899.228 169.596C900.837 168.815 902.446 168.034 904.217 167.565L905.665 161.782H915.803L917.251 167.565C919.021 168.034 920.63 168.659 922.24 169.596L927.55 166.471L934.63 173.348L931.412 178.505C932.216 180.068 933.021 181.631 933.504 183.351L939.458 184.757ZM910.653 180.225C905.343 180.225 900.998 184.445 900.998 189.603C900.998 194.76 905.343 198.98 910.653 198.98C915.964 198.98 920.308 194.76 920.308 189.603C920.308 184.445 915.964 180.225 910.653 180.225Z" fill="#407BFF"/>
<path d="M968.101 209.921L966.009 214.923L962.629 214.454C961.986 215.235 961.342 215.861 960.537 216.486L961.02 219.768L955.871 221.8L953.779 219.143C952.813 219.299 951.848 219.299 950.882 219.143L948.79 221.8L943.641 219.768L944.124 216.486C943.319 215.861 942.675 215.235 942.032 214.454L938.652 214.923L936.561 209.921L939.296 207.889C939.135 206.952 939.135 206.014 939.296 205.076L936.561 203.044L938.652 198.043L942.032 198.512C942.675 197.73 943.319 197.105 944.124 196.48L943.641 193.197L948.79 191.166L950.882 193.823C951.848 193.666 952.813 193.666 953.779 193.823L955.871 191.166L961.02 193.197L960.537 196.48C961.342 197.105 961.986 197.73 962.629 198.512L966.009 198.043L968.101 203.044L965.365 205.076C965.526 206.014 965.526 206.952 965.365 207.889L968.101 209.921Z" fill="#407BFF"/>
<path opacity="0.3" d="M968.101 209.921L966.009 214.923L962.629 214.454C961.986 215.235 961.342 215.861 960.537 216.486L961.02 219.768L955.871 221.8L953.779 219.143C952.813 219.299 951.848 219.299 950.882 219.143L948.79 221.8L943.641 219.768L944.124 216.486C943.319 215.861 942.675 215.235 942.032 214.454L938.652 214.923L936.561 209.921L939.296 207.889C939.135 206.952 939.135 206.014 939.296 205.076L936.561 203.044L938.652 198.043L942.032 198.512C942.675 197.73 943.319 197.105 944.124 196.48L943.641 193.197L948.79 191.166L950.882 193.823C951.848 193.666 952.813 193.666 953.779 193.823L955.871 191.166L961.02 193.197L960.537 196.48C961.342 197.105 961.986 197.73 962.629 198.512L966.009 198.043L968.101 203.044L965.365 205.076C965.526 206.014 965.526 206.952 965.365 207.889L968.101 209.921Z" fill="white"/>
<path d="M986.446 250.559H862.86C859.481 250.559 856.584 247.902 856.584 244.463C856.584 241.181 859.32 238.368 862.86 238.368H986.446C989.825 238.368 992.721 241.025 992.721 244.463C992.721 247.902 989.986 250.559 986.446 250.559Z" fill="#407BFF"/>
<path d="M862.859 249.152C860.284 249.152 858.031 247.12 858.031 244.463C858.031 241.962 860.123 239.774 862.859 239.774H906.468C909.043 239.774 911.295 241.806 911.295 244.463C911.295 246.964 909.203 249.152 906.468 249.152H862.859Z" fill="white"/>
<path d="M916.768 258.061L924.653 265.72L932.699 258.061H916.768Z" fill="#407BFF"/>
<path d="M1034.72 652.556H1031.34C1027.16 652.556 1023.78 649.274 1023.78 645.21V622.235C1023.78 621.453 1023.14 620.828 1022.33 620.828H1015.57V619.265H1022.33C1024.1 619.265 1025.39 620.672 1025.39 622.235V645.21C1025.39 648.493 1028.12 650.993 1031.34 650.993H1034.72C1038.1 650.993 1040.68 648.336 1040.68 645.21V370.908C1040.68 369.189 1042.12 367.938 1043.73 367.938H1061.27V369.501H1043.73C1042.93 369.501 1042.28 370.126 1042.28 370.908V645.21C1042.28 649.274 1038.91 652.556 1034.72 652.556Z" fill="#407BFF"/>
<path d="M1181.48 370.283H1012.68V374.972H1181.48V370.283Z" fill="#407BFF"/>
<path opacity="0.2" d="M1068.03 370.283H1012.68V374.972H1068.03V370.283Z" fill="black"/>
<path d="M1107.46 374.972H1095.55V651.775H1107.46V374.972Z" fill="#407BFF"/>
<path opacity="0.2" d="M1107.46 374.972H1099.57H1095.55V382.786V651.775H1099.57V382.005L1107.46 380.442V374.972Z" fill="black"/>
<path d="M1143.66 302.449H1050.97C1047.76 302.449 1045.34 305.107 1045.83 308.233L1052.74 361.53C1053.23 364.656 1056.12 367.313 1059.5 367.313H1152.19C1155.41 367.313 1157.82 364.656 1157.34 361.53L1150.42 308.233C1149.94 304.95 1147.04 302.449 1143.66 302.449Z" fill="#0F264C"/>
<path d="M1172.79 367.001H1056.77C1054.84 367.001 1053.55 368.564 1053.71 370.283H1176.65C1176.49 368.564 1174.72 367.001 1172.79 367.001Z" fill="#407BFF"/>
<path opacity="0.2" d="M1084.29 367.001H1056.77C1054.84 367.001 1053.55 368.564 1053.71 370.283H1088.15C1087.99 368.564 1086.22 367.001 1084.29 367.001Z" fill="black"/>
<path opacity="0.9" d="M1060.15 364.031C1058.54 364.031 1056.93 362.624 1056.61 361.061L1049.69 307.764C1049.53 307.139 1049.69 306.513 1050.17 306.201C1050.49 305.732 1050.97 305.576 1051.62 305.576H1144.31C1145.92 305.576 1147.53 306.982 1147.85 308.545L1154.77 361.843C1154.93 362.468 1154.77 363.093 1154.28 363.406C1153.96 363.875 1153.48 364.031 1152.84 364.031H1060.15Z" fill="white"/>
<g opacity="0.5">
<path opacity="0.2" d="M1109.39 327.77L1110.35 333.709L1106.65 334.647C1106.49 335.585 1106.17 336.679 1105.85 337.616L1108.42 340.742L1104.56 344.962L1100.86 343.087C1099.89 343.556 1098.93 344.025 1097.96 344.337L1097.64 347.776H1091.2L1089.6 344.337C1088.47 344.025 1087.34 343.712 1086.22 343.087L1083.16 344.962L1077.85 340.742L1079.3 337.616C1078.65 336.679 1078.01 335.741 1077.53 334.803L1073.66 334.022L1072.7 328.082L1076.4 327.145C1076.56 326.207 1076.88 325.113 1077.2 324.175L1074.63 321.049L1078.49 316.829L1082.19 318.704C1083 318.236 1084.12 317.767 1085.09 317.454L1085.41 314.016H1091.85L1093.46 317.454C1094.58 317.767 1095.71 318.079 1096.84 318.704L1099.89 316.829L1105.2 321.049L1103.76 324.175C1104.4 325.113 1105.04 326.05 1105.53 326.988L1109.39 327.77ZM1090.72 325.113C1087.34 325.113 1085.09 327.613 1085.57 330.739C1086.06 333.865 1089.27 336.366 1092.65 336.366C1096.03 336.366 1098.29 333.865 1097.8 330.739C1097.32 327.613 1094.1 325.113 1090.72 325.113Z" fill="#407BFF"/>
</g>
<path opacity="0.2" d="M1130.31 342.931L1129.5 345.9L1127.25 345.588C1126.93 346.057 1126.61 346.526 1126.12 346.838L1126.77 348.87L1123.71 350.12L1122.1 348.557C1121.46 348.557 1120.81 348.557 1120.17 348.557L1119.2 350.12L1115.66 348.87V346.838C1115.18 346.526 1114.54 346.057 1114.05 345.588L1111.96 345.9L1110.03 342.931L1111.64 341.68C1111.48 341.055 1111.32 340.586 1111.32 339.961L1109.55 338.867L1110.35 335.897L1112.61 336.21C1112.93 335.741 1113.25 335.272 1113.73 334.959L1113.09 332.928L1116.15 331.677L1117.76 333.24C1118.4 333.24 1119.04 333.24 1119.69 333.24L1120.65 331.677L1124.19 332.928V334.959C1124.68 335.272 1125.32 335.741 1125.8 336.21L1127.89 335.897L1129.82 338.867L1128.22 340.117C1128.38 340.743 1128.54 341.211 1128.54 341.837L1130.31 342.931Z" fill="#407BFF"/>
<path d="M1207.39 233.053C1206.1 241.337 1205.3 256.342 1211.41 261.499C1211.41 261.499 1205.94 272.597 1191.94 279.161C1180.35 272.909 1185.18 262.75 1185.18 262.75C1194.51 260.093 1193.87 253.372 1191.94 247.12L1207.39 233.053Z" fill="#F5C9B2"/>
<path d="M1211.25 257.123C1210.93 257.123 1210.44 257.28 1210.12 257.28C1209.32 255.873 1207.87 254.935 1206.1 254.935C1204.81 254.935 1203.85 255.56 1203.04 256.342C1202.24 255.56 1201.11 255.091 1199.82 255.248C1198.37 255.248 1197.25 256.029 1196.44 256.967C1195.64 256.185 1194.51 255.873 1193.39 255.873C1191.62 255.873 1190.33 256.967 1189.52 258.217C1188.88 257.905 1188.24 257.748 1187.59 257.748C1185.18 257.905 1183.25 259.78 1183.25 262.281C1183.41 264.625 1185.34 266.501 1187.91 266.501C1189.68 266.501 1190.97 265.407 1191.78 264.157C1192.42 264.469 1193.06 264.625 1193.71 264.625C1195.16 264.625 1196.28 263.844 1197.09 262.906C1197.89 263.688 1199.02 264 1200.14 264C1201.43 264 1202.4 263.375 1203.2 262.594C1204.01 263.375 1205.13 263.844 1206.42 263.688C1206.74 263.688 1207.22 263.531 1207.55 263.531C1208.35 264.938 1209.8 265.876 1211.57 265.876C1213.98 265.72 1215.91 263.844 1215.91 261.343C1215.75 258.999 1213.82 257.123 1211.25 257.123Z" fill="white"/>
<path opacity="0.5" d="M1211.25 257.123C1210.93 257.123 1210.44 257.28 1210.12 257.28C1209.32 255.873 1207.87 254.935 1206.1 254.935C1204.81 254.935 1203.85 255.56 1203.04 256.342C1202.24 255.56 1201.11 255.091 1199.82 255.248C1198.37 255.248 1197.25 256.029 1196.44 256.967C1195.64 256.185 1194.51 255.873 1193.39 255.873C1191.62 255.873 1190.33 256.967 1189.52 258.217C1188.88 257.905 1188.24 257.748 1187.59 257.748C1185.18 257.905 1183.25 259.78 1183.25 262.281C1183.41 264.625 1185.34 266.501 1187.91 266.501C1189.68 266.501 1190.97 265.407 1191.78 264.157C1192.42 264.469 1193.06 264.625 1193.71 264.625C1195.16 264.625 1196.28 263.844 1197.09 262.906C1197.89 263.688 1199.02 264 1200.14 264C1201.43 264 1202.4 263.375 1203.2 262.594C1204.01 263.375 1205.13 263.844 1206.42 263.688C1206.74 263.688 1207.22 263.531 1207.55 263.531C1208.35 264.938 1209.8 265.876 1211.57 265.876C1213.98 265.72 1215.91 263.844 1215.91 261.343C1215.75 258.999 1213.82 257.123 1211.25 257.123Z" fill="#407BFF"/>
<path d="M1170.86 227.739C1171.18 228.833 1170.86 229.771 1170.22 230.084C1169.57 230.24 1168.61 229.615 1168.28 228.521C1167.96 227.427 1168.28 226.489 1168.93 226.176C1169.57 225.864 1170.54 226.645 1170.86 227.739Z" fill="#263238"/>
<path d="M1169.25 226.02H1166.35C1166.51 226.02 1168.45 227.739 1169.25 226.02Z" fill="#263238"/>
<path d="M1167.32 221.8C1167.16 221.8 1167 221.8 1166.83 221.644C1166.51 221.487 1166.51 221.018 1166.67 220.706C1168.93 217.892 1171.98 218.049 1172.15 218.049C1172.47 218.049 1172.79 218.361 1172.79 218.674C1172.79 218.987 1172.47 219.299 1172.15 219.299C1171.98 219.299 1169.57 219.143 1167.8 221.487C1167.64 221.644 1167.48 221.8 1167.32 221.8Z" fill="#263238"/>
<path d="M1172.47 230.865C1172.47 230.865 1171.98 236.023 1170.7 238.836C1172.63 239.774 1174.88 238.367 1174.88 238.367L1172.47 230.865Z" fill="#ED847E"/>
<path d="M1206.74 212.578C1209.96 225.864 1211.57 231.49 1206.74 240.243C1199.5 253.372 1181.96 254.154 1174.72 241.962C1168.28 231.022 1164.1 211.015 1175.85 201.95C1187.27 193.197 1203.53 199.293 1206.74 212.578Z" fill="#F5C9B2"/>
<path d="M1180.03 225.395C1180.83 220.237 1173.59 226.645 1171.82 218.987C1170.7 214.454 1165.23 215.392 1166.51 208.358C1167.8 201.325 1173.75 201.794 1174.4 199.137C1175.52 194.604 1178.58 192.26 1183.41 191.166C1190.97 189.446 1192.58 196.167 1198.54 194.448C1204.17 192.885 1212.05 194.135 1214.79 199.606C1217.69 205.232 1213.18 211.484 1216.08 214.141C1221.55 219.143 1223.32 228.521 1216.88 235.085C1212.05 240.087 1219.29 243.213 1213.98 246.026C1208.51 248.683 1201.92 248.527 1199.18 241.65C1197.41 236.961 1177.62 241.493 1180.03 225.395Z" fill="#445465"/>
<path d="M1182.28 225.551C1183.09 228.208 1182.61 231.178 1181.48 233.21C1179.71 236.336 1176.33 235.398 1174.56 232.428C1173.11 229.771 1172.15 225.082 1175.04 222.894C1177.78 220.862 1181.32 222.425 1182.28 225.551Z" fill="#F5C9B2"/>
<path d="M1223.96 281.037C1221.39 290.571 1218.49 299.636 1215.27 308.701C1213.66 313.234 1211.89 317.767 1209.96 322.299C1209 324.488 1208.03 326.832 1207.07 329.02L1205.46 332.302L1203.85 335.741L1203.04 337.46L1201.76 339.492C1200.95 340.742 1199.99 341.837 1199.02 342.931C1197.09 345.119 1195 346.994 1192.9 348.557C1188.56 351.84 1184.05 354.497 1179.39 356.685C1170.05 361.061 1160.56 364.031 1150.42 365.906L1148.65 359.186C1153 357.623 1157.5 355.747 1161.69 353.715C1166.03 351.683 1170.22 349.651 1174.08 347.307C1181.8 342.618 1189.2 336.991 1191.78 330.114L1193.07 326.988L1194.35 323.706C1195.16 321.518 1195.96 319.33 1196.93 317.142C1198.54 312.765 1200.15 308.389 1201.59 303.856C1204.49 294.947 1207.39 285.882 1209.96 277.129L1223.96 281.037Z" fill="#F5C9B2"/>
<path d="M1152.03 358.404L1139.64 356.372L1141.57 367.469C1141.57 367.469 1152.68 368.095 1156.22 363.562L1152.03 358.404Z" fill="#F5C9B2"/>
<path d="M1130.31 361.53L1129.02 367L1141.57 367.469L1139.64 356.372L1130.31 361.53Z" fill="#F5C9B2"/>
<path d="M1163.46 273.066C1163.3 283.069 1165.71 305.888 1175.85 348.557L1229.59 345.275C1227.34 325.425 1226.7 313.859 1232.17 279.161C1233.62 269.627 1226.38 260.718 1216.4 260.249C1216.08 260.249 1215.76 260.249 1215.43 260.249C1205.78 259.78 1197.73 259.468 1189.2 260.249C1183.57 260.718 1177.46 261.656 1172.95 262.437C1167.48 263.375 1163.46 267.751 1163.46 273.066Z" fill="#F6AC3B"/>
<path d="M1209.96 248.996C1216.24 259.624 1183.41 272.128 1205.29 277.286C1227.18 282.443 1206.9 286.195 1211.41 300.73C1215.27 313.39 1232.33 296.666 1226.7 281.662C1220.26 264.469 1233.94 264.469 1217.69 248.839C1211.57 242.744 1209.96 248.996 1209.96 248.996Z" fill="#445465"/>
<path d="M1216.56 249.777L1212.38 250.09C1209.96 250.246 1207.23 248.683 1206.42 246.651C1205.62 244.619 1206.9 242.744 1209.48 242.431L1213.66 242.119C1216.08 241.962 1218.81 243.525 1219.62 245.557C1220.26 247.589 1218.97 249.465 1216.56 249.777Z" fill="#C58A2F"/>
<path opacity="0.2" d="M1174.72 276.973L1164.91 292.603C1165.71 298.386 1166.84 305.419 1168.29 313.547L1175.37 309.483C1178.75 284.788 1174.72 276.973 1174.72 276.973Z" fill="black"/>
<path d="M1176.49 281.037C1174.08 290.258 1171.18 299.323 1167.96 308.232C1166.35 312.765 1164.74 317.141 1162.81 321.518C1161.85 323.706 1160.88 325.894 1159.92 328.082C1158.95 330.27 1157.99 332.459 1156.86 334.647L1156.05 336.366C1155.73 336.991 1155.57 337.46 1155.09 338.085C1154.61 338.711 1154.28 339.492 1153.8 339.961L1152.51 341.68C1150.74 343.868 1148.81 345.9 1146.72 347.619C1142.54 351.058 1138.03 353.715 1133.53 355.903C1124.35 360.28 1114.86 363.093 1105.04 364.812L1103.43 357.935C1107.62 356.372 1112.12 354.653 1116.31 352.777C1120.49 350.902 1124.51 348.714 1128.38 346.525C1132.08 344.181 1135.62 341.68 1138.67 338.867C1140.12 337.46 1141.41 335.897 1142.54 334.49L1143.34 333.396C1143.66 333.084 1143.66 332.615 1143.99 332.302C1144.15 331.99 1144.47 331.365 1144.63 330.896L1145.27 329.333C1148.81 321.049 1151.87 312.453 1154.77 303.7C1157.66 294.947 1160.4 286.195 1162.81 277.442L1176.49 281.037Z" fill="#F5C9B2"/>
<path d="M1178.1 273.691C1175.69 268.064 1170.05 263.219 1170.05 263.219C1160.56 267.439 1157.18 271.971 1151.71 298.386C1159.59 305.107 1172.79 305.107 1172.79 305.107L1179.87 287.289C1179.87 287.445 1180.51 279.317 1178.1 273.691Z" fill="#F6AC3B"/>
<path d="M1104.56 358.404L1092.33 356.841L1096.03 366.844C1096.03 366.844 1105.04 368.251 1108.58 363.562L1104.56 358.404Z" fill="#F5C9B2"/>
<path d="M1085.89 361.53L1082.35 367L1096.03 366.844L1092.33 356.841L1085.89 361.53Z" fill="#F5C9B2"/>
<path d="M1177.46 348.557C1177.46 348.557 1170.7 445.149 1169.57 491.726C1169.41 497.353 1170.54 502.979 1172.95 508.293C1194.35 557.215 1237.48 610.981 1237.48 610.981L1246.17 602.541C1246.17 602.541 1217.53 540.178 1197.89 493.445C1209.48 447.181 1216.88 346.213 1216.88 346.213L1177.46 348.557Z" fill="#F5C9B2"/>
<path opacity="0.2" d="M1234.74 577.533C1227.66 561.747 1218.17 540.647 1209.16 519.703L1209 570.656C1209 571.438 1209.32 572.219 1209.8 573.001C1222.35 591.444 1233.13 605.667 1236.51 609.887L1234.74 577.533Z" fill="black"/>
<path d="M1186.95 348.088C1186.95 348.088 1196.28 447.65 1204.17 489.069C1212.38 532.52 1218.65 636.301 1218.81 639.427H1228.63C1228.63 639.427 1242.15 522.829 1229.59 483.911C1227.5 436.24 1229.59 345.431 1229.59 345.431L1186.95 348.088Z" fill="#F5C9B2"/>
<path d="M1234.26 608.637L1244.72 599.728C1245.2 599.415 1245.85 599.259 1246.17 599.728L1255.66 607.855C1256.63 608.637 1256.63 610.356 1255.5 611.294C1251.16 614.889 1250.83 614.889 1245.36 619.421C1241.98 622.235 1236.67 627.08 1232.17 630.987C1227.66 634.895 1223.48 630.831 1225.09 628.799C1232.17 619.578 1232.17 615.826 1232.97 610.981C1233.13 610.043 1233.46 609.262 1234.26 608.637Z" fill="#263238"/>
<path d="M1217.52 637.552H1228.79C1229.43 637.552 1229.92 638.021 1229.92 638.49L1231.52 650.993C1231.69 652.244 1230.56 653.494 1229.11 653.494C1223.48 653.338 1225.73 653.025 1218.65 653.025C1214.31 653.025 1207.87 653.494 1201.75 653.494C1195.8 653.494 1195.48 647.711 1198.05 647.086C1209.32 644.742 1211.25 641.459 1215.11 638.333C1215.92 637.864 1216.72 637.552 1217.52 637.552Z" fill="#263238"/>
<path d="M1175.69 348.714L1164.91 492.82L1234.75 474.533C1228.63 414.984 1251.16 375.128 1229.43 345.431L1175.69 348.714Z" fill="#6F7B88"/>
<path d="M1230.56 347.932L1175.52 351.839C1175.04 351.839 1174.56 351.527 1174.56 351.058L1174.4 348.557C1174.4 348.088 1174.72 347.619 1175.2 347.619L1229.92 343.868C1230.4 343.868 1230.72 344.181 1230.88 344.494L1231.52 346.838C1231.52 347.307 1231.2 347.932 1230.56 347.932Z" fill="#407BFF"/>
<path opacity="0.7" d="M1230.56 347.932L1175.52 351.839C1175.04 351.839 1174.56 351.527 1174.56 351.058L1174.4 348.557C1174.4 348.088 1174.72 347.619 1175.2 347.619L1229.92 343.868C1230.4 343.868 1230.72 344.181 1230.88 344.494L1231.52 346.838C1231.52 347.307 1231.2 347.932 1230.56 347.932Z" fill="#C58A2F"/>
<path opacity="0.2" d="M1223 377.472C1223 377.472 1212.86 389.351 1195 397.635C1213.02 395.29 1220.58 388.101 1223 377.472Z" fill="black"/>
</g>
<defs>
<clipPath id="clip0">
<rect width="1366" height="666" rx="32" fill="white"/>
</clipPath>
</defs>
</svg>
