<svg width="792" height="684" viewBox="0 0 792 684" fill="none" xmlns="http://www.w3.org/2000/svg">
<path d="M597.628 332.265L577.339 383.867L653.8 413.93L674.089 362.329L597.628 332.265Z" fill="#407BFF"/>
<path d="M674.115 363.05C674.115 363.05 673.826 363.194 673.104 363.483C672.382 363.772 671.371 364.061 670.216 364.494C667.617 365.36 664.007 366.66 659.675 368.104C650.578 371.136 638.304 375.324 624.586 379.945L624.297 380.089L624.153 379.8C624.008 379.656 623.864 379.367 623.719 379.223C616.499 366.516 609.857 355.108 605.092 346.588C602.781 342.401 600.904 339.08 599.46 336.625C598.883 335.47 598.305 334.603 598.016 333.881C597.727 333.304 597.583 332.87 597.583 332.87C597.583 332.87 597.872 333.159 598.161 333.737C598.594 334.459 599.027 335.325 599.749 336.336C601.193 338.791 603.07 342.112 605.525 346.155C610.435 354.53 617.077 365.938 624.297 378.645C624.441 378.934 624.586 379.078 624.73 379.223L624.297 379.078C638.015 374.602 650.433 370.414 659.531 367.526C664.007 366.082 667.617 364.927 670.216 364.061C671.371 363.628 672.382 363.339 673.104 363.194C673.826 363.05 674.115 363.05 674.115 363.05Z" fill="black"/>
<path d="M577.366 384.566C577.222 384.421 585.741 379.512 596.427 373.88C607.112 368.104 615.776 363.628 615.776 363.772C615.921 363.916 607.401 368.826 596.716 374.458C586.174 380.234 577.51 384.71 577.366 384.566Z" fill="black"/>
<path d="M641.48 373.013C641.625 373.013 644.657 382.255 647.978 393.663C651.444 405.07 654.043 414.456 653.754 414.601C653.61 414.601 650.578 405.359 647.256 393.951C643.935 382.544 641.336 373.158 641.48 373.013Z" fill="black"/>
<path d="M344.732 549.197L271.221 585.892L295.984 635.502L369.496 598.808L344.732 549.197Z" fill="#407BFF"/>
<path d="M345.315 549.759C345.315 549.759 345.171 550.048 345.026 550.77C344.737 551.492 344.304 552.358 343.871 553.658C342.86 556.113 341.272 559.723 339.539 563.911C335.785 572.719 330.586 584.704 324.81 597.845L324.666 598.133H324.377C324.088 598.133 323.944 597.989 323.655 597.989C309.359 594.957 296.363 592.069 286.977 590.047C282.357 589.036 278.602 588.17 275.859 587.592C274.559 587.303 273.548 587.015 272.826 586.87C272.104 586.726 271.815 586.581 271.815 586.581C271.815 586.581 272.249 586.581 272.826 586.726C273.548 586.87 274.559 587.014 275.859 587.303C278.602 587.881 282.357 588.603 286.977 589.614C296.508 591.635 309.359 594.379 323.655 597.411C323.944 597.411 324.088 597.556 324.377 597.556L323.944 597.7C329.72 584.415 335.063 572.575 338.817 563.766C340.694 559.434 342.283 555.968 343.438 553.514C344.015 552.358 344.449 551.492 344.737 550.77C345.171 550.048 345.315 549.759 345.315 549.759Z" fill="black"/>
<path d="M296.508 635.966C296.364 635.966 298.385 626.291 301.273 614.595C304.161 602.898 306.616 593.368 306.761 593.368C306.905 593.368 304.883 603.043 301.995 614.739C299.252 626.58 296.653 636.11 296.508 635.966Z" fill="black"/>
<path d="M330.876 580.661C331.02 580.516 339.829 584.56 350.659 589.614C361.489 594.812 370.153 599.144 370.008 599.288C369.864 599.433 361.056 595.39 350.226 590.336C339.54 585.137 330.876 580.95 330.876 580.661Z" fill="black"/>
<path d="M224.02 363.194C252.033 344.567 258.82 309.189 258.243 277.421C258.098 272.078 258.82 266.446 256.365 261.826C253.911 257.06 247.99 253.884 243.081 256.05C239.037 257.782 237.305 262.403 234.994 266.158C231.962 271.212 227.485 275.255 222.143 277.854C218.677 279.587 214.489 280.598 211.024 278.72C206.403 276.121 205.97 269.768 206.114 264.569C206.259 254.75 206.547 244.931 206.692 235.112C206.836 229.769 206.981 224.426 205.392 219.372C203.804 214.318 200.194 209.553 195.14 208.109C190.086 206.665 183.732 209.408 182.577 214.607C182.144 216.773 182.577 218.939 182.288 221.249C182.144 223.415 180.989 225.87 178.967 226.448C176.801 227.025 174.635 225.437 173.191 223.993C167.704 218.506 164.094 211.719 160.773 204.788C157.307 197.856 154.13 190.925 149.221 185.005C144.311 179.084 137.38 174.464 129.727 173.886C122.073 173.308 113.843 177.929 111.821 185.294C109.799 192.658 113.987 200.311 118.752 206.376C125.683 215.473 134.059 223.415 143.3 230.202C145.033 231.357 146.766 232.657 147.343 234.678C148.499 238.144 145.033 241.61 141.423 242.765C137.38 244.064 133.048 243.487 128.86 243.92C124.673 244.353 120.196 246.086 118.463 249.985C116.153 255.328 120.629 261.104 125.106 264.858C134.059 272.367 144.167 278.432 155.141 282.619C159.04 284.063 163.227 285.363 166.26 288.251C169.437 290.994 171.169 295.76 169.292 299.514C167.271 303.268 162.361 304.279 158.318 303.557C154.275 302.691 150.52 300.525 146.621 298.936C139.257 296.048 129.871 296.482 124.961 302.691C121.785 306.734 121.496 312.51 122.94 317.42C124.384 322.329 127.561 326.661 130.882 330.56C142.434 344.422 157.307 355.541 174.346 361.75C191.097 367.238 206.981 368.97 224.02 363.194Z" fill="#74C1C7"/>
<path d="M215.934 343.123C211.457 326.95 204.959 309.766 197.739 291.861C195.862 287.384 194.129 283.052 192.252 278.72C190.375 274.388 188.642 270.056 186.621 266.013C182.577 257.782 178.101 250.274 173.625 243.198C169.148 236.122 164.672 229.624 160.34 223.56C156.008 217.495 151.965 211.863 148.066 206.954C140.268 196.99 132.904 189.77 127.705 185.005C125.106 182.55 123.085 180.817 121.641 179.662C120.919 179.084 120.341 178.651 120.052 178.362C119.619 178.074 119.475 177.929 119.475 177.929C119.475 177.929 119.619 178.074 120.052 178.362C120.485 178.651 120.919 179.229 121.641 179.806C123.085 181.106 125.106 182.839 127.561 185.294C132.759 190.203 139.835 197.423 147.633 207.387C151.531 212.296 155.575 217.928 159.907 223.993C164.094 230.058 168.571 236.7 173.047 243.776C177.523 250.851 182 258.36 185.899 266.591C187.92 270.634 189.653 274.966 191.53 279.298C193.263 283.63 195.14 287.962 197.017 292.438C204.382 310.2 210.735 327.528 215.356 343.556" fill="#182E60"/>
<path d="M186.331 265.869C186.331 265.869 186.62 265.147 186.909 263.558C187.197 262.114 187.631 259.948 187.919 257.349C188.786 252.151 189.652 244.786 190.663 236.844C191.674 228.758 192.685 221.538 193.551 216.34C193.984 213.74 194.417 211.574 194.706 210.13C194.995 208.686 195.139 207.82 195.139 207.82C195.139 207.82 194.851 208.542 194.417 209.986C193.984 211.43 193.551 213.452 192.973 216.195C191.963 221.394 190.807 228.614 189.797 236.7C188.786 244.642 187.919 251.862 187.342 257.349C187.053 259.804 186.764 261.97 186.475 263.558C186.331 265.147 186.331 265.869 186.331 265.869Z" fill="#182E60"/>
<path d="M117.741 252.151C117.741 252.151 118.03 252.151 118.463 252.295C119.041 252.295 119.763 252.44 120.485 252.44C122.218 252.584 124.817 252.873 127.994 253.306C134.347 254.028 143.011 255.472 152.397 257.349C161.928 259.226 170.447 261.392 176.512 263.125C179.544 263.992 181.999 264.714 183.732 265.147C184.454 265.436 185.176 265.58 185.754 265.725C186.187 265.869 186.476 265.869 186.476 265.869C186.476 265.869 186.331 265.724 185.754 265.58C185.176 265.436 184.598 265.147 183.876 264.858C182.144 264.28 179.833 263.414 176.656 262.548C170.592 260.67 162.072 258.504 152.542 256.483C143.011 254.606 134.347 253.306 127.994 252.728C124.817 252.44 122.218 252.295 120.485 252.151C119.618 252.151 119.041 252.151 118.463 252.151C118.03 252.151 117.741 252.151 117.741 252.151Z" fill="#182E60"/>
<path d="M215.211 341.823C215.211 341.823 215.355 341.534 215.644 340.957C215.933 340.379 216.366 339.513 216.799 338.502C217.81 336.336 219.254 333.303 220.987 329.405C224.453 321.607 228.785 310.777 233.55 298.792C238.315 286.807 242.503 275.977 245.824 268.179C247.412 264.425 248.856 261.248 249.723 258.937C250.156 257.927 250.445 257.06 250.733 256.483C251.022 255.905 251.022 255.616 251.022 255.616C251.022 255.616 250.878 255.905 250.589 256.483C250.3 257.06 249.867 257.927 249.434 258.937C248.423 261.103 246.979 264.136 245.246 268.035C241.781 275.832 237.449 286.662 232.683 298.647C227.918 310.633 223.731 321.463 220.409 329.26C218.821 333.015 217.377 336.191 216.511 338.502C216.077 339.513 215.789 340.379 215.5 340.957C215.211 341.534 215.067 341.823 215.211 341.823Z" fill="#182E60"/>
<path d="M124.095 311.355C124.095 311.355 124.384 311.499 124.961 311.788C125.683 312.077 126.55 312.366 127.56 312.654C130.015 313.521 133.336 314.532 137.38 315.976C145.61 318.719 156.874 322.618 169.436 327.094C181.999 331.426 193.262 335.325 201.638 337.924C205.825 339.224 209.146 340.235 211.457 340.957C212.612 341.245 213.478 341.534 214.2 341.679C214.778 341.823 215.211 341.967 215.211 341.823C215.211 341.823 214.922 341.679 214.345 341.39C213.623 341.101 212.756 340.812 211.746 340.523C209.291 339.657 205.97 338.646 201.926 337.347C193.696 334.603 182.432 330.704 169.87 326.228C157.307 321.896 146.044 317.997 137.668 315.398C133.481 314.098 130.16 313.088 127.849 312.366C126.694 312.077 125.828 311.788 125.106 311.644C124.528 311.499 124.239 311.355 124.095 311.355Z" fill="#182E60"/>
<path d="M225.319 109.05H143.878C138.246 109.05 133.77 104.43 133.77 98.9423V58.5103C133.77 52.8787 138.39 48.4023 143.878 48.4023H225.319C230.951 48.4023 235.427 53.0231 235.427 58.5103V98.7979C235.572 104.43 230.951 109.05 225.319 109.05Z" fill="#F6AC3B"/>
<path d="M195.572 107.029L219.687 128.4L221.709 107.462" fill="#F6AC3B"/>
<path d="M171.313 79.5928C171.313 82.914 168.714 85.5132 165.393 85.5132C162.072 85.5132 159.473 82.914 159.473 79.5928C159.473 76.2716 162.072 73.6724 165.393 73.6724C168.714 73.6724 171.313 76.2716 171.313 79.5928Z" fill="white"/>
<path d="M191.818 79.5928C191.818 82.914 189.219 85.5132 185.898 85.5132C182.577 85.5132 179.978 82.914 179.978 79.5928C179.978 76.2716 182.577 73.6724 185.898 73.6724C189.219 73.6724 191.818 76.2716 191.818 79.5928Z" fill="white"/>
<path d="M212.179 79.5928C212.179 82.914 209.579 85.5132 206.258 85.5132C202.937 85.5132 200.338 82.914 200.338 79.5928C200.338 76.2716 202.937 73.6724 206.258 73.6724C209.579 73.6724 212.179 76.2716 212.179 79.5928Z" fill="white"/>
<path d="M520.204 113.314L499.915 164.915L576.376 194.979L596.666 143.378L520.204 113.314Z" fill="#407BFF"/>
<path d="M596.716 144.14C596.716 144.14 596.427 144.284 595.705 144.573C594.983 144.862 593.972 145.15 592.817 145.584C590.218 146.45 586.608 147.75 582.276 149.194C573.178 152.226 560.904 156.414 547.186 161.034L546.898 161.179L546.753 160.89C546.609 160.746 546.464 160.457 546.32 160.312C539.1 147.605 532.458 136.198 527.692 127.678C525.382 123.49 523.505 120.169 522.061 117.714C521.483 116.559 520.906 115.693 520.617 114.971C520.328 114.393 520.184 113.96 520.184 113.96C520.184 113.96 520.472 114.249 520.761 114.826C521.194 115.548 521.628 116.415 522.35 117.426C523.794 119.88 525.671 123.202 528.126 127.245C533.035 135.62 539.678 147.028 546.898 159.735C547.042 160.024 547.186 160.168 547.331 160.312L546.898 160.168C560.616 155.692 573.034 151.504 582.131 148.616C586.608 147.172 590.218 146.017 592.817 145.15C593.972 144.717 594.983 144.428 595.705 144.284C596.282 144.284 596.716 144.14 596.716 144.14Z" fill="black"/>
<path d="M499.968 165.655C499.823 165.511 508.343 160.601 519.028 154.97C529.714 149.194 538.378 144.717 538.378 144.862C538.522 145.006 530.003 149.916 519.317 155.547C508.632 161.323 499.968 165.8 499.968 165.655Z" fill="black"/>
<path d="M564.081 154.103C564.226 154.103 567.258 163.345 570.579 174.752C574.045 186.16 576.644 195.546 576.355 195.69C576.211 195.69 573.179 186.449 569.857 175.041C566.536 163.634 563.793 154.248 564.081 154.103Z" fill="black"/>
<path d="M710.936 657.482C710.936 657.626 569.857 657.915 396 657.915C221.998 657.915 81.0635 657.77 81.0635 657.482C81.0635 657.337 221.998 657.048 396 657.048C569.857 657.193 710.936 657.337 710.936 657.482Z" fill="#263238"/>
<path d="M407.408 357.852C417.696 357.852 426.035 349.512 426.035 339.224C426.035 328.936 417.696 320.596 407.408 320.596C397.12 320.596 388.78 328.936 388.78 339.224C388.78 349.512 397.12 357.852 407.408 357.852Z" fill="#E8505B"/>
<path d="M471.521 357.852C481.809 357.852 490.149 349.512 490.149 339.224C490.149 328.936 481.809 320.596 471.521 320.596C461.233 320.596 452.894 328.936 452.894 339.224C452.894 349.512 461.233 357.852 471.521 357.852Z" fill="#F6AC3B"/>
<path d="M595.561 242.909C595.561 242.909 595.994 242.909 596.716 242.909C597.438 242.909 598.593 242.909 599.893 243.198C601.337 243.487 603.07 244.064 604.947 245.075C606.824 246.086 608.846 247.674 610.579 249.84C612.311 252.006 613.755 255.039 614.333 258.504C614.477 259.371 614.477 260.237 614.622 261.104C614.622 261.97 614.622 262.836 614.622 263.847C614.622 265.724 614.622 267.602 614.622 269.623C614.622 277.565 614.766 286.807 614.766 297.204C614.911 317.853 615.055 342.978 615.199 371.858C615.199 379.078 615.199 386.587 615.344 394.24C615.344 398.139 615.344 402.038 615.344 405.937C615.344 407.958 615.344 409.98 615.344 411.857C615.344 412.868 615.344 413.879 615.344 414.89C615.344 416.045 615.199 417.056 615.055 418.211C614.333 422.543 612.167 426.73 608.701 429.618C605.38 432.651 600.904 434.528 596.283 434.672C587.763 434.672 578.955 434.672 570.002 434.817L571.591 433.373C569.858 451.856 568.125 471.35 566.248 491.71L565.959 494.887L563.504 492.866C541.267 474.527 517.585 455.033 492.893 434.672L494.048 435.106C448.706 435.106 399.899 435.106 349.359 435.106C340.117 435.106 331.02 435.106 321.923 435.106C319.613 435.106 317.447 435.106 315.136 435.106C313.981 435.106 312.97 435.106 311.671 435.106C310.371 435.106 309.216 434.961 307.916 434.672C303.007 433.662 298.675 430.774 295.787 426.73C294.343 424.709 293.332 422.398 292.754 420.088C292.177 417.778 292.032 415.178 292.032 413.012C292.032 408.536 292.032 404.204 292.032 399.728C292.032 390.919 292.032 382.255 292.032 373.591C292.032 338.935 292.177 305.579 292.177 273.811C292.177 269.768 292.177 265.869 292.177 261.97C292.177 259.948 292.321 257.782 293.043 255.761C293.621 253.739 294.631 251.718 295.787 249.985C298.241 246.519 301.707 243.776 305.606 242.476C307.627 241.754 309.649 241.321 311.671 241.321C313.692 241.321 315.425 241.321 317.447 241.321C332.464 241.321 347.193 241.321 361.344 241.465C389.647 241.61 415.927 241.61 440.042 241.754C488.127 242.043 527.115 242.187 553.974 242.332C567.403 242.476 577.8 242.62 585.02 242.62C588.485 242.765 591.229 242.765 593.106 242.765C594.55 242.765 595.561 242.765 595.561 242.909C595.561 242.909 594.695 243.054 592.817 243.054C590.94 243.054 588.341 243.198 584.731 243.198C577.655 243.342 567.259 243.342 553.685 243.487C526.827 243.631 487.839 243.776 439.753 244.064C415.639 244.064 389.358 244.209 361.055 244.353C346.904 244.353 332.32 244.353 317.158 244.498C315.281 244.498 313.403 244.498 311.526 244.498C309.793 244.498 308.061 244.931 306.472 245.364C303.151 246.519 300.263 248.83 298.241 251.573C296.22 254.461 295.209 257.927 295.353 261.681C295.353 265.58 295.353 269.623 295.353 273.522C295.353 305.29 295.353 338.791 295.498 373.302C295.498 381.966 295.498 390.63 295.498 399.439C295.498 403.771 295.498 408.247 295.498 412.724C295.498 415.034 295.498 416.911 296.075 418.933C296.509 420.81 297.375 422.687 298.53 424.276C300.841 427.597 304.451 429.907 308.349 430.774C309.36 430.918 310.371 431.062 311.382 431.062C312.393 431.062 313.548 431.062 314.703 431.062C317.013 431.062 319.179 431.062 321.49 431.062C330.587 431.062 339.684 431.062 348.926 431.062C399.466 431.062 448.273 431.062 493.615 431.062H494.337L494.77 431.496C519.462 451.856 543.144 471.494 565.237 489.833L562.493 490.988C564.371 470.772 566.248 451.134 568.125 432.651L568.269 431.207H569.713C578.666 431.207 587.33 431.207 595.994 431.207C599.893 431.207 603.792 429.618 606.535 427.019C609.423 424.564 611.301 420.954 612.023 417.344C612.167 416.478 612.167 415.467 612.311 414.601C612.311 413.59 612.311 412.579 612.311 411.568C612.311 409.547 612.311 407.525 612.311 405.648C612.311 401.749 612.311 397.85 612.311 393.952C612.311 386.298 612.311 378.79 612.456 371.57C612.6 342.69 612.745 317.564 612.889 296.915C613.033 286.518 613.033 277.421 613.033 269.334C613.033 267.313 613.033 265.436 613.033 263.558C613.033 262.692 613.033 261.681 613.033 260.815C613.033 259.948 613.033 259.082 612.889 258.36C612.456 255.039 611.156 252.295 609.568 250.129C607.979 247.963 606.102 246.375 604.369 245.364C602.637 244.353 600.904 243.631 599.604 243.342C597.005 242.909 595.561 243.054 595.561 242.909Z" fill="#F6AC3B"/>
<path d="M475.997 525.933H194.851C184.165 525.933 175.501 517.269 175.501 506.584V354.964C175.501 344.278 184.165 335.614 194.851 335.614H476.142C486.827 335.614 495.491 344.278 495.491 354.964V506.728C495.347 517.269 486.683 525.933 475.997 525.933Z" fill="#64B9FF"/>
<path d="M370.008 519.868L445.673 587.014L451.883 521.024" fill="#64B9FF"/>
<path d="M275.136 452.145C285.424 452.145 293.764 443.805 293.764 433.517C293.764 423.23 285.424 414.89 275.136 414.89C264.849 414.89 256.509 423.23 256.509 433.517C256.509 443.805 264.849 452.145 275.136 452.145Z" fill="white"/>
<path d="M339.251 452.145C349.538 452.145 357.878 443.805 357.878 433.517C357.878 423.23 349.538 414.89 339.251 414.89C328.963 414.89 320.623 423.23 320.623 433.517C320.623 443.805 328.963 452.145 339.251 452.145Z" fill="white"/>
<path d="M403.364 452.145C413.652 452.145 421.992 443.805 421.992 433.517C421.992 423.23 413.652 414.89 403.364 414.89C393.076 414.89 384.736 423.23 384.736 433.517C384.736 443.805 393.076 452.145 403.364 452.145Z" fill="white"/>
<g opacity="0.3">
<path opacity="0.3" d="M483.506 336.336L453.471 335.47H220.987C240.337 354.675 267.917 364.927 295.064 367.382C322.212 369.837 349.503 365.649 376.362 361.029C403.22 356.408 430.223 351.209 457.37 351.354C463.146 351.354 469.066 351.643 474.409 349.477C479.608 347.455 484.228 342.112 483.506 336.336Z" fill="black"/>
</g>
<path d="M535.634 357.852C545.922 357.852 554.262 349.512 554.262 339.224C554.262 328.936 545.922 320.596 535.634 320.596C525.347 320.596 517.007 328.936 517.007 339.224C517.007 349.512 525.347 357.852 535.634 357.852Z" fill="#F6AC3B"/>
<path d="M375.062 65.2971C360.044 65.1527 345.749 75.9827 341.561 90.2783C339.395 97.6427 339.828 105.585 338.529 113.093C337.229 120.747 333.33 128.689 326.11 131.432C321.345 133.165 316.002 132.443 311.381 134.32C307.049 136.053 303.728 140.096 302.862 144.717C301.995 149.338 303.584 154.247 306.905 157.569C301.273 162.478 299.685 171.431 303.439 177.929C307.049 184.427 315.569 187.748 322.645 185.438C319.901 189.625 320.912 195.546 323.944 199.445C327.121 203.343 332.031 205.509 337.085 206.087C342.139 206.665 347.048 205.798 351.958 204.787C362.932 202.333 373.907 198.434 382.137 190.925C391.235 182.55 396 170.709 399.61 158.868C406.541 136.342 410.151 112.227 404.519 89.4119" fill="#263238"/>
<path d="M324.811 190.492L312.682 217.061L285.968 158.291C284.668 153.525 283.369 148.183 283.08 147.172C282.647 145.583 282.502 143.851 282.647 142.118C282.791 140.096 283.08 137.353 283.802 135.909C284.524 134.176 282.791 132.299 281.347 133.165C279.759 134.031 277.448 138.797 277.593 145.15C277.593 151.359 256.221 136.631 252.756 140.096L255.355 160.745C257.665 162.911 264.308 168.832 268.062 172.153L293.188 234.678C295.498 241.032 300.841 246.086 307.339 247.963C316.869 250.707 327.122 246.519 331.887 237.855L348.06 209.264L324.811 190.492Z" fill="#FFBE9D"/>
<path d="M268.351 121.18C268.784 121.035 269.217 121.324 269.361 121.757L283.224 162.767C283.513 163.489 283.224 164.355 282.502 164.789L266.04 174.03C265.318 174.463 264.596 174.03 264.307 173.308L248.712 130.855C248.423 129.988 248.712 129.122 249.434 128.833L268.351 121.18Z" fill="#263238"/>
<path d="M268.784 124.212L281.491 160.745L265.174 169.409L251.312 131.143L268.784 124.212Z" fill="#F5F5F5"/>
<path d="M254.344 133.598C254.777 134.898 255.643 136.92 256.221 138.075C256.51 138.652 257.232 138.941 257.809 138.797L266.473 135.187L269.506 135.62L268.639 134.032L269.65 133.598C270.228 133.31 270.517 132.588 270.372 132.01L268.639 127.967C268.351 127.389 267.629 127.1 267.051 127.389L255.21 132.154C254.488 132.299 254.199 133.021 254.344 133.598Z" fill="#E0E0E0"/>
<path d="M261.708 155.258C262.141 156.558 263.008 158.579 263.585 159.735C263.874 160.312 264.596 160.601 265.174 160.457L273.838 156.847L276.87 157.28L276.004 155.691L277.014 155.258C277.592 154.969 277.881 154.247 277.736 153.67L276.004 149.627C275.715 149.049 274.993 148.76 274.415 149.049L262.574 153.814C261.852 153.959 261.564 154.681 261.708 155.258Z" fill="#E0E0E0"/>
<path d="M271.817 138.797C272.394 139.952 273.261 141.973 273.838 143.273C274.127 143.851 273.838 144.573 273.261 144.861L264.597 148.471L262.864 150.926L262.286 149.193L261.275 149.627C260.698 149.915 259.976 149.627 259.687 149.049L257.954 144.861C257.665 144.284 257.954 143.562 258.532 143.273L270.228 138.219C270.806 137.93 271.528 138.075 271.817 138.797Z" fill="#E0E0E0"/>
<path d="M252.467 141.251C255.21 141.685 258.676 141.973 261.42 142.407C262.142 142.551 263.008 142.695 263.73 143.129C264.308 143.562 264.741 144.573 264.308 145.295C263.874 146.161 262.719 146.161 261.853 146.161C259.831 146.161 257.521 146.594 255.499 146.45C258.098 146.739 260.553 146.883 263.441 147.316C264.596 147.461 265.896 148.471 265.896 149.771C265.896 150.782 264.885 151.648 263.874 151.793C262.864 151.937 260.698 151.793 260.698 151.793C260.698 151.793 256.51 151.793 256.221 152.37C258.82 152.37 262.286 152.948 265.03 153.092C265.752 153.092 266.04 154.103 266.185 154.825C266.329 155.547 266.04 156.413 265.463 156.702C265.174 156.847 264.741 156.847 264.452 156.847C260.986 156.702 259.254 156.991 255.788 156.847" fill="#FFBE9D"/>
<path d="M315.859 236.122C315.57 236.122 316.581 231.646 315.57 226.159C314.559 220.816 311.96 216.917 312.249 216.773C312.249 216.773 313.115 217.639 313.982 219.227C314.848 220.816 315.859 223.271 316.436 226.014C317.014 228.758 316.87 231.357 316.725 233.234C316.292 235.111 316.003 236.122 315.859 236.122Z" fill="#EB996E"/>
<path d="M265.751 153.381C265.751 153.525 263.007 153.381 259.831 153.092C258.242 152.948 256.654 152.659 255.643 152.659C254.632 152.659 254.199 153.237 254.055 153.092C254.055 153.092 254.055 152.948 254.343 152.659C254.632 152.37 255.065 152.226 255.643 152.081C256.798 151.937 258.242 152.226 259.975 152.37C263.152 152.803 265.751 153.237 265.751 153.381Z" fill="#EB996E"/>
<path d="M264.741 147.461C264.741 147.605 262.142 147.461 258.82 147.172C257.232 147.028 255.788 146.739 254.777 146.739C253.766 146.739 253.333 147.316 253.189 147.172C253.045 147.172 253.478 146.306 254.633 146.161C255.211 146.017 255.932 146.161 256.51 146.161C257.232 146.306 257.954 146.305 258.82 146.45C262.286 146.739 264.885 147.172 264.741 147.461Z" fill="#EB996E"/>
<path d="M347.193 271.212C347.193 271.212 259.253 264.569 233.839 284.497C208.425 304.424 220.554 336.481 220.554 336.481H364.232L369.719 270.201L347.193 271.212Z" fill="#263238"/>
<path d="M363.8 316.842C363.8 316.842 363.366 316.842 362.5 316.698C361.634 316.553 360.478 316.409 358.89 316.264C355.713 315.831 351.092 315.254 345.461 314.243C334.198 312.366 318.602 309.044 301.852 304.135C293.477 301.68 285.535 299.081 278.17 297.348C270.806 295.615 264.164 294.46 258.388 294.171C252.756 293.882 248.135 294.316 244.958 294.893C243.37 295.038 242.215 295.471 241.348 295.615C240.482 295.76 240.049 295.904 240.049 295.904C240.049 295.904 240.482 295.76 241.204 295.471C242.07 295.326 243.226 294.893 244.814 294.604C247.991 293.882 252.612 293.449 258.388 293.594C264.164 293.738 270.95 294.893 278.315 296.626C285.679 298.359 293.621 300.958 301.996 303.413C318.747 308.322 334.198 311.644 345.461 313.665C351.092 314.676 355.713 315.398 358.746 315.976C360.334 316.264 361.489 316.409 362.356 316.553C363.366 316.698 363.8 316.842 363.8 316.842Z" fill="#455A64"/>
<path d="M280.769 297.059C280.624 297.204 277.592 294.027 272.827 291.572C268.061 289.117 263.729 288.395 263.729 288.251C263.729 288.107 264.885 288.251 266.617 288.54C268.35 288.829 270.661 289.695 273.115 290.85C275.57 292.15 277.447 293.594 278.747 294.893C280.191 296.049 280.913 296.915 280.769 297.059Z" fill="#455A64"/>
<path d="M410.874 262.836C410.874 262.836 330.443 265.002 305.028 284.93C279.614 304.857 291.744 336.914 291.744 336.914L442.497 339.224V319.73L423.003 317.564L422.859 316.698C430.512 308.322 424.736 279.442 412.029 264.136L410.874 262.836Z" fill="#263238"/>
<path d="M433.4 318.864C433.4 318.864 432.967 318.864 432.101 318.719C431.234 318.575 430.079 318.431 428.491 318.286C425.314 317.853 420.693 317.275 415.061 316.265C403.798 314.387 388.203 311.066 371.453 306.157C363.077 303.702 355.135 301.103 347.771 299.37C340.407 297.637 333.764 296.482 327.988 296.193C322.357 295.904 317.736 296.337 314.559 296.915C312.971 297.059 311.815 297.493 310.949 297.637C310.083 297.781 309.649 297.926 309.649 297.926C309.649 297.926 310.083 297.781 310.805 297.493C311.671 297.348 312.826 296.915 314.415 296.626C317.591 295.904 322.212 295.471 327.988 295.615C333.764 295.76 340.551 296.915 347.915 298.648C355.28 300.381 363.222 302.98 371.597 305.435C388.347 310.344 403.798 313.665 415.061 315.687C420.693 316.698 425.314 317.42 428.346 317.997C429.935 318.286 431.09 318.431 431.956 318.575C432.967 318.864 433.4 318.864 433.4 318.864Z" fill="#455A64"/>
<path d="M350.37 299.081C350.226 299.225 347.193 296.048 342.428 293.594C337.663 291.139 333.331 290.417 333.331 290.272C333.331 290.128 334.486 290.272 336.219 290.561C337.952 290.85 340.262 291.716 342.717 292.872C345.172 294.171 347.049 295.615 348.349 296.915C349.793 298.214 350.515 299.081 350.37 299.081Z" fill="#455A64"/>
<path d="M369.286 266.158C369.286 266.158 368.853 266.302 367.986 266.302C367.12 266.446 365.965 266.591 364.376 266.735C361.344 267.168 356.867 267.89 351.38 269.046C345.893 270.201 339.395 271.5 332.175 273.233C324.955 274.966 317.302 277.71 309.937 282.042C306.327 284.208 303.006 286.807 300.263 289.695C297.519 292.583 295.353 295.76 293.62 299.081C290.155 305.579 288.999 312.366 288.855 317.853C288.855 323.484 289.866 327.961 290.732 330.849C291.165 332.293 291.599 333.448 291.887 334.314C292.176 335.036 292.321 335.47 292.321 335.47C292.321 335.47 292.032 335.036 291.743 334.314C291.454 333.592 290.877 332.437 290.443 330.993C289.433 327.961 288.277 323.484 288.277 317.853C288.277 312.221 289.433 305.434 292.898 298.792C294.631 295.471 296.797 292.15 299.685 289.262C302.429 286.229 305.894 283.63 309.504 281.464C316.869 276.988 324.666 274.244 331.886 272.511C339.106 270.778 345.604 269.479 351.236 268.468C356.723 267.457 361.199 266.735 364.376 266.446C365.965 266.302 367.12 266.158 367.986 266.013C368.853 266.158 369.286 266.158 369.286 266.158Z" fill="#455A64"/>
<path d="M442.497 320.741L456.215 319.874L465.312 325.217L482.785 327.094C491.16 327.527 492.459 336.48 487.405 336.48C483.362 336.48 458.814 338.069 458.814 338.069L442.497 338.502V320.741Z" fill="#E0E0E0"/>
<path d="M464.879 325.217C464.879 325.361 464.157 325.795 462.713 326.228C461.269 326.661 459.247 326.661 457.081 325.939C454.915 325.073 453.471 323.629 452.749 322.473C451.883 321.318 451.738 320.307 451.883 320.307C452.027 320.307 452.316 321.029 453.182 322.185C454.049 323.195 455.493 324.639 457.37 325.361C459.247 326.083 461.269 326.083 462.568 325.939C464.012 325.506 464.734 325.073 464.879 325.217Z" fill="#455A64"/>
<path d="M486.684 336.336C486.684 336.48 485.962 336.625 484.951 336.047C483.94 335.614 483.074 334.17 482.641 332.726C482.207 331.138 482.352 329.549 482.929 328.683C483.507 327.672 484.085 327.528 484.229 327.528C484.373 327.672 483.796 327.961 483.507 328.972C483.074 329.838 483.074 331.138 483.363 332.582C483.651 334.026 484.373 335.181 485.24 335.614C485.962 336.192 486.684 336.192 486.684 336.336Z" fill="#455A64"/>
<path d="M351.236 153.526C351.236 153.526 334.053 191.214 335.063 197.568C336.074 203.921 340.984 229.48 340.984 229.48L344.594 271.067C344.594 271.067 409.285 263.27 410.729 263.27C412.029 263.27 408.707 228.902 408.707 228.902L418.527 162.912C418.527 162.912 414.05 153.959 393.69 150.782C381.56 148.76 351.236 153.526 351.236 153.526Z" fill="#F6AC3B"/>
<path d="M398.6 204.21C399.322 209.841 400.91 216.339 404.664 223.415C405.964 225.725 407.119 228.758 409.141 230.346C412.318 232.801 416.938 230.491 419.826 227.747C422.714 225.003 425.602 221.538 429.646 221.393C432.245 221.249 434.555 222.693 437.01 223.126C439.465 223.704 442.786 222.837 443.364 220.383C443.652 218.939 443.075 217.495 442.353 216.195C436.144 203.632 431.667 191.647 428.346 177.929C427.624 175.185 424.736 169.554 423.292 167.099C421.848 164.644 418.094 161.179 414.484 158.146" fill="#F6AC3B"/>
<path d="M363.51 150.926C345.749 151.504 332.32 163.345 328.565 171.864C324.089 181.828 320.623 193.813 315.425 203.488C314.414 205.365 313.115 207.242 312.681 209.264C312.248 211.43 312.826 213.885 314.703 214.895C317.447 216.484 321.345 214.462 323.8 216.339C325.1 217.35 325.533 219.227 326.688 220.527C328.132 222.115 330.443 222.404 332.464 222.549C336.507 222.982 340.551 223.415 344.449 223.848" fill="#F6AC3B"/>
<path d="M394.557 187.748C394.557 187.748 394.268 187.315 393.835 186.304C393.401 185.293 392.968 183.994 392.824 182.117C392.246 178.507 392.679 173.164 395.567 168.254C398.455 163.345 403.076 160.457 406.542 159.301C408.275 158.724 409.719 158.435 410.729 158.291C411.74 158.146 412.318 158.146 412.318 158.291C412.318 158.435 410.007 158.579 406.686 159.879C403.365 161.179 399.033 164.067 396.289 168.832C393.546 173.597 392.968 178.795 393.401 182.261C393.69 185.582 394.701 187.748 394.557 187.748Z" fill="#263238"/>
<path d="M345.604 173.02C345.604 173.02 345.316 173.742 344.738 174.897C344.449 175.474 344.016 176.196 343.583 177.063C343.15 177.929 342.716 178.94 342.283 179.951C341.272 182.117 340.406 184.86 339.395 187.893C338.529 190.925 337.807 194.391 337.374 198.001C336.94 201.611 336.94 205.076 337.085 208.253C337.229 211.43 337.662 214.318 338.096 216.628C338.24 217.784 338.529 218.794 338.818 219.805C338.962 220.672 339.251 221.538 339.395 222.116C339.684 223.415 339.973 224.137 339.828 224.137C339.828 224.137 339.54 223.415 339.106 222.116C338.818 221.538 338.673 220.672 338.384 219.805C338.096 218.939 337.807 217.784 337.662 216.628C337.085 214.318 336.796 211.43 336.507 208.253C336.363 205.076 336.363 201.466 336.796 197.856C337.229 194.246 337.951 190.781 338.818 187.604C339.684 184.572 340.839 181.828 341.85 179.662C342.283 178.507 342.861 177.64 343.294 176.774C343.727 175.908 344.16 175.186 344.594 174.608C345.171 173.597 345.604 173.02 345.604 173.02Z" fill="#263238"/>
<path d="M442.353 215.184C442.353 215.184 442.353 215.329 442.208 215.617C442.064 215.906 441.775 216.195 441.342 216.628C440.475 217.35 438.743 217.928 436.865 217.639C434.844 217.35 432.822 216.195 430.367 215.762C427.913 215.184 425.169 216.339 423.003 218.217C420.693 220.094 418.96 222.26 416.649 223.704C415.639 224.426 414.483 225.003 413.328 225.292C412.173 225.581 411.018 225.581 410.151 225.437C408.13 225.292 406.686 224.715 405.675 224.137C405.242 223.848 404.953 223.559 404.809 223.271C404.664 222.982 404.52 222.837 404.664 222.837C404.664 222.837 405.097 223.271 405.964 223.848C406.83 224.426 408.419 224.859 410.296 224.859C411.307 224.859 412.317 224.859 413.328 224.57C414.339 224.281 415.494 223.704 416.505 222.982C418.527 221.538 420.404 219.372 422.714 217.495C423.869 216.628 425.169 215.762 426.613 215.329C427.913 214.895 429.501 214.751 430.801 215.04C433.4 215.617 435.421 216.773 437.299 217.061C439.176 217.35 440.764 216.917 441.631 216.339C442.064 215.762 442.353 215.184 442.353 215.184Z" fill="#FAFAFA"/>
<path d="M438.166 206.809C438.166 206.809 438.166 206.954 438.021 207.242C437.877 207.531 437.732 207.82 437.299 208.253C436.577 208.975 434.989 209.553 433.112 209.12C431.234 208.831 429.357 207.531 427.047 207.531C424.736 207.387 422.282 208.398 419.971 209.842C417.661 211.286 415.784 213.163 413.762 214.462C411.74 215.906 409.719 216.773 407.842 216.917C405.964 217.206 404.52 216.773 403.51 216.34C402.643 215.906 402.21 215.473 402.21 215.473C402.21 215.473 402.643 215.762 403.654 216.051C404.52 216.34 405.964 216.628 407.697 216.34C409.43 216.051 411.452 215.184 413.329 213.885C415.206 212.585 417.228 210.708 419.538 209.12C421.848 207.531 424.448 206.52 427.047 206.665C428.346 206.665 429.357 207.098 430.368 207.531C431.379 207.964 432.245 208.253 433.112 208.542C434.844 208.975 436.288 208.542 437.01 207.964C438.021 207.387 438.166 206.809 438.166 206.809Z" fill="#FAFAFA"/>
<path d="M337.085 217.783C337.085 217.783 336.797 218.217 336.075 218.361C335.353 218.505 334.053 218.361 333.042 217.495C331.887 216.628 331.165 215.184 330.299 213.596C329.577 212.152 328.421 210.419 326.689 209.986C324.811 209.553 322.934 209.986 321.201 210.275C319.469 210.563 317.736 210.708 316.436 210.13C315.137 209.553 314.415 208.686 314.126 207.964C313.837 207.242 313.981 206.809 313.981 206.809C314.126 206.809 313.981 207.242 314.415 207.82C314.703 208.397 315.425 209.264 316.581 209.697C317.736 210.13 319.324 209.986 321.057 209.697C322.79 209.408 324.667 208.831 326.833 209.408C327.844 209.697 328.855 210.275 329.432 211.141C330.01 211.863 330.587 212.729 330.876 213.596C331.598 215.184 332.32 216.628 333.331 217.35C334.342 218.217 335.353 218.361 336.075 218.361C336.652 217.928 337.085 217.783 337.085 217.783Z" fill="#FAFAFA"/>
<path d="M334.919 209.264C334.919 209.264 334.631 209.408 334.053 209.264C333.475 209.12 332.753 208.542 332.32 207.676C331.743 206.809 331.309 205.798 330.443 205.221C329.432 204.643 328.133 204.788 326.689 204.932C325.245 205.221 323.801 205.221 322.501 204.932C321.201 204.643 320.191 204.066 319.324 203.488C317.736 202.333 317.158 201.178 317.158 201.178C317.303 201.033 318.025 202.044 319.613 203.055C321.201 204.066 323.801 204.788 326.544 204.21C327.988 204.066 329.577 203.777 330.732 204.643C331.887 205.51 332.32 206.665 332.753 207.531C333.187 208.398 333.764 208.831 334.197 209.12C334.631 209.264 334.919 209.264 334.919 209.264Z" fill="#FAFAFA"/>
<path d="M402.787 216.773C402.787 216.773 401.92 216.628 400.188 216.195C398.599 215.762 396.144 215.329 393.256 214.751C391.812 214.462 390.224 214.174 388.491 214.029C386.758 213.885 384.881 213.596 383.004 213.74C381.127 213.885 379.105 214.751 377.228 215.618C375.351 216.628 373.474 217.784 371.308 218.794C369.286 219.805 366.976 220.527 364.81 220.672C362.644 220.816 360.478 220.383 358.6 219.95C354.702 218.939 351.38 217.784 348.348 217.495C345.46 217.062 343.005 217.495 341.417 218.217C339.828 218.794 339.106 219.516 339.106 219.372C339.106 219.372 339.251 219.228 339.54 218.939C339.828 218.65 340.406 218.361 341.272 217.928C342.861 217.206 345.316 216.773 348.348 217.062C351.38 217.35 354.846 218.506 358.6 219.372C360.478 219.805 362.499 220.094 364.665 219.95C366.831 219.805 368.853 219.083 370.874 218.072C372.896 217.062 374.773 215.906 376.795 214.896C378.816 213.885 380.694 213.163 382.86 213.018C384.881 212.874 386.758 213.163 388.491 213.307C390.224 213.596 391.812 213.885 393.401 214.174C396.289 214.751 398.744 215.473 400.332 215.906C401.198 216.195 401.776 216.34 402.209 216.484C402.498 216.628 402.787 216.628 402.787 216.773Z" fill="#FAFAFA"/>
<path d="M404.232 223.993C404.232 223.993 403.365 223.704 401.777 222.982C400.188 222.404 398.022 221.393 395.134 220.527C393.69 220.094 392.102 219.661 390.369 219.516C388.637 219.372 386.759 219.516 385.026 220.238C381.272 221.538 377.806 224.137 373.474 225.87C371.308 226.736 368.998 227.025 366.832 227.025C364.666 227.025 362.5 226.736 360.623 226.303C356.724 225.581 353.258 224.859 350.37 224.715C347.482 224.57 345.028 225.003 343.439 225.581C341.851 226.159 341.129 226.736 341.129 226.592C341.129 226.592 341.273 226.447 341.706 226.159C342.14 225.87 342.717 225.581 343.439 225.292C345.028 224.57 347.483 224.137 350.515 224.137C353.547 224.137 357.013 224.859 360.912 225.581C364.81 226.159 369.143 226.736 373.33 225.003C377.518 223.415 380.983 220.671 384.882 219.372C386.759 218.794 388.781 218.505 390.514 218.65C392.246 218.939 393.835 219.372 395.279 219.805C398.167 220.816 400.333 221.682 401.921 222.404C402.643 222.837 403.221 223.126 403.654 223.271C404.087 223.848 404.232 223.993 404.232 223.993Z" fill="#FAFAFA"/>
<path d="M384.881 221.394C384.881 221.394 384.448 221.538 383.87 221.538C383.148 221.682 382.138 221.538 380.982 221.394C379.827 221.249 378.383 220.96 376.795 220.383C375.206 219.805 373.618 219.083 372.174 217.928C370.586 216.773 369.286 215.618 368.275 214.318C367.264 213.018 366.398 211.863 365.82 210.708C365.243 209.553 364.954 208.686 364.81 207.964C364.665 207.242 364.521 206.954 364.665 206.954C364.81 206.954 365.243 208.398 366.398 210.419C366.976 211.43 367.842 212.585 368.853 213.74C369.864 214.896 371.163 216.051 372.607 217.062C374.051 218.072 375.64 218.939 377.084 219.516C378.528 220.094 379.972 220.383 381.127 220.672C383.437 221.394 384.881 221.249 384.881 221.394Z" fill="#263238"/>
<g opacity="0.3">
<path opacity="0.3" d="M364.521 208.831C365.531 214.174 367.553 219.516 371.452 223.415C375.351 227.17 381.415 229.191 386.469 227.17C387.48 226.736 388.635 226.014 388.924 224.859C389.213 223.56 388.202 222.26 386.902 221.827C385.747 221.249 384.303 221.394 383.004 221.249C375.495 220.816 368.275 216.195 364.809 209.408" fill="black"/>
</g>
<path d="M406.975 230.202C406.975 230.202 406.686 229.769 406.397 228.758C406.108 227.892 405.531 226.592 404.953 224.859C403.798 221.538 402.354 216.917 400.765 211.863C399.321 206.809 398.022 202.044 397.3 198.723C396.867 196.99 396.578 195.69 396.433 194.68C396.289 193.669 396.145 193.236 396.145 193.236C396.145 193.236 396.433 193.669 396.578 194.68C396.867 195.835 397.3 197.134 397.733 198.723C398.599 202.044 399.899 206.665 401.487 211.863C402.931 216.917 404.375 221.538 405.386 224.859C405.819 226.448 406.253 227.747 406.541 228.758C406.83 229.624 406.975 230.202 406.975 230.202Z" fill="#263238"/>
<path d="M341.706 271.5C341.706 271.5 354.124 258.071 365.099 255.472C376.073 252.873 415.061 239.01 415.061 239.01L412.606 231.213C415.061 231.068 417.372 229.624 419.104 227.891L421.704 225.437C425.169 221.682 429.213 219.661 435.277 221.682L439.032 222.837L442.93 234.389C446.829 245.797 439.321 258.071 427.335 259.659L341.706 271.5Z" fill="#FFBE9D"/>
<path d="M431.378 240.743C431.234 241.032 427.913 239.299 423.436 238.866C418.96 238.433 415.35 239.299 415.35 239.155C415.205 239.01 418.96 237.711 423.581 238.144C428.201 238.577 431.523 240.599 431.378 240.743Z" fill="#EB996E"/>
<path d="M343.583 88.8343C342.428 70.7843 366.109 57.9327 382.282 62.5535C397.444 66.8855 403.942 74.3943 406.397 84.5023C408.852 94.6103 408.707 105.585 404.808 115.26C402.787 120.025 399.321 124.79 394.267 125.512" fill="#263238"/>
<path d="M391.957 77.5711C394.556 77.8599 396.577 80.1703 396.577 82.7695L393.689 152.226C393.545 160.457 381.56 165.078 372.751 164.933C363.943 164.789 363.51 160.457 363.51 152.515C363.365 139.519 363.365 134.609 363.365 134.609C363.365 134.609 352.102 132.732 349.792 118.148C348.637 110.928 349.07 98.9423 349.647 89.1231C350.225 80.3147 356.001 69.6291 364.809 70.4955L391.957 77.5711Z" fill="#FFBE9D"/>
<path d="M353.402 98.7977C353.402 99.8085 354.124 100.675 355.28 100.675C356.29 100.675 357.157 99.9529 357.157 98.9421C357.157 97.9313 356.435 97.0649 355.28 97.0649C354.269 97.0649 353.402 97.7869 353.402 98.7977Z" fill="#263238"/>
<path d="M352.102 95.621C352.391 95.9098 353.691 94.7546 355.712 94.7546C357.734 94.7546 359.178 95.7654 359.467 95.4766C359.611 95.3322 359.322 94.899 358.745 94.4658C358.167 94.0326 357.012 93.5994 355.712 93.5994C354.413 93.5994 353.402 94.0326 352.824 94.6102C352.247 95.0434 351.958 95.4766 352.102 95.621Z" fill="#263238"/>
<path d="M373.041 98.798C373.041 99.8088 373.763 100.675 374.918 100.675C375.929 100.675 376.795 99.9532 376.795 98.9424C376.795 97.9316 376.073 97.0652 374.918 97.0652C374.052 97.0652 373.185 97.7872 373.041 98.798Z" fill="#263238"/>
<path d="M372.03 95.91C372.319 96.1988 373.618 95.0436 375.64 95.0436C377.661 95.0436 379.105 96.0544 379.394 95.7656C379.539 95.6212 379.25 95.188 378.672 94.7548C378.095 94.3216 376.939 93.8884 375.64 93.8884C374.34 93.8884 373.329 94.3216 372.752 94.8992C372.03 95.3324 371.885 95.7656 372.03 95.91Z" fill="#263238"/>
<path d="M364.665 110.928C364.665 110.783 363.365 110.639 361.344 110.35C360.766 110.35 360.333 110.205 360.188 109.772C360.044 109.339 360.333 108.906 360.477 108.184C360.91 106.884 361.488 105.585 362.066 104.285C364.232 98.6535 365.676 94.0327 365.531 94.0327C365.242 93.8883 363.365 98.3647 361.344 103.996C360.766 105.44 360.333 106.74 359.9 107.895C359.755 108.473 359.322 109.195 359.611 109.917C359.755 110.35 360.188 110.639 360.477 110.639C360.766 110.783 361.055 110.783 361.344 110.783C363.365 111.072 364.665 111.072 364.665 110.928Z" fill="#263238"/>
<path d="M363.221 134.898C363.221 134.898 373.04 135.475 382.859 129.699C382.859 129.699 378.094 139.807 363.509 138.363L363.221 134.898Z" fill="#EB996E"/>
<path d="M365.531 115.837C366.253 114.826 367.553 114.393 368.852 114.538C369.719 114.682 370.585 115.115 371.163 115.837C371.74 116.559 371.74 117.57 371.307 118.292C370.729 119.014 369.574 119.303 368.708 119.014C367.697 118.725 366.975 118.148 366.109 117.426C365.82 117.281 365.675 117.137 365.531 116.848C365.242 116.415 365.242 116.126 365.531 115.837Z" fill="#EB996E"/>
<path d="M370.585 112.372C370.296 112.372 370.296 114.538 368.419 116.126C366.542 117.714 364.231 117.426 364.231 117.714C364.231 117.859 364.809 118.148 365.675 118.148C366.686 118.148 367.986 117.859 369.141 116.848C370.296 115.837 370.729 114.682 370.874 113.671C371.018 112.805 370.729 112.372 370.585 112.372Z" fill="#263238"/>
<path d="M371.019 92.4442C371.163 93.0218 373.185 92.733 375.639 93.0218C377.95 93.3106 379.971 93.8882 380.26 93.455C380.405 93.1662 380.116 92.733 379.249 92.1554C378.527 91.5778 377.228 91.1446 375.784 91.0002C374.34 90.8558 373.04 91.0002 372.174 91.4334C371.452 91.7222 371.019 92.1554 371.019 92.4442Z" fill="#263238"/>
<path d="M352.824 89.7008C353.113 90.134 354.557 89.7008 356.289 89.7008C358.022 89.5564 359.322 89.9896 359.755 89.5564C359.899 89.2676 359.611 88.8344 359.033 88.4012C358.455 87.968 357.445 87.6792 356.289 87.6792C355.134 87.6792 354.124 88.1124 353.546 88.5456C352.968 88.9788 352.68 89.5564 352.824 89.7008Z" fill="#263238"/>
<path d="M371.885 65.8748C366.542 66.0192 362.499 67.6076 357.878 70.2068C353.257 72.806 349.214 76.9936 347.77 82.192C347.481 83.3472 347.337 84.5024 347.915 85.5132C348.637 86.8128 350.514 86.9572 351.958 86.3796C353.257 85.802 354.268 84.5024 355.279 83.3472C356.001 86.0908 358.6 88.1124 361.344 88.1124C364.087 88.1124 366.687 85.9464 367.409 83.3472C367.409 86.0908 370.297 88.5456 373.04 88.4012C375.784 88.2568 378.383 86.0908 379.249 83.4916C379.827 85.9464 380.26 88.5456 381.849 90.5672C383.293 92.5888 386.036 94.0328 388.491 93.3108C388.202 95.4768 387.769 97.7872 388.635 99.8088C389.357 101.83 392.967 146.739 395.133 146.017C397.155 145.295 396.722 99.8088 397.155 97.6427C398.022 93.5996 398.888 89.5564 398.744 85.3687C398.599 81.1812 397.444 76.9936 394.989 73.8168C392.39 70.4956 388.347 68.3296 384.303 67.1744C380.116 66.0192 375.784 66.0192 371.596 66.0192" fill="#263238"/>
<path d="M321.056 123.779C321.056 123.779 320.912 123.49 320.479 123.057C320.046 122.624 319.324 122.191 318.313 121.902C317.302 121.758 315.858 121.758 314.558 122.768C313.403 123.635 312.681 125.512 312.826 127.389C312.97 128.4 313.259 129.266 313.981 130.133C314.558 130.999 315.425 131.721 316.58 132.154C318.602 133.165 321.345 133.165 323.656 132.154C326.11 131.144 328.132 129.266 329.865 127.1C331.598 124.79 332.897 122.191 333.908 119.303C335.785 113.527 336.363 107.606 337.085 102.408C337.807 97.2095 339.106 92.4443 340.839 88.6899C342.428 84.9355 344.738 82.4807 346.471 80.8923C347.337 80.1703 348.059 79.5927 348.637 79.4483C349.214 79.1595 349.359 79.0151 349.503 79.0151C349.503 79.1595 348.492 79.7371 346.76 81.1811C345.171 82.6251 343.005 85.2243 341.417 88.9787C339.828 92.5887 338.673 97.2095 337.951 102.552C337.229 107.751 336.652 113.671 334.774 119.592C333.764 122.48 332.464 125.223 330.587 127.678C328.854 129.988 326.544 132.01 324.089 133.021C321.634 134.032 318.746 134.032 316.436 133.021C315.28 132.443 314.414 131.721 313.692 130.855C312.97 129.844 312.681 128.833 312.537 127.822C312.248 125.801 313.114 123.779 314.558 122.768C316.002 121.758 317.446 121.758 318.602 122.046C319.757 122.335 320.479 122.913 320.912 123.346C320.912 123.49 321.056 123.779 321.056 123.779Z" fill="#263238"/>
<path d="M398.599 147.75C398.599 147.605 399.465 147.316 400.909 146.306C402.353 145.295 404.23 143.562 405.819 141.107C407.551 138.508 408.851 135.042 409.573 131.144C410.151 127.1 409.862 122.624 408.995 118.003C408.129 113.382 406.829 109.05 405.674 105.152C404.519 101.253 403.508 97.6428 402.931 94.6104C402.353 91.578 402.064 88.9788 402.064 87.246C402.064 86.3796 402.064 85.6576 402.064 85.2244C402.064 84.7912 402.064 84.5024 402.209 84.5024C402.209 84.5024 402.209 85.5132 402.353 87.246C402.497 88.9788 402.786 91.4336 403.364 94.466C403.941 97.4984 404.952 101.108 406.252 105.007C407.407 108.906 408.851 113.238 409.717 118.003C410.584 122.624 410.873 127.245 410.295 131.432C409.573 135.476 408.129 139.086 406.396 141.685C404.663 144.284 402.642 146.017 401.198 146.883C400.476 147.316 399.898 147.605 399.465 147.894C398.887 147.75 398.599 147.894 398.599 147.75Z" fill="#263238"/>
<path d="M401.198 138.363C401.198 138.363 401.054 138.508 400.621 138.652C400.332 138.797 399.754 138.941 399.032 139.085C397.588 139.23 395.422 139.085 393.112 137.93C390.802 136.775 388.636 134.32 387.48 131.143C386.181 127.967 386.036 124.068 386.325 120.313C386.614 116.415 387.336 112.805 387.625 109.483C387.914 106.162 388.202 103.13 388.202 100.675C388.202 98.2202 388.202 96.0542 388.202 94.7546C388.202 93.3106 388.202 92.5886 388.202 92.5886C388.202 92.5886 388.347 93.3106 388.491 94.7546C388.636 96.1986 388.78 98.2202 388.78 100.675C388.78 103.274 388.636 106.162 388.347 109.483C388.058 112.805 387.336 116.415 387.047 120.313C386.758 124.068 386.903 127.822 388.058 130.855C389.213 133.887 391.235 136.342 393.256 137.497C395.422 138.797 397.444 138.941 398.888 138.941C400.476 138.652 401.198 138.363 401.198 138.363Z" fill="#263238"/>
<path d="M306.761 151.648C306.761 151.648 306.761 151.215 307.05 150.204C307.338 149.338 308.06 148.038 309.504 147.028C310.948 146.017 312.97 145.15 315.425 145.006C317.88 144.717 320.768 145.15 323.8 145.006C326.832 144.717 330.154 143.706 333.186 141.829C336.218 139.952 339.106 137.208 341.272 133.887C343.583 130.566 345.171 126.523 346.038 122.191C347.048 117.859 347.337 113.238 347.193 108.617C347.048 103.852 346.471 99.3755 346.326 94.8991C346.038 90.4227 346.038 86.0907 347.193 82.0475C348.204 78.0043 350.37 74.5387 353.258 72.0839C356.001 69.6291 359.322 68.1851 362.355 67.4631C365.387 66.8855 368.275 67.0299 370.73 67.7519C373.185 68.3295 375.062 69.3403 376.506 70.3511C377.95 71.3619 378.961 72.2283 379.538 72.9503C379.827 73.2391 380.116 73.5279 380.26 73.6723C380.405 73.8167 380.549 73.9611 380.405 73.9611C380.26 74.1055 379.105 72.5171 376.217 70.6399C374.773 69.7735 372.896 68.7627 370.441 68.1851C368.131 67.6075 365.243 67.4631 362.21 68.0407C359.178 68.6183 356.146 70.0623 353.402 72.5171C350.658 74.8275 348.637 78.2931 347.626 82.1919C346.615 86.0907 346.615 90.4227 346.904 94.8991C347.193 99.3755 347.77 103.996 347.915 108.617C348.059 113.382 347.77 118.003 346.76 122.48C345.749 126.812 344.16 130.999 341.85 134.465C339.54 137.93 336.652 140.674 333.475 142.551C330.298 144.428 326.977 145.584 323.8 145.728C320.623 145.872 317.88 145.439 315.425 145.728C312.97 145.872 310.948 146.594 309.649 147.605C308.205 148.616 307.483 149.771 307.194 150.638C306.905 151.071 306.905 151.648 306.761 151.648Z" fill="#455A64"/>
<path d="M379.25 62.8423C379.25 62.6979 379.972 63.1311 380.694 63.9975C381.416 64.8639 382.282 66.3079 382.427 68.1851C382.571 70.0623 381.994 71.6507 381.416 72.6615C380.838 73.6723 380.261 74.1055 380.116 73.9611C379.972 73.8167 380.405 73.3835 380.983 72.3727C381.416 71.3619 381.849 69.9179 381.705 68.3295C381.56 66.7411 380.838 65.2971 380.261 64.4307C379.683 63.2755 379.106 62.8423 379.25 62.8423Z" fill="#455A64"/>
<path d="M407.985 100.242C407.985 100.242 407.841 99.6643 407.552 98.5091C407.263 97.3539 406.974 95.7655 406.541 93.7439C406.108 91.7223 405.53 89.2675 404.808 86.6683C404.375 85.3687 404.086 83.9247 403.509 82.6251C403.075 81.1811 402.353 79.8815 401.487 78.5819C399.61 76.1271 397.155 74.2499 394.7 73.2391C392.245 72.2283 389.646 72.2283 387.624 72.5171C385.603 72.9503 384.159 73.6723 383.148 74.2499C382.137 74.8275 381.704 75.4051 381.704 75.2607C381.704 75.2607 381.848 75.1163 381.993 74.8275C382.137 74.5387 382.57 74.2499 383.004 73.9611C383.87 73.2391 385.459 72.3727 387.48 71.9395C389.502 71.5063 392.245 71.5063 394.845 72.5171C397.444 73.5279 400.043 75.4051 402.065 78.1487C403.075 79.4483 403.797 80.8923 404.231 82.3363C404.664 83.7803 405.097 85.2243 405.53 86.5239C406.252 89.2675 406.685 91.5779 407.119 93.7439C407.552 95.7655 407.696 97.4983 407.841 98.6535C408.129 99.5199 408.129 100.242 407.985 100.242Z" fill="#455A64"/>
<path d="M380.693 74.3944C380.693 74.5388 378.816 74.1056 376.073 73.2392C374.629 72.806 373.04 72.2284 371.163 72.084C369.286 71.7952 367.12 71.9396 365.098 72.806C363.077 73.528 361.344 74.8276 360.189 76.2716C359.033 77.7156 358.311 79.304 357.878 80.6036C357.012 83.3473 357.445 85.2245 357.301 85.2245C357.301 85.2245 357.156 84.7912 357.012 83.9248C357.012 83.0584 357.012 81.9033 357.301 80.4593C357.589 79.0153 358.311 77.2824 359.611 75.694C360.911 74.1056 362.643 72.806 364.809 71.9396C366.975 71.0732 369.286 70.9288 371.163 71.362C373.185 71.6508 374.773 72.2284 376.217 72.806C378.961 73.8168 380.693 74.3944 380.693 74.3944Z" fill="#455A64"/>
<path d="M671.371 564.055C672.671 559.578 675.414 555.391 679.602 553.514C683.934 551.636 689.132 552.647 693.609 554.38C698.085 555.968 702.561 558.279 707.327 558.568C712.092 558.856 717.579 556.546 718.879 552.07C720.178 547.738 717.579 543.117 714.402 540.084C707.615 533.586 697.363 530.698 688.121 533.009C678.88 535.175 671.082 542.395 667.905 551.348" fill="#4F8CB5"/>
<path d="M633.538 583.26C626.463 576.618 626.896 564.921 630.361 555.968C633.827 546.871 641.48 539.94 650 535.464C666.606 526.655 687.255 525.933 704.294 533.731C695.919 534.02 687.833 538.785 683.501 546.005C679.602 552.358 678.736 560.156 675.559 566.943C671.949 574.452 665.451 580.516 657.797 583.549C650.144 586.437 641.192 586.437 633.538 583.26Z" fill="#74C1C7"/>
<path d="M630.072 543.261C622.275 534.02 621.264 519.291 622.419 507.45C623.574 495.465 626.318 483.48 624.441 471.494C623.285 464.419 620.542 457.776 619.675 450.701C618.809 443.625 620.109 435.683 625.596 431.062C631.949 425.864 641.769 427.019 648.411 431.929C654.909 436.838 658.808 444.636 661.551 452.289C667.616 469.184 669.927 487.956 664.873 505.284C659.819 522.612 648.122 538.063 630.939 543.261" fill="#74C1C7"/>
<path d="M626.318 618.493C626.318 618.493 626.318 618.06 626.318 617.483C626.318 616.761 626.318 615.75 626.318 614.45C626.463 611.851 626.607 607.952 627.185 603.331C627.762 598.711 628.629 593.079 630.217 587.014C631.661 580.949 634.116 574.451 637.582 568.098C641.047 561.744 645.379 556.401 649.711 551.925C654.043 547.449 658.52 543.983 662.418 541.384C664.296 540.084 666.173 539.073 667.906 538.063C669.494 537.196 671.082 536.474 672.238 535.897C673.393 535.463 674.259 535.03 674.981 534.741C675.559 534.453 675.992 534.308 675.992 534.453C675.992 534.453 675.703 534.597 675.126 534.886C674.404 535.175 673.537 535.608 672.382 536.185C671.227 536.763 669.783 537.485 668.194 538.496C666.606 539.507 664.729 540.517 662.852 541.817C658.953 544.416 654.621 548.026 650.289 552.503C645.957 556.979 641.769 562.322 638.304 568.675C631.228 581.238 629.206 594.379 627.762 603.476C627.04 608.097 626.752 611.851 626.607 614.595C626.463 615.894 626.463 616.905 626.463 617.627C626.463 618.205 626.463 618.493 626.318 618.493Z" fill="#263238"/>
<path d="M559.317 507.017C544.877 515.681 545.021 523.623 547.332 530.987C549.786 538.496 558.595 543.694 565.815 540.806C570.002 539.218 572.89 535.608 575.49 531.998C578.089 528.388 580.399 524.489 584.009 521.89C587.619 519.291 592.818 518.28 596.428 520.879" fill="#4F8CB5"/>
<path d="M548.486 516.547C552.241 511.349 561.482 509.905 567.403 512.504C573.323 515.103 577.511 520.302 581.41 525.356C585.308 530.554 589.063 535.897 594.261 539.507C599.604 543.117 606.968 544.416 612.311 540.806C615.777 538.496 617.798 534.308 618.52 530.121C619.098 525.933 618.52 521.746 617.654 517.558C616.354 511.493 614.333 505.284 609.423 501.385C604.08 497.053 596.572 496.909 589.64 497.198C581.698 497.486 573.756 498.064 566.392 500.808C559.172 503.407 551.663 509.327 548.486 516.547Z" fill="#74C1C7"/>
<path d="M614.478 606.942C614.478 606.942 614.478 606.508 614.334 605.642C614.334 604.776 614.189 603.62 614.189 602.032C614.045 598.855 613.9 594.379 613.756 588.892C613.612 583.404 613.323 576.762 612.89 569.398C612.457 562.033 611.879 554.091 610.868 545.716C610.29 541.528 609.713 537.485 608.558 533.731C607.403 529.976 605.814 526.366 604.226 523.189C600.905 516.691 596.717 511.493 592.674 507.739C588.631 503.984 584.732 501.674 581.988 500.374C580.544 499.652 579.533 499.219 578.667 498.93C577.945 498.641 577.512 498.497 577.512 498.497C577.512 498.497 577.945 498.641 578.667 498.786C579.389 499.075 580.544 499.363 581.988 500.085C584.876 501.385 588.775 503.551 592.962 507.305C597.15 511.06 601.338 516.258 604.803 522.756C606.536 526.078 608.125 529.543 609.28 533.442C610.435 537.341 611.157 541.384 611.734 545.571C612.89 553.947 613.323 562.033 613.756 569.398C614.189 576.762 614.334 583.26 614.478 588.892C614.622 594.379 614.622 598.855 614.622 602.032C614.622 603.476 614.622 604.776 614.622 605.642C614.478 606.508 614.478 606.942 614.478 606.942Z" fill="#263238"/>
<path d="M619.531 613.439C619.531 613.439 618.665 611.273 617.943 607.23C617.221 603.187 616.644 597.267 617.221 589.902C617.799 582.538 619.676 574.018 622.708 564.777C625.596 555.535 629.64 545.571 633.105 535.03C634.838 529.687 636.282 524.489 637.293 519.291C638.303 514.092 638.881 509.038 639.314 504.273C640.181 494.598 640.036 485.934 639.747 478.57C639.459 471.205 639.17 465.285 638.881 461.242C638.737 459.22 638.737 457.632 638.592 456.477C638.592 456.044 638.592 455.61 638.592 455.177C638.592 454.888 638.592 454.744 638.592 454.744C638.592 454.744 638.592 454.888 638.592 455.177C638.592 455.466 638.737 455.899 638.737 456.332C638.881 457.488 639.025 459.076 639.17 461.097C639.459 465.141 639.892 471.061 640.325 478.425C640.614 485.79 640.758 494.454 640.036 504.273C639.603 509.183 639.025 514.237 638.015 519.435C637.004 524.633 635.56 529.976 633.827 535.319C630.361 546.005 626.318 555.824 623.43 565.065C620.398 574.307 618.521 582.827 617.799 590.047C617.077 597.267 617.51 603.331 618.232 607.375C618.521 609.396 618.954 610.985 619.243 611.995C619.387 612.429 619.387 612.862 619.531 613.151C619.531 613.295 619.676 613.439 619.531 613.439Z" fill="#263238"/>
<path d="M655.199 619.938H587.764L586.176 606.941H655.199V619.938Z" fill="#263238"/>
<path d="M594.983 618.493L603.359 657.481H640.181L647.978 618.493H594.983Z" fill="#263238"/>
<path d="M655.198 619.938C655.198 620.082 640.325 620.226 621.986 620.226C603.648 620.226 588.774 619.938 588.774 619.793C588.774 619.649 603.648 619.504 621.986 619.504C640.47 619.504 655.198 619.793 655.198 619.938Z" fill="#455A64"/>
<path d="M643.647 639.287C643.502 639.432 641.625 637.41 637.726 635.966C635.705 635.244 633.25 634.522 630.506 634.522C627.763 634.378 624.73 635.1 621.698 636.11C618.666 637.121 615.778 638.421 612.89 638.998C610.002 639.576 607.402 639.576 605.236 639.287C603.07 638.998 601.482 638.276 600.327 637.699C599.749 637.41 599.46 637.121 599.172 636.977C598.883 636.832 598.738 636.688 598.883 636.688C598.883 636.544 601.049 638.276 605.381 638.854C607.402 639.143 610.002 639.143 612.745 638.421C615.489 637.699 618.377 636.544 621.409 635.533C624.442 634.522 627.618 633.8 630.506 633.944C633.394 634.089 635.994 634.666 637.871 635.533C639.892 636.399 641.336 637.41 642.203 638.132C642.636 638.565 643.069 638.854 643.214 638.998C643.647 639.143 643.647 639.287 643.647 639.287Z" fill="#455A64"/>
<path d="M643.213 641.886C643.068 642.031 641.336 640.154 637.437 638.565C635.56 637.843 633.105 637.121 630.506 637.121C627.762 637.121 624.874 637.699 621.986 638.71C618.954 639.72 616.21 640.876 613.611 641.598C611.012 642.32 608.412 642.608 606.391 642.464C604.225 642.32 602.636 641.742 601.626 641.164C601.048 640.876 600.759 640.587 600.47 640.442C600.182 640.298 600.037 640.154 600.182 640.154C600.182 640.154 600.759 640.442 601.77 640.876C602.781 641.309 604.369 641.886 606.391 641.886C608.412 642.031 610.867 641.742 613.466 640.876C616.066 640.154 618.809 638.998 621.842 637.988C624.874 636.977 627.906 636.399 630.65 636.399C633.394 636.544 635.848 637.121 637.87 637.988C639.747 638.854 641.191 639.865 642.058 640.587C642.491 641.02 642.78 641.309 643.068 641.453C643.068 641.742 643.213 641.886 643.213 641.886Z" fill="white"/>
<path d="M644.368 636.688C644.224 636.832 642.347 634.811 638.303 633.078C636.282 632.212 633.827 631.49 630.939 631.345C628.051 631.201 624.874 631.923 621.842 632.934C618.665 633.944 615.777 635.244 612.745 635.822C609.857 636.399 607.113 636.255 604.947 635.822C602.781 635.388 601.048 634.811 599.893 634.233C599.315 633.944 598.882 633.656 598.738 633.511C598.449 633.367 598.305 633.222 598.305 633.222C598.305 633.222 598.882 633.511 600.037 634.089C601.193 634.522 602.781 635.1 604.947 635.388C607.113 635.677 609.712 635.822 612.6 635.244C615.344 634.666 618.376 633.367 621.553 632.212C624.73 631.056 628.051 630.334 630.939 630.623C633.972 630.768 636.426 631.634 638.448 632.645C640.469 633.511 641.913 634.666 642.924 635.388C643.357 635.822 643.791 636.11 643.935 636.399C644.224 636.544 644.368 636.688 644.368 636.688Z" fill="white"/>
<path d="M172.181 595.101C169.293 599.288 163.661 597.844 160.917 595.39C158.318 592.79 157.163 589.18 156.152 585.715C153.842 577.628 151.531 569.253 153.264 561.167C153.842 558.712 154.708 556.257 156.441 554.524C158.174 552.647 160.773 551.636 163.228 552.214C166.116 552.936 167.849 555.824 169.148 558.423C172.903 566.221 174.924 574.885 174.924 583.549C174.924 587.592 174.491 591.78 172.181 595.101Z" fill="#74C1C7"/>
<g opacity="0.2">
<g opacity="0.2">
<g opacity="0.2">
<path opacity="0.2" d="M172.181 595.101C169.293 599.288 163.661 597.844 160.917 595.39C158.318 592.79 157.163 589.18 156.152 585.715C153.842 577.628 151.531 569.253 153.264 561.167C153.842 558.712 154.708 556.257 156.441 554.524C158.174 552.647 160.773 551.636 163.228 552.214C166.116 552.936 167.849 555.824 169.148 558.423C172.903 566.221 174.924 574.885 174.924 583.549C174.924 587.592 174.491 591.78 172.181 595.101Z" fill="black"/>
</g>
</g>
</g>
<path d="M161.35 616.183C156.585 613.728 150.953 613.439 145.755 614.306C142.867 614.739 139.979 615.605 137.957 617.771C136.08 619.937 135.647 623.692 137.813 625.425C139.113 626.58 140.99 626.724 142.723 626.724C146.91 626.724 151.387 626.002 154.708 628.457C156.585 629.901 157.885 632.211 160.051 632.933C162.217 633.655 164.816 632.356 165.971 630.334C167.126 628.313 167.126 625.858 166.693 623.547C166.693 623.547 166.115 618.638 161.35 616.183Z" fill="#74C1C7"/>
<path d="M180.267 601.166C177.09 597.411 176.512 591.924 177.956 587.303C179.4 582.538 182.577 578.639 186.187 575.318C190.519 571.419 195.573 568.531 200.916 566.654C203.082 565.932 205.248 565.354 207.558 565.499C209.869 565.643 212.035 566.798 213.19 568.82C214.778 571.852 213.19 575.318 211.601 578.35C208.713 583.549 205.537 588.458 201.927 593.079C199.039 596.834 195.717 600.588 191.241 602.176C186.765 603.909 182.144 603.62 179.833 600.588" fill="#74C1C7"/>
<path d="M172.469 657.915C172.469 657.915 172.325 657.193 172.181 656.038C172.036 654.594 171.892 653.005 171.747 650.839C171.459 648.673 171.17 646.074 170.592 643.33C170.015 640.587 169.004 637.554 167.849 634.378C166.549 631.345 165.105 628.457 163.228 626.291C161.495 624.125 159.329 622.392 157.452 621.526C155.575 620.515 153.842 620.226 152.542 620.082C151.387 619.938 150.665 619.793 150.665 619.793C150.665 619.793 151.387 619.793 152.542 619.793C153.697 619.938 155.575 620.226 157.596 621.093C159.618 621.959 161.784 623.692 163.661 625.858C165.538 628.168 167.127 630.912 168.426 634.089C169.726 637.266 170.592 640.298 171.17 643.186C171.747 646.074 172.036 648.673 172.181 650.839C172.325 653.005 172.469 654.738 172.469 656.038C172.469 657.193 172.469 657.915 172.469 657.915Z" fill="#263238"/>
<path d="M172.035 653.872C172.035 653.872 172.035 653.583 172.035 653.005C172.035 652.283 172.035 651.561 172.035 650.55C172.035 648.384 172.035 645.208 171.891 641.309C171.746 633.511 171.024 622.826 169.725 610.985C168.425 599.144 166.692 588.603 165.104 580.95C164.671 579.072 164.382 577.34 163.949 575.751C163.66 574.307 163.371 573.008 163.082 571.852C162.794 570.842 162.649 570.12 162.505 569.398C162.36 568.82 162.36 568.531 162.36 568.531C162.36 568.531 162.505 568.82 162.649 569.398C162.794 569.975 163.082 570.842 163.371 571.852C163.66 572.863 164.093 574.163 164.382 575.751C164.815 577.195 165.248 578.928 165.537 580.805C167.27 588.458 169.003 599 170.447 610.84C171.746 622.681 172.324 633.367 172.324 641.164C172.324 645.063 172.324 648.24 172.18 650.406C172.18 651.417 172.035 652.283 172.035 652.861C172.18 653.583 172.035 653.872 172.035 653.872Z" fill="#263238"/>
<path d="M172.036 633.078C172.036 633.078 172.036 632.212 172.036 630.479C172.181 628.746 172.325 626.291 172.903 623.403C173.336 620.371 174.058 616.905 175.213 613.006C176.224 609.108 177.668 605.064 179.545 600.732C183.155 592.213 188.065 585.282 192.252 580.95C193.263 579.794 194.418 578.928 195.285 578.206C195.718 577.773 196.151 577.484 196.584 577.195C197.017 576.906 197.451 576.618 197.739 576.329C199.183 575.318 199.905 574.885 199.905 574.885C200.05 575.029 196.729 576.906 192.685 581.383C188.642 585.715 183.877 592.646 180.267 601.021C178.39 605.209 176.946 609.396 175.935 613.151C174.78 616.905 174.058 620.515 173.48 623.403C172.903 626.291 172.614 628.746 172.469 630.479C172.181 632.212 172.036 633.078 172.036 633.078Z" fill="#263238"/>
</svg>
