<svg width="960" height="579" viewBox="0 0 960 579" fill="none" xmlns="http://www.w3.org/2000/svg">
<g clip-path="url(#clip0)">
<mask id="mask0" mask-type="alpha" maskUnits="userSpaceOnUse" x="0" y="-1" width="1920" height="580">
<rect y="-1" width="1920" height="580" fill="#C4C4C4"/>
<rect y="-1" width="1920" height="580" fill="url(#paint0_linear)"/>
</mask>
<g mask="url(#mask0)">
<rect y="-3" width="1920" height="651" fill="#C4C4C4"/>
<rect y="-3" width="1920" height="651" fill="url(#paint1_linear)"/>
<rect y="-1" width="1920" height="629" fill="#C4C4C4"/>
<rect y="-1" width="1920" height="629" fill="url(#paint2_linear)"/>
<path d="M-123.316 594.023C87.181 278.927 606.669 629.553 970.826 413.15C1054.3 359.453 1106.05 292 1106.05 292L1121.29 724.708L-143.301 847.314C-143.301 847.314 -176.557 673.719 -123.316 594.023Z" fill="url(#paint3_linear)"/>
</g>
</g>
<defs>
<linearGradient id="paint0_linear" x1="0" y1="579" x2="1566.03" y2="-510.019" gradientUnits="userSpaceOnUse">
<stop stop-color="#1E4ED1"/>
<stop offset="1" stop-color="#2961D2"/>
</linearGradient>
<linearGradient id="paint1_linear" x1="0" y1="648" x2="1678.89" y2="-392.17" gradientUnits="userSpaceOnUse">
<stop stop-color="#1E4ED1"/>
<stop offset="1" stop-color="#2961D2"/>
</linearGradient>
<linearGradient id="paint2_linear" x1="0" y1="628" x2="1646.38" y2="-427.709" gradientUnits="userSpaceOnUse">
<stop stop-color="#1E4ED1"/>
<stop offset="1" stop-color="#2961D2"/>
</linearGradient>
<linearGradient id="paint3_linear" x1="478.76" y1="346.976" x2="512.301" y2="555.38" gradientUnits="userSpaceOnUse">
<stop stop-color="#53DAF4"/>
<stop offset="1" stop-color="#41C2DB"/>
</linearGradient>
<clipPath id="clip0">
<rect width="960" height="579" fill="white"/>
</clipPath>
</defs>
</svg>
