<svg width="407" height="300" viewBox="0 0 407 300" fill="none" xmlns="http://www.w3.org/2000/svg">
<g clip-path="url(#clip0)">
<path d="M327.828 61.8096C328.146 59.6472 325.093 57.93 322.867 57.7392C321.786 57.6756 320.641 57.8028 319.623 57.4848C317.397 56.7216 316.507 53.8596 314.345 52.9056C312.755 52.206 310.847 52.842 309.32 53.6052C307.73 54.3684 306.204 55.386 304.423 55.5132C302.897 55.6404 301.243 55.068 299.907 55.7676C298.89 56.34 298.381 57.4848 297.491 58.1208C296.6 58.7568 295.455 58.9476 294.311 59.0112C293.229 59.0748 292.021 59.0748 291.003 59.52C289.986 59.9652 289.159 61.0464 289.35 62.1276L327.828 61.8096Z" fill="#AACCFF"/>
<path d="M255.643 207.581C255.77 207.581 255.961 207.517 256.152 207.517C256.343 207.454 256.534 207.454 256.724 207.39C256.788 207.39 256.915 207.326 256.979 207.263C257.106 207.199 257.17 207.136 257.233 207.072C257.551 206.69 263.275 193.462 263.72 192.19C263.784 191.999 263.848 191.808 263.848 191.617V191.681C263.975 190.6 263.339 190.091 263.339 190.091L253.99 207.899H252.082L246.803 208.153C246.612 208.153 246.421 208.344 246.421 208.535V210.634C242.478 212.732 235.8 216.294 235.037 216.803C234.846 216.93 234.719 217.057 234.528 217.184H234.592C233.828 217.948 234.019 218.774 234.019 218.774L249.283 212.033L249.029 227.551V229.268V230.286V230.604L248.774 248.158H253.799L252.781 230.54V230.413L252.718 229.205L252.59 227.106L251.636 211.27H252.145H253.862C253.862 211.524 253.926 211.842 253.99 212.16C253.799 212.351 252.972 213.114 252.972 213.559C252.972 214.068 255.898 228.187 256.279 229.459C256.343 229.65 256.406 229.841 256.47 230.032V229.968C256.979 230.922 257.806 230.922 257.806 230.922L255.198 211.079C255.325 210.952 255.389 210.824 255.389 210.634L255.325 209.552C255.325 209.425 255.389 209.298 255.389 209.171C255.389 209.044 255.389 208.98 255.325 208.853V208.471C255.325 208.217 255.516 207.899 255.643 207.581Z" fill="#EBEBEB"/>
<path d="M304.107 233.084C304.17 233.084 304.361 233.084 304.488 233.021C304.616 233.021 304.806 232.957 304.934 232.894C304.997 232.894 305.061 232.83 305.124 232.83C305.188 232.766 305.315 232.703 305.315 232.703C305.57 232.385 310.022 222.209 310.34 221.191C310.403 221 310.403 220.873 310.467 220.746V220.81C310.594 219.983 310.022 219.601 310.022 219.601L302.771 233.339H301.308L297.238 233.53C297.047 233.53 296.984 233.657 296.984 233.848V235.438C293.931 237.028 288.779 239.826 288.207 240.208C288.08 240.335 287.952 240.398 287.825 240.526H287.889C287.316 241.098 287.444 241.734 287.444 241.734L299.21 236.519L299.019 248.476V249.811V250.574V250.829L298.764 264.312H302.644L301.817 250.702V250.574L301.754 249.684L301.626 248.03L300.927 235.819H301.308H302.644C302.644 236.01 302.708 236.264 302.708 236.519C302.517 236.646 301.944 237.218 301.881 237.6C301.881 237.982 304.107 248.857 304.425 249.875C304.488 250.066 304.552 250.193 304.616 250.32V250.256C304.997 250.956 305.633 251.02 305.633 251.02L303.598 235.692C303.662 235.628 303.725 235.501 303.725 235.374L303.662 234.547C303.662 234.484 303.725 234.356 303.662 234.293C303.662 234.229 303.662 234.102 303.598 234.038V233.72C303.852 233.593 303.98 233.339 304.107 233.084Z" fill="#EBEBEB"/>
<path d="M299.59 263.04C283.817 253.309 265.628 247.331 247.12 247.394C228.676 247.458 210.804 253.436 193.696 260.178C167.175 270.608 139.064 286.572 114.387 300.755H339.912C328.655 286 315.363 272.771 299.59 263.04Z" fill="#CFE2FF"/>
<path d="M66.3047 300.755C66.3047 300.755 95.7515 270.354 164.185 264.121C232.619 257.888 333.17 300.755 333.17 300.755H66.3047Z" fill="#AACCFF"/>
<path d="M283.627 88.3308C284.263 83.9424 278.03 80.2536 273.324 79.872C271.098 79.6812 268.745 80.0628 266.646 79.2996C262.067 77.7096 260.222 71.7948 255.77 69.8868C252.4 68.4876 248.584 69.7596 245.34 71.3496C242.096 73.0032 238.916 75.0384 235.291 75.2928C232.111 75.4836 228.74 74.3388 225.942 75.8652C223.907 77.01 222.826 79.3632 220.918 80.7624C219.073 82.098 216.656 82.416 214.367 82.5432C212.077 82.6704 209.66 82.6704 207.625 83.6244C205.526 84.5784 203.809 86.8044 204.254 89.0304L283.627 88.3308Z" fill="#EBEBEB"/>
<path d="M107.582 175.145H114.514C115.214 175.145 115.786 175.717 115.85 176.544L116.104 182.522C116.168 183.349 115.532 184.049 114.832 184.049L107.646 184.176V175.145H107.582Z" fill="#AACCFF"/>
<path d="M122.973 182.522C124.373 182.65 162.087 176.48 165.522 175.59C169.401 174.572 169.656 171.647 169.656 171.647L112.797 176.671L112.543 180.042L119.285 179.533C119.221 179.47 121.574 182.395 122.973 182.522Z" fill="#AACCFF"/>
<path d="M165.522 175.59C166.094 175.463 166.603 175.272 167.048 175.081L164.631 175.272L119.221 179.47C119.221 179.47 121.51 182.395 122.91 182.522C124.309 182.65 162.024 176.48 165.522 175.59Z" fill="#EBEBEB"/>
<path d="M114.324 179.851C114.324 179.788 119.476 179.215 125.899 178.643C132.259 178.07 137.475 177.689 137.475 177.752C137.475 177.816 132.323 178.388 125.899 178.961C119.476 179.533 114.324 179.978 114.324 179.851Z" fill="#AACCFF"/>
<path d="M100.268 184.112L98.6777 281.866H112.034L106.246 184.112H100.268Z" fill="#AACCFF"/>
<path d="M100.267 184.112L100.076 196.006L106.627 190.154L106.245 184.112H100.267Z" fill="#AACCFF"/>
<path d="M92.6367 176.926V183.095C92.6367 183.667 93.0819 184.112 93.6543 184.112H107.583V175.145L93.6543 175.908C93.0819 175.908 92.6367 176.353 92.6367 176.926Z" fill="#AACCFF"/>
<path d="M106.373 170.057C105.292 169.166 70.9481 152.44 67.6409 151.168C63.8885 149.768 61.9805 152.058 61.9805 152.058L111.334 180.805L113.433 178.198L107.582 174.763C107.582 174.7 107.391 170.947 106.373 170.057Z" fill="#AACCFF"/>
<path d="M67.5763 151.168C67.0039 150.977 66.4951 150.786 65.9863 150.722L68.0851 151.994L107.581 174.763C107.581 174.763 107.39 171.011 106.309 170.12C105.291 169.103 70.9471 152.44 67.5763 151.168Z" fill="#EBEBEB"/>
<path d="M92.9534 166.241C92.9534 166.241 93.2714 166.368 93.7802 166.686C94.3526 167.004 95.0522 167.386 95.9426 167.894C97.787 168.976 100.267 170.375 103.002 171.901C105.737 173.491 108.217 174.89 109.998 175.972C110.889 176.544 111.588 176.989 112.097 177.307C112.606 177.625 112.86 177.816 112.86 177.816C112.86 177.816 112.542 177.689 112.033 177.371C111.461 177.053 110.761 176.671 109.871 176.162C108.027 175.081 105.546 173.682 102.811 172.156C100.077 170.566 97.5962 169.166 95.8154 168.085C94.925 167.513 94.2254 167.068 93.7166 166.75C93.2078 166.432 92.8898 166.241 92.9534 166.241Z" fill="#AACCFF"/>
<path d="M99.5675 226.088H108.726L109.044 231.749H99.5039L99.5675 226.088Z" fill="#EBEBEB"/>
<path d="M99.4414 233.72H109.172L109.299 235.183L99.4414 235.247V233.72Z" fill="#EBEBEB"/>
<path d="M110.826 191.236C111.08 192.571 127.68 227.042 129.524 230.095C131.56 233.53 134.485 232.957 134.485 232.957L113.624 179.788L110.381 180.487L112.798 186.784C112.734 186.847 110.572 189.9 110.826 191.236Z" fill="#AACCFF"/>
<path d="M129.524 230.095C129.842 230.604 130.16 231.049 130.478 231.431L129.588 229.141L112.733 186.784C112.733 186.784 110.571 189.836 110.825 191.172C111.143 192.635 127.679 227.042 129.524 230.095Z" fill="#EBEBEB"/>
<path d="M110.253 180.233C110.253 180.169 110.38 180.487 110.635 180.996C110.889 181.568 111.207 182.332 111.589 183.222C112.352 185.066 113.433 187.674 114.578 190.536C115.723 193.398 116.74 196.006 117.376 197.914C117.694 198.868 118.012 199.631 118.14 200.203C118.33 200.776 118.394 201.03 118.394 201.03C118.394 201.03 118.267 200.776 118.012 200.203C117.758 199.631 117.504 198.868 117.122 197.977C116.359 196.006 115.341 193.462 114.196 190.6C113.052 187.738 112.034 185.194 111.271 183.222C110.953 182.332 110.635 181.568 110.444 180.996C110.317 180.551 110.19 180.233 110.253 180.233Z" fill="#AACCFF"/>
<path d="M114.197 178.961C114.197 179.597 114.706 180.869 114.324 181.25C114.006 181.568 112.671 181.505 111.971 181.505C110.763 181.505 109.809 180.36 109.809 178.897C109.809 177.498 110.763 176.289 111.971 176.289C112.607 176.289 113.497 176.162 114.388 176.48C114.96 176.735 114.197 178.261 114.197 178.961Z" fill="#AACCFF"/>
<path d="M115.788 178.961C115.788 180.36 114.834 181.568 113.625 181.568C112.417 181.568 111.463 180.424 111.463 178.961C111.463 177.562 112.417 176.353 113.625 176.353C114.834 176.353 115.788 177.498 115.788 178.961Z" fill="#AACCFF"/>
<path d="M111.525 176.353C111.525 176.353 111.843 176.29 112.352 176.29C112.607 176.29 112.925 176.29 113.243 176.226C113.433 176.226 113.624 176.162 113.815 176.226C114.006 176.226 114.26 176.29 114.451 176.417C115.214 176.735 115.85 177.689 115.914 178.706C115.977 179.597 115.659 180.424 115.151 180.932C114.642 181.505 113.942 181.696 113.433 181.632C112.543 181.632 111.971 181.568 111.971 181.568C111.971 181.505 112.479 181.505 113.37 181.441C113.815 181.505 114.451 181.314 114.896 180.805C115.341 180.296 115.596 179.597 115.532 178.77C115.469 177.88 114.96 177.053 114.26 176.735C114.069 176.671 113.879 176.608 113.688 176.544C113.497 176.544 113.306 176.544 113.115 176.544C112.797 176.544 112.479 176.544 112.225 176.48C111.843 176.417 111.525 176.417 111.525 176.353Z" fill="#AACCFF"/>
<path d="M113.434 181.441C113.434 181.505 113.053 181.441 112.544 181.123C112.035 180.805 111.463 180.106 111.335 179.152C111.208 178.198 111.59 177.371 112.035 176.989C112.417 176.544 112.798 176.417 112.798 176.417C112.798 176.48 112.544 176.671 112.226 177.116C111.908 177.562 111.59 178.325 111.717 179.088C111.844 179.915 112.289 180.551 112.735 180.869C113.116 181.314 113.434 181.441 113.434 181.441Z" fill="#AACCFF"/>
<path d="M112.48 181.505C112.48 181.568 112.098 181.632 111.462 181.378C110.89 181.187 110.063 180.551 109.745 179.533C109.49 178.516 109.808 177.625 110.254 177.116C110.635 176.608 111.08 176.417 111.08 176.48C111.144 176.544 110.762 176.735 110.444 177.244C110.126 177.752 109.872 178.579 110.063 179.47C110.317 180.36 111.017 180.932 111.526 181.187C112.098 181.441 112.48 181.441 112.48 181.505Z" fill="#AACCFF"/>
<path d="M180.914 196.96H185.175C185.62 196.96 185.938 197.341 186.002 197.786L186.193 201.475C186.193 201.984 185.875 202.429 185.366 202.429L180.914 202.493V196.96Z" fill="#AACCFF"/>
<path d="M182.186 206.245C182.123 207.072 186.956 230.286 187.592 232.385C188.292 234.738 190.136 234.802 190.136 234.802L185.557 199.758L183.458 199.694L183.967 203.828C184.031 203.892 182.25 205.418 182.186 206.245Z" fill="#AACCFF"/>
<path d="M187.592 232.385C187.719 232.703 187.846 233.021 187.973 233.339L187.782 231.876L183.966 203.892C183.966 203.892 182.186 205.418 182.186 206.245C182.186 207.136 186.956 230.286 187.592 232.385Z" fill="#EBEBEB"/>
<path d="M183.65 200.839C183.713 200.839 184.222 204.019 184.731 207.962C185.24 211.906 185.621 215.086 185.494 215.086C185.43 215.086 184.922 211.906 184.413 207.962C183.904 204.083 183.522 200.839 183.65 200.839Z" fill="#AACCFF"/>
<path d="M176.397 202.493L175.443 263.04H183.648L180.086 202.493H176.397Z" fill="#AACCFF"/>
<path d="M176.399 202.493L176.271 209.87L180.342 206.245L180.087 202.493H176.399Z" fill="#AACCFF"/>
<path d="M171.691 198.041V201.857C171.691 202.238 171.946 202.493 172.327 202.493H180.913V196.96L172.264 197.405C171.946 197.405 171.691 197.659 171.691 198.041Z" fill="#AACCFF"/>
<path d="M189.499 195.624C190.008 194.924 199.484 173.237 200.184 171.138C200.947 168.785 199.484 167.64 199.484 167.64L183.012 198.995L184.665 200.267L186.637 196.578C186.637 196.578 188.99 196.324 189.499 195.624Z" fill="#AACCFF"/>
<path d="M200.184 171.138C200.312 170.82 200.375 170.438 200.439 170.184L199.739 171.52L186.701 196.578C186.701 196.578 188.991 196.387 189.563 195.688C190.008 194.988 199.485 173.237 200.184 171.138Z" fill="#EBEBEB"/>
<path d="M191.533 187.229C191.597 187.229 191.215 187.992 190.643 189.137C190.007 190.345 189.244 191.935 188.353 193.589C187.463 195.37 186.636 196.896 186 198.041C185.364 199.186 184.919 199.822 184.919 199.822C184.855 199.822 185.237 199.058 185.809 197.914C186.445 196.705 187.209 195.115 188.099 193.462C188.989 191.744 189.816 190.154 190.452 189.01C191.025 187.865 191.47 187.229 191.533 187.229Z" fill="#AACCFF"/>
<path d="M175.952 228.505H181.613L181.867 232.003H175.889L175.952 228.505Z" fill="#EBEBEB"/>
<path d="M175.889 233.212H181.931L181.994 234.102L175.889 234.166V233.212Z" fill="#EBEBEB"/>
<path d="M176.461 198.995C175.635 199.186 154.774 210.38 152.929 211.588C150.831 212.924 151.339 214.705 151.339 214.705L183.712 200.395L183.203 198.359L179.323 200.013C179.26 200.077 177.352 198.805 176.461 198.995Z" fill="#AACCFF"/>
<path d="M152.928 211.588C152.61 211.778 152.356 211.969 152.102 212.224L153.501 211.651L179.259 200.14C179.259 200.14 177.287 198.868 176.46 199.058C175.634 199.249 154.773 210.379 152.928 211.588Z" fill="#EBEBEB"/>
<path d="M183.266 198.295C183.329 198.359 182.63 198.677 181.485 199.249C180.34 199.822 178.814 200.521 177.033 201.284C175.252 202.048 173.662 202.747 172.517 203.192C171.373 203.638 170.609 203.892 170.609 203.828C170.609 203.765 171.309 203.447 172.454 202.938C173.662 202.366 175.252 201.666 176.906 200.903C178.623 200.14 180.213 199.44 181.421 198.931C182.566 198.55 183.266 198.295 183.266 198.295Z" fill="#AACCFF"/>
<path d="M184.983 199.249C184.983 199.631 185.301 200.394 185.046 200.648C184.856 200.839 184.029 200.839 183.584 200.839C182.82 200.839 182.248 200.139 182.248 199.249C182.248 198.359 182.82 197.659 183.584 197.659C183.965 197.659 184.538 197.595 185.11 197.786C185.492 197.913 184.983 198.867 184.983 199.249Z" fill="#AACCFF"/>
<path d="M186.001 199.249C186.001 200.14 185.429 200.839 184.666 200.839C183.902 200.839 183.33 200.14 183.33 199.249C183.33 198.359 183.902 197.659 184.666 197.659C185.365 197.659 186.001 198.422 186.001 199.249Z" fill="#AACCFF"/>
<path d="M183.393 197.659C183.393 197.659 183.583 197.596 183.901 197.596L184.474 197.532C184.601 197.532 184.728 197.532 184.855 197.532C184.983 197.532 185.11 197.596 185.301 197.659C185.809 197.85 186.191 198.486 186.255 199.122C186.318 199.694 186.127 200.203 185.746 200.585C185.428 200.966 184.983 201.094 184.601 201.03C184.029 201.03 183.711 200.966 183.711 200.903C183.711 200.839 184.029 200.839 184.601 200.776C184.855 200.776 185.237 200.648 185.491 200.394C185.746 200.076 185.873 199.631 185.873 199.186C185.809 198.613 185.491 198.168 185.11 197.977C184.919 197.85 184.665 197.85 184.474 197.85L183.901 197.786C183.583 197.723 183.393 197.723 183.393 197.659Z" fill="#AACCFF"/>
<path d="M184.539 200.839C184.539 200.903 184.284 200.903 183.966 200.648C183.648 200.458 183.267 200.012 183.203 199.44C183.14 198.868 183.394 198.295 183.648 198.041C183.903 197.786 184.157 197.723 184.157 197.723C184.157 197.786 184.03 197.914 183.839 198.168C183.648 198.422 183.458 198.868 183.521 199.376C183.585 199.885 183.903 200.267 184.094 200.458C184.348 200.712 184.539 200.776 184.539 200.839Z" fill="#AACCFF"/>
<path d="M183.965 200.903C183.965 200.966 183.711 201.03 183.329 200.839C182.948 200.712 182.439 200.33 182.248 199.694C182.057 199.058 182.312 198.422 182.566 198.168C182.821 197.85 183.075 197.786 183.075 197.786C183.075 197.85 182.884 197.977 182.757 198.295C182.566 198.613 182.439 199.122 182.566 199.631C182.693 200.14 183.139 200.521 183.457 200.648C183.711 200.776 183.965 200.839 183.965 200.903Z" fill="#AACCFF"/>
<path d="M201.456 58.248C201.837 55.5132 198.021 53.2872 195.096 53.0328C193.697 52.9056 192.297 53.16 190.962 52.6512C188.163 51.6972 187.019 48.0084 184.284 46.8636C182.249 45.9732 179.832 46.8 177.86 47.754C175.889 48.7716 173.917 50.0436 171.627 50.1708C169.656 50.298 167.557 49.5984 165.903 50.5524C164.631 51.252 163.995 52.7148 162.787 53.6052C161.642 54.432 160.179 54.6228 158.717 54.6864C157.317 54.75 155.855 54.75 154.519 55.386C153.247 55.9584 152.166 57.3576 152.42 58.7568L201.456 58.248Z" fill="#AACCFF"/>
<path d="M323.313 141.437C324.013 141.373 317.525 149.005 317.525 149.005H320.26L317.971 154.984L324.776 147.161H321.85L323.313 141.437Z" fill="#AACCFF"/>
<path d="M334.252 148.178C334.252 148.178 334.252 148.115 334.252 147.988C334.252 147.86 334.252 147.606 334.188 147.352C334.188 147.097 334.125 146.716 334.061 146.334C333.998 145.952 333.934 145.507 333.807 144.998C333.552 143.981 333.107 142.836 332.344 141.564C331.581 140.292 330.5 139.02 329.037 137.875C327.574 136.794 325.73 135.84 323.631 135.458C321.532 135.077 319.115 135.14 316.889 136.031C316.317 136.222 315.744 136.476 315.236 136.794C314.727 137.112 314.154 137.43 313.646 137.812C313.137 138.193 312.692 138.638 312.183 139.084C311.738 139.592 311.292 140.038 310.911 140.546C310.148 141.628 309.448 142.772 309.066 144.108C308.621 145.38 308.43 146.779 308.43 148.178C308.43 149.578 308.685 150.977 309.066 152.249C309.448 153.521 310.148 154.729 310.911 155.81C311.292 156.383 311.738 156.828 312.183 157.273C312.692 157.718 313.137 158.164 313.646 158.545C314.154 158.927 314.727 159.245 315.236 159.563C315.808 159.817 316.317 160.135 316.889 160.326C319.179 161.216 321.532 161.28 323.631 160.898C325.73 160.517 327.574 159.563 329.037 158.482C330.5 157.4 331.581 156.065 332.344 154.793C333.107 153.521 333.552 152.376 333.807 151.358C333.934 150.85 333.998 150.404 334.061 150.023C334.125 149.641 334.188 149.323 334.188 149.005C334.188 148.751 334.252 148.56 334.252 148.369C334.188 148.306 334.252 148.178 334.252 148.178C334.252 148.178 334.252 148.242 334.252 148.369C334.252 148.496 334.252 148.751 334.252 149.005C334.252 149.26 334.252 149.641 334.188 150.023C334.125 150.404 334.061 150.85 333.934 151.358C333.743 152.376 333.234 153.584 332.535 154.856C331.772 156.128 330.69 157.464 329.228 158.609C327.765 159.754 325.857 160.708 323.694 161.089C321.532 161.471 319.115 161.407 316.762 160.517C316.19 160.326 315.617 160.008 315.045 159.754C314.472 159.436 313.9 159.118 313.455 158.736C312.946 158.354 312.437 157.909 311.928 157.464C311.483 156.955 311.038 156.51 310.656 155.938C309.893 154.856 309.194 153.648 308.748 152.312C308.303 150.977 308.112 149.578 308.049 148.115C308.049 146.652 308.303 145.253 308.748 143.981C309.194 142.645 309.83 141.437 310.656 140.356C311.038 139.783 311.483 139.338 311.928 138.829C312.437 138.384 312.882 137.939 313.455 137.557C313.964 137.176 314.536 136.858 315.045 136.54C315.617 136.285 316.19 135.967 316.762 135.776C319.115 134.886 321.532 134.822 323.694 135.204C325.857 135.586 327.765 136.54 329.228 137.684C330.69 138.829 331.772 140.165 332.535 141.437C333.298 142.709 333.743 143.917 333.934 144.935C334.061 145.444 334.125 145.889 334.188 146.27C334.252 146.652 334.252 147.034 334.252 147.288C334.252 147.542 334.252 147.733 334.252 147.924C334.252 148.115 334.252 148.178 334.252 148.178Z" fill="#AACCFF"/>
<path d="M312.629 158.036C312.692 158.1 310.911 159.69 308.749 161.598C306.523 163.506 304.679 164.969 304.615 164.905C304.551 164.842 306.332 163.252 308.495 161.344C310.721 159.436 312.565 157.973 312.629 158.036Z" fill="#AACCFF"/>
<path d="M305.315 164.842C305.315 165.16 305.061 165.478 304.679 165.478C304.361 165.478 304.043 165.223 304.043 164.842C304.043 164.46 304.297 164.206 304.679 164.206C305.061 164.206 305.315 164.46 305.315 164.842Z" fill="#AACCFF"/>
<path d="M222.953 141.055H233.32C234.338 141.055 235.228 141.946 235.292 143.09L235.673 152.058C235.737 153.266 234.846 154.284 233.765 154.348L223.08 154.475L222.953 141.055Z" fill="#E39D29"/>
<path opacity="0.5" d="M222.953 141.055H233.32C234.338 141.055 235.228 141.946 235.292 143.09L235.673 152.058C235.737 153.266 234.846 154.284 233.765 154.348L223.08 154.475L222.953 141.055Z" fill="black"/>
<path d="M226.005 163.57C225.878 165.668 237.517 221.636 239.043 226.724C240.76 232.448 245.212 232.639 245.212 232.639L234.146 147.924L229.121 147.797L230.33 157.846C230.393 157.846 226.132 161.471 226.005 163.57Z" fill="#E39D29"/>
<path opacity="0.3" d="M239.106 226.724C239.36 227.551 239.678 228.314 239.996 229.014L239.551 225.389L230.393 157.846C230.393 157.846 226.131 161.471 226.004 163.57C225.941 165.605 237.579 221.636 239.106 226.724Z" fill="black"/>
<path d="M229.504 150.468C229.567 150.468 230.712 158.164 231.984 167.704C233.256 177.244 234.21 184.939 234.083 184.939C234.019 184.939 232.874 177.244 231.602 167.704C230.33 158.227 229.376 150.468 229.504 150.468Z" fill="#263238"/>
<path d="M212.013 154.475L209.66 300.755H229.567L220.981 154.475H212.013Z" fill="#E39D29"/>
<path opacity="0.5" d="M212.013 154.475L211.695 172.283L221.49 163.506L220.981 154.475H212.013Z" fill="black"/>
<path d="M200.629 143.663V152.948C200.629 153.775 201.329 154.475 202.155 154.475H222.952V141.055L202.092 142.136C201.265 142.2 200.629 142.836 200.629 143.663Z" fill="#E39D29"/>
<path d="M243.687 137.939C244.959 136.285 267.727 83.8788 269.445 78.7908C271.353 73.0668 267.791 70.3956 267.791 70.3956L228.041 146.016L232.048 149.005L236.818 140.101C236.818 140.101 242.415 139.592 243.687 137.939Z" fill="#E39D29"/>
<path opacity="0.3" d="M269.445 78.7908C269.7 77.964 269.89 77.1372 270.018 76.4376L268.3 79.6176L236.818 140.101C236.818 140.101 242.415 139.592 243.687 137.939C244.959 136.349 267.728 83.8788 269.445 78.7908Z" fill="black"/>
<path d="M248.52 117.65C248.52 117.65 248.457 117.778 248.393 117.968C248.266 118.223 248.139 118.477 247.948 118.859C247.503 119.686 246.93 120.767 246.231 122.102C244.768 124.837 242.86 128.653 240.697 132.914C238.535 137.112 236.563 140.928 235.037 143.663C234.274 144.998 233.701 146.143 233.256 146.843C233.065 147.161 232.875 147.479 232.747 147.733C232.62 147.924 232.557 148.051 232.557 148.051C232.557 148.051 232.62 147.924 232.684 147.733C232.811 147.479 232.938 147.224 233.129 146.843C233.574 146.016 234.147 144.935 234.846 143.599C236.309 140.864 238.217 137.048 240.379 132.787C242.542 128.59 244.513 124.774 246.04 122.039C246.803 120.703 247.375 119.558 247.821 118.859C248.011 118.541 248.202 118.223 248.329 117.968C248.457 117.714 248.52 117.65 248.52 117.65Z" fill="#263238"/>
<path opacity="0.4" d="M210.996 217.248H224.67L225.179 225.707H210.869L210.996 217.248Z" fill="white"/>
<path opacity="0.4" d="M210.806 228.696H225.37L225.497 230.922L210.742 230.986L210.806 228.696Z" fill="white"/>
<g opacity="0.4">
<path opacity="0.4" d="M222.954 147.797C222.954 147.86 217.929 148.051 211.76 148.178C205.591 148.306 200.566 148.306 200.566 148.242C200.566 148.178 205.591 147.988 211.76 147.86C217.929 147.733 222.954 147.67 222.954 147.797Z" fill="white"/>
</g>
<path d="M212.268 146.08C210.233 146.588 159.861 173.555 155.346 176.48C150.321 179.788 151.403 184.049 151.403 184.049L229.503 149.45L228.231 144.617L218.946 148.624C218.946 148.624 214.239 145.571 212.268 146.08Z" fill="#E39D29"/>
<path opacity="0.2" d="M155.347 176.417C154.583 176.926 153.947 177.434 153.375 177.88L156.682 176.417L218.883 148.56C218.883 148.56 214.177 145.507 212.141 146.016C210.233 146.525 159.799 173.491 155.347 176.417Z" fill="black"/>
<path d="M228.676 144.426C228.739 144.426 228.294 144.68 227.531 144.998C226.704 145.38 225.623 145.889 224.287 146.525C221.552 147.797 217.736 149.578 213.475 151.422C209.278 153.33 205.398 154.984 202.6 156.128C201.2 156.701 200.056 157.146 199.292 157.464C198.911 157.591 198.593 157.718 198.402 157.782C198.211 157.846 198.084 157.909 198.084 157.846C198.084 157.846 198.211 157.782 198.402 157.718C198.656 157.591 198.911 157.464 199.292 157.337C200.119 156.955 201.2 156.51 202.6 155.938C205.398 154.666 209.214 153.012 213.412 151.168C217.609 149.26 221.425 147.606 224.224 146.334C225.559 145.762 226.704 145.253 227.531 144.871C228.23 144.553 228.739 144.362 228.676 144.426Z" fill="#263238"/>
<path d="M232.811 146.716C232.811 147.67 233.575 149.578 233.066 150.15C232.621 150.659 230.585 150.532 229.568 150.532C227.787 150.532 226.324 148.814 226.324 146.652C226.324 144.553 227.787 142.772 229.568 142.772C230.585 142.772 231.794 142.582 233.193 143.027C233.956 143.408 232.811 145.762 232.811 146.716Z" fill="#E39D29"/>
<path d="M235.227 146.716C235.227 148.814 233.765 150.595 231.984 150.595C230.203 150.595 228.74 148.878 228.74 146.716C228.74 144.617 230.203 142.836 231.984 142.836C233.765 142.836 235.227 144.617 235.227 146.716Z" fill="#E39D29"/>
<path opacity="0.5" d="M235.227 146.716C235.227 148.814 233.765 150.595 231.984 150.595C230.203 150.595 228.74 148.878 228.74 146.716C228.74 144.617 230.203 142.836 231.984 142.836C233.765 142.836 235.227 144.617 235.227 146.716Z" fill="black"/>
<path d="M228.867 142.836C228.867 142.836 229.312 142.772 230.076 142.772C230.457 142.772 230.966 142.772 231.475 142.772C231.602 142.772 231.729 142.772 231.856 142.772C231.984 142.772 232.174 142.772 232.302 142.772C232.62 142.836 232.938 142.9 233.256 143.027C234.4 143.536 235.291 144.871 235.354 146.334C235.482 147.606 235.036 148.878 234.273 149.641C233.51 150.468 232.492 150.786 231.729 150.659C231.03 150.659 230.521 150.659 230.139 150.659C229.758 150.659 229.567 150.659 229.567 150.595C229.567 150.532 229.758 150.532 230.139 150.532C230.521 150.532 231.03 150.468 231.729 150.468C232.429 150.532 233.383 150.214 234.019 149.514C234.718 148.751 235.1 147.606 235.036 146.461C234.973 145.062 234.146 143.854 233.128 143.345C232.874 143.218 232.556 143.09 232.302 143.09C232.174 143.09 232.047 143.027 231.856 143.09C231.729 143.09 231.602 143.09 231.475 143.09C230.966 143.09 230.521 143.09 230.076 143.027C229.312 142.9 228.867 142.9 228.867 142.836Z" fill="#263238"/>
<path d="M231.666 150.532C231.666 150.532 231.094 150.468 230.394 149.959C229.695 149.45 228.804 148.433 228.614 147.097C228.423 145.698 228.995 144.49 229.568 143.854C230.14 143.154 230.649 142.963 230.649 143.027C230.712 143.09 230.204 143.345 229.695 144.044C229.186 144.68 228.741 145.825 228.868 147.097C229.059 148.369 229.822 149.323 230.458 149.832C231.158 150.341 231.666 150.468 231.666 150.532Z" fill="#263238"/>
<path d="M230.267 150.595C230.267 150.595 230.14 150.659 229.885 150.595C229.631 150.595 229.249 150.532 228.804 150.341C227.914 150.023 226.769 149.069 226.324 147.67C225.942 146.207 226.451 144.808 227.023 144.108C227.341 143.726 227.596 143.472 227.85 143.281C228.041 143.154 228.232 143.09 228.232 143.09C228.295 143.154 227.787 143.472 227.278 144.235C226.769 144.998 226.324 146.27 226.705 147.606C227.087 148.942 228.168 149.832 228.931 150.15C229.631 150.532 230.267 150.532 230.267 150.595Z" fill="#263238"/>
<path opacity="0.5" d="M176.398 167.704L179.324 171.71L194.016 165.16L190.327 161.471L176.398 167.704Z" fill="black"/>
<path opacity="0.5" d="M211.25 202.366C211.25 202.366 212.395 204.21 215.511 205.673C219.454 207.517 223.016 203.383 222.762 199.058L211.441 187.865L211.25 202.366Z" fill="black"/>
<path d="M143.58 122.357H155.155C156.3 122.357 157.318 123.374 157.318 124.646L157.763 134.632C157.826 135.967 156.872 137.176 155.6 137.176L143.644 137.366L143.58 122.357Z" fill="#E39D29"/>
<path opacity="0.5" d="M143.58 122.357H155.155C156.3 122.357 157.318 123.374 157.318 124.646L157.763 134.632C157.826 135.967 156.872 137.176 155.6 137.176L143.644 137.366L143.58 122.357Z" fill="black"/>
<path d="M158.908 148.624C160.18 150.595 207.499 193.462 212.269 197.087C217.611 201.157 221.745 198.359 221.745 198.359L155.919 129.162L151.34 132.342L159.099 140.61C159.035 140.61 157.636 146.716 158.908 148.624Z" fill="#E39D29"/>
<path opacity="0.3" d="M212.269 197.087C213.032 197.659 213.795 198.168 214.558 198.55L211.824 195.56L159.099 140.546C159.099 140.546 157.636 146.652 158.908 148.56C160.18 150.595 207.499 193.462 212.269 197.087Z" fill="black"/>
<path d="M153.376 134.568C153.439 134.504 159.481 140.737 166.922 148.496C174.3 156.256 180.278 162.616 180.215 162.679C180.151 162.743 174.109 156.51 166.668 148.751C159.29 140.928 153.312 134.632 153.376 134.568Z" fill="#263238"/>
<path d="M131.368 137.303L128.697 300.755H151.021L141.354 137.303H131.368Z" fill="#E39D29"/>
<path opacity="0.5" d="M131.368 137.303L130.732 174.382L142.626 159.054L141.354 137.303H131.368Z" fill="black"/>
<path d="M118.648 125.282V135.649C118.648 136.603 119.412 137.366 120.366 137.366H143.58V122.357L120.238 123.565C119.348 123.565 118.648 124.328 118.648 125.282Z" fill="#E39D29"/>
<path d="M155.346 107.347C155.219 105.058 135.884 44.1288 133.531 38.6592C130.924 32.49 125.963 32.808 125.963 32.808L148.032 125.664L153.629 125.219L151.085 114.152C151.148 114.152 155.473 109.637 155.346 107.347Z" fill="#E39D29"/>
<path opacity="0.3" d="M133.595 38.5956C133.214 37.7052 132.768 36.8784 132.387 36.1788L133.277 40.122L151.212 114.152C151.212 114.152 155.537 109.637 155.41 107.284C155.219 104.994 135.885 44.1288 133.595 38.5956Z" fill="black"/>
<path d="M132.959 140.737C131.432 142.454 102.367 199.376 100.078 204.91C97.5336 211.142 101.35 214.386 101.35 214.386L151.021 132.851L146.76 129.226L140.782 138.829C140.782 138.766 134.485 138.956 132.959 140.737Z" fill="#E39D29"/>
<path opacity="0.2" d="M100.079 204.846C99.6972 205.736 99.4428 206.627 99.252 207.454L101.414 204.019L140.783 138.766C140.783 138.766 134.55 138.956 132.96 140.674C131.434 142.454 102.305 199.313 100.079 204.846Z" fill="black"/>
<path d="M154.582 128.653C154.582 129.734 155.473 131.833 154.837 132.533C154.328 133.105 152.038 132.978 150.957 132.978C148.922 132.978 147.332 131.07 147.332 128.653C147.332 126.3 148.986 124.328 150.957 124.328C152.038 124.328 153.501 124.138 155.028 124.646C155.918 124.964 154.582 127.572 154.582 128.653Z" fill="#E39D29"/>
<path d="M157.254 128.653C157.254 131.006 155.601 132.978 153.629 132.978C151.594 132.978 150.004 131.07 150.004 128.653C150.004 126.3 151.658 124.328 153.629 124.328C155.664 124.328 157.254 126.236 157.254 128.653Z" fill="#E39D29"/>
<path opacity="0.5" d="M157.254 128.653C157.254 131.006 155.601 132.978 153.629 132.978C151.594 132.978 150.004 131.07 150.004 128.653C150.004 126.3 151.658 124.328 153.629 124.328C155.664 124.328 157.254 126.236 157.254 128.653Z" fill="black"/>
<path d="M150.193 124.328C150.193 124.328 150.702 124.265 151.529 124.265C151.974 124.265 152.483 124.265 153.055 124.265C153.183 124.265 153.373 124.265 153.501 124.265C153.628 124.201 153.819 124.265 154.009 124.265C154.327 124.328 154.709 124.392 155.027 124.583C156.299 125.155 157.253 126.618 157.38 128.272C157.507 129.671 156.999 131.07 156.172 131.96C155.345 132.851 154.2 133.232 153.31 133.042C152.61 133.042 152.038 133.042 151.529 133.042C151.084 133.042 150.893 133.042 150.893 132.978C150.893 132.914 151.147 132.914 151.529 132.914C152.038 132.914 152.61 132.851 153.31 132.851C154.137 132.978 155.154 132.596 155.917 131.77C156.681 130.943 157.126 129.671 157.062 128.335C156.935 126.745 156.045 125.41 154.9 124.837C154.582 124.71 154.264 124.583 153.946 124.519C153.819 124.519 153.628 124.456 153.501 124.519C153.373 124.519 153.183 124.519 153.055 124.519C152.483 124.519 151.974 124.519 151.529 124.456C150.702 124.392 150.193 124.392 150.193 124.328Z" fill="#263238"/>
<path d="M153.311 132.914C153.311 132.914 153.183 132.914 152.865 132.851C152.611 132.787 152.229 132.596 151.848 132.342C151.021 131.77 150.067 130.688 149.876 129.162C149.685 127.636 150.321 126.3 150.957 125.537C151.275 125.155 151.593 124.901 151.784 124.774C152.039 124.646 152.166 124.583 152.166 124.583C152.229 124.646 151.657 124.964 151.148 125.664C150.576 126.427 150.067 127.636 150.194 129.098C150.385 130.498 151.212 131.579 151.975 132.151C152.738 132.66 153.374 132.851 153.311 132.914Z" fill="#263238"/>
<path d="M151.72 132.978C151.72 132.978 151.529 133.042 151.275 132.978C150.957 132.978 150.575 132.851 150.067 132.66C149.113 132.278 147.777 131.261 147.332 129.671C146.887 128.017 147.459 126.491 148.095 125.664C148.413 125.219 148.731 124.964 148.985 124.774C149.24 124.583 149.367 124.519 149.367 124.583C149.431 124.646 148.858 124.964 148.286 125.855C147.713 126.682 147.268 128.144 147.65 129.607C148.095 131.07 149.24 132.088 150.194 132.469C151.084 132.914 151.72 132.914 151.72 132.978Z" fill="#263238"/>
<path d="M147.013 128.717C147.077 128.717 146.759 129.162 146.314 129.989C145.805 130.879 145.169 132.024 144.342 133.487C142.625 136.412 140.272 140.419 137.601 144.871C134.929 149.323 132.449 153.266 130.605 156.128C129.714 157.528 128.951 158.672 128.379 159.499C128.124 159.881 127.933 160.135 127.743 160.39C127.615 160.58 127.488 160.708 127.488 160.708C127.488 160.708 127.552 160.58 127.679 160.39C127.806 160.135 127.997 159.817 128.251 159.436C128.76 158.609 129.523 157.464 130.35 156.001C132.131 153.139 134.548 149.132 137.219 144.68C139.89 140.292 142.307 136.285 144.088 133.36C144.978 131.96 145.678 130.752 146.187 129.925C146.695 129.162 147.013 128.653 147.013 128.717Z" fill="#263238"/>
<path d="M144.534 86.6772C144.534 86.6772 144.598 86.8044 144.661 87.0588C144.725 87.3132 144.789 87.6948 144.916 88.14C145.17 89.1576 145.488 90.4932 145.87 92.1468C146.697 95.5176 147.841 100.16 149.113 105.312C150.385 110.464 151.53 115.106 152.293 118.541C152.675 120.258 152.929 121.594 153.12 122.548C153.184 122.993 153.247 123.374 153.311 123.629C153.375 123.883 153.375 124.01 153.375 124.01C153.375 124.01 153.311 123.883 153.247 123.629C153.184 123.374 153.12 122.993 152.993 122.548C152.739 121.53 152.421 120.194 152.039 118.541C151.212 115.17 150.067 110.527 148.795 105.376C147.523 100.224 146.379 95.5812 145.615 92.1468C145.234 90.4296 144.979 89.094 144.789 88.14C144.725 87.6948 144.661 87.3132 144.598 87.0588C144.534 86.8044 144.471 86.6772 144.534 86.6772Z" fill="#263238"/>
<path opacity="0.4" d="M130.225 207.454H145.489L146.061 216.866H130.098L130.225 207.454Z" fill="white"/>
<path opacity="0.4" d="M130.032 220.301H146.25L146.378 222.718L129.969 222.781L130.032 220.301Z" fill="white"/>
<g opacity="0.4">
<path opacity="0.4" d="M143.58 129.862C143.58 129.925 137.983 130.116 131.114 130.243C124.245 130.37 118.648 130.434 118.648 130.307C118.648 130.243 124.245 130.052 131.114 129.925C137.983 129.798 143.58 129.734 143.58 129.862Z" fill="white"/>
</g>
<path d="M221.745 198.359C221.681 198.422 207.117 183.222 189.245 164.46C171.374 145.698 156.937 130.37 157 130.307C157.064 130.243 171.628 145.444 189.5 164.206C207.371 183.031 221.809 198.295 221.745 198.359Z" fill="#263238"/>
<path d="M287.824 167.004H296.474C297.364 167.004 298.064 167.767 298.127 168.721L298.445 176.226C298.509 177.244 297.746 178.134 296.855 178.134L287.888 178.261L287.824 167.004Z" fill="#E39D29"/>
<path opacity="0.5" d="M287.824 167.004H296.474C297.364 167.004 298.064 167.767 298.127 168.721L298.445 176.226C298.509 177.244 297.746 178.134 296.855 178.134L287.888 178.261L287.824 167.004Z" fill="black"/>
<path d="M299.273 186.72C300.227 188.183 335.715 220.364 339.277 223.036C343.284 226.088 346.4 223.99 346.4 223.99L297.11 172.092L293.676 174.445L299.463 180.678C299.463 180.678 298.382 185.257 299.273 186.72Z" fill="#E39D29"/>
<path opacity="0.3" d="M339.277 223.036C339.849 223.481 340.422 223.862 340.994 224.18L338.895 221.954L299.399 180.742C299.399 180.742 298.318 185.321 299.272 186.784C300.226 188.183 335.715 220.364 339.277 223.036Z" fill="black"/>
<path d="M295.202 176.162C295.265 176.099 299.845 180.742 305.378 186.593C310.911 192.38 315.363 197.15 315.299 197.214C315.236 197.278 310.657 192.635 305.123 186.784C299.59 180.996 295.138 176.226 295.202 176.162Z" fill="#263238"/>
<path d="M278.667 178.261L276.695 300.755H293.359L286.172 178.261H278.667Z" fill="#E39D29"/>
<path opacity="0.5" d="M278.668 178.261L278.223 205.991L287.127 194.543L286.173 178.261H278.668Z" fill="black"/>
<path d="M269.127 169.166V176.926C269.127 177.625 269.699 178.198 270.399 178.198H287.825V167.004L270.335 167.894C269.636 167.958 269.127 168.53 269.127 169.166Z" fill="#E39D29"/>
<path d="M296.666 155.747C296.602 154.03 282.038 108.365 280.321 104.231C278.349 99.588 274.66 99.8424 274.66 99.8424L291.196 169.484L295.394 169.166L293.486 160.898C293.549 160.898 296.729 157.464 296.666 155.747Z" fill="#E39D29"/>
<path opacity="0.3" d="M280.321 104.231C280.003 103.531 279.749 102.959 279.367 102.386L280.067 105.376L293.486 160.898C293.486 160.898 296.73 157.528 296.603 155.747C296.603 154.03 282.038 108.365 280.321 104.231Z" fill="black"/>
<path d="M279.876 180.742C278.732 182.014 256.917 224.689 255.263 228.823C253.355 233.466 256.217 235.946 256.217 235.946L293.423 174.827L290.243 172.092L285.791 179.279C285.728 179.342 281.021 179.47 279.876 180.742Z" fill="#E39D29"/>
<path opacity="0.2" d="M255.199 228.887C254.944 229.586 254.753 230.222 254.562 230.858L256.153 228.251L285.663 179.342C285.663 179.342 280.957 179.47 279.812 180.805C278.731 182.077 256.916 224.689 255.199 228.887Z" fill="black"/>
<path d="M296.095 171.71C296.095 172.537 296.731 174.064 296.285 174.572C295.904 175.018 294.187 174.89 293.36 174.89C291.833 174.89 290.625 173.428 290.625 171.647C290.625 169.866 291.833 168.403 293.36 168.403C294.187 168.403 295.268 168.276 296.413 168.658C297.049 168.976 296.095 170.947 296.095 171.71Z" fill="#E39D29"/>
<path d="M298.13 171.71C298.13 173.491 296.921 174.954 295.395 174.954C293.869 174.954 292.66 173.491 292.66 171.71C292.66 169.93 293.869 168.467 295.395 168.467C296.858 168.53 298.13 169.93 298.13 171.71Z" fill="#E39D29"/>
<path opacity="0.5" d="M298.13 171.71C298.13 173.491 296.921 174.954 295.395 174.954C293.869 174.954 292.66 173.491 292.66 171.71C292.66 169.93 293.869 168.467 295.395 168.467C296.858 168.53 298.13 169.93 298.13 171.71Z" fill="black"/>
<path d="M292.787 168.53C292.787 168.53 293.169 168.467 293.805 168.467C294.123 168.467 294.504 168.467 294.949 168.467C295.14 168.467 295.395 168.403 295.649 168.467C295.903 168.467 296.158 168.594 296.412 168.658C297.366 169.103 298.129 170.184 298.193 171.456C298.257 172.537 297.875 173.555 297.239 174.254C296.603 174.954 295.713 175.208 295.077 175.081C293.932 175.081 293.232 175.018 293.232 175.018C293.232 174.954 293.932 174.954 295.013 174.89C295.585 174.954 296.349 174.7 296.921 174.064C297.493 173.428 297.811 172.474 297.748 171.52C297.684 170.375 296.985 169.357 296.158 168.912C295.903 168.785 295.713 168.721 295.458 168.721C295.204 168.658 295.013 168.721 294.759 168.721C294.314 168.721 293.932 168.721 293.614 168.658C293.169 168.53 292.787 168.53 292.787 168.53Z" fill="#263238"/>
<path d="M295.14 174.89C295.14 174.954 294.631 174.89 294.059 174.445C293.423 174.064 292.723 173.173 292.596 172.028C292.469 170.884 292.914 169.866 293.423 169.294C293.932 168.721 294.377 168.53 294.377 168.594C294.441 168.658 293.995 168.848 293.614 169.421C293.232 169.993 292.787 170.884 292.914 171.965C293.041 172.982 293.677 173.809 294.186 174.254C294.695 174.7 295.14 174.827 295.14 174.89Z" fill="#263238"/>
<path d="M293.932 174.954C293.932 174.954 293.423 175.081 292.66 174.763C291.896 174.509 290.942 173.746 290.561 172.474C290.243 171.265 290.688 170.057 291.133 169.421C291.642 168.785 292.087 168.594 292.151 168.594C292.214 168.658 291.769 168.912 291.324 169.548C290.942 170.184 290.561 171.265 290.879 172.346C291.197 173.428 292.087 174.191 292.723 174.509C293.423 174.89 293.932 174.89 293.932 174.954Z" fill="#263238"/>
<path d="M290.369 171.774C290.433 171.774 290.242 172.156 289.86 172.728C289.479 173.364 288.97 174.254 288.397 175.336C287.125 177.562 285.345 180.551 283.309 183.858C281.274 187.165 279.43 190.154 278.094 192.317C277.395 193.398 276.822 194.225 276.441 194.797C276.059 195.37 275.805 195.688 275.805 195.688C275.805 195.688 275.995 195.306 276.377 194.734C276.759 194.098 277.331 193.207 277.967 192.19C279.303 189.964 281.147 186.974 283.119 183.731C285.09 180.424 286.935 177.434 288.27 175.208C288.906 174.191 289.479 173.3 289.86 172.664C290.178 172.092 290.369 171.774 290.369 171.774Z" fill="#263238"/>
<path d="M288.525 140.292C288.525 140.292 288.653 140.674 288.843 141.373C289.034 142.136 289.289 143.154 289.543 144.362C290.179 146.97 291.069 150.404 291.96 154.22C292.914 158.1 293.741 161.598 294.313 164.142C294.567 165.414 294.822 166.432 294.949 167.195C295.076 167.894 295.14 168.34 295.14 168.34C295.14 168.34 295.013 167.958 294.822 167.258C294.631 166.495 294.377 165.478 294.122 164.269C293.486 161.662 292.596 158.227 291.705 154.411C290.751 150.532 289.925 147.034 289.352 144.49C289.098 143.218 288.843 142.2 288.716 141.437C288.589 140.674 288.525 140.292 288.525 140.292Z" fill="#263238"/>
<path opacity="0.4" d="M277.84 230.795H289.288L289.67 237.918H277.713L277.84 230.795Z" fill="white"/>
<path opacity="0.4" d="M277.648 240.398H289.86L289.923 242.243L277.648 242.306V240.398Z" fill="white"/>
<g opacity="0.4">
<path opacity="0.4" d="M287.825 172.601C287.825 172.664 283.628 172.855 278.476 172.919C273.325 173.046 269.127 173.046 269.127 172.919C269.127 172.855 273.325 172.664 278.476 172.601C283.628 172.537 287.825 172.537 287.825 172.601Z" fill="white"/>
</g>
<path d="M346.4 223.99C346.337 224.053 335.397 212.669 322.041 198.613C308.622 184.494 297.81 173.046 297.873 172.982C297.937 172.919 308.876 184.303 322.232 198.359C335.652 212.478 346.464 223.926 346.4 223.99Z" fill="#263238"/>
<path d="M168.064 291.342C168.128 291.278 169.018 293.441 170.036 296.048C171.053 298.656 171.753 300.818 171.689 300.882C171.626 300.946 170.735 298.783 169.718 296.176C168.764 293.504 168.001 291.342 168.064 291.342Z" fill="#263238"/>
<path d="M166.221 277.986C166.221 277.986 166.411 278.24 166.729 278.813C167.047 279.385 167.429 280.148 167.874 281.166C168.828 283.138 170.037 285.936 171.182 289.116C172.326 292.296 173.153 295.222 173.662 297.384C173.916 298.465 174.107 299.356 174.234 299.928C174.362 300.564 174.425 300.882 174.362 300.882C174.362 300.882 174.234 300.564 174.107 299.992C173.916 299.356 173.726 298.465 173.471 297.448C172.899 295.349 172.072 292.423 170.927 289.243C169.782 286.063 168.638 283.265 167.747 281.293C167.302 280.339 166.92 279.512 166.666 278.94C166.348 278.304 166.221 278.05 166.221 277.986Z" fill="#263238"/>
<path d="M248.328 291.914C248.328 291.914 248.773 292.296 249.282 292.996C249.791 293.695 250.427 294.776 250.999 295.985C251.572 297.193 251.89 298.402 252.081 299.292C252.271 300.182 252.335 300.691 252.271 300.691C252.144 300.691 251.763 298.592 250.681 296.112C249.664 293.695 248.265 291.978 248.328 291.914Z" fill="#263238"/>
<path d="M247.375 279.576C247.375 279.576 247.566 279.83 247.947 280.276C248.329 280.721 248.774 281.42 249.347 282.311C250.491 284.092 251.891 286.636 253.035 289.561C254.244 292.487 255.007 295.285 255.389 297.384C255.579 298.402 255.77 299.228 255.834 299.801C255.897 300.373 255.961 300.691 255.897 300.691C255.897 300.691 255.77 300.373 255.707 299.801C255.579 299.228 255.389 298.402 255.198 297.384C254.753 295.349 253.926 292.614 252.717 289.688C251.509 286.763 250.173 284.219 249.092 282.438C248.583 281.548 248.138 280.848 247.82 280.339C247.502 279.894 247.375 279.576 247.375 279.576Z" fill="#263238"/>
<path d="M249.157 272.008C249.284 272.008 249.665 274.106 250.747 276.523C251.764 278.94 253.036 280.721 252.973 280.784C252.909 280.784 252.591 280.403 252.082 279.703C251.573 279.004 251.001 277.922 250.429 276.714C249.92 275.506 249.538 274.297 249.347 273.47C249.157 272.58 249.093 272.008 249.157 272.008Z" fill="#263238"/>
<path d="M313.328 294.077C313.328 294.013 313.773 294.331 314.409 294.84C315.045 295.349 315.872 296.112 316.762 297.066C317.589 298.02 318.289 298.974 318.67 299.673C319.116 300.373 319.306 300.818 319.306 300.882C319.243 300.945 318.162 299.165 316.508 297.32C314.854 295.412 313.264 294.14 313.328 294.077Z" fill="#263238"/>
<path d="M314.346 285.236C314.346 285.236 314.537 285.427 314.855 285.745C315.173 286.063 315.555 286.572 316.063 287.208C317.017 288.48 318.289 290.324 319.434 292.487C320.579 294.649 321.342 296.748 321.851 298.274C322.105 299.038 322.296 299.674 322.36 300.119C322.487 300.564 322.487 300.818 322.487 300.818C322.423 300.818 322.169 299.864 321.597 298.402C321.088 296.875 320.261 294.84 319.116 292.678C317.971 290.515 316.763 288.671 315.873 287.335C314.919 286.063 314.283 285.3 314.346 285.236Z" fill="#263238"/>
<path d="M106.818 276.905C106.818 276.905 107.009 277.159 107.391 277.732C107.709 278.24 108.218 279.067 108.726 280.085C109.808 282.12 111.08 284.982 112.161 288.353C113.178 291.724 113.751 294.84 113.942 297.13C114.069 298.274 114.132 299.165 114.132 299.801C114.132 300.437 114.132 300.818 114.132 300.818C114.132 300.818 114.069 300.437 114.005 299.864C113.942 299.228 113.878 298.338 113.687 297.193C113.369 294.904 112.797 291.851 111.843 288.48C110.825 285.173 109.553 282.247 108.536 280.212C108.027 279.194 107.582 278.368 107.264 277.795C107.009 277.223 106.818 276.905 106.818 276.905Z" fill="#263238"/>
<path d="M102.621 284.664C102.621 284.664 102.875 284.791 103.257 285.109C103.639 285.427 104.211 285.872 104.783 286.445C106.055 287.653 107.645 289.498 109.045 291.787C110.444 294.077 111.271 296.366 111.779 298.02C112.034 298.847 112.161 299.546 112.225 300.055C112.288 300.564 112.352 300.818 112.288 300.818C112.225 300.818 112.034 299.801 111.525 298.147C111.016 296.494 110.126 294.268 108.79 292.042C107.455 289.816 105.865 287.971 104.656 286.699C103.448 285.364 102.621 284.728 102.621 284.664Z" fill="#263238"/>
<path d="M103.066 293.568C103.066 293.504 103.511 293.822 104.211 294.331C104.847 294.84 105.737 295.667 106.501 296.684C107.327 297.702 107.9 298.72 108.345 299.419C108.727 300.182 108.917 300.691 108.854 300.691C108.79 300.755 107.836 298.847 106.246 296.875C104.656 294.967 103.003 293.632 103.066 293.568Z" fill="#263238"/>
<path d="M117.44 294.522C117.503 294.586 116.931 295.858 116.74 297.575C116.549 299.292 116.867 300.691 116.74 300.691C116.677 300.755 116.231 299.292 116.422 297.511C116.613 295.73 117.376 294.458 117.44 294.522Z" fill="#263238"/>
<path d="M178.05 287.144C178.813 287.081 179.64 287.335 180.212 287.844C180.785 288.353 181.23 289.052 181.548 289.752C182.184 291.151 182.184 292.868 181.993 294.395C180.34 294.077 179.131 292.55 178.559 291.724C177.668 290.452 176.778 287.59 178.05 287.144Z" fill="#E8505B"/>
<path d="M184.537 295.73C183.965 295.094 183.774 294.14 184.029 293.314C184.283 292.487 184.983 291.787 185.746 291.406C186.127 291.215 186.573 291.088 186.891 291.278C187.209 291.469 187.399 291.851 187.463 292.169C187.527 292.487 187.336 292.932 187.145 293.25C186.573 294.458 185.746 295.476 184.537 295.73Z" fill="#E8505B"/>
<path d="M185.428 300.564C185.428 300.564 185.364 300.437 185.301 300.246C185.237 300.055 185.11 299.801 184.983 299.419C184.728 298.72 184.41 297.766 184.41 296.684C184.41 295.603 184.665 294.586 185.046 293.95C185.237 293.632 185.428 293.377 185.555 293.25C185.619 293.186 185.682 293.123 185.746 293.059C185.809 292.996 185.809 292.996 185.809 292.996C185.809 292.996 185.491 293.314 185.173 293.95C184.855 294.586 184.537 295.54 184.601 296.621C184.601 297.702 184.919 298.656 185.173 299.356C185.301 299.674 185.364 299.992 185.428 300.182C185.428 300.437 185.428 300.564 185.428 300.564Z" fill="#263238"/>
<path d="M178.877 289.243C178.877 289.243 178.877 289.307 178.941 289.37C179.004 289.434 179.068 289.561 179.131 289.688C179.322 289.943 179.577 290.388 179.895 290.897C180.531 291.914 181.421 293.314 182.311 294.904C183.202 296.494 184.029 297.956 184.601 299.038C184.855 299.546 185.11 299.992 185.237 300.31C185.301 300.437 185.364 300.564 185.428 300.628C185.491 300.691 185.491 300.755 185.491 300.755C185.491 300.755 185.491 300.691 185.428 300.628C185.364 300.564 185.301 300.437 185.237 300.31C185.046 299.992 184.855 299.61 184.537 299.038C183.965 297.956 183.138 296.557 182.248 294.967C181.357 293.377 180.467 291.978 179.831 290.897C179.513 290.388 179.259 290.006 179.068 289.688C179.004 289.561 178.941 289.434 178.877 289.37C178.941 289.307 178.877 289.243 178.877 289.243Z" fill="#263238"/>
<path d="M183.074 297.638C181.93 296.239 180.022 295.412 178.177 295.54C177.732 295.603 177.16 295.73 177.032 296.176C176.905 296.621 177.223 297.066 177.605 297.384C179.131 298.592 181.421 298.783 183.074 297.766" fill="#E8505B"/>
<path d="M179.068 296.684C179.068 296.684 179.196 296.684 179.386 296.621C179.45 296.621 179.577 296.621 179.704 296.621C179.832 296.621 180.022 296.621 180.15 296.621C180.34 296.621 180.531 296.621 180.722 296.684C180.913 296.684 181.104 296.748 181.358 296.812C181.803 296.939 182.248 297.13 182.694 297.384C183.139 297.638 183.52 297.956 183.838 298.211C184.029 298.338 184.156 298.529 184.284 298.656C184.411 298.783 184.538 298.974 184.602 299.101C184.729 299.228 184.792 299.356 184.856 299.483C184.92 299.61 184.983 299.674 185.047 299.801C185.11 299.992 185.174 300.055 185.174 300.055C185.174 300.055 184.983 299.674 184.602 299.165C184.474 299.038 184.411 298.91 184.284 298.72C184.156 298.592 184.029 298.402 183.838 298.274C183.52 297.956 183.139 297.702 182.694 297.448C182.248 297.193 181.803 297.002 181.358 296.875C181.167 296.812 180.913 296.748 180.722 296.748C180.531 296.684 180.34 296.684 180.213 296.684C179.514 296.684 179.068 296.684 179.068 296.684Z" fill="#263238"/>
<path d="M272.626 143.281C270.4 144.553 267.283 143.981 265.693 141.946C267.983 140.992 270.972 141.628 272.626 143.281Z" fill="#E8505B"/>
<path d="M174.173 113.389C172.011 115.87 167.877 116.442 165.078 114.598C167.495 112.562 171.502 112.054 174.173 113.389Z" fill="#E8505B"/>
<path d="M67.7056 124.138C66.688 126.109 64.0804 127.127 61.918 126.364C63.1264 124.646 65.6704 123.692 67.7056 124.138Z" fill="#E8505B"/>
<path d="M114.961 89.6028C111.845 90.7476 107.965 89.2848 106.375 86.3592C109.428 85.6596 113.18 87.1224 114.961 89.6028Z" fill="#E8505B"/>
<path d="M180.215 112.054C178.116 111.672 176.526 109.573 176.59 107.474C178.498 108.11 180.088 110.146 180.215 112.054Z" fill="#E8505B"/>
<g opacity="0.5">
<path opacity="0.5" d="M180.215 112.054C178.116 111.672 176.526 109.573 176.59 107.474C178.498 108.11 180.088 110.146 180.215 112.054Z" fill="black"/>
</g>
<path d="M260.605 132.851C257.234 133.741 253.418 131.77 252.146 128.59C255.39 128.208 259.079 130.116 260.605 132.851Z" fill="#E8505B"/>
<g opacity="0.5">
<path opacity="0.5" d="M260.605 132.851C257.234 133.741 253.418 131.77 252.146 128.59C255.39 128.208 259.079 130.116 260.605 132.851Z" fill="black"/>
</g>
<path d="M139.955 113.071C135.185 114.28 129.715 111.545 127.871 107.029C132.514 106.457 137.793 109.192 139.955 113.071Z" fill="#E8505B"/>
<g opacity="0.5">
<path opacity="0.5" d="M139.955 113.071C135.185 114.28 129.715 111.545 127.871 107.029C132.514 106.457 137.793 109.192 139.955 113.071Z" fill="black"/>
</g>
<path d="M230.903 120.894C229.313 122.293 226.705 122.357 225.115 120.958C226.769 119.813 229.313 119.813 230.903 120.894Z" fill="#E8505B"/>
<path d="M208.007 111.926C206.799 113.135 204.636 113.262 203.301 112.181C204.573 111.163 206.672 111.1 208.007 111.926Z" fill="#E8505B"/>
<g opacity="0.5">
<path opacity="0.5" d="M208.007 111.926C206.799 113.135 204.636 113.262 203.301 112.181C204.573 111.163 206.672 111.1 208.007 111.926Z" fill="white"/>
</g>
<path d="M77.8819 97.8708C75.9103 101.178 71.3311 102.704 67.7695 101.178C70.0591 98.316 74.5111 96.9168 77.8819 97.8708Z" fill="#E8505B"/>
<g opacity="0.5">
<path opacity="0.5" d="M77.8819 97.8708C75.9103 101.178 71.3311 102.704 67.7695 101.178C70.0591 98.316 74.5111 96.9168 77.8819 97.8708Z" fill="white"/>
</g>
<path d="M265.82 130.052C264.103 129.734 262.831 128.017 262.895 126.3C264.485 126.872 265.757 128.526 265.82 130.052Z" fill="#E8505B"/>
<g opacity="0.5">
<path opacity="0.5" d="M265.82 130.052C264.103 129.734 262.831 128.017 262.895 126.3C264.485 126.872 265.757 128.526 265.82 130.052Z" fill="white"/>
</g>
<path d="M91.6812 89.4756C91.6812 89.4756 91.6812 89.5392 91.7448 89.6664C91.7448 89.73 91.8084 89.7936 91.8084 89.9208C91.872 89.9844 91.872 90.1116 91.9356 90.2388C92.1264 90.684 92.6352 91.32 93.5256 91.638C93.9708 91.8288 94.4796 91.956 95.052 91.8924C95.6244 91.8924 96.2604 91.7016 96.8328 91.32C97.9776 90.5568 98.55 88.8396 98.1684 87.186C97.9776 86.3592 97.596 85.5324 96.8964 84.8964C96.2604 84.2604 95.37 83.7516 94.3524 83.5608C92.3808 83.052 90.0912 83.4336 88.2468 84.7692C87.3564 85.4052 86.5296 86.2956 86.0208 87.3768C85.512 88.458 85.4484 89.73 85.7664 90.8748C86.0844 92.0196 86.8476 93.1008 87.8016 93.9912C88.7556 94.818 89.9004 95.454 91.1724 95.8992C93.7164 96.726 96.324 96.6624 98.8044 96.726C101.285 96.7896 103.702 96.7896 106.055 96.7896C110.634 96.7896 114.832 96.726 118.33 96.6624C121.828 96.5988 124.626 96.5352 126.598 96.5352C127.552 96.5352 128.315 96.5352 128.824 96.5352C129.078 96.5352 129.269 96.5352 129.396 96.5352C129.523 96.5352 129.587 96.5352 129.587 96.5352C129.587 96.5352 129.523 96.5352 129.396 96.5352C129.269 96.5352 129.078 96.5352 128.824 96.5988C128.315 96.5988 127.552 96.6624 126.598 96.6624C124.626 96.726 121.828 96.8532 118.33 96.9168C114.832 96.9804 110.698 97.1076 106.055 97.1076C103.765 97.1076 101.348 97.1076 98.8044 97.044C96.324 96.9804 93.6528 96.9804 91.0452 96.1536C88.5012 95.3904 86.2116 93.4824 85.4484 90.9384C85.0668 89.73 85.194 88.3308 85.7028 87.2496C86.2116 86.1048 87.102 85.2144 88.056 84.5148C89.964 83.1792 92.3808 82.7976 94.416 83.3064C95.4336 83.5608 96.324 84.0696 97.0236 84.7692C97.7232 85.4688 98.1684 86.3592 98.3592 87.186C98.7408 88.9032 98.1048 90.684 96.8964 91.5108C96.324 91.956 95.6244 92.0832 95.052 92.0832C94.416 92.0832 93.9072 91.956 93.462 91.7652C92.5716 91.3836 91.9992 90.7476 91.8084 90.2388C91.7448 90.1116 91.7448 89.9844 91.6812 89.9208C91.6812 89.8572 91.6812 89.73 91.6176 89.6664C91.6812 89.5392 91.6812 89.4756 91.6812 89.4756Z" fill="#263238"/>
<path d="M85.4492 101.496C85.4492 101.432 94.4804 101.242 105.547 101.051C116.677 100.924 125.644 100.86 125.644 100.987C125.644 101.051 116.613 101.242 105.547 101.432C94.4804 101.56 85.4492 101.623 85.4492 101.496Z" fill="#263238"/>
<path d="M75.7183 113.262C75.7183 113.262 75.7819 113.262 75.9091 113.262C76.0363 113.262 76.2271 113.262 76.4815 113.326C76.9267 113.453 77.6899 113.771 78.2623 114.534C78.8347 115.234 79.3435 116.442 79.2163 117.778C79.0891 118.477 78.8347 119.177 78.2623 119.686C77.7535 120.258 76.9903 120.703 76.1635 120.894C75.3367 121.085 74.4463 121.148 73.4923 120.894C72.6019 120.64 71.7115 120.067 71.1391 119.304C69.8671 117.714 69.4855 115.297 70.3759 113.198C71.2663 111.1 73.2379 109.51 75.4003 108.556C76.4815 108.047 77.6899 107.665 78.8983 107.411C80.1067 107.22 81.3787 106.966 82.6507 106.775C87.7387 106.139 92.5723 105.884 96.9607 105.694C101.349 105.566 105.356 105.503 108.663 105.503C111.97 105.503 114.705 105.566 116.549 105.566C117.44 105.566 118.203 105.63 118.712 105.63C118.966 105.63 119.157 105.63 119.284 105.63C119.411 105.63 119.475 105.63 119.475 105.63C119.475 105.63 119.411 105.63 119.284 105.63C119.157 105.63 118.966 105.63 118.712 105.63C118.203 105.63 117.503 105.63 116.549 105.63C114.641 105.63 111.97 105.63 108.663 105.63C105.356 105.694 101.349 105.757 96.9607 105.884C92.5723 106.075 87.7387 106.33 82.6507 106.966C81.3787 107.093 80.1703 107.347 78.9619 107.602C77.7535 107.856 76.6087 108.238 75.5275 108.683C73.3651 109.637 71.5207 111.163 70.6303 113.135C69.8035 115.106 70.1215 117.396 71.3299 118.922C71.9023 119.686 72.7291 120.194 73.5559 120.449C74.3827 120.703 75.2731 120.703 76.0999 120.449C76.8631 120.258 77.5627 119.813 78.0715 119.304C78.5803 118.795 78.8983 118.159 78.9619 117.523C79.1527 116.251 78.7075 115.106 78.1351 114.407C77.5627 113.644 76.9267 113.326 76.4179 113.198C76.1635 113.135 75.9727 113.071 75.9091 113.071C75.7819 113.262 75.7183 113.262 75.7183 113.262Z" fill="#263238"/>
<path d="M190.325 109.891C190.325 109.891 190.325 109.955 190.389 110.082C190.389 110.146 190.453 110.209 190.453 110.273C190.516 110.336 190.516 110.464 190.58 110.527C190.771 110.909 191.216 111.418 191.979 111.736C192.361 111.926 192.806 111.99 193.315 111.99C193.823 111.99 194.396 111.863 194.841 111.481C195.795 110.782 196.304 109.382 195.986 107.92C195.795 107.22 195.477 106.52 194.905 105.948C194.332 105.376 193.569 104.994 192.742 104.803C191.089 104.358 189.053 104.676 187.463 105.821C186.7 106.393 186.001 107.156 185.555 108.047C185.11 108.937 185.047 110.018 185.365 111.036C185.937 113.071 187.845 114.661 190.007 115.297C192.17 115.997 194.459 115.997 196.622 116.06C198.784 116.124 200.883 116.124 202.855 116.124C206.861 116.124 210.423 116.06 213.476 115.997C216.465 115.933 218.882 115.933 220.599 115.87C221.426 115.87 222.062 115.87 222.571 115.87C222.761 115.87 222.952 115.87 223.079 115.87C223.207 115.87 223.27 115.87 223.27 115.87C223.27 115.87 223.207 115.87 223.079 115.87C222.952 115.87 222.761 115.87 222.571 115.87C222.125 115.87 221.426 115.933 220.599 115.933C218.882 115.997 216.465 116.06 213.476 116.124C210.487 116.188 206.861 116.251 202.855 116.315C200.883 116.315 198.784 116.315 196.622 116.315C194.459 116.251 192.17 116.251 189.944 115.552C187.718 114.852 185.746 113.198 185.11 111.036C184.792 109.955 184.919 108.81 185.365 107.792C185.81 106.838 186.573 106.012 187.4 105.439C189.053 104.231 191.152 103.976 192.933 104.422C193.823 104.676 194.587 105.058 195.223 105.694C195.859 106.266 196.177 107.029 196.367 107.792C196.685 109.319 196.177 110.845 195.095 111.545C194.587 111.926 194.014 112.054 193.505 112.054C192.997 112.054 192.488 111.926 192.106 111.799C191.343 111.481 190.834 110.909 190.707 110.464C190.643 110.336 190.643 110.273 190.58 110.209C190.58 110.146 190.58 110.082 190.516 110.018C190.325 109.955 190.325 109.891 190.325 109.891Z" fill="#263238"/>
<path d="M184.92 120.322C184.92 120.258 192.679 120.067 202.346 119.94C211.95 119.813 219.773 119.813 219.773 119.876C219.773 119.94 212.014 120.131 202.346 120.258C192.679 120.385 184.92 120.385 184.92 120.322Z" fill="#263238"/>
</g>
<defs>
<clipPath id="clip0">
<rect width="407" height="300" fill="white"/>
</clipPath>
</defs>
</svg>
