<svg width="407" height="300" viewBox="0 0 407 300" fill="none" xmlns="http://www.w3.org/2000/svg">
<path d="M347.954 215.879H238.797V152.742H347.954V215.879ZM239.463 215.213H347.288V153.408H239.463V215.213Z" fill="#E0E0E0"/>
<path d="M325.444 186.375H253.449V188.506H325.444V186.375Z" fill="#F0F0F0"/>
<path d="M330.439 194.3H253.449V196.631H330.439V194.3Z" fill="#F0F0F0"/>
<path d="M330.439 202.226H253.449V204.557H330.439V202.226Z" fill="#F0F0F0"/>
<path d="M278.624 174.986H253.449V180.447H278.624V174.986Z" fill="#F0F0F0"/>
<path d="M347.622 153.075H239.131V163.131H347.622V153.075Z" fill="#5CA8E6"/>
<path d="M339.296 161.6C339.163 161.466 340.561 159.801 342.426 157.803C344.291 155.872 345.889 154.407 346.022 154.54C346.156 154.673 344.757 156.338 342.892 158.336C341.027 160.268 339.429 161.733 339.296 161.6Z" fill="white"/>
<path d="M346.022 161.6C345.889 161.733 344.291 160.268 342.426 158.336C340.561 156.405 339.163 154.673 339.296 154.54C339.429 154.407 341.027 155.872 342.892 157.803C344.757 159.801 346.156 161.466 346.022 161.6Z" fill="white"/>
<path d="M213.689 28H105.197V90.4708H213.689V28Z" fill="#7CC4FF"/>
<path d="M191.444 61.3H119.449V63.4312H191.444V61.3Z" fill="#F0F0F0"/>
<path d="M196.439 69.1588H119.449V71.4898H196.439V69.1588Z" fill="#F0F0F0"/>
<path d="M196.439 77.1508H119.449V79.4818H196.439V77.1508Z" fill="#F0F0F0"/>
<path d="M144.624 49.9114H119.449V55.3726H144.624V49.9114Z" fill="#F0F0F0"/>
<path d="M213.689 28H105.197V38.0566H213.689V28Z" fill="#5CA8E6"/>
<path d="M204.897 36.4582C204.764 36.325 206.163 34.66 208.028 32.662C209.892 30.7306 211.491 29.2654 211.624 29.3986C211.757 29.5318 210.359 31.1968 208.494 33.1948C206.696 35.1262 205.031 36.5914 204.897 36.4582Z" fill="white"/>
<path d="M211.69 36.4582C211.557 36.5914 209.959 35.1262 208.094 33.1948C206.229 31.2634 204.831 29.5318 204.964 29.3986C205.097 29.2654 206.695 30.7306 208.56 32.662C210.425 34.66 211.824 36.325 211.69 36.4582Z" fill="white"/>
<path d="M172.53 144.084H63.4395V80.947H172.597V144.084H172.53ZM64.1055 143.418H171.931V81.613H64.1055V143.418Z" fill="#E0E0E0"/>
<path d="M150.02 114.58H78.0254V116.711H150.02V114.58Z" fill="#F0F0F0"/>
<path d="M155.015 122.439H78.0254V124.77H155.015V122.439Z" fill="#F0F0F0"/>
<path d="M155.015 130.431H78.0254V132.762H155.015V130.431Z" fill="#F0F0F0"/>
<path d="M103.2 103.125H78.0254V108.586H103.2V103.125Z" fill="#F0F0F0"/>
<path d="M172.265 81.2134H63.7734V91.27H172.265V81.2134Z" fill="#5CA8E6"/>
<path d="M298.537 158.536H170.465V273.221H298.537V158.536Z" fill="#5CA8E6"/>
<path d="M176.86 122.439H76.5605V226.668H176.86V122.439Z" fill="#7CC4FF"/>
<path d="M176.86 122.439H76.5605V133.827H176.86V122.439Z" fill="#5CA8E6"/>
<path d="M84.819 127.967C84.819 129.165 83.8866 130.164 82.6878 130.164C81.5556 130.164 80.5566 129.165 80.5566 127.967C80.5566 126.768 81.489 125.769 82.6878 125.769C83.8866 125.769 84.819 126.768 84.819 127.967Z" fill="white"/>
<path d="M93.3444 127.967C93.3444 129.165 92.412 130.164 91.2132 130.164C90.081 130.164 89.082 129.165 89.082 127.967C89.082 126.768 90.0144 125.769 91.2132 125.769C92.412 125.769 93.3444 126.768 93.3444 127.967Z" fill="white"/>
<path d="M101.934 127.967C101.934 129.165 101.002 130.164 99.8031 130.164C98.6709 130.164 97.6719 129.165 97.6719 127.967C97.6719 126.768 98.6043 125.769 99.8031 125.769C101.002 125.769 101.934 126.768 101.934 127.967Z" fill="white"/>
<path d="M333.636 50.7772H205.564V178.449H333.636V50.7772Z" fill="#7CC4FF"/>
<path d="M333.636 50.7772H205.564V65.6956H333.636V50.7772Z" fill="#5CA8E6"/>
<path d="M216.487 58.1033C216.487 59.7017 215.222 61.0336 213.69 61.0336C212.158 61.0336 210.893 59.7682 210.893 58.1033C210.893 56.5049 212.158 55.1729 213.69 55.1729C215.222 55.1729 216.487 56.5049 216.487 58.1033Z" fill="white"/>
<path d="M226.877 56.1052C228.009 57.2374 228.076 59.0356 226.944 60.1012C225.878 61.1668 224.08 61.1668 222.948 60.0346C221.815 58.9024 221.749 57.1042 222.881 56.0386C223.947 54.973 225.745 54.973 226.877 56.1052Z" fill="white"/>
<path d="M238.93 58.1033C238.93 59.7017 237.665 61.0336 236.133 61.0336C234.601 61.0336 233.336 59.7682 233.336 58.1033C233.336 56.5049 234.601 55.1729 236.133 55.1729C237.732 55.1729 238.93 56.5049 238.93 58.1033Z" fill="white"/>
<path d="M305.931 291.765C305.931 291.831 259.711 291.964 202.635 291.964C145.558 291.964 99.3379 291.898 99.3379 291.765C99.3379 291.698 145.558 291.565 202.635 291.565C259.711 291.631 305.931 291.698 305.931 291.765Z" fill="#263238"/>
<path d="M260.91 210.246C250.654 203.053 248.256 189.733 248.722 177.745C248.789 175.747 248.589 173.616 249.522 171.885C250.454 170.153 252.718 168.954 254.517 169.753C255.982 170.486 256.648 172.151 257.514 173.616C258.646 175.548 260.244 177.079 262.176 178.078C263.441 178.744 265.039 179.144 266.305 178.478C268.036 177.546 268.236 175.148 268.236 173.15C268.236 169.42 268.17 165.757 268.17 162.028C268.17 160.03 268.17 158.032 268.769 156.1C269.368 154.236 270.767 152.437 272.632 151.905C274.497 151.372 276.894 152.437 277.294 154.435C277.494 155.235 277.294 156.1 277.36 156.9C277.427 157.699 277.827 158.631 278.559 158.898C279.358 159.164 280.158 158.565 280.757 157.965C282.822 155.967 284.22 153.37 285.486 150.772C286.751 148.175 288.083 145.578 289.948 143.38C291.813 141.182 294.41 139.45 297.274 139.317C300.138 139.184 303.135 140.916 303.867 143.713C304.6 146.51 302.935 149.374 301.203 151.638C298.539 155.035 295.409 157.965 291.946 160.429C291.346 160.896 290.614 161.362 290.414 162.094C290.014 163.426 291.213 164.758 292.545 165.158C294.01 165.624 295.609 165.491 297.207 165.691C298.739 165.891 300.471 166.557 301.003 168.022C301.803 170.086 300.138 172.218 298.473 173.616C295.143 176.413 291.28 178.611 287.217 180.143C285.752 180.676 284.22 181.142 283.021 182.208C281.823 183.207 281.157 185.005 281.823 186.403C282.555 187.802 284.353 188.268 285.885 188.002C287.417 187.735 288.816 186.87 290.281 186.337C293.011 185.271 296.541 185.471 298.273 187.869C299.405 189.4 299.538 191.598 298.939 193.463C298.339 195.328 297.207 196.926 295.942 198.391C291.546 203.52 285.952 207.649 279.625 209.913C273.098 211.978 267.237 212.577 260.91 210.246Z" fill="#74C1C7"/>
<path d="M300.869 140.982C300.869 140.982 300.803 141.049 300.67 141.182C300.536 141.315 300.337 141.515 300.07 141.715C299.537 142.181 298.805 142.847 297.806 143.779C295.874 145.578 293.144 148.308 290.213 151.971C288.748 153.836 287.216 155.901 285.551 158.165C283.953 160.429 282.221 162.894 280.556 165.491C278.891 168.155 277.16 170.952 275.628 174.016C274.829 175.548 274.163 177.146 273.497 178.744C272.831 180.343 272.098 182.008 271.366 183.673C268.568 190.333 266.038 196.793 264.239 202.854C262.441 208.848 261.376 214.442 260.909 219.171C260.443 223.899 260.51 227.762 260.71 230.426C260.843 231.758 260.909 232.757 260.976 233.49C261.043 233.823 261.043 234.089 261.043 234.289C261.043 234.489 261.043 234.555 261.043 234.555C261.043 234.555 261.043 234.489 260.976 234.289C260.976 234.089 260.909 233.823 260.843 233.49C260.71 232.824 260.576 231.758 260.443 230.426C260.177 227.762 260.044 223.899 260.51 219.171C260.976 214.442 261.975 208.781 263.773 202.787C265.571 196.726 268.036 190.266 270.833 183.606C271.565 181.941 272.231 180.276 272.964 178.678C273.63 177.079 274.363 175.481 275.095 173.949C276.627 170.886 278.359 168.022 280.024 165.424C281.755 162.76 283.42 160.363 285.085 158.098C286.684 155.834 288.282 153.769 289.747 151.905C292.744 148.242 295.475 145.511 297.473 143.779C298.472 142.914 299.271 142.248 299.804 141.781C300.07 141.582 300.27 141.382 300.403 141.249C300.803 140.982 300.869 140.982 300.869 140.982Z" fill="#263238"/>
<path d="M275.428 173.816C275.428 173.816 275.362 173.55 275.229 172.95C275.095 172.417 275.029 171.618 274.829 170.619C274.563 168.621 274.23 165.891 273.963 162.827C273.63 159.763 273.297 157.033 273.031 155.101C272.898 154.102 272.764 153.303 272.631 152.77C272.565 152.238 272.498 151.905 272.498 151.905C272.498 151.905 272.631 152.171 272.764 152.77C272.898 153.303 273.097 154.102 273.231 155.101C273.63 157.099 273.963 159.83 274.296 162.827C274.629 165.824 274.896 168.555 275.095 170.619C275.229 171.552 275.295 172.351 275.362 172.95C275.495 173.483 275.495 173.816 275.428 173.816Z" fill="#263238"/>
<path d="M301.071 169.021C301.071 169.021 300.738 169.087 300.072 169.154C299.406 169.221 298.473 169.287 297.274 169.42C294.943 169.687 291.68 170.153 288.15 170.819C284.62 171.485 281.424 172.218 279.159 172.817C278.027 173.083 277.095 173.35 276.429 173.55C275.763 173.749 275.43 173.816 275.43 173.816C275.43 173.816 275.763 173.683 276.362 173.416C276.961 173.217 277.894 172.884 279.026 172.551C281.29 171.885 284.487 171.085 288.017 170.419C291.547 169.753 294.81 169.354 297.141 169.154C298.34 169.021 299.272 169.021 299.938 169.021C300.671 169.021 301.071 169.021 301.071 169.021Z" fill="#263238"/>
<path d="M264.307 202.254C264.307 202.254 264.241 202.121 264.108 201.921C263.974 201.655 263.841 201.388 263.641 200.989C263.242 200.19 262.776 198.991 262.11 197.526C260.844 194.595 259.312 190.466 257.647 185.937C255.982 181.408 254.451 177.279 253.252 174.282C252.652 172.817 252.186 171.685 251.853 170.819C251.72 170.419 251.587 170.153 251.454 169.887C251.387 169.687 251.32 169.554 251.32 169.554C251.32 169.554 251.387 169.687 251.52 169.887C251.653 170.153 251.787 170.419 251.986 170.819C252.386 171.618 252.852 172.817 253.518 174.282C254.784 177.213 256.315 181.342 257.98 185.871C259.645 190.399 261.177 194.529 262.376 197.459C262.975 198.924 263.442 200.056 263.775 200.922C263.908 201.322 264.041 201.588 264.174 201.855C264.307 202.121 264.307 202.254 264.307 202.254Z" fill="#263238"/>
<path d="M298.339 191.332C298.339 191.332 298.206 191.398 298.006 191.465C297.74 191.532 297.407 191.665 297.007 191.798C296.075 192.064 294.876 192.464 293.344 192.997C290.281 193.996 286.018 195.394 281.356 196.993C276.694 198.591 272.432 199.99 269.302 200.922C267.77 201.388 266.504 201.788 265.639 201.988C265.239 202.121 264.906 202.188 264.64 202.254C264.44 202.321 264.307 202.321 264.307 202.321C264.307 202.321 264.44 202.254 264.64 202.188C264.906 202.121 265.239 201.988 265.639 201.855C266.571 201.588 267.77 201.189 269.302 200.656C272.365 199.657 276.628 198.258 281.29 196.66C285.952 195.061 290.214 193.663 293.278 192.73C294.809 192.264 296.075 191.865 296.941 191.665C297.34 191.532 297.673 191.465 297.94 191.398C298.206 191.332 298.339 191.265 298.339 191.332Z" fill="#263238"/>
<path d="M284.42 29.7602L280.957 30.959L279.491 26.4968C276.761 18.2384 268.169 13.7762 260.244 16.64C252.319 19.4372 248.123 28.4948 250.787 36.7532L252.252 41.2154L248.789 42.4142C246.125 43.3466 244.66 46.4768 245.592 49.274L255.116 78.4448C256.048 81.3086 258.979 82.7738 261.709 81.8414L297.274 69.1208C300.004 68.1218 301.469 65.0582 300.537 62.1944L291.013 33.0236C290.147 30.293 287.15 28.7612 284.42 29.7602ZM257.38 34.4222C255.915 29.8934 258.179 24.965 262.575 23.3666C266.904 21.8348 271.633 24.2324 273.098 28.7612L274.563 33.2234L258.845 38.8178L257.38 34.4222ZM277.36 60.3296L279.824 67.7888C279.958 68.1218 279.758 68.4548 279.425 68.5214L276.028 69.7202C275.762 69.7868 275.429 69.6536 275.362 69.3872L272.898 61.928C270.234 61.7948 267.836 60.0632 266.904 57.266C265.705 53.6696 267.57 49.7402 271.033 48.4748C274.496 47.2094 278.226 49.1408 279.425 52.8038C280.291 55.601 279.358 58.5314 277.36 60.3296Z" fill="#F6AC3B"/>
<path d="M280.89 30.8924C280.89 30.959 274.563 33.3566 266.638 36.2204C258.712 39.0842 252.252 41.3486 252.252 41.2154C252.252 41.1488 258.579 38.7512 266.504 35.8874C274.363 33.0236 280.823 30.8258 280.89 30.8924Z" fill="#263238"/>
<path d="M288.416 32.0912C288.416 32.0912 288.416 32.1578 288.483 32.291C288.549 32.4242 288.616 32.624 288.683 32.8238C288.882 33.29 289.082 33.956 289.415 34.8218C290.015 36.62 290.88 39.1508 291.946 42.281C293.012 45.4112 294.277 49.2074 295.676 53.3366C296.342 55.4012 297.141 57.599 297.873 59.8634C298.206 60.9956 298.473 62.261 298.406 63.5264C298.34 64.1258 298.206 64.7918 297.873 65.3912C297.54 65.9906 297.141 66.4568 296.608 66.8564C295.609 67.6556 294.41 68.1218 293.211 68.588C292.079 68.9876 290.88 69.3872 289.748 69.8534C287.484 70.6526 285.353 71.4518 283.288 72.1844C279.159 73.6496 275.429 74.9816 272.299 76.1138C269.169 77.1794 266.638 78.1118 264.906 78.7112C264.041 78.9776 263.375 79.244 262.908 79.3772C262.709 79.4438 262.509 79.5104 262.376 79.577C262.242 79.6436 262.176 79.6436 262.176 79.6436C262.176 79.6436 262.242 79.6436 262.376 79.577C262.509 79.5104 262.709 79.4438 262.908 79.3772C263.375 79.1774 264.041 78.911 264.906 78.6446C266.705 77.9786 269.169 77.0462 272.299 75.914C275.429 74.7818 279.159 73.4498 283.288 71.918C285.353 71.1854 287.55 70.3862 289.748 69.587C290.88 69.1874 292.013 68.7878 293.145 68.3216C294.277 67.922 295.476 67.4558 296.408 66.6566C296.874 66.257 297.274 65.7908 297.607 65.258C297.873 64.7252 298.073 64.1258 298.14 63.5264C298.273 62.3276 298.007 61.1288 297.674 59.9966C296.941 57.7322 296.208 55.5344 295.542 53.4698C294.144 49.274 292.945 45.5444 291.879 42.4142C290.88 39.284 290.015 36.7532 289.415 34.955C289.149 34.0892 288.949 33.4232 288.749 32.8904C288.683 32.6906 288.616 32.4908 288.616 32.3576C288.416 32.1578 288.416 32.0912 288.416 32.0912Z" fill="#263238"/>
<path d="M269.635 22.967C269.635 22.967 269.302 22.7672 268.636 22.5008C267.97 22.2344 266.971 21.968 265.705 21.9014C264.44 21.8348 262.908 22.0346 261.443 22.7006C259.911 23.3666 258.446 24.4988 257.38 26.0972C256.315 27.6956 255.849 29.4938 255.849 31.1588C255.849 32.8238 256.182 34.289 256.515 35.4878C256.848 36.6866 257.247 37.6856 257.447 38.3516C257.713 39.0176 257.847 39.4172 257.78 39.4172C257.78 39.4172 257.58 39.0842 257.314 38.4182C257.047 37.7522 256.648 36.8198 256.248 35.621C255.849 34.4222 255.516 32.8904 255.516 31.1588C255.516 29.4272 255.982 27.5624 257.114 25.8974C258.246 24.2324 259.778 23.0336 261.376 22.3676C262.975 21.7016 264.507 21.5018 265.772 21.635C267.037 21.7016 268.036 22.0346 268.702 22.3676C269.035 22.5008 269.302 22.634 269.435 22.7672C269.568 22.9004 269.701 22.9004 269.635 22.967Z" fill="#263238"/>
<path d="M269.967 49.0076C269.967 49.0076 270.1 48.941 270.3 48.8078C270.5 48.6746 270.899 48.5414 271.299 48.4082C271.765 48.275 272.365 48.1418 273.031 48.1418C273.697 48.0752 274.562 48.2084 275.362 48.4748C277.093 49.0742 278.625 50.8058 279.424 53.1368C279.824 54.269 279.824 55.6676 279.424 56.933C279.025 58.265 278.292 59.4638 277.226 60.5294L277.293 60.3296C278.159 62.7272 279.158 65.3912 280.157 68.1218L280.223 68.3216L280.024 68.3882C279.557 68.5214 279.025 68.7212 278.492 68.921C277.36 69.3206 276.294 69.6536 275.162 70.0532L275.029 70.1198L274.962 69.9866C274.03 67.256 273.031 64.592 272.298 62.1278L272.431 62.261C271.099 62.1944 269.834 61.595 268.835 60.8624C267.836 60.1298 267.103 59.1974 266.57 58.1984C266.104 57.1994 265.838 56.1338 265.838 55.2014C265.838 54.269 266.104 53.3366 266.371 52.604C266.97 51.1388 267.902 50.2064 268.635 49.6736C269.501 49.1408 269.967 49.0076 269.967 49.0076C269.967 49.0076 269.567 49.2074 268.901 49.7402C268.235 50.273 267.37 51.2054 266.77 52.6706C266.171 54.0692 265.971 56.1338 266.97 58.0652C267.436 58.9976 268.169 59.93 269.168 60.596C270.1 61.3286 271.299 61.8614 272.564 61.928H272.698V62.0612C273.43 64.5254 274.429 67.1228 275.362 69.92L275.162 69.7868C276.227 69.4538 277.36 69.0542 278.492 68.6546C279.025 68.4548 279.557 68.3216 280.024 68.1218L279.89 68.3216C278.891 65.591 277.959 62.927 277.027 60.5294L276.96 60.4628L277.027 60.3962C278.026 59.3972 278.758 58.1984 279.158 56.933C279.491 55.6676 279.491 54.4022 279.158 53.27C278.425 51.0056 276.96 49.3406 275.295 48.7412C274.496 48.4082 273.697 48.3416 273.031 48.3416C272.365 48.3416 271.765 48.4748 271.299 48.608C270.433 48.8078 269.967 49.0076 269.967 49.0076Z" fill="#263238"/>
<path d="M249.388 245.07L182.855 244.737C174.863 244.671 168.402 238.211 168.402 230.219L169.135 63.4522C169.202 55.4602 175.662 49 183.72 49L250.254 49.333C258.246 49.3996 264.706 55.8598 264.706 63.8518L263.973 230.618C263.907 238.677 257.38 245.137 249.388 245.07Z" fill="#455A64"/>
<path d="M250.121 55.0606H237.201C235.469 55.0606 234.07 56.5258 234.07 58.324V60.655C234.07 62.4532 232.672 63.9184 230.94 63.9184L205.832 63.7852C204.1 63.7852 202.702 62.32 202.702 60.5218V58.1908C202.702 56.3926 201.303 54.9274 199.572 54.9274H195.043L183.787 54.8608C178.193 54.8608 173.598 59.3896 173.598 64.984L172.932 227.754C172.932 233.349 177.46 237.944 183.055 237.944L249.455 238.277C255.049 238.277 259.645 233.748 259.645 228.154L260.311 65.3836C260.244 59.656 255.715 55.1272 250.121 55.0606Z" fill="#7CC4FF"/>
<path d="M241.195 216.432L191.845 216.233C191.312 216.233 190.912 215.7 190.912 214.967L190.979 202.047C190.979 201.381 191.378 200.781 191.911 200.781L241.262 200.981C241.795 200.981 242.194 201.514 242.194 202.247L242.128 215.167C242.128 215.9 241.728 216.432 241.195 216.432Z" fill="#F6AC3B"/>
<path d="M201.395 103.334L184.279 103.255L184.265 106.385L201.381 106.464L201.395 103.334Z" fill="#ECE2E3"/>
<path opacity="0.1" d="M201.645 102.92L184.529 102.841L184.515 105.971L201.631 106.05L201.645 102.92Z" fill="#BF5454"/>
<path d="M251.918 122.193C251.918 122.193 252.051 122.193 252.317 122.127C252.584 122.06 252.917 121.727 252.983 121.261C252.983 120.195 252.983 118.664 252.983 116.666C252.983 115.667 252.983 114.534 252.983 113.336C252.983 113.003 252.983 112.736 252.983 112.403C252.983 112.07 252.983 111.804 252.783 111.537C252.584 111.271 252.317 111.138 251.984 111.138C251.651 111.138 251.318 111.138 250.919 111.138C248.055 111.138 244.858 111.138 241.328 111.138C227.076 111.071 207.362 111.005 185.651 110.938C185.384 110.938 185.051 111.071 184.918 111.338C184.718 111.604 184.718 111.87 184.718 112.203C184.718 112.869 184.718 113.535 184.718 114.201C184.718 115.533 184.718 116.865 184.718 118.197C184.718 118.863 184.718 119.529 184.718 120.195C184.718 120.528 184.718 120.861 184.718 121.128C184.785 121.394 184.985 121.594 185.251 121.727C185.384 121.794 185.517 121.794 185.651 121.794H186.117H187.116C187.782 121.794 188.381 121.794 189.047 121.794C194.175 121.794 199.104 121.86 203.832 121.86C213.223 121.927 221.748 121.994 228.874 121.994C236 122.06 241.728 122.127 245.724 122.127C247.722 122.127 249.254 122.193 250.319 122.193C250.852 122.193 251.252 122.193 251.518 122.193C251.718 122.193 251.918 122.193 251.918 122.193C251.918 122.193 251.784 122.193 251.518 122.193C251.252 122.193 250.852 122.193 250.319 122.193C249.254 122.193 247.722 122.193 245.724 122.193C241.728 122.193 235.934 122.193 228.807 122.193C221.681 122.193 213.156 122.127 203.766 122.127C199.037 122.127 194.109 122.06 188.981 122.06C188.315 122.06 187.715 122.06 187.049 122.06H186.05H185.584C185.384 122.06 185.184 122.06 185.051 121.994C184.718 121.86 184.452 121.527 184.319 121.194C184.252 120.995 184.252 120.795 184.252 120.662V120.195C184.252 119.529 184.252 118.863 184.252 118.197C184.252 116.865 184.252 115.533 184.252 114.201C184.252 113.535 184.252 112.869 184.252 112.203C184.252 112.004 184.252 111.87 184.252 111.671C184.252 111.471 184.385 111.271 184.452 111.138C184.652 110.805 185.051 110.605 185.451 110.605C207.229 110.738 226.876 110.805 241.128 110.938C244.658 110.938 247.922 111.005 250.719 111.005C251.052 111.005 251.451 111.005 251.784 111.005C252.184 111.005 252.517 111.204 252.717 111.471C252.917 111.737 252.917 112.137 252.917 112.47C252.917 112.803 252.917 113.069 252.917 113.402C252.917 114.601 252.917 115.733 252.917 116.732C252.917 118.73 252.85 120.262 252.85 121.328C252.783 121.86 252.384 122.193 252.117 122.26C252.051 122.26 251.918 122.193 251.918 122.193Z" fill="#E0E0E0"/>
<path d="M220.179 115.488L188.877 115.344L188.863 118.274L220.165 118.418L220.179 115.488Z" fill="#ECE2E3"/>
<path opacity="0.2" d="M220.427 115.074L189.125 114.93L189.111 117.86L220.413 118.004L220.427 115.074Z" fill="white"/>
<path d="M201.511 131.625L184.395 131.546L184.38 134.676L201.496 134.755L201.511 131.625Z" fill="#CEDFF2"/>
<path opacity="0.1" d="M201.511 131.625L184.395 131.546L184.38 134.676L201.496 134.755L201.511 131.625Z" fill="#BF5454"/>
<path d="M251.452 150.898C251.452 150.898 251.585 150.898 251.851 150.831C252.118 150.765 252.451 150.565 252.717 150.099C252.85 149.832 252.85 149.566 252.85 149.233C252.85 148.9 252.85 148.567 252.85 148.167C252.85 147.368 252.85 146.502 252.85 145.503C252.85 144.504 252.85 143.372 252.85 142.173C252.85 141.84 252.85 141.574 252.85 141.241C252.85 140.908 252.85 140.642 252.651 140.375C252.517 140.109 252.251 139.909 251.918 139.842C251.652 139.776 251.252 139.776 250.919 139.776C248.122 139.776 244.858 139.776 241.329 139.776C227.143 139.709 207.496 139.643 185.851 139.576C185.251 139.576 184.719 140.042 184.652 140.642C184.652 141.308 184.652 141.974 184.652 142.64C184.652 143.972 184.652 145.304 184.652 146.636C184.652 147.302 184.652 147.968 184.652 148.634C184.652 148.967 184.585 149.3 184.719 149.566C184.785 149.832 184.985 150.099 185.185 150.232C185.451 150.365 185.718 150.432 185.984 150.432H186.983C187.649 150.432 188.248 150.432 188.914 150.432C194.043 150.432 198.971 150.498 203.633 150.498C213.024 150.565 221.482 150.632 228.608 150.632C235.734 150.698 241.462 150.765 245.458 150.765C247.456 150.765 248.988 150.831 250.053 150.831C250.586 150.831 250.986 150.831 251.252 150.831C251.319 150.898 251.452 150.898 251.452 150.898C251.452 150.898 251.319 150.898 251.052 150.898C250.786 150.898 250.386 150.898 249.853 150.898C248.788 150.898 247.256 150.898 245.258 150.898C241.262 150.898 235.534 150.898 228.408 150.898C221.282 150.898 212.824 150.831 203.433 150.831C198.705 150.831 193.776 150.765 188.715 150.765C188.049 150.765 187.449 150.765 186.783 150.765H185.784C185.451 150.765 185.052 150.698 184.785 150.498C184.452 150.299 184.252 149.966 184.186 149.633C184.119 149.233 184.119 148.967 184.119 148.634C184.119 147.968 184.119 147.302 184.119 146.636C184.119 145.304 184.119 143.972 184.119 142.64C184.119 141.974 184.119 141.308 184.119 140.575C184.186 139.776 184.918 139.176 185.651 139.176C207.296 139.31 226.943 139.376 241.129 139.509C244.659 139.509 247.922 139.576 250.719 139.576C251.052 139.576 251.452 139.509 251.785 139.643C252.118 139.776 252.451 139.976 252.584 140.309C252.784 140.575 252.784 140.975 252.784 141.308C252.784 141.641 252.784 141.907 252.784 142.24C252.784 143.439 252.784 144.571 252.784 145.57C252.784 146.569 252.784 147.435 252.784 148.234C252.784 148.634 252.784 148.967 252.784 149.3C252.784 149.633 252.784 149.899 252.651 150.165C252.384 150.632 251.985 150.831 251.785 150.898C251.585 150.898 251.452 150.898 251.452 150.898Z" fill="#E0E0E0"/>
<path d="M201.13 161.942L184.014 161.864L183.999 164.994L201.116 165.073L201.13 161.942Z" fill="#ECE2E3"/>
<path opacity="0.1" d="M201.38 161.528L184.264 161.45L184.249 164.58L201.366 164.659L201.38 161.528Z" fill="#BF5454"/>
<path d="M251.319 180.801C251.319 180.801 251.452 180.801 251.719 180.735C251.985 180.668 252.318 180.468 252.584 180.002C252.718 179.736 252.718 179.469 252.718 179.136C252.718 178.803 252.718 178.47 252.718 178.071C252.718 177.272 252.718 176.406 252.718 175.407C252.718 174.408 252.718 173.276 252.718 172.077C252.718 171.744 252.718 171.477 252.718 171.144C252.718 170.811 252.718 170.545 252.518 170.279C252.385 170.012 252.118 169.812 251.785 169.746C251.519 169.679 251.119 169.679 250.786 169.679C247.989 169.679 244.726 169.679 241.196 169.679C227.01 169.613 207.363 169.546 185.718 169.479C185.119 169.479 184.586 169.946 184.519 170.545C184.519 171.211 184.519 171.877 184.519 172.543C184.519 173.875 184.519 175.207 184.519 176.539C184.519 177.205 184.519 177.871 184.519 178.537C184.519 178.87 184.453 179.203 184.586 179.469C184.652 179.736 184.852 180.002 185.052 180.135C185.318 180.269 185.585 180.335 185.851 180.335H186.85C187.516 180.335 188.116 180.335 188.782 180.335C193.91 180.335 198.838 180.402 203.5 180.402C212.891 180.468 221.349 180.535 228.475 180.535C235.601 180.602 241.329 180.668 245.325 180.668C247.323 180.668 248.855 180.735 249.92 180.735C250.453 180.735 250.853 180.735 251.119 180.735C251.186 180.801 251.319 180.801 251.319 180.801C251.319 180.801 251.186 180.801 250.919 180.801C250.653 180.801 250.253 180.801 249.721 180.801C248.655 180.801 247.123 180.801 245.125 180.801C241.129 180.801 235.402 180.801 228.275 180.801C221.149 180.801 212.691 180.735 203.3 180.735C198.572 180.735 193.643 180.668 188.582 180.668C187.916 180.668 187.316 180.668 186.65 180.668H185.651C185.318 180.668 184.919 180.602 184.652 180.402C184.319 180.202 184.12 179.869 184.053 179.536C183.986 179.136 183.986 178.87 183.986 178.537C183.986 177.871 183.986 177.205 183.986 176.539C183.986 175.207 183.986 173.875 183.986 172.543C183.986 171.877 183.986 171.211 183.986 170.478C184.053 169.679 184.786 169.08 185.518 169.08C207.163 169.213 226.81 169.28 240.996 169.413C244.526 169.413 247.789 169.479 250.586 169.479C250.919 169.479 251.319 169.413 251.652 169.546C251.985 169.679 252.318 169.879 252.451 170.212C252.651 170.478 252.651 170.878 252.651 171.211C252.651 171.544 252.651 171.81 252.651 172.143C252.651 173.342 252.651 174.474 252.651 175.473C252.651 176.472 252.651 177.338 252.651 178.137C252.651 178.537 252.651 178.87 252.651 179.203C252.651 179.536 252.651 179.869 252.518 180.069C252.251 180.535 251.852 180.735 251.652 180.801C251.452 180.801 251.319 180.801 251.319 180.801Z" fill="#E0E0E0"/>
<path d="M220.046 144.193L188.744 144.048L188.731 146.979L220.033 147.123L220.046 144.193Z" fill="#ECE2E3"/>
<path opacity="0.2" d="M220.294 143.779L188.992 143.634L188.979 146.565L220.281 146.709L220.294 143.779Z" fill="white"/>
<path d="M191.845 175.34C191.845 176.139 191.245 176.805 190.446 176.805C189.713 176.805 189.047 176.139 189.114 175.34C189.114 174.541 189.713 173.875 190.513 173.875C191.245 173.875 191.845 174.541 191.845 175.34Z" fill="#F0E8E9"/>
<path d="M196.106 175.407C196.106 176.206 195.507 176.872 194.708 176.872C193.975 176.872 193.309 176.206 193.376 175.407C193.376 174.608 193.975 173.942 194.774 173.942C195.507 173.942 196.106 174.608 196.106 175.407Z" fill="#F0E8E9"/>
<path d="M200.37 175.407C200.37 176.206 199.771 176.872 198.971 176.872C198.239 176.872 197.573 176.206 197.639 175.407C197.639 174.608 198.239 173.942 199.038 173.942C199.704 173.942 200.37 174.608 200.37 175.407Z" fill="#F0E8E9"/>
<path d="M204.565 175.407C204.565 176.206 203.966 176.872 203.167 176.872C202.434 176.872 201.768 176.206 201.835 175.407C201.835 174.608 202.434 173.942 203.233 173.942C203.966 173.942 204.565 174.608 204.565 175.407Z" fill="#F0E8E9"/>
<path d="M208.827 175.473C208.827 176.273 208.228 176.939 207.428 176.939C206.696 176.939 206.03 176.273 206.096 175.473C206.096 174.674 206.696 174.008 207.495 174.008C208.228 174.008 208.827 174.608 208.827 175.473Z" fill="#F0E8E9"/>
<path d="M213.091 175.473C213.091 176.273 212.491 176.939 211.692 176.939C210.959 176.939 210.293 176.273 210.36 175.473C210.36 174.674 210.959 174.008 211.759 174.008C212.491 174.008 213.091 174.674 213.091 175.473Z" fill="#F0E8E9"/>
<path d="M217.286 175.473C217.286 176.273 216.687 176.939 215.887 176.939C215.155 176.939 214.489 176.273 214.555 175.473C214.555 174.674 215.155 174.008 215.954 174.008C216.687 174.008 217.353 174.674 217.286 175.473Z" fill="#F0E8E9"/>
<path d="M221.548 175.473C221.548 176.273 220.948 176.939 220.149 176.939C219.417 176.939 218.751 176.273 218.817 175.473C218.817 174.674 219.417 174.008 220.216 174.008C220.948 174.008 221.548 174.674 221.548 175.473Z" fill="#F0E8E9"/>
<path d="M225.811 175.54C225.811 176.339 225.212 177.005 224.413 177.005C223.68 177.005 223.014 176.339 223.081 175.54C223.081 174.741 223.68 174.075 224.479 174.075C225.212 174.075 225.811 174.741 225.811 175.54Z" fill="#F0E8E9"/>
<g opacity="0.2">
<g opacity="0.2">
<path opacity="0.2" d="M191.845 175.34C191.845 176.139 191.245 176.805 190.446 176.805C189.713 176.805 189.047 176.139 189.114 175.34C189.114 174.541 189.713 173.875 190.513 173.875C191.245 173.875 191.845 174.541 191.845 175.34Z" fill="white"/>
</g>
<g opacity="0.2">
<path opacity="0.2" d="M196.106 175.407C196.106 176.206 195.507 176.872 194.708 176.872C193.975 176.872 193.309 176.206 193.376 175.407C193.376 174.608 193.975 173.942 194.774 173.942C195.507 173.942 196.106 174.608 196.106 175.407Z" fill="white"/>
</g>
<g opacity="0.2">
<path opacity="0.2" d="M200.37 175.407C200.37 176.206 199.771 176.872 198.971 176.872C198.239 176.872 197.573 176.206 197.639 175.407C197.639 174.608 198.239 173.942 199.038 173.942C199.704 173.942 200.37 174.608 200.37 175.407Z" fill="white"/>
</g>
<g opacity="0.2">
<path opacity="0.2" d="M204.565 175.407C204.565 176.206 203.966 176.872 203.167 176.872C202.434 176.872 201.768 176.206 201.835 175.407C201.835 174.608 202.434 173.942 203.233 173.942C203.966 173.942 204.565 174.608 204.565 175.407Z" fill="white"/>
</g>
<g opacity="0.2">
<path opacity="0.2" d="M208.827 175.473C208.827 176.273 208.228 176.939 207.428 176.939C206.696 176.939 206.03 176.273 206.096 175.473C206.096 174.674 206.696 174.008 207.495 174.008C208.228 174.008 208.827 174.608 208.827 175.473Z" fill="white"/>
</g>
<g opacity="0.2">
<path opacity="0.2" d="M213.091 175.473C213.091 176.273 212.491 176.939 211.692 176.939C210.959 176.939 210.293 176.273 210.36 175.473C210.36 174.674 210.959 174.008 211.759 174.008C212.491 174.008 213.091 174.674 213.091 175.473Z" fill="white"/>
</g>
<g opacity="0.2">
<path opacity="0.2" d="M217.286 175.473C217.286 176.273 216.687 176.939 215.887 176.939C215.155 176.939 214.489 176.273 214.555 175.473C214.555 174.674 215.155 174.008 215.954 174.008C216.687 174.008 217.353 174.674 217.286 175.473Z" fill="white"/>
</g>
<g opacity="0.2">
<path opacity="0.2" d="M221.548 175.473C221.548 176.273 220.948 176.939 220.149 176.939C219.417 176.939 218.751 176.273 218.817 175.473C218.817 174.674 219.417 174.008 220.216 174.008C220.948 174.008 221.548 174.674 221.548 175.473Z" fill="white"/>
</g>
<g opacity="0.2">
<path opacity="0.2" d="M225.811 175.54C225.811 176.339 225.212 177.005 224.413 177.005C223.68 177.005 223.014 176.339 223.081 175.54C223.081 174.741 223.68 174.075 224.479 174.075C225.212 174.075 225.811 174.741 225.811 175.54Z" fill="white"/>
</g>
</g>
<path d="M219.502 79.7836C220.368 79.384 221.034 78.4516 221.034 77.386C221.034 75.9874 219.968 74.7886 218.636 74.7886C217.304 74.7886 216.238 75.9208 216.172 77.386C216.172 78.5182 216.838 79.4506 217.704 79.7836C213.974 80.3164 214.174 84.379 214.174 84.379L222.965 84.4456C223.032 84.4456 223.231 80.3164 219.502 79.7836Z" fill="#F6AC3B"/>
<path opacity="0.1" d="M219.75 79.3696C220.616 78.97 221.282 78.0376 221.282 76.972C221.282 75.5734 220.216 74.3746 218.884 74.3746C217.552 74.3746 216.486 75.5068 216.42 76.972C216.42 78.1042 217.086 79.0366 217.952 79.3696C214.222 79.9024 214.422 83.965 214.422 83.965L223.213 84.0316C223.28 84.0316 223.479 79.9024 219.75 79.3696Z" fill="#BF5454"/>
<path d="M233.834 87.1164L202.398 86.9713L202.381 90.7009L233.816 90.846L233.834 87.1164Z" fill="#ECE2E3"/>
<path opacity="0.2" d="M234.082 86.7024L202.646 86.5573L202.629 90.2869L234.064 90.432L234.082 86.7024Z" fill="white"/>
<path d="M118.584 102.354C118.584 102.354 118.451 102.354 118.251 102.421C118.051 102.421 117.718 102.487 117.319 102.487C116.919 102.487 116.453 102.554 115.853 102.687C115.587 102.754 115.254 102.754 114.921 102.887C114.588 102.954 114.255 103.087 113.922 103.153C112.457 103.62 110.725 104.352 108.994 105.618C107.262 106.883 105.53 108.681 104.132 111.012C103.399 112.144 102.933 113.476 102.467 114.875C102.067 116.274 101.734 117.805 101.734 119.404C101.668 120.203 101.734 121.002 101.801 121.801C101.801 122.201 101.934 122.601 101.934 123C102.001 123.4 102.067 123.799 102.2 124.266C102.533 125.931 103.199 127.529 104.065 129.127C105.797 132.258 108.661 134.922 112.19 136.52C113.989 137.319 115.92 137.719 117.918 137.785C119.916 137.919 121.981 137.586 123.912 136.92L124.511 136.72H124.578L124.645 136.786C127.508 138.252 130.306 139.65 133.036 141.049L132.77 141.249C131.904 138.451 130.972 135.787 130.172 133.19V133.123L130.239 133.057C132.37 130.926 133.835 128.328 134.635 125.731C135.434 123.067 135.567 120.403 135.301 117.939C134.968 115.474 134.168 113.21 133.103 111.345C132.037 109.414 130.705 107.882 129.307 106.683C127.908 105.484 126.443 104.685 125.177 104.086C123.845 103.553 122.647 103.153 121.714 103.02C121.248 102.954 120.782 102.887 120.382 102.82C119.983 102.82 119.716 102.754 119.45 102.754C119.183 102.754 118.984 102.687 118.85 102.687C118.651 102.354 118.584 102.354 118.584 102.354C118.584 102.354 118.651 102.354 118.784 102.354C118.917 102.354 119.117 102.354 119.383 102.354C119.65 102.354 119.983 102.354 120.382 102.421C120.782 102.487 121.181 102.554 121.714 102.621C122.713 102.82 123.912 103.153 125.244 103.686C126.576 104.286 128.041 105.085 129.44 106.284C130.838 107.482 132.237 109.014 133.303 110.946C134.435 112.877 135.234 115.141 135.567 117.672C135.9 120.203 135.767 122.934 134.968 125.598C134.168 128.262 132.637 130.926 130.505 133.057L130.572 132.857C131.438 135.454 132.304 138.118 133.169 140.916L133.303 141.315L132.903 141.115C130.172 139.717 127.375 138.318 124.511 136.853H124.645L124.045 137.053C122.047 137.719 119.983 138.052 117.918 137.919C115.853 137.852 113.855 137.386 112.057 136.587C108.461 134.988 105.53 132.258 103.799 129.061C102.933 127.462 102.267 125.797 101.934 124.132C101.801 123.733 101.734 123.267 101.668 122.867C101.601 122.467 101.534 122.068 101.534 121.602C101.534 120.802 101.401 119.937 101.468 119.137C101.468 117.539 101.867 116.007 102.267 114.542C102.733 113.143 103.266 111.811 103.999 110.613C105.397 108.282 107.195 106.417 108.927 105.218C110.725 103.953 112.457 103.22 113.922 102.82C114.322 102.754 114.655 102.621 114.988 102.554C115.321 102.487 115.654 102.421 115.92 102.421C116.519 102.354 116.986 102.221 117.385 102.288C117.785 102.288 118.051 102.288 118.318 102.288C118.451 102.354 118.584 102.354 118.584 102.354Z" fill="#E8505B"/>
<path d="M122.38 117.872H121.181L118.517 114.142V111.678C118.517 111.678 116.585 111.545 116.852 114.808C117.052 118.005 116.852 117.206 116.852 117.206C116.852 117.206 112.789 117.206 112.456 117.606C112.19 117.872 112.123 121.868 112.057 124.066C112.057 125.131 112.723 126.197 113.722 126.463C113.855 126.53 113.988 126.53 114.188 126.53C115.187 126.53 120.315 125.731 120.315 125.731H122.446V117.872H122.38Z" fill="#E8505B"/>
<path d="M125.909 117.206L125.11 125.664H123.045V117.406L125.909 117.206Z" fill="#E8505B"/>
<path d="M126.422 286.623V280.381L115.317 280.308L115.244 289.671L115.97 289.744C119.018 289.962 131.575 290.252 133.68 289.599C135.93 288.945 126.422 286.623 126.422 286.623Z" fill="#F6AC3B"/>
<path d="M133.897 289.091C133.897 289.163 129.76 289.308 124.607 289.308C119.454 289.308 115.316 289.236 115.316 289.091C115.316 289.018 119.454 288.873 124.607 288.873C129.688 288.873 133.897 288.945 133.897 289.091Z" fill="#263238"/>
<path d="M126.64 287.929C126.568 287.857 126.641 287.566 126.858 287.203C127.076 286.913 127.366 286.695 127.439 286.768C127.511 286.841 127.366 287.131 127.149 287.421C126.931 287.712 126.713 288.002 126.64 287.929Z" fill="#263238"/>
<path d="M127.366 288.365C127.293 288.365 127.293 287.929 127.511 287.566C127.729 287.203 128.019 286.913 128.091 286.986C128.164 287.058 128.019 287.349 127.801 287.711C127.656 288.074 127.438 288.365 127.366 288.365Z" fill="#263238"/>
<path d="M118.656 289.018C118.584 289.018 118.439 288.873 118.221 288.582C118.003 288.292 117.64 287.929 117.277 287.639C116.842 287.349 116.406 287.131 116.044 287.131C115.681 287.058 115.463 287.131 115.463 287.058C115.463 286.986 115.681 286.841 116.044 286.841C116.406 286.841 116.987 286.986 117.495 287.349C117.931 287.711 118.294 288.147 118.439 288.437C118.584 288.8 118.656 289.018 118.656 289.018Z" fill="#263238"/>
<path d="M126.712 286.768C126.784 286.84 126.567 287.058 126.276 287.203C125.986 287.349 125.696 287.276 125.623 287.203C125.623 287.131 125.841 286.986 126.131 286.84C126.349 286.695 126.639 286.695 126.712 286.768Z" fill="#263238"/>
<path d="M126.496 286.187C126.496 286.26 126.206 286.405 125.843 286.405C125.48 286.405 125.189 286.332 125.189 286.26C125.189 286.187 125.48 286.042 125.843 286.042C126.206 285.969 126.496 286.042 126.496 286.187Z" fill="#263238"/>
<path d="M153.859 286.623V280.381L142.754 280.308L142.682 289.599L143.407 289.671C146.456 289.889 159.012 290.252 161.117 289.599C163.295 288.945 153.859 286.623 153.859 286.623Z" fill="#F6AC3B"/>
<path d="M161.262 289.091C161.262 289.163 157.125 289.308 151.972 289.308C146.819 289.308 142.682 289.236 142.682 289.091C142.682 289.018 146.819 288.873 151.972 288.873C157.125 288.873 161.262 288.945 161.262 289.091Z" fill="#263238"/>
<path d="M154.078 287.929C154.005 287.857 154.078 287.566 154.296 287.203C154.513 286.913 154.804 286.695 154.876 286.768C154.949 286.84 154.804 287.131 154.586 287.421C154.368 287.711 154.151 288.002 154.078 287.929Z" fill="#263238"/>
<path d="M154.731 288.365C154.658 288.365 154.658 287.929 154.876 287.566C155.094 287.203 155.384 286.913 155.457 286.986C155.529 287.058 155.384 287.349 155.166 287.711C155.094 288.074 154.876 288.365 154.731 288.365Z" fill="#263238"/>
<path d="M146.02 289.018C145.947 289.018 145.802 288.873 145.584 288.582C145.367 288.292 145.004 287.929 144.641 287.639C144.205 287.349 143.77 287.131 143.407 287.131C143.044 287.058 142.826 287.131 142.826 287.058C142.826 286.986 143.044 286.841 143.407 286.841C143.77 286.841 144.35 286.986 144.858 287.349C145.294 287.711 145.657 288.147 145.802 288.437C146.02 288.8 146.092 289.018 146.02 289.018Z" fill="#263238"/>
<path d="M154.079 286.768C154.152 286.84 153.934 287.058 153.643 287.203C153.353 287.349 153.063 287.276 152.99 287.203C152.99 287.131 153.208 286.986 153.498 286.84C153.789 286.695 154.006 286.695 154.079 286.768Z" fill="#263238"/>
<path d="M153.933 286.187C153.933 286.26 153.643 286.405 153.28 286.405C152.917 286.405 152.627 286.332 152.627 286.26C152.627 286.187 152.917 286.042 153.28 286.042C153.643 285.969 153.933 286.042 153.933 286.187Z" fill="#263238"/>
<path d="M194.866 102.339C194.576 102.048 193.85 102.194 193.85 102.194C193.85 102.194 193.995 101.323 193.85 100.96C193.705 100.524 192.834 100.597 192.834 100.597C192.834 100.597 192.761 100.234 192.834 99.5807C192.834 99.4356 192.761 99.2904 192.616 99.2178C192.181 98.9275 191.237 99.0001 191.237 99.0001C190.656 98.5646 192.979 95.4436 193.777 94.4274C194.576 93.4113 194.503 92.6129 193.705 92.6129C193.197 92.6129 190.511 95.6613 189.713 96.6775C188.914 97.6936 186.737 100.524 186.664 98.2743C186.592 96.0242 185.648 94.2823 185.14 93.992C184.56 93.7016 183.979 94.3549 184.269 95.0081C184.56 95.5162 184.705 96.5323 184.777 97.2581C184.85 97.8388 184.85 98.492 184.705 99.0726C184.342 100.742 183.906 101.903 183.761 102.339H183.689C183.689 102.339 167.866 117.508 166.705 118.597C165.688 119.541 145.075 117.436 140.938 117C139.777 116.855 138.107 116.637 136.728 116.71C134.914 116.782 134.624 117.073 132.809 117.073C127.293 117.145 122.793 117.653 119.382 118.234C115.244 118.96 111.906 121.863 110.599 125.855C106.462 138.847 97.0265 169.622 95.3571 186.896C94.0506 189.364 92.5264 192.267 91.9458 193.936C90.7845 197.13 91.0748 197.203 91.4377 197.275C92.5264 197.493 93.6877 191.759 94.1232 193.138C94.5587 194.517 91.8006 199.961 92.9619 200.106C94.4135 200.324 95.5749 194.299 95.72 193.791C95.8652 193.283 96.591 193.501 96.4458 193.936C96.2281 194.59 94.1958 201.34 95.6474 201.558C96.4458 201.703 96.5184 200.251 96.5184 200.251C96.5184 200.251 97.97 193.791 98.6233 193.864C99.2765 194.009 98.5507 197.856 98.2604 199.09C97.8975 200.324 98.4055 201.049 99.0587 200.687C99.4942 200.469 100.656 196.622 100.946 195.315C101.236 194.082 102.035 190.525 103.051 192.557C104.067 194.59 105.591 195.751 106.244 195.751C106.898 195.751 107.188 194.88 106.607 194.445C106.172 194.082 105.591 193.283 105.228 192.63C104.938 192.122 104.648 191.541 104.502 190.961C103.994 188.638 103.994 187.259 103.994 187.259L103.849 186.533C105.446 178.477 110.164 154.888 116.914 139.791L119.672 145.525L120.906 149.734L113.502 167.952L145.003 167.517L140.285 149.444L146.019 130.573C152.188 130.718 168.084 130.936 170.697 129.775C174.035 128.323 191.237 106.621 191.237 106.621C192.398 105.678 193.56 104.734 194.431 103.863C194.431 103.863 195.447 102.992 194.866 102.339Z" fill="#FFBE9D"/>
<path d="M112.121 154.597C113.065 151.476 117.71 136.017 117.71 136.017C117.71 136.017 120.033 148.573 119.38 150.097C118.654 151.839 117.42 153.872 117.42 153.872C112.121 162.001 112.775 166.065 112.775 166.065L144.928 165.049C145.001 160.549 142.315 150.097 141.807 148.428C141.227 146.759 143.114 141.315 143.114 141.315C143.114 141.315 146.743 137.613 146.598 135.726C146.307 131.879 145.944 130.645 145.944 130.645L165.541 131.371L164.961 118.089L136.799 115.258C135.855 118.016 126.928 116.637 126.928 116.637C117.347 116.928 116.767 118.742 112.775 121.791C108.783 124.912 102.178 151.404 102.178 151.404L112.121 154.597Z" fill="#F6AC3B"/>
<path d="M131.136 151.476C131.136 151.549 130.483 151.549 129.466 151.549C128.45 151.549 126.999 151.476 125.402 151.331C123.805 151.186 122.353 150.968 121.337 150.751C120.321 150.533 119.668 150.388 119.668 150.315C119.668 150.242 120.321 150.315 121.337 150.46C122.353 150.605 123.805 150.751 125.402 150.968C126.999 151.113 128.45 151.259 129.466 151.331C130.483 151.331 131.136 151.404 131.136 151.476Z" fill="#263238"/>
<path d="M133.386 148.718C133.386 148.791 132.733 149.009 131.644 149.299C130.556 149.589 128.959 149.952 127.217 150.17C125.475 150.388 123.878 150.388 122.717 150.388C121.556 150.388 120.902 150.243 120.902 150.243C120.902 150.17 121.628 150.17 122.717 150.17C123.878 150.17 125.402 150.025 127.144 149.88C128.886 149.662 130.41 149.372 131.499 149.154C132.661 148.791 133.314 148.646 133.386 148.718Z" fill="#263238"/>
<path d="M144.201 136.525C144.273 136.525 144.201 137.178 143.983 138.194C143.765 139.21 143.475 140.589 143.112 142.113C142.749 143.638 142.386 145.017 142.096 145.96C141.805 146.904 141.588 147.557 141.515 147.484C141.442 147.484 141.588 146.831 141.805 145.888C142.096 144.726 142.386 143.42 142.749 142.041C143.112 140.589 143.402 139.283 143.692 138.194C143.983 137.105 144.128 136.525 144.201 136.525Z" fill="#263238"/>
<path d="M112.482 152.71C112.482 152.783 110.232 152.275 107.547 151.549C104.861 150.823 102.684 150.097 102.684 150.025C102.684 149.952 104.934 150.46 107.619 151.186C110.305 151.984 112.482 152.638 112.482 152.71Z" fill="#263238"/>
<path d="M146.378 130.428C146.378 130.428 146.088 130.5 145.58 130.428C145.072 130.355 144.273 130.283 143.402 129.92C142.532 129.557 141.443 129.049 140.499 128.178C139.556 127.307 138.685 126.146 138.104 124.766C137.523 123.387 137.378 121.936 137.451 120.702C137.523 119.395 137.886 118.307 138.467 117.436C139.048 116.637 139.773 116.202 140.281 116.057C140.572 115.984 140.79 115.984 140.935 115.984C141.08 115.984 141.152 115.984 141.152 115.984C141.152 115.984 140.862 115.984 140.354 116.202C139.846 116.347 139.193 116.783 138.685 117.581C137.669 119.105 137.451 121.936 138.467 124.621C138.975 125.928 139.773 127.089 140.717 127.887C141.661 128.758 142.604 129.266 143.475 129.629C145.144 130.428 146.378 130.355 146.378 130.428Z" fill="#263238"/>
<path d="M163.29 131.081C163.217 131.081 163.072 128.105 163.145 124.403C163.145 120.702 163.217 117.726 163.363 117.726C163.435 117.726 163.58 120.702 163.508 124.403C163.508 128.105 163.363 131.081 163.29 131.081Z" fill="#263238"/>
<path d="M136.653 116.057C136.725 114.46 136.871 112.573 136.871 112.573C136.871 112.573 140.863 112.137 141.153 108C141.371 103.863 141.153 94.3548 141.153 94.3548L133.822 90.6532L125.766 96.9678L127 117.653L134.403 118.089C135.564 118.162 136.58 117.291 136.653 116.057Z" fill="#FFBE9D"/>
<path d="M137.38 104.734C137.38 104.734 137.38 104.806 137.307 104.879C137.235 104.952 137.089 105.097 136.872 105.097C136.436 105.097 135.928 104.589 135.783 103.936C135.71 103.645 135.71 103.282 135.783 102.992C135.856 102.702 136.001 102.411 136.218 102.339C136.291 102.266 136.436 102.339 136.509 102.339C136.581 102.411 136.654 102.411 136.654 102.484C136.727 102.629 136.654 102.702 136.654 102.702C136.654 102.702 136.654 102.629 136.581 102.556C136.509 102.484 136.364 102.411 136.218 102.484C136.073 102.556 135.928 102.774 135.928 102.992C135.856 103.21 135.856 103.5 135.928 103.79C136.073 104.371 136.436 104.806 136.799 104.879C136.944 104.879 137.089 104.806 137.162 104.806C137.307 104.806 137.38 104.734 137.38 104.734Z" fill="#EB996E"/>
<path d="M143.622 92.1048C143.042 90.2177 141.009 89.2741 139.195 88.7661C136.364 87.9677 133.316 87.6048 130.63 88.6209C127.872 89.637 124.606 91.379 124.606 94.4274C123.009 94.2822 122.066 95.7339 121.412 97.4758C121.049 98.492 120.759 99.6533 120.759 100.815C120.541 104.807 119.453 110.25 116.84 113.153C115.388 114.75 113.356 115.911 112.557 117.944C111.832 119.686 112.194 121.791 111.541 123.533C110.961 125.129 109.582 126.218 108.638 127.597C106.533 130.573 106.388 134.71 107.912 138.049C109.436 141.388 112.485 143.783 115.824 144.871C119.162 145.96 122.864 145.888 126.275 144.944C128.816 144.291 131.283 143.202 133.243 141.46C135.275 139.718 136.8 137.323 137.235 134.71C137.743 131.734 136.945 128.758 136.291 125.783C134.332 116.492 134.912 115.984 137.38 107.347C137.453 107.202 137.453 107.057 137.525 106.911C137.525 106.766 137.598 106.694 137.598 106.548C137.67 106.186 137.743 105.895 137.743 105.532C137.017 105.823 136.219 105.605 135.638 105.097C135.13 104.516 134.912 103.645 135.13 102.919C135.42 102.048 136.219 101.468 137.017 101.177C137.816 100.887 138.687 100.669 139.485 100.306C141.154 99.5081 142.316 97.8387 143.114 96.0968C143.622 94.7903 143.985 93.4113 143.622 92.1048Z" fill="#263238"/>
<path d="M137.67 104.952C137.67 104.952 137.815 105.242 138.033 105.678C138.25 106.113 138.541 106.766 138.831 107.492L138.904 107.637H138.758C138.541 107.637 138.25 107.71 138.033 107.71C137.525 107.71 137.089 107.782 136.581 107.782C136.508 107.782 136.436 107.71 136.363 107.637C136.363 107.565 136.363 107.492 136.363 107.419C136.363 107.274 136.436 107.202 136.436 107.129L136.581 106.621C136.726 105.968 136.871 105.605 136.871 105.605C136.871 105.605 136.871 106.04 136.726 106.621L136.654 107.129C136.581 107.274 136.581 107.565 136.654 107.565C137.017 107.565 137.525 107.492 138.033 107.419C138.25 107.419 138.541 107.347 138.758 107.347L138.686 107.492C138.396 106.766 138.105 106.113 137.96 105.605C137.742 105.242 137.67 104.952 137.67 104.952Z" fill="#F6AC3B"/>
<path d="M112.849 166.065L145.003 165.049L159.011 219.703L156.398 282.413H139.414L141.519 221.009L129.035 182.977L130.922 284.881L113.72 285.099L111.906 189.364C111.833 186.678 110.962 180.727 111.252 178.041L112.849 166.065Z" fill="#263238"/>
<path d="M133.316 183.775C133.316 183.848 132.735 183.775 131.719 183.702C130.703 183.63 129.396 183.412 127.945 183.122C126.493 182.831 125.187 182.469 124.243 182.251C123.299 182.033 122.719 181.743 122.719 181.743C122.719 181.67 125.114 182.178 128.017 182.759C130.993 183.267 133.316 183.702 133.316 183.775Z" fill="#455A64"/>
<path d="M156.255 279.002C156.255 279.074 152.408 279.219 147.618 279.219C142.827 279.219 138.98 279.147 138.98 279.002C138.98 278.929 142.827 278.784 147.618 278.784C152.408 278.857 156.255 278.929 156.255 279.002Z" fill="#455A64"/>
<path d="M130.778 282.268C130.778 282.341 127.003 282.486 122.431 282.486C117.786 282.486 114.084 282.413 114.084 282.268C114.084 282.195 117.858 282.05 122.431 282.05C127.076 282.05 130.778 282.123 130.778 282.268Z" fill="#455A64"/>
<path d="M128.6 281.977C128.528 281.977 128.02 259.695 127.584 232.259C127.149 204.824 126.858 182.541 126.931 182.541C127.004 182.541 127.512 204.824 127.947 232.259C128.383 259.695 128.673 281.977 128.6 281.977Z" fill="#455A64"/>
<path d="M154.004 279.002C154.004 279.002 154.004 278.929 154.004 278.711C154.004 278.494 154.004 278.203 154.004 277.84C154.004 277.042 154.077 275.953 154.077 274.502C154.149 271.598 154.294 267.389 154.512 262.235C154.875 251.856 155.456 237.485 156.036 221.735C156.036 221.59 156.036 221.445 156.036 221.3V221.372C152.189 206.13 148.778 192.267 146.31 182.251C145.076 177.243 144.06 173.251 143.407 170.42C143.044 169.041 142.826 167.952 142.609 167.226C142.536 166.864 142.464 166.573 142.391 166.356C142.318 166.138 142.318 166.065 142.318 166.065C142.318 166.065 142.391 166.138 142.391 166.356C142.464 166.573 142.536 166.864 142.609 167.154C142.826 167.88 143.117 168.968 143.48 170.347C144.205 173.178 145.222 177.17 146.528 182.178C149.068 192.194 152.552 205.985 156.399 221.227C156.399 221.372 156.399 221.517 156.399 221.662C155.746 237.485 155.165 251.784 154.73 262.163C154.512 267.316 154.294 271.526 154.149 274.429C154.077 275.881 154.004 276.969 154.004 277.768C154.004 278.131 153.931 278.421 153.931 278.639C154.004 278.929 154.004 279.002 154.004 279.002Z" fill="#455A64"/>
<path d="M148.416 219.993C148.416 220.066 146.747 220.501 144.642 220.864C143.045 221.154 141.739 221.3 141.158 221.372V221.227C141.376 221.3 141.448 221.3 141.448 221.372C141.448 221.372 141.303 221.372 141.158 221.372H140.723L141.158 221.227C141.739 221.082 143.045 220.792 144.642 220.501C146.674 220.066 148.416 219.921 148.416 219.993Z" fill="#455A64"/>
<path d="M148.125 222.098C148.125 222.171 146.601 222.098 144.714 221.953C142.827 221.808 141.375 221.662 141.375 221.59C141.375 221.517 142.899 221.445 144.786 221.59C146.601 221.662 148.125 221.953 148.125 222.098Z" fill="#455A64"/>
<path opacity="0.2" d="M112.705 167.226C113.503 168.315 114.592 168.678 115.899 168.896C117.205 169.114 118.512 168.968 119.818 168.823C128.092 167.88 136.947 167.081 145.076 165.049C134.552 165.63 123.447 165.412 112.923 166.065C112.923 166.065 112.85 166.791 112.778 166.936" fill="black"/>
<g opacity="0.2">
<path opacity="0.2" d="M123.521 182.033L129.473 205.041L129.038 183.049L123.521 182.033Z" fill="black"/>
</g>
</svg>
