<svg width="407" height="300" viewBox="0 0 407 300" fill="none" xmlns="http://www.w3.org/2000/svg">
<g clip-path="url(#clip0)">
<path d="M405.867 269.746H6.13281V269.986H405.867V269.746Z" fill="#407BFF"/>
<path d="M137.725 282.058H111.263V282.298H137.725V282.058Z" fill="#407BFF"/>
<path d="M213.115 279.899H206.159V280.139H213.115V279.899Z" fill="#407BFF"/>
<path d="M63.4543 276.542H48.1045V276.782H63.4543V276.542Z" fill="#407BFF"/>
<path d="M338.552 275.182H317.686V275.422H338.552V275.182Z" fill="#407BFF"/>
<path d="M310.491 275.182H291.783V275.422H310.491V275.182Z" fill="#407BFF"/>
<path d="M365.814 284.776H290.903V285.016H365.814V284.776Z" fill="#407BFF"/>
<path d="M195.606 234.09H41.2288C38.7505 234.09 36.6719 232.011 36.6719 229.533V12.557C36.6719 10.0786 38.7505 8 41.2288 8H195.606C198.085 8 200.163 10.0786 200.163 12.557V229.533C200.163 232.011 198.165 234.09 195.606 234.09ZM41.2288 8.15989C38.8304 8.15989 36.8318 10.0786 36.8318 12.557V229.533C36.8318 231.931 38.7505 233.93 41.2288 233.93H195.606C198.005 233.93 200.003 232.011 200.003 229.533V12.557C200.003 10.1586 198.085 8.15989 195.606 8.15989H41.2288Z" fill="#407BFF"/>
<path d="M368.532 234.09H214.155C211.676 234.09 209.598 232.011 209.598 229.533V12.557C209.598 10.0786 211.676 8 214.155 8H368.532C371.01 8 373.089 10.0786 373.089 12.557V229.533C373.089 232.011 371.09 234.09 368.532 234.09ZM214.155 8.15989C211.756 8.15989 209.758 10.0786 209.758 12.557V229.533C209.758 231.931 211.676 233.93 214.155 233.93H368.532C370.93 233.93 372.929 232.011 372.929 229.533V12.557C372.929 10.1586 371.01 8.15989 368.532 8.15989H214.155Z" fill="#407BFF"/>
<path d="M260.815 267.351H279.683V185.006H260.815V267.351Z" fill="#8CB0FF"/>
<path d="M193.193 269.762H276.098V267.364H193.193V269.762Z" fill="#8CB0FF"/>
<path d="M260.844 185.002H189.531V267.348H260.844V185.002Z" fill="#407BFF"/>
<path d="M253.488 189.639H196.966V224.336H253.488V189.639Z" fill="#8CB0FF"/>
<path d="M253.488 228.014H196.966V262.711H253.488V228.014Z" fill="#8CB0FF"/>
<path d="M239.818 195.635H210.557C206.719 195.635 203.602 192.518 203.602 188.68H246.773C246.773 192.518 243.655 195.635 239.818 195.635Z" fill="#407BFF"/>
<path d="M239.818 234.09H210.557C206.719 234.09 203.602 230.972 203.602 227.135H246.773C246.773 230.972 243.655 234.09 239.818 234.09Z" fill="#407BFF"/>
<path d="M337.684 267.351H356.552V185.006H337.684V267.351Z" fill="#8CB0FF"/>
<path d="M270.061 269.762H352.966V267.364H270.061V269.762Z" fill="#8CB0FF"/>
<path d="M337.752 185.002H266.439V267.348H337.752V185.002Z" fill="#407BFF"/>
<path d="M330.397 189.639H273.875V224.336H330.397V189.639Z" fill="#8CB0FF"/>
<path d="M330.397 228.014H273.875V262.711H330.397V228.014Z" fill="#8CB0FF"/>
<path d="M316.726 195.635H287.465C283.628 195.635 280.51 192.518 280.51 188.68H323.681C323.681 192.518 320.563 195.635 316.726 195.635Z" fill="#407BFF"/>
<path d="M316.726 234.09H287.465C283.628 234.09 280.51 230.972 280.51 227.135H323.681C323.681 230.972 320.563 234.09 316.726 234.09Z" fill="#407BFF"/>
<path d="M95.254 74.3262H127.473V37.0709L95.254 37.0709V74.3262Z" fill="#407BFF"/>
<path d="M91.5176 74.3262H126.614V37.0709L91.5176 37.0709V74.3262Z" fill="#407BFF"/>
<path d="M123.641 71.3822V39.963L94.46 39.963V71.3822H123.641Z" fill="#8CB0FF"/>
<path d="M116.62 63.723V62.6038C116.62 54.2893 109.904 47.5737 101.59 47.5737V48.693C101.51 57.0075 108.305 63.723 116.62 63.723Z" fill="#407BFF"/>
<path d="M72.3392 135.121H97.5225V106.26H72.3392V135.121Z" fill="#407BFF"/>
<path d="M69.4411 135.121H96.623V106.26H69.4411V135.121Z" fill="#407BFF"/>
<path d="M94.3926 132.804V108.501H71.7676V132.804H94.3926Z" fill="#8CB0FF"/>
<path d="M88.8783 121.125V120.246C88.8783 117.048 86.24 114.409 83.0422 114.409C79.8443 114.409 77.2061 117.048 77.2061 120.246V121.125C77.2061 124.323 79.8443 126.961 83.0422 126.961C86.32 126.961 88.8783 124.323 88.8783 121.125Z" fill="#407BFF"/>
<path d="M135.122 124.782H169.659V84.9682H135.122V124.782Z" fill="#407BFF"/>
<path d="M131.204 124.782H168.619V84.9682H131.204V124.782Z" fill="#407BFF"/>
<path d="M165.474 121.657V88.1589H134.294V121.657H165.474Z" fill="#8CB0FF"/>
<path d="M151.235 98.6598L157.151 108.893C157.711 109.932 156.991 111.132 155.872 111.132H144.04C142.921 111.132 142.121 109.852 142.761 108.893L148.677 98.6598C149.156 97.7005 150.595 97.7005 151.235 98.6598Z" fill="#407BFF"/>
<path d="M78.159 269.758H97.1064L97.1064 209.878H78.159V269.758Z" fill="#6C96F3"/>
<path d="M81.6826 269.746H78.085V259.513H85.52L81.6826 269.746Z" fill="#8CB0FF"/>
<path d="M149.068 269.758H168.016V209.878H149.068V269.758Z" fill="#6C96F3"/>
<path d="M78.1099 263.464H152.221V209.9H78.1099V263.464Z" fill="#8CB0FF"/>
<path d="M80.8701 213.215V250.63H113.888V213.215H80.8701Z" fill="#6C96F3"/>
<path d="M116.332 213.181V250.596H149.35V213.181H116.332Z" fill="#6C96F3"/>
<path d="M129.651 216.102H136.206C139.084 216.102 141.723 214.903 143.721 212.904H122.136C124.054 214.903 126.773 216.102 129.651 216.102Z" fill="#8CB0FF"/>
<path d="M93.8343 216.102H100.39C103.268 216.102 105.906 214.903 107.905 212.904H86.3193C88.2381 214.903 90.9563 216.102 93.8343 216.102Z" fill="#8CB0FF"/>
<path d="M148.598 269.746H152.196V259.513H144.841L148.598 269.746Z" fill="#8CB0FF"/>
<path d="M129.091 201.871C129.091 204.11 130.93 205.948 133.168 205.948C135.407 205.948 137.245 204.11 137.245 201.871C137.245 199.633 135.407 197.794 133.168 197.794C130.93 197.714 129.091 199.553 129.091 201.871Z" fill="#74C1C7"/>
<path d="M135.007 203.23C137.259 203.23 139.084 201.405 139.084 199.153C139.084 196.901 137.259 195.076 135.007 195.076C132.755 195.076 130.93 196.901 130.93 199.153C130.93 201.405 132.755 203.23 135.007 203.23Z" fill="#74C1C7"/>
<path d="M108.385 202.511C108.385 204.749 110.224 206.588 112.462 206.588C114.701 206.588 116.539 204.749 116.539 202.511C116.539 200.272 114.701 198.433 112.462 198.433C110.224 198.433 108.385 200.272 108.385 202.511Z" fill="#74C1C7"/>
<path d="M140.523 204.909C143.305 204.909 145.56 202.654 145.56 199.872C145.56 197.091 143.305 194.836 140.523 194.836C137.741 194.836 135.486 197.091 135.486 199.872C135.486 202.654 137.741 204.909 140.523 204.909Z" fill="#74C1C7"/>
<path d="M125.493 195.236C125.493 198.034 127.732 200.272 130.53 200.272C133.328 200.272 135.566 198.034 135.566 195.236C135.566 192.438 133.328 190.199 130.53 190.199C127.732 190.199 125.493 192.438 125.493 195.236Z" fill="#77B5BA"/>
<path d="M117.498 196.515C117.498 199.313 119.737 201.551 122.535 201.551C125.333 201.551 127.571 199.313 127.571 196.515C127.571 193.717 125.333 191.478 122.535 191.478C119.737 191.478 117.498 193.717 117.498 196.515Z" fill="#74C1C7"/>
<path d="M112.542 200.272C112.542 203.15 114.86 205.469 117.739 205.469C120.617 205.469 122.935 203.15 122.935 200.272C122.935 197.394 120.617 195.076 117.739 195.076C114.86 195.076 112.542 197.394 112.542 200.272Z" fill="#72BCC1"/>
<path d="M148.598 201.871C148.598 201.871 148.038 209.866 126.373 209.866C104.707 209.866 104.147 201.871 104.147 201.871H148.598Z" fill="#8CB0FF"/>
<path d="M206 309.56C307.091 309.56 389.041 304.784 389.041 298.893C389.041 293.001 307.091 288.226 206 288.226C104.909 288.226 22.958 293.001 22.958 298.893C22.958 304.784 104.909 309.56 206 309.56Z" fill="#64B9FF"/>
<path d="M269.6 60.4007C269.128 58.8087 268.48 57.2757 267.713 55.8017L268.893 51.9102L261.287 44.3042L257.395 45.4834C255.921 44.7169 254.447 44.0683 252.796 43.5966L250.909 40H240.119L238.233 43.5966C236.641 44.0683 235.108 44.7169 233.634 45.4834L229.742 44.3042L222.136 51.9102L223.315 55.8017C222.549 57.2757 221.9 58.7497 221.429 60.4007L217.832 62.2874V73.0774L221.429 74.9641C221.9 76.5561 222.549 78.0891 223.315 79.5631L222.136 83.4546L229.742 91.0606L233.634 89.8814C235.108 90.6479 236.582 91.2964 238.233 91.7681L240.119 95.3648H250.909L252.796 91.7681C254.388 91.2964 255.921 90.6479 257.395 89.8814L261.287 91.0606L268.893 83.4546L267.713 79.5631C268.48 78.0891 269.128 76.6151 269.6 74.9641L273.197 73.0774V62.2874L269.6 60.4007ZM245.485 83.0418C236.994 83.0418 230.155 76.2023 230.155 67.7119C230.155 59.2214 236.994 52.3819 245.485 52.3819C253.975 52.3819 260.815 59.2214 260.815 67.7119C260.815 76.2023 253.975 83.0418 245.485 83.0418Z" fill="#F6AC3B"/>
<path opacity="0.2" d="M269.6 60.4007C269.128 58.8087 268.48 57.2757 267.713 55.8017L268.893 51.9102L261.287 44.3042L257.395 45.4834C255.921 44.7169 254.447 44.0683 252.796 43.5966L250.909 40H240.119L238.233 43.5966C236.641 44.0683 235.108 44.7169 233.634 45.4834L229.742 44.3042L222.136 51.9102L223.315 55.8017C222.549 57.2757 221.9 58.7497 221.429 60.4007L217.832 62.2874V73.0774L221.429 74.9641C221.9 76.5561 222.549 78.0891 223.315 79.5631L222.136 83.4546L229.742 91.0606L233.634 89.8814C235.108 90.6479 236.582 91.2964 238.233 91.7681L240.119 95.3648H250.909L252.796 91.7681C254.388 91.2964 255.921 90.6479 257.395 89.8814L261.287 91.0606L268.893 83.4546L267.713 79.5631C268.48 78.0891 269.128 76.6151 269.6 74.9641L273.197 73.0774V62.2874L269.6 60.4007ZM245.485 83.0418C236.994 83.0418 230.155 76.2023 230.155 67.7119C230.155 59.2214 236.994 52.3819 245.485 52.3819C253.975 52.3819 260.815 59.2214 260.815 67.7119C260.815 76.2023 253.975 83.0418 245.485 83.0418Z" fill="white"/>
<path d="M245.485 62.6412C242.655 62.6412 240.414 64.9407 240.414 67.7119C240.414 70.4831 242.714 72.7826 245.485 72.7826C248.315 72.7826 250.555 70.4831 250.555 67.7119C250.555 64.9407 248.315 62.6412 245.485 62.6412Z" fill="#F6AC3B"/>
<path d="M346.367 77.4995C345.66 75.2 344.775 73.0184 343.655 70.9548L345.365 65.4124L334.457 54.5635L328.915 56.2734C326.851 55.1531 324.67 54.2687 322.37 53.5612L319.658 48.4905H304.21L301.498 53.5612C299.198 54.2687 297.017 55.1531 294.953 56.2734L289.411 54.5635L278.503 65.4714L280.213 71.0137C279.092 73.0774 278.208 75.259 277.5 77.5585L272.43 80.2707V95.7186L277.5 98.4308C278.208 100.73 279.092 102.912 280.213 104.976L278.503 110.518L289.411 121.426L294.953 119.716C297.017 120.836 299.198 121.721 301.498 122.428L304.21 127.499H319.658L322.37 122.428C324.67 121.721 326.851 120.836 328.915 119.716L334.457 121.426L345.365 110.518L343.655 104.976C344.775 102.912 345.66 100.73 346.367 98.4308L351.438 95.7186V80.2707L346.367 77.4995ZM311.993 115.883C296.545 115.883 284.045 103.384 284.045 87.9357C284.045 72.4878 296.545 59.988 311.993 59.988C327.441 59.988 339.941 72.4878 339.941 87.9357C339.941 103.384 327.441 115.883 311.993 115.883Z" fill="#F6AC3B"/>
<path d="M311.993 63.8794C298.726 63.8794 287.937 74.6693 287.937 87.9357C287.937 101.202 298.726 111.992 311.993 111.992C325.259 111.992 336.049 101.202 336.049 87.9357C336.049 74.6693 325.259 63.8794 311.993 63.8794ZM311.993 108.749C300.495 108.749 291.179 99.3742 291.179 87.9357C291.179 76.4382 300.554 67.1223 311.993 67.1223C323.49 67.1223 332.806 76.4971 332.806 87.9357C332.806 99.4331 323.49 108.749 311.993 108.749Z" fill="#F6AC3B"/>
<path opacity="0.2" d="M311.993 63.8794C298.726 63.8794 287.937 74.6693 287.937 87.9357C287.937 101.202 298.726 111.992 311.993 111.992C325.259 111.992 336.049 101.202 336.049 87.9357C336.049 74.6693 325.259 63.8794 311.993 63.8794ZM311.993 108.749C300.495 108.749 291.179 99.3742 291.179 87.9357C291.179 76.4382 300.554 67.1223 311.993 67.1223C323.49 67.1223 332.806 76.4971 332.806 87.9357C332.806 99.4331 323.49 108.749 311.993 108.749Z" fill="black"/>
<path d="M256.746 128.973C256.392 128.973 256.156 128.737 256.156 128.383V127.204C256.156 126.85 256.392 126.614 256.746 126.614C257.1 126.614 257.335 126.85 257.335 127.204V128.383C257.335 128.678 257.1 128.973 256.746 128.973Z" fill="#407BFF"/>
<path d="M247.548 113.702C247.017 113.348 246.604 112.876 246.31 112.287C246.192 111.992 245.838 111.874 245.543 111.992C245.248 112.11 245.13 112.464 245.248 112.758C245.602 113.584 246.192 114.232 246.899 114.704C247.017 114.763 247.135 114.822 247.194 114.822C247.371 114.822 247.548 114.704 247.666 114.527C247.902 114.232 247.843 113.879 247.548 113.702Z" fill="#407BFF"/>
<path d="M245.484 106.331C245.838 106.331 246.074 106.096 246.074 105.742V103.501C246.074 103.148 245.838 102.912 245.484 102.912C245.13 102.912 244.895 103.148 244.895 103.501V105.742C244.895 106.096 245.189 106.331 245.484 106.331Z" fill="#407BFF"/>
<path d="M251.616 114.232H249.376C249.022 114.232 248.786 114.468 248.786 114.822C248.786 115.176 249.022 115.412 249.376 115.412H251.616C251.97 115.412 252.206 115.176 252.206 114.822C252.206 114.527 251.97 114.232 251.616 114.232Z" fill="#407BFF"/>
<path d="M246.074 110.282V108.041C246.074 107.688 245.838 107.452 245.484 107.452C245.13 107.452 244.895 107.688 244.895 108.041V110.282C244.895 110.636 245.13 110.872 245.484 110.872C245.838 110.872 246.074 110.636 246.074 110.282Z" fill="#407BFF"/>
<path d="M257.276 118.065C257.217 117.77 256.922 117.534 256.627 117.534C256.333 117.593 256.097 117.888 256.097 118.183C256.097 118.301 256.097 118.478 256.097 118.596V120.364C256.097 120.718 256.333 120.954 256.686 120.954C257.04 120.954 257.276 120.718 257.276 120.364V118.596C257.335 118.419 257.335 118.242 257.276 118.065Z" fill="#407BFF"/>
<path d="M256.746 122.074C256.392 122.074 256.156 122.31 256.156 122.664V124.904C256.156 125.258 256.392 125.494 256.746 125.494C257.1 125.494 257.335 125.258 257.335 124.904V122.664C257.335 122.31 257.1 122.074 256.746 122.074Z" fill="#407BFF"/>
<path d="M256.216 115.706C255.626 115.058 254.86 114.586 254.034 114.35C253.739 114.291 253.386 114.468 253.327 114.763C253.268 115.058 253.445 115.412 253.739 115.471C254.388 115.647 254.919 116.001 255.331 116.473C255.449 116.591 255.626 116.65 255.803 116.65C255.921 116.65 256.098 116.591 256.216 116.473C256.452 116.355 256.452 115.942 256.216 115.706Z" fill="#407BFF"/>
<path d="M245.484 101.792C245.13 101.792 244.895 101.556 244.895 101.202V100.023C244.895 99.669 245.13 99.4331 245.484 99.4331C245.838 99.4331 246.074 99.669 246.074 100.023V101.202C246.074 101.556 245.838 101.792 245.484 101.792Z" fill="#407BFF"/>
<path d="M284.636 176.456H66.0996V179.949H284.636V176.456Z" fill="#407BFF"/>
<path d="M284.708 179.976H332.097V176.483H284.708V179.976Z" fill="#407BFF"/>
<path opacity="0.2" d="M284.708 179.976H332.097V176.483H284.708V179.976Z" fill="black"/>
<path d="M316.26 183.725H81.9592L74.124 179.949H324.095L316.26 183.725Z" fill="#407BFF"/>
<path opacity="0.6" d="M316.26 183.725H81.9592L74.124 179.949H324.095L316.26 183.725Z" fill="white"/>
<path d="M89.0391 183.725V295.4H92.0599L95.8359 183.725H89.0391Z" fill="#407BFF"/>
<path d="M124.438 183.725V295.4H127.459L131.235 183.725H124.438Z" fill="#407BFF"/>
<path d="M316.26 183.725V295.4H313.334L309.558 183.725H316.26Z" fill="#407BFF"/>
<path d="M280.859 183.725V295.4H277.839L274.062 183.725H280.859Z" fill="#407BFF"/>
<path d="M209.492 134.07L199.675 174.285L199.392 176.456H267.454L267.737 174.285L277.555 134.07H209.492Z" fill="#407BFF"/>
<path opacity="0.3" d="M209.492 134.07L199.675 174.285L199.392 176.456H267.454L267.737 174.285L277.555 134.07H209.492Z" fill="black"/>
<path d="M275.479 134.07H207.416L197.599 174.285H265.661L275.479 134.07Z" fill="#407BFF"/>
<path d="M264.15 172.397L273.118 135.864H208.832L199.958 172.397H264.15Z" fill="#E8EEFC"/>
<path d="M247.914 174.285L247.63 176.456H172.677L172.96 174.285H247.914Z" fill="#407BFF"/>
<path opacity="0.6" d="M247.914 174.285L247.63 176.456H172.677L172.96 174.285H247.914Z" fill="#E8EEFC"/>
<path d="M106.314 169.187C106.314 166.261 104.049 163.901 101.028 163.429V162.296C101.028 162.013 100.839 161.824 100.556 161.824H90.3607C90.0775 161.824 89.8887 162.013 89.8887 162.296V176.456H101.122V174.946C104.049 174.474 106.314 172.114 106.314 169.187ZM101.028 173.058V165.222C102.916 165.6 104.426 167.205 104.426 169.187C104.426 171.075 103.01 172.68 101.028 173.058Z" fill="#407BFF"/>
<path d="M297.19 176.456H306.63L303.798 155.688H297.19V176.456Z" fill="#263238"/>
<path d="M283.22 176.456H301.25L304.554 152.195H286.618L283.22 176.456Z" fill="#407BFF"/>
<path opacity="0.3" d="M283.22 176.456H301.25L304.554 152.195H286.618L283.22 176.456Z" fill="black"/>
<path d="M280.859 176.456H299.551L302.855 152.195H284.163L280.859 176.456Z" fill="#407BFF"/>
<path opacity="0.4" d="M297.851 174.568L300.683 154.083H285.862L283.03 174.568H297.851Z" fill="white"/>
<path d="M156.44 140.584L155.685 141.434L154.835 142.378C154.269 143.038 153.703 143.699 153.231 144.36C152.192 145.682 151.154 147.098 150.21 148.514C148.322 151.346 146.717 154.272 145.49 157.198C144.923 158.709 144.451 160.219 144.168 161.73C143.979 162.579 143.885 162.957 143.885 163.334C143.791 163.712 143.791 163.901 143.885 164.184C143.979 164.75 144.64 165.6 145.773 166.355C146.339 166.733 147 167.016 147.755 167.394C148.133 167.582 148.511 167.677 148.888 167.866C149.266 167.96 149.738 168.149 150.021 168.243V173.435C149.36 173.53 148.888 173.624 148.322 173.624C147.755 173.624 147.189 173.718 146.717 173.624C145.584 173.624 144.451 173.435 143.319 173.152C142.186 172.869 140.959 172.397 139.731 171.736C138.504 170.981 137.371 170.037 136.427 168.715C135.483 167.394 134.917 165.789 134.728 164.278C134.634 163.901 134.634 163.523 134.634 163.146C134.634 162.768 134.634 162.39 134.634 162.107V161.541C134.634 161.352 134.634 161.258 134.634 161.069L134.728 160.219C135.011 158.048 135.483 155.877 136.05 153.894C137.371 149.835 139.165 146.059 141.431 142.661C142.563 140.962 143.696 139.262 145.018 137.752C145.679 136.997 146.339 136.147 147 135.392C147.378 135.014 147.661 134.637 148.039 134.259C148.416 133.882 148.699 133.504 149.171 133.032L156.44 140.584Z" fill="#F5C9B2"/>
<path d="M148.039 167.96L152.476 164.75L155.025 173.813C155.025 173.813 151.154 175.229 148.133 173.341L148.039 167.96Z" fill="#F5C9B2"/>
<path d="M158.612 162.579L160.311 170.226L155.024 173.813L152.476 164.75L158.612 162.579Z" fill="#F5C9B2"/>
<path d="M186.46 105.845C186.271 106.411 186.365 106.978 186.743 107.072C187.12 107.166 187.592 106.883 187.781 106.317C187.97 105.75 187.876 105.184 187.498 105.09C187.026 104.995 186.648 105.373 186.46 105.845Z" fill="#263238"/>
<path d="M186.27 106.978C186.27 106.978 186.459 110.659 187.309 112.736C185.987 113.302 184.477 112.264 184.477 112.264L186.27 106.978Z" fill="#EB996E"/>
<path d="M185.515 102.069C185.609 102.069 185.609 102.069 185.704 102.069C187.214 101.597 188.158 102.446 188.158 102.446C188.347 102.541 188.536 102.541 188.63 102.446C188.724 102.258 188.724 102.069 188.63 101.974C188.536 101.974 187.308 100.936 185.515 101.502C185.326 101.597 185.232 101.786 185.326 101.974C185.326 101.974 185.42 102.069 185.515 102.069Z" fill="#263238"/>
<path d="M165.691 107.922C166.73 113.302 167.768 123.12 163.992 126.707C163.992 126.707 165.503 132.182 175.415 132.182C186.365 132.182 180.701 126.707 180.701 126.707C174.754 125.291 174.848 120.854 175.887 116.701L165.691 107.922Z" fill="#F5C9B2"/>
<path d="M162.576 128.595C161.821 126.896 160.877 124.914 162.671 124.253C164.653 123.592 175.415 122.837 179.191 124.158C182.872 125.48 181.834 128.973 181.834 128.973L162.576 128.595Z" fill="#263238"/>
<path d="M200.336 137.846C202.602 142 205.151 146.248 207.605 150.402C210.154 154.555 212.703 158.614 215.535 162.39C216.195 163.334 216.951 164.184 217.706 165.128C218.083 165.6 218.461 165.978 218.839 166.355L219.405 167.016L219.499 167.205L219.594 167.299L219.688 167.394C219.877 167.677 220.443 168.054 221.199 168.338C221.954 168.621 222.898 168.81 223.936 168.998C228.09 169.565 233.093 169.282 237.719 168.81L239.135 173.813C237.813 174.379 236.68 174.757 235.453 175.229C234.226 175.701 232.904 175.984 231.677 176.362C229.128 177.022 226.391 177.4 223.464 177.494C222.048 177.494 220.443 177.4 218.839 177.022C217.234 176.645 215.44 176.078 213.741 174.757L213.08 174.19L212.891 174.096L212.797 174.002L212.608 173.813L211.853 173.058C211.381 172.586 210.815 172.114 210.437 171.642C209.493 170.698 208.643 169.659 207.794 168.621C204.395 164.562 201.469 160.408 198.731 156.066C197.315 153.894 195.994 151.723 194.767 149.552C193.445 147.381 192.218 145.21 191.085 142.85L200.336 137.846Z" fill="#F5C9B2"/>
<path d="M150.871 128.406C143.979 130.011 136.05 148.797 136.05 148.797L149.832 158.237C149.832 158.237 155.024 150.874 158.989 142.755C163.143 134.165 157.951 126.802 150.871 128.406Z" fill="#F6AC3B"/>
<path opacity="0.2" d="M155.874 140.395L149.36 157.765L150.021 158.237C150.021 158.237 152.853 154.272 155.874 148.891V140.395Z" fill="black"/>
<path d="M192.029 128.784C192.029 128.784 199.864 137.658 192.501 192.315C180.701 192.315 158.989 192.315 153.23 192.315C152.947 186.274 156.723 156.821 150.965 128.406C150.965 128.406 157.667 127.085 164.086 126.707C169.09 126.424 176.358 126.33 180.795 126.707C186.554 127.274 192.029 128.784 192.029 128.784Z" fill="#F6AC3B"/>
<path opacity="0.2" d="M187.687 144.643C187.781 144.832 188.631 153.706 195.427 161.446C195.616 157.954 195.616 154.744 195.616 151.912L187.687 144.643Z" fill="black"/>
<path d="M184.288 134.731C183.344 141.717 197.032 159.464 197.032 159.464L210.814 150.024C210.814 150.024 207.038 140.206 200.525 133.787C193.256 126.424 185.326 127.179 184.288 134.731Z" fill="#F6AC3B"/>
<path d="M236.208 168.81L241.778 166.544L247.536 170.886C247.536 170.886 242.061 175.795 237.058 173.907L236.208 168.81Z" fill="#F5C9B2"/>
<path d="M245.554 166.261L249.708 169.282L247.537 170.886L241.778 166.544L245.554 166.261Z" fill="#F5C9B2"/>
<path d="M168.145 98.1983C166.163 105.184 164.653 109.243 166.918 113.963C170.317 121.043 179.851 120.854 183.91 114.624C187.497 108.96 190.141 98.3871 184.382 93.3839C178.718 88.3807 170.128 91.2127 168.145 98.1983Z" fill="#F5C9B2"/>
<path d="M183.061 98.2928C180.229 106.317 176.926 115.19 168.807 113.491C163.521 112.453 163.143 103.957 161.255 100.086C159.556 96.688 159.65 89.8912 163.143 89.8912C161.633 87.6256 169.468 79.4128 174.754 83.7552C176.076 81.8672 185.988 76.2976 193.257 85.1712C200.148 93.4784 196.844 100.464 183.061 98.2928Z" fill="#263238"/>
<path d="M176.737 103.39C176.548 105.278 177.02 107.166 177.869 108.582C179.097 110.565 180.985 109.81 181.645 107.733C182.212 105.845 182.306 102.541 180.607 101.314C178.813 99.9919 177.02 101.314 176.737 103.39Z" fill="#F5C9B2"/>
<path d="M237.057 290.114C238.001 290.114 238.945 290.019 239.229 289.547C239.323 289.358 239.417 289.17 239.229 288.792C239.134 288.603 238.945 288.414 238.662 288.414C237.435 288.037 234.886 289.547 234.792 289.642C234.697 289.642 234.697 289.736 234.697 289.83C234.697 289.925 234.792 289.925 234.792 290.019C235.264 290.019 236.208 290.114 237.057 290.114ZM238.19 288.698C238.285 288.698 238.379 288.698 238.568 288.698C238.757 288.698 238.851 288.792 238.945 288.981C239.04 289.17 239.04 289.264 238.945 289.358C238.568 289.83 236.774 289.83 235.358 289.642C236.019 289.264 237.34 288.698 238.19 288.698Z" fill="#407BFF"/>
<path d="M234.792 289.925C234.887 289.925 234.887 289.925 234.792 289.925C235.736 289.547 237.53 287.942 237.341 287.093C237.341 286.904 237.152 286.621 236.68 286.621C236.303 286.621 236.02 286.715 235.736 286.904C234.792 287.659 234.604 289.642 234.604 289.736C234.604 289.83 234.604 289.83 234.698 289.925C234.792 289.83 234.792 289.925 234.792 289.925ZM236.586 286.904H236.68C236.964 286.904 237.058 287.093 237.058 287.093C237.152 287.565 235.925 288.886 235.076 289.358C235.17 288.792 235.453 287.565 236.02 287.093C236.208 286.998 236.397 286.904 236.586 286.904Z" fill="#407BFF"/>
<path d="M226.296 289.736H233.659L235.264 272.744H227.901L226.296 289.736Z" fill="#F5C9B2"/>
<path d="M234.037 288.886H226.013C225.73 288.886 225.447 289.075 225.352 289.358L223.936 295.872C223.747 296.533 224.314 297.194 224.975 297.194C227.901 297.099 232.055 297.005 235.642 297.005C239.89 297.005 243.571 297.194 248.575 297.194C251.595 297.194 252.445 294.173 251.123 293.89C245.365 292.662 240.645 292.474 235.736 289.453C235.264 289.075 234.698 288.886 234.037 288.886Z" fill="#263238"/>
<path opacity="0.2" d="M235.265 272.744L234.415 281.429H227.052L227.901 272.744H235.265Z" fill="black"/>
<path d="M207.605 290.114C208.36 290.114 209.116 290.019 209.399 289.642C209.493 289.453 209.588 289.264 209.399 288.792C209.304 288.603 209.115 288.414 208.832 288.414C207.794 288.131 205.717 289.547 205.623 289.642C205.528 289.642 205.528 289.736 205.528 289.83C205.528 289.925 205.623 289.925 205.623 289.925C206.095 290.019 206.85 290.114 207.605 290.114ZM208.549 288.698C208.643 288.698 208.738 288.698 208.738 288.698C208.927 288.698 209.021 288.792 209.021 288.886C209.21 289.17 209.115 289.264 209.021 289.358C208.738 289.736 207.228 289.736 206.095 289.547C206.85 289.264 207.888 288.698 208.549 288.698Z" fill="#407BFF"/>
<path d="M205.717 289.925C205.717 289.925 205.812 289.925 205.717 289.925C206.567 289.453 208.077 287.848 207.888 287.093C207.888 286.904 207.794 286.715 207.322 286.621C207.039 286.621 206.85 286.621 206.567 286.81C205.717 287.47 205.528 289.642 205.528 289.736C205.528 289.83 205.528 289.83 205.623 289.925H205.717ZM207.228 286.904C207.511 286.904 207.511 286.998 207.605 287.093C207.7 287.565 206.756 288.792 206 289.358C206.095 288.698 206.284 287.47 206.85 287.093C206.944 286.998 207.039 286.904 207.228 286.904Z" fill="#407BFF"/>
<path d="M197.315 289.736H204.679L208.36 272.744H200.997L197.315 289.736Z" fill="#F5C9B2"/>
<path d="M205.151 288.886H196.938C196.655 288.886 196.371 289.075 196.277 289.358L194.861 295.872C194.672 296.533 195.239 297.194 195.899 297.194C198.826 297.099 200.147 297.005 203.829 297.005C206.095 297.005 208.927 297.194 212.042 297.194C215.063 297.194 215.535 294.173 214.307 293.89C208.643 292.662 208.266 290.963 206.472 289.358C206 288.981 205.623 288.886 205.151 288.886Z" fill="#263238"/>
<g opacity="0.2">
<path opacity="0.2" d="M200.997 272.744H208.361L206.473 281.429H199.109L200.997 272.744Z" fill="black"/>
</g>
<path d="M192.501 192.315C192.501 192.315 247.536 198.168 246.97 226.205C246.309 255.374 236.964 277.747 236.964 277.747H226.013C226.013 277.747 226.58 259.906 226.202 231.208C226.108 222.618 208.644 219.786 191.652 218.747C176.925 217.898 164.087 208.646 158.423 195.053L157.29 192.315H192.501Z" fill="#263238"/>
<path d="M239.606 274.821C239.701 274.821 238.945 280.013 238.945 280.013H223.841L223.464 275.387L239.606 274.821Z" fill="#407BFF"/>
<path d="M180.701 192.315C180.701 192.315 220.632 205.531 221.576 221.957C223.464 252.07 208.643 277.842 208.643 277.842H197.598C197.598 277.842 201.752 265.098 203.262 237.816C205.15 203.454 141.147 237.722 153.136 192.41H180.701V192.315Z" fill="#263238"/>
<path d="M212.041 274.821C212.136 274.821 210.625 280.013 210.625 280.013H195.521L195.805 275.387L212.041 274.821Z" fill="#407BFF"/>
<path d="M209.493 221.202H148.133C148.133 217.331 151.248 214.216 155.118 214.216H202.507C206.378 214.216 209.493 217.331 209.493 221.202Z" fill="#407BFF"/>
<path d="M150.965 221.202L141.714 298.704H143.696L155.402 221.202H150.965Z" fill="#407BFF"/>
<path opacity="0.4" d="M150.965 221.202L141.714 298.704H143.696L155.402 221.202H150.965Z" fill="black"/>
<path d="M163.331 221.202L163.143 298.704H165.125L167.768 221.202H163.331Z" fill="#407BFF"/>
<path opacity="0.4" d="M163.331 221.202L163.143 298.704H165.125L167.768 221.202H163.331Z" fill="black"/>
<path d="M206.661 221.202L215.913 298.704H213.93L202.225 221.202H206.661Z" fill="#407BFF"/>
<path opacity="0.4" d="M206.661 221.202L215.913 298.704H213.93L202.225 221.202H206.661Z" fill="black"/>
<path d="M194.294 221.202L194.483 298.704H192.501L189.857 221.202H194.294Z" fill="#407BFF"/>
<path opacity="0.4" d="M194.294 221.202L194.483 298.704H192.501L189.857 221.202H194.294Z" fill="black"/>
</g>
<defs>
<clipPath id="clip0">
<rect width="407" height="300" rx="32" fill="white"/>
</clipPath>
</defs>
</svg>
