<svg width="406" height="301" viewBox="0 0 406 301" fill="none" xmlns="http://www.w3.org/2000/svg">
<g clip-path="url(#clip0)">
<path d="M378.841 62H329.506V126.402L378.841 127.63V62Z" fill="#64B9FF"/>
<path d="M375.132 64H332V122.41L375.132 123.854V64Z" fill="#B1DCFF"/>
<path d="M368.021 74.9238L339.387 73.8408V114.634H368.021V74.9238Z" fill="#5CA8E6"/>
<path d="M339.387 114.634L368.021 93.6957L339.387 73.8408V114.634Z" fill="#64B9FF"/>
<path d="M65.8534 121H14.3027V279.033H65.8534V121Z" fill="#96CFFF"/>
<path d="M106.402 121.548H65.6719V279.033H106.402V121.548Z" fill="#64B9FF"/>
<path d="M60.7496 146.314H17.041V158.607H60.7496V146.314Z" fill="#64B9FF"/>
<path d="M20.6894 147.836H18.2578V157.268H20.6894V147.836Z" fill="#5CA8E6"/>
<path d="M23.6099 149.844C23.6099 150.27 23.2451 150.635 22.8196 150.635C22.394 150.635 22.0293 150.27 22.0293 149.844C22.0293 149.418 22.394 149.053 22.8196 149.053C23.2451 149.053 23.6099 149.418 23.6099 149.844Z" fill="#FAFAFA"/>
<path d="M23.6099 153.191C23.6099 153.617 23.2451 153.982 22.8196 153.982C22.394 153.982 22.0293 153.617 22.0293 153.191C22.0293 152.765 22.394 152.4 22.8196 152.4C23.2451 152.4 23.6099 152.704 23.6099 153.191Z" fill="#FAFAFA"/>
<path d="M29.1406 149.053H26.709V156.294H29.1406V149.053Z" fill="#5CA8E6"/>
<path d="M32.6055 149.053H30.1738V156.294H32.6055V149.053Z" fill="#5CA8E6"/>
<path d="M36.0703 149.053H33.6387V156.294H36.0703V149.053Z" fill="#5CA8E6"/>
<path d="M39.5957 149.053H37.1641V156.294H39.5957V149.053Z" fill="#5CA8E6"/>
<path d="M43.0605 149.053H40.6289V156.294H43.0605V149.053Z" fill="#5CA8E6"/>
<path d="M46.5254 149.053H44.0938V156.294H46.5254V149.053Z" fill="#5CA8E6"/>
<path d="M49.9902 149.053H47.5586V156.294H49.9902V149.053Z" fill="#5CA8E6"/>
<path d="M53.4551 149.053H51.0234V156.294H53.4551V149.053Z" fill="#5CA8E6"/>
<path d="M56.9199 149.053H54.4883V156.294H56.9199V149.053Z" fill="#5CA8E6"/>
<path d="M60.4473 149.053H58.0156V156.294H60.4473V149.053Z" fill="#5CA8E6"/>
<path d="M60.7496 166.031H17.041V178.323H60.7496V166.031Z" fill="#64B9FF"/>
<path d="M20.6894 167.552H18.2578V176.984H20.6894V167.552Z" fill="#5CA8E6"/>
<path d="M23.6099 169.56C23.6099 169.986 23.2451 170.351 22.8196 170.351C22.394 170.351 22.0293 169.986 22.0293 169.56C22.0293 169.134 22.394 168.769 22.8196 168.769C23.2451 168.769 23.6099 169.134 23.6099 169.56Z" fill="#FAFAFA"/>
<path d="M23.6099 172.907C23.6099 173.333 23.2451 173.698 22.8196 173.698C22.394 173.698 22.0293 173.333 22.0293 172.907C22.0293 172.481 22.394 172.116 22.8196 172.116C23.2451 172.116 23.6099 172.481 23.6099 172.907Z" fill="#FAFAFA"/>
<path d="M29.1406 168.769H26.709V176.01H29.1406V168.769Z" fill="#5CA8E6"/>
<path d="M32.6055 168.769H30.1738V176.01H32.6055V168.769Z" fill="#5CA8E6"/>
<path d="M36.0703 168.769H33.6387V176.01H36.0703V168.769Z" fill="#5CA8E6"/>
<path d="M39.5957 168.769H37.1641V176.01H39.5957V168.769Z" fill="#5CA8E6"/>
<path d="M43.0605 168.769H40.6289V176.01H43.0605V168.769Z" fill="#5CA8E6"/>
<path d="M46.5254 168.769H44.0938V176.01H46.5254V168.769Z" fill="#5CA8E6"/>
<path d="M49.9902 168.769H47.5586V176.01H49.9902V168.769Z" fill="#5CA8E6"/>
<path d="M53.4551 168.769H51.0234V176.01H53.4551V168.769Z" fill="#5CA8E6"/>
<path d="M56.9199 168.769H54.4883V176.01H56.9199V168.769Z" fill="#5CA8E6"/>
<path d="M60.4473 168.769H58.0156V176.01H60.4473V168.769Z" fill="#5CA8E6"/>
<path d="M60.7496 185.747H17.041V198.039H60.7496V185.747Z" fill="#64B9FF"/>
<path d="M20.6894 187.329H18.2578V196.761H20.6894V187.329Z" fill="#5CA8E6"/>
<path d="M23.6099 189.276C23.6099 189.702 23.2451 190.067 22.8196 190.067C22.394 190.067 22.0293 189.702 22.0293 189.276C22.0293 188.85 22.394 188.485 22.8196 188.485C23.2451 188.485 23.6099 188.85 23.6099 189.276Z" fill="#FAFAFA"/>
<path d="M23.6099 192.623C23.6099 193.049 23.2451 193.414 22.8196 193.414C22.394 193.414 22.0293 193.049 22.0293 192.623C22.0293 192.197 22.394 191.832 22.8196 191.832C23.2451 191.832 23.6099 192.197 23.6099 192.623Z" fill="#FAFAFA"/>
<path d="M29.1406 188.485H26.709V195.726H29.1406V188.485Z" fill="#5CA8E6"/>
<path d="M32.6055 188.485H30.1738V195.726H32.6055V188.485Z" fill="#5CA8E6"/>
<path d="M36.0703 188.485H33.6387V195.726H36.0703V188.485Z" fill="#5CA8E6"/>
<path d="M39.5957 188.485H37.1641V195.726H39.5957V188.485Z" fill="#5CA8E6"/>
<path d="M43.0605 188.485H40.6289V195.726H43.0605V188.485Z" fill="#5CA8E6"/>
<path d="M46.5254 188.485H44.0938V195.726H46.5254V188.485Z" fill="#5CA8E6"/>
<path d="M49.9902 188.485H47.5586V195.726H49.9902V188.485Z" fill="#5CA8E6"/>
<path d="M53.4551 188.485H51.0234V195.726H53.4551V188.485Z" fill="#5CA8E6"/>
<path d="M56.9199 188.485H54.4883V195.726H56.9199V188.485Z" fill="#5CA8E6"/>
<path d="M60.4473 188.485H58.0156V195.726H60.4473V188.485Z" fill="#5CA8E6"/>
<path d="M60.7496 205.463H17.041V217.755H60.7496V205.463Z" fill="#64B9FF"/>
<path d="M20.6894 207.045H18.2578V216.477H20.6894V207.045Z" fill="#5CA8E6"/>
<path d="M23.6099 209.053C23.6099 209.479 23.2451 209.844 22.8196 209.844C22.394 209.844 22.0293 209.479 22.0293 209.053C22.0293 208.627 22.394 208.262 22.8196 208.262C23.2451 208.262 23.6099 208.566 23.6099 209.053Z" fill="#FAFAFA"/>
<path d="M23.6099 212.339C23.6099 212.765 23.2451 213.13 22.8196 213.13C22.394 213.13 22.0293 212.765 22.0293 212.339C22.0293 211.913 22.394 211.548 22.8196 211.548C23.2451 211.548 23.6099 211.913 23.6099 212.339Z" fill="#FAFAFA"/>
<path d="M29.1406 208.262H26.709V215.503H29.1406V208.262Z" fill="#5CA8E6"/>
<path d="M32.6055 208.262H30.1738V215.503H32.6055V208.262Z" fill="#5CA8E6"/>
<path d="M36.0703 208.262H33.6387V215.503H36.0703V208.262Z" fill="#5CA8E6"/>
<path d="M39.5957 208.262H37.1641V215.503H39.5957V208.262Z" fill="#5CA8E6"/>
<path d="M43.0605 208.262H40.6289V215.503H43.0605V208.262Z" fill="#5CA8E6"/>
<path d="M46.5254 208.262H44.0938V215.503H46.5254V208.262Z" fill="#5CA8E6"/>
<path d="M49.9902 208.262H47.5586V215.503H49.9902V208.262Z" fill="#5CA8E6"/>
<path d="M53.4551 208.262H51.0234V215.503H53.4551V208.262Z" fill="#5CA8E6"/>
<path d="M56.9199 208.262H54.4883V215.503H56.9199V208.262Z" fill="#5CA8E6"/>
<path d="M60.4473 208.262H58.0156V215.503H60.4473V208.262Z" fill="#5CA8E6"/>
<path d="M60.7496 225.24H17.041V237.532H60.7496V225.24Z" fill="#64B9FF"/>
<path d="M20.6894 226.761H18.2578V236.193H20.6894V226.761Z" fill="#5CA8E6"/>
<path d="M23.6099 228.769C23.6099 229.195 23.2451 229.56 22.8196 229.56C22.394 229.56 22.0293 229.195 22.0293 228.769C22.0293 228.343 22.394 227.978 22.8196 227.978C23.2451 227.978 23.6099 228.343 23.6099 228.769Z" fill="#FAFAFA"/>
<path d="M23.6099 232.055C23.6099 232.481 23.2451 232.846 22.8196 232.846C22.394 232.846 22.0293 232.481 22.0293 232.055C22.0293 231.629 22.394 231.264 22.8196 231.264C23.2451 231.325 23.6099 231.629 23.6099 232.055Z" fill="#FAFAFA"/>
<path d="M29.1406 227.978H26.709V235.219H29.1406V227.978Z" fill="#5CA8E6"/>
<path d="M32.6055 227.978H30.1738V235.219H32.6055V227.978Z" fill="#5CA8E6"/>
<path d="M36.0703 227.978H33.6387V235.219H36.0703V227.978Z" fill="#5CA8E6"/>
<path d="M39.5957 227.978H37.1641V235.219H39.5957V227.978Z" fill="#5CA8E6"/>
<path d="M43.0605 227.978H40.6289V235.219H43.0605V227.978Z" fill="#5CA8E6"/>
<path d="M46.5254 227.978H44.0938V235.219H46.5254V227.978Z" fill="#5CA8E6"/>
<path d="M49.9902 227.978H47.5586V235.219H49.9902V227.978Z" fill="#5CA8E6"/>
<path d="M53.4551 227.978H51.0234V235.219H53.4551V227.978Z" fill="#5CA8E6"/>
<path d="M56.9199 227.978H54.4883V235.219H56.9199V227.978Z" fill="#5CA8E6"/>
<path d="M60.4473 227.978H58.0156V235.219H60.4473V227.978Z" fill="#5CA8E6"/>
<path d="M60.7496 244.956H17.041V257.248H60.7496V244.956Z" fill="#64B9FF"/>
<path d="M20.6894 246.477H18.2578V255.909H20.6894V246.477Z" fill="#5CA8E6"/>
<path d="M23.6099 248.485C23.6099 248.911 23.2451 249.276 22.8196 249.276C22.394 249.276 22.0293 248.911 22.0293 248.485C22.0293 248.059 22.394 247.694 22.8196 247.694C23.2451 247.694 23.6099 248.059 23.6099 248.485Z" fill="#FAFAFA"/>
<path d="M23.6099 251.832C23.6099 252.258 23.2451 252.623 22.8196 252.623C22.394 252.623 22.0293 252.258 22.0293 251.832C22.0293 251.406 22.394 251.041 22.8196 251.041C23.2451 251.041 23.6099 251.406 23.6099 251.832Z" fill="#FAFAFA"/>
<path d="M29.1406 247.694H26.709V254.936H29.1406V247.694Z" fill="#5CA8E6"/>
<path d="M32.6055 247.694H30.1738V254.936H32.6055V247.694Z" fill="#5CA8E6"/>
<path d="M36.0703 247.694H33.6387V254.936H36.0703V247.694Z" fill="#5CA8E6"/>
<path d="M39.5957 247.694H37.1641V254.936H39.5957V247.694Z" fill="#5CA8E6"/>
<path d="M43.0605 247.694H40.6289V254.936H43.0605V247.694Z" fill="#5CA8E6"/>
<path d="M46.5254 247.694H44.0938V254.936H46.5254V247.694Z" fill="#5CA8E6"/>
<path d="M49.9902 247.694H47.5586V254.936H49.9902V247.694Z" fill="#5CA8E6"/>
<path d="M53.4551 247.694H51.0234V254.936H53.4551V247.694Z" fill="#5CA8E6"/>
<path d="M56.9199 247.694H54.4883V254.936H56.9199V247.694Z" fill="#5CA8E6"/>
<path d="M60.4473 247.694H58.0156V254.936H60.4473V247.694Z" fill="#5CA8E6"/>
<path d="M60.7496 264.672H17.041V276.964H60.7496V264.672Z" fill="#64B9FF"/>
<path d="M20.6894 266.254H18.2578V275.686H20.6894V266.254Z" fill="#5CA8E6"/>
<path d="M23.6099 268.201C23.6099 268.627 23.2451 268.992 22.8196 268.992C22.394 268.992 22.0293 268.627 22.0293 268.201C22.0293 267.775 22.394 267.41 22.8196 267.41C23.2451 267.41 23.6099 267.775 23.6099 268.201Z" fill="#FAFAFA"/>
<path d="M23.6099 271.548C23.6099 271.974 23.2451 272.339 22.8196 272.339C22.394 272.339 22.0293 271.974 22.0293 271.548C22.0293 271.122 22.394 270.757 22.8196 270.757C23.2451 270.757 23.6099 271.122 23.6099 271.548Z" fill="#FAFAFA"/>
<path d="M29.1406 267.41H26.709V274.652H29.1406V267.41Z" fill="#5CA8E6"/>
<path d="M32.6055 267.41H30.1738V274.652H32.6055V267.41Z" fill="#5CA8E6"/>
<path d="M36.0703 267.41H33.6387V274.652H36.0703V267.41Z" fill="#5CA8E6"/>
<path d="M39.5957 267.41H37.1641V274.652H39.5957V267.41Z" fill="#5CA8E6"/>
<path d="M43.0605 267.41H40.6289V274.652H43.0605V267.41Z" fill="#5CA8E6"/>
<path d="M46.5254 267.41H44.0938V274.652H46.5254V267.41Z" fill="#5CA8E6"/>
<path d="M49.9902 267.41H47.5586V274.652H49.9902V267.41Z" fill="#5CA8E6"/>
<path d="M53.4551 267.41H51.0234V274.652H53.4551V267.41Z" fill="#5CA8E6"/>
<path d="M56.9199 267.41H54.4883V274.652H56.9199V267.41Z" fill="#5CA8E6"/>
<path d="M60.4473 267.41H58.0156V274.652H60.4473V267.41Z" fill="#5CA8E6"/>
<path d="M44.0907 146.314C44.0907 146.314 44.0907 146.193 44.03 145.949C44.03 145.706 43.9692 145.341 43.9692 144.854C43.9692 144.367 43.9692 143.82 43.9084 143.15C43.8476 142.481 43.8476 141.69 43.6044 140.899C43.3613 140.108 42.9965 139.256 42.4494 138.465C41.9023 137.673 41.0512 136.943 40.0786 136.517C39.0451 136.091 37.8901 135.909 36.6743 135.848C35.4584 135.726 34.1818 135.604 32.9052 135.544C27.738 135.118 23.0571 134.813 19.6528 134.753C17.9507 134.692 16.6133 134.753 15.6406 134.753C15.2151 134.753 14.8503 134.753 14.5464 134.753C14.3032 134.753 14.1816 134.753 14.1816 134.753C14.1816 134.753 14.3032 134.753 14.5464 134.692C14.8503 134.692 15.2151 134.631 15.6406 134.631C16.6133 134.57 17.9507 134.57 19.6528 134.57C23.0571 134.57 27.738 134.813 32.9052 135.3C34.1818 135.422 35.4584 135.544 36.6743 135.604C37.8901 135.726 39.1059 135.909 40.1393 136.335C41.2336 136.761 42.0846 137.552 42.6318 138.404C43.2397 139.256 43.6044 140.108 43.7868 140.959C43.9692 141.811 44.03 142.602 44.03 143.272C44.03 143.941 44.03 144.55 44.03 144.976C44.03 145.402 44.03 145.767 44.03 146.071C44.0907 146.193 44.0907 146.314 44.0907 146.314Z" fill="#64B9FF"/>
<path d="M30.8391 146.314C30.8391 146.314 30.8391 146.193 30.8391 145.949C30.8391 145.706 30.8391 145.341 30.8391 144.915C30.8391 144.489 30.8391 143.941 30.7783 143.272C30.7175 142.663 30.5959 141.933 30.2312 141.264C29.8664 140.594 29.1369 140.108 28.2858 139.742C27.4348 139.438 26.4013 139.256 25.4287 139.438C24.9424 139.499 24.3952 139.682 23.9697 139.925C23.4834 140.168 23.0578 140.534 22.8147 141.02C22.5715 141.507 22.5715 142.055 22.8147 142.542C23.0578 143.028 23.5442 143.394 24.0913 143.515C24.6384 143.637 25.1855 143.454 25.611 143.089C26.0366 142.724 26.2798 142.177 26.2798 141.629C26.3405 141.081 26.1582 140.594 25.8542 140.168C25.5503 139.742 25.1247 139.377 24.6992 139.134C24.2737 138.891 23.7873 138.83 23.2402 138.769C22.7539 138.708 22.2676 138.647 21.7812 138.586C20.8694 138.465 19.9575 138.404 19.1672 138.404C17.5867 138.343 16.3101 138.343 15.3982 138.343C14.9727 138.343 14.6687 138.343 14.3647 138.343C14.1216 138.343 14 138.343 14 138.343C14 138.343 14.1216 138.343 14.3647 138.282C14.6079 138.282 14.9727 138.221 15.3982 138.221C16.3101 138.16 17.5867 138.099 19.1672 138.16C19.9575 138.16 20.8694 138.221 21.7812 138.343C22.2676 138.404 22.7539 138.465 23.2402 138.525C23.4834 138.586 23.7265 138.586 23.9697 138.647C24.2129 138.708 24.5168 138.769 24.76 138.891C25.2463 139.134 25.6718 139.499 26.0366 139.986C26.4013 140.473 26.5837 141.02 26.5229 141.69C26.4621 142.298 26.219 142.907 25.7326 143.333C25.3071 143.759 24.5776 144.002 23.9089 143.88C23.2402 143.759 22.6931 143.333 22.3891 142.724C22.0852 142.177 22.0852 141.446 22.3891 140.899C22.6931 140.351 23.1794 139.986 23.6657 139.682C24.1521 139.438 24.6992 139.256 25.2463 139.134C26.3405 138.951 27.374 139.134 28.2858 139.438C29.1369 139.803 29.9272 140.351 30.3527 141.081C30.7783 141.811 30.8391 142.542 30.8999 143.211C30.9606 143.88 30.8999 144.428 30.8999 144.854C30.8999 145.28 30.8391 145.584 30.8391 145.889C30.8391 146.193 30.8391 146.314 30.8391 146.314Z" fill="#64B9FF"/>
<path d="M47.6774 146.314C47.6774 146.314 47.6166 146.193 47.5558 145.889C47.495 145.645 47.4342 145.219 47.3127 144.732C47.0695 143.698 46.7655 142.237 46.0361 140.534C45.3066 138.83 44.2123 136.882 42.2062 135.422C41.2336 134.692 40.0178 134.266 38.7411 134.083C37.4645 133.901 36.0663 133.901 34.6682 133.84C29.0146 133.718 23.9082 133.779 20.1999 133.596C18.3762 133.536 16.8564 133.414 15.823 133.353C15.3367 133.292 14.9111 133.292 14.6072 133.231C14.364 133.231 14.1816 133.17 14.1816 133.17C14.1816 133.17 14.3032 133.17 14.6072 133.17C14.9111 133.17 15.3367 133.17 15.823 133.231C16.8564 133.292 18.3762 133.353 20.1999 133.353C23.9082 133.414 29.0146 133.414 34.6682 133.475C36.0663 133.536 37.4645 133.536 38.8019 133.718C40.1393 133.901 41.4159 134.327 42.3886 135.118C43.3613 135.909 44.2123 136.761 44.8202 137.673C45.4281 138.586 45.9145 139.499 46.2184 140.351C46.9479 142.055 47.2519 143.576 47.4342 144.611C47.495 145.097 47.5558 145.523 47.6166 145.767C47.6774 146.132 47.6774 146.314 47.6774 146.314Z" fill="#64B9FF"/>
<path d="M60.1412 122.947H17.6484V129.154H60.1412V122.947Z" fill="#64B9FF"/>
<path d="M50.1711 126.051H27.0098V129.154H50.1711V126.051Z" fill="#5CA8E6"/>
<path d="M415.923 278.503C415.923 278.503 415.592 278.503 414.864 278.503C414.137 278.503 413.079 278.503 411.69 278.503C408.912 278.503 404.812 278.57 399.588 278.57C389.072 278.636 373.862 278.702 355.014 278.768C317.384 278.901 265.403 279.033 207.999 279.232C150.596 279.364 98.6148 279.364 60.985 279.232C42.2031 279.165 26.9263 279.099 16.4111 278.967C11.1204 278.901 7.08631 278.834 4.30871 278.702C1.53111 278.636 0.0761719 278.503 0.0761719 278.437C0.0761719 278.437 0.142306 278.503 0.340706 278.503C0.539106 278.503 0.80364 278.57 1.13431 278.57C1.86177 278.636 2.91991 278.636 4.30871 278.702C7.08631 278.768 11.1866 278.834 16.4111 278.901C26.9263 278.967 42.137 279.033 60.985 279.099C98.6148 279.165 150.596 279.099 207.999 278.967C265.403 278.834 317.384 278.702 355.014 278.636C373.796 278.57 389.072 278.57 399.588 278.503C404.878 278.503 408.912 278.503 411.69 278.503C413.079 278.503 414.137 278.503 414.864 278.503C415.592 278.437 415.923 278.503 415.923 278.503Z" fill="#263238"/>
<path d="M319.765 117.089C319.26 115.356 317.312 114.201 315.581 114.634C314.932 114.778 314.283 115.139 313.634 115.139C313.057 115.139 312.48 114.778 311.975 114.562C309.378 113.479 306.061 114.923 305.123 117.594C303.464 116.655 301.228 116.8 299.713 118.027C298.199 119.255 297.477 121.348 297.982 123.226C296.179 123.587 294.664 125.175 294.52 127.052C294.304 128.857 295.458 130.807 297.189 131.456C296.395 132.828 296.395 134.561 297.117 136.005C297.838 137.449 299.281 138.46 300.795 138.676C300.579 140.409 301.372 142.214 302.815 143.081C304.257 143.947 306.277 143.947 307.647 142.936C308.008 144.597 309.45 145.896 311.109 146.257C312.768 146.546 314.572 145.824 315.509 144.38C317.024 145.896 319.693 145.68 321.279 144.236C322.866 142.792 323.371 140.481 323.155 138.388C324.958 138.965 327.122 138.171 328.204 136.583C329.285 134.994 329.213 132.756 328.059 131.24C329.646 131.168 331.017 129.94 331.521 128.424C332.026 126.908 331.594 125.247 330.656 123.948C329.718 122.72 328.276 121.854 326.689 121.565C326.473 120.121 325.535 118.821 324.309 118.099C323.083 117.305 321.568 117.089 320.125 117.522" fill="#263238"/>
<path d="M313.991 219.324L312.26 276.362H309.52L310.024 219.468L313.991 219.324Z" fill="#455A64"/>
<path d="M323.801 218.602L337.216 278.816L340.101 278.672L329.066 218.602H323.801Z" fill="#455A64"/>
<path d="M299.061 219.324L283.482 278.816L280.02 278.672L294.661 219.035L299.061 219.324Z" fill="#455A64"/>
<path d="M337.001 160.264C337.001 160.264 351.57 159.398 350.128 176.293C348.685 193.187 347.82 210.226 342.41 216.075C337.001 221.923 282.472 222.139 277.928 217.302C273.384 212.537 286.656 212.753 289.18 212.753C291.705 212.753 307.068 214.197 312.045 201.057C317.093 187.917 315.795 159.398 337.001 160.264Z" fill="#455A64"/>
<path d="M337.94 160.264C337.94 160.264 349.047 162.574 348.038 174.199C347.028 185.895 344.071 206.255 338.661 211.454C333.252 216.652 312.046 217.807 300.578 217.085C287.234 216.219 278.868 213.692 278.868 213.692C278.868 213.692 276.415 215.28 277.209 216.291C277.93 217.302 284.422 221.345 315.941 220.695C347.389 220.046 345.225 215.353 346.523 210.299C347.821 205.245 350.562 178.17 350.202 172.177C349.769 166.257 346.812 161.275 337.94 160.264Z" fill="#455A64"/>
<path d="M270.931 275.207L270.859 268.564L283.265 268.42L283.409 278.167L282.616 278.239C279.226 278.455 265.161 279.177 262.853 278.528C260.4 277.733 270.931 275.207 270.931 275.207Z" fill="#F0A83A"/>
<g opacity="0.4">
<g opacity="0.4">
<path opacity="0.4" d="M278.938 278.094C279.082 277.084 279.659 276.073 280.524 275.423C281.318 274.773 282.4 274.412 283.409 274.484L283.481 277.95L278.938 278.094Z" fill="black"/>
</g>
</g>
<path opacity="0.4" d="M265.74 276.65C265.74 276.65 262.062 277.733 262.494 278.383C262.927 278.961 277.136 278.816 283.411 278.167V277.878L266.894 278.239C266.894 278.239 266.461 276.65 265.74 276.65Z" fill="black"/>
<path d="M283.628 277.878C283.628 277.878 283.556 277.878 283.411 277.878C283.195 277.878 283.051 277.878 282.834 277.95C282.185 277.95 281.464 278.022 280.598 278.094C278.723 278.167 276.054 278.311 273.169 278.311C270.284 278.383 267.615 278.311 265.74 278.311C264.875 278.311 264.081 278.239 263.504 278.239C263.288 278.239 263.071 278.239 262.855 278.239C262.711 278.239 262.639 278.239 262.639 278.239C262.639 278.239 262.711 278.239 262.855 278.239C263.071 278.239 263.216 278.239 263.504 278.239C264.153 278.239 264.875 278.239 265.74 278.239C267.615 278.239 270.284 278.239 273.169 278.239C276.054 278.167 278.723 278.094 280.598 278.022C281.464 278.022 282.257 277.95 282.834 277.95C283.051 277.95 283.267 277.95 283.483 277.95C283.556 277.878 283.628 277.878 283.628 277.878Z" fill="#263238"/>
<path d="M266.892 278.383C266.82 278.383 266.82 277.878 266.459 277.3C266.099 276.723 265.666 276.506 265.666 276.434C265.666 276.362 266.243 276.65 266.604 277.228C266.964 277.806 266.892 278.455 266.892 278.383Z" fill="#263238"/>
<path d="M270.501 276.506C270.501 276.506 270.284 276.289 270.068 276.001C269.851 275.712 269.779 275.495 269.779 275.423C269.779 275.423 269.996 275.64 270.212 275.928C270.428 276.217 270.573 276.506 270.501 276.506Z" fill="#263238"/>
<path d="M271.51 275.928C271.51 275.928 271.294 275.856 271.077 275.64C270.861 275.423 270.717 275.279 270.717 275.206C270.717 275.206 270.933 275.279 271.15 275.495C271.366 275.712 271.582 275.928 271.51 275.928Z" fill="#263238"/>
<path d="M272.162 274.773C272.162 274.845 271.873 274.845 271.512 274.845C271.152 274.845 270.863 274.845 270.863 274.773C270.863 274.701 271.152 274.701 271.512 274.701C271.873 274.701 272.162 274.701 272.162 274.773Z" fill="#263238"/>
<path d="M272.374 273.979C272.374 274.051 272.086 274.196 271.653 274.196C271.22 274.268 270.932 274.123 270.932 274.123C270.932 274.051 271.292 274.123 271.653 274.051C272.014 273.979 272.302 273.907 272.374 273.979Z" fill="#263238"/>
<path d="M270.068 275.423C270.068 275.423 269.779 275.495 269.274 275.423C269.058 275.423 268.769 275.351 268.409 275.279C268.265 275.206 268.12 275.206 267.904 275.062C267.832 274.99 267.76 274.918 267.688 274.845C267.688 274.701 267.688 274.557 267.832 274.557C268.625 274.123 269.346 274.557 269.635 274.99C269.779 275.206 269.851 275.351 269.923 275.495C269.923 275.64 269.923 275.712 269.923 275.712C269.923 275.712 269.851 275.423 269.563 275.062C269.419 274.918 269.202 274.701 268.842 274.629C268.553 274.557 268.192 274.557 267.904 274.701C267.76 274.773 267.832 274.918 267.976 275.062C268.12 275.134 268.265 275.206 268.409 275.279C268.697 275.351 268.986 275.423 269.202 275.495C269.779 275.423 270.068 275.423 270.068 275.423Z" fill="#263238"/>
<path d="M269.852 275.495C269.852 275.495 269.708 275.279 269.78 274.918C269.78 274.773 269.852 274.557 269.996 274.34C270.141 274.196 270.285 273.907 270.645 273.907C270.862 273.907 270.934 274.123 270.862 274.268C270.862 274.412 270.79 274.557 270.718 274.629C270.573 274.845 270.501 274.99 270.357 275.134C270.141 275.351 269.924 275.495 269.852 275.495C269.924 275.495 270.068 275.351 270.285 275.062C270.357 274.918 270.501 274.773 270.645 274.557C270.718 274.412 270.79 274.051 270.645 274.051C270.429 274.051 270.213 274.268 270.141 274.412C269.996 274.557 269.924 274.773 269.924 274.918C269.852 275.279 269.924 275.495 269.852 275.495Z" fill="#263238"/>
<path d="M283.339 274.484C283.339 274.484 282.979 274.484 282.402 274.557C281.825 274.629 281.103 274.845 280.382 275.423C279.733 276.001 279.3 276.65 279.156 277.228C278.939 277.733 278.939 278.094 278.939 278.094C278.939 278.094 278.939 278.022 278.939 277.878C278.939 277.733 279.012 277.517 279.084 277.228C279.228 276.65 279.661 275.928 280.31 275.351C281.031 274.773 281.825 274.557 282.402 274.484C282.69 274.484 282.906 274.484 283.051 274.484C283.267 274.412 283.339 274.412 283.339 274.484Z" fill="#263238"/>
<path d="M281.968 269.286C282.04 269.286 282.04 270.441 282.112 271.813C282.112 273.257 282.112 274.34 282.112 274.34C282.04 274.34 282.04 273.185 281.968 271.813C281.896 270.441 281.896 269.286 281.968 269.286Z" fill="#263238"/>
<path d="M277.354 276.939C277.354 277.011 276.561 277.156 275.551 277.156C274.541 277.156 273.748 277.084 273.748 277.011C273.748 276.939 274.541 277.011 275.551 277.011C276.561 276.939 277.354 276.867 277.354 276.939Z" fill="#263238"/>
<path d="M279.806 276.867C279.806 276.867 279.733 277.011 279.661 277.228C279.589 277.445 279.517 277.589 279.517 277.589C279.445 277.589 279.445 277.372 279.517 277.156C279.589 276.939 279.733 276.867 279.806 276.867Z" fill="#263238"/>
<path d="M280.671 275.712C280.671 275.712 280.599 275.856 280.527 276.001C280.383 276.145 280.238 276.217 280.238 276.217C280.238 276.217 280.31 276.073 280.383 275.928C280.527 275.784 280.671 275.712 280.671 275.712Z" fill="#263238"/>
<path d="M281.969 275.206C281.969 275.279 281.825 275.279 281.609 275.351C281.392 275.423 281.32 275.495 281.248 275.495C281.248 275.495 281.32 275.279 281.537 275.206C281.825 275.062 282.041 275.134 281.969 275.206Z" fill="#263238"/>
<path d="M282.908 274.918C282.908 274.99 282.835 274.99 282.763 275.062C282.691 275.134 282.547 275.134 282.547 275.062C282.547 274.99 282.619 274.99 282.691 274.918C282.835 274.918 282.908 274.918 282.908 274.918Z" fill="#263238"/>
<path d="M299.136 275.206L299.064 268.564L311.47 268.42L311.614 278.167L310.821 278.239C307.431 278.455 293.366 279.177 291.058 278.528C288.605 277.733 299.136 275.206 299.136 275.206Z" fill="#F0A83A"/>
<g opacity="0.4">
<g opacity="0.4">
<path opacity="0.4" d="M307.143 278.094C307.287 277.084 307.864 276.073 308.729 275.423C309.523 274.773 310.605 274.412 311.614 274.485L311.687 277.95L307.143 278.094Z" fill="black"/>
</g>
</g>
<path opacity="0.4" d="M294.015 276.65C294.015 276.65 290.337 277.733 290.77 278.383C291.203 278.961 305.412 278.816 311.687 278.167V277.878L295.17 278.239C295.097 278.239 294.737 276.65 294.015 276.65Z" fill="black"/>
<path d="M311.829 277.878C311.829 277.878 311.757 277.878 311.612 277.878C311.396 277.878 311.252 277.878 311.035 277.95C310.386 277.95 309.665 278.022 308.8 278.094C306.924 278.167 304.255 278.311 301.37 278.311C298.485 278.383 295.817 278.311 293.941 278.311C293.076 278.311 292.282 278.239 291.705 278.239C291.489 278.239 291.273 278.239 291.056 278.239C290.912 278.239 290.84 278.239 290.84 278.239C290.84 278.239 290.912 278.239 291.056 278.239C291.273 278.239 291.417 278.239 291.705 278.239C292.355 278.239 293.076 278.239 293.941 278.239C295.817 278.239 298.485 278.239 301.37 278.239C304.255 278.167 306.924 278.094 308.8 278.022C309.665 278.022 310.458 277.95 311.035 277.95C311.252 277.95 311.468 277.95 311.685 277.95C311.757 277.878 311.829 277.878 311.829 277.878Z" fill="#263238"/>
<path d="M295.095 278.383C295.023 278.383 295.023 277.878 294.663 277.3C294.302 276.723 293.869 276.506 293.869 276.434C293.869 276.362 294.446 276.65 294.807 277.228C295.167 277.806 295.167 278.455 295.095 278.383Z" fill="#263238"/>
<path d="M298.774 276.506C298.774 276.506 298.558 276.289 298.341 276.001C298.125 275.712 298.053 275.495 298.053 275.423C298.053 275.423 298.269 275.64 298.486 275.928C298.63 276.217 298.774 276.506 298.774 276.506Z" fill="#263238"/>
<path d="M299.784 275.928C299.784 275.928 299.567 275.856 299.351 275.64C299.134 275.423 298.99 275.279 298.99 275.206C298.99 275.206 299.207 275.279 299.423 275.495C299.639 275.712 299.784 275.928 299.784 275.928Z" fill="#263238"/>
<path d="M300.361 274.773C300.361 274.845 300.072 274.845 299.712 274.845C299.351 274.845 299.062 274.845 299.062 274.773C299.062 274.701 299.351 274.701 299.712 274.701C300.072 274.701 300.361 274.701 300.361 274.773Z" fill="#263238"/>
<path d="M300.579 273.979C300.579 274.051 300.291 274.196 299.858 274.196C299.425 274.268 299.137 274.123 299.137 274.123C299.137 274.051 299.497 274.123 299.858 274.051C300.219 273.979 300.579 273.907 300.579 273.979Z" fill="#263238"/>
<path d="M298.345 275.423C298.345 275.423 298.056 275.495 297.552 275.423C297.335 275.423 297.047 275.351 296.686 275.279C296.542 275.206 296.398 275.206 296.181 275.062C296.109 274.99 296.037 274.918 295.965 274.845C295.965 274.701 295.965 274.557 296.109 274.557C296.902 274.123 297.624 274.557 297.912 274.99C298.056 275.206 298.129 275.351 298.201 275.495C298.201 275.64 298.201 275.712 298.201 275.712C298.201 275.712 298.129 275.423 297.84 275.062C297.696 274.918 297.479 274.701 297.119 274.629C296.83 274.557 296.47 274.557 296.181 274.701C296.037 274.773 296.109 274.918 296.253 275.062C296.398 275.134 296.542 275.206 296.686 275.279C296.975 275.351 297.263 275.423 297.479 275.495C297.984 275.423 298.345 275.423 298.345 275.423Z" fill="#263238"/>
<path d="M298.127 275.495C298.127 275.495 297.983 275.279 298.055 274.918C298.055 274.773 298.127 274.557 298.272 274.34C298.416 274.196 298.56 273.907 298.921 273.907C299.137 273.907 299.209 274.123 299.137 274.268C299.137 274.412 299.065 274.557 298.993 274.629C298.849 274.845 298.777 274.99 298.632 275.134C298.416 275.351 298.2 275.495 298.127 275.495C298.2 275.495 298.344 275.351 298.56 275.062C298.632 274.918 298.777 274.773 298.921 274.557C298.993 274.412 299.065 274.051 298.921 274.051C298.705 274.051 298.488 274.268 298.416 274.412C298.272 274.557 298.2 274.773 298.2 274.918C298.055 275.279 298.127 275.495 298.127 275.495Z" fill="#263238"/>
<path d="M311.542 274.484C311.542 274.484 311.182 274.484 310.605 274.557C310.028 274.629 309.306 274.845 308.585 275.423C307.936 276.001 307.503 276.65 307.359 277.228C307.143 277.733 307.143 278.094 307.143 278.094C307.143 278.094 307.143 278.022 307.143 277.878C307.143 277.733 307.215 277.517 307.287 277.228C307.431 276.65 307.864 275.928 308.513 275.351C309.234 274.773 310.028 274.557 310.605 274.484C310.893 274.484 311.11 274.484 311.254 274.484C311.47 274.412 311.542 274.412 311.542 274.484Z" fill="#263238"/>
<path d="M310.17 269.286C310.242 269.286 310.242 270.441 310.314 271.813C310.314 273.257 310.314 274.34 310.314 274.34C310.242 274.34 310.242 273.185 310.17 271.813C310.17 270.441 310.17 269.286 310.17 269.286Z" fill="#263238"/>
<path d="M305.556 276.939C305.556 277.011 304.762 277.156 303.752 277.156C302.743 277.156 301.949 277.084 301.949 277.011C301.949 276.939 302.743 277.011 303.752 277.011C304.762 276.939 305.556 276.867 305.556 276.939Z" fill="#263238"/>
<path d="M308.009 276.867C308.009 276.867 307.936 277.011 307.864 277.228C307.792 277.445 307.72 277.589 307.72 277.589C307.648 277.589 307.648 277.372 307.72 277.156C307.864 276.939 308.009 276.867 308.009 276.867Z" fill="#263238"/>
<path d="M308.946 275.712C308.946 275.712 308.874 275.856 308.802 276.001C308.658 276.145 308.514 276.217 308.514 276.217C308.514 276.217 308.586 276.073 308.658 275.928C308.802 275.784 308.874 275.712 308.946 275.712Z" fill="#263238"/>
<path d="M310.245 275.206C310.245 275.279 310.1 275.279 309.884 275.351C309.668 275.423 309.596 275.495 309.523 275.495C309.523 275.495 309.596 275.279 309.812 275.206C310.028 275.062 310.245 275.134 310.245 275.206Z" fill="#263238"/>
<path d="M311.179 274.918C311.179 274.99 311.107 274.99 311.035 275.062C310.963 275.134 310.818 275.134 310.818 275.062C310.818 274.99 310.89 274.99 310.963 274.918C311.035 274.918 311.107 274.918 311.179 274.918Z" fill="#263238"/>
<path d="M275.116 138.676C274.25 147.34 271.942 173.621 283.987 172.683C298.124 171.6 301.37 160.409 301.37 160.409L298.629 150.301C298.629 150.301 284.637 162.43 284.276 160.986C282.329 152.972 282.833 141.925 283.122 137.954" fill="#FFBE9D"/>
<path d="M337.722 169.65L335.27 157.521C333.467 147.557 319.546 146.907 319.546 146.907L308.583 146.763C308.583 146.763 301.298 146.546 295.456 151.311C289.614 156.149 285.719 159.759 285.719 159.759L294.879 170.372L300.288 166.762C300.288 166.762 298.341 170.3 298.63 173.26C298.918 176.148 301.947 178.386 301.947 178.386L302.669 197.014L335.126 197.375L330.726 169.722H337.722V169.65Z" fill="#F0A83A"/>
<path d="M322.432 156.726C322.432 156.726 322.504 157.015 322.648 157.521C322.792 158.098 322.937 158.82 323.081 159.687C323.441 161.564 323.946 164.019 324.451 166.762C324.956 169.506 325.389 172.033 325.677 173.838C325.822 174.776 325.894 175.498 325.966 176.004C326.038 176.509 326.038 176.798 326.038 176.798C326.038 176.798 325.966 176.509 325.822 176.004C325.677 175.426 325.533 174.704 325.389 173.838C325.028 171.961 324.523 169.506 324.018 166.762C323.514 164.019 323.081 161.492 322.792 159.687C322.648 158.748 322.576 158.026 322.504 157.521C322.432 157.015 322.432 156.726 322.432 156.726Z" fill="#263238"/>
<path d="M337.939 169.795C337.939 169.867 334.982 170.011 331.304 170.011C327.625 170.011 324.668 169.939 324.668 169.867C324.668 169.795 327.625 169.65 331.304 169.65C334.982 169.578 337.939 169.65 337.939 169.795Z" fill="#263238"/>
<path d="M294.952 170.3C294.88 170.372 292.86 167.99 290.408 165.029C287.956 162.069 286.08 159.614 286.152 159.542C286.225 159.47 288.244 161.853 290.696 164.813C293.077 167.773 295.024 170.228 294.952 170.3Z" fill="#263238"/>
<path d="M298.777 169.867C298.705 169.867 298.993 169.289 299.426 168.423C299.642 167.917 299.931 167.412 300.219 166.907C300.508 166.329 300.941 165.751 300.724 165.029C300.436 163.585 300.219 162.214 300.075 161.275C299.931 160.264 299.859 159.687 299.931 159.687C300.003 159.687 300.147 160.264 300.363 161.203C300.58 162.141 300.868 163.513 301.157 164.957C301.229 165.318 301.229 165.751 301.013 166.112C300.868 166.473 300.724 166.762 300.508 167.051C300.219 167.556 299.931 168.062 299.642 168.567C299.209 169.361 298.849 169.867 298.777 169.867Z" fill="#263238"/>
<path opacity="0.2" d="M302.671 194.559L302.238 187.628H333.542L334.696 193.621L302.671 194.559Z" fill="black"/>
<path opacity="0.2" d="M322.721 157.809C322.866 162.069 323.01 166.257 323.154 170.517C323.226 171.888 323.226 173.332 322.577 174.56C321.495 176.654 318.899 177.303 316.59 177.809C311.974 178.747 307.286 179.758 302.67 180.697L328.491 179.469L322.721 157.809Z" fill="black"/>
<path d="M339.237 179.397C338.515 173.549 337.722 169.795 337.722 169.795L325.028 170.011C325.028 170.011 326.182 176.437 325.821 178.17C325.532 179.686 301.009 180.625 294.59 180.769C294.229 180.48 293.652 180.986 293.147 180.552C292.715 180.191 292.354 179.686 292.065 179.181C291.705 178.531 291.272 177.737 291.2 177.231C291.056 176.581 290.262 176.437 289.974 176.942C289.685 177.52 289.974 179.325 291.2 181.058C292.426 182.791 289.253 181.924 288.098 181.563C286.944 181.274 283.266 180.48 282.905 180.769C282.328 181.202 282.689 181.852 283.843 182.141C284.997 182.43 288.459 183.513 288.243 184.162C288.026 184.812 282.112 183.079 282.112 183.079C282.112 183.079 280.886 182.502 280.669 183.224C280.237 184.523 286.656 185.823 287.233 185.895C287.666 185.967 287.449 186.689 287.017 186.545C286.584 186.401 281.174 184.74 280.669 186.04C280.309 187.05 285.935 187.195 286.872 188.133C287.81 189.144 282.617 187.628 282.328 188.567C282.184 188.928 284.348 189.072 287.449 189.505C290.334 189.938 295.744 189.866 297.042 189.866C304.255 190.227 329.572 190.805 335.053 190.372C341.473 190.011 339.453 181.419 339.237 179.397Z" fill="#FFBE9D"/>
<path d="M339.022 163.08C339.022 163.08 339.094 163.08 339.238 163.08C339.382 163.08 339.527 163.152 339.815 163.224C340.32 163.369 340.969 163.658 341.762 164.163C342.556 164.668 343.494 165.39 344.503 166.257C345.008 166.69 345.513 167.268 346.018 167.845C346.523 168.423 347.028 169.073 347.461 169.795C347.605 170.011 347.677 170.156 347.749 170.372C347.821 170.589 347.821 170.805 347.893 171.022C347.965 171.455 348.11 171.888 348.182 172.322C348.326 173.26 348.542 174.199 348.687 175.137C348.903 177.087 349.047 179.253 348.975 181.491C348.831 185.967 347.893 190.877 346.523 195.859C345.874 198.386 345.225 200.768 344.215 203.079C343.277 205.317 342.123 207.411 340.681 209.216C339.959 210.082 339.238 210.949 338.445 211.598C337.579 212.248 336.714 212.753 335.776 213.187C333.973 213.981 332.17 214.558 330.511 214.992C327.265 215.858 324.524 216.364 322.721 216.725C321.783 216.941 321.134 217.085 320.557 217.158C320.341 217.23 320.124 217.23 319.98 217.302C319.836 217.302 319.764 217.302 319.764 217.302C319.764 217.302 319.836 217.302 319.98 217.23C320.124 217.158 320.269 217.158 320.557 217.086C321.062 216.941 321.783 216.797 322.649 216.58C324.452 216.147 327.193 215.569 330.439 214.703C332.097 214.27 333.828 213.692 335.632 212.898C336.497 212.465 337.435 211.959 338.228 211.31C339.022 210.66 339.743 209.793 340.464 208.927C341.835 207.194 342.989 205.1 343.926 202.862C344.864 200.624 345.513 198.169 346.162 195.714C347.461 190.733 348.398 185.895 348.615 181.419C348.687 179.181 348.615 177.087 348.398 175.137C348.326 174.127 348.11 173.188 347.965 172.322C347.893 171.888 347.749 171.455 347.677 171.022C347.605 170.805 347.605 170.589 347.533 170.372C347.461 170.156 347.388 170.011 347.244 169.795C346.811 169.073 346.307 168.423 345.802 167.845C345.297 167.268 344.792 166.762 344.359 166.257C343.421 165.318 342.484 164.596 341.69 164.091C340.897 163.585 340.248 163.297 339.743 163.08C339.31 163.152 339.022 163.08 339.022 163.08Z" fill="#263238"/>
<path d="M282.69 140.048C282.69 140.048 282.907 139.11 283.195 136.438L286.152 130.59C286.152 130.59 285.503 129.363 283.988 131.962C283.267 133.117 280.959 132.612 281.32 130.807C281.68 128.929 284.133 128.135 285.575 129.94C285.575 129.94 286.513 130.012 286.657 129.29C286.801 128.568 284.638 126.691 282.762 127.269C281.608 127.63 280.743 128.424 280.743 128.424C280.743 128.424 281.175 122.287 280.671 122.215C280.166 122.143 279.517 122.504 279.084 129.29C279.084 129.29 278.867 124.02 278.795 123.298C278.723 122.648 277.785 122.143 277.641 123.875C277.641 124.092 277.281 129.29 277.281 129.29C277.281 129.29 276.704 125.825 276.631 125.536C276.487 124.814 275.766 124.886 275.694 125.825C275.622 126.547 275.405 129.651 275.405 129.651L274.973 139.254H274.9" fill="#FFBE9D"/>
<path d="M307.72 149.867C307.648 146.763 307.504 143.442 307.504 143.442C307.504 143.442 302.887 142.864 302.671 138.171C302.455 133.478 302.96 122.576 302.96 122.576L311.471 118.46L318.9 126.908L319.044 149.651C319.044 152.755 316.52 155.355 313.418 155.355C310.317 155.355 307.792 152.9 307.72 149.867Z" fill="#FFBE9D"/>
<path d="M304.184 130.518C304.184 130.879 304.472 131.095 304.761 131.095C305.049 131.095 305.338 130.807 305.338 130.518C305.338 130.157 305.049 129.94 304.761 129.868C304.4 129.868 304.184 130.157 304.184 130.518Z" fill="#263238"/>
<path d="M303.174 129.796C303.246 129.868 303.679 129.507 304.328 129.507C304.977 129.507 305.41 129.796 305.482 129.724C305.482 129.651 305.41 129.507 305.266 129.363C305.049 129.218 304.689 129.074 304.328 129.074C303.967 129.074 303.607 129.29 303.39 129.435C303.246 129.651 303.174 129.796 303.174 129.796Z" fill="#263238"/>
<path d="M311.039 130.518C311.039 130.879 311.328 131.095 311.616 131.095C311.905 131.095 312.193 130.807 312.193 130.518C312.193 130.157 311.905 129.94 311.616 129.868C311.328 129.868 311.039 130.157 311.039 130.518Z" fill="#263238"/>
<path d="M310.17 129.94C310.242 130.012 310.675 129.651 311.324 129.651C311.973 129.651 312.406 129.94 312.478 129.868C312.478 129.796 312.406 129.651 312.262 129.507C312.045 129.363 311.685 129.218 311.324 129.218C310.963 129.218 310.603 129.435 310.386 129.579C310.242 129.796 310.17 129.94 310.17 129.94Z" fill="#263238"/>
<path d="M307.863 135.427C307.863 135.355 307.502 135.355 306.853 135.283C306.709 135.283 306.564 135.211 306.492 135.139C306.42 134.994 306.492 134.85 306.564 134.633C306.709 134.2 306.853 133.767 306.997 133.261C307.646 131.384 308.079 129.796 308.007 129.796C307.935 129.796 307.358 131.312 306.709 133.189C306.564 133.695 306.42 134.128 306.276 134.561C306.204 134.778 306.132 134.994 306.204 135.211C306.276 135.355 306.348 135.427 306.492 135.427C306.564 135.427 306.709 135.427 306.781 135.427C307.43 135.427 307.863 135.427 307.863 135.427Z" fill="#263238"/>
<path d="M307.502 143.442C307.502 143.442 310.603 143.514 313.633 141.42C313.633 141.42 312.19 144.886 307.574 144.597L307.502 143.442Z" fill="#EB996E"/>
<path d="M308.079 137.088C308.151 136.655 308.439 136.366 308.8 136.149C309.088 136.077 309.377 136.005 309.593 136.149C309.81 136.294 310.026 136.583 309.954 136.871C309.882 137.16 309.593 137.377 309.305 137.449C309.016 137.521 308.656 137.449 308.367 137.377C308.295 137.377 308.223 137.305 308.151 137.305C308.079 137.305 308.007 137.16 308.079 137.088Z" fill="#EB996E"/>
<path d="M309.596 135.355C309.668 135.355 309.74 135.5 309.668 135.861C309.668 136.149 309.524 136.583 309.163 136.944C308.802 137.305 308.37 137.377 308.081 137.377C307.793 137.377 307.576 137.305 307.576 137.232C307.576 137.16 308.297 137.16 308.874 136.655C309.524 136.077 309.524 135.355 309.596 135.355Z" fill="#263238"/>
<path d="M296.033 157.737C295.961 157.665 296.177 156.799 296.61 155.788C297.043 154.777 297.476 153.911 297.548 153.983C297.62 154.055 297.404 154.921 296.971 155.932C296.538 156.943 296.177 157.737 296.033 157.737Z" fill="#263238"/>
<path d="M306.852 159.326C306.78 159.398 305.842 159.037 304.76 158.315C303.678 157.593 303.029 156.799 303.101 156.726C303.173 156.654 303.967 157.304 304.976 158.026C305.986 158.676 306.852 159.181 306.852 159.326Z" fill="#263238"/>
<path d="M305.484 149.94C305.484 150.012 304.835 150.373 303.897 150.662C303.032 150.95 302.238 151.167 302.238 151.023C302.238 150.95 302.887 150.589 303.825 150.301C304.691 150.012 305.484 149.867 305.484 149.94Z" fill="#263238"/>
<path d="M304.762 168.928C304.69 168.856 305.267 167.917 306.06 166.762C306.854 165.607 307.575 164.741 307.647 164.813C307.719 164.885 307.142 165.824 306.349 166.979C305.555 168.134 304.834 169 304.762 168.928Z" fill="#263238"/>
<path d="M305.411 176.654C305.339 176.726 304.401 176.076 303.319 175.137C302.238 174.199 301.444 173.405 301.516 173.332C301.588 173.26 302.526 173.91 303.608 174.849C304.618 175.787 305.411 176.581 305.411 176.654Z" fill="#263238"/>
<path d="M310.822 175.932C310.677 175.932 310.533 174.849 310.173 173.549C309.812 172.249 309.379 171.239 309.451 171.239C309.523 171.166 310.1 172.177 310.533 173.477C310.894 174.849 310.894 175.932 310.822 175.932Z" fill="#263238"/>
<path d="M320.845 176.076C320.845 176.148 319.98 176.581 318.754 176.942C317.6 177.303 316.59 177.52 316.59 177.448C316.59 177.376 317.455 176.942 318.682 176.581C319.836 176.22 320.773 176.004 320.845 176.076Z" fill="#263238"/>
<path d="M321.278 168.134C321.35 168.206 320.341 168.856 319.114 169.506C317.888 170.156 316.879 170.661 316.806 170.517C316.734 170.444 317.744 169.795 318.97 169.145C320.196 168.495 321.278 167.99 321.278 168.134Z" fill="#263238"/>
<path d="M316.014 164.957C315.942 165.029 315.292 164.235 314.571 163.224C313.85 162.214 313.345 161.275 313.417 161.275C313.489 161.203 314.138 161.997 314.86 163.008C315.581 164.019 316.086 164.885 316.014 164.957Z" fill="#263238"/>
<path d="M319.981 156.51C319.981 156.51 319.908 156.51 319.764 156.438L319.908 156.365C319.908 156.726 319.836 157.593 319.62 158.604C319.331 159.903 318.899 160.914 318.826 160.914C318.754 160.914 318.971 159.831 319.259 158.531C319.476 157.593 319.62 156.726 319.764 156.365L319.836 156.221L319.908 156.293C319.908 156.438 319.981 156.51 319.981 156.51Z" fill="#263238"/>
<path d="M328.564 150.878C328.564 150.95 327.41 150.806 325.968 150.517C324.597 150.228 323.443 149.94 323.443 149.795C323.443 149.723 324.597 149.867 326.04 150.156C327.41 150.445 328.564 150.806 328.564 150.878Z" fill="#263238"/>
<path d="M326.471 159.037C326.399 159.037 326.399 158.17 326.543 157.087C326.688 156.004 326.832 155.138 326.976 155.21C327.048 155.21 327.048 156.077 326.904 157.16C326.76 158.243 326.615 159.037 326.471 159.037Z" fill="#263238"/>
<path d="M331.018 161.492C330.946 161.419 331.162 160.697 331.523 159.759C331.883 158.892 332.244 158.17 332.388 158.17C332.46 158.243 332.244 158.965 331.883 159.903C331.523 160.77 331.162 161.492 331.018 161.492Z" fill="#263238"/>
<path d="M331.087 166.04C331.015 166.112 330.005 165.463 328.779 164.596C327.553 163.73 326.688 162.936 326.688 162.863C326.76 162.791 327.769 163.441 328.996 164.307C330.222 165.174 331.159 165.968 331.087 166.04Z" fill="#263238"/>
<path d="M309.233 195.065C309.161 195.137 308.367 194.704 307.43 194.054C306.492 193.404 305.771 192.826 305.843 192.754C305.915 192.682 306.708 193.115 307.646 193.765C308.584 194.415 309.305 194.992 309.233 195.065Z" fill="#263238"/>
<path d="M317.456 192.177C317.528 192.249 316.879 193.187 315.941 194.343C315.004 195.498 314.21 196.292 314.138 196.292C314.066 196.22 314.715 195.281 315.653 194.126C316.591 192.971 317.384 192.104 317.456 192.177Z" fill="#263238"/>
<path d="M326.038 196.148C325.966 196.075 326.255 195.281 326.76 194.343C327.265 193.404 327.769 192.682 327.842 192.754C327.914 192.826 327.625 193.621 327.12 194.559C326.615 195.498 326.11 196.148 326.038 196.148Z" fill="#263238"/>
<path d="M323.729 196.581C323.657 196.653 323.152 195.931 322.575 194.992C322.071 194.054 321.638 193.26 321.782 193.187C321.854 193.115 322.359 193.837 322.936 194.776C323.441 195.787 323.802 196.581 323.729 196.581Z" fill="#263238"/>
<path d="M302.668 121.421C301.514 122.07 300.937 123.514 301.226 124.814C301.514 126.114 302.741 127.052 304.111 127.124C305.409 127.124 306.708 126.258 307.068 124.958C306.563 125.897 306.852 127.269 307.645 127.991C308.439 128.713 309.737 128.857 310.747 128.424C311.756 127.991 312.55 127.052 312.838 125.969C312.838 126.98 313.415 128.063 314.209 128.641C315.002 129.218 316.156 129.435 317.166 129.146C316.156 129.796 315.507 131.023 315.651 132.251C315.796 133.478 316.589 134.561 317.743 134.994C316.517 135.788 316.012 137.449 316.661 138.749C317.238 140.048 318.897 140.77 320.267 140.337C321.71 139.904 322.575 138.46 323.152 137.088C324.667 133.334 324.739 129.002 323.08 125.247C321.494 121.565 318.104 118.533 314.209 117.594C310.242 116.655 305.842 117.883 303.101 120.843" fill="#263238"/>
<path d="M326.614 121.854C326.614 121.854 326.614 121.926 326.614 121.998C326.614 122.07 326.614 122.287 326.614 122.431C326.542 122.792 326.398 123.442 325.893 124.02C325.388 124.597 324.45 125.103 323.368 124.886C322.359 124.67 321.277 123.803 321.06 122.431H321.421C321.277 123.37 320.7 124.236 319.834 124.814C318.969 125.392 317.815 125.464 316.805 125.031C315.867 124.597 315.146 123.803 314.929 122.792C314.785 122.359 314.785 121.782 315.074 121.348C315.218 121.132 315.434 120.987 315.651 120.915C315.867 120.843 316.228 120.843 316.444 121.06C316.877 121.421 316.877 121.998 316.733 122.359C316.516 122.792 316.228 123.081 315.939 123.298C315.29 123.731 314.569 123.875 313.848 123.875C313.198 123.803 312.621 123.587 312.189 123.298C311.756 123.009 311.467 122.648 311.323 122.287C311.179 121.998 311.035 121.709 311.035 121.493C310.962 121.276 310.962 121.204 311.035 121.204C311.107 121.204 311.107 121.637 311.467 122.215C311.828 122.792 312.621 123.587 313.848 123.659C314.425 123.659 315.146 123.514 315.723 123.081C316.011 122.865 316.3 122.576 316.444 122.287C316.588 121.998 316.516 121.565 316.3 121.348C316.083 121.132 315.651 121.276 315.434 121.565C315.218 121.854 315.218 122.287 315.362 122.72C315.579 123.587 316.228 124.309 317.021 124.67C317.887 125.103 318.969 124.958 319.69 124.525C320.483 124.02 320.988 123.226 321.132 122.431L321.349 121.204L321.493 122.431C321.637 123.587 322.575 124.453 323.513 124.597C324.45 124.814 325.316 124.381 325.821 123.875C326.326 123.37 326.542 122.792 326.614 122.431C326.614 122.07 326.542 121.854 326.614 121.854Z" fill="#455A64"/>
<path d="M330.366 126.763C330.366 126.763 330.438 126.98 330.294 127.341C330.222 127.702 329.933 128.28 329.429 128.785C328.924 129.29 328.058 129.724 327.12 129.651C326.183 129.579 325.101 129.002 324.596 128.063C324.524 127.991 324.452 127.846 324.452 127.702H324.812C324.596 128.207 324.235 128.641 323.731 128.857C323.298 129.074 322.793 129.218 322.36 129.218C321.422 129.218 320.701 128.713 320.196 128.207C319.691 127.702 319.475 127.269 319.331 126.908C319.187 126.547 319.114 126.402 319.186 126.33C319.259 126.258 319.547 127.124 320.413 127.991C320.845 128.424 321.567 128.857 322.36 128.857C323.154 128.857 324.163 128.424 324.452 127.558L324.596 127.124L324.812 127.485C324.885 127.558 324.885 127.702 324.957 127.774C325.462 128.641 326.399 129.146 327.193 129.218C328.058 129.29 328.779 128.929 329.284 128.496C329.789 128.063 330.078 127.558 330.15 127.197C330.366 126.98 330.366 126.763 330.366 126.763Z" fill="#455A64"/>
<path d="M325.606 135.716C325.606 135.716 325.101 136.077 324.163 136.005C323.73 135.933 323.153 135.716 322.721 135.283C322.288 134.85 321.927 134.128 321.999 133.406L322.288 133.55L322.216 133.622C321.567 133.983 320.773 133.983 320.196 133.767C319.547 133.55 319.114 133.189 318.826 132.756C318.321 131.962 318.393 131.312 318.465 131.312C318.537 131.312 318.537 131.89 319.042 132.612C319.331 132.973 319.691 133.261 320.268 133.406C320.773 133.55 321.494 133.55 322.071 133.261C322.071 133.261 322.144 133.261 322.144 133.189L322.432 133.045V133.334C322.432 133.983 322.721 134.561 323.081 134.994C323.442 135.427 323.947 135.644 324.307 135.716C325.101 135.933 325.606 135.644 325.606 135.716Z" fill="#455A64"/>
<path d="M299.062 124.309C299.135 124.236 299.639 125.031 300.938 125.392C301.587 125.536 302.38 125.608 303.174 125.247C303.967 124.886 304.688 124.236 305.049 123.298C305.121 123.081 305.193 122.865 305.193 122.648L305.338 122.07L305.554 122.576C305.698 122.937 306.131 123.081 306.564 123.009C306.924 122.937 307.285 122.72 307.573 122.431C308.151 121.854 308.439 121.204 308.583 120.626C308.872 119.471 308.583 118.749 308.655 118.677C308.655 118.677 308.8 118.821 308.872 119.182C308.944 119.543 309.016 120.049 308.872 120.626C308.728 121.276 308.439 121.998 307.862 122.576C307.573 122.865 307.213 123.153 306.708 123.298C306.203 123.37 305.626 123.226 305.338 122.648L305.698 122.576C305.626 122.792 305.626 123.009 305.482 123.298C305.049 124.309 304.256 125.103 303.39 125.464C302.525 125.825 301.587 125.753 300.938 125.536C300.289 125.319 299.784 124.958 299.495 124.67C299.207 124.453 299.062 124.309 299.062 124.309Z" fill="#455A64"/>
<path d="M301.156 130.229C301.228 130.229 301.228 130.59 300.868 130.951C300.507 131.312 299.786 131.601 299.064 131.456C298.343 131.312 297.766 130.807 297.478 130.518C297.117 130.157 296.973 129.94 296.973 129.94C296.973 129.868 297.261 130.085 297.622 130.301C297.982 130.59 298.487 130.951 299.136 131.095C299.786 131.24 300.363 131.095 300.723 130.807C301.012 130.446 301.156 130.157 301.156 130.229Z" fill="#455A64"/>
<path d="M306.999 131.168C306.999 131.168 306.999 130.951 306.854 130.518C306.71 130.085 306.422 129.507 305.845 129.074C305.268 128.641 304.258 128.352 303.32 128.713C302.382 129.074 301.589 130.012 301.589 131.24C301.589 132.395 302.382 133.406 303.32 133.767C304.258 134.128 305.268 133.839 305.845 133.406C306.494 132.973 306.782 132.323 306.854 131.962C306.999 131.384 306.999 131.168 306.999 131.168C306.999 131.168 307.071 131.456 306.999 131.89C306.926 132.323 306.638 132.973 305.989 133.55C305.34 134.056 304.258 134.417 303.176 133.983C302.094 133.622 301.156 132.467 301.156 131.168C301.156 129.796 302.094 128.713 303.176 128.352C304.258 127.991 305.34 128.28 305.989 128.785C306.638 129.29 306.926 130.012 306.999 130.446C307.071 130.879 306.999 131.168 306.999 131.168Z" fill="#455A64"/>
<path d="M315.002 131.168C315.002 131.168 315.002 130.951 314.858 130.518C314.714 130.085 314.425 129.507 313.848 129.074C313.271 128.641 312.262 128.352 311.324 128.713C310.386 129.074 309.593 130.012 309.593 131.24C309.593 132.395 310.386 133.406 311.324 133.767C312.262 134.128 313.271 133.839 313.848 133.406C314.498 132.973 314.786 132.323 314.858 131.962C315.002 131.384 315.002 131.168 315.002 131.168C315.002 131.168 315.075 131.456 315.002 131.89C314.93 132.323 314.642 132.973 313.993 133.55C313.343 134.056 312.262 134.417 311.18 133.983C310.098 133.622 309.16 132.467 309.16 131.168C309.16 129.796 310.098 128.713 311.18 128.352C312.262 127.991 313.343 128.28 313.993 128.785C314.642 129.29 314.93 130.012 315.002 130.446C315.075 130.879 315.075 131.168 315.002 131.168Z" fill="#455A64"/>
<path d="M309.522 131.023C309.522 131.095 308.945 131.24 308.224 131.24C307.503 131.24 306.926 131.168 306.926 131.023C306.926 130.879 307.503 130.807 308.224 130.807C308.945 130.807 309.522 130.879 309.522 131.023Z" fill="#455A64"/>
<path d="M281.247 196.581C299.639 194.776 314.137 196.147 314.137 196.147L300.216 216.147L287.666 216.219L284.997 273.618H268.408L269.995 209.143C270.139 202.718 274.9 197.375 281.247 196.581Z" fill="#263238"/>
<path d="M311.829 217.735C311.829 217.735 336.713 219.396 336.064 197.086C336.064 197.086 296.25 190.372 293.653 201.924C292.788 205.678 295.096 274.051 295.096 274.051H312.478" fill="#263238"/>
<path d="M312.045 212.754C312.118 212.754 312.19 214.053 312.045 215.642C311.973 217.23 311.829 218.457 311.685 218.457C311.613 218.457 311.541 217.158 311.685 215.569C311.757 214.053 311.973 212.754 312.045 212.754Z" fill="#455A64"/>
<path d="M311.251 194.992C311.251 194.992 311.106 195.064 310.89 195.137C310.674 195.209 310.313 195.353 309.88 195.498C309.015 195.786 307.644 196.003 306.058 196.292C304.399 196.581 302.451 196.797 300.432 197.519C299.422 197.88 298.34 198.314 297.402 198.963C296.465 199.613 295.599 200.48 294.95 201.563C293.58 203.656 293.147 206.111 293.147 208.205C293.291 210.371 293.363 212.32 293.435 213.981C293.507 215.569 293.58 216.941 293.652 217.88C293.652 218.313 293.652 218.674 293.652 218.963C293.652 219.179 293.652 219.324 293.652 219.324C293.652 219.324 293.652 219.179 293.58 218.963C293.58 218.674 293.507 218.313 293.507 217.88C293.435 216.869 293.363 215.569 293.219 213.981C293.075 212.32 292.93 210.371 292.858 208.205C292.786 206.039 293.291 203.512 294.661 201.346C295.311 200.263 296.248 199.324 297.258 198.675C298.268 198.025 299.35 197.519 300.36 197.158C302.451 196.436 304.471 196.22 306.058 196.003C307.716 195.787 309.015 195.57 309.88 195.353C310.746 195.137 311.251 194.992 311.251 194.992Z" fill="#455A64"/>
<path d="M258.459 155.355L267.908 184.884L320.056 185.823L319.767 184.235L300.653 183.657L291.926 155.355H258.459Z" fill="#455A64"/>
<path d="M279.664 170.083C279.952 171.311 279.447 172.538 278.437 172.827C277.5 173.116 276.418 172.249 276.129 171.022C275.841 169.794 276.346 168.567 277.355 168.278C278.293 168.062 279.303 168.856 279.664 170.083Z" fill="white"/>
<path d="M374.655 176.437C373.718 175.643 372.492 175.57 371.698 175.57C371.698 174.993 371.698 174.632 371.698 174.632H355.758C355.758 174.632 355.253 185.173 363.332 185.534C366.938 185.678 369.03 184.09 370.184 182.068C370.544 182.141 371.266 182.285 371.987 182.285C372.852 182.285 373.79 182.141 374.511 181.563C375.088 181.13 375.737 180.336 375.737 178.892C375.665 177.592 375.088 176.798 374.655 176.437ZM373.574 180.336C372.924 180.841 371.698 180.769 370.905 180.624C371.338 179.397 371.554 178.17 371.698 177.159C372.275 177.159 373.141 177.159 373.718 177.592C374.078 177.881 374.223 178.314 374.223 178.892C374.078 179.541 373.934 180.047 373.574 180.336Z" fill="#F0A83A"/>
<path d="M369.318 171.238C369.318 171.238 369.174 171.166 369.03 170.877C368.886 170.589 368.597 170.228 368.525 169.65C368.381 169.072 368.381 168.278 368.741 167.484C369.03 166.69 369.823 166.04 370.545 165.318C371.266 164.596 371.915 163.657 372.131 162.43C372.348 161.275 372.204 159.903 371.41 158.748C371.05 158.17 370.545 157.665 369.968 157.304C369.391 156.871 368.669 156.654 368.02 156.437C367.299 156.221 366.578 155.932 365.928 155.354C365.64 155.066 365.351 154.777 365.207 154.344C365.063 153.983 364.919 153.549 365.063 153.116C365.063 153.044 365.063 152.972 365.135 152.972L365.351 153.188C364.63 153.405 364.27 154.199 364.197 154.921C364.125 155.643 364.342 156.365 364.702 157.015C364.991 157.665 365.424 158.315 365.712 158.964C366.001 159.614 366.217 160.336 366.145 161.058C366.073 161.78 365.64 162.43 365.207 162.863C364.702 163.296 364.197 163.657 363.62 163.946C362.466 164.452 361.384 164.74 360.519 165.318C359.653 165.823 359.004 166.545 358.716 167.34C358.355 168.062 358.283 168.784 358.283 169.361C358.283 170.516 358.644 171.094 358.644 171.094C358.644 171.094 358.644 171.094 358.572 171.022C358.572 170.95 358.499 170.877 358.427 170.733C358.283 170.444 358.211 170.011 358.211 169.433C358.211 168.856 358.283 168.134 358.572 167.34C358.86 166.545 359.509 165.751 360.447 165.246C361.385 164.668 362.466 164.379 363.548 163.874C364.053 163.585 364.63 163.296 365.063 162.863C365.496 162.43 365.856 161.852 365.928 161.203C366.001 160.553 365.784 159.903 365.568 159.253C365.279 158.603 364.919 157.954 364.558 157.304C364.27 156.654 363.981 155.86 364.053 154.993C364.125 154.56 364.197 154.199 364.414 153.838C364.63 153.477 364.991 153.188 365.351 153.044L365.64 152.972L365.568 153.261C365.568 153.333 365.568 153.333 365.496 153.405C365.351 154.127 365.784 154.849 366.289 155.354C366.866 155.86 367.587 156.076 368.309 156.365C369.03 156.582 369.751 156.871 370.328 157.304C370.905 157.737 371.41 158.242 371.843 158.892C372.636 160.12 372.781 161.564 372.564 162.791C372.348 164.018 371.627 165.029 370.833 165.751C370.04 166.473 369.391 167.123 369.03 167.845C368.669 168.567 368.669 169.361 368.814 169.867C368.886 170.805 369.391 171.238 369.318 171.238Z" fill="#263238"/>
<path d="M388.791 185.029H225.135V190.01H233.862L229.174 278.672H231.698L236.387 190.01L379.848 189.216L383.166 278.455L385.906 278.6L382.372 190.01H388.791V185.029Z" fill="#263238"/>
<path d="M149.404 83.081H85.5195V278.967H149.404V83.081Z" fill="#96CFFF"/>
<path d="M199.866 83.743H149.34V279.033H199.866V83.743Z" fill="#64B9FF"/>
<path d="M143.255 114.46H89.0254V129.752H143.255V114.46Z" fill="#64B9FF"/>
<path d="M93.589 116.38H90.5469V128.097H93.589V116.38Z" fill="#5CA8E6"/>
<path d="M97.1598 118.829C97.1598 119.359 96.6968 119.822 96.1678 119.822C95.6387 119.822 95.1758 119.359 95.1758 118.829C95.1758 118.299 95.6387 117.836 96.1678 117.836C96.763 117.836 97.1598 118.299 97.1598 118.829Z" fill="white"/>
<path d="M97.1598 122.933C97.1598 123.463 96.6968 123.926 96.1678 123.926C95.6387 123.926 95.1758 123.463 95.1758 122.933C95.1758 122.404 95.6387 121.94 96.1678 121.94C96.763 122.007 97.1598 122.404 97.1598 122.933Z" fill="white"/>
<path d="M103.972 117.836H100.996V126.839H103.972V117.836Z" fill="#5CA8E6"/>
<path d="M108.337 117.836H105.361V126.839H108.337V117.836Z" fill="#5CA8E6"/>
<path d="M112.636 117.836H109.66V126.839H112.636V117.836Z" fill="#5CA8E6"/>
<path d="M116.933 117.836H113.957V126.839H116.933V117.836Z" fill="#5CA8E6"/>
<path d="M121.232 117.836H118.256V126.839H121.232V117.836Z" fill="#5CA8E6"/>
<path d="M125.531 117.836H122.555V126.839H125.531V117.836Z" fill="#5CA8E6"/>
<path d="M129.83 117.836H126.854V126.839H129.83V117.836Z" fill="#5CA8E6"/>
<path d="M134.128 117.836H131.152V126.839H134.128V117.836Z" fill="#5CA8E6"/>
<path d="M138.494 117.836H135.518V126.839H138.494V117.836Z" fill="#5CA8E6"/>
<path d="M142.79 117.836H139.814V126.839H142.79V117.836Z" fill="#5CA8E6"/>
<path d="M143.255 136.372H89.0254V151.664H143.255V136.372Z" fill="#64B9FF"/>
<path d="M93.589 138.292H90.5469V150.009H93.589V138.292Z" fill="#5CA8E6"/>
<path d="M97.1598 140.741C97.1598 141.271 96.6968 141.734 96.1678 141.734C95.6387 141.734 95.1758 141.271 95.1758 140.741C95.1758 140.212 95.6387 139.748 96.1678 139.748C96.763 139.814 97.1598 140.212 97.1598 140.741Z" fill="white"/>
<path d="M97.1598 144.912C97.1598 145.441 96.6968 145.905 96.1678 145.905C95.6387 145.905 95.1758 145.441 95.1758 144.912C95.1758 144.382 95.6387 143.919 96.1678 143.919C96.763 143.919 97.1598 144.382 97.1598 144.912Z" fill="white"/>
<path d="M103.972 139.814H100.996V148.818H103.972V139.814Z" fill="#5CA8E6"/>
<path d="M108.337 139.814H105.361V148.818H108.337V139.814Z" fill="#5CA8E6"/>
<path d="M112.636 139.814H109.66V148.818H112.636V139.814Z" fill="#5CA8E6"/>
<path d="M116.933 139.814H113.957V148.818H116.933V139.814Z" fill="#5CA8E6"/>
<path d="M121.232 139.814H118.256V148.818H121.232V139.814Z" fill="#5CA8E6"/>
<path d="M125.531 139.814H122.555V148.818H125.531V139.814Z" fill="#5CA8E6"/>
<path d="M129.83 139.814H126.854V148.818H129.83V139.814Z" fill="#5CA8E6"/>
<path d="M134.128 139.814H131.152V148.818H134.128V139.814Z" fill="#5CA8E6"/>
<path d="M138.494 139.814H135.518V148.818H138.494V139.814Z" fill="#5CA8E6"/>
<path d="M142.79 139.814H139.814V148.818H142.79V139.814Z" fill="#5CA8E6"/>
<path d="M143.255 158.483H89.0254V173.775H143.255V158.483Z" fill="#64B9FF"/>
<path d="M93.589 160.403H90.5469V172.12H93.589V160.403Z" fill="#5CA8E6"/>
<path d="M97.1598 162.918C97.1598 163.448 96.6968 163.911 96.1678 163.911C95.6387 163.911 95.1758 163.448 95.1758 162.918C95.1758 162.389 95.6387 161.925 96.1678 161.925C96.763 161.925 97.1598 162.389 97.1598 162.918Z" fill="white"/>
<path d="M97.1598 167.023C97.1598 167.552 96.6968 168.016 96.1678 168.016C95.6387 168.016 95.1758 167.552 95.1758 167.023C95.1758 166.493 95.6387 166.03 96.1678 166.03C96.763 166.03 97.1598 166.493 97.1598 167.023Z" fill="white"/>
<path d="M103.972 161.925H100.996V170.928H103.972V161.925Z" fill="#5CA8E6"/>
<path d="M108.337 161.925H105.361V170.928H108.337V161.925Z" fill="#5CA8E6"/>
<path d="M112.636 161.925H109.66V170.928H112.636V161.925Z" fill="#5CA8E6"/>
<path d="M116.933 161.925H113.957V170.928H116.933V161.925Z" fill="#5CA8E6"/>
<path d="M121.232 161.925H118.256V170.928H121.232V161.925Z" fill="#5CA8E6"/>
<path d="M125.531 161.925H122.555V170.928H125.531V161.925Z" fill="#5CA8E6"/>
<path d="M129.83 161.925H126.854V170.928H129.83V161.925Z" fill="#5CA8E6"/>
<path d="M134.128 161.925H131.152V170.928H134.128V161.925Z" fill="#5CA8E6"/>
<path d="M138.494 161.925H135.518V170.928H138.494V161.925Z" fill="#5CA8E6"/>
<path d="M142.79 161.925H139.814V170.928H142.79V161.925Z" fill="#5CA8E6"/>
<path d="M143.255 180.925H89.0254V196.217H143.255V180.925Z" fill="#64B9FF"/>
<path d="M93.589 182.844H90.5469V194.562H93.589V182.844Z" fill="#5CA8E6"/>
<path d="M97.1598 185.294C97.1598 185.823 96.6968 186.287 96.1678 186.287C95.6387 186.287 95.1758 185.823 95.1758 185.294C95.1758 184.764 95.6387 184.301 96.1678 184.301C96.763 184.367 97.1598 184.764 97.1598 185.294Z" fill="white"/>
<path d="M97.1598 189.464C97.1598 189.994 96.6968 190.457 96.1678 190.457C95.6387 190.457 95.1758 189.994 95.1758 189.464C95.1758 188.935 95.6387 188.471 96.1678 188.471C96.763 188.471 97.1598 188.935 97.1598 189.464Z" fill="white"/>
<path d="M103.972 184.367H100.996V193.37H103.972V184.367Z" fill="#5CA8E6"/>
<path d="M108.337 184.367H105.361V193.37H108.337V184.367Z" fill="#5CA8E6"/>
<path d="M112.636 184.367H109.66V193.37H112.636V184.367Z" fill="#5CA8E6"/>
<path d="M116.933 184.367H113.957V193.37H116.933V184.367Z" fill="#5CA8E6"/>
<path d="M121.232 184.367H118.256V193.37H121.232V184.367Z" fill="#5CA8E6"/>
<path d="M125.531 184.367H122.555V193.37H125.531V184.367Z" fill="#5CA8E6"/>
<path d="M129.83 184.367H126.854V193.37H129.83V184.367Z" fill="#5CA8E6"/>
<path d="M134.128 184.367H131.152V193.37H134.128V184.367Z" fill="#5CA8E6"/>
<path d="M138.494 184.367H135.518V193.37H138.494V184.367Z" fill="#5CA8E6"/>
<path d="M142.79 184.367H139.814V193.37H142.79V184.367Z" fill="#5CA8E6"/>
<path d="M143.255 206.544H89.0254V221.836H143.255V206.544Z" fill="#64B9FF"/>
<path d="M93.589 208.464H90.5469V220.181H93.589V208.464Z" fill="#5CA8E6"/>
<path d="M97.1598 210.913C97.1598 211.443 96.6968 211.906 96.1678 211.906C95.6387 211.906 95.1758 211.443 95.1758 210.913C95.1758 210.384 95.6387 209.92 96.1678 209.92C96.763 209.92 97.1598 210.384 97.1598 210.913Z" fill="white"/>
<path d="M97.1598 215.018C97.1598 215.547 96.6968 216.011 96.1678 216.011C95.6387 216.011 95.1758 215.547 95.1758 215.018C95.1758 214.488 95.6387 214.025 96.1678 214.025C96.763 214.091 97.1598 214.488 97.1598 215.018Z" fill="white"/>
<path d="M103.972 209.92H100.996V218.923H103.972V209.92Z" fill="#5CA8E6"/>
<path d="M108.337 209.92H105.361V218.923H108.337V209.92Z" fill="#5CA8E6"/>
<path d="M112.636 209.92H109.66V218.923H112.636V209.92Z" fill="#5CA8E6"/>
<path d="M116.933 209.92H113.957V218.923H116.933V209.92Z" fill="#5CA8E6"/>
<path d="M121.232 209.92H118.256V218.923H121.232V209.92Z" fill="#5CA8E6"/>
<path d="M125.531 209.92H122.555V218.923H125.531V209.92Z" fill="#5CA8E6"/>
<path d="M129.83 209.92H126.854V218.923H129.83V209.92Z" fill="#5CA8E6"/>
<path d="M134.128 209.92H131.152V218.923H134.128V209.92Z" fill="#5CA8E6"/>
<path d="M138.494 209.92H135.518V218.923H138.494V209.92Z" fill="#5CA8E6"/>
<path d="M142.79 209.92H139.814V218.923H142.79V209.92Z" fill="#5CA8E6"/>
<path d="M143.255 254.539H89.0254V269.831H143.255V254.539Z" fill="#64B9FF"/>
<path d="M93.589 256.459H90.5469V268.176H93.589V256.459Z" fill="#5CA8E6"/>
<path d="M97.1598 258.908C97.1598 259.438 96.6968 259.901 96.1678 259.901C95.6387 259.901 95.1758 259.438 95.1758 258.908C95.1758 258.379 95.6387 257.915 96.1678 257.915C96.763 257.981 97.1598 258.379 97.1598 258.908Z" fill="white"/>
<path d="M97.1598 263.079C97.1598 263.608 96.6968 264.072 96.1678 264.072C95.6387 264.072 95.1758 263.608 95.1758 263.079C95.1758 262.549 95.6387 262.086 96.1678 262.086C96.763 262.086 97.1598 262.549 97.1598 263.079Z" fill="white"/>
<path d="M103.972 257.981H100.996V266.984H103.972V257.981Z" fill="#5CA8E6"/>
<path d="M108.337 257.981H105.361V266.984H108.337V257.981Z" fill="#5CA8E6"/>
<path d="M112.636 257.981H109.66V266.984H112.636V257.981Z" fill="#5CA8E6"/>
<path d="M116.933 257.981H113.957V266.984H116.933V257.981Z" fill="#5CA8E6"/>
<path d="M121.232 257.981H118.256V266.984H121.232V257.981Z" fill="#5CA8E6"/>
<path d="M125.531 257.981H122.555V266.984H125.531V257.981Z" fill="#5CA8E6"/>
<path d="M129.83 257.981H126.854V266.984H129.83V257.981Z" fill="#5CA8E6"/>
<path d="M134.128 257.981H131.152V266.984H134.128V257.981Z" fill="#5CA8E6"/>
<path d="M138.494 257.981H135.518V266.984H138.494V257.981Z" fill="#5CA8E6"/>
<path d="M142.79 257.981H139.814V266.984H142.79V257.981Z" fill="#5CA8E6"/>
<path d="M143.255 230.575H89.0254V245.867H143.255V230.575Z" fill="#64B9FF"/>
<path d="M93.589 232.494H90.5469V244.212H93.589V232.494Z" fill="#5CA8E6"/>
<path d="M97.1598 234.944C97.1598 235.473 96.6968 235.937 96.1678 235.937C95.6387 235.937 95.1758 235.473 95.1758 234.944C95.1758 234.414 95.6387 233.951 96.1678 233.951C96.763 233.951 97.1598 234.414 97.1598 234.944Z" fill="white"/>
<path d="M97.1598 239.048C97.1598 239.578 96.6968 240.041 96.1678 240.041C95.6387 240.041 95.1758 239.578 95.1758 239.048C95.1758 238.519 95.6387 238.055 96.1678 238.055C96.763 238.121 97.1598 238.519 97.1598 239.048Z" fill="white"/>
<path d="M103.972 233.951H100.996V242.954H103.972V233.951Z" fill="#5CA8E6"/>
<path d="M108.337 233.951H105.361V242.954H108.337V233.951Z" fill="#5CA8E6"/>
<path d="M112.636 233.951H109.66V242.954H112.636V233.951Z" fill="#5CA8E6"/>
<path d="M116.933 233.951H113.957V242.954H116.933V233.951Z" fill="#5CA8E6"/>
<path d="M121.232 233.951H118.256V242.954H121.232V233.951Z" fill="#5CA8E6"/>
<path d="M125.531 233.951H122.555V242.954H125.531V233.951Z" fill="#5CA8E6"/>
<path d="M129.83 233.951H126.854V242.954H129.83V233.951Z" fill="#5CA8E6"/>
<path d="M134.128 233.951H131.152V242.954H134.128V233.951Z" fill="#5CA8E6"/>
<path d="M138.494 233.951H135.518V242.954H138.494V233.951Z" fill="#5CA8E6"/>
<path d="M142.79 233.951H139.814V242.954H142.79V233.951Z" fill="#5CA8E6"/>
<path d="M122.554 114.46C122.554 114.46 122.554 114.327 122.488 113.996C122.488 113.665 122.422 113.202 122.422 112.672C122.422 112.077 122.422 111.348 122.356 110.554C122.289 109.693 122.223 108.767 121.959 107.774C121.694 106.781 121.231 105.721 120.504 104.728C119.776 103.735 118.784 102.875 117.528 102.345C116.271 101.816 114.816 101.617 113.295 101.485C111.774 101.352 110.253 101.22 108.6 101.087C102.185 100.558 96.4313 100.161 92.1987 100.094C90.0825 100.028 88.363 100.094 87.2387 100.094C86.7097 100.094 86.2467 100.094 85.9161 100.094C85.5854 100.094 85.4531 100.094 85.4531 100.094C85.4531 100.094 85.5854 100.094 85.9161 100.028C86.2467 100.028 86.7097 99.962 87.2387 99.962C88.4291 99.8958 90.1486 99.8958 92.1987 99.8958C96.4313 99.8958 102.251 100.227 108.6 100.756C110.187 100.889 111.774 101.021 113.295 101.154C114.816 101.286 116.271 101.485 117.594 102.08C118.917 102.61 119.975 103.537 120.702 104.596C121.43 105.655 121.893 106.714 122.157 107.774C122.422 108.833 122.422 109.76 122.488 110.62C122.488 111.481 122.488 112.209 122.488 112.739C122.488 113.268 122.488 113.732 122.488 114.063C122.554 114.261 122.554 114.46 122.554 114.46Z" fill="#64B9FF"/>
<path d="M106.154 114.46C106.154 114.46 106.154 114.327 106.154 113.996C106.154 113.665 106.154 113.268 106.154 112.739C106.154 112.209 106.154 111.481 106.088 110.753C106.022 109.958 105.889 109.098 105.427 108.237C104.964 107.376 104.038 106.781 102.98 106.317C101.921 105.92 100.665 105.721 99.4084 105.986C98.8132 106.119 98.1519 106.317 97.5567 106.582C96.9615 106.913 96.4324 107.376 96.1017 107.906C95.7711 108.502 95.7711 109.23 96.1017 109.826C96.4324 110.422 97.0276 110.885 97.7551 111.017C98.4164 111.216 99.1439 110.951 99.6729 110.488C100.202 110.024 100.467 109.362 100.533 108.7C100.599 108.038 100.334 107.376 99.9375 106.847C99.5407 106.317 99.0777 105.854 98.4825 105.589C97.9535 105.258 97.2921 105.258 96.6969 105.126C96.1017 105.059 95.5065 104.927 94.9113 104.861C93.7871 104.728 92.6628 104.662 91.6708 104.596C89.6868 104.53 88.0996 104.53 86.9753 104.53C86.4463 104.53 86.0495 104.53 85.7188 104.53C85.4543 104.53 85.2559 104.53 85.2559 104.53C85.2559 104.53 85.3881 104.53 85.7188 104.464C86.0495 104.464 86.4463 104.397 86.9753 104.397C88.0996 104.331 89.6868 104.265 91.6708 104.331C92.6628 104.331 93.7209 104.397 94.9113 104.53C95.5065 104.596 96.1017 104.662 96.6969 104.728C97.0276 104.795 97.2921 104.795 97.6228 104.861C97.9535 104.927 98.2841 105.059 98.5487 105.192C99.1439 105.523 99.6729 105.986 100.136 106.582C100.533 107.178 100.863 107.906 100.797 108.634C100.731 109.362 100.4 110.157 99.8713 110.686C99.3423 111.216 98.4825 111.547 97.6889 111.348C96.8953 111.15 96.234 110.62 95.8372 109.958C95.4404 109.296 95.4404 108.369 95.8372 107.707C96.1679 107.045 96.7631 106.582 97.4244 106.251C98.0196 105.92 98.6809 105.721 99.3423 105.589C100.665 105.39 101.988 105.589 103.046 105.986C104.104 106.45 105.096 107.112 105.625 108.038C106.088 108.965 106.22 109.892 106.286 110.686C106.352 111.481 106.286 112.143 106.286 112.739C106.286 113.268 106.22 113.665 106.22 113.996C106.154 114.327 106.154 114.46 106.154 114.46Z" fill="#64B9FF"/>
<path d="M126.985 114.46C126.985 114.46 126.919 114.261 126.853 113.93C126.787 113.599 126.721 113.136 126.589 112.474C126.324 111.216 125.861 109.429 125.001 107.31C124.142 105.192 122.687 102.809 120.306 100.955C119.116 100.028 117.594 99.4986 116.007 99.3C114.42 99.0352 112.701 99.1014 110.915 99.0352C103.905 98.9028 97.5561 98.9028 92.9929 98.7704C90.6782 98.7042 88.8265 98.5718 87.5699 98.5056C86.9747 98.4394 86.4457 98.4394 86.115 98.3732C85.7843 98.3732 85.5859 98.307 85.5859 98.307C85.5859 98.307 85.7843 98.307 86.115 98.307C86.5118 98.307 86.9747 98.3732 87.5699 98.3732C88.8265 98.4394 90.6782 98.5056 92.9929 98.5718C97.5561 98.7042 103.905 98.638 110.915 98.7704C112.634 98.8366 114.354 98.8366 116.007 99.0352C117.661 99.2338 119.248 99.7634 120.504 100.756C121.695 101.683 122.753 102.809 123.48 103.934C124.274 105.059 124.803 106.185 125.266 107.244C126.126 109.362 126.522 111.216 126.787 112.474C126.919 113.136 126.985 113.599 126.985 113.93C126.985 114.261 126.985 114.46 126.985 114.46Z" fill="#64B9FF"/>
<path d="M142.527 85.5304H89.8184V93.2096H142.527V85.5304Z" fill="#64B9FF"/>
<path d="M130.094 89.37H101.393V93.2096H130.094V89.37Z" fill="#5CA8E6"/>
<path d="M164.02 244.41C164.02 244.477 163.425 244.477 162.433 244.808C161.441 245.139 159.986 245.668 158.465 246.727C157.671 247.257 156.944 247.919 156.216 248.78C155.886 249.177 155.555 249.706 155.291 250.17C155.026 250.699 154.894 251.295 154.695 251.891C154.1 254.34 154.299 257.055 154.365 259.967C154.497 262.88 154.299 265.727 153.174 268.044C152.645 269.169 151.852 270.162 150.992 270.89C150.132 271.619 149.206 272.148 148.347 272.545C147.487 272.943 146.627 273.141 145.9 273.274C145.172 273.406 144.511 273.406 143.982 273.34C143.453 273.274 143.056 273.207 142.791 273.141C142.527 273.075 142.395 273.009 142.395 273.009C142.395 272.943 142.99 273.141 144.048 273.207C144.577 273.207 145.238 273.207 145.966 273.075C146.693 272.943 147.487 272.678 148.347 272.281C149.206 271.883 150.066 271.354 150.926 270.626C151.719 269.897 152.447 268.971 152.976 267.845C154.034 265.594 154.232 262.814 154.1 259.901C153.968 257.055 153.836 254.208 154.431 251.759C154.563 251.163 154.761 250.567 155.026 249.971C155.291 249.442 155.621 248.912 156.018 248.515C156.745 247.654 157.539 246.926 158.333 246.396C159.92 245.337 161.375 244.808 162.433 244.543C162.962 244.41 163.359 244.344 163.623 244.344C163.888 244.41 164.02 244.344 164.02 244.41Z" fill="#64B9FF"/>
<path d="M143.982 270.758H139.684V276.054H143.982V270.758Z" fill="#64B9FF"/>
<path d="M188.29 231.104H164.02V257.717H188.29V231.104Z" fill="#5CA8E6"/>
<path d="M181.776 250.153C184.901 247.025 184.901 241.954 181.776 238.825C178.651 235.697 173.584 235.697 170.459 238.825C167.334 241.954 167.334 247.025 170.459 250.153C173.584 253.282 178.651 253.282 181.776 250.153Z" fill="#64B9FF"/>
<path d="M180.157 244.477C180.157 246.661 178.371 248.449 176.189 248.449C174.006 248.449 172.221 246.661 172.221 244.477C172.221 242.292 174.006 240.505 176.189 240.505C178.371 240.505 180.157 242.292 180.157 244.477Z" fill="#5CA8E6"/>
<path d="M167.261 235.937C167.662 235.937 167.988 235.611 167.988 235.209C167.988 234.806 167.662 234.48 167.261 234.48C166.859 234.48 166.533 234.806 166.533 235.209C166.533 235.611 166.859 235.937 167.261 235.937Z" fill="#64B9FF"/>
<path d="M184.587 235.937C184.989 235.937 185.314 235.611 185.314 235.209C185.314 234.806 184.989 234.48 184.587 234.48C184.185 234.48 183.859 234.806 183.859 235.209C183.859 235.611 184.185 235.937 184.587 235.937Z" fill="#64B9FF"/>
<path d="M184.72 255.598C185.121 255.598 185.447 255.272 185.447 254.87C185.447 254.468 185.121 254.142 184.72 254.142C184.318 254.142 183.992 254.468 183.992 254.87C183.992 255.272 184.318 255.598 184.72 255.598Z" fill="#64B9FF"/>
<path d="M167.261 255.863C167.662 255.863 167.988 255.537 167.988 255.135C167.988 254.733 167.662 254.407 167.261 254.407C166.859 254.407 166.533 254.733 166.533 255.135C166.533 255.537 166.859 255.863 167.261 255.863Z" fill="#64B9FF"/>
<path d="M190.275 231.104H188.291V257.717H190.275V231.104Z" fill="#64B9FF"/>
<path d="M200.9 117.522C200.9 117.594 193.326 117.738 183.95 117.738C174.573 117.738 167 117.666 167 117.522C167 117.45 174.573 117.305 183.95 117.305C193.326 117.305 200.9 117.377 200.9 117.522Z" fill="#263238"/>
<path d="M271.223 121.132C271.223 121.132 271.079 121.132 270.863 121.132C270.646 121.132 270.286 121.132 269.853 121.132C268.988 121.132 267.689 121.132 265.958 121.132C262.568 121.132 257.664 121.132 251.461 121.204C239.055 121.204 221.6 121.276 201.332 121.276H201.188L201.116 121.132C200.106 117.594 200.683 113.406 203.063 110.23C205.371 107.053 209.338 105.031 213.45 105.176L213.233 105.392C212.945 104.381 212.8 103.154 212.873 101.999C213.017 98.0999 215.253 94.3455 218.643 92.6127C221.961 90.8799 226.072 90.8799 229.245 92.6849L228.957 92.7571C230.76 88.3529 234.583 85.1761 238.694 83.6599C242.805 82.1437 247.421 82.3604 251.028 84.2375C254.634 86.1147 257.231 89.2915 258.673 92.6127C260.116 95.9339 260.332 99.5439 259.611 102.649L259.467 102.504C261.558 102.288 263.578 102.649 265.237 103.371C266.968 104.093 268.41 105.103 269.565 106.331C270.142 106.908 270.574 107.558 270.935 108.28C271.223 109.002 271.512 109.652 271.656 110.374C272.017 111.746 272.089 112.973 272.161 114.128C272.233 116.439 271.945 118.171 271.728 119.327C271.584 119.904 271.512 120.337 271.368 120.626C271.296 120.987 271.223 121.132 271.223 121.132C271.223 121.132 271.296 120.987 271.368 120.698C271.44 120.41 271.584 119.976 271.656 119.399C271.873 118.244 272.161 116.511 272.017 114.2C271.945 113.045 271.8 111.818 271.512 110.446C271.151 109.074 270.574 107.703 269.42 106.547C268.338 105.392 266.896 104.381 265.165 103.659C263.506 103.01 261.486 102.649 259.467 102.865H259.25L259.322 102.721C260.044 99.6883 259.827 96.1505 258.385 92.9015C256.942 89.6525 254.418 86.5479 250.884 84.7429C247.349 82.9379 242.877 82.7214 238.838 84.1654C234.799 85.6094 231.121 88.7861 229.318 93.0459L229.245 93.2625L229.029 93.1903C226 91.5297 221.961 91.4575 218.787 93.1181C215.541 94.7787 213.377 98.3887 213.233 102.143C213.161 103.298 213.305 104.381 213.594 105.392L213.666 105.609H213.377C209.41 105.537 205.588 107.486 203.352 110.518C201.116 113.623 200.467 117.666 201.476 121.059L201.332 120.915C221.528 120.915 238.91 120.987 251.316 120.987C257.519 120.987 262.424 121.059 265.886 121.059C267.545 121.059 268.915 121.059 269.781 121.059C270.214 121.059 270.574 121.059 270.791 121.059C271.079 121.132 271.223 121.132 271.223 121.132Z" fill="#263238"/>
<path d="M261.485 163.73C261.485 163.73 261.341 163.73 261.053 163.73C260.692 163.73 260.259 163.73 259.754 163.73C258.6 163.73 256.869 163.73 254.777 163.802C250.522 163.802 244.608 163.874 237.683 163.874H237.539V163.657C237.539 160.769 237.539 157.593 237.539 154.416C237.539 145.319 237.611 137.016 237.611 131.023C237.611 128.063 237.683 125.608 237.683 123.948C237.683 123.153 237.683 122.504 237.683 121.998C237.683 121.782 237.683 121.637 237.683 121.493C237.683 121.348 237.683 121.348 237.683 121.348C237.683 121.348 237.683 121.421 237.683 121.493C237.683 121.637 237.683 121.782 237.683 121.998C237.683 122.504 237.683 123.081 237.683 123.948C237.683 125.68 237.683 128.063 237.755 131.023C237.755 137.016 237.755 145.319 237.828 154.416C237.828 157.665 237.828 160.769 237.828 163.657L237.683 163.513C244.535 163.513 250.522 163.585 254.777 163.585C256.869 163.585 258.528 163.657 259.754 163.657C260.331 163.657 260.764 163.657 261.053 163.657C261.341 163.73 261.485 163.73 261.485 163.73Z" fill="#263238"/>
<path d="M254.851 71.3138L238.767 65.5378L222.827 71.2416C220.807 72.1802 219.004 72.7578 219.004 74.7072V84.1654C219.004 90.7356 220.735 97.2335 224.269 103.01C227.226 107.847 231.843 112.829 238.911 116.006C245.402 113.912 250.307 108.208 253.264 103.371C256.799 97.5945 258.53 91.0966 258.53 84.5264V76.0068C258.53 73.3354 257.087 71.9636 254.851 71.3138Z" fill="#F0A83A"/>
<g opacity="0.3">
<path opacity="0.3" d="M238.911 110.446C233.285 107.919 229.679 103.948 227.298 100.122C224.485 95.5729 223.115 90.4468 223.115 85.2484V78.606C223.115 77.0898 224.053 75.718 225.784 74.8516L238.695 70.0142V65.5378L222.754 71.2416C221.095 71.9636 218.932 72.7578 218.932 74.7072V84.1654C218.932 90.7356 220.663 97.2335 224.197 103.01C227.154 107.847 231.77 112.829 238.839 116.006V110.446H238.911Z" fill="black"/>
</g>
<g opacity="0.4">
<path opacity="0.4" d="M238.912 115.933C240.066 115.572 241.076 115.139 242.086 114.562C244.754 113.118 247.062 111.096 248.793 109.291C250.741 107.269 252.183 105.103 253.482 103.01C257.016 97.2335 258.747 90.7355 258.603 84.021V76.2234C258.603 72.3246 256.583 72.0358 254.924 71.3138L238.84 65.5378V70.0142L251.895 74.9238C253.698 75.7902 254.564 77.162 254.564 78.6782V85.3206C254.564 90.5189 253.193 95.6451 250.38 100.194C248 104.02 244.538 107.991 238.912 110.446V115.933Z" fill="black"/>
</g>
<path opacity="0.5" d="M243.021 84.8152V83.5156C243.021 81.2052 241.146 79.328 238.838 79.328C236.53 79.328 234.654 81.2052 234.654 83.5156V84.8152C233.5 84.9596 232.635 85.9704 232.635 87.1256V94.6344C232.635 95.934 233.717 96.9448 234.943 96.9448H242.733C244.031 96.9448 245.041 95.8618 245.041 94.6344V87.1256C245.185 85.8982 244.247 84.8874 243.021 84.8152ZM239.992 92.7572H237.972L238.261 91.3132C237.9 91.0966 237.684 90.7356 237.684 90.2302C237.684 89.5082 238.261 89.0028 238.91 89.0028C239.631 89.0028 240.136 89.5804 240.136 90.2302C240.136 90.6634 239.92 91.0244 239.559 91.241C239.775 91.8186 239.992 92.7572 239.992 92.7572ZM242.156 84.743H235.592V83.4434C235.592 81.6384 237.035 80.1944 238.838 80.1944C240.641 80.1944 242.083 81.6384 242.083 83.4434L242.156 84.743Z" fill="white"/>
<path d="M225.783 84.6708C225.783 84.6708 225.638 84.1654 225.566 83.3712C225.494 82.577 225.422 81.4218 225.422 80.1944C225.422 79.5446 225.494 78.967 225.566 78.4616C225.638 77.9562 225.71 77.3786 225.927 77.0176C226.143 76.6566 226.432 76.44 226.648 76.2956C226.864 76.2234 227.009 76.2234 227.009 76.2234C227.009 76.2234 226.432 76.3678 226.143 77.0898C225.999 77.4508 225.927 77.884 225.855 78.4616C225.783 78.967 225.783 79.6168 225.783 80.1944C225.71 81.4218 225.783 82.577 225.855 83.3712C225.783 84.1654 225.783 84.6708 225.783 84.6708Z" fill="white"/>
<path d="M226.002 88.7861C225.93 88.7861 225.857 88.4251 225.857 87.9197C225.857 87.4143 225.93 87.0533 226.002 87.0533C226.074 87.0533 226.146 87.4143 226.146 87.9197C226.146 88.4251 226.074 88.7861 226.002 88.7861Z" fill="white"/>
</g>
<defs>
<clipPath id="clip0">
<rect width="406" height="301" rx="32" fill="white"/>
</clipPath>
</defs>
</svg>
