<svg width="407" height="300" viewBox="0 0 407 300" fill="none" xmlns="http://www.w3.org/2000/svg">
<g clip-path="url(#clip0)">
<path d="M398 271.213H12V271.444H398V271.213Z" fill="#EBEBEB"/>
<path d="M359.323 283.642H318.33V283.874H359.323V283.642Z" fill="#EBEBEB"/>
<path d="M267.764 281.249H222.447V281.48H267.764V281.249Z" fill="#EBEBEB"/>
<path d="M320.337 280.091H305.515V280.322H320.337V280.091Z" fill="#EBEBEB"/>
<path d="M122.936 277.775H89.5859V278.006H122.936V277.775Z" fill="#EBEBEB"/>
<path d="M85.2628 277.775H73.374V278.006H85.2628V277.775Z" fill="#EBEBEB"/>
<path d="M155.36 281.017H113.518V281.249H155.36V281.017Z" fill="#EBEBEB"/>
<path d="M194.964 236.782H45.8906C43.4974 236.782 41.4902 234.774 41.4902 232.381V22.8604C41.4902 20.4672 43.4974 18.46 45.8906 18.46H194.964C197.357 18.46 199.364 20.4672 199.364 22.8604V232.381C199.364 234.774 197.434 236.782 194.964 236.782ZM45.8906 18.6144C43.5746 18.6144 41.6446 20.4672 41.6446 22.8604V232.381C41.6446 234.697 43.4974 236.627 45.8906 236.627H194.964C197.28 236.627 199.21 234.774 199.21 232.381V22.8604C199.21 20.5444 197.357 18.6144 194.964 18.6144H45.8906Z" fill="#EBEBEB"/>
<path d="M361.947 236.782H212.874C210.481 236.782 208.474 234.774 208.474 232.381V22.8604C208.474 20.4672 210.481 18.46 212.874 18.46H361.947C364.34 18.46 366.348 20.4672 366.348 22.8604V232.381C366.348 234.774 364.418 236.782 361.947 236.782ZM212.874 18.6144C210.558 18.6144 208.628 20.4672 208.628 22.8604V232.381C208.628 234.697 210.481 236.627 212.874 236.627H361.947C364.263 236.627 366.193 234.774 366.193 232.381V22.8604C366.193 20.5444 364.34 18.6144 361.947 18.6144H212.874Z" fill="#EBEBEB"/>
<path d="M217.918 264.688H226.024V168.188H217.918V264.688Z" fill="#64B9FF"/>
<path d="M62.0498 271.145H222.935V264.737H62.0498V271.145Z" fill="#64B9FF"/>
<path d="M217.893 168.151H58.8613V264.651H217.893V168.151Z" fill="#197BDD"/>
<path d="M219.769 168.18H228.184V162.081H219.769V168.18Z" fill="#E0E0E0"/>
<path d="M219.823 162.052H56.6992V168.151H219.823V162.052Z" fill="#64B9FF"/>
<path d="M205.541 208.912H71.2902C67.9706 208.912 65.2686 206.21 65.2686 202.891V181.584C65.2686 178.264 67.9706 175.562 71.2902 175.562H205.541C208.861 175.562 211.563 178.264 211.563 181.584V202.968C211.485 206.288 208.861 208.912 205.541 208.912Z" fill="#64B9FF"/>
<path d="M205.541 252.222H71.2902C67.9706 252.222 65.2686 249.52 65.2686 246.2V224.893C65.2686 221.573 67.9706 218.871 71.2902 218.871H205.541C208.861 218.871 211.563 221.573 211.563 224.893V246.2C211.485 249.52 208.861 252.222 205.541 252.222Z" fill="#64B9FF"/>
<path d="M103.791 179.19H172.962C173.734 179.19 174.352 178.573 174.352 177.801V175.948C174.352 175.176 173.734 174.558 172.962 174.558H103.791C103.019 174.558 102.401 175.176 102.401 175.948V177.801C102.479 178.573 103.096 179.19 103.791 179.19Z" fill="#F5F5F5"/>
<path d="M103.791 222.422H172.962C173.734 222.422 174.352 221.805 174.352 221.033V219.18C174.352 218.408 173.734 217.791 172.962 217.791H103.791C103.019 217.791 102.401 218.408 102.401 219.18V221.033C102.479 221.805 103.096 222.422 103.791 222.422Z" fill="#64B9FF"/>
<path d="M357.239 199.803H332.767V204.512H357.239V199.803Z" fill="#197BDD"/>
<path d="M313.97 271.214H318.524V111.101H313.97V271.214Z" fill="#197BDD"/>
<path d="M298.356 204.522H332.787V199.813H298.356V204.522Z" fill="#197BDD"/>
<path d="M357.239 242.88H332.767V247.59H357.239V242.88Z" fill="#197BDD"/>
<path d="M298.356 247.605H332.787V242.896H298.356V247.605Z" fill="#197BDD"/>
<path d="M357.239 113.648H332.767V118.357H357.239V113.648Z" fill="#197BDD"/>
<path d="M298.356 118.356H332.787V113.646H298.356V118.356Z" fill="#197BDD"/>
<path d="M357.239 156.725H332.767V161.434H357.239V156.725Z" fill="#197BDD"/>
<path d="M298.356 161.439H332.787V156.73H298.356V161.439Z" fill="#197BDD"/>
<path d="M348.338 271.214H352.893V111.101H348.338V271.214Z" fill="#197BDD"/>
<path d="M328.238 271.214H332.793V111.101H328.238V271.214Z" fill="#197BDD"/>
<path d="M298.35 271.214H302.904V111.101H298.35V271.214Z" fill="#197BDD"/>
<path d="M79.8335 148.625L283.796 148.625V40.313L79.8335 40.313V148.625Z" fill="#4B83BB"/>
<path d="M74.7167 148.625L280.918 148.625V40.313L74.7167 40.313V148.625Z" fill="#197BDD"/>
<path d="M273.533 140.154V48.9033L82.0772 48.9033L82.0772 140.154L273.533 140.154Z" fill="#64B9FF"/>
<path d="M205 306.03C287.672 306.03 354.691 302.124 354.691 297.306C354.691 292.488 287.672 288.583 205 288.583C122.328 288.583 55.3096 292.488 55.3096 297.306C55.3096 302.124 122.328 306.03 205 306.03Z" fill="#64B9FF"/>
<path d="M311.382 179.962H97.3064C95.9168 179.962 94.7588 178.804 94.7588 177.415C94.7588 176.025 95.9168 174.867 97.3064 174.867H311.382C312.772 174.867 313.93 176.025 313.93 177.415C313.93 178.804 312.772 179.962 311.382 179.962Z" fill="#407BFF"/>
<path opacity="0.3" d="M311.382 179.962H261.279C259.889 179.962 258.731 178.804 258.731 177.415C258.731 176.025 259.889 174.867 261.279 174.867H311.382C312.771 174.867 313.929 176.025 313.929 177.415C313.929 178.804 312.771 179.962 311.382 179.962Z" fill="#263238"/>
<path d="M305.978 186.447H141.311V204.358H305.978V186.447Z" fill="#263238"/>
<path opacity="0.1" d="M305.978 186.447H141.311V204.358H305.978V186.447Z" fill="white"/>
<path d="M303.584 293.755H308.525L308.294 179.962H301.5L303.584 293.755Z" fill="#263238"/>
<path opacity="0.1" d="M303.584 293.755H308.525L308.294 179.962H301.5L303.584 293.755Z" fill="white"/>
<path d="M258.191 293.755H253.25L264.367 179.962H271.238L258.191 293.755Z" fill="#263238"/>
<path opacity="0.2" d="M258.191 293.755H253.25L264.367 179.962H271.238L258.191 293.755Z" fill="white"/>
<path d="M139.612 293.755H144.553L144.321 179.962H137.527L139.612 293.755Z" fill="#263238"/>
<path opacity="0.1" d="M139.612 293.755H144.553L144.321 179.962H137.527L139.612 293.755Z" fill="white"/>
<path d="M94.2181 293.755H89.2773L100.471 179.962H107.265L94.2181 293.755Z" fill="#263238"/>
<path opacity="0.2" d="M94.2181 293.755H89.2773L100.471 179.962H107.265L94.2181 293.755Z" fill="white"/>
<path d="M232.87 174.867H221.522L216.967 152.634H228.315L232.87 174.867Z" fill="#263238"/>
<path d="M247.924 170.235H198.593C196.972 170.235 195.737 168.923 195.814 167.302L197.667 136.113C197.744 134.492 199.211 133.179 200.832 133.179H250.163C251.784 133.179 253.019 134.492 252.942 136.113L251.089 167.302C251.012 168.923 249.622 170.235 247.924 170.235Z" fill="#263238"/>
<path d="M247.152 170.236H197.821C196.2 170.236 194.964 168.924 195.042 167.302L196.894 136.114C196.972 134.492 198.438 133.18 200.06 133.18H249.39C251.012 133.18 252.247 134.492 252.17 136.114L250.317 167.302C250.24 168.924 248.85 170.236 247.152 170.236Z" fill="#407BFF"/>
<path d="M197.898 168.691C197.512 168.691 197.203 168.537 196.971 168.305C196.74 168.074 196.585 167.688 196.663 167.379L198.515 136.19C198.593 135.341 199.287 134.646 200.137 134.646H249.467C249.853 134.646 250.162 134.8 250.394 135.032C250.625 135.264 250.78 135.65 250.703 135.958L248.85 167.147C248.773 167.996 248.078 168.691 247.229 168.691H197.898Z" fill="#95B6FF"/>
<path opacity="0.2" d="M219.514 133.102L222.756 144.064L232.252 133.102H219.514Z" fill="black"/>
<path d="M142.931 106.468C143.008 107.086 143.394 107.549 143.78 107.472C144.166 107.472 144.398 106.931 144.32 106.314C144.243 105.696 143.857 105.233 143.471 105.31C143.085 105.387 142.854 105.928 142.931 106.468Z" fill="#263238"/>
<path d="M143.549 107.317C143.549 107.317 144.861 110.251 146.251 111.64C145.402 112.49 143.858 112.181 143.858 112.181L143.549 107.317Z" fill="#EB996E"/>
<path d="M140.924 104.229C140.847 104.229 140.77 104.229 140.77 104.229C140.615 104.152 140.538 103.92 140.538 103.766C141.233 101.99 142.854 101.682 142.931 101.682C143.086 101.604 143.317 101.759 143.317 101.99C143.317 102.145 143.24 102.376 143.008 102.376C142.931 102.376 141.696 102.608 141.156 103.998C141.156 104.075 141.078 104.152 140.924 104.229Z" fill="#263238"/>
<path d="M125.407 115.809L130.039 119.36L136.369 124.224C136.138 124.456 135.829 125.691 135.752 126.54C135.52 128.316 135.288 129.705 139.226 130.709C140.075 130.94 140.77 131.558 140.924 132.484C141.078 133.565 140.461 134.8 136.755 135.418C132.509 136.113 129.112 134.955 126.488 133.642C124.944 132.87 124.866 131.944 125.561 130.4C127.568 125.922 126.565 120.21 125.407 115.809Z" fill="#F5C9B2"/>
<path d="M120.08 131.79C121.624 128.779 122.242 126.463 122.242 126.463C122.242 126.463 133.976 125.845 137.836 127.003C141.696 128.161 144.089 133.179 144.089 133.179L120.08 131.79Z" fill="#E39D29"/>
<path d="M125.021 140.513C124.712 141.362 124.403 142.443 124.094 143.447L123.245 146.458C122.705 148.465 122.164 150.472 121.778 152.479C121.315 154.486 121.006 156.494 120.775 158.424C120.543 160.354 120.466 162.284 120.62 163.982C120.697 164.831 120.775 165.603 121.006 166.298C121.083 166.452 121.083 166.607 121.161 166.761C121.238 166.916 121.238 167.07 121.315 167.147C121.238 167.07 121.238 166.993 121.161 166.916C121.083 166.761 121.006 166.684 120.929 166.607C120.775 166.452 120.697 166.375 120.62 166.298C120.466 166.221 120.466 166.221 120.466 166.221C120.543 166.298 120.852 166.452 121.161 166.607C121.547 166.761 121.933 166.916 122.319 167.07C123.168 167.379 124.171 167.61 125.175 167.919C129.189 168.923 133.513 169.695 137.759 170.621L137.604 175.948C135.288 176.257 133.049 176.411 130.811 176.488C128.495 176.566 126.256 176.566 123.863 176.411C122.705 176.334 121.469 176.18 120.234 175.948C119.617 175.871 118.922 175.716 118.227 175.485C117.532 175.253 116.76 175.099 115.911 174.636C115.448 174.404 114.985 174.095 114.367 173.709C114.058 173.478 113.749 173.169 113.441 172.783C113.286 172.551 113.132 172.397 112.977 172.088C112.9 171.934 112.823 171.856 112.746 171.702L112.669 171.548L112.128 170.467C111.974 170.081 111.819 169.772 111.665 169.386C111.125 167.996 110.816 166.53 110.584 165.217C109.812 159.813 110.43 155.104 111.202 150.395C111.665 148.079 112.128 145.763 112.746 143.524C113.055 142.366 113.363 141.285 113.749 140.204C114.135 139.046 114.444 138.043 114.907 136.808L125.021 140.513Z" fill="#F5C9B2"/>
<path d="M117.841 130.786C125.175 128.856 129.498 134.8 127.028 144.682C124.557 154.564 123.708 154.872 123.708 154.872L108.654 152.325C110.507 142.675 110.353 132.793 117.841 130.786Z" fill="#E39D29"/>
<path d="M141.387 168.46L140.229 168.382C136.987 168.382 136.446 169.232 134.439 171.084L133.667 175.176C138.839 177.878 141.696 174.944 141.696 174.944H146.559L144.861 171.007C144.321 169.54 142.931 168.537 141.387 168.46Z" fill="#B55B52"/>
<path d="M123.4 108.089C124.712 115.114 125.098 119.283 129.113 122.448C135.134 127.158 143.472 122.68 144.321 115.346C145.016 108.784 142.777 98.362 135.52 96.5092C128.341 94.7336 122.088 101.064 123.4 108.089Z" fill="#F5C9B2"/>
<path d="M137.373 110.56C142.391 110.174 140.924 104.847 139.38 103.766C141.696 102.84 143.394 99.134 141.078 96.5864C142.391 93.1124 138.608 88.9436 131.969 89.5612C127.105 90.0244 126.565 92.572 126.565 92.572C126.565 92.572 120.698 91.9544 118.304 96.7408C116.22 100.832 118.768 103.071 118.768 103.071C118.768 103.071 114.444 104.306 115.602 110.019C116.915 116.118 121.624 114.728 121.624 114.728C121.624 114.728 120.543 120.364 126.951 120.441C132.432 120.518 132.509 116.427 132.509 116.427C132.509 116.427 139.534 115.732 137.373 110.56Z" fill="#263238"/>
<path d="M133.589 110.946C134.207 112.567 135.442 113.802 136.677 114.42C138.53 115.346 139.92 113.416 139.611 111.409C139.302 109.633 137.758 107.317 135.828 107.163C133.898 107.163 132.895 109.093 133.589 110.946Z" fill="#F5C9B2"/>
<path d="M208.474 284.954L215.345 282.175L210.481 265.654L203.61 268.434L208.474 284.954Z" fill="#F5C9B2"/>
<path opacity="0.2" d="M205.926 276.462L212.874 273.915L210.481 265.654L203.61 268.434L205.926 276.462Z" fill="black"/>
<path d="M214.727 279.319L206.853 282.021C206.544 282.098 206.39 282.407 206.467 282.716L208.243 289.046C208.397 289.741 209.246 290.127 209.864 289.895C212.566 288.892 213.647 288.351 217.043 286.884C219.128 285.958 224.069 283.874 226.693 282.252C229.318 280.708 227.697 278.084 226.462 278.47C223.451 279.473 218.51 280.168 215.963 279.319C215.654 279.242 215.113 279.242 214.727 279.319Z" fill="#263238"/>
<path d="M153.353 189.767C153.353 189.767 205.231 194.476 206.544 209.376C209.246 239.715 213.415 269.051 213.415 269.051L202.838 272.911C202.838 272.911 189.946 239.561 190.1 215.783C175.123 211.537 135.829 217.79 129.344 206.21C123.631 196.02 128.649 188.686 128.649 188.686L153.353 189.767Z" fill="#6F7B88"/>
<path d="M202.066 275.304L215.19 270.827L214.65 264.882L199.827 269.669L202.066 275.304Z" fill="#F6AC3B"/>
<path d="M217.583 279.705C216.966 279.936 216.194 280.014 215.653 280.091C215.576 280.091 215.499 280.091 215.499 280.014C215.499 279.936 215.499 279.859 215.499 279.859C215.653 279.628 217.197 277.62 218.124 277.62C218.355 277.62 218.51 277.775 218.664 277.929C218.896 278.238 218.896 278.624 218.741 278.856C218.587 279.242 218.124 279.55 217.583 279.705ZM216.039 279.705C217.352 279.55 218.278 279.164 218.51 278.701C218.587 278.547 218.587 278.315 218.433 278.084C218.355 278.006 218.278 277.929 218.201 277.929C217.583 277.929 216.657 278.933 216.039 279.705Z" fill="#F6AC3B"/>
<path d="M215.731 280.091H215.654C215.577 280.091 215.577 280.014 215.5 280.014C215.5 279.936 214.573 278.006 215.114 277.08C215.268 276.848 215.422 276.694 215.731 276.617C216.04 276.54 216.349 276.617 216.503 276.926C216.889 277.543 216.349 279.396 215.731 280.091ZM215.654 276.926C215.5 277.003 215.422 277.08 215.345 277.157C215.036 277.698 215.422 278.856 215.654 279.55C216.117 278.856 216.426 277.466 216.117 277.003C216.04 276.926 215.963 276.848 215.731 276.848C215.731 276.926 215.731 276.926 215.654 276.926Z" fill="#F6AC3B"/>
<path d="M171.727 289.818L179.061 289.509L180.296 272.139L172.962 272.525L171.727 289.818Z" fill="#F5C9B2"/>
<path d="M179.215 288.197L170.877 287.965C170.569 287.965 170.337 288.197 170.337 288.428L169.719 294.99C169.642 295.685 170.26 296.303 170.955 296.38C173.811 296.457 175.201 296.303 178.906 296.38C181.145 296.457 185.545 296.766 188.633 296.38C191.644 295.994 191.258 292.983 189.869 292.829C186.703 292.597 182.457 290.358 180.373 288.66C180.141 288.428 179.678 288.274 179.215 288.197Z" fill="#263238"/>
<path d="M181.84 289.586C181.145 289.586 180.373 289.432 179.91 289.278C179.833 289.278 179.833 289.2 179.756 289.123C179.756 289.046 179.756 288.969 179.833 288.969C180.065 288.814 182.226 287.425 183.075 287.811C183.307 287.888 183.384 288.042 183.461 288.274C183.539 288.66 183.461 288.969 183.23 289.2C182.921 289.509 182.381 289.586 181.84 289.586ZM180.296 289.046C181.609 289.355 182.612 289.355 182.921 289.046C183.075 288.892 183.153 288.737 183.075 288.428C183.075 288.274 182.998 288.197 182.921 288.197C182.458 287.965 181.223 288.506 180.296 289.046Z" fill="#F6AC3B"/>
<path d="M179.909 289.278H179.832C179.755 289.278 179.755 289.2 179.755 289.123C179.755 289.046 179.678 286.884 180.45 286.19C180.681 286.035 180.913 285.958 181.222 285.958C181.531 286.035 181.762 286.19 181.839 286.498C181.994 287.348 180.836 288.814 180.064 289.2C179.909 289.278 179.909 289.278 179.909 289.278ZM180.99 286.344C180.836 286.344 180.759 286.421 180.604 286.498C180.141 286.884 180.064 288.12 180.064 288.814C180.759 288.274 181.531 287.116 181.376 286.576C181.376 286.498 181.299 286.344 181.067 286.344H180.99Z" fill="#F6AC3B"/>
<path opacity="0.2" d="M172.884 272.525L180.295 272.139L179.601 282.098H172.267L172.884 272.525Z" fill="black"/>
<path d="M136.137 188.995C136.137 188.995 192.03 197.564 191.104 210.379C189.483 233.539 181.763 278.778 181.763 278.778L170.723 278.933C170.723 278.933 168.098 232.536 172.267 215.552C158.525 215.552 119.771 215.088 114.444 207.986C108.577 200.189 114.599 187.914 114.599 187.914L136.137 188.995Z" fill="#6F7B88"/>
<path d="M169.411 279.859L182.766 279.628L183.384 272.602L168.793 273.22L169.411 279.859Z" fill="#F6AC3B"/>
<path d="M145.942 130.014C141.465 129.165 121.161 129.396 121.161 129.396C116.992 129.319 113.364 132.407 112.9 136.576C112.206 142.829 116.143 156.802 116.297 163.982C116.452 172.783 114.83 176.257 114.599 188.068L153.353 189.844C153.353 166.144 152.35 146.458 151.346 137.039C151.037 133.72 150.42 130.863 145.942 130.014Z" fill="#F6AC3B"/>
<path d="M145.942 130.014C141.465 129.165 121.161 129.396 121.161 129.396C116.992 129.319 113.364 132.407 112.9 136.576C112.206 142.829 116.143 156.802 116.297 163.982C116.452 172.783 114.83 176.257 114.599 188.068L153.353 189.844C153.353 166.144 152.35 146.458 151.346 137.039C151.037 133.72 150.42 130.863 145.942 130.014Z" fill="#F6AC3B"/>
<path d="M151.269 137.502C152.504 141.671 153.662 145.917 154.974 150.163C156.209 154.332 157.522 158.578 158.989 162.515C159.375 163.519 159.761 164.445 160.069 165.449L160.687 166.838L160.764 166.993V167.07V167.147V167.07C160.61 166.761 160.378 166.53 160.301 166.452C160.069 166.221 159.915 166.144 159.915 166.144C159.915 166.144 160.147 166.375 160.533 166.53C160.841 166.684 161.305 166.838 161.691 166.993C162.54 167.302 163.543 167.533 164.547 167.842C168.561 168.846 172.962 169.695 177.285 170.544L177.131 175.871C174.815 176.18 172.499 176.334 170.183 176.411C167.867 176.488 165.551 176.488 163.157 176.257C161.922 176.18 160.764 176.025 159.452 175.794C158.834 175.639 158.139 175.485 157.445 175.33C156.75 175.099 155.978 174.867 154.974 174.327C154.511 174.018 153.893 173.709 153.276 173.014C152.967 172.706 152.581 172.242 152.272 171.702L152.041 171.239L151.191 169.618C150.651 168.537 150.111 167.456 149.647 166.375C148.721 164.214 147.872 162.052 147.023 159.89C146.251 157.729 145.479 155.567 144.784 153.406C143.394 149.082 142.082 144.759 140.924 140.282L151.269 137.502Z" fill="#F5C9B2"/>
<path d="M140.229 133.179C145.556 127.775 152.273 130.709 155.206 140.513C158.14 150.24 157.599 151.012 157.599 151.012L143.395 156.494C139.998 147.152 134.825 138.66 140.229 133.179Z" fill="#E39D29"/>
<path d="M180.991 168.46L179.833 168.382C176.591 168.382 176.051 169.232 174.043 171.084L173.271 175.176C178.444 177.878 181.3 174.944 181.3 174.944H186.164L184.465 171.007C183.848 169.54 182.535 168.537 180.991 168.46Z" fill="#F5C9B2"/>
<path d="M116.297 218.485H165.782C166.863 218.485 167.712 217.636 167.712 216.555V213.39C167.712 212.309 166.863 211.46 165.782 211.46H116.297C115.216 211.46 114.367 212.309 114.367 213.39V216.555C114.367 217.559 115.216 218.485 116.297 218.485Z" fill="#407BFF"/>
<path d="M116.529 297.77H114.367L116.838 218.485H119.848L116.529 297.77Z" fill="#407BFF"/>
<path opacity="0.4" d="M116.529 297.77H114.367L116.838 218.485H119.848L116.529 297.77Z" fill="#868181"/>
<path d="M136.678 297.77H138.917L136.369 218.485H133.358L136.678 297.77Z" fill="#407BFF"/>
<path opacity="0.4" d="M136.678 297.77H138.917L136.369 218.485H133.358L136.678 297.77Z" fill="#868181"/>
<path d="M145.402 297.77H143.163L145.711 218.485H148.721L145.402 297.77Z" fill="#407BFF"/>
<path opacity="0.4" d="M145.402 297.77H143.163L145.711 218.485H148.721L145.402 297.77Z" fill="#868181"/>
<path d="M165.551 297.77H167.713L165.242 218.485H162.154L165.551 297.77Z" fill="#407BFF"/>
<path opacity="0.4" d="M165.551 297.77H167.713L165.242 218.485H162.154L165.551 297.77Z" fill="#868181"/>
<g opacity="0.3">
<path opacity="0.3" d="M116.838 218.485H119.849L119.772 221.882H116.761L116.838 218.485Z" fill="#407BFF"/>
<path opacity="0.3" d="M136.446 221.882H133.436L133.358 218.485H136.369L136.446 221.882Z" fill="#407BFF"/>
<path opacity="0.3" d="M148.722 218.485L148.567 221.882H145.634L145.711 218.485H148.722Z" fill="#407BFF"/>
<path opacity="0.3" d="M165.319 221.882H162.309L162.154 218.485H165.242L165.319 221.882Z" fill="#407BFF"/>
</g>
<path d="M312.308 121.599H188.634C184.542 121.599 181.377 118.28 181.609 114.111L186.318 35.83C186.549 31.7384 190.101 28.3416 194.192 28.3416H317.789C321.881 28.3416 325.046 31.6612 324.815 35.83L320.183 114.188C319.951 118.28 316.4 121.599 312.308 121.599Z" fill="#407BFF"/>
<path d="M205.232 105.078L216.581 144.064L250.472 105.078H205.232Z" fill="#407BFF"/>
<path opacity="0.1" d="M306.287 90.1016H236.961C234.645 90.1016 232.87 88.2488 233.024 85.9328L235.649 42.0832C235.803 39.7672 237.81 37.9144 240.049 37.9144H309.375C311.691 37.9144 313.466 39.7672 313.312 42.0832L310.687 85.9328C310.533 88.2488 308.603 90.1016 306.287 90.1016Z" fill="white"/>
<path opacity="0.1" d="M269.231 109.016H199.906C197.59 109.016 195.814 107.163 195.968 104.847L198.593 60.9972C198.748 58.6812 200.755 56.8284 202.994 56.8284H272.319C274.635 56.8284 276.411 58.6812 276.256 60.9972L273.632 104.847C273.477 107.163 271.47 109.016 269.231 109.016Z" fill="white"/>
<g opacity="0.5">
<path opacity="0.5" d="M198.979 35.2896C198.902 36.5248 197.898 37.6056 196.74 37.6056C195.582 37.6056 194.733 36.602 194.887 35.2896C194.964 34.0544 195.968 32.9736 197.126 32.9736C198.284 32.9736 199.056 33.9772 198.979 35.2896Z" fill="white"/>
<path opacity="0.5" d="M206.544 35.2896C206.467 36.5248 205.464 37.6056 204.306 37.6056C203.148 37.6056 202.298 36.602 202.453 35.2896C202.53 34.0544 203.534 32.9736 204.692 32.9736C205.85 32.9736 206.699 33.9772 206.544 35.2896Z" fill="white"/>
<path opacity="0.5" d="M214.187 35.2896C214.11 36.5248 213.106 37.6056 211.948 37.6056C210.79 37.6056 209.941 36.602 210.095 35.2896C210.172 34.0544 211.176 32.9736 212.334 32.9736C213.415 32.9736 214.264 33.9772 214.187 35.2896Z" fill="white"/>
</g>
<path d="M244.449 75.1248C243.909 76.2056 243.446 77.2092 242.905 78.2128C242.365 79.2164 241.824 80.1428 241.284 81.1464C240.126 83.0764 238.968 84.9292 237.733 86.782C237.115 87.7084 236.42 88.6349 235.803 89.5613C235.108 90.4877 234.413 91.3369 233.719 92.2633C232.329 94.0389 230.708 95.7372 229.009 97.3584C228.546 97.7444 228.083 98.1305 227.697 98.5937C227.234 98.9797 226.771 99.3657 226.307 99.7517L224.841 100.832C224.841 100.832 224.609 101.064 224.377 101.141C224.146 101.296 223.991 101.373 223.76 101.45C223.296 101.682 222.911 101.836 222.447 101.913C221.521 102.145 220.594 102.145 219.668 101.913C218.742 101.682 217.892 101.296 217.198 100.755C216.812 100.446 216.503 100.138 216.194 99.7517L215.963 99.4428L215.885 99.2884V99.2113L215.731 98.9797L215.191 97.976C215.036 97.6672 214.882 97.3584 214.805 97.0497C214.264 95.8145 213.955 94.6565 213.647 93.4213C213.106 91.1053 212.72 88.8665 212.489 86.6277C212.257 84.3889 212.18 82.2273 212.18 79.9113C212.18 78.4445 213.415 77.2864 214.882 77.2864C216.117 77.2864 217.043 78.1356 217.429 79.2164V79.2937C218.587 83.2309 219.745 87.3225 221.212 90.8737C221.598 91.7229 221.984 92.5721 222.37 93.1897C222.447 93.3441 222.602 93.4984 222.679 93.6528C222.756 93.8072 222.91 93.8844 222.988 94.0388L223.065 94.116V94.0388C223.065 93.9616 222.988 93.9616 222.988 93.8844C222.833 93.73 222.756 93.5757 222.602 93.4213C222.293 93.1897 221.907 92.958 221.521 92.8808C221.135 92.8036 220.749 92.8036 220.363 92.8808C220.131 92.8808 219.977 92.9581 219.745 93.0353C219.668 93.1125 219.591 93.1125 219.437 93.1897C219.359 93.2669 219.205 93.344 219.282 93.2668L220.286 92.3404C220.594 92.0316 220.903 91.7228 221.212 91.3368C221.521 91.028 221.83 90.6421 222.139 90.3333C224.609 87.3997 226.848 84.0801 229.009 80.6833C230.09 78.9849 231.094 77.2093 232.097 75.4337L233.564 72.7317L234.954 70.1069L235.031 69.9524C236.42 67.3276 239.663 66.4013 242.211 67.7909C244.604 69.5665 245.607 72.5772 244.449 75.1248Z" fill="#445465"/>
<path d="M212.643 79.7568L208.86 77.5953L212.875 73.4265C212.875 73.4265 214.573 74.6617 216.117 76.3601C217.121 77.4408 216.812 79.2164 215.5 79.834C214.65 80.3744 213.57 80.2972 212.643 79.7568Z" fill="#F5C9B2"/>
<path d="M208.011 73.1948L210.018 71.728C210.559 71.342 211.331 71.4192 211.717 71.9596L212.875 73.4264L208.86 77.5952L207.625 74.6616C207.316 74.1984 207.548 73.5808 208.011 73.1948Z" fill="#F5C9B2"/>
<path d="M236.344 71.6508C236.961 69.5664 238.66 68.0224 240.821 67.6364C242.442 67.3276 243.214 67.096 245.376 66.9416C249.004 66.71 255.026 66.9416 259.195 67.1732C261.588 67.3276 264.058 67.6364 265.988 68.0224H266.066C268.227 68.4084 269.694 70.4156 269.308 72.5772C268.382 78.1356 265.525 87.8628 265.216 96.9724C264.83 109.016 264.985 115.886 264.753 118.82L233.873 118.202C231.712 88.9436 234.336 78.29 236.344 71.6508Z" fill="white"/>
<path d="M266.838 67.6364C264.676 67.2504 262.128 66.9416 259.581 66.7872C259.118 66.7872 258.654 66.71 258.191 66.71C256.802 72.2684 248.773 81.6868 246.38 95.9688C245.453 84.08 244.681 71.5736 246.071 66.71C245.222 66.71 241.207 66.9416 239.509 67.2504C237.27 67.6364 235.417 69.412 234.645 71.8052C232.715 77.3636 229.087 89.9472 231.325 120.673H265.68C265.911 117.585 265.139 111.1 266.374 101.141C267.61 91.4912 269.308 78.29 270.312 72.4228C270.698 70.184 269.154 68.0224 266.838 67.6364Z" fill="#445465"/>
<path opacity="0.2" d="M245.607 119.129C245.53 119.129 245.376 119.052 245.376 118.974C244.681 110.328 245.993 97.8216 245.993 97.6672C245.993 97.59 246.148 97.4356 246.225 97.5128C246.302 97.5128 246.457 97.59 246.379 97.7444C246.379 97.8988 244.99 110.328 245.762 118.974C245.839 118.974 245.762 119.052 245.607 119.129Z" fill="white"/>
<path opacity="0.3" d="M265.679 79.834C264.367 85.624 265.062 93.5756 266.451 100.91C267.455 92.7264 268.845 82.0728 269.848 75.5108C268.381 74.5844 266.683 75.202 265.679 79.834Z" fill="black"/>
<path d="M245.993 66.9416C250.007 66.0924 250.702 63.622 250.393 60.8428C250.316 60.148 250.239 59.4532 250.085 58.8356L255.103 54.744L258.808 51.7332C257.805 56.1336 256.724 64.2396 259.735 67.2504C259.735 67.2504 257.264 71.342 250.393 70.8016C244.526 70.4156 245.993 66.9416 245.993 66.9416Z" fill="#F5C9B2"/>
<path d="M252.093 69.798L250.935 70.8788L254.486 72.1912L254.023 70.8788L252.093 69.798Z" fill="#E0E0E0"/>
<path d="M254.794 74.1212C254.794 74.1212 253.404 70.57 252.092 69.8752C256.724 68.64 258.963 66.0924 258.963 66.0924L261.047 66.9416C261.047 66.8644 261.742 70.8788 254.794 74.1212Z" fill="#F5F5F5"/>
<path d="M250.085 69.5664L250.934 70.8788L247.229 71.1876L248.001 70.0296L250.085 69.5664Z" fill="#E0E0E0"/>
<path d="M245.376 73.1176C245.376 73.1176 247.383 70.8788 250.162 69.5664C248.155 68.9488 248 66.1696 248 66.1696L246.07 66.5556C245.993 66.5556 242.365 70.0296 245.376 73.1176Z" fill="#F5F5F5"/>
<path opacity="0.2" d="M250.085 58.8356C250.239 59.5304 250.394 60.2252 250.394 60.8428C252.247 60.534 254.794 58.5268 255.026 56.5968C255.103 55.902 255.103 55.2072 255.103 54.6668L250.085 58.8356Z" fill="black"/>
<path d="M243.986 38.6092C242.21 40.848 242.365 48.7996 246.147 48.8768C249.93 48.954 247.228 34.5948 243.986 38.6092Z" fill="#263238"/>
<path d="M260.275 44.3992C259.889 50.4208 259.967 53.972 256.956 57.06C252.401 61.7692 244.99 59.0672 243.523 53.0456C242.211 47.6416 243.06 38.6864 249.004 36.216C254.794 33.9 260.661 38.3776 260.275 44.3992Z" fill="#F5C9B2"/>
<path d="M257.342 39.3812C253.559 43.164 258.5 45.866 256.57 47.9504C260.121 49.8032 258.809 51.1928 258.809 51.1928C258.809 51.1928 258.191 52.6596 258.809 54.358C262.823 53.3544 270.311 39.9216 262.128 37.9144C257.265 40.076 257.342 39.3812 257.342 39.3812Z" fill="#263238"/>
<path d="M258.886 42.0832C255.257 42.6236 250.78 40.9252 248 39.4584C245.221 37.9916 244.758 40.7708 245.839 41.62C244.063 41.6972 241.747 40.2304 242.365 37.0652C242.905 34.1316 246.688 31.4296 252.092 33.9C255.875 35.5984 260.584 33.3596 262.437 35.3668C264.212 37.374 261.279 41.7744 258.886 42.0832Z" fill="#263238"/>
<path d="M261.356 38.2232C263.75 37.9144 263.904 36.3704 263.209 33.7456C265.834 37.4512 264.753 38.6092 263.209 39.4584C261.511 38.8408 261.356 38.2232 261.356 38.2232Z" fill="#263238"/>
<path d="M261.897 49.0312C261.279 50.3436 260.275 51.27 259.272 51.7332C257.805 52.428 257.033 51.0384 257.419 49.4172C257.805 47.9504 258.963 45.866 260.507 45.866C262.051 45.866 262.591 47.5644 261.897 49.0312Z" fill="#F5C9B2"/>
<path d="M250.934 46.252C250.934 46.7152 250.703 47.1784 250.317 47.1784C250.008 47.1784 249.776 46.7924 249.776 46.3292C249.776 45.866 250.008 45.4028 250.394 45.4028C250.626 45.4028 250.934 45.7888 250.934 46.252Z" fill="#263238"/>
<path d="M245.376 46.3292C245.376 46.7924 245.144 47.2556 244.758 47.2556C244.449 47.2556 244.218 46.8696 244.218 46.4064C244.218 45.9432 244.449 45.48 244.835 45.48C245.144 45.4028 245.376 45.7888 245.376 46.3292Z" fill="#263238"/>
<path d="M247.461 46.4836C247.461 46.4836 246.38 49.34 245.145 50.7297C245.994 51.5017 247.461 51.1157 247.461 51.1157V46.4836Z" fill="#EB996E"/>
<path d="M249.39 52.428C251.32 52.1964 252.169 50.884 252.247 50.8068C252.324 50.7296 252.247 50.6524 252.169 50.5752C252.092 50.498 252.015 50.5752 251.938 50.6524C251.938 50.6524 250.934 52.1964 248.773 52.1964C248.695 52.1964 248.618 52.2736 248.618 52.3508C248.618 52.428 248.695 52.5052 248.773 52.5052C249.004 52.428 249.236 52.428 249.39 52.428Z" fill="#263238"/>
<path d="M253.559 44.3221C253.636 44.3221 253.636 44.3221 253.714 44.2449C253.868 44.1677 253.868 43.9361 253.791 43.8589C252.864 42.6236 251.475 42.7008 251.475 42.7008C251.32 42.7008 251.166 42.8552 251.243 43.0096C251.243 43.164 251.398 43.3184 251.552 43.2412C251.629 43.2412 252.633 43.164 253.405 44.1677C253.405 44.2449 253.482 44.3221 253.559 44.3221Z" fill="#263238"/>
<path d="M243.137 44.5537C243.214 44.5537 243.291 44.4765 243.369 44.3993C243.909 43.2413 244.99 43.0869 244.99 43.0869C245.144 43.0869 245.221 42.9325 245.221 42.7781C245.221 42.6237 245.067 42.5464 244.913 42.5464C244.835 42.5464 243.523 42.7781 242.828 44.1677C242.751 44.3221 242.828 44.4765 242.983 44.5537C243.06 44.5537 243.06 44.5537 243.137 44.5537Z" fill="#263238"/>
<path d="M271.238 71.1104C272.165 73.1176 272.937 74.9704 273.709 76.9004C274.481 78.8304 275.175 80.7604 275.87 82.7676C277.183 86.7048 278.341 90.7964 279.113 95.0424C279.267 96.1232 279.499 97.204 279.653 98.2848L279.73 99.134L279.807 99.52V99.7516V100.06C279.885 100.832 279.885 101.604 279.807 102.454C279.653 104.075 279.035 105.928 278.032 107.317C277.028 108.784 275.793 109.865 274.558 110.56C273.323 111.332 272.087 111.795 270.852 112.104C269.617 112.412 268.459 112.644 267.301 112.721C266.143 112.798 264.985 112.876 263.904 112.798C262.746 112.721 261.743 112.644 260.508 112.412C259.041 112.181 258.114 110.791 258.346 109.324C258.5 108.244 259.35 107.394 260.43 107.163L260.739 107.086C261.511 106.931 262.515 106.7 263.364 106.468C264.213 106.236 265.14 105.928 265.912 105.696C267.533 105.078 269 104.306 269.772 103.534C270.158 103.148 270.389 102.762 270.466 102.531C270.543 102.299 270.543 102.068 270.466 101.682C270.466 101.527 270.389 101.296 270.312 101.064L270.003 99.8288C269.849 98.9796 269.54 98.0532 269.308 97.1268C268.845 95.3512 268.305 93.4984 267.687 91.6456C267.07 89.7928 266.452 88.0172 265.757 86.1644C265.062 84.3116 264.368 82.536 263.673 80.7604C262.978 78.9848 262.206 77.132 261.511 75.4336V75.3564C260.353 72.6544 261.588 69.4892 264.368 68.4084C266.915 67.3276 270.003 68.5628 271.238 71.1104Z" fill="#445465"/>
<path d="M258.036 109.479L254.64 111.1L260.507 113.184C260.507 113.184 264.444 111.949 262.514 109.788L261.433 109.479C259.735 108.861 258.963 108.938 258.036 109.479Z" fill="#F5C9B2"/>
<path d="M255.103 115.269L257.65 115.732C258.422 115.886 259.194 115.5 259.58 114.883L260.507 113.184L254.64 111.1L253.79 112.721C253.25 113.725 253.868 115.037 255.103 115.269Z" fill="#F5C9B2"/>
</g>
<defs>
<clipPath id="clip0">
<rect width="407" height="300" fill="white"/>
</clipPath>
</defs>
</svg>
