<svg width="407" height="300" viewBox="0 0 407 300" fill="none" xmlns="http://www.w3.org/2000/svg">
<path d="M324.72 52.26V91.62H268.14L266.1 52.5L324.72 52.26Z" fill="#E0E0E0"/>
<path d="M266.095 52.5077V91.5677H322.675V52.5077H266.095Z" fill="#B4CBFF"/>
<path d="M322.98 91.86H265.8V52.26H322.92V91.86H322.98ZM266.34 91.32H322.44V52.8H266.34V91.32Z" fill="#B4CBFF"/>
<path d="M316.56 57.3601H272.22V86.7001H316.56V57.3601Z" fill="#E4FBFF"/>
<path d="M316.56 57.36C316.56 57.36 316.5 57.36 316.32 57.36C316.14 57.36 315.96 57.36 315.66 57.36C315.12 57.36 314.28 57.36 313.2 57.36C311.1 57.36 307.98 57.36 304.08 57.42C296.28 57.42 285.18 57.4801 272.16 57.4801L272.28 57.36C272.28 66.3 272.28 76.26 272.28 86.7L272.16 86.58C288.9 86.58 304.32 86.58 316.5 86.58L316.38 86.7C316.38 77.76 316.44 70.44 316.44 65.34C316.44 62.82 316.44 60.78 316.44 59.46C316.44 58.8 316.44 58.26 316.44 57.9C316.56 57.54 316.56 57.36 316.56 57.36C316.56 57.36 316.56 57.54 316.56 57.9C316.56 58.26 316.56 58.74 316.56 59.46C316.56 60.84 316.56 62.82 316.56 65.34C316.56 70.44 316.62 77.82 316.62 86.76V86.88H316.5C304.32 86.88 288.9 86.88 272.16 86.88H272.04V86.76C272.04 76.32 272.04 66.36 272.04 57.42V57.3H272.16C285.24 57.3 296.34 57.36 304.14 57.36C308.04 57.36 311.1 57.36 313.26 57.42C314.28 57.42 315.12 57.42 315.66 57.42C315.9 57.42 316.14 57.42 316.26 57.42C316.5 57.36 316.56 57.36 316.56 57.36Z" fill="#E0E0E0"/>
<path d="M266.1 52.3801C266.1 52.3201 266.52 52.6201 267.06 53.0401C267.66 53.4601 268.44 54.0601 269.28 54.7201C270.12 55.3801 270.9 56.0401 271.38 56.5201C271.92 57.0001 272.22 57.3001 272.22 57.3601C272.16 57.4201 270.78 56.2801 269.1 54.9601C267.42 53.5801 266.04 52.4401 266.1 52.3801Z" fill="#E0E0E0"/>
<path d="M322.68 52.5001C322.74 52.5601 321.42 53.7001 319.68 55.0201C318 56.3401 316.56 57.4201 316.5 57.3601C316.44 57.3001 317.76 56.1601 319.5 54.8401C321.24 53.4601 322.62 52.4401 322.68 52.5001Z" fill="#E0E0E0"/>
<path d="M322.68 91.56C320.58 89.88 318.48 88.14 316.38 86.46L322.68 91.56Z" fill="white"/>
<path d="M316.32 86.46C316.38 86.4 317.82 87.48 319.56 88.92C321.3 90.36 322.68 91.5 322.62 91.56C322.56 91.62 321.12 90.54 319.38 89.1C317.64 87.72 316.32 86.52 316.32 86.46Z" fill="#E0E0E0"/>
<path d="M266.1 91.56C266.04 91.5 267.36 90.36 269.04 89.04C270.72 87.72 272.1 86.7 272.16 86.76C272.22 86.82 270.9 87.96 269.22 89.28C267.54 90.6 266.16 91.62 266.1 91.56Z" fill="#E0E0E0"/>
<path d="M281.235 66.4735V76.3135H309.135V66.4735H281.235Z" fill="#51CDE4"/>
<path d="M168.24 30.1201C168.24 30.1201 168.18 30.12 168.12 30.0601C168 30 167.88 29.9401 167.7 29.88C167.34 29.7001 166.8 29.5201 166.2 29.2201C164.88 28.6201 162.96 27.8401 160.68 26.8201C156 24.7801 149.52 21.96 142.44 18.9C142.2 18.78 142.02 18.72 141.78 18.6H141.9C134.88 21.6 128.58 24.3001 124.02 26.2201C121.74 27.1801 119.94 27.9601 118.62 28.5001C118.02 28.7401 117.48 28.9801 117.12 29.1C116.76 29.2201 116.58 29.2801 116.58 29.2801C116.58 29.2801 116.76 29.1601 117.06 29.0401C117.42 28.8601 117.9 28.68 118.5 28.38C119.82 27.78 121.62 27.0001 123.84 26.0401C128.4 24.0601 134.7 21.36 141.66 18.3H141.72H141.78C141.96 18.36 142.2 18.48 142.44 18.6C149.52 21.72 155.94 24.5401 160.62 26.6401C162.9 27.6601 164.82 28.5001 166.14 29.1C166.74 29.4001 167.28 29.64 167.64 29.76C167.82 29.82 167.94 29.8801 168 29.9401C168.18 30.1201 168.24 30.1201 168.24 30.1201Z" fill="#E0E0E0"/>
<path d="M196.68 27.54H79.5V115.26H196.68V27.54Z" fill="#739AF0"/>
<path d="M193.08 31.6201H83.6401V111.66H193.08V31.6201Z" fill="#51CDE4"/>
<path d="M107.82 66.6001C107.82 66.6001 107.94 80.0401 108.6 84.1201L125.46 83.3401C125.46 83.3401 123.96 70.1401 124.56 66.6001H107.82Z" fill="#E4FBFF"/>
<path d="M116.1 68.46C116.1 68.46 116.1 68.46 116.16 68.46C116.22 68.46 116.28 68.46 116.34 68.46C116.52 68.46 116.76 68.46 117.06 68.52C117.36 68.58 117.72 68.64 118.14 68.82C118.56 69 118.92 69.3 119.28 69.72C119.64 70.14 119.94 70.68 120.06 71.34C120.18 72 120.12 72.72 119.88 73.44C119.76 73.8 119.58 74.16 119.4 74.46C119.22 74.82 119.04 75.12 118.86 75.54C118.56 76.26 118.26 77.1 118.2 77.94V78H118.14C117.6 78 117.06 78 116.46 78C115.86 78 115.26 78 114.72 78H114.66V77.94C114.66 77.1 114.24 76.32 113.88 75.66C113.7 75.3 113.46 75 113.22 74.64C113.04 74.34 112.8 74.04 112.62 73.68C112.26 73.02 112.26 72.24 112.38 71.64C112.5 70.98 112.74 70.44 113.04 69.96C113.34 69.48 113.76 69.18 114.12 69C114.48 68.76 114.84 68.7 115.14 68.58C115.44 68.52 115.68 68.46 115.8 68.46C115.86 68.46 115.92 68.46 115.98 68.46C116.1 68.46 116.1 68.46 116.1 68.46C116.1 68.46 116.1 68.46 116.04 68.46C115.98 68.46 115.92 68.46 115.86 68.46C115.68 68.46 115.5 68.52 115.2 68.58C114.9 68.64 114.54 68.76 114.18 69C113.82 69.24 113.4 69.54 113.1 69.96C112.8 70.38 112.62 70.98 112.5 71.58C112.38 72.18 112.44 72.9 112.74 73.56C112.92 73.86 113.1 74.16 113.34 74.52C113.52 74.82 113.76 75.18 114 75.54C114.42 76.26 114.78 77.04 114.84 77.88L114.78 77.82C115.32 77.82 115.92 77.82 116.52 77.82C117.12 77.82 117.66 77.82 118.2 77.82L118.14 77.88C118.26 76.98 118.5 76.2 118.86 75.48C119.04 75.12 119.22 74.76 119.4 74.4C119.58 74.04 119.76 73.74 119.88 73.38C120.12 72.72 120.18 72 120.06 71.34C119.94 70.74 119.64 70.2 119.28 69.72C118.92 69.3 118.56 69 118.14 68.82C117.78 68.64 117.36 68.52 117.12 68.46C116.82 68.4 116.58 68.4 116.4 68.4C116.34 68.4 116.28 68.4 116.22 68.4C116.1 68.46 116.1 68.46 116.1 68.46Z" fill="#9C9C9C"/>
<path d="M116.94 77.82C116.94 77.7 116.94 77.7 116.88 77.64C116.88 77.52 116.82 77.28 116.76 77.04C116.7 76.5 116.58 75.78 116.52 74.82C116.52 74.58 116.46 74.34 116.46 74.1C116.46 73.86 116.46 73.56 116.46 73.32C116.46 73.02 116.52 72.72 116.64 72.48C116.76 72.24 117 71.94 117.3 71.8199C117.6 71.6999 117.96 71.76 118.2 72C118.32 72.12 118.38 72.3 118.38 72.48C118.38 72.66 118.32 72.84 118.2 72.96C118.08 73.08 117.96 73.2 117.78 73.26C117.6 73.32 117.48 73.38 117.3 73.44C116.94 73.5 116.58 73.56 116.22 73.56C115.86 73.56 115.5 73.56 115.14 73.5C114.96 73.5 114.78 73.44 114.66 73.38C114.48 73.32 114.36 73.2 114.24 73.08C114.12 72.96 114.06 72.78 114 72.6C113.94 72.42 114 72.24 114.06 72.12C114.12 71.94 114.24 71.82 114.42 71.76C114.6 71.7 114.78 71.7 114.9 71.76C115.02 71.82 115.14 71.94 115.26 72.06C115.32 72.18 115.38 72.36 115.44 72.48C115.5 72.78 115.5 73.08 115.5 73.32C115.5 73.86 115.56 74.4 115.56 74.88C115.62 75.84 115.62 76.56 115.68 77.1C115.68 77.34 115.68 77.58 115.68 77.7C115.68 77.76 115.68 77.82 115.68 77.88C115.68 77.94 115.68 77.94 115.68 77.94C115.68 77.94 115.68 77.94 115.68 77.88C115.68 77.82 115.68 77.76 115.68 77.7C115.68 77.58 115.68 77.34 115.62 77.1C115.56 76.56 115.56 75.78 115.5 74.88C115.5 74.4 115.44 73.92 115.44 73.32C115.44 73.02 115.44 72.78 115.38 72.48C115.32 72.36 115.32 72.18 115.2 72.06C115.14 71.94 115.02 71.82 114.84 71.76C114.72 71.7 114.54 71.7 114.42 71.76C114.3 71.82 114.18 71.94 114.12 72.06C114.06 72.18 114 72.36 114.06 72.54C114.12 72.72 114.18 72.84 114.3 72.96C114.54 73.2 114.84 73.32 115.2 73.38C115.56 73.44 115.92 73.44 116.28 73.44C116.64 73.44 117 73.38 117.36 73.32C117.54 73.26 117.72 73.26 117.84 73.14C118.02 73.08 118.14 72.96 118.2 72.84C118.32 72.72 118.38 72.54 118.38 72.36C118.38 72.18 118.32 72.06 118.2 71.94C117.96 71.7 117.6 71.64 117.36 71.76C117.06 71.88 116.88 72.12 116.76 72.36C116.64 72.6 116.58 72.9 116.58 73.2C116.58 73.5 116.58 73.74 116.58 73.98C116.58 74.22 116.58 74.46 116.64 74.7C116.7 75.66 116.82 76.38 116.88 76.92C116.94 77.16 116.94 77.4 116.94 77.52C116.94 77.7 116.94 77.76 116.94 77.82Z" fill="#9C9C9C"/>
<path d="M114.72 77.94C114.72 77.94 114.72 78.12 114.78 78.48C114.78 78.9 114.84 79.38 114.84 79.92V79.86C115.2 80.28 115.56 80.7 115.98 81.18H115.92C116.34 81.18 116.76 81.12 117.24 81.12H117.18C117.42 80.88 117.6 80.58 117.84 80.34C117.96 80.22 118.08 80.1 118.14 79.92V79.98C118.14 79.2 118.08 78.48 118.08 77.82L118.14 77.88C117.18 77.88 116.34 77.88 115.68 77.88C115.44 77.88 115.2 77.88 114.96 77.88C114.84 77.94 114.72 77.94 114.72 77.94C114.72 77.94 114.78 77.94 114.96 77.94C115.14 77.94 115.38 77.94 115.68 77.88C116.34 77.88 117.18 77.82 118.2 77.76H118.26V77.82C118.26 78.48 118.32 79.2 118.32 79.98C118.2 80.1 118.08 80.22 118.02 80.4C117.78 80.7 117.6 80.94 117.36 81.18H117.3C116.82 81.18 116.4 81.24 115.98 81.24H115.92C115.5 80.76 115.14 80.28 114.78 79.92C114.78 79.32 114.78 78.84 114.78 78.42C114.72 78.12 114.72 77.94 114.72 77.94Z" fill="#9C9C9C"/>
<path d="M118.14 79.8601C118.14 79.8601 118.08 79.8601 118.02 79.8001C117.96 79.7401 117.84 79.7401 117.66 79.6801C117.36 79.5601 116.94 79.5001 116.46 79.5001C115.98 79.5001 115.56 79.6201 115.26 79.7401C115.14 79.8001 115.02 79.8601 114.9 79.9201C114.84 79.9801 114.78 79.9801 114.78 79.9801C114.78 79.9801 114.84 79.9201 114.9 79.9201C114.96 79.8601 115.08 79.8001 115.2 79.7401C115.5 79.6201 115.92 79.5001 116.4 79.4401C116.88 79.4401 117.3 79.5001 117.6 79.6201C117.72 79.6801 117.84 79.7401 117.96 79.8001C118.08 79.8001 118.14 79.8001 118.14 79.8601Z" fill="#9C9C9C"/>
<path d="M118.14 79.32C118.14 79.32 118.08 79.32 118.02 79.26C117.96 79.2 117.84 79.2 117.66 79.14C117.36 79.02 116.94 78.96 116.46 78.96C115.98 78.96 115.56 79.08 115.26 79.2C115.14 79.26 115.02 79.32 114.9 79.38C114.84 79.44 114.78 79.44 114.78 79.44C114.78 79.44 114.84 79.38 114.9 79.38C114.96 79.32 115.08 79.26 115.2 79.2C115.5 79.08 115.92 78.96 116.4 78.9C116.88 78.9 117.3 78.96 117.6 79.08C117.72 79.14 117.84 79.2 117.96 79.26C118.08 79.26 118.14 79.32 118.14 79.32Z" fill="#9C9C9C"/>
<path d="M118.08 78.78C118.08 78.78 118.02 78.78 117.96 78.72C117.9 78.66 117.78 78.66 117.6 78.6C117.3 78.48 116.88 78.42 116.4 78.42C115.92 78.42 115.5 78.54 115.2 78.66C115.08 78.72 114.96 78.78 114.84 78.84C114.78 78.9 114.72 78.9 114.72 78.9C114.72 78.9 114.78 78.84 114.84 78.84C114.9 78.78 115.02 78.72 115.14 78.66C115.44 78.54 115.86 78.42 116.34 78.36C116.82 78.36 117.24 78.42 117.54 78.54C117.66 78.6 117.78 78.66 117.9 78.72C118.08 78.78 118.08 78.78 118.08 78.78Z" fill="#9C9C9C"/>
<path d="M89.04 44.64C89.04 44.64 89.16 58.08 89.82 62.16L106.68 61.38C106.68 61.38 105.18 48.18 105.78 44.64H89.04Z" fill="#E4FBFF"/>
<path d="M103.2 50.28C103.2 50.4 100.68 50.58 97.5599 50.76C94.4399 50.94 91.9199 51 91.9199 50.94C91.9199 50.82 94.4399 50.64 97.5599 50.46C100.68 50.22 103.2 50.16 103.2 50.28Z" fill="#455A64"/>
<path d="M103.2 53.1C103.2 53.22 100.68 53.4 97.5599 53.58C94.4399 53.76 91.9199 53.82 91.9199 53.76C91.9199 53.64 94.4399 53.46 97.5599 53.28C100.68 53.1 103.2 53.04 103.2 53.1Z" fill="#455A64"/>
<path d="M100.38 55.9201C100.38 56.0401 98.9399 56.1601 97.1399 56.2801C95.3399 56.4001 93.8999 56.4001 93.8999 56.2801C93.8999 56.1601 95.3399 56.0401 97.1399 55.9201C98.9399 55.8001 100.38 55.8001 100.38 55.9201Z" fill="#455A64"/>
<path d="M88.1997 84.1201C88.1997 84.1201 88.3197 97.5601 88.9797 101.64L105.84 100.86C105.84 100.86 104.34 87.6601 104.94 84.1201H88.1997Z" fill="#E4FBFF"/>
<path d="M102.42 89.8201C102.42 89.9401 99.8997 90.1201 96.7797 90.3001C93.6597 90.4801 91.1396 90.5401 91.1396 90.4801C91.1396 90.3601 93.6597 90.1801 96.7797 90.0001C99.8997 89.7601 102.42 89.7001 102.42 89.8201Z" fill="#959595"/>
<path d="M102.42 92.6401C102.42 92.7601 99.8997 92.9401 96.7797 93.1201C93.6597 93.3001 91.1396 93.3601 91.1396 93.3001C91.1396 93.1801 93.6597 93.0001 96.7797 92.8201C99.8997 92.6401 102.42 92.5201 102.42 92.6401Z" fill="#959595"/>
<path d="M99.5396 95.4601C99.5396 95.5801 98.0996 95.7001 96.2996 95.8201C94.4996 95.9401 93.0596 95.9401 93.0596 95.8201C93.0596 95.7001 94.4996 95.5801 96.2996 95.4601C98.0996 95.3401 99.5396 95.3401 99.5396 95.4601Z" fill="#959595"/>
<path d="M134.28 48.1801L135.96 86.9401L184.32 87.5401L182.16 48.6601L134.28 48.1801Z" fill="#EBEBEB"/>
<path d="M181.8 47.8802H133.74V84.1802H181.8V47.8802Z" fill="#E4FBFF"/>
<path d="M181.8 84.1801C181.8 84.1801 181.8 83.9401 181.8 83.5201C181.8 83.1001 181.8 82.4401 181.8 81.6001C181.8 79.9201 181.8 77.4001 181.74 74.2801C181.74 67.9801 181.68 58.9201 181.68 47.9401L181.8 48.0601C168.24 48.0601 151.62 48.0601 133.74 48.0601L133.92 47.8801C133.92 60.9601 133.92 73.3201 133.92 84.1801L133.8 84.0601C148.02 84.1201 160.02 84.1201 168.48 84.1201C172.68 84.1201 176.04 84.1801 178.32 84.1801C179.46 84.1801 180.36 84.1801 180.96 84.1801C181.26 84.1801 181.5 84.1801 181.62 84.1801C181.68 84.1801 181.8 84.1801 181.8 84.1801C181.8 84.1801 181.74 84.1801 181.56 84.1801C181.38 84.1801 181.2 84.1801 180.9 84.1801C180.3 84.1801 179.46 84.1801 178.32 84.1801C176.04 84.1801 172.68 84.1801 168.48 84.2401C160.02 84.2401 147.96 84.3001 133.74 84.3001H133.62V84.1801C133.62 73.3201 133.62 60.9601 133.62 47.8801V47.7001H133.8C151.68 47.7001 168.3 47.7001 181.86 47.7001H181.98V47.8201C181.98 58.8001 181.92 67.9201 181.92 74.2201C181.92 77.3401 181.92 79.8601 181.86 81.5401C181.86 82.3801 181.86 82.9801 181.86 83.4601C181.8 84.0001 181.8 84.1801 181.8 84.1801Z" fill="#BFBFBF"/>
<path d="M159 55.5602H139.5V80.1002H159V55.5602Z" fill="#E4FBFF"/>
<path d="M159 80.1001C159 80.1001 159 80.0401 159 79.9801C159 79.8601 159 79.8001 159 79.6201C159 79.3201 159 78.8401 159 78.3001C159 77.1001 159 75.4201 158.94 73.2601C158.94 68.9401 158.88 62.8201 158.88 55.5601L159 55.6801C153.18 55.6801 146.52 55.6801 139.5 55.6801C139.44 55.7401 139.8 55.3801 139.68 55.5001V55.5601V55.8001V56.0401V56.4601V57.3001C139.68 57.8401 139.68 58.4401 139.68 58.9801C139.68 60.1201 139.68 61.2001 139.68 62.2801C139.68 64.4401 139.68 66.6001 139.68 68.6401C139.68 72.7801 139.68 76.6201 139.68 80.1001L139.56 79.9801C145.38 79.9801 150.24 80.0401 153.66 80.0401C155.34 80.0401 156.66 80.0401 157.62 80.1001C158.04 80.1001 158.4 80.1001 158.64 80.1001C158.88 80.1001 159 80.1001 159 80.1001C159 80.1001 158.88 80.1001 158.64 80.1001C158.4 80.1001 158.04 80.1001 157.62 80.1001C156.72 80.1001 155.4 80.1001 153.72 80.1601C150.3 80.1601 145.38 80.2201 139.5 80.2201H139.38V80.1001C139.38 76.6201 139.38 72.7201 139.38 68.6401C139.38 66.6001 139.38 64.4401 139.38 62.2801C139.38 61.2001 139.38 60.0601 139.38 58.9801C139.38 58.4401 139.38 57.8401 139.38 57.3001V56.4601V56.0401V55.8001V55.6801V55.6201C139.26 55.7401 139.56 55.4401 139.56 55.4401C146.58 55.4401 153.24 55.4401 159.06 55.4401H159.18V55.5601C159.12 62.8801 159.12 69.0001 159.12 73.3201C159.12 75.4801 159.06 77.1601 159.06 78.3001C159.06 78.8401 159.06 79.3201 159.06 79.6201C159.06 79.7401 159.06 79.8601 159.06 79.9801C159 80.1001 159 80.1001 159 80.1001Z" fill="#BFBFBF"/>
<path d="M177.6 49.9803H140.28V53.5203H177.6V49.9803Z" fill="#E4FBFF"/>
<path d="M177.6 53.5201C177.6 53.5201 177.6 53.4601 177.6 53.2801C177.6 53.1001 177.6 52.8601 177.6 52.6201C177.6 52.0201 177.6 51.1201 177.54 50.0401L177.6 50.1001C171.3 50.1601 156.96 50.2201 140.28 50.2201C140.58 49.8601 140.4 50.1001 140.46 50.0401V50.1001V50.2201V50.4001V50.8801C140.46 51.1801 140.46 51.4801 140.46 51.7801C140.46 52.3801 140.46 52.9801 140.46 53.5201L140.28 53.3401C150.72 53.3401 160.02 53.4001 166.74 53.4001C170.1 53.4001 172.8 53.4601 174.66 53.4601C175.56 53.4601 176.28 53.4601 176.82 53.4601C177.06 53.4601 177.24 53.4601 177.36 53.4601C177.54 53.5201 177.6 53.5201 177.6 53.5201C177.6 53.5201 177.54 53.5201 177.42 53.5201C177.3 53.5201 177.12 53.5201 176.88 53.5201C176.4 53.5201 175.68 53.5201 174.78 53.5201C172.92 53.5201 170.22 53.5201 166.86 53.5801C160.14 53.5801 150.78 53.6401 140.28 53.6401H140.1V53.4601C140.1 52.9201 140.1 52.3201 140.1 51.7201C140.1 51.4201 140.1 51.1201 140.1 50.8201V50.3401V50.1001V49.9801V49.9201C140.16 49.8601 139.92 50.1001 140.28 49.7401C156.96 49.7401 171.3 49.8001 177.6 49.8601H177.66V49.9201C177.66 51.0601 177.66 51.9601 177.6 52.5601C177.6 52.8601 177.6 53.0401 177.6 53.2201C177.6 53.4601 177.6 53.5201 177.6 53.5201Z" fill="#BFBFBF"/>
<path d="M177.6 55.5603H161.4V70.3203H177.6V55.5603Z" fill="#E4FBFF"/>
<path d="M177.6 70.3801C177.6 70.3801 177.6 70.2601 177.6 70.0801C177.6 69.9001 177.6 69.6001 177.6 69.3001C177.6 68.5801 177.6 67.5601 177.54 66.3001C177.54 63.7201 177.48 60.0001 177.48 55.6201L177.6 55.7401C172.92 55.7401 167.34 55.7401 161.4 55.7401C161.34 55.8001 161.7 55.4401 161.58 55.5601V55.6201V55.6801V55.8001V56.0401V56.5201C161.58 56.8801 161.58 57.1801 161.58 57.5401C161.58 58.2001 161.58 58.8601 161.58 59.5201C161.58 60.8401 161.58 62.1001 161.58 63.3601C161.58 65.8201 161.58 68.1601 161.58 70.3801L161.4 70.2001C166.2 70.2601 170.22 70.2601 173.1 70.2601C174.48 70.2601 175.62 70.2601 176.4 70.3201C176.76 70.3201 177.06 70.3201 177.3 70.3201C177.48 70.3801 177.6 70.3801 177.6 70.3801C177.6 70.3801 177.48 70.3801 177.3 70.3801C177.06 70.3801 176.82 70.3801 176.46 70.3801C175.68 70.3801 174.54 70.3801 173.16 70.4401C170.28 70.4401 166.2 70.5001 161.34 70.5001H161.22V70.3801C161.22 68.2201 161.22 65.8801 161.22 63.3601C161.22 62.1001 161.22 60.8401 161.22 59.5201C161.22 58.8601 161.22 58.2001 161.22 57.5401C161.22 57.1801 161.22 56.8801 161.22 56.5201V56.0401V55.8001V55.6801V55.6201V55.5601C161.1 55.6801 161.4 55.3801 161.4 55.3801C167.34 55.3801 172.92 55.3801 177.6 55.3801H177.72V55.5001C177.72 59.9401 177.66 63.6601 177.66 66.2401C177.66 67.5001 177.66 68.5201 177.6 69.2401C177.6 69.5401 177.6 69.8401 177.6 70.0201C177.6 70.2601 177.6 70.3801 177.6 70.3801Z" fill="#BFBFBF"/>
<path d="M177.6 72.6603H161.4V80.1003H177.6V72.6603Z" fill="#E4FBFF"/>
<path d="M177.6 80.1001C177.6 80.1001 177.6 79.9201 177.6 79.5601C177.6 79.2001 177.6 78.7201 177.6 78.0601C177.6 76.7401 177.54 74.9401 177.54 72.6601L177.66 72.7801C173.46 72.7801 167.7 72.7801 161.46 72.8401C161.34 72.9601 161.64 72.6601 161.64 72.6601V72.7201V72.7801V72.9001V73.1401V73.6201C161.64 73.9201 161.64 74.2801 161.64 74.5801C161.64 75.2401 161.64 75.8401 161.64 76.5001C161.64 77.7601 161.64 78.9601 161.64 80.1001L161.46 79.9201C166.14 79.9801 170.16 79.9801 173.04 79.9801C174.48 79.9801 175.62 80.0401 176.4 80.0401C176.76 80.0401 177.06 80.0401 177.3 80.0401C177.48 80.1001 177.6 80.1001 177.6 80.1001C177.6 80.1001 177.48 80.1001 177.3 80.1001C177.06 80.1001 176.76 80.1001 176.4 80.1001C175.56 80.1001 174.48 80.1001 173.04 80.1601C170.1 80.1601 166.08 80.2201 161.34 80.2201H161.16V80.0401C161.16 78.9001 161.16 77.7001 161.16 76.4401C161.16 75.8401 161.16 75.1801 161.16 74.5201C161.16 74.2201 161.16 73.8601 161.16 73.5601V73.0801V72.8401V72.7201V72.6601V72.6001C161.1 72.6601 161.46 72.3001 161.34 72.4201C167.64 72.4201 173.34 72.4801 177.54 72.4801H177.66V72.6001C177.66 74.8801 177.6 76.7401 177.6 78.0601C177.6 78.6601 177.6 79.1401 177.54 79.5001C177.6 79.9201 177.6 80.1001 177.6 80.1001Z" fill="#BFBFBF"/>
<path d="M158.52 55.6201C152.46 63.9601 145.56 71.7601 139.5 80.1001L158.52 55.6201Z" fill="#C0A7A7"/>
<path d="M139.5 80.1C139.5 80.1 139.56 79.9801 139.68 79.8001C139.8 79.6201 139.98 79.3801 140.16 79.0801C140.58 78.4201 141.3 77.5201 142.14 76.3801C143.82 74.1001 146.22 71.1001 148.92 67.7401C151.62 64.3801 154.02 61.3801 155.76 59.1601C156.6 58.0801 157.26 57.1801 157.8 56.5201C158.04 56.2201 158.22 55.9801 158.34 55.8001C158.46 55.6201 158.52 55.5601 158.58 55.5601C158.58 55.5601 158.52 55.6801 158.4 55.8601C158.28 56.0401 158.1 56.2801 157.92 56.5801C157.5 57.2401 156.78 58.1401 155.94 59.2801C154.26 61.5601 151.86 64.5601 149.16 67.9201C146.46 71.2801 144.06 74.2801 142.32 76.5001C141.48 77.5801 140.82 78.48 140.28 79.14C140.04 79.44 139.86 79.6801 139.74 79.8601C139.62 80.0401 139.56 80.1 139.5 80.1Z" fill="#BFBFBF"/>
<path d="M159 80.1001C158.94 80.1601 154.5 74.7001 149.1 67.9201C143.7 61.1401 139.44 55.6201 139.5 55.5601C139.56 55.5001 144 60.9601 149.4 67.7401C154.8 74.5201 159.06 80.0401 159 80.1001Z" fill="#BFBFBF"/>
<path d="M135.96 55.6201C135.96 57.3001 134.58 58.6801 132.9 58.6801C131.22 58.6801 129.84 57.3001 129.84 55.6201C129.84 53.9401 131.22 52.5601 132.9 52.5601C134.58 52.5601 135.96 53.9401 135.96 55.6201Z" fill="#E0E0E0"/>
<path d="M185.82 48.2401C185.82 49.9201 184.44 51.3001 182.76 51.3001C181.08 51.3001 179.7 49.9201 179.7 48.2401C179.7 46.5601 181.08 45.1801 182.76 45.1801C184.44 45.1801 185.82 46.5601 185.82 48.2401Z" fill="#E0E0E0"/>
<path d="M274.26 259.62C274.26 259.86 274.26 273.3 274.26 273.3H271.98V274.8H274.26V283.92H316.92V275.58H313.74V273.78H316.92V271.08H318.3V269.82H316.62V259.62H274.26Z" fill="#739AF0"/>
<path d="M305.58 259.62V283.74H316.92V275.4H313.74V273.78L316.92 273.84V271.08H318.36L318.3 269.7L316.62 269.64V259.62H305.58Z" fill="#5586E4"/>
<path d="M306.36 274.56C306.36 274.62 298.62 274.74 289.14 274.74C279.6 274.74 271.92 274.68 271.92 274.56C271.92 274.5 279.66 274.38 289.14 274.38C298.68 274.38 306.36 274.44 306.36 274.56Z" fill="#5586E4"/>
<path d="M306.36 273.18C306.36 273.24 298.62 273.36 289.14 273.36C279.6 273.36 271.92 273.3 271.92 273.18C271.92 273.12 279.66 273 289.14 273C298.68 273 306.36 273.06 306.36 273.18Z" fill="#5586E4"/>
<path d="M308.58 269.4C308.58 269.46 300.84 269.58 291.36 269.58C281.82 269.58 274.14 269.52 274.14 269.4C274.14 269.34 281.88 269.22 291.36 269.22C300.9 269.28 308.58 269.34 308.58 269.4Z" fill="#5586E4"/>
<path d="M308.82 279.6C308.82 279.66 301.08 279.78 291.6 279.78C282.06 279.78 274.38 279.72 274.38 279.6C274.38 279.54 282.12 279.42 291.6 279.42C301.08 279.48 308.82 279.54 308.82 279.6Z" fill="#5586E4"/>
<path d="M145.5 216.24H178.02C180.3 216.24 182.16 214.38 182.16 212.1V202.08C182.16 198.24 179.04 195.12 175.2 195.12H145.26L145.5 216.24Z" fill="#445465"/>
<path d="M177.48 222.54H113.52C111.78 222.54 110.34 221.1 110.34 219.36C110.34 217.62 111.78 216.18 113.52 216.18H177.48C179.22 216.18 180.66 217.62 180.66 219.36C180.66 221.16 179.22 222.54 177.48 222.54Z" fill="#445465"/>
<path d="M100.5 132.24L135.66 131.64L157.98 216.06L110.4 216.54L92.4003 142.56C91.1403 137.28 95.1003 132.24 100.5 132.24Z" fill="#6B7683"/>
<path d="M118.02 222.54L107.52 283.74H110.4L124.2 222.54H118.02Z" fill="#445465"/>
<path d="M142.86 222.54L131.64 283.74H134.52L149.04 222.54H142.86Z" fill="#445465"/>
<path d="M170.28 222.54L182.76 283.74H179.88L164.1 222.54H170.28Z" fill="#445465"/>
<path d="M131.64 131.64L149.04 216.18H162.42L148.44 141.48C147.36 135.78 142.44 131.64 136.62 131.64H131.64Z" fill="#6B7683"/>
<path d="M327.96 284.1C327.96 284.16 272.46 284.28 204 284.28C135.54 284.28 80.04 284.22 80.04 284.1C80.04 284.04 135.54 283.92 204 283.92C272.46 283.92 327.96 283.98 327.96 284.1Z" fill="#263238"/>
<path d="M170.7 284.22H124.86L128.34 250.86L170.7 250.56V284.22Z" fill="#5586E4"/>
<g opacity="0.4">
<path d="M170.7 284.22H124.86L128.34 250.86L170.7 250.56V284.22Z" fill="#5586E4"/>
</g>
<path d="M177.42 250.56H131.52V284.22H177.42V250.56Z" fill="#739AF0"/>
<g opacity="0.2">
<path d="M177.42 250.56H131.52V284.22H177.42V250.56Z" fill="#739AF0"/>
</g>
<path d="M177.78 266.88C177.78 266.94 167.46 267.06 154.74 267.06C142.02 267.06 131.7 267 131.7 266.88C131.7 266.82 142.02 266.7 154.74 266.7C167.46 266.7 177.78 266.82 177.78 266.88Z" fill="#263238"/>
<path d="M139.68 270.12C139.62 270.12 139.5 268.98 139.5 267.6C139.5 266.22 139.56 265.08 139.68 265.08C139.74 265.08 139.86 266.22 139.86 267.6C139.86 268.98 139.8 270.12 139.68 270.12Z" fill="#263238"/>
<path d="M171.6 269.94C171.54 269.94 171.42 268.92 171.42 267.66C171.42 266.4 171.48 265.38 171.6 265.38C171.66 265.38 171.78 266.4 171.78 267.66C171.72 268.92 171.66 269.94 171.6 269.94Z" fill="#263238"/>
<path d="M161.52 250.74C161.46 250.74 161.52 250.38 161.4 249.72C161.28 249.12 161.04 248.16 160.38 247.26C159.72 246.3 158.7 245.34 157.32 244.74C155.94 244.08 154.26 243.78 152.52 243.84C150.78 243.9 149.1 244.26 147.72 244.92C146.34 245.58 145.32 246.54 144.66 247.44C144 248.4 143.7 249.24 143.52 249.9C143.4 250.5 143.4 250.86 143.34 250.86C143.34 250.86 143.34 250.74 143.34 250.62C143.34 250.44 143.34 250.2 143.4 249.9C143.52 249.24 143.82 248.34 144.48 247.32C145.14 246.36 146.22 245.34 147.6 244.68C148.98 243.96 150.72 243.6 152.52 243.54C154.32 243.48 156.06 243.84 157.44 244.5C158.88 245.16 159.9 246.18 160.56 247.2C161.22 248.22 161.46 249.12 161.52 249.78C161.58 250.08 161.58 250.38 161.52 250.56C161.52 250.68 161.52 250.74 161.52 250.74Z" fill="#263238"/>
<path d="M144.3 120.72C146.46 119.64 148.98 119.46 151.32 119.88C152.58 120.12 153.9 120.48 154.8 121.44C155.64 122.4 155.82 124.08 154.86 124.92C154.26 125.4 153.42 125.46 152.64 125.46C150.78 125.46 148.74 125.1 147.24 126.24C146.4 126.9 145.8 127.92 144.84 128.28C143.82 128.58 142.74 127.98 142.2 127.08C141.66 126.18 141.66 125.04 141.9 124.08C141.9 124.02 142.14 121.86 144.3 120.72Z" fill="#74C1C7"/>
<path d="M139.38 111.24C140.7 113.1 143.22 112.5 144.42 111.36C145.62 110.22 146.1 108.54 146.58 106.98C147.6 103.38 148.68 99.6 147.9 95.94C147.66 94.86 147.24 93.78 146.46 92.94C145.68 92.1 144.48 91.62 143.4 91.92C142.14 92.28 141.3 93.54 140.76 94.68C139.08 98.22 138.18 102.06 138.18 105.96C138.12 107.82 138.36 109.74 139.38 111.24Z" fill="#74C1C7"/>
<path d="M135.78 113.94C137.22 112.26 137.46 109.8 136.86 107.7C136.2 105.6 134.82 103.8 133.14 102.3C131.22 100.56 128.94 99.24 126.48 98.4C125.52 98.04 124.5 97.8 123.48 97.92C122.46 98.04 121.44 98.52 120.96 99.42C120.24 100.74 120.96 102.36 121.68 103.68C122.94 106.02 124.44 108.24 126.06 110.34C127.38 112.02 128.88 113.7 130.86 114.42C132.84 115.2 134.94 115.08 135.96 113.7" fill="#74C1C7"/>
<path d="M139.32 139.44C139.32 139.44 139.38 139.14 139.44 138.6C139.5 138 139.56 137.22 139.68 136.26C139.8 135.3 139.92 134.1 140.22 132.84C140.46 131.58 140.94 130.2 141.48 128.82C142.02 127.44 142.74 126.18 143.52 125.22C144.3 124.2 145.26 123.48 146.1 123.06C146.94 122.64 147.72 122.46 148.26 122.4C148.8 122.34 149.1 122.28 149.1 122.28C149.1 122.28 148.8 122.28 148.26 122.28C147.72 122.34 146.88 122.46 145.98 122.88C145.08 123.3 144.06 124.02 143.22 125.04C142.38 126.06 141.66 127.32 141.12 128.76C140.58 130.14 140.16 131.52 139.92 132.84C139.68 134.1 139.56 135.3 139.44 136.26C139.38 137.22 139.32 138.06 139.32 138.6C139.26 139.14 139.26 139.44 139.32 139.44Z" fill="#263238"/>
<path d="M139.44 137.64C139.44 137.64 139.44 137.52 139.44 137.22C139.44 136.92 139.44 136.56 139.44 136.08C139.44 135.12 139.44 133.68 139.5 131.94C139.56 128.46 139.86 124.68 140.46 119.4C141 114.42 141.72 108.6 142.5 104.82C142.68 103.98 142.86 103.2 142.98 102.54C143.16 101.88 143.28 101.28 143.4 100.8C143.52 100.38 143.58 100.02 143.64 99.72C143.7 99.48 143.7 99.36 143.7 99.36C143.7 99.36 143.64 99.48 143.58 99.72C143.52 100.02 143.4 100.38 143.28 100.8C143.16 101.28 142.98 101.82 142.8 102.54C142.62 103.2 142.44 103.98 142.26 104.82C141.48 108.24 140.7 113.04 140.1 118.32C139.5 123.66 139.26 128.46 139.26 132C139.26 133.74 139.26 135.18 139.32 136.14C139.32 136.62 139.38 136.98 139.38 137.28C139.44 137.52 139.44 137.64 139.44 137.64Z" fill="#263238"/>
<path d="M139.5 128.34C139.5 128.34 139.5 127.92 139.5 127.14C139.44 126.36 139.38 125.28 139.14 123.96C138.9 122.64 138.6 121.02 138.12 119.34C137.88 118.56 137.4 116.64 136.2 113.82C134.58 109.98 132.42 106.86 130.5 104.94C130.08 104.4 129.54 104.04 129.18 103.68C129 103.5 128.82 103.32 128.58 103.2C128.4 103.08 128.22 102.96 128.04 102.84C127.44 102.42 127.08 102.18 127.02 102.18C126.96 102.24 128.4 103.14 130.26 105.06C132.12 107.04 134.22 110.1 135.84 113.88C136.74 115.92 137.34 117.78 137.82 119.34C138.3 121.02 138.66 122.64 138.9 123.96C139.14 125.28 139.26 126.36 139.38 127.14C139.38 127.92 139.44 128.34 139.5 128.34Z" fill="#263238"/>
<path d="M130.44 144.78L131.4 157.56H147.84L148.8 144.78H130.44Z" fill="#263238"/>
<path d="M150.78 139.74H128.88V144.78H150.78V139.74Z" fill="#263238"/>
<path d="M128.88 157.08V158.52H129.9H150.36V157.08H128.88Z" fill="#455A64"/>
<path d="M130.92 160.98L129.9 158.52H149.58L148.44 160.98H130.92Z" fill="#455A64"/>
<path d="M148.5 148.98C148.5 148.98 148.5 149.04 148.44 149.1C148.38 149.16 148.32 149.28 148.2 149.4C147.96 149.7 147.66 150.12 147.24 150.6L147.18 150.66L147.12 150.6C146.52 149.76 145.74 148.68 144.78 147.36H144.9C144.18 148.38 143.4 149.46 142.56 150.66L142.5 150.78L142.44 150.66C141.6 149.64 140.64 148.56 139.68 147.36H139.86C139.8 147.42 139.74 147.48 139.68 147.54C138.84 148.62 138 149.64 137.22 150.6L137.16 150.72L137.1 150.6C136.26 149.4 135.48 148.32 134.76 147.3H134.88C133.74 148.62 132.78 149.7 132 150.54L131.94 150.6L131.88 150.54C131.52 149.88 131.22 149.4 130.98 149.04C130.86 148.86 130.8 148.74 130.74 148.62C130.68 148.5 130.68 148.5 130.68 148.5C130.68 148.5 130.74 148.56 130.8 148.62C130.86 148.74 130.98 148.86 131.04 148.98C131.28 149.34 131.58 149.82 132 150.48H131.94C132.66 149.64 133.62 148.5 134.76 147.18L134.82 147.12L134.88 147.18C135.6 148.2 136.38 149.28 137.22 150.42H137.04C137.82 149.46 138.66 148.38 139.5 147.36C139.56 147.3 139.62 147.24 139.68 147.18L139.74 147.06L139.8 147.18C140.76 148.32 141.66 149.46 142.56 150.48H142.38C143.22 149.28 144 148.2 144.72 147.24L144.78 147.12L144.84 147.24C145.74 148.56 146.58 149.7 147.12 150.54H147.06C147.48 150.06 147.84 149.64 148.08 149.34C148.2 149.22 148.26 149.1 148.32 149.04C148.44 148.98 148.5 148.98 148.5 148.98Z" fill="#E0E0E0"/>
<path d="M149.04 144.72C149.04 144.78 144.9 144.84 139.86 144.84C134.76 144.84 130.68 144.78 130.68 144.72C130.68 144.66 134.82 144.6 139.86 144.6C144.9 144.6 149.04 144.66 149.04 144.72Z" fill="#455A64"/>
<path d="M149.82 158.64C149.82 158.7 145.32 158.76 139.8 158.76C134.28 158.76 129.78 158.7 129.78 158.64C129.78 158.58 134.28 158.52 139.8 158.52C145.38 158.52 149.82 158.58 149.82 158.64Z" fill="#263238"/>
<path d="M234.947 161.27H283.127V158.93H234.947V161.27Z" fill="#263238"/>
<path d="M290.58 161.22L299.64 127.38H262.02L253.86 161.22H290.58Z" fill="#263238"/>
<path d="M256.08 158.7H289.68L297.48 128.94H263.76L256.08 158.7Z" fill="#455A64"/>
<path d="M289.92 159H255.72L263.52 128.7H297.9L289.92 159ZM256.5 158.4H289.5L297.18 129.3H264.06L256.5 158.4Z" fill="#263238"/>
<path d="M138.18 167.82H135.72V283.98H138.18V167.82Z" fill="#455A64"/>
<path d="M140.58 168.18H138.12V283.98H140.58V168.18Z" fill="#263238"/>
<path d="M288 167.82H285.54V283.98H288V167.82Z" fill="#455A64"/>
<path d="M290.46 168.18H288V283.98H290.46V168.18Z" fill="#263238"/>
<path d="M324.36 161.1H107.52V170.64H324.36V161.1Z" fill="#455A64"/>
<path d="M286.8 170.58H205.44V186.36H286.8V170.58Z" fill="#455A64"/>
<path d="M249.72 177.42C249.72 178.44 248.88 179.22 247.92 179.22C246.9 179.22 246.12 178.38 246.12 177.42C246.12 176.4 246.96 175.62 247.92 175.62C248.94 175.56 249.72 176.4 249.72 177.42Z" fill="#263238"/>
<path d="M304.5 170.58C304.5 170.64 276.3 170.76 241.56 170.76C206.82 170.76 178.62 170.7 178.62 170.58C178.62 170.52 206.82 170.4 241.56 170.4C276.3 170.46 304.5 170.52 304.5 170.58Z" fill="#263238"/>
<path d="M229.44 58.5C229.74 58.5 234.18 59.22 234.18 59.22L240.12 66.72L241.02 68.16L233.04 73.26L229.5 68.04L226.5 66.12C226.5 66.12 227.82 64.98 229.68 65.82C231.54 66.66 233.4 66.54 233.4 66.54L232.32 63.54L229.08 62.88L229.44 58.5Z" fill="#F5C9B2"/>
<path d="M229.8 53.28C230.34 53.16 230.88 53.52 230.94 54.06C231.42 57.12 232.92 66.36 233.34 69.06C233.4 69.48 233.16 69.96 232.68 70.08L225.6 72.06C225.06 72.18 224.58 71.88 224.52 71.34L222.6 55.92C222.54 55.44 222.84 55.02 223.32 54.9L229.8 53.28Z" fill="#263238"/>
<path d="M225.06 70.08L232.26 68.1L230.34 55.38C230.22 54.66 229.5 54.18 228.78 54.36L223.02 55.92L225.06 70.08Z" fill="#EBEBEB"/>
<path d="M232.14 60.78L228.9 63.24C228.9 63.24 229.14 64.08 229.68 64.14C230.22 64.2 232.8 63.48 232.8 63.48L232.14 60.78Z" fill="#F5C9B2"/>
<path d="M231.72 58.86L228.36 60.36C228.36 60.36 228.12 61.44 229.38 61.32L228.24 62.16C228.24 62.16 228.54 62.64 229.92 62.7C231.36 62.76 232.74 60.78 232.74 60.78L231.72 58.86Z" fill="#F5C9B2"/>
<path d="M235.08 62.64C235.08 62.7 234.66 62.58 234.24 62.16C234 61.98 233.76 61.68 233.46 61.5C233.16 61.32 232.8 61.2 232.38 61.38C230.82 62.16 229.5 62.88 229.44 62.76C229.44 62.7 230.64 61.92 232.26 61.08C232.5 61.02 232.74 60.96 232.98 61.02C233.22 61.08 233.4 61.2 233.58 61.32C233.94 61.56 234.12 61.86 234.36 62.04C234.78 62.46 235.08 62.58 235.08 62.64Z" fill="#D1734A"/>
<path d="M234.42 71.04C234.36 71.1 233.52 70.08 233.4 68.58C233.22 67.02 233.82 65.88 233.88 65.94C234 65.94 233.52 67.08 233.7 68.52C233.82 70.02 234.48 71.04 234.42 71.04Z" fill="#D1734A"/>
<path d="M234 60.3599C233.94 60.4199 233.76 60.1199 233.34 59.9999C232.92 59.8199 232.26 59.8799 231.6 60.1799C230.94 60.4799 230.4 60.8999 229.92 61.0799C229.44 61.2599 229.14 61.3199 229.14 61.2599C229.14 61.1999 229.38 61.1399 229.8 60.8999C230.22 60.6599 230.76 60.2399 231.42 59.9399C231.78 59.7599 232.14 59.6999 232.44 59.6399C232.8 59.6399 233.1 59.6999 233.34 59.8199C233.88 59.9999 234 60.3599 234 60.3599Z" fill="#D1734A"/>
<path d="M233.7 81.6L251.34 92.94L246.66 106.32C246.66 106.32 234.6 102.6 234.84 102.18C235.08 101.76 233.7 81.6 233.7 81.6Z" fill="#FFA412"/>
<path d="M229.14 262.56L226.38 275.34C226.38 275.34 238.44 282.42 238.14 284.88L213.18 280.38L216.66 260.28L229.14 262.56Z" fill="#263238"/>
<path d="M213.18 280.38L213.6 278.34L237.36 283.38C237.36 283.38 238.38 284.04 238.14 284.82L213.18 280.38Z" fill="#455A64"/>
<path d="M200.76 263.94L200.34 277.02C200.34 277.02 213.48 281.82 213.66 284.22L188.28 284.34L188.1 263.94H200.76Z" fill="#263238"/>
<g opacity="0.6">
<g opacity="0.6">
<g opacity="0.6">
<g opacity="0.6">
<path opacity="0.6" d="M188.28 284.34L188.34 282.3L212.64 282.96C212.64 282.96 213.78 283.44 213.66 284.22L188.28 284.34Z" fill="#455A64"/>
</g>
</g>
</g>
</g>
<path d="M204.42 49.7401L207 79.7401L222 78.5401C222.12 76.8001 221.94 70.0201 221.94 70.0201C221.94 70.0201 228.18 69.0601 228.24 62.8201C228.3 59.7601 227.82 53.5201 227.4 47.8801C226.92 41.6401 221.46 36.9001 215.22 37.2601C208.8 37.5601 203.88 43.2601 204.42 49.7401Z" fill="#F5C9B2"/>
<path d="M222 69.8401C222 69.8401 218.04 70.1401 213.84 67.5001C213.84 67.5001 215.76 72.0001 222 71.4601V69.8401Z" fill="#D1734A"/>
<path d="M225.06 52.2001C225.06 52.6801 224.7 53.1001 224.22 53.1001C223.74 53.1001 223.32 52.7401 223.32 52.3201C223.32 51.8401 223.68 51.4201 224.16 51.4201C224.64 51.3601 225.06 51.7201 225.06 52.2001Z" fill="#263238"/>
<path d="M226.14 50.94C226.02 51.06 225.36 50.58 224.4 50.58C223.44 50.58 222.72 51.06 222.66 50.94C222.6 50.88 222.72 50.7 223.02 50.46C223.32 50.22 223.86 50.04 224.46 50.04C225.06 50.04 225.54 50.28 225.84 50.46C226.08 50.7 226.2 50.88 226.14 50.94Z" fill="#263238"/>
<path d="M215.82 52.2C215.82 52.68 215.46 53.1 214.98 53.1C214.5 53.1 214.08 52.74 214.08 52.32C214.08 51.9 214.44 51.42 214.92 51.42C215.4 51.36 215.82 51.72 215.82 52.2Z" fill="#263238"/>
<path d="M216.72 51.1202C216.6 51.2402 215.94 50.7602 214.98 50.7602C214.02 50.7602 213.3 51.2402 213.24 51.1202C213.18 51.0602 213.3 50.8802 213.6 50.6402C213.9 50.4002 214.44 50.2202 215.04 50.2202C215.64 50.2202 216.12 50.4602 216.42 50.6402C216.66 50.8802 216.78 51.0602 216.72 51.1202Z" fill="#263238"/>
<path d="M220.2 58.26C220.2 58.2 220.8 58.08 221.76 57.96C222 57.96 222.24 57.9 222.3 57.72C222.36 57.54 222.24 57.3 222.12 57C221.88 56.4 221.64 55.8 221.4 55.14C220.38 52.5 219.66 50.28 219.78 50.28C219.9 50.22 220.8 52.38 221.82 55.02C222.06 55.68 222.3 56.28 222.54 56.88C222.66 57.18 222.78 57.48 222.66 57.84C222.6 58.02 222.42 58.14 222.24 58.2C222.06 58.26 221.94 58.26 221.82 58.26C220.8 58.26 220.2 58.32 220.2 58.26Z" fill="#263238"/>
<path d="M217.38 58.92C217.56 58.92 217.56 59.94 218.4 60.72C219.3 61.44 220.38 61.32 220.38 61.5001C220.38 61.5601 220.14 61.6801 219.66 61.7401C219.18 61.7401 218.52 61.6201 217.98 61.1401C217.44 60.66 217.2 60.06 217.14 59.64C217.2 59.16 217.32 58.92 217.38 58.92Z" fill="#263238"/>
<path d="M216.96 47.34C216.84 47.58 215.88 47.46 214.8 47.64C213.66 47.76 212.76 48.06 212.64 47.82C212.58 47.7 212.76 47.46 213.12 47.22C213.48 46.98 214.08 46.74 214.74 46.68C215.4 46.62 216.06 46.74 216.42 46.86C216.78 47.04 217.02 47.22 216.96 47.34Z" fill="#263238"/>
<path d="M225.78 48.18C225.6 48.42 224.94 48.18 224.16 48.18C223.38 48.12 222.72 48.3 222.54 48.12C222.48 48 222.6 47.82 222.9 47.58C223.2 47.4 223.68 47.22 224.22 47.22C224.76 47.22 225.24 47.46 225.54 47.64C225.78 47.82 225.84 48.06 225.78 48.18Z" fill="#263238"/>
<path d="M211.2 42.84C211.2 42.9 211.2 42.9 211.2 42.84C210.18 43.68 209.52 44.76 209.34 46.02C209.34 46.08 209.34 46.08 209.34 46.14C209.1 47.94 209.16 49.74 208.86 51.54C208.62 53.34 207.96 55.14 206.64 56.34C206.1 56.82 205.14 57.18 204.72 56.58C204.54 56.34 204.54 56.04 204.48 55.74C204.12 51.42 202.98 47.64 202.98 43.14C202.98 41.94 203.58 40.74 204.54 40.08C205.5 39.42 206.64 38.7 207.66 39.18C208.68 39.66 210.06 41.64 210.9 42.48" fill="#263238"/>
<path d="M206.52 52.56C206.4 52.5 202.2 51.3 202.38 55.56C202.5 59.82 206.76 58.8 206.76 58.68C206.82 58.56 206.52 52.56 206.52 52.56Z" fill="#F5C9B2"/>
<path d="M205.44 57.12C205.44 57.12 205.38 57.18 205.26 57.24C205.14 57.3 204.9 57.36 204.72 57.24C204.24 57.06 203.88 56.4 203.82 55.62C203.82 55.26 203.88 54.84 204 54.54C204.12 54.24 204.3 54 204.54 53.94C204.78 53.88 204.9 54 204.96 54.12C205.02 54.24 205.02 54.3 205.02 54.36C205.02 54.36 205.08 54.3 205.08 54.12C205.08 54.06 205.02 53.94 204.9 53.88C204.78 53.82 204.66 53.76 204.48 53.76C204.18 53.82 203.88 54.12 203.7 54.42C203.52 54.78 203.46 55.2 203.46 55.62C203.52 56.46 204 57.3 204.6 57.42C204.9 57.48 205.14 57.42 205.26 57.3C205.44 57.18 205.44 57.12 205.44 57.12Z" fill="#D1734A"/>
<path d="M207.6 39.9C206.52 38.22 209.4 35.76 211.56 35.1C213.66 34.44 216.42 35.46 218.52 36.18C219.84 36.6 221.16 37.26 222.54 37.2C223.5 37.14 224.34 36.84 225.24 36.54C226.14 36.24 227.04 35.94 228 36C228.96 36.06 229.92 36.54 230.22 37.44C230.58 38.28 230.04 39.48 229.14 39.6C230.34 38.94 232.02 39.78 232.2 41.16C232.38 42.48 231 43.8 229.68 43.5C230.28 43.02 231.24 43.8 231.12 44.58C231.06 45.36 230.34 45.9 229.68 46.2C227.88 46.98 225.84 46.74 223.98 46.14C222.12 45.54 220.44 44.58 218.58 43.86C216.78 43.2 213.72 42 211.86 42.66C210.48 43.14 209.58 44.76 208.8 44.4C208.08 44.04 207.6 43.26 207.42 42.48C207.36 41.52 207.48 40.74 207.6 39.9Z" fill="#263238"/>
<path d="M229.68 39.42C229.62 39.42 229.44 39.72 229.02 40.26C228.54 40.74 227.76 41.4 226.62 41.76C225.48 42.18 223.98 42.3 222.54 41.58C221.1 40.92 219.84 39.6 218.4 38.4C216.96 37.14 215.28 36.24 213.6 36.12C211.92 35.94 210.36 36.6 209.52 37.56C208.68 38.52 208.5 39.66 208.56 40.32C208.62 40.68 208.68 40.92 208.74 41.1C208.8 41.28 208.86 41.34 208.86 41.34C208.92 41.34 208.74 40.98 208.68 40.32C208.68 39.66 208.86 38.64 209.7 37.8C210.54 36.96 211.98 36.42 213.54 36.54C215.1 36.72 216.72 37.56 218.1 38.76C219.48 39.96 220.8 41.28 222.36 42C223.92 42.72 225.54 42.54 226.68 42.12C227.88 41.64 228.66 40.98 229.08 40.44C229.32 40.14 229.44 39.96 229.5 39.78C229.62 39.48 229.68 39.42 229.68 39.42Z" fill="#455A64"/>
<path d="M205.44 52.38C205.44 52.38 205.62 52.26 205.8 51.9C205.98 51.54 206.1 51 206.04 50.34C205.92 48.96 204.72 47.46 204.6 45.6C204.48 44.64 204.66 43.74 205.08 43.08C205.5 42.36 206.1 41.94 206.64 41.7C207.18 41.46 207.72 41.46 208.08 41.52C208.44 41.58 208.62 41.64 208.62 41.64C208.62 41.64 208.44 41.46 208.14 41.4C207.78 41.28 207.24 41.28 206.58 41.46C205.92 41.7 205.26 42.12 204.78 42.9C204.3 43.68 204.12 44.7 204.24 45.66C204.3 46.68 204.72 47.58 205.08 48.36C205.44 49.14 205.74 49.8 205.86 50.4C205.92 51.66 205.38 52.32 205.44 52.38Z" fill="#455A64"/>
<path d="M230.52 273.48C230.52 273.48 243.54 209.7 243.54 208.44L220.32 196.2L211.32 271.02L230.52 273.48Z" fill="#6F7B88"/>
<path d="M201.3 275.64L219.24 165.12V141.3L193.26 143.16C192.96 144.06 186.42 275.82 186.42 275.82L188.94 275.7H201.3" fill="#6F7B88"/>
<path d="M233.34 139.56L243.54 208.44L220.8 202.92L211.5 141.84L233.34 139.56Z" fill="#6F7B88"/>
<path d="M237.3 169.26C237.3 169.26 241.26 165.84 241.62 163.32C242.04 160.74 236.88 119.52 236.88 119.52L234.24 85.44C234.24 86.04 234.3 81.12 233.52 80.82C231.12 79.92 226.2 78.3 226.2 78.3L223.38 75.78C223.38 75.78 228.42 97.44 229.44 103.32L237.3 169.26Z" fill="#FFA412"/>
<path d="M204.78 73.38L200.52 76.2L184.56 82.5L191.64 109.26L190.68 124.8L189.78 134.64C189.78 134.64 185.04 159.06 180.84 173.94C180.84 173.94 185.52 182.82 189.36 184.08L190.98 185.04L196.68 143.22L201.6 136.62C202.08 135.96 202.5 135.36 202.92 134.64C204.12 132.66 206.88 128.22 209.04 124.8C211.92 120.24 215.64 109.92 214.56 105.54C213.42 101.04 204.78 73.38 204.78 73.38Z" fill="#FFA412"/>
<path d="M193.92 165.66C197.64 162.66 200.76 158.88 203.04 154.68L193.92 165.66Z" fill="#263238"/>
<path d="M204.78 73.38L208.62 98.0399C208.56 100.56 208.08 104.04 207.06 107.34L200.22 129.54C200.22 129.54 194.82 141.66 196.68 143.16C198.54 144.72 213.06 143.16 213.06 143.16L232.68 140.28C233.58 140.16 234.24 139.32 234.12 138.42L231.18 108.3C230.22 106.2 229.8 101.94 229.38 100.44L223.32 75.66L222.06 75.48L219.36 77.3399L217.92 77.46L206.04 71.7L204.78 73.38Z" fill="#EBEBEB"/>
<path d="M201.18 126.3C204.36 116.4 208.44 100.32 208.44 100.32C209.7 108.72 208.32 117.36 205.2 125.22C202.62 131.7 199.56 136.56 197.4 143.16L197.34 143.46C197.34 143.46 196.14 143.52 196.2 141.78C196.26 140.04 198 134.76 199.14 131.82C200.28 128.88 201.18 126.3 201.18 126.3Z" fill="#E0E0E0"/>
<path d="M220.14 79.5H217.5L216.66 83.16L219 85.98L221.34 85.74L222.12 83.1L221.52 81.66L220.14 79.5Z" fill="#E27F2B"/>
<path d="M235.74 100.86C236.58 101.04 245.88 107.28 249.24 106.62C252.6 105.96 255.36 102.78 255.72 102.36C257.64 100.08 256.44 95.4 255.9 93.6C255.78 93.18 255.6 92.76 255.36 92.34L241.02 67.74L232.56 72.84L241.32 88.8L235.74 100.86Z" fill="#FFA412"/>
<path d="M166.62 130.56C165.48 127.62 165.72 124.32 167.16 121.56C169.08 117.72 172.2 111.48 172.86 109.44C173.82 106.44 182.82 83.1601 184.56 82.4401L192.36 108.78L183.3 127.86L193.92 147.84L185.04 157.38C185.04 157.38 168.3 134.04 166.92 131.16C166.8 130.98 166.74 130.8 166.62 130.56Z" fill="#FFA412"/>
<path d="M194.28 163.5C196.2 161.7 197.64 159.84 198.72 158.28C198.72 158.22 198.72 158.16 198.72 158.1C198.78 158.04 198.84 157.98 198.9 157.98C199.5 157.08 199.92 156.24 200.28 155.52C198.78 154.56 196.86 153.12 198.96 152.82C201.54 152.46 203.4 151.2 203.7 150.48C203.94 149.76 203.1 149.16 202.44 149.64C201.9 150 200.76 150.3 199.92 150.48C199.2 150.66 198.54 150.72 197.82 150.6C196.98 150.48 193.62 149.04 193.02 148.92L186.72 155.58C186.72 155.64 191.52 160.8 194.28 163.5Z" fill="#F5C9B2"/>
<path d="M235.68 101.58C235.68 101.58 235.56 101.34 235.44 100.86C235.32 100.38 235.14 99.66 234.96 98.82C234.6 97.08 234.24 94.68 234 91.92C233.76 89.22 233.7 86.76 233.76 84.96C233.76 84.06 233.82 83.34 233.82 82.86C233.88 82.38 233.88 82.08 233.88 82.08C233.88 82.08 233.94 82.38 233.94 82.86C233.94 83.4 233.94 84.12 233.94 84.96C233.94 86.76 234.06 89.16 234.3 91.86C234.54 94.56 234.9 96.96 235.2 98.7C235.32 99.54 235.44 100.2 235.56 100.74C235.62 101.28 235.68 101.58 235.68 101.58Z" fill="#263238"/>
<path d="M243 102.96C243 102.96 242.94 102.96 242.82 102.9C242.7 102.84 242.52 102.78 242.28 102.66C241.86 102.42 241.26 101.88 240.78 101.1C240.24 100.32 239.94 99.24 239.7 98.1C239.4 96.9 239.16 95.64 238.98 94.26C238.74 91.5 238.5 88.98 238.38 87.18C238.32 86.34 238.26 85.62 238.26 85.02C238.26 84.54 238.2 84.24 238.26 84.24C238.26 84.24 238.32 84.54 238.38 85.02C238.44 85.56 238.5 86.28 238.62 87.18C238.8 88.98 239.04 91.5 239.28 94.26C239.46 95.64 239.7 96.9 239.94 98.1C240.18 99.24 240.48 100.32 240.96 101.1C241.38 101.88 241.98 102.36 242.34 102.66C242.76 102.84 243.06 102.96 243 102.96Z" fill="#263238"/>
<g opacity="0.3">
<g opacity="0.3">
<path opacity="0.3" d="M238.14 84.3C237.42 87.06 236.88 89.88 236.64 92.76C236.46 94.44 236.4 96.24 236.88 97.86C237.42 99.48 238.62 100.98 240.24 101.46C239.46 95.88 238.8 90.3 238.26 84.72" fill="black"/>
</g>
</g>
<g opacity="0.3">
<g opacity="0.3">
<path opacity="0.3" d="M189.06 138.24C189.06 138.24 191.88 144 193.44 147C196.68 133.62 192.54 119.52 193.92 105.84L191.58 110.58L190.92 121.5L190.44 127.92C190.38 127.86 189.9 134.76 189.06 138.24Z" fill="black"/>
</g>
</g>
<path d="M191.28 82.74C191.28 82.74 191.46 82.98 191.76 83.46C191.88 83.7 192.06 84 192.24 84.36C192.42 84.72 192.66 85.14 192.84 85.62C193.26 86.52 193.68 87.66 194.1 88.98C194.46 90.3 194.82 91.74 195.06 93.24C195.3 94.8 195.36 96.3 195.36 97.62C195.36 99 195.24 100.2 195.12 101.22C195.06 101.7 195 102.18 194.88 102.6C194.82 103.02 194.76 103.32 194.64 103.62C194.52 104.16 194.4 104.46 194.4 104.46C194.4 104.46 194.4 104.16 194.52 103.56C194.58 103.26 194.64 102.96 194.7 102.54C194.76 102.12 194.82 101.7 194.88 101.16C195 100.14 195.06 98.94 195.06 97.62C195.06 96.3 194.94 94.8 194.7 93.3C194.46 91.8 194.16 90.36 193.74 89.04C193.38 87.78 192.96 86.64 192.54 85.68C192.36 85.2 192.18 84.78 192 84.42C191.82 84.06 191.7 83.76 191.58 83.46C191.4 83.04 191.28 82.74 191.28 82.74Z" fill="#263238"/>
<path d="M183.18 128.04C183.12 128.04 182.76 127.38 181.98 126.42C181.2 125.46 180 124.2 178.44 123.18C177.66 122.7 176.76 122.46 175.98 122.58C175.2 122.7 174.54 123.06 174.06 123.42C173.04 124.14 172.5 124.68 172.44 124.62C172.44 124.62 172.56 124.44 172.8 124.2C173.04 123.96 173.4 123.6 173.94 123.24C174.42 122.88 175.14 122.46 175.98 122.34C176.82 122.16 177.84 122.46 178.62 122.94C180.24 123.96 181.44 125.28 182.16 126.3C182.52 126.78 182.82 127.26 183 127.56C183.12 127.86 183.18 128.04 183.18 128.04Z" fill="#263238"/>
<path d="M181.2 121.74C181.26 121.68 182.04 122.94 182.58 124.68C183.12 126.36 183.24 127.86 183.18 127.86C183.06 127.86 182.88 126.48 182.28 124.8C181.8 123.06 181.14 121.8 181.2 121.74Z" fill="#263238"/>
<path d="M188.82 137.88C188.82 137.88 189 138.12 189.3 138.66C189.6 139.2 189.96 139.92 190.44 140.82C191.4 142.68 192.72 145.2 194.16 148.08L194.22 148.2L194.16 148.26C193.98 148.44 193.74 148.68 193.56 148.86C191.22 151.32 189.06 153.54 187.5 155.1C186.72 155.88 186.12 156.48 185.64 156.96C185.22 157.38 184.92 157.62 184.92 157.62C184.92 157.62 185.1 157.32 185.52 156.9C186 156.42 186.6 155.76 187.32 154.98C188.82 153.36 190.98 151.14 193.32 148.68C193.5 148.44 193.74 148.26 193.92 148.08V148.26C192.48 145.38 191.22 142.8 190.32 141C189.9 140.1 189.54 139.38 189.24 138.78C188.94 138.18 188.82 137.88 188.82 137.88Z" fill="#263238"/>
<path d="M200.52 125.76C200.52 125.76 200.52 125.58 200.52 125.22C200.52 124.86 200.52 124.38 200.52 123.72C200.52 122.4 200.58 120.54 200.64 118.26C200.7 115.98 200.76 113.22 200.88 110.16C201 107.1 201.3 103.74 202.2 100.32C202.68 98.6399 203.28 97.0199 204.12 95.5799L204.24 95.8199C203.46 95.6999 202.8 95.2799 202.32 94.7399C201.84 94.1999 201.48 93.5399 201.3 92.8799C200.94 91.5599 201 90.2399 201 88.9799C201 86.5199 201 84.3599 201 82.4999C201 80.6999 201 79.2599 201 78.2399C201 77.7599 201 77.3999 201 77.0999C201 76.8599 201 76.6799 201 76.6799C201 76.6799 201 76.7999 201 77.0999C201 77.3999 201 77.7599 201.06 78.2399C201.06 79.2599 201.12 80.6999 201.12 82.4999C201.12 84.2999 201.18 86.5199 201.18 88.9799C201.18 90.1799 201.12 91.4999 201.48 92.7599C201.66 93.4199 201.96 94.0199 202.44 94.4999C202.86 94.9799 203.52 95.3999 204.18 95.4599L204.42 95.5199L204.3 95.6999C203.52 97.1399 202.92 98.6999 202.44 100.38C201.48 103.74 201.24 107.1 201.06 110.16C200.94 113.22 200.82 115.92 200.76 118.26C200.64 120.54 200.58 122.4 200.52 123.72C200.46 124.32 200.46 124.86 200.46 125.22C200.58 125.64 200.52 125.76 200.52 125.76Z" fill="#263238"/>
<path d="M226.26 78.6C226.26 78.6 226.32 78.72 226.38 78.9C226.44 79.14 226.56 79.44 226.74 79.86C227.04 80.76 227.46 81.96 228 83.46C228.54 85.02 229.14 86.82 229.8 88.86C230.1 89.88 230.52 90.96 230.82 92.1C230.94 92.7 231.06 93.3 230.88 93.96C230.76 94.56 230.4 95.22 229.8 95.58L229.86 95.34C230.34 96.12 230.88 96.9 231.42 97.74C232.14 99 232.8 100.26 233.1 101.64C233.4 102.96 233.4 104.34 233.4 105.6C233.28 108.12 233.1 110.34 232.98 112.2C232.86 114.06 232.74 115.56 232.68 116.64C232.62 117.12 232.62 117.54 232.56 117.84C232.56 118.14 232.5 118.26 232.5 118.26C232.5 118.26 232.5 118.14 232.5 117.84C232.5 117.54 232.5 117.12 232.56 116.64C232.62 115.56 232.68 114.06 232.8 112.2C232.92 110.28 233.04 108.06 233.16 105.6C233.22 104.34 233.22 103.08 232.86 101.76C232.56 100.44 231.96 99.18 231.18 97.98C230.7 97.14 230.16 96.36 229.68 95.64L229.56 95.52L229.68 95.46C230.16 95.16 230.52 94.62 230.64 94.02C230.76 93.42 230.7 92.82 230.58 92.28C230.28 91.14 229.86 90.06 229.56 89.04C228.9 87 228.3 85.14 227.82 83.58C227.34 82.08 226.98 80.82 226.68 79.98C226.56 79.56 226.44 79.26 226.38 79.02C226.26 78.72 226.26 78.6 226.26 78.6Z" fill="#263238"/>
<path d="M202.92 153.18C202.92 153.18 202.86 153.36 202.62 153.66C202.44 153.96 202.14 154.38 201.78 154.92C201.06 156 199.98 157.44 198.78 158.94C197.58 160.5 196.44 161.82 195.54 162.78C195.12 163.26 194.76 163.62 194.52 163.92C194.28 164.16 194.1 164.34 194.1 164.28C194.04 164.28 194.58 163.62 195.36 162.66C196.2 161.64 197.28 160.26 198.48 158.76C199.68 157.2 200.76 155.82 201.54 154.8C202.38 153.78 202.86 153.12 202.92 153.18Z" fill="#455A64"/>
<path d="M212.28 145.44C212.28 145.44 212.28 145.56 212.28 145.8C212.28 146.04 212.22 146.34 212.16 146.76C212.04 147.66 211.92 148.92 211.74 150.54C211.38 153.84 210.78 158.58 210 164.46C208.5 176.22 206.16 192.48 203.7 210.36C202.44 219.3 201.36 227.88 200.34 235.68C200.1 237.6 199.92 239.52 199.62 241.38C199.32 243.24 199.08 244.98 198.78 246.72C198.24 250.14 197.76 253.38 197.34 256.32C196.44 262.2 195.78 266.94 195.3 270.24C195.06 271.86 194.88 273.18 194.82 274.02C194.76 274.44 194.76 274.8 194.7 274.98C194.7 275.1 194.7 275.16 194.7 275.22C194.7 275.28 194.76 275.22 194.76 275.22H194.7C194.7 275.16 194.7 275.1 194.7 274.98C194.7 274.74 194.7 274.44 194.76 273.96C194.82 273.06 195 271.8 195.18 270.18C195.6 266.88 196.26 262.14 197.1 256.26C197.52 253.32 198 250.14 198.54 246.66C198.78 244.92 199.08 243.18 199.32 241.32C199.56 239.46 199.8 237.6 200.04 235.62C201 227.82 202.14 219.3 203.34 210.3C205.8 192.36 208.14 176.16 209.76 164.4C210.54 158.52 211.14 153.78 211.62 150.48C211.86 148.86 211.98 147.6 212.1 146.7C212.16 146.28 212.22 145.92 212.22 145.74C212.28 145.5 212.28 145.44 212.28 145.44Z" fill="#455A64"/>
<path d="M225.96 272.94C225.96 272.94 225.96 272.82 226.02 272.64C226.08 272.4 226.08 272.1 226.2 271.68C226.32 270.84 226.56 269.58 226.8 268.02C227.34 264.84 228.18 260.22 229.14 254.52C231.18 243.12 233.94 227.4 237.06 210.06C237.3 208.98 237.36 207.9 237.24 206.82C237.12 205.74 236.94 204.66 236.76 203.64C236.46 201.54 236.1 199.44 235.8 197.4C235.14 193.32 234.54 189.36 233.88 185.58C232.62 178.02 231.42 171.24 230.34 165.6C229.26 159.9 228.3 155.34 227.58 152.22C227.22 150.66 226.92 149.4 226.74 148.62C226.62 148.2 226.56 147.9 226.5 147.66C226.44 147.42 226.44 147.36 226.44 147.36C226.44 147.36 226.5 147.48 226.56 147.66C226.62 147.9 226.68 148.2 226.8 148.62C227.04 149.46 227.34 150.66 227.7 152.22C228.48 155.34 229.44 159.96 230.58 165.6C231.66 171.3 232.92 178.02 234.18 185.58C234.84 189.36 235.44 193.32 236.1 197.4C236.4 199.44 236.76 201.54 237.06 203.64C237.24 204.72 237.42 205.74 237.54 206.88C237.66 207.96 237.6 209.1 237.36 210.18C234.24 227.52 231.42 243.24 229.38 254.64C228.36 260.34 227.52 264.9 226.92 268.08C226.62 269.64 226.38 270.9 226.26 271.74C226.2 272.16 226.14 272.46 226.08 272.7C226.02 272.82 225.96 272.94 225.96 272.94Z" fill="#455A64"/>
<path d="M219.24 164.34C219.3 164.34 218.28 171.48 216.9 180.3C215.52 189.12 214.32 196.2 214.2 196.2C214.14 196.2 215.16 189.06 216.54 180.24C217.98 171.42 219.18 164.28 219.24 164.34Z" fill="#455A64"/>
<path d="M201.48 275.46C201.48 275.46 201.3 275.52 200.88 275.58C200.52 275.64 199.92 275.7 199.26 275.76C197.88 275.88 196.02 275.94 193.92 276C191.82 276.06 189.96 276 188.58 275.94C187.92 275.88 187.32 275.88 186.96 275.82C186.6 275.76 186.36 275.76 186.36 275.76C186.36 275.7 187.2 275.7 188.58 275.7C189.96 275.7 191.82 275.7 193.92 275.7C196.02 275.64 197.88 275.58 199.26 275.52C200.64 275.4 201.48 275.4 201.48 275.46Z" fill="#455A64"/>
<path d="M230.52 273.48C230.52 273.48 230.22 273.48 229.74 273.42C229.2 273.36 228.48 273.3 227.7 273.18C225.96 273 223.56 272.7 220.92 272.34C218.28 271.98 215.88 271.68 214.14 271.44C213.3 271.32 212.64 271.2 212.1 271.14C211.62 271.08 211.38 271.02 211.38 270.96C211.38 270.96 211.68 270.96 212.16 271.02C212.64 271.08 213.36 271.14 214.2 271.26C215.94 271.44 218.34 271.74 220.98 272.1C223.62 272.46 226.02 272.76 227.76 273C228.6 273.12 229.26 273.24 229.8 273.3C230.28 273.42 230.52 273.48 230.52 273.48Z" fill="#455A64"/>
<path d="M205.2 77.34C205.2 77.34 205.44 77.46 205.86 77.76C206.34 78.06 206.94 78.48 207.6 78.96C209.1 79.98 211.2 81.36 213.6 82.74C214.5 83.28 215.4 83.76 216.18 84.18L215.94 84.3C216.42 82.32 216.9 80.58 217.2 79.38C217.38 78.84 217.5 78.36 217.62 77.94C217.74 77.64 217.8 77.46 217.8 77.46C217.8 77.46 217.8 77.64 217.74 78C217.68 78.36 217.56 78.84 217.44 79.44C217.14 80.64 216.78 82.38 216.3 84.36L216.24 84.54L216.06 84.48C215.22 84.06 214.38 83.58 213.48 83.04C211.08 81.66 208.98 80.28 207.54 79.2C206.82 78.66 206.22 78.24 205.8 77.88C205.38 77.58 205.2 77.34 205.2 77.34Z" fill="#263238"/>
<path d="M225 81.78C225.06 81.84 223.92 82.56 222.36 83.58L222.24 83.64L222.18 83.52C221.94 83.04 221.64 82.5 221.34 81.96C220.74 80.76 220.2 79.62 219.78 78.78C219.42 77.94 219.18 77.46 219.24 77.46C219.3 77.46 219.54 77.94 220.02 78.72C220.44 79.5 221.04 80.58 221.64 81.84C221.94 82.38 222.18 82.92 222.42 83.4L222.24 83.34C223.8 82.38 225 81.72 225 81.78Z" fill="#263238"/>
<path d="M221.1 81.1799C221.1 81.1799 220.92 81.3599 220.56 81.5999C220.2 81.8399 219.78 82.1999 219.24 82.4999C218.7 82.8599 218.22 83.1599 217.92 83.3999C217.56 83.6399 217.38 83.7599 217.32 83.7599C217.32 83.7599 217.5 83.5799 217.86 83.3399C218.22 83.0999 218.64 82.7399 219.18 82.4399C219.72 82.0799 220.2 81.7799 220.5 81.5399C220.86 81.2999 221.1 81.1799 221.1 81.1799Z" fill="#263238"/>
<path d="M219.3 82.44C219.3 82.44 218.76 81.96 218.16 81.36C217.56 80.7 217.08 80.22 217.08 80.16C217.08 80.1 217.62 80.64 218.22 81.24C218.82 81.84 219.3 82.38 219.3 82.44Z" fill="#263238"/>
<path d="M207.96 135.66C208.08 135.66 208.02 137.76 209.22 139.98C210.36 142.2 212.1 143.4 212.04 143.52C212.04 143.52 211.56 143.28 210.96 142.74C210.36 142.2 209.58 141.3 208.98 140.16C208.38 139.02 208.08 137.88 208.02 137.04C207.9 136.14 207.96 135.66 207.96 135.66Z" fill="#263238"/>
<path d="M211.5 143.58C211.5 143.64 210.12 143.52 208.62 142.8C207.12 142.08 206.16 141.12 206.22 141.12C206.28 141.06 207.3 141.84 208.74 142.56C210.18 143.22 211.5 143.46 211.5 143.58Z" fill="#263238"/>
<path d="M223.2 124.32C223.2 124.32 223.32 124.56 223.44 124.98C223.56 125.4 223.74 126 223.92 126.78C224.28 128.28 224.7 130.44 225.06 132.78C225.42 135.12 225.6 137.28 225.72 138.84C225.78 139.62 225.78 140.28 225.78 140.7C225.78 141.12 225.78 141.36 225.78 141.36C225.78 141.36 225.72 141.12 225.66 140.7C225.6 140.22 225.54 139.56 225.48 138.84C225.36 137.28 225.12 135.12 224.76 132.78C224.4 130.44 223.98 128.34 223.68 126.78C223.56 126.06 223.38 125.46 223.32 124.98C223.2 124.62 223.2 124.38 223.2 124.32Z" fill="#263238"/>
<path d="M219.18 86.58C218.4 92.82 217.8 106.38 217.62 112.68C217.44 117.96 217.44 123.18 217.5 128.46C217.5 130.14 217.5 131.88 218.22 133.44C219.48 136.2 222.54 137.58 225.36 138.78L219.18 86.58Z" fill="#E0E0E0"/>
<path d="M226.2 137.88L229.44 129.96L221.34 85.74L219 85.98C219 85.98 219.3 131.94 219.24 132.36L226.2 137.88Z" fill="#E27F2B"/>
<path d="M221.28 85.7399C221.28 85.7999 220.8 85.8599 220.14 85.9199C219.54 85.9799 219 85.9199 219 85.9199C219 85.8599 219.48 85.8599 220.14 85.7999C220.74 85.7399 221.28 85.6799 221.28 85.7399Z" fill="#263238"/>
</svg>
