<svg width="407" height="300" viewBox="0 0 407 300" fill="none" xmlns="http://www.w3.org/2000/svg">
<g clip-path="url(#clip0)">
<path d="M92.1812 350.617C156.279 382.666 260.107 382.666 324.205 350.617C388.302 318.569 388.302 266.531 324.205 234.482C260.107 202.433 156.279 202.433 92.1812 234.482C28.1662 266.531 28.1662 318.569 92.1812 350.617Z" fill="#64B9FF"/>
<path d="M344.71 309.317C362.775 309.317 377.419 301.366 377.419 291.558C377.419 281.75 362.775 273.799 344.71 273.799C326.645 273.799 312 281.75 312 291.558C312 301.366 326.645 309.317 344.71 309.317Z" fill="#407BFF"/>
<path d="M68.3483 307.087C86.4133 307.087 101.058 299.136 101.058 289.328C101.058 279.52 86.4133 271.569 68.3483 271.569C50.2833 271.569 35.6387 279.52 35.6387 289.328C35.6387 299.136 50.2833 307.087 68.3483 307.087Z" fill="#407BFF"/>
<path d="M53.8929 268.43C53.8929 268.43 53.5625 261.244 50.4237 255.38C47.2849 249.598 42.5767 245.798 38.0337 245.055C33.4907 244.394 29.5259 248.276 34.2341 251.497C38.9423 254.719 47.3675 258.271 50.5889 269.339L53.8929 268.43Z" fill="#74C1C7"/>
<path opacity="0.15" d="M53.8929 268.43C53.8929 268.43 53.5625 261.244 50.4237 255.38C47.2849 249.598 42.5767 245.798 38.0337 245.055C33.4907 244.394 29.5259 248.276 34.2341 251.497C38.9423 254.719 47.3675 258.271 50.5889 269.339L53.8929 268.43Z" fill="black"/>
<path d="M52.6539 266.531C52.6539 266.531 52.7365 266.531 52.6539 266.531C52.8191 266.448 52.9017 266.365 52.8191 266.2C48.8543 253.975 40.0161 248.441 35.8861 247.12C35.7209 247.12 35.6383 247.12 35.5557 247.285C35.5557 247.45 35.5557 247.533 35.7209 247.615C39.7683 248.854 48.3587 254.306 52.3235 266.365C52.4061 266.448 52.5713 266.531 52.6539 266.531Z" fill="#263238"/>
<path d="M28.1215 264.961C28.4519 265.952 29.5257 266.613 30.5169 267.026C31.5081 267.522 32.5819 268.017 32.9949 269.009C33.9861 270.991 32.0037 273.469 32.9949 275.451C33.4079 276.277 34.3165 276.69 35.2251 276.938C35.9685 277.103 36.7119 277.186 37.4553 277.269C37.7857 277.269 38.1987 277.269 38.5291 277.269C39.6029 277.186 40.6767 277.186 41.6679 277.847C43.0721 278.838 43.4025 280.738 44.2285 282.225C45.2197 284.042 47.0369 285.363 49.1019 285.776C49.7627 285.942 51.0017 286.107 51.7451 285.776C51.8277 285.776 51.8277 285.694 51.9103 285.694C51.9929 285.611 52.1581 285.446 52.1581 285.363C52.1581 285.363 52.1581 285.363 52.1581 285.281C52.4885 284.29 52.1581 283.298 52.1581 282.225C52.1581 282.142 52.1581 282.142 52.1581 282.059C52.3233 280.903 52.4059 279.747 52.4885 278.508C52.7363 276.36 52.9015 274.212 52.9841 271.982C53.0667 270.578 53.3145 269.091 52.8189 267.687C52.2407 266.2 50.5887 266.035 50.0931 264.548C49.8453 263.97 49.7627 263.309 49.5975 262.731C49.0193 260.996 47.3673 259.675 45.5501 259.427C42.7417 259.097 40.0159 261.244 37.1249 260.831C36.3815 260.749 35.7207 260.418 34.9773 260.253C32.6645 259.675 29.9387 260.088 28.5345 261.988C28.2041 262.979 27.7911 263.97 28.1215 264.961Z" fill="#74C1C7"/>
<path d="M52.8189 280.82C52.9841 280.82 53.0667 280.655 53.0667 280.49C50.1757 265.374 34.7294 262.153 31.0124 262.153C30.8472 262.153 30.7646 262.235 30.7646 262.401C30.7646 262.566 30.8472 262.648 31.0124 262.648C34.5642 262.648 49.7627 265.787 52.5711 280.573C52.5711 280.82 52.7363 280.903 52.8189 280.82Z" fill="#263238"/>
<path d="M36.0508 272.147C36.1334 272.147 36.1334 272.147 36.216 272.065C36.2986 272.065 40.5112 268.348 47.0366 269.835C47.2018 269.835 47.2844 269.752 47.367 269.669C47.367 269.504 47.2844 269.422 47.2018 269.339C40.4286 267.852 35.9682 271.652 35.9682 271.652C35.8856 271.734 35.8856 271.9 35.9682 271.982C35.8856 272.148 35.9682 272.147 36.0508 272.147Z" fill="#263238"/>
<path d="M363.661 275.213C363.578 270.917 366.634 262.079 370.93 256.462C375.307 250.846 382.246 246.716 387.202 248.368C391.827 249.854 391.414 255.967 385.88 260.014C380.346 264.062 372.003 269.265 369.608 276.204L364.569 284.794L363.661 275.213Z" fill="#74C1C7"/>
<path opacity="0.1" d="M363.661 275.213C363.578 270.917 366.634 262.079 370.93 256.462C375.307 250.846 382.246 246.716 387.202 248.368C391.827 249.854 391.414 255.967 385.88 260.014C380.346 264.062 372.003 269.265 369.608 276.204L364.569 284.794L363.661 275.213Z" fill="black"/>
<path d="M363.413 281.077C363.578 281.077 363.661 280.995 363.661 280.829C366.387 266.209 378.033 254.15 385.054 251.506C385.219 251.424 385.302 251.259 385.219 251.093C385.137 250.928 384.972 250.846 384.806 250.928C377.62 253.654 365.726 265.879 363 280.747C363 280.912 363.083 281.077 363.248 281.077C363.33 281.077 363.33 281.077 363.413 281.077Z" fill="#263238"/>
<path d="M365.726 287C366.387 284.945 369.278 281.474 373.986 278.64C379.19 275.451 385.798 273.964 387.285 271.555C389.102 268.65 386.211 265.887 380.842 266.524C375.473 267.162 366.057 273.538 364.652 283.103L365.726 287Z" fill="#74C1C7"/>
<path d="M364.652 284.804C364.734 284.804 364.9 284.733 364.9 284.591C369.195 273.822 378.694 269.925 383.154 269.429C383.319 269.429 383.485 269.287 383.402 269.146C383.402 269.004 383.237 268.862 383.072 268.933C378.198 269.5 368.782 273.468 364.321 284.449C364.239 284.591 364.321 284.733 364.487 284.804C364.487 284.804 364.569 284.804 364.652 284.804Z" fill="#263238"/>
<path d="M300.203 128.023C301.392 129.117 302.778 129.664 304.264 131.305C305.651 132.727 306.245 133.383 307.929 134.04C309.712 134.805 311.396 134.587 316.448 133.711C322.59 132.618 325.165 131.524 327.84 129.008C330.911 126.054 337.845 117.413 341.114 113.913C344.68 110.303 349.435 111.725 349.435 111.725C349.435 111.725 347.453 119.601 342.798 126.82C340.123 130.977 335.17 135.024 332.892 137.102C329.326 140.384 327.345 141.697 319.42 142.353C313.477 142.9 312.684 143.009 307.731 142.9C305.948 142.79 304.859 142.79 301.986 142.572C300.599 142.462 299.41 142.243 298.222 141.806C296.835 141.368 295.547 141.04 294.359 140.056C292.774 138.853 291.486 137.321 290.693 135.462C290.297 134.477 290 133.274 290 132.18C290 131.086 290.396 129.883 291.09 129.008C291.189 128.789 291.387 128.68 291.585 128.57C291.981 128.461 292.278 128.68 292.675 128.789C294.557 129.883 296.439 131.305 298.42 132.18C300.104 132.836 301.293 133.164 301.193 132.727C301.094 132.399 300.104 132.071 299.014 130.758C298.024 129.555 297.726 127.695 298.42 127.148C299.113 126.82 299.014 126.93 300.203 128.023Z" fill="#FFBE9D"/>
<path d="M350.821 111.725C350.821 111.725 347.849 109.975 344.779 110.959C341.708 111.944 339.231 114.131 336.26 117.632C333.288 121.132 328.335 126.711 328.335 126.711C328.335 126.711 330.811 133.493 336.26 136.009L347.75 124.304L350.821 111.725Z" fill="#27DEBF"/>
<path d="M350.821 111.725C350.821 111.725 347.849 109.975 344.779 110.959C341.708 111.944 339.231 114.131 336.26 117.632C333.288 121.132 328.335 126.711 328.335 126.711C328.335 126.711 330.811 133.493 336.26 136.009L347.75 124.304L350.821 111.725Z" fill="#336BE9"/>
<path d="M301.188 133.295L310.209 127.499C310.947 127.046 312.26 126.956 312.998 127.499L321.609 132.389C322.347 132.842 323.003 134.11 323.003 135.106V146.608C323.003 147.604 322.347 148.781 321.609 149.324L312.588 155.12C311.85 155.573 310.537 155.664 309.799 155.12L301.188 150.23C300.45 149.777 299.794 148.509 299.794 147.513V136.012C299.794 134.925 300.45 133.748 301.188 133.295Z" fill="#37474F"/>
<path opacity="0.4" d="M323.085 134.743C323.003 133.928 322.429 133.656 321.691 134.109L312.67 139.905C312.178 140.177 311.768 140.811 311.522 141.445C311.604 141.354 311.604 141.173 311.686 141.082L300.286 134.381C300.532 133.928 300.86 133.475 301.27 133.204L310.292 127.408C311.03 126.864 312.342 126.864 313.08 127.408L321.691 132.298C322.429 132.841 323.003 133.837 323.085 134.743Z" fill="#455A64"/>
<path d="M299.876 147.512C299.876 148.508 300.532 149.686 301.27 150.229L309.881 155.12C310.62 155.572 311.686 155.572 312.424 155.21C311.768 155.482 311.276 155.12 311.276 154.214V142.712C311.276 142.26 311.44 141.626 311.686 141.173L300.286 134.471C300.04 134.924 299.876 135.467 299.876 136.011V147.512Z" fill="#263238"/>
<path d="M367.661 267.599H360.727V280.835H367.661V267.599Z" fill="#FFBE9D"/>
<path d="M348.443 270.99L341.509 271.209L341.112 257.317L348.443 256.989V270.99Z" fill="#FFBE9D"/>
<path d="M370.731 169.262C370.731 176.59 369.542 219.36 369.542 219.36C369.74 221.439 371.523 225.267 371.722 232.815C371.92 243.863 368.056 274.162 368.056 274.162C368.056 274.162 364.689 276.35 360.33 274.381C360.33 274.381 357.16 233.252 355.872 222.314C354.783 212.797 352.901 186.873 352.901 186.873L349.632 218.048C349.632 218.048 350.919 223.736 350.523 230.299C350.226 235.331 348.938 266.724 348.938 266.724C348.938 266.724 345.669 269.131 340.915 267.38C340.915 267.38 335.962 222.751 335.962 218.048C335.863 212.797 337.745 158.761 337.745 158.761L370.731 169.262Z" fill="#37474F"/>
<path d="M365.876 115.553C367.361 116.319 368.649 117.741 369.244 119.382C369.838 120.913 370.234 123.101 370.234 126.054V141.149L370.432 169.59C360.427 175.387 347.748 175.825 337.05 167.183C337.05 167.183 337.644 130.539 337.644 124.523C337.644 124.304 337.644 123.976 337.644 123.648C338.04 115.116 345.668 109.209 353.196 111.287L359.536 113.037L365.876 115.553Z" fill="#407BFF"/>
<path d="M317.636 143.447C318.924 144.322 320.409 144.65 322.093 146.072C323.678 147.275 324.273 147.822 326.056 148.26C327.938 148.807 342.697 143.228 345.471 140.931C351.018 136.227 355.872 127.258 358.547 123.867C360.726 121.023 363.301 116.866 365.976 116.866C370.434 118.397 369.443 125.726 365.679 132.399C362.608 137.868 356.665 144.869 349.929 149.682C346.66 151.979 331.702 156.245 326.749 156.682C325.263 156.792 324.075 157.12 321.202 157.667C320.013 157.886 318.825 158.104 317.636 157.886C316.15 157.667 314.763 157.12 313.376 156.464C311.692 155.588 310.207 154.276 309.117 152.526C308.523 151.541 308.126 150.447 308.027 149.353C307.928 148.26 308.126 147.056 308.721 146.072C308.82 145.853 309.018 145.744 309.117 145.634C309.414 145.416 309.81 145.634 310.207 145.744C312.188 146.509 314.268 147.713 316.249 148.15C317.933 148.588 319.221 148.697 319.122 148.26C318.924 147.931 317.933 147.713 316.744 146.619C315.655 145.525 315.06 143.775 315.655 143.118C316.348 142.353 316.249 142.572 317.636 143.447Z" fill="#FFBE9D"/>
<path d="M348.244 97.7236C353.551 97.7236 357.853 92.9732 357.853 87.1132C357.853 81.2532 353.551 76.5028 348.244 76.5028C342.938 76.5028 338.636 81.2532 338.636 87.1132C338.636 92.9732 342.938 97.7236 348.244 97.7236Z" fill="#263238"/>
<path d="M364.787 94.5513C364.787 94.5513 363.202 102.646 362.608 103.958C362.013 105.271 360.726 105.709 360.726 105.709L360.825 100.021L364.787 94.5513Z" fill="#263238"/>
<path d="M362.805 83.0659C362.805 83.0659 364.489 82.7378 365.777 84.2692C367.064 85.6912 366.371 90.176 364.786 94.6608L361.814 94.9889L362.805 83.0659Z" fill="#263238"/>
<path d="M361.022 94.9888C361.616 95.4263 362.409 94.1137 363.201 93.348C363.895 92.4729 366.272 91.3791 367.461 94.1137C368.65 96.9577 366.47 100.567 364.588 101.224C361.418 102.318 360.923 100.021 360.923 100.021L360.725 113.147C356.763 118.835 345.668 118.288 350.324 112.381V108.443C350.324 108.443 347.451 108.881 345.965 108.662C343.588 108.224 342.102 106.256 341.409 103.411C340.22 98.9267 339.824 95.2076 340.814 86.3473C341.904 76.612 352.107 76.5026 357.654 80.3311C363.102 84.269 361.022 94.9888 361.022 94.9888Z" fill="#FFBE9D"/>
<path d="M361.023 96.0827C361.32 96.0827 362.41 94.0044 363.203 93.3481C364.193 92.3636 362.905 83.1752 362.905 83.1752C362.905 83.1752 363.896 80.8781 361.915 78.4716C360.528 76.8308 358.25 76.6121 354.287 75.9558C352.207 75.6276 349.037 74.9713 346.957 74.5337C344.481 73.9868 342.4 73.4399 340.716 75.1901C339.33 76.5027 338.735 78.7998 339.528 80.6593C339.726 81.0969 339.924 81.425 340.221 81.8626C340.716 82.5189 341.311 82.9564 342.004 83.1752C342.004 83.1752 343.094 84.2691 346.858 84.7066C350.622 85.2535 356.467 84.5972 357.259 84.4878C358.349 84.2691 358.547 85.4723 359.141 88.6445C359.537 91.2697 360.033 95.9733 361.023 96.0827Z" fill="#263238"/>
<path d="M362.806 83.7222L366.372 81.6439C365.877 80.55 364.688 80.1125 363.698 80.6594C362.707 81.2063 362.311 82.6283 362.806 83.7222Z" fill="#263238"/>
<path d="M350.127 108.553C350.127 108.553 355.377 107.35 357.259 106.256C358.448 105.49 359.537 104.287 359.835 103.521C359.835 103.521 359.537 105.271 358.349 106.803C356.962 108.662 350.127 110.084 350.127 110.084V108.553Z" fill="#F28F8F"/>
<path d="M350.424 93.4578C350.424 94.1141 350.919 94.661 351.513 94.661C352.108 94.661 352.603 94.1141 352.603 93.4578C352.603 92.8015 352.108 92.2545 351.513 92.2545C350.919 92.2545 350.424 92.8015 350.424 93.4578Z" fill="#263238"/>
<path d="M351.513 89.0822L353.791 90.5042C354.088 89.7385 353.89 88.8634 353.296 88.5353C352.602 88.0977 351.81 88.4259 351.513 89.0822Z" fill="#263238"/>
<path d="M350.622 101.552L348.244 102.537C348.442 103.302 349.235 103.74 349.829 103.412C350.522 103.193 350.82 102.318 350.622 101.552Z" fill="#F28F8F"/>
<path d="M341.31 90.0667L343.39 88.3165C342.994 87.6602 342.202 87.5508 341.607 87.9884C341.013 88.5353 340.914 89.4104 341.31 90.0667Z" fill="#263238"/>
<path d="M341.906 93.1296C341.906 93.7859 342.402 94.3329 342.996 94.3329C343.59 94.3329 344.085 93.7859 344.085 93.1296C344.085 92.4733 343.59 91.9264 342.996 91.9264C342.402 91.9264 341.906 92.4733 341.906 93.1296Z" fill="#263238"/>
<path d="M347.353 92.0358L346.956 99.0364L343.688 97.8332L347.353 92.0358Z" fill="#F28F8F"/>
<path d="M360.726 277.006V275.913C360.033 276.241 358.547 282.804 355.774 285.538C353.594 287.726 350.623 290.351 349.83 292.758C349.038 295.274 353.991 296.696 356.071 296.368C358.448 295.93 362.609 294.071 363.599 292.32C364.59 290.57 365.085 288.054 365.977 286.851C366.868 285.538 368.75 284.226 369.245 282.694C369.543 281.929 369.245 280.179 368.849 278.647C368.552 277.335 368.156 275.803 367.76 275.913C367.76 276.131 367.76 276.788 367.76 276.788C367.264 277.444 365.877 277.991 364.293 278.1C363.203 278.1 360.726 277.881 360.726 277.006Z" fill="#263238"/>
<path d="M341.41 268.912C341.014 268.912 340.717 269.459 339.924 270.443C338.934 271.646 337.349 272.85 335.863 273.725C333.287 275.147 328.136 277.335 325.858 278.538C324.471 279.303 324.471 281.163 325.957 282.257C327.443 283.351 331.009 284.116 335.368 283.023C337.745 282.476 340.717 280.069 342.698 280.179C344.58 280.288 348.245 280.288 349.632 279.194C351.019 278.1 350.523 275.803 350.127 273.834C349.731 271.646 349.137 268.256 348.443 268.474V269.24C347.651 270.662 343.292 271.209 341.41 270.224V268.912Z" fill="#263238"/>
<path d="M352.901 186.873C352.901 186.873 347.354 185.122 343.193 180.747C343.193 180.747 345.075 184.576 350.623 188.185L349.929 215.422L352.901 186.873Z" fill="#263238"/>
<path d="M366.174 115.116C369.542 116.866 370.829 119.601 369.344 125.726C368.056 131.196 362.905 140.493 358.942 145.088C358.942 145.088 352.108 141.478 348.442 136.884C352.008 130.758 353.791 127.258 357.159 122.007C360.626 116.975 364.193 114.46 366.174 115.116Z" fill="#346CEB"/>
<g opacity="0.1">
<path opacity="0.1" d="M366.174 115.116C369.542 116.866 370.829 119.601 369.344 125.726C368.056 131.196 362.905 140.493 358.942 145.088C358.942 145.088 352.108 141.478 348.442 136.884C352.008 130.758 353.791 127.258 357.159 122.007C360.626 116.975 364.193 114.46 366.174 115.116Z" fill="black"/>
</g>
<path d="M66.5732 112.842C70.2384 112.842 74.1016 111.639 77.2715 116.89C80.4413 122.14 89.5546 145.439 89.5546 145.439C89.5546 145.439 82.1253 149.815 81.9272 149.486C81.729 149.158 69.1487 125.969 69.1487 125.969L66.5732 112.842Z" fill="#FFBE9D"/>
<path d="M62.5117 108.029C54.0918 108.029 47.2568 100.482 47.2568 91.1839V89.4338C47.2568 81.558 53.0022 75.1042 60.2334 75.1042H64.8891C72.0212 75.1042 77.8656 81.4486 77.8656 89.4338V91.1839C77.7666 100.482 70.9316 108.029 62.5117 108.029Z" fill="#263238"/>
<g opacity="0.2">
<path opacity="0.2" d="M62.5117 108.029C54.0918 108.029 47.2568 100.482 47.2568 91.1839V89.4338C47.2568 81.558 53.0022 75.1042 60.2334 75.1042H64.8891C72.0212 75.1042 77.8656 81.4486 77.8656 89.4338V91.1839C77.7666 100.482 70.9316 108.029 62.5117 108.029Z" fill="black"/>
</g>
<path d="M40.7188 109.779C44.681 109.779 47.8509 106.279 47.8509 101.904V86.2616C43.8886 86.2616 40.7188 89.7619 40.7188 94.1374V109.779Z" fill="#263238"/>
<path opacity="0.2" d="M40.7188 109.779C44.681 109.779 47.8509 106.279 47.8509 101.904V86.2616C43.8886 86.2616 40.7188 89.7619 40.7188 94.1374V109.779Z" fill="black"/>
<path d="M78.2622 278.889C80.0452 281.077 82.1254 282.827 84.2056 284.577C84.5028 284.796 84.899 285.124 84.9981 285.562C85.2952 286.218 85.6915 287.859 83.0169 288.843C80.4414 289.828 77.1725 289.609 74.7951 287.968C72.6159 286.437 72.5168 283.265 70.4366 281.515C68.9508 280.202 66.9696 279.874 65.7809 278.124C64.8894 276.92 65.1866 275.28 65.5828 273.311C66.0781 271.123 66.2762 269.482 66.9696 269.701L66.8705 270.685C67.663 272.107 71.9225 272.545 73.8046 271.561C73.8046 271.451 77.0735 277.467 78.2622 278.889Z" fill="#263238"/>
<path d="M80.0447 280.968C79.4503 280.311 78.7569 279.655 78.1626 278.889C77.3701 278.014 75.7852 275.17 74.6956 273.311C74.1012 272.217 73.2097 270.685 73.2097 269.263C73.2097 267.295 73.3088 263.904 73.3088 263.904L67.0681 263.466L66.771 270.685C66.5729 272.326 67.8606 273.748 70.0399 275.827C72.2191 277.905 74.9927 282.718 76.9739 283.921C78.955 285.124 80.3419 285.124 81.2334 284.468C82.1249 283.812 82.224 283.374 80.0447 280.968Z" fill="#FFBE9D"/>
<path d="M57.4594 285.781C59.2425 287.969 61.3227 289.719 63.4029 291.469C63.7001 291.688 64.0963 292.016 64.1953 292.453C64.4925 293.11 64.8887 294.75 62.2142 295.735C59.6387 296.719 56.3698 296.501 53.9924 294.86C51.8131 293.328 51.7141 290.156 49.6339 288.406C48.148 287.093 46.1669 286.765 44.9782 285.015C44.0867 283.812 44.3838 282.171 44.7801 280.202C45.2753 278.014 45.4735 276.374 46.1669 276.592L46.0678 277.577C46.8603 278.999 51.1197 279.436 53.0018 278.452C53.0018 278.343 56.2707 284.359 57.4594 285.781Z" fill="#263238"/>
<path d="M59.2429 287.859C58.6486 287.203 57.9552 286.547 57.3608 285.781C56.5684 284.906 54.9834 282.062 53.8938 280.202C53.2995 279.108 52.507 277.577 52.4079 276.046C52.3089 274.405 52.4079 270.795 52.4079 270.795H46.1673L45.9692 277.468C45.7711 279.108 47.0588 280.53 49.2381 282.609C51.4174 284.687 54.191 289.5 56.1721 290.703C58.1533 291.906 59.5401 291.906 60.4316 291.25C61.3231 290.703 61.4222 290.266 59.2429 287.859Z" fill="#FFBE9D"/>
<path d="M46.1663 158.894C40.7182 172.02 46.9588 221.9 46.9588 221.9C46.7607 224.088 45.0767 227.369 44.8786 233.823C44.5814 242.136 45.9682 273.092 45.9682 273.092C45.9682 273.092 49.2371 275.28 53.1004 273.202C53.1004 273.202 59.5391 231.307 60.8268 220.259C61.9165 210.633 63.9967 187.99 63.9967 187.99L68.3552 220.15C68.3552 220.15 66.0769 225.51 65.9778 230.432C65.7797 236.995 66.6712 267.185 66.6712 267.185C66.6712 267.185 69.3458 268.17 73.9024 267.514C73.9024 267.514 80.4402 226.603 81.1336 218.728C81.5299 214.024 78.36 156.815 78.36 156.815L46.1663 158.894Z" fill="#37474F"/>
<path d="M63.9971 188.1L65.7801 177.38C65.7801 177.38 73.3085 175.63 76.6764 172.129C76.6764 172.129 73.1104 177.052 67.8603 178.583L65.8792 187.99L67.8603 216.102L63.9971 188.1Z" fill="#263238"/>
<path d="M56.7656 113.17C52.0108 113.936 49.4353 115.03 47.8504 120.062C46.8598 123.343 47.157 128.047 48.1476 131.328L52.308 144.783C52.308 144.783 48.1476 151.893 46.0674 158.894C58.2515 166.441 74.596 162.394 78.2611 156.925C78.4592 155.721 77.4686 150.143 77.7658 144.127C78.063 137.782 79.0535 130.453 78.063 126.515C76.379 119.187 71.7233 114.374 66.5723 112.842L56.7656 113.17Z" fill="#407BFF"/>
<path d="M53.8924 127.391C53.6943 130.891 52.7037 140.407 52.7037 140.407L56.666 147.408L52.2084 144.892L48.2461 132.203L53.8924 127.391Z" fill="#336BE9"/>
<path d="M72.6151 82.105C74.299 83.1988 76.2802 87.793 76.0821 97.4189C75.884 105.623 73.5066 107.592 72.3179 108.139C71.1292 108.686 68.7518 108.358 66.5725 107.92V112.842C66.5725 112.842 69.6433 116.89 69.4452 119.077C69.2471 121.374 64.9876 121.812 62.0159 119.624C59.1432 117.436 57.2611 114.046 57.2611 114.046V102.232C57.2611 102.232 55.7753 104.529 53.2988 102.669C50.8224 100.81 50.7233 96.3251 52.2092 94.6843C53.6951 93.0435 56.7658 93.5905 57.3602 95.7782C57.3602 95.7782 60.9263 95.8875 65.7801 93.0435C70.5348 90.3089 72.3179 85.2772 72.6151 82.105Z" fill="#FFBE9D"/>
<path d="M67.8596 95.3406C67.8596 95.8876 67.4634 96.4345 66.9681 96.4345C66.4728 96.4345 65.9775 95.997 65.9775 95.45C65.9775 94.9031 66.3738 94.3562 66.8691 94.3562C67.4634 94.3562 67.8596 94.7937 67.8596 95.3406Z" fill="#263238"/>
<path d="M68.1579 102.341L70.3372 103.107C70.1391 103.763 69.5447 104.201 68.9504 103.982C68.257 103.654 67.9598 102.997 68.1579 102.341Z" fill="#F28F8F"/>
<path d="M75.4876 92.2779L73.6055 90.8558C73.9026 90.3089 74.6951 90.0901 75.1904 90.5277C75.6857 90.8558 75.8838 91.6215 75.4876 92.2779Z" fill="#263238"/>
<g opacity="0.2">
<path opacity="0.2" d="M75.4876 92.2779L73.6055 90.8558C73.9026 90.3089 74.6951 90.0901 75.1904 90.5277C75.6857 90.8558 75.8838 91.6215 75.4876 92.2779Z" fill="black"/>
</g>
<path d="M75.092 94.6842C75.092 95.2311 74.6958 95.7781 74.2005 95.7781C73.7052 95.7781 73.21 95.3405 73.21 94.7936C73.21 94.2467 73.6062 93.6997 74.1015 93.6997C74.5968 93.5903 75.092 94.0279 75.092 94.6842Z" fill="#263238"/>
<path d="M70.7334 94.028L70.8325 100.263L73.8042 99.2785L70.7334 94.028Z" fill="#F28F8F"/>
<path d="M66.5735 108.029C64.1961 107.701 59.3423 106.17 58.5498 103.982C58.5498 103.982 58.847 105.295 60.2338 106.717C61.7196 108.139 66.5735 109.67 66.5735 109.67V108.029Z" fill="#F28F8F"/>
<path d="M105.7 133.298L80.4405 140.737L72.9121 175.412L96.9831 167.645L105.7 133.298Z" fill="#F6AC3B"/>
<path opacity="0.1" d="M94.7051 156.268C94.9032 156.925 96.29 158.893 99.2617 158.784L99.658 157.362L94.7051 156.268Z" fill="black"/>
<path opacity="0.1" d="M89.0585 157.362C88.9594 158.237 87.1764 159.987 84.3037 161.081C81.0348 162.284 75.8838 161.628 75.8838 161.628L76.3791 159.878L89.0585 157.362Z" fill="black"/>
<path opacity="0.1" d="M98.2704 138.329C98.2704 138.329 98.3694 137.891 98.4685 137.235C98.5675 136.688 97.0817 136.579 95.1005 137.126L91.3363 138.219C89.3552 138.766 87.6712 139.751 87.5721 140.298L87.374 141.392L98.2704 138.329Z" fill="black"/>
<path d="M100.054 134.282C100.153 133.953 99.5587 133.844 98.6672 134.063L97.1813 134.5C97.1813 134.5 97.5776 132.203 94.3087 132.969C91.0397 133.735 90.3463 136.36 90.3463 136.36C90.3463 136.36 89.653 136.579 88.7614 136.907C87.8699 137.126 87.0775 137.673 86.9784 138.11L86.7803 138.766L99.8559 134.938C99.9549 135.047 99.9549 134.719 100.054 134.282Z" fill="#37474F"/>
<path d="M98.2703 135.485C97.0817 135.813 96.5864 136.032 96.3883 136.907C96.1901 137.891 96.0911 138.657 96.0911 138.657L90.3457 140.298C90.3457 140.298 90.6429 138.985 90.742 138.438C90.841 137.891 90.6429 137.672 89.7514 137.891L89.6523 137.454L98.6666 134.938L98.2703 135.485Z" fill="#37474F"/>
<path d="M98.4696 138.438C98.4696 138.438 98.5686 138.001 98.6677 137.344C98.7668 136.798 97.2809 136.688 95.2997 137.235L91.5355 138.329C89.5544 138.876 87.8704 139.86 87.7714 140.407L87.5732 141.501L98.4696 138.438Z" fill="#37474F"/>
<path d="M44.7803 155.174L49.436 146.642C49.436 146.642 69.7428 153.205 71.7239 153.424C73.7051 153.643 75.9834 152.002 76.7759 149.815C77.5683 147.627 78.8561 147.955 78.8561 147.955C78.8561 147.955 78.2617 150.69 78.0636 151.565C77.8655 152.44 82.7193 153.205 85.3939 152.221C88.0684 151.237 91.9317 152.659 89.5543 156.706C87.1769 160.753 82.5212 161.191 79.2523 161.191C78.3608 161.191 76.7759 161.081 75.1909 160.862C74.1013 160.753 73.1107 160.644 72.0211 160.534C65.3842 159.878 47.8511 156.159 44.7803 155.174Z" fill="#FFBE9D"/>
<path d="M103.126 143.47C103.126 143.47 102.234 147.08 102.036 147.846C101.838 148.721 98.866 150.252 96.9839 150.799C95.1018 151.346 93.1207 152.002 94.0122 154.956C94.8047 157.581 97.8755 158.237 99.4604 158.128C101.045 158.019 103.126 156.378 104.017 153.752C105.107 150.362 104.512 146.752 104.909 144.783C105.305 142.814 104.116 142.267 103.126 143.47Z" fill="#FFBE9D"/>
<path d="M49.4362 146.642L53.4976 129.578C53.4976 129.578 55.875 120.39 53.4976 113.936C53.4976 113.936 51.6155 113.17 48.6438 115.905C45.672 118.64 44.0871 124.656 43.0966 129.578C42.106 134.501 39.9267 150.69 40.2239 152.44C40.422 154.081 43.1956 155.175 51.3183 156.815L49.4362 146.642Z" fill="#FFBE9D"/>
<path d="M206.253 218.953C194.358 218.953 184.611 224.487 184.611 231.426V261.409C184.611 268.265 194.276 273.882 206.253 273.882C218.147 273.882 227.894 268.348 227.894 261.409V231.426C227.894 224.487 218.23 218.953 206.253 218.953Z" fill="#EBEBEB"/>
<path d="M206.253 218.953C194.358 218.953 184.611 224.487 184.611 231.426V261.409C184.611 268.265 194.276 273.882 206.253 273.882C218.147 273.882 227.894 268.348 227.894 261.409V231.426C227.894 224.487 218.23 218.953 206.253 218.953Z" fill="#407BFF"/>
<path opacity="0.1" d="M184.693 231.426V261.409C184.693 266.944 191.054 271.652 199.809 273.304V243.981V219.531C191.054 221.101 184.693 225.809 184.693 231.426Z" fill="black"/>
<path d="M231.197 234.317C231.362 234.069 291.082 138.088 291.082 138.088C291.082 138.088 260.933 157.581 206.335 157.581C195.597 157.581 185.85 156.838 177.012 155.599C141.081 150.643 121.587 138.088 121.587 138.088C121.587 138.088 181.224 234.069 181.389 234.317C185.024 240.181 194.853 244.394 206.252 244.394C217.733 244.394 227.48 240.181 231.197 234.317Z" fill="#64B9FF"/>
<path d="M162.97 162.868L153.884 150.891C132.738 145.274 121.587 138.005 121.587 138.005C121.587 138.005 181.224 233.986 181.389 234.234C184.363 238.942 191.219 242.577 199.809 243.816L162.97 162.868Z" fill="#81C6FE"/>
<path d="M281.666 63.1694C263.412 52.6792 240.201 46.732 216.412 45.4104C185.85 43.7584 154.38 49.7056 131.004 63.1694C89.3736 87.206 89.3736 126.111 131.004 150.147C140.503 155.681 151.406 159.894 162.97 162.868C191.55 170.219 224.59 169.889 252.839 162.042C256.804 160.968 260.686 159.646 264.486 158.242C266.055 157.664 267.624 157.003 269.111 156.425C271.259 155.516 273.406 154.525 275.471 153.534C277.619 152.46 279.684 151.386 281.749 150.23C323.214 126.111 323.214 87.206 281.666 63.1694Z" fill="#407BFF"/>
<path opacity="0.1" d="M216.329 45.4104C185.767 43.7584 154.297 49.7056 130.921 63.1694C89.2906 87.206 89.2906 126.111 130.921 150.147C140.42 155.681 151.323 159.894 162.887 162.868C158.922 157.333 156.279 144.117 163.961 143.291C153.636 140.566 143.972 136.766 135.629 131.975C123.652 125.037 115.557 116.859 112.171 108.186C109.28 100.752 109.941 93.3184 114.236 85.967C118.366 78.7808 125.8 72.0076 135.629 66.3082C155.536 54.8268 182.463 49.2926 209.226 49.7882C209.226 49.7882 208.565 46.4016 216.329 45.4104Z" fill="black"/>
<path d="M276.71 66.3083C258.372 55.7354 233.84 50.2012 209.143 49.7882C182.463 49.2926 155.453 54.8268 135.546 66.3083C125.634 72.0077 118.2 78.7809 114.153 85.9671C109.94 93.3185 109.197 100.835 112.088 108.186C115.474 116.859 123.569 125.119 135.546 131.975C143.889 136.766 153.553 140.566 163.878 143.291C167.76 144.283 171.808 145.191 175.938 145.935C183.041 147.174 190.475 148 197.827 148.33C199.313 148.413 200.883 148.413 202.37 148.495C204.93 148.578 207.408 148.578 209.969 148.495C218.642 148.33 227.232 147.504 235.492 146.1C235.575 146.1 235.657 146.017 235.74 146.017C241.274 145.026 246.643 143.787 251.847 142.3C255.564 141.226 259.198 139.987 262.668 138.666C264.154 138.088 265.559 137.509 266.963 136.849C268.615 136.105 270.349 135.279 271.919 134.453C273.488 133.627 275.058 132.801 276.544 131.975C286.456 126.276 293.89 119.42 298.02 112.316C307.272 96.5399 299.259 79.2765 276.71 66.3083Z" fill="#64B9FF"/>
<path d="M206.253 117.603C181.225 117.603 159.914 126.606 151.406 139.327C155.454 140.813 159.584 142.135 163.961 143.291C167.844 144.283 171.891 145.191 176.021 145.935C183.125 147.174 190.559 148 197.91 148.33C199.397 148.413 200.966 148.413 202.453 148.495C205.014 148.578 207.492 148.578 210.052 148.495C218.725 148.33 227.316 147.504 235.576 146.1C235.658 146.1 235.741 146.017 235.823 146.017C241.358 145.026 246.727 143.787 251.93 142.3C255.069 141.392 258.043 140.4 261.016 139.244C252.591 126.606 231.28 117.603 206.253 117.603Z" fill="#81C6FE"/>
<path d="M231.858 128.589C237.469 128.589 242.018 124.04 242.018 118.429C242.018 112.818 237.469 108.269 231.858 108.269C226.247 108.269 221.698 112.818 221.698 118.429C221.698 124.04 226.247 128.589 231.858 128.589Z" fill="#F6AC3B"/>
<path opacity="0.1" d="M229.05 122.146C224.176 118.594 223.763 111.738 227.563 109.26C224.094 110.912 221.698 114.381 221.698 118.511C221.698 124.128 226.241 128.671 231.858 128.671C237.475 128.671 242.018 124.128 242.018 118.511C241.687 123.385 233.84 125.615 229.05 122.146Z" fill="black"/>
<path d="M266.798 89.3536C276.242 89.3536 283.897 81.6985 283.897 72.2554C283.897 62.8124 276.242 55.1572 266.798 55.1572C257.355 55.1572 249.7 62.8124 249.7 72.2554C249.7 81.6985 257.355 89.3536 266.798 89.3536Z" fill="#455A64"/>
<path d="M262.007 78.4504C253.83 72.5858 253.169 60.9392 259.529 56.8092C253.665 59.535 249.617 65.3996 249.617 72.338C249.617 81.7544 257.299 89.4362 266.715 89.4362C276.132 89.4362 283.814 81.7544 283.814 72.338C283.235 80.5154 270.185 84.315 262.007 78.4504Z" fill="#37474F"/>
<path d="M162.213 39.5828C167.438 34.3572 167.438 25.8848 162.213 20.6591C156.987 15.4335 148.515 15.4335 143.289 20.6591C138.063 25.8848 138.063 34.3572 143.289 39.5828C148.515 44.8084 156.987 44.8084 162.213 39.5828Z" fill="#455A64"/>
<path d="M149.01 34.9202C142.65 30.2946 142.072 21.2086 147.11 17.9872C142.567 20.1348 139.346 24.7604 139.346 30.1294C139.346 37.5634 145.376 43.5106 152.727 43.5106C160.161 43.5106 166.108 37.4808 166.108 30.1294C165.613 36.5722 155.37 39.5458 149.01 34.9202Z" fill="#37474F"/>
<path d="M135.051 94.1444L142.155 78.7808C142.733 77.4592 144.385 76.3028 145.872 76.1376L161.483 73.99C162.887 73.8248 164.787 74.7334 165.613 75.8898L175.36 89.684C176.186 90.8404 176.351 92.9054 175.773 94.227L168.669 109.591C168.091 110.912 166.439 112.069 164.952 112.234L149.341 114.381C147.937 114.547 146.037 113.638 145.211 112.482L135.464 98.6874C134.638 97.4484 134.473 95.466 135.051 94.1444Z" fill="#F6AC3B"/>
<path opacity="0.1" d="M145.21 112.482C146.036 113.638 147.936 114.547 149.34 114.381L164.951 112.234C166.273 112.151 167.76 111.16 168.421 110.004C167.76 110.912 166.769 110.912 166.025 109.838L156.278 96.0443C155.865 95.4661 155.618 94.6401 155.535 93.8141L134.72 96.4573C134.802 97.2833 135.05 98.1093 135.463 98.6875L145.21 112.482Z" fill="black"/>
<path opacity="0.4" d="M165.282 75.6425C164.456 74.8165 163.465 74.9817 162.886 76.2207L155.783 91.5843C155.37 92.4103 155.37 93.4841 155.535 94.4753C155.535 94.3101 155.452 94.0623 155.452 93.8971L134.637 96.4577C134.555 95.6317 134.637 94.8057 134.968 94.1449L142.071 78.7813C142.649 77.4597 144.301 76.3033 145.788 76.1381L161.4 73.9905C162.721 73.9079 164.373 74.5687 165.282 75.6425Z" fill="white"/>
<path d="M232.354 6.50583L246.561 4.68863C247.8 4.52343 249.369 5.18423 250.113 6.17543L258.621 16.4178C259.364 17.409 259.612 19.1436 259.116 20.2174L253.582 33.516C253.086 34.6724 251.765 35.6636 250.526 35.8288L236.236 37.646C234.997 37.8112 233.428 37.1504 232.684 36.1592L224.176 25.9168C223.433 24.9256 223.185 23.191 223.681 22.1172L229.215 8.90123C229.711 7.74483 231.115 6.67103 232.354 6.50583Z" fill="#F6AC3B"/>
<path opacity="0.1" d="M223.681 22.1173C223.185 23.2737 223.433 24.9257 224.176 25.9169L232.684 36.1593C233.345 37.0679 234.749 37.6461 235.906 37.6461C234.914 37.6461 234.501 36.9027 234.914 35.8289L240.449 22.6129C240.696 22.0347 241.109 21.5391 241.688 21.0435L230.454 7.24927C229.876 7.66227 229.463 8.24047 229.215 8.81867L223.681 22.1173Z" fill="black"/>
<path opacity="0.4" d="M259.281 19.9696C259.529 18.9784 258.951 18.4002 257.794 18.4828L243.587 20.3C242.844 20.3826 242.018 20.8782 241.357 21.4564C241.522 21.3738 241.605 21.2086 241.77 21.126L230.536 7.33183C231.114 6.91883 231.775 6.58843 232.353 6.50583L246.561 4.68863C247.8 4.52343 249.369 5.18423 250.112 6.17543L258.62 16.4178C259.364 17.409 259.611 18.8958 259.281 19.9696Z" fill="white"/>
<path d="M198.653 64.5743L206.335 64.7396C206.995 64.7396 207.821 65.2351 208.069 65.8133L211.786 71.9257C212.117 72.5039 212.117 73.4125 211.786 73.9907L207.821 80.5987C207.491 81.1769 206.665 81.5899 206.004 81.5899L198.322 81.4247C197.662 81.4247 196.836 80.9291 196.588 80.3509L192.871 74.2385C192.54 73.6603 192.54 72.7517 192.871 72.1735L196.836 65.5656C197.166 64.9874 197.992 64.4917 198.653 64.5743Z" fill="#37474F"/>
<path opacity="0.4" d="M211.869 73.7423C212.117 73.2467 211.787 72.8337 211.209 72.8337L203.527 72.6685C203.114 72.6685 202.618 72.8337 202.288 73.0815C202.37 72.9989 202.453 72.9989 202.536 72.9163L197.662 64.7389C197.993 64.5737 198.323 64.4085 198.653 64.4911L206.335 64.6563C206.996 64.6563 207.822 65.1519 208.07 65.7301L211.787 71.8425C212.117 72.3381 212.2 73.1641 211.869 73.7423Z" fill="#455A64"/>
<path d="M192.871 72.1729C192.54 72.7511 192.54 73.6597 192.871 74.2379L196.588 80.3502C196.836 80.8458 197.579 81.3414 198.157 81.424C197.662 81.3414 197.496 80.9285 197.744 80.4329L201.709 73.8249C201.874 73.5771 202.205 73.3293 202.452 73.0815L197.579 64.9041C197.249 65.0693 197.001 65.3171 196.836 65.6475L192.871 72.1729Z" fill="#263238"/>
<path d="M209.011 304.91C210.005 298.785 205.846 293.015 199.722 292.021C193.598 291.027 187.828 295.186 186.834 301.31C185.84 307.434 189.999 313.205 196.123 314.199C202.247 315.193 208.017 311.034 209.011 304.91Z" fill="#F6AC3B"/>
<path opacity="0.1" d="M194.771 307.17C189.402 303.288 188.989 295.606 193.201 292.88C189.319 294.697 186.676 298.579 186.676 303.122C186.676 309.317 191.714 314.356 197.909 314.356C204.104 314.356 209.143 309.317 209.143 303.122C208.73 308.574 200.14 311.052 194.771 307.17Z" fill="black"/>
<path d="M216.907 280.655L222.772 280.738C223.268 280.738 223.846 281.068 224.094 281.564L226.902 286.189C227.15 286.602 227.15 287.346 226.902 287.759L223.928 292.797C223.681 293.21 223.02 293.541 222.524 293.541L216.66 293.458C216.164 293.458 215.586 293.128 215.338 292.632L212.53 288.007C212.282 287.594 212.282 286.85 212.53 286.437L215.503 281.399C215.834 280.986 216.412 280.573 216.907 280.655Z" fill="#37474F"/>
<path opacity="0.4" d="M226.984 287.594C227.149 287.181 226.902 286.933 226.489 286.933L220.624 286.85C220.294 286.85 219.963 287.015 219.633 287.181C219.715 287.181 219.715 287.098 219.798 287.098L216.081 280.903C216.329 280.738 216.577 280.655 216.824 280.655L222.689 280.738C223.185 280.738 223.763 281.068 224.011 281.564L226.819 286.189C227.149 286.52 227.149 287.181 226.984 287.594Z" fill="#455A64"/>
<path d="M212.53 286.355C212.282 286.768 212.282 287.511 212.53 287.924L215.338 292.55C215.586 292.963 216.081 293.293 216.577 293.376C216.164 293.293 216.081 292.963 216.247 292.632L219.22 287.594C219.385 287.346 219.551 287.181 219.798 287.015L216.081 280.82C215.834 280.986 215.586 281.151 215.503 281.399L212.53 286.355Z" fill="#263238"/>
</g>
<defs>
<clipPath id="clip0">
<rect width="407" height="300" fill="white"/>
</clipPath>
</defs>
</svg>
