<svg width="407" height="300" viewBox="0 0 407 300" fill="none" xmlns="http://www.w3.org/2000/svg">
<path d="M27.2668 149.348C27.2668 149.348 22.462 149.006 22.9196 159.665C23.3772 170.324 24.464 176.024 24.464 176.024C24.464 176.024 24.3496 178.418 22.462 177.905C20.6316 177.449 17.1424 175.112 15.4264 176.879C13.6532 178.646 14.2824 181.382 16.6276 184.631C18.9728 187.88 23.892 195.119 24.2924 195.803C24.75 196.43 24.9216 197.684 23.606 197.57C22.2904 197.456 13.4816 194.492 12.3376 198.71C11.1936 202.985 19.2016 210.851 20.0596 211.763C20.9176 212.618 20.9748 213.188 20.6316 213.758C20.2884 214.271 17.4284 213.017 14.8544 212.276C12.3376 211.535 9.24876 211.136 8.79116 213.644C8.33356 216.152 11.88 223.505 25.0932 231.2L31.4424 234.392L37.5056 230.573C49.918 221.567 52.7208 213.929 51.9772 211.478C51.2336 209.027 48.2592 209.768 45.7996 210.737C43.34 211.706 40.6516 213.302 40.2512 212.789C39.8508 212.276 39.8508 211.706 40.5944 210.794C41.338 209.825 48.5452 201.161 47.0008 197.057C45.3992 192.953 36.9336 196.772 35.6752 197.057C34.4168 197.285 34.4168 196.088 34.8172 195.404C35.1604 194.72 39.336 186.968 41.338 183.548C43.34 180.128 43.6832 177.335 41.7384 175.739C39.8508 174.2 36.6476 176.822 34.8744 177.506C33.1012 178.133 32.7008 175.796 32.7008 175.796C32.7008 175.796 33.2156 170.039 32.5864 159.38C31.9572 148.721 27.0952 149.576 27.0952 149.576" fill="#74C1C7"/>
<path d="M27.6104 158.924C27.6104 158.924 27.6104 158.981 27.6104 159.152C27.6104 159.323 27.6676 159.551 27.6676 159.836C27.7248 160.406 27.782 161.261 27.8392 162.344C28.0108 164.51 28.1824 167.702 28.4112 171.635C28.8688 179.501 29.3835 190.331 29.8983 202.244C30.4131 214.214 30.9279 225.044 31.2711 232.91C31.4427 236.843 31.6143 239.978 31.7287 242.201C31.7859 243.284 31.8431 244.139 31.8431 244.709C31.8431 244.994 31.8431 245.222 31.8431 245.393C31.8431 245.564 31.8431 245.621 31.8431 245.621C31.8431 245.621 31.8431 245.564 31.8431 245.393C31.8431 245.222 31.7859 244.994 31.7859 244.766C31.7287 244.196 31.6715 243.341 31.6143 242.258C31.4427 240.092 31.2711 236.9 31.0423 232.967C30.5847 225.101 30.0699 214.271 29.5552 202.301C29.0404 190.331 28.5256 179.501 28.1824 171.635C28.0108 167.702 27.8391 164.567 27.7247 162.344C27.6675 161.261 27.6104 160.406 27.6104 159.836C27.6104 159.551 27.6104 159.323 27.6104 159.152C27.6104 158.981 27.6104 158.924 27.6104 158.924Z" fill="#263238"/>
<path d="M20.1738 180.356C20.1738 180.356 20.3454 180.47 20.5742 180.698C20.803 180.926 21.1462 181.268 21.6038 181.667C22.4618 182.522 23.5486 183.662 24.807 184.973C26.0082 186.284 27.095 187.481 27.953 188.393C28.3534 188.792 28.6394 189.134 28.9254 189.419C29.1542 189.647 29.2686 189.818 29.2686 189.818C29.2686 189.818 29.097 189.704 28.8682 189.476C28.6394 189.248 28.2962 188.906 27.8386 188.507C26.9806 187.652 25.8938 186.455 24.6926 185.144C23.4914 183.833 22.4046 182.693 21.5466 181.781C21.1462 181.382 20.8602 181.04 20.5742 180.755C20.2882 180.47 20.1738 180.356 20.1738 180.356Z" fill="#263238"/>
<path d="M29.7833 189.59C29.7261 189.533 32.0713 187.082 34.9885 184.175C37.9057 181.211 40.3081 178.874 40.3653 178.931C40.4225 178.988 38.0772 181.439 35.16 184.346C32.2428 187.253 29.8405 189.647 29.7833 189.59Z" fill="#263238"/>
<path d="M29.7832 208.001C29.7832 208.001 29.9548 207.887 30.2408 207.716C30.584 207.545 30.9844 207.317 31.4992 207.032C32.5288 206.462 34.016 205.607 35.5604 204.638C37.1048 203.669 38.5348 202.757 39.5072 202.073C39.9648 201.788 40.3652 201.503 40.7084 201.275C40.9944 201.104 41.166 200.99 41.166 200.99C41.166 200.99 41.0516 201.104 40.7656 201.332C40.4796 201.56 40.1364 201.845 39.6216 202.187C38.6492 202.871 37.2764 203.84 35.6748 204.809C34.0732 205.778 32.6432 206.576 31.5564 207.146C31.0416 207.431 30.584 207.659 30.298 207.773C29.9548 207.944 29.7832 208.001 29.7832 208.001Z" fill="#263238"/>
<path d="M19.2021 201.56C19.2021 201.56 19.3737 201.617 19.6597 201.788C19.9457 201.959 20.3461 202.13 20.8037 202.415C21.7761 202.985 23.0918 203.726 24.579 204.581C26.0662 205.436 27.3818 206.234 28.297 206.861C28.7546 207.146 29.155 207.374 29.441 207.545C29.727 207.716 29.8414 207.83 29.8414 207.83C29.8414 207.83 29.6698 207.773 29.3838 207.602C29.0978 207.431 28.6974 207.26 28.2398 206.975C27.2674 206.405 25.9518 205.664 24.4646 204.809C22.9774 203.954 21.6618 203.156 20.7465 202.529C20.2889 202.244 19.8885 202.016 19.6025 201.845C19.3165 201.674 19.2021 201.56 19.2021 201.56Z" fill="#263238"/>
<path d="M17.085 217.805C17.085 217.805 17.3138 217.862 17.657 218.09C18.0574 218.318 18.5722 218.603 19.1442 218.888C20.4026 219.572 22.1186 220.541 24.0062 221.681C25.8938 222.764 27.6098 223.79 28.811 224.531C29.383 224.873 29.8978 225.158 30.241 225.386C30.5842 225.614 30.7558 225.728 30.7558 225.728C30.7558 225.728 30.527 225.671 30.1838 225.443C29.7834 225.215 29.2686 224.93 28.6966 224.645C27.4382 223.961 25.7222 222.992 23.8346 221.852C21.947 220.769 20.231 219.743 19.0298 219.002C18.4578 218.66 17.943 218.375 17.5998 218.147C17.3138 217.919 17.085 217.805 17.085 217.805Z" fill="#263238"/>
<path d="M30.5273 225.443C30.5273 225.443 30.6989 225.272 31.0993 225.101C31.4997 224.873 32.0145 224.531 32.6437 224.189C33.9593 223.391 35.7325 222.308 37.7345 220.997C39.6793 219.743 41.4525 218.546 42.7109 217.634C43.2829 217.235 43.7977 216.893 44.1981 216.608C44.5413 216.38 44.7701 216.266 44.7701 216.266C44.7701 216.266 44.5985 216.437 44.2553 216.722C43.9121 217.007 43.4545 217.349 42.8253 217.805C41.5669 218.717 39.8509 219.914 37.9061 221.225C35.9613 222.479 34.1309 223.562 32.8153 224.36C32.1289 224.759 31.6141 225.044 31.2137 225.215C30.7561 225.386 30.5273 225.443 30.5273 225.443Z" fill="#263238"/>
<path d="M40.0795 236.387H22.4619L28.1819 279.821H34.3595L40.0795 236.387Z" fill="#4B5A62"/>
<path d="M23.377 241.745C23.377 241.745 23.377 241.802 23.4914 241.916C23.5486 242.03 23.7202 242.144 23.8918 242.201C24.2922 242.372 25.0358 242.372 25.7794 241.973C26.4658 241.574 27.095 240.833 28.0674 240.491C29.0398 240.149 30.1838 240.206 31.3278 240.548C32.4718 240.89 33.4442 241.46 34.3594 242.03C35.2746 242.543 36.0754 243.056 36.819 243.341C37.5626 243.683 38.1918 243.797 38.6494 243.854C38.8782 243.911 39.0498 243.911 39.1642 243.911C39.2786 243.911 39.3358 243.911 39.3358 243.911C39.3358 243.854 38.3634 243.854 36.9334 243.17C36.247 242.828 35.4462 242.372 34.531 241.802C33.673 241.232 32.6434 240.662 31.4422 240.32C30.2982 239.921 29.0398 239.864 28.0102 240.263C27.4954 240.434 27.095 240.776 26.6946 241.061C26.3514 241.346 26.0082 241.631 25.665 241.859C25.0358 242.258 24.3494 242.315 23.949 242.144C23.4914 241.973 23.377 241.745 23.377 241.745Z" fill="#263238"/>
<path d="M24.0059 249.725C24.0059 249.725 24.1203 249.554 24.4063 249.269C24.6923 248.984 25.1499 248.642 25.8363 248.357C26.5227 248.129 27.3235 247.958 28.2959 248.015C29.2683 248.072 30.2979 248.243 31.3847 248.414C32.4715 248.585 33.5583 248.699 34.5307 248.528C35.5031 248.414 36.3611 248.129 36.9903 247.844C37.6767 247.559 38.1343 247.217 38.4775 246.989C38.8207 246.761 38.9351 246.59 38.9351 246.59C38.8779 246.533 38.2487 247.16 36.8759 247.73C36.1895 248.015 35.3887 248.243 34.4735 248.357C33.5583 248.471 32.4715 248.414 31.3847 248.186C30.2979 248.015 29.2683 247.787 28.2959 247.787C27.3235 247.787 26.4655 247.958 25.7791 248.243C25.0927 248.528 24.6351 248.927 24.3491 249.269C24.2347 249.44 24.1203 249.554 24.0631 249.668C24.0059 249.725 24.0059 249.725 24.0059 249.725Z" fill="#263238"/>
<path d="M38.0773 254.057C38.0773 254.057 37.9057 253.943 37.6197 253.829C37.2765 253.715 36.7617 253.544 36.1325 253.544C35.5033 253.487 34.7597 253.544 33.9017 253.658C33.1009 253.772 32.1857 254 31.2705 254.228C30.3553 254.399 29.4401 254.57 28.6393 254.513C27.8385 254.513 27.0949 254.285 26.5801 254.057C25.4361 253.544 25.0357 252.86 24.9785 252.86C24.9785 252.86 25.0357 253.031 25.2645 253.316C25.4933 253.601 25.8937 253.943 26.4657 254.228C27.0377 254.513 27.7813 254.741 28.6393 254.741C29.4973 254.798 30.4125 254.684 31.3277 254.456C32.2429 254.285 33.1581 254 33.9589 253.886C34.7597 253.715 35.5033 253.658 36.1325 253.715C37.3909 253.715 38.0773 254.114 38.0773 254.057Z" fill="#263238"/>
<path d="M25.5508 260.042C25.5508 260.099 26.18 259.643 27.2668 259.871C27.7816 259.985 28.4108 260.213 29.04 260.555C29.7264 260.84 30.5272 261.125 31.3852 261.182C33.1012 261.353 34.6456 260.783 35.618 260.213C36.0756 259.928 36.4188 259.643 36.6476 259.415C36.8764 259.187 36.9908 259.073 36.9336 259.016C36.8764 258.959 36.4188 259.472 35.4464 260.042C34.474 260.555 32.9868 261.068 31.328 260.897C29.6692 260.783 28.3536 259.814 27.2096 259.7C26.6376 259.643 26.18 259.7 25.894 259.814C25.6652 259.928 25.5508 260.042 25.5508 260.042Z" fill="#263238"/>
<path d="M26.5234 268.421C26.5234 268.478 27.0954 268.478 28.0106 268.136C28.9258 267.851 30.0126 267.167 31.271 266.654C31.9002 266.426 32.5866 266.255 33.1586 266.255C33.7306 266.255 34.2454 266.426 34.6458 266.597C35.4466 266.996 35.6754 267.566 35.7326 267.509C35.7326 267.509 35.7326 267.338 35.561 267.167C35.4466 266.939 35.1606 266.654 34.7602 266.426C34.3598 266.198 33.7878 266.027 33.1586 265.97C32.5294 265.97 31.843 266.084 31.1566 266.369C29.841 266.882 28.7542 267.566 27.8962 267.908C27.0954 268.25 26.5234 268.364 26.5234 268.421Z" fill="#263238"/>
<path d="M27.4385 272.297C27.4385 272.354 27.8389 272.468 28.5825 272.639C29.2689 272.81 30.2985 272.981 31.3853 273.095C32.4721 273.209 33.5017 273.209 34.1881 273.152C34.9317 273.095 35.3321 273.038 35.3321 273.038C35.3321 272.924 33.5589 273.038 31.3853 272.81C29.1545 272.639 27.4385 272.183 27.4385 272.297Z" fill="#263238"/>
<path d="M384.938 56.8945L352.449 45.2665L320.302 56.7235C316.184 58.6615 312.58 59.8015 312.58 63.6205V82.6015C312.58 95.7685 316.069 108.821 323.162 120.392C329.168 130.082 338.435 140.057 352.735 146.441C365.891 142.166 375.672 130.823 381.678 121.133C388.828 109.619 392.26 96.5665 392.26 83.3425V66.2995C392.317 60.8275 389.457 58.2055 384.938 56.8945Z" fill="#64B9FF"/>
<path d="M352.792 135.383C341.466 130.367 334.144 122.273 329.397 114.635C323.734 105.515 320.988 95.1985 320.988 84.7675V71.4295C320.988 68.4085 322.819 65.6155 326.422 63.9055L352.448 54.2155V45.2665L320.302 56.7235C316.927 58.2055 312.58 59.8015 312.58 63.6205V82.6015C312.58 95.7685 316.069 108.821 323.162 120.392C329.168 130.082 338.434 140.057 352.735 146.441V135.383H352.792Z" fill="#53A2F1"/>
<path d="M352.791 146.441C355.079 145.7 357.139 144.788 359.198 143.705C364.575 140.798 369.208 136.751 372.697 133.103C376.644 129.056 379.561 124.61 382.078 120.506C389.228 108.992 392.66 95.939 392.374 82.373V66.698C392.374 58.889 388.313 58.319 384.938 56.837L352.448 45.209V54.158L378.76 64.019C382.364 65.729 384.194 68.522 384.194 71.543V84.881C384.194 95.312 381.449 105.629 375.786 114.749C371.038 122.444 364.003 130.367 352.677 135.383V146.441H352.791Z" fill="#53A2F1"/>
<path d="M361.085 83.912L361.143 81.347C361.143 76.73 357.367 72.968 352.734 72.968C348.101 72.968 344.326 76.73 344.326 81.347L344.269 83.969C341.981 84.311 340.265 86.249 340.265 88.586V103.691C340.265 106.313 342.381 108.365 344.955 108.365H360.685C363.316 108.365 365.375 106.256 365.375 103.691V88.586C365.375 86.135 363.488 84.14 361.085 83.912ZM354.908 99.929H350.789L351.419 96.965C350.732 96.509 350.217 95.711 350.217 94.856C350.217 93.488 351.361 92.348 352.734 92.348C354.107 92.348 355.251 93.488 355.251 94.856C355.251 95.711 354.793 96.509 354.164 96.908C354.45 98.048 354.908 99.929 354.908 99.929ZM359.255 83.855H346.042L346.099 81.29C346.099 77.642 349.073 74.678 352.734 74.678C356.395 74.678 359.369 77.642 359.369 81.233L359.255 83.855Z" fill="#F6AC3B"/>
<path d="M326.25 83.684C326.193 83.684 325.965 82.715 325.736 81.062C325.564 79.409 325.392 77.129 325.45 74.621C325.507 73.367 325.564 72.17 325.678 71.087C325.793 70.004 325.965 68.978 326.422 68.237C326.823 67.496 327.395 67.04 327.852 66.812C328.31 66.584 328.596 66.641 328.596 66.641C328.653 66.698 327.509 66.926 326.822 68.408C326.479 69.092 326.308 70.061 326.25 71.144C326.193 72.227 326.079 73.424 326.079 74.678C326.022 77.186 326.079 79.409 326.193 81.062C326.251 82.658 326.308 83.684 326.25 83.684Z" fill="white"/>
<path d="M326.708 91.949C326.537 91.949 326.422 91.151 326.365 90.182C326.365 89.213 326.48 88.415 326.594 88.415C326.766 88.415 326.88 89.213 326.937 90.182C326.994 91.208 326.88 91.949 326.708 91.949Z" fill="white"/>
<path d="M399.467 279.878C399.467 279.935 312.18 280.049 204.472 280.049C96.7648 280.049 9.47754 279.992 9.47754 279.878C9.47754 279.764 96.7648 279.707 204.472 279.707C312.18 279.764 399.467 279.821 399.467 279.878Z" fill="#263238"/>
<path d="M329.912 61.397H81.6644C77.3744 61.397 73.9424 64.874 73.9424 69.092V243.797C73.9424 248.072 77.4316 251.492 81.6644 251.492H176.902C176.902 251.492 182.966 270.188 164.204 279.821H253.264C253.264 279.821 232.043 272.582 237.534 251.492H329.912C334.202 251.492 337.634 248.015 337.634 243.797V69.092C337.634 64.817 334.145 61.397 329.912 61.397Z" fill="#455A64"/>
<path d="M209.106 233.138C212.481 237.926 207.219 243.227 202.357 239.864C202.185 239.75 202.071 239.636 201.956 239.465C198.581 234.677 203.844 229.376 208.706 232.739C208.82 232.853 208.992 232.967 209.106 233.138Z" fill="#263238"/>
<path d="M333.344 219.572H78.2324V70.118C78.2324 67.04 80.692 64.589 83.7808 64.589H327.853C330.942 64.589 333.402 67.04 333.402 70.118V219.572H333.344Z" fill="#64B9FF"/>
<path d="M333.344 77.471H78.2324V69.776C78.2324 66.869 80.5776 64.532 83.4948 64.532H329.112C331.514 64.532 333.402 66.47 333.402 68.807V77.471H333.344Z" fill="#53A2F1"/>
<path d="M86.3552 73.025C87.3345 73.025 88.1284 72.2339 88.1284 71.258C88.1284 70.2821 87.3345 69.491 86.3552 69.491C85.3759 69.491 84.582 70.2821 84.582 71.258C84.582 72.2339 85.3759 73.025 86.3552 73.025Z" fill="#E0E0E0"/>
<path d="M91.6746 73.025C92.6539 73.025 93.4478 72.2339 93.4478 71.258C93.4478 70.2821 92.6539 69.491 91.6746 69.491C90.6953 69.491 89.9014 70.2821 89.9014 71.258C89.9014 72.2339 90.6953 73.025 91.6746 73.025Z" fill="#E0E0E0"/>
<path d="M96.7654 73.025C97.7447 73.025 98.5386 72.2339 98.5386 71.258C98.5386 70.2821 97.7447 69.491 96.7654 69.491C95.7861 69.491 94.9922 70.2821 94.9922 71.258C94.9922 72.2339 95.7861 73.025 96.7654 73.025Z" fill="#E0E0E0"/>
<path d="M285.525 251.549C285.525 251.606 250.233 251.72 206.646 251.72C163.06 251.72 127.768 251.663 127.768 251.549C127.768 251.492 163.06 251.378 206.646 251.378C250.176 251.378 285.525 251.435 285.525 251.549Z" fill="#263238"/>
<path d="M245.199 99.245L206.303 84.938L167.75 99.017C162.831 101.411 158.541 102.836 158.541 107.51V130.88C158.541 147.068 162.717 163.142 171.239 177.278C178.447 189.191 189.543 201.446 206.703 209.255C222.433 204.011 234.217 190.103 241.367 178.19C249.889 163.997 254.065 147.98 254.065 131.792V110.816C254.065 104.147 250.576 100.841 245.199 99.245Z" fill="#CDE5FA"/>
<g opacity="0.8">
<g opacity="0.8">
<g opacity="0.8">
<path opacity="0.8" d="M245.199 99.245L206.303 84.938L167.75 99.017C162.831 101.411 158.541 102.836 158.541 107.51V130.88C158.541 147.068 162.717 163.142 171.239 177.278C178.447 189.191 189.543 201.446 206.703 209.255C222.433 204.011 234.217 190.103 241.367 178.19C249.889 163.997 254.065 147.98 254.065 131.792V110.816C254.065 104.147 250.576 100.841 245.199 99.245Z" fill="white"/>
</g>
</g>
</g>
<path d="M230.04 158.297H222.89V119.537C222.89 110.417 215.454 103.007 206.302 103.007C197.15 103.007 189.714 110.417 189.714 119.537V158.297H182.564V119.537C182.564 106.484 193.204 95.882 206.302 95.882C219.401 95.882 230.04 106.484 230.04 119.537V158.297Z" fill="#F6AC3B"/>
<g opacity="0.4">
<g opacity="0.4">
<path opacity="0.4" d="M230.04 158.297H222.89V119.537C222.89 110.417 215.454 103.007 206.302 103.007C197.15 103.007 189.714 110.417 189.714 119.537V158.297H182.564V119.537C182.564 106.484 193.204 95.882 206.302 95.882C219.401 95.882 230.04 106.484 230.04 119.537V158.297Z" fill="black"/>
</g>
</g>
<path d="M234.96 181.952H177.588C175.758 181.952 174.271 180.47 174.271 178.646V144.332C174.271 142.508 175.758 141.026 177.588 141.026H234.96C236.79 141.026 238.277 142.508 238.277 144.332V178.646C238.277 180.47 236.79 181.952 234.96 181.952Z" fill="#F6AC3B"/>
<g opacity="0.5">
<path opacity="0.5" d="M211.622 156.188C211.622 153.224 209.219 150.83 206.245 150.83C203.271 150.83 200.868 153.224 200.868 156.188C200.868 158.639 202.527 160.634 204.758 161.318V169.298H207.675V161.318C209.963 160.634 211.622 158.639 211.622 156.188Z" fill="black"/>
</g>
<path d="M177.702 178.076C177.53 178.076 177.416 171.236 177.416 162.857C177.416 154.421 177.53 147.581 177.702 147.581C177.874 147.581 177.988 154.421 177.988 162.857C177.931 171.293 177.816 178.076 177.702 178.076Z" fill="#FAFAFA"/>
<path d="M202.07 163.028C202.07 163.028 201.841 162.971 201.441 162.686C201.04 162.401 200.583 161.945 200.068 161.261C199.095 159.95 198.18 157.613 198.752 155.048C199.381 152.483 201.269 150.773 202.756 150.089C203.5 149.69 204.186 149.519 204.644 149.462C205.101 149.405 205.387 149.405 205.387 149.405C205.387 149.519 204.358 149.576 202.985 150.431C201.612 151.172 199.896 152.825 199.324 155.219C198.752 157.556 199.553 159.836 200.411 161.09C201.269 162.401 202.184 162.914 202.07 163.028Z" fill="#FAFAFA"/>
<path d="M254.408 200.249C254.408 200.249 254.58 200.021 254.866 199.622C254.923 199.508 255.037 199.394 255.152 199.28C255.266 199.166 255.323 198.995 255.438 198.824C255.609 198.482 255.838 198.14 256.01 197.627C256.124 197.399 256.239 197.171 256.296 196.886C256.353 196.601 256.467 196.316 256.525 196.031C256.639 195.746 256.696 195.404 256.696 195.062C256.753 194.72 256.811 194.378 256.868 194.036C257.039 192.611 256.925 190.901 256.639 189.02C256.067 185.258 254.465 180.869 252.006 176.081C249.546 171.293 246.229 166.106 242.11 160.748C237.992 155.39 233.073 149.804 227.353 144.218C221.633 138.632 215.226 133.046 207.962 127.745C204.358 125.123 200.526 122.501 196.522 120.107C192.518 117.656 188.285 115.433 183.823 113.438C179.362 111.5 174.614 109.79 169.695 108.992C167.235 108.593 164.661 108.422 162.145 108.821C160.886 108.992 159.685 109.334 158.484 109.847C157.34 110.417 156.31 111.158 155.452 112.07C154.594 113.039 154.022 114.179 153.565 115.376C153.164 116.573 152.993 117.827 152.935 119.081C152.821 121.589 153.336 124.097 153.965 126.548C155.338 131.393 157.569 135.839 159.971 140.057C162.431 144.275 165.176 148.208 168.036 151.913C170.896 155.618 173.928 159.095 176.959 162.401C183.08 168.956 189.372 174.713 195.607 179.729C201.841 184.745 207.905 189.02 213.739 192.44C219.573 195.917 225.122 198.653 230.155 200.477C235.189 202.358 239.765 203.441 243.597 203.555C245.485 203.612 247.201 203.555 248.631 203.213C248.974 203.156 249.317 203.042 249.661 202.928C250.004 202.814 250.29 202.757 250.576 202.643C250.862 202.529 251.148 202.415 251.377 202.301C251.605 202.187 251.834 202.016 252.063 201.902C252.521 201.674 252.864 201.389 253.15 201.161C253.321 201.047 253.436 200.933 253.55 200.876C253.665 200.762 253.779 200.648 253.836 200.591C254.179 200.42 254.408 200.249 254.408 200.249C254.408 200.249 254.237 200.42 253.836 200.819C253.722 200.933 253.665 200.99 253.55 201.104C253.436 201.218 253.264 201.332 253.15 201.446C252.864 201.674 252.521 201.959 252.063 202.187C251.834 202.301 251.605 202.472 251.377 202.586C251.091 202.7 250.862 202.814 250.576 202.928C250.29 203.042 250.004 203.156 249.661 203.213C249.317 203.27 248.974 203.441 248.631 203.498C247.201 203.84 245.485 203.954 243.597 203.897C239.765 203.783 235.189 202.7 230.155 200.876C225.065 199.052 219.516 196.316 213.682 192.839C207.847 189.362 201.727 185.144 195.492 180.128C189.257 175.112 182.965 169.355 176.788 162.8C173.756 159.494 170.725 156.017 167.865 152.312C165.005 148.607 162.259 144.674 159.742 140.456C157.283 136.238 155.052 131.735 153.679 126.89C152.993 124.439 152.535 121.931 152.649 119.366C152.707 118.055 152.878 116.801 153.279 115.547C153.736 114.293 154.365 113.153 155.223 112.184C156.139 111.215 157.225 110.474 158.369 109.904C159.571 109.391 160.829 109.049 162.087 108.821C164.661 108.422 167.235 108.65 169.752 108.992C174.786 109.79 179.476 111.5 183.995 113.438C188.457 115.433 192.747 117.656 196.751 120.107C200.755 122.558 204.587 125.123 208.191 127.745C215.398 133.046 221.861 138.689 227.581 144.275C233.244 149.861 238.221 155.447 242.339 160.862C246.457 166.277 249.775 171.407 252.235 176.252C254.637 181.04 256.239 185.486 256.811 189.248C257.097 191.129 257.154 192.839 257.039 194.264C257.039 194.606 256.925 194.948 256.868 195.29C256.811 195.632 256.753 195.917 256.639 196.259C256.582 196.544 256.467 196.829 256.41 197.114C256.296 197.399 256.181 197.627 256.124 197.855C255.953 198.311 255.724 198.71 255.495 199.052C255.381 199.223 255.323 199.394 255.209 199.508C255.095 199.622 255.037 199.736 254.923 199.85C254.58 200.021 254.408 200.249 254.408 200.249Z" fill="#F6AC3B"/>
<path d="M272.713 156.188C272.713 156.188 272.713 155.903 272.655 155.39C272.655 155.276 272.655 155.105 272.598 154.934C272.598 154.763 272.541 154.592 272.484 154.421C272.427 154.079 272.312 153.623 272.141 153.167C272.026 152.939 271.969 152.654 271.855 152.426C271.74 152.198 271.626 151.913 271.454 151.628C271.34 151.343 271.168 151.058 270.997 150.773C270.825 150.488 270.653 150.203 270.425 149.918C269.567 148.721 268.365 147.524 266.935 146.327C264.018 143.933 259.9 141.71 254.866 139.715C249.833 137.777 243.884 136.124 237.249 134.813C230.556 133.502 223.177 132.647 215.227 132.248C207.276 131.849 198.696 131.963 189.773 132.818C185.311 133.217 180.735 133.844 176.102 134.699C171.469 135.554 166.835 136.694 162.145 138.176C157.512 139.715 152.879 141.539 148.646 144.275C146.529 145.643 144.527 147.182 142.869 149.12C142.068 150.089 141.381 151.172 140.867 152.312C140.409 153.509 140.123 154.706 140.066 156.017C140.066 157.271 140.352 158.525 140.867 159.722C141.381 160.862 142.068 161.945 142.869 162.914C144.47 164.852 146.529 166.448 148.646 167.759C152.879 170.438 157.512 172.319 162.145 173.858C166.778 175.34 171.469 176.48 176.102 177.335C180.735 178.19 185.311 178.817 189.773 179.216C198.696 180.071 207.276 180.128 215.227 179.786C223.177 179.387 230.613 178.532 237.249 177.221C243.884 175.91 249.833 174.314 254.866 172.319C259.9 170.381 264.018 168.158 266.935 165.707C268.423 164.51 269.624 163.313 270.425 162.116C270.653 161.831 270.825 161.546 270.997 161.261C271.168 160.976 271.34 160.691 271.454 160.406C271.569 160.121 271.74 159.893 271.855 159.608C271.969 159.323 272.026 159.095 272.141 158.867C272.312 158.411 272.427 157.955 272.484 157.613C272.541 157.442 272.541 157.271 272.598 157.1C272.598 156.929 272.598 156.815 272.655 156.701C272.655 156.416 272.713 156.188 272.713 156.188C272.713 156.188 272.713 156.473 272.655 156.986C272.655 157.1 272.655 157.271 272.655 157.442C272.655 157.613 272.598 157.784 272.541 157.955C272.484 158.354 272.369 158.753 272.198 159.209C272.141 159.437 272.026 159.722 271.912 159.95C271.797 160.178 271.683 160.463 271.511 160.748C271.397 161.033 271.225 161.318 271.054 161.603C270.882 161.888 270.711 162.173 270.482 162.458C269.624 163.655 268.423 164.852 266.993 166.049C264.075 168.5 259.9 170.723 254.923 172.718C249.89 174.713 243.941 176.366 237.249 177.677C230.556 178.988 223.177 179.843 215.169 180.242C207.161 180.641 198.639 180.527 189.658 179.729C185.197 179.33 180.621 178.703 175.987 177.848C171.354 176.993 166.664 175.853 162.031 174.371C157.397 172.832 152.707 170.951 148.417 168.272C146.301 166.904 144.241 165.308 142.583 163.313C141.782 162.344 141.038 161.204 140.523 160.007C140.009 158.81 139.723 157.499 139.723 156.188C139.723 154.877 140.066 153.566 140.523 152.369C141.038 151.172 141.782 150.089 142.583 149.12C144.241 147.125 146.301 145.586 148.417 144.218C152.707 141.482 157.34 139.601 161.973 138.119C166.607 136.637 171.297 135.497 175.93 134.642C180.563 133.787 185.139 133.16 189.601 132.761C198.581 131.906 207.104 131.849 215.112 132.248C223.12 132.647 230.499 133.502 237.191 134.813C243.884 136.124 249.833 137.777 254.866 139.772C259.9 141.767 264.018 143.99 266.935 146.441C268.423 147.638 269.624 148.835 270.425 150.032C270.653 150.317 270.825 150.659 270.997 150.887C271.168 151.172 271.34 151.457 271.454 151.742C271.569 152.027 271.74 152.312 271.855 152.54C271.969 152.825 272.026 153.053 272.141 153.281C272.312 153.737 272.369 154.193 272.484 154.535C272.541 154.706 272.541 154.877 272.598 155.048C272.598 155.219 272.598 155.333 272.598 155.504C272.713 155.903 272.713 156.188 272.713 156.188Z" fill="#F6AC3B"/>
<path d="M248.459 101.354C248.459 101.354 248.23 101.24 247.83 100.955C247.715 100.898 247.601 100.784 247.486 100.727C247.372 100.67 247.2 100.556 247.029 100.499C246.686 100.328 246.285 100.157 245.828 99.986C245.599 99.929 245.37 99.815 245.084 99.758C244.798 99.701 244.512 99.644 244.226 99.587C243.94 99.53 243.597 99.473 243.254 99.473C242.91 99.473 242.567 99.359 242.224 99.416C240.737 99.359 239.078 99.587 237.248 99.986C233.53 100.841 229.24 102.722 224.606 105.458C219.973 108.194 215.054 111.899 209.963 116.345C204.872 120.791 199.61 126.092 194.462 132.134C189.257 138.176 184.109 144.959 179.304 152.54C176.902 156.302 174.614 160.292 172.44 164.453C170.266 168.614 168.322 173.003 166.663 177.563C165.061 182.123 163.688 186.968 163.231 191.927C163.002 194.435 163.002 196.943 163.574 199.451C163.86 200.705 164.26 201.902 164.89 202.985C165.519 204.068 166.32 205.094 167.349 205.892C168.379 206.633 169.523 207.203 170.781 207.545C172.04 207.83 173.298 207.944 174.556 207.944C177.073 207.887 179.59 207.203 181.935 206.405C186.683 204.695 191.03 202.187 195.034 199.508C199.095 196.772 202.813 193.751 206.302 190.673C209.792 187.538 213.109 184.346 216.198 181.097C222.318 174.542 227.638 167.873 232.214 161.375C236.79 154.877 240.622 148.493 243.711 142.451C246.8 136.409 249.145 130.709 250.632 125.579C252.177 120.449 252.92 115.832 252.806 112.013C252.749 110.132 252.52 108.422 252.12 107.054C252.062 106.712 251.891 106.37 251.776 106.085C251.662 105.743 251.548 105.458 251.433 105.173C251.319 104.888 251.147 104.66 251.033 104.375C250.918 104.147 250.747 103.919 250.632 103.691C250.404 103.235 250.06 102.95 249.832 102.665C249.717 102.494 249.603 102.38 249.488 102.266C249.374 102.152 249.26 102.038 249.145 101.981C248.63 101.525 248.459 101.354 248.459 101.354C248.459 101.354 248.688 101.525 249.031 101.867C249.145 101.924 249.26 102.038 249.374 102.152C249.488 102.266 249.603 102.38 249.717 102.551C249.946 102.836 250.289 103.178 250.518 103.577C250.632 103.805 250.804 103.976 250.976 104.261C251.09 104.489 251.204 104.774 251.376 105.059C251.548 105.344 251.662 105.629 251.776 105.971C251.891 106.313 252.062 106.598 252.12 106.94C252.577 108.365 252.749 110.018 252.863 111.899C252.978 115.718 252.234 120.335 250.747 125.522C249.26 130.709 246.914 136.409 243.826 142.451C240.794 148.493 236.904 154.877 232.328 161.432C227.752 167.987 222.433 174.656 216.312 181.211C213.224 184.46 209.963 187.709 206.417 190.844C202.928 193.979 199.152 196.943 195.091 199.736C191.03 202.472 186.683 204.98 181.935 206.69C179.533 207.545 177.016 208.172 174.442 208.229C173.126 208.286 171.868 208.172 170.552 207.83C169.294 207.488 168.093 206.918 167.006 206.12C165.976 205.322 165.118 204.296 164.489 203.156C163.86 202.016 163.46 200.762 163.174 199.508C162.602 197 162.602 194.435 162.83 191.927C163.288 186.911 164.661 182.066 166.32 177.506C167.978 172.889 169.98 168.557 172.097 164.396C174.27 160.235 176.558 156.245 178.961 152.483C183.766 144.902 188.971 138.119 194.176 132.077C199.381 126.035 204.644 120.734 209.734 116.288C214.825 111.842 219.802 108.137 224.435 105.401C229.068 102.665 233.415 100.784 237.133 99.986C238.964 99.587 240.68 99.359 242.167 99.416C242.51 99.416 242.91 99.473 243.196 99.473C243.54 99.53 243.883 99.53 244.169 99.587C244.455 99.644 244.741 99.701 245.027 99.758C245.313 99.815 245.542 99.929 245.77 99.986C246.228 100.1 246.628 100.328 246.972 100.499C247.143 100.613 247.315 100.67 247.429 100.727C247.544 100.841 247.658 100.898 247.772 100.955C248.23 101.183 248.459 101.354 248.459 101.354Z" fill="#F6AC3B"/>
<path d="M137.434 187.709C138.793 187.709 139.894 186.612 139.894 185.258C139.894 183.904 138.793 182.807 137.434 182.807C136.076 182.807 134.975 183.904 134.975 185.258C134.975 186.612 136.076 187.709 137.434 187.709Z" fill="#F6AC3B"/>
<path d="M278.318 107.339C278.318 108.707 277.231 109.79 275.858 109.79C274.485 109.79 273.398 108.707 273.398 107.339C273.398 105.971 274.485 104.888 275.858 104.888C277.231 104.888 278.318 105.971 278.318 107.339Z" fill="#F6AC3B"/>
<path d="M154.709 191.585C154.709 191.927 154.423 192.212 154.079 192.212C153.736 192.212 153.45 191.927 153.45 191.585C153.45 191.243 153.736 190.958 154.079 190.958C154.423 190.958 154.709 191.243 154.709 191.585Z" fill="#F6AC3B"/>
<path d="M168.093 122.729C168.093 123.071 167.807 123.356 167.464 123.356C167.121 123.356 166.835 123.071 166.835 122.729C166.835 122.387 167.121 122.102 167.464 122.102C167.807 122.102 168.093 122.387 168.093 122.729Z" fill="#F6AC3B"/>
<path d="M265.905 156.188C265.905 156.53 265.619 156.815 265.276 156.815C264.932 156.815 264.646 156.53 264.646 156.188C264.646 155.846 264.932 155.561 265.276 155.561C265.619 155.561 265.905 155.846 265.905 156.188Z" fill="#F6AC3B"/>
<path d="M274.657 127.061C274.657 127.403 274.371 127.688 274.028 127.688C273.684 127.688 273.398 127.403 273.398 127.061C273.398 126.719 273.684 126.434 274.028 126.434C274.371 126.434 274.657 126.719 274.657 127.061Z" fill="#F6AC3B"/>
<path d="M375.386 220.313C378.131 218.603 381.277 217.52 384.538 217.178C386.025 217.007 387.684 217.064 388.828 217.976C389.057 218.147 389.343 218.432 389.285 218.774C389.228 219.002 389.057 219.173 388.885 219.287C385.167 222.137 379.561 222.479 375.386 220.313Z" fill="#74C1C7"/>
<path d="M375.615 220.085C377.674 218.489 379.734 216.836 381.507 214.898C383.28 212.96 384.653 210.623 385.225 208.115C385.396 207.317 385.454 206.462 384.939 205.835C380.248 209.483 376.53 214.157 375.615 220.085Z" fill="#74C1C7"/>
<path d="M375.443 220.256C375.787 217.691 375.901 215.069 375.329 212.561C374.757 210.053 373.384 207.659 371.211 206.177C370.41 208.058 370.753 210.224 371.325 212.219C372.183 215.297 373.613 218.204 375.386 220.769" fill="#74C1C7"/>
<path d="M370.867 228.521C373.67 228.863 376.072 230.345 378.189 232.226C380.305 234.107 381.735 236.672 382.364 239.408C379.619 239.237 377.274 237.299 375.615 235.133C373.899 232.967 372.755 230.573 370.867 228.521Z" fill="#74C1C7"/>
<path d="M369.838 229.832C372.069 224.303 371.268 217.634 367.779 212.789C366.177 218.432 366.749 224.816 369.838 229.832Z" fill="#74C1C7"/>
<path d="M363.774 237.071C366.291 236.9 368.865 237.527 371.096 238.781C373.327 240.035 375.1 241.973 376.244 244.253C376.416 244.538 376.53 244.937 376.301 245.222C376.13 245.45 375.786 245.507 375.5 245.45C373.041 245.279 370.867 243.797 369.037 242.144C367.264 240.434 365.662 238.496 363.774 237.071Z" fill="#74C1C7"/>
<path d="M363.946 236.672C365.262 232.511 365.319 227.951 364.175 223.733C363.717 222.08 362.974 220.313 361.429 219.515C361.315 219.458 361.143 219.401 361.029 219.458C360.915 219.515 360.8 219.629 360.743 219.743C360.171 220.883 360.057 222.194 360.114 223.448C360.171 224.702 360.457 225.956 360.686 227.21C361.201 229.49 361.429 231.998 362.688 233.936C362.974 234.392 363.26 234.905 363.489 235.418C363.717 235.931 363.717 236.102 363.946 236.501" fill="#74C1C7"/>
<path d="M347.815 239.066C349.017 234.563 347.758 229.034 344.898 225.329C344.669 225.044 344.383 224.759 344.04 224.816C343.525 224.873 343.354 225.557 343.411 226.07C343.64 230.687 345.184 235.247 347.815 239.066Z" fill="#74C1C7"/>
<path d="M346.385 240.035C340.894 241.46 334.545 240.092 329.969 236.729C332.714 235.361 335.918 234.962 338.892 235.646C341.809 236.273 344.555 237.641 346.385 240.035Z" fill="#74C1C7"/>
<path d="M345.184 237.014C342.095 231.998 336.146 228.692 330.255 228.407C330.941 230.801 332.886 232.682 335.117 233.765C337.348 234.905 339.807 235.361 342.267 235.874C343.239 236.045 344.555 236.273 345.184 237.014Z" fill="#74C1C7"/>
<path d="M347.529 222.422C346.671 219.572 345.87 216.665 345.642 213.701C345.413 210.737 345.813 207.659 347.358 205.094C350.218 210.68 350.561 217.178 347.586 222.707" fill="#74C1C7"/>
<path d="M337.806 217.52C334.431 211.421 327.567 206.519 320.589 205.835C323.277 212.504 330.599 217.634 337.806 217.52Z" fill="#74C1C7"/>
<path d="M339.922 218.717C334.888 219.458 330.598 222.707 325.908 224.645C324.878 225.044 323.792 225.386 322.762 225.272C321.675 225.158 320.646 224.417 320.36 223.334C320.131 222.479 320.588 221.51 321.218 220.883C321.847 220.256 322.705 219.857 323.506 219.515C328.654 217.406 334.145 217.349 339.522 218.603" fill="#74C1C7"/>
<path d="M342.839 222.194C341.695 222.536 341.294 223.106 340.379 223.847C337.29 226.469 333.63 228.35 329.74 229.319C329.34 229.433 328.825 229.433 328.596 229.091C328.424 228.749 328.653 228.407 328.882 228.122C330.541 226.07 332.829 224.702 335.288 223.79C337.748 222.878 339.864 221.795 342.782 222.023" fill="#74C1C7"/>
<path d="M346.157 200.99C342.039 204.809 336.319 206.747 330.713 206.234C330.484 206.234 330.198 206.177 330.027 206.006C329.626 205.607 330.084 204.923 330.541 204.581C335.06 200.99 340.551 199.565 346.157 200.99Z" fill="#74C1C7"/>
<path d="M342.21 199.565C336.776 195.518 329.397 194.321 322.934 196.373C325.336 198.767 328.711 200.021 332.086 200.363C335.518 200.762 338.95 200.363 342.21 199.565Z" fill="#74C1C7"/>
<path d="M343.812 189.818C344.269 185.315 343.983 181.724 344.269 177.221C344.269 176.879 344.384 176.423 344.727 176.309C345.184 176.138 345.585 176.708 345.756 177.164C347.129 181.325 346.386 186.113 343.812 189.704" fill="#74C1C7"/>
<path d="M344.097 190.274C341.008 188.393 338.72 185.885 336.604 183.035C335.117 181.04 333.858 178.589 334.202 176.138C336.261 176.081 338.263 177.221 339.636 178.817C341.008 180.413 341.809 182.351 342.381 184.346C343.01 186.284 343.411 188.336 344.097 190.274Z" fill="#74C1C7"/>
<path d="M336.719 188.222C329.969 185.714 323.677 182.066 318.243 177.392C320.474 176.48 322.991 177.05 325.164 177.905C330.198 179.957 334.316 183.377 336.776 188.165" fill="#74C1C7"/>
<path d="M342.039 192.782C338.607 193.181 335.175 193.409 331.8 192.839C328.482 192.269 325.336 190.958 322.247 189.647C322.019 189.533 321.733 189.419 321.618 189.134C321.504 188.849 321.618 188.507 321.847 188.336C322.076 188.108 322.362 188.051 322.648 187.937C326.023 186.968 329.683 187.424 333.001 188.564C336.261 189.704 339.007 191.015 342.039 192.782Z" fill="#74C1C7"/>
<path d="M361.487 201.104C363.832 196.43 363.66 190.958 361.658 186.17C360.228 188.336 360.057 191.072 360.343 193.58C360.629 196.145 361.372 198.767 361.43 201.332" fill="#74C1C7"/>
<path d="M370.809 196.487C376.587 196.373 382.421 198.824 386.368 203.099C383.451 203.555 380.476 202.814 377.845 201.503C375.214 200.249 372.869 198.425 370.523 196.658" fill="#74C1C7"/>
<path d="M377.045 194.378C379.905 194.15 382.593 193.808 385.339 194.606C388.085 195.461 390.544 197.342 391.688 199.964C389.057 200.249 386.311 199.622 383.909 198.482C381.449 197.399 379.219 195.917 377.045 194.378Z" fill="#74C1C7"/>
<path d="M367.778 194.492C370.352 192.839 372.983 191.129 375.958 190.445C378.932 189.761 382.364 190.274 384.481 192.497C382.078 193.922 379.161 194.093 376.358 194.093C373.555 194.093 370.123 194.036 367.492 195.005" fill="#74C1C7"/>
<path d="M367.778 194.606C372.126 190.331 373.784 182.636 372.068 176.822C368.579 182.009 367.092 188.45 367.778 194.606Z" fill="#74C1C7"/>
<path d="M355.767 182.522C354.966 180.641 354.337 178.589 353.65 176.651C352.964 174.713 351.991 172.775 350.619 171.236C349.246 169.697 347.301 168.557 345.185 168.443C346.5 174.314 350.39 179.558 355.709 182.522" fill="#74C1C7"/>
<path d="M357.939 185.03C359.312 183.149 360.857 180.641 362.744 179.216C364.575 177.848 366.977 176.993 369.265 177.506C366.92 181.61 362.63 184.46 357.939 185.03Z" fill="#74C1C7"/>
<path d="M357.482 182.636C358.397 180.356 359.255 178.076 359.656 175.682C359.999 173.288 359.77 170.723 358.569 168.614C356.166 173.117 355.423 177.962 357.368 182.693" fill="#74C1C7"/>
<path d="M355.767 168.614C354.394 164.111 350.276 160.862 345.871 159.323C345.299 159.152 344.727 158.981 344.155 159.038C343.583 159.095 343.011 159.551 342.897 160.121C342.725 160.862 343.354 161.546 343.984 162.059C347.301 165.023 351.42 167.303 355.767 168.614Z" fill="#74C1C7"/>
<path d="M355.709 164.966C355.538 162.059 355.366 159.152 354.394 156.416C353.479 153.68 351.648 151.115 349.017 149.918C348.559 152.825 349.875 155.732 351.419 158.24C352.964 160.748 354.851 163.142 355.767 165.935" fill="#74C1C7"/>
<path d="M355.767 166.961C356.911 163.712 357.025 159.551 358.97 156.701C360.343 154.706 362.516 153.338 363.717 151.229C364.518 153.167 364.289 155.447 363.431 157.385C362.631 159.323 361.258 161.033 359.828 162.572C358.341 164.168 357.082 165.308 355.767 166.961Z" fill="#74C1C7"/>
<path d="M355.766 263.063C355.881 263.063 355.938 241.289 355.938 214.442C355.938 187.595 355.881 165.821 355.766 165.821C355.652 165.821 355.595 187.595 355.595 214.442C355.595 241.289 355.652 263.063 355.766 263.063Z" fill="#74C1C7"/>
<path d="M336.661 197.855C336.661 197.855 336.947 197.969 337.462 198.14C338.034 198.311 338.835 198.596 339.75 198.881C341.638 199.508 344.269 200.477 347.129 201.617C349.932 202.814 352.62 203.783 354.107 205.094C354.851 205.721 355.308 206.462 355.537 206.918C355.766 207.431 355.766 207.716 355.823 207.716C355.823 207.716 355.823 207.659 355.823 207.488C355.823 207.317 355.766 207.146 355.652 206.861C355.48 206.348 355.022 205.607 354.279 204.866C353.535 204.182 352.448 203.555 351.247 202.985C350.046 202.415 348.673 201.845 347.243 201.275C344.383 200.135 341.752 199.223 339.807 198.596C338.835 198.311 338.034 198.083 337.519 197.912C336.947 197.912 336.661 197.798 336.661 197.855Z" fill="#74C1C7"/>
<path d="M330.369 182.522C330.369 182.522 330.426 182.636 330.598 182.75C330.77 182.921 330.998 183.149 331.284 183.434C331.914 184.004 332.829 184.802 333.916 185.828C336.146 187.823 339.235 190.559 342.61 193.58C345.985 196.601 348.959 199.451 350.961 201.674C351.991 202.757 352.792 203.669 353.306 204.296C353.535 204.581 353.764 204.809 353.936 205.037C354.107 205.208 354.164 205.265 354.164 205.265C354.164 205.265 354.107 205.151 353.993 204.98C353.878 204.809 353.65 204.524 353.421 204.239C352.906 203.612 352.105 202.643 351.133 201.56C349.131 199.337 346.214 196.43 342.782 193.409C339.35 190.388 336.261 187.709 334.03 185.771C332.943 184.802 332.028 184.061 331.342 183.491C331.056 183.263 330.77 183.035 330.598 182.864C330.484 182.579 330.426 182.522 330.369 182.522Z" fill="#74C1C7"/>
<path d="M346.328 196.601C346.443 196.544 345.699 194.948 345.013 192.839C344.326 190.787 343.983 189.02 343.869 189.02C343.811 189.02 343.983 190.844 344.727 192.896C345.07 193.922 345.47 194.834 345.756 195.518C346.042 196.202 346.271 196.601 346.328 196.601Z" fill="#74C1C7"/>
<path d="M355.709 209.768C355.709 209.768 355.938 209.54 356.224 209.141C356.567 208.685 357.025 208.115 357.539 207.431C358.683 206.006 360.228 203.954 361.944 201.788C363.717 199.622 365.319 197.627 366.463 196.202C367.035 195.518 367.492 194.948 367.835 194.492C368.179 194.093 368.35 193.865 368.293 193.865C368.293 193.865 368.064 194.036 367.721 194.435C367.378 194.834 366.863 195.347 366.291 196.088C365.09 197.456 363.431 199.451 361.715 201.617C359.942 203.84 358.455 205.835 357.368 207.317C356.853 208.058 356.395 208.685 356.109 209.084C355.881 209.54 355.709 209.768 355.709 209.768Z" fill="#74C1C7"/>
<path d="M359.885 204.41C359.942 204.467 361.029 203.156 361.658 201.161C362.116 199.736 362.116 198.482 362.059 197.855H361.944C362.002 198.083 362.059 198.254 362.059 198.254C362.059 198.254 362.059 198.083 362.059 197.855H361.944C361.887 198.425 361.83 199.679 361.372 201.047C360.8 202.985 359.828 204.353 359.885 204.41Z" fill="#74C1C7"/>
<path d="M365.319 197.627C365.376 197.684 365.719 197.228 366.52 196.943C367.321 196.601 368.579 196.544 369.895 196.658C371.267 196.772 372.469 197 373.327 197.228C374.185 197.456 374.699 197.627 374.757 197.57C374.757 197.513 374.242 197.285 373.384 197C372.526 196.715 371.325 196.43 369.952 196.373C368.579 196.259 367.263 196.373 366.463 196.772C365.605 197.114 365.261 197.627 365.319 197.627Z" fill="#74C1C7"/>
<path d="M366.577 195.974C366.577 196.031 367.264 195.689 368.465 195.29C369.609 194.891 371.268 194.492 373.155 194.321C375.043 194.207 376.702 194.321 377.903 194.549C379.104 194.777 379.848 195.005 379.848 194.948C379.848 194.948 379.676 194.834 379.333 194.72C378.99 194.606 378.532 194.435 377.903 194.321C376.702 194.036 374.986 193.865 373.041 193.979C371.153 194.15 369.437 194.606 368.293 195.062C367.721 195.29 367.264 195.518 366.978 195.689C366.749 195.86 366.577 195.974 366.577 195.974Z" fill="#74C1C7"/>
<path d="M355.766 189.077C355.823 189.077 356.452 186.968 357.139 184.346C357.825 181.724 358.283 179.558 358.226 179.558C358.168 179.558 357.539 181.667 356.853 184.289C356.166 186.911 355.652 189.02 355.766 189.077Z" fill="#74C1C7"/>
<path d="M355.652 189.077C355.767 189.134 356.167 187.709 357.197 186.227C358.169 184.745 359.485 184.004 359.428 183.947C359.428 183.89 359.084 184.061 358.57 184.403C358.055 184.745 357.483 185.315 356.968 186.056C355.881 187.538 355.595 189.077 355.652 189.077Z" fill="#74C1C7"/>
<path d="M355.766 251.435C355.823 251.435 355.881 250.922 356.109 250.01C356.338 249.098 356.796 247.787 357.597 246.248C359.084 243.17 361.829 239.294 365.319 235.361C367.035 233.366 368.751 231.542 370.123 229.775C371.553 228.008 372.697 226.298 373.555 224.816C374.413 223.334 374.985 222.023 375.271 221.111C375.443 220.655 375.557 220.313 375.615 220.085C375.672 219.857 375.729 219.686 375.729 219.686C375.729 219.686 375.557 220.199 375.157 221.054C374.814 221.966 374.185 223.22 373.327 224.645C372.469 226.127 371.267 227.78 369.837 229.547C368.407 231.314 366.749 233.138 364.975 235.133C361.486 239.066 358.741 242.999 357.253 246.134C356.51 247.673 356.109 249.041 355.881 249.953C355.766 250.409 355.709 250.808 355.709 251.036C355.766 251.321 355.709 251.435 355.766 251.435Z" fill="#74C1C7"/>
<path d="M338.492 231.998C338.492 231.998 338.835 232.169 339.407 232.511C339.979 232.853 340.837 233.309 341.753 234.05C342.668 234.791 343.755 235.703 344.841 236.843C345.928 237.983 347.015 239.294 348.159 240.719C350.447 243.569 352.563 246.077 353.822 248.072C354.451 249.041 354.966 249.896 355.252 250.523C355.538 251.093 355.709 251.435 355.767 251.435C355.767 251.435 355.767 251.321 355.709 251.207C355.652 251.036 355.538 250.808 355.423 250.523C355.137 249.896 354.68 249.041 354.051 248.015C352.792 245.963 350.733 243.398 348.445 240.605C347.301 239.18 346.157 237.869 345.07 236.729C343.983 235.589 342.897 234.677 341.924 233.936C340.952 233.252 340.094 232.739 339.522 232.454C339.236 232.283 338.95 232.226 338.835 232.169C338.607 232.055 338.492 231.998 338.492 231.998Z" fill="#74C1C7"/>
<path d="M338.148 238.325C338.148 238.382 338.892 238.439 340.036 238.61C341.237 238.781 342.839 238.952 344.555 239.522C346.271 240.092 347.701 240.947 348.616 241.631C349.531 242.372 349.989 242.942 350.046 242.885C350.046 242.885 349.989 242.714 349.76 242.429C349.531 242.144 349.245 241.802 348.788 241.403C347.872 240.605 346.442 239.75 344.669 239.18C342.896 238.61 341.237 238.439 340.036 238.382C338.892 238.268 338.148 238.268 338.148 238.325Z" fill="#74C1C7"/>
<path d="M349.532 242.201C349.646 242.144 348.788 240.833 348.102 239.066C347.472 237.299 347.301 235.703 347.244 235.76C347.186 235.76 347.186 236.159 347.301 236.786C347.358 237.413 347.53 238.268 347.873 239.18C348.216 240.092 348.616 240.833 348.96 241.403C349.246 241.916 349.474 242.201 349.532 242.201Z" fill="#74C1C7"/>
<path d="M332.887 215.126C332.887 215.126 333.001 215.183 333.173 215.297C333.402 215.411 333.688 215.525 334.088 215.696C334.488 215.867 334.946 216.095 335.518 216.38C336.033 216.665 336.662 216.95 337.348 217.349C337.692 217.52 338.035 217.748 338.378 217.919C338.721 218.147 339.122 218.375 339.465 218.603C340.208 219.059 341.009 219.629 341.81 220.199C343.412 221.396 345.128 222.878 346.729 224.531C348.331 226.184 349.704 227.951 350.905 229.604C351.477 230.459 351.992 231.257 352.449 231.998C352.678 232.397 352.907 232.739 353.078 233.138C353.25 233.48 353.479 233.879 353.65 234.221C353.994 234.905 354.28 235.532 354.566 236.045C354.852 236.615 355.023 237.071 355.195 237.47C355.366 237.812 355.481 238.154 355.595 238.382C355.71 238.61 355.71 238.667 355.767 238.667C355.767 238.667 355.767 238.553 355.652 238.325C355.595 238.097 355.481 237.755 355.309 237.413C355.195 237.014 354.966 236.501 354.737 235.988C354.508 235.418 354.222 234.791 353.879 234.107C353.708 233.765 353.536 233.423 353.364 233.024C353.193 232.625 352.964 232.283 352.735 231.884C352.278 231.086 351.763 230.288 351.191 229.433C350.047 227.78 348.617 226.013 347.015 224.303C345.356 222.65 343.64 221.168 342.039 219.971C341.181 219.401 340.437 218.831 339.636 218.375C339.236 218.147 338.893 217.919 338.492 217.691C338.149 217.463 337.749 217.292 337.405 217.121C336.719 216.722 336.09 216.437 335.575 216.209C335.003 215.924 334.546 215.753 334.145 215.582C333.745 215.411 333.459 215.297 333.23 215.24C333.001 215.126 332.887 215.126 332.887 215.126Z" fill="#74C1C7"/>
<path d="M346.558 224.246C346.558 224.246 346.443 223.733 345.814 223.106C345.185 222.536 344.098 221.966 342.782 221.966C341.467 221.909 340.38 222.308 339.579 222.593C338.836 222.878 338.378 223.163 338.378 223.163C338.378 223.22 338.893 223.049 339.636 222.764C340.437 222.536 341.524 222.194 342.725 222.251C343.926 222.308 345.013 222.764 345.642 223.277C346.272 223.79 346.5 224.246 346.558 224.246Z" fill="#74C1C7"/>
<path d="M348.616 226.355C348.731 226.298 347.93 225.158 347.758 223.562C347.529 221.966 348.044 220.655 347.93 220.655C347.873 220.655 347.701 220.94 347.587 221.453C347.415 221.966 347.358 222.764 347.415 223.562C347.529 224.417 347.815 225.101 348.044 225.614C348.33 226.127 348.559 226.355 348.616 226.355Z" fill="#74C1C7"/>
<path d="M370.81 254.57C370.353 262.892 367.836 271.328 363.946 279.878H347.13C343.412 271.385 341.124 262.949 340.666 254.57H370.81Z" fill="#4B5A62"/>
<path d="M343.411 268.022C343.411 268.136 348.96 268.193 355.766 268.193C362.573 268.193 368.122 268.136 368.122 268.022C368.122 267.908 362.573 267.851 355.766 267.851C348.96 267.851 343.411 267.908 343.411 268.022Z" fill="#263238"/>
<path d="M343.812 271.043C343.812 271.157 349.017 271.214 355.423 271.214C361.83 271.214 367.035 271.157 367.035 271.043C367.035 270.929 361.83 270.872 355.423 270.872C349.017 270.872 343.812 270.929 343.812 271.043Z" fill="#263238"/>
<path d="M363.717 260.042C363.603 260.042 363.546 261.752 363.546 263.918C363.546 266.027 363.603 267.794 363.717 267.794C363.832 267.794 363.889 266.084 363.889 263.918C363.832 261.752 363.775 260.042 363.717 260.042Z" fill="#263238"/>
<path d="M354.679 260.042C354.565 260.042 354.508 261.809 354.508 264.032C354.508 266.255 354.565 268.022 354.679 268.022C354.794 268.022 354.851 266.255 354.851 264.032C354.851 261.809 354.794 260.042 354.679 260.042Z" fill="#263238"/>
<path d="M346.215 259.928C346.1 259.928 346.043 261.752 346.043 264.032C346.043 266.312 346.1 268.136 346.215 268.136C346.329 268.136 346.386 266.312 346.386 264.032C346.386 261.752 346.329 259.928 346.215 259.928Z" fill="#263238"/>
<path d="M341.237 260.042C341.237 260.156 347.758 260.213 355.766 260.213C363.774 260.213 370.295 260.156 370.295 260.042C370.295 259.928 363.774 259.871 355.766 259.871C347.701 259.871 341.237 259.928 341.237 260.042Z" fill="#263238"/>
<path d="M51.1187 261.296L48.3731 275.147L43.0535 285.464C42.6531 286.205 42.9963 287.117 43.7971 287.459C44.2547 287.63 44.7123 287.63 45.1127 287.345C47.6867 285.806 57.0675 279.992 57.1819 278.966C57.3535 277.769 61.0143 264.545 61.0143 264.545L51.1187 261.296Z" fill="#F6AC3B"/>
<path d="M43.7969 287.516L57.4105 278.111L57.2961 278.681C57.1817 279.194 56.8957 279.65 56.4953 279.935C55.4085 280.79 52.2625 283.013 45.1697 287.402C44.7693 287.687 44.2545 287.687 43.7969 287.516Z" fill="#263238"/>
<path d="M55.5231 274.007C55.1227 274.178 54.8939 274.691 55.0655 275.09C55.2371 275.489 55.6947 275.717 56.0951 275.546C56.4955 275.375 56.7815 274.805 56.6099 274.406C56.4383 274.007 55.8091 273.779 55.4659 274.007" fill="#EBEBEB"/>
<path d="M48.3156 282.158C48.2012 282.158 48.0868 281.36 47.3432 280.847C46.5996 280.277 45.7988 280.277 45.7988 280.22C45.7988 280.163 45.9704 280.106 46.3136 280.163C46.6568 280.163 47.1144 280.334 47.5148 280.676C47.9152 281.018 48.144 281.417 48.2584 281.702C48.3728 281.93 48.3156 282.158 48.3156 282.158Z" fill="#263238"/>
<path d="M46.8858 283.811C46.8286 283.868 46.4854 283.298 45.799 282.956C45.1126 282.557 44.4834 282.557 44.4834 282.5C44.4834 282.443 45.1698 282.272 45.9706 282.671C46.7142 283.07 47.0002 283.754 46.8858 283.811Z" fill="#263238"/>
<path d="M50.6607 280.163C50.6035 280.22 50.0315 279.365 49.0591 278.738C48.0867 278.054 47.1143 277.883 47.1143 277.826C47.1143 277.769 48.2011 277.769 49.2307 278.51C50.3175 279.194 50.7179 280.163 50.6607 280.163Z" fill="#263238"/>
<path d="M51.8628 276.059C51.8056 276.116 51.1192 275.66 50.1468 275.375C49.1744 275.09 48.3164 275.204 48.3164 275.09C48.3164 275.033 49.1744 274.805 50.2612 275.09C51.2336 275.375 51.92 276.002 51.8628 276.059Z" fill="#263238"/>
<path d="M52.72 272.012C52.6628 272.069 51.9764 271.442 50.9468 271.271C49.9172 271.043 49.0592 271.442 49.002 271.328C49.002 271.271 49.1736 271.157 49.5168 271.043C49.86 270.929 50.432 270.872 51.004 270.986C51.576 271.1 52.0336 271.328 52.3196 271.556C52.6628 271.784 52.7772 271.955 52.72 272.012Z" fill="#263238"/>
<path d="M51.1189 270.473C51.1189 270.473 51.1189 270.302 51.2333 269.96C51.3477 269.618 51.5193 269.162 51.9769 268.706C52.2057 268.478 52.4345 268.193 52.8349 268.079C53.0637 268.022 53.3497 268.136 53.4641 268.364C53.5785 268.592 53.5785 268.82 53.5213 269.048C53.2925 269.903 52.3773 270.587 51.3477 270.53C50.3181 270.416 49.5745 269.675 49.3457 268.82C49.2885 268.592 49.2885 268.364 49.4601 268.136C49.6317 267.908 49.9177 267.908 50.0893 267.965C50.4897 268.136 50.7185 268.421 50.8901 268.649C51.2905 269.162 51.4621 269.618 51.5765 269.903C51.6909 270.245 51.6909 270.416 51.6909 270.416C51.6337 270.416 51.4621 269.675 50.7185 268.763C50.4897 268.535 50.3181 268.307 49.9749 268.193C49.8605 268.136 49.6889 268.193 49.6317 268.307C49.5745 268.421 49.5173 268.592 49.5745 268.763C49.7461 269.447 50.4897 270.131 51.3477 270.245C52.2057 270.302 53.0065 269.732 53.1781 269.048C53.2353 268.877 53.2353 268.706 53.1209 268.592C53.0637 268.478 52.9493 268.421 52.7777 268.421C52.4917 268.478 52.2629 268.706 52.0341 268.934C51.2905 269.732 51.1761 270.53 51.1189 270.473Z" fill="#263238"/>
<path d="M97.5076 262.379L99.7956 276.287L104.829 286.775C105.172 287.516 104.829 288.428 104.028 288.77C103.571 288.941 103.113 288.884 102.713 288.656C100.196 287.003 90.9868 280.961 90.8724 279.935C90.758 278.738 87.4404 265.4 87.4404 265.4L97.5076 262.379Z" fill="#F6AC3B"/>
<path d="M104.029 288.77L90.7012 279.023L90.8156 279.593C90.93 280.106 91.1588 280.562 91.6164 280.904C92.7032 281.759 95.7348 284.096 102.713 288.656C103.056 288.884 103.571 288.941 104.029 288.77Z" fill="#263238"/>
<path d="M92.7023 274.976C93.1027 275.147 93.3315 275.66 93.1599 276.059C92.9883 276.458 92.4735 276.686 92.0731 276.515C91.6727 276.344 91.3867 275.774 91.6155 275.375C91.8443 274.976 92.4163 274.748 92.7595 275.033" fill="#EBEBEB"/>
<path d="M99.7387 283.298C99.8531 283.298 100.025 282.557 100.768 281.987C101.512 281.417 102.313 281.474 102.313 281.36C102.313 281.303 102.141 281.246 101.798 281.246C101.455 281.246 100.997 281.417 100.597 281.702C100.196 281.987 99.9103 282.443 99.7959 282.728C99.6815 283.07 99.6815 283.298 99.7387 283.298Z" fill="#263238"/>
<path d="M101.054 284.951C101.111 285.008 101.512 284.438 102.198 284.096C102.884 283.754 103.514 283.754 103.514 283.64C103.514 283.583 102.827 283.412 102.026 283.811C101.283 284.267 100.997 284.951 101.054 284.951Z" fill="#263238"/>
<path d="M97.3934 281.246C97.4506 281.303 98.0226 280.448 99.0522 279.878C100.082 279.251 101.054 279.08 101.054 279.023C101.054 278.966 99.9674 278.966 98.9378 279.65C97.7938 280.277 97.3362 281.246 97.3934 281.246Z" fill="#263238"/>
<path d="M96.3637 277.085C96.4209 277.142 97.1073 276.686 98.1369 276.458C99.1093 276.23 99.9673 276.344 99.9673 276.23C99.9673 276.173 99.1093 275.888 98.0225 276.173C96.9929 276.401 96.3065 277.028 96.3637 277.085Z" fill="#263238"/>
<path d="M95.5625 273.038C95.6197 273.095 96.3061 272.525 97.3929 272.354C98.4797 272.183 99.2805 272.582 99.3377 272.468C99.3377 272.411 99.1661 272.297 98.8229 272.183C98.4797 272.069 97.9649 271.955 97.3929 272.069C96.8209 272.183 96.3633 272.411 96.0201 272.639C95.6769 272.81 95.5625 272.981 95.5625 273.038Z" fill="#263238"/>
<path d="M97.2212 271.556C97.2212 271.556 97.2212 271.385 97.164 271.043C97.0496 270.701 96.878 270.245 96.4776 269.732C96.306 269.504 96.0772 269.219 95.6196 269.105C95.3908 269.048 95.1048 269.162 94.9904 269.333C94.876 269.561 94.876 269.789 94.876 270.017C95.0476 270.872 95.9628 271.613 96.9924 271.556C98.022 271.499 98.8228 270.758 99.0516 269.903C99.1088 269.675 99.1088 269.447 98.9372 269.219C98.7656 268.991 98.4796 268.934 98.308 269.048C97.9076 269.162 97.6788 269.447 97.5072 269.675C97.1068 270.131 96.878 270.587 96.7636 270.929C96.6492 271.271 96.6492 271.442 96.6492 271.442C96.7064 271.442 96.878 270.701 97.6788 269.789C97.9076 269.561 98.1364 269.333 98.4224 269.219C98.5368 269.162 98.7084 269.219 98.7656 269.333C98.8228 269.447 98.8228 269.618 98.8228 269.789C98.594 270.473 97.8504 271.157 96.9924 271.214C96.1344 271.271 95.3336 270.644 95.162 269.96C95.1048 269.789 95.162 269.618 95.2192 269.504C95.2764 269.39 95.448 269.333 95.5624 269.39C95.8484 269.447 96.0772 269.732 96.306 269.903C97.0496 270.815 97.164 271.613 97.2212 271.556Z" fill="#263238"/>
<path d="M52.4915 170.552C51.1759 168.614 45.8563 275.09 46.1995 275.66L60.3279 275.888L67.9927 219.002L72.1683 175.511L78.9179 216.38L87.2119 276.287L102.656 276.515L93.0463 167.93L73.0835 156.53L52.4915 170.552Z" fill="#263238"/>
<path d="M65.9329 99.017C65.9329 99.017 61.5857 99.758 59.9841 101.183C58.3253 102.608 56.6665 105.914 56.6665 105.914L48.4297 111.5L55.6941 140.228L49.6309 179.957L50.8321 183.377L96.1917 182.636L97.0497 179.501L92.3593 143.363L94.4185 119.138L96.3061 109.391L88.0693 105.743C88.0693 105.743 91.8445 104.603 92.0161 103.919C92.1877 103.292 83.5505 98.846 83.5505 98.846C83.5505 98.846 69.8797 96.566 65.9329 99.017Z" fill="#455A64"/>
<g opacity="0.3">
<g opacity="0.3">
<path opacity="0.3" d="M52.2051 161.318C57.2959 167.93 64.3315 172.775 71.1955 177.563C72.6255 178.589 74.1699 179.615 75.8859 179.957C78.3455 180.47 81.0911 179.33 82.4639 177.221C83.4363 175.682 83.7795 173.801 84.9807 172.433C85.7815 171.521 86.8683 170.894 87.7263 170.039C88.4699 169.298 88.9847 168.329 89.4995 167.417C90.4147 165.707 91.3871 164.054 92.3023 162.344C88.8703 162.344 85.7243 163.997 82.6355 165.479C79.5467 166.961 76.1147 168.272 72.7971 167.531C68.1639 166.505 65.2467 161.774 60.7851 160.121C57.9823 159.095 54.7219 159.38 52.2051 160.919" fill="black"/>
</g>
</g>
<path d="M48.43 111.5C48.43 111.5 46.714 113.666 46.3708 118.169C46.0276 122.672 43.0532 146.384 44.0828 149.804C45.0552 153.224 57.7536 167.417 61.9864 167.075L63.5879 166.505L65.0752 167.645L71.8248 162.572L56.8956 143.876L57.6964 116.972C57.6964 117.029 53.1204 110.474 48.43 111.5Z" fill="#455A64"/>
<path d="M59.9845 101.24C59.9845 101.24 59.8701 101.354 59.6413 101.525C59.4125 101.753 59.0693 102.095 58.7261 102.608C58.3829 103.121 57.9825 103.748 57.5249 104.546C57.0673 105.287 56.4953 106.199 55.8661 107.168L55.7517 107.054C56.5525 106.712 57.5821 106.712 58.5545 107.054C59.5269 107.339 60.4421 107.909 61.3573 108.593C63.1877 109.961 64.7893 111.842 66.3909 114.008C69.5941 118.34 72.6829 123.698 75.6573 129.626V129.683V129.74C75.6001 132.077 75.5429 134.528 75.4285 137.036C75.0853 149.747 74.7421 161.261 74.5133 169.583C74.3989 173.744 74.2845 177.107 74.2273 179.444C74.1701 180.584 74.1701 181.496 74.1129 182.123C74.1129 182.408 74.1129 182.636 74.0557 182.807C74.0557 182.978 74.0557 183.035 74.0557 183.035C74.0557 183.035 74.0557 182.978 74.0557 182.807C74.0557 182.636 74.0557 182.408 74.0557 182.123C74.0557 181.496 74.0557 180.584 74.1129 179.444C74.1701 177.107 74.2273 173.744 74.3417 169.583C74.5705 161.261 74.7993 149.747 75.1997 136.979C75.2569 134.471 75.3713 132.02 75.4285 129.683V129.74C72.4541 123.812 69.3653 118.454 66.2193 114.122C64.6177 111.956 63.0161 110.075 61.2429 108.707C60.3277 108.023 59.4125 107.51 58.4973 107.168C57.5821 106.883 56.6097 106.883 55.8089 107.168L55.5801 107.225L55.6945 106.997C56.3237 106.028 56.8957 105.173 57.3533 104.432C57.8109 103.691 58.2113 103.007 58.5545 102.494C58.8977 101.981 59.2409 101.639 59.5269 101.468C59.8129 101.297 59.9845 101.24 59.9845 101.24Z" fill="#263238"/>
<path d="M90.4718 104.66C90.4718 104.717 89.6139 104.945 88.2411 105.515C86.8682 106.085 84.9806 106.94 83.2074 108.308C81.4342 109.676 80.0042 111.158 79.0318 112.241C78.5742 112.754 78.1738 113.153 77.8306 113.552C77.5446 113.837 77.373 114.008 77.373 114.008C77.373 114.008 77.4874 113.78 77.7734 113.495C78.0022 113.153 78.4026 112.697 78.9174 112.127C79.8898 110.987 81.2626 109.448 83.093 108.08C84.9234 106.712 86.8111 105.857 88.2411 105.344C88.9275 105.116 89.4994 104.945 89.8998 104.831C90.243 104.66 90.4718 104.66 90.4718 104.66Z" fill="#263238"/>
<path d="M75.6572 129.74C75.6572 129.74 75.6572 129.455 75.7144 128.885C75.7716 128.372 75.886 127.574 76.0576 126.605C76.4008 124.667 77.03 122.045 77.888 119.195C78.746 116.345 79.6612 113.78 80.4048 112.013C80.8052 111.101 81.1484 110.417 81.4344 109.904C81.7204 109.448 81.892 109.163 81.892 109.163C81.892 109.163 81.7776 109.448 81.5488 109.961C81.32 110.474 80.9768 111.158 80.6336 112.07C79.89 113.894 79.032 116.402 78.174 119.252C77.316 122.102 76.6868 124.724 76.2864 126.605C76.0576 127.574 75.9432 128.315 75.8288 128.885C75.7716 129.398 75.7144 129.74 75.6572 129.74Z" fill="#263238"/>
<path d="M77.0872 113.837C77.03 113.78 78.0596 111.5 79.4324 108.707C80.8052 105.914 81.9492 103.691 82.0064 103.691C82.0636 103.748 81.034 106.028 79.6612 108.821C78.2884 111.614 77.1444 113.837 77.0872 113.837Z" fill="#263238"/>
<path d="M78.46 124.496L78.5744 124.211C78.6888 124.325 78.9176 124.382 79.0892 124.382C79.318 124.382 79.4324 124.325 79.4324 124.211C79.4324 123.926 78.46 124.097 78.5172 123.47C78.5172 123.185 78.746 122.957 79.2036 122.957C79.4324 122.957 79.604 123.014 79.7756 123.128L79.6612 123.413C79.4896 123.299 79.3752 123.299 79.2036 123.299C78.9748 123.299 78.9176 123.356 78.9176 123.47C78.9176 123.755 79.89 123.584 79.8328 124.154C79.8328 124.439 79.604 124.667 79.1464 124.667C78.9176 124.667 78.6316 124.61 78.46 124.496Z" fill="white"/>
<path d="M81.3766 124.382V124.667H80.1182V123.014H81.3766V123.299H80.5186V123.641H81.2622V123.926H80.5186V124.325L81.3766 124.382Z" fill="white"/>
<path d="M81.6055 123.869C81.6055 123.356 82.0059 123.014 82.5207 123.014C82.8067 123.014 83.0355 123.128 83.2071 123.299L82.9783 123.527C82.8639 123.413 82.7495 123.356 82.5779 123.356C82.2919 123.356 82.0631 123.584 82.0631 123.869C82.0631 124.154 82.2919 124.382 82.5779 124.382C82.7495 124.382 82.8639 124.325 82.9783 124.211L83.2071 124.439C83.0355 124.61 82.8067 124.724 82.5207 124.724C81.9487 124.724 81.6055 124.382 81.6055 123.869Z" fill="white"/>
<path d="M84.6377 124.268C84.6377 124.211 84.5805 124.097 84.5805 124.04C84.5805 123.983 84.5233 123.926 84.5233 123.869V124.04C84.5233 124.325 84.4089 124.496 84.1801 124.496C83.9513 124.496 83.8369 124.382 83.8369 124.04V123.128H83.4365V124.04C83.4365 124.496 83.7225 124.781 84.1801 124.781C84.4661 124.781 84.6377 124.667 84.8093 124.496C84.6949 124.439 84.6377 124.325 84.6377 124.268Z" fill="white"/>
<path d="M84.6943 123.47V124.04V124.097C84.6943 124.154 84.7515 124.154 84.7515 124.211C84.7515 124.268 84.8087 124.325 84.8087 124.439C84.8659 124.61 84.8659 124.781 84.8659 124.952C84.9803 124.838 85.0947 124.61 85.0947 124.382V123.47H84.6943Z" fill="white"/>
<path d="M86.4681 125.18L86.1821 124.724H85.8389V125.18H85.4385V123.527H86.1249C86.5825 123.527 86.8113 123.755 86.8113 124.154C86.8113 124.382 86.6969 124.553 86.4681 124.667L86.8113 125.18H86.4681ZM86.1249 123.812H85.8389V124.382H86.1249C86.3537 124.382 86.4681 124.268 86.4681 124.097C86.4681 123.926 86.3537 123.812 86.1249 123.812Z" fill="white"/>
<path d="M87.1543 123.527H87.5547V125.18H87.1543V123.527Z" fill="white"/>
<path d="M88.298 123.869H87.7832V123.584H89.2132V123.869H88.6984V125.18H88.298V123.869Z" fill="white"/>
<path d="M90.1282 124.61V125.18H89.7278V124.61L89.0986 123.527H89.499L89.8994 124.268L90.357 123.527H90.7574L90.1282 124.61Z" fill="white"/>
<path d="M86.0104 128.885C86.0104 128.885 85.896 128.714 85.7816 128.429C85.6672 128.144 85.4956 127.745 85.324 127.175C84.9808 126.149 84.5805 124.61 84.3517 122.957C84.1229 121.247 84.1229 119.708 84.2373 118.625C84.2945 118.055 84.3517 117.599 84.4089 117.314C84.4661 117.029 84.5233 116.858 84.5233 116.858C84.5805 116.858 84.5232 117.542 84.466 118.625C84.4088 119.708 84.4661 121.247 84.6949 122.9C84.9237 124.553 85.2669 126.035 85.5528 127.118C85.8388 128.201 86.0676 128.885 86.0104 128.885Z" fill="#263238"/>
<g opacity="0.3">
<g opacity="0.3">
<path opacity="0.3" d="M76.8012 124.325C76.5724 126.377 75.886 127.346 75.886 129.398C75.886 129.854 75.1996 136.751 75.6 136.922C76.0576 137.093 77.9452 132.077 78.3456 129.569C78.6316 127.631 79.2036 125.009 79.5468 123.071C80.5192 117.371 82.6356 114.236 85.61 109.277C86.182 108.308 88.2984 105.743 88.2984 105.743C88.0696 105.629 87.2688 106.028 86.6968 106.256C85.038 106.997 82.0064 109.391 82.0064 109.391C82.0064 109.391 80.176 112.868 79.604 114.578C78.4028 117.884 77.5448 121.304 76.8584 124.61" fill="black"/>
</g>
</g>
<g opacity="0.3">
<g opacity="0.3">
<path opacity="0.3" d="M57.8675 106.94C57.8675 106.94 56.0371 107.966 56.0371 108.764C56.0371 109.562 56.6663 110.246 57.3527 110.645C58.0391 111.044 58.8971 111.215 59.6407 111.5C61.4139 112.184 62.9011 113.438 64.2739 114.806C66.5047 117.029 68.4495 119.48 70.0511 122.159C71.3667 124.382 72.6251 126.833 74.8559 128.144C73.3115 125.408 71.7671 122.786 70.2227 120.107C68.6783 117.428 66.9623 114.806 64.9603 112.412C63.0727 110.075 59.8123 107.168 57.8675 106.94Z" fill="black"/>
</g>
</g>
<path d="M51.3467 147.011C51.3467 147.011 51.3467 146.954 51.3467 146.84C51.3467 146.726 51.3467 146.612 51.3467 146.384C51.4039 145.985 51.5183 145.415 51.9187 144.845C52.3191 144.275 53.0055 143.591 53.9779 143.363C54.9503 143.135 56.1515 143.306 57.1239 144.047L56.8951 144.161C56.7807 142.451 56.8951 140.456 57.2383 138.404C57.5243 136.523 57.8675 134.756 58.0963 133.16C58.3251 131.564 58.3823 130.082 58.4395 128.828C58.4967 127.574 58.4967 126.605 58.4395 125.921C58.4395 125.579 58.4395 125.351 58.4395 125.123C58.4395 124.952 58.4395 124.838 58.4395 124.838C58.4395 124.838 58.4395 124.952 58.4967 125.123C58.4967 125.351 58.5539 125.579 58.5539 125.921C58.6111 126.605 58.6683 127.631 58.6111 128.885C58.6111 130.139 58.5539 131.621 58.3251 133.217C58.1535 134.87 57.8103 136.637 57.5243 138.518C57.1811 140.513 57.0667 142.451 57.1811 144.218V144.503L56.9523 144.332C56.0943 143.591 54.8931 143.42 54.0351 143.648C53.1199 143.876 52.4335 144.446 52.0903 145.016C51.6899 145.586 51.5755 146.156 51.5183 146.498C51.3467 146.783 51.3467 147.011 51.3467 147.011Z" fill="#263238"/>
<path d="M52.7773 160.862C52.7773 160.862 52.8345 160.919 52.9489 161.033C53.0633 161.147 53.2349 161.318 53.4637 161.546C53.9213 161.945 54.5505 162.572 55.4657 163.313C56.3237 163.997 57.4677 164.852 58.7833 165.65C59.4697 166.049 60.2133 166.448 61.0141 166.733C61.4145 166.904 61.8721 166.961 62.2725 166.904C62.7301 166.847 63.1305 166.676 63.4737 166.391L63.5881 166.277L63.7025 166.334C64.1601 166.676 64.6749 167.075 65.1897 167.474H65.0181C67.0773 165.935 69.3653 164.225 71.7677 162.401V162.629C71.7105 162.572 71.7105 162.515 71.6533 162.458C69.5941 159.95 67.8209 157.442 66.1049 155.162C64.4461 152.939 62.9017 150.887 61.5861 149.234C60.2705 147.581 59.1265 146.27 58.3257 145.415C57.9253 144.959 57.5821 144.617 57.4105 144.446C57.1817 144.218 57.0673 144.104 57.0673 144.104C57.0673 144.104 57.1817 144.218 57.4105 144.389C57.6393 144.617 57.9825 144.902 58.3829 145.358C59.2409 146.213 60.3849 147.524 61.7005 149.12C63.0733 150.773 64.6177 152.768 66.2765 154.991C67.9925 157.214 69.8229 159.722 71.8249 162.23C71.8821 162.287 71.8821 162.344 71.9393 162.401L72.0537 162.515L71.9393 162.629C69.5369 164.396 67.2489 166.106 65.1897 167.645L65.1325 167.702L65.0753 167.645C64.5605 167.246 64.0457 166.847 63.5881 166.448H63.7597C63.3593 166.847 62.9017 167.018 62.3869 167.075C61.9293 167.132 61.4145 167.018 61.0141 166.847C60.1561 166.505 59.4697 166.106 58.7833 165.707C57.4105 164.852 56.3237 164.054 55.4657 163.313C54.6077 162.572 53.9785 161.945 53.5209 161.489C53.3493 161.261 53.1777 161.09 53.0633 160.976C52.8345 160.976 52.7773 160.862 52.7773 160.862Z" fill="#263238"/>
<path d="M58.2111 118.967C58.1539 118.967 57.9251 118.283 57.4103 117.314C57.1243 116.801 56.7811 116.231 56.3235 115.661C55.8659 115.091 55.2939 114.464 54.6075 113.951C53.9211 113.381 53.2347 112.982 52.6055 112.583C51.9191 112.241 51.3471 111.956 50.7752 111.785C49.6884 111.443 49.002 111.329 49.002 111.272C49.002 111.272 49.1736 111.272 49.5168 111.272C49.86 111.329 50.3176 111.386 50.8323 111.557C51.4043 111.728 52.0336 111.956 52.7199 112.298C53.4063 112.64 54.0927 113.096 54.7791 113.666C55.4655 114.236 56.0375 114.863 56.4951 115.433C56.9527 116.06 57.2959 116.63 57.5819 117.143C57.8107 117.656 58.0395 118.112 58.0967 118.397C58.2111 118.796 58.2111 118.967 58.2111 118.967Z" fill="#263238"/>
<g opacity="0.3">
<g opacity="0.3">
<path opacity="0.3" d="M85.4953 127.403C85.6669 127.802 86.3533 127.574 86.4105 127.232C86.4677 126.89 86.3533 126.605 86.1817 126.32C85.0949 124.268 84.4657 122.045 84.2941 119.708C84.1225 122.558 84.4657 124.838 85.4953 127.403Z" fill="black"/>
</g>
</g>
<g opacity="0.3">
<g opacity="0.3">
<path opacity="0.3" d="M51.0611 146.384C50.5463 144.788 51.2899 142.907 52.7771 142.109C53.1775 141.881 53.5779 141.767 53.9783 141.767C54.8935 141.824 55.5799 142.679 56.0947 143.42C55.0651 143.135 53.9211 143.249 53.0059 143.819C52.0907 144.389 51.4043 145.301 51.2327 146.384" fill="black"/>
</g>
</g>
<path d="M95.7919 111.899C95.8491 111.899 95.5059 112.469 94.9911 113.381C94.5335 114.293 93.9043 115.547 93.4467 117.029C92.9891 118.511 92.7031 119.879 92.5315 120.905C92.3599 121.931 92.3599 122.558 92.3027 122.558C92.2455 122.558 92.2455 121.931 92.3027 120.905C92.4171 119.879 92.6459 118.454 93.1035 116.972C93.6183 115.49 94.2475 114.179 94.7623 113.324C95.3342 112.412 95.7347 111.899 95.7919 111.899Z" fill="#263238"/>
<g opacity="0.3">
<g opacity="0.3">
<path opacity="0.3" d="M92.0166 126.377C91.7306 126.719 91.6162 129.341 91.6162 129.341C91.6162 132.533 91.845 133.958 91.845 137.15C91.845 138.461 91.845 139.829 91.5018 141.083C91.3302 141.767 91.0442 142.394 90.7582 143.021C90.415 143.819 90.0146 144.674 89.4998 145.358C89.0422 145.985 88.5274 146.498 88.0126 147.011C85.4958 149.519 83.1506 152.255 81.0914 155.219L79.833 157.043L92.3026 145.358L92.9318 143.819L92.989 143.648L92.0166 126.377Z" fill="black"/>
</g>
</g>
<path d="M96.3065 109.448C96.3065 109.448 98.2513 110.189 99.2809 114.578C100.482 119.651 102.026 128.03 102.255 131.222C102.484 133.901 105.115 143.648 103.056 147.98C100.997 152.255 91.1585 165.593 87.2689 165.992L85.6673 165.593L83.9513 165.878L79.1465 160.406L79.5469 158.81C79.5469 158.81 79.0321 157.955 79.5469 157.157C80.1189 156.359 92.3025 144.959 92.3025 144.959C92.3025 144.959 91.8449 144.902 91.7305 144.104C91.5589 142.736 92.7601 142.793 92.7601 142.793L91.9593 130.823L96.3065 109.448Z" fill="#455A64"/>
<path d="M97.0492 146.327C96.992 146.384 96.0768 145.757 94.8184 145.358C93.56 144.959 92.416 144.959 92.416 144.845C92.416 144.788 93.56 144.617 94.8756 145.073C96.2484 145.472 97.1064 146.27 97.0492 146.327Z" fill="#263238"/>
<path d="M99.5088 144.503C99.4516 144.56 98.2504 143.42 96.3628 142.964C94.4752 142.451 92.8736 142.85 92.8164 142.736C92.8164 142.679 93.2168 142.565 93.846 142.451C94.4752 142.394 95.4476 142.394 96.42 142.622C97.3924 142.907 98.1932 143.363 98.7652 143.762C99.28 144.161 99.5088 144.503 99.5088 144.503Z" fill="#263238"/>
<path d="M92.416 144.845C92.416 144.845 92.1872 144.845 91.9584 144.674C91.844 144.56 91.7296 144.446 91.6152 144.218C91.558 143.99 91.558 143.762 91.6152 143.534C91.6724 143.363 91.7296 143.249 91.7868 143.135V143.192C91.9584 142.793 92.3588 142.679 92.5304 142.679C92.7592 142.679 92.8736 142.736 92.8736 142.736C92.8736 142.793 92.7592 142.793 92.5876 142.85C92.416 142.907 92.13 143.021 92.0728 143.249C92.0156 143.363 91.9584 143.477 91.9584 143.591C91.844 143.99 91.9584 144.332 92.13 144.503C92.3016 144.731 92.4732 144.788 92.416 144.845Z" fill="#263238"/>
<path d="M91.9013 125.807C91.9013 125.807 91.9585 126.035 92.0157 126.491C92.0729 126.947 92.1301 127.517 92.1873 128.315C92.3017 129.854 92.4161 131.963 92.5305 134.3C92.6449 136.637 92.7021 138.689 92.7593 140.285C92.8165 141.026 92.8165 141.596 92.8165 142.109C92.8165 142.565 92.8165 142.793 92.8165 142.793C92.8165 142.793 92.7593 142.565 92.7021 142.109C92.6449 141.653 92.5877 141.083 92.5305 140.285C92.4161 138.746 92.3017 136.637 92.1873 134.3C92.0729 132.02 92.0157 129.911 91.9585 128.315C91.9013 127.574 91.9013 127.004 91.9013 126.491C91.8441 126.035 91.8441 125.807 91.9013 125.807Z" fill="#263238"/>
<path d="M92.6451 144.788C92.6451 144.788 92.5307 144.902 92.3591 145.073C92.1303 145.301 91.8443 145.529 91.4439 145.871C90.6431 146.612 89.4991 147.638 88.1263 148.892C86.6963 150.203 85.0375 151.742 83.2071 153.566C82.2919 154.478 81.3195 155.39 80.3471 156.416C80.1183 156.644 79.8895 156.929 79.7179 157.214C79.5463 157.499 79.5463 157.841 79.6035 158.183C79.6607 158.525 79.7751 158.867 79.7751 159.323C79.7751 159.722 79.6035 160.178 79.1459 160.406L79.2031 160.178C80.0039 161.09 80.8047 162.002 81.6627 162.971C82.4635 163.883 83.3215 164.852 84.0651 165.707L83.9507 165.65C84.5227 165.536 85.0947 165.479 85.6667 165.365C86.4103 165.479 87.0395 165.821 87.6687 165.707C88.2979 165.65 88.8699 165.308 89.3847 164.909C90.4143 164.111 91.2723 163.199 92.1303 162.344C93.7891 160.634 95.1047 158.981 96.1915 157.613C97.2783 156.245 98.1363 155.105 98.7655 154.364C99.0515 154.022 99.2803 153.737 99.4519 153.509C99.6235 153.338 99.6807 153.224 99.6807 153.224C99.6807 153.224 99.6235 153.338 99.4519 153.566C99.2803 153.794 99.0515 154.079 98.8227 154.478C98.2507 155.276 97.3927 156.416 96.3059 157.784C95.2191 159.152 93.9035 160.805 92.2447 162.572C91.4439 163.427 90.5287 164.339 89.4991 165.137C88.9843 165.536 88.3551 165.878 87.6115 165.992C86.8679 166.106 86.1815 165.764 85.5523 165.65H85.6095C85.0375 165.764 84.4655 165.821 83.8935 165.935H83.8363L83.7791 165.878C82.9783 164.966 82.1775 164.054 81.3767 163.142C80.5187 162.173 79.7179 161.204 78.9171 160.349L78.8027 160.178L78.9743 160.121C79.2603 160.007 79.3747 159.665 79.3747 159.323C79.3747 158.981 79.2603 158.639 79.2031 158.24C79.1459 157.898 79.1459 157.442 79.3175 157.1C79.4891 156.758 79.7179 156.473 80.0039 156.188C81.0335 155.162 81.9487 154.25 82.9211 153.338C84.7515 151.571 86.4675 150.032 87.8975 148.721C89.3275 147.467 90.4715 146.441 91.3295 145.757C91.7299 145.415 92.0159 145.187 92.2447 144.959C92.5307 144.845 92.6451 144.731 92.6451 144.788Z" fill="#263238"/>
<path d="M92.3596 137.891C92.3596 137.948 84.5804 137.948 74.9708 137.777C65.3612 137.663 57.582 137.435 57.582 137.378C57.582 137.321 65.3612 137.321 74.9708 137.492C84.5232 137.663 92.3596 137.834 92.3596 137.891Z" fill="#263238"/>
<path d="M83.3795 142.622C83.3795 142.622 83.3795 142.679 83.3795 142.85C83.3795 142.964 83.3223 143.192 83.2651 143.477C83.1507 143.99 82.922 144.788 82.5788 145.7C81.8352 147.524 80.3479 149.918 77.8883 151.685C75.4287 153.452 72.6831 154.136 70.7383 154.25C69.7659 154.307 68.9652 154.25 68.3932 154.193C68.1072 154.193 67.9356 154.136 67.764 154.079C67.6496 154.079 67.5352 154.022 67.5352 154.022C67.5352 153.965 68.7364 154.193 70.6812 154.022C72.626 153.851 75.3144 153.167 77.7168 151.457C80.1192 149.747 81.6635 147.41 82.4071 145.643C83.1507 143.819 83.3223 142.622 83.3795 142.622Z" fill="#263238"/>
<path d="M66.6767 166.448C66.6195 166.505 66.2763 166.334 65.9903 165.992C65.7043 165.65 65.5899 165.308 65.6471 165.251C65.7043 165.194 65.9331 165.479 66.2191 165.764C66.5051 166.106 66.7339 166.391 66.6767 166.448Z" fill="#263238"/>
<path d="M68.9081 164.738C68.8509 164.795 68.6221 164.567 68.3361 164.225C68.1073 163.883 67.9357 163.598 68.0501 163.541C68.1073 163.484 68.3361 163.712 68.6221 164.054C68.7937 164.396 68.9653 164.681 68.9081 164.738Z" fill="#263238"/>
<path d="M81.5492 160.178C81.6064 160.235 81.2632 160.463 80.8628 160.748C80.4624 161.033 80.1192 161.204 80.062 161.147C80.0048 161.09 80.2908 160.748 80.6912 160.463C81.0916 160.235 81.492 160.121 81.5492 160.178Z" fill="#263238"/>
<path d="M83.1497 161.774C83.2069 161.831 83.0353 162.23 82.5777 162.629C82.1773 163.028 81.7197 163.199 81.6625 163.142C81.6053 163.085 81.9485 162.8 82.3489 162.401C82.8065 162.059 83.0925 161.717 83.1497 161.774Z" fill="#263238"/>
<path d="M84.6946 163.655C84.7518 163.712 84.523 164.054 84.0654 164.396C83.665 164.738 83.2074 164.909 83.2074 164.795C83.1502 164.738 83.4934 164.453 83.8938 164.111C84.2942 163.883 84.6374 163.598 84.6946 163.655Z" fill="#263238"/>
<path d="M62.501 103.007C62.5582 102.95 63.2446 104.66 64.4458 106.598C65.5898 108.536 66.791 109.961 66.7338 110.018C66.6766 110.018 66.3906 109.733 65.8758 109.163C65.4182 108.593 64.789 107.738 64.217 106.769C63.645 105.8 63.1874 104.831 62.9014 104.147C62.6154 103.463 62.501 103.007 62.501 103.007Z" fill="#263238"/>
<path d="M97.0502 179.558C97.0502 179.558 96.8786 179.558 96.5926 179.558C96.2494 179.558 95.7918 179.558 95.2198 179.558C93.9614 179.558 92.2454 179.558 90.129 179.615C85.839 179.672 79.8902 179.843 73.3122 180.014C66.7342 180.185 60.7854 180.356 56.4954 180.356C54.3218 180.356 52.6058 180.356 51.4046 180.299C50.8326 180.299 50.375 180.242 50.0318 180.242C49.6886 180.242 49.5742 180.242 49.5742 180.185C49.5742 180.185 49.7458 180.185 50.0318 180.185C50.375 180.185 50.8326 180.185 51.4046 180.185C52.663 180.185 54.379 180.185 56.4954 180.128C60.7854 180.071 66.7342 179.9 73.3122 179.729C79.8902 179.558 85.839 179.387 90.129 179.387C92.3026 179.387 94.0186 179.387 95.2198 179.444C95.7918 179.444 96.2494 179.501 96.5926 179.501C96.8786 179.558 97.0502 179.558 97.0502 179.558Z" fill="#263238"/>
<path d="M85.1525 103.919C85.0953 103.976 84.4088 103.178 83.2648 102.494C82.178 101.81 81.1484 101.525 81.1484 101.468C81.1484 101.411 82.2352 101.525 83.3792 102.266C84.6376 102.95 85.2669 103.862 85.1525 103.919Z" fill="#E8505B"/>
<path d="M81.4922 166.904C81.721 167.303 82.2358 167.474 82.6934 167.474C83.151 167.474 83.6086 167.303 84.0662 167.303C84.5238 167.303 85.0386 167.417 85.2674 167.816C85.439 168.158 85.439 168.557 85.2102 168.842C85.0386 169.184 84.7526 169.412 84.4094 169.583C82.865 170.495 80.8058 170.267 79.4902 169.127" fill="#B78876"/>
<path d="M70.9668 173.972C72.3396 175.283 73.7696 176.537 75.3712 177.563C75.7144 177.791 76.1148 178.019 76.5152 177.962C76.9156 177.905 77.2588 177.335 76.9728 177.05C77.3732 177.392 78.0596 177.392 78.5172 177.107C78.9176 176.822 79.1464 176.252 78.9748 175.739C78.9748 175.682 78.9748 175.682 79.032 175.682C79.4324 175.853 79.9472 175.853 80.2904 175.568C80.6908 175.34 80.9196 174.827 80.748 174.371C81.1484 174.941 82.178 174.713 82.5212 174.086C82.8644 173.459 82.6356 172.661 82.178 172.091C81.7204 171.521 81.1484 171.122 80.5764 170.666C80.0044 170.21 79.4896 169.64 79.3752 168.956" fill="#F5C9B2"/>
<path d="M77.2021 177.278C77.1449 177.335 76.4013 177.05 75.7149 176.309C75.0285 175.568 74.6853 174.827 74.7425 174.77C74.7997 174.713 75.2573 175.397 75.8865 176.081C76.5729 176.765 77.2593 177.221 77.2021 177.278Z" fill="#AA6550"/>
<path d="M79.375 175.967C79.3178 176.024 78.6886 175.682 78.0022 175.055C77.373 174.428 76.9726 173.744 77.0298 173.687C77.087 173.63 77.5446 174.2 78.1738 174.827C78.8602 175.397 79.4322 175.853 79.375 175.967Z" fill="#AA6550"/>
<path d="M81.2057 174.656C81.1485 174.713 80.5193 174.371 79.8901 173.801C79.2609 173.174 78.9177 172.547 78.9749 172.547C79.0321 172.49 79.4897 173.003 80.1189 173.63C80.7481 174.143 81.2629 174.542 81.2057 174.656Z" fill="#AA6550"/>
<path d="M67.249 161.09C67.249 161.09 67.0774 160.349 68.965 160.577C70.8526 160.805 71.7106 160.976 73.7698 160.862C75.8862 160.748 79.3182 160.178 79.3182 160.178L84.8094 165.023C84.8094 165.023 79.2038 169.982 77.4878 170.837C75.829 171.692 72.397 173.915 70.395 173.801C68.9078 173.744 68.7934 173.003 68.7934 173.003C68.7934 173.003 67.3634 172.034 67.535 171.521C67.535 171.521 65.819 171.407 66.1622 170.096C66.1622 170.096 64.961 169.868 64.7322 169.184C64.5606 168.5 65.4758 167.645 65.819 167.303C66.391 166.733 71.4246 163.085 71.4246 162.971C71.4246 162.971 67.1346 162.572 67.249 161.09Z" fill="#F5C9B2"/>
<path d="M70.7952 166.448C70.8524 166.505 69.8228 167.36 68.5644 168.386C67.2488 169.355 66.162 170.153 66.1048 170.096C66.0476 170.039 67.0772 169.184 68.3356 168.158C69.6512 167.132 70.738 166.391 70.7952 166.448Z" fill="#AA6550"/>
<path d="M73.4269 166.961C73.4841 166.961 73.1981 167.36 72.7405 167.873C72.2829 168.386 71.5965 169.07 70.7957 169.697C69.9377 170.324 69.1369 170.837 68.5077 171.122C67.8785 171.407 67.4781 171.578 67.4781 171.521C67.4209 171.464 68.9653 170.723 70.5669 169.412C72.2829 168.158 73.3697 166.904 73.4269 166.961Z" fill="#AA6550"/>
<path d="M75.8287 168.671C75.8287 168.671 75.5999 169.127 75.0851 169.697C74.5703 170.267 73.7695 171.008 72.7399 171.635C71.7103 172.262 70.6807 172.604 69.9371 172.832C69.1935 173.003 68.6787 173.06 68.6787 173.003C68.6787 172.889 70.5663 172.604 72.5683 171.407C74.5703 170.096 75.7143 168.557 75.8287 168.671Z" fill="#AA6550"/>
<path d="M82.5212 167.075C82.5212 167.075 82.4068 167.246 82.1208 167.531C81.8348 167.816 81.4344 168.158 80.8624 168.557C79.7756 169.412 78.2884 170.552 76.458 171.578C75.5428 172.091 74.6848 172.547 73.884 172.946C73.0832 173.345 72.2824 173.63 71.596 173.801C70.9096 173.972 70.3376 173.915 69.9372 173.801C69.5368 173.687 69.3652 173.573 69.3652 173.573C69.3652 173.516 70.166 173.972 71.5388 173.63C72.168 173.459 72.9116 173.174 73.7124 172.775C74.5132 172.376 75.3712 171.92 76.2864 171.407C78.0596 170.381 79.604 169.298 80.6908 168.443C81.8348 167.588 82.5212 167.018 82.5212 167.075Z" fill="#AA6550"/>
<path d="M72.4547 71.258C66.9634 70.745 62.1014 74.849 61.701 80.321C61.3578 84.881 61.0146 89.84 61.0146 92.348C61.0146 97.706 66.3342 98.618 66.3342 98.618C66.3342 98.618 66.1627 100.214 65.9911 102.152C65.6479 106.085 68.6223 109.562 72.6263 109.79C76.5159 110.018 79.8907 107.054 80.1195 103.178L81.3779 81.632C81.7211 76.331 77.7743 71.714 72.4547 71.258Z" fill="#F5C9B2"/>
<path d="M66.3341 98.504C66.3341 98.504 69.7089 98.846 73.3697 96.623C73.3697 96.623 71.5965 100.499 66.2197 99.929L66.3341 98.504Z" fill="#F5C9B2"/>
<path d="M80.8631 83.456C80.9776 83.399 84.5812 82.43 84.4096 86.078C84.238 89.726 80.5771 88.814 80.5771 88.7C80.5771 88.586 80.8631 83.456 80.8631 83.456Z" fill="#F5C9B2"/>
<path d="M81.7783 87.389C81.7783 87.389 81.8355 87.446 81.9499 87.503C82.0643 87.56 82.2359 87.617 82.4075 87.56C82.8079 87.446 83.1511 86.819 83.2083 86.192C83.2083 85.85 83.1511 85.565 83.0939 85.28C82.9795 84.995 82.8079 84.824 82.6363 84.767C82.4647 84.71 82.2931 84.824 82.2359 84.938C82.1787 85.052 82.1787 85.109 82.1787 85.109C82.1787 85.109 82.1215 85.052 82.1215 84.881C82.1215 84.824 82.1787 84.71 82.2931 84.653C82.4075 84.596 82.5219 84.539 82.6363 84.596C82.9223 84.653 83.1511 84.881 83.2655 85.166C83.3799 85.451 83.4943 85.85 83.4371 86.192C83.3799 86.933 82.9795 87.617 82.4075 87.731C82.1215 87.788 81.9499 87.674 81.8355 87.617C81.7783 87.446 81.7783 87.389 81.7783 87.389Z" fill="#F5C9B2"/>
<path d="M63.7607 83.2281C63.7607 83.6271 64.0467 83.9691 64.5043 84.0261C64.9047 84.0831 65.3051 83.7411 65.3051 83.3421C65.3051 82.9431 65.0191 82.6011 64.5615 82.5441C64.1611 82.5441 63.7607 82.8291 63.7607 83.2281Z" fill="#263238"/>
<path d="M63.0166 82.2591C63.131 82.3731 63.703 81.9171 64.5038 81.9741C65.3046 81.9741 65.9338 82.4301 65.991 82.3161C66.0482 82.2591 65.9338 82.0881 65.705 81.9171C65.4762 81.7461 65.0186 81.5181 64.5038 81.5181C63.989 81.5181 63.5314 81.6891 63.3026 81.8601C63.0738 82.0311 63.0166 82.2021 63.0166 82.2591Z" fill="#263238"/>
<path d="M72.0537 83.4561C72.0537 83.8551 72.3397 84.1971 72.7973 84.2541C73.1977 84.3111 73.5981 83.9691 73.5981 83.5701C73.5981 83.1711 73.3121 82.8291 72.8545 82.7721C72.3969 82.7721 72.0537 83.0571 72.0537 83.4561Z" fill="#263238"/>
<path d="M71.1386 82.4871C71.253 82.6011 71.825 82.1451 72.6258 82.2021C73.4266 82.2021 74.0558 82.6581 74.113 82.5441C74.1702 82.4871 74.0558 82.3161 73.827 82.1451C73.5982 81.9741 73.1406 81.7461 72.6258 81.7461C72.111 81.7461 71.6534 81.9171 71.4246 82.0881C71.1958 82.2591 71.0814 82.4871 71.1386 82.4871Z" fill="#263238"/>
<path d="M68.0502 88.5861C68.0502 88.5291 67.5354 88.4721 66.7346 88.3011C66.5058 88.3011 66.3343 88.2441 66.2771 88.0731C66.2199 87.9021 66.3342 87.6741 66.4486 87.4461C66.6774 86.9331 66.849 86.42 67.0778 85.85C67.993 83.57 68.6223 81.746 68.5651 81.689C68.4507 81.632 67.6498 83.456 66.7918 85.7361C66.563 86.3061 66.3914 86.819 66.1626 87.332C66.1054 87.56 65.9338 87.845 66.0482 88.1301C66.1054 88.3011 66.2771 88.4151 66.3915 88.4151C66.5059 88.4721 66.6202 88.472 66.7346 88.472C67.5354 88.586 68.0502 88.5861 68.0502 88.5861Z" fill="#263238"/>
<path d="M70.167 79.523C70.2814 79.751 71.0822 79.58 72.0546 79.637C73.027 79.694 73.8278 79.922 73.9422 79.694C73.9994 79.58 73.8278 79.409 73.5418 79.181C73.1986 79.01 72.6838 78.839 72.1118 78.782C71.5398 78.782 71.025 78.896 70.6818 79.067C70.3386 79.238 70.167 79.409 70.167 79.523Z" fill="#263238"/>
<path d="M62.7304 79.181C62.8448 79.352 63.4168 79.181 64.1032 79.181C64.7896 79.181 65.3616 79.352 65.476 79.124C65.5332 79.01 65.476 78.839 65.19 78.668C64.9612 78.497 64.5036 78.326 64.046 78.326C63.5884 78.326 63.188 78.497 62.902 78.668C62.7304 78.953 62.6732 79.124 62.7304 79.181Z" fill="#263238"/>
<path d="M81.3203 83.285C81.3775 83.855 81.3203 84.482 81.2059 85.052C81.0915 85.622 80.7483 86.135 80.2335 86.363C79.3183 86.819 78.1743 86.078 77.7739 85.166C77.3735 84.197 77.4879 83.171 77.6023 82.145C77.7739 80.777 77.8311 79.352 77.6023 77.984C77.3735 76.616 76.7443 75.248 75.6575 74.393C74.5707 73.481 72.9691 73.196 71.7107 73.766C70.9099 74.108 70.3379 74.792 69.5943 75.248C68.9079 75.647 68.1643 75.932 67.3635 75.761C66.6199 75.647 65.5331 75.077 65.7047 74.336C65.9907 72.569 64.7895 74.051 64.8467 73.766C64.9611 73.253 65.9907 72.398 66.4483 72.056C67.2491 71.486 68.0499 71.201 68.9079 71.03C71.2531 70.631 73.7127 70.916 75.8863 71.828C78.0599 72.74 80.0047 74.393 80.8627 76.559C81.8923 79.067 81.7207 80.606 81.3775 83.342" fill="#263238"/>
<path d="M69.8232 90.98C69.8232 91.151 69.1368 91.3219 68.2788 91.3789C67.4208 91.4359 66.7344 91.322 66.7344 91.151C66.7344 90.98 67.4208 90.809 68.2788 90.752C69.0796 90.752 69.8232 90.809 69.8232 90.98Z" fill="#263238"/>
<path d="M81.3206 83.6271C81.3206 83.6841 80.863 83.5701 80.1766 83.3991C79.4902 83.1711 78.575 82.8291 77.6026 82.4301C76.6874 82.0311 75.8294 81.6891 75.0286 81.4041C74.3994 81.1761 73.9418 81.0051 73.999 80.9481C73.999 80.8911 74.4566 81.0051 75.143 81.1761C75.8294 81.4041 76.7446 81.7461 77.717 82.1451C78.6322 82.5441 79.4902 82.8861 80.291 83.1711C80.9202 83.4561 81.3206 83.5701 81.3206 83.6271Z" fill="#263238"/>
<path d="M66.0483 80.4921C66.5631 80.5491 66.9635 80.8911 67.0207 81.4041C67.1923 82.3731 67.0207 83.3421 66.5631 84.2541C65.9911 85.3371 64.9043 86.1921 63.7031 86.5341C63.0167 86.7051 62.2159 86.7051 61.5867 86.3631C60.7287 85.8501 60.4427 84.7101 60.3855 83.6841C60.3283 82.9431 60.3283 82.1451 60.7287 81.5751C61.2435 80.7771 62.2731 80.4921 63.1883 80.4351C64.1607 80.3211 66.0483 80.4921 66.0483 80.4921Z" fill="#263238"/>
<path d="M70.3382 80.6061C69.8234 80.6631 69.423 81.0051 69.3658 81.5181C69.1942 82.4871 69.3086 83.5131 69.7662 84.3681C70.3382 85.5081 71.3678 86.3631 72.6262 86.7621C73.3126 86.9901 74.1134 86.9901 74.7426 86.6481C75.6006 86.1351 75.9438 84.9951 76.001 84.0261C76.0582 83.2851 76.0582 82.4871 75.715 81.8601C75.2002 81.0621 74.2278 80.7201 73.2554 80.6631C72.283 80.6061 70.3382 80.6061 70.3382 80.6061Z" fill="#263238"/>
<path d="M71.1963 80.7771C71.1963 80.8341 69.7663 80.8911 68.0503 80.8911C66.3343 80.8341 64.9043 80.7771 64.9043 80.6631C64.9043 80.6061 66.3343 80.5491 68.0503 80.5491C69.8235 80.5491 71.1963 80.6631 71.1963 80.7771Z" fill="#263238"/>
<path d="M81.0918 105.002C81.0918 105.002 81.0918 104.945 81.0918 104.888C81.0918 104.831 81.0918 104.717 81.0918 104.603C81.0918 104.375 81.2634 104.033 81.435 103.634C81.6638 103.235 81.8926 102.779 82.0642 102.209C82.2358 101.639 82.293 100.955 82.293 100.157C82.293 99.359 82.1786 98.561 82.1214 97.649C82.1214 97.421 82.1214 97.136 82.293 96.908C82.4074 96.68 82.6934 96.452 83.0366 96.566C83.2082 96.623 83.3226 96.68 83.3798 96.851C83.4942 96.965 83.4942 97.193 83.3798 97.364C83.151 97.649 82.8078 97.649 82.5218 97.535C82.007 97.307 81.6638 96.623 81.8354 96.053C81.8926 95.768 82.0642 95.483 82.3502 95.312C82.4646 95.198 82.6362 95.141 82.8078 95.141C82.9794 95.141 83.151 95.141 83.3226 95.312C83.437 95.426 83.5514 95.654 83.437 95.882C83.3226 96.11 83.0938 96.167 82.9794 96.167C82.6362 96.167 82.293 96.053 82.1214 95.768C81.8926 95.54 81.7782 95.198 81.8354 94.856C81.8926 94.514 82.1214 94.229 82.4074 94.058C82.6362 93.887 82.9222 93.83 83.2082 93.887C83.3798 93.944 83.4942 94.001 83.6086 94.115C83.723 94.229 83.7802 94.4 83.723 94.571C83.6658 94.742 83.4942 94.856 83.3798 94.913C83.2082 94.97 83.0938 94.97 82.9794 94.97C82.6934 94.913 82.4646 94.799 82.2358 94.628C81.8354 94.286 81.5494 93.716 81.7782 93.203C81.9498 92.747 82.4646 92.348 83.0366 92.462C83.2654 92.519 83.5514 92.69 83.6086 93.032C83.6086 93.203 83.5514 93.317 83.437 93.431C83.3226 93.545 83.2082 93.602 83.0938 93.602C82.8078 93.602 82.579 93.488 82.4074 93.374C82.2358 93.26 82.0642 93.089 82.007 92.861C81.7782 92.462 81.8926 91.892 82.293 91.664C82.6934 91.379 83.2654 91.607 83.3798 92.063V92.12L83.3226 92.177C82.7506 92.462 82.1214 92.177 81.9498 91.664C81.8354 91.436 81.8926 91.151 82.007 90.923C82.1214 90.695 82.293 90.581 82.5218 90.467C82.7506 90.353 82.9794 90.353 83.151 90.467C83.3226 90.524 83.4942 90.752 83.4942 90.98C83.4942 91.094 83.3798 91.208 83.2654 91.208C83.151 91.265 83.0366 91.208 82.9794 91.208C82.8078 91.151 82.6934 90.923 82.6934 90.809C82.579 90.239 82.6362 89.783 82.6934 89.441C82.7506 89.156 82.8078 88.985 82.8078 88.985C82.865 88.985 82.6362 89.669 82.865 90.752C82.9222 90.866 82.9794 90.98 83.0938 91.037C83.2082 91.094 83.3798 91.037 83.3798 90.923C83.437 90.638 82.9794 90.467 82.6362 90.638C82.293 90.752 82.007 91.208 82.1786 91.55C82.293 91.892 82.865 92.177 83.2654 91.949L83.2082 92.063C83.151 91.778 82.7506 91.607 82.5218 91.835C82.2358 92.006 82.1786 92.405 82.3502 92.747C82.5218 93.032 82.865 93.374 83.2082 93.374C83.3798 93.374 83.4942 93.26 83.4942 93.089C83.4942 92.975 83.3226 92.804 83.151 92.804C82.8078 92.69 82.4074 92.975 82.2358 93.374C82.0642 93.716 82.293 94.172 82.6362 94.457C82.8078 94.571 82.9794 94.685 83.2082 94.685C83.3798 94.742 83.6086 94.628 83.6658 94.514C83.723 94.4 83.5514 94.229 83.3798 94.172C83.2082 94.115 82.9794 94.172 82.8078 94.286C82.579 94.4 82.4074 94.628 82.4074 94.913C82.3502 95.141 82.4646 95.426 82.6362 95.597C82.8078 95.768 83.0366 95.882 83.2654 95.882C83.4942 95.882 83.5514 95.711 83.437 95.54C83.3226 95.426 83.0366 95.426 82.865 95.597C82.6934 95.711 82.5218 95.939 82.4646 96.167C82.3502 96.623 82.579 97.136 82.9794 97.307C83.151 97.364 83.437 97.364 83.4942 97.25C83.6086 97.136 83.4942 96.908 83.2654 96.851C83.0938 96.794 82.9222 96.908 82.8078 97.079C82.6934 97.25 82.6362 97.478 82.6362 97.649C82.6934 98.561 82.7506 99.416 82.7506 100.214C82.7506 101.012 82.6362 101.696 82.4646 102.323C82.293 102.95 82.007 103.406 81.7782 103.748C81.5494 104.09 81.435 104.432 81.3778 104.66C81.0918 104.888 81.0918 105.002 81.0918 105.002Z" fill="#E0E0E0"/>
<path d="M83.2079 87.503C83.1507 87.218 83.0935 86.933 82.9791 86.705C82.8075 86.477 82.5787 86.306 82.2927 86.249C82.0067 86.192 81.6635 86.42 81.5491 86.705C81.4347 86.99 81.6063 87.332 81.8351 87.503L81.8923 87.56C82.0067 87.617 82.1211 87.617 82.2355 87.674C82.4071 87.788 82.5215 88.073 82.4643 88.301C82.4643 88.529 82.4071 88.757 82.4071 88.985C82.4071 89.156 82.5215 89.327 82.6931 89.327C82.8647 89.327 82.9219 89.213 82.9791 89.042C83.2651 88.643 83.2651 88.073 83.2079 87.503Z" fill="#E0E0E0"/>
<path d="M66.277 99.4159C66.277 99.4159 65.133 101.069 65.0186 102.209C64.9614 102.95 65.419 105.743 65.7622 107.567C65.9338 108.593 66.3914 109.619 66.9634 110.474L67.707 111.557C68.7938 113.153 69.709 114.806 70.3954 116.573C71.8254 120.221 74.285 126.377 74.3422 126.662C74.4566 127.061 75.429 128.828 75.429 128.828L76.7446 113.438L80.6342 105.743C80.9774 105.059 81.149 104.318 81.2062 103.577L81.3206 101.126C81.3778 100.214 81.0346 99.3589 80.4054 98.6749L80.2338 100.898L73.7702 106.712L66.277 101.696V99.4159Z" fill="white"/>
<path d="M73.4272 106.826C73.4844 106.883 72.6836 107.111 72.0544 108.08C71.4252 109.049 70.9104 110.588 70.51 112.355C70.4528 112.526 70.3956 112.697 70.3956 112.868L70.3384 113.096L70.1668 112.925C68.8512 111.842 67.8788 110.702 67.1352 109.904C66.3916 109.106 65.9912 108.593 65.9912 108.593C65.9912 108.593 66.506 108.992 67.2496 109.79C67.9932 110.531 69.0228 111.671 70.3384 112.697L70.1096 112.754C70.1668 112.583 70.1668 112.412 70.224 112.241C70.6244 110.474 71.1964 108.935 71.8828 107.966C72.226 107.453 72.6264 107.168 72.9124 106.997C73.1984 106.883 73.4272 106.826 73.4272 106.826Z" fill="#263238"/>
<path d="M78.0027 110.987C78.0599 111.044 77.4307 111.956 76.5727 113.324L76.3439 113.666V113.21C76.3439 112.583 76.1723 111.899 75.9435 111.101C75.6003 109.79 75.2571 108.593 74.7995 107.852C74.3419 107.111 73.8271 106.826 73.8843 106.769C73.8843 106.769 73.9987 106.826 74.2275 106.94C74.4563 107.111 74.6851 107.339 74.9711 107.738C75.5431 108.479 75.8863 109.676 76.2295 110.987C76.4583 111.728 76.6299 112.469 76.6299 113.153L76.4011 113.096C77.3163 111.842 77.9455 110.93 78.0027 110.987Z" fill="#263238"/>
<path d="M75.0854 127.802C75.0282 127.802 74.6278 123.128 74.2846 117.371C73.9414 111.614 73.6554 106.94 73.7698 106.94C73.827 106.94 74.2274 111.614 74.5706 117.371C74.9138 123.128 75.1426 127.802 75.0854 127.802Z" fill="#263238"/>
<path d="M60.6716 83.627C60.6144 83.684 60.3283 83.057 60.6143 82.316C60.8431 81.575 61.4151 81.233 61.4723 81.29C61.5295 81.347 61.1291 81.746 60.9003 82.43C60.6715 83.057 60.7287 83.627 60.6716 83.627Z" fill="#E0E0E0"/>
<path d="M70.1099 83.969C70.0527 84.026 69.6523 83.513 69.6523 82.829C69.6523 82.088 70.0527 81.632 70.1099 81.689C70.1671 81.746 69.9383 82.202 69.9955 82.829C69.9383 83.456 70.1671 83.912 70.1099 83.969Z" fill="#E0E0E0"/>
</svg>
