<svg width="407" height="301" viewBox="0 0 407 301" fill="none" xmlns="http://www.w3.org/2000/svg">
<g clip-path="url(#clip0)">
<path d="M387 269.68H37V269.89H387V269.68Z" fill="#EBEBEB"/>
<path d="M88.59 276.33H73.75V276.54H88.59V276.33Z" fill="#EBEBEB"/>
<path d="M216.27 274.44H156.77V274.65H216.27V274.44Z" fill="#EBEBEB"/>
<path d="M111.061 282.84H84.3906V283.05H111.061V282.84Z" fill="#EBEBEB"/>
<path d="M351.929 281.65H321.689V281.86H351.929V281.65Z" fill="#EBEBEB"/>
<path d="M319.451 281.65H311.051V281.86H319.451V281.65Z" fill="#EBEBEB"/>
<path d="M296.629 278.71H280.529V278.92H296.629V278.71Z" fill="#EBEBEB"/>
<path d="M272.409 278.71H238.529V278.92H272.409V278.71Z" fill="#EBEBEB"/>
<path d="M202.9 238.46H67.7302C65.5602 238.46 63.7402 236.64 63.7402 234.47V44.49C63.7402 42.32 65.5602 40.5 67.7302 40.5H202.9C205.07 40.5 206.89 42.32 206.89 44.49V234.47C206.89 236.64 205.14 238.46 202.9 238.46ZM67.7302 40.64C65.6302 40.64 63.8802 42.32 63.8802 44.49V234.47C63.8802 236.57 65.5602 238.32 67.7302 238.32H202.9C205 238.32 206.75 236.64 206.75 234.47V44.49C206.75 42.39 205.07 40.64 202.9 40.64H67.7302Z" fill="#EBEBEB"/>
<path d="M354.31 238.46H219.14C216.97 238.46 215.15 236.64 215.15 234.47V44.49C215.15 42.32 216.97 40.5 219.14 40.5H354.31C356.48 40.5 358.3 42.32 358.3 44.49V234.47C358.3 236.64 356.55 238.46 354.31 238.46ZM219.14 40.64C217.04 40.64 215.29 42.32 215.29 44.49V234.47C215.29 236.57 216.97 238.32 219.14 238.32H354.31C356.41 238.32 358.16 236.64 358.16 234.47V44.49C358.16 42.39 356.48 40.64 354.31 40.64H219.14Z" fill="#EBEBEB"/>
<g opacity="0.6">
<path opacity="0.6" d="M283.609 152.85L288.789 147.67C299.779 158.66 299.779 176.44 288.789 187.43C281.439 194.78 271.009 197.23 261.629 194.71L263.519 187.64C270.449 189.53 278.149 187.71 283.609 182.25C291.729 174.13 291.729 160.97 283.609 152.85Z" fill="#EBEBEB"/>
<path opacity="0.6" d="M249.098 147.67C254.348 142.42 261.488 139.48 268.978 139.48C276.398 139.48 283.608 142.42 288.858 147.67L283.678 152.85C275.558 144.73 262.398 144.73 254.348 152.85L249.098 147.67Z" fill="#F5F5F5"/>
<path opacity="0.6" d="M249.098 147.67L254.278 152.85C246.158 160.97 246.158 174.13 254.278 182.18C256.938 184.84 260.158 186.66 263.588 187.57L261.698 194.64C246.788 190.65 237.828 175.11 241.818 160.2C243.078 155.51 245.598 151.17 249.098 147.67Z" fill="#E0E0E0"/>
</g>
<g opacity="0.6">
<path opacity="0.6" d="M306.708 126.95V137.94C283.398 137.94 264.498 119.04 264.498 95.7299C264.498 80.1199 272.968 66.4699 285.568 59.1899L291.098 68.7099C281.788 74.0999 275.488 84.1799 275.488 95.7299C275.488 112.95 289.488 126.95 306.708 126.95Z" fill="#EBEBEB"/>
<path opacity="0.6" d="M348.849 95.73C348.849 106.93 344.369 117.64 336.459 125.55C328.549 133.46 317.839 137.94 306.639 137.94V126.95C323.859 126.95 337.789 113.02 337.789 95.8H348.849V95.73Z" fill="#F5F5F5"/>
<path d="M348.848 95.73H337.858C337.858 78.51 323.928 64.58 306.708 64.58C301.038 64.58 295.718 66.12 291.098 68.78L285.568 59.26C305.588 47.71 331.628 54.64 343.178 74.73C346.888 81.03 348.848 88.31 348.848 95.73Z" fill="#7CC4FF"/>
</g>
<g opacity="0.5">
<g opacity="0.5">
<path opacity="0.5" d="M233.693 269.71H252.383V230.23H233.693V269.71Z" fill="#F5F5F5"/>
<path opacity="0.5" d="M211.124 269.66H229.814V242.08H211.124V269.66Z" fill="#E6E6E6"/>
<path opacity="0.5" d="M188.624 269.668H207.314V252.238H188.624V269.668Z" fill="#F0F0F0"/>
</g>
<g opacity="0.5">
<path opacity="0.5" d="M303.816 269.66H322.506V242.08H303.816V269.66Z" fill="#F5F5F5"/>
<path opacity="0.5" d="M281.318 269.672H300.008V248.182H281.318V269.672Z" fill="#E6E6E6"/>
<path opacity="0.5" d="M258.818 269.651H277.508V223.381H258.818V269.651Z" fill="#F0F0F0"/>
</g>
<g opacity="0.5">
<path opacity="0.5" d="M163.497 269.674H182.188V226.484H163.497V269.674Z" fill="#F5F5F5"/>
<path opacity="0.5" d="M140.999 269.66H159.689V242.08H140.999V269.66Z" fill="#E6E6E6"/>
<path opacity="0.5" d="M118.429 269.692H137.119V233.362H118.429V269.692Z" fill="#F0F0F0"/>
</g>
</g>
<g opacity="0.6">
<g opacity="0.6">
<path opacity="0.6" d="M76.2695 57.65C76.2695 55.06 78.4395 52.89 81.0295 52.89H229.64C232.23 52.89 234.4 55.06 234.4 57.65V72.98H76.2695V57.65Z" fill="#5CA8E6"/>
<path d="M114.84 66.89C112.67 66.89 110.85 65.14 110.85 62.9C110.85 60.66 112.6 58.91 114.84 58.91C117.08 58.91 118.83 60.66 118.83 62.9C118.83 65.14 117.01 66.89 114.84 66.89ZM114.84 59.68C113.02 59.68 111.55 61.15 111.55 62.97C111.55 64.79 113.02 66.26 114.84 66.26C116.66 66.26 118.13 64.79 118.13 62.97C118.13 61.15 116.66 59.68 114.84 59.68Z" fill="white"/>
<path d="M102.029 66.89C99.8591 66.89 98.0391 65.14 98.0391 62.9C98.0391 60.66 99.7891 58.91 102.029 58.91C104.199 58.91 106.019 60.66 106.019 62.9C106.019 65.14 104.269 66.89 102.029 66.89ZM102.029 59.68C100.209 59.68 98.7391 61.15 98.7391 62.97C98.7391 64.79 100.209 66.26 102.029 66.26C103.849 66.26 105.319 64.79 105.319 62.97C105.319 61.15 103.849 59.68 102.029 59.68Z" fill="white"/>
<path d="M89.2888 66.89C87.1188 66.89 85.2988 65.14 85.2988 62.9C85.2988 60.66 87.0488 58.91 89.2888 58.91C91.4588 58.91 93.2788 60.66 93.2788 62.9C93.2788 65.14 91.4588 66.89 89.2888 66.89ZM89.2888 59.68C87.4688 59.68 85.9988 61.15 85.9988 62.97C85.9988 64.79 87.4688 66.26 89.2888 66.26C91.1088 66.26 92.5788 64.79 92.5788 62.97C92.5788 61.15 91.1088 59.68 89.2888 59.68Z" fill="white"/>
<path d="M229.64 176.37H81.0295C78.4395 176.37 76.2695 174.2 76.2695 171.61V72.98H234.4V171.61C234.4 174.27 232.23 176.37 229.64 176.37Z" fill="#E0E0E0"/>
</g>
<g opacity="0.6">
<path opacity="0.6" d="M100.42 94.61C100.42 92.02 102.59 89.85 105.18 89.85H253.79C256.38 89.85 258.55 92.02 258.55 94.61V109.94H100.42V94.61Z" fill="#F5F5F5"/>
<path opacity="0.6" d="M138.99 103.85C136.82 103.85 135 102.1 135 99.86C135 97.62 136.75 95.87 138.99 95.87C141.23 95.87 142.98 97.62 142.98 99.86C142.98 102.1 141.16 103.85 138.99 103.85ZM138.99 96.64C137.17 96.64 135.7 98.11 135.7 99.93C135.7 101.75 137.17 103.22 138.99 103.22C140.81 103.22 142.28 101.75 142.28 99.93C142.21 98.11 140.74 96.64 138.99 96.64Z" fill="#E6E6E6"/>
<path opacity="0.6" d="M126.179 103.85C124.009 103.85 122.189 102.1 122.189 99.86C122.189 97.62 123.939 95.87 126.179 95.87C128.419 95.87 130.169 97.62 130.169 99.86C130.169 102.1 128.349 103.85 126.179 103.85ZM126.179 96.64C124.359 96.64 122.889 98.11 122.889 99.93C122.889 101.75 124.359 103.22 126.179 103.22C127.999 103.22 129.469 101.75 129.469 99.93C129.469 98.11 127.999 96.64 126.179 96.64Z" fill="#E6E6E6"/>
<path opacity="0.6" d="M113.439 103.85C111.269 103.85 109.449 102.1 109.449 99.86C109.449 97.62 111.199 95.87 113.439 95.87C115.609 95.87 117.429 97.62 117.429 99.86C117.429 102.1 115.609 103.85 113.439 103.85ZM113.439 96.64C111.619 96.64 110.149 98.11 110.149 99.93C110.149 101.75 111.619 103.22 113.439 103.22C115.259 103.22 116.729 101.75 116.729 99.93C116.659 98.11 115.189 96.64 113.439 96.64Z" fill="#E6E6E6"/>
<path opacity="0.6" d="M253.72 213.4H105.18C102.59 213.4 100.42 211.23 100.42 208.64V109.94H258.55V208.57C258.55 211.23 256.38 213.4 253.72 213.4Z" fill="#E6E6E6"/>
</g>
</g>
<path d="M212 301.25C286.961 301.25 347.73 297.709 347.73 293.34C347.73 288.971 286.961 285.43 212 285.43C137.038 285.43 76.2695 288.971 76.2695 293.34C76.2695 297.709 137.038 301.25 212 301.25Z" fill="#7CC4FF"/>
<path d="M223.551 116.38C224.531 116.38 225.301 115.54 225.301 114.56L224.811 104.2C224.741 103.22 223.901 102.38 222.921 102.38H221.521L220.261 76.62C219.981 71.02 215.151 66.4 209.551 66.4H128.911C123.311 66.4 118.901 71.02 119.181 76.62L120.441 102.45C119.741 102.73 119.181 103.43 119.251 104.27L120.511 129.05C120.581 129.89 121.141 130.59 121.911 130.87L127.301 240.28C127.581 245.88 132.411 250.5 138.011 250.5H218.581C224.181 250.5 228.591 245.88 228.311 240.28L223.131 134.79H224.531C225.511 134.79 226.281 133.95 226.281 132.97L225.791 122.61C225.721 121.63 224.881 120.79 223.901 120.79H222.501L222.291 116.31H223.551V116.38Z" fill="#407BFF"/>
<path d="M139.761 250.57H220.331C225.931 250.57 230.341 245.95 230.061 240.35L221.941 76.62C221.661 71.02 216.831 66.4 211.231 66.4H130.661C125.061 66.4 120.651 71.02 120.931 76.62L129.051 240.35C129.261 245.95 134.091 250.57 139.761 250.57Z" fill="#407BFF"/>
<path opacity="0.4" d="M139.761 250.57H220.331C225.931 250.57 230.341 245.95 230.061 240.35L221.941 76.62C221.661 71.02 216.831 66.4 211.231 66.4H130.661C125.061 66.4 120.651 71.02 120.931 76.62L129.051 240.35C129.261 245.95 134.091 250.57 139.761 250.57Z" fill="#FAFAFA"/>
<path d="M133.111 236.29H225.511C226.421 236.29 227.051 235.59 227.051 234.68L219.561 82.57C219.491 81.66 218.791 80.96 217.881 80.96H125.481C124.571 80.96 123.941 81.66 123.941 82.57L131.431 234.68C131.501 235.59 132.271 236.29 133.111 236.29Z" fill="#7CC4FF"/>
<path opacity="0.7" d="M180.851 71.16H161.391C160.691 71.16 160.131 71.72 160.201 72.42C160.201 73.12 160.831 73.68 161.531 73.68H180.991C181.691 73.68 182.251 73.12 182.181 72.42C182.181 71.72 181.551 71.16 180.851 71.16Z" fill="#407BFF"/>
<path opacity="0.6" d="M251.901 204.65H171.121L165.381 87.47H246.161L251.901 204.65Z" fill="#407BFF"/>
<path d="M242.38 172.59C242.31 172.59 242.31 172.59 242.24 172.59L242.17 172.52L242.1 172.45C242.1 172.38 242.1 172.38 242.1 172.31C242.1 172.24 242.1 172.17 242.17 172.1C242.24 172.03 242.45 172.03 242.59 172.1C242.66 172.17 242.66 172.24 242.66 172.31C242.66 172.38 242.66 172.38 242.66 172.45C242.66 172.45 242.66 172.52 242.59 172.52L242.52 172.59C242.45 172.59 242.45 172.59 242.38 172.59Z" fill="white"/>
<path d="M243.15 194.5C243.15 194.36 243.29 194.22 243.43 194.22C243.57 194.22 243.71 194.36 243.71 194.5C243.71 194.64 243.57 194.78 243.43 194.78C243.36 194.78 243.22 194.64 243.15 194.5ZM243.08 192.26C243.08 192.12 243.22 191.98 243.36 191.98C243.5 191.98 243.64 192.12 243.64 192.26C243.64 192.4 243.5 192.54 243.36 192.54C243.22 192.54 243.08 192.47 243.08 192.26ZM242.94 190.09C242.94 189.95 243.08 189.81 243.22 189.81C243.36 189.81 243.5 189.95 243.5 190.09C243.5 190.23 243.36 190.37 243.22 190.37C243.08 190.37 243.01 190.23 242.94 190.09ZM242.87 187.85C242.87 187.71 243.01 187.57 243.15 187.57C243.29 187.57 243.43 187.71 243.43 187.85C243.43 187.99 243.29 188.13 243.15 188.13C243.01 188.13 242.87 187.99 242.87 187.85ZM242.73 185.61C242.73 185.47 242.87 185.33 243.01 185.33C243.15 185.33 243.29 185.47 243.29 185.61C243.29 185.75 243.15 185.89 243.01 185.89C242.87 185.89 242.73 185.82 242.73 185.61ZM242.66 183.44C242.66 183.3 242.8 183.16 242.94 183.16C243.08 183.16 243.22 183.3 243.22 183.44C243.22 183.58 243.08 183.72 242.94 183.72C242.8 183.72 242.66 183.58 242.66 183.44ZM242.52 181.2C242.52 181.06 242.66 180.92 242.8 180.92C242.94 180.92 243.08 181.06 243.08 181.2C243.08 181.34 242.94 181.48 242.8 181.48C242.66 181.48 242.52 181.34 242.52 181.2ZM242.45 178.96C242.45 178.82 242.59 178.68 242.73 178.68C242.87 178.68 243.01 178.82 243.01 178.96C243.01 179.1 242.87 179.24 242.73 179.24C242.52 179.24 242.45 179.17 242.45 178.96ZM242.31 176.79C242.31 176.65 242.45 176.51 242.59 176.51C242.73 176.51 242.87 176.65 242.87 176.79C242.87 176.93 242.73 177.07 242.59 177.07C242.45 177.07 242.31 176.93 242.31 176.79ZM242.17 174.55C242.17 174.41 242.31 174.27 242.45 174.27C242.59 174.27 242.73 174.41 242.73 174.55C242.73 174.69 242.59 174.83 242.45 174.83C242.31 174.83 242.17 174.69 242.17 174.55Z" fill="white"/>
<path d="M243.569 197.02C243.499 197.02 243.429 197.02 243.359 196.95C243.289 196.88 243.289 196.81 243.289 196.74C243.289 196.74 243.289 196.67 243.289 196.6C243.289 196.53 243.359 196.53 243.359 196.53L243.429 196.46C243.499 196.46 243.569 196.46 243.639 196.46C243.709 196.46 243.709 196.46 243.709 196.53L243.779 196.6C243.779 196.6 243.779 196.67 243.779 196.74C243.779 196.81 243.709 196.88 243.709 196.95L243.639 197.02C243.639 197.02 243.639 197.02 243.569 197.02Z" fill="white"/>
<path d="M240.911 196.67C240.911 196.53 241.051 196.39 241.191 196.39C241.331 196.39 241.471 196.53 241.471 196.67C241.471 196.81 241.331 196.95 241.191 196.95C241.051 197.02 240.911 196.88 240.911 196.67ZM238.601 196.67C238.601 196.53 238.741 196.39 238.881 196.39C239.021 196.39 239.161 196.53 239.161 196.67C239.161 196.81 239.021 196.95 238.881 196.95C238.741 197.02 238.601 196.88 238.601 196.67ZM236.221 196.67C236.221 196.53 236.361 196.39 236.501 196.39C236.641 196.39 236.781 196.53 236.781 196.67C236.781 196.81 236.641 196.95 236.501 196.95C236.361 197.02 236.221 196.88 236.221 196.67ZM233.911 196.67C233.911 196.53 234.051 196.39 234.191 196.39C234.331 196.39 234.471 196.53 234.471 196.67C234.471 196.81 234.331 196.95 234.191 196.95C234.051 197.02 233.911 196.88 233.911 196.67ZM231.531 196.67C231.531 196.53 231.671 196.39 231.811 196.39C231.951 196.39 232.091 196.53 232.091 196.67C232.091 196.81 231.951 196.95 231.811 196.95C231.671 197.02 231.531 196.88 231.531 196.67ZM229.221 196.67C229.221 196.53 229.361 196.39 229.501 196.39C229.641 196.39 229.781 196.53 229.781 196.67C229.781 196.81 229.641 196.95 229.501 196.95C229.361 197.02 229.221 196.88 229.221 196.67ZM226.841 196.67C226.841 196.53 226.981 196.39 227.121 196.39C227.261 196.39 227.401 196.53 227.401 196.67C227.401 196.81 227.261 196.95 227.121 196.95C226.981 197.02 226.841 196.88 226.841 196.67ZM224.531 196.67C224.531 196.53 224.671 196.39 224.811 196.39C224.951 196.39 225.091 196.53 225.091 196.67C225.091 196.81 224.951 196.95 224.811 196.95C224.601 197.02 224.531 196.88 224.531 196.67ZM222.151 196.67C222.151 196.53 222.291 196.39 222.431 196.39C222.571 196.39 222.711 196.53 222.711 196.67C222.711 196.81 222.571 196.95 222.431 196.95C222.291 197.02 222.151 196.88 222.151 196.67ZM219.771 196.67C219.771 196.53 219.911 196.39 220.051 196.39C220.191 196.39 220.331 196.53 220.331 196.67C220.331 196.81 220.191 196.95 220.051 196.95C219.911 197.02 219.771 196.88 219.771 196.67ZM217.461 196.67C217.461 196.53 217.601 196.39 217.741 196.39C217.881 196.39 218.021 196.53 218.021 196.67C218.021 196.81 217.881 196.95 217.741 196.95C217.601 197.02 217.461 196.88 217.461 196.67Z" fill="white"/>
<path d="M215.36 197.02C215.29 197.02 215.22 197.02 215.15 196.95L215.08 196.88C215.08 196.88 215.08 196.81 215.08 196.74C215.08 196.67 215.08 196.6 215.15 196.53C215.22 196.46 215.36 196.39 215.43 196.46C215.5 196.46 215.5 196.46 215.5 196.53C215.57 196.6 215.57 196.67 215.57 196.74C215.57 196.81 215.57 196.81 215.57 196.88C215.57 196.95 215.5 196.95 215.5 196.95L215.43 197.02C215.5 196.95 215.43 197.02 215.36 197.02Z" fill="white"/>
<path opacity="0.5" d="M247.701 118.69H166.921L165.381 87.47H246.161L247.701 118.69Z" fill="#407BFF"/>
<path d="M243.851 168.74L243.641 166.71C248.611 166.5 253.441 164.47 257.011 160.69C259.111 158.45 260.651 155.86 261.491 153.06L263.451 153.76C262.541 156.84 260.861 159.71 258.551 162.16C254.631 166.29 249.311 168.53 243.851 168.74Z" fill="#263238"/>
<path opacity="0.5" d="M255.611 131.5C253.021 128.98 249.941 127.3 246.721 126.32L247.211 124.36C250.711 125.41 254.071 127.3 256.941 130.03C263.661 136.47 265.901 145.71 263.451 153.76L261.491 153.06C263.731 145.78 261.701 137.31 255.611 131.5Z" fill="#407BFF"/>
<path d="M226.49 162.09C221.94 157.75 219.42 152.01 219.07 146.34H221.1C221.45 151.52 223.69 156.7 227.82 160.69C232.3 164.96 238.04 166.99 243.64 166.71L243.85 168.74C237.76 169.02 231.39 166.78 226.49 162.09Z" fill="#407BFF"/>
<path opacity="0.7" d="M219.07 146.34C218.72 140.46 220.61 134.51 224.88 130.03C230.69 123.87 239.37 121.98 247.21 124.36L246.72 126.32C239.58 124.15 231.67 125.9 226.35 131.5C222.43 135.63 220.68 141.02 221.03 146.34H219.07Z" fill="white"/>
<path d="M254.415 158.408C260.921 151.739 260.52 140.796 253.519 133.966C246.517 127.136 235.568 127.005 229.062 133.675C222.555 140.344 222.957 151.287 229.958 158.117C236.959 164.947 247.909 165.077 254.415 158.408Z" fill="#B4E8FE"/>
<path d="M199.539 179.94L199.189 181.34C195.689 180.36 191.909 180.57 188.549 182.25C186.589 183.23 184.909 184.63 183.719 186.31L182.529 185.4C183.859 183.58 185.679 182.04 187.849 180.92C191.559 179.1 195.689 178.82 199.539 179.94Z" fill="#263238"/>
<path opacity="0.5" d="M182.81 202.06C184 204.3 185.75 206.19 187.71 207.52L186.94 208.71C184.77 207.17 182.88 205.14 181.55 202.69C178.4 196.88 179.03 190.16 182.53 185.4L183.72 186.31C180.5 190.65 179.94 196.74 182.81 202.06Z" fill="#407BFF"/>
<path opacity="0.7" d="M209.969 188.34C212.139 192.33 212.489 196.67 211.439 200.52L210.039 200.1C211.019 196.53 210.669 192.61 208.709 188.97C206.609 185.12 203.109 182.39 199.189 181.27L199.539 179.87C203.809 181.13 207.659 184.07 209.969 188.34Z" fill="white"/>
<path d="M211.439 200.59C210.319 204.58 207.659 208.15 203.599 210.11C198.139 212.84 191.769 212.07 186.869 208.71L187.639 207.52C192.049 210.6 197.929 211.3 202.829 208.78C206.469 206.96 208.919 203.74 209.899 200.1L211.439 200.59Z" fill="#407BFF"/>
<path d="M204.841 204.361C209.511 199.573 209.237 191.731 204.228 186.845C199.219 181.959 191.373 181.878 186.703 186.666C182.032 191.453 182.307 199.295 187.315 204.182C192.324 209.068 200.171 209.148 204.841 204.361Z" fill="#B4E8FE"/>
<path d="M216.902 91.46H214.102L207.172 101.82L215.152 112.18H217.952L209.902 101.82L216.902 91.46Z" fill="#F6AC3B"/>
<path d="M225.162 91.46H227.962L235.942 101.82L229.012 112.18H226.212L233.212 101.82L225.162 91.46Z" fill="#F6AC3B"/>
<path d="M154.46 100.84H136.75C136.05 100.84 135.49 101.47 135.49 102.17L136.12 114.35C136.19 115.05 136.75 115.68 137.52 115.68H155.23C155.93 115.68 156.49 115.12 156.49 114.35L155.86 102.17C155.79 101.4 155.16 100.84 154.46 100.84ZM147.74 112.18H144.52L144.73 108.33C144.1 107.91 143.68 107.28 143.68 106.51C143.61 105.32 144.52 104.34 145.71 104.34C146.9 104.34 147.88 105.32 147.95 106.51C148.02 107.21 147.67 107.91 147.04 108.33L147.74 112.18Z" fill="#F6AC3B"/>
<path opacity="0.2" d="M143.75 106.51C143.82 107.21 144.17 107.91 144.8 108.33L144.59 112.18H146.2L146.34 115.68H137.52C136.82 115.68 136.19 115.12 136.12 114.35L135.49 102.17C135.42 101.47 136.05 100.84 136.75 100.84H145.57L145.71 104.34C144.59 104.34 143.68 105.32 143.75 106.51Z" fill="#E09D36"/>
<path d="M152.85 99.93C152.22 99.93 151.66 99.44 151.59 98.74L151.52 97.55C151.38 94.26 148.72 91.46 145.43 91.25C141.93 91.11 139.13 93.91 139.34 97.34L139.41 98.74C139.41 99.37 138.92 99.93 138.29 99.93C137.66 99.93 137.1 99.44 137.03 98.74L136.96 97.55C136.75 93 140.11 89.08 144.66 88.87C149.49 88.66 153.62 92.51 153.83 97.34L153.9 98.74C153.97 99.44 153.48 99.93 152.85 99.93Z" fill="#F6AC3B"/>
<path opacity="0.4" d="M160.55 230.41H102.73L97.7598 129.47H155.58L160.55 230.41Z" fill="#407BFF"/>
<path opacity="0.3" d="M155.79 134.3H97.9698L97.7598 129.47H155.58L155.79 134.3Z" fill="#407BFF"/>
<path opacity="0.3" d="M160.55 230.41H102.73L102.52 225.58H160.34L160.55 230.41Z" fill="#407BFF"/>
<path d="M115.68 158.03L113.58 156.98C113.23 156.07 112.88 155.23 112.39 154.39L112.95 152.22L108.4 147.88L106.23 148.58C105.39 148.16 104.48 147.81 103.57 147.53L102.38 145.5H96.29L95.31 147.53C94.4 147.81 93.56 148.16 92.79 148.58L90.55 147.88L86.42 152.22L87.19 154.39C86.77 155.23 86.49 156.07 86.21 156.98L84.25 158.03L84.53 164.12L86.63 165.17C86.98 166.08 87.33 166.92 87.82 167.76L87.4 170L91.95 174.34L94.12 173.64C94.96 174.06 95.87 174.41 96.78 174.69L97.97 176.72H104.06L105.04 174.69C105.95 174.41 106.79 174.06 107.56 173.64L109.8 174.34L113.93 170L113.16 167.83C113.58 166.99 113.86 166.15 114.14 165.24L116.1 164.19L115.68 158.03ZM100.77 172.17C94.68 172.17 89.43 167.2 89.15 161.11C88.87 154.95 93.56 150.05 99.72 150.05C105.81 150.05 111.06 155.02 111.34 161.11C111.62 167.2 106.86 172.17 100.77 172.17Z" fill="#407BFF"/>
<path opacity="0.6" d="M99.7191 151.52C94.4691 151.52 90.4091 155.79 90.6191 161.04C90.8991 166.29 95.3791 170.56 100.629 170.56C105.879 170.56 109.939 166.29 109.729 161.04C109.449 155.79 104.969 151.52 99.7191 151.52Z" fill="white"/>
<path d="M161.18 167.48H128.35C126.95 167.48 125.9 168.6 125.97 170L126.81 186.87C126.88 188.27 128.07 189.39 129.47 189.39H149.21L149.56 196.67L156.49 189.39H162.3C163.7 189.39 164.75 188.27 164.68 186.87L163.84 170C163.7 168.6 162.58 167.48 161.18 167.48Z" fill="#F6AC3B"/>
<path d="M116.871 195.55H139.271C140.181 195.55 141.021 196.32 141.091 197.23L141.651 208.71C141.721 209.62 140.951 210.39 140.041 210.39H126.531L126.811 215.36L121.561 210.39H117.641C116.731 210.39 115.891 209.62 115.821 208.71L115.261 197.23C115.191 196.32 115.891 195.55 116.871 195.55Z" fill="#F6AC3B"/>
<path d="M310.839 154.39L307.549 154.25L309.019 160.55C309.019 160.55 310.839 159.36 312.239 157.75C312.799 157.05 312.729 156.07 312.099 155.51L310.839 154.39Z" fill="#FFBE9D"/>
<path d="M303.699 157.61L305.169 162.72L309.019 160.48L307.549 154.25L303.699 157.61Z" fill="#FF8B7B"/>
<path d="M285.71 122.26L284.1 124.08C283.54 124.71 283.05 125.34 282.49 125.97C281.44 127.3 280.39 128.56 279.41 129.89C277.45 132.55 275.63 135.28 274.23 138.08C274.09 138.43 273.88 138.78 273.74 139.13L273.53 139.62C273.53 139.62 273.53 139.55 273.53 139.62C273.46 139.69 273.46 140.11 273.6 140.67C273.88 141.79 274.51 143.19 275.28 144.59C276.89 147.32 278.92 150.12 280.95 152.78L278.29 155.58C275.35 153.34 272.69 150.96 270.31 147.95C269.12 146.41 268 144.87 267.16 142.63C266.74 141.51 266.39 140.18 266.6 138.5C266.67 138.08 266.74 137.66 266.88 137.24L267.16 136.54C267.3 136.05 267.51 135.63 267.65 135.14C269.12 131.57 271.01 128.35 273.11 125.34C274.16 123.87 275.21 122.4 276.4 120.93C276.96 120.23 277.59 119.53 278.15 118.83C278.78 118.13 279.34 117.5 280.04 116.73L285.71 122.26Z" fill="#FFBE9D"/>
<path d="M285.15 155.02L282.21 160.97L279.27 158.45L281.65 154.25L285.15 155.02Z" fill="#FFBE9D"/>
<path d="M314.48 116.59C316.3 119.81 318.05 123.1 319.66 126.46C321.34 129.82 322.88 133.18 324.351 136.61L324.491 136.89L324.63 137.31C324.7 137.59 324.771 137.87 324.841 138.08C324.911 138.29 324.91 138.57 324.91 138.78C324.91 139.06 324.91 139.2 324.91 139.41C324.91 139.83 324.841 140.25 324.771 140.6C324.701 141.02 324.631 141.3 324.491 141.65C324.071 142.91 323.581 143.89 323.021 144.87C322.461 145.78 321.901 146.62 321.27 147.46C320.64 148.23 320.01 149 319.38 149.77C316.79 152.71 314.06 155.23 310.98 157.61L308.32 154.81C310.56 152.01 312.8 149.07 314.69 146.2C315.67 144.73 316.51 143.26 317.21 141.86C317.49 141.16 317.77 140.46 317.84 139.97C317.84 139.83 317.91 139.69 317.84 139.62C317.84 139.55 317.84 139.48 317.84 139.41C317.84 139.41 317.84 139.34 317.84 139.41C317.84 139.41 317.84 139.41 317.84 139.48V139.55V139.62C317.84 139.62 317.84 139.69 317.84 139.62C316.16 136.4 314.41 133.18 312.66 130.03C310.91 126.81 309.16 123.59 307.48 120.37L314.48 116.59Z" fill="#FFBE9D"/>
<path d="M288.019 96.7099C288.089 97.1299 287.949 97.4799 287.669 97.5499C287.389 97.6199 287.109 97.3399 287.039 96.9199C286.969 96.4999 287.109 96.1499 287.389 96.0799C287.599 96.0099 287.879 96.2899 288.019 96.7099Z" fill="#263238"/>
<path d="M287.95 97.48C287.95 97.48 287.53 100.07 286.76 101.47C287.6 101.96 288.79 101.33 288.79 101.33L287.95 97.48Z" fill="#FFBE9D"/>
<path d="M287.529 100.63C286.969 100.63 286.479 100.21 286.059 99.4399C285.639 98.6699 285.359 97.6899 285.289 96.5699C285.219 95.4499 285.359 94.3999 285.639 93.6299C285.919 92.7899 286.409 92.2999 286.969 92.2299C287.529 92.1599 288.089 92.5799 288.509 93.4199C288.929 94.1899 289.209 95.1699 289.279 96.2899C289.419 98.6699 288.719 100.56 287.599 100.63H287.529ZM287.039 92.5799C286.619 92.5799 286.199 92.9999 285.919 93.7699C285.639 94.5399 285.499 95.5199 285.569 96.5699C285.639 97.6199 285.919 98.5999 286.269 99.2999C286.619 99.9299 287.039 100.35 287.459 100.28C288.369 100.21 288.999 98.3899 288.789 96.2899C288.719 95.2399 288.439 94.2599 288.089 93.5599C287.879 92.9299 287.459 92.5799 287.039 92.5799Z" fill="#263238"/>
<path d="M286.901 94.26C286.971 94.26 286.971 94.26 287.041 94.19C287.041 94.19 287.811 93.7 288.79 94.05C288.93 94.12 289.07 94.05 289.14 93.91C289.21 93.77 289.14 93.63 289 93.56C287.74 93.07 286.83 93.7 286.76 93.7C286.621 93.77 286.621 93.91 286.691 94.05C286.761 94.19 286.831 94.26 286.901 94.26Z" fill="#263238"/>
<path d="M301.95 99.58C301.81 103.78 300.27 108.96 302.79 111.41C302.79 111.41 301.6 115.26 294.6 115.26C286.9 115.26 291.1 111.41 291.1 111.41C295.3 110.43 295.37 107.28 294.74 104.34L301.95 99.58Z" fill="#FFBE9D"/>
<path d="M304.609 112.74C305.239 111.55 305.799 109.66 304.609 109.24C303.279 108.75 296.349 107.56 291.029 109.24C292.009 111.2 291.099 113.02 291.099 113.02L304.609 112.74Z" fill="#263238"/>
<path d="M313.851 288.37C313.291 288.37 312.801 288.3 312.591 288.02C312.521 287.88 312.451 287.74 312.591 287.46C312.661 287.32 312.801 287.18 313.011 287.18C313.781 287.04 315.111 287.95 315.181 288.02C315.251 288.02 315.251 288.09 315.251 288.16C315.251 288.23 315.181 288.23 315.181 288.23C314.901 288.3 314.341 288.37 313.851 288.37ZM313.221 287.39C313.151 287.39 313.151 287.39 313.081 287.39C312.941 287.39 312.871 287.46 312.871 287.53C312.731 287.74 312.801 287.81 312.801 287.81C313.011 288.09 314.061 288.09 314.831 287.95C314.411 287.81 313.711 287.39 313.221 287.39Z" fill="white"/>
<path d="M315.11 288.23C314.55 287.95 313.57 286.83 313.64 286.27C313.64 286.13 313.71 285.99 314.06 285.92C314.27 285.92 314.41 285.92 314.55 286.06C315.11 286.55 315.18 288.02 315.18 288.09C315.25 288.16 315.25 288.23 315.11 288.23C315.18 288.23 315.18 288.23 315.11 288.23ZM314.2 286.13C314.13 286.13 314.13 286.13 314.2 286.13C313.99 286.13 313.99 286.2 313.99 286.27C313.92 286.62 314.55 287.46 315.04 287.88C314.97 287.46 314.9 286.55 314.48 286.27C314.34 286.2 314.27 286.13 314.2 286.13Z" fill="white"/>
<path d="M282.91 288.37C282.28 288.37 281.65 288.3 281.44 287.95C281.37 287.88 281.3 287.67 281.44 287.39C282 286.48 284.24 287.81 284.52 287.95C284.59 287.95 284.59 288.02 284.59 288.09C284.59 288.16 284.52 288.16 284.52 288.16C284.17 288.3 283.54 288.37 282.91 288.37ZM282.14 287.39C281.93 287.39 281.72 287.46 281.65 287.6C281.58 287.74 281.58 287.81 281.65 287.88C281.86 288.23 283.19 288.23 284.17 288.09C283.61 287.74 282.7 287.39 282.14 287.39Z" fill="white"/>
<path d="M284.521 288.23C284.451 288.23 284.451 288.23 284.521 288.23C283.821 287.95 282.701 286.83 282.771 286.27C282.771 286.13 282.911 285.92 283.261 285.92C283.541 285.92 283.751 285.99 283.961 286.13C284.591 286.69 284.661 288.02 284.661 288.09C284.591 288.16 284.591 288.16 284.521 288.23ZM283.331 286.13H283.261C283.051 286.13 283.051 286.27 282.981 286.27C282.911 286.62 283.681 287.46 284.311 287.88C284.241 287.46 284.101 286.62 283.681 286.27C283.611 286.2 283.471 286.13 283.331 286.13Z" fill="white"/>
<path d="M290.119 288.09H285.009L284.939 276.19H290.119V288.09Z" fill="#FFBE9D"/>
<path d="M321.059 288.09H315.879L313.779 276.19H318.889L321.059 288.09Z" fill="#FFBE9D"/>
<path d="M315.529 287.53H321.339C321.549 287.53 321.759 287.67 321.759 287.88L322.599 292.43C322.669 292.92 322.319 293.34 321.829 293.34C319.799 293.34 318.819 293.2 316.299 293.2C314.759 293.2 311.539 293.34 309.369 293.34C307.269 293.34 306.989 291.24 307.899 291.03C311.889 290.19 313.429 289 314.759 287.81C314.899 287.6 315.249 287.53 315.529 287.53Z" fill="#263238"/>
<path d="M285.079 287.53H290.679C290.889 287.53 291.099 287.67 291.099 287.88L291.939 292.43C292.009 292.92 291.659 293.34 291.169 293.34C289.139 293.34 286.199 293.2 283.679 293.2C280.669 293.2 278.149 293.34 274.649 293.34C272.549 293.34 272.059 291.24 272.899 291.03C276.959 290.12 280.249 290.05 283.819 287.88C284.169 287.67 284.589 287.53 285.079 287.53Z" fill="#263238"/>
<path d="M312.59 112.6C317.35 113.72 322.39 126.88 322.39 126.88L312.45 133.53C312.45 133.53 308.95 128.42 306.5 122.68C303.84 116.59 307.69 111.48 312.59 112.6Z" fill="#F6AC3B"/>
<path opacity="0.2" d="M308.81 121L312.94 133.18L312.45 133.46C312.45 133.46 310.56 130.66 308.6 126.95L308.81 121Z" fill="black"/>
<path d="M280.529 135.56C280.599 141.3 280.879 148.44 281.789 157.33H309.299C309.649 153.13 307.759 132.48 312.659 112.6C312.659 112.6 307.969 111.62 303.489 111.41C299.989 111.27 294.879 111.13 291.799 111.41C287.739 111.76 283.819 112.81 283.819 112.81C283.819 112.81 281.439 115.33 280.739 127.3C280.599 129.68 280.529 132.41 280.529 135.56Z" fill="#F6AC3B"/>
<path opacity="0.2" d="M280.529 135.56C282.209 132.55 285.219 126.46 284.799 122.96L280.739 127.37C280.599 129.68 280.529 132.41 280.529 135.56Z" fill="black"/>
<path d="M289.209 117.5C289.629 122.4 278.499 134.16 278.499 134.16L269.609 126.88C269.609 126.88 273.249 120.51 277.939 116.03C283.119 111.06 288.719 112.04 289.209 117.5Z" fill="#F6AC3B"/>
<path opacity="0.2" d="M284.939 276.19L285.009 282.35H290.119V276.19H284.939Z" fill="black"/>
<path opacity="0.2" d="M318.889 276.19H313.779L314.829 282.35H320.009L318.889 276.19Z" fill="black"/>
<path d="M301.25 92.4399C302.02 97.4799 302.72 100.42 300.76 103.64C297.82 108.47 291.24 107.7 289 103.01C286.97 98.8099 286.13 91.2499 290.54 88.0299C294.81 84.8799 300.48 87.3999 301.25 92.4399Z" fill="#FFBE9D"/>
<path d="M292.64 91.11C276.47 90.69 289.7 80.96 289.7 80.96C287.04 85.65 294.67 85.23 296.56 83.13C298.87 80.54 303.14 84.11 302.79 86.91C305.24 86.63 307.2 88.45 306.29 94.33C305.38 100.21 303.42 101.89 302.44 103.29C301.46 104.76 301.53 103.36 298.17 103.99C295.86 104.41 292.01 99.44 291.59 96.5C291.1 93.21 292.64 91.11 292.64 91.11Z" fill="#263238"/>
<path d="M300.971 87.6799C300.971 87.6799 305.171 85.9299 302.371 81.5199C306.221 83.6199 305.661 87.2599 300.971 87.6799Z" fill="#263238"/>
<path d="M294.88 95.59C294.88 96.92 294.32 98.25 293.62 99.16C292.57 100.49 291.38 99.86 291.1 98.32C290.82 96.99 291.1 94.68 292.43 93.84C293.69 93.07 294.88 94.05 294.88 95.59Z" fill="#FFBE9D"/>
<path d="M291.52 157.33C291.52 157.33 295.86 196.6 298.45 211.37C301.32 227.47 312.45 281.23 312.45 281.23H321.9C321.9 281.23 315.18 228.8 313.85 212.84C312.38 195.48 309.3 157.33 309.3 157.33H291.52Z" fill="#263238"/>
<path d="M311.121 277.66C311.051 277.66 311.961 281.3 311.961 281.3H322.601L322.531 278.08L311.121 277.66Z" fill="#407BFF"/>
<path opacity="0.2" d="M294.669 171.33C301.389 172.66 299.709 197.79 298.379 210.74C296.769 201.57 294.599 184 293.129 171.47C293.619 171.26 294.109 171.19 294.669 171.33Z" fill="black"/>
<path d="M281.79 157.33C281.79 157.33 279.62 195.76 279.55 211.44C279.48 227.75 283.12 281.16 283.12 281.16H291.8C291.8 281.16 294.18 228.73 295.16 212.7C296.28 195.27 299.85 157.33 299.85 157.33H281.79Z" fill="#263238"/>
<path d="M279.689 152.36L282.139 152.57C282.979 152.64 283.539 153.48 283.329 154.32L282.349 157.68C281.999 158.87 280.529 159.36 279.549 158.59C278.569 157.82 277.309 155.93 276.959 154.25L279.689 152.36Z" fill="#FFBE9D"/>
<path opacity="0.2" d="M285.149 274.93C285.079 274.93 285.079 274.86 285.079 274.86C284.099 260.09 281.859 224.32 281.929 211.51C281.999 198.35 283.539 169.02 284.029 160.34C284.029 160.27 284.099 160.27 284.099 160.27C284.169 160.27 284.169 160.34 284.169 160.34C283.679 169.02 282.139 198.42 282.069 211.51C281.999 224.32 284.239 260.09 285.219 274.86C285.289 274.86 285.219 274.93 285.149 274.93Z" fill="#FAFAFA"/>
<path d="M281.58 277.66C281.51 277.66 281.93 281.3 281.93 281.3H292.5L292.92 278.08L281.58 277.66Z" fill="#407BFF"/>
</g>
<defs>
<clipPath id="clip0">
<rect width="407" height="301" fill="white"/>
</clipPath>
</defs>
</svg>
