<svg width="553" height="360" viewBox="0 0 553 360" fill="none" xmlns="http://www.w3.org/2000/svg">
<g clip-path="url(#clip0)">
<path d="M553.506 280.155H2.10547V280.411H553.506V280.155Z" fill="#EBEBEB"/>
<path d="M498.256 293.895H439.697V294.151H498.256V293.895Z" fill="#EBEBEB"/>
<path d="M367.463 291.25H302.729V291.506H367.463V291.25Z" fill="#EBEBEB"/>
<path d="M442.564 289.97H421.391V290.226H442.564V289.97Z" fill="#EBEBEB"/>
<path d="M160.578 287.409H112.937V287.665H160.578V287.409Z" fill="#EBEBEB"/>
<path d="M106.761 287.409H89.7778V287.665H106.761V287.409Z" fill="#EBEBEB"/>
<path d="M206.896 290.994H147.124V291.25H206.896V290.994Z" fill="#EBEBEB"/>
<path d="M263.469 242.093H50.5184C47.0997 242.093 44.2324 239.874 44.2324 237.229V5.61268C44.2324 2.9671 47.0997 0.74823 50.5184 0.74823H263.469C266.888 0.74823 269.755 2.9671 269.755 5.61268V237.229C269.755 239.874 266.998 242.093 263.469 242.093ZM50.5184 0.918913C47.21 0.918913 44.453 2.9671 44.453 5.61268V237.229C44.453 239.789 47.0997 241.923 50.5184 241.923H263.469C266.778 241.923 269.535 239.874 269.535 237.229V5.61268C269.535 3.05244 266.888 0.918913 263.469 0.918913H50.5184Z" fill="#EBEBEB"/>
<path d="M502.005 242.093H289.055C285.636 242.093 282.769 239.874 282.769 237.229V5.61268C282.769 2.9671 285.636 0.74823 289.055 0.74823H502.005C505.424 0.74823 508.291 2.9671 508.291 5.61268V237.229C508.291 239.874 505.534 242.093 502.005 242.093ZM289.055 0.918913C285.746 0.918913 282.989 2.9671 282.989 5.61268V237.229C282.989 239.789 285.636 241.923 289.055 241.923H502.005C505.314 241.923 508.071 239.874 508.071 237.229V5.61268C508.071 3.05244 505.424 0.918913 502.005 0.918913H289.055Z" fill="#EBEBEB"/>
<path d="M202.043 187.304C161.019 187.304 120.987 171.345 98.0489 142.415C97.9386 142.244 97.9386 141.988 98.2694 141.817C98.49 141.732 98.8208 141.732 99.0414 141.988C121.869 170.663 161.57 186.451 202.153 186.451C223.768 186.451 245.604 182.013 265.234 172.626C292.693 159.568 311.992 138.916 319.491 114.679C326.99 90.3566 321.807 65.2663 304.824 44.0163C304.714 43.8456 304.714 43.5896 305.045 43.4189C305.265 43.3336 305.596 43.3336 305.817 43.5896C322.91 65.0102 328.093 90.3566 320.594 114.85C313.095 139.342 293.576 160.166 265.895 173.308C245.935 182.866 223.878 187.304 202.043 187.304Z" fill="#E6E6E6"/>
<path d="M380.644 177.046C380.558 177.046 380.472 177.046 380.386 176.979C380.214 176.846 380.128 176.645 380.3 176.511C395.536 160.904 402.165 141.68 398.807 122.255C395.45 102.83 382.538 85.6149 362.567 73.692C342.51 61.8361 317.718 56.6784 292.84 59.2907C267.877 61.903 245.754 71.9505 230.431 87.4905C230.259 87.6244 230.001 87.6914 229.828 87.5575C229.656 87.4235 229.57 87.2225 229.742 87.0886C245.151 71.3476 267.532 61.2332 292.754 58.6209C317.976 56.0085 342.94 61.1662 363.169 73.1561C383.399 85.1461 396.397 102.562 399.754 122.188C403.112 141.814 396.483 161.239 381.075 176.979C380.902 176.979 380.816 177.046 380.644 177.046Z" fill="#E6E6E6"/>
<path d="M398.049 181.717H397.973C397.744 181.658 397.668 181.541 397.668 181.366C402.692 164.727 398.962 147.562 387.239 133.082C375.441 118.603 357.019 108.444 335.325 104.59C290.565 96.5917 245.654 118.077 235.225 152.407C235.149 152.583 234.997 152.641 234.768 152.641C234.54 152.583 234.464 152.466 234.464 152.291C244.969 117.61 290.261 95.9494 335.477 104.007C357.4 107.918 375.973 118.136 387.848 132.732C399.723 147.386 403.453 164.668 398.429 181.483C398.353 181.658 398.201 181.717 398.049 181.717Z" fill="#E6E6E6"/>
<path d="M220.46 207.957C179.436 207.957 139.404 191.998 116.466 163.067C116.356 162.897 116.356 162.641 116.686 162.47C116.907 162.385 117.238 162.385 117.458 162.641C140.286 191.315 179.987 207.103 220.57 207.103C242.185 207.103 264.021 202.666 283.65 193.278C340.334 166.225 358.09 108.534 323.241 64.6689C323.131 64.4982 323.131 64.2422 323.462 64.0715C323.682 63.9861 324.013 63.9861 324.234 64.2422C359.413 108.534 341.548 166.737 284.312 194.046C264.351 203.519 242.295 207.957 220.46 207.957Z" fill="#E6E6E6"/>
<path d="M202.855 57.7926H83.9727V279.677H202.855V57.7926Z" fill="#5CDBF5"/>
<path d="M196.47 240.929L196.47 62.162L90.4911 62.162L90.4911 240.929H196.47Z" fill="#8FB1FD"/>
<path d="M190.614 66.5347H96.1035V78.3142H190.614V66.5347Z" fill="#5CDBF5"/>
<path d="M188.628 67.5718H185.209V77.2769H188.628V67.5718Z" fill="#8FB1FD"/>
<path d="M182.674 67.5718H179.255V77.2769H182.674V67.5718Z" fill="#8FB1FD"/>
<path d="M176.828 67.5718H173.41V77.2769H176.828V67.5718Z" fill="#8FB1FD"/>
<path d="M170.873 67.5718H167.455V77.2769H170.873V67.5718Z" fill="#8FB1FD"/>
<path d="M165.029 67.5718H161.61V77.2769H165.029V67.5718Z" fill="#8FB1FD"/>
<path d="M159.073 67.5718H155.655V77.2769H159.073V67.5718Z" fill="#8FB1FD"/>
<path d="M153.118 67.5718H149.7V77.2769H153.118V67.5718Z" fill="#8FB1FD"/>
<path d="M147.273 67.5718H143.854V77.2769H147.273V67.5718Z" fill="#8FB1FD"/>
<path d="M141.318 67.5718H137.899V77.2769H141.318V67.5718Z" fill="#8FB1FD"/>
<path d="M135.474 67.5718H132.055V77.2769H135.474V67.5718Z" fill="#8FB1FD"/>
<path d="M129.518 67.5718H126.1V77.2769H129.518V67.5718Z" fill="#8FB1FD"/>
<path d="M123.674 67.5718H120.255V77.2769H123.674V67.5718Z" fill="#8FB1FD"/>
<path d="M117.718 67.5718H114.299V77.2769H117.718V67.5718Z" fill="#8FB1FD"/>
<path d="M111.763 67.5718H108.344V77.2769H111.763V67.5718Z" fill="#8FB1FD"/>
<path d="M103.382 71.7205C104.6 71.7205 105.587 71.0572 105.587 70.2388C105.587 69.4205 104.6 68.7571 103.382 68.7571C102.164 68.7571 101.176 69.4205 101.176 70.2388C101.176 71.0572 102.164 71.7205 103.382 71.7205Z" fill="#79A2FD"/>
<path d="M103.382 76.0916C104.6 76.0916 105.587 75.4282 105.587 74.6099C105.587 73.7916 104.6 73.1282 103.382 73.1282C102.164 73.1282 101.176 73.7916 101.176 74.6099C101.176 75.4282 102.164 76.0916 103.382 76.0916Z" fill="#8FB1FD"/>
<path d="M190.614 81.7221H96.1035V93.5016H190.614V81.7221Z" fill="#5CDBF5"/>
<path d="M188.628 82.6851H185.209V92.3903H188.628V82.6851Z" fill="#8FB1FD"/>
<path d="M182.674 82.6851H179.255V92.3903H182.674V82.6851Z" fill="#8FB1FD"/>
<path d="M176.828 82.6851H173.41V92.3903H176.828V82.6851Z" fill="#8FB1FD"/>
<path d="M170.873 82.6851H167.455V92.3903H170.873V82.6851Z" fill="#8FB1FD"/>
<path d="M165.029 82.6851H161.61V92.3903H165.029V82.6851Z" fill="#8FB1FD"/>
<path d="M153.118 82.6851H149.7V92.3903H153.118V82.6851Z" fill="#8FB1FD"/>
<path d="M147.273 82.6851H143.854V92.3903H147.273V82.6851Z" fill="#8FB1FD"/>
<path d="M141.318 82.6851H137.899V92.3903H141.318V82.6851Z" fill="#8FB1FD"/>
<path d="M135.474 82.6851H132.055V92.3903H135.474V82.6851Z" fill="#8FB1FD"/>
<path d="M129.518 82.6851H126.1V92.3903H129.518V82.6851Z" fill="#8FB1FD"/>
<path d="M123.674 82.6851H120.255V92.3903H123.674V82.6851Z" fill="#8FB1FD"/>
<path d="M117.718 82.6851H114.299V92.3903H117.718V82.6851Z" fill="#8FB1FD"/>
<path d="M111.763 82.6851H108.344V92.3903H111.763V82.6851Z" fill="#8FB1FD"/>
<path d="M103.382 86.908C104.6 86.908 105.587 86.2446 105.587 85.4263C105.587 84.608 104.6 83.9446 103.382 83.9446C102.164 83.9446 101.176 84.608 101.176 85.4263C101.176 86.2446 102.164 86.908 103.382 86.908Z" fill="#79A2FD"/>
<path d="M101.176 89.7232C101.176 90.5382 102.169 91.2049 103.382 91.2049C104.595 91.2049 105.587 90.5382 105.587 89.7232C105.587 88.9083 104.595 88.2415 103.382 88.2415C102.169 88.2415 101.176 88.9083 101.176 89.7232Z" fill="#8FB1FD"/>
<path d="M190.614 96.8354H96.1035V108.615H190.614V96.8354Z" fill="#5CDBF5"/>
<path d="M188.628 97.7985H185.209V107.504H188.628V97.7985Z" fill="#8FB1FD"/>
<path d="M182.674 97.7985H179.255V107.504H182.674V97.7985Z" fill="#8FB1FD"/>
<path d="M176.828 97.7985H173.41V107.504H176.828V97.7985Z" fill="#8FB1FD"/>
<path d="M170.873 97.7985H167.455V107.504H170.873V97.7985Z" fill="#8FB1FD"/>
<path d="M165.029 97.7985H161.61V107.504H165.029V97.7985Z" fill="#8FB1FD"/>
<path d="M159.073 97.7985H155.655V107.504H159.073V97.7985Z" fill="#8FB1FD"/>
<path d="M153.118 97.7985H149.7V107.504H153.118V97.7985Z" fill="#8FB1FD"/>
<path d="M147.273 97.7985H143.854V107.504H147.273V97.7985Z" fill="#8FB1FD"/>
<path d="M141.318 97.7985H137.899V107.504H141.318V97.7985Z" fill="#8FB1FD"/>
<path d="M135.474 97.7985H132.055V107.504H135.474V97.7985Z" fill="#8FB1FD"/>
<path d="M129.518 97.7985H126.1V107.504H129.518V97.7985Z" fill="#8FB1FD"/>
<path d="M123.674 97.7985H120.255V107.504H123.674V97.7985Z" fill="#8FB1FD"/>
<path d="M117.718 97.7985H114.299V107.504H117.718V97.7985Z" fill="#8FB1FD"/>
<path d="M111.763 97.7985H108.344V107.504H111.763V97.7985Z" fill="#8FB1FD"/>
<path d="M103.382 102.021C104.6 102.021 105.587 101.358 105.587 100.54C105.587 99.7213 104.6 99.0579 103.382 99.0579C102.164 99.0579 101.176 99.7213 101.176 100.54C101.176 101.358 102.164 102.021 103.382 102.021Z" fill="#79A2FD"/>
<path d="M103.382 106.318C104.6 106.318 105.587 105.655 105.587 104.837C105.587 104.018 104.6 103.355 103.382 103.355C102.164 103.355 101.176 104.018 101.176 104.837C101.176 105.655 102.164 106.318 103.382 106.318Z" fill="#8FB1FD"/>
<path d="M190.614 111.949H96.1035V123.728H190.614V111.949Z" fill="#5CDBF5"/>
<path d="M188.628 112.986H185.209V122.691H188.628V112.986Z" fill="#8FB1FD"/>
<path d="M182.674 112.986H179.255V122.691H182.674V112.986Z" fill="#8FB1FD"/>
<path d="M176.828 112.986H173.41V122.691H176.828V112.986Z" fill="#8FB1FD"/>
<path d="M170.873 112.986H167.455V122.691H170.873V112.986Z" fill="#8FB1FD"/>
<path d="M165.029 112.986H161.61V122.691H165.029V112.986Z" fill="#8FB1FD"/>
<path d="M159.073 112.986H155.655V122.691H159.073V112.986Z" fill="#8FB1FD"/>
<path d="M153.118 112.986H149.7V122.691H153.118V112.986Z" fill="#8FB1FD"/>
<path d="M135.474 112.986H132.055V122.691H135.474V112.986Z" fill="#8FB1FD"/>
<path d="M129.518 112.986H126.1V122.691H129.518V112.986Z" fill="#8FB1FD"/>
<path d="M123.674 112.986H120.255V122.691H123.674V112.986Z" fill="#8FB1FD"/>
<path d="M117.718 112.986H114.299V122.691H117.718V112.986Z" fill="#8FB1FD"/>
<path d="M111.763 112.986H108.344V122.691H111.763V112.986Z" fill="#8FB1FD"/>
<path d="M101.176 115.653C101.176 116.468 102.169 117.135 103.382 117.135C104.595 117.135 105.587 116.468 105.587 115.653C105.587 114.838 104.595 114.171 103.382 114.171C102.169 114.171 101.176 114.838 101.176 115.653Z" fill="#79A2FD"/>
<path d="M103.382 121.506C104.6 121.506 105.587 120.842 105.587 120.024C105.587 119.206 104.6 118.542 103.382 118.542C102.164 118.542 101.176 119.206 101.176 120.024C101.176 120.842 102.164 121.506 103.382 121.506Z" fill="#8FB1FD"/>
<path d="M190.614 127.136H96.1035V138.916H190.614V127.136Z" fill="#5CDBF5"/>
<path d="M182.674 128.099H179.255V137.804H182.674V128.099Z" fill="#8FB1FD"/>
<path d="M176.828 128.099H173.41V137.804H176.828V128.099Z" fill="#8FB1FD"/>
<path d="M170.873 128.099H167.455V137.804H170.873V128.099Z" fill="#8FB1FD"/>
<path d="M165.029 128.099H161.61V137.804H165.029V128.099Z" fill="#8FB1FD"/>
<path d="M159.073 128.099H155.655V137.804H159.073V128.099Z" fill="#8FB1FD"/>
<path d="M153.118 128.099H149.7V137.804H153.118V128.099Z" fill="#8FB1FD"/>
<path d="M147.273 128.099H143.854V137.804H147.273V128.099Z" fill="#8FB1FD"/>
<path d="M141.318 128.099H137.899V137.804H141.318V128.099Z" fill="#8FB1FD"/>
<path d="M135.474 128.099H132.055V137.804H135.474V128.099Z" fill="#8FB1FD"/>
<path d="M129.518 128.099H126.1V137.804H129.518V128.099Z" fill="#8FB1FD"/>
<path d="M123.674 128.099H120.255V137.804H123.674V128.099Z" fill="#8FB1FD"/>
<path d="M117.718 128.099H114.299V137.804H117.718V128.099Z" fill="#8FB1FD"/>
<path d="M111.763 128.099H108.344V137.804H111.763V128.099Z" fill="#8FB1FD"/>
<path d="M103.382 132.322C104.6 132.322 105.587 131.659 105.587 130.84C105.587 130.022 104.6 129.359 103.382 129.359C102.164 129.359 101.176 130.022 101.176 130.84C101.176 131.659 102.164 132.322 103.382 132.322Z" fill="#79A2FD"/>
<path d="M103.382 136.619C104.6 136.619 105.587 135.956 105.587 135.137C105.587 134.319 104.6 133.656 103.382 133.656C102.164 133.656 101.176 134.319 101.176 135.137C101.176 135.956 102.164 136.619 103.382 136.619Z" fill="#8FB1FD"/>
<path d="M190.614 142.25H96.1035V154.029H190.614V142.25Z" fill="#5CDBF5"/>
<path d="M188.628 143.287H185.209V152.992H188.628V143.287Z" fill="#8FB1FD"/>
<path d="M182.674 143.287H179.255V152.992H182.674V143.287Z" fill="#8FB1FD"/>
<path d="M170.873 143.287H167.455V152.992H170.873V143.287Z" fill="#8FB1FD"/>
<path d="M165.029 143.287H161.61V152.992H165.029V143.287Z" fill="#8FB1FD"/>
<path d="M159.073 143.287H155.655V152.992H159.073V143.287Z" fill="#8FB1FD"/>
<path d="M153.118 143.287H149.7V152.992H153.118V143.287Z" fill="#8FB1FD"/>
<path d="M147.273 143.287H143.854V152.992H147.273V143.287Z" fill="#8FB1FD"/>
<path d="M141.318 143.287H137.899V152.992H141.318V143.287Z" fill="#8FB1FD"/>
<path d="M129.518 143.287H126.1V152.992H129.518V143.287Z" fill="#8FB1FD"/>
<path d="M123.674 143.287H120.255V152.992H123.674V143.287Z" fill="#8FB1FD"/>
<path d="M117.718 143.287H114.299V152.992H117.718V143.287Z" fill="#8FB1FD"/>
<path d="M111.763 143.287H108.344V152.992H111.763V143.287Z" fill="#8FB1FD"/>
<path d="M103.382 147.435C104.6 147.435 105.587 146.772 105.587 145.954C105.587 145.135 104.6 144.472 103.382 144.472C102.164 144.472 101.176 145.135 101.176 145.954C101.176 146.772 102.164 147.435 103.382 147.435Z" fill="#79A2FD"/>
<path d="M103.382 151.732C104.6 151.732 105.587 151.069 105.587 150.251C105.587 149.432 104.6 148.769 103.382 148.769C102.164 148.769 101.176 149.432 101.176 150.251C101.176 151.069 102.164 151.732 103.382 151.732Z" fill="#8FB1FD"/>
<path d="M190.614 157.363H96.1035V169.142H190.614V157.363Z" fill="#5CDBF5"/>
<path d="M188.628 158.4H185.209V168.105H188.628V158.4Z" fill="#8FB1FD"/>
<path d="M182.674 158.4H179.255V168.105H182.674V158.4Z" fill="#8FB1FD"/>
<path d="M176.828 158.4H173.41V168.105H176.828V158.4Z" fill="#8FB1FD"/>
<path d="M170.873 158.4H167.455V168.105H170.873V158.4Z" fill="#8FB1FD"/>
<path d="M165.029 158.4H161.61V168.105H165.029V158.4Z" fill="#8FB1FD"/>
<path d="M159.073 158.4H155.655V168.105H159.073V158.4Z" fill="#8FB1FD"/>
<path d="M153.118 158.4H149.7V168.105H153.118V158.4Z" fill="#8FB1FD"/>
<path d="M147.273 158.4H143.854V168.105H147.273V158.4Z" fill="#8FB1FD"/>
<path d="M141.318 158.4H137.899V168.105H141.318V158.4Z" fill="#8FB1FD"/>
<path d="M135.474 158.4H132.055V168.105H135.474V158.4Z" fill="#8FB1FD"/>
<path d="M129.518 158.4H126.1V168.105H129.518V158.4Z" fill="#8FB1FD"/>
<path d="M123.674 158.4H120.255V168.105H123.674V158.4Z" fill="#8FB1FD"/>
<path d="M117.718 158.4H114.299V168.105H117.718V158.4Z" fill="#8FB1FD"/>
<path d="M111.763 158.4H108.344V168.105H111.763V158.4Z" fill="#8FB1FD"/>
<path d="M103.382 162.549C104.6 162.549 105.587 161.885 105.587 161.067C105.587 160.249 104.6 159.585 103.382 159.585C102.164 159.585 101.176 160.249 101.176 161.067C101.176 161.885 102.164 162.549 103.382 162.549Z" fill="#79A2FD"/>
<path d="M101.176 165.438C101.176 166.253 102.169 166.92 103.382 166.92C104.595 166.92 105.587 166.253 105.587 165.438C105.587 164.623 104.595 163.956 103.382 163.956C102.169 163.956 101.176 164.623 101.176 165.438Z" fill="#8FB1FD"/>
<path d="M190.614 172.55H96.1035V184.33H190.614V172.55Z" fill="#5CDBF5"/>
<path d="M188.628 173.513H185.209V183.218H188.628V173.513Z" fill="#8FB1FD"/>
<path d="M182.674 173.513H179.255V183.218H182.674V173.513Z" fill="#8FB1FD"/>
<path d="M176.828 173.513H173.41V183.218H176.828V173.513Z" fill="#8FB1FD"/>
<path d="M170.873 173.513H167.455V183.218H170.873V173.513Z" fill="#8FB1FD"/>
<path d="M165.029 173.513H161.61V183.218H165.029V173.513Z" fill="#8FB1FD"/>
<path d="M159.073 173.513H155.655V183.218H159.073V173.513Z" fill="#8FB1FD"/>
<path d="M153.118 173.513H149.7V183.218H153.118V173.513Z" fill="#8FB1FD"/>
<path d="M147.273 173.513H143.854V183.218H147.273V173.513Z" fill="#8FB1FD"/>
<path d="M135.474 173.513H132.055V183.218H135.474V173.513Z" fill="#8FB1FD"/>
<path d="M129.518 173.513H126.1V183.218H129.518V173.513Z" fill="#8FB1FD"/>
<path d="M123.674 173.513H120.255V183.218H123.674V173.513Z" fill="#8FB1FD"/>
<path d="M117.718 173.513H114.299V183.218H117.718V173.513Z" fill="#8FB1FD"/>
<path d="M111.763 173.513H108.344V183.218H111.763V173.513Z" fill="#8FB1FD"/>
<path d="M103.382 177.736C104.6 177.736 105.587 177.073 105.587 176.254C105.587 175.436 104.6 174.773 103.382 174.773C102.164 174.773 101.176 175.436 101.176 176.254C101.176 177.073 102.164 177.736 103.382 177.736Z" fill="#79A2FD"/>
<path d="M103.382 182.033C104.6 182.033 105.587 181.37 105.587 180.551C105.587 179.733 104.6 179.07 103.382 179.07C102.164 179.07 101.176 179.733 101.176 180.551C101.176 181.37 102.164 182.033 103.382 182.033Z" fill="#8FB1FD"/>
<path d="M190.614 187.664H96.1035V199.443H190.614V187.664Z" fill="#5CDBF5"/>
<path d="M188.628 188.701H185.209V198.406H188.628V188.701Z" fill="#8FB1FD"/>
<path d="M182.674 188.701H179.255V198.406H182.674V188.701Z" fill="#8FB1FD"/>
<path d="M176.828 188.701H173.41V198.406H176.828V188.701Z" fill="#8FB1FD"/>
<path d="M170.873 188.701H167.455V198.406H170.873V188.701Z" fill="#8FB1FD"/>
<path d="M165.029 188.701H161.61V198.406H165.029V188.701Z" fill="#8FB1FD"/>
<path d="M159.073 188.701H155.655V198.406H159.073V188.701Z" fill="#8FB1FD"/>
<path d="M153.118 188.701H149.7V198.406H153.118V188.701Z" fill="#8FB1FD"/>
<path d="M147.273 188.701H143.854V198.406H147.273V188.701Z" fill="#8FB1FD"/>
<path d="M141.318 188.701H137.899V198.406H141.318V188.701Z" fill="#8FB1FD"/>
<path d="M135.474 188.701H132.055V198.406H135.474V188.701Z" fill="#8FB1FD"/>
<path d="M129.518 188.701H126.1V198.406H129.518V188.701Z" fill="#8FB1FD"/>
<path d="M123.674 188.701H120.255V198.406H123.674V188.701Z" fill="#8FB1FD"/>
<path d="M117.718 188.701H114.299V198.406H117.718V188.701Z" fill="#8FB1FD"/>
<path d="M111.763 188.701H108.344V198.406H111.763V188.701Z" fill="#8FB1FD"/>
<path d="M101.176 191.368C101.176 192.183 102.169 192.85 103.382 192.85C104.595 192.85 105.587 192.183 105.587 191.368C105.587 190.553 104.595 189.886 103.382 189.886C102.169 189.886 101.176 190.553 101.176 191.368Z" fill="#79A2FD"/>
<path d="M103.382 197.147C104.6 197.147 105.587 196.483 105.587 195.665C105.587 194.846 104.6 194.183 103.382 194.183C102.164 194.183 101.176 194.846 101.176 195.665C101.176 196.483 102.164 197.147 103.382 197.147Z" fill="#8FB1FD"/>
<path d="M190.614 202.777H96.1035V214.556H190.614V202.777Z" fill="#5CDBF5"/>
<path d="M188.628 203.814H185.209V213.519H188.628V203.814Z" fill="#8FB1FD"/>
<path d="M182.674 203.814H179.255V213.519H182.674V203.814Z" fill="#8FB1FD"/>
<path d="M176.828 203.814H173.41V213.519H176.828V203.814Z" fill="#8FB1FD"/>
<path d="M170.873 203.814H167.455V213.519H170.873V203.814Z" fill="#8FB1FD"/>
<path d="M165.029 203.814H161.61V213.519H165.029V203.814Z" fill="#8FB1FD"/>
<path d="M159.073 203.814H155.655V213.519H159.073V203.814Z" fill="#8FB1FD"/>
<path d="M153.118 203.814H149.7V213.519H153.118V203.814Z" fill="#8FB1FD"/>
<path d="M147.273 203.814H143.854V213.519H147.273V203.814Z" fill="#8FB1FD"/>
<path d="M141.318 203.814H137.899V213.519H141.318V203.814Z" fill="#8FB1FD"/>
<path d="M135.474 203.814H132.055V213.519H135.474V203.814Z" fill="#8FB1FD"/>
<path d="M129.518 203.814H126.1V213.519H129.518V203.814Z" fill="#8FB1FD"/>
<path d="M123.674 203.814H120.255V213.519H123.674V203.814Z" fill="#8FB1FD"/>
<path d="M117.718 203.814H114.299V213.519H117.718V203.814Z" fill="#8FB1FD"/>
<path d="M111.763 203.814H108.344V213.519H111.763V203.814Z" fill="#8FB1FD"/>
<path d="M103.382 207.963C104.6 207.963 105.587 207.3 105.587 206.481C105.587 205.663 104.6 205 103.382 205C102.164 205 101.176 205.663 101.176 206.481C101.176 207.3 102.164 207.963 103.382 207.963Z" fill="#79A2FD"/>
<path d="M103.382 212.334C104.6 212.334 105.587 211.671 105.587 210.852C105.587 210.034 104.6 209.371 103.382 209.371C102.164 209.371 101.176 210.034 101.176 210.852C101.176 211.671 102.164 212.334 103.382 212.334Z" fill="#8FB1FD"/>
<path d="M190.614 217.964H96.1035V229.744H190.614V217.964Z" fill="#5CDBF5"/>
<path d="M188.628 218.927H185.209V228.633H188.628V218.927Z" fill="#8FB1FD"/>
<path d="M182.674 218.927H179.255V228.633H182.674V218.927Z" fill="#8FB1FD"/>
<path d="M176.828 218.927H173.41V228.633H176.828V218.927Z" fill="#8FB1FD"/>
<path d="M170.873 218.927H167.455V228.633H170.873V218.927Z" fill="#8FB1FD"/>
<path d="M165.029 218.927H161.61V228.633H165.029V218.927Z" fill="#8FB1FD"/>
<path d="M159.073 218.927H155.655V228.633H159.073V218.927Z" fill="#8FB1FD"/>
<path d="M153.118 218.927H149.7V228.633H153.118V218.927Z" fill="#8FB1FD"/>
<path d="M147.273 218.927H143.854V228.633H147.273V218.927Z" fill="#8FB1FD"/>
<path d="M141.318 218.927H137.899V228.633H141.318V218.927Z" fill="#8FB1FD"/>
<path d="M135.474 218.927H132.055V228.633H135.474V218.927Z" fill="#8FB1FD"/>
<path d="M129.518 218.927H126.1V228.633H129.518V218.927Z" fill="#8FB1FD"/>
<path d="M123.674 218.927H120.255V228.633H123.674V218.927Z" fill="#8FB1FD"/>
<path d="M117.718 218.927H114.299V228.633H117.718V218.927Z" fill="#8FB1FD"/>
<path d="M111.763 218.927H108.344V228.633H111.763V218.927Z" fill="#8FB1FD"/>
<path d="M103.382 223.15C104.6 223.15 105.587 222.487 105.587 221.669C105.587 220.85 104.6 220.187 103.382 220.187C102.164 220.187 101.176 220.85 101.176 221.669C101.176 222.487 102.164 223.15 103.382 223.15Z" fill="#79A2FD"/>
<path d="M103.382 227.447C104.6 227.447 105.587 226.784 105.587 225.966C105.587 225.147 104.6 224.484 103.382 224.484C102.164 224.484 101.176 225.147 101.176 225.966C101.176 226.784 102.164 227.447 103.382 227.447Z" fill="#8FB1FD"/>
<path d="M329.346 24.5584H210.464V280.155H329.346V24.5584Z" fill="#5CDBF5"/>
<path d="M322.985 235.501L322.985 29.5729L217.006 29.5729L217.006 235.501L322.985 235.501Z" fill="#5CDBF5"/>
<path d="M317.215 34.6287H222.705V48.198H317.215V34.6287Z" fill="#79A2FD"/>
<path d="M315.119 35.8235H311.701V47.0032H315.119V35.8235Z" fill="#5CDBF5"/>
<path d="M309.275 35.8235H305.856V47.0032H309.275V35.8235Z" fill="#5CDBF5"/>
<path d="M303.32 35.8235H299.901V47.0032H303.32V35.8235Z" fill="#5CDBF5"/>
<path d="M297.365 35.8235H293.946V47.0032H297.365V35.8235Z" fill="#5CDBF5"/>
<path d="M291.519 35.8235H288.101V47.0032H291.519V35.8235Z" fill="#5CDBF5"/>
<path d="M285.564 35.8235H282.146V47.0032H285.564V35.8235Z" fill="#5CDBF5"/>
<path d="M279.719 35.8235H276.301V47.0032H279.719V35.8235Z" fill="#5CDBF5"/>
<path d="M273.764 35.8235H270.346V47.0032H273.764V35.8235Z" fill="#5CDBF5"/>
<path d="M267.919 35.8235H264.5V47.0032H267.919V35.8235Z" fill="#5CDBF5"/>
<path d="M261.964 35.8235H258.545V47.0032H261.964V35.8235Z" fill="#5CDBF5"/>
<path d="M256.01 35.8235H252.591V47.0032H256.01V35.8235Z" fill="#5CDBF5"/>
<path d="M250.164 35.8235H246.746V47.0032H250.164V35.8235Z" fill="#5CDBF5"/>
<path d="M244.209 35.8235H240.791V47.0032H244.209V35.8235Z" fill="#5CDBF5"/>
<path d="M238.364 35.8235H234.945V47.0032H238.364V35.8235Z" fill="#5CDBF5"/>
<path d="M229.873 40.6026C231.091 40.6026 232.079 39.8384 232.079 38.8958C232.079 37.9531 231.091 37.189 229.873 37.189C228.655 37.189 227.667 37.9531 227.667 38.8958C227.667 39.8384 228.655 40.6026 229.873 40.6026Z" fill="#5CDBF5"/>
<path d="M229.873 45.6377C231.091 45.6377 232.079 44.8735 232.079 43.9309C232.079 42.9882 231.091 42.2241 229.873 42.2241C228.655 42.2241 227.667 42.9882 227.667 43.9309C227.667 44.8735 228.655 45.6377 229.873 45.6377Z" fill="#5CDBF5"/>
<path d="M317.215 52.1237H222.705V65.693H317.215V52.1237Z" fill="#79A2FD"/>
<path d="M315.119 53.2331H311.701V64.4128H315.119V53.2331Z" fill="#5CDBF5"/>
<path d="M303.32 53.2331H299.901V64.4128H303.32V53.2331Z" fill="#5CDBF5"/>
<path d="M297.365 53.2331H293.946V64.4128H297.365V53.2331Z" fill="#5CDBF5"/>
<path d="M291.519 53.2331H288.101V64.4128H291.519V53.2331Z" fill="#5CDBF5"/>
<path d="M285.564 53.2331H282.146V64.4128H285.564V53.2331Z" fill="#5CDBF5"/>
<path d="M279.719 53.2331H276.301V64.4128H279.719V53.2331Z" fill="#5CDBF5"/>
<path d="M273.764 53.2331H270.346V64.4128H273.764V53.2331Z" fill="#5CDBF5"/>
<path d="M261.964 53.2331H258.545V64.4128H261.964V53.2331Z" fill="#5CDBF5"/>
<path d="M256.01 53.2331H252.591V64.4128H256.01V53.2331Z" fill="#5CDBF5"/>
<path d="M250.164 53.2331H246.746V64.4128H250.164V53.2331Z" fill="#5CDBF5"/>
<path d="M244.209 53.2331H240.791V64.4128H244.209V53.2331Z" fill="#5CDBF5"/>
<path d="M238.364 53.2331H234.945V64.4128H238.364V53.2331Z" fill="#5CDBF5"/>
<path d="M229.873 58.0975C231.091 58.0975 232.079 57.3334 232.079 56.3907C232.079 55.4481 231.091 54.6839 229.873 54.6839C228.655 54.6839 227.667 55.4481 227.667 56.3907C227.667 57.3334 228.655 58.0975 229.873 58.0975Z" fill="#5CDBF5"/>
<path d="M227.667 61.3405C227.667 62.2793 228.66 63.0473 229.873 63.0473C231.086 63.0473 232.079 62.2793 232.079 61.3405C232.079 60.4017 231.086 59.6337 229.873 59.6337C228.66 59.6337 227.667 60.4017 227.667 61.3405Z" fill="#5CDBF5"/>
<path d="M317.215 69.5333H222.705V83.1026H317.215V69.5333Z" fill="#79A2FD"/>
<path d="M315.119 70.6428H311.701V81.8225H315.119V70.6428Z" fill="#5CDBF5"/>
<path d="M309.275 70.6428H305.856V81.8225H309.275V70.6428Z" fill="#5CDBF5"/>
<path d="M303.32 70.6428H299.901V81.8225H303.32V70.6428Z" fill="#5CDBF5"/>
<path d="M297.365 70.6428H293.946V81.8225H297.365V70.6428Z" fill="#5CDBF5"/>
<path d="M291.519 70.6428H288.101V81.8225H291.519V70.6428Z" fill="#5CDBF5"/>
<path d="M285.564 70.6428H282.146V81.8225H285.564V70.6428Z" fill="#5CDBF5"/>
<path d="M279.719 70.6428H276.301V81.8225H279.719V70.6428Z" fill="#5CDBF5"/>
<path d="M273.764 70.6428H270.346V81.8225H273.764V70.6428Z" fill="#5CDBF5"/>
<path d="M267.919 70.6428H264.5V81.8225H267.919V70.6428Z" fill="#5CDBF5"/>
<path d="M261.964 70.6428H258.545V81.8225H261.964V70.6428Z" fill="#5CDBF5"/>
<path d="M256.01 70.6428H252.591V81.8225H256.01V70.6428Z" fill="#5CDBF5"/>
<path d="M250.164 70.6428H246.746V81.8225H250.164V70.6428Z" fill="#5CDBF5"/>
<path d="M244.209 70.6428H240.791V81.8225H244.209V70.6428Z" fill="#5CDBF5"/>
<path d="M238.364 70.6428H234.945V81.8225H238.364V70.6428Z" fill="#5CDBF5"/>
<path d="M229.873 75.5071C231.091 75.5071 232.079 74.743 232.079 73.8003C232.079 72.8577 231.091 72.0935 229.873 72.0935C228.655 72.0935 227.667 72.8577 227.667 73.8003C227.667 74.743 228.655 75.5071 229.873 75.5071Z" fill="#5CDBF5"/>
<path d="M229.873 80.457C231.091 80.457 232.079 79.6929 232.079 78.7502C232.079 77.8076 231.091 77.0434 229.873 77.0434C228.655 77.0434 227.667 77.8076 227.667 78.7502C227.667 79.6929 228.655 80.457 229.873 80.457Z" fill="#5CDBF5"/>
<path d="M317.215 86.9429H222.705V100.512H317.215V86.9429Z" fill="#79A2FD"/>
<path d="M315.119 88.1376H311.701V99.3173H315.119V88.1376Z" fill="#5CDBF5"/>
<path d="M309.275 88.1376H305.856V99.3173H309.275V88.1376Z" fill="#5CDBF5"/>
<path d="M303.32 88.1376H299.901V99.3173H303.32V88.1376Z" fill="#5CDBF5"/>
<path d="M297.365 88.1376H293.946V99.3173H297.365V88.1376Z" fill="#5CDBF5"/>
<path d="M291.519 88.1376H288.101V99.3173H291.519V88.1376Z" fill="#5CDBF5"/>
<path d="M285.564 88.1376H282.146V99.3173H285.564V88.1376Z" fill="#5CDBF5"/>
<path d="M279.719 88.1376H276.301V99.3173H279.719V88.1376Z" fill="#5CDBF5"/>
<path d="M273.764 88.1376H270.346V99.3173H273.764V88.1376Z" fill="#5CDBF5"/>
<path d="M267.919 88.1376H264.5V99.3173H267.919V88.1376Z" fill="#5CDBF5"/>
<path d="M256.01 88.1376H252.591V99.3173H256.01V88.1376Z" fill="#5CDBF5"/>
<path d="M250.164 88.1376H246.746V99.3173H250.164V88.1376Z" fill="#5CDBF5"/>
<path d="M244.209 88.1376H240.791V99.3173H244.209V88.1376Z" fill="#5CDBF5"/>
<path d="M238.364 88.1376H234.945V99.3173H238.364V88.1376Z" fill="#5CDBF5"/>
<path d="M227.667 91.2099C227.667 92.1487 228.66 92.9168 229.873 92.9168C231.086 92.9168 232.079 92.1487 232.079 91.2099C232.079 90.2712 231.086 89.5031 229.873 89.5031C228.66 89.5031 227.667 90.2712 227.667 91.2099Z" fill="#5CDBF5"/>
<path d="M229.873 97.9518C231.091 97.9518 232.079 97.1877 232.079 96.245C232.079 95.3024 231.091 94.5382 229.873 94.5382C228.655 94.5382 227.667 95.3024 227.667 96.245C227.667 97.1877 228.655 97.9518 229.873 97.9518Z" fill="#5CDBF5"/>
<path d="M317.215 104.438H222.705V118.007H317.215V104.438Z" fill="#79A2FD"/>
<path d="M315.119 105.547H311.701V116.727H315.119V105.547Z" fill="#5CDBF5"/>
<path d="M309.275 105.547H305.856V116.727H309.275V105.547Z" fill="#5CDBF5"/>
<path d="M303.32 105.547H299.901V116.727H303.32V105.547Z" fill="#5CDBF5"/>
<path d="M297.365 105.547H293.946V116.727H297.365V105.547Z" fill="#5CDBF5"/>
<path d="M291.519 105.547H288.101V116.727H291.519V105.547Z" fill="#5CDBF5"/>
<path d="M285.564 105.547H282.146V116.727H285.564V105.547Z" fill="#5CDBF5"/>
<path d="M279.719 105.547H276.301V116.727H279.719V105.547Z" fill="#5CDBF5"/>
<path d="M273.764 105.547H270.346V116.727H273.764V105.547Z" fill="#5CDBF5"/>
<path d="M267.919 105.547H264.5V116.727H267.919V105.547Z" fill="#5CDBF5"/>
<path d="M261.964 105.547H258.545V116.727H261.964V105.547Z" fill="#5CDBF5"/>
<path d="M256.01 105.547H252.591V116.727H256.01V105.547Z" fill="#5CDBF5"/>
<path d="M250.164 105.547H246.746V116.727H250.164V105.547Z" fill="#5CDBF5"/>
<path d="M244.209 105.547H240.791V116.727H244.209V105.547Z" fill="#5CDBF5"/>
<path d="M238.364 105.547H234.945V116.727H238.364V105.547Z" fill="#5CDBF5"/>
<path d="M229.873 110.412C231.091 110.412 232.079 109.648 232.079 108.705C232.079 107.762 231.091 106.998 229.873 106.998C228.655 106.998 227.667 107.762 227.667 108.705C227.667 109.648 228.655 110.412 229.873 110.412Z" fill="#5CDBF5"/>
<path d="M229.873 115.361C231.091 115.361 232.079 114.597 232.079 113.655C232.079 112.712 231.091 111.948 229.873 111.948C228.655 111.948 227.667 112.712 227.667 113.655C227.667 114.597 228.655 115.361 229.873 115.361Z" fill="#5CDBF5"/>
<path d="M317.215 121.847H222.705V135.417H317.215V121.847Z" fill="#79A2FD"/>
<path d="M315.119 123.042H311.701V134.222H315.119V123.042Z" fill="#5CDBF5"/>
<path d="M309.275 123.042H305.856V134.222H309.275V123.042Z" fill="#5CDBF5"/>
<path d="M303.32 123.042H299.901V134.222H303.32V123.042Z" fill="#5CDBF5"/>
<path d="M297.365 123.042H293.946V134.222H297.365V123.042Z" fill="#5CDBF5"/>
<path d="M291.519 123.042H288.101V134.222H291.519V123.042Z" fill="#5CDBF5"/>
<path d="M285.564 123.042H282.146V134.222H285.564V123.042Z" fill="#5CDBF5"/>
<path d="M273.764 123.042H270.346V134.222H273.764V123.042Z" fill="#5CDBF5"/>
<path d="M267.919 123.042H264.5V134.222H267.919V123.042Z" fill="#5CDBF5"/>
<path d="M261.964 123.042H258.545V134.222H261.964V123.042Z" fill="#5CDBF5"/>
<path d="M256.01 123.042H252.591V134.222H256.01V123.042Z" fill="#5CDBF5"/>
<path d="M250.164 123.042H246.746V134.222H250.164V123.042Z" fill="#5CDBF5"/>
<path d="M244.209 123.042H240.791V134.222H244.209V123.042Z" fill="#5CDBF5"/>
<path d="M238.364 123.042H234.945V134.222H238.364V123.042Z" fill="#5CDBF5"/>
<path d="M229.873 127.821C231.091 127.821 232.079 127.057 232.079 126.114C232.079 125.172 231.091 124.408 229.873 124.408C228.655 124.408 227.667 125.172 227.667 126.114C227.667 127.057 228.655 127.821 229.873 127.821Z" fill="#5CDBF5"/>
<path d="M229.873 132.771C231.091 132.771 232.079 132.007 232.079 131.064C232.079 130.122 231.091 129.357 229.873 129.357C228.655 129.357 227.667 130.122 227.667 131.064C227.667 132.007 228.655 132.771 229.873 132.771Z" fill="#5CDBF5"/>
<path d="M317.215 139.257H222.705V152.826H317.215V139.257Z" fill="#79A2FD"/>
<path d="M315.119 140.452H311.701V151.632H315.119V140.452Z" fill="#5CDBF5"/>
<path d="M309.275 140.452H305.856V151.632H309.275V140.452Z" fill="#5CDBF5"/>
<path d="M303.32 140.452H299.901V151.632H303.32V140.452Z" fill="#5CDBF5"/>
<path d="M297.365 140.452H293.946V151.632H297.365V140.452Z" fill="#5CDBF5"/>
<path d="M291.519 140.452H288.101V151.632H291.519V140.452Z" fill="#5CDBF5"/>
<path d="M285.564 140.452H282.146V151.632H285.564V140.452Z" fill="#5CDBF5"/>
<path d="M279.719 140.452H276.301V151.632H279.719V140.452Z" fill="#5CDBF5"/>
<path d="M273.764 140.452H270.346V151.632H273.764V140.452Z" fill="#5CDBF5"/>
<path d="M267.919 140.452H264.5V151.632H267.919V140.452Z" fill="#5CDBF5"/>
<path d="M261.964 140.452H258.545V151.632H261.964V140.452Z" fill="#5CDBF5"/>
<path d="M256.01 140.452H252.591V151.632H256.01V140.452Z" fill="#5CDBF5"/>
<path d="M250.164 140.452H246.746V151.632H250.164V140.452Z" fill="#5CDBF5"/>
<path d="M244.209 140.452H240.791V151.632H244.209V140.452Z" fill="#5CDBF5"/>
<path d="M238.364 140.452H234.945V151.632H238.364V140.452Z" fill="#5CDBF5"/>
<path d="M229.873 145.231C231.091 145.231 232.079 144.467 232.079 143.524C232.079 142.581 231.091 141.817 229.873 141.817C228.655 141.817 227.667 142.581 227.667 143.524C227.667 144.467 228.655 145.231 229.873 145.231Z" fill="#5CDBF5"/>
<path d="M227.667 148.559C227.667 149.498 228.66 150.266 229.873 150.266C231.086 150.266 232.079 149.498 232.079 148.559C232.079 147.621 231.086 146.852 229.873 146.852C228.66 146.852 227.667 147.621 227.667 148.559Z" fill="#5CDBF5"/>
<path d="M317.215 156.752H222.705V170.321H317.215V156.752Z" fill="#79A2FD"/>
<path d="M315.119 157.861H311.701V169.041H315.119V157.861Z" fill="#5CDBF5"/>
<path d="M309.275 157.861H305.856V169.041H309.275V157.861Z" fill="#5CDBF5"/>
<path d="M303.32 157.861H299.901V169.041H303.32V157.861Z" fill="#5CDBF5"/>
<path d="M297.365 157.861H293.946V169.041H297.365V157.861Z" fill="#5CDBF5"/>
<path d="M291.519 157.861H288.101V169.041H291.519V157.861Z" fill="#5CDBF5"/>
<path d="M285.564 157.861H282.146V169.041H285.564V157.861Z" fill="#5CDBF5"/>
<path d="M279.719 157.861H276.301V169.041H279.719V157.861Z" fill="#5CDBF5"/>
<path d="M273.764 157.861H270.346V169.041H273.764V157.861Z" fill="#5CDBF5"/>
<path d="M267.919 157.861H264.5V169.041H267.919V157.861Z" fill="#5CDBF5"/>
<path d="M261.964 157.861H258.545V169.041H261.964V157.861Z" fill="#5CDBF5"/>
<path d="M256.01 157.861H252.591V169.041H256.01V157.861Z" fill="#5CDBF5"/>
<path d="M250.164 157.861H246.746V169.041H250.164V157.861Z" fill="#5CDBF5"/>
<path d="M244.209 157.861H240.791V169.041H244.209V157.861Z" fill="#5CDBF5"/>
<path d="M238.364 157.861H234.945V169.041H238.364V157.861Z" fill="#5CDBF5"/>
<path d="M229.873 162.726C231.091 162.726 232.079 161.962 232.079 161.019C232.079 160.076 231.091 159.312 229.873 159.312C228.655 159.312 227.667 160.076 227.667 161.019C227.667 161.962 228.655 162.726 229.873 162.726Z" fill="#5CDBF5"/>
<path d="M229.873 167.676C231.091 167.676 232.079 166.912 232.079 165.969C232.079 165.026 231.091 164.262 229.873 164.262C228.655 164.262 227.667 165.026 227.667 165.969C227.667 166.912 228.655 167.676 229.873 167.676Z" fill="#5CDBF5"/>
<path d="M317.215 174.162H222.705V187.731H317.215V174.162Z" fill="#79A2FD"/>
<path d="M315.119 175.357H311.701V186.536H315.119V175.357Z" fill="#5CDBF5"/>
<path d="M309.275 175.357H305.856V186.536H309.275V175.357Z" fill="#5CDBF5"/>
<path d="M303.32 175.357H299.901V186.536H303.32V175.357Z" fill="#5CDBF5"/>
<path d="M297.365 175.357H293.946V186.536H297.365V175.357Z" fill="#5CDBF5"/>
<path d="M291.519 175.357H288.101V186.536H291.519V175.357Z" fill="#5CDBF5"/>
<path d="M285.564 175.357H282.146V186.536H285.564V175.357Z" fill="#5CDBF5"/>
<path d="M279.719 175.357H276.301V186.536H279.719V175.357Z" fill="#5CDBF5"/>
<path d="M273.764 175.357H270.346V186.536H273.764V175.357Z" fill="#5CDBF5"/>
<path d="M267.919 175.357H264.5V186.536H267.919V175.357Z" fill="#5CDBF5"/>
<path d="M261.964 175.357H258.545V186.536H261.964V175.357Z" fill="#5CDBF5"/>
<path d="M250.164 175.357H246.746V186.536H250.164V175.357Z" fill="#5CDBF5"/>
<path d="M244.209 175.357H240.791V186.536H244.209V175.357Z" fill="#5CDBF5"/>
<path d="M238.364 175.357H234.945V186.536H238.364V175.357Z" fill="#5CDBF5"/>
<path d="M227.667 178.429C227.667 179.367 228.66 180.136 229.873 180.136C231.086 180.136 232.079 179.367 232.079 178.429C232.079 177.49 231.086 176.722 229.873 176.722C228.66 176.722 227.667 177.49 227.667 178.429Z" fill="#5CDBF5"/>
<path d="M229.873 185.085C231.091 185.085 232.079 184.321 232.079 183.379C232.079 182.436 231.091 181.672 229.873 181.672C228.655 181.672 227.667 182.436 227.667 183.379C227.667 184.321 228.655 185.085 229.873 185.085Z" fill="#5CDBF5"/>
<path d="M317.215 191.571H222.705V205.14H317.215V191.571Z" fill="#79A2FD"/>
<path d="M315.119 192.766H311.701V203.946H315.119V192.766Z" fill="#5CDBF5"/>
<path d="M309.275 192.766H305.856V203.946H309.275V192.766Z" fill="#5CDBF5"/>
<path d="M303.32 192.766H299.901V203.946H303.32V192.766Z" fill="#5CDBF5"/>
<path d="M285.564 192.766H282.146V203.946H285.564V192.766Z" fill="#5CDBF5"/>
<path d="M279.719 192.766H276.301V203.946H279.719V192.766Z" fill="#5CDBF5"/>
<path d="M273.764 192.766H270.346V203.946H273.764V192.766Z" fill="#5CDBF5"/>
<path d="M267.919 192.766H264.5V203.946H267.919V192.766Z" fill="#5CDBF5"/>
<path d="M261.964 192.766H258.545V203.946H261.964V192.766Z" fill="#5CDBF5"/>
<path d="M256.01 192.766H252.591V203.946H256.01V192.766Z" fill="#5CDBF5"/>
<path d="M250.164 192.766H246.746V203.946H250.164V192.766Z" fill="#5CDBF5"/>
<path d="M244.209 192.766H240.791V203.946H244.209V192.766Z" fill="#5CDBF5"/>
<path d="M238.364 192.766H234.945V203.946H238.364V192.766Z" fill="#5CDBF5"/>
<path d="M229.873 197.545C231.091 197.545 232.079 196.781 232.079 195.838C232.079 194.896 231.091 194.131 229.873 194.131C228.655 194.131 227.667 194.896 227.667 195.838C227.667 196.781 228.655 197.545 229.873 197.545Z" fill="#5CDBF5"/>
<path d="M229.873 202.58C231.091 202.58 232.079 201.816 232.079 200.873C232.079 199.931 231.091 199.167 229.873 199.167C228.655 199.167 227.667 199.931 227.667 200.873C227.667 201.816 228.655 202.58 229.873 202.58Z" fill="#5CDBF5"/>
<path d="M317.215 209.066H222.705V222.635H317.215V209.066Z" fill="#79A2FD"/>
<path d="M315.119 210.176H311.701V221.355H315.119V210.176Z" fill="#5CDBF5"/>
<path d="M309.275 210.176H305.856V221.355H309.275V210.176Z" fill="#5CDBF5"/>
<path d="M303.32 210.176H299.901V221.355H303.32V210.176Z" fill="#5CDBF5"/>
<path d="M297.365 210.176H293.946V221.355H297.365V210.176Z" fill="#5CDBF5"/>
<path d="M291.519 210.176H288.101V221.355H291.519V210.176Z" fill="#5CDBF5"/>
<path d="M285.564 210.176H282.146V221.355H285.564V210.176Z" fill="#5CDBF5"/>
<path d="M279.719 210.176H276.301V221.355H279.719V210.176Z" fill="#5CDBF5"/>
<path d="M273.764 210.176H270.346V221.355H273.764V210.176Z" fill="#5CDBF5"/>
<path d="M267.919 210.176H264.5V221.355H267.919V210.176Z" fill="#5CDBF5"/>
<path d="M261.964 210.176H258.545V221.355H261.964V210.176Z" fill="#5CDBF5"/>
<path d="M256.01 210.176H252.591V221.355H256.01V210.176Z" fill="#5CDBF5"/>
<path d="M250.164 210.176H246.746V221.355H250.164V210.176Z" fill="#5CDBF5"/>
<path d="M244.209 210.176H240.791V221.355H244.209V210.176Z" fill="#5CDBF5"/>
<path d="M238.364 210.176H234.945V221.355H238.364V210.176Z" fill="#5CDBF5"/>
<path d="M229.873 215.04C231.091 215.04 232.079 214.276 232.079 213.333C232.079 212.391 231.091 211.626 229.873 211.626C228.655 211.626 227.667 212.391 227.667 213.333C227.667 214.276 228.655 215.04 229.873 215.04Z" fill="#5CDBF5"/>
<path d="M229.873 219.99C231.091 219.99 232.079 219.226 232.079 218.283C232.079 217.34 231.091 216.576 229.873 216.576C228.655 216.576 227.667 217.34 227.667 218.283C227.667 219.226 228.655 219.99 229.873 219.99Z" fill="#5CDBF5"/>
<path d="M455.617 24.5584H336.735V280.155H455.617V24.5584Z" fill="#5CDBF5"/>
<path d="M449.289 235.476L449.289 29.5478L343.31 29.5478L343.31 235.476L449.289 235.476Z" fill="#5CDBF5"/>
<path d="M443.486 34.6287H348.976V48.198H443.486V34.6287Z" fill="#79A2FD"/>
<path d="M441.39 35.8235H437.972V47.0032H441.39V35.8235Z" fill="#5CDBF5"/>
<path d="M435.546 35.8235H432.127V47.0032H435.546V35.8235Z" fill="#5CDBF5"/>
<path d="M429.591 35.8235H426.172V47.0032H429.591V35.8235Z" fill="#5CDBF5"/>
<path d="M423.745 35.8235H420.327V47.0032H423.745V35.8235Z" fill="#5CDBF5"/>
<path d="M417.79 35.8235H414.372V47.0032H417.79V35.8235Z" fill="#5CDBF5"/>
<path d="M411.946 35.8235H408.527V47.0032H411.946V35.8235Z" fill="#5CDBF5"/>
<path d="M405.99 35.8235H402.572V47.0032H405.99V35.8235Z" fill="#5CDBF5"/>
<path d="M400.035 35.8235H396.617V47.0032H400.035V35.8235Z" fill="#5CDBF5"/>
<path d="M394.19 35.8235H390.771V47.0032H394.19V35.8235Z" fill="#5CDBF5"/>
<path d="M382.39 35.8235H378.972V47.0032H382.39V35.8235Z" fill="#5CDBF5"/>
<path d="M376.435 35.8235H373.017V47.0032H376.435V35.8235Z" fill="#5CDBF5"/>
<path d="M370.591 35.8235H367.172V47.0032H370.591V35.8235Z" fill="#5CDBF5"/>
<path d="M364.635 35.8235H361.216V47.0032H364.635V35.8235Z" fill="#5CDBF5"/>
<path d="M356.254 40.6026C357.473 40.6026 358.46 39.8384 358.46 38.8958C358.46 37.9531 357.473 37.189 356.254 37.189C355.036 37.189 354.049 37.9531 354.049 38.8958C354.049 39.8384 355.036 40.6026 356.254 40.6026Z" fill="#79A2FD"/>
<path d="M356.254 45.6377C357.473 45.6377 358.46 44.8735 358.46 43.9309C358.46 42.9882 357.473 42.2241 356.254 42.2241C355.036 42.2241 354.049 42.9882 354.049 43.9309C354.049 44.8735 355.036 45.6377 356.254 45.6377Z" fill="#5CDBF5"/>
<path d="M443.486 52.1237H348.976V65.693H443.486V52.1237Z" fill="#79A2FD"/>
<path d="M441.39 53.2331H437.972V64.4128H441.39V53.2331Z" fill="#5CDBF5"/>
<path d="M435.546 53.2331H432.127V64.4128H435.546V53.2331Z" fill="#5CDBF5"/>
<path d="M423.745 53.2331H420.327V64.4128H423.745V53.2331Z" fill="#5CDBF5"/>
<path d="M417.79 53.2331H414.372V64.4128H417.79V53.2331Z" fill="#5CDBF5"/>
<path d="M411.946 53.2331H408.527V64.4128H411.946V53.2331Z" fill="#5CDBF5"/>
<path d="M405.99 53.2331H402.572V64.4128H405.99V53.2331Z" fill="#5CDBF5"/>
<path d="M400.035 53.2331H396.617V64.4128H400.035V53.2331Z" fill="#5CDBF5"/>
<path d="M394.19 53.2331H390.771V64.4128H394.19V53.2331Z" fill="#5CDBF5"/>
<path d="M388.235 53.2331H384.816V64.4128H388.235V53.2331Z" fill="#5CDBF5"/>
<path d="M382.39 53.2331H378.972V64.4128H382.39V53.2331Z" fill="#5CDBF5"/>
<path d="M376.435 53.2331H373.017V64.4128H376.435V53.2331Z" fill="#5CDBF5"/>
<path d="M370.591 53.2331H367.172V64.4128H370.591V53.2331Z" fill="#5CDBF5"/>
<path d="M364.635 53.2331H361.216V64.4128H364.635V53.2331Z" fill="#5CDBF5"/>
<path d="M356.254 58.0975C357.473 58.0975 358.46 57.3334 358.46 56.3907C358.46 55.4481 357.473 54.6839 356.254 54.6839C355.036 54.6839 354.049 55.4481 354.049 56.3907C354.049 57.3334 355.036 58.0975 356.254 58.0975Z" fill="#79A2FD"/>
<path d="M354.049 61.3405C354.049 62.2793 355.041 63.0473 356.254 63.0473C357.468 63.0473 358.46 62.2793 358.46 61.3405C358.46 60.4017 357.468 59.6337 356.254 59.6337C355.041 59.6337 354.049 60.4017 354.049 61.3405Z" fill="#5CDBF5"/>
<path d="M443.486 69.5333H348.976V83.1026H443.486V69.5333Z" fill="#79A2FD"/>
<path d="M441.39 70.6428H437.972V81.8225H441.39V70.6428Z" fill="#5CDBF5"/>
<path d="M435.546 70.6428H432.127V81.8225H435.546V70.6428Z" fill="#5CDBF5"/>
<path d="M429.591 70.6428H426.172V81.8225H429.591V70.6428Z" fill="#5CDBF5"/>
<path d="M423.745 70.6428H420.327V81.8225H423.745V70.6428Z" fill="#5CDBF5"/>
<path d="M417.79 70.6428H414.372V81.8225H417.79V70.6428Z" fill="#5CDBF5"/>
<path d="M411.946 70.6428H408.527V81.8225H411.946V70.6428Z" fill="#5CDBF5"/>
<path d="M405.99 70.6428H402.572V81.8225H405.99V70.6428Z" fill="#5CDBF5"/>
<path d="M400.035 70.6428H396.617V81.8225H400.035V70.6428Z" fill="#5CDBF5"/>
<path d="M394.19 70.6428H390.771V81.8225H394.19V70.6428Z" fill="#5CDBF5"/>
<path d="M388.235 70.6428H384.816V81.8225H388.235V70.6428Z" fill="#5CDBF5"/>
<path d="M382.39 70.6428H378.972V81.8225H382.39V70.6428Z" fill="#5CDBF5"/>
<path d="M376.435 70.6428H373.017V81.8225H376.435V70.6428Z" fill="#5CDBF5"/>
<path d="M370.591 70.6428H367.172V81.8225H370.591V70.6428Z" fill="#5CDBF5"/>
<path d="M364.635 70.6428H361.216V81.8225H364.635V70.6428Z" fill="#5CDBF5"/>
<path d="M356.254 75.5071C357.473 75.5071 358.46 74.743 358.46 73.8003C358.46 72.8577 357.473 72.0935 356.254 72.0935C355.036 72.0935 354.049 72.8577 354.049 73.8003C354.049 74.743 355.036 75.5071 356.254 75.5071Z" fill="#79A2FD"/>
<path d="M356.254 80.457C357.473 80.457 358.46 79.6929 358.46 78.7502C358.46 77.8076 357.473 77.0434 356.254 77.0434C355.036 77.0434 354.049 77.8076 354.049 78.7502C354.049 79.6929 355.036 80.457 356.254 80.457Z" fill="#5CDBF5"/>
<path d="M443.486 86.9429H348.976V100.512H443.486V86.9429Z" fill="#79A2FD"/>
<path d="M441.39 88.1376H437.972V99.3173H441.39V88.1376Z" fill="#5CDBF5"/>
<path d="M435.546 88.1376H432.127V99.3173H435.546V88.1376Z" fill="#5CDBF5"/>
<path d="M423.745 88.1376H420.327V99.3173H423.745V88.1376Z" fill="#5CDBF5"/>
<path d="M417.79 88.1376H414.372V99.3173H417.79V88.1376Z" fill="#5CDBF5"/>
<path d="M411.946 88.1376H408.527V99.3173H411.946V88.1376Z" fill="#5CDBF5"/>
<path d="M405.99 88.1376H402.572V99.3173H405.99V88.1376Z" fill="#5CDBF5"/>
<path d="M382.39 88.1376H378.972V99.3173H382.39V88.1376Z" fill="#5CDBF5"/>
<path d="M376.435 88.1376H373.017V99.3173H376.435V88.1376Z" fill="#5CDBF5"/>
<path d="M370.591 88.1376H367.172V99.3173H370.591V88.1376Z" fill="#5CDBF5"/>
<path d="M364.635 88.1376H361.216V99.3173H364.635V88.1376Z" fill="#5CDBF5"/>
<path d="M354.049 91.2099C354.049 92.1487 355.041 92.9168 356.254 92.9168C357.468 92.9168 358.46 92.1487 358.46 91.2099C358.46 90.2712 357.468 89.5031 356.254 89.5031C355.041 89.5031 354.049 90.2712 354.049 91.2099Z" fill="#79A2FD"/>
<path d="M356.254 97.9518C357.473 97.9518 358.46 97.1877 358.46 96.245C358.46 95.3024 357.473 94.5382 356.254 94.5382C355.036 94.5382 354.049 95.3024 354.049 96.245C354.049 97.1877 355.036 97.9518 356.254 97.9518Z" fill="#5CDBF5"/>
<path d="M443.486 104.438H348.976V118.007H443.486V104.438Z" fill="#79A2FD"/>
<path d="M441.39 105.547H437.972V116.727H441.39V105.547Z" fill="#5CDBF5"/>
<path d="M435.546 105.547H432.127V116.727H435.546V105.547Z" fill="#5CDBF5"/>
<path d="M429.591 105.547H426.172V116.727H429.591V105.547Z" fill="#5CDBF5"/>
<path d="M423.745 105.547H420.327V116.727H423.745V105.547Z" fill="#5CDBF5"/>
<path d="M417.79 105.547H414.372V116.727H417.79V105.547Z" fill="#5CDBF5"/>
<path d="M411.946 105.547H408.527V116.727H411.946V105.547Z" fill="#5CDBF5"/>
<path d="M405.99 105.547H402.572V116.727H405.99V105.547Z" fill="#5CDBF5"/>
<path d="M400.035 105.547H396.617V116.727H400.035V105.547Z" fill="#5CDBF5"/>
<path d="M394.19 105.547H390.771V116.727H394.19V105.547Z" fill="#5CDBF5"/>
<path d="M388.235 105.547H384.816V116.727H388.235V105.547Z" fill="#5CDBF5"/>
<path d="M382.39 105.547H378.972V116.727H382.39V105.547Z" fill="#5CDBF5"/>
<path d="M376.435 105.547H373.017V116.727H376.435V105.547Z" fill="#5CDBF5"/>
<path d="M364.635 105.547H361.216V116.727H364.635V105.547Z" fill="#5CDBF5"/>
<path d="M356.254 110.412C357.473 110.412 358.46 109.648 358.46 108.705C358.46 107.762 357.473 106.998 356.254 106.998C355.036 106.998 354.049 107.762 354.049 108.705C354.049 109.648 355.036 110.412 356.254 110.412Z" fill="#79A2FD"/>
<path d="M356.254 115.361C357.473 115.361 358.46 114.597 358.46 113.655C358.46 112.712 357.473 111.948 356.254 111.948C355.036 111.948 354.049 112.712 354.049 113.655C354.049 114.597 355.036 115.361 356.254 115.361Z" fill="#5CDBF5"/>
<path d="M443.486 121.847H348.976V135.417H443.486V121.847Z" fill="#79A2FD"/>
<path d="M441.39 123.042H437.972V134.222H441.39V123.042Z" fill="#5CDBF5"/>
<path d="M435.546 123.042H432.127V134.222H435.546V123.042Z" fill="#5CDBF5"/>
<path d="M429.591 123.042H426.172V134.222H429.591V123.042Z" fill="#5CDBF5"/>
<path d="M423.745 123.042H420.327V134.222H423.745V123.042Z" fill="#5CDBF5"/>
<path d="M417.79 123.042H414.372V134.222H417.79V123.042Z" fill="#5CDBF5"/>
<path d="M411.946 123.042H408.527V134.222H411.946V123.042Z" fill="#5CDBF5"/>
<path d="M405.99 123.042H402.572V134.222H405.99V123.042Z" fill="#5CDBF5"/>
<path d="M400.035 123.042H396.617V134.222H400.035V123.042Z" fill="#5CDBF5"/>
<path d="M394.19 123.042H390.771V134.222H394.19V123.042Z" fill="#5CDBF5"/>
<path d="M388.235 123.042H384.816V134.222H388.235V123.042Z" fill="#5CDBF5"/>
<path d="M382.39 123.042H378.972V134.222H382.39V123.042Z" fill="#5CDBF5"/>
<path d="M376.435 123.042H373.017V134.222H376.435V123.042Z" fill="#5CDBF5"/>
<path d="M370.591 123.042H367.172V134.222H370.591V123.042Z" fill="#5CDBF5"/>
<path d="M364.635 123.042H361.216V134.222H364.635V123.042Z" fill="#5CDBF5"/>
<path d="M356.254 127.821C357.473 127.821 358.46 127.057 358.46 126.114C358.46 125.172 357.473 124.408 356.254 124.408C355.036 124.408 354.049 125.172 354.049 126.114C354.049 127.057 355.036 127.821 356.254 127.821Z" fill="#79A2FD"/>
<path d="M356.254 132.771C357.473 132.771 358.46 132.007 358.46 131.064C358.46 130.122 357.473 129.357 356.254 129.357C355.036 129.357 354.049 130.122 354.049 131.064C354.049 132.007 355.036 132.771 356.254 132.771Z" fill="#5CDBF5"/>
<path d="M443.486 139.257H348.976V152.826H443.486V139.257Z" fill="#79A2FD"/>
<path d="M441.39 140.452H437.972V151.632H441.39V140.452Z" fill="#5CDBF5"/>
<path d="M435.546 140.452H432.127V151.632H435.546V140.452Z" fill="#5CDBF5"/>
<path d="M429.591 140.452H426.172V151.632H429.591V140.452Z" fill="#5CDBF5"/>
<path d="M417.79 140.452H414.372V151.632H417.79V140.452Z" fill="#5CDBF5"/>
<path d="M411.946 140.452H408.527V151.632H411.946V140.452Z" fill="#5CDBF5"/>
<path d="M405.99 140.452H402.572V151.632H405.99V140.452Z" fill="#5CDBF5"/>
<path d="M400.035 140.452H396.617V151.632H400.035V140.452Z" fill="#5CDBF5"/>
<path d="M394.19 140.452H390.771V151.632H394.19V140.452Z" fill="#5CDBF5"/>
<path d="M388.235 140.452H384.816V151.632H388.235V140.452Z" fill="#5CDBF5"/>
<path d="M382.39 140.452H378.972V151.632H382.39V140.452Z" fill="#5CDBF5"/>
<path d="M376.435 140.452H373.017V151.632H376.435V140.452Z" fill="#5CDBF5"/>
<path d="M370.591 140.452H367.172V151.632H370.591V140.452Z" fill="#5CDBF5"/>
<path d="M364.635 140.452H361.216V151.632H364.635V140.452Z" fill="#5CDBF5"/>
<path d="M356.254 145.231C357.473 145.231 358.46 144.467 358.46 143.524C358.46 142.581 357.473 141.817 356.254 141.817C355.036 141.817 354.049 142.581 354.049 143.524C354.049 144.467 355.036 145.231 356.254 145.231Z" fill="#79A2FD"/>
<path d="M354.049 148.559C354.049 149.498 355.041 150.266 356.254 150.266C357.468 150.266 358.46 149.498 358.46 148.559C358.46 147.621 357.468 146.852 356.254 146.852C355.041 146.852 354.049 147.621 354.049 148.559Z" fill="#5CDBF5"/>
<path d="M443.486 156.752H348.976V170.321H443.486V156.752Z" fill="#79A2FD"/>
<path d="M441.39 157.861H437.972V169.041H441.39V157.861Z" fill="#5CDBF5"/>
<path d="M435.546 157.861H432.127V169.041H435.546V157.861Z" fill="#5CDBF5"/>
<path d="M429.591 157.861H426.172V169.041H429.591V157.861Z" fill="#5CDBF5"/>
<path d="M423.745 157.861H420.327V169.041H423.745V157.861Z" fill="#5CDBF5"/>
<path d="M417.79 157.861H414.372V169.041H417.79V157.861Z" fill="#5CDBF5"/>
<path d="M411.946 157.861H408.527V169.041H411.946V157.861Z" fill="#5CDBF5"/>
<path d="M405.99 157.861H402.572V169.041H405.99V157.861Z" fill="#5CDBF5"/>
<path d="M400.035 157.861H396.617V169.041H400.035V157.861Z" fill="#5CDBF5"/>
<path d="M394.19 157.861H390.771V169.041H394.19V157.861Z" fill="#5CDBF5"/>
<path d="M382.39 157.861H378.972V169.041H382.39V157.861Z" fill="#5CDBF5"/>
<path d="M376.435 157.861H373.017V169.041H376.435V157.861Z" fill="#5CDBF5"/>
<path d="M370.591 157.861H367.172V169.041H370.591V157.861Z" fill="#5CDBF5"/>
<path d="M364.635 157.861H361.216V169.041H364.635V157.861Z" fill="#5CDBF5"/>
<path d="M356.254 162.726C357.473 162.726 358.46 161.962 358.46 161.019C358.46 160.076 357.473 159.312 356.254 159.312C355.036 159.312 354.049 160.076 354.049 161.019C354.049 161.962 355.036 162.726 356.254 162.726Z" fill="#79A2FD"/>
<path d="M356.254 167.676C357.473 167.676 358.46 166.912 358.46 165.969C358.46 165.026 357.473 164.262 356.254 164.262C355.036 164.262 354.049 165.026 354.049 165.969C354.049 166.912 355.036 167.676 356.254 167.676Z" fill="#5CDBF5"/>
<path d="M443.486 174.162H348.976V187.731H443.486V174.162Z" fill="#79A2FD"/>
<path d="M441.39 175.357H437.972V186.536H441.39V175.357Z" fill="#5CDBF5"/>
<path d="M435.546 175.357H432.127V186.536H435.546V175.357Z" fill="#5CDBF5"/>
<path d="M429.591 175.357H426.172V186.536H429.591V175.357Z" fill="#5CDBF5"/>
<path d="M423.745 175.357H420.327V186.536H423.745V175.357Z" fill="#5CDBF5"/>
<path d="M417.79 175.357H414.372V186.536H417.79V175.357Z" fill="#5CDBF5"/>
<path d="M411.946 175.357H408.527V186.536H411.946V175.357Z" fill="#5CDBF5"/>
<path d="M405.99 175.357H402.572V186.536H405.99V175.357Z" fill="#5CDBF5"/>
<path d="M400.035 175.357H396.617V186.536H400.035V175.357Z" fill="#5CDBF5"/>
<path d="M394.19 175.357H390.771V186.536H394.19V175.357Z" fill="#5CDBF5"/>
<path d="M388.235 175.357H384.816V186.536H388.235V175.357Z" fill="#5CDBF5"/>
<path d="M382.39 175.357H378.972V186.536H382.39V175.357Z" fill="#5CDBF5"/>
<path d="M376.435 175.357H373.017V186.536H376.435V175.357Z" fill="#5CDBF5"/>
<path d="M370.591 175.357H367.172V186.536H370.591V175.357Z" fill="#5CDBF5"/>
<path d="M364.635 175.357H361.216V186.536H364.635V175.357Z" fill="#5CDBF5"/>
<path d="M354.049 178.429C354.049 179.367 355.041 180.136 356.254 180.136C357.468 180.136 358.46 179.367 358.46 178.429C358.46 177.49 357.468 176.722 356.254 176.722C355.041 176.722 354.049 177.49 354.049 178.429Z" fill="#79A2FD"/>
<path d="M356.254 185.085C357.473 185.085 358.46 184.321 358.46 183.379C358.46 182.436 357.473 181.672 356.254 181.672C355.036 181.672 354.049 182.436 354.049 183.379C354.049 184.321 355.036 185.085 356.254 185.085Z" fill="#5CDBF5"/>
<path d="M443.486 191.571H348.976V205.14H443.486V191.571Z" fill="#79A2FD"/>
<path d="M441.39 192.766H437.972V203.946H441.39V192.766Z" fill="#5CDBF5"/>
<path d="M435.546 192.766H432.127V203.946H435.546V192.766Z" fill="#5CDBF5"/>
<path d="M423.745 192.766H420.327V203.946H423.745V192.766Z" fill="#5CDBF5"/>
<path d="M417.79 192.766H414.372V203.946H417.79V192.766Z" fill="#5CDBF5"/>
<path d="M411.946 192.766H408.527V203.946H411.946V192.766Z" fill="#5CDBF5"/>
<path d="M405.99 192.766H402.572V203.946H405.99V192.766Z" fill="#5CDBF5"/>
<path d="M400.035 192.766H396.617V203.946H400.035V192.766Z" fill="#5CDBF5"/>
<path d="M388.235 192.766H384.816V203.946H388.235V192.766Z" fill="#5CDBF5"/>
<path d="M382.39 192.766H378.972V203.946H382.39V192.766Z" fill="#5CDBF5"/>
<path d="M376.435 192.766H373.017V203.946H376.435V192.766Z" fill="#5CDBF5"/>
<path d="M370.591 192.766H367.172V203.946H370.591V192.766Z" fill="#5CDBF5"/>
<path d="M364.635 192.766H361.216V203.946H364.635V192.766Z" fill="#5CDBF5"/>
<path d="M356.254 197.545C357.473 197.545 358.46 196.781 358.46 195.838C358.46 194.896 357.473 194.131 356.254 194.131C355.036 194.131 354.049 194.896 354.049 195.838C354.049 196.781 355.036 197.545 356.254 197.545Z" fill="#79A2FD"/>
<path d="M356.254 202.58C357.473 202.58 358.46 201.816 358.46 200.873C358.46 199.931 357.473 199.167 356.254 199.167C355.036 199.167 354.049 199.931 354.049 200.873C354.049 201.816 355.036 202.58 356.254 202.58Z" fill="#5CDBF5"/>
<path d="M443.486 209.066H348.976V222.635H443.486V209.066Z" fill="#79A2FD"/>
<path d="M441.39 210.176H437.972V221.355H441.39V210.176Z" fill="#5CDBF5"/>
<path d="M435.546 210.176H432.127V221.355H435.546V210.176Z" fill="#5CDBF5"/>
<path d="M429.591 210.176H426.172V221.355H429.591V210.176Z" fill="#5CDBF5"/>
<path d="M423.745 210.176H420.327V221.355H423.745V210.176Z" fill="#5CDBF5"/>
<path d="M417.79 210.176H414.372V221.355H417.79V210.176Z" fill="#5CDBF5"/>
<path d="M411.946 210.176H408.527V221.355H411.946V210.176Z" fill="#5CDBF5"/>
<path d="M405.99 210.176H402.572V221.355H405.99V210.176Z" fill="#5CDBF5"/>
<path d="M400.035 210.176H396.617V221.355H400.035V210.176Z" fill="#5CDBF5"/>
<path d="M394.19 210.176H390.771V221.355H394.19V210.176Z" fill="#5CDBF5"/>
<path d="M388.235 210.176H384.816V221.355H388.235V210.176Z" fill="#5CDBF5"/>
<path d="M382.39 210.176H378.972V221.355H382.39V210.176Z" fill="#5CDBF5"/>
<path d="M376.435 210.176H373.017V221.355H376.435V210.176Z" fill="#5CDBF5"/>
<path d="M370.591 210.176H367.172V221.355H370.591V210.176Z" fill="#5CDBF5"/>
<path d="M364.635 210.176H361.216V221.355H364.635V210.176Z" fill="#5CDBF5"/>
<path d="M356.254 215.04C357.473 215.04 358.46 214.276 358.46 213.333C358.46 212.391 357.473 211.626 356.254 211.626C355.036 211.626 354.049 212.391 354.049 213.333C354.049 214.276 355.036 215.04 356.254 215.04Z" fill="#79A2FD"/>
<path d="M356.254 219.99C357.473 219.99 358.46 219.226 358.46 218.283C358.46 217.34 357.473 216.576 356.254 216.576C355.036 216.576 354.049 217.34 354.049 218.283C354.049 219.226 355.036 219.99 356.254 219.99Z" fill="#5CDBF5"/>
<path opacity="0.3" d="M108.051 235.987L127.58 71.0367H148.985L129.456 235.987H108.051Z" fill="white"/>
<path opacity="0.3" d="M134.538 235.987L153.649 71.0367H162.228L143.008 235.987H134.538Z" fill="white"/>
<path opacity="0.3" d="M227.227 235.437L246.746 29.5936H268.14L248.731 235.437H227.227Z" fill="white"/>
<path opacity="0.3" d="M395.625 235.437L415.144 29.5936H436.538L417.129 235.437H395.625Z" fill="white"/>
<path opacity="0.3" d="M268.692 235.437L288.211 29.5936H296.813L277.404 235.437H268.692Z" fill="white"/>
<path d="M277.806 371.546C395.903 371.546 491.639 366.136 491.639 359.461C491.639 352.787 395.903 347.376 277.806 347.376C159.709 347.376 63.9727 352.787 63.9727 359.461C63.9727 366.136 159.709 371.546 277.806 371.546Z" fill="#5CDBF5"/>
<path d="M265.896 103.86H128.928V357.323C128.928 358.499 129.92 359.462 131.133 359.462H263.58C264.793 359.462 265.785 358.499 265.785 357.323V103.86H265.896Z" fill="#407BFF"/>
<path d="M267.77 310.48H258.286V344.168H267.77V310.48Z" fill="#407BFF"/>
<path opacity="0.2" d="M255.324 344.257H258.191V310.569H255.324V344.257Z" fill="black"/>
<path opacity="0.1" d="M267.771 310.48H255.42V344.168H267.771V310.48Z" fill="black"/>
<path d="M263.028 341.816C264.916 341.816 266.447 335.352 266.447 327.378C266.447 319.404 264.916 312.94 263.028 312.94C261.14 312.94 259.609 319.404 259.609 327.378C259.609 335.352 261.14 341.816 263.028 341.816Z" fill="#407BFF"/>
<path opacity="0.15" d="M248.03 103.86H128.928V357.323C128.928 358.499 129.92 359.462 131.133 359.462H245.825C247.038 359.462 248.03 358.499 248.03 357.323V103.86Z" fill="white"/>
<path opacity="0.2" d="M248.03 103.86H248.913V359.462C248.361 359.462 248.03 359.034 248.03 358.606V103.86Z" fill="black"/>
<path d="M234.466 114.447H125.068V134.019H234.466V114.447Z" fill="#407BFF"/>
<path opacity="0.3" d="M232.039 116.158H228.069V132.414H232.039V116.158Z" fill="white"/>
<path opacity="0.3" d="M225.202 116.158H221.232V132.414H225.202V116.158Z" fill="white"/>
<path opacity="0.3" d="M218.365 116.158H214.395V132.414H218.365V116.158Z" fill="white"/>
<path opacity="0.3" d="M211.527 116.158H207.557V132.414H211.527V116.158Z" fill="white"/>
<path opacity="0.3" d="M204.69 116.158H200.72V132.414H204.69V116.158Z" fill="white"/>
<path opacity="0.3" d="M197.852 116.158H193.882V132.414H197.852V116.158Z" fill="white"/>
<path opacity="0.3" d="M191.015 116.158H187.045V132.414H191.015V116.158Z" fill="white"/>
<path opacity="0.3" d="M184.178 116.158H180.208V132.414H184.178V116.158Z" fill="white"/>
<path opacity="0.3" d="M177.34 116.158H173.37V132.414H177.34V116.158Z" fill="white"/>
<path opacity="0.3" d="M170.503 116.158H166.533V132.414H170.503V116.158Z" fill="white"/>
<path opacity="0.3" d="M163.666 116.158H159.696V132.414H163.666V116.158Z" fill="white"/>
<path opacity="0.3" d="M156.828 116.158H152.858V132.414H156.828V116.158Z" fill="white"/>
<path opacity="0.3" d="M149.991 116.158H146.021V132.414H149.991V116.158Z" fill="white"/>
<path opacity="0.3" d="M143.154 116.158H139.184V132.414H143.154V116.158Z" fill="white"/>
<path d="M234.466 141.719H125.068V161.29H234.466V141.719Z" fill="#407BFF"/>
<path d="M234.466 168.99H125.068V188.561H234.466V168.99Z" fill="#407BFF"/>
<path d="M234.466 196.368H125.068V215.939H234.466V196.368Z" fill="#407BFF"/>
<path d="M234.466 223.64H125.068V243.211H234.466V223.64Z" fill="#407BFF"/>
<path d="M234.466 250.911H125.068V270.482H234.466V250.911Z" fill="#407BFF"/>
<path d="M234.466 278.182H125.068V297.753H234.466V278.182Z" fill="#407BFF"/>
<path d="M234.466 305.561H125.068V325.132H234.466V305.561Z" fill="#407BFF"/>
<path opacity="0.2" d="M234.357 134.077H237.114V114.506H234.357V134.077Z" fill="black"/>
<path opacity="0.2" d="M234.357 161.396H237.114V141.825H234.357V161.396Z" fill="black"/>
<path opacity="0.2" d="M234.357 188.716H237.114V169.144H234.357V188.716Z" fill="black"/>
<path opacity="0.2" d="M234.357 215.928H237.114V196.357H234.357V215.928Z" fill="black"/>
<path opacity="0.2" d="M234.357 243.247H237.114V223.676H234.357V243.247Z" fill="black"/>
<path opacity="0.2" d="M234.357 270.566H237.114V250.995H234.357V270.566Z" fill="black"/>
<path opacity="0.2" d="M234.357 297.886H237.114V278.315H234.357V297.886Z" fill="black"/>
<path opacity="0.2" d="M234.357 325.098H237.114V305.527H234.357V325.098Z" fill="black"/>
<path d="M130.913 120.65C130.913 122.041 132.016 123.11 133.45 123.11C134.883 123.11 135.986 122.041 135.986 120.65C135.986 119.26 134.883 118.19 133.45 118.19C132.016 118.19 130.913 119.26 130.913 120.65Z" fill="white"/>
<path opacity="0.3" d="M130.913 127.923C130.913 129.313 132.016 130.382 133.45 130.382C134.883 130.382 135.986 129.313 135.986 127.923C135.986 126.532 134.883 125.463 133.45 125.463C132.016 125.463 130.913 126.532 130.913 127.923Z" fill="#263238"/>
<path opacity="0.3" d="M232.039 143.43H228.069V159.686H232.039V143.43Z" fill="white"/>
<path opacity="0.3" d="M225.202 143.43H221.232V159.686H225.202V143.43Z" fill="white"/>
<path opacity="0.3" d="M218.365 143.43H214.395V159.686H218.365V143.43Z" fill="white"/>
<path opacity="0.3" d="M211.527 143.43H207.557V159.686H211.527V143.43Z" fill="white"/>
<path opacity="0.3" d="M204.69 143.43H200.72V159.686H204.69V143.43Z" fill="white"/>
<path opacity="0.3" d="M197.852 143.43H193.882V159.686H197.852V143.43Z" fill="white"/>
<path opacity="0.3" d="M191.015 143.43H187.045V159.686H191.015V143.43Z" fill="white"/>
<path opacity="0.3" d="M184.178 143.43H180.208V159.686H184.178V143.43Z" fill="white"/>
<path opacity="0.3" d="M177.34 143.43H173.37V159.686H177.34V143.43Z" fill="white"/>
<path opacity="0.3" d="M170.503 143.43H166.533V159.686H170.503V143.43Z" fill="white"/>
<path opacity="0.3" d="M163.666 143.43H159.696V159.686H163.666V143.43Z" fill="white"/>
<path opacity="0.3" d="M156.828 143.43H152.858V159.686H156.828V143.43Z" fill="white"/>
<path opacity="0.3" d="M149.991 143.43H146.021V159.686H149.991V143.43Z" fill="white"/>
<path opacity="0.3" d="M143.154 143.43H139.184V159.686H143.154V143.43Z" fill="white"/>
<path d="M130.913 147.922C130.913 149.312 132.016 150.381 133.45 150.381C134.883 150.381 135.986 149.312 135.986 147.922C135.986 146.531 134.883 145.462 133.45 145.462C132.016 145.462 130.913 146.531 130.913 147.922Z" fill="white"/>
<path opacity="0.3" d="M130.913 155.194C130.913 156.584 132.016 157.654 133.45 157.654C134.883 157.654 135.986 156.584 135.986 155.194C135.986 153.804 134.883 152.734 133.45 152.734C132.016 152.734 130.913 153.804 130.913 155.194Z" fill="#263238"/>
<path opacity="0.3" d="M232.039 170.701H228.069V186.957H232.039V170.701Z" fill="white"/>
<path opacity="0.3" d="M225.202 170.701H221.232V186.957H225.202V170.701Z" fill="white"/>
<path opacity="0.3" d="M218.365 170.701H214.395V186.957H218.365V170.701Z" fill="white"/>
<path opacity="0.3" d="M211.527 170.701H207.557V186.957H211.527V170.701Z" fill="white"/>
<path opacity="0.3" d="M204.69 170.701H200.72V186.957H204.69V170.701Z" fill="white"/>
<path opacity="0.3" d="M197.852 170.701H193.882V186.957H197.852V170.701Z" fill="white"/>
<path opacity="0.3" d="M191.015 170.701H187.045V186.957H191.015V170.701Z" fill="white"/>
<path opacity="0.3" d="M184.178 170.701H180.208V186.957H184.178V170.701Z" fill="white"/>
<path opacity="0.3" d="M177.34 170.701H173.37V186.957H177.34V170.701Z" fill="white"/>
<path opacity="0.3" d="M170.503 170.701H166.533V186.957H170.503V170.701Z" fill="white"/>
<path opacity="0.3" d="M163.666 170.701H159.696V186.957H163.666V170.701Z" fill="white"/>
<path opacity="0.3" d="M156.828 170.701H152.858V186.957H156.828V170.701Z" fill="white"/>
<path opacity="0.3" d="M149.991 170.701H146.021V186.957H149.991V170.701Z" fill="white"/>
<path opacity="0.3" d="M143.154 170.701H139.184V186.957H143.154V170.701Z" fill="white"/>
<path d="M130.913 175.193C130.913 176.583 132.016 177.653 133.45 177.653C134.883 177.653 135.986 176.583 135.986 175.193C135.986 173.803 134.883 172.733 133.45 172.733C132.016 172.733 130.913 173.91 130.913 175.193Z" fill="white"/>
<path opacity="0.3" d="M130.913 182.465C130.913 183.856 132.016 184.925 133.45 184.925C134.883 184.925 135.986 183.856 135.986 182.465C135.986 181.075 134.883 180.005 133.45 180.005C132.016 180.005 130.913 181.075 130.913 182.465Z" fill="#263238"/>
<path opacity="0.3" d="M232.039 197.973H228.069V214.228H232.039V197.973Z" fill="white"/>
<path opacity="0.3" d="M225.202 197.973H221.232V214.228H225.202V197.973Z" fill="white"/>
<path opacity="0.3" d="M218.365 197.973H214.395V214.228H218.365V197.973Z" fill="white"/>
<path opacity="0.3" d="M211.527 197.973H207.557V214.228H211.527V197.973Z" fill="white"/>
<path opacity="0.3" d="M204.69 197.973H200.72V214.228H204.69V197.973Z" fill="white"/>
<path opacity="0.3" d="M197.852 197.973H193.882V214.228H197.852V197.973Z" fill="white"/>
<path opacity="0.3" d="M191.015 197.973H187.045V214.228H191.015V197.973Z" fill="white"/>
<path opacity="0.3" d="M184.178 197.973H180.208V214.228H184.178V197.973Z" fill="white"/>
<path opacity="0.3" d="M177.34 197.973H173.37V214.228H177.34V197.973Z" fill="white"/>
<path opacity="0.3" d="M170.503 197.973H166.533V214.228H170.503V197.973Z" fill="white"/>
<path opacity="0.3" d="M163.666 197.973H159.696V214.228H163.666V197.973Z" fill="white"/>
<path opacity="0.3" d="M156.828 197.973H152.858V214.228H156.828V197.973Z" fill="white"/>
<path opacity="0.3" d="M149.991 197.973H146.021V214.228H149.991V197.973Z" fill="white"/>
<path opacity="0.3" d="M143.154 197.973H139.184V214.228H143.154V197.973Z" fill="white"/>
<path d="M130.913 202.571C130.913 203.961 132.016 205.031 133.45 205.031C134.883 205.031 135.986 203.961 135.986 202.571C135.986 201.181 134.883 200.111 133.45 200.111C132.016 200.111 130.913 201.181 130.913 202.571Z" fill="white"/>
<path opacity="0.3" d="M130.913 209.737C130.913 211.127 132.016 212.196 133.45 212.196C134.883 212.196 135.986 211.127 135.986 209.737C135.986 208.346 134.883 207.277 133.45 207.277C132.016 207.277 130.913 208.346 130.913 209.737Z" fill="#263238"/>
<path opacity="0.3" d="M232.039 225.351H228.069V241.607H232.039V225.351Z" fill="white"/>
<path opacity="0.3" d="M225.202 225.351H221.232V241.607H225.202V225.351Z" fill="white"/>
<path opacity="0.3" d="M218.365 225.351H214.395V241.607H218.365V225.351Z" fill="white"/>
<path opacity="0.3" d="M211.527 225.351H207.557V241.607H211.527V225.351Z" fill="white"/>
<path opacity="0.3" d="M204.69 225.351H200.72V241.607H204.69V225.351Z" fill="white"/>
<path opacity="0.3" d="M197.852 225.351H193.882V241.607H197.852V225.351Z" fill="white"/>
<path opacity="0.3" d="M191.015 225.351H187.045V241.607H191.015V225.351Z" fill="white"/>
<path opacity="0.3" d="M184.178 225.351H180.208V241.607H184.178V225.351Z" fill="white"/>
<path opacity="0.3" d="M177.34 225.351H173.37V241.607H177.34V225.351Z" fill="white"/>
<path opacity="0.3" d="M170.503 225.351H166.533V241.607H170.503V225.351Z" fill="white"/>
<path opacity="0.3" d="M163.666 225.351H159.696V241.607H163.666V225.351Z" fill="white"/>
<path opacity="0.3" d="M156.828 225.351H152.858V241.607H156.828V225.351Z" fill="white"/>
<path opacity="0.3" d="M149.991 225.351H146.021V241.607H149.991V225.351Z" fill="white"/>
<path opacity="0.3" d="M143.154 225.351H139.184V241.607H143.154V225.351Z" fill="white"/>
<path d="M130.913 229.843C130.913 231.233 132.016 232.302 133.45 232.302C134.883 232.302 135.986 231.233 135.986 229.843C135.986 228.452 134.883 227.383 133.45 227.383C132.016 227.383 130.913 228.452 130.913 229.843Z" fill="white"/>
<path opacity="0.3" d="M130.913 237.008C130.913 238.398 132.016 239.468 133.45 239.468C134.883 239.468 135.986 238.398 135.986 237.008C135.986 235.618 134.883 234.548 133.45 234.548C132.016 234.548 130.913 235.725 130.913 237.008Z" fill="#263238"/>
<path opacity="0.3" d="M232.039 252.622H228.069V268.878H232.039V252.622Z" fill="white"/>
<path opacity="0.3" d="M225.202 252.622H221.232V268.878H225.202V252.622Z" fill="white"/>
<path opacity="0.3" d="M218.365 252.622H214.395V268.878H218.365V252.622Z" fill="white"/>
<path opacity="0.3" d="M211.527 252.622H207.557V268.878H211.527V252.622Z" fill="white"/>
<path opacity="0.3" d="M204.69 252.622H200.72V268.878H204.69V252.622Z" fill="white"/>
<path opacity="0.3" d="M197.852 252.622H193.882V268.878H197.852V252.622Z" fill="white"/>
<path opacity="0.3" d="M191.015 252.622H187.045V268.878H191.015V252.622Z" fill="white"/>
<path opacity="0.3" d="M184.178 252.622H180.208V268.878H184.178V252.622Z" fill="white"/>
<path opacity="0.3" d="M177.34 252.622H173.37V268.878H177.34V252.622Z" fill="white"/>
<path opacity="0.3" d="M170.503 252.622H166.533V268.878H170.503V252.622Z" fill="white"/>
<path opacity="0.3" d="M163.666 252.622H159.696V268.878H163.666V252.622Z" fill="white"/>
<path opacity="0.3" d="M156.828 252.622H152.858V268.878H156.828V252.622Z" fill="white"/>
<path opacity="0.3" d="M149.991 252.622H146.021V268.878H149.991V252.622Z" fill="white"/>
<path opacity="0.3" d="M143.154 252.622H139.184V268.878H143.154V252.622Z" fill="white"/>
<path d="M130.913 257.114C130.913 258.504 132.016 259.574 133.45 259.574C134.883 259.574 135.986 258.504 135.986 257.114C135.986 255.724 134.883 254.654 133.45 254.654C132.016 254.654 130.913 255.724 130.913 257.114Z" fill="white"/>
<path opacity="0.3" d="M130.913 264.386C130.913 265.776 132.016 266.846 133.45 266.846C134.883 266.846 135.986 265.776 135.986 264.386C135.986 262.996 134.883 261.926 133.45 261.926C132.016 261.926 130.913 262.996 130.913 264.386Z" fill="#263238"/>
<path opacity="0.3" d="M232.039 279.893H228.069V296.149H232.039V279.893Z" fill="white"/>
<path opacity="0.3" d="M225.202 279.893H221.232V296.149H225.202V279.893Z" fill="white"/>
<path opacity="0.3" d="M218.365 279.893H214.395V296.149H218.365V279.893Z" fill="white"/>
<path opacity="0.3" d="M211.527 279.893H207.557V296.149H211.527V279.893Z" fill="white"/>
<path opacity="0.3" d="M204.69 279.893H200.72V296.149H204.69V279.893Z" fill="white"/>
<path opacity="0.3" d="M197.852 279.893H193.882V296.149H197.852V279.893Z" fill="white"/>
<path opacity="0.3" d="M191.015 279.893H187.045V296.149H191.015V279.893Z" fill="white"/>
<path opacity="0.3" d="M184.178 279.893H180.208V296.149H184.178V279.893Z" fill="white"/>
<path opacity="0.3" d="M177.34 279.893H173.37V296.149H177.34V279.893Z" fill="white"/>
<path opacity="0.3" d="M170.503 279.893H166.533V296.149H170.503V279.893Z" fill="white"/>
<path opacity="0.3" d="M163.666 279.893H159.696V296.149H163.666V279.893Z" fill="white"/>
<path opacity="0.3" d="M156.828 279.893H152.858V296.149H156.828V279.893Z" fill="white"/>
<path opacity="0.3" d="M149.991 279.893H146.021V296.149H149.991V279.893Z" fill="white"/>
<path opacity="0.3" d="M143.154 279.893H139.184V296.149H143.154V279.893Z" fill="white"/>
<path d="M130.913 284.385C130.913 285.776 132.016 286.845 133.45 286.845C134.883 286.845 135.986 285.776 135.986 284.385C135.986 282.995 134.883 281.925 133.45 281.925C132.016 281.925 130.913 282.995 130.913 284.385Z" fill="white"/>
<path opacity="0.3" d="M130.913 291.658C130.913 293.048 132.016 294.117 133.45 294.117C134.883 294.117 135.986 293.048 135.986 291.658C135.986 290.267 134.883 289.198 133.45 289.198C132.016 289.198 130.913 290.267 130.913 291.658Z" fill="#263238"/>
<path opacity="0.3" d="M232.039 307.165H228.069V323.421H232.039V307.165Z" fill="white"/>
<path opacity="0.3" d="M225.202 307.165H221.232V323.421H225.202V307.165Z" fill="white"/>
<path opacity="0.3" d="M218.365 307.165H214.395V323.421H218.365V307.165Z" fill="white"/>
<path opacity="0.3" d="M211.527 307.165H207.557V323.421H211.527V307.165Z" fill="white"/>
<path opacity="0.3" d="M204.69 307.165H200.72V323.421H204.69V307.165Z" fill="white"/>
<path opacity="0.3" d="M197.852 307.165H193.882V323.421H197.852V307.165Z" fill="white"/>
<path opacity="0.3" d="M191.015 307.165H187.045V323.421H191.015V307.165Z" fill="white"/>
<path opacity="0.3" d="M184.178 307.165H180.208V323.421H184.178V307.165Z" fill="white"/>
<path opacity="0.3" d="M177.34 307.165H173.37V323.421H177.34V307.165Z" fill="white"/>
<path opacity="0.3" d="M170.503 307.165H166.533V323.421H170.503V307.165Z" fill="white"/>
<path opacity="0.3" d="M163.666 307.165H159.696V323.421H163.666V307.165Z" fill="white"/>
<path opacity="0.3" d="M156.828 307.165H152.858V323.421H156.828V307.165Z" fill="white"/>
<path opacity="0.3" d="M149.991 307.165H146.021V323.421H149.991V307.165Z" fill="white"/>
<path opacity="0.3" d="M143.154 307.165H139.184V323.421H143.154V307.165Z" fill="white"/>
<path d="M130.913 311.764C130.913 313.154 132.016 314.223 133.45 314.223C134.883 314.223 135.986 313.154 135.986 311.764C135.986 310.373 134.883 309.304 133.45 309.304C132.016 309.304 130.913 310.373 130.913 311.764Z" fill="white"/>
<path opacity="0.3" d="M130.913 318.929C130.913 320.319 132.016 321.389 133.45 321.389C134.883 321.389 135.986 320.319 135.986 318.929C135.986 317.539 134.883 316.469 133.45 316.469C132.016 316.469 130.913 317.539 130.913 318.929Z" fill="#263238"/>
<path d="M210.866 38.8361V45.5737L206.786 46.5363C206.455 47.7127 206.014 48.7821 205.352 49.8516L207.558 53.3808L202.705 58.0865L199.066 55.9475C197.963 56.4823 196.861 57.017 195.647 57.3379L194.655 61.2949H187.707L186.715 57.3379C185.502 57.017 184.399 56.5892 183.296 55.9475L179.657 58.0865L174.804 53.3808L177.01 49.8516C176.459 48.7821 175.907 47.7127 175.576 46.5363L171.496 45.5737V38.8361L175.576 37.8736C175.907 36.6972 176.348 35.6277 177.01 34.5583L174.804 31.029L179.657 26.3234L183.296 28.4623C184.399 27.9276 185.502 27.3929 186.715 27.072L187.707 23.115H194.655L195.647 27.072C196.861 27.3929 197.963 27.8206 199.066 28.4623L202.705 26.3234L207.558 31.029L205.352 34.5583C205.903 35.6277 206.455 36.6972 206.786 37.8736L210.866 38.8361ZM191.126 35.7347C187.487 35.7347 184.509 38.6222 184.509 42.1515C184.509 45.6807 187.487 48.5682 191.126 48.5682C194.765 48.5682 197.743 45.6807 197.743 42.1515C197.743 38.6222 194.765 35.7347 191.126 35.7347Z" fill="#407BFF"/>
<path d="M230.496 56.0545L229.062 59.4768L226.746 59.156C226.305 59.6907 225.864 60.1185 225.313 60.5463L225.643 62.7922L222.114 64.1825L220.681 62.3644C220.019 62.4713 219.357 62.4713 218.696 62.3644L217.262 64.1825L213.733 62.7922L214.064 60.5463C213.513 60.1185 213.071 59.6907 212.63 59.156L210.315 59.4768L208.881 56.0545L210.756 54.6642C210.645 54.0225 210.645 53.3809 210.756 52.7392L208.881 51.3489L210.315 47.9266L212.63 48.2474C213.071 47.7127 213.513 47.2849 214.064 46.8571L213.733 44.6113L217.262 43.2209L218.696 45.039C219.357 44.9321 220.019 44.9321 220.681 45.039L222.114 43.2209L225.643 44.6113L225.313 46.8571C225.864 47.2849 226.305 47.7127 226.746 48.2474L229.062 47.9266L230.496 51.3489L228.621 52.7392C228.731 53.3809 228.731 54.0225 228.621 54.6642L230.496 56.0545Z" fill="#407BFF"/>
<path opacity="0.3" d="M230.496 56.0545L229.062 59.4768L226.746 59.156C226.305 59.6907 225.864 60.1185 225.313 60.5463L225.643 62.7922L222.114 64.1825L220.681 62.3644C220.019 62.4713 219.357 62.4713 218.696 62.3644L217.262 64.1825L213.733 62.7922L214.064 60.5463C213.513 60.1185 213.071 59.6907 212.63 59.156L210.315 59.4768L208.881 56.0545L210.756 54.6642C210.645 54.0225 210.645 53.3809 210.756 52.7392L208.881 51.3489L210.315 47.9266L212.63 48.2474C213.071 47.7127 213.513 47.2849 214.064 46.8571L213.733 44.6113L217.262 43.2209L218.696 45.039C219.357 44.9321 220.019 44.9321 220.681 45.039L222.114 43.2209L225.643 44.6113L225.313 46.8571C225.864 47.2849 226.305 47.7127 226.746 48.2474L229.062 47.9266L230.496 51.3489L228.621 52.7392C228.731 53.3809 228.731 54.0225 228.621 54.6642L230.496 56.0545Z" fill="white"/>
<path d="M243.068 83.8606H158.373C156.057 83.8606 154.072 82.0425 154.072 79.6897C154.072 77.4438 155.947 75.5188 158.373 75.5188H243.068C245.384 75.5188 247.369 77.3369 247.369 79.6897C247.369 82.0425 245.494 83.8606 243.068 83.8606Z" fill="#407BFF"/>
<path d="M158.372 82.8981C156.608 82.8981 155.064 81.5078 155.064 79.6897C155.064 77.9785 156.498 76.4813 158.372 76.4813H188.258C190.023 76.4813 191.567 77.8716 191.567 79.6897C191.567 81.4008 190.133 82.8981 188.258 82.8981H158.372Z" fill="white"/>
<path d="M195.316 88.9941L200.72 94.2344L206.234 88.9941H195.316Z" fill="#407BFF"/>
<path d="M276.152 358.927H273.836C270.968 358.927 268.653 356.681 268.653 353.9V338.179C268.653 337.645 268.211 337.217 267.66 337.217H263.028V336.147H267.66C268.873 336.147 269.755 337.11 269.755 338.179V353.9C269.755 356.146 271.63 357.857 273.836 357.857H276.152C278.468 357.857 280.232 356.039 280.232 353.9V166.209C280.232 165.033 281.225 164.177 282.327 164.177H294.348V165.247H282.327C281.776 165.247 281.335 165.675 281.335 166.209V353.9C281.335 356.681 279.019 358.927 276.152 358.927Z" fill="#407BFF"/>
<path d="M376.727 165.782H261.043V168.99H376.727V165.782Z" fill="#407BFF"/>
<path opacity="0.2" d="M298.979 165.782H261.043V168.99H298.979V165.782Z" fill="black"/>
<path d="M325.998 168.99H317.837V358.392H325.998V168.99Z" fill="#407BFF"/>
<path opacity="0.2" d="M325.998 168.99H320.594H317.837V174.337V358.392H320.594V173.803L325.998 172.733V168.99Z" fill="black"/>
<path d="M350.811 119.367H287.289C285.084 119.367 283.43 121.185 283.76 123.324L288.503 159.793C288.833 161.932 290.818 163.75 293.134 163.75H356.656C358.861 163.75 360.515 161.932 360.185 159.793L355.443 123.324C355.112 121.078 353.127 119.367 350.811 119.367Z" fill="#0F264C"/>
<path d="M370.771 163.536H291.259C289.936 163.536 289.054 164.605 289.164 165.782H373.418C373.308 164.605 372.095 163.536 370.771 163.536Z" fill="#407BFF"/>
<path opacity="0.2" d="M310.117 163.536H291.259C289.936 163.536 289.054 164.605 289.164 165.782H312.764C312.654 164.605 311.441 163.536 310.117 163.536Z" fill="black"/>
<path opacity="0.9" d="M293.576 161.504C292.473 161.504 291.37 160.541 291.15 159.472L286.408 123.003C286.297 122.575 286.408 122.147 286.738 121.934C286.959 121.613 287.29 121.506 287.731 121.506H351.252C352.355 121.506 353.458 122.468 353.678 123.538L358.42 160.006C358.531 160.434 358.42 160.862 358.09 161.076C357.869 161.397 357.538 161.504 357.097 161.504H293.576Z" fill="white"/>
<g opacity="0.5">
<path opacity="0.2" d="M327.322 136.692L327.983 140.756L325.447 141.398C325.337 142.039 325.116 142.788 324.895 143.43L326.66 145.569L324.013 148.456L321.477 147.173C320.815 147.494 320.153 147.815 319.492 148.028L319.271 150.381H314.86L313.757 148.028C312.985 147.815 312.213 147.601 311.441 147.173L309.346 148.456L305.707 145.569L306.699 143.43C306.258 142.788 305.817 142.146 305.486 141.505L302.839 140.97L302.178 136.906L304.714 136.264C304.824 135.623 305.045 134.874 305.266 134.232L303.501 132.093L306.148 129.206L308.684 130.489C309.236 130.168 310.008 129.848 310.669 129.634L310.89 127.281H315.301L316.404 129.634C317.176 129.848 317.948 130.061 318.72 130.489L320.815 129.206L324.454 132.093L323.462 134.232C323.903 134.874 324.344 135.516 324.675 136.157L327.322 136.692ZM314.529 134.874C312.213 134.874 310.669 136.585 311 138.724C311.331 140.863 313.537 142.574 315.852 142.574C318.168 142.574 319.712 140.863 319.381 138.724C319.051 136.585 316.845 134.874 314.529 134.874Z" fill="#407BFF"/>
</g>
<path opacity="0.2" d="M341.657 147.066L341.106 149.098L339.562 148.884C339.341 149.205 339.121 149.526 338.79 149.74L339.231 151.13L337.136 151.986L336.033 150.916C335.592 150.916 335.151 150.916 334.71 150.916L334.048 151.986L331.622 151.13V149.74C331.291 149.526 330.85 149.205 330.519 148.884L329.085 149.098L327.762 147.066L328.865 146.21C328.755 145.783 328.644 145.462 328.644 145.034L327.431 144.285L327.983 142.253L329.526 142.467C329.747 142.146 329.968 141.826 330.298 141.612L329.857 140.221L331.953 139.366L333.055 140.435C333.497 140.435 333.938 140.435 334.379 140.435L335.04 139.366L337.467 140.221V141.612C337.798 141.826 338.239 142.146 338.569 142.467L340.003 142.253L341.326 144.285L340.224 145.141C340.334 145.569 340.444 145.89 340.444 146.317L341.657 147.066Z" fill="#407BFF"/>
<path d="M394.482 71.8826C393.6 77.5508 393.048 87.8176 397.239 91.3469C397.239 91.3469 393.489 98.94 383.895 103.432C375.955 99.1539 379.263 92.2024 379.263 92.2024C385.659 90.3843 385.218 85.7857 383.895 81.5078L394.482 71.8826Z" fill="#F5C9B2"/>
<path d="M397.128 88.3524C396.908 88.3524 396.577 88.4594 396.356 88.4594C395.805 87.4968 394.812 86.8552 393.599 86.8552C392.717 86.8552 392.055 87.2829 391.504 87.8177C390.953 87.2829 390.181 86.9621 389.298 87.0691C388.306 87.0691 387.534 87.6038 386.982 88.2455C386.431 87.7107 385.659 87.4968 384.887 87.4968C383.674 87.4968 382.792 88.2455 382.24 89.101C381.799 88.8871 381.358 88.7802 380.917 88.7802C379.263 88.8871 377.939 90.1705 377.939 91.8816C378.05 93.4858 379.373 94.7692 381.138 94.7692C382.351 94.7692 383.233 94.0205 383.784 93.165C384.225 93.3789 384.667 93.4858 385.108 93.4858C386.1 93.4858 386.872 92.9511 387.424 92.3094C387.975 92.8441 388.747 93.058 389.519 93.058C390.401 93.058 391.063 92.6302 391.614 92.0955C392.166 92.6302 392.938 92.9511 393.82 92.8441C394.04 92.8441 394.371 92.7372 394.592 92.7372C395.143 93.6997 396.136 94.3414 397.349 94.3414C399.003 94.2344 400.326 92.9511 400.326 91.2399C400.216 89.6358 398.893 88.3524 397.128 88.3524Z" fill="white"/>
<path opacity="0.5" d="M397.128 88.3524C396.908 88.3524 396.577 88.4594 396.356 88.4594C395.805 87.4968 394.812 86.8552 393.599 86.8552C392.717 86.8552 392.055 87.2829 391.504 87.8177C390.953 87.2829 390.181 86.9621 389.298 87.0691C388.306 87.0691 387.534 87.6038 386.982 88.2455C386.431 87.7107 385.659 87.4968 384.887 87.4968C383.674 87.4968 382.792 88.2455 382.24 89.101C381.799 88.8871 381.358 88.7802 380.917 88.7802C379.263 88.8871 377.939 90.1705 377.939 91.8816C378.05 93.4858 379.373 94.7692 381.138 94.7692C382.351 94.7692 383.233 94.0205 383.784 93.165C384.225 93.3789 384.667 93.4858 385.108 93.4858C386.1 93.4858 386.872 92.9511 387.424 92.3094C387.975 92.8441 388.747 93.058 389.519 93.058C390.401 93.058 391.063 92.6302 391.614 92.0955C392.166 92.6302 392.938 92.9511 393.82 92.8441C394.04 92.8441 394.371 92.7372 394.592 92.7372C395.143 93.6997 396.136 94.3414 397.349 94.3414C399.003 94.2344 400.326 92.9511 400.326 91.2399C400.216 89.6358 398.893 88.3524 397.128 88.3524Z" fill="#407BFF"/>
<path d="M369.448 68.2465C369.669 68.9951 369.448 69.6368 369.007 69.8507C368.566 69.9576 367.904 69.5298 367.684 68.7812C367.463 68.0326 367.684 67.3909 368.125 67.177C368.566 66.9631 369.228 67.4978 369.448 68.2465Z" fill="#263238"/>
<path d="M368.345 67.07H366.36C366.47 67.07 367.794 68.2465 368.345 67.07Z" fill="#263238"/>
<path d="M367.021 64.1825C366.911 64.1825 366.801 64.1825 366.691 64.0755C366.47 63.9686 366.47 63.6477 366.58 63.4338C368.124 61.5088 370.219 61.6158 370.33 61.6158C370.55 61.6158 370.771 61.8297 370.771 62.0435C370.771 62.2574 370.55 62.4713 370.33 62.4713C370.219 62.4713 368.565 62.3644 367.352 63.9686C367.242 64.0755 367.132 64.1825 367.021 64.1825Z" fill="#263238"/>
<path d="M370.551 70.3854C370.551 70.3854 370.22 73.9146 369.338 75.8397C370.661 76.4813 372.205 75.5188 372.205 75.5188L370.551 70.3854Z" fill="#ED847E"/>
<path d="M394.041 57.8727C396.246 66.9631 397.349 70.8132 394.041 76.8022C389.078 85.7857 377.058 86.3204 372.095 77.9786C367.684 70.4923 364.816 56.8032 372.867 50.6003C380.697 44.6113 391.835 48.7822 394.041 57.8727Z" fill="#F5C9B2"/>
<path d="M375.734 66.6422C376.285 63.113 371.323 67.4978 370.11 62.2574C369.338 59.156 365.588 59.7977 366.47 54.9851C367.353 50.1725 371.433 50.4933 371.874 48.6752C372.646 45.5738 374.741 43.9696 378.05 43.221C383.233 42.0446 384.336 46.6433 388.416 45.4668C392.276 44.3974 397.68 45.253 399.554 48.9961C401.539 52.8461 398.452 57.124 400.437 58.9421C404.186 62.3644 405.399 68.7812 400.988 73.2729C397.68 76.6952 402.642 78.8341 399.003 80.7592C395.254 82.5772 390.732 82.4703 388.857 77.7646C387.644 74.5563 374.08 77.6577 375.734 66.6422Z" fill="#445465"/>
<path d="M377.278 66.7492C377.829 68.5673 377.498 70.5993 376.726 71.9896C375.513 74.1285 373.197 73.4869 371.984 71.4549C370.992 69.6368 370.33 66.4284 372.315 64.9312C374.19 63.5409 376.616 64.6103 377.278 66.7492Z" fill="#F5C9B2"/>
<path d="M405.841 104.715C404.076 111.239 402.091 117.442 399.885 123.645C398.783 126.746 397.57 129.848 396.246 132.949C395.585 134.446 394.923 136.051 394.261 137.548L393.158 139.794L392.056 142.146L391.504 143.323L390.622 144.713C390.071 145.569 389.409 146.317 388.747 147.066C387.424 148.563 385.99 149.847 384.557 150.916C381.579 153.162 378.491 154.98 375.293 156.477C368.897 159.472 362.39 161.504 355.443 162.787L354.229 158.188C357.207 157.119 360.295 155.836 363.162 154.445C366.14 153.055 369.007 151.665 371.654 150.061C376.947 146.852 382.02 143.002 383.785 138.296L384.667 136.157L385.549 133.912C386.1 132.414 386.652 130.917 387.314 129.42C388.416 126.425 389.519 123.431 390.512 120.329C392.497 114.233 394.482 108.031 396.246 102.042L405.841 104.715Z" fill="#F5C9B2"/>
<path d="M356.545 157.654L348.053 156.263L349.377 163.857C349.377 163.857 356.986 164.284 359.412 161.183L356.545 157.654Z" fill="#F0B89A"/>
<path d="M341.658 159.793L340.775 163.536L349.377 163.857L348.054 156.263L341.658 159.793Z" fill="#F5C9B2"/>
<path d="M364.375 99.2609C364.265 106.105 365.919 121.72 372.867 150.916L409.7 148.67C408.156 135.088 407.715 127.174 411.465 103.432C412.457 96.9081 407.495 90.8121 400.657 90.4913C400.437 90.4913 400.216 90.4913 399.996 90.4913C393.379 90.1705 387.865 89.9566 382.02 90.4913C378.16 90.8121 373.97 91.4538 370.882 91.9886C367.132 92.6302 364.375 95.6247 364.375 99.2609Z" fill="#F6AC3B"/>
<path d="M396.246 82.7912C400.547 90.0635 378.05 98.6192 393.048 102.148C408.046 105.678 394.15 108.244 397.238 118.19C399.885 126.853 411.575 115.41 407.715 105.143C403.304 93.3788 412.678 93.3788 401.539 82.6842C397.349 78.5133 396.246 82.7912 396.246 82.7912Z" fill="#445465"/>
<path d="M400.767 83.3259L397.9 83.5398C396.246 83.6468 394.371 82.5773 393.819 81.187C393.268 79.7967 394.15 78.5133 395.915 78.2995L398.782 78.0856C400.436 77.9786 402.311 79.0481 402.862 80.4384C403.304 81.8287 402.421 83.1121 400.767 83.3259Z" fill="#C58A2F"/>
<path opacity="0.2" d="M372.095 101.935L365.368 112.629C365.919 116.586 366.691 121.399 367.684 126.96L372.536 124.179C374.852 107.282 372.095 101.935 372.095 101.935Z" fill="black"/>
<path d="M373.308 104.715C371.654 111.025 369.669 117.228 367.463 123.324C366.36 126.425 365.257 129.42 363.934 132.414C363.272 133.912 362.611 135.409 361.949 136.906C361.287 138.403 360.626 139.901 359.854 141.398L359.302 142.574C359.082 143.002 358.972 143.323 358.641 143.751C358.31 144.178 358.089 144.713 357.758 145.034L356.876 146.21C355.663 147.708 354.34 149.098 352.906 150.274C350.039 152.627 346.951 154.445 343.863 155.943C337.577 158.937 331.071 160.862 324.344 162.038L323.241 157.333C326.108 156.263 329.196 155.087 332.063 153.804C334.93 152.52 337.687 151.023 340.334 149.526C342.871 147.922 345.297 146.21 347.392 144.285C348.385 143.323 349.267 142.253 350.039 141.291L350.59 140.542C350.811 140.328 350.811 140.008 351.031 139.794C351.142 139.58 351.362 139.152 351.472 138.831L351.914 137.762C354.34 132.093 356.435 126.211 358.42 120.222C360.405 114.233 362.28 108.244 363.934 102.255L373.308 104.715Z" fill="#F5C9B2"/>
<path d="M374.411 99.6887C372.756 95.8386 368.897 92.5233 368.897 92.5233C362.39 95.4109 360.074 98.5123 356.325 116.586C361.728 121.185 370.771 121.185 370.771 121.185L375.624 108.993C375.624 109.1 376.065 103.539 374.411 99.6887Z" fill="#F6AC3B"/>
<path d="M324.013 157.654L315.631 156.584L318.168 163.429C318.168 163.429 324.343 164.391 326.77 161.183L324.013 157.654Z" fill="#F0B89A"/>
<path d="M311.22 159.793L308.794 163.536L318.168 163.429L315.631 156.584L311.22 159.793Z" fill="#F0B89A"/>
<path d="M373.97 150.916C373.97 150.916 369.338 217.009 368.566 248.879C368.456 252.729 369.228 256.579 370.882 260.215C385.549 293.69 415.104 330.479 415.104 330.479L421.059 324.704C421.059 324.704 401.429 282.032 387.975 250.055C395.915 218.399 400.988 149.312 400.988 149.312L373.97 150.916Z" fill="#F5C9B2"/>
<path opacity="0.2" d="M413.229 307.593C408.377 296.791 401.87 282.353 395.695 268.022L395.584 302.887C395.584 303.422 395.805 303.956 396.136 304.491C404.738 317.111 412.126 326.843 414.442 329.731L413.229 307.593Z" fill="black"/>
<path d="M380.476 150.595C380.476 150.595 386.872 218.72 392.276 247.061C397.9 276.792 402.201 347.804 402.312 349.943H409.039C409.039 349.943 418.302 270.161 409.7 243.532C408.267 210.913 409.7 148.777 409.7 148.777L380.476 150.595Z" fill="#F5C9B2"/>
<path d="M412.898 328.875L420.066 322.779C420.397 322.565 420.838 322.458 421.059 322.779L427.565 328.34C428.227 328.875 428.227 330.051 427.455 330.693C424.477 333.153 424.257 333.153 420.507 336.254C418.191 338.179 414.552 341.495 411.464 344.168C408.377 346.842 405.509 344.061 406.612 342.671C411.464 336.361 411.464 333.794 412.016 330.479C412.126 329.837 412.347 329.303 412.898 328.875Z" fill="#263238"/>
<path d="M401.429 348.66H409.149C409.59 348.66 409.921 348.981 409.921 349.302L411.024 357.857C411.134 358.713 410.362 359.569 409.369 359.569C405.51 359.462 407.054 359.248 402.201 359.248C399.224 359.248 394.812 359.569 390.622 359.569C386.541 359.569 386.321 355.612 388.085 355.184C395.805 353.58 397.128 351.334 399.775 349.195C400.326 348.874 400.878 348.66 401.429 348.66Z" fill="#263238"/>
<path d="M372.756 151.023L365.368 249.628L413.229 237.115C409.039 196.368 424.478 169.097 409.59 148.777L372.756 151.023Z" fill="#6F7B88"/>
<path d="M410.362 150.488L372.646 153.162C372.315 153.162 371.984 152.948 371.984 152.627L371.874 150.916C371.874 150.595 372.095 150.274 372.425 150.274L409.921 147.708C410.252 147.708 410.472 147.922 410.582 148.135L411.023 149.74C411.023 150.06 410.803 150.488 410.362 150.488Z" fill="#407BFF"/>
<path opacity="0.7" d="M410.362 150.488L372.646 153.162C372.315 153.162 371.984 152.948 371.984 152.627L371.874 150.916C371.874 150.595 372.095 150.274 372.425 150.274L409.921 147.708C410.252 147.708 410.472 147.922 410.582 148.135L411.023 149.74C411.023 150.06 410.803 150.488 410.362 150.488Z" fill="#C58A2F"/>
<path opacity="0.2" d="M405.179 170.701C405.179 170.701 398.231 178.829 385.99 184.497C398.342 182.893 403.525 177.973 405.179 170.701Z" fill="black"/>
</g>
<defs>
<clipPath id="clip0">
<rect width="553" height="360" fill="white"/>
</clipPath>
</defs>
</svg>
