<svg width="407" height="300" viewBox="0 0 407 300" fill="none" xmlns="http://www.w3.org/2000/svg">
<path d="M82.9198 60.582H15.1465V181.729H82.9198V60.582Z" fill="#4A9BEC"/>
<path d="M79.5205 64.0789H17.8672V178.12H79.5205V64.0789Z" fill="#E1F0FC"/>
<path d="M79.5205 65.4325L17.8672 143.49V64.0789H79.5205V65.4325Z" fill="#E1F0FC"/>
<path d="M80.8805 96.9036H17.8672V98.1444H80.8805V96.9036Z" fill="#4A9BEC"/>
<path d="M80.8805 124.032H17.8672V125.273H80.8805V124.032Z" fill="#4A9BEC"/>
<path d="M80.8805 151.217H17.8672V152.458H80.8805V151.217Z" fill="#4A9BEC"/>
<path d="M47.1006 97.4928L47.1006 181.36H50.2172L50.2172 97.4928H47.1006Z" fill="#4A9BEC"/>
<path d="M31.1266 64.0789H29.71V97.4676H31.1266V64.0789Z" fill="#4A9BEC"/>
<path d="M43.3102 64.0789H41.8936V97.4676H43.3102V64.0789Z" fill="#4A9BEC"/>
<path d="M55.4928 64.0789H54.0762V97.4676H55.4928V64.0789Z" fill="#4A9BEC"/>
<path d="M67.6198 64.0789H66.2031V97.4676H67.6198V64.0789Z" fill="#4A9BEC"/>
<path d="M15.1468 58.4952H12.2568V182.462H15.1468V58.4952Z" fill="#E1F0FC"/>
<path d="M85.7533 182.801L82.9199 181.729V58.4952H85.7533V182.801Z" fill="#4A9BEC"/>
<path d="M85.7535 57.2544H12.2568V60.582H85.7535V57.2544Z" fill="#4A9BEC"/>
<path d="M87.6801 183.196H10.2168V186.298H87.6801V183.196Z" fill="#4A9BEC"/>
<path d="M82.9201 181.729L87.7368 183.196H10.2168L15.1468 181.729H82.9201Z" fill="#4A9BEC"/>
<path d="M374.414 136.102C374.414 136.102 369.597 135.763 370.05 146.479C370.504 157.195 371.58 162.892 371.58 162.892C371.58 162.892 371.467 165.26 369.597 164.809C367.727 164.358 364.27 162.046 362.57 163.738C360.814 165.542 361.437 168.25 363.76 171.521C366.14 174.736 371.014 182.011 371.467 182.688C371.92 183.308 372.09 184.549 370.787 184.436C369.484 184.324 360.644 181.334 359.454 185.621C358.264 189.851 366.367 197.803 367.217 198.706C368.067 199.608 368.124 200.172 367.784 200.68C367.444 201.187 364.554 199.946 362.004 199.213C359.454 198.48 356.394 198.029 355.884 200.567C355.43 203.105 358.944 210.437 372.26 218.164L378.664 221.322L384.727 217.487C397.194 208.463 399.97 200.792 399.234 198.367C398.497 195.942 395.494 196.619 393.057 197.634C390.62 198.649 387.844 200.172 387.447 199.664C387.05 199.157 387.05 198.593 387.787 197.634C388.58 196.675 395.777 187.99 394.19 183.872C392.604 179.755 384.104 183.59 382.8 183.872C381.497 184.098 381.554 182.914 381.95 182.18C382.347 181.504 386.484 173.777 388.467 170.336C390.507 166.896 390.847 164.076 388.92 162.497C387.05 160.974 383.82 163.568 382.007 164.245C380.194 164.866 379.854 162.553 379.854 162.553C379.854 162.553 380.364 156.8 379.74 146.084C379.117 135.425 374.244 136.271 374.244 136.271" fill="#74C1C7"/>
<path d="M374.753 145.69C374.753 145.69 374.753 145.746 374.753 145.915C374.753 146.085 374.81 146.31 374.81 146.592C374.866 147.156 374.923 148.002 374.98 149.13C375.15 151.33 375.32 154.488 375.546 158.436C376 166.276 376.51 177.104 377.02 189.118C377.53 201.074 378.04 211.96 378.436 219.799C378.663 223.691 378.776 226.906 378.89 229.105C378.946 230.177 379.003 231.023 379.003 231.643C379.003 231.925 379.003 232.151 379.003 232.32C379.003 232.489 379.003 232.546 379.003 232.546C379.003 232.546 379.003 232.489 379.003 232.32C379.003 232.151 378.946 231.925 378.946 231.643C378.89 231.079 378.833 230.233 378.776 229.105C378.606 226.906 378.436 223.747 378.21 219.799C377.756 211.96 377.246 201.131 376.736 189.118C376.226 177.161 375.716 166.276 375.32 158.436C375.093 154.545 374.98 151.33 374.866 149.13C374.81 148.059 374.753 147.213 374.753 146.592C374.753 146.31 374.753 146.085 374.753 145.915C374.753 145.746 374.753 145.69 374.753 145.69Z" fill="#263238"/>
<path d="M367.273 167.122C367.273 167.122 367.443 167.235 367.67 167.46C367.897 167.686 368.237 168.024 368.69 168.419C369.54 169.265 370.673 170.449 371.92 171.746C373.11 173.044 374.187 174.228 375.037 175.13C375.434 175.525 375.717 175.864 376 176.146C376.227 176.371 376.34 176.54 376.34 176.54C376.34 176.54 376.17 176.428 375.944 176.202C375.717 175.976 375.377 175.638 374.924 175.243C374.073 174.397 372.997 173.213 371.75 171.859C370.56 170.562 369.427 169.378 368.577 168.475C368.18 168.08 367.897 167.742 367.613 167.46C367.387 167.291 367.273 167.122 367.273 167.122Z" fill="#263238"/>
<path d="M376.964 176.371C376.907 176.315 379.231 173.89 382.177 170.957C385.124 168.024 387.504 165.655 387.561 165.712C387.617 165.768 385.294 168.193 382.347 171.126C379.401 174.059 377.021 176.428 376.964 176.371Z" fill="#263238"/>
<path d="M376.906 194.814C376.906 194.814 377.076 194.701 377.36 194.532C377.7 194.363 378.096 194.081 378.606 193.855C379.683 193.291 381.1 192.445 382.686 191.486C384.273 190.528 385.633 189.625 386.653 188.948C387.106 188.61 387.503 188.384 387.843 188.159C388.126 187.99 388.296 187.877 388.296 187.877C388.296 187.877 388.183 187.99 387.9 188.215C387.616 188.441 387.22 188.723 386.766 189.061C385.803 189.794 384.386 190.697 382.8 191.656C381.213 192.614 379.74 193.404 378.663 193.968C378.096 194.25 377.7 194.476 377.36 194.588C377.076 194.758 376.906 194.814 376.906 194.814Z" fill="#263238"/>
<path d="M366.311 188.328C366.311 188.328 366.481 188.384 366.764 188.554C367.047 188.723 367.444 188.892 367.897 189.174C368.861 189.738 370.221 190.471 371.694 191.374C373.167 192.22 374.471 193.066 375.434 193.63C375.887 193.912 376.284 194.194 376.567 194.363C376.851 194.532 376.964 194.645 376.964 194.645C376.964 194.645 376.794 194.588 376.511 194.419C376.227 194.25 375.831 194.081 375.377 193.799C374.414 193.235 373.054 192.502 371.581 191.599C370.107 190.753 368.804 189.907 367.841 189.343C367.387 189.061 366.991 188.779 366.707 188.61C366.481 188.441 366.311 188.384 366.311 188.328Z" fill="#263238"/>
<path d="M364.214 204.628C364.214 204.628 364.441 204.684 364.781 204.91C365.177 205.135 365.687 205.417 366.254 205.699C367.501 206.376 369.201 207.391 371.127 208.463C372.997 209.535 374.697 210.55 375.944 211.283C376.511 211.621 377.021 211.96 377.417 212.185C377.757 212.411 377.927 212.524 377.927 212.524C377.927 212.524 377.701 212.467 377.361 212.242C376.964 212.016 376.454 211.734 375.887 211.452C374.641 210.775 372.941 209.76 371.014 208.689C369.144 207.617 367.444 206.602 366.197 205.868C365.631 205.53 365.121 205.192 364.724 204.966C364.384 204.74 364.214 204.628 364.214 204.628Z" fill="#263238"/>
<path d="M377.644 212.298C377.644 212.298 377.814 212.129 378.21 211.903C378.607 211.678 379.117 211.339 379.74 210.945C381.044 210.155 382.857 209.027 384.84 207.786C386.823 206.489 388.58 205.305 389.827 204.459C390.45 204.064 390.903 203.669 391.3 203.443C391.64 203.218 391.867 203.049 391.867 203.105C391.867 203.105 391.697 203.274 391.357 203.556C391.017 203.838 390.507 204.177 389.883 204.628C388.637 205.53 386.937 206.771 384.954 208.012C382.97 209.309 381.157 210.381 379.854 211.114C379.174 211.509 378.664 211.791 378.267 212.016C377.87 212.185 377.644 212.298 377.644 212.298Z" fill="#263238"/>
<path d="M387.277 223.24H369.597L375.377 266.724H381.497L387.277 223.24Z" fill="#4B5A62"/>
<path d="M370.504 228.598C370.504 228.598 370.504 228.654 370.617 228.767C370.674 228.88 370.844 228.993 371.071 229.049C371.467 229.218 372.204 229.218 372.941 228.823C373.677 228.429 374.301 227.639 375.207 227.301C376.171 226.962 377.304 227.019 378.437 227.357C379.571 227.695 380.591 228.259 381.441 228.823C382.347 229.331 383.141 229.839 383.877 230.121C384.614 230.459 385.237 230.572 385.691 230.628C385.917 230.685 386.087 230.685 386.201 230.685C386.314 230.685 386.371 230.685 386.371 230.685C386.371 230.628 385.351 230.628 383.934 229.951C383.197 229.613 382.404 229.162 381.497 228.598C380.591 228.034 379.571 227.47 378.437 227.075C377.247 226.68 376.001 226.624 374.981 227.019C374.471 227.188 374.017 227.526 373.677 227.808C373.337 228.09 372.997 228.372 372.657 228.598C372.034 228.993 371.354 229.049 370.957 228.88C370.674 228.823 370.504 228.598 370.504 228.598Z" fill="#263238"/>
<path d="M371.127 236.607C371.127 236.607 371.24 236.437 371.524 236.155C371.807 235.873 372.26 235.535 372.94 235.253C373.62 235.027 374.47 234.858 375.377 234.858C376.34 234.915 377.36 235.084 378.437 235.253C379.514 235.422 380.59 235.535 381.61 235.366C382.574 235.253 383.424 234.971 384.104 234.689C384.784 234.407 385.294 234.069 385.577 233.787C385.917 233.561 386.087 233.392 386.03 233.392C385.974 233.335 385.294 233.956 383.99 234.52C383.31 234.802 382.517 235.027 381.554 235.14C380.59 235.253 379.57 235.197 378.494 234.971C377.417 234.802 376.34 234.576 375.377 234.576C374.414 234.576 373.507 234.745 372.827 235.027C372.147 235.309 371.694 235.704 371.41 236.043C371.297 236.212 371.184 236.325 371.127 236.437C371.184 236.55 371.127 236.607 371.127 236.607Z" fill="#263238"/>
<path d="M385.237 240.893C385.237 240.893 385.067 240.78 384.727 240.667C384.387 240.555 383.877 240.385 383.253 240.329C382.63 240.273 381.837 240.329 381.043 240.442C380.193 240.555 379.343 240.78 378.38 241.006C377.473 241.175 376.567 241.344 375.773 241.288C374.98 241.288 374.243 241.062 373.677 240.837C372.543 240.329 372.147 239.596 372.09 239.652C372.09 239.652 372.147 239.821 372.373 240.103C372.6 240.385 372.997 240.724 373.563 241.006C374.13 241.288 374.867 241.513 375.717 241.513C376.567 241.57 377.473 241.457 378.437 241.231C379.4 241.006 380.25 240.78 381.043 240.667C381.837 240.498 382.573 240.442 383.197 240.498C384.557 240.555 385.237 240.949 385.237 240.893Z" fill="#263238"/>
<path d="M372.713 246.928C372.713 246.984 373.336 246.533 374.413 246.759C374.923 246.871 375.546 247.097 376.226 247.435C376.906 247.717 377.7 247.999 378.55 248.056C380.306 248.225 381.836 247.661 382.8 247.097C383.31 246.815 383.65 246.476 383.876 246.307C384.103 246.082 384.216 245.969 384.16 245.912C384.103 245.856 383.65 246.364 382.686 246.928C381.723 247.435 380.25 247.943 378.606 247.774C376.906 247.661 375.66 246.702 374.47 246.533C373.903 246.477 373.45 246.533 373.11 246.646C372.826 246.815 372.713 246.928 372.713 246.928Z" fill="#263238"/>
<path d="M373.677 255.275C373.677 255.331 374.243 255.331 375.15 254.993C376.057 254.711 377.133 254.034 378.437 253.527C379.06 253.301 379.74 253.132 380.307 253.132C380.873 253.132 381.44 253.301 381.837 253.47C382.63 253.865 382.857 254.429 382.913 254.429C382.913 254.429 382.913 254.26 382.743 254.034C382.573 253.809 382.347 253.527 381.893 253.301C381.497 253.075 380.93 252.906 380.307 252.85C379.683 252.85 379.003 252.963 378.323 253.245C377.02 253.752 375.943 254.485 375.093 254.824C374.243 255.162 373.677 255.219 373.677 255.275Z" fill="#263238"/>
<path d="M374.583 259.167C374.583 259.223 374.98 259.336 375.716 259.505C376.396 259.674 377.416 259.843 378.493 259.956C379.626 260.069 380.59 260.069 381.326 260.013C382.063 259.956 382.516 259.9 382.516 259.9C382.516 259.787 380.703 259.9 378.55 259.674C376.34 259.505 374.583 259.054 374.583 259.167Z" fill="#263238"/>
<path d="M377.247 65.5452H322.62V101.303H377.247V65.5452Z" fill="#E0E0E0"/>
<path d="M375.32 67.0116H324.547V99.6672H375.32V67.0116Z" fill="#FAFAFA"/>
<path d="M358.15 78.912H341.604V87.8796H358.15V78.912Z" fill="#E0E0E0"/>
<path d="M392.547 267.344C392.547 267.401 305.223 267.514 197.5 267.514C89.7198 267.514 2.39648 267.457 2.39648 267.344C2.39648 267.232 89.7198 267.175 197.5 267.175C305.223 267.175 392.547 267.232 392.547 267.344Z" fill="#263238"/>
<path d="M257.113 159.564H149.39V39.5448H266.35V150.371C266.35 155.447 262.213 159.564 257.113 159.564Z" fill="#B3CAFF"/>
<path d="M256.66 75.3024C256.66 75.528 235.523 75.7536 209.456 75.7536C183.39 75.7536 162.253 75.5844 162.253 75.3024C162.253 75.0768 183.39 74.8512 209.456 74.8512C235.523 74.8512 256.66 75.0204 256.66 75.3024Z" fill="#455A64"/>
<path d="M210.022 83.424C210.022 83.6496 199.596 83.8752 186.676 83.8752C173.812 83.8752 163.329 83.706 163.329 83.424C163.329 83.1984 173.756 82.9728 186.676 82.9728C199.596 82.9728 210.022 83.142 210.022 83.424Z" fill="#455A64"/>
<path d="M228.666 82.6344C228.666 82.86 225.889 83.0856 222.489 83.0856C219.089 83.0856 216.312 82.9164 216.312 82.6344C216.312 82.4088 219.089 82.1832 222.489 82.1832C225.889 82.2396 228.666 82.4088 228.666 82.6344Z" fill="#455A64"/>
<path d="M259.21 82.1833C259.21 82.4089 253.713 82.6345 246.969 82.6345C240.226 82.6345 234.729 82.4653 234.729 82.1833C234.729 81.9577 240.226 81.7321 246.969 81.7321C253.713 81.7321 259.21 81.9013 259.21 82.1833Z" fill="#455A64"/>
<path d="M206.113 91.2072C206.113 91.4328 196.31 91.6584 184.183 91.6584C172.056 91.6584 162.253 91.4892 162.253 91.2072C162.253 90.9816 172.056 90.756 184.183 90.756C196.31 90.756 206.113 90.9252 206.113 91.2072Z" fill="#455A64"/>
<path d="M259.21 90.9816C259.21 91.2072 248.5 91.4328 235.24 91.4328C222.036 91.4328 211.27 91.2636 211.27 90.9816C211.27 90.756 221.98 90.5304 235.24 90.5304C248.443 90.5304 259.21 90.6996 259.21 90.9816Z" fill="#455A64"/>
<path d="M259.21 98.8212C259.21 99.0468 254.45 99.2724 248.557 99.2724C242.663 99.2724 237.903 99.1032 237.903 98.8212C237.903 98.5956 242.663 98.37 248.557 98.37C254.393 98.37 259.21 98.5392 259.21 98.8212Z" fill="#455A64"/>
<path d="M215.066 66.5603C215.066 66.7859 203.506 67.0115 189.226 67.0115C174.946 67.0115 163.386 66.8423 163.386 66.5603C163.386 66.3347 174.946 66.1091 189.226 66.1091C203.506 66.1091 215.066 66.3347 215.066 66.5603Z" fill="#455A64"/>
<path d="M286.977 266.668H60.537C56.0037 266.668 52.2637 263.002 52.2637 258.433V115.008C52.2637 110.496 55.947 106.774 60.537 106.774H286.92C291.454 106.774 295.194 110.44 295.194 115.008V258.433C295.194 263.002 291.51 266.668 286.977 266.668Z" fill="#263238"/>
<path d="M295.59 268.811H52.5466C46.9933 268.811 42.46 264.299 42.46 258.772V254.824H305.62V258.772C305.677 264.355 301.143 268.811 295.59 268.811Z" fill="#263238"/>
<path d="M288.393 113.147H59.1768V248.168H288.393V113.147Z" fill="#64B9FF"/>
<path d="M150.127 254.823C150.127 254.823 150.184 254.823 150.354 254.823C150.524 254.823 150.807 254.823 151.147 254.823C151.827 254.823 152.847 254.823 154.15 254.823C156.757 254.823 160.554 254.823 165.257 254.767C174.72 254.767 187.81 254.711 202.374 254.711H202.657L202.544 254.936C202.09 255.726 201.58 256.572 201.07 257.474C200.56 258.377 199.994 259.279 199.484 260.125L199.427 260.181H199.314C179.14 260.125 161.857 260.125 153.357 260.069H153.3V260.012C152.28 258.32 151.43 257.023 150.92 256.121C150.637 255.669 150.467 255.387 150.297 255.162C150.184 254.936 150.127 254.823 150.127 254.823C150.127 254.823 150.184 254.936 150.354 255.162C150.524 255.387 150.694 255.726 150.977 256.177C151.544 257.023 152.337 258.32 153.414 259.956L153.357 259.899C161.857 259.899 179.14 259.843 199.314 259.787L199.2 259.843C199.71 258.997 200.22 258.095 200.73 257.192C201.24 256.346 201.75 255.5 202.204 254.654L202.317 254.88C187.754 254.823 174.777 254.823 165.314 254.823C160.61 254.823 156.814 254.767 154.15 254.767C152.847 254.767 151.827 254.767 151.09 254.767C150.75 254.767 150.467 254.767 150.297 254.767C150.24 254.823 150.127 254.823 150.127 254.823Z" fill="#455A64"/>
<path d="M295.193 254.823C295.193 254.88 240.793 254.993 173.756 254.993C106.663 254.993 52.3193 254.936 52.3193 254.823C52.3193 254.767 106.663 254.654 173.756 254.654C240.849 254.711 295.193 254.767 295.193 254.823Z" fill="#455A64"/>
<path d="M233.2 86.1876C236.939 86.1876 239.999 89.2332 239.999 92.9556V106.83H219.713V94.0272C219.713 89.6844 223.226 86.1876 227.59 86.1876H233.2Z" fill="#263238"/>
<path d="M233.2 86.1876C233.2 86.244 214.047 86.3004 190.474 86.3004C166.844 86.3004 147.69 86.1876 147.69 86.1312C147.69 86.0748 166.844 86.0184 190.474 86.0184C214.047 86.0184 233.2 86.0748 233.2 86.1876Z" fill="#263238"/>
<path d="M233.03 86.1312L224.587 86.0748L212.29 86.1312H122.02C114.37 86.1312 108.137 92.3352 108.137 99.9492V245.856V248.394H225.097V93.7452C225.38 86.1876 233.03 86.1312 233.03 86.1312Z" fill="#E1F0FC"/>
<path d="M233.029 86.1312L162.536 86.3004H127.289H122.869C122.133 86.3004 121.396 86.3568 120.659 86.3568C119.923 86.4696 119.243 86.526 118.506 86.7516C115.673 87.4284 113.179 89.1204 111.309 91.3764C110.403 92.5044 109.666 93.7452 109.156 95.0988C109.043 95.4372 108.873 95.7756 108.816 96.114L108.533 97.1856C108.419 97.9188 108.306 98.5956 108.306 99.3288C108.249 102.262 108.306 105.194 108.306 108.071L108.419 248.45L108.136 248.168L225.096 248.225L224.869 248.45L224.926 164.978L224.983 123.242L225.039 102.374V97.1856V94.5912C225.039 94.14 225.039 93.7452 225.096 93.294C225.153 92.8428 225.153 92.448 225.323 91.9968C225.719 90.3048 226.683 88.7256 228.156 87.7668C228.893 87.2592 229.686 86.8644 230.479 86.6388C231.273 86.3568 232.179 86.1876 233.029 86.1312ZM233.029 86.1312C232.179 86.1876 231.273 86.3568 230.479 86.5824C229.629 86.808 228.836 87.2028 228.156 87.7104C226.683 88.6692 225.719 90.2484 225.379 91.9404C225.266 92.3352 225.209 92.7864 225.153 93.2376C225.096 93.6888 225.096 94.0836 225.096 94.5348V97.1292V102.374L225.153 123.242L225.209 164.978L225.266 248.45V248.676H225.039L108.079 248.732H107.796V248.45L107.909 108.071C107.909 105.138 107.853 102.205 107.966 99.2724C107.966 98.5392 108.136 97.806 108.249 97.0728L108.533 96.0012C108.589 95.6628 108.759 95.3244 108.873 94.9296C109.383 93.576 110.119 92.2224 111.083 91.0944C112.953 88.8384 115.559 87.09 118.449 86.3568C119.186 86.1312 119.923 86.0748 120.659 85.962C121.396 85.9056 122.133 85.9056 122.869 85.9056H127.289H162.536L233.029 86.1312Z" fill="#263238"/>
<path d="M125.703 112.865H146.103L146.16 119.689H145.196C144.856 117.264 143.95 115.628 142.476 114.726C141.626 114.275 140.38 113.993 138.68 113.936V131.702C138.68 132.943 138.906 133.789 139.36 134.184C139.813 134.579 140.72 134.804 142.08 134.804V135.65H130.01V134.804C131.313 134.804 132.22 134.579 132.673 134.184C133.126 133.789 133.353 132.943 133.353 131.702V113.936C131.71 113.993 130.406 114.218 129.556 114.726C127.913 115.628 127.006 117.264 126.836 119.689H125.873L125.703 112.865Z" fill="#455A64"/>
<path d="M209.004 114.444C209.004 114.67 197.727 114.895 183.844 114.895C169.96 114.895 158.684 114.726 158.684 114.444C158.684 114.218 169.96 113.993 183.844 113.993C197.727 113.993 209.004 114.162 209.004 114.444Z" fill="#455A64"/>
<path d="M179.196 122.396C179.196 122.622 174.833 122.848 169.45 122.848C164.066 122.848 159.703 122.678 159.703 122.396C159.703 122.171 164.066 121.945 169.45 121.945C174.833 122.002 179.196 122.171 179.196 122.396Z" fill="#455A64"/>
<path d="M154.66 146.818C154.66 147.043 146.386 147.269 136.186 147.269C125.986 147.269 117.713 147.1 117.713 146.818C117.713 146.592 125.986 146.366 136.186 146.366C146.386 146.366 154.66 146.536 154.66 146.818Z" fill="#455A64"/>
<path d="M196.48 146.818C196.48 147.043 188.207 147.269 178.007 147.269C167.807 147.269 159.533 147.1 159.533 146.818C159.533 146.592 167.807 146.366 178.007 146.366C188.207 146.366 196.48 146.536 196.48 146.818Z" fill="#455A64"/>
<path d="M154.66 153.304C154.66 153.529 146.386 153.755 136.186 153.755C125.986 153.755 117.713 153.586 117.713 153.304C117.713 153.078 125.986 152.852 136.186 152.852C146.386 152.852 154.66 153.078 154.66 153.304Z" fill="#455A64"/>
<path d="M154.66 159.846C154.66 160.072 146.386 160.297 136.186 160.297C125.986 160.297 117.713 160.128 117.713 159.846C117.713 159.62 125.986 159.395 136.186 159.395C146.386 159.395 154.66 159.564 154.66 159.846Z" fill="#455A64"/>
<path d="M179.196 135.707C179.196 135.932 174.833 136.158 169.45 136.158C164.066 136.158 159.703 135.989 159.703 135.707C159.703 135.481 164.066 135.256 169.45 135.256C174.833 135.256 179.196 135.425 179.196 135.707Z" fill="#455A64"/>
<path d="M212.913 146.818C212.913 147.043 210.023 147.269 206.453 147.269C202.883 147.269 199.993 147.1 199.993 146.818C199.993 146.592 202.883 146.366 206.453 146.366C209.967 146.366 212.913 146.536 212.913 146.818Z" fill="#455A64"/>
<path d="M216.37 122.396C216.37 122.622 208.89 122.848 199.71 122.848C190.473 122.848 183.05 122.678 183.05 122.396C183.05 122.171 190.53 121.945 199.71 121.945C208.89 122.002 216.37 122.171 216.37 122.396Z" fill="#455A64"/>
<path d="M214.84 128.77C214.84 128.995 202.486 129.221 187.3 129.221C172.056 129.221 159.76 129.052 159.76 128.77C159.76 128.544 172.113 128.318 187.3 128.318C202.486 128.318 214.84 128.544 214.84 128.77Z" fill="#455A64"/>
<path d="M212.913 153.304C212.913 153.529 200.957 153.755 186.223 153.755C171.49 153.755 159.533 153.586 159.533 153.304C159.533 153.078 171.49 152.852 186.223 152.852C200.957 152.852 212.913 153.078 212.913 153.304Z" fill="#455A64"/>
<path d="M212.914 172.198C212.914 172.423 201.694 172.649 187.867 172.649C174.04 172.649 162.82 172.48 162.82 172.198C162.82 171.972 174.04 171.746 187.867 171.746C201.694 171.746 212.914 171.916 212.914 172.198Z" fill="#455A64"/>
<path d="M212.914 178.514C212.914 178.74 201.694 178.966 187.867 178.966C174.04 178.966 162.82 178.796 162.82 178.514C162.82 178.289 174.04 178.063 187.867 178.063C201.694 178.063 212.914 178.289 212.914 178.514Z" fill="#455A64"/>
<path d="M212.914 184.831C212.914 185.057 201.694 185.282 187.867 185.282C174.04 185.282 162.82 185.113 162.82 184.831C162.82 184.606 174.04 184.38 187.867 184.38C201.694 184.436 212.914 184.606 212.914 184.831Z" fill="#455A64"/>
<path d="M212.914 191.204C212.914 191.43 201.694 191.656 187.867 191.656C174.04 191.656 162.82 191.486 162.82 191.204C162.82 190.979 174.04 190.753 187.867 190.753C201.694 190.753 212.914 190.922 212.914 191.204Z" fill="#455A64"/>
<path d="M191.664 197.521C191.664 197.634 190.077 197.747 187.47 197.86C184.864 197.916 181.237 197.972 177.27 197.972C173.304 197.972 169.677 197.916 167.07 197.86C164.464 197.803 162.877 197.69 162.877 197.521C162.877 197.408 164.464 197.296 167.07 197.183C169.677 197.126 173.304 197.07 177.27 197.07C181.237 197.07 184.864 197.126 187.47 197.183C190.02 197.296 191.664 197.408 191.664 197.521Z" fill="#455A64"/>
<path d="M203.846 160.184C203.846 160.41 194.213 160.636 182.313 160.636C170.413 160.636 160.779 160.466 160.779 160.184C160.779 159.959 170.413 159.733 182.313 159.733C194.156 159.733 203.846 159.902 203.846 160.184Z" fill="#455A64"/>
<path d="M153.81 172.875L156.473 221.83L108.363 227.808V172.48L153.81 172.875Z" fill="#E0E0E0"/>
<path d="M91.5302 169.501L91.1953 221.389L156.419 221.806L156.754 169.918L91.5302 169.501Z" fill="#F5F5F5"/>
<path d="M93.7898 172.801L93.4971 218.146L154.13 218.534L154.423 173.188L93.7898 172.801Z" fill="#F6AC3B"/>
<g opacity="0.2">
<path opacity="0.2" d="M93.46 218.164L114.823 190.076L127.857 207.786L136.81 198.424L154.15 218.558L93.46 218.164Z" fill="black"/>
</g>
<g opacity="0.2">
<g opacity="0.2">
<g opacity="0.2">
<path opacity="0.2" d="M133.58 186.749C133.58 189.4 131.426 191.486 128.763 191.486C126.1 191.486 124.003 189.343 124.003 186.692C124.003 184.042 126.156 181.955 128.82 181.955C131.483 181.955 133.58 184.098 133.58 186.749Z" fill="black"/>
</g>
</g>
</g>
<path d="M162.706 234.068C162.706 234.632 162.253 235.084 161.686 235.084C161.119 235.084 160.666 234.632 160.666 234.068C160.666 233.504 161.119 233.053 161.686 233.053C162.253 233.053 162.706 233.504 162.706 234.068Z" fill="#263238"/>
<path d="M168.713 234.068C168.713 234.632 168.26 235.084 167.693 235.084C167.126 235.084 166.673 234.632 166.673 234.068C166.673 233.504 167.126 233.053 167.693 233.053C168.26 233.053 168.713 233.504 168.713 234.068Z" fill="#263238"/>
<path d="M174.72 234.068C174.72 234.632 174.266 235.084 173.7 235.084C173.133 235.084 172.68 234.632 172.68 234.068C172.68 233.504 173.133 233.053 173.7 233.053C174.266 233.053 174.72 233.504 174.72 234.068Z" fill="#263238"/>
<path d="M196.763 210.719C196.763 210.944 188.49 211.17 178.29 211.17C168.09 211.17 159.816 211.001 159.816 210.719C159.816 210.493 168.09 210.268 178.29 210.268C188.49 210.324 196.763 210.493 196.763 210.719Z" fill="#455A64"/>
<path d="M213.14 217.261C213.14 217.487 201.183 217.712 186.45 217.712C171.716 217.712 159.76 217.543 159.76 217.261C159.76 217.036 171.716 216.81 186.45 216.81C201.24 216.81 213.14 217.036 213.14 217.261Z" fill="#455A64"/>
<path d="M330.499 228.104L330.298 259.35L369.568 259.601L369.77 228.355L330.499 228.104Z" fill="#F5F5F5"/>
<path d="M331.822 230.061L331.646 257.415L368.196 257.649L368.372 230.295L331.822 230.061Z" fill="#F6AC3B"/>
<path opacity="0.2" d="M331.688 257.418L344.551 240.498L352.371 251.214L357.754 245.518L368.181 257.644L331.688 257.418Z" fill="black"/>
<g opacity="0.2">
<g opacity="0.2">
<path opacity="0.2" d="M355.827 238.524C355.827 240.103 354.523 241.4 352.937 241.344C351.35 241.288 350.047 240.047 350.103 238.468C350.103 236.888 351.407 235.591 352.993 235.648C354.523 235.648 355.827 236.945 355.827 238.524Z" fill="black"/>
</g>
</g>
<path d="M324.731 224.856L324.529 256.102L363.799 256.353L364.001 225.108L324.731 224.856Z" fill="#F5F5F5"/>
<path d="M326.053 226.813L325.876 254.167L362.426 254.401L362.603 227.047L326.053 226.813Z" fill="#F6AC3B"/>
<path opacity="0.2" d="M325.907 254.147L338.771 237.227L346.591 247.943L351.974 242.246L362.457 254.372L325.907 254.147Z" fill="black"/>
<g opacity="0.2">
<g opacity="0.2">
<path opacity="0.2" d="M350.047 235.253C350.047 236.832 348.744 238.129 347.157 238.073C345.571 238.073 344.267 236.775 344.324 235.196C344.324 233.617 345.627 232.32 347.214 232.376C348.744 232.376 350.047 233.673 350.047 235.253Z" fill="black"/>
</g>
</g>
<path d="M319.589 222.183L319.388 253.429L358.658 253.68L358.859 222.434L319.589 222.183Z" fill="#F5F5F5"/>
<path d="M320.969 224.084L320.792 251.438L357.342 251.672L357.519 224.318L320.969 224.084Z" fill="#F6AC3B"/>
<path opacity="0.2" d="M320.75 251.44L333.613 234.52L341.49 245.236L346.873 239.596L357.3 251.665L320.75 251.44Z" fill="black"/>
<g opacity="0.2">
<g opacity="0.2">
<path opacity="0.2" d="M344.89 232.546C344.89 234.125 343.587 235.422 342 235.366C340.413 235.366 339.11 234.068 339.167 232.489C339.167 230.91 340.47 229.613 342.057 229.669C343.643 229.669 344.947 230.966 344.89 232.546Z" fill="black"/>
</g>
</g>
<path d="M313.853 225.503L313.651 256.748L352.921 256.999L353.123 225.754L313.853 225.503Z" fill="#F5F5F5"/>
<path d="M315.176 227.46L314.999 254.814L351.549 255.047L351.726 227.693L315.176 227.46Z" fill="#455A64"/>
<path opacity="0.2" d="M315.026 254.824L327.89 237.904L335.71 248.563L341.093 242.923L351.52 255.049L315.026 254.824Z" fill="black"/>
<g opacity="0.2">
<g opacity="0.2">
<path opacity="0.2" d="M339.167 235.873C339.167 237.452 337.863 238.75 336.277 238.693C334.69 238.693 333.387 237.396 333.443 235.817C333.443 234.238 334.747 232.94 336.333 232.997C337.863 232.997 339.167 234.294 339.167 235.873Z" fill="black"/>
</g>
</g>
<path d="M375.774 237.114H353.107V267.288H375.774V237.114Z" fill="#263238"/>
<path d="M309.7 237.114V267.288H355.034V237.114H309.7ZM337.184 244.277H327.55C326.417 244.277 325.454 243.374 325.454 242.19C325.454 241.062 326.36 240.103 327.55 240.103H337.184C338.317 240.103 339.28 241.006 339.28 242.19C339.28 243.318 338.374 244.277 337.184 244.277Z" fill="#F6AC3B"/>
<path d="M280.29 264.186L238.074 261.592C237.79 260.971 237.62 260.633 237.62 260.633L226.174 260.858L222.434 260.633C222.434 260.633 222.377 260.746 222.264 260.915L183.9 261.648C176.25 261.648 168.204 266.273 168.204 272.251C168.09 277.891 170.867 284.039 177.724 283.926L230.027 283.757L282.33 283.926C289.187 284.039 291 279.922 291 275.071C291.85 265.991 286.127 264.242 280.29 264.186Z" fill="#455A64"/>
<path d="M182.54 283.926C182.54 283.926 182.653 283.926 182.767 283.926C182.937 283.926 183.163 283.926 183.503 283.926C184.183 283.926 185.147 283.926 186.337 283.926C188.83 283.926 192.4 283.926 196.877 283.87C205.773 283.87 218.183 283.87 232.01 283.813L231.84 283.982C231.783 282.854 231.67 281.614 231.613 280.373C231.443 277.835 231.273 275.353 231.16 273.041L231.273 273.154C218.41 271.744 207.077 270.446 198.917 269.544C194.837 269.093 191.607 268.698 189.34 268.472C188.207 268.36 187.357 268.247 186.733 268.19C186.45 268.134 186.223 268.134 186.053 268.078C185.883 268.078 185.827 268.021 185.827 268.021C185.827 268.021 185.883 268.021 186.053 268.021C186.223 268.021 186.45 268.078 186.733 268.078C187.357 268.134 188.207 268.247 189.34 268.36C191.607 268.585 194.893 268.924 198.917 269.375C207.077 270.277 218.41 271.462 231.273 272.872H231.387V272.984C231.557 275.353 231.67 277.835 231.84 280.316C231.897 281.557 232.01 282.742 232.067 283.926V284.095H231.897C218.07 284.095 205.717 284.039 196.763 284.039C192.343 284.039 188.717 283.982 186.223 283.982C184.977 283.982 184.013 283.982 183.39 283.982C183.05 283.982 182.823 283.982 182.653 283.982C182.653 283.926 182.54 283.926 182.54 283.926Z" fill="#263238"/>
<path d="M193.307 268.98C193.25 269.036 192.74 268.585 191.834 268.021C190.927 267.457 189.567 266.78 187.98 266.329C186.394 265.878 184.92 265.709 183.844 265.709C182.767 265.709 182.087 265.765 182.087 265.709C182.087 265.709 182.257 265.652 182.54 265.596C182.824 265.54 183.277 265.483 183.844 265.483C184.92 265.427 186.45 265.54 188.094 265.991C189.68 266.442 191.04 267.175 191.947 267.796C192.4 268.078 192.74 268.36 192.967 268.585C193.25 268.867 193.364 268.98 193.307 268.98Z" fill="#263238"/>
<path d="M277.003 266.78C277.003 266.837 268.673 268.867 258.417 271.236C248.103 273.605 239.773 275.522 239.773 275.41C239.773 275.353 248.047 273.323 258.36 270.954C268.617 268.585 276.947 266.668 277.003 266.78Z" fill="#263238"/>
<path d="M269.977 265.991C269.977 266.104 268.39 266.386 266.69 267.57C265.047 268.698 264.141 270.052 264.027 269.995C263.971 269.995 264.197 269.6 264.594 269.093C264.991 268.585 265.67 267.908 266.52 267.344C267.37 266.78 268.22 266.386 268.9 266.216C269.524 265.991 269.92 265.934 269.977 265.991Z" fill="#263238"/>
<path d="M254.223 218.276L267.597 241.457C269.24 244.333 269.353 247.83 267.88 250.763C266.18 254.203 262.61 256.29 258.757 256.177L238.243 255.613L237.677 248.168L255.753 244.728L243.57 223.747L254.223 218.276Z" fill="#F5C9B2"/>
<path d="M204.413 257.926L223.283 262.889L223.68 257.249L206.283 247.21L218.976 223.747L208.323 218.276L194.95 241.457C191.72 247.435 194.723 254.88 201.24 256.91L204.413 257.926Z" fill="#F5C9B2"/>
<path d="M248.557 233.166L261.477 226.398C261.477 226.398 259.323 221.886 255.923 217.205C251.9 211.734 245.723 207.842 238.697 206.376L223.85 206.545C221.753 206.771 219.997 207.166 218.58 207.73V207.673C210.533 209.422 201.58 226.906 201.58 226.906L213.31 233.053L213.593 234.914C213.933 237.34 215.01 239.596 216.653 241.457L213.253 263.848L251.333 264.637L246.46 248.62L248.557 233.166Z" fill="#F6AC3B"/>
<path d="M216.994 241.626C216.994 241.626 216.767 241.513 216.427 241.175C216.087 240.893 215.634 240.385 215.124 239.708C214.16 238.411 213.31 236.155 213.537 233.617C213.707 232.376 214.047 231.248 214.387 230.233C214.727 229.218 215.067 228.316 215.35 227.582C215.634 226.849 215.917 226.229 216.087 225.834C216.257 225.439 216.37 225.214 216.427 225.214C216.427 225.214 216.37 225.439 216.2 225.89C216.03 226.398 215.804 226.962 215.52 227.695C215.237 228.428 214.897 229.387 214.614 230.402C214.274 231.418 213.934 232.546 213.764 233.73C213.65 234.914 213.82 236.099 214.104 237.114C214.387 238.129 214.84 238.975 215.237 239.652C216.257 241.006 217.05 241.626 216.994 241.626Z" fill="#263238"/>
<path d="M211.327 269.318L209.174 244.333H255.584L252.467 269.6L211.327 269.318Z" fill="#263238"/>
<path d="M235.297 257.643C235.297 259.279 233.993 260.576 232.35 260.576C230.707 260.576 229.403 259.279 229.403 257.643C229.403 256.008 230.707 254.711 232.35 254.711C233.993 254.711 235.297 256.008 235.297 257.643Z" fill="#FAFAFA"/>
<path d="M231.557 274.169L239.433 275.297V283.813L232.18 283.588L231.557 274.169Z" fill="#F5C9B2"/>
<path d="M239.434 275.297H243.004C243.684 275.297 244.364 275.466 244.987 275.804L246.857 276.876C247.48 277.214 249.464 278.23 250.144 278.399C252.297 279.076 255.924 280.034 256.66 280.598C258.814 282.29 258.19 284.264 257 284.434C255.924 284.603 239.49 283.757 239.49 283.757V275.297H239.434Z" fill="#F6AC3B"/>
<path d="M245.27 283.08C245.213 283.08 244.93 282.121 244.873 280.88C244.817 279.64 245.043 278.624 245.1 278.624C245.157 278.624 245.1 279.64 245.157 280.824C245.213 282.065 245.327 283.08 245.27 283.08Z" fill="#263238"/>
<path d="M246.913 283.024C246.856 283.024 246.8 282.121 246.8 280.993C246.8 279.865 246.856 278.963 246.97 278.963C247.026 278.963 247.083 279.865 247.083 280.993C247.083 282.121 247.026 283.024 246.913 283.024Z" fill="#263238"/>
<path d="M248.897 283.362C248.84 283.362 248.67 282.46 248.613 281.275C248.5 280.091 248.5 279.188 248.613 279.188C248.67 279.188 248.84 280.091 248.897 281.275C249.01 282.403 249.01 283.362 248.897 283.362Z" fill="#263238"/>
<path d="M243.683 280.824C243.683 280.824 243.4 280.768 242.947 280.599C242.493 280.429 241.87 280.091 241.19 279.527C241.02 279.358 240.85 279.245 240.68 279.076C240.51 278.906 240.34 278.681 240.227 278.455C240.113 278.173 240.113 277.835 240.34 277.553C240.453 277.44 240.623 277.327 240.793 277.327C240.963 277.327 241.133 277.327 241.247 277.384C242.38 277.778 243.4 278.906 243.57 280.26C243.74 281.67 243.003 282.967 241.983 283.588C241.757 283.757 241.473 283.87 241.19 283.926C241.02 283.926 240.907 283.983 240.737 283.926C240.567 283.87 240.453 283.757 240.397 283.588C240.283 283.306 240.397 282.967 240.51 282.798C240.623 282.573 240.793 282.403 240.963 282.234C241.587 281.614 242.267 281.275 242.72 281.106C243.173 280.937 243.457 280.881 243.457 280.881C243.457 280.881 243.23 280.993 242.777 281.219C242.323 281.445 241.757 281.783 241.133 282.403C240.963 282.573 240.85 282.742 240.737 282.911C240.623 283.08 240.567 283.362 240.68 283.531C240.793 283.701 241.02 283.757 241.247 283.701C241.473 283.644 241.7 283.531 241.927 283.362C242.833 282.742 243.513 281.557 243.343 280.26C243.173 279.019 242.267 277.948 241.247 277.609C241.02 277.496 240.737 277.553 240.623 277.722C240.51 277.891 240.453 278.117 240.567 278.342C240.737 278.737 241.133 279.076 241.417 279.358C242.663 280.486 243.74 280.768 243.683 280.824Z" fill="#263238"/>
<path d="M256.943 284.49C256.943 284.49 257.17 284.377 257.397 283.982C257.623 283.588 257.567 282.911 257.17 282.178C256.773 281.501 255.98 280.88 254.96 280.542C253.94 280.204 252.75 280.034 251.56 279.64C249.123 278.906 247.084 277.891 245.724 276.989C245.044 276.538 244.477 276.143 244.137 275.861C243.797 275.579 243.57 275.41 243.627 275.41C243.627 275.41 243.854 275.522 244.25 275.804C244.647 276.03 245.157 276.425 245.893 276.82C247.31 277.666 249.35 278.681 251.73 279.358C252.92 279.752 254.11 279.922 255.13 280.316C256.15 280.711 257 281.332 257.397 282.121C257.793 282.854 257.793 283.644 257.567 284.039C257.453 284.264 257.283 284.377 257.227 284.434C257 284.434 256.943 284.49 256.943 284.49Z" fill="#263238"/>
<path d="M251.56 212.524C251.56 212.524 251.56 212.58 251.56 212.636C251.56 212.749 251.56 212.862 251.56 212.975C251.504 213.313 251.504 213.764 251.447 214.328C251.334 215.513 251.164 217.261 250.937 219.461V219.574L250.824 219.517C248.954 218.502 246.63 217.318 243.967 215.908L244.137 215.851C243.004 217.769 241.757 219.856 240.397 222.112L240.34 222.224L240.227 222.112C238.244 220.645 236.147 219.01 233.994 217.318H234.164C233.314 217.994 232.35 218.728 231.444 219.461C230.197 220.42 228.95 221.435 227.704 222.337L227.59 222.45L227.534 222.281C226.287 220.025 225.097 217.825 224.02 215.738L224.19 215.795C221.47 216.979 218.92 218.107 216.71 219.122L216.597 219.179V219.01C216.144 216.472 215.804 214.216 215.464 212.354L215.577 212.411C213.764 213.088 212.29 213.652 211.27 214.046C210.76 214.216 210.42 214.385 210.137 214.441C210.024 214.498 209.91 214.498 209.854 214.554C209.797 214.554 209.74 214.61 209.74 214.554C209.74 214.554 209.797 214.554 209.854 214.498C209.91 214.441 210.024 214.441 210.137 214.385C210.42 214.272 210.76 214.103 211.27 213.934C212.29 213.539 213.707 212.975 215.52 212.242L215.634 212.185V212.298C215.974 214.159 216.37 216.359 216.824 218.953L216.654 218.84C218.92 217.825 221.414 216.697 224.134 215.456L224.247 215.4L224.304 215.513C225.437 217.6 226.627 219.743 227.874 221.999L227.647 221.942C228.837 220.984 230.084 220.025 231.387 219.066C232.294 218.333 233.257 217.6 234.107 216.923L234.22 216.866L234.334 216.923C236.544 218.615 238.64 220.194 240.567 221.717L240.34 221.773C241.7 219.517 242.947 217.43 244.08 215.569L244.137 215.456L244.25 215.513C246.857 216.923 249.18 218.164 251.05 219.179L250.937 219.235C251.164 217.036 251.39 215.344 251.56 214.103C251.617 213.539 251.674 213.088 251.73 212.749C251.73 212.58 251.787 212.467 251.787 212.411C251.56 212.58 251.56 212.524 251.56 212.524Z" fill="#F5F5F5"/>
<path d="M257.056 218.84C257.056 218.84 257.056 218.897 257 219.01C256.943 219.122 256.943 219.292 256.886 219.461C256.773 219.912 256.603 220.532 256.376 221.322C255.923 222.958 255.3 225.27 254.506 228.203L254.45 228.316L254.336 228.259C252.07 227.188 249.35 225.89 246.346 224.424L246.516 224.368C244.476 227.244 242.21 230.515 239.773 233.899L239.66 234.012L239.546 233.899C237.506 231.812 235.296 229.613 233.086 227.357C232.633 226.906 232.18 226.454 231.726 226.003H231.896C228.836 227.921 225.946 229.726 223.17 231.418L223.056 231.474L223 231.361C221.3 228.428 219.713 225.608 218.296 223.07L218.466 223.127C215.01 224.311 212.006 225.326 209.513 226.172L209.4 226.229L209.343 226.172C208.493 223.747 207.813 221.773 207.36 220.42C207.133 219.743 206.963 219.235 206.85 218.897C206.793 218.728 206.736 218.615 206.736 218.502C206.736 218.389 206.68 218.389 206.68 218.389C206.68 218.389 206.68 218.446 206.736 218.502C206.793 218.615 206.85 218.728 206.906 218.897C207.02 219.235 207.246 219.743 207.473 220.42C207.983 221.773 208.663 223.691 209.513 226.116L209.4 226.06C211.893 225.214 214.896 224.142 218.353 222.901L218.466 222.845L218.523 222.958C219.996 225.496 221.583 228.259 223.226 231.192L223.056 231.136C225.833 229.387 228.723 227.582 231.783 225.665L231.896 225.608L231.953 225.665C232.406 226.116 232.86 226.567 233.313 227.018C235.523 229.274 237.733 231.474 239.773 233.561H239.546C241.983 230.12 244.25 226.906 246.29 224.029L246.346 223.916L246.46 223.973C249.463 225.439 252.183 226.736 254.45 227.864L254.336 227.921C255.186 225.044 255.81 222.676 256.263 221.096C256.49 220.307 256.66 219.686 256.773 219.292C256.83 219.122 256.886 218.953 256.943 218.84C257.056 218.897 257.056 218.84 257.056 218.84Z" fill="#F5F5F5"/>
<path d="M251.334 179.473C249.067 179.699 246.687 178.966 244.987 177.499C247.027 178.514 249.804 177.104 250.54 174.905C251.277 172.705 250.654 168.644 248.84 167.234C247.14 165.881 244.76 165.317 242.607 165.881C240.454 166.445 238.244 169.66 237.507 171.746L237.564 171.803C237.224 171.69 236.884 171.577 236.6 171.464C234.22 170.675 231.727 170.28 229.29 170.562C226.797 170.844 224.417 171.803 222.604 173.495L236.997 196.562C239.604 196.337 241.927 194.588 243.287 192.332C244.647 190.076 245.157 187.426 245.327 184.831C245.384 184.154 245.384 183.534 245.327 182.857C246.857 183.083 248.444 183.365 249.974 183.59C249.124 182.462 248.104 181.56 246.914 180.827C248.444 181.447 250.427 180.827 251.334 179.473Z" fill="#263238"/>
<path d="M233.144 215.231C237.054 215.174 240.171 212.016 240.227 208.124L240.567 179.473C240.567 178.289 239.717 177.274 238.527 177.161L226.344 174.115C222.434 173.72 219.827 178.458 219.601 182.35C219.317 186.692 219.147 191.994 219.657 195.209C220.677 201.695 225.664 202.541 225.664 202.541C225.664 202.541 225.664 205.079 225.664 208.124C225.777 212.129 229.064 215.344 233.144 215.231Z" fill="#F5C9B2"/>
<path d="M222.15 186.523C222.15 186.975 222.49 187.313 222.944 187.369C223.397 187.369 223.794 187.031 223.794 186.636C223.794 186.185 223.454 185.846 223 185.79C222.547 185.734 222.15 186.072 222.15 186.523Z" fill="#263238"/>
<path d="M220.734 185.057C220.847 185.17 221.471 184.718 222.377 184.718C223.284 184.718 223.964 185.17 224.021 185.057C224.077 185 223.964 184.831 223.681 184.606C223.397 184.38 222.887 184.211 222.377 184.211C221.811 184.211 221.357 184.436 221.074 184.606C220.791 184.831 220.677 185.057 220.734 185.057Z" fill="#263238"/>
<path d="M230.708 186.523C230.708 186.974 231.048 187.313 231.501 187.369C231.955 187.369 232.351 187.031 232.351 186.636C232.351 186.185 232.011 185.846 231.558 185.79C231.105 185.734 230.708 186.072 230.708 186.523Z" fill="#263238"/>
<path d="M229.574 185.226C229.688 185.339 230.311 184.888 231.218 184.888C232.124 184.888 232.804 185.339 232.861 185.226C232.918 185.17 232.804 185 232.521 184.775C232.238 184.549 231.728 184.38 231.218 184.38C230.651 184.38 230.198 184.606 229.914 184.775C229.631 185 229.574 185.226 229.574 185.226Z" fill="#263238"/>
<path d="M226.344 191.881C226.344 191.825 225.777 191.712 224.871 191.599C224.644 191.599 224.417 191.543 224.361 191.374C224.304 191.204 224.417 190.979 224.531 190.697C224.757 190.133 224.984 189.569 225.211 188.948C226.174 186.467 226.854 184.436 226.741 184.38C226.627 184.324 225.777 186.298 224.871 188.779C224.644 189.4 224.417 189.964 224.247 190.528C224.134 190.81 224.021 191.092 224.134 191.43C224.191 191.599 224.361 191.712 224.531 191.768C224.701 191.825 224.814 191.825 224.927 191.825C225.777 191.938 226.344 191.938 226.344 191.881Z" fill="#263238"/>
<path d="M225.721 202.484C225.721 202.484 230.084 202.766 234.447 200.172C234.447 200.172 232.351 204.628 225.777 204.007L225.721 202.484Z" fill="#EB996E"/>
<path d="M226.74 194.024C227.08 193.573 227.647 193.348 228.214 193.404C228.61 193.46 229.007 193.63 229.234 193.968C229.46 194.306 229.517 194.758 229.29 195.04C229.064 195.378 228.554 195.434 228.1 195.322C227.647 195.209 227.307 194.927 226.967 194.645C226.854 194.588 226.797 194.476 226.684 194.363C226.627 194.306 226.627 194.194 226.74 194.024Z" fill="#EB996E"/>
<path d="M229.007 192.502C228.837 192.502 228.837 193.46 228.044 194.137C227.194 194.814 226.174 194.701 226.174 194.87C226.174 194.927 226.4 195.04 226.854 195.096C227.307 195.096 227.931 194.983 228.441 194.532C228.951 194.081 229.177 193.517 229.177 193.122C229.177 192.727 229.064 192.502 229.007 192.502Z" fill="#263238"/>
<path d="M229.177 183.703C229.29 183.929 230.14 183.816 231.217 183.985C232.293 184.098 233.143 184.38 233.257 184.154C233.313 184.042 233.143 183.816 232.803 183.59C232.463 183.365 231.897 183.139 231.273 183.083C230.65 183.026 230.083 183.139 229.687 183.252C229.347 183.365 229.177 183.59 229.177 183.703Z" fill="#263238"/>
<path d="M220.904 183.421C221.074 183.647 221.697 183.421 222.434 183.421C223.17 183.365 223.794 183.534 223.964 183.365C224.02 183.252 223.907 183.083 223.624 182.857C223.34 182.688 222.887 182.519 222.377 182.519C221.867 182.519 221.414 182.744 221.187 182.914C220.904 183.139 220.79 183.308 220.904 183.421Z" fill="#263238"/>
<path d="M239.83 187.538C240.34 187.2 241.02 187.313 241.53 187.651C242.72 188.328 243.344 189.907 242.89 191.204C242.437 192.502 241.02 193.404 239.66 193.235" fill="#F5C9B2"/>
<path d="M240.284 191.261C240.284 191.204 240.511 191.317 240.851 191.148C241.134 191.035 241.418 190.584 241.418 190.02C241.418 189.456 241.078 189.118 240.738 189.005C240.398 188.892 240.171 188.948 240.171 188.892C240.171 188.836 240.398 188.666 240.851 188.779C241.078 188.836 241.304 188.948 241.474 189.174C241.644 189.4 241.758 189.682 241.814 190.02C241.871 190.697 241.474 191.261 241.021 191.374C240.511 191.486 240.284 191.261 240.284 191.261Z" fill="#EB996E"/>
<path d="M242.097 192.558C242.097 192.558 242.21 192.614 242.38 192.784C242.607 192.953 242.89 193.178 243.174 193.46C243.91 194.081 244.874 194.87 246.007 195.829L246.12 195.886L246.064 195.998C245.044 197.239 243.854 198.818 242.55 200.454C242.267 200.849 241.984 201.187 241.644 201.526L241.417 201.808V201.413C241.304 198.762 241.19 196.45 241.134 194.758C241.134 193.968 241.077 193.291 241.077 192.784C241.077 192.332 241.077 192.05 241.077 192.05C241.077 192.05 241.134 192.276 241.19 192.784C241.247 193.291 241.247 193.968 241.304 194.758C241.417 196.45 241.53 198.762 241.644 201.413L241.36 201.3C241.644 200.962 241.927 200.623 242.21 200.228C243.514 198.593 244.704 197.014 245.78 195.773V195.942C244.647 194.927 243.74 194.137 243.06 193.46C242.777 193.178 242.494 192.953 242.324 192.784C242.154 192.671 242.04 192.558 242.097 192.558Z" fill="#455A64"/>
<path d="M228.894 171.239C227.307 171.295 225.664 171.352 224.134 171.746C222.604 172.141 221.074 172.874 219.997 174.059C218.92 175.243 218.41 176.935 218.864 178.458C219.317 179.981 220.904 181.165 222.49 180.94C223.68 180.77 224.87 179.868 226.004 180.263C227.08 180.601 227.704 181.898 228.837 182.124C229.97 182.35 230.934 181.334 232.067 181.222C233.314 181.109 234.39 182.124 234.957 183.252C235.524 184.38 235.694 185.621 236.26 186.749C236.6 187.482 237.167 188.159 237.96 188.328C238.697 188.497 239.434 188.215 240 187.764C240.567 187.313 240.907 186.636 241.19 185.959C242.38 183.083 242.097 179.699 240.51 176.992C238.924 174.341 236.034 172.48 232.974 172.141" fill="#263238"/>
<path d="M244.761 178.12C244.704 178.12 244.534 177.612 244.138 176.822C243.741 176.033 243.061 175.018 242.041 174.115C241.021 173.213 239.944 172.649 239.094 172.31C238.244 171.972 237.734 171.916 237.734 171.859C237.734 171.859 237.904 171.859 238.131 171.859C238.358 171.859 238.754 171.972 239.208 172.085C240.058 172.367 241.248 172.931 242.268 173.89C243.288 174.848 244.024 175.92 244.364 176.766C244.534 177.161 244.648 177.556 244.704 177.781C244.761 178.007 244.818 178.12 244.761 178.12Z" fill="#E8505B"/>
<path d="M249.747 168.644C249.747 168.701 249.181 168.362 248.161 168.137C247.197 167.968 245.724 168.024 244.364 168.701C243.004 169.378 241.984 170.449 241.417 171.239C240.794 172.028 240.511 172.649 240.511 172.592C240.511 172.592 240.567 172.423 240.681 172.198C240.794 171.916 241.021 171.577 241.304 171.126C241.871 170.28 242.834 169.152 244.307 168.419C245.781 167.686 247.311 167.629 248.331 167.911C248.841 168.024 249.237 168.193 249.464 168.362C249.634 168.475 249.747 168.588 249.747 168.644Z" fill="#455A64"/>
<path d="M243.514 176.258C243.571 176.258 243.627 176.766 243.514 177.612C243.457 178.458 243.174 179.586 242.721 180.714C242.211 181.898 241.531 182.801 241.021 183.421C240.454 184.042 240.057 184.38 240.057 184.324C240.001 184.267 241.531 182.857 242.494 180.545C243.401 178.289 243.401 176.258 243.514 176.258Z" fill="#455A64"/>
<path d="M243.684 176.371C243.684 176.371 243.741 176.484 243.854 176.766C243.968 176.992 244.024 177.386 244.138 177.838C244.308 178.74 244.308 180.094 243.968 181.447C243.628 182.857 242.948 183.985 242.381 184.718C242.098 185.113 241.814 185.339 241.644 185.564C241.474 185.734 241.361 185.846 241.304 185.79C241.248 185.734 241.644 185.339 242.211 184.606C242.721 183.872 243.344 182.744 243.684 181.391C244.024 180.037 244.024 178.796 243.968 177.894C243.798 176.935 243.628 176.371 243.684 176.371Z" fill="#455A64"/>
<path d="M260.854 177.838C259.21 178.345 258.474 180.714 259.55 182.011C260.627 183.365 263.064 183.196 263.97 181.673C264.82 180.206 263.8 178.007 262.1 177.725" fill="#EBEBEB"/>
<path d="M268.504 166.783C266.634 167.403 265.784 170.054 267.03 171.577C268.277 173.1 271.054 172.931 272.074 171.182C273.094 169.49 271.847 166.952 269.92 166.614" fill="#EBEBEB"/>
<path d="M284.881 117.941C279.781 117.489 274.567 118.674 271.054 122.396C267.541 126.119 265.841 131.533 266.634 136.553C261.194 138.809 258.191 145.689 260.344 151.217C262.441 156.687 269.297 159.846 274.907 157.872C277.401 164.189 283.407 168.983 290.151 170.054C296.894 171.126 304.091 168.419 308.454 163.173C313.781 164.358 319.787 164.301 324.321 161.143C328.797 158.041 330.837 151.16 327.437 146.874C333.614 145.407 336.731 137.737 334.917 131.702C333.104 125.667 327.607 121.325 321.771 118.843C317.917 117.207 313.101 116.361 309.814 118.956C307.151 114.895 302.504 112.244 297.687 112.075C292.701 111.906 287.827 114.162 284.881 117.941Z" fill="#F5F5F5"/>
<path d="M284.88 117.941C284.88 117.941 284.994 117.828 285.164 117.546C285.39 117.264 285.674 116.926 286.184 116.474C287.09 115.572 288.62 114.331 290.944 113.316C292.077 112.808 293.437 112.414 294.967 112.188C296.497 111.962 298.14 111.962 299.897 112.357C301.654 112.696 303.467 113.429 305.224 114.5C306.924 115.572 308.567 117.095 309.814 119.012H309.644C310.947 117.997 312.704 117.377 314.517 117.377C316.33 117.32 318.144 117.659 319.957 118.223C321.77 118.843 323.584 119.633 325.284 120.648C327.04 121.663 328.74 122.904 330.27 124.37C331.8 125.837 333.16 127.585 334.124 129.616C334.577 130.631 334.974 131.702 335.2 132.83C335.427 133.958 335.54 135.086 335.427 136.271C335.257 138.583 334.577 140.896 333.217 142.926C332.537 143.885 331.744 144.844 330.724 145.577C329.704 146.31 328.57 146.874 327.38 147.156L327.437 146.93C328.174 147.889 328.684 148.961 328.967 150.145C329.25 151.33 329.25 152.57 329.08 153.755C328.684 156.18 327.494 158.492 325.68 160.241C323.867 162.046 321.43 163.117 318.937 163.681C316.387 164.245 313.78 164.245 311.174 163.907C310.21 163.794 309.304 163.625 308.397 163.399L308.567 163.343C303.864 168.983 296.157 171.464 289.414 170.111C286.014 169.434 282.954 167.855 280.404 165.712C277.91 163.568 275.927 160.918 274.794 157.985L274.964 158.041C271.734 159.169 268.22 158.605 265.444 157.026C262.667 155.503 260.571 152.909 259.891 150.032C259.211 147.156 259.777 144.167 261.024 141.742C262.327 139.316 264.311 137.455 266.634 136.496L266.577 136.609C266.237 134.24 266.407 131.984 266.917 129.898C267.427 127.811 268.334 126.006 269.354 124.427C269.864 123.637 270.487 122.96 271.054 122.284C271.677 121.663 272.301 121.099 272.924 120.648C274.227 119.689 275.587 119.125 276.834 118.674C279.327 117.884 281.424 117.772 282.784 117.772C284.144 117.828 284.88 117.941 284.88 117.941C284.88 117.941 284.71 117.941 284.37 117.941C284.03 117.941 283.52 117.884 282.784 117.884C281.424 117.884 279.327 117.997 276.89 118.843C275.644 119.238 274.284 119.858 273.037 120.817C272.357 121.268 271.79 121.832 271.167 122.453C270.6 123.073 270.034 123.75 269.524 124.54C268.504 126.062 267.654 127.924 267.144 129.954C266.634 131.984 266.464 134.24 266.804 136.553V136.609L266.747 136.666C264.481 137.624 262.497 139.429 261.251 141.854C260.004 144.223 259.437 147.156 260.117 149.976C260.797 152.796 262.837 155.334 265.557 156.857C268.277 158.38 271.734 158.887 274.85 157.816L274.964 157.759L275.02 157.872C276.154 160.748 278.08 163.399 280.574 165.486C283.067 167.573 286.127 169.152 289.414 169.829C296.044 171.182 303.637 168.701 308.284 163.174L308.34 163.117H308.454C309.36 163.286 310.267 163.512 311.23 163.625C313.78 163.963 316.387 163.963 318.88 163.399C321.374 162.835 323.697 161.764 325.51 160.072C327.267 158.323 328.457 156.067 328.797 153.755C329.194 151.386 328.684 148.961 327.267 147.156L327.154 146.987L327.38 146.93C328.57 146.648 329.647 146.084 330.61 145.408C331.574 144.731 332.367 143.772 333.047 142.813C334.35 140.839 335.087 138.583 335.2 136.327C335.314 135.199 335.2 134.071 334.974 132.943C334.747 131.872 334.35 130.8 333.897 129.785C332.934 127.811 331.63 126.062 330.1 124.596C328.627 123.13 326.927 121.889 325.17 120.874C323.47 119.858 321.657 119.012 319.844 118.448C318.03 117.828 316.217 117.546 314.46 117.602C312.704 117.659 311.004 118.223 309.7 119.182L309.587 119.238L309.53 119.125C308.284 117.264 306.697 115.798 304.997 114.67C303.297 113.598 301.484 112.865 299.784 112.526C298.027 112.132 296.384 112.188 294.854 112.357C293.324 112.583 292.02 112.978 290.887 113.429C288.62 114.388 287.09 115.628 286.127 116.531C285.674 116.982 285.334 117.32 285.107 117.602C284.994 117.828 284.88 117.941 284.88 117.941Z" fill="#263238"/>
<path d="M319.9 135.538C319.9 135.763 309.871 135.989 297.461 135.989C285.051 135.989 275.021 135.82 275.021 135.538C275.021 135.312 285.051 135.086 297.461 135.086C309.871 135.086 319.9 135.256 319.9 135.538Z" fill="#455A64"/>
<path d="M319.9 140.388C319.9 140.614 309.871 140.839 297.461 140.839C285.051 140.839 275.021 140.67 275.021 140.388C275.021 140.162 285.051 139.937 297.461 139.937C309.871 139.937 319.9 140.106 319.9 140.388Z" fill="#455A64"/>
<path d="M319.9 145.182C319.9 145.408 309.871 145.633 297.461 145.633C285.051 145.633 275.021 145.464 275.021 145.182C275.021 144.956 285.051 144.731 297.461 144.731C309.871 144.787 319.9 144.956 319.9 145.182Z" fill="#455A64"/>
<path d="M319.9 150.032C319.9 150.258 309.871 150.484 297.461 150.484C285.051 150.484 275.021 150.314 275.021 150.032C275.021 149.807 285.051 149.581 297.461 149.581C309.871 149.638 319.9 149.807 319.9 150.032Z" fill="#455A64"/>
</svg>
