<svg width="553" height="360" viewBox="0 0 553 360" fill="none" xmlns="http://www.w3.org/2000/svg">
<g clip-path="url(#clip0)">
<path d="M540.224 323.979H13.978V324.294H540.224V323.979Z" fill="#EBEBEB"/>
<path d="M472.548 340.903H452.656V341.219H472.548V340.903Z" fill="#EBEBEB"/>
<path d="M353.512 339.116H322.463V339.431H353.512V339.116Z" fill="#EBEBEB"/>
<path d="M451.604 331.127H402.032V331.442H451.604V331.127Z" fill="#EBEBEB"/>
<path d="M80.8113 332.914H69.2339V333.229H80.8113V332.914Z" fill="#EBEBEB"/>
<path d="M130.699 332.914H90.0732V333.229H130.699V332.914Z" fill="#EBEBEB"/>
<path d="M250.894 337.329H193.954V337.645H250.894V337.329Z" fill="#EBEBEB"/>
<path d="M263.418 277.095H60.1823C56.9196 277.095 54.1831 274.362 54.1831 271.104V-14.1922C54.1831 -17.4509 56.9196 -20.184 60.1823 -20.184H263.418C266.681 -20.184 269.418 -17.4509 269.418 -14.1922V271.104C269.418 274.362 266.786 277.095 263.418 277.095ZM60.1823 -19.9738C57.0248 -19.9738 54.3936 -17.4509 54.3936 -14.1922V271.104C54.3936 274.257 56.9196 276.885 60.1823 276.885H263.418C266.576 276.885 269.207 274.362 269.207 271.104V-14.1922C269.207 -17.3458 266.681 -19.9738 263.418 -19.9738H60.1823Z" fill="#EBEBEB"/>
<path d="M491.072 277.095H287.836C284.573 277.095 281.837 274.362 281.837 271.104V-14.1922C281.837 -17.4509 284.573 -20.184 287.836 -20.184H491.072C494.335 -20.184 497.071 -17.4509 497.071 -14.1922V271.104C497.071 274.362 494.44 277.095 491.072 277.095ZM287.836 -19.9738C284.679 -19.9738 282.047 -17.4509 282.047 -14.1922V271.104C282.047 274.257 284.573 276.885 287.836 276.885H491.072C494.23 276.885 496.861 274.362 496.861 271.104V-14.1922C496.861 -17.3458 494.335 -19.9738 491.072 -19.9738H287.836Z" fill="#EBEBEB"/>
<path d="M80.0491 202.34H158.565L158.565 6.39664H80.0491L80.0491 202.34Z" fill="#5CDBF5"/>
<path d="M68.6712 202.34H156.554L156.554 6.39662H68.6712L68.6712 202.34Z" fill="#79A2FD"/>
<path d="M147.514 193.22L147.514 15.3571L77.7335 15.3571L77.7335 193.22H147.514Z" fill="#5CDBF5"/>
<path d="M176.454 202.34H254.97L254.97 6.39662H176.454L176.454 202.34Z" fill="#5CDBF5"/>
<path d="M165.076 202.34H252.959L252.959 6.39662H165.076L165.076 202.34Z" fill="#79A2FD"/>
<path d="M243.868 193.274L243.868 15.4113L174.087 15.4113L174.087 193.274H243.868Z" fill="#5CDBF5"/>
<path d="M308.675 246.926H244.368V323.979H308.675V246.926Z" fill="#E0E0E0"/>
<path d="M308.78 246.926H244.368L229.949 232.209H294.256L308.78 246.926Z" fill="#E0E0E0"/>
<path d="M206.794 232.209H142.381L130.278 246.926H194.585L206.794 232.209Z" fill="#4DCCE6"/>
<path d="M130.199 324.021H244.395V246.968H130.199V324.021Z" fill="#5CDBF5"/>
<path d="M236.084 303.417H244.399V267.571H236.084V303.417Z" fill="#F0F0F0"/>
<path d="M169.05 260.152V291.373H200.309V260.152H169.05Z" fill="#F0F0F0"/>
<path d="M130.362 260.196V291.417H161.621V260.196H130.362Z" fill="#F0F0F0"/>
<path d="M169.062 293.358V295.881H200.321V293.358H169.062Z" fill="#F0F0F0"/>
<path d="M130.375 293.402V295.925H161.634V293.402H130.375Z" fill="#F0F0F0"/>
<path d="M169.077 300.807V303.33H200.336V300.807H169.077Z" fill="#F0F0F0"/>
<path d="M130.389 300.852V303.374H161.648V300.852H130.389Z" fill="#F0F0F0"/>
<path d="M169.09 308.257V310.78H200.349V308.257H169.09Z" fill="#F0F0F0"/>
<path d="M130.403 308.301V310.824H161.662V308.301H130.403Z" fill="#F0F0F0"/>
<path d="M262.892 267.529H244.368V303.375H262.892V267.529Z" fill="#E6E6E6"/>
<path d="M333.101 323.944H364.044V150.811H333.101V323.944Z" fill="#67AEC1"/>
<path d="M341.408 323.979H333.093V294.02H350.038L341.408 323.979Z" fill="#F5F5F5"/>
<path d="M421.706 323.944H452.649V150.811H421.706V323.944Z" fill="#4DCCE5"/>
<path d="M333.178 313.641H428.955V150.81H333.178V313.641Z" fill="#67AEC1"/>
<path d="M420.661 323.979H428.975V294.02H412.03L420.661 323.979Z" fill="#67AEC1"/>
<path d="M339.492 306.928H422.534V235.761H339.492V306.928Z" fill="#55CAF0"/>
<path d="M365.943 306.928H422.567V235.761H365.943V306.928Z" fill="#55CAF0"/>
<path d="M339.492 229.524H422.534V158.358H339.492V229.524Z" fill="#F0F0F0"/>
<path d="M365.943 229.524H422.567V158.358H365.943V229.524Z" fill="#55CAF0"/>
<path d="M394.243 212.762C394.243 221.907 386.455 229.476 376.877 229.476H368.246C358.669 229.476 350.88 222.012 350.88 212.762H394.243Z" fill="#64AEC2"/>
<path d="M394.243 201.094C394.243 210.239 386.455 217.808 376.877 217.808H368.246C358.669 217.808 350.88 210.344 350.88 201.094H394.243Z" fill="#4FA7BE"/>
<path d="M385.507 258.699H411.083C411.083 258.699 406.662 269.422 406.662 275.729C406.662 282.036 426.133 306.844 398.348 306.844C370.562 306.844 390.033 282.036 390.033 275.729C389.928 269.527 385.507 258.699 385.507 258.699Z" fill="#4FA7BE"/>
<path d="M394.243 189.425C394.243 198.571 386.455 206.139 376.877 206.139H368.246C358.669 206.139 350.88 198.676 350.88 189.425H394.243Z" fill="#67AEC1"/>
<path d="M386.56 138.232C385.613 110.795 384.56 60.6532 386.665 46.8825L390.138 44.2545C390.138 44.2545 389.402 69.3782 388.981 111.321C388.56 153.264 388.139 132.03 388.56 138.232H386.56Z" fill="#396DAB"/>
<path d="M378.666 65.4888C370.667 59.7072 353.722 55.6075 336.251 55.6075C329.41 55.6075 356.774 62.3352 367.825 69.7987C376.456 75.5803 385.928 85.2513 388.98 90.6124C387.402 79.2595 386.665 71.2704 378.666 65.4888Z" fill="#74C1C7"/>
<path d="M394.769 80.5209C402.136 74.5291 418.555 69.9038 436.027 69.3782C442.868 69.1679 416.345 76.7366 406.136 84.5155C398.137 90.5073 389.822 100.494 387.296 105.96C387.507 94.607 387.402 86.5127 394.769 80.5209Z" fill="#4F8CB5"/>
<path d="M387.928 150.846C381.192 150.846 375.614 145.59 375.193 138.863L374.035 129.612H401.716L400.558 138.863C400.242 145.59 394.664 150.846 387.928 150.846Z" fill="#6F7B88"/>
<path d="M403.505 134.027H372.246L371.404 125.933H404.452L403.505 134.027Z" fill="#6F7B88"/>
<path d="M277.101 371.388C389.81 371.388 481.179 366.07 481.179 359.509C481.179 352.949 389.81 347.631 277.101 347.631C164.391 347.631 73.0225 352.949 73.0225 359.509C73.0225 366.07 164.391 371.388 277.101 371.388Z" fill="#5CDBF5"/>
<path d="M386.876 340.273L379.298 341.849L374.141 324.61L381.719 323.033L386.876 340.273Z" fill="#F5C9B2"/>
<path d="M378.876 341.008L387.191 339.221C387.507 339.116 387.822 339.326 387.928 339.642L390.875 346.054C391.19 346.685 390.769 347.526 390.033 347.631C387.086 348.156 382.665 348.892 378.981 349.733C374.561 350.679 374.035 351.625 368.772 352.256C365.615 352.677 364.352 349.628 365.615 349.102C371.404 347 372.772 346.159 377.192 341.954C377.613 341.534 378.14 341.218 378.876 341.008Z" fill="#0F264C"/>
<path opacity="0.2" d="M374.141 324.61L376.877 333.545L384.35 331.968L381.718 323.033L374.141 324.61Z" fill="black"/>
<path d="M332.041 94.1866C330.462 99.3374 328.778 104.278 326.989 109.324C325.094 114.264 323.2 119.31 320.779 124.251L319.832 126.143L318.779 128.035C318.464 128.666 318.043 129.297 317.727 129.927C317.411 130.558 316.99 131.189 316.569 131.714C314.99 134.132 313.201 136.34 311.307 138.442C309.412 140.544 307.412 142.542 305.307 144.329C304.255 145.275 303.097 146.116 301.939 146.852C300.782 147.693 299.729 148.428 298.361 149.164L294.677 144.224C295.414 143.383 296.256 142.437 297.098 141.491C297.94 140.544 298.677 139.493 299.413 138.547C300.887 136.55 302.36 134.553 303.623 132.45C304.886 130.348 306.149 128.351 307.202 126.143C307.728 125.092 308.254 124.041 308.675 122.884L309.412 121.202L310.044 119.52C311.833 114.895 313.517 109.955 315.096 105.014L320.042 90.2971L332.041 94.1866Z" fill="#F5C9B2"/>
<path d="M337.619 85.882C340.25 92.925 326.147 118.154 326.147 118.154L310.254 105.855C310.254 105.855 314.674 94.8172 320.147 86.723C325.62 78.4185 334.672 78.1031 337.619 85.882Z" fill="#F6AC3B"/>
<path opacity="0.2" d="M334.461 92.9251C329.41 95.0275 322.568 103.122 320.463 113.844L326.042 118.154C326.042 118.154 334.461 103.227 337.093 93.1353C336.356 92.6097 335.514 92.3995 334.461 92.9251Z" fill="black"/>
<path d="M328.147 80.5209C328.147 80.5209 318.78 98.1811 327.726 142.647C340.461 142.647 363.826 142.647 370.036 142.647C370.352 136.129 366.247 110.69 372.562 80.2056C372.562 80.2056 365.3 78.7339 358.353 78.4185C352.986 78.2083 345.092 77.9981 340.356 78.4185C334.146 78.839 328.147 80.5209 328.147 80.5209Z" fill="#F6AC3B"/>
<path d="M281.1 149.69L285.415 153.579L291.835 151.897L287.415 144.224L281.1 149.69Z" fill="#F5C9B2"/>
<path d="M296.782 144.644L287.415 144.224L291.73 151.897C291.73 151.897 298.677 152.633 299.308 147.482L296.782 144.644Z" fill="#F0B89A"/>
<path d="M356.563 58.0253C355.406 63.8069 354.248 74.424 358.353 78.2083C358.353 78.2083 356.563 82.0977 345.828 82.0977C336.04 82.0977 340.46 78.2083 340.46 78.2083C346.881 76.6315 346.775 71.9011 345.618 67.381L356.563 58.0253Z" fill="#F5C9B2"/>
<path opacity="0.2" d="M352.038 61.9147L345.513 67.486C345.828 68.5372 346.039 69.5884 346.039 70.6396C347.618 73.0574 351.933 69.4833 352.67 65.699C352.985 64.4375 352.249 62.5454 352.038 61.9147Z" fill="black"/>
<path d="M330.567 45.3057C328.357 48.8798 333.199 58.9713 338.672 58.0252C344.144 57.1842 334.672 38.4729 330.567 45.3057Z" fill="#445465"/>
<path d="M353.932 48.9849C355.09 56.7638 356.143 61.1789 353.091 66.0144C348.565 73.1625 338.356 71.6909 334.882 64.4376C331.83 57.9201 330.462 46.3569 337.303 41.7317C344.039 37.0013 352.775 41.2061 353.932 48.9849Z" fill="#F5C9B2"/>
<path d="M354.564 38.7883L347.828 43.6238C351.828 48.4593 347.302 58.9713 353.617 56.5536C356.669 55.3972 364.142 44.0443 354.564 38.7883Z" fill="#445465"/>
<path d="M346.565 32.7964C336.356 35.2142 335.514 32.2708 336.145 28.4865C328.567 29.748 322.884 35.7398 327.304 42.9931C332.251 50.9822 347.196 44.4648 349.828 44.4648L353.617 43.5187C362.247 40.9958 359.3 29.7479 346.565 32.7964Z" fill="#445465"/>
<path d="M355.617 52.9794C355.617 52.9794 355.617 53.0846 355.617 52.9794C353.617 52.9794 347.723 52.9794 347.618 52.9794C347.512 52.9794 347.407 52.8743 347.407 52.7692C347.407 52.6641 347.512 52.559 347.618 52.559C347.723 52.559 353.617 52.559 355.617 52.559C355.722 52.559 355.827 52.6641 355.827 52.7692C355.722 52.9794 355.722 52.9794 355.617 52.9794Z" fill="#263238"/>
<path d="M359.195 56.6587C358.458 58.656 356.879 60.1276 355.3 60.8635C352.88 61.9147 351.301 59.9174 351.617 57.4996C351.933 55.2921 353.511 52.0334 356.037 52.0334C358.668 51.9283 360.037 54.4512 359.195 56.6587Z" fill="#F5C9B2"/>
<path d="M344.249 349.944H336.461L336.25 332.073H343.934L344.249 349.944Z" fill="#F5C9B2"/>
<path d="M336.146 349.103H344.565C344.881 349.103 345.197 349.313 345.197 349.628L346.776 356.461C346.986 357.197 346.355 357.828 345.618 357.828C342.566 357.828 338.145 357.617 334.356 357.617C329.831 357.617 326.042 357.828 320.779 357.828C317.622 357.828 316.674 354.674 318.043 354.359C324.042 352.992 328.989 352.887 334.251 349.628C334.883 349.313 335.514 349.103 336.146 349.103Z" fill="#0F264C"/>
<path opacity="0.2" d="M336.25 332.073L336.356 341.324H344.144L343.934 332.073H336.25Z" fill="black"/>
<path d="M332.988 350.259C332.356 350.364 331.83 350.364 331.409 350.049C331.093 349.838 330.883 349.523 330.883 349.103C330.883 348.787 330.988 348.577 331.093 348.577C331.83 348.051 334.672 349.103 334.987 349.313C335.093 349.313 335.093 349.418 335.093 349.523C335.093 349.628 335.093 349.628 334.987 349.733C334.461 349.838 333.725 350.154 332.988 350.259ZM331.62 348.787C331.514 348.787 331.409 348.787 331.409 348.892C331.409 348.892 331.304 348.997 331.304 349.103C331.304 349.418 331.409 349.628 331.62 349.733C332.146 350.049 333.093 349.943 334.461 349.418C333.409 349.103 332.146 348.787 331.62 348.787Z" fill="#407BFF"/>
<path d="M334.988 349.628C334.883 349.733 334.883 349.733 334.988 349.628C334.041 349.313 332.146 347.841 332.251 347C332.251 346.79 332.357 346.58 332.778 346.474C333.093 346.369 333.304 346.474 333.62 346.58C334.672 347.21 335.198 349.418 335.198 349.523C335.093 349.523 335.093 349.628 334.988 349.628ZM332.883 346.79C332.883 346.79 332.778 346.79 332.883 346.79C332.567 346.895 332.567 347 332.567 347C332.567 347.526 333.725 348.682 334.672 349.102C334.462 348.472 334.041 347.21 333.409 346.79C333.199 346.79 332.988 346.79 332.883 346.79Z" fill="#407BFF"/>
<path d="M327.725 142.542C327.725 142.542 322.042 214.969 320.989 239.042C319.832 264.06 333.83 339.011 333.83 339.011H346.46C346.46 339.011 342.355 269.527 344.46 244.929C346.775 218.228 355.511 142.437 355.511 142.437H327.725V142.542Z" fill="#6F7B88"/>
<path opacity="0.2" d="M340.461 199.517C341.513 211.606 344.67 223.169 346.144 228.32C348.038 209.293 350.88 183.749 352.985 165.458C348.144 168.717 338.461 177.862 340.461 199.517Z" fill="black"/>
<path d="M342.355 142.542C342.355 142.542 345.618 214.759 350.564 237.36C355.932 262.168 372.035 332.283 372.035 332.283L386.244 329.34C386.244 329.34 376.666 262.904 373.614 238.306C370.246 211.711 369.72 142.542 369.72 142.542H342.355Z" fill="#6F7B88"/>
<path d="M387.191 329.445L371.93 332.599L369.404 327.132L386.139 323.138L387.191 329.445Z" fill="#0F264C"/>
<path d="M348.881 339.431H333.304L331.936 333.545L349.091 333.86L348.881 339.431Z" fill="#0F264C"/>
<path d="M343.303 53.5051C343.408 54.1358 343.197 54.6614 342.776 54.7666C342.355 54.8717 341.934 54.4512 341.829 53.8205C341.724 53.1897 341.934 52.6641 342.355 52.559C342.671 52.4539 343.092 52.8744 343.303 53.5051Z" fill="#263238"/>
<path d="M336.145 54.9768C336.251 55.6075 336.04 56.1331 335.619 56.2382C335.198 56.3433 334.777 55.9228 334.672 55.2921C334.567 54.6614 334.777 54.1358 335.198 54.0307C335.619 53.9256 336.04 54.346 336.145 54.9768Z" fill="#263238"/>
<path d="M338.04 54.8716C338.04 54.8716 337.408 58.7611 336.146 60.8635C337.514 61.7044 339.198 60.7583 339.198 60.7583L338.04 54.8716Z" fill="#F0B89A"/>
<path d="M340.776 63.2812C340.671 63.2812 340.566 63.2812 340.566 63.1761C340.566 63.071 340.566 62.9659 340.671 62.9659C343.408 62.5454 344.355 60.3379 344.355 60.3379C344.355 60.2327 344.46 60.2327 344.565 60.2327C344.671 60.2327 344.671 60.3378 344.671 60.443C344.776 60.443 343.723 62.7556 340.776 63.2812Z" fill="#263238"/>
<path d="M346.565 47.9337C346.46 47.9337 346.354 47.9337 346.249 47.8286C344.881 46.8825 343.618 47.303 343.618 47.303C343.407 47.4081 343.197 47.303 343.092 47.0928C342.986 46.8825 343.092 46.6723 343.302 46.5672C343.407 46.5672 344.986 45.9364 346.67 47.1979C346.881 47.303 346.881 47.5133 346.775 47.7235C346.67 47.9337 346.67 47.9337 346.565 47.9337Z" fill="#263238"/>
<path d="M331.935 50.2464C331.83 50.2464 331.83 50.2464 331.725 50.1413C331.514 50.0361 331.514 49.8259 331.619 49.6157C332.777 47.8286 334.461 47.8286 334.566 47.8286C334.777 47.8286 334.987 48.0389 334.987 48.2491C334.987 48.4593 334.777 48.6696 334.566 48.6696C334.461 48.6696 333.198 48.6696 332.251 50.1413C332.251 50.2464 332.04 50.3515 331.935 50.2464Z" fill="#263238"/>
<path d="M366.247 78.6288L364.247 78.4185C364.037 78.4185 363.826 78.5236 363.826 78.7339C358.248 108.588 361.405 140.229 361.405 140.229H363.616C361.826 107.432 366.036 82.5182 366.668 79.0492C366.668 78.839 366.457 78.6288 366.247 78.6288Z" fill="#6F7B88"/>
<path d="M363.931 140.229C363.931 139.809 363.615 139.493 363.194 139.493H361.721C361.3 139.493 360.984 139.809 360.984 140.229C360.984 140.544 361.194 140.86 361.51 140.86V142.752C361.51 143.278 361.931 143.698 362.457 143.698C362.984 143.698 363.405 143.278 363.405 142.752V140.86C363.72 140.86 363.931 140.65 363.931 140.229Z" fill="white"/>
<path d="M332.777 79.0493L330.777 79.4697C330.567 79.4697 330.462 79.68 330.462 79.7851C326.252 109.639 330.883 140.334 330.883 140.334H333.093C329.83 107.852 332.672 83.3592 333.198 79.5749C333.198 79.2595 332.988 79.0493 332.777 79.0493Z" fill="#6F7B88"/>
<path d="M333.409 140.229C333.409 139.809 333.093 139.493 332.672 139.493H331.093C330.672 139.493 330.357 139.809 330.462 140.229C330.462 140.544 330.672 140.86 330.988 140.86L331.093 142.752C331.093 143.278 331.514 143.698 332.041 143.698C332.567 143.698 332.988 143.278 332.883 142.752L332.777 140.86C333.198 140.86 333.409 140.65 333.409 140.229Z" fill="white"/>
<path d="M375.929 342.9C375.403 343.111 374.772 343.216 374.351 343.111C374.035 343.006 373.719 342.69 373.614 342.375C373.509 342.059 373.614 341.849 373.719 341.744C374.351 341.008 377.298 341.534 377.613 341.639C377.719 341.639 377.719 341.744 377.719 341.744C377.719 341.849 377.719 341.849 377.613 341.954C377.298 342.165 376.666 342.585 375.929 342.9ZM374.245 341.744C374.14 341.744 374.035 341.849 374.035 341.849C374.035 341.849 373.93 341.954 374.035 342.059C374.14 342.375 374.245 342.48 374.561 342.585C375.087 342.795 376.035 342.48 377.192 341.744C376.14 341.639 374.877 341.534 374.245 341.744Z" fill="#407BFF"/>
<path d="M377.719 341.849C376.666 341.744 374.561 340.693 374.456 339.747C374.456 339.537 374.456 339.326 374.877 339.116C375.088 339.011 375.403 339.011 375.719 339.011C376.877 339.431 377.824 341.429 377.929 341.534C377.929 341.639 377.824 341.744 377.719 341.849C377.824 341.849 377.824 341.849 377.719 341.849ZM375.088 339.431C374.772 339.537 374.772 339.642 374.772 339.747C374.877 340.272 376.245 341.113 377.298 341.429C376.982 340.798 376.245 339.642 375.509 339.431C375.403 339.431 375.298 339.431 375.088 339.431Z" fill="#407BFF"/>
<path d="M344.355 58.7611C341.829 59.2867 339.303 57.1843 338.671 54.1358C338.04 51.4027 339.408 49.5105 342.25 48.8798C345.197 48.2491 347.091 49.4054 347.723 52.2437C348.354 55.2921 346.881 58.2355 344.355 58.7611ZM342.355 49.1952C340.46 49.6157 338.355 50.772 338.987 54.0307C339.618 56.9741 342.039 58.9714 344.249 58.4458C346.46 57.9202 347.933 55.187 347.302 52.2437C346.67 48.9849 344.249 48.7747 342.355 49.1952Z" fill="#263238"/>
<path d="M334.146 60.8635C332.041 61.2839 329.831 59.1815 329.199 56.0279C328.462 52.3488 330.673 51.2975 332.146 50.9822C333.514 50.6668 336.04 50.772 336.882 54.4511C337.409 57.6047 336.251 60.443 334.146 60.8635ZM332.146 51.2976C330.567 51.6129 328.778 52.6641 329.515 56.0279C330.146 58.9713 332.146 60.9686 334.146 60.5481C336.04 60.1276 337.093 57.3945 336.461 54.5563C335.725 51.2975 333.725 50.9822 332.146 51.2976Z" fill="#263238"/>
<path d="M338.777 52.1385C337.619 51.8231 336.672 52.0334 335.935 52.6641C335.83 52.7692 335.724 52.7692 335.724 52.6641C335.619 52.559 335.619 52.4538 335.724 52.4538C336.566 51.718 337.619 51.5078 338.777 51.8231C338.882 51.8231 338.882 51.9282 338.882 52.0334C338.882 52.0334 338.882 52.1385 338.777 52.1385Z" fill="#263238"/>
<path d="M346.46 82.2028L347.933 81.0465L351.301 84.2001L346.46 82.2028Z" fill="#263238"/>
<path d="M347.933 81.0465C347.933 81.0465 350.67 84.8308 351.196 87.564C354.459 86.1974 360.563 82.8336 361.405 78.1032C360.142 77.8929 358.037 76.5264 358.037 76.5264C358.037 76.5264 354.774 79.3646 347.933 81.0465Z" fill="#6F7B88"/>
<path d="M346.46 82.2029L345.828 80.8363L341.513 84.2002L346.46 82.2029Z" fill="#263238"/>
<path d="M345.829 80.8363C345.829 80.8363 343.092 83.254 342.671 86.9332C339.408 85.5666 338.145 81.1516 338.987 78.3134C340.777 77.4724 342.882 77.0519 342.882 77.0519C342.882 77.0519 342.461 79.8902 345.829 80.8363Z" fill="#6F7B88"/>
<path d="M340.671 147.167L346.144 152.949L351.617 150.321L346.986 141.701L340.671 147.167Z" fill="#F5C9B2"/>
<path d="M356.353 142.121L346.986 141.701L351.617 150.426C351.617 150.426 358.248 150.11 358.879 145.065L356.353 142.121Z" fill="#F0B89A"/>
<path d="M380.245 90.9278C381.613 96.6043 382.876 102.386 383.929 108.062C384.455 110.901 384.981 113.844 385.507 116.787C386.034 119.731 386.455 122.569 386.77 125.617C386.77 125.828 386.876 126.669 386.876 127.299C386.876 127.93 386.876 128.666 386.77 129.297C386.56 130.663 386.139 131.819 385.613 132.976C384.56 135.183 383.192 136.655 381.718 138.022C378.877 140.544 375.93 142.121 373.088 143.488C367.194 146.116 361.405 147.587 355.301 148.534L353.722 142.542C356.248 141.491 358.879 140.334 361.405 139.073C363.931 137.811 366.352 136.55 368.562 135.078C370.773 133.712 372.878 132.03 374.246 130.558C374.877 129.822 375.404 128.981 375.509 128.561C375.614 128.351 375.614 128.14 375.614 128.035C375.614 127.93 375.614 127.93 375.614 127.825C375.614 127.72 375.614 127.825 375.509 127.404C374.351 121.938 372.983 116.262 371.72 110.69C370.457 105.014 369.194 99.3374 367.931 93.766L380.245 90.9278Z" fill="#F5C9B2"/>
<path d="M372.562 80.1004C383.087 81.9926 387.718 108.273 387.718 108.273L370.772 118.574C370.772 118.574 365.405 103.017 365.72 93.3455C365.931 83.9899 364.563 78.6287 372.562 80.1004Z" fill="#F6AC3B"/>
<path d="M301.203 155.787H192.796V359.615H301.203V155.787Z" fill="#407BFF"/>
<path d="M321.305 153.264H202.794V155.787H321.305V153.264Z" fill="#407BFF"/>
<path opacity="0.3" d="M321.305 153.264H202.794V155.787H321.305V153.264Z" fill="black"/>
<path d="M301.125 359.522H331.227V155.695H301.125V359.522Z" fill="#407BFF"/>
<path opacity="0.2" d="M301.125 359.522H331.227V155.695H301.125V359.522Z" fill="black"/>
<path opacity="0.1" d="M292.467 173.552H286.362C285.836 173.552 285.415 173.132 285.415 172.606V166.509C285.415 165.984 285.836 165.563 286.362 165.563H292.467C292.993 165.563 293.414 165.984 293.414 166.509V172.606C293.414 173.132 292.993 173.552 292.467 173.552Z" fill="black"/>
<path opacity="0.3" d="M275.837 173.552H269.733C269.207 173.552 268.786 173.132 268.786 172.606V166.509C268.786 165.984 269.207 165.563 269.733 165.563H275.837C276.364 165.563 276.785 165.984 276.785 166.509V172.606C276.89 173.132 276.469 173.552 275.837 173.552Z" fill="black"/>
<path opacity="0.3" d="M259.313 173.552H253.209C252.683 173.552 252.262 173.132 252.262 172.606V166.509C252.262 165.984 252.683 165.563 253.209 165.563H259.313C259.84 165.563 260.261 165.984 260.261 166.509V172.606C260.366 173.132 259.84 173.552 259.313 173.552Z" fill="black"/>
<path opacity="0.1" d="M242.789 173.552H236.685C236.158 173.552 235.737 173.132 235.737 172.606V166.509C235.737 165.984 236.158 165.563 236.685 165.563H242.789C243.315 165.563 243.736 165.984 243.736 166.509V172.606C243.736 173.132 243.315 173.552 242.789 173.552Z" fill="black"/>
<path opacity="0.3" d="M226.265 173.552H220.161C219.634 173.552 219.213 173.132 219.213 172.606V166.509C219.213 165.984 219.634 165.563 220.161 165.563H226.265C226.791 165.563 227.212 165.984 227.212 166.509V172.606C227.212 173.132 226.791 173.552 226.265 173.552Z" fill="black"/>
<path opacity="0.3" d="M209.741 173.552H203.637C203.11 173.552 202.689 173.132 202.689 172.606V166.509C202.689 165.984 203.11 165.563 203.637 165.563H209.741C210.267 165.563 210.688 165.984 210.688 166.509V172.606C210.688 173.132 210.267 173.552 209.741 173.552Z" fill="black"/>
<g opacity="0.1">
<path opacity="0.1" d="M297.624 178.177H196.375V210.134H297.624V178.177Z" fill="black"/>
</g>
<path d="M291.941 205.509H289.099C288.362 205.509 287.731 204.878 287.731 204.142V184.064C287.731 183.328 288.362 182.698 289.099 182.698H291.941C292.678 182.698 293.309 183.328 293.309 184.064V204.142C293.309 204.878 292.678 205.509 291.941 205.509Z" fill="#407BFF"/>
<path opacity="0.1" d="M280.363 205.509H277.522C276.785 205.509 276.153 204.878 276.153 204.142V184.064C276.153 183.328 276.785 182.698 277.522 182.698H280.363C281.1 182.698 281.732 183.328 281.732 184.064V204.142C281.732 204.878 281.1 205.509 280.363 205.509Z" fill="black"/>
<path d="M268.786 205.509H265.944C265.207 205.509 264.576 204.878 264.576 204.142V184.064C264.576 183.328 265.207 182.698 265.944 182.698H268.786C269.522 182.698 270.154 183.328 270.154 184.064V204.142C270.154 204.878 269.628 205.509 268.786 205.509Z" fill="#407BFF"/>
<path d="M257.313 205.509H254.472C253.735 205.509 253.104 204.878 253.104 204.142V184.064C253.104 183.328 253.735 182.698 254.472 182.698H257.313C258.05 182.698 258.682 183.328 258.682 184.064V204.142C258.682 204.878 258.05 205.509 257.313 205.509Z" fill="#407BFF"/>
<path opacity="0.3" d="M225.318 189.005C225.318 187.007 227.002 185.326 229.002 185.326C231.001 185.326 232.685 187.007 232.685 189.005C232.685 191.002 231.001 192.684 229.002 192.684C227.002 192.684 225.318 191.002 225.318 189.005Z" fill="white"/>
<path opacity="0.1" d="M243.21 199.201C243.21 201.199 241.526 202.881 239.526 202.881C237.527 202.881 235.843 201.199 235.843 199.201C235.843 197.204 237.527 195.522 239.526 195.522C241.631 195.522 243.21 197.204 243.21 199.201Z" fill="black"/>
<path opacity="0.1" d="M235.843 189.005C235.843 187.007 237.527 185.326 239.526 185.326C241.526 185.326 243.21 187.007 243.21 189.005C243.21 191.002 241.526 192.684 239.526 192.684C237.527 192.684 235.843 191.002 235.843 189.005Z" fill="black"/>
<path opacity="0.1" d="M232.685 199.201C232.685 201.199 231.001 202.881 229.002 202.881C227.002 202.881 225.318 201.199 225.318 199.201C225.318 197.204 227.002 195.522 229.002 195.522C231.001 195.522 232.685 197.204 232.685 199.201Z" fill="black"/>
<path opacity="0.3" d="M216.301 199.698C219.425 196.578 219.425 191.52 216.301 188.4C213.177 185.28 208.113 185.28 204.989 188.4C201.865 191.52 201.865 196.578 204.989 199.698C208.113 202.818 213.177 202.818 216.301 199.698Z" fill="white"/>
<g opacity="0.1">
<path opacity="0.1" d="M297.624 214.444H196.375V246.4H297.624V214.444Z" fill="black"/>
</g>
<path d="M291.941 241.775H289.099C288.362 241.775 287.731 241.144 287.731 240.409V220.331C287.731 219.595 288.362 218.964 289.099 218.964H291.941C292.678 218.964 293.309 219.595 293.309 220.331V240.409C293.309 241.144 292.678 241.775 291.941 241.775Z" fill="#407BFF"/>
<path opacity="0.1" d="M280.363 241.775H277.522C276.785 241.775 276.153 241.144 276.153 240.409V220.331C276.153 219.595 276.785 218.964 277.522 218.964H280.363C281.1 218.964 281.732 219.595 281.732 220.331V240.409C281.732 241.144 281.1 241.775 280.363 241.775Z" fill="black"/>
<path d="M268.786 241.775H265.944C265.207 241.775 264.576 241.144 264.576 240.409V220.331C264.576 219.595 265.207 218.964 265.944 218.964H268.786C269.522 218.964 270.154 219.595 270.154 220.331V240.409C270.154 241.144 269.628 241.775 268.786 241.775Z" fill="#407BFF"/>
<path d="M257.313 241.775H254.472C253.735 241.775 253.104 241.144 253.104 240.409V220.331C253.104 219.595 253.735 218.964 254.472 218.964H257.313C258.05 218.964 258.682 219.595 258.682 220.331V240.409C258.682 241.144 258.05 241.775 257.313 241.775Z" fill="#407BFF"/>
<path opacity="0.3" d="M225.318 225.271C225.318 223.274 227.002 221.592 229.002 221.592C231.001 221.592 232.685 223.274 232.685 225.271C232.685 227.268 231.001 228.95 229.002 228.95C227.002 228.95 225.318 227.374 225.318 225.271Z" fill="white"/>
<path opacity="0.3" d="M239.526 239.147C241.561 239.147 243.21 237.5 243.21 235.468C243.21 233.436 241.561 231.789 239.526 231.789C237.492 231.789 235.843 233.436 235.843 235.468C235.843 237.5 237.492 239.147 239.526 239.147Z" fill="white"/>
<path opacity="0.1" d="M235.843 225.271C235.843 223.274 237.527 221.592 239.526 221.592C241.526 221.592 243.21 223.274 243.21 225.271C243.21 227.268 241.526 228.95 239.526 228.95C237.527 228.95 235.843 227.374 235.843 225.271Z" fill="black"/>
<path opacity="0.1" d="M229.002 239.147C231.036 239.147 232.685 237.5 232.685 235.468C232.685 233.436 231.036 231.789 229.002 231.789C226.967 231.789 225.318 233.436 225.318 235.468C225.318 237.5 226.967 239.147 229.002 239.147Z" fill="black"/>
<path opacity="0.3" d="M210.688 238.411C215.106 238.411 218.687 234.834 218.687 230.422C218.687 226.01 215.106 222.433 210.688 222.433C206.271 222.433 202.689 226.01 202.689 230.422C202.689 234.834 206.271 238.411 210.688 238.411Z" fill="white"/>
<g opacity="0.1">
<path opacity="0.1" d="M297.624 250.71H196.375V282.667H297.624V250.71Z" fill="black"/>
</g>
<path d="M291.941 278.042H289.099C288.362 278.042 287.731 277.411 287.731 276.675V256.597C287.731 255.861 288.362 255.23 289.099 255.23H291.941C292.678 255.23 293.309 255.861 293.309 256.597V276.675C293.309 277.411 292.678 278.042 291.941 278.042Z" fill="#407BFF"/>
<path opacity="0.1" d="M280.363 278.042H277.522C276.785 278.042 276.153 277.411 276.153 276.675V256.597C276.153 255.861 276.785 255.23 277.522 255.23H280.363C281.1 255.23 281.732 255.861 281.732 256.597V276.675C281.732 277.411 281.1 278.042 280.363 278.042Z" fill="black"/>
<path d="M268.786 278.042H265.944C265.207 278.042 264.576 277.411 264.576 276.675V256.597C264.576 255.861 265.207 255.23 265.944 255.23H268.786C269.522 255.23 270.154 255.861 270.154 256.597V276.675C270.154 277.411 269.628 278.042 268.786 278.042Z" fill="#407BFF"/>
<path d="M257.313 278.042H254.472C253.735 278.042 253.104 277.411 253.104 276.675V256.597C253.104 255.861 253.735 255.23 254.472 255.23H257.313C258.05 255.23 258.682 255.861 258.682 256.597V276.675C258.682 277.411 258.05 278.042 257.313 278.042Z" fill="#407BFF"/>
<path opacity="0.3" d="M225.318 261.538C225.318 259.54 227.002 257.858 229.002 257.858C231.001 257.858 232.685 259.54 232.685 261.538C232.685 263.535 231.001 265.217 229.002 265.217C227.002 265.217 225.318 263.64 225.318 261.538Z" fill="white"/>
<path opacity="0.3" d="M239.526 275.413C241.561 275.413 243.21 273.766 243.21 271.734C243.21 269.702 241.561 268.055 239.526 268.055C237.492 268.055 235.843 269.702 235.843 271.734C235.843 273.766 237.492 275.413 239.526 275.413Z" fill="white"/>
<path opacity="0.1" d="M235.843 261.538C235.843 259.54 237.527 257.858 239.526 257.858C241.526 257.858 243.21 259.54 243.21 261.538C243.21 263.535 241.526 265.217 239.526 265.217C237.527 265.217 235.843 263.64 235.843 261.538Z" fill="black"/>
<path opacity="0.1" d="M229.002 275.413C231.036 275.413 232.685 273.766 232.685 271.734C232.685 269.702 231.036 268.055 229.002 268.055C226.967 268.055 225.318 269.702 225.318 271.734C225.318 273.766 226.967 275.413 229.002 275.413Z" fill="black"/>
<path opacity="0.1" d="M210.688 274.678C215.106 274.678 218.687 271.101 218.687 266.689C218.687 262.276 215.106 258.699 210.688 258.699C206.271 258.699 202.689 262.276 202.689 266.689C202.689 271.101 206.271 274.678 210.688 274.678Z" fill="black"/>
<g opacity="0.1">
<path opacity="0.1" d="M297.624 286.977H196.375V318.933H297.624V286.977Z" fill="black"/>
</g>
<path d="M291.941 314.308H289.099C288.362 314.308 287.731 313.677 287.731 312.941V292.863C287.731 292.128 288.362 291.497 289.099 291.497H291.941C292.678 291.497 293.309 292.128 293.309 292.863V312.941C293.309 313.677 292.678 314.308 291.941 314.308Z" fill="#407BFF"/>
<path opacity="0.1" d="M280.363 314.308H277.522C276.785 314.308 276.153 313.677 276.153 312.941V292.863C276.153 292.128 276.785 291.497 277.522 291.497H280.363C281.1 291.497 281.732 292.128 281.732 292.863V312.941C281.732 313.677 281.1 314.308 280.363 314.308Z" fill="black"/>
<path d="M268.786 314.308H265.944C265.207 314.308 264.576 313.677 264.576 312.941V292.863C264.576 292.128 265.207 291.497 265.944 291.497H268.786C269.522 291.497 270.154 292.128 270.154 292.863V312.941C270.154 313.677 269.628 314.308 268.786 314.308Z" fill="#407BFF"/>
<path d="M257.313 314.308H254.472C253.735 314.308 253.104 313.677 253.104 312.941V292.863C253.104 292.128 253.735 291.497 254.472 291.497H257.313C258.05 291.497 258.682 292.128 258.682 292.863V312.941C258.682 313.677 258.05 314.308 257.313 314.308Z" fill="#407BFF"/>
<path opacity="0.3" d="M229.002 301.483C231.036 301.483 232.685 299.836 232.685 297.804C232.685 295.772 231.036 294.125 229.002 294.125C226.967 294.125 225.318 295.772 225.318 297.804C225.318 299.836 226.967 301.483 229.002 301.483Z" fill="white"/>
<path opacity="0.3" d="M239.526 311.68C241.561 311.68 243.21 310.033 243.21 308.001C243.21 305.969 241.561 304.321 239.526 304.321C237.492 304.321 235.843 305.969 235.843 308.001C235.843 310.033 237.492 311.68 239.526 311.68Z" fill="white"/>
<path opacity="0.3" d="M239.526 301.483C241.561 301.483 243.21 299.836 243.21 297.804C243.21 295.772 241.561 294.125 239.526 294.125C237.492 294.125 235.843 295.772 235.843 297.804C235.843 299.836 237.492 301.483 239.526 301.483Z" fill="white"/>
<path opacity="0.1" d="M229.002 311.68C231.036 311.68 232.685 310.033 232.685 308.001C232.685 305.969 231.036 304.321 229.002 304.321C226.967 304.321 225.318 305.969 225.318 308.001C225.318 310.033 226.967 311.68 229.002 311.68Z" fill="black"/>
<path opacity="0.3" d="M210.688 310.944C215.106 310.944 218.687 307.367 218.687 302.955C218.687 298.543 215.106 294.966 210.688 294.966C206.271 294.966 202.689 298.543 202.689 302.955C202.689 307.367 206.271 310.944 210.688 310.944Z" fill="white"/>
<g opacity="0.1">
<path opacity="0.1" d="M297.624 323.243H196.375V355.2H297.624V323.243Z" fill="black"/>
</g>
<path d="M291.941 350.574H289.099C288.362 350.574 287.731 349.944 287.731 349.208V329.13C287.731 328.394 288.362 327.763 289.099 327.763H291.941C292.678 327.763 293.309 328.394 293.309 329.13V349.208C293.309 350.049 292.678 350.574 291.941 350.574Z" fill="#407BFF"/>
<path opacity="0.1" d="M280.363 350.574H277.522C276.785 350.574 276.153 349.944 276.153 349.208V329.13C276.153 328.394 276.785 327.763 277.522 327.763H280.363C281.1 327.763 281.732 328.394 281.732 329.13V349.208C281.732 350.049 281.1 350.574 280.363 350.574Z" fill="black"/>
<path d="M268.786 350.574H265.944C265.207 350.574 264.576 349.944 264.576 349.208V329.13C264.576 328.394 265.207 327.763 265.944 327.763H268.786C269.522 327.763 270.154 328.394 270.154 329.13V349.208C270.154 350.049 269.628 350.574 268.786 350.574Z" fill="#407BFF"/>
<path d="M257.313 350.574H254.472C253.735 350.574 253.104 349.944 253.104 349.208V329.13C253.104 328.394 253.735 327.763 254.472 327.763H257.313C258.05 327.763 258.682 328.394 258.682 329.13V349.208C258.682 350.049 258.05 350.574 257.313 350.574Z" fill="#407BFF"/>
<path opacity="0.3" d="M229.002 337.855C231.036 337.855 232.685 336.208 232.685 334.176C232.685 332.144 231.036 330.496 229.002 330.496C226.967 330.496 225.318 332.144 225.318 334.176C225.318 336.208 226.967 337.855 229.002 337.855Z" fill="white"/>
<path opacity="0.3" d="M239.526 347.946C241.561 347.946 243.21 346.299 243.21 344.267C243.21 342.235 241.561 340.588 239.526 340.588C237.492 340.588 235.843 342.235 235.843 344.267C235.843 346.299 237.492 347.946 239.526 347.946Z" fill="white"/>
<path opacity="0.3" d="M239.526 337.855C241.561 337.855 243.21 336.208 243.21 334.176C243.21 332.144 241.561 330.496 239.526 330.496C237.492 330.496 235.843 332.144 235.843 334.176C235.843 336.208 237.492 337.855 239.526 337.855Z" fill="white"/>
<path opacity="0.1" d="M229.002 347.946C231.036 347.946 232.685 346.299 232.685 344.267C232.685 342.235 231.036 340.588 229.002 340.588C226.967 340.588 225.318 342.235 225.318 344.267C225.318 346.299 226.967 347.946 229.002 347.946Z" fill="black"/>
<path opacity="0.3" d="M210.688 347.21C215.106 347.21 218.687 343.634 218.687 339.221C218.687 334.809 215.106 331.232 210.688 331.232C206.271 331.232 202.689 334.809 202.689 339.221C202.689 343.634 206.271 347.21 210.688 347.21Z" fill="white"/>
<path d="M195.848 106.065H274.048L284.994 150.846H206.794L195.848 106.065Z" fill="#407BFF"/>
<path d="M228.896 150.846L229.212 153.264H312.78L312.464 150.846H228.896Z" fill="#407BFF"/>
<path d="M271.628 106.065L282.679 150.846L282.994 153.264H207.11L206.794 150.846L195.848 106.065H271.628Z" fill="#407BFF"/>
<path d="M271.628 106.065L282.679 150.846L282.994 153.264H207.11L206.794 150.846L195.848 106.065H271.628Z" fill="#0F264C"/>
<path d="M240.158 79.5749L239.632 79.3647C239 79.0493 224.266 71.1653 222.161 60.8636C220.161 50.8772 220.582 41.2061 220.582 40.7856V39.8395L221.529 39.7344C221.634 39.7344 232.686 38.8935 239.737 36.5808L240.053 36.4757L240.369 36.5808C247.526 38.8935 258.472 39.7344 258.577 39.7344L259.524 39.8395V40.7856C259.524 41.2061 260.05 50.8772 257.945 60.8636C255.84 71.1653 241.105 79.0493 240.474 79.3647L240.158 79.5749ZM222.687 41.8368C222.582 44.4648 222.582 52.4539 224.266 60.4431C225.95 68.7475 237.632 75.7906 240.158 77.2623C242.684 75.7906 254.367 68.8527 256.051 60.4431C257.63 52.4539 257.63 44.4648 257.63 41.8368C254.788 41.6266 246.368 40.6805 240.158 38.7883C233.949 40.6805 225.529 41.5215 222.687 41.8368Z" fill="#F6AC3B"/>
<path d="M240.158 73.7933C235.738 71.0602 228.37 65.4888 227.213 59.9175C226.055 54.0308 225.739 48.144 225.739 44.57C229.423 44.1495 235.317 43.3085 240.158 41.942C245 43.3085 250.894 44.1495 254.578 44.57C254.578 48.144 254.262 54.0308 253.104 59.9175C251.946 65.4888 244.579 71.0602 240.158 73.7933Z" fill="#F6AC3B"/>
<path opacity="0.3" d="M165.431 359.509H163.326V113.949C163.326 101.335 173.535 91.1381 186.165 91.1381H233.106C236.369 91.1381 239.106 88.405 239.106 85.1462H241.211C241.211 89.5613 237.632 93.2405 233.106 93.2405H186.165C174.693 93.2405 165.431 102.491 165.431 113.949V359.509Z" fill="#407BFF"/>
</g>
<defs>
<clipPath id="clip0">
<rect width="553" height="360" fill="white"/>
</clipPath>
</defs>
</svg>
