<svg width="406" height="300" viewBox="0 0 406 300" fill="none" xmlns="http://www.w3.org/2000/svg">
<path d="M335.413 244.705C336.572 244.705 337.513 243.765 337.513 242.605C337.513 241.445 336.572 240.505 335.413 240.505C334.253 240.505 333.312 241.445 333.312 242.605C333.312 243.765 334.253 244.705 335.413 244.705Z" fill="#4E69FF"/>
<path opacity="0.47" d="M324.492 270.685C325.651 270.685 326.592 269.745 326.592 268.585C326.592 267.425 325.651 266.485 324.492 266.485C323.332 266.485 322.392 267.425 322.392 268.585C322.392 269.745 323.332 270.685 324.492 270.685Z" fill="#9FBFFF"/>
<path d="M75.4921 52.1648C76.3868 52.1648 77.1121 51.4395 77.1121 50.5448C77.1121 49.6501 76.3868 48.9248 75.4921 48.9248C74.5974 48.9248 73.8721 49.6501 73.8721 50.5448C73.8721 51.4395 74.5974 52.1648 75.4921 52.1648Z" fill="#9FBFFF"/>
<path d="M201.252 29.6646C201.252 31.2846 199.932 32.6046 198.312 32.6046C196.692 32.6046 195.372 31.2846 195.372 29.6646C195.372 28.0446 196.692 26.7246 198.312 26.7246C199.932 26.7246 201.252 28.1046 201.252 29.6646Z" fill="#4E69FF"/>
<path d="M78.2524 72.6848C78.2524 74.1848 77.0524 75.4448 75.4924 75.4448C73.9924 75.4448 72.7324 74.2448 72.7324 72.6848C72.7324 71.1848 73.9324 69.9248 75.4924 69.9248C76.9924 69.9248 78.2524 71.1848 78.2524 72.6848Z" fill="#4E69FF"/>
<path d="M96.4321 48.0249C96.9954 48.0249 97.4521 47.5682 97.4521 47.0049C97.4521 46.4415 96.9954 45.9849 96.4321 45.9849C95.8688 45.9849 95.4121 46.4415 95.4121 47.0049C95.4121 47.5682 95.8688 48.0249 96.4321 48.0249Z" fill="#1B1B25"/>
<path d="M316.812 42.205C316.032 41.725 315.852 40.705 316.332 39.925C316.812 39.145 317.832 38.965 318.612 39.445C319.392 39.925 319.572 40.945 319.092 41.725C318.552 42.505 317.532 42.685 316.812 42.205Z" fill="#9FBFFF"/>
<path d="M296.532 27.6847C295.272 26.8447 294.912 25.1647 295.752 23.9047C296.592 22.6447 298.272 22.2847 299.532 23.1247C300.792 23.9647 301.152 25.6447 300.312 26.9047C299.472 28.1647 297.792 28.5247 296.532 27.6847Z" fill="#4E69FF"/>
<path d="M312.492 74.9646C312.012 74.6646 311.892 74.0046 312.192 73.5246C312.492 73.0446 313.152 72.9246 313.632 73.2246C314.112 73.5246 314.232 74.1846 313.932 74.6646C313.572 75.1446 312.972 75.2646 312.492 74.9646Z" fill="#1B1B25"/>
<g opacity="0.18">
<g opacity="0.18">
<g opacity="0.18">
<g opacity="0.18">
<path opacity="0.18" d="M317.412 245.125C329.052 231.145 337.152 211.765 336.912 193.285C336.672 174.145 329.772 156.445 333.072 136.825C334.932 125.605 339.312 114.805 339.972 103.465C343.032 49.7647 257.772 3.20473 223.212 53.4247C220.812 56.8447 218.892 60.6847 215.712 63.4447C211.812 66.9247 206.232 68.3647 201.132 67.3447C192.912 65.6047 186.012 59.1847 178.032 56.3647C170.832 53.8447 163.272 52.4047 155.592 52.1047C140.412 51.4447 125.112 55.1647 111.672 62.2447C84.9121 76.4047 67.5121 104.365 71.5921 135.025C73.9921 153.205 84.0121 169.465 95.4121 183.805C117.192 211.285 144.732 233.965 175.152 251.365C199.752 265.405 227.232 276.205 255.552 275.245C280.572 274.405 302.652 262.825 317.412 245.125Z" fill="#9FBFFF"/>
</g>
</g>
</g>
</g>
<g opacity="0.47">
<g opacity="0.47">
<g opacity="0.47">
<g opacity="0.47">
<path opacity="0.47" d="M335.892 191.305C338.952 174.625 336.672 155.185 328.032 140.305C319.092 124.885 305.412 113.665 299.052 96.2048C295.452 86.2448 294.072 75.4448 289.392 65.9648C267.312 21.0248 176.832 22.1648 171.732 78.7448C171.372 82.6448 171.552 86.6048 170.232 90.3248C168.672 94.8848 164.832 98.6648 160.212 100.105C152.772 102.505 144.192 100.405 136.452 101.785C129.432 103.045 122.652 105.325 116.292 108.565C103.692 115.045 92.8917 125.065 85.2717 136.945C70.0317 160.705 68.7117 191.305 86.0517 214.405C96.3117 228.025 111.912 236.665 127.692 243.085C157.932 255.385 190.632 261.265 223.272 261.445C249.672 261.565 276.912 257.785 299.412 244.105C319.392 231.925 331.992 212.425 335.892 191.305Z" fill="#9FBFFF"/>
</g>
</g>
</g>
</g>
<g opacity="0.22">
<path opacity="0.22" d="M76.0318 259.105C74.9518 269.005 83.4718 278.005 94.9918 279.265C106.512 280.525 124.812 274.405 125.832 264.505C126.912 254.605 108.852 252.145 99.2518 246.265C85.9318 238.105 77.0518 249.205 76.0318 259.105Z" fill="#9FBFFF"/>
</g>
<g opacity="0.47">
<g opacity="0.47">
<g opacity="0.47">
<g opacity="0.47">
<path opacity="0.47" d="M305.892 182.005C307.932 171.085 306.372 158.305 300.732 148.585C294.852 138.445 285.852 131.125 281.712 119.665C279.372 113.125 278.412 106.045 275.352 99.8049C260.892 70.2849 201.552 71.0649 198.192 108.205C197.952 110.725 198.072 113.365 197.232 115.765C196.212 118.765 193.692 121.225 190.632 122.185C185.712 123.745 180.132 122.365 175.032 123.265C170.412 124.105 165.972 125.605 161.832 127.705C153.552 131.905 146.532 138.445 141.492 146.245C131.472 161.845 130.632 181.885 141.972 197.065C148.692 206.005 158.952 211.645 169.272 215.905C189.132 224.005 210.552 227.845 231.972 227.965C249.252 228.085 267.132 225.565 281.952 216.565C295.092 208.645 303.372 195.865 305.892 182.005Z" fill="#9FBFFF"/>
</g>
</g>
</g>
</g>
<g opacity="0.31">
<path opacity="0.31" d="M325.152 90.8649C324.612 92.9049 322.512 94.0449 320.532 93.5049C318.492 92.9649 317.352 90.8649 317.892 88.8849C318.432 86.8449 320.532 85.7049 322.512 86.2449C324.492 86.7249 325.692 88.8249 325.152 90.8649Z" fill="#9FBFFF"/>
</g>
<g opacity="0.31">
<path opacity="0.31" d="M180.846 32.6524C184.071 26.0411 181.327 18.0666 174.716 14.8409C168.105 11.6151 160.13 14.3595 156.904 20.9707C153.679 27.5819 156.423 35.5564 163.034 38.7822C169.645 42.008 177.62 39.2636 180.846 32.6524Z" fill="#9FBFFF"/>
</g>
<g opacity="0.31">
<path opacity="0.31" d="M345.012 143.845C344.592 146.125 342.492 147.625 340.212 147.205C337.932 146.785 336.432 144.685 336.852 142.405C337.272 140.125 339.372 138.625 341.652 139.045C343.872 139.465 345.432 141.625 345.012 143.845Z" fill="#9FBFFF"/>
</g>
<g opacity="0.31">
<path opacity="0.31" d="M336.492 27.5048C336.072 29.7848 333.972 31.2848 331.692 30.8648C329.412 30.4448 327.912 28.3448 328.332 26.0648C328.752 23.7848 330.852 22.2848 333.132 22.7048C335.352 23.0648 336.852 25.2248 336.492 27.5048Z" fill="#9FBFFF"/>
</g>
<g opacity="0.31">
<path opacity="0.31" d="M92.9525 108.925C92.7125 110.245 91.4525 111.145 90.0725 110.905C88.7525 110.665 87.8525 109.405 88.0925 108.025C88.3325 106.705 89.5925 105.805 90.9725 106.045C92.2925 106.345 93.1925 107.605 92.9525 108.925Z" fill="#9FBFFF"/>
</g>
<g opacity="0.61">
<g opacity="0.61">
<g opacity="0.61">
<path opacity="0.61" d="M261.3 194.33L269.4 192.23C271.08 191.81 272.76 192.77 273.24 194.45L274.86 200.69C277.14 200.69 279.48 201.05 281.7 201.65L285 196.07C285.9 194.57 287.82 194.09 289.26 194.93L296.46 199.19C297.96 200.09 298.44 202.01 297.6 203.45L294.3 209.03C295.92 210.71 297.3 212.51 298.5 214.55L304.74 212.93C306.42 212.51 308.1 213.47 308.58 215.15L310.68 223.25C311.1 224.93 310.14 226.61 308.46 227.09L302.22 228.71C302.22 230.99 301.86 233.33 301.26 235.55L306.84 238.85C308.34 239.75 308.82 241.67 307.98 243.11L303.72 250.31C302.82 251.81 300.9 252.29 299.46 251.45L293.88 248.15C292.2 249.77 290.4 251.15 288.36 252.35L289.98 258.59C290.4 260.27 289.44 261.95 287.76 262.43L279.66 264.53C277.98 264.95 276.3 263.99 275.82 262.31L274.2 256.07C271.92 256.07 269.58 255.71 267.36 255.11L264.06 260.69C263.16 262.19 261.24 262.67 259.8 261.83L252.6 257.57C251.1 256.67 250.62 254.75 251.46 253.31L254.76 247.73C253.14 246.05 251.76 244.25 250.56 242.21L244.32 243.83C242.64 244.25 240.96 243.29 240.48 241.61L238.38 233.51C237.96 231.83 238.92 230.15 240.6 229.67L246.84 228.05C246.84 225.71 247.2 223.43 247.8 221.21L242.22 217.91C240.72 217.01 240.24 215.09 241.08 213.65L245.34 206.45C246.24 204.95 248.16 204.47 249.6 205.31L255.18 208.61C256.86 206.99 258.66 205.61 260.7 204.41L259.08 198.17C258.66 196.49 259.62 194.81 261.3 194.33ZM282.36 203.33L281.82 203.15C279.36 202.43 276.84 202.07 274.32 202.13H273.78L271.86 194.81C271.62 193.91 270.66 193.37 269.76 193.61L261.66 195.71C260.76 195.95 260.22 196.91 260.46 197.81L262.38 205.13L261.9 205.37C259.68 206.57 257.64 208.13 255.84 209.99L255.48 210.41L248.94 206.57C248.1 206.09 247.08 206.39 246.6 207.17L242.34 214.37C241.86 215.21 242.16 216.23 242.94 216.71L249.48 220.55L249.3 221.09C248.58 223.55 248.22 226.07 248.28 228.59V229.13L240.96 231.05C240.06 231.29 239.52 232.25 239.76 233.15L241.86 241.25C242.1 242.15 243.06 242.69 243.96 242.45L251.28 240.53L251.52 241.01C252.72 243.23 254.28 245.27 256.14 247.07L256.56 247.43L252.72 253.97C252.24 254.81 252.54 255.83 253.32 256.31L260.52 260.57C261.3 261.05 262.38 260.75 262.86 259.97L266.7 253.43L267.24 253.61C269.7 254.33 272.22 254.69 274.74 254.63H275.28L277.2 261.95C277.44 262.85 278.4 263.39 279.3 263.15L287.4 261.05C288.3 260.81 288.84 259.85 288.6 258.95L286.68 251.63L287.16 251.39C289.38 250.19 291.42 248.63 293.22 246.83L293.58 246.41L300.12 250.25C300.96 250.73 301.98 250.43 302.46 249.65L306.72 242.45C307.2 241.61 306.9 240.59 306.12 240.11L299.58 236.27L299.76 235.73C300.48 233.27 300.84 230.75 300.78 228.23V227.69L308.1 225.77C309 225.53 309.54 224.57 309.3 223.67L307.2 215.57C306.96 214.67 306 214.13 305.1 214.37L297.78 216.29L297.54 215.81C296.34 213.59 294.78 211.55 292.98 209.75L292.56 209.39L296.4 202.85C296.88 202.01 296.58 200.99 295.8 200.51L288.6 196.25C287.76 195.77 286.74 196.07 286.26 196.85L282.36 203.33ZM269.52 209.27C280.08 206.51 290.88 212.87 293.64 223.43C296.4 233.99 290.04 244.79 279.48 247.55C268.92 250.31 258.12 243.95 255.36 233.39C252.6 222.83 258.96 212.03 269.52 209.27ZM279.18 246.17C288.96 243.59 294.84 233.57 292.32 223.79C289.74 214.01 279.72 208.13 269.94 210.65C260.16 213.23 254.28 223.25 256.8 233.03C259.32 242.87 269.4 248.75 279.18 246.17Z" fill="white"/>
</g>
</g>
<g opacity="0.61">
<g opacity="0.61">
<path opacity="0.61" d="M104.7 133.25L112.8 131.15C114.48 130.73 116.16 131.69 116.64 133.37L118.26 139.61C120.54 139.61 122.88 139.97 125.1 140.57L128.4 134.99C129.3 133.49 131.22 133.01 132.66 133.85L139.86 138.11C141.36 139.01 141.84 140.93 141 142.37L137.7 147.95C139.32 149.63 140.7 151.43 141.9 153.47L148.14 151.85C149.82 151.43 151.5 152.39 151.98 154.07L154.08 162.17C154.5 163.85 153.54 165.53 151.86 166.01L145.62 167.63C145.62 169.91 145.26 172.25 144.66 174.47L150.24 177.77C151.74 178.67 152.22 180.59 151.38 182.03L147.12 189.23C146.22 190.73 144.3 191.21 142.86 190.37L137.28 187.07C135.6 188.69 133.8 190.07 131.76 191.27L133.38 197.51C133.8 199.19 132.84 200.87 131.16 201.35L123.06 203.45C121.38 203.87 119.7 202.91 119.22 201.23L117.6 194.99C115.32 194.99 112.98 194.63 110.76 194.03L107.46 199.61C106.56 201.11 104.64 201.59 103.2 200.75L96 196.49C94.5 195.59 94.02 193.67 94.86 192.23L98.16 186.65C96.54 184.97 95.16 183.17 93.96 181.13L87.72 182.75C86.04 183.17 84.36 182.21 83.88 180.53L81.78 172.43C81.36 170.75 82.32 169.07 84 168.59L90.24 166.97C90.24 164.63 90.6 162.35 91.2 160.13L85.62 156.83C84.12 155.93 83.64 154.01 84.48 152.57L88.74 145.37C89.64 143.87 91.56 143.39 93 144.23L98.58 147.53C100.26 145.91 102.06 144.53 104.1 143.33L102.48 137.03C102.06 135.41 103.02 133.67 104.7 133.25ZM125.76 142.25L125.22 142.07C122.76 141.35 120.24 140.99 117.72 141.05H117.18L115.26 133.73C115.02 132.83 114.06 132.29 113.16 132.53L105.06 134.63C104.16 134.87 103.62 135.83 103.86 136.73L105.78 144.05L105.3 144.29C103.08 145.49 101.04 147.05 99.24 148.91L98.88 149.33L92.28 145.43C91.44 144.95 90.42 145.25 89.94 146.03L85.68 153.23C85.2 154.07 85.5 155.09 86.28 155.57L92.82 159.41L92.64 159.95C91.92 162.41 91.56 164.93 91.62 167.45V167.99L84.3 169.91C83.4 170.15 82.86 171.11 83.1 172.01L85.2 180.11C85.44 181.01 86.4 181.55 87.3 181.31L94.62 179.39L94.86 179.87C96.06 182.09 97.62 184.13 99.48 185.93L99.9 186.29L96.06 192.83C95.58 193.67 95.88 194.69 96.66 195.17L103.86 199.43C104.64 199.91 105.72 199.61 106.2 198.83L110.04 192.29L110.58 192.47C113.04 193.19 115.56 193.55 118.08 193.49H118.62L120.54 200.81C120.78 201.71 121.74 202.25 122.64 202.01L130.74 199.91C131.64 199.67 132.18 198.71 131.94 197.81L130.02 190.49L130.5 190.25C132.72 189.05 134.76 187.49 136.56 185.69L136.92 185.27L143.46 189.11C144.3 189.59 145.32 189.29 145.8 188.51L150.06 181.31C150.54 180.47 150.24 179.45 149.46 178.97L142.92 175.13L143.1 174.59C143.82 172.13 144.18 169.61 144.12 167.09V166.55L151.44 164.63C152.34 164.39 152.88 163.43 152.64 162.53L150.6 154.43C150.36 153.53 149.4 152.99 148.5 153.23L141.18 155.15L140.94 154.67C139.74 152.45 138.18 150.41 136.38 148.61L135.96 148.25L139.8 141.71C140.28 140.87 139.98 139.85 139.2 139.37L132 135.11C131.16 134.63 130.14 134.93 129.66 135.71L125.76 142.25ZM112.92 148.13C123.48 145.37 134.28 151.73 137.04 162.29C139.8 172.85 133.44 183.65 122.88 186.41C112.32 189.17 101.52 182.81 98.76 172.25C96 161.69 102.36 150.89 112.92 148.13ZM122.58 185.03C132.36 182.45 138.24 172.43 135.72 162.65C133.14 152.87 123.12 146.99 113.34 149.51C103.56 152.09 97.68 162.11 100.2 171.89C102.72 181.73 112.8 187.61 122.58 185.03Z" fill="white"/>
</g>
</g>
<g opacity="0.61">
<path opacity="0.61" d="M267.539 171.709L271.439 172.669C271.439 174.169 271.679 175.669 272.099 177.049L268.679 179.089C268.019 179.509 267.839 180.349 268.199 180.949L270.659 185.029C271.079 185.689 271.919 185.869 272.519 185.509L275.939 183.469C276.959 184.489 278.159 185.389 279.539 186.109L278.579 190.009C278.399 190.729 278.819 191.509 279.599 191.689L284.219 192.829C284.939 193.009 285.719 192.589 285.899 191.809L286.859 187.909C288.359 187.909 289.859 187.669 291.239 187.249L293.279 190.669C293.699 191.329 294.539 191.509 295.139 191.149L299.219 188.689C299.879 188.269 300.059 187.429 299.699 186.829L297.659 183.409C298.679 182.389 299.579 181.189 300.299 179.809L304.199 180.769C304.919 180.949 305.699 180.529 305.879 179.749L307.019 175.129C307.199 174.409 306.779 173.629 305.999 173.449L302.099 172.489C302.099 170.989 301.859 169.489 301.439 168.109L304.859 166.069C305.519 165.649 305.699 164.809 305.339 164.209L302.879 160.129C302.459 159.469 301.619 159.289 301.019 159.649L297.599 161.689C296.579 160.669 295.379 159.769 293.999 159.049L294.959 155.149C295.139 154.429 294.719 153.649 293.939 153.469L289.319 152.329C288.599 152.149 287.819 152.569 287.639 153.349L286.679 157.249C285.179 157.249 283.679 157.489 282.299 157.909L280.259 154.489C279.839 153.829 278.999 153.649 278.399 154.009L274.319 156.469C273.659 156.889 273.479 157.729 273.839 158.329L275.879 161.749C274.859 162.769 273.959 163.969 273.239 165.349L269.339 164.389C268.619 164.209 267.839 164.629 267.659 165.409L266.519 170.029C266.339 170.749 266.819 171.529 267.539 171.709ZM289.319 162.049C295.139 163.489 298.679 169.369 297.239 175.129C295.799 180.949 289.919 184.489 284.159 183.049C278.339 181.609 274.799 175.729 276.239 169.969C277.619 164.149 283.499 160.609 289.319 162.049Z" fill="white"/>
</g>
<g opacity="0.36">
<path opacity="0.36" d="M314.64 212.389C314.52 212.389 314.4 212.389 314.34 212.329L310.8 211.429C310.08 211.249 309.6 210.529 309.78 209.809L310.44 207.049C309.54 206.569 308.76 205.969 307.98 205.249L305.58 206.749C304.92 207.109 304.08 206.929 303.72 206.269L301.8 203.149C301.62 202.849 301.56 202.489 301.62 202.129C301.68 201.769 301.92 201.469 302.22 201.289L304.62 199.789C304.32 198.829 304.2 197.809 304.14 196.789L301.38 196.129C301.02 196.069 300.72 195.829 300.54 195.529C300.36 195.229 300.3 194.869 300.36 194.509L301.26 190.969C301.32 190.609 301.56 190.309 301.86 190.129C302.16 189.949 302.52 189.889 302.88 189.949L305.64 190.609C306.12 189.709 306.72 188.929 307.44 188.149L305.94 185.749C305.76 185.449 305.7 185.089 305.76 184.729C305.82 184.369 306.06 184.069 306.36 183.889L309.48 181.969C310.14 181.609 310.98 181.789 311.34 182.449L312.84 184.849C313.8 184.549 314.82 184.429 315.84 184.369L316.5 181.609C316.56 181.249 316.8 180.949 317.1 180.769C317.4 180.589 317.76 180.529 318.12 180.589L321.66 181.489C322.38 181.669 322.86 182.389 322.68 183.109L322.02 185.869C322.92 186.349 323.7 186.949 324.48 187.669L326.88 186.169C327.18 185.989 327.54 185.929 327.9 185.989C328.26 186.049 328.56 186.289 328.74 186.589L330.66 189.709C330.84 190.009 330.9 190.369 330.84 190.729C330.78 191.089 330.54 191.389 330.24 191.569L327.84 193.069C328.14 194.029 328.26 195.049 328.32 196.069L331.08 196.729C331.44 196.789 331.74 197.029 331.92 197.329C332.1 197.629 332.16 197.989 332.1 198.349L331.2 201.889C331.14 202.249 330.9 202.549 330.6 202.729C330.3 202.909 329.94 202.969 329.58 202.909L326.82 202.249C326.34 203.149 325.74 203.929 325.02 204.709L326.52 207.109C326.7 207.409 326.76 207.769 326.7 208.129C326.64 208.489 326.4 208.789 326.1 208.969L322.98 210.889C322.32 211.249 321.48 211.069 321.12 210.409L319.62 208.009C318.66 208.309 317.64 208.429 316.62 208.489L315.96 211.249C315.84 211.969 315.24 212.389 314.64 212.389ZM308.1 204.529L308.28 204.709C309.06 205.489 309.96 206.149 310.98 206.689L311.16 206.809L310.38 209.989C310.26 210.409 310.5 210.829 310.92 210.889L314.46 211.789C314.64 211.849 314.88 211.789 315.06 211.729C315.24 211.609 315.36 211.429 315.42 211.249L316.2 208.069H316.44C317.58 208.069 318.66 207.889 319.74 207.589L319.98 207.529L321.72 210.349C321.96 210.709 322.38 210.829 322.74 210.589L325.86 208.669C326.04 208.549 326.16 208.369 326.22 208.189C326.28 208.009 326.22 207.769 326.16 207.589L324.42 204.769L324.6 204.589C325.38 203.809 326.04 202.909 326.58 201.889L326.7 201.709L329.88 202.489C330.06 202.549 330.3 202.489 330.48 202.429C330.66 202.309 330.78 202.129 330.84 201.949L331.74 198.409C331.8 198.229 331.74 197.989 331.68 197.809C331.56 197.629 331.38 197.509 331.2 197.449L328.02 196.669V196.429C328.02 195.289 327.84 194.209 327.54 193.129L327.48 192.889L330.3 191.149C330.48 191.029 330.6 190.849 330.66 190.669C330.72 190.489 330.66 190.249 330.6 190.069L328.68 186.949C328.56 186.769 328.38 186.649 328.2 186.589C328.02 186.529 327.78 186.589 327.6 186.649L324.78 188.389L324.6 188.209C323.82 187.429 322.92 186.769 321.9 186.229L321.72 186.109L322.5 182.929C322.62 182.509 322.38 182.089 321.96 182.029L318.42 181.129C318.24 181.069 318 181.129 317.82 181.189C317.64 181.309 317.52 181.489 317.46 181.669L316.68 184.849H316.44C315.3 184.849 314.22 185.029 313.14 185.329L312.9 185.389L311.16 182.569C310.92 182.209 310.5 182.089 310.14 182.329L307.02 184.249C306.84 184.369 306.72 184.549 306.66 184.729C306.6 184.909 306.66 185.149 306.72 185.329L308.46 188.149L308.28 188.329C307.5 189.109 306.84 190.009 306.3 191.029L306.18 191.209L303 190.429C302.82 190.369 302.58 190.429 302.4 190.489C302.22 190.609 302.1 190.789 302.04 190.969L301.14 194.509C301.02 194.929 301.26 195.349 301.68 195.409L304.86 196.189V196.429C304.86 197.569 305.04 198.649 305.34 199.729L305.4 199.969L302.58 201.709C302.4 201.829 302.28 202.009 302.22 202.189C302.16 202.369 302.22 202.609 302.28 202.789L304.2 205.909C304.44 206.269 304.86 206.389 305.22 206.149L308.1 204.529ZM316.32 205.189C315.66 205.189 314.94 205.129 314.28 204.949C312.06 204.409 310.14 203.029 308.94 201.049C307.74 199.069 307.38 196.729 307.92 194.509C308.46 192.289 309.84 190.369 311.82 189.169C313.8 187.969 316.14 187.609 318.36 188.149C320.58 188.689 322.5 190.069 323.7 192.049C324.9 194.029 325.26 196.369 324.72 198.589C323.76 202.489 320.22 205.189 316.32 205.189ZM316.32 188.509C314.88 188.509 313.44 188.929 312.18 189.649C310.32 190.789 309.06 192.529 308.52 194.629C307.98 196.729 308.34 198.889 309.42 200.689C310.56 202.549 312.3 203.809 314.4 204.349C316.5 204.889 318.66 204.529 320.46 203.449C322.32 202.309 323.58 200.569 324.12 198.469C324.66 196.369 324.3 194.209 323.22 192.409C322.08 190.549 320.34 189.289 318.24 188.749C317.64 188.569 316.98 188.509 316.32 188.509Z" fill="#4E69FF"/>
</g>
</g>
<path d="M239.64 243.049L174.84 271.009C169.44 273.349 163.14 270.829 160.8 265.429L101.28 127.249C98.9402 121.849 101.46 115.549 106.86 113.209L171.66 85.2494C177.06 82.9094 183.36 85.4294 185.7 90.8294L245.28 229.009C247.56 234.409 245.04 240.709 239.64 243.049Z" fill="#292930"/>
<path d="M231.6 238.069L176.4 261.829C171 264.169 164.7 261.649 162.36 256.249L107.94 130.009C105.6 124.609 108.12 118.309 113.52 115.969L168.72 92.1493C174.12 89.8093 180.42 92.3293 182.76 97.7293L237.18 224.029C239.52 229.429 237 235.729 231.6 238.069Z" fill="white"/>
<path d="M230.04 234.47L174.84 258.29C169.44 260.63 163.26 258.35 161.04 253.25L109.68 133.97C107.46 128.87 110.1 122.81 115.5 120.47L170.7 96.6495C176.1 94.3095 182.28 96.5895 184.5 101.69L235.92 220.97C238.08 226.13 235.44 232.13 230.04 234.47Z" fill="#9FBFFF"/>
<path d="M161.64 104.269L128.88 118.369C126.78 119.269 124.38 118.309 123.48 116.209L121.62 112.129L161.94 94.4893L163.8 98.8093C164.7 100.909 163.68 103.369 161.64 104.269Z" fill="#292930"/>
<path d="M132.24 113.99C131.4 113.99 130.62 113.51 130.26 112.67C129.78 111.59 130.32 110.33 131.4 109.85C132.48 109.37 133.74 109.91 134.22 110.99C134.7 112.07 134.16 113.33 133.08 113.81C132.78 113.93 132.54 113.99 132.24 113.99ZM132.24 110.33C132.06 110.33 131.82 110.39 131.64 110.45C130.86 110.81 130.5 111.71 130.86 112.49C131.22 113.27 132.12 113.63 132.9 113.27C133.68 112.91 134.04 112.01 133.68 111.23C133.38 110.63 132.84 110.33 132.24 110.33Z" fill="white"/>
<path d="M138.66 110.629C138 110.629 137.4 110.269 137.1 109.609C136.92 109.189 136.92 108.769 137.1 108.349C137.28 107.929 137.58 107.629 138 107.449L153.66 100.669C154.08 100.489 154.5 100.489 154.92 100.669C155.34 100.849 155.64 101.149 155.82 101.569C156.18 102.409 155.82 103.429 154.92 103.789L139.26 110.569C139.14 110.569 138.9 110.629 138.66 110.629ZM154.38 101.149C154.26 101.149 154.08 101.149 153.96 101.209L138.3 107.989C137.76 108.229 137.52 108.889 137.76 109.429C138 109.969 138.66 110.209 139.2 109.969L154.86 103.189C155.4 102.949 155.64 102.289 155.4 101.749C155.28 101.509 155.1 101.269 154.8 101.149C154.62 101.149 154.5 101.149 154.38 101.149Z" fill="white"/>
<path opacity="0.18" d="M185.94 105.109L126.36 172.729L133.56 189.349L191.4 117.889L185.94 105.109Z" fill="white"/>
<path opacity="0.1" d="M195.54 127.669L140.76 206.329L147.9 222.949L201.24 140.989L195.54 127.669Z" fill="white"/>
<path d="M239.226 92.4502C243.71 78.0196 235.802 62.7336 221.561 58.3078C207.32 53.882 192.14 61.9924 187.656 76.423C183.171 90.8535 191.079 106.14 205.32 110.565C219.561 114.991 234.741 106.881 239.226 92.4502Z" fill="#2F56F7"/>
<path d="M237.844 89.1585C242.33 74.7295 234.424 59.4434 220.185 55.0161C205.946 50.5889 190.766 58.6969 186.279 73.1259C181.793 87.5549 189.699 102.841 203.939 107.268C218.178 111.696 233.358 103.588 237.844 89.1585Z" fill="#4E69FF"/>
<path opacity="0.93" d="M231.883 87.3083C235.325 76.2334 229.241 64.4968 218.292 61.0938C207.344 57.6909 195.678 63.9103 192.236 74.9852C188.793 86.0601 194.878 97.7967 205.827 101.2C216.775 104.603 228.441 98.3832 231.883 87.3083Z" fill="white"/>
<path d="M212.459 79.6694C211.919 79.4894 211.619 78.9494 211.799 78.4094L215.459 66.7094C215.639 66.1694 216.179 65.8694 216.719 66.0494C217.259 66.2294 217.559 66.7694 217.379 67.3094L213.719 79.0094C213.599 79.5494 212.999 79.8494 212.459 79.6694Z" fill="#9FBFFF"/>
<path d="M211.98 81.4697C212.16 80.9297 212.7 80.6297 213.24 80.8097L222.24 83.6297C222.78 83.8097 223.08 84.3496 222.9 84.8896C222.72 85.4296 222.18 85.7296 221.64 85.5496L212.64 82.7297C212.1 82.6097 211.8 82.0097 211.98 81.4697Z" fill="#9FBFFF"/>
<path d="M214.92 82.0095C214.44 83.6295 212.7 84.5294 211.14 84.0494C209.52 83.5694 208.68 81.8295 209.16 80.2095C209.64 78.5895 211.38 77.6895 212.94 78.1695C214.5 78.7095 215.4 80.4495 214.92 82.0095Z" fill="#1B1B25"/>
<path d="M249.36 222.169L198.48 204.529C193.8 202.909 191.28 197.749 192.9 193.069L235.2 71.0294C236.82 66.3494 241.98 63.8294 246.66 65.4494L297.54 83.0894C302.22 84.7094 304.74 89.8694 303.12 94.5494L260.82 216.589C259.2 221.269 254.04 223.789 249.36 222.169Z" fill="#101011"/>
<path d="M248.52 219.77L200.64 203.15C196.2 201.59 193.92 196.669 195.54 192.049L236.88 72.8895C238.44 68.3295 243.36 65.8095 247.74 67.3695L295.62 83.9895C300.06 85.5495 302.34 90.4695 300.72 95.0895L259.38 214.25C257.82 218.81 252.96 221.27 248.52 219.77Z" fill="#282830"/>
<path d="M236.368 80.8836L199.631 186.833L259.493 207.59L296.23 101.64L236.368 80.8836Z" fill="white"/>
<path opacity="0.89" d="M270.18 80.9895C270.06 80.9895 269.94 80.9895 269.82 80.9295C269.52 80.8095 269.34 80.6295 269.22 80.3895C269.1 80.1495 269.1 79.8495 269.16 79.5495C269.28 79.2495 269.46 79.0695 269.7 78.9495C269.94 78.8295 270.24 78.8295 270.54 78.8895C270.84 79.0095 271.02 79.1895 271.14 79.4295C271.26 79.6695 271.26 79.9695 271.2 80.2695C271.14 80.5695 270.9 80.7495 270.66 80.8695C270.54 80.9895 270.36 80.9895 270.18 80.9895ZM270.18 79.4295C270.12 79.4295 270.06 79.4295 270 79.4895C269.88 79.5495 269.82 79.6695 269.76 79.7895C269.7 79.9095 269.7 80.0295 269.76 80.1495C269.82 80.2695 269.94 80.3295 270.06 80.3895C270.18 80.4495 270.3 80.4495 270.42 80.3895C270.54 80.3295 270.6 80.2095 270.66 80.0895C270.72 79.9695 270.72 79.8495 270.66 79.7295C270.6 79.6095 270.48 79.5495 270.36 79.4895C270.3 79.4295 270.24 79.4295 270.18 79.4295Z" fill="white"/>
<path opacity="0.89" d="M274.56 86.3895C274.5 86.3895 274.38 86.3895 274.32 86.3295L262.98 82.4295C262.56 82.3095 262.32 81.8295 262.5 81.4095C262.56 81.2295 262.74 81.0495 262.92 80.9295C263.1 80.8095 263.34 80.8095 263.52 80.8695L274.86 84.7695C275.04 84.8295 275.22 85.0095 275.34 85.1895C275.46 85.3695 275.46 85.6095 275.4 85.7895C275.22 86.2095 274.92 86.3895 274.56 86.3895ZM274.5 85.7895C274.62 85.8495 274.74 85.7895 274.8 85.6695C274.8 85.6095 274.8 85.5495 274.8 85.4895C274.8 85.4295 274.74 85.3695 274.68 85.3695L263.34 81.4695C263.28 81.4695 263.22 81.4695 263.16 81.4695C263.1 81.4695 263.04 81.5295 263.04 81.5895C262.98 81.7095 263.04 81.8295 263.16 81.8895L274.5 85.7895Z" fill="white"/>
<g opacity="0.41">
<g opacity="0.41">
<g opacity="0.81">
<path opacity="0.81" d="M239.095 85.0867L204.756 184.121L258.269 202.676L292.608 103.642L239.095 85.0867Z" fill="#9FBFFF"/>
</g>
</g>
</g>
<path d="M232.739 209.69C232.439 209.69 232.199 209.63 231.959 209.57L219.959 205.43C218.699 205.01 217.979 203.57 218.459 202.31L218.519 202.13C218.759 201.53 219.179 200.99 219.779 200.75C220.379 200.45 221.039 200.45 221.639 200.63L233.639 204.77C234.899 205.19 235.619 206.63 235.139 207.89L235.079 208.07C234.839 208.67 234.419 209.21 233.819 209.45C233.519 209.57 233.099 209.69 232.739 209.69ZM219.059 202.49C218.699 203.45 219.239 204.53 220.199 204.83L232.199 208.97C233.159 209.33 234.239 208.79 234.539 207.83L234.599 207.65C234.959 206.69 234.419 205.61 233.459 205.31L221.459 201.17C220.979 200.99 220.499 201.05 220.019 201.23C219.599 201.47 219.239 201.83 219.059 202.31V202.49Z" fill="white"/>
<path opacity="0.18" d="M232.979 90.7095L284.279 136.069L278.22 153.589L228.479 102.769L232.979 90.7095Z" fill="white"/>
<path opacity="0.18" d="M225.24 112.79L276.6 158.21L270.54 175.67L223.68 116.99L225.24 112.79Z" fill="white"/>
<path d="M142.86 88.8492L127.26 90.2892C123.96 90.5892 120.96 88.1292 120.66 84.8292L119.34 70.6092C119.04 67.3092 121.5 64.3092 124.8 64.0092L140.4 62.5692C143.7 62.2692 146.7 64.7292 147 68.0292L148.32 82.2492C148.62 85.5492 146.16 88.5492 142.86 88.8492Z" fill="#E39D29"/>
<path d="M143.101 86.6894L128.701 88.0694C125.641 88.3694 122.881 86.0894 122.641 83.0294L121.441 69.9494C121.141 66.8894 123.421 64.1294 126.481 63.8894L140.881 62.5094C143.941 62.2094 146.701 64.4894 146.941 67.5494L148.141 80.6294C148.441 83.6894 146.161 86.3894 143.101 86.6894Z" fill="#F6AC3B"/>
<path d="M129.961 82.4293C129.901 82.4293 129.841 82.4293 129.841 82.4293L129.661 82.3693V82.1893C129.421 80.0893 130.381 77.9893 132.061 76.7293C130.981 76.0093 130.261 74.8693 130.081 73.5493C129.781 71.1493 131.521 68.9293 133.981 68.6893C135.181 68.5693 136.321 68.8693 137.221 69.5893C138.121 70.3093 138.721 71.3893 138.841 72.5293C139.021 73.8493 138.541 75.1093 137.641 76.0693C139.621 76.8493 141.001 78.7093 141.241 80.8093V80.9893L141.121 81.1093C140.941 81.2893 131.161 82.4293 129.961 82.4293ZM134.521 69.2293C134.401 69.2293 134.221 69.2293 134.101 69.2293C132.001 69.4693 130.501 71.3893 130.741 73.4293C130.861 74.6893 131.641 75.8293 132.841 76.4293L133.321 76.6693L132.841 76.9693C131.161 77.9893 130.141 79.8493 130.261 81.8293C131.761 81.7093 139.201 80.8693 140.641 80.6293C140.341 78.7093 138.901 77.0893 137.041 76.4893L136.501 76.3093L136.921 75.9493C137.941 75.1093 138.421 73.8493 138.301 72.5893C138.181 71.5693 137.701 70.6693 136.861 70.0693C136.201 69.5293 135.361 69.2293 134.521 69.2293Z" fill="white"/>
<path d="M242.819 247.729L208.499 236.929C207.719 236.689 206.879 237.109 206.639 237.889L205.499 241.609L204.959 243.409L199.379 261.169L198.899 262.729L198.839 262.969C198.599 263.749 199.019 264.589 199.799 264.829L234.119 275.629C234.899 275.869 235.739 275.449 235.979 274.669L236.099 274.369L236.519 272.989L242.579 253.789L243.119 251.989L243.839 249.649C244.019 248.869 243.599 247.969 242.819 247.729Z" fill="white"/>
<path d="M217.559 253.489L220.679 256.669C220.859 256.849 221.159 256.909 221.399 256.909L241.199 252.349L242.699 251.989C242.819 251.989 242.939 251.989 242.999 251.989L243.719 249.649C243.959 248.869 243.539 248.029 242.759 247.789L208.439 236.989C207.659 236.749 206.819 237.169 206.579 237.949L205.439 241.669L206.219 242.389L217.559 253.489Z" fill="#4E69FF"/>
<path d="M204.84 243.409L199.26 261.169L216 254.389L204.84 243.409Z" fill="#4E69FF"/>
<path d="M236.46 272.989L242.46 253.789L226.56 257.449L236.46 272.989Z" fill="#4E69FF"/>
<path d="M235.08 274.009L224.76 257.869L221.76 258.589C221.34 258.709 220.92 258.649 220.5 258.529C220.14 258.409 219.78 258.229 219.48 257.929L217.26 255.709C217.2 255.769 217.14 255.769 217.08 255.829L199.56 262.909C199.38 262.969 199.2 262.969 198.96 262.909C198.84 262.849 198.78 262.849 198.66 262.729L198.6 262.969C198.36 263.749 198.78 264.589 199.56 264.829L233.88 275.629C234.66 275.869 235.5 275.449 235.74 274.669L235.86 274.369C235.68 274.429 235.56 274.429 235.38 274.369C235.38 274.309 235.2 274.189 235.08 274.009Z" fill="#4E69FF"/>
<path d="M220.679 152.51L207.419 158.21C204.599 159.41 201.299 158.09 200.099 155.27L194.879 143.21C193.679 140.39 194.999 137.09 197.819 135.89L211.079 130.19C213.899 128.99 217.199 130.31 218.399 133.13L223.619 145.19C224.819 148.01 223.499 151.31 220.679 152.51Z" fill="#E39D29"/>
<path d="M220.079 151.01L206.819 156.71C203.999 157.91 200.699 156.59 199.499 153.77L194.279 141.71C193.079 138.89 194.399 135.59 197.219 134.39L210.479 128.69C213.299 127.49 216.599 128.81 217.799 131.63L223.019 143.69C224.219 146.51 222.899 149.81 220.079 151.01Z" fill="#F6AC3B"/>
<path d="M208.68 147.71C206.76 147.71 204.9 146.57 204.12 144.71C203.04 142.19 204.18 139.25 206.7 138.17C207.9 137.63 209.28 137.63 210.48 138.11C211.74 138.59 212.7 139.55 213.24 140.75C213.78 141.95 213.78 143.33 213.3 144.53C212.82 145.79 211.86 146.75 210.66 147.29C210 147.59 209.34 147.71 208.68 147.71ZM208.62 138.35C208.02 138.35 207.42 138.47 206.88 138.71C204.66 139.67 203.64 142.25 204.6 144.47C205.56 146.69 208.14 147.71 210.36 146.75C211.44 146.27 212.28 145.43 212.7 144.35C213.12 143.27 213.12 142.07 212.64 140.99C212.16 139.91 211.32 139.07 210.24 138.65C209.76 138.47 209.22 138.35 208.62 138.35Z" fill="white"/>
<path d="M298.08 151.549L277.5 149.749C273.12 149.389 269.88 145.489 270.24 141.109L271.86 122.389C272.22 118.009 276.12 114.769 280.5 115.129L301.08 116.929C305.46 117.289 308.7 121.189 308.34 125.569L306.72 144.289C306.36 148.669 302.46 151.969 298.08 151.549Z" fill="#E39D29"/>
<path d="M300.54 149.449L279.96 147.649C275.58 147.289 272.34 143.389 272.7 139.009L274.32 120.289C274.68 115.909 278.58 112.669 282.96 113.029L303.54 114.829C307.92 115.189 311.16 119.089 310.8 123.469L309.18 142.189C308.82 146.569 304.92 149.869 300.54 149.449Z" fill="#F6AC3B"/>
<path d="M291.359 140.929C291.239 140.929 291.119 140.929 290.999 140.929C289.079 140.749 287.519 139.189 287.339 137.269L287.279 136.909L295.439 137.689L295.319 138.049C294.719 139.729 293.099 140.929 291.359 140.929ZM287.939 137.569C288.239 139.069 289.499 140.209 291.059 140.329C292.619 140.449 294.059 139.609 294.599 138.169L287.939 137.569Z" fill="white"/>
<path d="M297.3 138.409C297.18 138.409 297.06 138.409 296.94 138.409L285.54 137.329C283.44 137.149 281.82 135.229 282.06 133.129C282.24 131.329 283.62 129.889 285.36 129.649L285.72 125.929C286.08 122.269 289.32 119.569 292.98 119.929C296.64 120.289 299.28 123.529 298.98 127.189L298.62 130.909C300.3 131.509 301.38 133.129 301.2 134.929C301.08 135.949 300.6 136.909 299.82 137.569C299.04 138.109 298.2 138.409 297.3 138.409ZM292.32 120.529C289.26 120.529 286.62 122.869 286.32 125.989L285.9 130.189H285.66C284.1 130.309 282.84 131.569 282.66 133.129C282.48 134.929 283.8 136.549 285.6 136.669L297 137.749C297.9 137.809 298.74 137.569 299.4 137.029C300.06 136.489 300.48 135.709 300.6 134.809C300.72 133.249 299.76 131.749 298.2 131.329L297.96 131.269L298.38 127.069C298.68 123.769 296.22 120.829 292.92 120.469C292.68 120.529 292.5 120.529 292.32 120.529Z" fill="white"/>
<path d="M177.84 211.969L104.22 244.249C100.86 245.749 96.96 244.189 95.46 240.829L82.68 211.729C81.18 208.369 82.74 204.469 86.1 202.969L159.72 170.629C163.08 169.129 166.98 170.689 168.48 174.049L181.26 203.149C182.7 206.569 181.2 210.469 177.84 211.969Z" fill="#465BD3"/>
<path d="M177.96 207.049L103.08 239.929C100.8 240.949 98.0998 239.869 97.0798 237.589L84.4198 208.729C83.3998 206.449 84.4798 203.749 86.7598 202.729L161.64 169.849C163.92 168.829 166.62 169.909 167.64 172.189L180.3 201.049C181.32 203.329 180.24 206.029 177.96 207.049Z" fill="#4E69FF"/>
<path opacity="0.44" d="M116.592 198.177L94.5078 207.873L104.204 229.957L126.288 220.261L116.592 198.177Z" fill="white"/>
<path d="M126.3 200.209C126.06 200.209 125.82 200.089 125.76 199.849C125.64 199.549 125.76 199.189 126.06 199.069L159 184.609C159.3 184.489 159.66 184.609 159.78 184.909C159.9 185.209 159.78 185.569 159.48 185.689L126.54 200.149C126.48 200.209 126.36 200.209 126.3 200.209Z" fill="white"/>
<path d="M133.62 216.95C133.38 216.95 133.14 216.83 133.08 216.59C132.96 216.29 133.08 215.93 133.38 215.81L166.32 201.35C166.62 201.23 166.98 201.35 167.1 201.65C167.22 201.95 167.1 202.31 166.8 202.43L133.86 216.89C133.8 216.95 133.74 216.95 133.62 216.95Z" fill="white"/>
<path d="M129.96 208.61C129.72 208.61 129.48 208.49 129.42 208.25C129.3 207.95 129.42 207.59 129.72 207.47L147.12 199.85C147.42 199.73 147.78 199.85 147.9 200.15C148.02 200.45 147.9 200.81 147.6 200.93L130.2 208.55C130.14 208.55 130.02 208.61 129.96 208.61Z" fill="white"/>
<path d="M151.38 199.189C151.14 199.189 150.9 199.069 150.84 198.829C150.72 198.529 150.84 198.169 151.14 198.049L162.66 193.009C162.96 192.889 163.32 193.009 163.44 193.309C163.56 193.609 163.44 193.969 163.14 194.089L151.62 199.129C151.56 199.189 151.44 199.189 151.38 199.189Z" fill="white"/>
<path d="M304.26 222.709C304.5 228.949 297.6 242.569 294.18 248.149C293.52 249.229 291.12 250.489 289.26 248.149C285.18 242.989 276.12 230.089 275.88 223.849C275.58 215.989 281.64 209.389 289.5 209.089C297.36 208.789 303.96 214.909 304.26 222.709Z" fill="#E39D29"/>
<path d="M305.82 221.989C306.06 228.229 297.66 242.629 294.24 248.209C293.58 249.289 291.96 249.409 291.18 248.329C287.28 243.049 277.68 229.429 277.44 223.189C277.14 215.329 283.2 208.729 291.06 208.429C298.86 208.069 305.46 214.129 305.82 221.989Z" fill="#F6AC3B"/>
<path d="M300 221.989C300.18 226.609 296.58 230.569 291.96 230.749C287.34 230.929 283.38 227.329 283.2 222.709C283.02 218.089 286.62 214.129 291.24 213.949C295.92 213.709 299.82 217.309 300 221.989Z" fill="white"/>
</svg>
