<svg width="407" height="300" viewBox="0 0 407 300" fill="none" xmlns="http://www.w3.org/2000/svg">
<g clip-path="url(#clip0)">
<path d="M157.478 44.7639C157.333 45.0533 157.623 73.5604 157.623 73.5604H159.941L160.738 44.7639H157.478Z" fill="#739AF0"/>
<path d="M160.158 69.7257L157.478 69.8704V73.9222L154.436 75.4416L154.508 78.1186L156.464 80.868L156.536 77.0333L158.999 75.731L161.1 76.8886L161.028 80.9404L163.201 78.2633L163.056 75.8757L160.231 73.7774L160.158 69.7257Z" fill="#739AF0"/>
<path d="M145.668 48.7433L122.197 76.961C120.096 79.4933 116.329 79.8551 113.721 77.7568L112.635 76.8886C110.099 74.7904 109.737 71.028 111.838 68.4233L135.309 40.2056C137.41 37.6733 141.177 37.3115 143.785 39.4098L144.872 40.278C147.407 42.3762 147.769 46.2109 145.668 48.7433Z" fill="#739AF0"/>
<path d="M159.216 49.105H138.281C136.18 49.105 134.514 47.4409 134.514 45.3427V44.4745C134.514 42.3762 136.18 40.7121 138.281 40.7121H159.216C161.317 40.7121 162.983 42.3762 162.983 44.4745V45.3427C162.983 47.4409 161.317 49.105 159.216 49.105Z" fill="#739AF0"/>
<path d="M119.736 123.629H117.78C113.144 123.629 109.377 119.866 109.377 115.236V72.9092C109.377 68.2786 113.144 64.5162 117.78 64.5162H119.736C124.372 64.5162 128.139 68.2786 128.139 72.9092V115.236C128.212 119.866 124.445 123.629 119.736 123.629Z" fill="#739AF0"/>
<path d="M123.575 114.657C123.575 117.189 121.474 119.287 118.939 119.287C116.404 119.287 114.303 117.189 114.303 114.657C114.303 112.125 116.404 110.026 118.939 110.026C121.547 110.026 123.575 112.125 123.575 114.657Z" fill="#739AF0"/>
<path d="M123.433 72.6198C123.433 75.1521 121.332 77.2503 118.796 77.2503C116.261 77.2503 114.16 75.1521 114.16 72.6198C114.16 70.0874 116.261 67.9892 118.796 67.9892C121.332 67.9892 123.433 70.0151 123.433 72.6198Z" fill="#739AF0"/>
<path d="M139.294 47.7303C140.854 47.7303 142.119 46.467 142.119 44.9086C142.119 43.3501 140.854 42.0868 139.294 42.0868C137.734 42.0868 136.469 43.3501 136.469 44.9086C136.469 46.467 137.734 47.7303 139.294 47.7303Z" fill="#739AF0"/>
<path d="M159.219 46.7898C160.26 46.7898 161.103 45.9475 161.103 44.9086C161.103 43.8696 160.26 43.0274 159.219 43.0274C158.179 43.0274 157.336 43.8696 157.336 44.9086C157.336 45.9475 158.179 46.7898 159.219 46.7898Z" fill="#739AF0"/>
<path d="M320.978 32.3915C321.195 32.7533 320.036 53.7356 320.036 53.7356L317.356 53.6633L317.283 32.2468L320.978 32.3915Z" fill="#739AF0"/>
<path d="M316.054 42.4485L322.356 42.955L322.067 52.4332L329.094 56.3403L328.876 62.635L324.023 68.9297L324.095 59.9579L318.3 56.7744L313.301 59.2344V68.9297L308.303 62.4903L308.737 56.7021L315.547 51.9991L316.054 42.4485Z" fill="#739AF0"/>
<path d="M334.237 37.2392L361.113 69.581C363.504 72.4751 367.85 72.9092 370.748 70.4492L371.98 69.4362C374.877 67.0486 375.312 62.7074 372.849 59.8133L345.973 27.4715C343.582 24.5774 339.236 24.1433 336.338 26.6033L335.107 27.6162C332.281 30.0039 331.847 34.345 334.237 37.2392Z" fill="#739AF0"/>
<path d="M318.663 37.6733H342.641C345.032 37.6733 346.915 35.7197 346.915 33.4044V32.3915C346.915 30.0039 344.959 28.1227 342.641 28.1227H318.663C316.272 28.1227 314.389 30.0762 314.389 32.3915V33.4044C314.389 35.7921 316.345 37.6733 318.663 37.6733Z" fill="#739AF0"/>
<path d="M363.863 123.05H366.109C371.47 123.05 375.744 118.709 375.744 113.427V64.9504C375.744 59.5962 371.397 55.3274 366.109 55.3274H363.863C358.503 55.3274 354.229 59.6686 354.229 64.9504V113.427C354.229 118.709 358.575 123.05 363.863 123.05Z" fill="#739AF0"/>
<path d="M369.703 114.788C370.826 112.095 369.55 109.003 366.854 107.882C364.158 106.76 361.062 108.035 359.939 110.728C358.816 113.421 360.092 116.513 362.788 117.634C365.485 118.755 368.581 117.481 369.703 114.788Z" fill="#739AF0"/>
<path d="M365.025 69.8703C367.945 69.8703 370.313 67.5056 370.313 64.5886C370.313 61.6715 367.945 59.3068 365.025 59.3068C362.104 59.3068 359.736 61.6715 359.736 64.5886C359.736 67.5056 362.104 69.8703 365.025 69.8703Z" fill="#739AF0"/>
<path d="M341.481 36.1538C343.281 36.1538 344.74 34.6961 344.74 32.8979C344.74 31.0998 343.281 29.6421 341.481 29.6421C339.68 29.6421 338.221 31.0998 338.221 32.8979C338.221 34.6961 339.68 36.1538 341.481 36.1538Z" fill="#739AF0"/>
<path d="M317.138 31.3786C316.269 32.2468 316.269 33.6215 317.138 34.4897C318.008 35.358 319.384 35.358 320.253 34.4897C321.123 33.6215 321.123 32.2468 320.253 31.3786C319.384 30.5103 318.008 30.5103 317.138 31.3786Z" fill="#739AF0"/>
<path d="M79.32 125H396.68C401.263 125 405 121.186 405 116.508V114.492C405 109.814 401.263 106 396.68 106H79.32C74.737 106 71 109.814 71 114.492V116.508C71 121.186 74.737 125 79.32 125Z" fill="#739AF0"/>
<path d="M115.461 115.887C115.461 118.492 117.562 120.662 120.242 120.662C122.85 120.662 125.023 118.564 125.023 115.887C125.023 113.282 122.922 111.112 120.242 111.112C117.634 111.112 115.461 113.21 115.461 115.887Z" fill="#739AF0"/>
<path d="M81.1972 119.866C83.8378 119.866 85.9784 117.728 85.9784 115.091C85.9784 112.454 83.8378 110.316 81.1972 110.316C78.5566 110.316 76.416 112.454 76.416 115.091C76.416 117.728 78.5566 119.866 81.1972 119.866Z" fill="#739AF0"/>
<path d="M158.855 115.887C158.855 118.492 160.956 120.662 163.637 120.662C166.245 120.662 168.418 118.564 168.418 115.887C168.418 113.282 166.317 111.112 163.637 111.112C160.956 111.112 158.855 113.21 158.855 115.887Z" fill="#739AF0"/>
<path d="M202.176 115.887C202.176 118.492 204.277 120.662 206.957 120.662C209.565 120.662 211.738 118.564 211.738 115.887C211.738 113.282 209.637 111.112 206.957 111.112C204.277 111.112 202.176 113.21 202.176 115.887Z" fill="#739AF0"/>
<path d="M245.494 115.887C245.494 118.492 247.595 120.662 250.275 120.662C252.883 120.662 255.056 118.564 255.056 115.887C255.056 113.282 252.956 111.112 250.275 111.112C247.595 111.112 245.494 113.21 245.494 115.887Z" fill="#739AF0"/>
<path d="M288.814 115.887C288.814 118.492 290.915 120.662 293.596 120.662C296.204 120.662 298.377 118.564 298.377 115.887C298.377 113.282 296.276 111.112 293.596 111.112C290.988 111.112 288.814 113.21 288.814 115.887Z" fill="#739AF0"/>
<path d="M332.133 115.887C332.133 118.492 334.234 120.662 336.914 120.662C339.522 120.662 341.695 118.564 341.695 115.887C341.695 113.282 339.594 111.112 336.914 111.112C334.306 111.112 332.133 113.21 332.133 115.887Z" fill="#739AF0"/>
<path d="M391.248 115.887C391.248 118.492 393.349 120.662 396.029 120.662C398.637 120.662 400.81 118.564 400.81 115.887C400.81 113.282 398.71 111.112 396.029 111.112C393.349 111.112 391.248 113.21 391.248 115.887Z" fill="#739AF0"/>
<path d="M336.932 198.721H391.264V124.849H336.932V198.721Z" fill="#739AF0"/>
<path d="M96.4673 200.123H150.799V154.975H96.4673V200.123Z" fill="#739AF0"/>
<path d="M337.431 262.114C337.431 262.168 267.101 262.277 180.329 262.277C93.5562 262.277 23.2266 262.223 23.2266 262.114C23.2266 262.06 93.5562 261.952 180.329 261.952C267.047 261.952 337.431 262.006 337.431 262.114Z" fill="#263238"/>
<path d="M231.659 271.373L231.732 266.526L222.604 266.309L222.459 273.399L223.039 273.472C225.574 273.689 235.788 274.268 237.455 273.761C239.338 273.255 231.659 271.373 231.659 271.373Z" fill="#B67E21"/>
<g opacity="0.4">
<g opacity="0.4">
<path opacity="0.4" d="M225.791 273.399C225.646 272.603 225.284 271.952 224.705 271.446C224.125 270.939 223.328 270.722 222.604 270.722L222.531 273.255L225.791 273.399Z" fill="black"/>
</g>
</g>
<g opacity="0.4">
<g opacity="0.4">
<path opacity="0.4" d="M235.426 272.459C235.426 272.459 238.106 273.327 237.744 273.761C237.382 274.195 227.023 273.978 222.459 273.472V273.255L234.557 273.616C234.629 273.616 234.919 272.459 235.426 272.459Z" fill="black"/>
</g>
</g>
<path d="M222.312 273.255C222.312 273.255 222.385 273.255 222.457 273.255C222.602 273.255 222.747 273.255 222.892 273.327C223.327 273.327 223.906 273.399 224.558 273.399C225.935 273.472 227.891 273.544 229.991 273.616C232.092 273.689 234.048 273.689 235.424 273.616C236.076 273.616 236.656 273.616 237.091 273.616C237.236 273.616 237.38 273.616 237.525 273.616C237.598 273.616 237.67 273.616 237.67 273.616C237.67 273.616 237.598 273.616 237.525 273.616C237.38 273.616 237.236 273.616 237.091 273.616C236.656 273.616 236.076 273.616 235.424 273.616C234.048 273.616 232.092 273.616 229.991 273.544C227.891 273.472 225.935 273.399 224.558 273.399C223.906 273.399 223.327 273.327 222.892 273.327C222.747 273.327 222.602 273.327 222.457 273.327C222.385 273.255 222.312 273.255 222.312 273.255Z" fill="#263238"/>
<path d="M234.626 273.761C234.626 273.761 234.699 273.399 234.916 272.965C235.133 272.603 235.495 272.386 235.495 272.314C235.495 272.314 235.061 272.459 234.844 272.893C234.554 273.327 234.554 273.761 234.626 273.761Z" fill="#263238"/>
<path d="M231.945 272.314C231.945 272.314 232.09 272.169 232.235 271.952C232.38 271.735 232.452 271.591 232.452 271.518C232.452 271.518 232.308 271.663 232.163 271.88C232.018 272.097 231.945 272.314 231.945 272.314Z" fill="#263238"/>
<path d="M231.223 271.88C231.223 271.88 231.368 271.808 231.512 271.663C231.657 271.518 231.802 271.373 231.73 271.373C231.73 271.373 231.585 271.446 231.44 271.59C231.295 271.735 231.223 271.88 231.223 271.88Z" fill="#263238"/>
<path d="M230.789 271.012C230.789 271.012 231.006 271.084 231.296 271.084C231.586 271.084 231.803 271.084 231.803 271.012C231.803 271.012 231.586 270.939 231.296 270.939C231.006 271.012 230.789 271.012 230.789 271.012Z" fill="#263238"/>
<path d="M230.645 270.433C230.645 270.433 230.862 270.578 231.152 270.578C231.441 270.578 231.731 270.578 231.731 270.505C231.731 270.505 231.514 270.505 231.224 270.433C230.862 270.433 230.645 270.433 230.645 270.433Z" fill="#263238"/>
<path d="M232.238 271.518C232.238 271.518 232.456 271.591 232.818 271.518C232.963 271.518 233.18 271.446 233.47 271.374C233.615 271.301 233.687 271.301 233.832 271.229C233.904 271.156 233.977 271.156 233.977 271.084C233.977 271.012 233.977 270.867 233.904 270.867C233.325 270.578 232.818 270.867 232.6 271.156C232.456 271.301 232.456 271.446 232.383 271.518C232.383 271.591 232.383 271.663 232.383 271.663C232.383 271.663 232.456 271.446 232.673 271.156C232.818 271.012 232.963 270.867 233.18 270.867C233.397 270.795 233.687 270.795 233.904 270.939C233.977 271.012 233.977 271.084 233.832 271.156C233.76 271.229 233.615 271.229 233.47 271.301C233.252 271.373 233.035 271.446 232.89 271.446C232.456 271.518 232.238 271.518 232.238 271.518Z" fill="#263238"/>
<path d="M232.379 271.591C232.379 271.591 232.451 271.446 232.451 271.157C232.451 271.012 232.379 270.867 232.306 270.722C232.234 270.578 232.089 270.433 231.799 270.433C231.654 270.433 231.582 270.578 231.582 270.722C231.582 270.795 231.654 270.939 231.654 271.012C231.727 271.157 231.799 271.301 231.944 271.374C232.234 271.518 232.379 271.591 232.379 271.591C232.306 271.591 232.234 271.446 232.089 271.301C232.017 271.229 231.944 271.084 231.872 270.939C231.799 270.795 231.727 270.578 231.872 270.578C232.017 270.578 232.162 270.722 232.234 270.867C232.306 271.012 232.379 271.156 232.379 271.229C232.451 271.446 232.379 271.591 232.379 271.591Z" fill="#263238"/>
<path d="M222.602 270.722C222.602 270.722 222.891 270.722 223.254 270.795C223.688 270.867 224.195 271.012 224.702 271.446C225.209 271.88 225.499 272.386 225.572 272.748C225.716 273.11 225.717 273.399 225.717 273.399C225.717 273.399 225.717 273.327 225.717 273.182C225.717 273.038 225.717 272.893 225.644 272.676C225.499 272.242 225.282 271.735 224.775 271.301C224.268 270.867 223.688 270.722 223.254 270.65C223.036 270.65 222.891 270.65 222.746 270.65C222.674 270.722 222.602 270.722 222.602 270.722Z" fill="#263238"/>
<path d="M223.615 266.96C223.615 266.96 223.542 267.828 223.47 268.841C223.47 269.854 223.397 270.722 223.47 270.722C223.47 270.722 223.542 269.854 223.615 268.841C223.615 267.828 223.615 266.96 223.615 266.96Z" fill="#263238"/>
<path d="M226.949 272.604C226.949 272.604 227.529 272.748 228.253 272.748C228.978 272.748 229.557 272.676 229.557 272.676C229.557 272.676 228.978 272.676 228.253 272.676C227.529 272.603 226.949 272.531 226.949 272.604Z" fill="#263238"/>
<path d="M225.141 272.531C225.141 272.531 225.213 272.676 225.213 272.821C225.286 272.965 225.286 273.11 225.358 273.11C225.358 273.11 225.43 272.965 225.358 272.821C225.286 272.604 225.141 272.531 225.141 272.531Z" fill="#263238"/>
<path d="M224.488 271.663C224.488 271.663 224.488 271.808 224.633 271.88C224.706 271.952 224.85 272.025 224.85 272.025C224.85 272.025 224.85 271.88 224.706 271.808C224.633 271.735 224.488 271.663 224.488 271.663Z" fill="#263238"/>
<path d="M223.545 271.301C223.545 271.301 223.69 271.301 223.835 271.374C223.98 271.446 224.052 271.518 224.052 271.446C224.052 271.446 223.98 271.301 223.835 271.229C223.69 271.229 223.545 271.229 223.545 271.301Z" fill="#263238"/>
<path d="M222.891 271.084C222.891 271.084 222.963 271.157 223.036 271.157C223.108 271.157 223.18 271.157 223.18 271.157C223.18 271.157 223.108 271.084 223.036 271.084C222.963 271.084 222.891 271.084 222.891 271.084Z" fill="#263238"/>
<path d="M196.095 267.683L197.399 263.053L206.164 265.513L204.281 272.386L203.701 272.242C201.238 271.735 191.241 269.348 189.793 268.407C188.199 267.249 196.095 267.683 196.095 267.683Z" fill="#B67E21"/>
<g opacity="0.4">
<g opacity="0.4">
<path opacity="0.4" d="M201.164 271.301C201.526 270.578 202.106 270.071 202.83 269.782C203.555 269.492 204.351 269.42 205.076 269.709L204.424 272.169L201.164 271.301Z" fill="black"/>
</g>
</g>
<g opacity="0.4">
<g opacity="0.4">
<path opacity="0.4" d="M192.178 267.611C192.178 267.611 189.353 267.611 189.571 268.19C189.788 268.696 199.785 271.518 204.276 272.314L204.349 272.097L192.613 268.913C192.613 268.913 192.686 267.756 192.178 267.611Z" fill="black"/>
</g>
</g>
<path d="M204.493 272.097C204.493 272.097 204.421 272.097 204.348 272.097C204.203 272.097 204.059 272.025 203.914 272.025C203.479 271.952 202.972 271.808 202.32 271.663C200.944 271.301 199.06 270.867 197.032 270.288C195.003 269.709 193.12 269.131 191.816 268.769C191.164 268.552 190.657 268.407 190.222 268.262C190.077 268.19 189.932 268.19 189.787 268.118C189.715 268.118 189.643 268.045 189.643 268.045C189.643 268.045 189.715 268.045 189.787 268.118C189.932 268.19 190.077 268.19 190.222 268.262C190.657 268.407 191.164 268.552 191.816 268.769C193.12 269.203 195.003 269.709 197.032 270.288C199.06 270.867 200.944 271.373 202.32 271.663C202.972 271.808 203.479 271.952 203.914 272.097C204.059 272.169 204.203 272.169 204.348 272.242C204.421 272.097 204.493 272.097 204.493 272.097Z" fill="#263238"/>
<path d="M192.612 269.058C192.612 269.058 192.685 268.696 192.54 268.19C192.395 267.756 192.105 267.466 192.177 267.394C192.177 267.394 192.54 267.611 192.685 268.118C192.757 268.696 192.612 269.058 192.612 269.058Z" fill="#263238"/>
<path d="M195.585 268.479C195.585 268.479 195.44 268.335 195.367 268.045C195.295 267.828 195.295 267.611 195.295 267.611C195.295 267.611 195.44 267.756 195.512 268.045C195.512 268.262 195.585 268.479 195.585 268.479Z" fill="#263238"/>
<path d="M196.381 268.262C196.381 268.262 196.236 268.118 196.164 267.973C196.019 267.828 195.946 267.611 196.019 267.611C196.019 267.611 196.164 267.756 196.236 267.901C196.308 268.118 196.381 268.262 196.381 268.262Z" fill="#263238"/>
<path d="M197.032 267.611C197.032 267.611 196.814 267.611 196.524 267.539C196.235 267.466 196.09 267.394 196.09 267.394C196.09 267.394 196.307 267.394 196.597 267.466C196.887 267.466 197.032 267.539 197.032 267.611Z" fill="#263238"/>
<path d="M197.393 267.032C197.393 267.032 197.176 267.105 196.814 267.032C196.524 266.96 196.307 266.815 196.307 266.815C196.307 266.815 196.524 266.888 196.814 266.96C197.104 267.032 197.393 267.032 197.393 267.032Z" fill="#263238"/>
<path d="M195.439 267.611C195.439 267.611 195.222 267.611 194.86 267.466C194.715 267.394 194.498 267.322 194.28 267.177C194.208 267.105 194.063 267.032 193.99 266.96C193.918 266.888 193.918 266.815 193.918 266.743C193.918 266.671 193.99 266.598 194.063 266.526C194.715 266.381 195.149 266.815 195.222 267.177C195.294 267.322 195.294 267.466 195.294 267.611C195.294 267.684 195.294 267.756 195.294 267.756C195.294 267.756 195.294 267.539 195.149 267.177C195.077 267.032 194.932 266.888 194.787 266.743C194.57 266.598 194.353 266.526 194.135 266.598C194.063 266.671 194.063 266.743 194.135 266.815C194.208 266.888 194.353 266.96 194.425 267.032C194.642 267.177 194.787 267.249 194.932 267.322C195.222 267.539 195.439 267.611 195.439 267.611Z" fill="#263238"/>
<path d="M195.293 267.611C195.293 267.611 195.221 267.466 195.366 267.177C195.438 267.032 195.511 266.888 195.656 266.815C195.801 266.743 195.945 266.598 196.235 266.67C196.38 266.743 196.38 266.888 196.308 266.96C196.235 267.032 196.235 267.105 196.163 267.177C196.018 267.322 195.945 267.394 195.801 267.466C195.511 267.611 195.366 267.611 195.293 267.611C195.366 267.611 195.511 267.539 195.656 267.394C195.728 267.322 195.873 267.249 196.018 267.105C196.163 267.032 196.235 266.815 196.09 266.743C195.945 266.67 195.801 266.815 195.656 266.888C195.511 266.96 195.438 267.105 195.366 267.177C195.294 267.466 195.366 267.611 195.293 267.611Z" fill="#263238"/>
<path d="M204.927 269.637C204.927 269.637 204.71 269.565 204.275 269.492C203.841 269.42 203.261 269.42 202.682 269.709C202.102 269.926 201.667 270.361 201.45 270.722C201.233 271.084 201.16 271.301 201.088 271.301C201.088 271.301 201.088 271.229 201.16 271.156C201.233 271.012 201.305 270.867 201.378 270.722C201.595 270.361 202.03 269.926 202.609 269.637C203.189 269.348 203.841 269.42 204.275 269.492C204.493 269.565 204.638 269.565 204.782 269.637C204.927 269.637 205 269.637 204.927 269.637Z" fill="#263238"/>
<path d="M205.071 265.73C205.071 265.73 204.926 266.526 204.636 267.539C204.346 268.552 204.129 269.348 204.129 269.348C204.129 269.348 204.274 268.552 204.564 267.539C204.781 266.526 205.071 265.73 205.071 265.73Z" fill="#263238"/>
<path d="M200.291 270.143C200.291 270.143 199.712 270.071 198.987 269.926C198.263 269.709 197.756 269.492 197.756 269.492C197.756 269.492 198.335 269.637 199.06 269.854C199.712 269.999 200.291 270.143 200.291 270.143Z" fill="#263238"/>
<path d="M201.96 270.65C201.96 270.65 201.887 270.722 201.815 270.867C201.743 271.012 201.67 271.084 201.598 271.084C201.598 271.084 201.598 270.939 201.67 270.795C201.815 270.65 201.96 270.578 201.96 270.65Z" fill="#263238"/>
<path d="M202.827 269.999C202.827 269.999 202.755 270.071 202.61 270.143C202.465 270.216 202.393 270.216 202.393 270.216C202.393 270.216 202.465 270.143 202.61 270.071C202.755 269.999 202.827 269.999 202.827 269.999Z" fill="#263238"/>
<path d="M203.917 269.926C203.917 269.926 203.773 269.926 203.628 269.926C203.483 269.926 203.41 269.999 203.338 269.926C203.338 269.926 203.41 269.782 203.628 269.782C203.773 269.782 203.917 269.854 203.917 269.926Z" fill="#263238"/>
<path d="M204.565 269.926C204.565 269.926 204.493 269.999 204.42 269.999C204.348 269.999 204.275 269.999 204.275 269.926C204.275 269.926 204.348 269.854 204.42 269.854C204.493 269.854 204.565 269.854 204.565 269.926Z" fill="#263238"/>
<path d="M208.334 178.906C207.682 179.847 193.266 265.151 193.266 265.151L208.334 270.216L221.011 188.891L219.49 269.637L236.151 269.926L233.688 178.906H208.334Z" fill="#263238"/>
<path d="M190.006 115.453L187.688 121.747H187.616L180.951 137.593C178.923 141.355 178.706 147.288 184.863 149.386C189.717 151.05 200.003 146.347 200.003 146.347L198.772 137.448L188.847 140.415L192.759 123.99C192.759 123.99 193.121 123.412 193.918 121.675L197.178 118.419C197.178 118.419 197.033 117.479 195.44 118.853C194.715 119.505 193.266 118.636 193.918 117.479C194.57 116.321 196.309 116.321 196.961 117.84C196.961 117.84 197.54 118.13 197.83 117.623C198.048 117.189 197.033 115.453 195.657 115.453C194.788 115.453 194.063 115.815 194.063 115.815C194.063 115.815 195.657 111.835 195.295 111.69C195.005 111.546 194.425 111.618 192.759 116.032C192.759 116.032 193.773 112.486 193.846 111.98C193.918 111.546 193.411 111.039 192.977 112.124C192.904 112.269 191.6 115.67 191.6 115.67C191.6 115.67 191.962 113.282 191.962 113.065C192.035 112.559 191.528 112.414 191.238 113.065C190.876 113.427 190.006 115.453 190.006 115.453Z" fill="#FFBE9D"/>
<path d="M233.4 147.795L235.646 153.004L242.31 143.236L236.587 132.166C233.979 129.562 226.228 129.417 224.924 129.272C221.809 130.213 218.694 130.213 215.579 129.272C214.13 129.345 212.899 129.562 211.74 129.996C209.349 130.864 204.496 132.745 205.22 132.456L188.703 140.415L192.832 125.365L186.168 122.471C186.168 122.471 176.895 139.112 178.851 145.479C180.59 151.05 187.617 150.761 189.428 150.616L189.79 150.544C189.862 150.544 189.862 150.544 189.862 150.544L207.973 148.156V159.009L196.962 228.613L237.964 230.494L233.835 157.128L233.4 147.795Z" fill="#4D6672"/>
<path d="M219.42 228.613C219.42 228.613 219.42 228.54 219.42 228.396C219.42 228.251 219.42 228.034 219.42 227.817C219.42 227.31 219.42 226.587 219.42 225.646C219.42 223.765 219.42 221.016 219.492 217.687C219.565 210.959 219.782 201.625 219.999 191.351C220.217 181.077 220.434 171.743 220.651 165.015C220.724 161.686 220.796 158.937 220.869 157.056C220.869 156.115 220.941 155.392 220.941 154.885C220.941 154.668 220.941 154.451 220.941 154.306C220.941 154.162 220.941 154.089 220.941 154.089C220.941 154.089 220.941 154.162 220.941 154.306C220.941 154.451 220.941 154.668 220.941 154.885C220.941 155.392 220.941 156.115 220.941 157.056C220.941 158.937 220.941 161.686 220.869 165.015C220.796 171.743 220.579 181.077 220.362 191.351C220.144 201.625 219.927 210.959 219.71 217.687C219.637 221.016 219.565 223.765 219.492 225.646C219.492 226.587 219.42 227.31 219.42 227.817C219.42 228.034 219.42 228.251 219.42 228.396C219.492 228.54 219.42 228.613 219.42 228.613Z" fill="#263238"/>
<path d="M229.417 115.236C230.214 114.512 231.446 114.657 232.532 114.729C233.329 114.802 234.271 115.019 234.706 115.67C235.43 116.755 234.561 118.275 235.068 119.432C235.575 120.662 237.241 120.879 238.328 121.603C239.197 122.182 239.849 123.195 239.849 124.28C239.922 125.365 239.414 126.45 238.618 127.102C239.922 128.621 240.646 130.719 240.429 132.673C240.284 134.699 239.125 136.58 237.459 137.665C235.575 138.823 233.184 138.823 231.084 138.244C229.49 137.81 227.969 136.869 227.172 135.422C226.52 134.265 226.52 132.817 226.592 131.515C226.737 129.706 227.172 127.825 228.331 126.523C228.693 126.089 229.128 125.727 229.417 125.293C229.707 124.859 229.925 124.207 229.707 123.701C229.49 123.267 229.128 122.977 228.91 122.543C228.693 121.965 228.983 121.241 229.417 120.735C229.852 120.228 230.359 119.794 230.649 119.215C230.939 118.636 230.866 117.84 230.504 117.334C230.142 116.755 229.49 116.393 228.838 116.393" fill="#263238"/>
<path d="M225.867 121.096C227.461 120.373 228.692 118.926 229.272 117.334C229.779 115.67 229.634 113.789 228.765 112.269H224.273L225.867 121.096Z" fill="#263238"/>
<path d="M214.637 129.2C214.565 129.2 220.94 154.234 220.94 154.234L227.46 129.417C227.46 129.417 216.593 128.766 214.637 129.2Z" fill="#263238"/>
<path d="M221.015 134.265C218.407 134.265 216.233 132.166 216.233 129.489C216.233 127.463 216.233 125.51 216.233 125.51C216.233 125.51 212.611 124.931 212.539 121.313C212.466 117.696 213.118 109.303 213.118 109.303C217.32 107.494 222.174 108.073 225.796 110.895L226.303 111.329L225.723 129.562C225.723 132.239 223.622 134.265 221.015 134.265Z" fill="#FFBE9D"/>
<path d="M214.493 115.815C214.711 115.597 214.711 115.308 214.566 115.091C214.348 114.874 214.059 114.874 213.841 115.019C213.624 115.236 213.624 115.525 213.769 115.742C213.914 115.959 214.276 115.959 214.493 115.815Z" fill="#263238"/>
<path d="M213.047 114.802C213.119 114.874 213.482 114.585 213.989 114.585C214.496 114.585 214.858 114.874 214.93 114.802C214.93 114.802 214.93 114.657 214.713 114.512C214.568 114.367 214.278 114.295 213.989 114.295C213.699 114.295 213.409 114.44 213.264 114.512C213.119 114.657 213.047 114.729 213.047 114.802Z" fill="#263238"/>
<path d="M219.131 115.308C218.914 115.453 218.769 115.815 218.986 116.032C219.131 116.249 219.494 116.393 219.711 116.176C219.928 116.032 220.073 115.67 219.856 115.453C219.711 115.236 219.421 115.163 219.131 115.308Z" fill="#263238"/>
<path d="M218.553 115.236C218.625 115.308 218.987 115.019 219.494 115.019C220.001 115.019 220.364 115.308 220.436 115.236C220.436 115.236 220.436 115.091 220.219 114.946C220.074 114.802 219.784 114.729 219.494 114.729C219.205 114.729 218.915 114.874 218.77 114.946C218.553 115.091 218.48 115.163 218.553 115.236Z" fill="#263238"/>
<path d="M216.521 119.36C216.521 119.287 216.232 119.287 215.725 119.215C215.58 119.215 215.507 119.143 215.507 119.07C215.507 118.998 215.507 118.853 215.58 118.709C215.725 118.347 215.869 118.057 215.942 117.696C216.521 116.249 216.884 115.019 216.811 115.019C216.739 115.019 216.232 116.176 215.652 117.623C215.507 117.985 215.435 118.347 215.29 118.636C215.218 118.781 215.145 118.998 215.218 119.215C215.218 119.287 215.362 119.432 215.435 119.432C215.507 119.432 215.58 119.432 215.652 119.432C216.159 119.36 216.521 119.36 216.521 119.36Z" fill="#263238"/>
<path d="M216.231 125.51C216.231 125.51 218.549 125.727 220.939 124.135C220.939 124.135 219.853 126.74 216.158 126.45L216.231 125.51Z" fill="#936050"/>
<path d="M225.94 115.67C226.013 115.67 228.041 115.236 228.041 117.623C228.041 120.083 225.578 119.215 225.578 119.143L225.94 115.67Z" fill="#FFBE9D"/>
<path d="M226.301 118.347C226.301 118.347 226.373 118.347 226.446 118.419C226.518 118.419 226.663 118.492 226.735 118.419C227.025 118.347 227.243 117.913 227.243 117.479C227.243 117.262 227.17 117.045 227.098 116.9C227.025 116.755 226.88 116.61 226.808 116.538C226.663 116.538 226.591 116.61 226.591 116.683C226.591 116.755 226.591 116.827 226.591 116.827C226.591 116.827 226.518 116.755 226.591 116.683C226.591 116.61 226.663 116.61 226.663 116.538C226.735 116.466 226.808 116.466 226.88 116.466C227.098 116.466 227.243 116.683 227.315 116.827C227.387 117.045 227.46 117.262 227.46 117.479C227.46 117.985 227.17 118.419 226.808 118.492C226.663 118.564 226.518 118.492 226.446 118.419C226.301 118.419 226.301 118.347 226.301 118.347Z" fill="#936050"/>
<path d="M213.121 109.158C213.845 110.46 215.366 111.112 216.815 111.184C218.264 111.256 219.713 110.822 221.089 110.46C221.886 110.243 222.755 110.099 223.335 110.677C223.697 111.039 223.77 111.473 223.842 111.98C223.987 112.993 223.987 114.006 223.914 115.019C223.842 115.453 223.842 115.815 223.914 116.249C223.987 116.61 224.349 117.045 224.711 117.045C225.363 117.117 226.088 116.032 226.305 115.453C226.595 114.585 226.522 114.078 226.667 113.21C226.74 112.342 226.667 111.401 226.233 110.605C225.725 109.737 224.784 109.23 223.842 108.796C222.031 107.928 220.075 107.277 218.047 107.277C216.018 107.277 213.917 107.928 212.541 109.375" fill="#263238"/>
<path d="M218.262 120.011C218.117 119.722 217.683 119.649 217.393 119.794C217.103 119.939 216.886 120.228 216.813 120.59C216.741 120.735 216.741 120.879 216.886 121.024C216.958 121.096 217.031 121.096 217.103 121.096C217.32 121.096 217.61 121.096 217.827 121.024C218.045 120.952 218.262 120.807 218.407 120.59C218.552 120.373 218.479 120.083 218.334 119.939" fill="#936050"/>
<path d="M228.91 112.703H211.379C210.872 112.703 210.438 112.269 210.438 111.763C210.438 111.256 210.872 110.822 211.379 110.822H228.91C229.417 110.822 229.852 111.256 229.852 111.763C229.852 112.342 229.417 112.703 228.91 112.703Z" fill="#B67E21"/>
<path d="M228.331 111.112H211.959V109.809C211.959 105.323 215.581 101.633 220.145 101.633C224.636 101.633 228.331 105.251 228.331 109.809V111.112Z" fill="#E39D29"/>
<path d="M221.231 101.706H218.695V111.473H221.231V101.706Z" fill="#B67E21"/>
<path d="M218.624 110.967C218.551 110.967 218.406 108.869 218.406 106.336C218.406 103.804 218.479 101.706 218.624 101.706C218.696 101.706 218.841 103.804 218.841 106.336C218.768 108.869 218.696 110.967 218.624 110.967Z" fill="#263238"/>
<path d="M221.159 110.967C221.086 110.967 220.941 108.869 220.941 106.336C220.941 103.804 221.014 101.706 221.159 101.706C221.231 101.706 221.376 103.804 221.376 106.336C221.304 108.869 221.231 110.967 221.159 110.967Z" fill="#263238"/>
<path d="M228.55 110.822C228.55 110.895 224.783 111.039 220.22 111.039C215.583 111.039 211.889 110.967 211.889 110.822C211.889 110.75 215.656 110.605 220.22 110.605C224.856 110.678 228.55 110.75 228.55 110.822Z" fill="#263238"/>
<g opacity="0.2">
<path opacity="0.2" d="M221.158 101.633C221.158 104.745 221.158 107.783 221.158 110.895L222.39 101.995L221.158 101.633Z" fill="black"/>
</g>
<g opacity="0.6">
<path opacity="0.6" d="M217.538 103.225C217.538 103.297 217.103 103.442 216.451 103.804C215.799 104.166 214.93 104.817 214.278 105.757C213.554 106.698 213.191 107.639 212.974 108.362C212.757 109.086 212.757 109.592 212.684 109.592C212.612 109.592 212.612 109.086 212.757 108.362C212.902 107.566 213.336 106.553 214.061 105.613C214.785 104.672 215.727 104.021 216.451 103.659C217.031 103.225 217.538 103.153 217.538 103.225Z" fill="white"/>
</g>
<path d="M218.697 119.722C218.769 119.794 218.407 120.228 217.755 120.662C217.103 121.024 216.524 121.169 216.524 121.096C216.451 121.024 217.031 120.735 217.61 120.373C218.19 119.939 218.625 119.577 218.697 119.722Z" fill="#263238"/>
<path d="M244.849 189.18C244.849 189.253 235.214 189.398 223.334 189.398C211.453 189.398 201.818 189.325 201.818 189.18C201.818 189.036 211.453 188.963 223.334 188.963C235.214 188.963 244.849 189.108 244.849 189.18Z" fill="#263238"/>
<path d="M244.486 211.972C244.486 212.044 234.851 212.189 222.97 212.189C211.09 212.189 201.455 212.116 201.455 211.972C201.455 211.827 211.09 211.755 222.97 211.755C234.851 211.755 244.486 211.827 244.486 211.972Z" fill="#263238"/>
<path d="M229.705 114.729C229.777 114.729 229.922 115.163 229.849 115.742C229.777 116.321 229.487 116.755 229.415 116.683C229.342 116.61 229.415 116.176 229.487 115.67C229.487 115.236 229.56 114.729 229.705 114.729Z" fill="#E8505B"/>
<path d="M191.098 152.642L194.575 167.402L216.235 166.968L212.975 152.208L191.098 152.642Z" fill="#263238"/>
<path d="M208.406 158.358H214.274V156.26C214.274 156.26 218.548 156.26 219.562 159.588V164.725H215.505C213.115 164.725 211.086 162.916 210.869 160.456C210.869 160.456 207.899 160.095 208.406 158.358Z" fill="#FFBE9D"/>
<path d="M248.686 156.26L242.094 142.73L233.763 148.59L236.588 155.03L218.043 156.766V165.232C218.405 165.304 232.024 165.304 241.08 165.232C245.426 165.232 248.976 161.686 248.976 157.273C248.976 156.983 248.831 156.622 248.686 156.26Z" fill="#455A64"/>
<path d="M238.397 165.232C238.397 165.304 233.834 165.449 228.183 165.449C222.533 165.449 217.969 165.376 217.969 165.232C217.969 165.159 222.533 165.015 228.183 165.015C233.834 165.015 238.397 165.159 238.397 165.232Z" fill="#263238"/>
<path d="M236.59 155.03C236.59 155.03 236.3 155.102 235.865 155.175C235.431 155.247 234.706 155.319 233.909 155.464C232.243 155.681 229.925 155.898 227.39 156.187C224.854 156.477 222.536 156.694 220.87 156.839C220 156.911 219.349 156.983 218.914 156.983C218.479 156.983 218.189 156.983 218.189 156.983C218.189 156.983 218.407 156.911 218.914 156.839C219.349 156.766 220.073 156.694 220.87 156.549C222.536 156.332 224.854 156.115 227.39 155.826C229.925 155.536 232.243 155.319 233.909 155.175C234.779 155.102 235.431 155.03 235.865 155.03C236.3 155.03 236.59 154.958 236.59 155.03Z" fill="#263238"/>
<path d="M239.34 158.575C239.268 158.647 238.689 157.779 237.892 156.766C237.095 155.753 236.443 154.957 236.515 154.885C236.588 154.813 237.385 155.464 238.254 156.549C238.978 157.562 239.413 158.503 239.34 158.575Z" fill="#263238"/>
<path d="M240.57 156.549C240.498 156.622 239.701 156.043 238.614 155.609C237.528 155.175 236.586 155.03 236.586 154.957C236.586 154.885 237.6 154.813 238.759 155.319C239.991 155.681 240.643 156.477 240.57 156.549Z" fill="#263238"/>
<path d="M202.32 157.852C202.68 157.852 202.972 157.56 202.972 157.2C202.972 156.841 202.68 156.549 202.32 156.549C201.96 156.549 201.668 156.841 201.668 157.2C201.668 157.56 201.96 157.852 202.32 157.852Z" fill="#455A64"/>
<path d="M231.804 146.13H225.574V147.795H231.804V146.13Z" fill="#B67E21"/>
<path d="M184.862 145.19C184.79 145.117 185.514 143.96 186.601 142.657C187.615 141.355 188.557 140.27 188.629 140.342C188.702 140.415 187.977 141.572 186.891 142.875C185.804 144.249 184.935 145.262 184.862 145.19Z" fill="#263238"/>
<path d="M184.575 142.658C184.502 142.585 185.299 141.789 186.458 141.066C187.617 140.342 188.704 140.053 188.776 140.125C188.849 140.197 187.835 140.704 186.676 141.427C185.517 142.079 184.647 142.73 184.575 142.658Z" fill="#263238"/>
<path d="M68.7363 150.327C68.8087 150.761 69.2433 151.34 69.5331 151.774C69.7504 152.136 70.1127 152.497 70.4749 152.715C71.1993 153.221 71.7788 153.583 72.141 153.8C72.141 153.8 88.2956 154.668 90.976 154.306C93.6563 153.945 100.973 145.117 100.973 145.117L106.913 151.846C106.913 151.846 101.915 157.996 94.7429 162.12C90.1791 164.797 70.1127 160.022 70.1127 160.022C68.1567 160.167 66.0559 160.239 64.8244 160.167C62.3614 160.022 62.3614 159.805 62.4338 159.516C62.6511 158.792 66.7803 159.66 65.9835 158.937C65.1866 158.213 60.7676 158.43 60.985 157.635C61.2747 156.622 65.6213 157.635 65.9835 157.707C66.3457 157.779 66.4181 157.2 66.1283 157.2C65.6213 157.128 60.5503 156.477 60.8401 155.464C60.985 154.885 61.9992 155.247 61.9992 155.247C61.9992 155.247 66.7079 156.187 66.8528 155.753C66.9976 155.247 64.1724 154.596 63.2307 154.451C62.2889 154.306 61.9992 153.8 62.4338 153.438C62.7236 153.221 65.6213 153.583 66.563 153.8C67.5047 153.945 70.0402 154.523 69.026 153.221C68.0118 151.919 67.6496 150.544 67.867 150.11C67.9394 149.748 68.6638 149.82 68.7363 150.327Z" fill="#FFBE9D"/>
<path d="M112.78 115.525C111.766 115.308 111.911 112.559 111.838 111.69C111.766 111.184 111.693 110.605 111.911 110.171C112.2 109.592 112.852 109.23 113.577 109.158C114.229 109.086 114.881 109.158 115.605 109.013C116.909 108.796 118.141 108 119.444 107.856C120.531 107.783 121.69 108.145 122.415 108.941C122.849 109.375 123.211 110.026 123.791 110.316C124.298 110.605 124.878 110.677 125.457 110.822C126.834 111.256 127.92 112.486 128.065 113.933C128.137 114.802 127.993 115.597 127.848 116.466C127.775 117.334 127.775 118.202 128.21 118.926C128.645 119.649 129.514 120.156 129.949 120.879C130.311 121.53 130.311 122.471 129.804 123.122C129.369 123.773 128.5 124.135 127.775 123.99C127.558 123.99 127.268 123.918 127.051 124.063C126.906 124.207 126.834 124.424 126.834 124.642C126.689 125.437 125.819 126.016 124.95 125.872C124.153 125.727 123.501 124.859 123.646 124.063" fill="#263238"/>
<path d="M124.298 133.107L115.532 132.383C115.46 131.37 115.532 127.391 115.532 127.391C115.532 127.391 111.91 126.812 111.838 123.194C111.765 119.577 112.417 111.184 112.417 111.184C116.619 109.375 121.472 109.954 125.095 112.776L125.602 113.21L124.298 133.107Z" fill="#FFBE9D"/>
<path d="M113.577 117.551C113.795 117.334 113.795 117.044 113.65 116.827C113.432 116.61 113.143 116.61 112.925 116.755C112.708 116.972 112.708 117.262 112.853 117.479C112.998 117.696 113.36 117.768 113.577 117.551Z" fill="#263238"/>
<path d="M112.49 116.683C112.562 116.755 112.925 116.466 113.432 116.466C113.939 116.466 114.301 116.755 114.374 116.683C114.374 116.683 114.374 116.538 114.156 116.393C114.011 116.249 113.722 116.176 113.432 116.176C113.142 116.176 112.852 116.321 112.707 116.393C112.49 116.538 112.418 116.683 112.49 116.683Z" fill="#263238"/>
<path d="M118.213 117.261C117.996 117.406 117.851 117.768 118.068 117.985C118.213 118.202 118.576 118.347 118.793 118.13C119.01 117.985 119.155 117.623 118.938 117.406C118.793 117.189 118.431 117.044 118.213 117.261Z" fill="#263238"/>
<path d="M117.924 117.117C117.996 117.189 118.358 116.9 118.865 116.9C119.372 116.9 119.735 117.189 119.807 117.117C119.807 117.117 119.807 116.972 119.59 116.827C119.445 116.683 119.155 116.61 118.865 116.61C118.576 116.61 118.286 116.755 118.141 116.827C117.924 116.972 117.851 117.117 117.924 117.117Z" fill="#263238"/>
<path d="M115.896 121.241C115.896 121.169 115.607 121.169 115.1 121.096C114.955 121.096 114.882 121.024 114.882 120.951C114.882 120.879 114.882 120.734 114.955 120.59C115.1 120.228 115.244 119.939 115.317 119.577C115.896 118.13 116.259 116.9 116.186 116.9C116.114 116.9 115.607 118.057 115.027 119.504C114.882 119.866 114.81 120.228 114.665 120.517C114.593 120.662 114.52 120.879 114.593 121.096C114.593 121.169 114.737 121.313 114.81 121.313C114.882 121.313 114.955 121.313 115.027 121.313C115.607 121.313 115.896 121.313 115.896 121.241Z" fill="#263238"/>
<path d="M115.606 127.391C115.606 127.391 117.924 127.608 120.314 126.016C120.314 126.016 119.228 128.621 115.533 128.331L115.606 127.391Z" fill="#EB996E"/>
<path d="M125.313 117.623C125.386 117.623 127.414 117.189 127.414 119.577C127.414 122.037 124.951 121.169 124.951 121.096C124.951 121.024 125.313 117.623 125.313 117.623Z" fill="#FFBE9D"/>
<path d="M125.676 120.3C125.676 120.3 125.748 120.3 125.821 120.373C125.893 120.373 126.038 120.445 126.11 120.373C126.4 120.3 126.618 119.866 126.618 119.432C126.618 119.215 126.545 118.998 126.473 118.853C126.4 118.709 126.255 118.564 126.183 118.491C126.038 118.491 125.966 118.564 125.966 118.636C125.966 118.709 125.966 118.781 125.966 118.781C125.966 118.781 125.893 118.709 125.966 118.636C125.966 118.564 126.038 118.564 126.038 118.491C126.11 118.419 126.183 118.419 126.255 118.419C126.473 118.419 126.618 118.636 126.69 118.781C126.762 118.998 126.835 119.215 126.835 119.432C126.835 119.939 126.545 120.373 126.183 120.445C126.038 120.517 125.893 120.445 125.821 120.373C125.676 120.3 125.676 120.3 125.676 120.3Z" fill="#EB996E"/>
<path d="M112.492 111.111C113.216 112.414 114.737 113.065 116.186 113.137C117.635 113.21 119.084 112.776 120.46 112.414C121.257 112.197 122.126 112.052 122.706 112.631C123.068 112.993 123.141 113.427 123.213 113.933C123.358 114.946 123.358 115.959 123.286 116.972C123.213 117.406 123.213 117.768 123.286 118.202C123.358 118.564 123.72 118.998 124.082 118.998C124.734 119.07 125.459 118.057 125.676 117.406C125.966 116.538 125.893 116.031 126.038 115.163C126.111 114.295 126.038 113.354 125.604 112.559C125.097 111.69 124.155 111.184 123.213 110.75C121.402 109.881 119.446 109.23 117.418 109.23C115.389 109.23 113.289 109.881 111.912 111.329" fill="#263238"/>
<path d="M150.082 270.867L148.995 266.164L157.833 263.993L159.572 270.867L159.065 271.012C156.674 271.735 146.75 274.557 145.011 274.412C142.983 274.412 150.082 270.867 150.082 270.867Z" fill="#B67E21"/>
<g opacity="0.4">
<g opacity="0.4">
<path opacity="0.4" d="M156.31 271.59C156.237 270.795 156.527 270.071 156.962 269.42C157.469 268.841 158.121 268.407 158.845 268.262L159.425 270.722L156.31 271.59Z" fill="black"/>
</g>
</g>
<g opacity="0.4">
<g opacity="0.4">
<path opacity="0.4" d="M146.607 272.748C146.607 272.748 144.144 274.123 144.579 274.485C145.013 274.846 155.083 272.386 159.429 270.939L159.357 270.722L147.621 273.689C147.694 273.689 147.187 272.603 146.607 272.748Z" fill="black"/>
</g>
</g>
<path d="M159.576 270.65C159.576 270.65 159.503 270.65 159.431 270.722C159.286 270.794 159.141 270.794 158.996 270.867C158.561 271.012 158.054 271.156 157.402 271.301C156.026 271.663 154.215 272.169 152.114 272.676C150.013 273.182 148.13 273.616 146.753 273.906C146.101 274.05 145.594 274.123 145.16 274.195C145.015 274.195 144.87 274.267 144.725 274.267C144.653 274.267 144.58 274.267 144.58 274.267C144.58 274.267 144.653 274.267 144.725 274.195C144.87 274.195 145.015 274.123 145.16 274.123C145.594 274.05 146.174 273.906 146.753 273.761C148.13 273.472 150.013 273.037 152.042 272.531C154.142 272.024 155.953 271.518 157.33 271.156C157.982 271.012 158.489 270.867 158.924 270.722C159.068 270.65 159.213 270.65 159.358 270.577C159.503 270.65 159.576 270.65 159.576 270.65Z" fill="#263238"/>
<path d="M147.696 273.833C147.696 273.833 147.551 273.472 147.189 273.11C146.827 272.748 146.465 272.676 146.465 272.603C146.465 272.603 146.899 272.676 147.262 273.037C147.696 273.399 147.769 273.833 147.696 273.833Z" fill="#263238"/>
<path d="M150.013 271.88C150.013 271.88 149.796 271.807 149.651 271.59C149.506 271.446 149.361 271.229 149.361 271.229C149.361 271.229 149.579 271.301 149.724 271.518C149.941 271.663 150.013 271.807 150.013 271.88Z" fill="#263238"/>
<path d="M150.664 271.301C150.664 271.301 150.519 271.301 150.301 271.156C150.084 271.084 150.012 270.939 150.012 270.939C150.012 270.939 150.157 270.939 150.374 271.084C150.519 271.156 150.664 271.301 150.664 271.301Z" fill="#263238"/>
<path d="M150.883 270.36C150.883 270.36 150.666 270.433 150.449 270.505C150.159 270.577 150.014 270.577 149.941 270.577C149.941 270.577 150.159 270.505 150.376 270.433C150.666 270.36 150.883 270.36 150.883 270.36Z" fill="#263238"/>
<path d="M150.882 269.709C150.882 269.709 150.664 269.854 150.374 269.999C150.085 270.071 149.795 270.071 149.795 270.071C149.795 270.071 150.012 269.999 150.302 269.926C150.664 269.782 150.882 269.709 150.882 269.709Z" fill="#263238"/>
<path d="M149.503 271.156C149.503 271.156 149.286 271.229 148.924 271.301C148.779 271.301 148.562 271.301 148.272 271.301C148.127 271.301 148.055 271.301 147.91 271.229C147.837 271.229 147.765 271.156 147.692 271.084C147.62 271.012 147.692 270.867 147.692 270.867C148.199 270.433 148.779 270.65 149.069 270.867C149.214 271.012 149.286 271.084 149.359 271.229C149.431 271.301 149.431 271.373 149.431 271.373C149.431 271.373 149.359 271.156 149.069 270.939C148.924 270.867 148.707 270.722 148.489 270.722C148.272 270.722 147.982 270.795 147.837 270.939C147.765 271.012 147.837 271.156 147.91 271.156C147.982 271.229 148.127 271.229 148.272 271.229C148.489 271.229 148.707 271.229 148.924 271.229C149.286 271.156 149.503 271.156 149.503 271.156Z" fill="#263238"/>
<path d="M149.362 271.229C149.362 271.229 149.217 271.084 149.217 270.867C149.217 270.722 149.217 270.577 149.289 270.433C149.362 270.288 149.434 270.071 149.724 269.999C149.869 269.999 149.941 270.143 149.941 270.216C149.941 270.288 149.941 270.433 149.941 270.505C149.869 270.65 149.796 270.795 149.724 270.939C149.579 271.084 149.434 271.229 149.362 271.229C149.362 271.229 149.507 271.084 149.579 270.867C149.651 270.722 149.724 270.65 149.724 270.433C149.796 270.288 149.796 270.071 149.651 270.071C149.507 270.071 149.362 270.288 149.362 270.433C149.289 270.577 149.289 270.722 149.289 270.867C149.289 271.084 149.434 271.229 149.362 271.229Z" fill="#263238"/>
<path d="M158.776 268.262C158.776 268.262 158.486 268.335 158.124 268.479C157.762 268.624 157.255 268.913 156.82 269.42C156.458 269.926 156.24 270.505 156.24 270.867C156.168 271.301 156.24 271.518 156.24 271.518C156.24 271.518 156.24 271.446 156.168 271.373C156.168 271.229 156.168 271.084 156.168 270.867C156.168 270.433 156.313 269.854 156.747 269.348C157.182 268.841 157.689 268.552 158.124 268.407C158.341 268.335 158.486 268.335 158.631 268.335C158.776 268.262 158.776 268.262 158.776 268.262Z" fill="#263238"/>
<path d="M156.967 264.862C156.967 264.862 157.257 265.658 157.474 266.67C157.764 267.683 157.909 268.479 157.909 268.479C157.909 268.479 157.619 267.683 157.401 266.67C157.184 265.658 156.967 264.862 156.967 264.862Z" fill="#263238"/>
<path d="M154.938 271.012C154.938 271.012 154.431 271.301 153.706 271.446C152.982 271.663 152.402 271.663 152.402 271.663C152.402 271.663 152.982 271.518 153.706 271.373C154.358 271.156 154.938 271.012 154.938 271.012Z" fill="#263238"/>
<path d="M156.674 270.577C156.674 270.577 156.674 270.722 156.602 270.867C156.602 271.012 156.602 271.156 156.529 271.156C156.529 271.156 156.457 271.012 156.457 270.867C156.602 270.722 156.674 270.577 156.674 270.577Z" fill="#263238"/>
<path d="M157.11 269.637C157.11 269.637 157.11 269.782 157.037 269.854C156.965 269.999 156.893 270.071 156.893 269.999C156.893 269.999 156.893 269.854 156.965 269.782C157.037 269.709 157.11 269.637 157.11 269.637Z" fill="#263238"/>
<path d="M157.98 269.058C157.98 269.058 157.835 269.13 157.762 269.203C157.617 269.275 157.545 269.347 157.545 269.347C157.545 269.347 157.545 269.203 157.69 269.13C157.835 268.986 157.98 268.986 157.98 269.058Z" fill="#263238"/>
<path d="M158.629 268.696C158.629 268.696 158.629 268.769 158.557 268.841C158.485 268.913 158.412 268.913 158.412 268.913C158.412 268.913 158.412 268.841 158.485 268.769C158.557 268.696 158.557 268.696 158.629 268.696Z" fill="#263238"/>
<path d="M112.2 271.518V266.67L121.328 266.526L121.473 273.616L120.893 273.689C118.358 273.833 108.143 274.34 106.405 273.906C104.521 273.327 112.2 271.518 112.2 271.518Z" fill="#B67E21"/>
<g opacity="0.4">
<g opacity="0.4">
<path opacity="0.4" d="M118.072 273.616C118.217 272.82 118.579 272.169 119.231 271.663C119.811 271.156 120.608 270.939 121.332 271.011V273.544L118.072 273.616Z" fill="black"/>
</g>
</g>
<g opacity="0.4">
<g opacity="0.4">
<path opacity="0.4" d="M108.434 272.531C108.434 272.531 105.754 273.327 106.043 273.761C106.406 274.195 116.765 274.051 121.329 273.616V273.399L109.231 273.689C109.303 273.689 109.014 272.531 108.434 272.531Z" fill="black"/>
</g>
</g>
<path d="M121.547 273.472C121.547 273.472 121.475 273.472 121.402 273.472C121.257 273.472 121.112 273.472 120.968 273.472C120.533 273.472 119.953 273.544 119.301 273.544C117.925 273.616 115.969 273.689 113.868 273.689C111.767 273.689 109.812 273.689 108.435 273.689C107.783 273.689 107.204 273.689 106.769 273.616C106.624 273.616 106.479 273.616 106.334 273.616C106.262 273.616 106.189 273.616 106.189 273.616C106.189 273.616 106.262 273.616 106.334 273.616C106.479 273.616 106.624 273.616 106.769 273.616C107.204 273.616 107.783 273.616 108.435 273.616C109.812 273.616 111.767 273.616 113.868 273.616C115.969 273.616 117.925 273.544 119.301 273.472C119.953 273.472 120.533 273.399 120.968 273.399C121.112 273.399 121.257 273.399 121.402 273.399C121.475 273.472 121.547 273.472 121.547 273.472Z" fill="#263238"/>
<path d="M109.303 273.833C109.303 273.833 109.23 273.472 109.013 273.037C108.796 272.603 108.434 272.459 108.434 272.386C108.434 272.386 108.796 272.531 109.086 272.965C109.303 273.399 109.303 273.833 109.303 273.833Z" fill="#263238"/>
<path d="M111.913 272.459C111.913 272.459 111.768 272.314 111.624 272.097C111.479 271.88 111.406 271.735 111.406 271.663C111.406 271.663 111.551 271.807 111.696 272.024C111.913 272.242 111.986 272.459 111.913 272.459Z" fill="#263238"/>
<path d="M112.71 272.025C112.71 272.025 112.565 271.952 112.42 271.808C112.275 271.663 112.13 271.518 112.203 271.518C112.203 271.518 112.348 271.591 112.493 271.735C112.565 271.88 112.71 272.025 112.71 272.025Z" fill="#263238"/>
<path d="M113.141 271.156C113.141 271.156 112.924 271.229 112.634 271.229C112.344 271.229 112.127 271.229 112.127 271.156C112.127 271.156 112.344 271.084 112.634 271.084C112.924 271.156 113.141 271.156 113.141 271.156Z" fill="#263238"/>
<path d="M113.29 270.577C113.29 270.577 113.072 270.722 112.783 270.722C112.493 270.722 112.203 270.65 112.203 270.65C112.203 270.65 112.42 270.65 112.71 270.577C113.072 270.577 113.29 270.577 113.29 270.577Z" fill="#263238"/>
<path d="M111.623 271.663C111.623 271.663 111.406 271.735 111.044 271.663C110.899 271.663 110.682 271.59 110.392 271.518C110.247 271.446 110.175 271.446 110.03 271.373C109.957 271.301 109.885 271.301 109.885 271.229C109.885 271.156 109.885 271.012 109.957 271.012C110.537 270.722 111.044 271.012 111.261 271.301C111.406 271.446 111.406 271.59 111.478 271.663C111.478 271.735 111.478 271.808 111.478 271.808C111.478 271.808 111.406 271.59 111.189 271.301C111.044 271.156 110.899 271.012 110.682 271.012C110.464 270.939 110.175 270.939 109.957 271.084C109.885 271.156 109.885 271.229 110.03 271.301C110.102 271.373 110.247 271.373 110.392 271.446C110.609 271.518 110.827 271.59 110.971 271.59C111.406 271.663 111.623 271.663 111.623 271.663Z" fill="#263238"/>
<path d="M111.479 271.663C111.479 271.663 111.406 271.518 111.406 271.229C111.406 271.084 111.479 270.939 111.551 270.795C111.624 270.65 111.768 270.505 112.058 270.505C112.203 270.505 112.276 270.65 112.276 270.795C112.276 270.867 112.203 271.012 112.203 271.084C112.131 271.229 111.986 271.373 111.913 271.446C111.696 271.59 111.551 271.663 111.479 271.663C111.551 271.663 111.624 271.518 111.768 271.373C111.841 271.301 111.913 271.156 111.986 271.012C112.058 270.867 112.131 270.65 111.986 270.65C111.841 270.65 111.696 270.795 111.624 270.867C111.551 271.012 111.479 271.156 111.479 271.229C111.406 271.518 111.479 271.663 111.479 271.663Z" fill="#263238"/>
<path d="M121.328 270.939C121.328 270.939 121.038 270.939 120.676 270.939C120.241 271.012 119.734 271.156 119.227 271.59C118.72 272.025 118.43 272.531 118.358 272.893C118.213 273.255 118.213 273.544 118.213 273.544C118.213 273.544 118.213 273.472 118.213 273.327C118.213 273.182 118.213 273.037 118.285 272.82C118.43 272.386 118.648 271.88 119.155 271.446C119.662 271.012 120.241 270.867 120.676 270.867C120.893 270.867 121.038 270.867 121.183 270.867C121.255 270.939 121.328 270.939 121.328 270.939Z" fill="#263238"/>
<path d="M120.316 267.177C120.316 267.177 120.389 268.045 120.389 269.058C120.389 270.071 120.389 270.939 120.389 270.939C120.389 270.939 120.316 270.071 120.316 269.058C120.316 268.045 120.316 267.177 120.316 267.177Z" fill="#263238"/>
<path d="M116.981 272.748C116.981 272.748 116.401 272.893 115.677 272.893C114.953 272.893 114.373 272.82 114.373 272.82C114.373 272.82 114.953 272.82 115.677 272.82C116.329 272.748 116.909 272.748 116.981 272.748Z" fill="#263238"/>
<path d="M118.72 272.748C118.72 272.748 118.648 272.893 118.648 273.037C118.575 273.182 118.575 273.327 118.503 273.327C118.503 273.327 118.43 273.182 118.503 273.037C118.575 272.82 118.72 272.676 118.72 272.748Z" fill="#263238"/>
<path d="M119.372 271.88C119.372 271.88 119.372 272.025 119.227 272.097C119.155 272.169 119.01 272.242 119.01 272.242C119.01 272.242 119.01 272.097 119.155 272.025C119.3 271.952 119.372 271.88 119.372 271.88Z" fill="#263238"/>
<path d="M120.316 271.518C120.316 271.518 120.171 271.518 120.026 271.59C119.881 271.663 119.809 271.735 119.809 271.663C119.809 271.663 119.881 271.518 120.026 271.446C120.243 271.373 120.388 271.446 120.316 271.518Z" fill="#263238"/>
<path d="M121.04 271.301C121.04 271.301 120.967 271.373 120.895 271.373C120.822 271.373 120.75 271.373 120.75 271.373C120.75 271.373 120.822 271.301 120.895 271.301C120.967 271.301 121.04 271.301 121.04 271.301Z" fill="#263238"/>
<path d="M106.041 175.144L110.243 269.42L124.441 269.709L122.051 190.844L147.768 270.65L159.358 267.466L133.497 175.144" fill="#263238"/>
<path d="M157.906 265.296C157.978 265.296 158.123 265.44 158.123 265.658C158.196 265.875 158.196 266.019 158.123 266.092C158.051 266.092 157.906 265.947 157.906 265.73C157.833 265.513 157.833 265.296 157.906 265.296Z" fill="#455A64"/>
<path d="M156.969 262.257C157.042 262.257 157.187 262.546 157.332 262.98C157.477 263.414 157.477 263.776 157.404 263.776C157.332 263.776 157.187 263.487 157.042 263.053C156.969 262.619 156.897 262.257 156.969 262.257Z" fill="#455A64"/>
<path d="M156.1 259.146C156.173 259.146 156.318 259.435 156.463 259.869C156.607 260.303 156.607 260.665 156.535 260.665C156.463 260.665 156.318 260.376 156.173 259.942C156.028 259.58 156.028 259.218 156.1 259.146Z" fill="#455A64"/>
<path d="M155.155 256.107C155.227 256.107 155.372 256.396 155.517 256.83C155.662 257.265 155.662 257.626 155.59 257.626C155.517 257.626 155.372 257.337 155.227 256.903C155.155 256.469 155.083 256.107 155.155 256.107Z" fill="#455A64"/>
<path d="M154.218 253.068C154.29 253.068 154.435 253.358 154.58 253.792C154.725 254.226 154.725 254.588 154.652 254.588C154.58 254.588 154.435 254.298 154.29 253.864C154.218 253.43 154.145 253.068 154.218 253.068Z" fill="#455A64"/>
<path d="M153.348 250.029C153.421 250.029 153.566 250.319 153.711 250.753C153.855 251.187 153.855 251.549 153.783 251.549C153.711 251.549 153.566 251.259 153.421 250.825C153.276 250.391 153.276 250.029 153.348 250.029Z" fill="#455A64"/>
<path d="M152.403 246.918C152.475 246.918 152.62 247.207 152.765 247.642C152.91 248.076 152.91 248.437 152.838 248.437C152.765 248.437 152.62 248.148 152.475 247.714C152.403 247.28 152.331 246.99 152.403 246.918Z" fill="#455A64"/>
<path d="M151.466 243.879C151.538 243.879 151.683 244.169 151.828 244.603C151.973 245.037 151.973 245.399 151.9 245.399C151.828 245.399 151.683 245.109 151.538 244.675C151.466 244.241 151.393 243.879 151.466 243.879Z" fill="#455A64"/>
<path d="M150.596 240.84C150.669 240.84 150.814 241.13 150.959 241.564C151.103 241.998 151.103 242.36 151.031 242.36C150.959 242.36 150.814 242.07 150.669 241.636C150.524 241.202 150.524 240.84 150.596 240.84Z" fill="#455A64"/>
<path d="M149.653 237.729C149.725 237.729 149.87 238.019 150.015 238.453C150.16 238.887 150.16 239.249 150.088 239.249C150.015 239.249 149.87 238.959 149.725 238.525C149.581 238.163 149.581 237.802 149.653 237.729Z" fill="#455A64"/>
<path d="M148.708 234.69C148.78 234.69 148.925 234.98 149.07 235.414C149.215 235.848 149.215 236.21 149.142 236.21C149.07 236.21 148.925 235.92 148.78 235.486C148.708 235.052 148.635 234.69 148.708 234.69Z" fill="#455A64"/>
<path d="M147.77 231.652C147.843 231.652 147.988 231.941 148.132 232.375C148.277 232.809 148.277 233.171 148.205 233.171C148.132 233.171 147.988 232.882 147.843 232.448C147.77 232.013 147.698 231.652 147.77 231.652Z" fill="#455A64"/>
<path d="M146.901 228.54C146.974 228.54 147.118 228.83 147.263 229.264C147.408 229.698 147.408 230.06 147.336 230.06C147.263 230.06 147.118 229.77 146.974 229.336C146.829 228.975 146.829 228.613 146.901 228.54Z" fill="#455A64"/>
<path d="M145.954 225.502C146.026 225.502 146.171 225.791 146.316 226.225C146.461 226.659 146.461 227.021 146.388 227.021C146.316 227.021 146.171 226.732 146.026 226.297C145.954 225.863 145.881 225.502 145.954 225.502Z" fill="#455A64"/>
<path d="M145.016 222.463C145.089 222.463 145.234 222.752 145.379 223.186C145.523 223.62 145.523 223.982 145.451 223.982C145.379 223.982 145.234 223.693 145.089 223.259C145.016 222.825 144.944 222.463 145.016 222.463Z" fill="#455A64"/>
<path d="M144.147 219.424C144.22 219.424 144.365 219.713 144.509 220.147C144.654 220.582 144.654 220.943 144.582 220.943C144.509 220.943 144.365 220.654 144.22 220.22C144.075 219.786 144.075 219.424 144.147 219.424Z" fill="#455A64"/>
<path d="M143.202 216.313C143.274 216.313 143.419 216.602 143.564 217.036C143.709 217.47 143.709 217.832 143.637 217.832C143.564 217.832 143.419 217.543 143.274 217.109C143.202 216.675 143.129 216.385 143.202 216.313Z" fill="#455A64"/>
<path d="M142.264 213.274C142.337 213.274 142.482 213.563 142.627 213.997C142.771 214.432 142.771 214.793 142.699 214.793C142.627 214.793 142.482 214.504 142.337 214.07C142.264 213.636 142.192 213.274 142.264 213.274Z" fill="#455A64"/>
<path d="M141.393 210.235C141.466 210.235 141.611 210.525 141.755 210.959C141.9 211.393 141.9 211.755 141.828 211.755C141.755 211.755 141.611 211.465 141.466 211.031C141.321 210.597 141.321 210.235 141.393 210.235Z" fill="#455A64"/>
<path d="M140.45 207.124C140.522 207.124 140.667 207.413 140.812 207.847C140.957 208.282 140.957 208.643 140.885 208.643C140.812 208.643 140.667 208.354 140.522 207.92C140.45 207.558 140.377 207.196 140.45 207.124Z" fill="#455A64"/>
<path d="M139.512 204.085C139.585 204.085 139.73 204.375 139.875 204.809C140.02 205.243 140.02 205.605 139.947 205.605C139.875 205.605 139.73 205.315 139.585 204.881C139.512 204.447 139.44 204.085 139.512 204.085Z" fill="#455A64"/>
<path d="M138.641 201.046C138.714 201.046 138.859 201.336 139.004 201.77C139.148 202.204 139.148 202.566 139.076 202.566C139.004 202.566 138.859 202.276 138.714 201.842C138.569 201.408 138.569 201.046 138.641 201.046Z" fill="#455A64"/>
<path d="M137.698 197.935C137.77 197.935 137.915 198.225 138.06 198.659C138.205 199.093 138.205 199.455 138.133 199.455C138.06 199.455 137.915 199.165 137.77 198.731C137.698 198.369 137.626 198.008 137.698 197.935Z" fill="#455A64"/>
<path d="M136.759 194.896C136.831 194.896 136.976 195.186 137.121 195.62C137.266 196.054 137.266 196.416 137.193 196.416C137.121 196.416 136.976 196.126 136.831 195.692C136.759 195.258 136.686 194.896 136.759 194.896Z" fill="#455A64"/>
<path d="M135.887 191.857C135.96 191.857 136.105 192.147 136.25 192.581C136.395 193.015 136.395 193.377 136.322 193.377C136.25 193.377 136.105 193.087 135.96 192.653C135.815 192.219 135.815 191.857 135.887 191.857Z" fill="#455A64"/>
<path d="M134.946 188.819C135.018 188.819 135.163 189.108 135.308 189.542C135.453 189.976 135.453 190.338 135.381 190.338C135.308 190.338 135.163 190.049 135.018 189.614C134.874 189.18 134.874 188.819 134.946 188.819Z" fill="#455A64"/>
<path d="M134.007 185.707C134.079 185.707 134.224 185.997 134.369 186.431C134.514 186.865 134.514 187.227 134.441 187.227C134.369 187.227 134.224 186.937 134.079 186.503C134.007 186.069 133.934 185.78 134.007 185.707Z" fill="#455A64"/>
<path d="M133.137 182.669C133.21 182.669 133.355 182.958 133.5 183.392C133.644 183.826 133.644 184.188 133.572 184.188C133.5 184.188 133.355 183.899 133.21 183.464C133.065 183.03 133.065 182.669 133.137 182.669Z" fill="#455A64"/>
<path d="M132.192 179.63C132.265 179.63 132.409 179.919 132.554 180.353C132.699 180.787 132.699 181.149 132.627 181.149C132.554 181.149 132.409 180.86 132.265 180.426C132.12 179.992 132.12 179.63 132.192 179.63Z" fill="#455A64"/>
<path d="M131.468 177.314C131.541 177.314 131.686 177.459 131.686 177.676C131.758 177.893 131.758 178.038 131.686 178.11C131.613 178.11 131.468 177.966 131.468 177.749C131.396 177.532 131.396 177.314 131.468 177.314Z" fill="#455A64"/>
<path d="M121.981 268.986C122.053 268.986 122.126 269.13 122.126 269.347C122.126 269.564 122.053 269.782 121.981 269.782C121.908 269.782 121.836 269.637 121.836 269.42C121.836 269.13 121.908 268.986 121.981 268.986Z" fill="#455A64"/>
<path d="M121.834 265.802C121.907 265.802 121.979 266.164 121.979 266.598C121.979 267.032 121.979 267.394 121.907 267.394C121.834 267.394 121.762 267.032 121.762 266.598C121.762 266.164 121.762 265.802 121.834 265.802Z" fill="#455A64"/>
<path d="M121.762 262.691C121.835 262.691 121.907 263.053 121.907 263.487C121.907 263.921 121.835 264.283 121.762 264.283C121.69 264.283 121.617 263.921 121.617 263.487C121.617 263.053 121.69 262.691 121.762 262.691Z" fill="#455A64"/>
<path d="M121.688 259.508C121.76 259.508 121.833 259.869 121.833 260.303C121.833 260.738 121.76 261.099 121.688 261.099C121.615 261.099 121.543 260.738 121.543 260.303C121.543 259.869 121.615 259.508 121.688 259.508Z" fill="#455A64"/>
<path d="M121.616 256.396C121.688 256.396 121.76 256.758 121.76 257.192C121.76 257.626 121.688 257.988 121.616 257.988C121.543 257.988 121.471 257.626 121.471 257.192C121.471 256.758 121.543 256.396 121.616 256.396Z" fill="#455A64"/>
<path d="M121.543 253.213C121.616 253.213 121.688 253.574 121.688 254.009C121.688 254.443 121.616 254.804 121.543 254.804C121.471 254.804 121.398 254.443 121.398 254.009C121.398 253.574 121.471 253.213 121.543 253.213Z" fill="#455A64"/>
<path d="M121.399 250.102C121.471 250.102 121.544 250.463 121.544 250.898C121.544 251.332 121.544 251.693 121.399 251.693C121.326 251.693 121.254 251.332 121.254 250.898C121.326 250.463 121.326 250.102 121.399 250.102Z" fill="#455A64"/>
<path d="M121.254 246.99C121.327 246.99 121.399 247.352 121.399 247.786C121.399 248.22 121.399 248.582 121.327 248.582C121.254 248.582 121.182 248.22 121.182 247.786C121.182 247.352 121.182 246.99 121.254 246.99Z" fill="#455A64"/>
<path d="M121.181 243.807C121.253 243.807 121.325 244.169 121.325 244.603C121.325 245.037 121.325 245.399 121.253 245.399C121.181 245.399 121.108 245.037 121.108 244.603C121.036 244.169 121.108 243.807 121.181 243.807Z" fill="#455A64"/>
<path d="M121.037 240.696C121.11 240.696 121.182 241.058 121.182 241.492C121.182 241.926 121.182 242.288 121.037 242.288C120.965 242.288 120.893 241.926 120.893 241.492C120.893 241.058 120.965 240.696 121.037 240.696Z" fill="#455A64"/>
<path d="M120.963 237.512C121.036 237.512 121.108 237.874 121.108 238.308C121.108 238.742 121.036 239.104 120.963 239.104C120.891 239.104 120.818 238.742 120.818 238.308C120.818 237.874 120.891 237.512 120.963 237.512Z" fill="#455A64"/>
<path d="M120.893 234.401C120.965 234.401 121.038 234.763 121.038 235.197C121.038 235.631 120.965 235.993 120.893 235.993C120.82 235.993 120.748 235.631 120.748 235.197C120.748 234.763 120.82 234.401 120.893 234.401Z" fill="#455A64"/>
<path d="M120.821 231.218C120.893 231.218 120.966 231.579 120.966 232.013C120.966 232.448 120.893 232.809 120.821 232.809C120.748 232.809 120.676 232.448 120.676 232.013C120.676 231.579 120.748 231.218 120.821 231.218Z" fill="#455A64"/>
<path d="M120.748 228.106C120.821 228.106 120.893 228.468 120.893 228.902C120.893 229.336 120.821 229.698 120.748 229.698C120.676 229.698 120.604 229.336 120.604 228.902C120.604 228.468 120.676 228.106 120.748 228.106Z" fill="#455A64"/>
<path d="M120.748 224.995C120.821 224.995 120.893 225.357 120.893 225.791C120.893 226.225 120.821 226.587 120.748 226.587C120.676 226.587 120.604 226.225 120.604 225.791C120.604 225.284 120.604 224.995 120.748 224.995Z" fill="#455A64"/>
<path d="M120.674 221.812C120.747 221.812 120.819 222.173 120.819 222.607C120.819 223.042 120.747 223.403 120.674 223.403C120.602 223.403 120.529 223.042 120.529 222.607C120.529 222.173 120.602 221.812 120.674 221.812Z" fill="#455A64"/>
<path d="M120.674 218.7C120.747 218.7 120.819 219.062 120.819 219.496C120.819 219.93 120.747 220.292 120.674 220.292C120.602 220.292 120.529 219.93 120.529 219.496C120.529 219.062 120.602 218.7 120.674 218.7Z" fill="#455A64"/>
<path d="M120.674 215.517C120.747 215.517 120.819 215.879 120.819 216.313C120.819 216.747 120.747 217.109 120.674 217.109C120.602 217.109 120.529 216.747 120.529 216.313C120.529 215.879 120.602 215.517 120.674 215.517Z" fill="#455A64"/>
<path d="M120.748 212.406C120.821 212.406 120.893 212.767 120.893 213.202C120.893 213.636 120.821 213.997 120.748 213.997C120.676 213.997 120.604 213.636 120.604 213.202C120.604 212.767 120.676 212.406 120.748 212.406Z" fill="#455A64"/>
<path d="M120.748 209.222C120.821 209.222 120.893 209.584 120.893 210.018C120.893 210.452 120.821 210.814 120.748 210.814C120.676 210.814 120.604 210.452 120.604 210.018C120.604 209.584 120.676 209.222 120.748 209.222Z" fill="#455A64"/>
<path d="M120.821 206.111C120.893 206.111 120.966 206.473 120.966 206.907C120.966 207.341 120.893 207.703 120.821 207.703C120.748 207.703 120.676 207.341 120.676 206.907C120.676 206.473 120.748 206.111 120.821 206.111Z" fill="#455A64"/>
<path d="M120.893 203C120.965 203 121.038 203.361 121.038 203.796C121.038 204.23 120.965 204.591 120.893 204.591C120.82 204.591 120.748 204.23 120.748 203.796C120.748 203.289 120.82 203 120.893 203Z" fill="#455A64"/>
<path d="M120.962 199.816C121.034 199.816 121.107 200.178 121.034 200.612C121.034 201.046 120.962 201.408 120.89 201.408C120.817 201.408 120.745 201.046 120.817 200.612C120.817 200.178 120.89 199.816 120.962 199.816Z" fill="#455A64"/>
<path d="M121.181 196.705C121.253 196.705 121.326 197.067 121.253 197.501C121.253 197.935 121.108 198.297 121.036 198.297C120.964 198.297 120.891 197.935 120.964 197.501C121.036 196.995 121.108 196.705 121.181 196.705Z" fill="#455A64"/>
<path d="M121.471 193.522C121.544 193.522 121.544 193.883 121.544 194.317C121.471 194.752 121.399 195.113 121.326 195.113C121.254 195.113 121.254 194.752 121.254 194.317C121.326 193.883 121.399 193.522 121.471 193.522Z" fill="#455A64"/>
<path d="M121.759 191.206C121.831 191.206 121.904 191.423 121.831 191.64C121.831 191.857 121.687 192.002 121.614 192.002C121.542 192.002 121.469 191.785 121.542 191.568C121.614 191.351 121.687 191.206 121.759 191.206Z" fill="#455A64"/>
<path d="M119.733 176.374C119.733 176.374 119.805 176.591 119.805 176.953C119.877 177.314 119.877 177.893 119.95 178.544C120.022 179.847 120.167 181.728 120.312 183.754C120.385 184.767 120.457 185.707 120.457 186.648C120.529 187.516 120.529 188.312 120.747 188.963C120.964 189.614 121.399 189.976 121.689 190.121C122.051 190.266 122.268 190.266 122.268 190.266C122.268 190.266 122.196 190.266 122.123 190.266C122.051 190.266 121.906 190.266 121.689 190.193C121.326 190.049 120.819 189.687 120.602 189.036C120.312 188.384 120.312 187.589 120.24 186.72C120.167 185.852 120.095 184.839 120.022 183.826C119.877 181.8 119.805 179.919 119.733 178.617C119.733 177.966 119.66 177.387 119.66 177.025C119.66 176.591 119.66 176.374 119.733 176.374Z" fill="#455A64"/>
<path d="M121.184 177.604C121.184 177.604 121.04 177.749 121.04 177.966C121.04 178.038 121.04 178.183 121.184 178.255C121.257 178.327 121.402 178.327 121.547 178.327C121.692 178.255 121.764 178.183 121.764 178.038C121.764 177.893 121.692 177.821 121.619 177.749C121.474 177.604 121.257 177.604 121.257 177.604C121.257 177.604 121.402 177.459 121.692 177.604C121.836 177.676 121.981 177.821 121.981 178.038C121.981 178.255 121.836 178.472 121.619 178.617C121.402 178.689 121.112 178.689 120.967 178.472C120.822 178.327 120.822 178.11 120.822 177.966C120.967 177.604 121.184 177.604 121.184 177.604Z" fill="#455A64"/>
<path d="M134.513 179.847C134.513 179.847 134.079 180.136 133.354 180.281C132.557 180.426 131.471 180.426 130.312 179.919C129.225 179.413 128.428 178.544 128.066 177.893C127.704 177.242 127.559 176.736 127.631 176.736C127.704 176.736 127.849 177.17 128.211 177.821C128.646 178.472 129.37 179.196 130.457 179.702C131.471 180.136 132.557 180.209 133.354 180.064C134.079 179.992 134.513 179.775 134.513 179.847Z" fill="#455A64"/>
<path d="M110.966 176.374C110.966 176.374 111.039 176.736 110.894 177.387C110.749 178.038 110.387 178.834 109.59 179.485C108.866 180.136 107.924 180.426 107.344 180.498C106.692 180.57 106.33 180.426 106.33 180.426C106.33 180.353 106.692 180.426 107.344 180.353C107.924 180.281 108.793 179.992 109.445 179.34C110.17 178.762 110.532 177.966 110.677 177.387C110.894 176.736 110.894 176.374 110.966 176.374Z" fill="#455A64"/>
<path d="M144.365 145.407L135.454 136.435C133.716 134.626 131.687 133.324 129.297 132.456C128.138 132.022 126.906 131.804 125.457 131.732C122.342 132.673 119.227 132.673 116.112 131.732C114.808 131.877 107.129 132.022 104.449 134.626L96.4805 149.242L105.029 155.247L107.637 150.254L107.202 159.66L105.825 176.229L133.498 176.519L133.136 161.542V150.689L137.12 154.596L144.365 145.407Z" fill="#455A64"/>
<path d="M128.283 114.657H110.752C110.245 114.657 109.811 114.223 109.811 113.716C109.811 113.21 110.245 112.776 110.752 112.776H128.283C128.79 112.776 129.225 113.21 129.225 113.716C129.225 114.223 128.79 114.657 128.283 114.657Z" fill="#B67E21"/>
<path d="M127.704 113.065H111.404V111.763C111.404 107.277 115.026 103.587 119.59 103.587C124.082 103.587 127.776 107.204 127.776 111.763V113.065H127.704Z" fill="#E39D29"/>
<path d="M120.531 103.587H118.068V113.354H120.531V103.587Z" fill="#B67E21"/>
<path d="M106.91 132.311L105.172 180.353L135.815 178.617L133.062 134.409C133.062 134.409 128.064 131.153 125.383 131.732L119.008 152.57L114.082 131.298L106.91 132.311Z" fill="#E39D29"/>
<path d="M135.236 167.619L105.607 167.474L105.752 164.725L135.091 164.942L135.236 167.619Z" fill="white"/>
<path d="M135.526 174.059L105.391 173.914L105.463 171.092H135.382L135.526 174.059Z" fill="white"/>
<path d="M137.99 153.583L140.815 156.043L120.459 154.089L118.068 160.529L144.22 165.159C147.262 165.593 152.116 163.567 152.696 159.588C152.985 157.345 152.261 155.102 150.667 153.51L143.423 146.637" fill="#FFBE9D"/>
<path d="M117.997 112.848C117.924 112.848 117.779 110.75 117.779 108.217C117.779 105.685 117.852 103.587 117.997 103.587C118.069 103.587 118.214 105.685 118.214 108.217C118.214 110.822 118.142 112.848 117.997 112.848Z" fill="#263238"/>
<path d="M120.53 112.848C120.457 112.848 120.312 110.75 120.312 108.217C120.312 105.685 120.385 103.587 120.53 103.587C120.602 103.587 120.747 105.685 120.747 108.217C120.675 110.822 120.602 112.848 120.53 112.848Z" fill="#263238"/>
<path d="M127.994 112.776C127.994 112.848 124.227 112.993 119.663 112.993C115.027 112.993 111.332 112.92 111.332 112.776C111.332 112.631 115.099 112.559 119.663 112.559C124.227 112.559 127.994 112.703 127.994 112.776Z" fill="#263238"/>
<g opacity="0.2">
<path opacity="0.2" d="M120.533 103.587C120.533 106.698 120.533 109.737 120.533 112.848L121.765 103.949L120.533 103.587Z" fill="black"/>
</g>
<g opacity="0.6">
<path opacity="0.6" d="M116.911 105.106C116.911 105.179 116.476 105.323 115.824 105.685C115.172 106.047 114.303 106.698 113.651 107.639C112.927 108.579 112.564 109.52 112.347 110.243C112.13 110.967 112.13 111.473 112.057 111.473C111.985 111.473 111.985 110.967 112.13 110.243C112.275 109.447 112.709 108.434 113.434 107.494C114.158 106.553 115.1 105.902 115.824 105.54C116.404 105.179 116.911 105.106 116.911 105.106Z" fill="white"/>
</g>
<path d="M118.142 121.603C118.215 121.675 117.853 122.109 117.201 122.543C116.549 122.905 115.969 123.05 115.969 122.977C115.897 122.905 116.476 122.616 117.056 122.254C117.563 121.892 118.07 121.53 118.142 121.603Z" fill="#263238"/>
<path d="M118.429 160.384C116.473 160.529 114.372 160.601 113.141 160.529C110.678 160.384 110.678 160.167 110.75 159.877C110.968 159.154 115.097 160.022 114.3 159.299C113.503 158.575 109.084 158.792 109.301 157.996C109.591 156.983 113.938 157.996 114.3 158.069C114.662 158.141 114.734 157.562 114.445 157.562C113.938 157.49 108.867 156.839 109.156 155.826C109.301 155.247 110.316 155.609 110.316 155.609C110.316 155.609 115.024 156.549 115.169 156.115C115.314 155.609 112.489 154.957 111.547 154.813C110.605 154.668 110.316 154.162 110.75 153.8C111.04 153.583 113.938 153.945 114.879 154.162C115.821 154.306 118.357 154.885 117.342 153.583C116.328 152.28 115.966 150.906 116.183 150.472C116.328 150.037 117.053 150.11 117.125 150.616C117.198 151.05 117.632 151.629 117.922 152.063C118.139 152.425 118.501 152.787 118.864 153.004C119.588 153.51 120.168 153.872 120.53 154.089" fill="#FFBE9D"/>
<path d="M326.482 158.286C326.482 158.286 326.627 158.286 326.917 158.358C327.207 158.43 327.642 158.503 328.149 158.72C329.235 159.009 330.757 159.733 332.423 160.818C334.089 161.903 335.9 163.568 337.494 165.738C339.087 167.909 340.536 170.513 341.478 173.408C342.42 176.374 342.927 179.268 343.217 181.873C343.506 184.55 343.506 186.938 343.506 188.963C343.506 190.989 343.434 192.581 343.434 193.739C343.434 194.245 343.361 194.679 343.361 195.041C343.361 195.33 343.361 195.475 343.289 195.475C343.289 195.475 343.289 195.33 343.289 195.041C343.289 194.679 343.289 194.245 343.289 193.739C343.289 192.581 343.289 190.989 343.289 188.963C343.289 186.938 343.144 184.55 342.927 181.945C342.637 179.34 342.13 176.446 341.188 173.552C340.246 170.658 338.798 168.053 337.276 165.955C335.683 163.857 333.944 162.193 332.278 161.035C330.612 159.878 329.163 159.226 328.076 158.865C327.134 158.43 326.482 158.286 326.482 158.286Z" fill="#263238"/>
<path d="M345.971 195.475C345.971 195.475 345.971 195.33 345.971 194.969C345.971 194.607 345.971 194.1 345.971 193.522C345.971 192.292 345.971 190.483 345.971 188.312C345.971 186.142 345.826 183.465 345.537 180.57C345.247 177.676 344.74 174.493 343.798 171.309C342.856 168.126 341.48 165.159 339.886 162.772C338.292 160.312 336.554 158.358 334.888 156.911C333.222 155.464 331.7 154.523 330.614 154.017C329.527 153.438 328.875 153.221 328.875 153.149C328.875 153.149 329.02 153.221 329.31 153.293C329.599 153.438 330.106 153.583 330.614 153.872C331.773 154.379 333.294 155.319 335.033 156.694C336.771 158.069 338.51 160.095 340.176 162.555C341.77 165.015 343.146 167.981 344.16 171.165C345.102 174.42 345.609 177.604 345.899 180.498C346.189 183.392 346.189 186.069 346.261 188.24C346.261 190.483 346.189 192.219 346.189 193.449C346.189 194.028 346.116 194.535 346.116 194.896C345.971 195.258 345.971 195.475 345.971 195.475Z" fill="#263238"/>
<path d="M272.878 117.406C273.096 117.768 272.734 151.702 272.734 151.702H269.981L269.039 117.406H272.878Z" fill="#263238"/>
<path d="M269.69 147.071L272.878 147.216V151.991L276.5 153.872L276.428 157.056L274.109 160.312L273.965 155.753L271.067 154.234L268.531 155.536L268.676 160.456L266.068 157.273L266.213 154.379L269.546 151.846L269.69 147.071Z" fill="#263238"/>
<path d="M287.509 122.688L314.312 155.03C317.138 158.43 322.136 158.865 325.541 156.043C328.946 153.221 329.38 148.229 326.555 144.828L299.752 112.486C296.926 109.086 291.928 108.652 288.523 111.473C285.191 114.295 284.684 119.36 287.509 122.688Z" fill="#455A64"/>
<path d="M271.28 122.543H295.186C297.938 122.543 300.184 120.3 300.184 117.551C300.184 114.802 297.938 112.559 295.186 112.559H271.28C268.527 112.559 266.281 114.802 266.281 117.551C266.281 120.3 268.527 122.543 271.28 122.543Z" fill="#455A64"/>
<path d="M318.949 211.248C325.107 211.248 330.178 206.256 330.178 200.033V151.991C330.178 145.841 325.179 140.776 318.949 140.776C312.792 140.776 307.721 145.769 307.721 151.991V200.033C307.721 206.256 312.792 211.248 318.949 211.248Z" fill="#455A64"/>
<path d="M322.803 204.196C324.826 201.929 324.625 198.453 322.355 196.433C320.085 194.413 316.605 194.613 314.582 196.881C312.56 199.148 312.76 202.624 315.03 204.644C317.301 206.664 320.781 206.464 322.803 204.196Z" fill="#263238"/>
<path d="M322.835 154.364C324.985 152.217 324.985 148.735 322.835 146.588C320.685 144.44 317.199 144.44 315.049 146.588C312.899 148.735 312.899 152.217 315.049 154.364C317.199 156.511 320.685 156.511 322.835 154.364Z" fill="#263238"/>
<path d="M294.537 120.879C296.378 120.879 297.87 119.389 297.87 117.551C297.87 115.713 296.378 114.223 294.537 114.223C292.697 114.223 291.205 115.713 291.205 117.551C291.205 119.389 292.697 120.879 294.537 120.879Z" fill="#263238"/>
<path d="M270.777 119.794C272.017 119.794 273.023 118.79 273.023 117.551C273.023 116.312 272.017 115.308 270.777 115.308C269.537 115.308 268.531 116.312 268.531 117.551C268.531 118.79 269.537 119.794 270.777 119.794Z" fill="#263238"/>
<path d="M307.796 152.932C307.796 152.932 307.796 152.859 307.724 152.642C307.724 152.425 307.651 152.136 307.724 151.774C307.724 151.05 307.868 149.965 308.231 148.663C308.665 147.36 309.39 145.913 310.549 144.539C311.708 143.164 313.302 141.934 315.258 141.21C317.214 140.559 319.242 140.487 320.981 140.776C322.719 141.066 324.24 141.789 325.399 142.513C326.559 143.236 327.283 144.032 327.79 144.611C328.007 144.9 328.225 145.118 328.297 145.335C328.442 145.479 328.442 145.552 328.442 145.624C328.37 145.696 327.5 144.177 325.255 142.802C324.168 142.079 322.647 141.5 320.981 141.21C319.242 140.921 317.286 140.993 315.402 141.645C313.519 142.296 311.925 143.526 310.839 144.828C309.68 146.13 308.955 147.505 308.52 148.808C307.651 151.195 307.941 152.932 307.796 152.932Z" fill="#263238"/>
<path d="M287.874 111.835C287.946 111.908 287.511 112.486 287.149 113.572C286.715 114.657 286.352 116.176 286.425 117.913C286.497 119.649 287.004 121.169 287.511 122.182C288.019 123.195 288.453 123.773 288.381 123.846C288.381 123.846 288.236 123.701 288.019 123.484C287.801 123.267 287.511 122.833 287.222 122.326C286.932 121.82 286.642 121.169 286.425 120.445C286.208 119.722 286.063 118.853 285.99 117.985C285.99 117.117 286.063 116.249 286.208 115.453C286.352 114.729 286.57 114.006 286.86 113.499C287.077 112.993 287.367 112.559 287.511 112.269C287.729 111.908 287.874 111.835 287.874 111.835Z" fill="#263238"/>
<path d="M78.2987 102.574C78.0813 103.008 79.4577 127.97 79.4577 127.97L82.6452 127.898L82.7176 102.429L78.2987 102.574Z" fill="#263238"/>
<path d="M84.1686 114.585L76.6346 115.163L76.9968 126.523L68.666 131.153L68.8833 138.606L74.6787 146.131L74.6063 135.422L81.4158 131.66L87.4285 134.554V146.131L93.3687 138.461L92.7892 131.588L84.7481 125.944L84.1686 114.585Z" fill="#263238"/>
<path d="M61.8537 109.158L31.1383 146.203C27.9509 150.11 22.1555 150.616 18.2436 147.433C14.3318 144.249 13.8247 138.461 17.0121 134.554L47.7275 97.5093C50.915 93.6022 56.7103 93.0957 60.6222 96.2793C64.5341 99.5352 65.0412 105.251 61.8537 109.158Z" fill="#455A64"/>
<path d="M80.4007 108.941H53.0901C49.9027 108.941 47.3672 106.409 47.3672 103.225C47.3672 100.042 49.9027 97.5093 53.0901 97.5093H80.4007C83.5882 97.5093 86.1236 100.042 86.1236 103.225C86.1236 106.409 83.5882 108.941 80.4007 108.941Z" fill="#455A64"/>
<path d="M25.8515 210.525C18.7522 210.525 13.0293 204.809 13.0293 197.718V142.657C13.0293 135.567 18.7522 129.851 25.8515 129.851C32.9508 129.851 38.6737 135.567 38.6737 142.657V197.718C38.6737 204.809 32.9508 210.525 25.8515 210.525Z" fill="#455A64"/>
<path d="M30.5882 202.727C33.0494 200.269 33.0494 196.283 30.5882 193.825C28.1269 191.367 24.1365 191.367 21.6752 193.825C19.214 196.283 19.214 200.269 21.6752 202.727C24.1365 205.185 28.1269 205.185 30.5882 202.727Z" fill="#263238"/>
<path d="M32.0496 141.953C32.6072 138.521 30.274 135.288 26.8381 134.731C23.4023 134.174 20.1649 136.505 19.6073 139.936C19.0497 143.368 21.383 146.601 24.8188 147.158C28.2547 147.715 31.492 145.385 32.0496 141.953Z" fill="#263238"/>
<path d="M53.814 107.06C55.9345 107.06 57.6535 105.343 57.6535 103.225C57.6535 101.107 55.9345 99.3905 53.814 99.3905C51.6936 99.3905 49.9746 101.107 49.9746 103.225C49.9746 105.343 51.6936 107.06 53.814 107.06Z" fill="#263238"/>
<path d="M82.8654 101.416C83.8795 102.429 83.8795 104.093 82.8654 105.106C81.8512 106.119 80.185 106.119 79.1708 105.106C78.1566 104.093 78.1566 102.429 79.1708 101.416C80.185 100.403 81.8512 100.403 82.8654 101.416Z" fill="#263238"/>
<path d="M38.6006 143.743C38.4558 143.743 38.818 141.789 37.8038 138.895C37.2967 137.448 36.4274 135.856 35.1234 134.337C33.8195 132.818 32.0084 131.515 29.8352 130.719C27.6619 129.996 25.4162 129.851 23.4603 130.213C21.5043 130.575 19.8382 131.298 18.5342 132.094C15.9263 133.686 14.9846 135.422 14.9121 135.35C14.9121 135.35 14.9845 135.278 15.057 135.06C15.2019 134.916 15.3468 134.554 15.6365 134.265C16.1436 133.613 17.0854 132.745 18.3893 131.877C19.6933 131.009 21.3594 130.285 23.3878 129.923C25.4162 129.562 27.7343 129.634 29.98 130.43C32.2258 131.226 34.0368 132.673 35.4132 134.192C36.7172 135.712 37.5865 137.376 38.0936 138.895C38.6006 140.342 38.7455 141.645 38.7455 142.44C38.7455 142.875 38.7455 143.236 38.7455 143.453C38.6731 143.598 38.6006 143.743 38.6006 143.743Z" fill="#263238"/>
<path d="M61.4169 96.6411C61.4169 96.6411 61.5618 96.7858 61.7791 97.0752C61.9964 97.3646 62.2862 97.8711 62.5035 98.4499C62.7933 99.0287 63.0106 99.8246 63.2279 100.693C63.3728 101.561 63.5177 102.574 63.4453 103.587C63.3728 104.6 63.2279 105.54 62.9382 106.409C62.6484 107.277 62.3586 108 61.9964 108.579C61.6342 109.158 61.3445 109.592 61.1271 109.882C60.9098 110.171 60.7649 110.316 60.6925 110.316C60.62 110.243 61.1271 109.665 61.7067 108.435C61.9964 107.856 62.2862 107.132 62.5035 106.264C62.7208 105.396 62.8657 104.528 62.9382 103.515C63.0106 102.502 62.8657 101.561 62.7208 100.693C62.576 99.8246 62.3586 99.1011 62.0689 98.5222C61.8515 97.3646 61.4169 96.7134 61.4169 96.6411Z" fill="#263238"/>
<path d="M365.585 216H12.4147C6.64349 216 2 210.204 2 203C2 195.796 6.64349 190 12.4147 190H365.585C371.357 190 376 195.796 376 203C376 210.121 371.357 216 365.585 216Z" fill="#455A64"/>
<path d="M322.708 203.234C323.427 200.201 321.548 197.16 318.512 196.441C315.475 195.723 312.43 197.599 311.711 200.632C310.991 203.665 312.87 206.706 315.907 207.425C318.943 208.143 321.988 206.267 322.708 203.234Z" fill="#263238"/>
<path d="M369.113 202.552C369.911 199.539 368.113 196.449 365.096 195.652C362.08 194.854 358.987 196.65 358.188 199.663C357.39 202.676 359.188 205.765 362.205 206.563C365.221 207.361 368.314 205.565 369.113 202.552Z" fill="#263238"/>
<path d="M269.631 205.957C271.837 203.753 271.837 200.18 269.631 197.976C267.424 195.772 263.847 195.772 261.64 197.976C259.433 200.18 259.433 203.753 261.64 205.957C263.847 208.161 267.424 208.161 269.631 205.957Z" fill="#263238"/>
<path d="M216.211 207.179C219.096 205.991 220.471 202.693 219.283 199.811C218.094 196.929 214.791 195.555 211.906 196.743C209.021 197.93 207.645 201.228 208.834 204.11C210.023 206.992 213.325 208.366 216.211 207.179Z" fill="#263238"/>
<path d="M167.975 203.24C168.694 200.207 166.816 197.166 163.779 196.447C160.742 195.729 157.698 197.605 156.978 200.638C156.259 203.671 158.138 206.712 161.174 207.431C164.211 208.149 167.256 206.273 167.975 203.24Z" fill="#263238"/>
<path d="M114.95 205.903C117.121 203.665 117.065 200.092 114.824 197.923C112.583 195.754 109.006 195.81 106.835 198.049C104.663 200.287 104.719 203.86 106.96 206.029C109.201 208.198 112.778 208.142 114.95 205.903Z" fill="#263238"/>
<path d="M61.4907 207.194C64.3739 206.002 65.743 202.7 64.5487 199.821C63.3544 196.941 60.049 195.574 57.1658 196.766C54.2826 197.959 52.9135 201.261 54.1078 204.14C55.302 207.02 58.6075 208.387 61.4907 207.194Z" fill="#263238"/>
<path d="M58.284 274H5L5.71602 213H59L58.284 274Z" fill="#263238"/>
<path d="M345.029 273.761H280.338L280.845 212.695H345.536L345.029 273.761Z" fill="#263238"/>
<path d="M39.322 189.904C39.322 189.976 33.3818 190.121 26.1376 190.121C18.8209 190.121 12.9531 190.049 12.9531 189.904C12.9531 189.759 18.8934 189.687 26.1376 189.687C33.3818 189.687 39.322 189.832 39.322 189.904Z" fill="#263238"/>
<path d="M363.066 210.525C363.066 210.525 363.211 210.525 363.573 210.452C363.935 210.452 364.442 210.38 365.167 210.235C365.819 210.09 366.688 209.801 367.63 209.295C368.572 208.788 369.513 208.065 370.383 206.979C371.252 205.894 371.976 204.519 372.339 202.855C372.701 201.191 372.628 199.31 371.904 197.429C371.179 195.548 369.803 193.811 367.775 192.653C366.76 192.075 365.601 191.713 364.442 191.496C363.211 191.351 361.979 191.423 360.675 191.423C339.74 191.423 309.531 191.423 272.151 191.496C197.391 191.496 94.0889 191.496 -20.0072 191.568C-21.7458 191.568 -23.4844 192.075 -25.0057 193.015C-25.7302 193.449 -26.4546 194.028 -27.0341 194.679C-27.6136 195.33 -28.1207 196.054 -28.4829 196.85C-29.2798 198.369 -29.5696 200.178 -29.4247 201.915C-29.2074 203.651 -28.6278 205.315 -27.5412 206.69C-27.0341 207.341 -26.3821 207.992 -25.7302 208.499C-25.0782 209.005 -24.2813 209.439 -23.4845 209.729C-22.6876 210.09 -21.8183 210.235 -20.949 210.308C-20.0797 210.38 -19.2104 210.38 -18.3411 210.38C-14.8639 210.38 -11.3866 210.38 -7.90942 210.38C5.99944 210.38 19.691 210.38 33.0927 210.38C59.9687 210.38 85.9754 210.38 110.678 210.38C160.084 210.38 204.635 210.38 242.015 210.452C279.395 210.452 309.676 210.525 330.54 210.525C340.971 210.525 349.085 210.525 354.59 210.525C357.343 210.525 359.444 210.525 360.82 210.525C362.342 210.525 363.066 210.525 363.066 210.525C363.066 210.525 362.342 210.525 360.965 210.525C359.516 210.525 357.488 210.525 354.735 210.525C349.229 210.525 341.116 210.525 330.684 210.525C309.749 210.525 279.54 210.525 242.16 210.597C204.78 210.597 160.228 210.597 110.823 210.669C86.1203 210.669 60.186 210.669 33.2376 210.669C19.7634 210.669 6.07188 210.669 -7.76454 210.669C-11.2418 210.669 -14.719 210.669 -18.1962 210.669C-19.0655 210.669 -19.9348 210.669 -20.8041 210.597C-21.6734 210.525 -22.5427 210.308 -23.412 210.018C-24.2813 209.729 -25.0782 209.295 -25.7302 208.716C-26.4546 208.209 -27.1066 207.558 -27.6136 206.835C-28.7003 205.388 -29.3523 203.651 -29.5696 201.915C-29.7145 200.106 -29.4247 198.297 -28.6278 196.633C-28.2656 195.837 -27.7585 195.041 -27.1065 194.39C-26.527 193.739 -25.8026 193.16 -25.0057 192.653C-23.4844 191.713 -21.6734 191.206 -19.8624 191.206C94.2338 191.206 197.536 191.279 272.296 191.279C309.676 191.279 339.957 191.351 360.82 191.351C362.124 191.351 363.428 191.279 364.66 191.496C365.891 191.64 367.05 192.075 368.064 192.653C370.093 193.811 371.542 195.62 372.266 197.501C372.99 199.382 373.063 201.336 372.701 203C372.339 204.664 371.542 206.039 370.672 207.124C369.803 208.209 368.789 208.933 367.847 209.439C366.905 209.946 366.108 210.163 365.384 210.38C364.66 210.525 364.153 210.597 363.79 210.597C363.283 210.525 363.066 210.525 363.066 210.525Z" fill="#263238"/>
<path d="M291.347 165.955H254.039V189.904H291.347V165.955Z" fill="#E39D29"/>
<path d="M295.043 166.389C295.043 168.343 293.449 170.007 291.421 170.007C289.465 170.007 287.799 168.415 287.799 166.389C287.799 164.436 289.393 162.772 291.421 162.772C293.449 162.772 295.043 164.363 295.043 166.389Z" fill="#455A64"/>
<path d="M289.609 166.028L291.058 167.475L293.304 165.232" stroke="white" stroke-miterlimit="10"/>
<path d="M280.192 190.266C280.12 190.266 279.975 184.839 279.975 178.255C279.975 171.599 280.047 166.245 280.192 166.245C280.264 166.245 280.409 171.671 280.409 178.255C280.409 184.839 280.337 190.266 280.192 190.266Z" fill="#263238"/>
<path d="M187.975 168.27H154V190.049H187.975V168.27Z" fill="#E39D29"/>
<path d="M174.864 190.121C174.791 190.121 174.646 185.273 174.646 179.196C174.646 173.19 174.719 168.27 174.864 168.27C174.936 168.27 175.081 173.118 175.081 179.196C175.081 185.201 175.009 190.121 174.864 190.121Z" fill="#263238"/>
<path d="M67.5781 149.893H43.5273V189.904H67.5781V149.893Z" fill="#E39D29"/>
<path d="M62.2915 189.832C62.2191 189.832 62.0742 180.932 62.0742 170.007C62.0742 159.009 62.1466 150.182 62.2915 150.182C62.364 150.182 62.5088 159.082 62.5088 170.007C62.5088 180.932 62.4364 189.832 62.2915 189.832Z" fill="#263238"/>
</g>
<defs>
<clipPath id="clip0">
<rect width="407" height="300" fill="white"/>
</clipPath>
</defs>
</svg>
