<svg width="553" height="360" viewBox="0 0 553 360" fill="none" xmlns="http://www.w3.org/2000/svg">
<g clip-path="url(#clip0)">
<path d="M570.494 271.559H-28.2715V271.832H570.494V271.559Z" fill="#D1E3FF"/>
<path d="M138.305 281.934H80.105V282.207H138.305V281.934Z" fill="#D1E3FF"/>
<path d="M67.1717 282.025H51.8433V282.298H67.1717V282.025Z" fill="#D1E3FF"/>
<path d="M222.851 280.478H204.888V280.751H222.851V280.478Z" fill="#D1E3FF"/>
<path d="M302.965 280.478H229.677V280.751H302.965V280.478Z" fill="#D1E3FF"/>
<path d="M475.53 282.207H407.51V282.48H475.53V282.207Z" fill="#D1E3FF"/>
<path d="M400.804 282.207H382.841V282.48H400.804V282.207Z" fill="#D1E3FF"/>
<path d="M508.941 278.112H493.493V278.385H508.941V278.112Z" fill="#D1E3FF"/>
<path d="M255.543 230.97H24.3C20.5877 230.97 17.4741 228.603 17.4741 225.782V-21.2126C17.4741 -24.0338 20.5877 -26.4 24.3 -26.4H255.543C259.256 -26.4 262.369 -24.0338 262.369 -21.2126V225.782C262.369 228.603 259.375 230.97 255.543 230.97ZM24.3 -26.218C20.7075 -26.218 17.7136 -24.0338 17.7136 -21.2126V225.782C17.7136 228.512 20.5877 230.788 24.3 230.788H255.543C259.136 230.788 262.13 228.603 262.13 225.782V-21.2126C262.13 -23.9428 259.256 -26.218 255.543 -26.218H24.3Z" fill="#D1E3FF"/>
<path d="M514.569 230.97H283.326C279.614 230.97 276.5 228.603 276.5 225.782V-21.2126C276.5 -24.0338 279.614 -26.4 283.326 -26.4H514.569C518.281 -26.4 521.395 -24.0338 521.395 -21.2126V225.782C521.395 228.603 518.401 230.97 514.569 230.97ZM283.326 -26.218C279.733 -26.218 276.74 -24.0338 276.74 -21.2126V225.782C276.74 228.512 279.614 230.788 283.326 230.788H514.569C518.162 230.788 521.156 228.603 521.156 225.782V-21.2126C521.156 -23.9428 518.281 -26.218 514.569 -26.218H283.326Z" fill="#D1E3FF"/>
<path d="M570.494 258.09H487.984C486.188 258.09 484.631 256.907 484.631 255.542V90.6358C484.631 89.4527 483.434 88.5426 481.877 88.5426H473.135V88.0876H481.877C483.673 88.0876 485.23 89.2707 485.23 90.6358V255.542C485.23 256.725 486.427 257.635 487.984 257.635H570.494V258.09Z" fill="#60DBF3"/>
<path d="M570.494 254.723H490.738C488.942 254.723 487.385 253.539 487.385 252.174V87.3595C487.385 86.1764 486.188 85.2663 484.631 85.2663H473.135V84.8113H484.631C486.427 84.8113 487.984 85.9944 487.984 87.3595V252.265C487.984 253.448 489.182 254.359 490.738 254.359H570.494V254.723Z" fill="#60DBF3"/>
<path d="M570.494 251.446H493.612C491.816 251.446 490.259 250.263 490.259 248.898V83.9922C490.259 82.8091 489.062 81.8991 487.505 81.8991H473.254V81.444H487.505C489.301 81.444 490.858 82.6271 490.858 83.9922V248.898C490.858 250.081 492.056 250.991 493.612 250.991H570.494V251.446Z" fill="#60DBF3"/>
<path d="M570.494 248.079H496.367C494.571 248.079 493.014 246.896 493.014 245.531V80.6249C493.014 79.4418 491.816 78.5318 490.259 78.5318H473.135V78.0767H490.259C492.056 78.0767 493.613 79.2598 493.613 80.6249V245.531C493.613 246.714 494.81 247.624 496.367 247.624H570.494V248.079Z" fill="#60DBF3"/>
<path d="M570.494 244.803H499.241C497.445 244.803 495.888 243.62 495.888 242.255V77.3486C495.888 76.1655 494.69 75.2555 493.133 75.2555H473.254V74.8004H493.133C494.93 74.8004 496.487 75.9835 496.487 77.3486V242.255C496.487 243.438 497.684 244.348 499.241 244.348H570.494V244.803Z" fill="#60DBF3"/>
<path d="M570.494 241.435H501.995C500.199 241.435 498.642 240.252 498.642 238.887V73.9814C498.642 72.7983 497.445 71.8882 495.888 71.8882H473.135V71.4332H495.888C497.684 71.4332 499.241 72.6163 499.241 73.9814V238.887C499.241 240.07 500.438 240.98 501.995 240.98H570.494V241.435Z" fill="#60DBF3"/>
<path d="M570.494 238.068H504.75C502.953 238.068 501.396 236.885 501.396 235.52V70.7051C501.396 69.522 500.199 68.6119 498.642 68.6119H473.135V68.1569H498.642C500.438 68.1569 501.995 69.34 501.995 70.7051V235.611C501.995 236.794 503.193 237.704 504.75 237.704H570.494V238.068Z" fill="#60DBF3"/>
<path d="M305.6 104.651H231.593V105.106H305.6V104.651Z" fill="#60DBF3"/>
<path d="M305.6 101.375H231.593V101.83H305.6V101.375Z" fill="#60DBF3"/>
<path d="M305.6 98.0074H231.593V98.4624H305.6V98.0074Z" fill="#60DBF3"/>
<path d="M305.6 94.6401H231.593V95.0952H305.6V94.6401Z" fill="#60DBF3"/>
<path d="M305.6 91.3638H231.593V91.8189H305.6V91.3638Z" fill="#60DBF3"/>
<path d="M305.6 87.9965H231.593V88.4516H305.6V87.9965Z" fill="#60DBF3"/>
<path d="M305.6 84.7203H231.593V85.1753H305.6V84.7203Z" fill="#60DBF3"/>
<path d="M305.6 217.5H231.593V217.956H305.6V217.5Z" fill="#60DBF3"/>
<path d="M305.6 214.133H231.593V214.588H305.6V214.133Z" fill="#60DBF3"/>
<path d="M305.6 210.857H231.593V211.312H305.6V210.857Z" fill="#60DBF3"/>
<path d="M305.6 207.49H231.593V207.945H305.6V207.49Z" fill="#60DBF3"/>
<path d="M305.6 204.122H231.593V204.577H305.6V204.122Z" fill="#60DBF3"/>
<path d="M305.6 200.846H231.593V201.301H305.6V200.846Z" fill="#60DBF3"/>
<path d="M305.6 197.479H231.593V197.934H305.6V197.479Z" fill="#60DBF3"/>
<path d="M86.5718 241.89H57.831C56.0347 241.89 54.4779 240.707 54.4779 239.342V74.4364C54.4779 73.2533 53.2804 72.3432 51.7236 72.3432H17.8335V71.8882H51.8434C53.6397 71.8882 55.1965 73.0713 55.1965 74.4364V239.342C55.1965 240.525 56.394 241.435 57.9508 241.435H86.6915V241.89H86.5718Z" fill="#60DBF3"/>
<path d="M86.5718 245.167H55.0767C53.2804 245.167 51.7236 243.984 51.7236 242.619V77.8036C51.7236 76.6205 50.5261 75.7105 48.9693 75.7105H17.8335V75.2554H48.9693C50.7656 75.2554 52.3224 76.4385 52.3224 77.8036V242.71C52.3224 243.893 53.5199 244.803 55.0767 244.803H86.5718V245.167Z" fill="#60DBF3"/>
<path d="M86.5718 248.534H52.3224C50.5261 248.534 48.9693 247.351 48.9693 245.986V81.0799C48.9693 79.8968 47.7718 78.9867 46.215 78.9867H17.8335V78.5317H46.215C48.0113 78.5317 49.5681 79.7148 49.5681 81.0799V245.986C49.5681 247.169 50.7656 248.079 52.3224 248.079H86.6915V248.534H86.5718Z" fill="#60DBF3"/>
<path d="M86.5718 251.81H49.4483C47.652 251.81 46.0952 250.627 46.0952 249.262V84.4472C46.0952 83.2641 44.8977 82.354 43.3409 82.354H17.8335V81.899H43.3409C45.1372 81.899 46.694 83.0821 46.694 84.4472V249.353C46.694 250.536 47.8915 251.446 49.4483 251.446H86.5718V251.81Z" fill="#60DBF3"/>
<path d="M86.5718 255.178H46.694C44.8977 255.178 43.3409 253.994 43.3409 252.629V87.7234C43.3409 86.5403 42.1434 85.6303 40.5866 85.6303H17.8335V85.1752H40.5866C42.3829 85.1752 43.9397 86.3583 43.9397 87.7234V252.629C43.9397 253.812 45.1372 254.722 46.694 254.722H86.6915V255.178H86.5718Z" fill="#60DBF3"/>
<path d="M86.5718 258.545H43.8199C42.0236 258.545 40.4668 257.362 40.4668 255.997V91.0908C40.4668 89.9077 39.2693 88.9976 37.7125 88.9976H17.8335V88.5425H37.8323C39.6286 88.5425 41.1853 89.7256 41.1853 91.0908V255.997C41.1853 257.18 42.3829 258.09 43.9397 258.09H86.6915V258.545H86.5718Z" fill="#60DBF3"/>
<path d="M86.5718 261.821H41.0656C39.2693 261.821 37.7125 260.638 37.7125 259.273V94.3671C37.7125 93.184 36.515 92.2739 34.9582 92.2739H17.8335V91.8188H34.9582C36.7545 91.8188 38.3113 93.0019 38.3113 94.3671V259.273C38.3113 260.456 39.5088 261.366 41.0656 261.366H86.5718V261.821Z" fill="#60DBF3"/>
<path d="M208.121 257.817H86.5718V271.559H208.121V257.817Z" fill="#5CDBF5"/>
<path d="M208.097 271.598H232.767V257.856H208.097V271.598Z" fill="#60DBF3"/>
<path d="M208.121 15.8275H78.4285V257.908H208.121V15.8275Z" fill="#67AEC1"/>
<path d="M230.156 13.7343H89.3259V15.8275H230.156V13.7343Z" fill="#5CDBF5"/>
<path d="M208.174 257.836H240.987L240.987 15.7558H208.174L208.174 257.836Z" fill="#5CDBF5"/>
<path d="M204.289 18.7397H82.2605V45.2229H204.289V18.7397Z" fill="#5CDBF5"/>
<path d="M204.289 228.33H82.2605V254.814H204.289V228.33Z" fill="#5CDBF5"/>
<path d="M204.289 198.389H82.2605V224.872H204.289V198.389Z" fill="#5CDBF5"/>
<path d="M204.289 168.447H82.2605V194.931H204.289V168.447Z" fill="#5CDBF5"/>
<path d="M204.289 138.506H82.2605V164.989H204.289V138.506Z" fill="#5CDBF5"/>
<path d="M204.289 108.564H82.2605V135.048H204.289V108.564Z" fill="#5CDBF5"/>
<path d="M204.289 78.6227H82.2605V105.106H204.289V78.6227Z" fill="#5CDBF5"/>
<path d="M204.289 48.6813H82.2605V75.1645H204.289V48.6813Z" fill="#5CDBF5"/>
<path opacity="0.7" d="M194.35 41.4006H170.519C167.764 41.4006 165.369 39.6715 165.369 37.4873V26.3843C165.369 24.2912 167.645 22.471 170.519 22.471H194.35C197.104 22.471 199.499 24.2002 199.499 26.3843V37.5783C199.499 39.6715 197.224 41.4006 194.35 41.4006Z" fill="#5CDBF5"/>
<path d="M189.2 33.21V30.6617C189.2 30.0247 189.919 29.4786 190.757 29.4786H194.11C194.948 29.4786 195.667 30.0247 195.667 30.6617V33.21C195.667 33.847 194.948 34.3931 194.11 34.3931H190.757C189.799 34.3931 189.2 33.847 189.2 33.21Z" fill="#67AEC1"/>
<path opacity="0.7" d="M194.35 71.3422H170.519C167.764 71.3422 165.369 69.613 165.369 67.4289V56.2349C165.369 54.1417 167.645 52.3216 170.519 52.3216H194.35C197.104 52.3216 199.499 54.0507 199.499 56.2349V67.4289C199.499 69.613 197.224 71.3422 194.35 71.3422Z" fill="#5CDBF5"/>
<path d="M189.2 63.1515V60.6033C189.2 59.9662 189.919 59.4202 190.757 59.4202H194.11C194.948 59.4202 195.667 59.9662 195.667 60.6033V63.1515C195.667 63.7885 194.948 64.3346 194.11 64.3346H190.757C189.799 64.3346 189.2 63.7885 189.2 63.1515Z" fill="#67AEC1"/>
<path opacity="0.7" d="M194.35 101.284H170.519C167.764 101.284 165.369 99.5545 165.369 97.3703V86.1764C165.369 84.0832 167.645 82.2631 170.519 82.2631H194.35C197.104 82.2631 199.499 83.9922 199.499 86.1764V97.3703C199.499 99.5545 197.224 101.284 194.35 101.284Z" fill="#5CDBF5"/>
<path d="M189.2 93.093V90.5447C189.2 89.9077 189.919 89.3616 190.757 89.3616H194.11C194.948 89.3616 195.667 89.9077 195.667 90.5447V93.093C195.667 93.73 194.948 94.2761 194.11 94.2761H190.757C189.799 94.2761 189.2 93.73 189.2 93.093Z" fill="#67AEC1"/>
<path opacity="0.7" d="M194.35 131.225H170.519C167.764 131.225 165.369 129.496 165.369 127.312V116.118C165.369 114.025 167.645 112.205 170.519 112.205H194.35C197.104 112.205 199.499 113.934 199.499 116.118V127.403C199.499 129.496 197.224 131.225 194.35 131.225Z" fill="#5EDBF4"/>
<path d="M189.2 123.034V120.486C189.2 119.849 189.919 119.303 190.757 119.303H194.11C194.948 119.303 195.667 119.849 195.667 120.486V123.034C195.667 123.672 194.948 124.218 194.11 124.218H190.757C189.799 124.218 189.2 123.672 189.2 123.034Z" fill="#67AEC1"/>
<path opacity="0.7" d="M194.35 161.167H170.519C167.764 161.167 165.369 159.438 165.369 157.253V146.059C165.369 143.966 167.645 142.146 170.519 142.146H194.35C197.104 142.146 199.499 143.875 199.499 146.059V157.253C199.499 159.438 197.224 161.167 194.35 161.167Z" fill="#5CDBF5"/>
<path d="M189.2 152.976V150.428C189.2 149.791 189.919 149.245 190.757 149.245H194.11C194.948 149.245 195.667 149.791 195.667 150.428V152.976C195.667 153.613 194.948 154.159 194.11 154.159H190.757C189.799 154.159 189.2 153.613 189.2 152.976Z" fill="#67AEC1"/>
<path opacity="0.7" d="M194.35 191.108H170.519C167.764 191.108 165.369 189.379 165.369 187.195V176.001C165.369 173.908 167.645 172.088 170.519 172.088H194.35C197.104 172.088 199.499 173.817 199.499 176.001V187.195C199.499 189.379 197.224 191.108 194.35 191.108Z" fill="#5CDBF5"/>
<path d="M189.2 182.918V180.369C189.2 179.732 189.919 179.186 190.757 179.186H194.11C194.948 179.186 195.667 179.732 195.667 180.369V182.918C195.667 183.555 194.948 184.101 194.11 184.101H190.757C189.799 184.101 189.2 183.555 189.2 182.918Z" fill="#67AEC1"/>
<path opacity="0.7" d="M194.35 221.05H170.519C167.764 221.05 165.369 219.321 165.369 217.136V205.942C165.369 203.849 167.645 202.029 170.519 202.029H194.35C197.104 202.029 199.499 203.758 199.499 205.942V217.136C199.499 219.321 197.224 221.05 194.35 221.05Z" fill="white"/>
<path d="M189.2 212.859V210.311C189.2 209.674 189.919 209.128 190.757 209.128H194.11C194.948 209.128 195.667 209.674 195.667 210.311V212.859C195.667 213.496 194.948 214.042 194.11 214.042H190.757C189.799 214.042 189.2 213.496 189.2 212.859Z" fill="#67AEC1"/>
<path opacity="0.7" d="M194.35 250.991H170.519C167.764 250.991 165.369 249.262 165.369 247.078V235.884C165.369 233.791 167.645 231.971 170.519 231.971H194.35C197.104 231.971 199.499 233.7 199.499 235.884V247.078C199.499 249.262 197.224 250.991 194.35 250.991Z" fill="white"/>
<path d="M189.2 242.801V240.252C189.2 239.615 189.919 239.069 190.757 239.069H194.11C194.948 239.069 195.667 239.615 195.667 240.252V242.801C195.667 243.438 194.948 243.984 194.11 243.984H190.757C189.799 243.984 189.2 243.438 189.2 242.801Z" fill="#67AEC1"/>
<path d="M179.26 33.21V30.6617C179.26 30.0247 179.979 29.4786 180.817 29.4786H184.17C185.009 29.4786 185.727 30.0247 185.727 30.6617V33.21C185.727 33.847 185.009 34.3931 184.17 34.3931H180.817C179.979 34.3931 179.26 33.847 179.26 33.21Z" fill="#67AEC1"/>
<path d="M179.26 63.1515V60.6033C179.26 59.9662 179.979 59.4202 180.817 59.4202H184.17C185.009 59.4202 185.727 59.9662 185.727 60.6033V63.1515C185.727 63.7885 185.009 64.3346 184.17 64.3346H180.817C179.979 64.3346 179.26 63.7885 179.26 63.1515Z" fill="#67AEC1"/>
<path d="M179.26 93.093V90.5447C179.26 89.9077 179.979 89.3616 180.817 89.3616H184.17C185.009 89.3616 185.727 89.9077 185.727 90.5447V93.093C185.727 93.73 185.009 94.2761 184.17 94.2761H180.817C179.979 94.2761 179.26 93.73 179.26 93.093Z" fill="#67AEC1"/>
<path d="M179.26 123.034V120.486C179.26 119.849 179.979 119.303 180.817 119.303H184.17C185.009 119.303 185.727 119.849 185.727 120.486V123.034C185.727 123.672 185.009 124.218 184.17 124.218H180.817C179.979 124.218 179.26 123.672 179.26 123.034Z" fill="#67AEC1"/>
<path d="M179.26 152.976V150.428C179.26 149.791 179.979 149.245 180.817 149.245H184.17C185.009 149.245 185.727 149.791 185.727 150.428V152.976C185.727 153.613 185.009 154.159 184.17 154.159H180.817C179.979 154.159 179.26 153.613 179.26 152.976Z" fill="#67AEC1"/>
<path d="M179.26 182.918V180.369C179.26 179.732 179.979 179.186 180.817 179.186H184.17C185.009 179.186 185.727 179.732 185.727 180.369V182.918C185.727 183.555 185.009 184.101 184.17 184.101H180.817C179.979 184.101 179.26 183.555 179.26 182.918Z" fill="#67AEC1"/>
<path d="M179.26 212.859V210.311C179.26 209.674 179.979 209.128 180.817 209.128H184.17C185.009 209.128 185.727 209.674 185.727 210.311V212.859C185.727 213.496 185.009 214.042 184.17 214.042H180.817C179.979 214.042 179.26 213.496 179.26 212.859Z" fill="#67AEC1"/>
<path d="M179.26 242.801V240.252C179.26 239.615 179.979 239.069 180.817 239.069H184.17C185.009 239.069 185.727 239.615 185.727 240.252V242.801C185.727 243.438 185.009 243.984 184.17 243.984H180.817C179.979 243.984 179.26 243.438 179.26 242.801Z" fill="#67AEC1"/>
<path d="M153.274 35.0301C155.523 35.0301 157.346 33.6447 157.346 31.9358C157.346 30.2269 155.523 28.8416 153.274 28.8416C151.026 28.8416 149.203 30.2269 149.203 31.9358C149.203 33.6447 151.026 35.0301 153.274 35.0301Z" fill="#67AEC1"/>
<path d="M145.849 31.9358C145.849 33.665 144.053 35.0301 141.778 35.0301C139.503 35.0301 137.706 33.665 137.706 31.9358C137.706 30.2067 139.503 28.8416 141.778 28.8416C144.053 28.9326 145.849 30.2977 145.849 31.9358Z" fill="#67AEC1"/>
<path d="M134.233 31.9358C134.233 33.665 132.437 35.0301 130.162 35.0301C127.886 35.0301 126.09 33.665 126.09 31.9358C126.09 30.2067 127.886 28.8416 130.162 28.8416C132.437 28.9326 134.233 30.2977 134.233 31.9358Z" fill="#67AEC1"/>
<path d="M118.785 35.0301C121.034 35.0301 122.857 33.6447 122.857 31.9358C122.857 30.2269 121.034 28.8416 118.785 28.8416C116.537 28.8416 114.714 30.2269 114.714 31.9358C114.714 33.6447 116.537 35.0301 118.785 35.0301Z" fill="#67AEC1"/>
<path d="M153.274 64.9716C155.523 64.9716 157.346 63.5863 157.346 61.8773C157.346 60.1684 155.523 58.7831 153.274 58.7831C151.026 58.7831 149.203 60.1684 149.203 61.8773C149.203 63.5863 151.026 64.9716 153.274 64.9716Z" fill="#67AEC1"/>
<path d="M145.849 61.8773C145.849 63.6065 144.053 64.9716 141.778 64.9716C139.503 64.9716 137.706 63.6065 137.706 61.8773C137.706 60.1482 139.503 58.7831 141.778 58.7831C144.053 58.8741 145.849 60.2392 145.849 61.8773Z" fill="#67AEC1"/>
<path d="M134.233 61.8773C134.233 63.6065 132.437 64.9716 130.162 64.9716C127.886 64.9716 126.09 63.6065 126.09 61.8773C126.09 60.1482 127.886 58.7831 130.162 58.7831C132.437 58.8741 134.233 60.2392 134.233 61.8773Z" fill="#67AEC1"/>
<path d="M118.785 64.9716C121.034 64.9716 122.857 63.5863 122.857 61.8773C122.857 60.1684 121.034 58.7831 118.785 58.7831C116.537 58.7831 114.714 60.1684 114.714 61.8773C114.714 63.5863 116.537 64.9716 118.785 64.9716Z" fill="#67AEC1"/>
<path d="M157.346 91.8189C157.346 93.548 155.549 94.9131 153.274 94.9131C150.999 94.9131 149.202 93.548 149.202 91.8189C149.202 90.0897 150.999 88.7246 153.274 88.7246C155.549 88.7246 157.346 90.1807 157.346 91.8189Z" fill="#67AEC1"/>
<path d="M145.849 91.8189C145.849 93.548 144.053 94.9131 141.778 94.9131C139.502 94.9131 137.706 93.548 137.706 91.8189C137.706 90.0897 139.502 88.7246 141.778 88.7246C144.053 88.8156 145.849 90.1807 145.849 91.8189Z" fill="#67AEC1"/>
<path d="M134.233 91.8189C134.233 93.548 132.437 94.9131 130.162 94.9131C127.886 94.9131 126.09 93.548 126.09 91.8189C126.09 90.0897 127.886 88.7246 130.162 88.7246C132.437 88.8156 134.233 90.1807 134.233 91.8189Z" fill="#67AEC1"/>
<path d="M122.737 91.8189C122.737 93.548 120.941 94.9131 118.665 94.9131C116.39 94.9131 114.594 93.548 114.594 91.8189C114.594 90.0897 116.39 88.7246 118.665 88.7246C120.941 88.7246 122.737 90.1807 122.737 91.8189Z" fill="#67AEC1"/>
<path d="M157.346 121.76C157.346 123.49 155.549 124.855 153.274 124.855C150.999 124.855 149.202 123.49 149.202 121.76C149.202 120.031 150.999 118.666 153.274 118.666C155.549 118.666 157.346 120.122 157.346 121.76Z" fill="#67AEC1"/>
<path d="M145.849 121.76C145.849 123.49 144.053 124.855 141.778 124.855C139.502 124.855 137.706 123.49 137.706 121.76C137.706 120.031 139.502 118.666 141.778 118.666C144.053 118.757 145.849 120.122 145.849 121.76Z" fill="#67AEC1"/>
<path d="M134.233 121.76C134.233 123.49 132.437 124.855 130.162 124.855C127.886 124.855 126.09 123.49 126.09 121.76C126.09 120.031 127.886 118.666 130.162 118.666C132.437 118.757 134.233 120.122 134.233 121.76Z" fill="#67AEC1"/>
<path d="M122.737 121.76C122.737 123.49 120.941 124.855 118.665 124.855C116.39 124.855 114.594 123.49 114.594 121.76C114.594 120.031 116.39 118.666 118.665 118.666C120.941 118.666 122.737 120.122 122.737 121.76Z" fill="#67AEC1"/>
<path d="M157.346 151.702C157.346 153.431 155.549 154.796 153.274 154.796C150.999 154.796 149.202 153.431 149.202 151.702C149.202 149.973 150.999 148.608 153.274 148.608C155.549 148.608 157.346 150.064 157.346 151.702Z" fill="#67AEC1"/>
<path d="M145.849 151.702C145.849 153.431 144.053 154.796 141.778 154.796C139.502 154.796 137.706 153.431 137.706 151.702C137.706 149.973 139.502 148.608 141.778 148.608C144.053 148.699 145.849 150.064 145.849 151.702Z" fill="#67AEC1"/>
<path d="M134.233 151.702C134.233 153.431 132.437 154.796 130.162 154.796C127.886 154.796 126.09 153.431 126.09 151.702C126.09 149.973 127.886 148.608 130.162 148.608C132.437 148.699 134.233 150.064 134.233 151.702Z" fill="#67AEC1"/>
<path d="M122.737 151.702C122.737 153.431 120.941 154.796 118.665 154.796C116.39 154.796 114.594 153.431 114.594 151.702C114.594 149.973 116.39 148.608 118.665 148.608C120.941 148.608 122.737 150.064 122.737 151.702Z" fill="#67AEC1"/>
<path d="M157.346 181.643C157.346 183.373 155.549 184.738 153.274 184.738C150.999 184.738 149.202 183.373 149.202 181.643C149.202 179.914 150.999 178.549 153.274 178.549C155.549 178.549 157.346 180.005 157.346 181.643Z" fill="#67AEC1"/>
<path d="M145.849 181.643C145.849 183.373 144.053 184.738 141.778 184.738C139.502 184.738 137.706 183.373 137.706 181.643C137.706 179.914 139.502 178.549 141.778 178.549C144.053 178.64 145.849 180.005 145.849 181.643Z" fill="#67AEC1"/>
<path d="M134.233 181.643C134.233 183.373 132.437 184.738 130.162 184.738C127.886 184.738 126.09 183.373 126.09 181.643C126.09 179.914 127.886 178.549 130.162 178.549C132.437 178.64 134.233 180.005 134.233 181.643Z" fill="#67AEC1"/>
<path d="M122.737 181.643C122.737 183.373 120.941 184.738 118.665 184.738C116.39 184.738 114.594 183.373 114.594 181.643C114.594 179.914 116.39 178.549 118.665 178.549C120.941 178.549 122.737 180.005 122.737 181.643Z" fill="#67AEC1"/>
<path d="M153.274 214.679C155.523 214.679 157.346 213.294 157.346 211.585C157.346 209.876 155.523 208.491 153.274 208.491C151.026 208.491 149.203 209.876 149.203 211.585C149.203 213.294 151.026 214.679 153.274 214.679Z" fill="#67AEC1"/>
<path d="M145.849 211.585C145.849 213.314 144.053 214.679 141.778 214.679C139.503 214.679 137.706 213.314 137.706 211.585C137.706 209.856 139.503 208.491 141.778 208.491C144.053 208.582 145.849 209.947 145.849 211.585Z" fill="#67AEC1"/>
<path d="M134.233 211.585C134.233 213.314 132.437 214.679 130.162 214.679C127.886 214.679 126.09 213.314 126.09 211.585C126.09 209.856 127.886 208.491 130.162 208.491C132.437 208.582 134.233 209.947 134.233 211.585Z" fill="#67AEC1"/>
<path d="M118.785 214.679C121.034 214.679 122.857 213.294 122.857 211.585C122.857 209.876 121.034 208.491 118.785 208.491C116.537 208.491 114.714 209.876 114.714 211.585C114.714 213.294 116.537 214.679 118.785 214.679Z" fill="#67AEC1"/>
<path d="M153.274 244.621C155.523 244.621 157.346 243.235 157.346 241.527C157.346 239.818 155.523 238.432 153.274 238.432C151.026 238.432 149.203 239.818 149.203 241.527C149.203 243.235 151.026 244.621 153.274 244.621Z" fill="#67AEC1"/>
<path d="M145.849 241.527C145.849 243.256 144.053 244.621 141.778 244.621C139.503 244.621 137.706 243.256 137.706 241.527C137.706 239.797 139.503 238.432 141.778 238.432C144.053 238.523 145.849 239.888 145.849 241.527Z" fill="#67AEC1"/>
<path d="M134.233 241.527C134.233 243.256 132.437 244.621 130.162 244.621C127.886 244.621 126.09 243.256 126.09 241.527C126.09 239.797 127.886 238.432 130.162 238.432C132.437 238.523 134.233 239.888 134.233 241.527Z" fill="#67AEC1"/>
<path d="M118.785 244.621C121.034 244.621 122.857 243.235 122.857 241.527C122.857 239.818 121.034 238.432 118.785 238.432C116.537 238.432 114.714 239.818 114.714 241.527C114.714 243.235 116.537 244.621 118.785 244.621Z" fill="#67AEC1"/>
<path d="M97.9483 38.5794C102.776 38.5794 106.69 35.605 106.69 31.9359C106.69 28.2667 102.776 25.2923 97.9483 25.2923C93.1202 25.2923 89.2063 28.2667 89.2063 31.9359C89.2063 35.605 93.1202 38.5794 97.9483 38.5794Z" fill="#60DBF3"/>
<path d="M97.9483 68.5209C102.776 68.5209 106.69 65.5465 106.69 61.8773C106.69 58.2082 102.776 55.2338 97.9483 55.2338C93.1202 55.2338 89.2063 58.2082 89.2063 61.8773C89.2063 65.5465 93.1202 68.5209 97.9483 68.5209Z" fill="#60DBF3"/>
<path d="M106.547 92.9231C107.319 89.3013 104.081 85.8899 99.315 85.3036C94.5492 84.7173 90.0603 87.178 89.2888 90.7998C88.5173 94.4216 91.7553 97.833 96.521 98.4193C101.287 99.0056 105.776 96.5449 106.547 92.9231Z" fill="#60DBF3"/>
<path d="M106.547 122.863C107.319 119.241 104.081 115.83 99.315 115.243C94.5492 114.657 90.0603 117.118 89.2888 120.74C88.5173 124.361 91.7553 127.773 96.5211 128.359C101.287 128.945 105.776 126.485 106.547 122.863Z" fill="#60DBF3"/>
<path d="M101.274 157.857C105.738 156.459 107.865 152.576 106.026 149.183C104.186 145.791 99.0762 144.174 94.6121 145.572C90.1481 146.97 88.0205 150.853 89.86 154.245C91.6995 157.638 96.8095 159.255 101.274 157.857Z" fill="#60DBF3"/>
<path d="M101.275 187.799C105.739 186.401 107.866 182.518 106.027 179.125C104.187 175.733 99.0774 174.116 94.6134 175.514C90.1493 176.912 88.0217 180.795 89.8612 184.188C91.7007 187.58 96.8107 189.197 101.275 187.799Z" fill="#60DBF3"/>
<path d="M97.9483 218.228C102.776 218.228 106.69 215.254 106.69 211.585C106.69 207.916 102.776 204.941 97.9483 204.941C93.1202 204.941 89.2063 207.916 89.2063 211.585C89.2063 215.254 93.1202 218.228 97.9483 218.228Z" fill="#60DBF3"/>
<path d="M97.9483 248.17C102.776 248.17 106.69 245.196 106.69 241.526C106.69 237.857 102.776 234.883 97.9483 234.883C93.1202 234.883 89.2063 237.857 89.2063 241.526C89.2063 245.196 93.1202 248.17 97.9483 248.17Z" fill="#60DBF3"/>
<path d="M441.999 259H301.529V271.559H441.999V259Z" fill="#5CDBF5"/>
<path d="M441.982 271.549H465.334V258.99H441.982V271.549Z" fill="#60DBF3"/>
<path d="M441.879 36.9412H293.625V258.909H441.879V36.9412Z" fill="#67AEC1"/>
<path d="M462.836 35.1211H304.043V37.0323H462.836V35.1211Z" fill="#5CDBF5"/>
<path d="M441.883 259.035H473.139L473.139 37.0678H441.883L441.883 259.035Z" fill="#5CDBF5"/>
<path d="M297.364 63.9436L438.313 63.9436V39.6445L297.364 39.6445V63.9436Z" fill="#5CDBF5"/>
<path d="M297.364 256.186H438.313V231.887H297.364V256.186Z" fill="#5CDBF5"/>
<path d="M297.364 228.749H438.313V204.45H297.364V228.749Z" fill="#5CDBF5"/>
<path d="M297.364 201.312H438.313V177.013H297.364V201.312Z" fill="#5CDBF5"/>
<path d="M297.364 173.783H438.313V149.484H297.364V173.783Z" fill="#5CDBF5"/>
<path d="M297.364 146.346H438.313V122.047L297.364 122.047V146.346Z" fill="#5CDBF5"/>
<path d="M297.364 118.909L438.313 118.909V94.6099L297.364 94.6099V118.909Z" fill="#5CDBF5"/>
<path d="M297.364 91.4717L438.313 91.4717V67.1727L297.364 67.1727V91.4717Z" fill="#5CDBF5"/>
<path d="M306.678 60.5122H374.578C377.213 60.5122 379.368 58.8741 379.368 56.8719V46.6791C379.368 44.6769 377.213 43.0388 374.578 43.0388H306.678C304.044 43.0388 301.888 44.6769 301.888 46.6791V56.8719C301.888 58.8741 304.044 60.5122 306.678 60.5122Z" fill="#60DBF3"/>
<path d="M311.708 52.9586V50.6834C311.708 50.0463 311.109 49.5913 310.271 49.5913H307.037C306.199 49.5913 305.6 50.0463 305.6 50.6834V52.9586C305.6 53.5956 306.199 54.0507 307.037 54.0507H310.271C311.109 54.0507 311.708 53.5046 311.708 52.9586Z" fill="#67AEC1"/>
<path d="M306.678 87.9965H374.578C377.213 87.9965 379.368 86.3584 379.368 84.3562V74.1634C379.368 72.1612 377.213 70.5231 374.578 70.5231H306.678C304.044 70.5231 301.888 72.1612 301.888 74.1634V84.3562C301.888 86.3584 304.044 87.9965 306.678 87.9965Z" fill="#60DBF3"/>
<path d="M311.708 80.4429V78.1677C311.708 77.5307 311.109 77.0756 310.271 77.0756H307.037C306.199 77.0756 305.6 77.5307 305.6 78.1677V80.4429C305.6 81.0799 306.199 81.535 307.037 81.535H310.271C311.109 81.444 311.708 80.9889 311.708 80.4429Z" fill="#67AEC1"/>
<path d="M306.678 115.39H374.578C377.213 115.39 379.368 113.752 379.368 111.75V101.557C379.368 99.5545 377.213 97.9164 374.578 97.9164H306.678C304.044 97.9164 301.888 99.5545 301.888 101.557V111.75C301.888 113.752 304.044 115.39 306.678 115.39Z" fill="#60DBF3"/>
<path d="M311.708 107.836V105.561C311.708 104.924 311.109 104.469 310.271 104.469H307.037C306.199 104.469 305.6 104.924 305.6 105.561V107.836C305.6 108.473 306.199 108.928 307.037 108.928H310.271C311.109 108.928 311.708 108.473 311.708 107.836Z" fill="#67AEC1"/>
<path d="M306.678 142.874H374.578C377.213 142.874 379.368 141.236 379.368 139.234V129.041C379.368 127.039 377.213 125.401 374.578 125.401H306.678C304.044 125.401 301.888 127.039 301.888 129.041V139.234C301.888 141.236 304.044 142.874 306.678 142.874Z" fill="#60DBF3"/>
<path d="M311.708 135.321V133.045C311.708 132.408 311.109 131.953 310.271 131.953H307.037C306.199 131.953 305.6 132.408 305.6 133.045V135.321C305.6 135.958 306.199 136.413 307.037 136.413H310.271C311.109 136.413 311.708 135.958 311.708 135.321Z" fill="#67AEC1"/>
<path d="M306.678 170.359H374.578C377.213 170.359 379.368 168.72 379.368 166.718V156.525C379.368 154.523 377.213 152.885 374.578 152.885H306.678C304.044 152.885 301.888 154.523 301.888 156.525V166.718C301.888 168.72 304.044 170.359 306.678 170.359Z" fill="#60DBF3"/>
<path d="M311.708 162.805V160.53C311.708 159.893 311.109 159.438 310.271 159.438H307.037C306.199 159.438 305.6 159.893 305.6 160.53V162.805C305.6 163.442 306.199 163.897 307.037 163.897H310.271C311.109 163.897 311.708 163.351 311.708 162.805Z" fill="#67AEC1"/>
<path d="M306.678 197.843H374.578C377.213 197.843 379.368 196.205 379.368 194.202V184.01C379.368 182.007 377.213 180.369 374.578 180.369H306.678C304.044 180.369 301.888 182.007 301.888 184.01V194.202C301.888 196.205 304.044 197.843 306.678 197.843Z" fill="#60DBF3"/>
<path d="M311.708 190.289V188.014C311.708 187.377 311.109 186.922 310.271 186.922H307.037C306.199 186.922 305.6 187.377 305.6 188.014V190.289C305.6 190.926 306.199 191.381 307.037 191.381H310.271C311.109 191.29 311.708 190.835 311.708 190.289Z" fill="#67AEC1"/>
<path d="M306.678 225.236H374.578C377.213 225.236 379.368 223.598 379.368 221.596V211.403C379.368 209.401 377.213 207.763 374.578 207.763H306.678C304.044 207.763 301.888 209.401 301.888 211.403V221.596C301.888 223.598 304.044 225.236 306.678 225.236Z" fill="#60DBF3"/>
<path d="M311.708 217.683V215.407C311.708 214.77 311.109 214.315 310.271 214.315H307.037C306.199 214.315 305.6 214.77 305.6 215.407V217.683C305.6 218.32 306.199 218.775 307.037 218.775H310.271C311.109 218.775 311.708 218.32 311.708 217.683Z" fill="#67AEC1"/>
<path d="M306.678 252.72H374.578C377.213 252.72 379.368 251.082 379.368 249.08V238.887C379.368 236.885 377.213 235.247 374.578 235.247H306.678C304.044 235.247 301.888 236.885 301.888 238.887V249.08C301.888 251.082 304.044 252.72 306.678 252.72Z" fill="#60DBF3"/>
<path d="M311.708 245.167V242.892C311.708 242.254 311.109 241.799 310.271 241.799H307.037C306.199 241.799 305.6 242.254 305.6 242.892V245.167C305.6 245.804 306.199 246.259 307.037 246.259H310.271C311.109 246.259 311.708 245.804 311.708 245.167Z" fill="#67AEC1"/>
<path d="M321.048 52.9586V50.6834C321.048 50.0463 320.45 49.5913 319.611 49.5913H316.378C315.54 49.5913 314.941 50.0463 314.941 50.6834V52.9586C314.941 53.5956 315.54 54.0507 316.378 54.0507H319.611C320.45 54.0507 321.048 53.5046 321.048 52.9586Z" fill="#67AEC1"/>
<path d="M321.048 80.4429V78.1677C321.048 77.5307 320.45 77.0756 319.611 77.0756H316.378C315.54 77.0756 314.941 77.5307 314.941 78.1677V80.4429C314.941 81.0799 315.54 81.535 316.378 81.535H319.611C320.45 81.444 321.048 80.9889 321.048 80.4429Z" fill="#67AEC1"/>
<path d="M321.048 107.836V105.561C321.048 104.924 320.45 104.469 319.611 104.469H316.378C315.54 104.469 314.941 104.924 314.941 105.561V107.836C314.941 108.473 315.54 108.928 316.378 108.928H319.611C320.45 108.928 321.048 108.473 321.048 107.836Z" fill="#67AEC1"/>
<path d="M321.048 135.321V133.045C321.048 132.408 320.45 131.953 319.611 131.953H316.378C315.54 131.953 314.941 132.408 314.941 133.045V135.321C314.941 135.958 315.54 136.413 316.378 136.413H319.611C320.45 136.413 321.048 135.958 321.048 135.321Z" fill="#67AEC1"/>
<path d="M321.048 162.805V160.53C321.048 159.893 320.45 159.438 319.611 159.438H316.378C315.54 159.438 314.941 159.893 314.941 160.53V162.805C314.941 163.442 315.54 163.897 316.378 163.897H319.611C320.45 163.897 321.048 163.351 321.048 162.805Z" fill="#67AEC1"/>
<path d="M321.048 190.289V188.014C321.048 187.377 320.45 186.922 319.611 186.922H316.378C315.54 186.922 314.941 187.377 314.941 188.014V190.289C314.941 190.926 315.54 191.381 316.378 191.381H319.611C320.45 191.29 321.048 190.835 321.048 190.289Z" fill="#67AEC1"/>
<path d="M321.048 217.683V215.407C321.048 214.77 320.45 214.315 319.611 214.315H316.378C315.54 214.315 314.941 214.77 314.941 215.407V217.683C314.941 218.32 315.54 218.775 316.378 218.775H319.611C320.45 218.775 321.048 218.32 321.048 217.683Z" fill="#67AEC1"/>
<path d="M321.048 245.167V242.892C321.048 242.254 320.45 241.799 319.611 241.799H316.378C315.54 241.799 314.941 242.254 314.941 242.892V245.167C314.941 245.804 315.54 246.259 316.378 246.259H319.611C320.45 246.259 321.048 245.804 321.048 245.167Z" fill="#67AEC1"/>
<path d="M330.389 52.9586V50.6834C330.389 50.0463 329.79 49.5913 328.952 49.5913H325.719C324.881 49.5913 324.282 50.0463 324.282 50.6834V52.9586C324.282 53.5956 324.881 54.0507 325.719 54.0507H328.952C329.671 54.0507 330.389 53.5046 330.389 52.9586Z" fill="#67AEC1"/>
<path d="M330.389 80.4429V78.1677C330.389 77.5307 329.79 77.0756 328.952 77.0756H325.719C324.881 77.0756 324.282 77.5307 324.282 78.1677V80.4429C324.282 81.0799 324.881 81.535 325.719 81.535H328.952C329.671 81.444 330.389 80.9889 330.389 80.4429Z" fill="#67AEC1"/>
<path d="M330.389 107.836V105.561C330.389 104.924 329.79 104.469 328.952 104.469H325.719C324.881 104.469 324.282 104.924 324.282 105.561V107.836C324.282 108.473 324.881 108.928 325.719 108.928H328.952C329.671 108.928 330.389 108.473 330.389 107.836Z" fill="#67AEC1"/>
<path d="M330.389 135.321V133.045C330.389 132.408 329.79 131.953 328.952 131.953H325.719C324.881 131.953 324.282 132.408 324.282 133.045V135.321C324.282 135.958 324.881 136.413 325.719 136.413H328.952C329.671 136.413 330.389 135.958 330.389 135.321Z" fill="#67AEC1"/>
<path d="M330.389 162.805V160.53C330.389 159.893 329.79 159.438 328.952 159.438H325.719C324.881 159.438 324.282 159.893 324.282 160.53V162.805C324.282 163.442 324.881 163.897 325.719 163.897H328.952C329.671 163.897 330.389 163.351 330.389 162.805Z" fill="#67AEC1"/>
<path d="M330.389 190.289V188.014C330.389 187.377 329.79 186.922 328.952 186.922H325.719C324.881 186.922 324.282 187.377 324.282 188.014V190.289C324.282 190.926 324.881 191.381 325.719 191.381H328.952C329.671 191.29 330.389 190.835 330.389 190.289Z" fill="#67AEC1"/>
<path d="M330.389 217.683V215.407C330.389 214.77 329.79 214.315 328.952 214.315H325.719C324.881 214.315 324.282 214.77 324.282 215.407V217.683C324.282 218.32 324.881 218.775 325.719 218.775H328.952C329.671 218.775 330.389 218.32 330.389 217.683Z" fill="#67AEC1"/>
<path d="M330.389 245.167V242.892C330.389 242.254 329.79 241.799 328.952 241.799H325.719C324.881 241.799 324.282 242.254 324.282 242.892V245.167C324.282 245.804 324.881 246.259 325.719 246.259H328.952C329.671 246.259 330.389 245.804 330.389 245.167Z" fill="#67AEC1"/>
<path d="M339.73 52.9586V50.6834C339.73 50.0463 339.131 49.5913 338.293 49.5913H335.06C334.221 49.5913 333.623 50.0463 333.623 50.6834V52.9586C333.623 53.5956 334.221 54.0507 335.06 54.0507H338.293C339.011 54.0507 339.73 53.5046 339.73 52.9586Z" fill="#67AEC1"/>
<path d="M339.73 80.4429V78.1677C339.73 77.5307 339.131 77.0756 338.293 77.0756H335.06C334.221 77.0756 333.623 77.5307 333.623 78.1677V80.4429C333.623 81.0799 334.221 81.535 335.06 81.535H338.293C339.011 81.444 339.73 80.9889 339.73 80.4429Z" fill="#67AEC1"/>
<path d="M339.73 107.836V105.561C339.73 104.924 339.131 104.469 338.293 104.469H335.06C334.221 104.469 333.623 104.924 333.623 105.561V107.836C333.623 108.473 334.221 108.928 335.06 108.928H338.293C339.011 108.928 339.73 108.473 339.73 107.836Z" fill="#67AEC1"/>
<path d="M339.73 135.321V133.045C339.73 132.408 339.131 131.953 338.293 131.953H335.06C334.221 131.953 333.623 132.408 333.623 133.045V135.321C333.623 135.958 334.221 136.413 335.06 136.413H338.293C339.011 136.413 339.73 135.958 339.73 135.321Z" fill="#67AEC1"/>
<path d="M339.73 162.805V160.53C339.73 159.893 339.131 159.438 338.293 159.438H335.06C334.221 159.438 333.623 159.893 333.623 160.53V162.805C333.623 163.442 334.221 163.897 335.06 163.897H338.293C339.011 163.897 339.73 163.351 339.73 162.805Z" fill="#67AEC1"/>
<path d="M339.73 190.289V188.014C339.73 187.377 339.131 186.922 338.293 186.922H335.06C334.221 186.922 333.623 187.377 333.623 188.014V190.289C333.623 190.926 334.221 191.381 335.06 191.381H338.293C339.011 191.29 339.73 190.835 339.73 190.289Z" fill="#67AEC1"/>
<path d="M339.73 217.683V215.407C339.73 214.77 339.131 214.315 338.293 214.315H335.06C334.221 214.315 333.623 214.77 333.623 215.407V217.683C333.623 218.32 334.221 218.775 335.06 218.775H338.293C339.011 218.775 339.73 218.32 339.73 217.683Z" fill="#67AEC1"/>
<path d="M339.73 245.167V242.892C339.73 242.254 339.131 241.799 338.293 241.799H335.06C334.221 241.799 333.623 242.254 333.623 242.892V245.167C333.623 245.804 334.221 246.259 335.06 246.259H338.293C339.011 246.259 339.73 245.804 339.73 245.167Z" fill="#67AEC1"/>
<path d="M387.032 51.7755C387.032 53.3226 388.709 54.5968 390.864 54.5968C393.02 54.5968 394.696 53.3226 394.696 51.7755C394.696 50.2284 393.02 48.9543 390.864 48.9543C388.709 49.0453 387.032 50.2284 387.032 51.7755Z" fill="#67AEC1"/>
<path d="M397.93 51.7755C397.93 53.3226 399.606 54.5968 401.762 54.5968C403.917 54.5968 405.594 53.3226 405.594 51.7755C405.594 50.2284 403.917 48.9543 401.762 48.9543C399.726 49.0453 397.93 50.2284 397.93 51.7755Z" fill="#67AEC1"/>
<path d="M408.947 51.7755C408.947 53.3226 410.623 54.5968 412.779 54.5968C414.934 54.5968 416.611 53.3226 416.611 51.7755C416.611 50.2284 414.934 48.9543 412.779 48.9543C410.623 49.0453 408.947 50.2284 408.947 51.7755Z" fill="#67AEC1"/>
<path d="M419.845 51.7755C419.845 53.3226 421.521 54.5968 423.677 54.5968C425.832 54.5968 427.509 53.3226 427.509 51.7755C427.509 50.2284 425.832 48.9543 423.677 48.9543C421.521 49.0453 419.845 50.2284 419.845 51.7755Z" fill="#67AEC1"/>
<path d="M387.032 79.2598C387.032 80.807 388.709 82.0811 390.864 82.0811C393.02 82.0811 394.696 80.807 394.696 79.2598C394.696 77.7127 393.02 76.4386 390.864 76.4386C388.709 76.4386 387.032 77.7127 387.032 79.2598Z" fill="#67AEC1"/>
<path d="M397.93 79.2598C397.93 80.807 399.606 82.0811 401.762 82.0811C403.917 82.0811 405.594 80.807 405.594 79.2598C405.594 77.7127 403.917 76.4386 401.762 76.4386C399.726 76.4386 397.93 77.7127 397.93 79.2598Z" fill="#67AEC1"/>
<path d="M408.947 79.2598C408.947 80.807 410.623 82.0811 412.779 82.0811C414.934 82.0811 416.611 80.807 416.611 79.2598C416.611 77.7127 414.934 76.4386 412.779 76.4386C410.623 76.4386 408.947 77.7127 408.947 79.2598Z" fill="#67AEC1"/>
<path d="M419.845 79.2598C419.845 80.807 421.521 82.0811 423.677 82.0811C425.832 82.0811 427.509 80.807 427.509 79.2598C427.509 77.7127 425.832 76.4386 423.677 76.4386C421.521 76.4386 419.845 77.7127 419.845 79.2598Z" fill="#67AEC1"/>
<path d="M387.032 106.744C387.032 108.291 388.709 109.565 390.864 109.565C393.02 109.565 394.696 108.291 394.696 106.744C394.696 105.197 393.02 103.923 390.864 103.923C388.709 103.923 387.032 105.197 387.032 106.744Z" fill="#67AEC1"/>
<path d="M397.93 106.744C397.93 108.291 399.606 109.565 401.762 109.565C403.917 109.565 405.594 108.291 405.594 106.744C405.594 105.197 403.917 103.923 401.762 103.923C399.726 103.923 397.93 105.197 397.93 106.744Z" fill="#67AEC1"/>
<path d="M408.947 106.744C408.947 108.291 410.623 109.565 412.779 109.565C414.934 109.565 416.611 108.291 416.611 106.744C416.611 105.197 414.934 103.923 412.779 103.923C410.623 103.923 408.947 105.197 408.947 106.744Z" fill="#67AEC1"/>
<path d="M419.845 106.744C419.845 108.291 421.521 109.565 423.677 109.565C425.832 109.565 427.509 108.291 427.509 106.744C427.509 105.197 425.832 103.923 423.677 103.923C421.521 103.923 419.845 105.197 419.845 106.744Z" fill="#67AEC1"/>
<path d="M387.032 134.228C387.032 135.776 388.709 137.05 390.864 137.05C393.02 137.05 394.696 135.776 394.696 134.228C394.696 132.681 393.02 131.407 390.864 131.407C388.709 131.407 387.032 132.681 387.032 134.228Z" fill="#67AEC1"/>
<path d="M397.93 134.228C397.93 135.776 399.606 137.05 401.762 137.05C403.917 137.05 405.594 135.776 405.594 134.228C405.594 132.681 403.917 131.407 401.762 131.407C399.726 131.407 397.93 132.681 397.93 134.228Z" fill="#67AEC1"/>
<path d="M408.947 134.228C408.947 135.776 410.623 137.05 412.779 137.05C414.934 137.05 416.611 135.776 416.611 134.228C416.611 132.681 414.934 131.407 412.779 131.407C410.623 131.407 408.947 132.681 408.947 134.228Z" fill="#67AEC1"/>
<path d="M419.845 134.228C419.845 135.776 421.521 137.05 423.677 137.05C425.832 137.05 427.509 135.776 427.509 134.228C427.509 132.681 425.832 131.407 423.677 131.407C421.521 131.407 419.845 132.681 419.845 134.228Z" fill="#67AEC1"/>
<path d="M387.032 161.622C387.032 163.169 388.709 164.443 390.864 164.443C393.02 164.443 394.696 163.169 394.696 161.622C394.696 160.075 393.02 158.801 390.864 158.801C388.709 158.801 387.032 160.075 387.032 161.622Z" fill="#67AEC1"/>
<path d="M397.93 161.622C397.93 163.169 399.606 164.443 401.762 164.443C403.917 164.443 405.594 163.169 405.594 161.622C405.594 160.075 403.917 158.801 401.762 158.801C399.726 158.801 397.93 160.075 397.93 161.622Z" fill="#67AEC1"/>
<path d="M408.947 161.622C408.947 163.169 410.623 164.443 412.779 164.443C414.934 164.443 416.611 163.169 416.611 161.622C416.611 160.075 414.934 158.801 412.779 158.801C410.623 158.801 408.947 160.075 408.947 161.622Z" fill="#67AEC1"/>
<path d="M419.845 161.622C419.845 163.169 421.521 164.443 423.677 164.443C425.832 164.443 427.509 163.169 427.509 161.622C427.509 160.075 425.832 158.801 423.677 158.801C421.521 158.801 419.845 160.075 419.845 161.622Z" fill="#67AEC1"/>
<path d="M387.032 189.106C387.032 190.653 388.709 191.927 390.864 191.927C393.02 191.927 394.696 190.653 394.696 189.106C394.696 187.559 393.02 186.285 390.864 186.285C388.709 186.285 387.032 187.559 387.032 189.106Z" fill="#67AEC1"/>
<path d="M397.93 189.106C397.93 190.653 399.606 191.927 401.762 191.927C403.917 191.927 405.594 190.653 405.594 189.106C405.594 187.559 403.917 186.285 401.762 186.285C399.726 186.285 397.93 187.559 397.93 189.106Z" fill="#67AEC1"/>
<path d="M408.947 189.106C408.947 190.653 410.623 191.927 412.779 191.927C414.934 191.927 416.611 190.653 416.611 189.106C416.611 187.559 414.934 186.285 412.779 186.285C410.623 186.285 408.947 187.559 408.947 189.106Z" fill="#67AEC1"/>
<path d="M419.845 189.106C419.845 190.653 421.521 191.927 423.677 191.927C425.832 191.927 427.509 190.653 427.509 189.106C427.509 187.559 425.832 186.285 423.677 186.285C421.521 186.285 419.845 187.559 419.845 189.106Z" fill="#67AEC1"/>
<path d="M387.032 216.59C387.032 218.138 388.709 219.412 390.864 219.412C393.02 219.412 394.696 218.138 394.696 216.59C394.696 215.043 393.02 213.769 390.864 213.769C388.709 213.769 387.032 215.043 387.032 216.59Z" fill="#67AEC1"/>
<path d="M397.93 216.59C397.93 218.138 399.606 219.412 401.762 219.412C403.917 219.412 405.594 218.138 405.594 216.59C405.594 215.043 403.917 213.769 401.762 213.769C399.726 213.769 397.93 215.043 397.93 216.59Z" fill="#67AEC1"/>
<path d="M408.947 216.59C408.947 218.138 410.623 219.412 412.779 219.412C414.934 219.412 416.611 218.138 416.611 216.59C416.611 215.043 414.934 213.769 412.779 213.769C410.623 213.769 408.947 215.043 408.947 216.59Z" fill="#67AEC1"/>
<path d="M419.845 216.59C419.845 218.138 421.521 219.412 423.677 219.412C425.832 219.412 427.509 218.138 427.509 216.59C427.509 215.043 425.832 213.769 423.677 213.769C421.521 213.769 419.845 215.043 419.845 216.59Z" fill="#67AEC1"/>
<path d="M387.032 244.075C387.032 245.622 388.709 246.896 390.864 246.896C393.02 246.896 394.696 245.622 394.696 244.075C394.696 242.528 393.02 241.253 390.864 241.253C388.709 241.253 387.032 242.528 387.032 244.075Z" fill="#67AEC1"/>
<path d="M397.93 244.075C397.93 245.622 399.606 246.896 401.762 246.896C403.917 246.896 405.594 245.622 405.594 244.075C405.594 242.528 403.917 241.253 401.762 241.253C399.726 241.253 397.93 242.528 397.93 244.075Z" fill="#67AEC1"/>
<path d="M408.947 244.075C408.947 245.622 410.623 246.896 412.779 246.896C414.934 246.896 416.611 245.622 416.611 244.075C416.611 242.528 414.934 241.253 412.779 241.253C410.623 241.253 408.947 242.528 408.947 244.075Z" fill="#67AEC1"/>
<path d="M419.845 244.075C419.845 245.622 421.521 246.896 423.677 246.896C425.832 246.896 427.509 245.622 427.509 244.075C427.509 242.528 425.832 241.253 423.677 241.253C421.521 241.253 419.845 242.528 419.845 244.075Z" fill="#67AEC1"/>
<path d="M277.099 368.52C405.34 368.52 509.3 363.139 509.3 356.501C509.3 349.864 405.34 344.483 277.099 344.483C148.858 344.483 44.8977 349.864 44.8977 356.501C44.8977 363.139 148.858 368.52 277.099 368.52Z" fill="#5CDBF5"/>
<path d="M260.094 343.313H120.103V357.459H260.094V343.313Z" fill="#0053CC"/>
<g opacity="0.2">
<path opacity="0.2" d="M127.168 345.334H123.695V355.438H127.168V345.334Z" fill="#0F264C"/>
<path opacity="0.2" d="M133.395 345.334H129.922V355.438H133.395V345.334Z" fill="#0F264C"/>
<path opacity="0.2" d="M139.503 345.334H136.03V355.438H139.503V345.334Z" fill="#0F264C"/>
<path opacity="0.2" d="M145.61 345.334H142.137V355.438H145.61V345.334Z" fill="#0F264C"/>
<path opacity="0.2" d="M151.837 345.334H148.365V355.438H151.837V345.334Z" fill="#0F264C"/>
<path opacity="0.2" d="M157.945 345.334H154.472V355.438H157.945V345.334Z" fill="#0F264C"/>
<path opacity="0.2" d="M164.172 345.334H160.699V355.438H164.172V345.334Z" fill="#0F264C"/>
<path opacity="0.2" d="M170.279 345.334H166.806V355.438H170.279V345.334Z" fill="#0F264C"/>
<path opacity="0.2" d="M176.506 345.334H173.034V355.438H176.506V345.334Z" fill="#0F264C"/>
<path opacity="0.2" d="M182.614 345.334H179.141V355.438H182.614V345.334Z" fill="#0F264C"/>
<path opacity="0.2" d="M188.721 345.334H185.248V355.438H188.721V345.334Z" fill="#0F264C"/>
<path opacity="0.2" d="M194.948 345.334H191.476V355.438H194.948V345.334Z" fill="#0F264C"/>
<path opacity="0.2" d="M201.056 345.334H197.583V355.438H201.056V345.334Z" fill="#0F264C"/>
<path opacity="0.2" d="M207.283 345.334H203.81V355.438H207.283V345.334Z" fill="#0F264C"/>
<path opacity="0.2" d="M213.39 345.334H209.917V355.438H213.39V345.334Z" fill="#0F264C"/>
<path opacity="0.2" d="M219.618 345.334H216.145V355.438H219.618V345.334Z" fill="#0F264C"/>
<path opacity="0.2" d="M225.725 345.334H222.252V355.438H225.725V345.334Z" fill="#0F264C"/>
<path opacity="0.2" d="M231.832 345.334H228.359V355.438H231.832V345.334Z" fill="#0F264C"/>
<path opacity="0.2" d="M238.059 345.334H234.587V355.438H238.059V345.334Z" fill="#0F264C"/>
<path opacity="0.2" d="M244.167 345.334H240.694V355.438H244.167V345.334Z" fill="#0F264C"/>
<path opacity="0.2" d="M250.394 345.334H246.921V355.438H250.394V345.334Z" fill="#0F264C"/>
<path opacity="0.2" d="M256.501 345.334H253.029V355.438H256.501V345.334Z" fill="#0F264C"/>
</g>
<path d="M260.177 357.508H281.972V343.362H260.177V357.508Z" fill="#0050AF"/>
<path d="M260.094 92.5167H112.798V343.313H260.094V92.5167Z" fill="#4EA4F9"/>
<path d="M279.614 90.3895H122.498V92.5167H279.614V90.3895Z" fill="#0D6AB7"/>
<path d="M108.127 209.406H106.93V219.936H108.127V209.406Z" fill="#197BDD"/>
<path d="M108.127 223.552H106.93V250.993H108.127V223.552Z" fill="#197BDD"/>
<path d="M260.158 343.366H289.258L289.258 92.5704H260.158L260.158 343.366Z" fill="#197BDD"/>
<path opacity="0.6" d="M252.789 183.773H120.103C117.947 183.773 116.151 182.178 116.151 180.263V162.289C116.151 160.374 117.947 158.779 120.103 158.779H252.789C254.945 158.779 256.741 160.374 256.741 162.289V180.263C256.741 182.178 254.945 183.773 252.789 183.773Z" fill="#0D6AB7"/>
<path d="M244.885 168.032L239.257 157.609V185.05H245.125H246.682H256.741V171.329H250.873C248.358 171.329 245.963 170.053 244.885 168.032Z" fill="#197BDD"/>
<path d="M256.741 95.601H116.271V123.042H256.741V95.601Z" fill="#2B97EF"/>
<path d="M256.741 312.681H116.271V340.122H256.741V312.681Z" fill="#2B97EF"/>
<path d="M256.741 281.624H116.271V309.065H256.741V281.624Z" fill="#2B97EF"/>
<path d="M256.741 250.674H116.271V278.114H256.741V250.674Z" fill="#2B97EF"/>
<path d="M256.741 219.616H116.271V247.057H256.741V219.616Z" fill="#2B97EF"/>
<path d="M256.741 188.666H116.271V216.107H256.741V188.666Z" fill="#2B97EF"/>
<path d="M239.257 157.609H98.7866V185.05H239.257V157.609Z" fill="#2B97EF"/>
<path d="M256.741 126.552H116.271V153.993H256.741V126.552Z" fill="#2B97EF"/>
<path d="M247.999 119.107H194.589C192.074 119.107 190.038 117.298 190.038 115.065V103.472C190.038 101.238 192.074 99.4301 194.589 99.4301H247.999C250.514 99.4301 252.549 101.238 252.549 103.472V115.065C252.43 117.298 250.394 119.107 247.999 119.107Z" fill="#197BDD"/>
<path opacity="0.2" d="M223.09 110.066V108.471C223.09 107.513 223.929 106.769 225.006 106.769H242.371C243.448 106.769 244.287 107.513 244.287 108.471V110.066C244.287 111.023 243.448 111.768 242.371 111.768H225.006C223.929 111.768 223.09 111.023 223.09 110.066Z" fill="white"/>
<path d="M247.999 150.164H194.589C192.074 150.164 190.038 148.356 190.038 146.122V134.529C190.038 132.295 192.074 130.487 194.589 130.487H247.999C250.514 130.487 252.549 132.295 252.549 134.529V146.122C252.43 148.356 250.394 150.164 247.999 150.164Z" fill="#197BDD"/>
<path opacity="0.2" d="M223.09 141.123V139.528C223.09 138.57 223.929 137.826 225.006 137.826H242.371C243.448 137.826 244.287 138.57 244.287 139.528V141.123C244.287 142.08 243.448 142.825 242.371 142.825H225.006C223.929 142.825 223.09 142.08 223.09 141.123Z" fill="white"/>
<path d="M230.515 181.114H177.105C174.59 181.114 172.555 179.306 172.555 177.073V165.479C172.555 163.246 174.59 161.438 177.105 161.438H230.515C233.03 161.438 235.066 163.246 235.066 165.479V177.073C234.946 179.306 232.91 181.114 230.515 181.114Z" fill="#197BDD"/>
<path opacity="0.2" d="M205.606 172.18V170.585C205.606 169.627 206.444 168.883 207.522 168.883H224.886C225.964 168.883 226.803 169.627 226.803 170.585V172.18C226.803 173.137 225.964 173.882 224.886 173.882H207.522C206.444 173.882 205.606 173.137 205.606 172.18Z" fill="white"/>
<path d="M247.999 212.171H194.589C192.074 212.171 190.038 210.363 190.038 208.13V196.536C190.038 194.303 192.074 192.495 194.589 192.495H247.999C250.514 192.495 252.549 194.303 252.549 196.536V208.13C252.43 210.363 250.394 212.171 247.999 212.171Z" fill="#197BDD"/>
<path opacity="0.2" d="M223.09 203.131V201.535C223.09 200.578 223.929 199.833 225.006 199.833H242.371C243.448 199.833 244.287 200.578 244.287 201.535V203.131C244.287 204.088 243.448 204.832 242.371 204.832H225.006C223.929 204.832 223.09 204.088 223.09 203.131Z" fill="white"/>
<path d="M247.999 243.228H194.589C192.074 243.228 190.038 241.42 190.038 239.187V227.593C190.038 225.36 192.074 223.552 194.589 223.552H247.999C250.514 223.552 252.549 225.36 252.549 227.593V239.187C252.43 241.42 250.394 243.228 247.999 243.228Z" fill="#197BDD"/>
<path opacity="0.2" d="M223.09 234.188V232.592C223.09 231.635 223.929 230.891 225.006 230.891H242.371C243.448 230.891 244.287 231.635 244.287 232.592V234.188C244.287 235.145 243.448 235.89 242.371 235.89H225.006C223.929 235.89 223.09 235.145 223.09 234.188Z" fill="white"/>
<path d="M247.999 274.179H194.589C192.074 274.179 190.038 272.371 190.038 270.137V258.544C190.038 256.311 192.074 254.502 194.589 254.502H247.999C250.514 254.502 252.549 256.311 252.549 258.544V270.137C252.43 272.371 250.394 274.179 247.999 274.179Z" fill="#197BDD"/>
<path opacity="0.2" d="M223.09 265.245V263.649C223.09 262.692 223.929 261.948 225.006 261.948H242.371C243.448 261.948 244.287 262.692 244.287 263.649V265.245C244.287 266.202 243.448 266.947 242.371 266.947H225.006C223.929 266.947 223.09 266.096 223.09 265.245Z" fill="white"/>
<path d="M247.999 305.236H194.589C192.074 305.236 190.038 303.428 190.038 301.194V289.601C190.038 287.368 192.074 285.559 194.589 285.559H247.999C250.514 285.559 252.549 287.368 252.549 289.601V301.194C252.43 303.428 250.394 305.236 247.999 305.236Z" fill="#197BDD"/>
<path opacity="0.2" d="M223.09 296.195V294.6C223.09 293.643 223.929 292.898 225.006 292.898H242.371C243.448 292.898 244.287 293.643 244.287 294.6V296.195C244.287 297.153 243.448 297.897 242.371 297.897H225.006C223.929 297.897 223.09 297.153 223.09 296.195Z" fill="white"/>
<path d="M247.999 336.187H194.589C192.074 336.187 190.038 334.379 190.038 332.145V320.552C190.038 318.318 192.074 316.51 194.589 316.51H247.999C250.514 316.51 252.549 318.318 252.549 320.552V332.145C252.43 334.379 250.394 336.187 247.999 336.187Z" fill="#197BDD"/>
<path opacity="0.2" d="M223.09 327.253V325.657C223.09 324.7 223.929 323.955 225.006 323.955H242.371C243.448 323.955 244.287 324.7 244.287 325.657V327.253C244.287 328.21 243.448 328.954 242.371 328.954H225.006C223.929 328.954 223.09 328.21 223.09 327.253Z" fill="white"/>
<path d="M179.141 112.512C181.125 112.512 182.734 111.084 182.734 109.322C182.734 107.559 181.125 106.131 179.141 106.131C177.157 106.131 175.548 107.559 175.548 109.322C175.548 111.084 177.157 112.512 179.141 112.512Z" fill="#197BDD"/>
<path d="M168.962 112.512C170.946 112.512 172.555 111.084 172.555 109.322C172.555 107.559 170.946 106.131 168.962 106.131C166.978 106.131 165.369 107.559 165.369 109.322C165.369 111.084 166.978 112.512 168.962 112.512Z" fill="#197BDD"/>
<path d="M158.783 112.512C160.767 112.512 162.376 111.084 162.376 109.322C162.376 107.559 160.767 106.131 158.783 106.131C156.799 106.131 155.19 107.559 155.19 109.322C155.19 111.084 156.799 112.512 158.783 112.512Z" fill="#64B9FF"/>
<path d="M152.077 109.322C152.077 111.023 150.52 112.512 148.484 112.512C146.568 112.512 144.892 111.13 144.892 109.322C144.892 107.62 146.448 106.131 148.484 106.131C150.52 106.131 152.077 107.513 152.077 109.322Z" fill="#197BDD"/>
<path d="M179.141 143.569C181.125 143.569 182.734 142.141 182.734 140.379C182.734 138.616 181.125 137.188 179.141 137.188C177.157 137.188 175.548 138.616 175.548 140.379C175.548 142.141 177.157 143.569 179.141 143.569Z" fill="#197BDD"/>
<path d="M168.962 143.569C170.946 143.569 172.555 142.141 172.555 140.379C172.555 138.616 170.946 137.188 168.962 137.188C166.978 137.188 165.369 138.616 165.369 140.379C165.369 142.141 166.978 143.569 168.962 143.569Z" fill="#197BDD"/>
<path d="M158.783 143.569C160.767 143.569 162.376 142.141 162.376 140.379C162.376 138.616 160.767 137.188 158.783 137.188C156.799 137.188 155.19 138.616 155.19 140.379C155.19 142.141 156.799 143.569 158.783 143.569Z" fill="#197BDD"/>
<path d="M152.077 140.379C152.077 142.08 150.52 143.569 148.484 143.569C146.568 143.569 144.892 142.187 144.892 140.379C144.892 138.677 146.448 137.188 148.484 137.188C150.52 137.188 152.077 138.57 152.077 140.379Z" fill="#64B9FF"/>
<path d="M161.657 174.52C163.641 174.52 165.25 173.091 165.25 171.329C165.25 169.567 163.641 168.138 161.657 168.138C159.673 168.138 158.064 169.567 158.064 171.329C158.064 173.091 159.673 174.52 161.657 174.52Z" fill="#64B9FF"/>
<path d="M151.478 174.52C153.462 174.52 155.07 173.091 155.07 171.329C155.07 169.567 153.462 168.138 151.478 168.138C149.494 168.138 147.885 169.567 147.885 171.329C147.885 173.091 149.494 174.52 151.478 174.52Z" fill="#197BDD"/>
<path d="M141.299 174.52C143.283 174.52 144.891 173.091 144.891 171.329C144.891 169.567 143.283 168.138 141.299 168.138C139.315 168.138 137.706 169.567 137.706 171.329C137.706 173.091 139.315 174.52 141.299 174.52Z" fill="#64B9FF"/>
<path d="M131.12 174.52C133.104 174.52 134.713 173.091 134.713 171.329C134.713 169.567 133.104 168.138 131.12 168.138C129.136 168.138 127.527 169.567 127.527 171.329C127.527 173.091 129.136 174.52 131.12 174.52Z" fill="#197BDD"/>
<path d="M179.141 205.577C181.125 205.577 182.734 204.148 182.734 202.386C182.734 200.624 181.125 199.195 179.141 199.195C177.157 199.195 175.548 200.624 175.548 202.386C175.548 204.148 177.157 205.577 179.141 205.577Z" fill="#64B9FF"/>
<path d="M168.962 205.577C170.946 205.577 172.555 204.148 172.555 202.386C172.555 200.624 170.946 199.195 168.962 199.195C166.978 199.195 165.369 200.624 165.369 202.386C165.369 204.148 166.978 205.577 168.962 205.577Z" fill="#64B9FF"/>
<path d="M158.783 205.577C160.767 205.577 162.376 204.148 162.376 202.386C162.376 200.624 160.767 199.195 158.783 199.195C156.799 199.195 155.19 200.624 155.19 202.386C155.19 204.148 156.799 205.577 158.783 205.577Z" fill="#197BDD"/>
<path d="M152.077 202.386C152.077 204.088 150.52 205.577 148.484 205.577C146.568 205.577 144.892 204.194 144.892 202.386C144.892 200.578 146.448 199.195 148.484 199.195C150.52 199.195 152.077 200.578 152.077 202.386Z" fill="#197BDD"/>
<path d="M179.141 236.528C181.125 236.528 182.734 235.099 182.734 233.337C182.734 231.575 181.125 230.146 179.141 230.146C177.157 230.146 175.548 231.575 175.548 233.337C175.548 235.099 177.157 236.528 179.141 236.528Z" fill="#197BDD"/>
<path d="M168.962 236.528C170.946 236.528 172.555 235.099 172.555 233.337C172.555 231.575 170.946 230.146 168.962 230.146C166.978 230.146 165.369 231.575 165.369 233.337C165.369 235.099 166.978 236.528 168.962 236.528Z" fill="#64B9FF"/>
<path d="M158.783 236.528C160.767 236.528 162.376 235.099 162.376 233.337C162.376 231.575 160.767 230.146 158.783 230.146C156.799 230.146 155.19 231.575 155.19 233.337C155.19 235.099 156.799 236.528 158.783 236.528Z" fill="#197BDD"/>
<path d="M152.077 233.337C152.077 235.039 150.52 236.528 148.484 236.528C146.568 236.528 144.892 235.145 144.892 233.337C144.892 231.635 146.448 230.146 148.484 230.146C150.52 230.252 152.077 231.635 152.077 233.337Z" fill="#197BDD"/>
<path d="M179.141 267.585C181.125 267.585 182.734 266.156 182.734 264.394C182.734 262.632 181.125 261.203 179.141 261.203C177.157 261.203 175.548 262.632 175.548 264.394C175.548 266.156 177.157 267.585 179.141 267.585Z" fill="#197BDD"/>
<path d="M168.962 267.585C170.946 267.585 172.555 266.156 172.555 264.394C172.555 262.632 170.946 261.203 168.962 261.203C166.978 261.203 165.369 262.632 165.369 264.394C165.369 266.156 166.978 267.585 168.962 267.585Z" fill="#197BDD"/>
<path d="M158.783 267.585C160.767 267.585 162.376 266.156 162.376 264.394C162.376 262.632 160.767 261.203 158.783 261.203C156.799 261.203 155.19 262.632 155.19 264.394C155.19 266.156 156.799 267.585 158.783 267.585Z" fill="#64B9FF"/>
<path d="M152.077 264.394C152.077 266.096 150.52 267.585 148.484 267.585C146.568 267.585 144.892 266.202 144.892 264.394C144.892 262.586 146.448 261.203 148.484 261.203C150.52 261.203 152.077 262.586 152.077 264.394Z" fill="#64B9FF"/>
<path d="M182.734 295.451C182.734 297.153 181.177 298.642 179.141 298.642C177.105 298.642 175.548 297.259 175.548 295.451C175.548 293.749 177.105 292.26 179.141 292.26C181.177 292.26 182.734 293.643 182.734 295.451Z" fill="#64B9FF"/>
<path d="M172.555 295.451C172.555 297.153 170.998 298.642 168.962 298.642C167.046 298.642 165.369 297.259 165.369 295.451C165.369 293.749 166.926 292.26 168.962 292.26C170.998 292.26 172.555 293.643 172.555 295.451Z" fill="#197BDD"/>
<path d="M162.376 295.451C162.376 297.153 160.819 298.642 158.783 298.642C156.867 298.642 155.19 297.259 155.19 295.451C155.19 293.749 156.747 292.26 158.783 292.26C160.699 292.26 162.376 293.643 162.376 295.451Z" fill="#197BDD"/>
<path d="M152.077 295.451C152.077 297.153 150.52 298.642 148.484 298.642C146.568 298.642 144.892 297.259 144.892 295.451C144.892 293.749 146.448 292.26 148.484 292.26C150.52 292.26 152.077 293.643 152.077 295.451Z" fill="#197BDD"/>
<path d="M179.141 329.592C181.125 329.592 182.734 328.164 182.734 326.402C182.734 324.639 181.125 323.211 179.141 323.211C177.157 323.211 175.548 324.639 175.548 326.402C175.548 328.164 177.157 329.592 179.141 329.592Z" fill="#197BDD"/>
<path d="M168.962 329.592C170.946 329.592 172.555 328.164 172.555 326.402C172.555 324.639 170.946 323.211 168.962 323.211C166.978 323.211 165.369 324.639 165.369 326.402C165.369 328.164 166.978 329.592 168.962 329.592Z" fill="#197BDD"/>
<path d="M158.783 329.592C160.767 329.592 162.376 328.164 162.376 326.402C162.376 324.639 160.767 323.211 158.783 323.211C156.799 323.211 155.19 324.639 155.19 326.402C155.19 328.164 156.799 329.592 158.783 329.592Z" fill="#64B9FF"/>
<path d="M152.077 326.402C152.077 328.103 150.52 329.592 148.484 329.592C146.568 329.592 144.892 328.21 144.892 326.402C144.892 324.593 146.448 323.211 148.484 323.211C150.52 323.211 152.077 324.7 152.077 326.402Z" fill="#197BDD"/>
<path opacity="0.2" d="M137.826 109.322C137.826 113.15 134.353 116.235 130.042 116.235C125.731 116.235 122.258 113.15 122.258 109.322C122.258 105.493 125.731 102.408 130.042 102.408C134.473 102.408 137.826 105.493 137.826 109.322Z" fill="white"/>
<path opacity="0.2" d="M137.826 140.379C137.826 144.207 134.353 147.292 130.042 147.292C125.731 147.292 122.258 144.207 122.258 140.379C122.258 136.55 125.731 133.465 130.042 133.465C134.473 133.465 137.826 136.55 137.826 140.379Z" fill="white"/>
<path opacity="0.2" d="M120.342 171.329C120.342 175.158 116.869 178.243 112.558 178.243C108.247 178.243 104.774 175.158 104.774 171.329C104.774 167.5 108.247 164.416 112.558 164.416C116.989 164.522 120.342 167.5 120.342 171.329Z" fill="white"/>
<path opacity="0.2" d="M137.826 202.386C137.826 206.215 134.353 209.3 130.042 209.3C125.731 209.3 122.258 206.215 122.258 202.386C122.258 198.557 125.731 195.473 130.042 195.473C134.473 195.473 137.826 198.557 137.826 202.386Z" fill="white"/>
<path opacity="0.2" d="M137.826 233.337C137.826 237.166 134.353 240.25 130.042 240.25C125.731 240.25 122.258 237.166 122.258 233.337C122.258 229.508 125.731 226.423 130.042 226.423C134.473 226.53 137.826 229.614 137.826 233.337Z" fill="white"/>
<path opacity="0.2" d="M137.826 264.394C137.826 268.223 134.353 271.307 130.042 271.307C125.731 271.307 122.258 268.223 122.258 264.394C122.258 260.565 125.731 257.481 130.042 257.481C134.473 257.481 137.826 260.565 137.826 264.394Z" fill="white"/>
<path opacity="0.2" d="M137.826 295.451C137.826 299.28 134.353 302.364 130.042 302.364C125.731 302.364 122.258 299.28 122.258 295.451C122.258 291.622 125.731 288.538 130.042 288.538C134.473 288.538 137.826 291.622 137.826 295.451Z" fill="white"/>
<path opacity="0.2" d="M137.826 326.402C137.826 330.23 134.353 333.315 130.042 333.315C125.731 333.315 122.258 330.23 122.258 326.402C122.258 322.573 125.731 319.488 130.042 319.488C134.473 319.595 137.826 322.573 137.826 326.402Z" fill="white"/>
<path d="M208.241 26.8928H207.283V29.5518H208.241V26.8928Z" fill="#0053CC"/>
<path d="M400.924 87.5178H399.966V82.1998H400.924V87.5178ZM400.924 76.9881H399.966V71.6702H400.924V76.9881ZM400.924 66.3522H399.966V61.0342H400.924V66.3522ZM400.924 55.7162H399.966V50.3982H400.924V55.7162ZM400.924 45.0802H399.966V39.7623H400.924V45.0802ZM400.924 34.4443H399.966V29.1263H400.924V34.4443ZM400.924 23.8083H399.966V18.4903H400.924V23.8083ZM208.241 21.5748H207.283V17.9585C207.283 17.4267 207.283 16.7886 207.403 16.2568L208.361 16.3631C208.241 16.8949 208.241 17.4267 208.241 17.9585V21.5748ZM399.008 13.3851C398.409 11.7897 397.331 10.3006 396.134 9.02432L396.852 8.49252C398.169 9.87519 399.247 11.4706 399.966 13.1723L399.008 13.3851ZM210.157 11.4706L209.319 11.0452C210.277 9.44976 211.594 8.06708 213.271 6.89712L213.869 7.53528C212.313 8.59888 210.995 9.98156 210.157 11.4706ZM391.583 5.93989C389.906 5.19537 387.99 4.66357 386.074 4.55721L386.194 3.70633C388.23 3.81269 390.266 4.34449 392.062 5.19537L391.583 5.93989ZM218.779 5.08901L218.42 4.23813C219.977 3.81269 221.653 3.59998 223.33 3.59998H224.527V4.45085H223.33C221.893 4.45085 220.336 4.66357 218.779 5.08901ZM380.087 4.45085H374.099V3.59998H380.087V4.45085ZM368.111 4.45085H362.124V3.59998H368.111V4.45085ZM356.136 4.45085H350.148V3.59998H356.136V4.45085ZM344.161 4.45085H338.173V3.59998H344.161V4.45085ZM332.185 4.45085H326.198V3.59998H332.185V4.45085ZM320.21 4.45085H314.222V3.59998H320.21V4.45085ZM308.355 4.45085H302.367V3.59998H308.355V4.45085ZM296.379 4.45085H290.392V3.59998H296.379V4.45085ZM284.404 4.45085H278.416V3.59998H284.404V4.45085ZM272.429 4.45085H266.441V3.59998H272.429V4.45085ZM260.453 4.45085H254.466V3.59998H260.453V4.45085ZM248.478 4.45085H242.49V3.59998H248.478V4.45085ZM236.503 4.45085H230.515V3.59998H236.503V4.45085Z" fill="#0053CC"/>
<path d="M400.804 92.9421H399.846V95.6011H400.804V92.9421Z" fill="#0053CC"/>
<path d="M320.45 349.482H329.192L330.15 331.401H321.408L320.45 349.482Z" fill="#F5C9B2"/>
<path d="M329.551 348.631H319.971C319.611 348.631 319.252 348.844 319.252 349.163L317.815 356.076C317.695 356.821 318.294 357.459 319.132 357.459C322.605 357.459 327.635 357.246 331.946 357.246C337.095 357.246 337.814 357.459 343.682 357.459C347.274 357.459 348.113 354.268 346.676 353.949C339.73 352.566 337.814 352.46 331.706 349.163C330.988 348.844 330.269 348.631 329.551 348.631Z" fill="#0F264C"/>
<path d="M330.15 331.401L329.671 340.76H320.929L321.408 331.401H330.15Z" fill="#F0B89A"/>
<path d="M379.368 89.4322C379.248 91.8785 379.009 94.5375 378.889 97.1965C378.769 99.7491 378.769 102.408 378.769 104.961C378.769 107.513 378.889 110.066 379.128 112.512C379.368 114.959 379.727 117.298 380.446 119.319C380.685 120.383 381.164 121.234 381.523 121.766C381.523 121.872 381.763 122.191 382.002 122.404L382.601 123.148C382.961 123.68 383.32 124.212 383.799 124.744C385.356 126.871 387.152 128.892 388.948 130.913C392.541 135.061 396.493 139.102 400.325 143.144L395.774 147.93C390.385 144.846 385.475 141.442 380.805 137.613C378.41 135.699 376.254 133.678 374.099 131.444C373.62 130.913 373.021 130.381 372.542 129.743L371.823 128.892C371.584 128.573 371.344 128.36 370.985 127.934C369.668 126.233 368.949 124.531 368.231 123.042C366.914 119.851 366.315 116.873 365.836 114.001C365.357 111.023 365.117 108.152 364.998 105.386C364.878 102.514 364.878 99.7491 364.998 96.8774C365.117 94.0057 365.237 91.3467 365.596 88.3687L379.368 89.4322Z" fill="#FF8B7B"/>
<path d="M382.482 105.493L378.77 106.875L372.423 109.109L361.286 113.044C361.286 113.044 356.136 89.5386 358.891 82.4125C361.884 74.5419 372.542 74.7546 378.291 83.6889C384.039 92.304 382.482 105.493 382.482 105.493Z" fill="#E39D29"/>
<path d="M378.29 106.982L372.542 109.002C371.584 105.28 370.746 99.111 373.5 94.5375C377.332 97.4092 377.931 103.259 378.29 106.982Z" fill="#E39D29"/>
<path d="M372.542 139.634H324.402C324.042 135.805 325.12 125.382 324.402 111.236C324.282 107.939 323.923 104.535 323.563 100.919C322.725 93.3676 321.288 85.0715 319.013 76.4564C319.013 76.4564 327.276 74.9674 335.06 74.6483C341.167 74.3292 350.148 74.2228 355.537 74.6483C362.723 75.1801 369.548 76.8818 369.548 76.8818C369.548 76.8818 380.805 94.7503 372.542 139.634Z" fill="#F6AC3B"/>
<path d="M324.402 111.236C324.282 107.939 323.923 104.535 323.563 100.919C325.12 100.068 327.156 99.9619 327.515 105.067C327.994 109.747 326.198 111.023 324.402 111.236Z" fill="#E2A549"/>
<path d="M413.857 148.994L406.912 152.823L398.29 151.227L405.115 143.676L413.857 148.994Z" fill="#F5C9B2"/>
<path d="M397.092 142.506L405.115 143.676L398.289 151.227C398.289 151.227 393.978 150.802 392.9 145.697L397.092 142.506Z" fill="#F0B89A"/>
<path d="M336.257 54.1208C337.814 59.9706 339.49 70.713 335.06 74.5419C335.06 74.5419 337.335 78.4772 349.55 78.4772C360.687 78.4772 355.537 74.5419 355.537 74.5419C348.113 72.9465 348.113 68.1603 349.19 63.5869L336.257 54.1208Z" fill="#F5C9B2"/>
<path d="M341.526 58.0562L349.191 63.6933C348.951 64.7569 348.712 65.8205 348.712 66.8841C346.436 68.9049 341.886 63.7996 341.526 61.1406C341.287 59.8643 341.287 58.6944 341.526 58.0562Z" fill="#F0B89A"/>
<path d="M362.363 39.3369C365.477 42.7404 361.884 53.3764 355.537 53.0573C349.19 52.7382 356.615 32.849 362.363 39.3369Z" fill="#495C71"/>
<path d="M337.575 44.4422C336.856 52.3128 336.018 56.8863 339.85 61.5661C345.598 68.5859 357.094 66.7778 360.447 59.3326C363.441 52.6319 364.04 40.826 355.897 36.3589C347.873 31.9982 338.293 36.5716 337.575 44.4422Z" fill="#F5C9B2"/>
<path d="M334.341 34.5507L343.921 37.5288C339.73 42.5277 345.837 54.3336 338.413 52.1001C335.06 51.0365 323.922 40.1878 334.341 34.5507Z" fill="#445465"/>
<path d="M339.011 36.5715C342.604 38.9114 357.334 41.7831 365.716 37.5287C363.561 37.1033 360.687 35.827 360.687 35.827C360.687 35.827 367.034 35.5079 369.788 31.4662C363.8 32.3171 359.729 30.7217 358.172 30.1899C360.926 29.6581 363.8 27.1055 364.638 25.2974C353.022 25.4037 327.994 27.5309 332.305 34.7634C336.856 42.1022 339.011 36.5715 339.011 36.5715Z" fill="#445465"/>
<path d="M333.982 35.6144C333.982 35.6144 331.108 34.4444 329.192 32.6363C328.713 33.8062 328.713 37.1034 333.982 35.6144Z" fill="#0F264C"/>
<path d="M332.186 52.4192C333.144 54.4401 335.06 55.8227 336.856 56.5672C339.61 57.5245 341.287 55.5037 340.688 52.951C340.209 50.7175 338.053 47.5267 335.179 47.5267C332.425 47.633 331.108 50.1857 332.186 52.4192Z" fill="#F5C9B2"/>
<path d="M347.394 349.482H356.256L358.052 331.401H349.31L347.394 349.482Z" fill="#F5C9B2"/>
<path d="M356.615 348.631H347.035C346.675 348.631 346.316 348.844 346.316 349.163L344.879 356.076C344.759 356.821 345.358 357.459 346.196 357.459C349.669 357.459 354.699 357.246 359.01 357.246C364.159 357.246 368.47 357.459 374.458 357.459C378.051 357.459 378.889 354.268 377.452 353.949C370.506 352.566 364.878 352.46 358.77 349.163C358.172 348.844 357.453 348.631 356.615 348.631Z" fill="#0F264C"/>
<path d="M358.052 331.401L357.094 340.76H348.352L349.31 331.401H358.052Z" fill="#F0B89A"/>
<path d="M360.328 349.801C361.046 349.907 361.645 349.907 362.124 349.588C362.483 349.375 362.723 349.056 362.723 348.631C362.723 348.312 362.603 348.099 362.483 348.099C361.525 347.567 358.412 348.631 358.052 348.843C357.933 348.843 357.933 348.95 357.933 349.056C357.933 349.162 357.933 349.162 358.052 349.269C358.651 349.482 359.489 349.694 360.328 349.801ZM361.884 348.418C362.004 348.418 362.124 348.418 362.124 348.524C362.124 348.524 362.244 348.631 362.244 348.737C362.244 349.056 362.124 349.269 361.884 349.375C361.405 349.694 360.208 349.588 358.651 349.056C359.729 348.631 361.166 348.312 361.884 348.418Z" fill="#407BFF"/>
<path d="M358.052 349.269C358.052 349.269 358.172 349.269 358.052 349.269C359.13 348.95 361.166 347.461 361.046 346.61C361.046 346.397 360.926 346.184 360.447 346.078C360.088 345.972 359.848 346.078 359.489 346.184C358.292 346.823 357.812 349.056 357.812 349.163C357.932 349.056 357.932 349.163 358.052 349.269C358.052 349.163 358.052 349.269 358.052 349.269ZM360.327 346.291C360.687 346.397 360.687 346.504 360.687 346.504C360.687 347.035 359.369 348.205 358.411 348.631C358.651 347.993 359.13 346.716 359.848 346.291C359.968 346.291 360.088 346.291 360.327 346.291Z" fill="#407BFF"/>
<path d="M344.999 338.527H359.369C359.369 338.527 381.404 263.756 381.044 238.336C380.685 213.979 372.662 139.634 372.662 139.634H341.047C341.047 139.634 343.562 156.12 346.316 176.541C348.831 194.516 351.585 215.575 353.142 230.891C353.621 235.464 353.98 239.506 354.22 242.803C355.657 267.797 344.999 338.527 344.999 338.527Z" fill="#6F7B88"/>
<path d="M346.196 176.541C348.711 194.516 351.465 215.575 353.022 230.891C356.375 217.489 364.518 178.668 352.304 158.992C349.19 162.927 347.274 169.628 346.196 176.541Z" fill="#445465"/>
<path d="M355.417 139.634C355.417 139.634 354.22 211.32 349.55 234.188C344.4 259.289 334.221 338.527 334.221 338.527H317.815C317.815 338.527 320.21 261.309 322.725 236.528C325.479 209.619 324.401 139.74 324.401 139.74H355.417V139.634Z" fill="#6F7B88"/>
<path d="M317.096 338.846H334.94L336.257 332.89L316.498 332.358L317.096 338.846Z" fill="#0F264C"/>
<path d="M344.161 338.846H362.004L363.321 332.89L343.682 333.209L344.161 338.846Z" fill="#0F264C"/>
<path d="M324.043 329.911C323.923 329.911 323.923 329.805 323.923 329.805C324.043 329.061 325.24 259.714 327.515 237.485C329.91 213.235 328.473 149.1 328.473 148.568C328.473 148.462 328.593 148.462 328.593 148.462C328.713 148.462 328.713 148.568 328.713 148.568C328.713 149.1 330.15 213.341 327.755 237.485C325.48 259.82 324.282 329.061 324.162 329.805C324.162 329.805 324.162 329.911 324.043 329.911Z" fill="#445465"/>
<path d="M350.627 48.8029C350.507 49.4411 350.867 49.9729 351.346 50.0792C351.825 50.1856 352.304 49.6538 352.424 49.0156C352.543 48.3775 352.184 47.8457 351.705 47.7393C351.226 47.7393 350.747 48.1648 350.627 48.8029Z" fill="#0F264C"/>
<path d="M358.89 49.6538C358.771 50.292 359.13 50.8238 359.609 50.9301C360.088 51.0365 360.567 50.5047 360.687 49.8665C360.806 49.2284 360.447 48.6966 359.968 48.5902C359.489 48.5902 359.01 49.0156 358.89 49.6538Z" fill="#0F264C"/>
<path d="M356.136 49.8665C356.136 49.8665 357.214 53.8018 358.771 55.8227C357.334 56.6735 355.298 55.8227 355.298 55.8227L356.136 49.8665Z" fill="#F0B89A"/>
<path d="M353.741 58.4816C353.861 58.4816 353.98 58.3753 353.98 58.2689C353.98 58.1626 353.861 58.0562 353.741 58.0562C350.507 57.6308 349.31 55.5036 349.31 55.5036C349.31 55.3972 349.07 55.3972 349.07 55.3972C348.951 55.3972 348.951 55.5036 348.951 55.6099C348.951 55.8227 350.268 58.0562 353.741 58.4816Z" fill="#0F264C"/>
<path d="M348.472 44.2295C348.592 44.2295 348.711 44.2295 348.831 44.1231C350.268 43.0595 351.825 43.485 351.825 43.485C352.064 43.5913 352.304 43.4849 352.304 43.2722C352.424 43.0595 352.304 42.8468 352.064 42.7404C351.945 42.7404 350.148 42.2086 348.232 43.485C347.993 43.5913 347.993 43.804 348.232 44.0168C348.232 44.1231 348.352 44.1231 348.472 44.2295Z" fill="#0F264C"/>
<path d="M326.078 74.9674L328.353 74.7546C328.593 74.7546 328.832 74.861 328.832 75.0737C336.377 105.28 334.101 137.294 334.101 137.294H331.587C332.305 104.11 326.557 78.9027 325.719 75.3928C325.719 75.1801 325.838 74.9674 326.078 74.9674Z" fill="#6F7B88"/>
<path d="M332.066 138.039H333.742C334.221 138.039 334.581 137.72 334.581 137.294C334.581 136.869 334.221 136.55 333.742 136.55H332.066C331.587 136.55 331.228 136.869 331.228 137.294C331.228 137.72 331.707 138.039 332.066 138.039Z" fill="#0F264C"/>
<path d="M334.101 139.953L333.982 137.932C333.982 137.4 333.503 136.975 332.904 136.975C332.305 136.975 331.826 137.4 331.826 137.932L331.946 139.953C331.946 140.485 332.425 140.91 333.024 140.91C333.622 140.91 334.101 140.485 334.101 139.953Z" fill="#0F264C"/>
<path d="M362.722 45.8248C362.842 45.8248 362.842 45.8248 362.962 45.8248C363.201 45.7185 363.321 45.5058 363.201 45.3994C362.483 43.3786 360.567 42.8468 360.567 42.8468C360.327 42.7404 360.088 42.8468 360.088 43.0595C359.968 43.2722 360.208 43.4849 360.327 43.4849C360.447 43.4849 361.884 43.9104 362.363 45.5058C362.363 45.7185 362.483 45.8248 362.722 45.8248Z" fill="#0F264C"/>
<path d="M324.402 89.1133C323.084 94.1122 321.647 99.3238 320.45 104.429C319.851 106.982 319.252 109.534 318.893 111.981C318.534 114.427 318.055 116.979 318.174 118.894C318.294 122.936 319.971 127.084 323.084 130.7C324.641 132.508 326.557 134.316 328.593 135.912C329.671 136.762 330.749 137.507 331.826 138.251C332.425 138.571 332.904 138.996 333.503 139.315C334.102 139.634 334.7 140.06 335.179 140.272L332.545 146.122C331.587 145.909 330.868 145.697 330.03 145.378C329.312 145.058 328.473 144.846 327.755 144.527C326.198 143.888 324.761 143.25 323.324 142.506C320.45 141.017 317.695 139.209 315.181 136.975C312.666 134.742 310.51 132.189 308.714 129.317C307.037 126.339 305.84 123.148 305.481 119.745C305.121 116.341 305.241 113.47 305.481 110.492C305.72 107.62 306.199 104.854 306.678 102.089C307.636 96.5584 309.073 91.2404 310.75 85.8161L324.402 89.1133Z" fill="#F5C9B2"/>
<path d="M319.013 76.4564C309.432 77.9454 304.043 100.6 304.043 100.6L327.635 108.045C327.635 108.045 329.431 100.6 327.635 90.8149C325.958 81.2426 327.994 74.9674 319.013 76.4564Z" fill="#E39D29"/>
<path d="M364.279 75.3928L366.555 75.8183C366.794 75.8183 366.914 76.031 366.914 76.1374C372.901 106.344 368.95 137.401 368.95 137.401H366.435C368.83 104.535 364.519 79.7536 363.8 75.9246C363.68 75.6055 363.92 75.3928 364.279 75.3928Z" fill="#6F7B88"/>
<path d="M366.794 138.039H368.47C368.949 138.039 369.309 137.72 369.309 137.294C369.309 136.869 368.949 136.55 368.47 136.55H366.794C366.315 136.55 365.956 136.869 365.956 137.294C365.956 137.72 366.315 138.039 366.794 138.039Z" fill="#0F264C"/>
<path d="M368.71 139.953V137.932C368.71 137.401 368.231 136.975 367.632 136.975C367.034 136.975 366.555 137.401 366.555 137.932V139.953C366.555 140.485 367.034 140.91 367.632 140.91C368.231 140.91 368.71 140.485 368.71 139.953Z" fill="#0F264C"/>
<path d="M333.263 349.801C333.982 349.907 334.581 349.907 335.06 349.588C335.419 349.375 335.658 349.056 335.658 348.631C335.658 348.312 335.539 348.099 335.419 348.099C334.461 347.567 331.347 348.631 330.988 348.843C330.868 348.843 330.868 348.95 330.868 349.056C330.868 349.162 330.868 349.162 330.988 349.269C331.587 349.482 332.425 349.694 333.263 349.801ZM334.82 348.418C334.94 348.418 335.06 348.418 335.06 348.524C335.06 348.524 335.179 348.631 335.179 348.737C335.179 349.056 335.06 349.269 334.82 349.375C334.341 349.694 333.143 349.588 331.587 349.056C332.664 348.631 334.102 348.312 334.82 348.418Z" fill="#407BFF"/>
<path d="M330.988 349.269C330.988 349.269 331.108 349.269 330.988 349.269C332.066 348.95 334.102 347.461 333.982 346.61C333.982 346.397 333.862 346.184 333.383 346.078C333.024 345.972 332.784 346.078 332.425 346.184C331.228 346.823 330.749 349.056 330.749 349.163C330.749 349.056 330.868 349.163 330.988 349.269C330.868 349.163 330.988 349.269 330.988 349.269ZM333.263 346.291C333.623 346.397 333.623 346.504 333.623 346.504C333.623 347.035 332.305 348.205 331.347 348.631C331.587 347.993 332.066 346.716 332.784 346.291C332.904 346.291 333.024 346.291 333.263 346.291Z" fill="#407BFF"/>
<path d="M327.874 144.633L330.628 140.166L338.173 140.379L344.041 142.506L347.993 147.717L337.694 147.186C337.814 147.186 331.586 148.781 327.874 144.633Z" fill="#F5C9B2"/>
<path d="M348.831 78.5836L347.035 77.4136L343.323 80.6044L348.831 78.5836Z" fill="#6F7B88"/>
<path d="M347.035 77.4137C347.035 77.4137 344.041 81.2426 343.562 84.008C339.85 82.6253 332.665 79.2218 331.587 74.4356C333.024 74.2229 335.299 72.8402 335.299 72.8402C335.299 72.8402 339.131 75.7119 347.035 77.4137Z" fill="#6F7B88"/>
<path d="M348.831 78.5836L349.43 77.2009L354.459 80.6044L348.831 78.5836Z" fill="#6F7B88"/>
<path d="M349.43 77.201C349.43 77.201 352.663 79.6472 353.262 83.3698C356.854 81.9871 358.172 77.52 357.094 74.6483C355.058 73.7974 352.663 73.372 352.663 73.372C352.663 73.372 353.142 76.2437 349.43 77.201Z" fill="#6F7B88"/>
<path d="M435.652 108.896L360.328 106.556L349.43 145.697L424.755 148.036L435.652 108.896Z" fill="#C8C9C9"/>
<path d="M438.047 109.003L362.603 106.663L351.705 145.803L427.15 148.143L438.047 109.003Z" fill="#0F264C"/>
<path d="M427.15 148.143L426.791 150.376L351.466 147.93L351.705 145.803L427.15 148.143Z" fill="#0F264C"/>
<path d="M351.705 145.803L351.466 147.93L321.767 147.079L322.126 144.846L351.705 145.803Z" fill="#C8C9C9"/>
</g>
<defs>
<clipPath id="clip0">
<rect width="553" height="360" fill="white"/>
</clipPath>
</defs>
</svg>
