<svg width="408" height="300" viewBox="0 0 408 300" fill="none" xmlns="http://www.w3.org/2000/svg">
<g clip-path="url(#clip0)">
<path d="M404 295C404 303.829 302.378 311 177 311C51.6222 311 -50 303.829 -50 295C-50 286.171 51.6222 279 177 279C302.378 279 404 286.171 404 295Z" fill="#45C8E1"/>
<path d="M358.685 290.062C358.685 290.062 404.525 288.979 424.109 261.164C459.599 210.787 443.603 166.618 380.433 169.903C309.76 173.586 318.488 17.417 196.114 92.6133C169.551 108.931 110.402 74.6536 86.778 146.077C81.1516 163.062 38.9716 164.254 11.7052 177.863C-31.0699 199.235 -18.9875 290.405 21.4252 290.766C61.8198 291.127 358.685 290.062 358.685 290.062Z" fill="#51CDE4" fill-opacity="0.2"/>
<path d="M139.787 70.1529H137.725V51.3171L137.083 51.2663V43.7794L137.269 43.1527L47.3839 16L9.85853 41.3911L10.2133 41.9331C8.99684 41.9331 8 42.9325 8 44.1521V57.0932C8 58.3128 8.99684 59.3122 10.2133 59.3122H29.0183C30.2348 59.3122 31.2316 58.3128 31.2316 57.0932V51.91H43.7683V290H58.5182V51.91H119.191L136.12 70.1529H132.657C131.44 70.1529 130.443 71.1523 130.443 72.3719V74.5909C130.443 75.8105 131.44 76.8098 132.657 76.8098H139.787C141.003 76.8098 142 75.8105 142 74.5909V72.3719C142 71.1523 141.003 70.1529 139.787 70.1529ZM47.6036 17.4228L134.853 43.7794H31.2147C31.0458 42.7292 30.1334 41.9331 29.0352 41.9331H11.3791L47.6036 17.4228ZM129.767 51.91L136.441 52.5028V68.5946L120.982 51.9269H129.767V51.91Z" fill="#AACCFF"/>
<path d="M407.442 74.9524L407.713 74.5553L380.248 55.9999L314.444 75.8368L314.589 76.2881V81.7572L314.12 81.7933V95.5655H312.623C311.739 95.5655 311 96.2875 311 97.19V98.8145C311 99.6989 311.721 100.439 312.623 100.439H317.835C318.718 100.439 319.458 99.717 319.458 98.8145V97.19C319.458 96.3055 318.736 95.5655 317.835 95.5655H315.292L327.681 82.2265H372.079V256.265H382.881V82.2446H392.06V86.0351C392.06 86.9195 392.781 87.6596 393.683 87.6596H407.46C408.344 87.6596 409.083 86.9376 409.083 86.0351V76.5769C409.065 75.6744 408.326 74.9524 407.442 74.9524ZM380.068 57.0468L406.595 74.9524H393.665C392.871 74.9524 392.204 75.548 392.078 76.3061H316.194L380.068 57.0468ZM315.039 94.4283V82.6778L319.927 82.2446H326.364L315.039 94.4283Z" fill="#AACCFF"/>
<path d="M446.056 291.254H-16.1922C-16.4447 291.254 -16.6431 291.055 -16.6431 290.802C-16.6431 290.55 -16.4447 290.351 -16.1922 290.351H446.056C446.309 290.351 446.507 290.55 446.507 290.802C446.507 291.037 446.309 291.254 446.056 291.254Z" fill="#45C8E1"/>
<path d="M167.985 124.441V123.195H165.295V115H163.069V123.195H157.425V115H155.185V123.195H149.047V115H146.822V123.195H141.178V115H138.953V123.195H136V124.441H138.953V128.428H136V129.675H138.953V133.662H136V134.908H138.953V138.896H136V140.142H138.953V144.129H136V145.375H138.953V149.334H136V150.58H138.953V153.805H136V155.051H138.953V159.039H136V160.285H138.953V164.272H136V165.518H138.953V169.506H136V170.752H138.953V174.74H136V175.986H138.953V179.973H136V181.219H138.953V185.031H136V186.277H138.953V190.265H136V191.511H138.953V195.498H136V196.744H138.953V200.732H136V201.978H138.953V205.965H136V207.212H138.953V211.199H136V212.445H138.953V215.67H136V216.916H138.953V220.904H136V222.15H138.953V226.138H136V227.384H138.953V231.371H136V232.617H138.953V236.605H136V237.851H138.953V241.839H136V243.085H138.953V246.647H136V247.893H138.953V251.881H136V253.127H138.953V257.114H136V258.36H138.953V262.348H136V263.594H138.953V267.582H136V268.828H138.953V272.815H136V274.061H138.953V277.287H136V278.533H138.953V282.52H136V283.766H138.953V287.754H136V289H168V287.754H165.309V283.766H168V282.52H165.309V278.533H168V277.287H165.309V274.061H168V272.815H165.309V268.666H168V267.42H165.309V263.433H168V262.187H165.309V258.199H168V256.953H165.309V252.98H168V251.734H165.309V247.747H168V246.5H165.309V242.938H168V241.692H165.309V237.734H168V236.488H165.309V232.5H168V231.254H165.309V227.266H168V226.02H165.309V222.047H168V220.801H165.309V216.814H168V215.568H165.309V212.343H168V211.096H165.309V207.109H168V205.863H165.309V201.875H168V200.629H165.309V196.642H168V195.396H165.309V191.408H168V190.162H165.309V186.174H168V184.928H165.309V181.117H168V179.871H165.309V175.883H168V174.637H165.309V170.649H168V169.403H165.309V165.416H168V164.17H165.309V160.182H168V158.936H165.309V155.051H168V153.805H165.309V150.58H168V149.334H165.309V145.346H168V144.1H165.309V140.113H168V138.866H165.309V134.879H168V133.633H165.309V129.645H168V128.399H165.309V124.412H167.985V124.441ZM155.185 124.441V128.428H149.047V124.441H155.185ZM149.033 282.344V278.357H155.171V282.344H149.033ZM155.185 283.59V287.578H149.047V283.59H155.185ZM149.033 277.111V273.885H155.171V277.111H149.033ZM149.033 272.654V268.666H155.171V272.654H149.033ZM149.033 267.42V263.433H155.171V267.42H149.033ZM149.033 262.201V258.214H155.171V262.201H149.033ZM149.033 256.968V252.98H155.171V256.968H149.033ZM149.033 251.749V247.761H155.171V251.749H149.033ZM149.033 246.515V242.953H155.171V246.515H149.033ZM149.033 241.721V237.734H155.171V241.721H149.033ZM149.033 236.488V232.5H155.171V236.488H149.033ZM149.033 231.269V227.281H155.171V231.269H149.033ZM149.033 226.035V222.047H155.171V226.035H149.033ZM149.033 220.816V216.829H155.171V220.816H149.033ZM149.033 215.582V212.357H155.171V215.582H149.033ZM149.033 211.111V207.124H155.171V211.111H149.033ZM149.033 205.892V201.905H155.171V205.892H149.033ZM149.033 200.658V196.671H155.171V200.658H149.033ZM149.033 195.44V191.452H155.171V195.44H149.033ZM149.033 190.206V186.218H155.171V190.206H149.033ZM149.033 184.987V181.175H155.171V184.987H149.033ZM149.033 179.944V175.956H155.171V179.944H149.033ZM149.033 174.71V170.723H155.171V174.71H149.033ZM149.033 169.491V165.504H155.171V169.491H149.033ZM149.033 164.258V160.27H155.171V164.258H149.033ZM149.033 159.024V155.051H155.171V159.039H149.033V159.024ZM149.033 153.805V150.58H155.171V153.805H149.033ZM149.033 149.334V145.346H155.171V149.334H149.033ZM149.033 144.115V140.127H155.171V144.115H149.033ZM149.033 138.881V134.894H155.171V138.881H149.033ZM149.033 133.662V129.675H155.171V133.662H149.033ZM141.164 124.441H146.807V128.428H141.164V124.441ZM141.164 129.675H146.807V133.662H141.164V129.675ZM141.164 134.894H146.807V138.881H141.164V134.894ZM141.164 140.127H146.807V144.115H141.164V140.127ZM141.164 145.346H146.807V149.334H141.164V145.346ZM141.164 150.58H146.807V153.805H141.164V150.58ZM141.164 155.051H146.807V159.039H141.164V155.051ZM141.164 160.27H146.807V164.258H141.164V160.27ZM141.164 165.504H146.807V169.491H141.164V165.504ZM141.164 170.723H146.807V174.71H141.164V170.723ZM141.164 175.956H146.807V179.944H141.164V175.956ZM141.164 181.175H146.807V184.987H141.164V181.175ZM141.164 186.218H146.807V190.206H141.164V186.218ZM141.164 191.452H146.807V195.44H141.164V191.452ZM141.164 196.671H146.807V200.658H141.164V196.671ZM141.164 201.905H146.807V205.892H141.164V201.905ZM141.164 207.138H146.807V211.126H141.164V207.138ZM141.164 212.357H146.807V215.582H141.164V212.357ZM141.164 216.829H146.807V220.816H141.164V216.829ZM141.164 222.047H146.807V226.035H141.164V222.047ZM141.164 227.281H146.807V231.269H141.164V227.281ZM141.164 232.5H146.807V236.488H141.164V232.5ZM141.164 237.734H146.807V241.721H141.164V237.734ZM141.164 242.953H146.807V246.515H141.164V242.953ZM141.164 247.761H146.807V251.749H141.164V247.761ZM141.164 252.98H146.807V256.968H141.164V252.98ZM141.164 258.214H146.807V262.201H141.164V258.214ZM141.164 263.433H146.807V267.42H141.164V263.433ZM141.164 268.666H146.807V272.654H141.164V268.666ZM141.164 273.885H146.807V277.111H141.164V273.885ZM141.164 278.357H146.807V282.344H141.164V278.357ZM141.164 283.59H146.807V287.578H141.164V283.59ZM163.055 287.563H157.411V283.576H163.055V287.563ZM163.055 282.344H157.411V278.357H163.055V282.344ZM163.055 277.111H157.411V273.885H163.055V277.111ZM163.055 272.654H157.411V268.666H163.055V272.654ZM163.055 267.42H157.411V263.433H163.055V267.42ZM163.055 262.201H157.411V258.214H163.055V262.201ZM163.055 256.968H157.411V252.98H163.055V256.968ZM163.055 251.749H157.411V247.761H163.055V251.749ZM163.055 246.515H157.411V242.953H163.055V246.515ZM163.055 241.721H157.411V237.734H163.055V241.721ZM163.055 236.488H157.411V232.5H163.055V236.488ZM163.055 231.269H157.411V227.281H163.055V231.269ZM163.055 226.035H157.411V222.047H163.055V226.035ZM163.055 220.816H157.411V216.829H163.055V220.816ZM163.055 215.582H157.411V212.357H163.055V215.582ZM163.055 211.111H157.411V207.124H163.055V211.111ZM163.055 205.892H157.411V201.905H163.055V205.892ZM163.055 200.658H157.411V196.671H163.055V200.658ZM163.055 195.44H157.411V191.452H163.055V195.44ZM163.055 190.206H157.411V186.218H163.055V190.206ZM163.055 184.987H157.411V181.175H163.055V184.987ZM163.055 179.944H157.411V175.956H163.055V179.944ZM163.055 174.71H157.411V170.723H163.055V174.71ZM163.055 169.491H157.411V165.504H163.055V169.491ZM163.055 164.258H157.411V160.27H163.055V164.258ZM163.055 159.024H157.411V155.051H163.055V159.024ZM163.055 153.805H157.411V150.58H163.055V153.805ZM163.055 149.334H157.411V145.346H163.055V149.334ZM163.055 144.115H157.411V140.127H163.055V144.115ZM163.055 138.881H157.411V134.894H163.055V138.881ZM163.055 133.662H157.411V129.675H163.055V133.662ZM163.055 128.428H157.411V124.441H163.055V128.428Z" fill="#D2E4FF"/>
<path d="M332.733 60.2458C332.663 60.2458 332.733 58.9206 332.175 56.6888C331.896 55.5729 331.338 54.2477 330.501 52.7831C329.664 51.3882 328.409 49.9236 326.804 48.6682C325.131 47.4128 323.108 46.3666 320.667 45.9481C318.296 45.5297 315.576 45.5994 313.065 46.5758C311.809 46.9943 310.554 47.6917 309.438 48.5287C308.322 49.3656 307.276 50.4118 306.369 51.5974C304.556 53.9688 303.579 57.0375 303.579 60.176C303.579 63.3146 304.626 66.3833 306.369 68.7546C307.206 69.9403 308.252 70.9865 309.438 71.8234C310.554 72.6603 311.809 73.3578 313.065 73.7763C315.645 74.7527 318.296 74.8224 320.667 74.404C323.038 73.9855 325.131 72.9393 326.804 71.6839C328.478 70.4285 329.664 68.9639 330.501 67.569C331.338 66.1741 331.896 64.8489 332.175 63.6633C332.733 61.5709 332.593 60.2458 332.733 60.2458C332.733 60.2458 332.733 60.3155 332.733 60.455C332.733 60.6643 332.733 60.8735 332.733 61.1525C332.733 61.4314 332.733 61.8499 332.663 62.2684C332.593 62.6869 332.524 63.2448 332.384 63.8028C332.175 64.9884 331.617 66.3136 330.78 67.7782C329.943 69.2428 328.688 70.7075 327.014 72.0326C325.34 73.288 323.247 74.404 320.737 74.8224C318.296 75.2409 315.506 75.1712 312.856 74.1947C311.53 73.7065 310.275 73.0788 309.089 72.1721C307.904 71.3352 306.788 70.2193 305.951 69.0336C304.137 66.5926 303.091 63.454 303.021 60.176C303.021 56.898 304.068 53.7595 305.951 51.3185C306.857 50.0631 307.904 49.0169 309.089 48.18C310.275 47.2733 311.53 46.6456 312.856 46.1574C315.506 45.1809 318.226 45.1112 320.737 45.5297C323.178 45.9481 325.34 47.064 327.014 48.3194C328.688 49.6446 329.943 51.1092 330.78 52.5739C331.617 54.0385 332.105 55.3637 332.384 56.5493C332.524 57.1073 332.593 57.6652 332.663 58.0837C332.733 58.5022 332.733 58.9206 332.733 59.1996C332.733 59.4786 332.733 59.6878 332.733 59.8971C332.733 60.176 332.733 60.2458 332.733 60.2458Z" fill="#E0E0E0"/>
<path d="M352.47 84.796C352.4 84.9354 347.169 81.5877 340.823 77.3333C334.476 73.0789 329.385 69.5219 329.454 69.3824C329.524 69.2429 334.755 72.5906 341.102 76.8451C347.448 81.1692 352.54 84.7262 352.47 84.796Z" fill="#E0E0E0"/>
<path d="M30.4922 213H-29V289.719H30.4922V213Z" fill="#79A2FD"/>
<path d="M11.0703 213.196H-48.4219V289.915H11.0703V213.196Z" fill="#3F7AFC"/>
<path d="M30.8778 249.882C30.8778 249.951 13.0231 250.091 -9.0162 250.091C-31.0555 250.091 -48.9102 250.021 -48.9102 249.882C-48.9102 249.812 -31.0555 249.672 -9.0162 249.672C13.0231 249.742 30.8778 249.812 30.8778 249.882Z" fill="#E0E0E0"/>
<path d="M326.037 175.325H266.545V252.044H326.037V175.325Z" fill="#3F7AFC"/>
<path d="M306.439 175.325H246.946V252.044H306.439V175.325Z" fill="#79A2FD"/>
<path fill-rule="evenodd" clip-rule="evenodd" d="M259.151 182.718V179.37H253.502V182.718C253.502 184.113 254.548 185.298 255.943 185.507V188.437H254.688C254.269 188.437 253.92 188.716 253.92 188.995H258.733C258.733 188.716 258.384 188.437 257.966 188.437H256.71V185.507C258.035 185.298 259.151 184.182 259.151 182.718Z" fill="#E0E0E0"/>
<path fill-rule="evenodd" clip-rule="evenodd" d="M269.892 182.508C269.474 180.765 267.87 179.37 265.917 179.37C264.034 179.37 262.43 180.695 261.941 182.508H265.498V187.739C265.498 188.158 265.15 188.437 264.731 188.437C264.313 188.437 263.964 188.088 263.964 187.739H263.197C263.197 188.576 263.894 189.204 264.731 189.204C265.568 189.204 266.266 188.576 266.266 187.739V182.508H269.892Z" fill="#E0E0E0"/>
<path d="M326.246 212.011C326.246 212.08 308.391 212.22 286.352 212.22C264.313 212.22 246.458 212.15 246.458 212.011C246.458 211.871 264.313 211.801 286.352 211.801C308.322 211.871 326.246 211.941 326.246 212.011Z" fill="#E0E0E0"/>
<path d="M276.727 252.393C276.658 252.393 276.518 235.096 276.518 213.824C276.518 192.482 276.588 175.255 276.727 175.255C276.867 175.255 276.937 192.552 276.937 213.824C276.937 235.096 276.797 252.393 276.727 252.393Z" fill="#E0E0E0"/>
<path d="M257.478 201.758H207.471V251.765H257.478V201.758Z" fill="#3F7AFC"/>
<path d="M238.007 202H188V252.007H238.007V202Z" fill="#79A2FD"/>
<path fill-rule="evenodd" clip-rule="evenodd" d="M201.194 210.197H202.589L201.403 207.965L200.148 205.733L198.962 207.965L197.707 210.197H199.101V215.846H195.614V210.197H197.079L195.823 207.965L194.568 205.733L193.382 207.965L192.127 210.197H193.592V215.846H192.755V216.683H202.031V215.846H201.194V210.197Z" fill="#3F7AFC"/>
<path d="M213.26 251.695C213.19 251.695 213.05 240.606 213.05 226.936C213.05 213.266 213.12 202.176 213.26 202.176C213.329 202.176 213.469 213.266 213.469 226.936C213.399 240.606 213.329 251.695 213.26 251.695Z" fill="#E0E0E0"/>
<path d="M257.966 226.726C257.966 226.796 242.134 226.936 222.605 226.936C203.077 226.936 187.245 226.866 187.245 226.726C187.245 226.657 203.077 226.517 222.605 226.517C242.134 226.517 257.966 226.587 257.966 226.726Z" fill="#E0E0E0"/>
<path fill-rule="evenodd" clip-rule="evenodd" d="M349.541 290.612H53.2654C42.5247 290.612 33.8066 281.894 33.8066 271.154C33.8066 260.413 42.5247 251.695 53.2654 251.695H349.541C360.282 251.695 369 260.413 369 271.154C369.069 281.894 360.351 290.612 349.541 290.612Z" fill="#8BB2EF"/>
<path fill-rule="evenodd" clip-rule="evenodd" d="M351.354 282.173H53.4049C47.3371 282.173 42.3853 277.221 42.3853 271.154C42.3853 265.086 47.3371 260.134 53.4049 260.134H351.354C357.422 260.134 362.374 265.086 362.374 271.154C362.374 277.221 357.422 282.173 351.354 282.173Z" fill="#AACCFF"/>
<path d="M63.8663 271.154C63.7965 271.154 63.8663 270.317 63.5176 268.922C63.1688 267.527 62.2622 265.574 60.2396 264.04C59.1934 263.273 57.938 262.645 56.4733 262.366C55.0087 262.087 53.3348 262.157 51.8005 262.784C51.0333 263.063 50.2661 263.482 49.5686 263.97C48.8712 264.458 48.2435 265.156 47.6855 265.853C46.5696 267.318 45.9419 269.201 45.9419 271.084C45.9419 273.037 46.5696 274.85 47.6855 276.315C48.2435 277.082 48.8712 277.71 49.5686 278.198C50.2661 278.756 51.0333 279.105 51.8005 279.384C53.3348 280.011 55.0087 280.011 56.4733 279.802C57.938 279.523 59.1934 278.895 60.2396 278.128C62.2622 276.594 63.1688 274.571 63.5176 273.246C63.8663 271.921 63.8663 271.154 63.8663 271.154C63.8663 271.154 63.8663 271.363 63.8663 271.712C63.8663 271.921 63.8663 272.13 63.7965 272.409C63.7268 272.688 63.7268 273.037 63.6571 273.386C63.3781 274.781 62.4714 276.873 60.379 278.477C59.3329 279.244 58.0077 279.942 56.5431 280.221C55.0087 280.5 53.3348 280.43 51.661 279.872C50.824 279.593 50.0568 279.174 49.2896 278.617C48.5225 278.059 47.8948 277.431 47.3368 276.664C46.2209 275.129 45.5234 273.176 45.5234 271.224C45.5234 269.201 46.2209 267.248 47.3368 265.783C47.8948 265.016 48.5922 264.389 49.2896 263.831C49.9871 263.273 50.824 262.854 51.661 262.575C53.2651 261.948 55.0087 261.948 56.5431 262.227C58.0775 262.505 59.4026 263.203 60.379 263.97C62.4714 265.574 63.3781 267.667 63.6571 269.061C63.7268 269.41 63.7965 269.759 63.7965 270.038C63.8663 270.317 63.8663 270.526 63.8663 270.735C63.936 270.945 63.8663 271.154 63.8663 271.154Z" fill="#8BB2EF"/>
<path d="M54.7995 274.432C56.6099 274.432 58.0775 272.964 58.0775 271.154C58.0775 269.343 56.6099 267.876 54.7995 267.876C52.9891 267.876 51.5215 269.343 51.5215 271.154C51.5215 272.964 52.9891 274.432 54.7995 274.432Z" fill="#8BB2EF"/>
<path d="M359.584 271.154C359.514 271.154 359.584 270.317 359.235 268.922C358.886 267.527 357.979 265.574 355.957 264.04C354.911 263.273 353.655 262.645 352.191 262.366C350.726 262.087 349.052 262.157 347.518 262.784C346.751 263.063 345.983 263.482 345.286 263.97C344.589 264.458 343.961 265.156 343.403 265.853C342.287 267.318 341.659 269.201 341.659 271.084C341.659 273.037 342.287 274.85 343.403 276.315C343.961 277.082 344.589 277.71 345.286 278.198C345.983 278.756 346.751 279.105 347.518 279.384C349.052 280.011 350.726 280.011 352.191 279.802C353.655 279.523 354.911 278.895 355.957 278.128C357.979 276.594 358.886 274.571 359.235 273.246C359.584 271.921 359.584 271.154 359.584 271.154C359.584 271.154 359.584 271.363 359.584 271.712C359.584 271.921 359.584 272.13 359.514 272.409C359.444 272.688 359.444 273.037 359.374 273.386C359.095 274.781 358.189 276.873 356.096 278.477C355.05 279.244 353.725 279.942 352.26 280.221C350.726 280.5 349.052 280.43 347.378 279.872C346.541 279.593 345.774 279.174 345.007 278.617C344.24 278.059 343.612 277.431 343.054 276.664C341.938 275.129 341.241 273.176 341.241 271.224C341.241 269.201 341.938 267.248 343.054 265.783C343.612 265.016 344.31 264.389 345.007 263.831C345.704 263.273 346.541 262.854 347.378 262.575C348.982 261.948 350.726 261.948 352.26 262.227C353.795 262.505 355.12 263.203 356.096 263.97C358.189 265.574 359.095 267.667 359.374 269.061C359.444 269.41 359.514 269.759 359.514 270.038C359.584 270.317 359.584 270.526 359.584 270.735C359.653 270.945 359.653 271.154 359.584 271.154Z" fill="#8BB2EF"/>
<path d="M350.517 274.432C352.328 274.432 353.795 272.964 353.795 271.154C353.795 269.343 352.328 267.876 350.517 267.876C348.707 267.876 347.239 269.343 347.239 271.154C347.239 272.964 348.707 274.432 350.517 274.432Z" fill="#8BB2EF"/>
<path d="M351.354 261.948C351.354 262.017 284.957 262.157 203.077 262.157C121.197 262.157 54.7998 262.087 54.7998 261.948C54.7998 261.878 121.197 261.738 203.077 261.738C284.957 261.808 351.354 261.878 351.354 261.948Z" fill="#8BB2EF"/>
<path d="M351.354 280.221C351.354 280.29 285.236 280.43 203.705 280.43C122.103 280.43 56.0552 280.36 56.0552 280.221C56.0552 280.081 122.173 280.011 203.705 280.011C285.236 280.011 351.354 280.081 351.354 280.221Z" fill="#8BB2EF"/>
<path d="M365.721 290.961C365.721 291.031 260.407 291.17 130.542 291.17C0.608025 291.17 -104.637 291.101 -104.637 290.961C-104.637 290.891 0.608025 290.752 130.542 290.752C260.407 290.822 365.721 290.891 365.721 290.961Z" fill="#263238"/>
<path d="M302.254 267.667L305.88 283.08L313.064 295.355C313.552 296.262 313.273 297.378 312.297 297.866C311.809 298.145 311.181 298.145 310.693 297.866C307.485 296.122 295.628 289.706 295.419 288.45C295.14 286.986 290.467 270.805 290.467 270.805L302.254 267.667Z" fill="#FFA412"/>
<g opacity="0.6">
<path opacity="0.6" d="M312.297 297.936L295.07 287.334L295.28 288.032C295.419 288.66 295.837 289.148 296.326 289.497C297.721 290.473 301.696 292.984 310.623 297.866C311.112 298.215 311.739 298.215 312.297 297.936Z" fill="white"/>
</g>
<g opacity="0.6">
<g opacity="0.6">
<path opacity="0.6" d="M297.023 280.988C297.512 281.127 297.86 281.755 297.651 282.243C297.512 282.731 296.884 283.08 296.396 282.871C295.908 282.731 295.489 282.034 295.698 281.546C295.908 281.057 296.605 280.709 297.093 280.988" fill="white"/>
</g>
</g>
<path d="M306.438 291.659C306.578 291.659 306.648 290.682 307.554 289.985C308.391 289.218 309.368 289.218 309.368 289.078C309.368 289.008 309.158 288.939 308.74 289.008C308.321 289.078 307.763 289.287 307.345 289.706C306.857 290.124 306.578 290.613 306.508 291.031C306.369 291.449 306.438 291.659 306.438 291.659Z" fill="#263238"/>
<path d="M308.252 293.612C308.322 293.681 308.74 292.984 309.507 292.496C310.274 292.007 311.111 291.938 311.111 291.868C311.111 291.798 310.205 291.659 309.368 292.217C308.461 292.705 308.182 293.542 308.252 293.612Z" fill="#263238"/>
<path d="M303.44 289.427C303.509 289.497 304.137 288.45 305.323 287.544C306.508 286.637 307.694 286.428 307.624 286.288C307.624 286.219 306.299 286.288 305.113 287.265C303.858 288.171 303.37 289.427 303.44 289.427Z" fill="#263238"/>
<path d="M301.766 284.405C301.835 284.475 302.672 283.847 303.858 283.499C305.044 283.08 306.09 283.15 306.09 283.01C306.09 282.941 305.044 282.662 303.718 283.08C302.463 283.568 301.696 284.336 301.766 284.405Z" fill="#263238"/>
<path d="M300.371 279.523C300.44 279.593 301.208 278.826 302.533 278.477C303.788 278.128 304.834 278.547 304.904 278.407C304.904 278.337 304.695 278.198 304.207 278.058C303.788 277.919 303.091 277.919 302.393 278.058C301.696 278.198 301.138 278.547 300.789 278.895C300.51 279.244 300.371 279.523 300.371 279.523Z" fill="#263238"/>
<path d="M302.254 277.57C302.254 277.57 302.254 277.361 302.114 276.943C301.975 276.524 301.696 275.966 301.138 275.408C300.859 275.129 300.58 274.78 300.022 274.711C299.743 274.641 299.394 274.78 299.325 275.059C299.185 275.338 299.185 275.617 299.255 275.896C299.534 276.943 300.789 277.71 301.975 277.57C303.23 277.361 304.067 276.385 304.346 275.338C304.416 275.059 304.346 274.78 304.137 274.501C303.928 274.223 303.579 274.223 303.3 274.362C302.812 274.571 302.603 274.92 302.393 275.269C301.975 275.896 301.696 276.454 301.626 276.873C301.487 277.291 301.487 277.501 301.556 277.501C301.626 277.501 301.766 276.594 302.672 275.408C302.882 275.129 303.16 274.78 303.509 274.641C303.649 274.571 303.858 274.571 303.928 274.711C303.997 274.85 304.067 275.059 303.997 275.269C303.788 276.106 302.951 277.012 301.975 277.152C300.929 277.291 299.883 276.664 299.604 275.757C299.534 275.548 299.534 275.338 299.604 275.199C299.673 275.059 299.813 274.99 300.022 274.99C300.371 275.059 300.719 275.338 300.929 275.548C301.975 276.664 302.184 277.64 302.254 277.57Z" fill="#263238"/>
<g opacity="0.3">
<path opacity="0.3" d="M290.955 272.618L291.653 274.92L303.37 272.339L302.951 270.666L290.955 272.618Z" fill="black"/>
</g>
<path d="M255.734 271.712L256.571 284.056C256.571 284.056 244.296 289.008 244.227 291.31L268.219 290.612L267.731 271.363L255.734 271.712Z" fill="#FFA412"/>
<g opacity="0.6">
<g opacity="0.6">
<path opacity="0.6" d="M263.894 282.801C264.382 282.941 264.731 283.429 264.592 283.917C264.522 284.405 263.964 284.754 263.545 284.614C263.057 284.545 262.639 283.917 262.778 283.429C262.918 282.941 263.545 282.592 263.964 282.801" fill="white"/>
</g>
</g>
<g opacity="0.6">
<path opacity="0.6" d="M268.149 290.613L268.079 288.66L245.063 290.055C245.063 290.055 244.017 290.543 244.156 291.31L268.149 290.613Z" fill="white"/>
</g>
<path d="M256.152 283.917C256.152 284.056 256.78 284.056 257.338 284.405C257.966 284.754 258.245 285.242 258.384 285.172C258.524 285.172 258.314 284.475 257.547 284.056C256.78 283.638 256.083 283.847 256.152 283.917Z" fill="#263238"/>
<path d="M253.641 285.033C253.641 285.172 254.129 285.312 254.548 285.8C254.966 286.288 255.106 286.777 255.176 286.777C255.315 286.777 255.315 286.079 254.827 285.521C254.339 284.963 253.641 284.963 253.641 285.033Z" fill="#263238"/>
<path d="M252.316 288.102C252.456 288.102 252.595 287.544 252.247 286.916C251.898 286.288 251.34 286.079 251.34 286.149C251.27 286.219 251.619 286.567 251.898 287.125C252.177 287.613 252.177 288.102 252.316 288.102Z" fill="#263238"/>
<path d="M256.222 281.127C256.292 281.267 256.78 281.058 257.478 281.058C258.175 281.058 258.663 281.267 258.733 281.197C258.803 281.127 258.315 280.709 257.478 280.639C256.71 280.639 256.222 280.988 256.222 281.127Z" fill="#263238"/>
<g opacity="0.3">
<path opacity="0.3" d="M255.734 272.13L255.873 274.362L267.73 274.013V271.851L255.734 272.13Z" fill="black"/>
</g>
<path d="M256.152 278.617C256.152 278.686 256.641 278.756 257.338 278.547C257.687 278.477 258.105 278.338 258.593 278.128C258.803 277.989 259.012 277.919 259.291 277.71C259.43 277.64 259.5 277.57 259.64 277.431C259.779 277.291 259.849 277.012 259.64 276.803C259.5 276.594 259.291 276.524 259.151 276.524C258.942 276.524 258.803 276.594 258.733 276.594C258.454 276.664 258.245 276.733 257.966 276.873C257.547 277.082 257.129 277.361 256.85 277.64C256.292 278.198 256.152 278.617 256.152 278.617C256.222 278.686 256.431 278.268 256.989 277.849C257.268 277.64 257.617 277.431 258.035 277.222C258.245 277.152 258.454 277.082 258.733 277.012C259.012 276.943 259.221 276.943 259.291 277.012C259.291 277.082 259.291 277.082 259.291 277.152C259.221 277.222 259.151 277.291 259.012 277.361C258.803 277.501 258.593 277.64 258.384 277.71C257.966 277.919 257.547 278.059 257.268 278.198C256.571 278.477 256.152 278.547 256.152 278.617Z" fill="#263238"/>
<path d="M256.292 278.756C256.362 278.756 256.571 278.337 256.571 277.57C256.571 277.221 256.501 276.733 256.362 276.245C256.292 276.036 256.152 275.757 256.013 275.548C255.873 275.338 255.664 274.99 255.246 274.99C255.036 274.99 254.827 275.199 254.757 275.338C254.688 275.478 254.688 275.617 254.618 275.757C254.548 276.036 254.618 276.315 254.618 276.594C254.688 277.082 254.897 277.5 255.176 277.849C255.664 278.477 256.152 278.547 256.152 278.547C256.222 278.477 255.804 278.268 255.385 277.71C255.176 277.431 255.036 277.012 254.967 276.594C254.967 276.385 254.967 276.106 254.967 275.896C254.967 275.617 255.106 275.408 255.176 275.478C255.315 275.478 255.525 275.687 255.594 275.827C255.734 276.036 255.804 276.245 255.943 276.454C256.083 276.873 256.152 277.291 256.222 277.64C256.362 278.337 256.222 278.756 256.292 278.756Z" fill="#263238"/>
<path d="M285.794 71.3352C285.027 71.9629 285.027 73.2183 285.515 74.0552C286.003 74.8922 286.84 75.5199 287.607 76.0778C288.374 76.7055 289.211 77.403 289.49 78.3097C290.048 80.0533 288.793 82.0061 289.49 83.7498C290.048 85.2144 291.931 85.8421 292.698 87.237C293.535 88.6319 293.047 90.4453 292.489 91.9796C291.862 93.514 291.164 95.1181 291.443 96.7223C291.652 97.6289 292.14 98.4659 292.001 99.3726C291.862 100.698 290.536 101.535 289.281 101.953C287.258 102.651 285.027 102.86 282.934 102.441C281.4 102.162 279.796 101.535 279.029 100.209C278.331 99.0936 278.331 97.629 278.331 96.3038C278.471 88.5621 279.447 80.8205 281.191 73.2881" fill="#263238"/>
<path d="M242.761 124.062L250.154 106.417C250.154 106.417 255.315 90.3755 263.545 90.6545L265.498 105.092L254.13 129.572L241.924 124.341" fill="#E0E0E0"/>
<path d="M256.431 133.617C256.431 133.617 243.04 159.981 243.319 168.211C243.459 172.814 250.433 272.339 250.433 272.339H270.589L266.823 168.49L287.956 273.037L305.81 270.108L291.652 158.377C291.652 158.377 289.211 143.172 284.19 136.895L256.431 133.617Z" fill="#263238"/>
<path d="M266.475 157.609C266.544 157.609 266.754 160.05 266.893 163.049C267.033 166.048 267.033 168.489 266.893 168.489C266.823 168.489 266.614 166.048 266.475 163.049C266.405 160.05 266.335 157.609 266.475 157.609Z" fill="#455A64"/>
<path d="M292.629 167.862C292.629 167.862 292.419 167.932 292.001 168.001C291.583 168.071 290.955 168.071 290.257 168.071C288.793 168.001 286.7 167.513 284.748 166.188C282.864 164.863 281.609 163.119 281.051 161.724C280.772 161.027 280.563 160.469 280.493 160.05C280.423 159.632 280.354 159.423 280.423 159.423C280.493 159.423 280.702 160.329 281.33 161.585C281.958 162.91 283.213 164.584 285.027 165.839C286.84 167.095 288.862 167.583 290.327 167.722C291.652 167.932 292.559 167.792 292.629 167.862Z" fill="#455A64"/>
<path d="M251.41 158.237C251.479 158.237 251.2 158.865 250.712 159.841C250.224 160.818 249.317 162.073 248.201 163.259C247.016 164.444 245.83 165.351 244.854 165.909C243.947 166.467 243.319 166.746 243.25 166.676C243.18 166.606 245.621 165.351 247.922 162.98C250.224 160.678 251.34 158.167 251.41 158.237Z" fill="#455A64"/>
<path d="M268.706 273.734C268.706 273.734 268.706 273.665 268.637 273.455C268.637 273.246 268.567 272.967 268.567 272.618C268.497 271.851 268.427 270.805 268.358 269.48C268.148 266.76 267.939 262.784 267.59 257.902C266.963 248.138 266.126 234.677 265.219 219.822C264.312 204.966 263.476 191.436 262.918 181.741C262.778 176.859 263.266 172.884 264.173 170.233C264.591 168.908 265.149 168.001 265.638 167.443C265.847 167.164 266.056 166.955 266.196 166.885C266.335 166.746 266.405 166.746 266.405 166.746C266.405 166.746 266.335 166.816 266.196 166.955C266.056 167.095 265.847 167.234 265.638 167.513C265.219 168.071 264.661 168.978 264.243 170.303C263.406 172.884 262.987 176.859 263.127 181.741C263.755 191.505 264.591 204.966 265.498 219.822C266.405 234.677 267.172 248.138 267.8 257.902C268.079 262.784 268.288 266.69 268.427 269.48C268.497 270.805 268.567 271.851 268.567 272.618C268.567 272.967 268.567 273.246 268.567 273.455C268.706 273.665 268.706 273.734 268.706 273.734Z" fill="#455A64"/>
<path d="M304.834 271.921C304.765 271.921 301.417 248.696 297.441 219.961C293.466 191.226 290.327 168.001 290.467 167.932C290.537 167.932 293.884 191.157 297.86 219.891C301.766 248.626 304.904 271.921 304.834 271.921Z" fill="#455A64"/>
<path d="M283.771 134.315L287.538 115.065L290.467 94.3509C287.886 92.119 284.818 90.5847 281.051 89.8872L263.406 90.6544L256.78 106.207L257.478 138.43L283.771 134.315Z" fill="#E0E0E0"/>
<path d="M282.655 90.3058C282.655 90.3058 274.216 108.997 269.822 110.253C267.87 118.204 266.056 160.05 266.056 160.05L293.745 158.865L285.585 131.664L288.863 118.064C288.863 118.064 285.236 96.5131 289.142 92.8166C286.91 91.352 285.166 90.4453 282.655 90.3058Z" fill="#FFA412"/>
<path d="M265.498 89.9569C265.498 89.9569 264.592 95.8852 264.801 101.046C264.94 104.394 266.266 107.533 268.567 109.974L264.871 159.981L245.203 157.121C245.203 157.121 249.248 144.637 252.456 139.127C252.456 139.127 253.99 136.546 256.78 131.664C256.78 131.664 254.827 115.693 254.758 113.461C254.758 112.624 259.849 91.6308 259.849 91.6308C261.662 90.3056 263.685 89.6082 265.498 89.9569Z" fill="#FFA412"/>
<path d="M260.198 66.4531C257.687 65.8254 256.152 64.9187 256.152 63.9423C256.152 61.9197 262.708 60.2458 270.868 60.2458C278.959 60.2458 285.585 61.9197 285.585 63.9423C285.585 64.9187 284.05 65.8254 281.539 66.4531" fill="#FFA412"/>
<g opacity="0.4">
<path opacity="0.4" d="M261.593 66.3832C259.361 65.8253 257.966 64.9883 257.966 64.1514C258.105 61.7103 263.824 60.8734 271.008 60.8734C278.192 60.8734 284.05 62.338 284.05 64.1514C284.05 64.9883 282.725 65.8253 280.493 66.3832" fill="black"/>
</g>
<path d="M281.469 64.3607C281.19 65.4069 281.958 66.4531 282.795 67.1505C283.701 67.7782 284.747 68.2664 285.375 69.1034C286.282 70.289 286.352 71.9629 285.724 73.3578C285.166 74.7527 284.12 75.8686 282.934 76.845C282.097 77.6122 280.981 78.3097 279.935 77.9609" fill="#263238"/>
<path d="M289.072 92.8165C288.723 92.8165 287.398 96.0945 286.491 99.0935C284.748 104.394 285.375 110.183 288.095 114.995L294.163 125.736L275.82 131.873L278.54 140.452L304.276 133.547C306.647 132.92 308.6 131.176 309.368 128.805C310.135 126.712 309.925 124.411 308.81 122.528L295.419 99.5119C295.419 99.5119 291.025 92.7467 289.072 92.8165Z" fill="#E0E0E0"/>
<path d="M281.261 65.616C281.121 60.0364 276.448 55.5728 270.799 55.8518C265.498 56.1307 261.383 60.7339 261.383 66.0345C261.383 70.7074 261.453 75.3803 261.732 77.0541C262.499 82.0758 265.777 83.6101 267.033 84.0286C267.312 84.0984 268.079 84.1681 268.428 84.1681C268.428 84.1681 268.428 84.1681 268.428 84.2378L268.149 90.1661C268.218 94.0718 270.799 97.1406 274.705 97.1406C278.61 97.1406 281.121 93.7929 281.191 89.8872L281.261 65.616Z" fill="#FFBE9D"/>
<path d="M263.267 68.6849C263.267 69.1034 263.615 69.4521 264.034 69.5218C264.452 69.5218 264.871 69.2428 264.871 68.8244C264.871 68.4059 264.522 68.0572 264.104 67.9874C263.615 67.9177 263.267 68.2664 263.267 68.6849Z" fill="#263238"/>
<path d="M262.708 67.2901C262.778 67.4295 263.406 66.9413 264.313 66.9413C265.219 66.9413 265.847 67.3598 265.917 67.2901C265.986 67.2203 265.847 67.0808 265.568 66.8716C265.289 66.6624 264.801 66.4531 264.313 66.4531C263.755 66.4531 263.336 66.6624 263.057 66.8716C262.778 67.0111 262.708 67.2203 262.708 67.2901Z" fill="#263238"/>
<path d="M271.775 68.6848C271.775 69.1032 272.124 69.452 272.543 69.5217C272.961 69.5217 273.38 69.2427 273.38 68.8243C273.38 68.4058 273.031 68.0571 272.612 67.9873C272.194 67.9176 271.775 68.2663 271.775 68.6848Z" fill="#263238"/>
<path d="M271.287 67.4295C271.357 67.569 271.985 67.0807 272.891 67.0807C273.798 67.0807 274.426 67.4992 274.495 67.4295C274.565 67.3597 274.426 67.2202 274.147 67.011C273.868 66.8018 273.379 66.5925 272.891 66.5925C272.333 66.5925 271.915 66.8018 271.636 67.011C271.357 67.2202 271.287 67.3597 271.287 67.4295Z" fill="#263238"/>
<path d="M268.148 73.9157C268.148 73.8459 267.59 73.7762 266.753 73.6367C266.544 73.6367 266.335 73.5669 266.265 73.4274C266.195 73.288 266.335 73.009 266.405 72.7997C266.614 72.2418 266.823 71.6838 267.032 71.1259C267.939 68.6848 268.637 66.732 268.497 66.6622C268.427 66.5925 267.59 68.5453 266.684 70.9864C266.474 71.6141 266.265 72.172 266.056 72.6602C265.986 72.9392 265.847 73.2182 265.916 73.5669C265.986 73.7064 266.126 73.8459 266.265 73.9157C266.405 73.9854 266.544 73.9854 266.614 73.9854C267.59 73.9854 268.148 73.9854 268.148 73.9157Z" fill="#263238"/>
<path d="M268.428 84.2379C268.428 84.2379 271.775 84.5169 276.03 82.0061C276.03 82.0061 274.705 86.4698 268.358 85.8421L268.428 84.2379Z" fill="#EB996E"/>
<path d="M268.497 76.0081C268.846 75.5896 269.334 75.3804 269.892 75.4501C270.241 75.5199 270.659 75.6593 270.868 76.0081C271.078 76.287 271.147 76.7753 270.938 77.0542C270.729 77.403 270.241 77.4727 269.822 77.3332C269.404 77.1937 269.055 76.9148 268.706 76.6358C268.636 76.566 268.497 76.4963 268.427 76.3568C268.427 76.287 268.427 76.1476 268.497 76.0081Z" fill="#EB996E"/>
<path d="M270.729 74.5433C270.589 74.5433 270.589 75.45 269.752 76.1475C268.915 76.8449 267.939 76.7054 267.939 76.8449C267.939 76.9146 268.148 77.0541 268.567 77.0541C268.985 77.0541 269.613 76.9146 270.101 76.4962C270.589 76.0777 270.799 75.5198 270.868 75.171C270.868 74.7526 270.798 74.5433 270.729 74.5433Z" fill="#263238"/>
<path d="M270.939 65.895C271.008 66.1043 271.915 66.0345 272.891 66.174C273.938 66.2438 274.774 66.5925 274.914 66.3832C274.984 66.3135 274.844 66.0345 274.496 65.8253C274.147 65.6161 273.659 65.4068 273.031 65.3371C272.403 65.2673 271.845 65.3371 271.496 65.5463C271.078 65.616 270.869 65.8253 270.939 65.895Z" fill="#263238"/>
<path d="M263.057 65.4766C263.196 65.6859 263.824 65.4766 264.522 65.4766C265.219 65.4069 265.847 65.6161 265.986 65.4069C266.056 65.3371 265.986 65.1279 265.707 64.9187C265.428 64.7094 265.01 64.5699 264.522 64.5699C264.033 64.5699 263.615 64.7792 263.336 64.9884C263.057 65.1976 262.987 65.4069 263.057 65.4766Z" fill="#263238"/>
<path d="M272.054 74.125C272.124 74.125 272.194 74.125 272.194 74.2645C272.194 74.404 272.124 74.404 272.054 74.404C271.985 74.3342 271.985 74.1947 272.054 74.125Z" fill="#263238"/>
<path d="M266.962 61.9197C267.869 63.2448 269.403 64.1515 271.077 64.291C272.124 64.3607 273.379 64.2212 274.146 64.9187C274.704 65.4069 274.913 66.2438 275.192 67.011C275.611 68.1269 276.308 69.1731 277.354 69.7311C278.191 70.2193 279.168 70.3588 279.795 71.126C280.423 71.8932 280.353 72.9393 280.353 73.9855C280.353 74.9619 280.632 76.0778 281.469 76.566C281.469 73.0091 281.539 69.3823 281.539 65.8254C281.539 65.2674 281.539 64.7095 281.33 64.2212C280.911 63.1053 279.656 62.5474 278.47 62.2684C275.192 61.3617 271.705 61.292 268.288 61.1525" fill="#263238"/>
<path d="M258.175 62.9659C258.175 62.9659 260.267 54.3176 260.476 53.8991C260.686 53.4806 263.127 49.7144 268.985 48.5985H273.867C273.867 48.5985 280.772 50.8303 282.027 52.5042C283.283 54.1781 283.841 62.3382 283.841 62.3382L270.171 59.3392L260.895 61.571L258.175 62.9659Z" fill="#FFA412"/>
<path d="M270.589 47.6221C270.38 47.6221 268.497 47.6221 268.497 47.6221C268.497 47.6221 267.8 48.3195 267.66 49.7842C267.59 51.3185 267.242 61.6408 267.242 61.6408L273.309 61.3618L273.1 48.5288L275.193 49.017L275.123 48.3195L274.565 47.6918L270.589 47.6221Z" fill="#FFA412"/>
<path d="M260.756 63.7331L260.895 60.5946L270.102 57.8745L281.54 61.2223V64.57C281.54 64.57 272.194 59.7576 260.756 63.7331Z" fill="#455A64"/>
<path d="M261.453 59.8971L261.034 60.3156L257.756 62.4079C257.756 62.4079 264.103 60.5946 270.659 60.6643C277.215 60.7341 284.748 62.9659 284.748 62.9659L280.423 60.3156C279.028 58.851 277.145 58.014 275.123 57.9443L266.893 57.8048C264.801 57.735 262.917 58.5022 261.453 59.8971Z" fill="#FFA412"/>
<path d="M267.381 57.5259C267.312 57.5259 267.312 55.573 267.451 53.1319C267.59 50.6909 267.8 48.738 267.869 48.738C267.939 48.738 267.939 50.6909 267.8 53.1319C267.66 55.573 267.451 57.5956 267.381 57.5259Z" fill="#263238"/>
<path d="M275.193 49.017C275.193 49.0867 274.565 48.9472 273.658 48.8077C273.449 48.8077 273.31 49.017 273.31 49.2262C273.31 49.5052 273.31 49.7842 273.31 50.1329C273.31 50.7606 273.31 51.5278 273.379 52.2252C273.379 53.6899 273.379 55.0848 273.379 56.0612C273.379 57.0376 273.31 57.6653 273.31 57.6653C273.31 57.6653 273.17 57.0376 273.17 56.0612C273.101 55.0848 273.101 53.7596 273.031 52.2252C273.031 51.4581 273.031 50.7606 273.031 50.1329C273.031 49.7842 273.031 49.5052 273.031 49.2262C273.031 48.8775 273.379 48.5985 273.728 48.5985C274.635 48.8077 275.193 49.017 275.193 49.017Z" fill="#263238"/>
<path d="M257.547 62.3382C257.547 62.3382 257.617 62.2684 257.826 62.1987C258.036 62.1289 258.245 61.9895 258.594 61.85C258.942 61.7105 259.361 61.5013 259.849 61.292C260.337 61.0828 260.825 60.7341 261.174 60.1761C261.593 59.6879 261.593 58.8509 262.151 58.2232C262.43 57.8745 262.848 57.6653 263.266 57.5955C263.685 57.5258 264.173 57.5258 264.592 57.4561C266.335 57.3863 268.358 57.3166 270.38 57.3863C272.403 57.4561 274.356 57.5955 276.169 57.735C277.076 57.8048 277.983 57.9443 278.61 58.572C278.889 58.8509 279.098 59.1997 279.308 59.4787C279.377 59.6181 279.517 59.7576 279.587 59.8971L279.726 60.1063C279.796 60.1761 279.796 60.1761 279.866 60.2458C281.051 60.8735 282.028 61.292 282.725 61.6407C283.074 61.7802 283.353 61.9197 283.492 62.0592C283.632 62.1289 283.771 62.1987 283.771 62.1987C283.771 62.1987 283.353 62.0592 282.725 61.7802C282.028 61.5012 281.051 61.0828 279.796 60.5248C279.726 60.4551 279.656 60.4551 279.587 60.3156L279.447 60.1063C279.377 59.9669 279.238 59.8274 279.098 59.6879C278.889 59.4089 278.68 59.0602 278.401 58.7812C277.843 58.2232 277.006 58.0838 276.169 58.014C274.426 57.8745 272.473 57.735 270.38 57.735C268.358 57.6653 266.405 57.6653 264.592 57.735C263.685 57.735 262.848 57.735 262.36 58.3627C261.872 58.9207 261.802 59.6879 261.314 60.3156C260.895 60.8735 260.337 61.2223 259.849 61.4315C259.361 61.6407 258.942 61.7802 258.594 61.9197C257.966 62.1987 257.547 62.3382 257.547 62.3382Z" fill="#263238"/>
<path d="M258.803 62.8264C258.803 62.8264 258.872 62.7567 259.012 62.6172C259.151 62.4777 259.361 62.3382 259.64 62.1987C260.267 61.85 261.174 61.5013 262.36 61.2921C264.731 60.7341 268.079 60.3854 271.775 60.7341C273.589 60.8736 275.332 60.9433 276.936 61.1526C278.54 61.4315 279.935 61.7105 281.121 62.0592C281.679 62.1987 282.237 62.408 282.655 62.5475C283.074 62.6869 283.492 62.8962 283.771 63.1752C283.981 63.4541 284.05 63.7331 284.05 63.9424C284.05 64.1516 283.981 64.2213 283.981 64.2213C283.981 64.2213 284.12 63.8029 283.632 63.3147C283.423 63.1054 283.004 62.8962 282.586 62.7567C282.167 62.6172 281.609 62.4777 281.051 62.3382C279.866 62.0593 278.471 61.7803 276.936 61.571C275.402 61.3618 273.589 61.2921 271.775 61.1526C268.149 60.8038 264.801 61.1526 262.429 61.571C261.244 61.7803 260.337 62.129 259.709 62.408C259.082 62.6172 258.803 62.8264 258.803 62.8264Z" fill="#263238"/>
<path d="M268.358 57.9443C268.358 57.9443 268.497 57.9443 268.776 57.9443C269.125 57.9443 269.544 57.9443 269.962 57.9443C270.938 57.9443 272.333 58.014 273.868 58.1535C274.635 58.2232 275.332 58.293 276.03 58.3627C276.658 58.4325 277.285 58.5022 277.773 58.6417C278.262 58.7812 278.61 59.1299 278.75 59.3392C278.889 59.6181 278.889 59.7576 278.889 59.7576C278.889 59.7576 278.889 59.6181 278.68 59.3392C278.541 59.1299 278.192 58.8509 277.773 58.7114C277.285 58.572 276.727 58.5022 276.03 58.4325C275.332 58.3627 274.635 58.293 273.868 58.2232C272.333 58.0837 271.008 58.014 269.962 57.9443C269.544 57.9443 269.125 57.8745 268.776 57.8745C268.497 58.014 268.358 57.9443 268.358 57.9443Z" fill="#FAFAFA"/>
<path d="M272.891 56.7587C272.891 56.7587 272.891 56.6192 272.821 56.4797C272.821 56.2705 272.751 55.9915 272.751 55.6428C272.682 54.9453 272.612 53.9689 272.542 52.853C272.542 51.7371 272.542 50.7606 272.542 50.0632C272.542 49.7145 272.542 49.4355 272.612 49.2263C272.612 49.017 272.612 48.9473 272.681 48.9473C272.681 48.9473 272.681 49.0868 272.681 49.2263C272.681 49.5052 272.681 49.7842 272.681 50.0632C272.681 50.7606 272.681 51.7371 272.681 52.853C272.681 53.9689 272.751 54.9453 272.821 55.6428C272.821 55.9217 272.891 56.2007 272.891 56.4797C272.96 56.6192 272.96 56.7587 272.891 56.7587Z" fill="#FAFAFA"/>
<path d="M279.796 60.5946C279.796 60.5946 279.866 60.5946 280.075 60.6643C280.354 60.7341 280.563 60.8736 280.842 60.9433C281.609 61.2921 282.446 61.571 283.283 61.9895C283.771 62.1987 284.19 62.3382 284.608 62.6172C285.027 62.8264 285.306 63.1752 285.375 63.5239C285.515 63.8726 285.445 64.1516 285.375 64.3608C285.306 64.57 285.166 64.57 285.166 64.57C285.166 64.57 285.236 64.5003 285.306 64.2911C285.375 64.1516 285.375 63.8726 285.306 63.5239C285.236 63.2449 284.957 62.8962 284.539 62.6869C284.19 62.4777 283.702 62.2685 283.213 62.0592C282.376 61.7105 281.54 61.3618 280.772 61.0131C280.563 60.8736 280.284 60.8038 280.075 60.6643C279.866 60.6643 279.796 60.6643 279.796 60.5946Z" fill="#FAFAFA"/>
<path d="M269.334 47.8312C269.334 47.8312 269.683 47.8312 270.171 47.7615C270.729 47.7615 271.426 47.7615 272.263 47.7615C273.1 47.7615 273.798 47.7615 274.356 47.901C274.635 47.9707 274.844 48.1102 274.914 48.1799C274.983 48.3194 275.053 48.3892 275.053 48.3892C275.053 48.3892 274.914 48.0405 274.356 47.9707C273.867 47.901 273.1 47.9707 272.333 47.901C271.496 47.901 270.799 47.8312 270.241 47.8312C269.683 47.901 269.334 47.901 269.334 47.8312Z" fill="#FAFAFA"/>
<path d="M260.756 63.733C260.128 66.4531 260.267 69.4521 261.313 72.0326C261.313 72.0326 261.313 69.1731 261.802 66.8715C261.941 66.1741 262.15 65.0582 262.569 64.5002C263.127 63.8028 264.034 63.6633 264.94 63.454C265.777 63.2448 266.754 63.1053 267.102 62.3381C264.661 62.4776 262.848 63.0356 260.756 63.733Z" fill="#263238"/>
<path d="M268.357 85.8422C267.521 85.9817 266.405 86.2606 265.847 86.9581C265.289 87.6555 264.87 88.5622 264.173 89.1899C263.475 89.7479 262.569 89.8874 261.871 90.5151C260.616 91.7007 261.244 93.7931 260.686 95.4669C260.337 96.4434 259.639 97.2105 259.151 98.0475C258.593 98.8844 258.245 100 258.593 100.907C258.942 101.674 259.709 102.162 260.546 102.302C261.383 102.441 262.22 102.232 262.987 101.953C262.987 101.325 262.917 100.628 262.917 100C262.987 100.349 263.127 100.768 263.406 101.047C263.615 101.325 264.103 101.535 264.452 101.395C265.01 101.186 265.01 100.419 264.94 99.7911C264.731 97.5593 264.801 95.188 266.056 93.3746C266.684 92.5377 267.66 91.5612 268.148 90.6545L268.357 85.8422Z" fill="#263238"/>
<path d="M232.509 120.645C232.509 120.645 233.764 117.925 235.578 118.064C237.391 118.204 242.483 118.761 242.483 118.761L243.04 121.272L231.881 120.714" fill="#FFBE9D"/>
<path d="M237.81 120.714L240.949 111.02C241.088 110.532 241.576 110.183 242.134 110.183C242.971 110.183 243.529 110.95 243.32 111.717L240.6 121.203L237.81 120.714Z" fill="#FFA412"/>
<path d="M226.72 120.714H256.989L277.146 147.985L248.76 147.566L226.72 120.714Z" fill="#263238"/>
<path d="M264.243 130.688C264.243 130.688 266.684 130.409 268.288 130.548C269.892 130.688 275.82 132.083 275.82 132.083L278.331 140.034L275.402 139.755L273.379 140.731C270.241 141.15 266.544 141.568 265.847 141.429C265.847 141.429 264.661 140.731 265.01 140.103C265.01 140.103 262.29 139.755 262.569 137.662C262.569 137.662 261.035 137.383 260.825 135.709L255.874 135.43C255.385 135.43 254.967 135.012 254.967 134.524C254.897 133.966 255.664 133.757 256.222 133.757L263.964 133.408C264.871 133.338 265.359 132.292 264.801 131.595L264.243 130.688Z" fill="#FFBE9D"/>
<g opacity="0.5">
<path opacity="0.5" d="M266.475 149.798L289.56 144.846L292.141 153.355L266.196 156.215L266.475 149.798Z" fill="white"/>
</g>
<g opacity="0.5">
<path opacity="0.5" d="M265.568 149.658L250.084 144.149L246.527 152.518L265.149 155.935L265.568 149.658Z" fill="white"/>
</g>
<path d="M285.515 74.0552C285.515 74.0552 285.724 74.4736 285.584 75.1013C285.445 75.729 284.957 76.6357 283.98 77.0542C283.004 77.4029 282.027 77.1239 281.469 76.7752C280.911 76.4265 280.772 76.008 280.772 76.008C280.842 75.9383 281.051 76.287 281.609 76.566C282.097 76.845 283.004 76.9845 283.841 76.7055C284.678 76.3568 285.166 75.5896 285.375 75.0316C285.515 74.4039 285.445 74.0552 285.515 74.0552Z" fill="#455A64"/>
<path d="M285.445 73.846C285.445 73.846 285.306 74.3342 284.678 74.8224C284.399 75.1014 283.981 75.3106 283.492 75.4501C283.004 75.5896 282.377 75.5896 281.819 75.2409C281.261 74.9619 280.912 74.4737 280.633 74.0552C280.424 73.567 280.284 73.1486 280.214 72.7998C280.145 72.0326 280.145 71.6142 280.214 71.5444C280.284 71.5444 280.284 72.0326 280.493 72.7301C280.633 73.4275 281.051 74.4737 281.958 74.9619C282.446 75.2409 282.934 75.2409 283.423 75.1712C283.841 75.1014 284.26 74.8922 284.539 74.6829C285.097 74.1947 285.376 73.7763 285.445 73.846Z" fill="#455A64"/>
<path d="M288.654 118.552C288.654 118.552 288.584 118.483 288.444 118.343C288.305 118.204 288.165 117.994 287.956 117.715C287.538 117.157 286.98 116.251 286.422 115.135C285.306 112.833 284.19 109.416 284.12 105.51C284.051 101.604 285.166 98.1171 286.213 95.8155C286.771 94.6299 287.259 93.7929 287.677 93.1652C287.886 92.8862 288.026 92.677 288.165 92.4678C288.305 92.3283 288.375 92.2585 288.375 92.2585C288.375 92.2585 288.165 92.6073 287.817 93.235C287.468 93.8627 286.98 94.7694 286.422 95.8853C285.376 98.1868 284.399 101.604 284.469 105.44C284.539 109.276 285.585 112.694 286.631 114.995C287.189 116.111 287.677 117.018 288.026 117.646C288.444 118.204 288.654 118.483 288.654 118.552Z" fill="#263238"/>
<path d="M269.125 112.973C269.125 112.973 269.404 112.694 269.962 112.275C270.52 111.857 271.287 111.229 272.124 110.322C273.868 108.649 276.03 105.929 277.843 102.72C279.726 99.4423 280.982 96.3038 281.958 94.072C282.376 92.956 282.795 92.0494 283.074 91.3519C283.353 90.7242 283.492 90.3755 283.492 90.3755C283.492 90.3755 283.423 90.7242 283.144 91.4217C282.865 92.1191 282.586 93.0258 282.167 94.1417C281.261 96.4433 280.005 99.5818 278.122 102.93C276.239 106.208 274.077 108.858 272.264 110.532C271.357 111.369 270.59 111.996 269.962 112.415C269.683 112.624 269.474 112.764 269.264 112.833C269.264 112.903 269.195 112.973 269.125 112.973Z" fill="#263238"/>
<path d="M263.475 90.9334C263.545 90.9334 263.127 92.1191 262.848 94.0719C262.708 95.0483 262.638 96.234 262.638 97.5591C262.638 98.8843 262.778 100.279 263.127 101.814C263.406 103.278 263.894 104.673 264.382 105.859C264.87 107.044 265.428 108.091 265.916 108.997C266.963 110.671 267.73 111.648 267.73 111.648C267.73 111.648 267.521 111.438 267.102 111.02C266.893 110.811 266.684 110.532 266.474 110.253C266.265 109.904 265.986 109.555 265.707 109.137C265.149 108.3 264.591 107.254 264.103 105.998C263.615 104.743 263.127 103.348 262.848 101.883C262.569 100.349 262.429 98.8843 262.429 97.5591C262.429 96.234 262.569 95.0483 262.708 94.0719C262.778 93.5837 262.917 93.1652 262.987 92.7468C263.057 92.3283 263.196 92.0493 263.266 91.7703C263.406 91.2124 263.475 90.8637 263.475 90.9334Z" fill="#263238"/>
<path d="M260.965 89.678C261.034 89.678 259.918 95.1878 258.384 101.953C256.85 108.718 255.594 114.158 255.455 114.158C255.385 114.158 256.501 108.649 258.035 101.883C259.57 95.1181 260.895 89.678 260.965 89.678Z" fill="#263238"/>
<path d="M225.814 84.7959L228.115 76.7055C228.115 76.7055 228.952 73.4275 229.161 72.6603C229.44 71.6141 228.743 71.3351 228.255 72.0326C228.115 72.3116 226.302 75.6593 226.302 75.6593C226.302 75.6593 227.767 70.1495 227.836 70.01C228.325 68.1966 227.209 68.4059 226.86 69.0336C226.511 69.6613 224.489 75.1013 224.489 75.1013C226.441 68.0571 225.883 67.4294 225.326 67.2899C224.768 67.1504 223.094 73.6367 223.094 73.6367C223.094 73.6367 222.536 72.5208 221.42 71.7536C219.746 70.5679 216.886 71.6839 216.747 72.5208C216.607 73.288 217.584 73.567 217.584 73.567C219.746 72.2418 221.908 73.9157 221.699 75.9383C221.49 77.9609 218.909 77.6819 218.56 76.2173C217.863 73.009 216.747 74.0552 216.747 74.0552L217.793 81.0994L216.607 84.5866" fill="#FFBE9D"/>
<path d="M188.152 56.8283C190.802 56.1309 192.406 55.1545 192.406 54.178C192.406 52.0159 185.501 50.2723 176.923 50.2723C168.344 50.2723 161.439 52.0159 161.439 54.178C161.439 55.2242 163.044 56.1309 165.694 56.8283" fill="#FFA412"/>
<g opacity="0.4">
<path opacity="0.4" d="M186.687 56.7585C189.058 56.1308 190.523 55.2939 190.453 54.3872C190.314 51.8067 184.316 50.9697 176.713 50.9697C169.111 50.9697 162.974 52.5041 162.974 54.3872C162.974 55.2939 164.369 56.1308 166.74 56.7585" fill="black"/>
</g>
<path d="M190.313 53.1318C190.313 53.1318 188.082 44.065 187.942 43.5768C187.733 43.1583 185.152 39.1829 178.945 37.9972H173.784C173.784 37.9972 166.531 40.3685 165.205 42.1121C163.88 43.8557 163.322 52.5041 163.322 52.5041L177.69 49.3656L187.454 51.7369L190.313 53.1318Z" fill="#FFA412"/>
<path d="M177.271 37.0209C177.481 37.0209 179.503 37.0209 179.503 37.0209C179.503 37.0209 180.27 37.7183 180.41 39.3224C180.48 40.9266 180.898 51.8067 180.898 51.8067L174.482 51.5278L174.691 38.067L172.529 38.5553L172.599 37.7881L173.157 37.0906L177.271 37.0209Z" fill="#FFA412"/>
<path d="M143.585 264.667L139.33 281.476L132.146 293.751C131.658 294.658 131.937 295.773 132.914 296.262C133.402 296.541 134.03 296.541 134.518 296.262C137.726 294.518 149.583 288.102 149.792 286.846C150.071 285.382 155.441 269.41 155.441 269.41L143.585 264.667Z" fill="#FFA412"/>
<g opacity="0.6">
<path opacity="0.6" d="M132.914 296.262L150.141 285.661L149.932 286.358C149.792 286.986 149.374 287.474 148.886 287.892C147.491 288.869 143.515 291.38 134.588 296.262C134.1 296.541 133.402 296.541 132.914 296.262Z" fill="white"/>
</g>
<g opacity="0.6">
<g opacity="0.6">
<path opacity="0.6" d="M148.188 279.314C147.699 279.453 147.351 280.081 147.56 280.569C147.699 281.057 148.327 281.406 148.815 281.197C149.304 281.057 149.722 280.36 149.513 279.872C149.304 279.384 148.606 279.035 148.118 279.314" fill="white"/>
</g>
</g>
<path d="M138.772 289.985C138.633 289.985 138.563 289.008 137.656 288.311C136.819 287.544 135.843 287.544 135.843 287.404C135.843 287.334 136.052 287.265 136.47 287.334C136.889 287.404 137.447 287.613 137.865 288.032C138.354 288.45 138.633 288.939 138.702 289.357C138.842 289.775 138.772 289.985 138.772 289.985Z" fill="#263238"/>
<path d="M136.959 291.938C136.889 292.007 136.47 291.31 135.703 290.822C134.936 290.333 134.099 290.264 134.099 290.194C134.099 290.124 135.006 289.985 135.843 290.543C136.749 291.031 137.028 291.868 136.959 291.938Z" fill="#263238"/>
<path d="M141.771 287.753C141.701 287.823 141.074 286.777 139.888 285.87C138.702 284.963 137.517 284.754 137.586 284.614C137.586 284.545 138.912 284.614 140.097 285.591C141.353 286.498 141.841 287.753 141.771 287.753Z" fill="#263238"/>
<path d="M143.445 282.801C143.376 282.871 142.539 282.243 141.353 281.894C140.167 281.476 139.121 281.545 139.121 281.406C139.121 281.336 140.167 281.057 141.492 281.476C142.748 281.894 143.515 282.731 143.445 282.801Z" fill="#263238"/>
<path d="M144.84 277.849C144.77 277.919 144.003 277.152 142.678 276.803C141.423 276.454 140.376 276.873 140.307 276.733C140.307 276.664 140.516 276.524 141.004 276.385C141.423 276.245 142.12 276.245 142.817 276.385C143.515 276.524 144.073 276.873 144.422 277.222C144.701 277.57 144.84 277.849 144.84 277.849Z" fill="#263238"/>
<path d="M142.957 275.896C142.957 275.896 142.957 275.687 143.096 275.269C143.236 274.85 143.515 274.292 144.073 273.734C144.352 273.455 144.631 273.107 145.189 273.037C145.468 272.967 145.816 273.107 145.886 273.386C146.026 273.664 146.026 273.943 145.956 274.222C145.677 275.269 144.422 276.036 143.236 275.896C141.98 275.687 141.144 274.711 140.865 273.664C140.795 273.386 140.865 273.107 141.074 272.828C141.283 272.549 141.632 272.549 141.911 272.688C142.399 272.897 142.608 273.246 142.817 273.595C143.236 274.222 143.515 274.78 143.585 275.199C143.724 275.617 143.724 275.827 143.654 275.827C143.585 275.827 143.445 274.92 142.538 273.734C142.329 273.455 142.05 273.107 141.701 272.967C141.562 272.897 141.353 272.897 141.283 273.037C141.213 273.176 141.144 273.386 141.213 273.595C141.422 274.432 142.259 275.338 143.236 275.478C144.282 275.617 145.328 274.99 145.607 274.083C145.677 273.874 145.677 273.664 145.607 273.525C145.537 273.385 145.398 273.316 145.189 273.316C144.84 273.386 144.491 273.664 144.282 273.874C143.236 274.99 143.027 275.966 142.957 275.896Z" fill="#263238"/>
<path d="M188.711 269.48L187.804 282.871C187.804 282.871 201.125 288.311 201.195 290.822L175.18 289.985L175.738 269.061L188.711 269.48Z" fill="#FFA412"/>
<path d="M179.712 281.476C179.224 281.615 178.806 282.173 178.945 282.661C179.015 283.15 179.573 283.568 180.131 283.429C180.619 283.289 181.107 282.661 180.968 282.173C180.828 281.685 180.131 281.267 179.643 281.476" fill="#E0E0E0"/>
<g opacity="0.6">
<path opacity="0.6" d="M175.109 289.915L175.249 287.823L200.148 289.427C200.148 289.427 201.264 289.985 201.124 290.752L175.109 289.915Z" fill="white"/>
</g>
<path d="M188.151 282.731C188.151 282.871 187.524 282.871 186.896 283.289C186.268 283.638 185.92 284.196 185.78 284.126C185.641 284.126 185.85 283.359 186.687 282.871C187.454 282.452 188.221 282.661 188.151 282.731Z" fill="#263238"/>
<path d="M190.872 283.987C190.872 284.126 190.314 284.335 189.895 284.824C189.407 285.312 189.268 285.939 189.198 285.87C189.058 285.87 188.989 285.172 189.616 284.475C190.105 283.917 190.872 283.847 190.872 283.987Z" fill="#263238"/>
<path d="M192.337 287.265C192.197 287.265 192.058 286.637 192.406 285.939C192.755 285.242 193.383 284.963 193.383 285.102C193.453 285.242 193.034 285.591 192.755 286.149C192.476 286.776 192.406 287.265 192.337 287.265Z" fill="#263238"/>
<path d="M188.082 279.662C188.012 279.802 187.454 279.593 186.757 279.593C186.059 279.593 185.501 279.802 185.432 279.732C185.362 279.662 185.92 279.174 186.757 279.174C187.524 279.174 188.082 279.593 188.082 279.662Z" fill="#263238"/>
<path d="M188.151 277.012C188.151 277.082 187.663 277.152 186.826 276.942C186.408 276.873 185.989 276.733 185.501 276.454C185.292 276.315 185.013 276.175 184.734 276.036C184.594 275.966 184.455 275.896 184.385 275.687C184.246 275.548 184.176 275.199 184.315 274.99C184.455 274.78 184.664 274.711 184.873 274.711C185.082 274.711 185.222 274.78 185.361 274.78C185.64 274.85 185.919 274.99 186.129 275.059C186.617 275.269 187.035 275.617 187.314 275.896C187.872 276.454 188.081 276.942 188.012 277.012C187.942 277.082 187.663 276.663 187.105 276.175C186.826 275.966 186.408 275.687 185.989 275.478C185.78 275.408 185.501 275.269 185.222 275.199C184.943 275.129 184.734 275.129 184.664 275.199C184.664 275.269 184.664 275.269 184.664 275.338C184.734 275.408 184.803 275.478 184.943 275.547C185.152 275.687 185.361 275.826 185.64 275.966C186.059 276.175 186.547 276.384 186.896 276.524C187.733 276.873 188.221 276.942 188.151 277.012Z" fill="#263238"/>
<path d="M188.012 277.152C187.943 277.152 187.733 276.733 187.733 275.896C187.733 275.478 187.803 274.99 187.943 274.501C188.012 274.222 188.152 274.013 188.291 273.734C188.431 273.455 188.64 273.176 189.128 273.106C189.407 273.106 189.616 273.316 189.686 273.455C189.756 273.664 189.756 273.804 189.826 273.943C189.895 274.222 189.826 274.571 189.826 274.85C189.756 275.408 189.477 275.827 189.198 276.175C188.64 276.803 188.152 276.942 188.152 276.942C188.082 276.873 188.57 276.663 188.989 276.036C189.198 275.757 189.407 275.338 189.407 274.85C189.407 274.641 189.477 274.362 189.407 274.083C189.407 273.804 189.268 273.595 189.198 273.595C189.059 273.595 188.849 273.804 188.71 274.013C188.57 274.222 188.431 274.501 188.361 274.711C188.152 275.199 188.082 275.617 188.082 276.036C187.943 276.663 188.082 277.152 188.012 277.152Z" fill="#263238"/>
<path d="M167.298 88.0739L182.921 87.3764C182.991 85.7026 182.154 75.4501 182.154 75.4501C182.154 75.4501 188.082 74.5434 188.152 68.6151C188.222 62.6868 187.315 50.9 187.315 50.9L187.245 50.4117C180.41 47.4825 172.46 47.2035 166.601 51.7369L165.694 52.4343L167.298 88.0739Z" fill="#FFBE9D"/>
<path d="M182.224 75.3804C182.224 75.3804 178.457 75.6593 174.482 73.2183C174.482 73.2183 176.295 77.4727 182.224 76.9147V75.3804Z" fill="#EB996E"/>
<path d="M166.461 58.5023C166.391 58.4325 162.416 57.3166 162.555 61.3618C162.695 65.407 166.74 64.4305 166.74 64.2911C166.67 64.2213 166.461 58.5023 166.461 58.5023Z" fill="#FFBE9D"/>
<path d="M165.415 62.8265C165.415 62.8265 165.346 62.8962 165.206 62.9659C165.067 63.0357 164.927 63.0357 164.648 62.9659C164.23 62.8265 163.811 62.129 163.811 61.4316C163.811 61.0828 163.881 60.7341 163.951 60.3854C164.09 60.1064 164.23 59.8972 164.439 59.8274C164.648 59.7577 164.788 59.8972 164.857 60.0367C164.927 60.1762 164.857 60.2459 164.927 60.2459C164.927 60.2459 164.997 60.1762 164.997 60.0367C164.997 59.9669 164.927 59.8972 164.857 59.7577C164.788 59.6879 164.648 59.6182 164.439 59.6879C164.16 59.6879 163.881 60.0367 163.741 60.3156C163.602 60.6644 163.532 61.0131 163.532 61.4316C163.602 62.2685 164.02 62.9659 164.648 63.1752C164.927 63.2449 165.136 63.1752 165.276 63.0357C165.346 62.8962 165.415 62.8265 165.415 62.8265Z" fill="#EB996E"/>
<path d="M185.293 58.2931C185.293 58.7115 184.944 59.13 184.456 59.13C183.967 59.13 183.619 58.7813 183.619 58.3628C183.619 57.9443 183.967 57.5259 184.456 57.5259C184.874 57.4561 185.293 57.8048 185.293 58.2931Z" fill="#263238"/>
<path d="M186.129 57.4561C185.99 57.5956 185.362 57.1074 184.455 57.1074C183.549 57.1074 182.851 57.5956 182.781 57.4561C182.712 57.3864 182.851 57.1771 183.13 56.9679C183.409 56.7587 183.897 56.5494 184.455 56.5494C185.013 56.5494 185.502 56.7587 185.78 56.9679C186.059 57.1771 186.199 57.3864 186.129 57.4561Z" fill="#263238"/>
<path d="M176.365 58.5719C176.365 58.9903 176.016 59.4088 175.528 59.4088C175.04 59.4088 174.691 59.0601 174.691 58.6416C174.691 58.2232 175.04 57.8047 175.528 57.8047C175.946 57.8047 176.365 58.1534 176.365 58.5719Z" fill="#263238"/>
<path d="M177.202 57.5955C177.062 57.735 176.435 57.2468 175.528 57.2468C174.621 57.2468 173.924 57.735 173.854 57.5955C173.784 57.5258 173.924 57.3165 174.203 57.1073C174.482 56.8981 174.97 56.6888 175.528 56.6888C176.086 56.6888 176.574 56.8981 176.853 57.1073C177.132 57.3165 177.202 57.5258 177.202 57.5955Z" fill="#263238"/>
<path d="M180.48 64.3608C180.48 64.2911 181.038 64.2214 181.944 64.0819C182.154 64.0819 182.363 64.0121 182.433 63.8726C182.502 63.7331 182.363 63.4542 182.293 63.1752C182.084 62.6172 181.875 62.0593 181.596 61.4316C180.619 58.9208 179.922 56.8284 180.061 56.8284C180.131 56.7587 181.038 58.7813 181.944 61.2921C182.154 61.9198 182.363 62.4777 182.572 63.0357C182.642 63.3147 182.781 63.5936 182.712 63.9424C182.642 64.0819 182.502 64.2213 182.363 64.2911C182.223 64.3608 182.084 64.3608 181.944 64.3608C181.038 64.3608 180.48 64.3608 180.48 64.3608Z" fill="#263238"/>
<path d="M177.829 64.9885C177.969 64.9885 177.969 65.965 178.806 66.6624C179.643 67.3599 180.689 67.2204 180.689 67.3599C180.689 67.4296 180.48 67.5691 179.991 67.5691C179.573 67.5691 178.945 67.4296 178.387 67.0111C177.899 66.5927 177.62 66.0347 177.62 65.6162C177.62 65.1978 177.76 64.9885 177.829 64.9885Z" fill="#263238"/>
<path d="M177.411 54.0385C177.341 54.3175 176.435 54.178 175.319 54.3175C174.273 54.457 173.366 54.7359 173.226 54.5267C173.157 54.3872 173.296 54.178 173.645 53.9688C173.994 53.7595 174.552 53.4805 175.179 53.4108C175.807 53.3411 176.435 53.4108 176.783 53.62C177.272 53.7595 177.481 53.899 177.411 54.0385Z" fill="#263238"/>
<path d="M185.781 54.8057C185.641 55.015 185.014 54.8057 184.247 54.8057C183.479 54.736 182.852 54.9452 182.712 54.736C182.642 54.5965 182.782 54.457 183.061 54.2478C183.34 54.0385 183.828 53.899 184.316 53.899C184.804 53.899 185.293 54.1083 185.572 54.3175C185.781 54.457 185.851 54.6662 185.781 54.8057Z" fill="#263238"/>
<path d="M194.289 144.149L191.709 277.779C191.709 278.686 190.942 279.384 190.035 279.384L174.482 279.244C173.575 279.244 172.808 278.477 172.878 277.57L175.319 162.561L155.093 276.733C154.814 278.198 153.558 279.174 152.094 279.174L139.052 278.756C137.308 278.686 135.983 277.082 136.262 275.338L156.767 143.66L194.289 144.149Z" fill="#263238"/>
<path d="M226.093 84.6565L216.398 82.3549L209.982 99.6516L192.336 83.8893C190.453 82.4944 187.245 82.3549 184.734 82.0062C184.664 82.0062 184.595 82.0062 184.525 82.0062C183.548 81.8667 183.13 81.7272 182.502 81.6575C178.248 84.8657 170.994 85.075 166.81 81.7272C166.81 81.7272 163.671 82.4247 161.718 82.7734C155.79 83.8893 151.466 88.2832 150.28 92.2587L157.743 109.486L159.138 125.806L155.023 140.452C154.604 141.917 155.581 143.451 157.115 143.661L194.08 144.218L194.708 143.939C195.475 142.475 196.033 140.871 195.684 139.267C194.08 132.292 195.196 111.369 194.847 105.022C202.101 112.066 210.051 117.925 215.91 114.298C221.001 111.229 226.093 84.6565 226.093 84.6565Z" fill="#E0E0E0"/>
<path d="M165.764 54.7359C165.903 56.4098 165.903 58.0139 166.043 59.6878C166.112 60.3155 166.391 60.8735 166.601 61.4314C166.88 61.9894 167.368 62.4776 167.996 62.5473C168.693 62.6171 169.39 62.1289 169.739 61.4314C170.088 60.8037 170.088 60.0365 170.088 59.3391C170.088 58.6416 170.088 57.8744 170.297 57.177C170.576 56.4098 171.134 55.7821 171.552 55.0846C171.971 54.3872 172.25 53.5503 171.901 52.7831C169.669 52.7133 167.647 53.62 165.764 54.7359Z" fill="#263238"/>
<path d="M187.594 53.9687L187.454 50.6907L177.76 47.8312L165.694 51.3881V54.9451C165.694 54.8754 175.528 49.784 187.594 53.9687Z" fill="#455A64"/>
<path d="M186.827 49.9235L187.245 50.3419L190.732 52.504C190.732 52.504 184.037 50.6209 177.132 50.6907C170.227 50.7604 162.276 53.1317 162.276 53.1317L166.88 50.3419C168.344 48.8076 170.367 47.9009 172.459 47.8311L181.107 47.6917C183.27 47.6917 185.292 48.4588 186.827 49.9235Z" fill="#FFA412"/>
<path d="M180.619 47.4824C180.55 47.4824 180.34 45.4598 180.201 42.8793C180.061 40.2987 179.992 38.2761 180.131 38.2761C180.201 38.2761 180.41 40.2987 180.55 42.8793C180.689 45.3901 180.759 47.4824 180.619 47.4824Z" fill="#263238"/>
<path d="M172.389 38.5552C172.389 38.4855 172.947 38.2763 173.993 38.067C174.272 38.067 174.691 38.346 174.691 38.6947C174.691 39.0434 174.691 39.3224 174.691 39.6711C174.691 40.3686 174.691 41.1358 174.691 41.903C174.691 43.4374 174.621 44.902 174.551 45.8784C174.482 46.9246 174.412 47.5523 174.412 47.5523C174.412 47.5523 174.342 46.9246 174.342 45.8784C174.342 44.8322 174.342 43.4374 174.342 41.8332C174.342 41.066 174.412 40.2988 174.412 39.6014C174.412 39.2527 174.412 38.9737 174.412 38.625C174.412 38.4157 174.203 38.2065 173.993 38.2065C173.017 38.4855 172.389 38.5552 172.389 38.5552Z" fill="#263238"/>
<path d="M190.942 52.5041C190.942 52.5041 190.523 52.3646 189.826 52.0856C189.477 51.9461 188.989 51.8066 188.501 51.5277C188.012 51.2487 187.385 50.9697 186.966 50.342C186.478 49.7143 186.408 48.8774 185.92 48.3194C185.432 47.6917 184.455 47.6917 183.549 47.622C181.666 47.5522 179.643 47.5522 177.481 47.5522C175.319 47.622 173.296 47.7614 171.413 47.9009C170.507 47.9707 169.6 48.1102 169.042 48.6681C168.763 48.9471 168.554 49.2958 168.344 49.5748C168.205 49.7143 168.135 49.8538 167.996 50.063L167.856 50.2723C167.786 50.342 167.647 50.4118 167.577 50.4815C166.252 51.1092 165.206 51.5277 164.508 51.8066C163.811 52.0856 163.393 52.2949 163.393 52.2949C163.393 52.2949 163.462 52.2251 163.672 52.0856C163.881 52.0159 164.09 51.8066 164.508 51.6672C165.206 51.3184 166.252 50.8302 167.508 50.2025C167.577 50.1328 167.647 50.1328 167.717 50.063L167.856 49.8538C167.996 49.7143 168.065 49.5748 168.205 49.3656C168.414 49.0169 168.623 48.6681 168.972 48.3892C169.6 47.7615 170.576 47.5522 171.553 47.4825C173.436 47.343 175.458 47.2035 177.62 47.1337C179.783 47.064 181.875 47.1337 183.688 47.2035C184.177 47.2035 184.595 47.2035 185.083 47.343C185.502 47.4127 185.99 47.6917 186.269 48.0404C186.827 48.7379 186.897 49.5748 187.315 50.1328C187.664 50.6907 188.222 51.0395 188.71 51.3184C189.198 51.5974 189.686 51.7369 190.035 51.8764C190.384 52.0159 190.663 52.1554 190.872 52.2949C190.872 52.4343 190.942 52.5041 190.942 52.5041Z" fill="#263238"/>
<path d="M189.686 52.9923C189.686 52.9923 189.616 52.9923 189.407 52.8528C189.268 52.783 188.989 52.6435 188.71 52.504C188.082 52.2251 187.105 51.8763 185.85 51.6671C183.409 51.1789 179.852 50.8302 176.016 51.1789C174.063 51.3184 172.25 51.3881 170.576 51.5974C168.902 51.8066 167.437 52.1553 166.252 52.4343C165.624 52.5738 165.066 52.7133 164.648 52.9225C164.159 53.062 163.811 53.2712 163.532 53.4805C163.044 53.9687 163.183 54.4569 163.183 54.4569C163.183 54.4569 163.113 54.3871 163.113 54.1779C163.113 53.9687 163.183 53.6897 163.462 53.4107C163.741 53.1317 164.159 52.9225 164.578 52.783C165.066 52.5738 165.624 52.4343 166.182 52.2251C167.437 51.8763 168.902 51.5974 170.576 51.3184C172.25 51.1092 174.063 50.9697 176.016 50.8302C179.852 50.4815 183.409 50.8302 185.92 51.3881C187.175 51.6671 188.152 52.0158 188.779 52.3646C189.128 52.504 189.337 52.7133 189.477 52.783C189.616 52.9225 189.686 52.9923 189.686 52.9923Z" fill="#263238"/>
<path d="M178.527 37.2997C178.527 37.2997 178.178 37.3695 177.62 37.3695C176.853 37.3695 176.156 37.4392 175.458 37.4392C174.621 37.4392 173.854 37.4392 173.296 37.509C172.738 37.5787 172.599 37.9972 172.599 37.9274C172.599 37.9274 172.599 37.8577 172.738 37.7182C172.808 37.5787 173.017 37.4392 173.296 37.3695C173.854 37.23 174.621 37.2997 175.458 37.23C176.225 37.23 176.853 37.23 177.62 37.23C178.178 37.23 178.527 37.2997 178.527 37.2997Z" fill="#FAFAFA"/>
<path d="M179.573 47.901C179.573 47.901 179.433 47.901 179.085 47.9707C178.736 47.9707 178.317 48.0405 177.829 48.0405C176.783 48.1102 175.318 48.18 173.714 48.3195C172.947 48.3892 172.18 48.459 171.482 48.5287C170.785 48.5985 170.157 48.6682 169.669 48.8077C169.181 48.9472 168.832 49.2262 168.693 49.5051C168.553 49.7144 168.483 49.9236 168.483 49.9236C168.483 49.9236 168.483 49.7144 168.623 49.5051C168.762 49.2262 169.111 48.9472 169.599 48.7379C170.088 48.5287 170.715 48.5287 171.413 48.459C172.11 48.3892 172.877 48.3195 173.645 48.2497C175.249 48.1102 176.713 48.0405 177.759 48.0405C178.178 48.0405 178.596 48.0405 179.015 48.0405C179.433 47.901 179.573 47.901 179.573 47.901Z" fill="#FAFAFA"/>
<path d="M174.761 46.6455C174.761 46.6455 174.761 46.506 174.761 46.2968C174.761 46.0178 174.83 45.7388 174.83 45.3901C174.9 44.6229 174.97 43.5767 174.97 42.4608C174.97 41.3449 174.97 40.2987 174.97 39.5315C174.97 39.2526 174.97 38.9038 174.97 38.6248C174.97 38.4156 174.97 38.2761 174.97 38.2761C174.97 38.2761 174.97 38.4156 175.04 38.6248C175.04 38.8341 175.109 39.1131 175.109 39.5315C175.109 40.2987 175.179 41.3449 175.109 42.4608C175.109 43.5767 174.97 44.6229 174.9 45.3901C174.83 45.7388 174.83 46.0875 174.761 46.2968C174.83 46.506 174.761 46.6455 174.761 46.6455Z" fill="#FAFAFA"/>
<path d="M167.507 50.6908C167.507 50.6908 167.437 50.7605 167.228 50.8303C166.949 50.9698 166.74 51.0395 166.461 51.179C165.624 51.5277 164.787 51.8765 163.88 52.2949C163.392 52.5042 162.904 52.7134 162.485 52.9226C162.067 53.1319 161.788 53.4806 161.718 53.8293C161.579 54.178 161.648 54.457 161.718 54.5965C161.788 54.8057 161.858 54.8755 161.858 54.8755C161.858 54.8755 161.788 54.8057 161.648 54.5965C161.579 54.3873 161.509 54.1083 161.648 53.7596C161.718 53.4108 162.067 53.0621 162.485 52.7831C162.904 52.5042 163.392 52.3647 163.88 52.1554C164.787 51.8067 165.624 51.458 166.461 51.1093C166.74 51.0395 167.019 50.9 167.228 50.8303C167.437 50.7605 167.507 50.6908 167.507 50.6908Z" fill="#FAFAFA"/>
<path d="M165.764 82.8431L166.601 76.9148L174.691 79.9138L176.923 83.8893L178.387 79.4953L182.781 77.961L184.664 81.8667L181.456 86.4698L175.319 87.7252L165.764 82.8431Z" fill="#E0E0E0"/>
<path d="M177.062 84.7959C177.062 84.7959 176.923 84.7262 176.783 84.5867C176.574 84.4472 176.365 84.1682 176.016 83.8195C175.388 83.1221 174.621 82.0062 174.063 80.4718H174.342C173.784 81.8667 173.157 83.4708 172.459 85.1447C172.11 85.9119 171.831 86.7488 171.552 87.4462L171.483 87.6555L171.273 87.4462C169.669 85.8421 168.274 84.517 167.228 83.5405C166.81 83.0523 166.391 82.7036 166.112 82.3549C165.833 82.0759 165.694 81.9364 165.694 81.8667C165.694 81.8667 165.903 82.0062 166.182 82.2154C166.531 82.4944 166.949 82.9128 167.437 83.3313C168.484 84.3077 169.879 85.6329 171.552 87.1673L171.273 87.237C171.552 86.4698 171.901 85.7026 172.18 84.9354C172.878 83.2616 173.505 81.6574 174.063 80.2625L174.203 79.9138L174.342 80.3323C174.9 81.7969 175.598 82.9128 176.156 83.68C176.714 84.3775 177.132 84.7959 177.062 84.7959Z" fill="#263238"/>
<path d="M184.665 81.8666C184.665 81.8666 184.386 82.4246 183.688 83.1918C183.06 83.959 182.014 85.0051 180.619 85.9118L180.41 86.0513L180.34 85.8421C180.061 85.1446 179.782 84.3774 179.434 83.5405C178.945 82.3548 178.527 81.1692 178.178 80.1928H178.457C178.178 81.5179 177.83 82.6338 177.69 83.401C177.481 84.1682 177.341 84.5867 177.341 84.5867C177.341 84.5867 177.341 84.0985 177.481 83.3313C177.62 82.5641 177.899 81.4482 178.109 80.123L178.178 79.5651L178.387 80.123C178.736 81.0994 179.224 82.2851 179.713 83.4708C180.061 84.3077 180.34 85.0749 180.619 85.7723L180.34 85.7026C181.735 84.8657 182.712 83.8892 183.409 83.122C184.246 82.3548 184.595 81.8666 184.665 81.8666Z" fill="#263238"/>
<path d="M179.991 144.986C179.991 144.986 179.991 144.776 180.061 144.358C180.131 143.939 180.201 143.312 180.27 142.614C180.34 141.847 180.41 140.94 180.48 139.825C180.549 139.267 180.549 138.709 180.619 138.081C180.619 137.453 180.689 136.825 180.689 136.128C180.828 133.408 180.828 130.13 180.759 126.503C180.689 122.877 180.48 118.901 180.201 114.716C179.573 106.347 178.806 98.8146 178.178 93.3746C177.899 90.6545 177.62 88.4924 177.411 86.8883C177.341 86.1211 177.271 85.5631 177.202 85.1447C177.132 84.7262 177.132 84.517 177.132 84.517C177.132 84.517 177.202 84.7262 177.271 85.1447C177.341 85.5631 177.411 86.1908 177.55 86.8883C177.76 88.4227 178.039 90.5848 178.387 93.3048C179.085 98.7449 179.922 106.277 180.549 114.647C180.828 118.831 181.038 122.807 181.107 126.434C181.177 130.06 181.107 133.338 180.968 136.058C180.898 136.756 180.898 137.383 180.898 138.011C180.828 138.639 180.828 139.197 180.759 139.755C180.689 140.871 180.549 141.777 180.48 142.545C180.34 143.312 180.27 143.87 180.201 144.288C180.061 144.776 179.991 144.986 179.991 144.986Z" fill="#263238"/>
<path d="M173.575 82.5641L175.388 83.5405L175.04 86.6093L172.18 85.9816L173.575 82.5641Z" fill="#FFA412"/>
<g opacity="0.4">
<path opacity="0.4" d="M173.576 82.5638L175.389 83.5403L175.04 86.609L172.181 85.9813L173.576 82.5638Z" fill="black"/>
</g>
<path d="M177.76 83.331L179.155 82.1454L180.411 85.3536L178.597 86.1906L177.76 83.331Z" fill="#FFA412"/>
<path d="M175.738 87.3762L174.901 123.713L181.038 129.851L183.968 121.76L178.109 87.167L175.738 87.3762Z" fill="#FFA412"/>
<path d="M175.738 82.4244C176.156 82.3547 176.714 82.2849 177.202 82.1454C177.621 82.0757 178.109 82.2849 178.318 82.6337L179.086 84.0983C179.225 84.3075 179.225 84.5168 179.155 84.7957L178.876 86.3999C178.807 86.8183 178.458 87.0973 178.109 87.1671L176.366 87.5158C175.947 87.5855 175.459 87.3763 175.25 86.9578L174.343 85.2142C174.203 84.9352 174.203 84.6562 174.343 84.3773L174.971 82.9824C175.11 82.6337 175.389 82.4244 175.738 82.4244Z" fill="#FFA412"/>
<path d="M178.318 82.7731C178.318 82.7731 178.178 82.9823 177.83 83.331C177.551 83.6798 177.132 84.168 176.644 84.6562C176.156 85.1444 175.737 85.6326 175.389 85.9813C175.04 86.3301 174.831 86.5393 174.831 86.4695C174.831 86.4695 174.97 86.2603 175.319 85.9116C175.598 85.5629 176.016 85.0747 176.504 84.5864C176.993 84.0982 177.411 83.61 177.76 83.2613C178.109 82.9823 178.318 82.7731 178.318 82.7731Z" fill="#263238"/>
<path d="M176.505 84.447C176.505 84.447 176.087 84.168 175.668 83.7495C175.25 83.3311 174.901 82.9823 174.901 82.9126C174.901 82.9126 175.319 83.1916 175.738 83.61C176.226 84.0983 176.575 84.447 176.505 84.447Z" fill="#263238"/>
<path d="M178.597 86.8183C178.527 86.8183 178.806 85.8419 179.015 84.726C179.155 84.168 178.736 83.6798 178.597 83.3311C178.388 82.9823 178.388 82.7034 178.388 82.7034C178.388 82.7034 178.457 82.9126 178.667 83.2613C178.736 83.4008 178.876 83.61 179.015 83.8193C179.155 84.0285 179.225 84.3772 179.155 84.6562C179.015 85.2839 178.876 85.7721 178.806 86.1209C178.667 86.5393 178.597 86.8183 178.597 86.8183Z" fill="#263238"/>
<g opacity="0.3">
<g opacity="0.3">
<path opacity="0.3" d="M157.883 132.989C159.487 134.524 161.788 135.152 163.95 134.733C165.485 134.454 166.949 133.617 168.484 133.687C170.158 133.826 171.622 135.012 173.157 135.71C176.086 137.035 179.434 136.616 182.503 135.779C183.897 135.431 185.432 134.873 186.338 133.757C187.036 132.85 187.315 131.734 187.524 130.618C187.873 128.526 188.012 126.433 188.012 124.341C188.012 123.016 187.803 121.621 186.966 120.575C186.269 119.738 185.223 119.32 184.176 119.18C183.13 119.041 182.014 119.18 180.968 119.389C172.599 120.784 164.508 124.202 157.743 129.363" fill="black"/>
</g>
</g>
<path d="M172.877 126.085C172.877 126.085 153.349 134.803 151.326 135.291C144.7 136.756 137.168 130.479 139.26 123.434C140.028 120.784 150.559 91.5612 150.559 91.5612L160.532 105.371L156.278 119.529L167.367 118.762L172.877 126.085Z" fill="#E0E0E0"/>
<path d="M166.531 118.831C166.531 118.831 166.252 118.901 165.763 118.971C165.205 119.041 164.508 119.11 163.601 119.18C161.788 119.32 159.207 119.529 156.348 119.668H156.139L156.208 119.459C156.418 118.762 156.627 117.994 156.836 117.297C157.813 114.019 158.719 111.02 159.417 108.858C159.765 107.812 160.044 106.975 160.254 106.277C160.463 105.65 160.602 105.371 160.602 105.371C160.602 105.371 160.533 105.719 160.393 106.347C160.184 107.044 159.975 107.881 159.696 108.928C159.068 111.09 158.231 114.089 157.185 117.436C156.976 118.204 156.766 118.901 156.557 119.599L156.418 119.389C159.347 119.25 161.858 119.11 163.671 118.971C164.508 118.971 165.275 118.901 165.833 118.901C166.252 118.831 166.531 118.831 166.531 118.831Z" fill="#263238"/>
<path d="M170.715 127.201C170.785 127.27 166.461 129.153 161.16 131.316C155.86 133.478 151.466 135.221 151.466 135.151C151.396 135.082 155.72 133.199 161.021 131.037C166.321 128.805 170.645 127.131 170.715 127.201Z" fill="#263238"/>
<path d="M168.344 118.204L166.809 110.741C166.67 110.113 167.158 109.555 167.786 109.555L187.175 109.625C187.733 109.625 188.221 110.113 188.151 110.671L186.128 127.829C186.059 128.526 185.501 129.014 184.803 129.014L172.11 128.944C171.482 128.944 170.994 128.526 170.854 127.968L168.344 118.204Z" fill="#455A64"/>
<path d="M166.6 114.228C167.437 114.228 168.204 114.716 168.483 115.553C168.832 116.39 169.25 117.367 169.808 117.646C170.785 118.134 172.389 118.552 173.296 118.134C174.133 117.715 177.62 114.577 178.247 114.926C178.875 115.274 179.363 116.042 178.736 116.739C178.108 117.436 174.9 119.529 175.527 120.226C176.155 120.924 182.92 117.855 183.967 118.134C185.013 118.413 185.64 119.041 185.013 119.459C184.385 119.877 179.782 121.621 179.573 122.249C179.573 122.249 186.477 120.435 186.756 120.854C187.035 121.272 187.454 121.97 186.756 122.249C186.059 122.528 180.061 124.062 179.573 124.341C179.084 124.62 177.271 125.108 176.922 125.108C176.713 125.108 175.388 125.597 174.133 126.015C172.738 126.503 171.203 126.433 169.808 125.876L169.111 125.597C167.995 125.178 167.298 124.062 167.367 122.876L167.507 120.505L166.74 118.552L166.6 114.228Z" fill="#FFBE9D"/>
<path d="M178.317 112.415C178.317 112.833 177.969 113.112 177.62 113.112C177.201 113.112 176.922 112.764 176.922 112.415C176.922 111.996 177.271 111.717 177.62 111.717C177.969 111.717 178.317 112.066 178.317 112.415Z" fill="#FAFAFA"/>
<path d="M191.36 100.489H183.409V103.069H191.36V100.489Z" fill="#263238"/>
<path d="M164.508 148.473L156 148.264L156.418 145.683L164.787 146.032L164.508 148.473Z" fill="#455A64"/>
<path d="M187.943 148.403L166.67 148.264L167.019 145.892L187.873 145.962L187.943 148.403Z" fill="#455A64"/>
<path d="M175.109 145.753V148.543C175.109 149.031 175.388 149.379 175.807 149.379H181.665C182.084 149.379 182.363 149.031 182.363 148.543V145.753C182.363 145.265 182.084 144.916 181.665 144.916H175.807C175.458 144.986 175.109 145.334 175.109 145.753ZM181.456 148.403H176.016V146.032H181.456V148.403Z" fill="#FAFAFA"/>
<path d="M189.755 146.032V148.403L194.219 148.473L194.289 145.892L189.755 146.032Z" fill="#455A64"/>
<path d="M145.329 272.06C145.329 272.06 145.329 271.921 145.398 271.712C145.398 271.502 145.468 271.154 145.538 270.805C145.677 269.968 145.887 268.782 146.096 267.248C146.584 264.179 147.351 259.715 148.258 254.275C150.071 243.325 152.582 228.191 155.372 211.522C158.162 194.783 160.603 179.649 162.277 168.699C163.114 163.259 163.811 158.795 164.299 155.726C164.508 154.192 164.718 153.006 164.857 152.169C164.927 151.751 164.997 151.472 164.997 151.262C165.066 151.053 165.066 150.984 165.066 150.984C165.066 150.984 165.066 151.123 165.066 151.332C165.066 151.541 164.997 151.89 164.927 152.239C164.787 153.076 164.648 154.262 164.439 155.796C164.02 158.865 163.323 163.328 162.556 168.768C160.882 179.718 158.51 194.853 155.721 211.592C152.931 228.33 150.42 243.395 148.467 254.345C147.491 259.785 146.723 264.249 146.166 267.318C145.887 268.852 145.677 270.038 145.538 270.805C145.468 271.223 145.398 271.502 145.329 271.712C145.329 271.991 145.329 272.06 145.329 272.06Z" fill="#455A64"/>
<path d="M185.223 272.549C185.153 272.549 185.292 245.348 185.641 211.801C185.99 178.254 186.269 151.053 186.408 151.053C186.478 151.053 186.338 178.254 185.99 211.801C185.641 245.348 185.292 272.549 185.223 272.549Z" fill="#455A64"/>
<path d="M192.197 273.037C192.197 273.107 187.942 273.246 182.711 273.246C177.48 273.246 173.226 273.176 173.226 273.037C173.226 272.897 177.48 272.828 182.711 272.828C187.942 272.828 192.197 272.897 192.197 273.037Z" fill="#455A64"/>
<path d="M155.93 272.27C155.93 272.27 155.651 272.339 155.162 272.339C154.604 272.339 153.907 272.409 153.07 272.409C151.257 272.479 148.885 272.479 146.235 272.549C143.585 272.618 141.144 272.618 139.4 272.618C138.493 272.618 137.796 272.618 137.308 272.549C136.82 272.549 136.541 272.479 136.541 272.479C136.541 272.479 136.82 272.409 137.308 272.409C137.866 272.409 138.563 272.339 139.4 272.339C141.213 272.27 143.585 272.27 146.235 272.2C148.885 272.13 151.326 272.13 153.07 272.13C153.977 272.13 154.674 272.13 155.162 272.2C155.72 272.27 155.93 272.27 155.93 272.27Z" fill="#455A64"/>
<path d="M209.842 106.347C209.772 106.347 209.633 104.743 209.633 102.86C209.633 100.907 209.703 99.3724 209.842 99.3724C209.982 99.3724 210.051 100.977 210.051 102.86C210.051 104.743 209.982 106.347 209.842 106.347Z" fill="#263238"/>
<path d="M212.353 106.766C212.283 106.835 211.516 105.231 210.749 103.139C210.051 101.046 209.703 99.3029 209.772 99.3029C209.842 99.3029 210.4 100.977 211.098 102.999C211.795 105.092 212.423 106.696 212.353 106.766Z" fill="#263238"/>
</g>
<defs>
<clipPath id="clip0">
<rect width="408" height="300" rx="32" fill="white"/>
</clipPath>
</defs>
</svg>
