<svg width="407" height="300" viewBox="0 0 407 300" fill="none" xmlns="http://www.w3.org/2000/svg">
<g clip-path="url(#clip0)">
<path d="M407 273.627H-7V273.876H407V273.627Z" fill="#EBEBEB"/>
<path d="M63.8765 281.493H36.4697V281.742H63.8765V281.493Z" fill="#EBEBEB"/>
<path d="M180.542 279.258H134.671V279.506H180.542V279.258Z" fill="#EBEBEB"/>
<path d="M84.2453 286.461H68.3477V286.71H84.2453V286.461Z" fill="#EBEBEB"/>
<path d="M347.964 281.41H312.194V281.659H347.964V281.41Z" fill="#EBEBEB"/>
<path d="M360.549 281.41H355.333V281.659H360.549V281.41Z" fill="#EBEBEB"/>
<path d="M261.272 284.308H222.521V284.557H261.272V284.308Z" fill="#EBEBEB"/>
<path d="M189.236 236.698H29.3495C26.7827 236.698 24.6299 234.546 24.6299 231.979V7.25958C24.6299 4.69278 26.7827 2.53998 29.3495 2.53998H189.236C191.803 2.53998 193.956 4.69278 193.956 7.25958V231.979C193.956 234.546 191.886 236.698 189.236 236.698ZM29.3495 2.70558C26.8655 2.70558 24.7955 4.69278 24.7955 7.25958V231.979C24.7955 234.463 26.7827 236.533 29.3495 236.533H189.236C191.72 236.533 193.79 234.546 193.79 231.979V7.25958C193.79 4.77558 191.803 2.70558 189.236 2.70558H29.3495Z" fill="#EBEBEB"/>
<path d="M368.332 236.698H208.445C205.878 236.698 203.726 234.546 203.726 231.979V7.25958C203.726 4.69278 205.878 2.53998 208.445 2.53998H368.332C370.899 2.53998 373.052 4.69278 373.052 7.25958V231.979C373.052 234.546 370.982 236.698 368.332 236.698ZM208.445 2.70558C205.961 2.70558 203.891 4.69278 203.891 7.25958V231.979C203.891 234.463 205.878 236.533 208.445 236.533H368.332C370.816 236.533 372.886 234.546 372.886 231.979V7.25958C372.886 4.77558 370.899 2.70558 368.332 2.70558H208.445Z" fill="#EBEBEB"/>
<path d="M239.661 18.6032H79.7744V133.364H239.661V18.6032Z" fill="#64B9FF"/>
<path d="M230.553 133.364L189.815 18.6032H159.345L200 133.364H230.553Z" fill="#78BFF9"/>
<path d="M148.498 133.364L107.843 18.6032H96.665L137.32 133.364H148.498Z" fill="#78BFF9"/>
<path d="M72.1563 14.6288H247.196C247.61 14.6288 247.941 14.96 247.941 15.374C247.941 15.788 247.61 16.1192 247.196 16.1192H72.1563C71.7423 16.1192 71.4111 15.788 71.4111 15.374C71.4111 14.96 71.7423 14.6288 72.1563 14.6288Z" fill="#197BDD"/>
<path d="M160.67 18.3548H158.766V133.612H160.67V18.3548Z" fill="#407BFF"/>
<path d="M158.682 18.3548H157.771V133.612H158.682V18.3548Z" fill="#197BDD"/>
<path d="M78.6328 74.9913V76.8957L240.672 76.8957V74.9913L78.6328 74.9913Z" fill="#407BFF"/>
<path d="M78.6143 132.536V19.3484V17.444H80.5187H238.832H240.737V19.3484V132.536V134.44H238.832H80.5187H78.6143V132.536ZM238.832 132.536V19.3484H80.5187V132.536H238.832Z" fill="#407BFF"/>
<path d="M78.6149 17.5268H77.7041V134.523H78.6149V17.5268Z" fill="#197BDD"/>
<path opacity="0.5" d="M102.13 12.89V147.688H67.9336L74.2264 12.89H102.13Z" fill="#EBEBEB"/>
<path opacity="0.5" d="M216.312 12.89V147.688H250.508L244.215 12.89H216.312Z" fill="#EBEBEB"/>
<path d="M57.3353 163.834H44.2529V269.653H57.3353V163.834Z" fill="#64B9FF"/>
<path d="M190.477 269.653H46.7363V273.627H190.477V269.653Z" fill="#64B9FF"/>
<path d="M57.323 269.659H193.032V163.841H57.323V269.659Z" fill="#A7D2F5"/>
<path d="M55.9275 160.357H42.5967V163.834H55.9275V160.357Z" fill="#64B9FF"/>
<path d="M56.0385 163.84L194.729 163.84V160.363L56.0385 160.363V163.84Z" fill="#64B9FF"/>
<path d="M188.324 223.368H61.9717V171.038H188.324V223.368ZM62.8825 222.54H187.496V171.949H62.8825V222.54Z" fill="#407BFF"/>
<path d="M188.324 262.449H61.9717V228.667H188.324V262.449ZM62.8825 261.538H187.496V229.495H62.8825V261.538Z" fill="#407BFF"/>
<path d="M170.191 174.35H80.1875C79.5251 174.35 79.0283 173.853 79.0283 173.191V172.694C79.0283 172.032 79.5251 171.535 80.1875 171.535H170.191C170.854 171.535 171.35 172.032 171.35 172.694V173.191C171.35 173.77 170.771 174.35 170.191 174.35Z" fill="#407BFF"/>
<path d="M170.191 231.896H80.1875C79.5251 231.896 79.0283 231.399 79.0283 230.737V230.24C79.0283 229.578 79.5251 229.081 80.1875 229.081H170.191C170.854 229.081 171.35 229.578 171.35 230.24V230.737C171.35 231.316 170.771 231.896 170.191 231.896Z" fill="#407BFF"/>
<path d="M280.975 268.587H356.902V36.9954H280.975V268.587Z" fill="#A7D2F5"/>
<path d="M280.978 36.902H278.577V268.494H280.978V36.902Z" fill="#64B9FF"/>
<path d="M293.394 259.727H344.647V45.7722H293.394V259.727Z" fill="#64B9FF"/>
<path d="M200 310.97C288.669 310.97 360.55 306.781 360.55 301.614C360.55 296.446 288.669 292.257 200 292.257C111.331 292.257 39.4512 296.446 39.4512 301.614C39.4512 306.781 111.331 310.97 200 310.97Z" fill="#64B9FF"/>
<path d="M111.735 294.41L118.194 292.009L114.219 276.277L107.761 278.761L111.735 294.41Z" fill="#F5C9B2"/>
<path d="M62.9658 294.576H69.921L70.9974 278.512H64.0422L62.9658 294.576Z" fill="#F5C9B2"/>
<path d="M70.5833 293.748H62.1377C61.8893 293.748 61.6409 293.913 61.5581 294.244L60.4817 300.372C60.3989 301.034 60.8957 301.614 61.5581 301.614C64.2905 301.531 66.2777 301.448 69.6725 301.448C71.7425 301.448 78.1181 301.696 81.0161 301.696C83.8313 301.696 84.1625 298.798 82.9205 298.55C77.5385 297.391 73.3985 295.735 71.6597 294.244C71.4113 293.913 70.9973 293.748 70.5833 293.748Z" fill="#263238"/>
<path d="M117.862 291.264L110.741 293.913C110.493 293.996 110.327 294.244 110.327 294.576L111.238 300.786C111.321 301.448 111.983 301.862 112.646 301.614C115.212 300.62 117.365 299.295 120.594 298.136C124.403 296.811 128.129 295.321 131.193 293.416C133.594 291.926 132.6 289.028 131.441 289.442C126.308 291.512 125.066 292.174 119.601 291.181C119.021 291.015 118.442 291.015 117.862 291.264Z" fill="#263238"/>
<path d="M99.5627 83.27C101.715 87.1616 104.034 91.136 106.352 94.9448C108.671 98.8364 111.072 102.645 113.556 106.206C114.135 107.116 114.881 107.944 115.46 108.855C115.709 109.269 115.791 109.352 116.04 109.518C116.205 109.683 116.619 109.766 117.282 109.683C117.944 109.6 118.772 109.435 119.6 109.104C121.339 108.441 123.161 107.448 124.982 106.288C125.893 105.709 126.804 105.129 127.632 104.467C128.543 103.804 129.453 103.142 130.199 102.48L134.09 105.957C133.345 107.034 132.6 107.944 131.855 108.938C131.027 109.849 130.281 110.842 129.371 111.67C128.46 112.581 127.549 113.409 126.555 114.237C125.562 115.065 124.485 115.81 123.243 116.473C122.001 117.135 120.677 117.798 119.021 118.212C117.447 118.626 115.46 118.708 113.39 118.212C111.32 117.715 109.499 116.39 108.257 114.982C107.429 113.989 106.601 113.078 105.855 112.167C102.792 108.441 100.059 104.467 97.4927 100.575C94.9259 96.6008 92.6075 92.5436 90.2891 88.3208L99.5627 83.27Z" fill="#F5C9B2"/>
<path d="M87.2264 83.6012C85.322 89.9768 98.4872 107.282 98.4872 107.282L111.735 98.7536C111.735 98.7536 107.844 89.894 102.544 83.1872C97.1624 76.232 89.2964 76.5632 87.2264 83.6012Z" fill="#F6AC3B"/>
<path opacity="0.2" d="M87.2264 83.6012C85.322 89.9768 98.4872 107.282 98.4872 107.282L111.735 98.7536C111.735 98.7536 107.844 89.894 102.544 83.1872C97.1624 76.232 89.2964 76.5632 87.2264 83.6012Z" fill="#F6AC3B"/>
<path opacity="0.2" d="M95.3404 91.0532C98.0728 92.2124 102.047 98.7536 104.2 103.639L98.5696 107.282C98.5696 107.282 93.5188 100.575 90.124 94.034C91.8628 92.0468 93.9328 90.4736 95.3404 91.0532Z" fill="black"/>
<path d="M129.371 104.632L131.772 97.8428L138.645 101.155C138.645 101.155 137.237 107.199 132.186 107.199L129.371 104.632Z" fill="#F5C9B2"/>
<path d="M137.983 93.3716L140.881 96.6008L138.728 101.155L131.855 97.8428L137.983 93.3716Z" fill="#F5C9B2"/>
<path opacity="0.2" d="M114.219 276.277L116.289 284.391L109.748 286.875L107.761 278.761L114.219 276.277Z" fill="black"/>
<path opacity="0.2" d="M64.0425 278.512H70.9977L70.4181 286.792H63.4629L64.0425 278.512Z" fill="black"/>
<path d="M56.3418 80.786C63.7938 107.116 62.5518 135.103 63.0486 140.733C68.5134 140.568 88.965 139.74 100.143 139.326C106.436 100.078 95.0922 78.2192 95.0922 78.2192C95.0922 78.2192 92.691 77.7224 89.4618 77.3912C88.4682 77.3084 87.3918 77.2256 86.2326 77.1428C85.5702 77.1428 84.9906 77.06 84.3282 77.06C80.1054 76.9772 73.3158 77.6396 68.5962 78.2192C67.6026 78.302 66.609 78.4676 65.6154 78.6332C64.7046 78.7988 63.7938 78.9644 62.9658 79.13C59.2398 79.958 56.3418 80.786 56.3418 80.786Z" fill="#F6AC3B"/>
<path opacity="0.2" d="M56.3418 80.786C63.7938 107.116 62.5518 135.103 63.0486 140.733C68.5134 140.568 88.965 139.74 100.143 139.326C106.436 100.078 95.0922 78.2192 95.0922 78.2192C95.0922 78.2192 92.691 77.7224 89.4618 77.3912C88.4682 77.3084 87.3918 77.2256 86.2326 77.1428C85.5702 77.1428 84.9906 77.06 84.3282 77.06C80.1054 76.9772 73.3158 77.6396 68.5962 78.2192C67.6026 78.302 66.609 78.4676 65.6154 78.6332C64.7046 78.7988 63.7938 78.9644 62.9658 79.13C59.2398 79.958 56.3418 80.786 56.3418 80.786Z" fill="#F6AC3B"/>
<path opacity="0.2" d="M64.2072 92.0468C64.8696 94.6136 64.1244 106.206 61.4748 109.104C61.1436 105.378 60.6468 101.486 59.9844 97.5116L64.2072 92.0468Z" fill="black"/>
<path d="M68.8441 60.5C70.2517 65.468 71.9077 74.6588 68.5957 78.302C71.5765 80.8688 75.3853 83.684 81.4297 83.5184C87.4741 83.27 86.0665 79.2128 84.3277 77.1428C78.6145 76.232 78.4489 72.0092 79.1113 68.0348L68.8441 60.5Z" fill="#F5C9B2"/>
<path d="M81.5953 82.6075L82.6717 83.3528L78.6973 84.5119L79.6909 82.6903L81.5953 82.6075Z" fill="#407BFF"/>
<path d="M83.0859 82.1936L82.6719 83.3528L86.6463 84.512L86.3979 82.3592L83.0859 82.1936Z" fill="#407BFF"/>
<path d="M66.1949 77.888L67.7681 77.06C68.2649 76.8116 68.9273 76.8116 69.3413 77.2256C70.9973 78.4676 75.3857 81.3656 81.5129 82.6076C78.3665 84.098 79.1117 88.1552 79.1117 88.1552C79.1117 88.1552 69.0101 84.8432 65.7809 78.7988C65.6981 78.4676 65.8637 78.0536 66.1949 77.888Z" fill="#6F7B88"/>
<path d="M86.0665 76.8944L83.7481 76.5632C83.4997 76.5632 83.3341 76.8116 83.4169 77.06C84.2449 78.2192 85.5697 80.7032 83.0029 82.2764C86.1493 83.7668 87.1429 87.4928 87.1429 87.4928C87.1429 87.4928 91.2829 83.0216 86.4805 77.1428C86.4805 76.9772 86.3149 76.8944 86.0665 76.8944Z" fill="#6F7B88"/>
<path opacity="0.2" d="M73.0676 63.5636L79.112 68.0348C78.9464 68.9456 78.8636 69.9392 78.8636 70.85C76.7108 70.6844 73.5644 68.5316 73.1504 66.296C72.902 65.1368 72.902 64.0604 73.0676 63.5636Z" fill="black"/>
<path d="M86.4804 50.2328C86.232 52.634 83.9136 54.704 82.4232 55.2008L80.6016 44.6852C84.6588 41.7872 86.8116 46.838 86.4804 50.2328Z" fill="#263238"/>
<path d="M66.7745 53.1308C68.0165 59.9204 68.3477 63.8948 72.1565 67.0412C77.9525 71.678 85.9841 67.6208 86.8121 60.5828C87.5573 54.29 85.4873 44.2712 78.4493 42.284C71.6597 40.4624 65.5325 46.3412 66.7745 53.1308Z" fill="#F5C9B2"/>
<path d="M68.0165 57.6848C71.1629 59.3408 72.5705 55.6148 72.5705 54.1244C72.6533 51.7232 71.5769 49.0736 70.3349 48.08C76.3793 48.08 88.3853 47.7488 85.3217 42.0356C82.2581 36.2396 76.2137 36.902 71.6597 40.0484C69.2585 41.7044 61.4753 40.2968 63.3797 44.768C59.4053 46.9208 62.8829 54.9524 68.0165 57.6848Z" fill="#263238"/>
<path d="M64.1244 44.354C64.1244 44.354 62.7996 44.4368 61.1436 43.3604C61.6404 45.5132 63.7932 45.5132 63.7932 45.5132L64.1244 44.354Z" fill="#263238"/>
<path d="M64.2072 58.6784C65.0352 60.3344 66.5256 61.4936 68.016 61.9076C70.1688 62.6528 70.6656 60.5828 70.1688 58.5128C69.672 56.6084 68.6784 54.0416 66.4428 54.2072C64.2072 54.5384 63.2964 56.774 64.2072 58.6784Z" fill="#F5C9B2"/>
<path d="M108.174 212.686C105.359 191.738 100.06 139.408 100.06 139.408L75.7168 140.319C75.7168 140.319 87.226 192.649 91.366 213.846C95.506 235.042 107.098 286.213 107.098 286.213L118.11 282.073C118.11 281.99 111.155 234.463 108.174 212.686Z" fill="#6F7B88"/>
<path opacity="0.2" d="M84.8244 154.395C83.334 154.809 80.9328 155.72 79.4424 157.128C81.7608 167.726 84.7416 181.636 87.3084 193.891C89.13 183.292 89.13 163.172 84.8244 154.395Z" fill="black"/>
<path d="M86.978 139.822C86.978 139.822 81.8444 196.623 79.4432 216.744C76.8764 238.851 73.6472 285.136 73.6472 285.136H60.896C60.896 285.136 60.3992 244.15 62.0552 222.54C63.9596 197.865 63.0488 140.65 63.0488 140.65L86.978 139.822Z" fill="#6F7B88"/>
<path d="M75.3026 285.468H60.3158L60.0674 280.996L76.7102 280.665L75.3026 285.468Z" fill="#F6AC3B"/>
<path d="M119.601 281.742L106.519 286.627L104.945 282.404L119.435 276.691L119.601 281.742Z" fill="#F6AC3B"/>
<path d="M77.3723 53.876C77.4551 54.4556 77.7863 54.8696 78.1175 54.7868C78.4487 54.704 78.6971 54.29 78.6971 53.7104C78.6143 53.1308 78.2831 52.7168 77.9519 52.7996C77.5379 52.7996 77.2895 53.2964 77.3723 53.876Z" fill="#263238"/>
<path d="M83.583 53.1308C83.6658 53.7104 83.997 54.1244 84.3282 54.0416C84.6594 53.9588 84.9078 53.5448 84.9078 52.9652C84.825 52.3856 84.4938 51.9716 84.1626 52.0544C83.8314 52.1372 83.583 52.5512 83.583 53.1308Z" fill="#263238"/>
<path d="M81.6787 53.6276C81.6787 53.6276 83.3347 56.6912 84.9079 58.0988C83.9971 59.0924 82.3411 58.9268 82.3411 58.9268L81.6787 53.6276Z" fill="#F0B89A"/>
<path d="M80.1055 60.6656C77.9527 60.6656 76.7935 59.258 76.7935 59.1752C76.7107 59.0924 76.7107 59.0096 76.7935 58.9268C76.8763 58.844 76.9591 58.844 77.0419 58.9268C77.0419 58.9268 78.3667 60.5 80.8507 60.2516C80.9335 60.2516 81.0163 60.3344 81.0163 60.4172C81.0163 60.5 80.9335 60.5828 80.8507 60.5828C80.5195 60.6656 80.3539 60.6656 80.1055 60.6656Z" fill="#263238"/>
<path d="M75.1375 52.0544C75.0547 52.0544 75.0547 52.0544 74.9719 51.9716C74.8063 51.8888 74.7235 51.6404 74.8891 51.5576C75.7999 49.9844 77.2903 49.9016 77.3731 49.9016C77.5387 49.9016 77.7043 50.0672 77.7043 50.2328C77.7043 50.3984 77.5387 50.564 77.3731 50.564C77.2903 50.564 76.1311 50.6468 75.3859 51.8888C75.3859 51.9716 75.3031 52.0544 75.1375 52.0544Z" fill="#263238"/>
<path d="M86.0668 50.6468C85.984 50.6468 85.8184 50.564 85.8184 50.4812C85.0732 49.2392 83.8312 49.2392 83.8312 49.2392C83.6656 49.2392 83.5 49.0736 83.5 48.908C83.5 48.7424 83.6656 48.5768 83.8312 48.5768C83.914 48.5768 85.4044 48.5768 86.398 50.15C86.4808 50.3156 86.4808 50.4812 86.3152 50.564C86.2324 50.6468 86.1496 50.6468 86.0668 50.6468Z" fill="#263238"/>
<path d="M72.9843 294.99C72.3219 294.99 71.6595 294.824 71.1627 294.741C71.0799 294.741 71.0799 294.658 70.9971 294.576C70.9971 294.493 70.9971 294.41 71.0799 294.41C71.3283 294.244 73.4811 292.837 74.3091 293.251C74.3919 293.334 74.5575 293.416 74.6403 293.748C74.6403 294.079 74.5575 294.41 74.3091 294.576C73.9779 294.907 73.4811 294.99 72.9843 294.99ZM71.5767 294.493C72.7359 294.741 73.6467 294.658 74.0607 294.327C74.2263 294.162 74.3091 293.996 74.2263 293.748C74.2263 293.582 74.1435 293.582 74.1435 293.582C73.7295 293.334 72.4875 293.996 71.5767 294.493Z" fill="#407BFF"/>
<path d="M71.1627 294.741H71.0799C70.9971 294.741 70.9971 294.658 70.9971 294.576C70.9971 294.493 71.0799 292.506 71.8251 291.843C71.9907 291.678 72.2391 291.595 72.4875 291.595C72.9015 291.678 72.9843 291.926 73.0671 292.009C73.2327 292.837 71.9907 294.327 71.1627 294.741C71.2455 294.741 71.2455 294.741 71.1627 294.741ZM72.4047 291.926C72.2391 291.926 72.1563 292.009 72.0735 292.092C71.5767 292.506 71.4111 293.665 71.3283 294.244C71.9907 293.665 72.8187 292.588 72.7359 292.092C72.7359 292.009 72.7359 291.926 72.4047 291.926C72.4875 291.926 72.4875 291.926 72.4047 291.926Z" fill="#407BFF"/>
<path d="M118.855 291.926C118.772 291.926 118.772 291.926 118.689 291.843C118.689 291.76 118.689 291.678 118.689 291.678C118.938 291.429 121.008 289.111 122.001 289.276C122.167 289.276 122.333 289.442 122.415 289.608C122.581 289.939 122.581 290.187 122.415 290.436C121.919 291.264 120.014 291.678 118.855 291.926ZM121.919 289.525C121.339 289.525 120.18 290.601 119.352 291.512C120.842 291.181 121.919 290.767 122.167 290.27C122.25 290.104 122.25 289.939 122.167 289.69C122.084 289.525 122.001 289.525 121.919 289.525Z" fill="#407BFF"/>
<path d="M118.856 291.926C118.773 291.926 118.773 291.926 118.856 291.926C118.773 291.926 118.69 291.843 118.69 291.843C118.69 291.76 118.194 289.939 118.773 288.945C118.939 288.614 119.187 288.448 119.518 288.366C119.932 288.283 120.181 288.448 120.264 288.614C120.678 289.276 119.601 291.264 119.022 291.926C118.939 291.843 118.856 291.926 118.856 291.926ZM119.767 288.614C119.684 288.614 119.684 288.614 119.601 288.614C119.353 288.697 119.187 288.78 119.022 289.028C118.608 289.69 118.773 290.85 118.939 291.346C119.518 290.601 120.181 289.028 119.932 288.614C119.932 288.697 119.85 288.614 119.767 288.614Z" fill="#407BFF"/>
<path d="M63.9592 90.5563C61.8892 94.8619 59.7364 99.2504 57.6664 103.639C56.6728 105.792 55.5964 108.027 54.6856 110.18L53.278 113.492L52.6156 115.148L52.45 115.562L52.3672 115.893C52.2844 116.059 52.2016 116.307 52.1188 116.473C51.622 118.046 51.4564 119.702 51.8704 121.524C52.2016 123.345 52.9468 125.167 54.0232 127.071C55.0996 128.893 56.4244 130.714 57.9976 132.37C58.7428 133.198 59.5708 134.109 60.3988 134.854C60.8128 135.268 61.2268 135.682 61.6408 136.014C62.0548 136.428 62.5516 136.842 62.8828 137.09L60.1504 141.478C58.8256 140.816 57.832 140.154 56.6728 139.408C55.5964 138.663 54.52 137.918 53.4436 137.09C51.3736 135.434 49.3864 133.53 47.6476 131.294C45.9088 129.058 44.4184 126.492 43.4248 123.511C42.514 120.53 42.2656 117.135 43.0108 113.906C43.0936 113.492 43.1764 113.078 43.342 112.747L43.6732 111.753L44.2528 109.932C44.6668 108.69 45.0808 107.53 45.4948 106.371C46.3228 103.97 47.2336 101.652 48.2272 99.3331C50.1316 94.6963 52.2844 90.2251 54.6028 85.6711L63.9592 90.5563Z" fill="#F5C9B2"/>
<path d="M56.3415 80.786C50.0487 82.7732 43.7559 104.218 43.7559 104.218L58.4115 110.594C58.4115 110.594 63.1311 100.244 65.8635 92.1296C68.8443 83.27 64.0419 78.3848 56.3415 80.786Z" fill="#F6AC3B"/>
<path opacity="0.2" d="M56.3415 80.786C50.0487 82.7732 43.7559 104.218 43.7559 104.218L58.4115 110.594C58.4115 110.594 63.1311 100.244 65.8635 92.1296C68.8443 83.27 64.0419 78.3848 56.3415 80.786Z" fill="#F6AC3B"/>
<path d="M61.3097 135.765L67.3541 139.326L61.4753 145.204C61.4753 145.204 56.3417 141.23 57.9149 138.166L61.3097 135.765Z" fill="#F5C9B2"/>
<path d="M71.4106 145.122L65.2834 149.344L61.4746 145.204L67.3534 139.408L71.4106 145.122Z" fill="#F5C9B2"/>
<path d="M364.276 134.258L363.989 138.222L364.815 138.282L365.102 134.318L364.276 134.258Z" fill="#407BFF"/>
<path d="M365.33 119.13L364.492 130.692L365.318 130.752L366.156 119.19L365.33 119.13Z" fill="#407BFF"/>
<path d="M342.664 249.284H139.887C133.677 249.284 128.957 244.233 129.454 238.023L140.218 88.3208C140.632 82.1108 146.097 77.06 152.307 77.06H355.084C361.294 77.06 366.013 82.1108 365.517 88.3208L354.753 238.023C354.339 244.15 348.874 249.284 342.664 249.284Z" fill="#407BFF"/>
<path d="M295.468 301.614H229.642L217.967 220.304H283.793L295.468 301.614Z" fill="#407BFF"/>
<path d="M285.036 296.811H213.828L212.42 301.614H283.628L285.036 296.811Z" fill="#407BFF"/>
<path d="M287.27 259.468L223.1 255.991L217.967 220.304H281.64L287.27 259.468Z" fill="#263238"/>
<path d="M340.428 249.284H137.568C131.358 249.284 126.639 244.233 127.136 238.023L137.9 88.3208C138.314 82.1108 143.778 77.06 149.988 77.06H352.766C358.975 77.06 363.695 82.1108 363.198 88.3208L352.434 238.023C352.02 244.15 346.556 249.284 340.428 249.284Z" fill="#263238"/>
<path d="M362.678 89.707L356.514 175.595L357.34 175.654L363.504 89.7663L362.678 89.707Z" fill="white"/>
<path d="M356.038 183.101L353.907 212.831L354.733 212.891L356.864 183.16L356.038 183.101Z" fill="white"/>
<path d="M339.931 246.469H138.396C133.593 246.469 129.867 242.494 130.281 237.692L140.963 88.5692C141.294 83.7668 145.517 79.7924 150.402 79.7924H351.937C356.739 79.7924 360.465 83.7668 360.051 88.5692L349.37 237.692C349.039 242.494 344.816 246.469 339.931 246.469Z" fill="#A3D6FF"/>
<path opacity="0.2" d="M339.931 246.469H138.396C133.593 246.469 129.867 242.494 130.281 237.692L140.963 88.5692C141.294 83.7668 145.517 79.7924 150.402 79.7924H351.937C356.739 79.7924 360.465 83.7668 360.051 88.5692L349.37 237.692C349.039 242.494 344.816 246.469 339.931 246.469Z" fill="#407BFF"/>
<path opacity="0.5" d="M190.146 239.845H143.116C140.797 239.845 138.976 237.94 139.141 235.622L149.491 90.722C149.657 88.4036 151.727 86.4992 154.045 86.4992H201.076C203.394 86.4992 205.216 88.4036 205.05 90.722L194.7 235.622C194.452 237.94 192.465 239.845 190.146 239.845Z" fill="#A3D6FF"/>
<path opacity="0.4" d="M188.324 106.868H163.981C161.911 106.868 160.255 105.129 160.421 103.059L160.669 99.3332C160.835 97.2632 162.656 95.5244 164.726 95.5244H189.069C191.139 95.5244 192.795 97.2632 192.63 99.3332L192.381 103.059C192.216 105.129 190.394 106.868 188.324 106.868Z" fill="#407BFF"/>
<path d="M172.841 165.49H135.664C132.021 165.49 129.205 162.51 129.454 158.866L132.103 121.689C132.352 118.046 135.581 115.065 139.224 115.065H176.401C180.045 115.065 182.86 118.046 182.611 121.689L179.962 158.866C179.713 162.51 176.484 165.49 172.841 165.49Z" fill="#407BFF"/>
<path d="M178.14 135.02C176.733 135.02 175.491 136.179 175.408 137.587L174.994 142.969C174.911 144.376 175.987 145.536 177.312 145.536H181.121C181.452 145.536 181.783 145.287 181.783 144.873L182.446 135.682C182.446 135.351 182.197 135.02 181.866 135.02H178.14Z" fill="white"/>
<path d="M163.816 124.422H140.383C139.804 124.422 139.39 123.925 139.472 123.428C139.472 122.848 139.969 122.434 140.549 122.434H163.981C164.561 122.434 164.975 122.931 164.892 123.428C164.809 124.008 164.312 124.422 163.816 124.422Z" fill="white"/>
<path d="M163.402 129.638H139.969C139.39 129.638 138.976 129.141 139.058 128.644C139.058 128.065 139.555 127.651 140.135 127.651H163.567C164.147 127.651 164.561 128.148 164.478 128.644C164.478 129.141 163.981 129.638 163.402 129.638Z" fill="white"/>
<path d="M154.956 134.772H139.638C139.059 134.772 138.645 134.275 138.727 133.778C138.727 133.198 139.224 132.784 139.804 132.784H155.122C155.701 132.784 156.115 133.281 156.033 133.778C156.033 134.358 155.536 134.772 154.956 134.772Z" fill="white"/>
<path opacity="0.5" d="M163.815 159.446H141.128C138.727 159.446 136.905 157.459 137.071 155.058L137.899 143.134C138.065 140.733 140.135 138.746 142.536 138.746H165.223C167.624 138.746 169.446 140.733 169.28 143.134L168.452 155.058C168.369 157.542 166.217 159.446 163.815 159.446Z" fill="white"/>
<path opacity="0.4" d="M185.013 179.401H156.778C155.702 179.401 154.957 178.573 155.039 177.496C155.122 176.42 156.033 175.592 157.027 175.592H185.261C186.338 175.592 187.083 176.42 187 177.496C187 178.573 186.089 179.401 185.013 179.401Z" fill="#407BFF"/>
<path opacity="0.8" d="M179.3 186.853H161.415C160.339 186.853 159.593 186.025 159.676 184.948C159.759 183.872 160.67 183.044 161.663 183.044H179.548C180.625 183.044 181.37 183.872 181.287 184.948C181.287 185.942 180.376 186.853 179.3 186.853Z" fill="white"/>
<path opacity="0.4" d="M183.522 199.852H155.287C154.211 199.852 153.465 199.024 153.548 197.948C153.631 196.872 154.542 196.044 155.535 196.044H183.77C184.847 196.044 185.592 196.872 185.509 197.948C185.509 199.024 184.598 199.852 183.522 199.852Z" fill="#407BFF"/>
<path opacity="0.8" d="M177.892 207.304H160.007C158.93 207.304 158.185 206.476 158.268 205.4C158.351 204.324 159.262 203.496 160.255 203.496H178.14C179.216 203.496 179.962 204.324 179.879 205.4C179.796 206.394 178.885 207.304 177.892 207.304Z" fill="white"/>
<path opacity="0.4" d="M182.115 220.304H153.88C152.803 220.304 152.058 219.476 152.141 218.4C152.224 217.323 153.135 216.495 154.128 216.495H182.363C183.439 216.495 184.185 217.323 184.102 218.4C184.019 219.476 183.108 220.304 182.115 220.304Z" fill="#407BFF"/>
<path opacity="0.8" d="M176.401 227.673H158.517C157.44 227.673 156.695 226.845 156.778 225.769C156.861 224.692 157.771 223.864 158.765 223.864H176.65C177.726 223.864 178.471 224.692 178.389 225.769C178.389 226.845 177.478 227.673 176.401 227.673Z" fill="white"/>
<path opacity="0.5" d="M342.167 197.368C343.409 195.464 346.224 196.292 346.058 198.445L343.326 236.367C343.16 238.354 341.753 239.928 340.014 239.928H203.559C201.903 239.928 200.661 238.354 200.744 236.367L202.317 213.846C202.566 210.782 205.629 208.629 208.445 209.54C216.145 211.941 222.769 210.534 228.813 207.47C241.896 200.929 252.908 187.018 267.978 187.018C268.557 187.018 269.137 187.018 269.717 187.101C292.155 188.426 298.945 216.247 316.333 216.247C321.467 216.247 326.186 214.011 330.243 210.865C335.211 206.973 339.269 201.674 342.167 197.368Z" fill="#407BFF"/>
<path opacity="0.5" d="M344.982 212.935L343.326 236.284C343.16 238.272 341.753 239.845 340.014 239.845H203.559C201.903 239.845 200.661 238.272 200.744 236.284L204.056 189.834C204.305 186.687 208.445 185.28 210.101 187.929C214.489 194.553 221.196 203.164 228.896 207.387C231.877 209.043 234.941 210.037 238.087 210.037C249.099 210.037 258.456 196.954 269.717 187.018C276.589 180.891 284.124 176.006 293.149 176.006C312.027 176.006 314.76 206.642 330.161 210.865C333.141 211.693 336.536 211.527 340.676 209.954C342.912 209.043 345.147 210.616 344.982 212.935Z" fill="#407BFF"/>
<g opacity="0.8">
<path opacity="0.8" d="M345.645 203.91C345.562 203.91 345.479 203.91 345.479 203.827L345.396 203.744V203.661C345.396 203.578 345.396 203.496 345.479 203.496C345.562 203.413 345.728 203.413 345.893 203.496C345.976 203.578 345.976 203.661 345.976 203.661V203.744C345.976 203.744 345.976 203.827 345.893 203.827C345.81 203.827 345.728 203.91 345.645 203.91Z" fill="white"/>
<path opacity="0.8" d="M212.916 223.285C212.751 223.285 212.668 223.202 212.668 223.036C212.668 222.871 212.834 222.788 212.916 222.788C213.082 222.788 213.165 222.954 213.165 223.036C213.248 223.202 213.082 223.285 212.916 223.285ZM210.101 223.119C209.936 223.119 209.853 222.954 209.853 222.788C209.853 222.622 210.018 222.54 210.184 222.54C210.35 222.54 210.432 222.705 210.432 222.871C210.432 223.036 210.267 223.119 210.101 223.119ZM215.483 222.871C215.483 222.705 215.566 222.54 215.732 222.54C215.897 222.54 216.063 222.622 216.063 222.788C216.063 222.954 215.98 223.119 215.814 223.119C215.566 223.119 215.483 223.036 215.483 222.871ZM207.286 222.705C207.12 222.705 207.038 222.54 207.038 222.374C207.038 222.208 207.203 222.126 207.369 222.126C207.534 222.126 207.617 222.291 207.617 222.457C207.617 222.622 207.534 222.705 207.286 222.705C207.369 222.705 207.286 222.705 207.286 222.705ZM218.216 222.457C218.216 222.291 218.298 222.126 218.464 222.126C218.63 222.126 218.795 222.208 218.795 222.374C218.795 222.54 218.712 222.705 218.547 222.705H218.464C218.381 222.622 218.216 222.54 218.216 222.457ZM308.799 222.54C308.633 222.54 308.55 222.374 308.55 222.291C308.55 222.126 308.716 222.043 308.799 222.043C308.964 222.043 309.047 222.208 309.047 222.291C309.047 222.374 308.964 222.54 308.799 222.54ZM311.283 222.126C311.283 221.96 311.366 221.794 311.531 221.794C311.697 221.794 311.862 221.877 311.862 222.043C311.862 222.208 311.78 222.374 311.614 222.374C311.448 222.374 311.366 222.291 311.283 222.126ZM305.984 222.374C305.818 222.374 305.735 222.208 305.735 222.043C305.735 221.877 305.901 221.794 306.066 221.794C306.232 221.794 306.315 221.96 306.315 222.126C306.232 222.291 306.149 222.374 305.984 222.374ZM204.554 222.043C204.388 221.96 204.305 221.877 204.388 221.712C204.471 221.546 204.554 221.463 204.719 221.546C204.885 221.629 204.968 221.712 204.885 221.877C204.885 221.96 204.802 222.043 204.554 222.043C204.636 222.043 204.554 222.043 204.554 222.043ZM314.098 221.794C314.098 221.629 314.181 221.463 314.346 221.463C314.512 221.463 314.678 221.546 314.678 221.712C314.678 221.877 314.595 222.043 314.429 222.043C314.429 222.043 314.429 222.043 314.346 222.043C314.264 221.96 314.098 221.877 314.098 221.794ZM303.168 221.877C303.003 221.877 302.92 221.712 302.92 221.546C302.92 221.38 303.086 221.298 303.251 221.298C303.417 221.298 303.5 221.463 303.5 221.629C303.5 221.794 303.334 221.877 303.168 221.877C303.251 221.877 303.168 221.877 303.168 221.877ZM220.948 221.629C220.865 221.463 220.948 221.298 221.114 221.298C221.279 221.215 221.445 221.298 221.445 221.463C221.528 221.629 221.445 221.794 221.279 221.794H221.196C221.031 221.794 220.948 221.712 220.948 221.629ZM316.83 221.132C316.83 220.966 316.913 220.801 316.996 220.801C317.162 220.801 317.327 220.884 317.327 220.966C317.327 221.132 317.244 221.298 317.162 221.298H317.079C316.996 221.38 316.83 221.215 316.83 221.132ZM300.436 221.049C300.27 220.966 300.188 220.801 300.27 220.718C300.353 220.552 300.519 220.47 300.602 220.552C300.767 220.635 300.85 220.801 300.767 220.884C300.767 220.966 300.602 221.049 300.519 221.049C300.519 221.049 300.519 221.049 300.436 221.049ZM223.515 220.47C223.432 220.304 223.515 220.138 223.598 220.056C223.763 219.973 223.929 220.056 224.012 220.221C224.094 220.387 224.012 220.552 223.929 220.635C223.929 220.635 223.846 220.635 223.763 220.635C223.598 220.635 223.515 220.635 223.515 220.47ZM319.563 220.304C319.48 220.138 319.563 219.973 319.728 219.973C319.894 219.89 320.06 219.973 320.06 220.138C320.142 220.304 320.06 220.47 319.894 220.47H319.811C319.646 220.47 319.563 220.387 319.563 220.304ZM297.869 219.973C297.704 219.89 297.621 219.724 297.704 219.559C297.786 219.393 297.952 219.393 298.118 219.393C298.283 219.476 298.366 219.642 298.283 219.807C298.2 219.89 298.118 219.973 298.035 219.973C297.952 219.973 297.869 219.973 297.869 219.973ZM322.13 219.31C322.047 219.145 322.13 218.979 322.295 218.979C322.461 218.896 322.626 218.979 322.626 219.145C322.709 219.31 322.626 219.476 322.461 219.559H322.378C322.295 219.476 322.212 219.393 322.13 219.31ZM225.916 219.145C225.833 218.979 225.916 218.814 225.999 218.731C226.164 218.648 226.33 218.648 226.413 218.814C226.496 218.979 226.413 219.145 226.33 219.228C226.33 219.228 226.247 219.31 226.164 219.31C226.082 219.31 225.999 219.228 225.916 219.145ZM295.302 218.648C295.137 218.565 295.137 218.4 295.22 218.234C295.302 218.068 295.468 218.068 295.634 218.151C295.799 218.234 295.799 218.4 295.716 218.565C295.634 218.648 295.551 218.731 295.468 218.731C295.385 218.731 295.385 218.731 295.302 218.648ZM324.696 218.151C324.614 217.986 324.696 217.82 324.862 217.737C325.028 217.654 325.193 217.737 325.276 217.903C325.359 218.068 325.276 218.234 325.11 218.317H325.028C324.862 218.317 324.779 218.317 324.696 218.151ZM228.234 217.572C228.152 217.406 228.152 217.24 228.317 217.158C228.483 217.075 228.648 217.075 228.731 217.24C228.814 217.406 228.814 217.572 228.648 217.654C228.566 217.654 228.566 217.737 228.483 217.737C228.4 217.737 228.317 217.654 228.234 217.572ZM292.901 217.24C292.736 217.158 292.736 216.992 292.818 216.826C292.901 216.661 293.067 216.661 293.232 216.744C293.398 216.826 293.398 216.992 293.315 217.158C293.232 217.24 293.15 217.323 293.067 217.323C292.984 217.323 292.901 217.323 292.901 217.24ZM327.263 216.909C327.18 216.744 327.263 216.578 327.346 216.495C327.512 216.412 327.677 216.495 327.76 216.578C327.843 216.744 327.76 216.909 327.677 216.992C327.677 216.992 327.594 216.992 327.512 216.992C327.429 217.075 327.263 216.992 327.263 216.909ZM230.553 215.916C230.47 215.75 230.47 215.584 230.553 215.502C230.636 215.419 230.884 215.419 230.967 215.584C231.05 215.667 231.05 215.916 230.967 215.998C230.884 215.998 230.884 216.081 230.801 216.081C230.636 215.998 230.553 215.998 230.553 215.916ZM290.5 215.75C290.334 215.667 290.334 215.502 290.417 215.336C290.5 215.17 290.666 215.17 290.831 215.253C290.914 215.336 290.997 215.502 290.914 215.667C290.831 215.75 290.748 215.833 290.666 215.833C290.583 215.833 290.5 215.75 290.5 215.75ZM329.664 215.584C329.582 215.419 329.664 215.253 329.747 215.17C329.913 215.088 330.078 215.17 330.161 215.253C330.244 215.419 330.161 215.584 330.078 215.667C329.996 215.667 329.996 215.667 329.913 215.667C329.83 215.667 329.747 215.667 329.664 215.584ZM288.182 214.177C288.016 214.094 288.016 213.928 288.099 213.763C288.182 213.68 288.347 213.597 288.513 213.68C288.678 213.763 288.678 213.928 288.596 214.094C288.513 214.177 288.43 214.177 288.347 214.177C288.264 214.26 288.182 214.26 288.182 214.177ZM332.066 214.094C331.983 213.928 332.066 213.763 332.148 213.68C332.314 213.597 332.48 213.68 332.562 213.763C332.645 213.928 332.562 214.094 332.48 214.177C332.48 214.177 332.397 214.26 332.314 214.26C332.231 214.26 332.148 214.177 332.066 214.094ZM232.706 214.094C232.623 214.011 232.623 213.763 232.706 213.68C232.788 213.597 233.037 213.597 233.12 213.68C233.202 213.846 233.202 214.011 233.037 214.094C232.954 214.177 232.954 214.177 232.871 214.177C232.871 214.177 232.788 214.177 232.706 214.094ZM334.467 212.521C334.384 212.355 334.384 212.19 334.55 212.107C334.715 212.024 334.881 212.024 334.964 212.19C335.046 212.355 335.046 212.521 334.881 212.604C334.798 212.604 334.798 212.686 334.715 212.686C334.632 212.686 334.55 212.604 334.467 212.521ZM285.78 212.604C285.615 212.521 285.615 212.355 285.698 212.19C285.78 212.024 285.946 212.024 286.112 212.107C286.277 212.19 286.277 212.355 286.194 212.521C286.112 212.604 286.029 212.686 285.946 212.686C285.946 212.686 285.863 212.686 285.78 212.604ZM234.858 212.272C234.776 212.19 234.776 211.941 234.858 211.858C234.941 211.776 235.19 211.776 235.272 211.858C235.355 211.941 235.355 212.19 235.272 212.272C235.19 212.355 235.19 212.355 235.107 212.355C235.024 212.438 234.941 212.355 234.858 212.272ZM283.462 211.03C283.296 210.948 283.296 210.782 283.379 210.616C283.462 210.451 283.628 210.451 283.793 210.534C283.959 210.616 283.959 210.782 283.876 210.948C283.793 211.03 283.71 211.03 283.628 211.03C283.628 211.113 283.545 211.113 283.462 211.03ZM336.785 210.948C336.702 210.865 336.702 210.616 336.868 210.534C336.951 210.451 337.199 210.451 337.282 210.616C337.365 210.699 337.365 210.948 337.199 211.03C337.116 211.03 337.116 211.113 337.034 211.113C336.868 211.03 336.785 211.03 336.785 210.948ZM237.011 210.534C236.928 210.451 236.928 210.202 237.011 210.12C237.177 210.037 237.342 210.037 237.425 210.12C237.508 210.202 237.508 210.451 237.425 210.534C237.342 210.616 237.342 210.616 237.26 210.616C237.177 210.616 237.094 210.616 237.011 210.534ZM281.144 209.54C280.978 209.457 280.978 209.292 281.061 209.126C281.144 208.96 281.309 208.96 281.475 209.043C281.64 209.126 281.64 209.292 281.558 209.457C281.475 209.54 281.392 209.623 281.309 209.623C281.226 209.623 281.144 209.623 281.144 209.54ZM339.021 209.292C338.938 209.126 338.938 208.96 339.104 208.878C339.186 208.795 339.435 208.795 339.518 208.96C339.6 209.043 339.6 209.292 339.435 209.374C339.352 209.374 339.352 209.457 339.269 209.457C339.186 209.374 339.104 209.292 339.021 209.292ZM239.247 208.795C239.164 208.629 239.164 208.464 239.33 208.381C239.412 208.298 239.661 208.298 239.744 208.464C239.826 208.546 239.826 208.795 239.661 208.878C239.578 208.878 239.578 208.96 239.495 208.96C239.33 208.878 239.33 208.878 239.247 208.795ZM278.742 208.132C278.577 208.05 278.577 207.884 278.66 207.718C278.742 207.553 278.908 207.553 279.074 207.636C279.239 207.718 279.239 207.884 279.156 208.05C279.074 208.132 278.991 208.215 278.908 208.215C278.825 208.132 278.742 208.132 278.742 208.132ZM341.174 207.47C341.091 207.387 341.091 207.139 341.174 207.056C341.339 206.973 341.505 206.973 341.588 207.056C341.67 207.139 341.67 207.387 341.588 207.47C341.505 207.47 341.422 207.553 341.422 207.553C341.339 207.636 341.256 207.553 341.174 207.47ZM241.482 207.139C241.4 206.973 241.4 206.808 241.565 206.725C241.731 206.642 241.896 206.642 241.979 206.808C242.062 206.973 242.062 207.139 241.896 207.222C241.814 207.222 241.814 207.304 241.731 207.304C241.648 207.304 241.565 207.222 241.482 207.139ZM276.258 206.808C276.093 206.725 276.093 206.559 276.176 206.394C276.258 206.228 276.424 206.228 276.59 206.228C276.755 206.311 276.755 206.476 276.672 206.642C276.59 206.725 276.507 206.808 276.424 206.808C276.341 206.808 276.258 206.808 276.258 206.808ZM343.326 205.648C343.244 205.566 343.244 205.317 343.326 205.234C343.409 205.152 343.658 205.152 343.74 205.234C343.823 205.317 343.823 205.566 343.74 205.648C343.658 205.731 343.658 205.731 343.575 205.731C343.492 205.814 343.409 205.731 343.326 205.648ZM243.884 205.648C243.801 205.483 243.884 205.317 243.966 205.234C244.132 205.152 244.298 205.234 244.38 205.317C244.463 205.483 244.38 205.648 244.298 205.731C244.215 205.731 244.215 205.731 244.132 205.731C244.049 205.814 243.966 205.731 243.884 205.648ZM273.774 205.566C273.609 205.483 273.526 205.317 273.609 205.152C273.692 204.986 273.857 204.903 274.023 204.986C274.188 205.069 274.271 205.234 274.188 205.4C274.188 205.483 274.023 205.566 273.94 205.566C273.774 205.648 273.774 205.648 273.774 205.566ZM271.125 204.572C270.959 204.489 270.876 204.324 270.959 204.241C271.042 204.075 271.208 203.992 271.29 204.075C271.456 204.158 271.539 204.324 271.456 204.406C271.456 204.489 271.29 204.572 271.208 204.572C271.208 204.572 271.208 204.572 271.125 204.572ZM246.368 204.324C246.285 204.158 246.368 203.992 246.533 203.91C246.699 203.827 246.864 203.91 246.947 204.075C247.03 204.241 246.947 204.406 246.782 204.489H246.699C246.533 204.489 246.45 204.406 246.368 204.324ZM268.475 203.661C268.31 203.578 268.227 203.496 268.31 203.33C268.31 203.164 268.558 203.082 268.641 203.164C268.806 203.164 268.889 203.33 268.806 203.496C268.806 203.578 268.724 203.661 268.475 203.661C268.558 203.661 268.558 203.661 268.475 203.661ZM248.934 203.247C248.852 203.082 248.934 202.916 249.1 202.916C249.266 202.833 249.431 202.916 249.431 203.082C249.514 203.247 249.431 203.413 249.266 203.413H249.183C249.1 203.496 249.017 203.413 248.934 203.247ZM265.826 202.999C265.66 202.999 265.577 202.833 265.577 202.668C265.577 202.502 265.743 202.419 265.908 202.419C266.074 202.419 266.157 202.585 266.157 202.75C266.157 202.916 265.991 202.999 265.826 202.999ZM251.667 202.502C251.667 202.336 251.75 202.171 251.915 202.171C252.081 202.171 252.246 202.254 252.246 202.419C252.246 202.585 252.164 202.75 251.998 202.75C251.998 202.75 251.998 202.75 251.915 202.75C251.832 202.75 251.667 202.668 251.667 202.502ZM263.093 202.502C262.928 202.502 262.845 202.336 262.845 202.171C262.845 202.005 263.01 201.922 263.176 201.922C263.342 201.922 263.424 202.088 263.424 202.254C263.342 202.419 263.259 202.502 263.093 202.502ZM254.399 202.005C254.399 201.84 254.482 201.757 254.648 201.674C254.813 201.674 254.979 201.757 254.979 201.922C254.979 202.088 254.896 202.254 254.73 202.254C254.565 202.254 254.482 202.171 254.399 202.005ZM260.278 202.171C260.112 202.171 260.03 202.005 260.03 201.84C260.03 201.674 260.195 201.591 260.361 201.591C260.526 201.591 260.609 201.757 260.609 201.922C260.609 202.088 260.444 202.254 260.278 202.171C260.278 202.254 260.278 202.171 260.278 202.171ZM257.214 201.84C257.214 201.674 257.297 201.591 257.463 201.591C257.628 201.591 257.711 201.674 257.711 201.84C257.711 202.005 257.546 202.088 257.463 202.088C257.38 202.088 257.214 202.005 257.214 201.84Z" fill="white"/>
<path opacity="0.8" d="M201.904 221.132H201.821C201.821 221.132 201.738 221.132 201.738 221.049L201.655 220.966V220.884C201.655 220.801 201.655 220.718 201.738 220.718L201.821 220.635C201.904 220.635 201.986 220.635 202.069 220.635C202.069 220.635 202.152 220.635 202.152 220.718C202.235 220.801 202.235 220.801 202.235 220.884V220.966C202.235 220.966 202.235 221.049 202.152 221.049L202.069 221.132C201.904 221.132 201.904 221.132 201.904 221.132Z" fill="white"/>
</g>
<path d="M247.278 136.345L245.373 134.275C241.978 137.504 237.342 139.491 232.456 139.491C224.259 139.491 217.801 133.944 216.31 126.409L213.412 127.154L210.763 127.816C211.508 131.791 213.329 135.351 216.062 138.249C224.425 147.274 239.329 147.274 249.099 138.249L247.278 136.345Z" fill="white"/>
<path d="M251.417 105.212L248.851 107.613L247.112 109.269C250.093 112.498 251.749 116.887 251.417 121.772C251.086 126.657 248.768 131.046 245.373 134.275L246.863 135.931L249.016 138.249C253.736 133.861 256.551 127.899 257.048 121.772C257.462 115.562 255.475 109.6 251.417 105.212Z" fill="#263238"/>
<path d="M251.418 105.211C242.972 96.1862 228.151 96.1862 218.381 105.211C212.088 111.09 209.19 119.701 210.763 127.733L214.075 126.905L216.311 126.325C216.062 124.835 215.897 123.345 216.062 121.771C216.725 112.001 225.253 104.052 235.023 104.052C239.909 104.052 244.214 106.039 247.195 109.269L249.431 107.199L251.418 105.211Z" fill="#407BFF"/>
<path d="M275.181 136.345L277.417 134.275C274.436 131.046 272.78 126.657 273.111 121.772C273.691 113.575 279.735 106.702 287.436 104.715L286.856 101.9L286.359 99.3332C282.302 100.41 278.576 102.48 275.43 105.378C265.742 114.403 264.666 129.307 273.028 138.415L275.181 136.345Z" fill="white"/>
<path d="M306.149 138.249L303.996 135.848L302.506 134.192C299.111 137.421 294.474 139.408 289.589 139.408C284.704 139.408 280.398 137.421 277.417 134.192L275.678 135.848L273.194 138.166C277.252 142.555 283.048 145.039 289.175 145.039C295.302 145.122 301.429 142.638 306.149 138.249Z" fill="#263238"/>
<path d="M306.149 138.249C315.836 129.224 316.913 114.32 308.55 105.212C303.085 99.3332 294.64 97.0148 286.442 99.1676L287.105 102.397L287.519 104.632C289.009 104.218 290.582 104.053 292.156 104.053C301.926 104.053 309.295 112.002 308.55 121.772C308.219 126.657 305.9 131.046 302.506 134.275L304.41 136.345L306.149 138.249Z" fill="#407BFF"/>
<path opacity="0.3" d="M345.231 100.492C345.728 100.492 346.142 100.658 346.473 100.989C346.804 101.32 346.97 101.734 346.887 102.231L345.893 116.473C345.81 117.466 344.9 118.377 343.906 118.377H329.664C329.168 118.377 328.754 118.212 328.422 117.88C328.091 117.549 327.926 117.135 328.008 116.638L329.002 102.397C329.085 101.403 329.996 100.492 330.989 100.492H345.231ZM345.231 99.7472H330.989C329.582 99.7472 328.34 100.906 328.257 102.314L327.263 116.556C327.18 117.963 328.257 119.122 329.664 119.122H343.906C345.314 119.122 346.556 117.963 346.638 116.556L347.632 102.314C347.715 100.906 346.638 99.7472 345.231 99.7472Z" fill="#407BFF"/>
<path opacity="0.3" d="M343.491 125.084C343.988 125.084 344.402 125.25 344.733 125.581C345.065 125.912 345.23 126.326 345.147 126.823L344.154 141.064C344.071 142.058 343.16 142.969 342.167 142.969H327.925C327.428 142.969 327.014 142.803 326.683 142.472C326.352 142.141 326.186 141.727 326.269 141.23L327.263 126.988C327.345 125.995 328.256 125.084 329.25 125.084H343.491ZM343.491 124.339H329.167C327.759 124.339 326.517 125.498 326.435 126.906L325.441 141.147C325.358 142.555 326.435 143.714 327.842 143.714H342.084C343.491 143.714 344.733 142.555 344.816 141.147L345.81 126.906C345.975 125.498 344.899 124.339 343.491 124.339Z" fill="#407BFF"/>
<path d="M322.543 204.075C322.957 204.075 323.288 204.241 323.537 204.489C323.785 204.738 323.951 205.152 323.868 205.566C323.785 206.476 323.04 207.139 322.129 207.139C321.715 207.139 321.384 206.973 321.136 206.725C320.887 206.476 320.722 206.062 320.804 205.648C320.97 204.82 321.715 204.075 322.543 204.075ZM322.543 203.33C321.301 203.33 320.225 204.324 320.142 205.566C320.059 206.808 320.97 207.801 322.212 207.801C323.454 207.801 324.53 206.808 324.613 205.566C324.779 204.406 323.868 203.33 322.543 203.33Z" fill="#407BFF"/>
<path d="M322.792 203.413L322.378 203.33L322.461 202.668H322.792V203.413Z" fill="#407BFF"/>
<path d="M322.957 201.177H322.626L322.709 199.687H323.04L322.957 201.177ZM323.123 198.196H322.792L322.874 196.706H323.206L323.123 198.196ZM323.371 195.216H323.04L323.123 193.725H323.454L323.371 195.216ZM323.537 192.152H323.206L323.288 190.662H323.62L323.537 192.152ZM323.785 189.171H323.454L323.537 187.681H323.868L323.785 189.171ZM323.951 186.19H323.62L323.702 184.7H324.034L323.951 186.19ZM324.199 183.21H323.868L323.951 181.719H324.282L324.199 183.21ZM324.448 180.229H324.116L324.199 178.738H324.53L324.448 180.229ZM324.613 177.248H324.282L324.365 175.758H324.696L324.613 177.248ZM324.862 174.267H324.53L324.613 172.777H324.944L324.862 174.267ZM325.027 171.286H324.696L324.779 169.796H325.11L325.027 171.286Z" fill="#407BFF"/>
<path d="M324.996 167.467L324.943 168.211L325.274 168.234L325.327 167.491L324.996 167.467Z" fill="#407BFF"/>
<path d="M340.594 167.892H209.439C208.694 167.892 208.031 167.56 207.535 167.064C207.038 166.567 206.789 165.822 206.872 165.076L207.535 156.051C207.617 154.561 208.942 153.319 210.433 153.319H341.588C342.333 153.319 342.995 153.65 343.492 154.147C343.989 154.644 344.237 155.389 344.155 156.134L343.492 165.159C343.409 166.65 342.085 167.892 340.594 167.892ZM210.433 154.147C209.356 154.147 208.363 155.058 208.28 156.134L207.617 165.159C207.617 165.656 207.783 166.153 208.114 166.567C208.445 166.898 208.942 167.146 209.439 167.146H340.511C341.588 167.146 342.581 166.236 342.664 165.159L343.327 156.134C343.327 155.637 343.161 155.14 342.83 154.726C342.499 154.395 342.002 154.147 341.505 154.147H210.433Z" fill="#407BFF"/>
<path opacity="0.8" fill-rule="evenodd" clip-rule="evenodd" d="M337.779 159.198H213.496C212.834 159.198 212.337 158.618 212.337 157.956C212.42 157.293 212.999 156.714 213.662 156.714H337.945C338.607 156.714 339.104 157.293 339.104 157.956C339.021 158.618 338.441 159.198 337.779 159.198Z" fill="white"/>
<path opacity="0.8" fill-rule="evenodd" clip-rule="evenodd" d="M317.079 164.331H213.082C212.42 164.331 211.923 163.752 211.923 163.089C212.006 162.427 212.585 161.847 213.248 161.847H317.162C317.824 161.847 318.321 162.427 318.321 163.089C318.321 163.834 317.741 164.331 317.079 164.331Z" fill="white"/>
</g>
<defs>
<clipPath id="clip0">
<rect width="407" height="300" fill="white"/>
</clipPath>
</defs>
</svg>
