<svg width="406" height="300" viewBox="0 0 406 300" fill="none" xmlns="http://www.w3.org/2000/svg">
<g clip-path="url(#clip0)">
<path d="M426 275.212H-14V275.476H426V275.212Z" fill="#EBEBEB"/>
<path d="M194.983 235.748H25.0171C22.2885 235.748 20 233.848 20 231.581V33.1671C20 30.9008 22.2885 29 25.0171 29H194.983C197.712 29 200 30.9008 200 33.1671V231.581C200 233.848 197.8 235.748 194.983 235.748ZM25.0171 29.1462C22.3765 29.1462 20.176 30.9008 20.176 33.1671V231.581C20.176 233.775 22.2885 235.602 25.0171 235.602H194.983C197.623 235.602 199.824 233.848 199.824 231.581V33.1671C199.824 30.9739 197.712 29.1462 194.983 29.1462H25.0171Z" fill="#EBEBEB"/>
<path d="M384.983 235.748H215.017C212.289 235.748 210 233.848 210 231.581V33.1671C210 30.9008 212.289 29 215.017 29H384.983C387.711 29 390 30.9008 390 33.1671V231.581C390 233.848 387.799 235.748 384.983 235.748ZM215.017 29.1462C212.377 29.1462 210.176 30.9008 210.176 33.1671V231.581C210.176 233.775 212.289 235.602 215.017 235.602H384.983C387.623 235.602 389.824 233.848 389.824 231.581V33.1671C389.824 30.9739 387.711 29.1462 384.983 29.1462H215.017Z" fill="#EBEBEB"/>
<path d="M381.912 283.562H359.032V283.826H381.912V283.562Z" fill="#EBEBEB"/>
<path d="M299.28 281.189H251.672V281.453H299.28V281.189Z" fill="#EBEBEB"/>
<path d="M366.16 291.736H335.008V292H366.16V291.736Z" fill="#EBEBEB"/>
<path d="M53.0562 290.242H32.2002V290.506H53.0562V290.242Z" fill="#EBEBEB"/>
<path d="M83.5038 290.242H60.7998V290.506H83.5038V290.242Z" fill="#EBEBEB"/>
<path d="M219.376 286.551H171.328V286.815H219.376V286.551Z" fill="#EBEBEB"/>
<path d="M180.632 315.2C274.869 315.2 351.264 308.887 351.264 301.1C351.264 293.313 274.869 287 180.632 287C86.3945 287 10 293.313 10 301.1C10 308.887 86.3945 315.2 180.632 315.2Z" fill="#64B9FF"/>
<path d="M120.914 269.759H20.6416V276.477H120.914V269.759Z" fill="#5CDBF5"/>
<path d="M120.903 276.472H137.572V269.754H120.903V276.472Z" fill="#60DBF3"/>
<path d="M120.829 150.974H15V269.71H120.829V150.974Z" fill="#67AEC1"/>
<path d="M135.788 150H22.4365V151.022H135.788V150Z" fill="#5CDBF5"/>
<path d="M120.832 269.778H143.144L143.144 151.041H120.832L120.832 269.778Z" fill="#5CDBF5"/>
<path d="M17.6694 165.418H118.284V152.42H17.6694V165.418Z" fill="#5CDBF5"/>
<path d="M17.6694 268.253H118.284V255.255H17.6694V268.253Z" fill="#5CDBF5"/>
<path d="M17.6694 253.577H118.284V240.578H17.6694V253.577Z" fill="#5CDBF5"/>
<path d="M17.6694 238.9H118.284V225.901H17.6694V238.9Z" fill="#5CDBF5"/>
<path d="M17.6694 224.174H118.284V211.176H17.6694V224.174Z" fill="#5CDBF5"/>
<path d="M17.6694 209.497H118.284V196.499H17.6694V209.497Z" fill="#5CDBF5"/>
<path d="M17.6694 194.82H118.284V181.822H17.6694V194.82Z" fill="#5CDBF5"/>
<path d="M17.6694 180.143H118.284V167.145H17.6694V180.143Z" fill="#5CDBF5"/>
<path d="M24.3178 163.582H72.7873C74.6679 163.582 76.2067 162.706 76.2067 161.635V156.183C76.2067 155.112 74.6679 154.235 72.7873 154.235H24.3178C22.4372 154.235 20.8984 155.112 20.8984 156.183V161.635C20.8984 162.706 22.4372 163.582 24.3178 163.582Z" fill="#60DBF3"/>
<path d="M27.9085 159.542V158.325C27.9085 157.984 27.4811 157.74 26.8827 157.74H24.5746C23.9763 157.74 23.5488 157.984 23.5488 158.325V159.542C23.5488 159.883 23.9763 160.126 24.5746 160.126H26.8827C27.4811 160.126 27.9085 159.834 27.9085 159.542Z" fill="#67AEC1"/>
<path d="M24.3178 178.285H72.7873C74.6679 178.285 76.2067 177.408 76.2067 176.337V170.885C76.2067 169.814 74.6679 168.938 72.7873 168.938H24.3178C22.4372 168.938 20.8984 169.814 20.8984 170.885V176.337C20.8984 177.408 22.4372 178.285 24.3178 178.285Z" fill="#60DBF3"/>
<path d="M27.9085 174.244V173.027C27.9085 172.686 27.4811 172.443 26.8827 172.443H24.5746C23.9763 172.443 23.5488 172.686 23.5488 173.027V174.244C23.5488 174.585 23.9763 174.828 24.5746 174.828H26.8827C27.4811 174.779 27.9085 174.536 27.9085 174.244Z" fill="#67AEC1"/>
<path d="M24.3178 192.938H72.7873C74.6679 192.938 76.2067 192.062 76.2067 190.991V185.538C76.2067 184.467 74.6679 183.591 72.7873 183.591H24.3178C22.4372 183.591 20.8984 184.467 20.8984 185.538V190.991C20.8984 192.062 22.4372 192.938 24.3178 192.938Z" fill="#60DBF3"/>
<path d="M27.9085 188.897V187.68C27.9085 187.339 27.4811 187.096 26.8827 187.096H24.5746C23.9763 187.096 23.5488 187.339 23.5488 187.68V188.897C23.5488 189.238 23.9763 189.481 24.5746 189.481H26.8827C27.4811 189.481 27.9085 189.238 27.9085 188.897Z" fill="#67AEC1"/>
<path d="M24.3178 207.64H72.7873C74.6679 207.64 76.2067 206.764 76.2067 205.693V200.24C76.2067 199.169 74.6679 198.293 72.7873 198.293H24.3178C22.4372 198.293 20.8984 199.169 20.8984 200.24V205.693C20.8984 206.764 22.4372 207.64 24.3178 207.64Z" fill="#60DBF3"/>
<path d="M27.9085 203.599V202.382C27.9085 202.042 27.4811 201.798 26.8827 201.798H24.5746C23.9763 201.798 23.5488 202.042 23.5488 202.382V203.599C23.5488 203.94 23.9763 204.184 24.5746 204.184H26.8827C27.4811 204.184 27.9085 203.94 27.9085 203.599Z" fill="#67AEC1"/>
<path d="M24.3178 222.342H72.7873C74.6679 222.342 76.2067 221.466 76.2067 220.395V214.942C76.2067 213.871 74.6679 212.995 72.7873 212.995H24.3178C22.4372 212.995 20.8984 213.871 20.8984 214.942V220.395C20.8984 221.466 22.4372 222.342 24.3178 222.342Z" fill="#60DBF3"/>
<path d="M27.9085 218.301V217.084C27.9085 216.744 27.4811 216.5 26.8827 216.5H24.5746C23.9763 216.5 23.5488 216.744 23.5488 217.084V218.301C23.5488 218.642 23.9763 218.886 24.5746 218.886H26.8827C27.4811 218.886 27.9085 218.593 27.9085 218.301Z" fill="#67AEC1"/>
<path d="M24.3178 237.044H72.7873C74.6679 237.044 76.2067 236.168 76.2067 235.097V229.644C76.2067 228.573 74.6679 227.697 72.7873 227.697H24.3178C22.4372 227.697 20.8984 228.573 20.8984 229.644V235.097C20.8984 236.168 22.4372 237.044 24.3178 237.044Z" fill="#60DBF3"/>
<path d="M27.9085 233.003V231.786C27.9085 231.446 27.4811 231.202 26.8827 231.202H24.5746C23.9763 231.202 23.5488 231.446 23.5488 231.786V233.003C23.5488 233.344 23.9763 233.588 24.5746 233.588H26.8827C27.4811 233.539 27.9085 233.295 27.9085 233.003Z" fill="#67AEC1"/>
<path d="M24.3178 251.697H72.7873C74.6679 251.697 76.2067 250.821 76.2067 249.75V244.298C76.2067 243.227 74.6679 242.35 72.7873 242.35H24.3178C22.4372 242.35 20.8984 243.227 20.8984 244.298V249.75C20.8984 250.821 22.4372 251.697 24.3178 251.697Z" fill="#60DBF3"/>
<path d="M27.9085 247.657V246.44C27.9085 246.099 27.4811 245.856 26.8827 245.856H24.5746C23.9763 245.856 23.5488 246.099 23.5488 246.44V247.657C23.5488 247.998 23.9763 248.241 24.5746 248.241H26.8827C27.4811 248.241 27.9085 247.998 27.9085 247.657Z" fill="#67AEC1"/>
<path d="M24.3178 266.4H72.7873C74.6679 266.4 76.2067 265.523 76.2067 264.452V259C76.2067 257.929 74.6679 257.053 72.7873 257.053H24.3178C22.4372 257.053 20.8984 257.929 20.8984 259V264.452C20.8984 265.523 22.4372 266.4 24.3178 266.4Z" fill="#60DBF3"/>
<path d="M27.9085 262.359V261.142C27.9085 260.801 27.4811 260.558 26.8827 260.558H24.5746C23.9763 260.558 23.5488 260.801 23.5488 261.142V262.359C23.5488 262.7 23.9763 262.943 24.5746 262.943H26.8827C27.4811 262.943 27.9085 262.7 27.9085 262.359Z" fill="#67AEC1"/>
<path d="M34.5756 159.542V158.325C34.5756 157.984 34.1481 157.74 33.5497 157.74H31.2416C30.6432 157.74 30.2158 157.984 30.2158 158.325V159.542C30.2158 159.883 30.6432 160.126 31.2416 160.126H33.5497C34.1481 160.126 34.5756 159.834 34.5756 159.542Z" fill="#67AEC1"/>
<path d="M34.5756 174.244V173.027C34.5756 172.686 34.1481 172.443 33.5497 172.443H31.2416C30.6432 172.443 30.2158 172.686 30.2158 173.027V174.244C30.2158 174.585 30.6432 174.828 31.2416 174.828H33.5497C34.1481 174.779 34.5756 174.536 34.5756 174.244Z" fill="#67AEC1"/>
<path d="M34.5756 188.897V187.68C34.5756 187.339 34.1481 187.096 33.5497 187.096H31.2416C30.6432 187.096 30.2158 187.339 30.2158 187.68V188.897C30.2158 189.238 30.6432 189.481 31.2416 189.481H33.5497C34.1481 189.481 34.5756 189.238 34.5756 188.897Z" fill="#67AEC1"/>
<path d="M34.5756 203.599V202.382C34.5756 202.042 34.1481 201.798 33.5497 201.798H31.2416C30.6432 201.798 30.2158 202.042 30.2158 202.382V203.599C30.2158 203.94 30.6432 204.184 31.2416 204.184H33.5497C34.1481 204.184 34.5756 203.94 34.5756 203.599Z" fill="#67AEC1"/>
<path d="M34.5756 218.301V217.084C34.5756 216.744 34.1481 216.5 33.5497 216.5H31.2416C30.6432 216.5 30.2158 216.744 30.2158 217.084V218.301C30.2158 218.642 30.6432 218.886 31.2416 218.886H33.5497C34.1481 218.886 34.5756 218.593 34.5756 218.301Z" fill="#67AEC1"/>
<path d="M34.5756 233.003V231.786C34.5756 231.446 34.1481 231.202 33.5497 231.202H31.2416C30.6432 231.202 30.2158 231.446 30.2158 231.786V233.003C30.2158 233.344 30.6432 233.588 31.2416 233.588H33.5497C34.1481 233.539 34.5756 233.295 34.5756 233.003Z" fill="#67AEC1"/>
<path d="M34.5756 247.657V246.44C34.5756 246.099 34.1481 245.856 33.5497 245.856H31.2416C30.6432 245.856 30.2158 246.099 30.2158 246.44V247.657C30.2158 247.998 30.6432 248.241 31.2416 248.241H33.5497C34.1481 248.241 34.5756 247.998 34.5756 247.657Z" fill="#67AEC1"/>
<path d="M34.5756 262.359V261.142C34.5756 260.801 34.1481 260.558 33.5497 260.558H31.2416C30.6432 260.558 30.2158 260.801 30.2158 261.142V262.359C30.2158 262.7 30.6432 262.943 31.2416 262.943H33.5497C34.1481 262.943 34.5756 262.7 34.5756 262.359Z" fill="#67AEC1"/>
<path d="M41.2435 159.542V158.325C41.2435 157.984 40.8161 157.74 40.2177 157.74H37.9096C37.3112 157.74 36.8838 157.984 36.8838 158.325V159.542C36.8838 159.883 37.3112 160.126 37.9096 160.126H40.2177C40.7306 160.126 41.2435 159.834 41.2435 159.542Z" fill="#67AEC1"/>
<path d="M41.2435 174.244V173.027C41.2435 172.686 40.8161 172.443 40.2177 172.443H37.9096C37.3112 172.443 36.8838 172.686 36.8838 173.027V174.244C36.8838 174.585 37.3112 174.828 37.9096 174.828H40.2177C40.7306 174.779 41.2435 174.536 41.2435 174.244Z" fill="#67AEC1"/>
<path d="M41.2435 188.897V187.68C41.2435 187.339 40.8161 187.096 40.2177 187.096H37.9096C37.3112 187.096 36.8838 187.339 36.8838 187.68V188.897C36.8838 189.238 37.3112 189.481 37.9096 189.481H40.2177C40.7306 189.481 41.2435 189.238 41.2435 188.897Z" fill="#67AEC1"/>
<path d="M41.2435 203.599V202.382C41.2435 202.042 40.8161 201.798 40.2177 201.798H37.9096C37.3112 201.798 36.8838 202.042 36.8838 202.382V203.599C36.8838 203.94 37.3112 204.184 37.9096 204.184H40.2177C40.7306 204.184 41.2435 203.94 41.2435 203.599Z" fill="#67AEC1"/>
<path d="M41.2435 218.301V217.084C41.2435 216.744 40.8161 216.5 40.2177 216.5H37.9096C37.3112 216.5 36.8838 216.744 36.8838 217.084V218.301C36.8838 218.642 37.3112 218.886 37.9096 218.886H40.2177C40.7306 218.886 41.2435 218.593 41.2435 218.301Z" fill="#67AEC1"/>
<path d="M41.2435 233.003V231.786C41.2435 231.446 40.8161 231.202 40.2177 231.202H37.9096C37.3112 231.202 36.8838 231.446 36.8838 231.786V233.003C36.8838 233.344 37.3112 233.588 37.9096 233.588H40.2177C40.7306 233.539 41.2435 233.295 41.2435 233.003Z" fill="#67AEC1"/>
<path d="M41.2435 247.657V246.44C41.2435 246.099 40.8161 245.856 40.2177 245.856H37.9096C37.3112 245.856 36.8838 246.099 36.8838 246.44V247.657C36.8838 247.998 37.3112 248.241 37.9096 248.241H40.2177C40.7306 248.241 41.2435 247.998 41.2435 247.657Z" fill="#67AEC1"/>
<path d="M41.2435 262.359V261.142C41.2435 260.801 40.8161 260.558 40.2177 260.558H37.9096C37.3112 260.558 36.8838 260.801 36.8838 261.142V262.359C36.8838 262.7 37.3112 262.943 37.9096 262.943H40.2177C40.7306 262.943 41.2435 262.7 41.2435 262.359Z" fill="#67AEC1"/>
<path d="M47.9114 159.542V158.325C47.9114 157.984 47.484 157.74 46.8856 157.74H44.5776C43.9792 157.74 43.5518 157.984 43.5518 158.325V159.542C43.5518 159.883 43.9792 160.126 44.5776 160.126H46.8856C47.3985 160.126 47.9114 159.834 47.9114 159.542Z" fill="#67AEC1"/>
<path d="M47.9114 174.244V173.027C47.9114 172.686 47.484 172.443 46.8856 172.443H44.5776C43.9792 172.443 43.5518 172.686 43.5518 173.027V174.244C43.5518 174.585 43.9792 174.828 44.5776 174.828H46.8856C47.3985 174.779 47.9114 174.536 47.9114 174.244Z" fill="#67AEC1"/>
<path d="M47.9114 188.897V187.68C47.9114 187.339 47.484 187.096 46.8856 187.096H44.5776C43.9792 187.096 43.5518 187.339 43.5518 187.68V188.897C43.5518 189.238 43.9792 189.481 44.5776 189.481H46.8856C47.3985 189.481 47.9114 189.238 47.9114 188.897Z" fill="#67AEC1"/>
<path d="M47.9114 203.599V202.382C47.9114 202.042 47.484 201.798 46.8856 201.798H44.5776C43.9792 201.798 43.5518 202.042 43.5518 202.382V203.599C43.5518 203.94 43.9792 204.184 44.5776 204.184H46.8856C47.3985 204.184 47.9114 203.94 47.9114 203.599Z" fill="#67AEC1"/>
<path d="M47.9114 218.301V217.084C47.9114 216.744 47.484 216.5 46.8856 216.5H44.5776C43.9792 216.5 43.5518 216.744 43.5518 217.084V218.301C43.5518 218.642 43.9792 218.886 44.5776 218.886H46.8856C47.3985 218.886 47.9114 218.593 47.9114 218.301Z" fill="#67AEC1"/>
<path d="M47.9114 233.003V231.786C47.9114 231.446 47.484 231.202 46.8856 231.202H44.5776C43.9792 231.202 43.5518 231.446 43.5518 231.786V233.003C43.5518 233.344 43.9792 233.588 44.5776 233.588H46.8856C47.3985 233.539 47.9114 233.295 47.9114 233.003Z" fill="#67AEC1"/>
<path d="M47.9114 247.657V246.44C47.9114 246.099 47.484 245.856 46.8856 245.856H44.5776C43.9792 245.856 43.5518 246.099 43.5518 246.44V247.657C43.5518 247.998 43.9792 248.241 44.5776 248.241H46.8856C47.3985 248.241 47.9114 247.998 47.9114 247.657Z" fill="#67AEC1"/>
<path d="M47.9114 262.359V261.142C47.9114 260.801 47.484 260.558 46.8856 260.558H44.5776C43.9792 260.558 43.5518 260.801 43.5518 261.142V262.359C43.5518 262.7 43.9792 262.943 44.5776 262.943H46.8856C47.3985 262.943 47.9114 262.7 47.9114 262.359Z" fill="#67AEC1"/>
<path d="M81.6768 158.909C81.6768 159.736 82.8736 160.418 84.4123 160.418C85.951 160.418 87.1478 159.736 87.1478 158.909C87.1478 158.081 85.951 157.4 84.4123 157.4C82.8736 157.448 81.6768 158.081 81.6768 158.909Z" fill="#67AEC1"/>
<path d="M89.4561 158.909C89.4561 159.736 90.6528 160.418 92.1915 160.418C93.7302 160.418 94.927 159.736 94.927 158.909C94.927 158.081 93.7302 157.4 92.1915 157.4C90.7383 157.448 89.4561 158.081 89.4561 158.909Z" fill="#67AEC1"/>
<path d="M97.3203 158.909C97.3203 159.736 98.5171 160.418 100.056 160.418C101.594 160.418 102.791 159.736 102.791 158.909C102.791 158.081 101.594 157.4 100.056 157.4C98.5171 157.448 97.3203 158.081 97.3203 158.909Z" fill="#67AEC1"/>
<path d="M105.1 158.909C105.1 159.736 106.296 160.418 107.835 160.418C109.374 160.418 110.571 159.736 110.571 158.909C110.571 158.081 109.374 157.4 107.835 157.4C106.296 157.448 105.1 158.081 105.1 158.909Z" fill="#67AEC1"/>
<path d="M81.6768 173.611C81.6768 174.439 82.8736 175.12 84.4123 175.12C85.951 175.12 87.1478 174.439 87.1478 173.611C87.1478 172.783 85.951 172.102 84.4123 172.102C82.8736 172.102 81.6768 172.783 81.6768 173.611Z" fill="#67AEC1"/>
<path d="M89.4561 173.611C89.4561 174.439 90.6528 175.12 92.1915 175.12C93.7302 175.12 94.927 174.439 94.927 173.611C94.927 172.783 93.7302 172.102 92.1915 172.102C90.7383 172.102 89.4561 172.783 89.4561 173.611Z" fill="#67AEC1"/>
<path d="M97.3203 173.611C97.3203 174.439 98.5171 175.12 100.056 175.12C101.594 175.12 102.791 174.439 102.791 173.611C102.791 172.783 101.594 172.102 100.056 172.102C98.5171 172.102 97.3203 172.783 97.3203 173.611Z" fill="#67AEC1"/>
<path d="M105.1 173.611C105.1 174.439 106.296 175.12 107.835 175.12C109.374 175.12 110.571 174.439 110.571 173.611C110.571 172.783 109.374 172.102 107.835 172.102C106.296 172.102 105.1 172.783 105.1 173.611Z" fill="#67AEC1"/>
<path d="M81.6768 188.313C81.6768 189.141 82.8736 189.822 84.4123 189.822C85.951 189.822 87.1478 189.141 87.1478 188.313C87.1478 187.486 85.951 186.804 84.4123 186.804C82.8736 186.804 81.6768 187.486 81.6768 188.313Z" fill="#67AEC1"/>
<path d="M89.4561 188.313C89.4561 189.141 90.6528 189.822 92.1915 189.822C93.7302 189.822 94.927 189.141 94.927 188.313C94.927 187.486 93.7302 186.804 92.1915 186.804C90.7383 186.804 89.4561 187.486 89.4561 188.313Z" fill="#67AEC1"/>
<path d="M97.3203 188.313C97.3203 189.141 98.5171 189.822 100.056 189.822C101.594 189.822 102.791 189.141 102.791 188.313C102.791 187.486 101.594 186.804 100.056 186.804C98.5171 186.804 97.3203 187.486 97.3203 188.313Z" fill="#67AEC1"/>
<path d="M105.1 188.313C105.1 189.141 106.296 189.822 107.835 189.822C109.374 189.822 110.571 189.141 110.571 188.313C110.571 187.486 109.374 186.804 107.835 186.804C106.296 186.804 105.1 187.486 105.1 188.313Z" fill="#67AEC1"/>
<path d="M81.6768 203.015C81.6768 203.843 82.8736 204.524 84.4123 204.524C85.951 204.524 87.1478 203.843 87.1478 203.015C87.1478 202.188 85.951 201.506 84.4123 201.506C82.8736 201.506 81.6768 202.188 81.6768 203.015Z" fill="#67AEC1"/>
<path d="M89.4561 203.015C89.4561 203.843 90.6528 204.524 92.1915 204.524C93.7302 204.524 94.927 203.843 94.927 203.015C94.927 202.188 93.7302 201.506 92.1915 201.506C90.7383 201.506 89.4561 202.188 89.4561 203.015Z" fill="#67AEC1"/>
<path d="M97.3203 203.015C97.3203 203.843 98.5171 204.524 100.056 204.524C101.594 204.524 102.791 203.843 102.791 203.015C102.791 202.188 101.594 201.506 100.056 201.506C98.5171 201.506 97.3203 202.188 97.3203 203.015Z" fill="#67AEC1"/>
<path d="M105.1 203.015C105.1 203.843 106.296 204.524 107.835 204.524C109.374 204.524 110.571 203.843 110.571 203.015C110.571 202.188 109.374 201.506 107.835 201.506C106.296 201.506 105.1 202.188 105.1 203.015Z" fill="#67AEC1"/>
<path d="M81.6768 217.668C81.6768 218.496 82.8736 219.178 84.4123 219.178C85.951 219.178 87.1478 218.496 87.1478 217.668C87.1478 216.841 85.951 216.159 84.4123 216.159C82.8736 216.159 81.6768 216.841 81.6768 217.668Z" fill="#67AEC1"/>
<path d="M89.4561 217.668C89.4561 218.496 90.6528 219.178 92.1915 219.178C93.7302 219.178 94.927 218.496 94.927 217.668C94.927 216.841 93.7302 216.159 92.1915 216.159C90.7383 216.159 89.4561 216.841 89.4561 217.668Z" fill="#67AEC1"/>
<path d="M97.3203 217.668C97.3203 218.496 98.5171 219.178 100.056 219.178C101.594 219.178 102.791 218.496 102.791 217.668C102.791 216.841 101.594 216.159 100.056 216.159C98.5171 216.159 97.3203 216.841 97.3203 217.668Z" fill="#67AEC1"/>
<path d="M105.1 217.668C105.1 218.496 106.296 219.178 107.835 219.178C109.374 219.178 110.571 218.496 110.571 217.668C110.571 216.841 109.374 216.159 107.835 216.159C106.296 216.159 105.1 216.841 105.1 217.668Z" fill="#67AEC1"/>
<path d="M81.6768 232.371C81.6768 233.198 82.8736 233.88 84.4123 233.88C85.951 233.88 87.1478 233.198 87.1478 232.371C87.1478 231.543 85.951 230.861 84.4123 230.861C82.8736 230.861 81.6768 231.543 81.6768 232.371Z" fill="#67AEC1"/>
<path d="M89.4561 232.371C89.4561 233.198 90.6528 233.88 92.1915 233.88C93.7302 233.88 94.927 233.198 94.927 232.371C94.927 231.543 93.7302 230.861 92.1915 230.861C90.7383 230.861 89.4561 231.543 89.4561 232.371Z" fill="#67AEC1"/>
<path d="M97.3203 232.371C97.3203 233.198 98.5171 233.88 100.056 233.88C101.594 233.88 102.791 233.198 102.791 232.371C102.791 231.543 101.594 230.861 100.056 230.861C98.5171 230.861 97.3203 231.543 97.3203 232.371Z" fill="#67AEC1"/>
<path d="M105.1 232.371C105.1 233.198 106.296 233.88 107.835 233.88C109.374 233.88 110.571 233.198 110.571 232.371C110.571 231.543 109.374 230.861 107.835 230.861C106.296 230.861 105.1 231.543 105.1 232.371Z" fill="#67AEC1"/>
<path d="M81.6768 247.073C81.6768 247.9 82.8736 248.582 84.4123 248.582C85.951 248.582 87.1478 247.9 87.1478 247.073C87.1478 246.245 85.951 245.563 84.4123 245.563C82.8736 245.563 81.6768 246.245 81.6768 247.073Z" fill="#67AEC1"/>
<path d="M89.4561 247.073C89.4561 247.9 90.6528 248.582 92.1915 248.582C93.7302 248.582 94.927 247.9 94.927 247.073C94.927 246.245 93.7302 245.563 92.1915 245.563C90.7383 245.563 89.4561 246.245 89.4561 247.073Z" fill="#67AEC1"/>
<path d="M97.3203 247.073C97.3203 247.9 98.5171 248.582 100.056 248.582C101.594 248.582 102.791 247.9 102.791 247.073C102.791 246.245 101.594 245.563 100.056 245.563C98.5171 245.563 97.3203 246.245 97.3203 247.073Z" fill="#67AEC1"/>
<path d="M105.1 247.073C105.1 247.9 106.296 248.582 107.835 248.582C109.374 248.582 110.571 247.9 110.571 247.073C110.571 246.245 109.374 245.563 107.835 245.563C106.296 245.563 105.1 246.245 105.1 247.073Z" fill="#67AEC1"/>
<path d="M81.6768 261.775C81.6768 262.602 82.8736 263.284 84.4123 263.284C85.951 263.284 87.1478 262.602 87.1478 261.775C87.1478 260.947 85.951 260.266 84.4123 260.266C82.8736 260.266 81.6768 260.947 81.6768 261.775Z" fill="#67AEC1"/>
<path d="M89.4561 261.775C89.4561 262.602 90.6528 263.284 92.1915 263.284C93.7302 263.284 94.927 262.602 94.927 261.775C94.927 260.947 93.7302 260.266 92.1915 260.266C90.7383 260.266 89.4561 260.947 89.4561 261.775Z" fill="#67AEC1"/>
<path d="M97.3203 261.775C97.3203 262.602 98.5171 263.284 100.056 263.284C101.594 263.284 102.791 262.602 102.791 261.775C102.791 260.947 101.594 260.266 100.056 260.266C98.5171 260.266 97.3203 260.947 97.3203 261.775Z" fill="#67AEC1"/>
<path d="M105.1 261.775C105.1 262.602 106.296 263.284 107.835 263.284C109.374 263.284 110.571 262.602 110.571 261.775C110.571 260.947 109.374 260.266 107.835 260.266C106.296 260.266 105.1 260.947 105.1 261.775Z" fill="#67AEC1"/>
<path d="M217.726 56.1914C216.877 57.5657 215.064 58.0613 213.69 57.2121C212.316 56.363 211.82 54.5506 212.669 53.1763C213.518 51.8019 215.331 51.3064 216.705 52.1555C218.079 53.0047 218.476 54.7998 217.726 56.1914Z" fill="#37474F"/>
<path d="M211.979 53.0559C210.893 51.1403 211.793 49.4704 214.012 49.5535C216.248 49.538 219.014 51.1378 220.084 53.1519C221.17 55.0674 220.269 56.7373 218.051 56.6543C215.832 56.5712 213.164 54.9886 211.979 53.0559Z" fill="#455A64"/>
<path d="M212.465 52.0239C211.297 49.9926 212.296 48.3399 214.613 48.4402C216.948 48.4419 219.697 50.1402 220.865 52.1715C222.032 54.2028 221.033 55.8555 218.716 55.7552C216.381 55.7535 213.633 54.0551 212.465 52.0239Z" fill="#37474F"/>
<path d="M212.932 51.0904C211.781 48.9606 212.781 47.3079 215.115 47.3097C217.548 47.3286 220.396 49.0442 221.563 51.0754C222.714 53.2052 221.715 54.8579 219.38 54.8562C217.046 54.8544 214.1 53.1217 212.932 51.0904Z" fill="#455A64"/>
<path d="M213.417 50.0584C212.168 47.9115 213.184 46.1602 215.716 46.1964C218.149 46.2153 221.193 47.9653 222.344 50.0951C223.593 52.2421 222.576 53.9933 220.045 53.9571C217.612 53.9382 214.568 52.1882 213.417 50.0584Z" fill="#37474F"/>
<path d="M213.918 48.928C212.669 46.781 213.703 44.9313 216.234 44.9674C218.766 45.0036 221.81 46.7535 223.042 48.999C224.291 51.146 223.258 52.9957 220.726 52.9596C218.195 52.9234 215.15 51.1734 213.918 48.928Z" fill="#455A64"/>
<path d="M234.766 21.4047C228.039 17.4888 219.539 19.6585 215.525 26.3678C209.893 35.9416 216.815 42.2264 214.516 46.0884C214.1 46.7264 214.16 47.5489 214.712 48.4574C215.798 50.3729 218.466 51.9555 220.603 51.9229C221.721 51.9151 222.497 51.5431 222.797 50.9864C225.096 47.1244 233.9 50.1851 239.63 40.6286C243.628 34.0178 241.475 25.4191 234.766 21.4047Z" fill="#F6AC3B"/>
<g opacity="0.6">
<path d="M234.766 21.4047C228.039 17.4888 219.539 19.6585 215.525 26.3678C209.893 35.9416 216.815 42.2264 214.516 46.0884C214.1 46.7264 214.16 47.5489 214.712 48.4574C215.798 50.3729 218.466 51.9555 220.603 51.9229C221.721 51.9151 222.497 51.5431 222.797 50.9864C225.096 47.1244 233.9 50.1851 239.63 40.6286C243.628 34.0178 241.475 25.4191 234.766 21.4047Z" fill="#F6AC3B"/>
</g>
<path d="M215.83 48.4496C215.068 46.9969 215.669 45.8837 217.296 45.8635C218.924 45.8433 220.954 47.0099 221.715 48.4626C222.477 49.9153 221.876 51.0285 220.248 51.0487C218.62 51.0689 216.689 49.9195 215.83 48.4496Z" fill="#F6AC3B"/>
<path d="M220.592 49.0786C220.413 48.9457 220.267 48.6158 220.4 48.4359C220.516 48.3546 222.283 45.2119 225.284 41.98C225.897 41.3765 226.493 40.8715 226.973 40.4478C226.729 40.1006 226.485 39.7535 226.258 39.3078C225.886 38.5322 225.613 37.7738 225.438 37.0327C224.679 37.3062 223.955 37.3828 223.034 37.425C222.524 37.4374 222.13 37.3686 221.736 37.2998C221.616 37.9893 221.478 38.7774 221.242 39.5482C219.992 43.7966 218.045 46.8064 218.028 46.905C217.895 47.0848 217.583 47.1317 217.386 47.0972C217.206 46.9643 217.06 46.6344 217.193 46.4546C217.193 46.4546 219.059 43.329 220.274 39.2777C220.528 38.4083 220.665 37.6202 220.769 37.0292C219.737 36.5444 219.052 35.8157 218.894 34.976C218.719 34.2348 219.053 33.4811 219.713 33.1903C220.258 32.9809 220.75 33.0669 221.11 33.3327C221.73 33.8472 221.952 34.9012 221.81 36.2975C222.204 36.3663 222.598 36.4351 223.009 36.4055C223.93 36.3633 224.671 36.1882 225.314 35.996C225.225 34.7622 225.594 33.8116 226.074 33.3879C226.554 32.9641 227.081 32.8532 227.621 33.2519C228.177 33.5522 228.387 34.0964 228.284 34.6874C228.065 35.3598 227.417 36.1603 226.312 36.6778C226.388 37.4018 226.662 38.1602 227.034 38.9357C227.261 39.3814 227.505 39.7286 227.667 39.96C228.824 39.147 229.878 38.925 230.551 39.144C231.026 39.3285 231.368 39.6929 231.364 40.3011C231.44 41.0251 230.926 41.6458 230.167 41.9194C229.409 42.193 228.424 42.0209 227.443 41.2406C226.963 41.6643 226.368 42.1693 225.755 42.7728C222.788 45.8076 221.021 48.9504 221.021 48.9504C221.184 49.1819 220.871 49.2287 220.592 49.0786ZM220.462 34.1333C220.364 34.1161 220.265 34.0989 220.15 34.1802C219.82 34.3256 219.849 34.7368 219.913 34.951C220.042 35.3795 220.367 35.8423 220.923 36.1426C221.014 35.0418 220.822 34.3991 220.462 34.1333C220.561 34.1505 220.561 34.1505 220.462 34.1333ZM228.665 40.6418C229.204 41.0406 229.795 41.1438 230.224 41.0156C230.339 40.9343 230.768 40.8062 230.738 40.3949C230.674 40.1807 230.593 40.065 230.494 40.0478C230.199 39.9961 229.573 40.0899 228.665 40.6418ZM227.269 34.1041C227.089 33.9712 226.973 34.0525 226.858 34.1338C226.609 34.3949 226.407 34.9687 226.385 35.6755C227.062 35.2862 227.444 34.8453 227.496 34.5498C227.53 34.3527 227.547 34.2542 227.269 34.1041Z" fill="white"/>
<path d="M237.579 16.9219C237.48 16.9047 237.382 16.8875 237.399 16.789C236.941 16.5059 236.83 15.9789 237.113 15.5208L239.562 11.3805C239.845 10.9223 240.372 10.8114 240.83 11.0944C241.288 11.3775 241.399 11.9044 241.116 12.3626L238.667 16.5029C238.401 16.8625 237.973 16.9907 237.579 16.9219Z" fill="#F6AC3B"/>
<path d="M227.407 14.13C227.013 14.0611 226.671 13.6968 226.757 13.2042L226.777 8.43669C226.765 7.92694 227.147 7.48602 227.656 7.47356C228.166 7.46109 228.607 7.84265 228.619 8.3524L228.599 13.12C228.611 13.6297 228.23 14.0706 227.72 14.0831C227.506 14.1472 227.407 14.13 227.407 14.13Z" fill="#F6AC3B"/>
<path d="M217.194 16.8125C216.997 16.7781 216.718 16.6279 216.654 16.4137L214.237 12.2355C214.011 11.7898 214.114 11.1988 214.559 10.9721C215.005 10.7454 215.596 10.8486 215.823 11.2943L218.24 15.4725C218.467 15.9182 218.363 16.5092 217.918 16.7359C217.686 16.8985 217.391 16.8469 217.194 16.8125Z" fill="#F6AC3B"/>
<path d="M209.705 24.2345C209.606 24.2173 209.508 24.2001 209.525 24.1016L205.384 21.6526C204.926 21.3695 204.815 20.8426 205.098 20.3844C205.381 19.9263 205.908 19.8153 206.366 20.0984L210.507 22.5474C210.965 22.8304 211.076 23.3574 210.793 23.8155C210.527 24.1752 210.081 24.4018 209.705 24.2345Z" fill="#F6AC3B"/>
<path d="M239.837 56.2978C239.64 56.2634 239.362 56.1133 239.298 55.8991L236.881 51.7208C236.654 51.2752 236.757 50.6841 237.203 50.4574C237.649 50.2307 238.24 50.334 238.466 50.7796L240.883 54.9579C241.11 55.4035 241.007 55.9946 240.561 56.2213C240.33 56.3839 240.017 56.4307 239.837 56.2978Z" fill="#F6AC3B"/>
<path d="M249.049 47.1465C248.951 47.1293 248.852 47.1121 248.869 47.0136L244.729 44.5646C244.271 44.2815 244.16 43.7546 244.443 43.2964C244.726 42.8383 245.253 42.7273 245.711 43.0104L249.852 45.4594C250.31 45.7424 250.421 46.2694 250.138 46.7275C249.872 47.0871 249.443 47.2153 249.049 47.1465Z" fill="#F6AC3B"/>
<path d="M247.7 34.5262C247.306 34.4574 246.964 34.093 247.05 33.6005C247.037 33.0907 247.419 32.6498 247.929 32.6374L252.696 32.6581C253.206 32.6456 253.647 33.0271 253.659 33.5369C253.672 34.0466 253.29 34.4876 252.781 34.5L248.013 34.4793C247.88 34.6591 247.782 34.6419 247.7 34.5262Z" fill="#F6AC3B"/>
<path d="M245.001 24.4108C244.804 24.3764 244.526 24.2262 244.462 24.012C244.235 23.5663 244.338 22.9753 244.784 22.7486L248.962 20.3315C249.408 20.1048 249.999 20.2081 250.225 20.6537C250.452 21.0994 250.349 21.6904 249.903 21.9171L245.725 24.3342C245.511 24.3983 245.198 24.4452 245.001 24.4108Z" fill="#F6AC3B"/>
<path d="M196.544 284.704L202.88 282.592L199.8 267.368L193.464 269.48L196.544 284.704Z" fill="#F5C9B2"/>
<path d="M145.856 290.864H152.544L153.072 275.464L146.384 275.376L145.856 290.864Z" fill="#F5C9B2"/>
<path d="M153.424 290.16L145.328 290.072C145.064 290.072 144.8 290.248 144.8 290.512L143.48 296.408C143.304 297.024 143.832 297.64 144.448 297.64C147.088 297.64 148.936 297.464 152.28 297.464C154.304 297.464 159.056 298.256 164.248 297.816C166.976 297.64 166.448 294.824 165.304 294.736C159.496 294.296 156.328 292.008 154.656 290.512C154.216 290.248 153.864 290.16 153.424 290.16Z" fill="#263238"/>
<path d="M202.968 281.624L196.016 283.912C195.752 284 195.576 284.264 195.576 284.528L196.192 290.6C196.28 291.216 196.896 291.656 197.512 291.392C199.976 290.512 203.584 289.192 206.664 288.136C210.36 286.904 212.032 286.376 216.344 284.968C218.984 284.088 218.808 281.272 217.664 281.36C212.384 281.888 209.832 282.856 204.64 281.624C204.024 281.536 203.496 281.448 202.968 281.624Z" fill="#263238"/>
<path d="M166.184 81.4241L177.448 86.2641C179.296 87.0561 181.232 87.848 183.08 88.552C184.048 88.9041 184.928 89.2561 185.808 89.5201C186.248 89.6961 186.688 89.7841 187.128 89.9601L187.48 90.0481L187.656 90.1361H187.568H187.48C187.128 90.1361 186.688 90.1361 186.424 90.2241C185.808 90.4881 185.72 90.6641 185.72 90.6641C185.808 90.6641 185.984 90.4881 186.16 90.2241C186.512 89.6961 186.952 88.9921 187.392 88.2001C188.184 86.6161 188.888 84.768 189.504 82.832C190.736 79.048 191.968 75.0001 193.024 71.1281L197.952 71.744C197.864 76.1441 197.512 80.3681 196.72 84.6801C196.28 86.8801 195.84 88.9921 195.048 91.2801C194.608 92.4241 194.168 93.5681 193.464 94.8881C193.112 95.5041 192.672 96.2081 191.968 96.9121C191.264 97.6161 190.296 98.4961 188.624 98.9361C187.832 99.2001 186.864 99.2001 185.984 99.1121L185.632 99.0241H185.456L185.28 98.9361L184.84 98.8481C184.224 98.7601 183.696 98.5841 183.168 98.4961C182.024 98.2321 180.968 97.9681 179.912 97.6161C177.8 97.0001 175.776 96.2961 173.752 95.5921C169.704 94.0961 165.832 92.5121 161.872 90.6641L166.184 81.4241Z" fill="#F5C9B2"/>
<path d="M156.68 88.64C158.704 94.712 173.048 99.816 173.048 99.816L178.416 84.0641C178.416 84.0641 169.264 78.96 164.16 78.872C158.792 78.696 154.48 82.1281 156.68 88.64Z" fill="#F6AC3B"/>
<path d="M162.4 78.96C160.904 82.216 159.232 86.264 157.824 90.576C157.912 90.752 158 90.84 158.176 91.016C159.672 86.616 161.344 82.392 163.016 78.96C162.752 78.872 162.576 78.96 162.4 78.96Z" fill="white"/>
<path d="M168.209 79.576C166.273 83.624 164.161 88.992 162.312 94.536C162.401 94.624 162.577 94.712 162.665 94.8C164.513 89.1681 166.625 83.8 168.649 79.752C168.473 79.664 168.385 79.664 168.209 79.576Z" fill="white"/>
<path d="M172.961 81.3361C170.937 85.6481 168.737 91.2801 166.889 97.0881C166.977 97.1761 167.153 97.1761 167.241 97.2641C169.089 91.4561 171.289 85.8241 173.313 81.5121C173.225 81.4241 173.049 81.4241 172.961 81.3361Z" fill="white"/>
<path d="M177.184 83.36C175.16 87.76 173.048 93.392 171.288 99.112C171.464 99.2 171.552 99.2 171.728 99.288C173.488 93.656 175.6 88.024 177.624 83.624C177.448 83.448 177.36 83.448 177.184 83.36Z" fill="white"/>
<path opacity="0.2" d="M166.976 90.048L161.784 94.184C166.008 97.088 171.376 99.2 172.696 99.728C172.784 96.912 170.408 92.512 166.976 90.048Z" fill="black"/>
<path d="M193.904 75.792L200.064 73.152L197.512 66.376C197.512 66.376 195.224 67.256 193.376 69.72C192.584 70.776 192.408 72.184 192.848 73.416L193.904 75.792Z" fill="#F5C9B2"/>
<path d="M203.496 69.4561L202.528 62.7681L197.6 66.2881L200.064 73.0641L203.496 69.4561Z" fill="#F5C9B2"/>
<path opacity="0.2" d="M199.8 267.368L201.384 275.2L195.048 277.312L193.376 269.48L199.8 267.368Z" fill="black"/>
<path opacity="0.2" d="M146.384 275.376L153.072 275.464L152.808 283.384H146.12L146.384 275.376Z" fill="black"/>
<path d="M128.872 83.4481C127.904 83.7121 127.464 84.7681 127.816 85.6481C130.104 92.3361 131.864 99.1121 133.184 105.536C134.24 110.64 134.944 115.568 135.56 119.968C136.968 130.352 137.32 138.36 137.848 141.088C143.04 140.296 162.488 137.392 173.136 135.896C175.072 97.7041 164.248 78.8721 164.248 78.8721C164.248 78.8721 160.288 78.4321 155.624 78.5201C155.008 78.5201 154.392 78.5201 153.776 78.6081C149.728 78.8721 143.216 79.9281 138.728 80.8081C137.76 80.9841 136.88 81.2481 135.912 81.4241C133.184 82.0401 130.544 82.9201 128.872 83.4481Z" fill="#F6AC3B"/>
<path d="M128.344 87.232C135.824 83.976 153.952 81.16 165.392 81.16C165.304 80.984 165.216 80.896 165.216 80.72C153.776 80.72 135.736 83.536 128.168 86.792C128.256 86.968 128.344 87.056 128.344 87.232Z" fill="white"/>
<path d="M167.592 86.968C167.504 86.792 167.504 86.704 167.416 86.528C156.416 86.352 138.112 89.08 129.84 92.248C129.84 92.424 129.928 92.512 129.928 92.688C138.2 89.52 156.68 86.704 167.592 86.968Z" fill="white"/>
<path d="M169.352 92.688C169.352 92.512 169.264 92.424 169.264 92.248C158.528 91.896 140.136 94.624 131.512 97.792C131.512 97.968 131.6 98.056 131.6 98.232C140.136 95.064 158.704 92.336 169.352 92.688Z" fill="white"/>
<path d="M170.672 98.496C170.672 98.32 170.584 98.232 170.584 98.056C160.024 97.616 141.632 100.256 132.744 103.512C132.744 103.688 132.832 103.776 132.832 103.952C141.632 100.696 160.2 98.056 170.672 98.496Z" fill="white"/>
<path d="M171.728 104.216C171.728 104.04 171.64 103.952 171.64 103.776C161.168 103.336 142.776 105.976 133.888 109.144C133.888 109.32 133.976 109.408 133.976 109.584C142.776 106.416 161.256 103.776 171.728 104.216Z" fill="white"/>
<path d="M172.432 109.936C172.432 109.76 172.432 109.672 172.344 109.496C161.872 109.144 143.656 111.696 134.768 114.864C134.768 115.04 134.856 115.128 134.856 115.304C143.656 112.224 161.96 109.584 172.432 109.936Z" fill="white"/>
<path d="M172.96 115.656C172.96 115.48 172.96 115.392 172.96 115.216C162.312 114.952 144.36 117.592 135.648 120.672C135.648 120.848 135.648 120.936 135.736 121.112C144.272 118.032 162.312 115.392 172.96 115.656Z" fill="white"/>
<path d="M173.224 121.464C173.224 121.288 173.224 121.2 173.224 121.024C162.4 120.848 144.712 123.488 136.264 126.568C136.264 126.744 136.264 126.832 136.352 127.008C144.624 123.928 162.4 121.288 173.224 121.464Z" fill="white"/>
<path d="M173.312 127.184C173.312 127.008 173.312 126.92 173.312 126.744C162.224 126.744 144.888 129.384 136.88 132.464C136.88 132.64 136.88 132.728 136.88 132.904C144.8 129.824 162.224 127.184 173.312 127.184Z" fill="white"/>
<path d="M173.224 132.904C173.224 132.728 173.224 132.64 173.224 132.464C161.872 132.64 144.976 135.28 137.408 138.36C137.408 138.536 137.408 138.624 137.496 138.8C144.888 135.808 161.872 133.08 173.224 132.904Z" fill="white"/>
<path opacity="0.2" d="M136.968 92.864C137.848 99.816 136.352 105.448 133.8 108.616C133.624 107.648 133.448 106.592 133.184 105.536C132.392 101.664 131.512 97.704 130.368 93.744L136.968 92.864Z" fill="black"/>
<path d="M155.712 78.432C155.096 78.432 154.48 78.432 153.864 78.52C149.816 78.784 143.304 79.84 138.816 80.72C138.024 80.896 137.32 81.072 136.528 81.248L137.76 82.128C140.84 84.416 150.96 87.32 152.104 87.672L153.6 88.112L154.216 86.616C155.272 83.976 156.328 80.544 155.712 78.432Z" fill="white"/>
<path d="M137.848 63.6481C139.52 68.3121 141.808 77.0241 138.904 80.8081C141.72 83.0081 152.632 86.0881 152.632 86.0881C152.632 86.0881 155.096 80.1041 153.864 78.6081C148.32 78.0801 147.792 74.1201 148.232 70.2481L137.848 63.6481Z" fill="#F5C9B2"/>
<path opacity="0.2" d="M142.072 66.288L148.232 70.16C148.144 71.04 148.056 72.008 148.144 72.888C146.032 72.888 142.864 71.04 142.336 68.928C142.072 67.872 141.984 66.816 142.072 66.288Z" fill="black"/>
<path d="M146.56 48.248C147.352 46.752 150.432 46.84 151.576 49.92C152.808 53 150.52 57.136 150.52 57.136L146.56 48.248Z" fill="#263238"/>
<path d="M133.888 58.368C136.616 64.44 137.936 68.048 142.248 70.072C148.76 73.064 155.272 67.344 154.392 60.568C153.6 54.496 149.288 45.696 142.248 45.52C135.472 45.344 131.16 52.296 133.888 58.368Z" fill="#F5C9B2"/>
<path d="M135.12 63.384C136.792 62.24 139.256 60.656 139.256 60.656C139.256 60.656 140.576 55.992 136.44 53.088C138.64 52.648 155.448 48.776 149.2 43.584C141.016 36.632 132.128 48.16 127.816 46.488C127.816 46.488 127.552 48.6 130.016 49.656C127.992 49.744 123.152 55.024 128.168 57.576C133.184 60.128 135.12 63.384 135.12 63.384Z" fill="#263238"/>
<path d="M148.584 62.68C146.032 63.648 144.184 62.328 144.096 62.24C144.008 62.152 144.008 62.064 144.096 61.976C144.184 61.888 144.272 61.888 144.36 61.976C144.36 61.976 146.12 63.208 148.496 62.328C148.584 62.328 148.672 62.328 148.672 62.416C148.672 62.504 148.672 62.592 148.584 62.68Z" fill="#263238"/>
<path d="M132.568 64.352C133.8 65.672 135.472 66.288 136.968 66.288C139.168 66.288 139.696 64.176 138.64 62.416C137.672 60.832 135.296 58.808 133.36 59.688C131.424 60.48 131.248 62.856 132.568 64.352Z" fill="#F5C9B2"/>
<path d="M203.32 273L192.584 276.52C192.584 276.52 180.616 237.8 175.424 214.568C174.016 208.408 170.496 199.96 167.68 190.808C164.16 179.192 159.848 166.696 156.328 156.928C152.632 146.632 149.904 139.328 149.904 139.328L173.136 135.896C173.136 135.896 190.032 190.016 192.936 210.168C196.016 231.112 203.32 273 203.32 273Z" fill="#263238"/>
<path opacity="0.2" d="M167.68 190.72C164.16 179.104 159.848 166.608 156.328 156.84L158.352 151.472C164.688 157.896 167.856 179.104 167.68 190.72Z" fill="black"/>
<path d="M160.64 137.744C160.64 137.744 162.928 195.208 161.608 214.744C160.2 236.128 155.888 281.976 155.888 281.976L143.656 281.888C143.656 281.888 142.688 239.736 143.744 218.88C144.976 195.12 137.76 141.176 137.76 141.176L160.64 137.744Z" fill="#263238"/>
<path d="M156.68 282.152L142.336 282.064V277.752L158.44 277.576L156.68 282.152Z" fill="#407BFF"/>
<path d="M204.024 273L191.88 277.048L189.944 272.824L203.76 268.336L204.024 273Z" fill="#407BFF"/>
<path d="M143.92 56.52C144.096 57.048 144.536 57.312 144.888 57.224C145.24 57.136 145.328 56.608 145.152 56.08C144.976 55.5521 144.536 55.2881 144.184 55.3761C143.832 55.4641 143.744 55.9921 143.92 56.52Z" fill="#263238"/>
<path d="M149.64 54.32C149.816 54.848 150.256 55.112 150.608 55.024C150.96 54.936 151.048 54.408 150.872 53.88C150.696 53.352 150.256 53.088 149.904 53.176C149.552 53.264 149.376 53.792 149.64 54.32Z" fill="#263238"/>
<path d="M147.88 55.288C147.88 55.288 150.168 57.752 151.928 58.632C151.312 59.776 149.552 59.864 149.552 59.864L147.88 55.288Z" fill="#F0B89A"/>
<path d="M141.456 55.288C141.544 55.288 141.632 55.2 141.72 55.024C142.072 53.704 143.216 53.3519 143.216 53.3519C143.392 53.2639 143.48 53.0879 143.392 52.9999C143.304 52.8239 143.128 52.736 143.04 52.824C142.952 52.824 141.632 53.2639 141.104 54.9359C141.016 55.1119 141.192 55.288 141.28 55.288C141.368 55.376 141.368 55.376 141.456 55.288Z" fill="#263238"/>
<path d="M151.312 51.416C151.4 51.416 151.4 51.416 151.488 51.328C151.576 51.24 151.576 50.976 151.488 50.888C150.256 49.656 148.76 50.008 148.76 50.008C148.584 50.008 148.496 50.184 148.496 50.36C148.496 50.536 148.76 50.624 148.848 50.624C148.936 50.624 149.992 50.36 151.048 51.328C151.136 51.416 151.224 51.416 151.312 51.416Z" fill="#263238"/>
<path d="M155.624 291.304C156.152 291.304 156.592 291.216 156.944 290.952C157.208 290.776 157.296 290.512 157.296 290.16C157.296 289.896 157.12 289.808 157.032 289.72C156.328 289.368 154.128 290.6 153.864 290.776C153.776 290.776 153.776 290.864 153.776 290.952C153.776 291.04 153.864 291.04 153.864 291.04C154.304 291.216 155.008 291.304 155.624 291.304ZM156.592 289.984C156.68 289.984 156.768 289.984 156.768 289.984C156.768 289.984 156.856 290.072 156.856 290.16C156.856 290.424 156.768 290.6 156.68 290.776C156.328 291.04 155.448 291.128 154.304 290.864C155.096 290.424 156.152 289.984 156.592 289.984Z" fill="#407BFF"/>
<path d="M153.952 291.04C154.744 290.688 156.064 289.192 155.976 288.488C155.976 288.312 155.888 288.136 155.448 288.048C155.184 288.048 155.008 288.048 154.744 288.224C153.952 288.84 153.776 290.776 153.776 290.864C153.776 290.952 153.776 291.04 153.952 291.04C153.864 291.04 153.864 291.04 153.952 291.04ZM155.272 288.4C155.272 288.4 155.36 288.4 155.272 288.4C155.536 288.4 155.536 288.488 155.536 288.576C155.624 289.016 154.744 290.072 154.04 290.6C154.128 290.072 154.304 288.928 154.832 288.488C155.008 288.4 155.184 288.4 155.272 288.4Z" fill="#407BFF"/>
<path d="M203.848 282.328C204.992 282.152 206.84 281.888 207.368 281.008C207.544 280.744 207.544 280.48 207.368 280.216C207.28 280.04 207.192 279.952 207.016 279.864C206.136 279.688 204.024 281.8 203.76 282.064C203.672 282.152 203.672 282.152 203.76 282.24C203.76 282.328 203.76 282.328 203.848 282.328ZM206.928 280.128C207.016 280.128 207.104 280.216 207.104 280.304C207.192 280.48 207.192 280.656 207.104 280.832C206.84 281.272 205.784 281.712 204.288 281.976C205.168 281.096 206.4 280.128 206.928 280.128Z" fill="#407BFF"/>
<path d="M203.848 282.328H203.936C204.552 281.712 205.696 279.864 205.344 279.16C205.256 278.984 205.08 278.808 204.64 278.896C204.288 278.984 204.112 279.16 203.848 279.424C203.232 280.392 203.672 282.152 203.672 282.152C203.672 282.24 203.76 282.328 203.848 282.328ZM204.904 279.16C204.992 279.16 205.08 279.248 205.08 279.248C205.256 279.688 204.64 281.096 204.024 281.8C203.936 281.272 203.848 280.216 204.2 279.6C204.376 279.424 204.552 279.248 204.728 279.248C204.728 279.16 204.816 279.16 204.904 279.16Z" fill="#407BFF"/>
<path d="M136.616 93.04C135.384 94.888 134.064 96.912 132.832 98.936C131.6 100.96 130.368 102.984 129.224 105.008C126.936 109.056 124.736 113.28 123.328 117.328L123.152 117.68C123.152 117.768 123.064 118.032 123.064 117.856C123.064 117.768 123.064 117.68 123.064 117.68C123.064 117.68 123.064 117.856 123.064 118.12C123.152 118.736 123.592 119.528 124.12 120.408C125.176 122.168 126.584 123.928 128.08 125.688C131.072 129.208 134.504 132.64 137.936 135.984L134.944 140.032C130.544 137.392 126.496 134.576 122.536 131.056C120.6 129.296 118.664 127.448 116.992 125.16C116.112 124.016 115.32 122.696 114.616 120.936C114.264 120.056 114 119 114 117.768C114 117.152 114 116.448 114.176 115.744C114.264 115.304 114.264 115.304 114.352 115.04L114.528 114.512C115.232 111.872 116.112 109.408 117.168 106.944C118.136 104.568 119.28 102.192 120.512 99.992C121.656 97.704 122.976 95.504 124.296 93.392C125.616 91.192 126.936 89.168 128.52 86.968L136.616 93.04Z" fill="#F5C9B2"/>
<path d="M128.784 83.448C122.008 85.56 117.784 100.256 117.784 100.344L131.16 110.64C131.16 110.64 135.208 102.72 138.376 95.152C141.896 86.88 136.176 81.16 128.784 83.448Z" fill="#F6AC3B"/>
<path d="M139.52 90.1361C139.52 89.9601 139.52 89.7841 139.52 89.6081C136 86.9681 132.656 84.6801 129.928 83.1841C129.752 83.2721 129.488 83.2721 129.312 83.3601C132.128 84.8561 135.736 87.2321 139.52 90.1361Z" fill="white"/>
<path d="M124.12 87.1441C127.64 88.7281 132.744 92.1601 137.936 96.2961C138.024 96.1201 138.024 96.0321 138.112 95.8561C132.92 91.8081 127.904 88.3761 124.384 86.7921C124.296 86.8801 124.208 87.0561 124.12 87.1441Z" fill="white"/>
<path d="M135.472 101.752C135.56 101.576 135.56 101.488 135.648 101.312C130.28 97.0001 125 93.3921 121.304 91.5441C121.216 91.6321 121.128 91.8081 121.128 91.8961C124.824 93.8321 130.192 97.5281 135.472 101.752Z" fill="white"/>
<path d="M132.92 107.208C133.008 107.032 133.008 106.944 133.096 106.856C127.992 102.72 122.888 99.0241 119.016 96.9121C118.928 97.0881 118.928 97.1761 118.84 97.3521C122.712 99.3761 127.816 103.072 132.92 107.208Z" fill="white"/>
<path d="M135.736 135.456L142.512 135.104L139.344 143.024C139.344 143.024 133.536 142.056 133.712 138.888L135.736 135.456Z" fill="#F5C9B2"/>
<path d="M147.088 138.272L144.184 144.696L139.344 143.024L142.512 135.104L147.088 138.272Z" fill="#F5C9B2"/>
<path d="M347.455 270.241H264.614V278.532H347.455V270.241Z" fill="#0053CC"/>
<g opacity="0.2">
<path opacity="0.2" d="M268.795 271.426H266.74V277.348H268.795V271.426Z" fill="#0F264C"/>
<path opacity="0.2" d="M272.48 271.426H270.425V277.348H272.48V271.426Z" fill="#0F264C"/>
<path opacity="0.2" d="M276.094 271.426H274.039V277.348H276.094V271.426Z" fill="#0F264C"/>
<path opacity="0.2" d="M279.708 271.426H277.653V277.348H279.708V271.426Z" fill="#0F264C"/>
<path opacity="0.2" d="M283.394 271.426H281.339V277.348H283.394V271.426Z" fill="#0F264C"/>
<path opacity="0.2" d="M287.007 271.426H284.952V277.348H287.007V271.426Z" fill="#0F264C"/>
<path opacity="0.2" d="M290.693 271.426H288.638V277.348H290.693V271.426Z" fill="#0F264C"/>
<path opacity="0.2" d="M294.307 271.426H292.252V277.348H294.307V271.426Z" fill="#0F264C"/>
<path opacity="0.2" d="M297.992 271.426H295.937V277.348H297.992V271.426Z" fill="#0F264C"/>
<path opacity="0.2" d="M301.606 271.426H299.551V277.348H301.606V271.426Z" fill="#0F264C"/>
<path opacity="0.2" d="M305.22 271.426H303.165V277.348H305.22V271.426Z" fill="#0F264C"/>
<path opacity="0.2" d="M308.905 271.426H306.85V277.348H308.905V271.426Z" fill="#0F264C"/>
<path opacity="0.2" d="M312.519 271.426H310.464V277.348H312.519V271.426Z" fill="#0F264C"/>
<path opacity="0.2" d="M316.204 271.426H314.149V277.348H316.204V271.426Z" fill="#0F264C"/>
<path opacity="0.2" d="M319.818 271.426H317.763V277.348H319.818V271.426Z" fill="#0F264C"/>
<path opacity="0.2" d="M323.503 271.426H321.448V277.348H323.503V271.426Z" fill="#0F264C"/>
<path opacity="0.2" d="M327.118 271.426H325.062V277.348H327.118V271.426Z" fill="#0F264C"/>
<path opacity="0.2" d="M330.732 271.426H328.677V277.348H330.732V271.426Z" fill="#0F264C"/>
<path opacity="0.2" d="M334.416 271.426H332.361V277.348H334.416V271.426Z" fill="#0F264C"/>
<path opacity="0.2" d="M338.031 271.426H335.976V277.348H338.031V271.426Z" fill="#0F264C"/>
<path opacity="0.2" d="M341.715 271.426H339.66V277.348H341.715V271.426Z" fill="#0F264C"/>
<path opacity="0.2" d="M345.329 271.426H343.274V277.348H345.329V271.426Z" fill="#0F264C"/>
</g>
<path d="M347.505 278.561H360.402V270.27H347.505V278.561Z" fill="#0050AF"/>
<path d="M347.456 123.247H260.292V270.241H347.456V123.247Z" fill="#4EA4F9"/>
<path d="M359.007 122H266.032V123.247H359.007V122Z" fill="#0D6AB7"/>
<path d="M257.528 191.757H256.819V197.928H257.528V191.757Z" fill="#197BDD"/>
<path d="M257.528 200.048H256.819V216.131H257.528V200.048Z" fill="#197BDD"/>
<path d="M347.494 270.273H364.714V123.278H347.494V270.273Z" fill="#197BDD"/>
<path opacity="0.6" d="M343.132 176.733H264.614C263.338 176.733 262.275 175.798 262.275 174.676V164.141C262.275 163.019 263.338 162.084 264.614 162.084H343.132C344.408 162.084 345.471 163.019 345.471 164.141V174.676C345.471 175.798 344.408 176.733 343.132 176.733Z" fill="#0D6AB7"/>
<path d="M338.456 167.507L335.125 161.398V177.481H338.597H339.519H345.471V169.44H341.999C340.511 169.44 339.093 168.692 338.456 167.507Z" fill="#197BDD"/>
<path d="M345.471 125.055H262.347V141.138H345.471V125.055Z" fill="#2B97EF"/>
<path d="M345.471 252.288H262.347V268.371H345.471V252.288Z" fill="#2B97EF"/>
<path d="M345.471 234.085H262.347V250.168H345.471V234.085Z" fill="#2B97EF"/>
<path d="M345.471 215.944H262.347V232.028H345.471V215.944Z" fill="#2B97EF"/>
<path d="M345.471 197.741H262.347V213.825H345.471V197.741Z" fill="#2B97EF"/>
<path d="M345.471 179.601H262.347V195.684H345.471V179.601Z" fill="#2B97EF"/>
<path d="M335.125 161.398H252V177.481H335.125V161.398Z" fill="#2B97EF"/>
<path d="M345.471 143.195H262.347V159.278H345.471V143.195Z" fill="#2B97EF"/>
<path d="M340.298 138.831H308.692C307.204 138.831 305.999 137.772 305.999 136.463V129.668C305.999 128.359 307.204 127.299 308.692 127.299H340.298C341.786 127.299 342.991 128.359 342.991 129.668V136.463C342.92 137.772 341.715 138.831 340.298 138.831Z" fill="#197BDD"/>
<path opacity="0.2" d="M325.558 133.533V132.598C325.558 132.036 326.054 131.6 326.691 131.6H336.967C337.605 131.6 338.101 132.036 338.101 132.598V133.533C338.101 134.094 337.605 134.53 336.967 134.53H326.691C326.054 134.53 325.558 134.094 325.558 133.533Z" fill="white"/>
<path d="M340.298 157.034H308.692C307.204 157.034 305.999 155.975 305.999 154.665V147.871C305.999 146.561 307.204 145.502 308.692 145.502H340.298C341.786 145.502 342.991 146.561 342.991 147.871V154.665C342.92 155.975 341.715 157.034 340.298 157.034Z" fill="#197BDD"/>
<path opacity="0.2" d="M325.558 151.736V150.801C325.558 150.239 326.054 149.803 326.691 149.803H336.967C337.605 149.803 338.101 150.239 338.101 150.801V151.736C338.101 152.297 337.605 152.733 336.967 152.733H326.691C326.054 152.733 325.558 152.297 325.558 151.736Z" fill="white"/>
<path d="M329.952 175.175H298.346C296.858 175.175 295.653 174.115 295.653 172.806V166.011C295.653 164.702 296.858 163.642 298.346 163.642H329.952C331.44 163.642 332.645 164.702 332.645 166.011V172.806C332.574 174.115 331.369 175.175 329.952 175.175Z" fill="#197BDD"/>
<path opacity="0.2" d="M315.212 169.938V169.003C315.212 168.442 315.708 168.006 316.346 168.006H326.621C327.259 168.006 327.755 168.442 327.755 169.003V169.938C327.755 170.499 327.259 170.936 326.621 170.936H316.346C315.708 170.936 315.212 170.499 315.212 169.938Z" fill="white"/>
<path d="M340.298 193.378H308.692C307.204 193.378 305.999 192.318 305.999 191.009V184.214C305.999 182.905 307.204 181.845 308.692 181.845H340.298C341.786 181.845 342.991 182.905 342.991 184.214V191.009C342.92 192.318 341.715 193.378 340.298 193.378Z" fill="#197BDD"/>
<path opacity="0.2" d="M325.558 188.079V187.144C325.558 186.583 326.054 186.146 326.691 186.146H336.967C337.605 186.146 338.101 186.583 338.101 187.144V188.079C338.101 188.64 337.605 189.076 336.967 189.076H326.691C326.054 189.076 325.558 188.64 325.558 188.079Z" fill="white"/>
<path d="M340.298 211.58H308.692C307.204 211.58 305.999 210.521 305.999 209.212V202.417C305.999 201.108 307.204 200.048 308.692 200.048H340.298C341.786 200.048 342.991 201.108 342.991 202.417V209.212C342.92 210.521 341.715 211.58 340.298 211.58Z" fill="#197BDD"/>
<path opacity="0.2" d="M325.558 206.282V205.347C325.558 204.786 326.054 204.349 326.691 204.349H336.967C337.605 204.349 338.101 204.786 338.101 205.347V206.282C338.101 206.843 337.605 207.279 336.967 207.279H326.691C326.054 207.279 325.558 206.843 325.558 206.282Z" fill="white"/>
<path d="M340.298 229.721H308.692C307.204 229.721 305.999 228.661 305.999 227.352V220.557C305.999 219.248 307.204 218.188 308.692 218.188H340.298C341.786 218.188 342.991 219.248 342.991 220.557V227.352C342.92 228.661 341.715 229.721 340.298 229.721Z" fill="#197BDD"/>
<path opacity="0.2" d="M325.558 224.485V223.55C325.558 222.988 326.054 222.552 326.691 222.552H336.967C337.605 222.552 338.101 222.988 338.101 223.55V224.485C338.101 225.046 337.605 225.482 336.967 225.482H326.691C326.054 225.482 325.558 224.983 325.558 224.485Z" fill="white"/>
<path d="M340.298 247.924H308.692C307.204 247.924 305.999 246.864 305.999 245.555V238.76C305.999 237.451 307.204 236.391 308.692 236.391H340.298C341.786 236.391 342.991 237.451 342.991 238.76V245.555C342.92 246.864 341.715 247.924 340.298 247.924Z" fill="#197BDD"/>
<path opacity="0.2" d="M325.558 242.625V241.69C325.558 241.129 326.054 240.693 326.691 240.693H336.967C337.605 240.693 338.101 241.129 338.101 241.69V242.625C338.101 243.186 337.605 243.623 336.967 243.623H326.691C326.054 243.623 325.558 243.186 325.558 242.625Z" fill="white"/>
<path d="M340.298 266.064H308.692C307.204 266.064 305.999 265.005 305.999 263.696V256.901C305.999 255.592 307.204 254.532 308.692 254.532H340.298C341.786 254.532 342.991 255.592 342.991 256.901V263.696C342.92 265.005 341.715 266.064 340.298 266.064Z" fill="#197BDD"/>
<path opacity="0.2" d="M325.558 260.828V259.893C325.558 259.332 326.054 258.896 326.691 258.896H336.967C337.605 258.896 338.101 259.332 338.101 259.893V260.828C338.101 261.389 337.605 261.826 336.967 261.826H326.691C326.054 261.826 325.558 261.389 325.558 260.828Z" fill="white"/>
<path d="M299.551 134.966C300.725 134.966 301.677 134.129 301.677 133.096C301.677 132.063 300.725 131.226 299.551 131.226C298.377 131.226 297.425 132.063 297.425 133.096C297.425 134.129 298.377 134.966 299.551 134.966Z" fill="#197BDD"/>
<path d="M293.527 134.966C294.701 134.966 295.653 134.129 295.653 133.096C295.653 132.063 294.701 131.226 293.527 131.226C292.353 131.226 291.401 132.063 291.401 133.096C291.401 134.129 292.353 134.966 293.527 134.966Z" fill="#197BDD"/>
<path d="M287.504 134.966C288.678 134.966 289.63 134.129 289.63 133.096C289.63 132.063 288.678 131.226 287.504 131.226C286.33 131.226 285.378 132.063 285.378 133.096C285.378 134.129 286.33 134.966 287.504 134.966Z" fill="#64B9FF"/>
<path d="M283.535 133.096C283.535 134.094 282.614 134.966 281.409 134.966C280.275 134.966 279.283 134.156 279.283 133.096C279.283 132.099 280.204 131.226 281.409 131.226C282.614 131.226 283.535 132.036 283.535 133.096Z" fill="#197BDD"/>
<path d="M299.551 153.169C300.725 153.169 301.677 152.332 301.677 151.299C301.677 150.266 300.725 149.429 299.551 149.429C298.377 149.429 297.425 150.266 297.425 151.299C297.425 152.332 298.377 153.169 299.551 153.169Z" fill="#197BDD"/>
<path d="M293.527 153.169C294.701 153.169 295.653 152.332 295.653 151.299C295.653 150.266 294.701 149.429 293.527 149.429C292.353 149.429 291.401 150.266 291.401 151.299C291.401 152.332 292.353 153.169 293.527 153.169Z" fill="#197BDD"/>
<path d="M287.504 153.169C288.678 153.169 289.63 152.332 289.63 151.299C289.63 150.266 288.678 149.429 287.504 149.429C286.33 149.429 285.378 150.266 285.378 151.299C285.378 152.332 286.33 153.169 287.504 153.169Z" fill="#197BDD"/>
<path d="M283.535 151.299C283.535 152.297 282.614 153.169 281.409 153.169C280.275 153.169 279.283 152.359 279.283 151.299C279.283 150.302 280.204 149.429 281.409 149.429C282.614 149.429 283.535 150.239 283.535 151.299Z" fill="#64B9FF"/>
<path d="M289.204 171.31C290.378 171.31 291.33 170.473 291.33 169.44C291.33 168.407 290.378 167.57 289.204 167.57C288.03 167.57 287.078 168.407 287.078 169.44C287.078 170.473 288.03 171.31 289.204 171.31Z" fill="#64B9FF"/>
<path d="M283.181 171.31C284.355 171.31 285.307 170.473 285.307 169.44C285.307 168.407 284.355 167.57 283.181 167.57C282.007 167.57 281.055 168.407 281.055 169.44C281.055 170.473 282.007 171.31 283.181 171.31Z" fill="#197BDD"/>
<path d="M277.157 171.31C278.331 171.31 279.283 170.473 279.283 169.44C279.283 168.407 278.331 167.57 277.157 167.57C275.983 167.57 275.031 168.407 275.031 169.44C275.031 170.473 275.983 171.31 277.157 171.31Z" fill="#64B9FF"/>
<path d="M271.134 171.31C272.308 171.31 273.26 170.473 273.26 169.44C273.26 168.407 272.308 167.57 271.134 167.57C269.96 167.57 269.008 168.407 269.008 169.44C269.008 170.473 269.96 171.31 271.134 171.31Z" fill="#197BDD"/>
<path d="M299.551 189.513C300.725 189.513 301.677 188.675 301.677 187.642C301.677 186.61 300.725 185.772 299.551 185.772C298.377 185.772 297.425 186.61 297.425 187.642C297.425 188.675 298.377 189.513 299.551 189.513Z" fill="#64B9FF"/>
<path d="M293.527 189.513C294.701 189.513 295.653 188.675 295.653 187.642C295.653 186.61 294.701 185.772 293.527 185.772C292.353 185.772 291.401 186.61 291.401 187.642C291.401 188.675 292.353 189.513 293.527 189.513Z" fill="#64B9FF"/>
<path d="M287.504 189.513C288.678 189.513 289.63 188.675 289.63 187.642C289.63 186.61 288.678 185.772 287.504 185.772C286.33 185.772 285.378 186.61 285.378 187.642C285.378 188.675 286.33 189.513 287.504 189.513Z" fill="#197BDD"/>
<path d="M283.535 187.642C283.535 188.64 282.614 189.513 281.409 189.513C280.275 189.513 279.283 188.702 279.283 187.642C279.283 186.583 280.204 185.772 281.409 185.772C282.614 185.772 283.535 186.583 283.535 187.642Z" fill="#197BDD"/>
<path d="M299.551 207.653C300.725 207.653 301.677 206.816 301.677 205.783C301.677 204.75 300.725 203.913 299.551 203.913C298.377 203.913 297.425 204.75 297.425 205.783C297.425 206.816 298.377 207.653 299.551 207.653Z" fill="#197BDD"/>
<path d="M293.527 207.653C294.701 207.653 295.653 206.816 295.653 205.783C295.653 204.75 294.701 203.913 293.527 203.913C292.353 203.913 291.401 204.75 291.401 205.783C291.401 206.816 292.353 207.653 293.527 207.653Z" fill="#64B9FF"/>
<path d="M287.504 207.653C288.678 207.653 289.63 206.816 289.63 205.783C289.63 204.75 288.678 203.913 287.504 203.913C286.33 203.913 285.378 204.75 285.378 205.783C285.378 206.816 286.33 207.653 287.504 207.653Z" fill="#197BDD"/>
<path d="M283.535 205.783C283.535 206.78 282.614 207.653 281.409 207.653C280.275 207.653 279.283 206.843 279.283 205.783C279.283 204.786 280.204 203.913 281.409 203.913C282.614 203.975 283.535 204.786 283.535 205.783Z" fill="#197BDD"/>
<path d="M299.551 225.856C300.725 225.856 301.677 225.019 301.677 223.986C301.677 222.953 300.725 222.116 299.551 222.116C298.377 222.116 297.425 222.953 297.425 223.986C297.425 225.019 298.377 225.856 299.551 225.856Z" fill="#197BDD"/>
<path d="M293.527 225.856C294.701 225.856 295.653 225.019 295.653 223.986C295.653 222.953 294.701 222.116 293.527 222.116C292.353 222.116 291.401 222.953 291.401 223.986C291.401 225.019 292.353 225.856 293.527 225.856Z" fill="#197BDD"/>
<path d="M287.504 225.856C288.678 225.856 289.63 225.019 289.63 223.986C289.63 222.953 288.678 222.116 287.504 222.116C286.33 222.116 285.378 222.953 285.378 223.986C285.378 225.019 286.33 225.856 287.504 225.856Z" fill="#64B9FF"/>
<path d="M283.535 223.986C283.535 224.983 282.614 225.856 281.409 225.856C280.275 225.856 279.283 225.046 279.283 223.986C279.283 222.926 280.204 222.116 281.409 222.116C282.614 222.116 283.535 222.926 283.535 223.986Z" fill="#64B9FF"/>
<path d="M301.677 242.189C301.677 243.186 300.755 244.059 299.551 244.059C298.346 244.059 297.425 243.249 297.425 242.189C297.425 241.191 298.346 240.319 299.551 240.319C300.755 240.319 301.677 241.129 301.677 242.189Z" fill="#64B9FF"/>
<path d="M295.653 242.189C295.653 243.186 294.732 244.059 293.527 244.059C292.393 244.059 291.401 243.249 291.401 242.189C291.401 241.191 292.323 240.319 293.527 240.319C294.732 240.319 295.653 241.129 295.653 242.189Z" fill="#197BDD"/>
<path d="M289.63 242.189C289.63 243.186 288.709 244.059 287.504 244.059C286.37 244.059 285.378 243.249 285.378 242.189C285.378 241.191 286.299 240.319 287.504 240.319C288.638 240.319 289.63 241.129 289.63 242.189Z" fill="#197BDD"/>
<path d="M283.535 242.189C283.535 243.186 282.614 244.059 281.409 244.059C280.275 244.059 279.283 243.249 279.283 242.189C279.283 241.191 280.204 240.319 281.409 240.319C282.614 240.319 283.535 241.129 283.535 242.189Z" fill="#197BDD"/>
<path d="M299.551 262.2C300.725 262.2 301.677 261.362 301.677 260.329C301.677 259.297 300.725 258.459 299.551 258.459C298.377 258.459 297.425 259.297 297.425 260.329C297.425 261.362 298.377 262.2 299.551 262.2Z" fill="#197BDD"/>
<path d="M293.527 262.2C294.701 262.2 295.653 261.362 295.653 260.329C295.653 259.297 294.701 258.459 293.527 258.459C292.353 258.459 291.401 259.297 291.401 260.329C291.401 261.362 292.353 262.2 293.527 262.2Z" fill="#197BDD"/>
<path d="M287.504 262.2C288.678 262.2 289.63 261.362 289.63 260.329C289.63 259.297 288.678 258.459 287.504 258.459C286.33 258.459 285.378 259.297 285.378 260.329C285.378 261.362 286.33 262.2 287.504 262.2Z" fill="#64B9FF"/>
<path d="M283.535 260.329C283.535 261.327 282.614 262.2 281.409 262.2C280.275 262.2 279.283 261.389 279.283 260.329C279.283 259.27 280.204 258.459 281.409 258.459C282.614 258.459 283.535 259.332 283.535 260.329Z" fill="#197BDD"/>
<path opacity="0.2" d="M275.102 133.096C275.102 135.341 273.047 137.148 270.496 137.148C267.945 137.148 265.89 135.341 265.89 133.096C265.89 130.852 267.945 129.044 270.496 129.044C273.118 129.044 275.102 130.852 275.102 133.096Z" fill="white"/>
<path opacity="0.2" d="M275.102 151.299C275.102 153.543 273.047 155.351 270.496 155.351C267.945 155.351 265.89 153.543 265.89 151.299C265.89 149.055 267.945 147.247 270.496 147.247C273.118 147.247 275.102 149.055 275.102 151.299Z" fill="white"/>
<path opacity="0.2" d="M264.755 169.44C264.755 171.684 262.7 173.492 260.149 173.492C257.598 173.492 255.543 171.684 255.543 169.44C255.543 167.196 257.598 165.388 260.149 165.388C262.771 165.45 264.755 167.196 264.755 169.44Z" fill="white"/>
<path opacity="0.2" d="M275.102 187.643C275.102 189.887 273.047 191.695 270.496 191.695C267.945 191.695 265.89 189.887 265.89 187.643C265.89 185.398 267.945 183.591 270.496 183.591C273.118 183.591 275.102 185.398 275.102 187.643Z" fill="white"/>
<path opacity="0.2" d="M275.102 205.783C275.102 208.027 273.047 209.835 270.496 209.835C267.945 209.835 265.89 208.027 265.89 205.783C265.89 203.539 267.945 201.731 270.496 201.731C273.118 201.793 275.102 203.601 275.102 205.783Z" fill="white"/>
<path opacity="0.2" d="M275.102 223.986C275.102 226.23 273.047 228.038 270.496 228.038C267.945 228.038 265.89 226.23 265.89 223.986C265.89 221.742 267.945 219.934 270.496 219.934C273.118 219.934 275.102 221.742 275.102 223.986Z" fill="white"/>
<path opacity="0.2" d="M275.102 242.189C275.102 244.433 273.047 246.241 270.496 246.241C267.945 246.241 265.89 244.433 265.89 242.189C265.89 239.945 267.945 238.137 270.496 238.137C273.118 238.137 275.102 239.945 275.102 242.189Z" fill="white"/>
<path opacity="0.2" d="M275.102 260.329C275.102 262.574 273.047 264.381 270.496 264.381C267.945 264.381 265.89 262.574 265.89 260.329C265.89 258.085 267.945 256.277 270.496 256.277C273.118 256.34 275.102 258.085 275.102 260.329Z" fill="white"/>
</g>
<defs>
<clipPath id="clip0">
<rect width="406" height="300" fill="white"/>
</clipPath>
</defs>
</svg>
