<svg width="407" height="300" viewBox="0 0 407 300" fill="none" xmlns="http://www.w3.org/2000/svg">
<g clip-path="url(#clip0)">
<path d="M81.7453 315.161C148.804 350.936 257.627 350.936 324.686 315.161C391.745 279.386 391.745 221.31 324.686 185.456C257.627 149.681 148.804 149.681 81.7453 185.456C14.6865 221.31 14.6865 279.386 81.7453 315.161Z" fill="#64B9FF"/>
<path d="M201.128 266.935L250.141 295.146C250.693 295.461 251.638 295.461 252.19 295.146L338.949 245.029C339.5 244.714 339.5 244.162 338.949 243.847L289.935 215.636C289.384 215.321 288.438 215.321 287.886 215.636L201.128 265.753C200.576 266.068 200.576 266.62 201.128 266.935Z" fill="#64B9FF"/>
<path d="M350.926 281.592C350.769 280.331 349.272 279.701 348.405 279.228L314.915 259.843C313.418 258.976 311.605 258.976 310.108 259.843L276.618 279.149C275.594 279.701 274.018 280.804 274.018 282.065C274.018 283.325 274.884 283.641 276.539 284.586C278.194 285.532 309.793 303.813 309.793 303.813C311.448 304.759 313.575 304.759 315.23 303.813L349.508 284.192C350.69 283.247 351.005 282.38 350.926 281.592Z" fill="#64B9FF"/>
<path d="M236.588 182.225L244.468 177.655C245.413 177.103 246.911 177.103 247.856 177.655L297.343 206.259" stroke="#F8C16C" stroke-miterlimit="10"/>
<path d="M233.436 180.334L244.546 173.951C245.492 173.4 246.989 173.4 247.935 173.951L300.652 204.368" stroke="#F8C16C" stroke-miterlimit="10"/>
<path d="M303.804 202.556L247.856 170.248C246.911 169.696 245.413 169.696 244.468 170.248L230.205 178.522" stroke="#F8C16C" stroke-miterlimit="10"/>
<path d="M307.035 200.664L247.935 166.544C246.989 165.992 245.492 165.992 244.546 166.544L227.053 176.63" stroke="#F8C16C" stroke-miterlimit="10"/>
<path d="M186.865 15.0109L135.881 44.482C134.935 45.0336 134.147 46.3733 134.147 47.4765V187.662C134.147 188.765 134.935 190.104 135.881 190.656L186.865 220.127C187.81 220.679 189.307 220.679 190.253 220.127L241.237 190.656C242.182 190.104 242.97 188.765 242.97 187.662V47.4765C242.97 46.3733 242.182 45.0336 241.237 44.482L190.253 15.0109C189.386 14.538 187.81 14.538 186.865 15.0109Z" fill="#3E8CD9"/>
<path d="M242.97 47.4771V187.662C242.97 188.766 242.182 190.105 241.237 190.657L190.253 220.128C189.78 220.443 189.15 220.522 188.52 220.522V76.3179C189.15 76.3179 189.78 76.1603 190.253 75.9239L241.237 46.4527L241.71 46.0587L242.34 45.5859C242.734 46.1375 242.97 46.8467 242.97 47.4771Z" fill="#3E8CD9"/>
<path d="M142.264 61.2669L180.482 83.3309C181.427 83.8825 182.215 85.2221 182.215 86.3253V100.903C182.215 102.006 181.427 102.4 180.482 101.928L142.264 79.8637C141.318 79.3121 140.53 77.9725 140.53 76.8693V62.2913C140.609 61.1093 141.318 60.7153 142.264 61.2669Z" fill="#455A64"/>
<path d="M143.761 67.6498C143.761 68.6742 144.549 69.935 145.494 70.4866L177.33 88.847C178.275 89.3986 179.063 89.0046 179.063 87.9802C179.063 86.9558 178.275 85.695 177.33 85.1434L145.494 66.783C144.549 66.2314 143.761 66.6254 143.761 67.6498Z" fill="#F8C16C"/>
<path d="M143.761 75.057C143.761 76.0814 144.549 77.3422 145.494 77.8938L177.33 96.2542C178.275 96.8058 179.063 96.4118 179.063 95.3874C179.063 94.363 178.275 93.1022 177.33 92.5506L145.494 74.1902C144.549 73.6386 143.761 74.0326 143.761 75.057Z" fill="#3E8CD9"/>
<path d="M145.494 74.1902L162.988 84.2766V87.9802L145.494 77.8938C144.549 77.3422 143.761 76.0814 143.761 75.057C143.761 74.0326 144.549 73.6386 145.494 74.1902Z" fill="#F8C16C"/>
<path d="M142.264 87.1134L180.482 109.177C181.427 109.729 182.215 111.069 182.215 112.172V126.75C182.215 127.853 181.427 128.247 180.482 127.774L142.264 105.71C141.318 105.159 140.53 103.819 140.53 102.716V88.1378C140.609 87.0346 141.318 86.5618 142.264 87.1134Z" fill="#455A64"/>
<path d="M143.761 93.4963C143.761 94.5207 144.549 95.7815 145.494 96.3331L177.33 114.693C178.275 115.245 179.063 114.851 179.063 113.827C179.063 112.802 178.275 111.541 177.33 110.99L145.494 92.6295C144.549 92.1567 143.761 92.4719 143.761 93.4963Z" fill="#F8C16C"/>
<path d="M143.761 100.903C143.761 101.928 144.549 103.188 145.494 103.74L177.33 122.1C178.275 122.652 179.063 122.258 179.063 121.234C179.063 120.209 178.275 118.948 177.33 118.397L145.494 100.036C144.549 99.4848 143.761 99.8788 143.761 100.903Z" fill="#3E8CD9"/>
<path d="M145.494 100.036L172.602 115.718V119.421L145.494 103.74C144.549 103.188 143.761 101.928 143.761 100.903C143.761 99.8788 144.549 99.4848 145.494 100.036Z" fill="#F8C16C"/>
<path d="M142.264 112.96L180.482 135.024C181.427 135.576 182.215 136.915 182.215 138.018V152.596C182.215 153.7 181.427 154.094 180.482 153.621L142.264 131.557C141.318 131.005 140.53 129.666 140.53 128.562V113.984C140.609 112.881 141.318 112.487 142.264 112.96Z" fill="#455A64"/>
<path d="M143.761 119.422C143.761 120.446 144.549 121.707 145.494 122.259L177.33 140.619C178.275 141.171 179.063 140.777 179.063 139.752C179.063 138.728 178.275 137.467 177.33 136.915L145.494 118.555C144.549 118.003 143.761 118.397 143.761 119.422Z" fill="#F8C16C"/>
<path d="M143.761 126.828C143.761 127.853 144.549 129.114 145.494 129.665L177.33 148.026C178.275 148.577 179.063 148.183 179.063 147.159C179.063 146.134 178.275 144.874 177.33 144.322L145.494 125.962C144.549 125.41 143.761 125.804 143.761 126.828Z" fill="#3E8CD9"/>
<path d="M145.494 125.962L156.605 132.344V136.048L145.494 129.665C144.549 129.114 143.761 127.853 143.761 126.828C143.761 125.804 144.549 125.41 145.494 125.962Z" fill="#F8C16C"/>
<path d="M142.264 138.885L180.482 160.949C181.427 161.501 182.215 162.84 182.215 163.943V178.521C182.215 179.625 181.427 180.019 180.482 179.546L142.264 157.482C141.318 156.93 140.53 155.591 140.53 154.487V139.909C140.609 138.727 141.318 138.333 142.264 138.885Z" fill="#455A64"/>
<path d="M143.761 145.268C143.761 146.292 144.549 147.553 145.494 148.105L177.33 166.465C178.275 167.017 179.063 166.623 179.063 165.598C179.063 164.574 178.275 163.313 177.33 162.762L145.494 144.401C144.549 143.85 143.761 144.244 143.761 145.268Z" fill="#F8C16C"/>
<path d="M143.761 152.675C143.761 153.7 144.549 154.96 145.494 155.512L177.33 173.872C178.275 174.424 179.063 174.03 179.063 173.006C179.063 171.981 178.275 170.72 177.33 170.169L145.494 151.808C144.549 151.257 143.761 151.651 143.761 152.675Z" fill="#3E8CD9"/>
<path d="M145.494 151.808L162.988 161.895V165.598L145.494 155.512C144.549 154.96 143.761 153.7 143.761 152.675C143.761 151.651 144.549 151.257 145.494 151.808Z" fill="#F8C16C"/>
<path d="M142.264 164.732L180.482 186.796C181.427 187.347 182.215 188.687 182.215 189.79V204.368C182.215 205.471 181.427 205.865 180.482 205.392L142.264 183.328C141.318 182.777 140.53 181.437 140.53 180.334V165.756C140.609 164.653 141.318 164.18 142.264 164.732Z" fill="#455A64"/>
<path d="M143.761 171.114C143.761 172.139 144.549 173.4 145.494 173.951L177.33 192.312C178.275 192.863 179.063 192.469 179.063 191.445C179.063 190.42 178.275 189.16 177.33 188.608L145.494 170.248C144.549 169.775 143.761 170.09 143.761 171.114Z" fill="#F8C16C"/>
<path d="M143.761 178.521C143.761 179.546 144.549 180.807 145.494 181.358L177.33 199.719C178.275 200.27 179.063 199.876 179.063 198.852C179.063 197.827 178.275 196.567 177.33 196.015L145.494 177.655C144.549 177.103 143.761 177.497 143.761 178.521Z" fill="#3E8CD9"/>
<path d="M145.494 177.655L169.371 191.445V195.148L145.494 181.358C144.549 180.807 143.761 179.546 143.761 178.521C143.761 177.497 144.549 177.103 145.494 177.655Z" fill="#F8C16C"/>
<path d="M196.557 85.2217C198.291 84.1973 199.788 85.1429 199.788 87.2705V171.823C199.788 174.029 198.369 176.63 196.557 177.654C194.823 178.678 193.326 177.733 193.326 175.605V91.0529C193.405 88.8465 194.823 86.2461 196.557 85.2217Z" fill="#3E8CD9"/>
<path d="M196.557 175.763C197.424 175.29 198.133 173.951 198.133 172.848V88.0587C198.133 86.9555 197.424 86.4827 196.557 87.0343C195.691 87.5071 194.981 88.8467 194.981 89.9499V174.739C194.981 175.763 195.691 176.236 196.557 175.763Z" fill="#3E8CD9"/>
<path d="M196.557 175.763C197.424 175.29 198.133 173.951 198.133 172.847V132.344L194.902 134.157V174.66C194.981 175.763 195.69 176.236 196.557 175.763Z" fill="#F8C16C"/>
<path d="M206.17 79.7061C207.904 78.6817 209.401 79.6273 209.401 81.7549V166.307C209.401 168.514 207.983 171.114 206.17 172.138C204.437 173.163 202.939 172.217 202.939 170.09V85.5373C203.018 83.3309 204.437 80.7305 206.17 79.7061Z" fill="#3E8CD9"/>
<path d="M206.171 170.247C207.038 169.774 207.747 168.435 207.747 167.331V82.5426C207.747 81.4394 207.038 80.9666 206.171 81.5182C205.304 81.991 204.595 83.3306 204.595 84.4338V169.223C204.595 170.247 205.304 170.72 206.171 170.247Z" fill="#F8C16C"/>
<path d="M215.785 74.1114C217.518 73.087 219.015 74.0326 219.015 76.1602V160.713C219.015 162.919 217.597 165.519 215.785 166.544C214.051 167.568 212.554 166.623 212.554 164.495V79.9426C212.554 77.7362 214.051 75.1358 215.785 74.1114Z" fill="#3E8CD9"/>
<path d="M215.784 164.652C216.651 164.18 217.36 162.84 217.36 161.737V76.9479C217.36 75.8447 216.651 75.3719 215.784 75.9235C214.917 76.3963 214.208 77.7359 214.208 78.8391V163.628C214.208 164.731 214.917 165.204 215.784 164.652Z" fill="#3E8CD9"/>
<path d="M215.784 164.652C216.65 164.179 217.36 162.84 217.36 161.737V96.2539L214.129 98.0663V163.549C214.208 164.731 214.917 165.204 215.784 164.652Z" fill="#F8C16C"/>
<path d="M225.398 68.5952C227.131 67.5708 228.629 68.5164 228.629 70.644V155.196C228.629 157.403 227.21 160.003 225.398 161.028C223.664 162.052 222.167 161.106 222.167 158.979V74.4264C222.167 72.22 223.664 69.6196 225.398 68.5952Z" fill="#3E8CD9"/>
<path d="M225.397 159.136C226.264 158.663 226.973 157.324 226.973 156.221V71.4318C226.973 70.3286 226.264 69.8558 225.397 70.4074C224.53 70.8802 223.821 72.2198 223.821 73.323V158.112C223.821 159.136 224.53 159.609 225.397 159.136Z" fill="#3E8CD9"/>
<path d="M225.398 159.136C226.265 158.663 226.974 157.324 226.974 156.22V141.879L223.743 143.691V158.033C223.822 159.136 224.531 159.609 225.398 159.136Z" fill="#F8C16C"/>
<path d="M235.011 63.0791C236.745 62.0547 238.242 63.0003 238.242 65.1279V149.68C238.242 151.887 236.823 154.487 235.011 155.512C233.277 156.536 231.78 155.59 231.78 153.463V68.9103C231.78 66.6251 233.199 64.1035 235.011 63.0791Z" fill="#3E8CD9"/>
<path d="M235.012 153.621C235.878 153.148 236.588 151.808 236.588 150.705V65.9162C236.588 64.813 235.878 64.3402 235.012 64.8918C234.145 65.3646 233.436 66.7042 233.436 67.8074V152.596C233.436 153.621 234.145 154.093 235.012 153.621Z" fill="#3E8CD9"/>
<path d="M235.011 153.62C235.878 153.148 236.587 151.808 236.587 150.705V106.498L233.356 108.31V152.517C233.435 153.62 234.144 154.093 235.011 153.62Z" fill="#F8C16C"/>
<path d="M194.745 187.898L236.824 163.628C237.612 163.155 238.164 163.549 238.164 164.416V179.782C238.164 180.649 237.533 181.673 236.824 182.146L194.745 206.416C193.957 206.889 193.405 206.495 193.405 205.628V190.262C193.405 189.396 194.036 188.371 194.745 187.898Z" fill="#3E8CD9"/>
<path d="M196.479 192.469C196.479 193.493 197.267 193.887 198.212 193.336L233.436 173.005C234.381 172.454 235.169 171.193 235.169 170.168C235.169 169.144 234.381 168.75 233.436 169.302L198.212 189.632C197.267 190.184 196.479 191.444 196.479 192.469Z" fill="#3E8CD9"/>
<path d="M196.479 192.469C196.479 193.493 197.267 193.887 198.212 193.335L223.822 178.521V174.817L198.212 189.632C197.267 190.183 196.479 191.444 196.479 192.469Z" fill="#F8C16C"/>
<path d="M196.479 199.876C196.479 200.9 197.267 201.294 198.212 200.743L233.436 180.412C234.381 179.861 235.169 178.6 235.169 177.576C235.169 176.551 234.381 176.157 233.436 176.709L198.212 197.039C197.267 197.591 196.479 198.852 196.479 199.876Z" fill="#3E8CD9"/>
<path d="M196.479 199.876C196.479 200.9 197.267 201.294 198.212 200.743L207.826 195.227V191.523L198.212 197.039C197.267 197.591 196.479 198.851 196.479 199.876Z" fill="#F8C16C"/>
<path d="M241.316 44.4826L190.332 15.0114C189.387 14.4598 187.889 14.4598 186.944 15.0114L135.96 44.4826C135.015 45.0342 135.015 45.901 135.96 46.4526L186.944 75.9238C187.889 76.4754 189.387 76.4754 190.332 75.9238L241.316 46.4526C242.261 45.901 242.261 45.0342 241.316 44.4826Z" fill="#455A64"/>
<path d="M187.574 68.9107L148.017 46.0587C147.465 45.7435 146.992 44.9555 146.992 44.2463V42.9067C146.992 42.2763 147.465 41.4883 148.017 41.0943L187.574 18.2423C188.126 17.9271 189.071 17.9271 189.623 18.2423L229.181 41.0943C229.732 41.4095 230.205 42.1975 230.205 42.9067V44.2463C230.205 44.8767 229.732 45.6647 229.181 46.0587L189.623 68.9107C189.071 69.2259 188.126 69.2259 187.574 68.9107Z" fill="#3E8CD9"/>
<path d="M148.016 42.355L187.574 65.207C188.125 65.5222 189.071 65.5222 189.623 65.207L229.18 42.355C229.732 42.0398 229.732 41.4882 229.18 41.173L189.623 19.109C189.071 18.7938 188.125 18.7938 187.574 19.109L148.016 41.173C147.465 41.4882 147.465 42.0398 148.016 42.355Z" fill="#455A64"/>
<path d="M188.599 65.4435V69.1472C188.205 69.1472 187.889 69.0683 187.574 68.9107L148.017 46.0588C147.465 45.7436 146.992 44.9556 146.992 44.2464V42.9068C146.992 42.3552 147.386 41.646 147.859 41.252C147.465 41.5672 147.544 42.04 148.017 42.2764L187.574 65.1284C187.811 65.3648 188.205 65.4435 188.599 65.4435Z" fill="#3E8CD9"/>
<path d="M187.574 57.8L160.782 42.3552C160.231 42.04 159.758 41.252 159.758 40.5428V39.2032C159.758 38.5728 160.231 37.7848 160.782 37.3908L177.961 27.462C178.512 27.1468 179.3 26.4376 179.694 25.886L187.889 14.854C188.283 14.3024 189.071 14.1448 189.623 14.46L216.415 29.9048C216.967 30.22 217.439 31.008 217.439 31.7172V40.464C217.439 41.0944 216.967 41.8824 216.415 42.2764L189.623 57.7212C189.071 58.1152 188.126 58.1152 187.574 57.8Z" fill="#3E8CD9"/>
<path d="M189.623 54.0965L206.801 44.1677C207.037 44.0101 207.431 43.7737 207.668 43.5373C207.983 43.2221 208.298 42.9069 208.535 42.6705L216.73 31.6385C217.124 31.0869 216.966 30.4565 216.415 30.0625L189.623 14.6177C189.071 14.3025 188.283 14.4601 187.889 15.0117L179.694 26.0437C179.3 26.5953 178.669 27.3045 178.118 27.6197L160.782 37.4697C160.23 37.7849 160.23 38.3365 160.782 38.6517L187.574 54.0965C188.125 54.4905 189.071 54.4905 189.623 54.0965Z" fill="#455A64"/>
<path d="M216.337 30.1411L189.545 14.6963C188.993 14.3811 188.205 14.5387 187.811 15.0903L179.616 26.1223C179.379 26.3587 179.143 26.6739 178.749 26.9891L207.59 43.6159C207.905 43.3007 208.22 42.9855 208.457 42.7491L216.652 31.7171C217.046 31.0867 216.967 30.4563 216.337 30.1411Z" fill="#3E8CD9"/>
<path d="M167.323 37.7848C167.953 37.3908 169.057 37.3908 169.687 37.7848C170.317 38.1788 170.317 38.8092 169.687 39.2032C169.057 39.5972 167.953 39.5972 167.323 39.2032C166.614 38.8092 166.614 38.1788 167.323 37.7848Z" fill="#F8C16C"/>
<path d="M172.13 40.5431C172.76 40.1491 173.863 40.1491 174.494 40.5431C175.124 40.9371 175.124 41.5675 174.494 41.9615C173.863 42.3555 172.76 42.3555 172.13 41.9615C171.42 41.5675 171.42 40.9371 172.13 40.5431Z" fill="#F8C16C"/>
<path d="M176.858 43.3009C177.488 42.9069 178.591 42.9069 179.222 43.3009C179.852 43.6949 179.852 44.3253 179.222 44.7193C178.591 45.1133 177.488 45.1133 176.858 44.7193C176.227 44.3253 176.227 43.6949 176.858 43.3009Z" fill="#3E8CD9"/>
<path d="M181.664 46.0587C182.295 45.6647 183.398 45.6647 184.028 46.0587C184.659 46.4527 184.659 47.0831 184.028 47.4771C183.398 47.8711 182.295 47.8711 181.664 47.4771C181.034 47.0831 181.034 46.4527 181.664 46.0587Z" fill="#3E8CD9"/>
<path d="M172.13 37.3121C173.088 37.3121 173.864 36.8887 173.864 36.3665C173.864 35.8443 173.088 35.4209 172.13 35.4209C171.173 35.4209 170.396 35.8443 170.396 36.3665C170.396 36.8887 171.173 37.3121 172.13 37.3121Z" fill="#F8C16C"/>
<path d="M175.676 38.4942C176.306 38.1002 177.41 38.1002 178.04 38.4942C178.67 38.8882 178.67 39.5186 178.04 39.9126C177.41 40.3066 176.306 40.3066 175.676 39.9126C175.046 39.4398 175.046 38.8094 175.676 38.4942Z" fill="#3E8CD9"/>
<path d="M181.664 42.9068C182.622 42.9068 183.398 42.4835 183.398 41.9612C183.398 41.439 182.622 41.0156 181.664 41.0156C180.707 41.0156 179.931 41.439 179.931 41.9612C179.931 42.4835 180.707 42.9068 181.664 42.9068Z" fill="#F8C16C"/>
<path d="M185.289 44.0099C185.92 43.6159 187.023 43.6159 187.653 44.0099C188.284 44.4039 188.284 45.0343 187.653 45.4283C187.023 45.8223 185.92 45.8223 185.289 45.4283C184.659 45.0343 184.659 44.4039 185.289 44.0099Z" fill="#3E8CD9"/>
<path d="M174.493 33.6085C175.124 33.2145 176.227 33.2145 176.857 33.6085C177.488 34.0025 177.488 34.6329 176.857 35.0269C176.227 35.4209 175.124 35.4209 174.493 35.0269C173.863 34.6329 173.863 34.0025 174.493 33.6085Z" fill="#3E8CD9"/>
<path d="M179.3 36.3663C179.93 35.9723 181.034 35.9723 181.664 36.3663C182.294 36.7603 182.294 37.3907 181.664 37.7847C181.034 38.1787 179.93 38.1787 179.3 37.7847C178.67 37.3907 178.67 36.7603 179.3 36.3663Z" fill="#F8C16C"/>
<path d="M184.107 39.1246C184.737 38.7306 185.841 38.7306 186.471 39.1246C187.101 39.5186 187.101 40.149 186.471 40.543C185.841 40.937 184.737 40.937 184.107 40.543C183.398 40.149 183.398 39.5186 184.107 39.1246Z" fill="#3E8CD9"/>
<path d="M186.55 48.817C187.181 48.423 188.284 48.423 188.914 48.817C189.545 49.211 189.545 49.8414 188.914 50.2354C188.284 50.6294 187.181 50.6294 186.55 50.2354C185.841 49.8414 185.841 49.211 186.55 48.817Z" fill="#F8C16C"/>
<path d="M191.357 48.3438C192.314 48.3438 193.09 47.9205 193.09 47.3982C193.09 46.876 192.314 46.4526 191.357 46.4526C190.399 46.4526 189.623 46.876 189.623 47.3982C189.623 47.9205 190.399 48.3438 191.357 48.3438Z" fill="#3E8CD9"/>
<path d="M188.914 41.961C189.544 41.567 190.647 41.567 191.278 41.961C191.908 42.355 191.908 42.9854 191.278 43.3794C190.647 43.7734 189.544 43.7734 188.914 43.3794C188.205 42.9066 188.205 42.2762 188.914 41.961Z" fill="#3E8CD9"/>
<path d="M178.119 31.5597C178.749 31.1657 179.852 31.1657 180.483 31.5597C181.113 31.9537 181.113 32.5841 180.483 32.9781C179.852 33.3721 178.749 33.3721 178.119 32.9781C177.41 32.5053 177.41 31.9537 178.119 31.5597Z" fill="#F8C16C"/>
<path d="M184.108 35.9723C185.065 35.9723 185.841 35.5489 185.841 35.0267C185.841 34.5044 185.065 34.0811 184.108 34.0811C183.15 34.0811 182.374 34.5044 182.374 35.0267C182.374 35.5489 183.15 35.9723 184.108 35.9723Z" fill="#3E8CD9"/>
<path d="M187.732 37.0758C188.362 36.6818 189.466 36.6818 190.096 37.0758C190.726 37.4698 190.726 38.1002 190.096 38.4942C189.466 38.8882 188.362 38.8882 187.732 38.4942C187.023 38.1002 187.023 37.4698 187.732 37.0758Z" fill="#F8C16C"/>
<path d="M193.721 41.4884C194.678 41.4884 195.454 41.065 195.454 40.5428C195.454 40.0205 194.678 39.5972 193.721 39.5972C192.763 39.5972 191.987 40.0205 191.987 40.5428C191.987 41.065 192.763 41.4884 193.721 41.4884Z" fill="#3E8CD9"/>
<path d="M193.721 44.6402C194.351 44.2462 195.454 44.2462 196.085 44.6402C196.715 45.0342 196.715 45.6646 196.085 46.0586C195.454 46.4526 194.351 46.4526 193.721 46.0586C193.09 45.6646 193.09 45.0342 193.721 44.6402Z" fill="#F8C16C"/>
<path d="M197.345 42.5919C197.976 42.1979 199.079 42.1979 199.709 42.5919C200.34 42.9859 200.34 43.6163 199.709 44.0103C199.079 44.4043 197.976 44.4043 197.345 44.0103C196.636 43.5375 196.636 42.9859 197.345 42.5919Z" fill="#3E8CD9"/>
<path d="M188.677 54.4113V58.1149C188.283 58.1149 187.889 58.0361 187.574 57.8785L160.782 42.4338C160.231 42.1186 159.758 41.3305 159.758 40.6213V39.2818C159.758 38.7302 160.152 38.021 160.625 37.627C160.231 37.9422 160.309 38.4149 160.782 38.6513L187.574 54.0961C187.889 54.3325 188.283 54.4113 188.677 54.4113Z" fill="#3E8CD9"/>
<path d="M183.24 25.5705C183.556 25.1765 184.028 25.0977 184.422 25.3341L207.668 38.7302C208.062 38.9665 208.141 39.4393 207.905 39.7545C207.668 40.0697 207.117 40.2273 206.723 39.9909L183.477 26.5161C183.083 26.4373 183.004 25.9645 183.24 25.5705Z" fill="#3E8CD9"/>
<path d="M183.24 25.5705C183.556 25.1765 184.028 25.0977 184.422 25.3341L201.758 35.3417L200.813 36.6025L183.477 26.5949C183.083 26.4373 183.004 25.9645 183.24 25.5705Z" fill="#F8C16C"/>
<path d="M185.131 22.9704C185.446 22.5764 185.919 22.4976 186.313 22.734L209.638 36.2088C210.032 36.4452 210.111 36.918 209.874 37.2332C209.638 37.5484 209.086 37.706 208.692 37.4696L185.446 23.9948C184.973 23.8372 184.895 23.3644 185.131 22.9704Z" fill="#3E8CD9"/>
<path d="M185.131 22.9704C185.446 22.5764 185.919 22.4976 186.313 22.734L192.065 26.0436L191.12 27.3044L185.367 23.9948C184.973 23.8372 184.895 23.3644 185.131 22.9704Z" fill="#F8C16C"/>
<path d="M187.101 20.449C187.417 20.055 187.889 19.9762 188.283 20.2126L211.608 33.6874C212.002 33.9238 212.081 34.3966 211.845 34.7118C211.608 35.027 211.057 35.1846 210.663 34.9482L187.417 21.4734C186.944 21.237 186.786 20.7642 187.101 20.449Z" fill="#3E8CD9"/>
<path d="M187.101 20.449C187.416 20.055 187.889 19.9762 188.283 20.2126L200.418 27.2258L199.473 28.4866L187.338 21.4734C186.944 21.237 186.786 20.7642 187.101 20.449Z" fill="#F8C16C"/>
<path d="M188.992 17.8484C189.308 17.4544 189.78 17.3756 190.174 17.612L213.499 31.008C213.893 31.2444 213.972 31.7172 213.736 32.0324C213.499 32.3476 212.948 32.5052 212.554 32.2688L189.308 18.794C188.835 18.6364 188.756 18.1636 188.992 17.8484Z" fill="#3E8CD9"/>
<path d="M188.993 17.8484C189.309 17.4544 189.781 17.3756 190.175 17.612L211.294 29.826L210.348 31.0868L189.23 18.8728C188.836 18.6364 188.757 18.1636 188.993 17.8484Z" fill="#F8C16C"/>
<path d="M146.991 233.997L154.871 229.426C155.817 228.875 157.314 228.875 158.26 229.426L205.146 256.534C206.328 257.164 207.746 256.376 207.746 255.036V216.188" stroke="#F8C16C" stroke-miterlimit="10"/>
<path d="M143.761 232.106L154.872 225.723C155.817 225.171 157.314 225.171 158.26 225.723L208.377 254.642C209.559 255.273 210.977 254.485 210.977 253.145V216.188" stroke="#F8C16C" stroke-miterlimit="10"/>
<path d="M140.608 230.293L154.871 222.019C155.817 221.468 157.314 221.468 158.26 222.019L211.528 252.83C212.71 253.46 214.129 252.672 214.129 251.333V216.424" stroke="#F8C16C" stroke-miterlimit="10"/>
<path d="M137.378 228.402L154.872 218.316C155.817 217.764 157.314 217.764 158.26 218.316L214.76 250.939C215.942 251.569 217.36 250.781 217.36 249.442V216.424" stroke="#F8C16C" stroke-miterlimit="10"/>
<path d="M94.0385 68.5948L43.0549 98.066C42.1093 98.6176 41.3213 99.9572 41.3213 101.06V241.246C41.3213 242.349 42.1093 243.688 43.0549 244.24L94.0385 273.711C94.9841 274.263 96.4813 274.263 97.4269 273.711L148.41 244.24C149.356 243.688 150.144 242.349 150.144 241.246V101.06C150.144 99.9572 149.356 98.6176 148.41 98.066L97.4269 68.5948C96.5601 68.122 94.9841 68.122 94.0385 68.5948Z" fill="#3E8CD9"/>
<path d="M150.144 101.061V241.246C150.144 242.35 149.356 243.689 148.411 244.241L97.427 273.712C96.9542 274.027 96.3238 274.106 95.6934 274.106V129.902C96.3238 129.902 96.9542 129.744 97.427 129.508L148.411 100.037L148.883 99.6427L149.514 99.1699C149.908 99.7215 150.144 100.431 150.144 101.061Z" fill="#3E8CD9"/>
<path d="M49.4377 114.851L87.6557 136.915C88.6013 137.467 89.3893 138.806 89.3893 139.909V154.487C89.3893 155.591 88.6013 155.985 87.6557 155.433L49.4377 133.369C48.4921 132.817 47.7041 131.478 47.7041 130.375V115.797C47.7829 114.693 48.4921 114.299 49.4377 114.851Z" fill="#455A64"/>
<path d="M50.9346 121.234C50.9346 122.258 51.7226 123.519 52.6682 124.071L84.5034 142.431C85.449 142.983 86.237 142.589 86.237 141.564C86.237 140.54 85.449 139.279 84.5034 138.727L52.6682 120.367C51.7226 119.815 50.9346 120.209 50.9346 121.234Z" fill="#F8C16C"/>
<path d="M50.9346 128.641C50.9346 129.665 51.7226 130.926 52.6682 131.478L84.5034 149.838C85.449 150.39 86.237 149.996 86.237 148.971C86.237 147.947 85.449 146.686 84.5034 146.135L52.6682 127.774C51.7226 127.223 50.9346 127.617 50.9346 128.641Z" fill="#3E8CD9"/>
<path d="M52.6682 127.774L70.1618 137.861V141.564L52.6682 131.478C51.7226 130.926 50.9346 129.665 50.9346 128.641C50.9346 127.617 51.7226 127.223 52.6682 127.774Z" fill="#F8C16C"/>
<path d="M49.4377 140.697L87.6557 162.761C88.6013 163.313 89.3893 164.653 89.3893 165.756V180.334C89.3893 181.437 88.6013 181.831 87.6557 181.279L49.4377 159.215C48.4921 158.664 47.7041 157.324 47.7041 156.221V141.643C47.7829 140.619 48.4921 140.146 49.4377 140.697Z" fill="#455A64"/>
<path d="M50.9346 147.08C50.9346 148.105 51.7226 149.365 52.6682 149.917L84.5034 168.277C85.449 168.829 86.237 168.435 86.237 167.411C86.237 166.386 85.449 165.125 84.5034 164.574L52.6682 146.213C51.7226 145.741 50.9346 146.056 50.9346 147.08Z" fill="#F8C16C"/>
<path d="M50.9346 154.487C50.9346 155.512 51.7226 156.772 52.6682 157.324L84.5034 175.684C85.449 176.236 86.237 175.842 86.237 174.818C86.237 173.793 85.449 172.532 84.5034 171.981L52.6682 153.62C51.7226 153.069 50.9346 153.463 50.9346 154.487Z" fill="#3E8CD9"/>
<path d="M52.6682 153.62L79.7754 169.302V173.005L52.6682 157.324C51.7226 156.772 50.9346 155.512 50.9346 154.487C50.9346 153.463 51.7226 153.069 52.6682 153.62Z" fill="#F8C16C"/>
<path d="M49.4377 166.544L87.6557 188.608C88.6013 189.159 89.3893 190.499 89.3893 191.602V206.18C89.3893 207.283 88.6013 207.677 87.6557 207.126L49.4377 185.062C48.4921 184.51 47.7041 183.171 47.7041 182.067V167.489C47.7829 166.465 48.4921 166.071 49.4377 166.544Z" fill="#455A64"/>
<path d="M50.9346 173.005C50.9346 174.03 51.7226 175.29 52.6682 175.842L84.5034 194.202C85.449 194.754 86.237 194.36 86.237 193.336C86.237 192.311 85.449 191.05 84.5034 190.499L52.6682 172.138C51.7226 171.587 50.9346 171.981 50.9346 173.005Z" fill="#F8C16C"/>
<path d="M50.9346 180.412C50.9346 181.437 51.7226 182.698 52.6682 183.249L84.5034 201.61C85.449 202.161 86.237 201.767 86.237 200.743C86.237 199.718 85.449 198.458 84.5034 197.906L52.6682 179.546C51.7226 178.994 50.9346 179.388 50.9346 180.412Z" fill="#3E8CD9"/>
<path d="M52.6682 179.546L63.779 185.928V189.632L52.6682 183.249C51.7226 182.698 50.9346 181.437 50.9346 180.412C50.9346 179.388 51.7226 178.994 52.6682 179.546Z" fill="#F8C16C"/>
<path d="M49.4377 192.469L87.6557 214.533C88.6013 215.084 89.3893 216.424 89.3893 217.527V232.105C89.3893 233.208 88.6013 233.602 87.6557 233.051L49.4377 210.987C48.4921 210.435 47.7041 209.096 47.7041 207.992V193.414C47.7829 192.311 48.4921 191.917 49.4377 192.469Z" fill="#455A64"/>
<path d="M50.9346 198.851C50.9346 199.876 51.7226 201.137 52.6682 201.688L84.5034 220.049C85.449 220.6 86.237 220.206 86.237 219.182C86.237 218.157 85.449 216.897 84.5034 216.345L52.6682 197.985C51.7226 197.433 50.9346 197.827 50.9346 198.851Z" fill="#F8C16C"/>
<path d="M50.9346 206.259C50.9346 207.283 51.7226 208.544 52.6682 209.095L84.5034 227.456C85.449 228.007 86.237 227.613 86.237 226.589C86.237 225.565 85.449 224.304 84.5034 223.752L52.6682 205.392C51.7226 204.84 50.9346 205.234 50.9346 206.259Z" fill="#3E8CD9"/>
<path d="M52.6682 205.392L70.1618 215.478V219.182L52.6682 209.095C51.7226 208.544 50.9346 207.283 50.9346 206.259C50.9346 205.234 51.7226 204.84 52.6682 205.392Z" fill="#F8C16C"/>
<path d="M49.4377 218.315L87.6557 240.38C88.6013 240.931 89.3893 242.271 89.3893 243.374V257.952C89.3893 259.055 88.6013 259.449 87.6557 258.898L49.4377 236.834C48.4921 236.282 47.7041 234.942 47.7041 233.839V219.261C47.7829 218.237 48.4921 217.764 49.4377 218.315Z" fill="#455A64"/>
<path d="M50.9346 224.698C50.9346 225.723 51.7226 226.984 52.6682 227.535L84.5034 245.896C85.449 246.447 86.237 246.053 86.237 245.029C86.237 244.004 85.449 242.744 84.5034 242.192L52.6682 223.832C51.7226 223.359 50.9346 223.674 50.9346 224.698Z" fill="#F8C16C"/>
<path d="M50.9346 232.105C50.9346 233.13 51.7226 234.391 52.6682 234.942L84.5034 253.303C85.449 253.854 86.237 253.46 86.237 252.436C86.237 251.411 85.449 250.151 84.5034 249.599L52.6682 231.239C51.7226 230.687 50.9346 231.081 50.9346 232.105Z" fill="#3E8CD9"/>
<path d="M52.6682 231.239L76.5446 245.029V248.732L52.6682 234.942C51.7226 234.391 50.9346 233.13 50.9346 232.105C50.9346 231.081 51.7226 230.687 52.6682 231.239Z" fill="#F8C16C"/>
<path d="M103.731 138.806C105.464 137.781 106.962 138.727 106.962 140.854V225.407C106.962 227.613 105.543 230.214 103.731 231.238C101.997 232.263 100.5 231.317 100.5 229.189V144.637C100.579 142.43 101.997 139.83 103.731 138.806Z" fill="#3E8CD9"/>
<path d="M103.731 229.347C104.598 228.874 105.307 227.535 105.307 226.432V141.643C105.307 140.54 104.598 140.067 103.731 140.618C102.864 141.091 102.155 142.431 102.155 143.534V228.323C102.155 229.347 102.864 229.82 103.731 229.347Z" fill="#3E8CD9"/>
<path d="M103.731 229.347C104.598 228.874 105.307 227.535 105.307 226.431V185.928L102.076 187.741V228.244C102.155 229.347 102.864 229.82 103.731 229.347Z" fill="#F8C16C"/>
<path d="M113.344 133.29C115.078 132.266 116.575 133.211 116.575 135.339V219.891C116.575 222.098 115.156 224.698 113.344 225.722C111.61 226.747 110.113 225.801 110.113 223.674V139.121C110.192 136.915 111.61 134.314 113.344 133.29Z" fill="#3E8CD9"/>
<path d="M113.345 223.831C114.211 223.358 114.921 222.019 114.921 220.915V136.127C114.921 135.023 114.211 134.551 113.345 135.102C112.478 135.654 111.769 136.915 111.769 138.018V222.807C111.769 223.831 112.478 224.304 113.345 223.831Z" fill="#F8C16C"/>
<path d="M122.958 127.695C124.692 126.671 126.189 127.617 126.189 129.744V214.297C126.189 216.503 124.771 219.103 122.958 220.128C121.225 221.152 119.728 220.207 119.728 218.079V133.527C119.728 131.32 121.225 128.72 122.958 127.695Z" fill="#3E8CD9"/>
<path d="M122.958 218.236C123.825 217.763 124.534 216.424 124.534 215.321V130.532C124.534 129.429 123.825 128.956 122.958 129.507C122.091 129.98 121.382 131.32 121.382 132.423V217.212C121.382 218.315 122.091 218.788 122.958 218.236Z" fill="#3E8CD9"/>
<path d="M122.958 218.236C123.824 217.763 124.534 216.424 124.534 215.321V149.838L121.303 151.65V217.133C121.382 218.315 122.091 218.788 122.958 218.236Z" fill="#F8C16C"/>
<path d="M132.572 122.179C134.305 121.155 135.802 122.1 135.802 124.228V208.78C135.802 210.987 134.384 213.587 132.572 214.612C130.838 215.636 129.341 214.69 129.341 212.563V128.01C129.341 125.804 130.838 123.204 132.572 122.179Z" fill="#3E8CD9"/>
<path d="M132.571 212.72C133.438 212.247 134.147 210.908 134.147 209.805V125.016C134.147 123.913 133.438 123.44 132.571 123.991C131.704 124.543 130.995 125.804 130.995 126.907V211.696C130.995 212.72 131.704 213.193 132.571 212.72Z" fill="#3E8CD9"/>
<path d="M132.572 212.72C133.439 212.247 134.148 210.908 134.148 209.804V195.463L130.917 197.275V211.617C130.996 212.72 131.705 213.193 132.572 212.72Z" fill="#F8C16C"/>
<path d="M142.185 116.663C143.919 115.639 145.416 116.584 145.416 118.712V203.264C145.416 205.471 143.997 208.071 142.185 209.096C140.451 210.12 138.954 209.174 138.954 207.047V122.494C138.954 120.209 140.372 117.688 142.185 116.663Z" fill="#3E8CD9"/>
<path d="M142.185 207.205C143.052 206.732 143.761 205.392 143.761 204.289V119.5C143.761 118.397 143.052 117.924 142.185 118.476C141.319 118.949 140.609 120.288 140.609 121.391V206.18C140.609 207.205 141.319 207.677 142.185 207.205Z" fill="#3E8CD9"/>
<path d="M142.185 207.204C143.052 206.732 143.761 205.392 143.761 204.289V160.082L140.53 161.894V206.101C140.609 207.204 141.318 207.677 142.185 207.204Z" fill="#F8C16C"/>
<path d="M101.919 241.482L143.998 217.212C144.786 216.739 145.338 217.133 145.338 218V233.366C145.338 234.233 144.707 235.257 143.998 235.73L101.919 260C101.131 260.473 100.579 260.079 100.579 259.212V243.846C100.579 242.98 101.21 241.955 101.919 241.482Z" fill="#3E8CD9"/>
<path d="M103.652 246.053C103.652 247.077 104.44 247.471 105.386 246.92L140.61 226.589C141.555 226.038 142.343 224.777 142.343 223.752C142.343 222.728 141.555 222.334 140.61 222.886L105.386 243.216C104.44 243.768 103.652 245.028 103.652 246.053Z" fill="#3E8CD9"/>
<path d="M103.652 246.053C103.652 247.077 104.44 247.471 105.386 246.919L130.996 232.105V228.401L105.386 243.216C104.44 243.767 103.652 245.028 103.652 246.053Z" fill="#F8C16C"/>
<path d="M103.652 253.46C103.652 254.484 104.44 254.878 105.386 254.327L140.61 233.996C141.555 233.445 142.343 232.184 142.343 231.16C142.343 230.135 141.555 229.741 140.61 230.293L105.386 250.623C104.44 251.175 103.652 252.436 103.652 253.46Z" fill="#3E8CD9"/>
<path d="M103.652 253.46C103.652 254.484 104.44 254.878 105.386 254.327L115 248.811V245.107L105.386 250.623C104.44 251.175 103.652 252.435 103.652 253.46Z" fill="#F8C16C"/>
<path d="M148.49 98.0665L97.506 68.5953C96.5604 68.0437 95.0632 68.0437 94.1176 68.5953L43.134 98.0665C42.1884 98.6181 42.1884 99.4849 43.134 100.037L94.1176 129.508C95.0632 130.059 96.5604 130.059 97.506 129.508L148.49 100.037C149.435 99.4849 149.435 98.6181 148.49 98.0665Z" fill="#455A64"/>
<path d="M94.748 122.495L55.1904 99.6426C54.6388 99.3274 54.166 98.5394 54.166 97.8302V96.4906C54.166 95.8602 54.6388 95.0722 55.1904 94.6782L94.748 71.8262C95.2996 71.511 96.2452 71.511 96.7968 71.8262L136.354 94.6782C136.906 94.9934 137.379 95.7814 137.379 96.4906V97.8302C137.379 98.4606 136.906 99.2486 136.354 99.6426L96.7968 122.495C96.2452 122.81 95.2996 122.81 94.748 122.495Z" fill="#3E8CD9"/>
<path d="M55.1901 95.9389L94.7477 118.791C95.2993 119.106 96.2449 119.106 96.7965 118.791L136.354 95.9389C136.906 95.6237 136.906 95.0721 136.354 94.7569L96.7965 72.6929C96.2449 72.3777 95.2993 72.3777 94.7477 72.6929L55.1901 94.7569C54.6385 95.0721 54.6385 95.6237 55.1901 95.9389Z" fill="#455A64"/>
<path d="M95.7724 119.028V122.731C95.3784 122.731 95.0632 122.652 94.748 122.495L55.1904 99.6427C54.6388 99.3275 54.166 98.5395 54.166 97.8303V96.4907C54.166 95.9391 54.4812 95.2299 55.0328 94.8359C54.6388 95.1511 54.7176 95.6239 55.1904 95.8603L94.748 118.712C94.9844 118.949 95.3784 119.028 95.7724 119.028Z" fill="#3E8CD9"/>
<path d="M94.748 111.384L67.956 95.9391C67.4044 95.624 66.9316 94.836 66.9316 94.1268V92.7871C66.9316 92.1567 67.4044 91.3688 67.956 90.9748L85.1344 81.046C85.686 80.7308 86.474 80.0216 86.868 79.47L95.0632 68.4379C95.4572 67.8863 96.2452 67.7287 96.7968 68.0439L123.589 83.4888C124.14 83.804 124.613 84.5919 124.613 85.3011V94.048C124.613 94.6784 124.14 95.4664 123.589 95.8604L96.7968 111.305C96.2452 111.699 95.2996 111.699 94.748 111.384Z" fill="#3E8CD9"/>
<path d="M96.7965 107.68L113.975 97.7517C114.211 97.5941 114.605 97.3577 114.842 97.1213C115.157 96.8061 115.472 96.4909 115.708 96.2545L123.904 85.2225C124.298 84.6709 124.14 84.0405 123.588 83.6465L96.7965 68.2017C96.2449 67.8865 95.4569 68.0441 95.0629 68.5957L86.8677 79.6277C86.4737 80.1793 85.8433 80.8885 85.2917 81.2037L67.9557 91.0537C67.4041 91.3689 67.4041 91.9205 67.9557 92.2357L94.7477 107.68C95.2993 108.074 96.2449 108.074 96.7965 107.68Z" fill="#455A64"/>
<path d="M123.51 83.7251L96.7184 68.2803C96.1668 67.9651 95.3788 68.1227 94.9848 68.6743L86.7897 79.7063C86.5533 79.9427 86.3169 80.2579 85.9229 80.5731L114.764 97.1999C115.079 96.8847 115.394 96.5695 115.63 96.3331L123.826 85.3011C124.22 84.6707 124.141 84.0403 123.51 83.7251Z" fill="#3E8CD9"/>
<path d="M74.4967 91.3687C75.1271 90.9747 76.2303 90.9747 76.8607 91.3687C77.4911 91.7627 77.4911 92.3931 76.8607 92.7871C76.2303 93.1811 75.1271 93.1811 74.4967 92.7871C73.7875 92.3931 73.7875 91.7627 74.4967 91.3687Z" fill="#F8C16C"/>
<path d="M79.3034 94.1266C79.9338 93.7326 81.037 93.7326 81.6674 94.1266C82.2978 94.5206 82.2978 95.1509 81.6674 95.5449C81.037 95.9389 79.9338 95.9389 79.3034 95.5449C78.5942 95.1509 78.5942 94.5206 79.3034 94.1266Z" fill="#F8C16C"/>
<path d="M84.0314 96.8844C84.6618 96.4904 85.765 96.4904 86.3954 96.8844C87.0258 97.2784 87.0258 97.9087 86.3954 98.3027C85.765 98.6967 84.6618 98.6967 84.0314 98.3027C83.401 97.9087 83.401 97.2784 84.0314 96.8844Z" fill="#3E8CD9"/>
<path d="M88.838 99.6427C89.4684 99.2487 90.5716 99.2487 91.202 99.6427C91.8324 100.037 91.8324 100.667 91.202 101.061C90.5716 101.455 89.4684 101.455 88.838 101.061C88.2076 100.667 88.2076 100.037 88.838 99.6427Z" fill="#3E8CD9"/>
<path d="M78.0431 89.2408C78.6735 88.8468 79.7767 88.8468 80.4071 89.2408C81.0375 89.6348 81.0375 90.2652 80.4071 90.6592C79.7767 91.0532 78.6735 91.0532 78.0431 90.6592C77.4127 90.2652 77.4127 89.6348 78.0431 89.2408Z" fill="#F8C16C"/>
<path d="M84.0314 93.6539C84.9889 93.6539 85.765 93.2305 85.765 92.7083C85.765 92.1861 84.9889 91.7627 84.0314 91.7627C83.074 91.7627 82.2979 92.1861 82.2979 92.7083C82.2979 93.2305 83.074 93.6539 84.0314 93.6539Z" fill="#3E8CD9"/>
<path d="M87.6564 94.8355C88.2868 94.4415 89.39 94.4415 90.0204 94.8355C90.6508 95.2295 90.6508 95.86 90.0204 96.254C89.39 96.648 88.2868 96.648 87.6564 96.254C87.026 95.7812 87.026 95.2295 87.6564 94.8355Z" fill="#F8C16C"/>
<path d="M93.6447 99.2486C94.6022 99.2486 95.3783 98.8253 95.3783 98.303C95.3783 97.7808 94.6022 97.3574 93.6447 97.3574C92.6873 97.3574 91.9111 97.7808 91.9111 98.303C91.9111 98.8253 92.6873 99.2486 93.6447 99.2486Z" fill="#3E8CD9"/>
<path d="M81.6671 87.192C82.2975 86.798 83.4007 86.798 84.0311 87.192C84.6615 87.586 84.6615 88.2164 84.0311 88.6104C83.4007 89.0044 82.2975 89.0044 81.6671 88.6104C81.0367 88.2164 81.0367 87.586 81.6671 87.192Z" fill="#3E8CD9"/>
<path d="M86.4738 89.9503C87.1042 89.5563 88.2074 89.5563 88.8378 89.9503C89.4682 90.3443 89.4682 90.9747 88.8378 91.3687C88.2074 91.7627 87.1042 91.7627 86.4738 91.3687C85.8434 90.9747 85.8434 90.3443 86.4738 89.9503Z" fill="#F8C16C"/>
<path d="M91.2809 92.7081C91.9113 92.3141 93.0145 92.3141 93.6449 92.7081C94.2753 93.1021 94.2753 93.7325 93.6449 94.1265C93.0145 94.5205 91.9113 94.5205 91.2809 94.1265C90.5717 93.7325 90.5717 93.1021 91.2809 92.7081Z" fill="#3E8CD9"/>
<path d="M93.7243 102.4C94.3547 102.006 95.4579 102.006 96.0883 102.4C96.7187 102.794 96.7187 103.425 96.0883 103.819C95.4579 104.213 94.3547 104.213 93.7243 103.819C93.0151 103.425 93.0151 102.794 93.7243 102.4Z" fill="#F8C16C"/>
<path d="M97.2697 100.273C97.9001 99.879 99.0033 99.879 99.6337 100.273C100.264 100.667 100.264 101.297 99.6337 101.691C99.0033 102.085 97.9001 102.085 97.2697 101.691C96.6393 101.297 96.6393 100.667 97.2697 100.273Z" fill="#3E8CD9"/>
<path d="M96.0877 95.545C96.7181 95.151 97.8214 95.151 98.4518 95.545C99.0822 95.939 99.0822 96.5694 98.4518 96.9634C97.8214 97.3574 96.7181 97.3574 96.0877 96.9634C95.4573 96.5694 95.3785 95.8602 96.0877 95.545Z" fill="#3E8CD9"/>
<path d="M86.4748 86.7193C87.4323 86.7193 88.2084 86.296 88.2084 85.7737C88.2084 85.2515 87.4323 84.8281 86.4748 84.8281C85.5174 84.8281 84.7412 85.2515 84.7412 85.7737C84.7412 86.296 85.5174 86.7193 86.4748 86.7193Z" fill="#F8C16C"/>
<path d="M90.0993 87.9015C90.7297 87.5075 91.8329 87.5075 92.4633 87.9015C93.0937 88.2955 93.0937 88.9259 92.4633 89.3199C91.8329 89.7139 90.7297 89.7139 90.0993 89.3199C89.3901 88.9259 89.3901 88.2955 90.0993 87.9015Z" fill="#3E8CD9"/>
<path d="M96.0881 92.3141C97.0455 92.3141 97.8217 91.8907 97.8217 91.3685C97.8217 90.8462 97.0455 90.4229 96.0881 90.4229C95.1307 90.4229 94.3545 90.8462 94.3545 91.3685C94.3545 91.8907 95.1307 92.3141 96.0881 92.3141Z" fill="#F8C16C"/>
<path d="M99.7126 93.4176C100.343 93.0236 101.446 93.0236 102.077 93.4176C102.707 93.8116 102.707 94.442 102.077 94.836C101.446 95.23 100.343 95.23 99.7126 94.836C99.0034 94.442 99.0034 93.8116 99.7126 93.4176Z" fill="#3E8CD9"/>
<path d="M100.895 98.2242C101.525 97.8302 102.628 97.8302 103.259 98.2242C103.889 98.6182 103.889 99.2486 103.259 99.6426C102.628 100.037 101.525 100.037 100.895 99.6426C100.264 99.2486 100.264 98.6182 100.895 98.2242Z" fill="#F8C16C"/>
<path d="M105.701 97.7515C106.659 97.7515 107.435 97.3282 107.435 96.806C107.435 96.2837 106.659 95.8604 105.701 95.8604C104.744 95.8604 103.968 96.2837 103.968 96.806C103.968 97.3282 104.744 97.7515 105.701 97.7515Z" fill="#3E8CD9"/>
<path d="M95.8512 107.995V111.699C95.4572 111.699 95.0632 111.62 94.748 111.463L67.956 96.0177C67.4044 95.7025 66.9316 94.9145 66.9316 94.2053V92.8657C66.9316 92.3141 67.2468 91.6049 67.7984 91.2109C67.4044 91.5261 67.4832 91.9989 67.956 92.2353L94.748 107.68C95.0632 107.917 95.4572 107.995 95.8512 107.995Z" fill="#3E8CD9"/>
<path d="M90.4142 79.1545C90.7294 78.7605 91.2022 78.6817 91.5962 78.9181L114.921 92.3929C115.315 92.6293 115.394 93.1021 115.157 93.4173C114.921 93.7325 114.369 93.8901 113.975 93.6537L90.7294 80.1789C90.2566 80.0213 90.1778 79.5485 90.4142 79.1545Z" fill="#3E8CD9"/>
<path d="M90.4142 79.1545C90.7294 78.7605 91.2022 78.6817 91.5962 78.9181L108.932 88.9257L107.987 90.1865L90.6506 80.1789C90.2566 80.0213 90.1778 79.5485 90.4142 79.1545Z" fill="#F8C16C"/>
<path d="M92.3049 76.5544C92.6201 76.1604 93.0929 76.0816 93.4869 76.318L116.812 89.7928C117.206 90.0292 117.284 90.502 117.048 90.8172C116.812 91.1324 116.26 91.29 115.866 91.0536L92.6201 77.5788C92.1473 77.4212 92.0685 76.9484 92.3049 76.5544Z" fill="#3E8CD9"/>
<path d="M92.3048 76.5544C92.62 76.1604 93.0928 76.0816 93.4868 76.318L99.2393 79.6276L98.2936 80.8884L92.5413 77.5788C92.1473 77.4212 92.0684 76.9484 92.3048 76.5544Z" fill="#F8C16C"/>
<path d="M94.2753 74.0329C94.5905 73.6389 95.0633 73.5602 95.4573 73.7966L118.782 87.2714C119.176 87.5078 119.255 87.9806 119.019 88.2958C118.782 88.611 118.231 88.7686 117.837 88.5322L94.5905 75.0574C94.1177 74.821 93.9601 74.3481 94.2753 74.0329Z" fill="#3E8CD9"/>
<path d="M94.2751 74.0329C94.5903 73.6389 95.0631 73.5602 95.4571 73.7966L107.592 80.8098L106.647 82.0706L94.5115 75.0574C94.1175 74.821 93.9599 74.3481 94.2751 74.0329Z" fill="#F8C16C"/>
<path d="M96.1662 71.4324C96.4814 71.0384 96.9542 70.9596 97.3482 71.196L120.673 84.6708C121.067 84.9072 121.146 85.38 120.909 85.6952C120.673 86.0104 120.121 86.168 119.727 85.9316L96.4814 72.4568C96.0086 72.2204 95.9298 71.7476 96.1662 71.4324Z" fill="#3E8CD9"/>
<path d="M96.1662 71.4324C96.4814 71.0384 96.9542 70.9596 97.3482 71.196L118.467 83.41L117.521 84.6708L96.4026 72.4568C96.0086 72.2204 95.9298 71.7476 96.1662 71.4324Z" fill="#F8C16C"/>
<path d="M204.122 222.334V265.517C204.122 265.832 204.358 266.226 204.595 266.384L245.965 290.26C246.28 290.418 246.674 290.418 246.989 290.26L248.329 289.472C248.644 289.315 248.802 288.921 248.802 288.605V245.423C248.802 245.108 248.565 244.792 248.171 244.792L204.595 221.704C204.437 221.783 204.122 222.019 204.122 222.334Z" fill="#DBEFFF"/>
<path d="M248.329 244.792H247.147C246.832 244.792 246.516 245.029 246.595 245.423V289.945C246.595 290.26 246.832 290.418 247.068 290.26L248.408 289.472C248.723 289.314 248.88 288.92 248.88 288.605V245.423C248.959 245.029 248.644 244.792 248.329 244.792Z" fill="#DBEFFF"/>
<path d="M286.547 172.848V216.03C286.547 216.345 286.783 216.739 287.02 216.897L330.044 241.719C330.36 241.876 330.754 241.876 331.069 241.719L332.408 240.931C332.724 240.773 332.881 240.379 332.881 240.064V196.882C332.881 196.566 332.645 196.251 332.251 196.251L287.02 172.217C286.783 172.296 286.547 172.532 286.547 172.848Z" fill="#E0E0E0"/>
<path d="M332.33 196.33H331.148C330.833 196.33 330.517 196.566 330.596 196.96V241.482C330.596 241.798 330.833 241.955 331.069 241.798L332.409 241.01C332.724 240.852 332.881 240.458 332.881 240.143V196.96C332.96 196.566 332.645 196.33 332.33 196.33Z" fill="#EBEBEB"/>
<path d="M200.104 220.995V220.601C200.104 219.97 200.576 219.182 201.128 218.788L287.887 168.671C288.438 168.356 289.384 168.356 289.936 168.671L335.876 195.227C336.428 195.542 336.9 196.33 336.9 197.039V197.433C336.9 198.064 336.428 198.852 335.876 199.246L249.117 249.284C248.566 249.599 247.62 249.599 247.068 249.284L201.128 222.728C200.576 222.413 200.104 221.625 200.104 220.995Z" fill="#3E8CD9"/>
<path d="M248.093 246.762V249.52C247.699 249.52 247.384 249.442 247.068 249.284L201.128 222.728C200.576 222.413 200.104 221.625 200.104 220.916V220.522C200.104 219.97 200.419 219.261 200.97 218.867C200.576 219.182 200.655 219.655 201.128 219.892L247.068 246.447C247.384 246.684 247.777 246.762 248.093 246.762Z" fill="#3E8CD9"/>
<path d="M201.128 219.97L247.068 246.526C247.62 246.841 248.565 246.841 249.117 246.526L335.876 196.409C336.427 196.094 336.427 195.542 335.876 195.227L289.935 168.671C289.384 168.356 288.438 168.356 287.886 168.671L201.128 218.788C200.576 219.103 200.576 219.655 201.128 219.97Z" fill="#DBEFFF"/>
<path d="M275.2 201.452L301.204 186.401C301.677 186.165 302.386 186.165 302.859 186.401L311.054 191.208C311.527 191.445 311.527 191.917 311.054 192.154L285.05 207.205C284.578 207.441 283.868 207.441 283.395 207.205L275.2 202.398C274.728 202.161 274.728 201.689 275.2 201.452Z" fill="#3E8CD9"/>
<path d="M279.849 192.154L277.091 190.578C276.697 190.342 276.697 190.027 277.091 189.79L298.682 177.34C299.076 177.103 299.076 176.788 298.682 176.552L298.446 176.394C298.052 176.158 297.421 176.158 297.106 176.394L276.145 188.529C275.751 188.766 275.436 188.766 275.436 188.529C275.436 188.372 275.436 188.293 275.436 188.135L276.618 181.989C276.697 181.595 276.46 181.043 276.066 180.807L275.83 180.649C275.436 180.413 275.042 180.57 274.963 181.043L273.624 188.214C273.545 188.451 273.545 188.766 273.624 189.002C273.702 189.396 273.545 189.948 273.151 190.184L260.07 197.749C259.676 197.985 259.676 198.301 260.07 198.537L260.306 198.694C260.7 198.931 261.331 198.931 261.646 198.694L274.175 191.445C274.569 191.209 274.884 191.051 274.884 191.051C274.884 191.051 274.884 191.051 274.963 191.051L279.218 193.494C279.612 193.73 280.243 193.73 280.558 193.494C282.449 192.391 287.571 189.475 289.462 188.372C289.856 188.135 289.935 187.899 289.778 187.741C289.541 187.584 289.068 187.663 288.674 187.82L280.637 191.681C280.164 191.996 279.849 192.154 279.849 192.154Z" fill="#3E8CD9"/>
<path d="M302.779 184.432L310.58 188.923C311.053 189.16 311.447 189.79 311.447 190.342C311.447 190.814 311.053 191.445 310.58 191.76L285.443 206.259C284.97 206.496 284.261 206.496 283.788 206.259L275.987 201.768C275.514 201.531 275.12 200.901 275.12 200.349C275.12 199.876 275.514 199.246 275.987 198.931L301.124 184.432C301.518 184.195 302.306 184.195 302.779 184.432Z" fill="#37474F"/>
<path d="M284.577 206.417C284.262 206.417 283.946 206.338 283.71 206.181L275.909 201.689C275.436 201.453 275.042 200.822 275.042 200.271C275.042 199.719 275.436 199.167 275.909 198.852L276.697 198.379H284.498V206.417H284.577Z" fill="#263238"/>
<path d="M275.987 198.931L301.125 184.432C301.597 184.195 302.307 184.195 302.779 184.432L310.581 188.923C311.053 189.16 311.053 189.632 310.581 189.869L285.443 204.368C284.971 204.604 284.261 204.604 283.789 204.368L275.987 199.876C275.515 199.64 275.515 199.246 275.987 198.931Z" fill="#455A64"/>
<path d="M298.918 191.13L299.706 190.657V190.578L298.761 190.026C298.761 190.026 298.682 190.026 298.603 190.026L297.815 190.499V190.578L298.761 191.13C298.839 191.13 298.918 191.13 298.918 191.13ZM297.342 189.317L296.554 189.79V189.869L297.5 190.42C297.5 190.42 297.579 190.42 297.657 190.42L298.445 189.948V189.869L297.5 189.317C297.421 189.317 297.421 189.317 297.342 189.317ZM294.821 190.814L293.481 191.602V191.681L294.427 192.233C294.427 192.233 294.505 192.233 294.584 192.233L295.924 191.445V191.366L294.978 190.814C294.899 190.736 294.821 190.736 294.821 190.814ZM296.239 189.948L295.451 190.42V190.499L296.397 191.051C296.397 191.051 296.475 191.051 296.554 191.051L297.342 190.578V190.499L296.397 189.948C296.318 189.948 296.239 189.948 296.239 189.948ZM293.087 191.76L292.299 192.233V192.312L293.245 192.863C293.245 192.863 293.323 192.863 293.402 192.863L294.19 192.39V192.312L293.245 191.76C293.166 191.76 293.166 191.76 293.087 191.76ZM291.984 192.469L291.196 192.942V193.021L292.141 193.572C292.141 193.572 292.22 193.572 292.299 193.572L293.087 193.1V193.021L292.141 192.469C292.063 192.39 291.984 192.39 291.984 192.469ZM295.53 194.597L296.318 194.124V194.045L295.372 193.494C295.372 193.494 295.293 193.494 295.215 193.494L294.427 193.966V194.045L295.372 194.597C295.451 194.597 295.53 194.597 295.53 194.597ZM294.427 195.227L295.215 194.754V194.676L294.269 194.124C294.269 194.124 294.19 194.124 294.111 194.124L293.323 194.597V194.676L294.269 195.227C294.269 195.306 294.348 195.306 294.427 195.227ZM293.245 195.936L294.033 195.464V195.385L293.087 194.833C293.087 194.833 293.008 194.833 292.929 194.833L292.141 195.306V195.385L293.087 195.936C293.166 195.936 293.166 195.936 293.245 195.936ZM292.063 196.567L292.851 196.094V196.015L291.905 195.464C291.905 195.464 291.826 195.464 291.747 195.464L290.959 195.936V196.015L291.905 196.567C291.984 196.646 292.063 196.646 292.063 196.567ZM297.736 191.76L298.524 191.287V191.208L297.579 190.657C297.579 190.657 297.5 190.657 297.421 190.657L296.633 191.13V191.208L297.579 191.76C297.657 191.839 297.736 191.839 297.736 191.76ZM296.712 193.888L298.445 192.863V192.784L296.239 191.524C296.239 191.524 296.16 191.524 296.081 191.524L295.136 192.075V192.154L296.318 192.863V192.942L295.609 193.336V193.415L296.554 193.966C296.633 193.966 296.633 193.966 296.712 193.888ZM290.802 193.1L290.014 193.572V193.651L290.959 194.203C290.959 194.203 291.038 194.203 291.117 194.203L291.905 193.73V193.651L290.959 193.1C290.881 193.1 290.802 193.1 290.802 193.1ZM289.62 193.809L288.832 194.282V194.36L289.777 194.912C289.777 194.912 289.856 194.912 289.935 194.912L290.723 194.439V194.36L289.777 193.809C289.699 193.73 289.699 193.73 289.62 193.809ZM283.867 201.295C283.867 201.295 283.946 201.295 284.025 201.295L284.813 200.822V200.743L283.867 200.192C283.867 200.192 283.789 200.192 283.71 200.192L282.922 200.664V200.743L283.867 201.295ZM280.4 199.088L279.612 199.561V199.64L280.558 200.192C280.558 200.192 280.637 200.192 280.715 200.192L281.503 199.719V199.64L280.558 199.088C280.479 199.088 280.4 199.088 280.4 199.088ZM282.213 200.664C282.213 200.664 282.291 200.664 282.37 200.664L283.158 200.192V200.113L282.213 199.561C282.213 199.561 282.134 199.561 282.055 199.561L281.267 200.034V200.113L282.213 200.664ZM285.916 201.689L286.704 201.216V201.137L285.759 200.586C285.759 200.586 285.68 200.586 285.601 200.586L284.813 201.058V201.137L285.759 201.689C285.837 201.689 285.837 201.689 285.916 201.689ZM284.577 202.319C284.577 202.319 284.655 202.319 284.734 202.319L285.522 201.846V201.768L284.577 201.216C284.577 201.216 284.498 201.216 284.419 201.216L283.631 201.689V201.768L284.577 202.319ZM281.503 198.458L280.715 198.931V199.01L281.661 199.561C281.661 199.561 281.74 199.561 281.819 199.561L282.607 199.088V199.01L281.661 198.458C281.661 198.458 281.582 198.458 281.503 198.458ZM287.335 195.148L286.547 195.621V195.7L287.492 196.252C287.492 196.252 287.571 196.252 287.65 196.252L288.438 195.779V195.7L287.492 195.148C287.413 195.07 287.335 195.07 287.335 195.148ZM282.685 197.749L281.897 198.222V198.3L282.843 198.852C282.843 198.852 282.922 198.852 283.001 198.852L283.789 198.379V198.3L282.843 197.749C282.764 197.749 282.764 197.749 282.685 197.749ZM288.438 194.439L287.65 194.912V194.991L288.595 195.542C288.595 195.542 288.674 195.542 288.753 195.542L289.541 195.07V194.991L288.595 194.439C288.595 194.439 288.517 194.439 288.438 194.439ZM286.153 195.779L285.365 196.252V196.33L286.31 196.882C286.31 196.882 286.389 196.882 286.468 196.882L287.256 196.409V196.33L286.31 195.779C286.231 195.779 286.231 195.779 286.153 195.779ZM284.971 196.409L284.183 196.882V196.961L285.128 197.512C285.128 197.512 285.207 197.512 285.286 197.512L286.074 197.04V196.961L285.128 196.409C285.128 196.409 285.049 196.409 284.971 196.409ZM283.867 197.118L283.079 197.591V197.67L284.025 198.222C284.025 198.222 284.104 198.222 284.183 198.222L284.971 197.749V197.67L284.025 197.118C283.946 197.118 283.867 197.118 283.867 197.118ZM289.777 197.906L290.565 197.434V197.355L289.62 196.803C289.62 196.803 289.541 196.803 289.462 196.803L288.674 197.276V197.355L289.62 197.906C289.699 197.906 289.699 197.985 289.777 197.906ZM299.943 187.82L299.155 188.293V188.372L300.1 188.923C300.1 188.923 300.179 188.923 300.258 188.923L301.046 188.45V188.372L300.1 187.82C300.021 187.82 299.943 187.82 299.943 187.82ZM298.524 188.608L297.736 189.081V189.16L298.682 189.711C298.682 189.711 298.761 189.711 298.839 189.711L299.627 189.238V189.16L298.682 188.608C298.603 188.608 298.524 188.608 298.524 188.608ZM301.046 187.19L300.258 187.662V187.741L301.203 188.293C301.203 188.293 301.282 188.293 301.361 188.293L302.149 187.82V187.741L301.203 187.19C301.203 187.111 301.125 187.111 301.046 187.19ZM295.057 193.336L295.845 192.863V192.784L294.899 192.233C294.899 192.233 294.821 192.233 294.742 192.233L293.954 192.706V192.784L294.899 193.336C294.978 193.336 295.057 193.336 295.057 193.336ZM302.385 186.48C302.385 186.48 302.307 186.48 302.228 186.48L301.44 186.953V187.032L302.385 187.584C302.385 187.584 302.464 187.584 302.543 187.584L303.331 187.111V187.032L302.385 186.48ZM290.881 197.276L291.669 196.803V196.724L290.723 196.173C290.723 196.173 290.644 196.173 290.565 196.173L289.777 196.646V196.724L290.723 197.276C290.802 197.276 290.881 197.276 290.881 197.276ZM305.143 189.081L305.931 188.608V188.529L304.986 187.978C304.986 187.978 304.907 187.978 304.828 187.978L304.04 188.45V188.529L304.986 189.081C304.986 189.081 305.065 189.081 305.143 189.081ZM302.622 189.002L303.41 188.529V188.45L302.464 187.899C302.464 187.899 302.385 187.899 302.307 187.899L301.519 188.372V188.45L302.464 189.002C302.543 189.002 302.622 189.002 302.622 189.002ZM303.646 187.268C303.646 187.268 303.567 187.268 303.489 187.268L302.701 187.741V187.82L303.646 188.372C303.646 188.372 303.725 188.372 303.804 188.372L304.592 187.899V187.82L303.646 187.268ZM303.883 187.111L306.089 188.372C306.089 188.372 306.168 188.372 306.247 188.372L307.035 187.899V187.82L304.828 186.559C304.828 186.559 304.749 186.559 304.671 186.559L303.883 187.111C303.883 187.032 303.883 187.111 303.883 187.111ZM301.203 188.608L300.415 189.081V189.16L301.361 189.711C301.361 189.711 301.44 189.711 301.519 189.711L302.307 189.238V189.16L301.361 188.608C301.282 188.608 301.282 188.608 301.203 188.608ZM292.535 193.651L291.747 194.124V194.203L292.693 194.754C292.693 194.754 292.772 194.754 292.851 194.754L293.639 194.282V194.203L292.693 193.651C292.614 193.572 292.535 193.572 292.535 193.651ZM303.804 189.711C303.804 189.711 303.883 189.711 303.961 189.711L304.749 189.238V189.16L303.804 188.608C303.804 188.608 303.725 188.608 303.646 188.608L302.858 189.081V189.16L303.804 189.711ZM293.717 192.942L292.929 193.415V193.494L293.875 194.045C293.875 194.045 293.954 194.045 294.033 194.045L294.821 193.572V193.494L293.875 192.942C293.796 192.942 293.717 192.942 293.717 192.942ZM284.971 200.586C284.971 200.586 285.049 200.586 285.128 200.586L285.916 200.113V200.034L284.971 199.482C284.971 199.482 284.892 199.482 284.813 199.482L284.025 199.955V200.034L284.971 200.586ZM283.237 198.931L282.449 199.404V199.482L283.395 200.034C283.395 200.034 283.473 200.034 283.552 200.034L284.34 199.561V199.482L283.395 198.931C283.395 198.931 283.316 198.931 283.237 198.931ZM286.31 199.955L287.098 199.482V199.404L286.153 198.852C286.153 198.852 286.074 198.852 285.995 198.852L285.207 199.325V199.404L286.153 199.955C286.231 199.955 286.231 199.955 286.31 199.955ZM287.413 199.246L288.201 198.773V198.694L287.256 198.143C287.256 198.143 287.177 198.143 287.098 198.143L286.31 198.616V198.694L287.256 199.246C287.335 199.246 287.413 199.246 287.413 199.246ZM288.595 198.616L289.383 198.143V198.064L288.438 197.512C288.438 197.512 288.359 197.512 288.28 197.512L287.492 197.985V198.064L288.438 198.616C288.517 198.616 288.595 198.616 288.595 198.616ZM284.419 198.3L283.631 198.773V198.852L284.577 199.404C284.577 199.404 284.655 199.404 284.734 199.404L285.522 198.931V198.852L284.577 198.3C284.498 198.3 284.498 198.3 284.419 198.3ZM285.601 197.591L284.813 198.064V198.143L285.759 198.694C285.759 198.694 285.837 198.694 285.916 198.694L286.704 198.222V198.143L285.759 197.591C285.68 197.591 285.601 197.591 285.601 197.591ZM290.171 194.991L289.383 195.464V195.542L290.329 196.094C290.329 196.094 290.408 196.094 290.487 196.094L291.275 195.621V195.542L290.329 194.991C290.329 194.912 290.25 194.912 290.171 194.991ZM289.068 195.621L288.28 196.094V196.173L289.226 196.724C289.226 196.724 289.305 196.724 289.383 196.724L290.171 196.252V196.173L289.226 195.621C289.147 195.621 289.068 195.621 289.068 195.621ZM291.353 194.282L290.565 194.754V194.833L291.511 195.385C291.511 195.385 291.59 195.385 291.669 195.385L292.457 194.912V194.833L291.511 194.282C291.432 194.282 291.432 194.282 291.353 194.282ZM286.704 196.961L285.916 197.434V197.512L286.862 198.064C286.862 198.064 286.941 198.064 287.019 198.064L287.807 197.591V197.512L286.862 196.961C286.862 196.961 286.783 196.961 286.704 196.961ZM287.886 196.252L287.098 196.724V196.803L288.044 197.355C288.044 197.355 288.123 197.355 288.201 197.355L288.989 196.882V196.803L288.044 196.252C287.965 196.252 287.965 196.252 287.886 196.252ZM287.019 200.98L287.807 200.507V200.428L286.862 199.876C286.862 199.876 286.783 199.876 286.704 199.876L285.916 200.349V200.428L286.862 200.98C286.941 201.058 287.019 201.058 287.019 200.98ZM280.243 200.349L279.297 199.798C279.297 199.798 279.218 199.798 279.139 199.798L278.351 200.27V200.349L279.297 200.901C279.297 200.901 279.376 200.901 279.455 200.901L280.243 200.349C280.321 200.349 280.321 200.349 280.243 200.349ZM281.976 200.822L281.031 200.27C281.031 200.27 280.952 200.27 280.873 200.27L279.691 200.98V201.058L280.637 201.61C280.637 201.61 280.715 201.61 280.794 201.61L281.976 200.822C282.055 200.901 282.055 200.822 281.976 200.822ZM278.824 199.325L277.879 198.773C277.879 198.773 277.8 198.773 277.721 198.773L276.775 199.325V199.404L277.721 199.955C277.721 199.955 277.8 199.955 277.879 199.955L278.824 199.325C278.903 199.325 278.903 199.325 278.824 199.325ZM279.612 198.852C279.612 198.852 279.691 198.852 279.77 198.852L280.558 198.379V198.3L279.612 197.749C279.612 197.749 279.533 197.749 279.455 197.749L278.667 198.222V198.3L279.612 198.852ZM283.631 201.374L282.685 200.822C282.685 200.822 282.607 200.822 282.528 200.822L281.031 201.689V201.768L281.976 202.319C281.976 202.319 282.055 202.319 282.134 202.319L283.631 201.374C283.631 201.452 283.631 201.452 283.631 201.374ZM284.34 202.477L283.395 201.925C283.395 201.925 283.316 201.925 283.237 201.925L282.291 202.477V202.556L283.237 203.107C283.237 203.107 283.316 203.107 283.395 203.107L284.34 202.477C284.419 202.556 284.419 202.477 284.34 202.477ZM288.201 193.888C288.201 193.888 288.28 193.888 288.359 193.888L289.147 193.415V193.336L288.201 192.784C288.201 192.784 288.123 192.784 288.044 192.784L287.256 193.257V193.336L288.201 193.888ZM285.916 195.227C285.916 195.227 285.995 195.227 286.074 195.227L286.862 194.754V194.676L285.916 194.124C285.916 194.124 285.837 194.124 285.759 194.124L284.971 194.597V194.676L285.916 195.227ZM280.794 198.222C280.794 198.222 280.873 198.222 280.952 198.222L281.74 197.749V197.67L280.794 197.118C280.794 197.118 280.715 197.118 280.637 197.118L279.849 197.591V197.67L280.794 198.222ZM287.019 194.597C287.019 194.597 287.098 194.597 287.177 194.597L287.965 194.124V194.045L287.019 193.494C287.019 193.494 286.941 193.494 286.862 193.494L286.074 193.966V194.045L287.019 194.597ZM284.734 195.936C284.734 195.936 284.813 195.936 284.892 195.936L285.68 195.464V195.385L284.734 194.833C284.734 194.833 284.655 194.833 284.577 194.833L283.789 195.306V195.385L284.734 195.936ZM284.971 202.556C284.971 202.556 284.892 202.556 284.813 202.556L283.631 203.265V203.344L284.577 203.895C284.577 203.895 284.655 203.895 284.734 203.895L285.916 203.186V203.107L284.971 202.556ZM283.079 196.882C283.079 196.882 283.158 196.882 283.237 196.882L284.025 196.409V196.33L283.079 195.779C283.079 195.779 283.001 195.779 282.922 195.779L282.134 196.252V196.33L283.079 196.882ZM281.897 197.512C281.897 197.512 281.976 197.512 282.055 197.512L282.843 197.04V196.961L281.897 196.409C281.897 196.409 281.819 196.409 281.74 196.409L280.952 196.882V196.961L281.897 197.512ZM306.404 190.184C306.404 190.184 306.325 190.184 306.247 190.184L304.277 191.287V191.366L305.222 191.918C305.222 191.918 305.301 191.918 305.38 191.918L307.35 190.814V190.736L306.404 190.184ZM303.883 191.681C303.883 191.681 303.804 191.681 303.725 191.681L302.937 192.154V192.233L303.883 192.784C303.883 192.784 303.961 192.784 304.04 192.784L304.828 192.312V192.233L303.883 191.681ZM288.201 200.349L288.989 199.876V199.798L288.044 199.246C288.044 199.246 287.965 199.246 287.886 199.246L287.098 199.719V199.798L288.044 200.349C288.123 200.349 288.201 200.349 288.201 200.349ZM301.597 193.021C301.597 193.021 301.519 193.021 301.44 193.021L300.652 193.494V193.572L301.597 194.124C301.597 194.124 301.676 194.124 301.755 194.124L302.543 193.651V193.572L301.597 193.021ZM307.586 189.554C307.586 189.554 307.507 189.554 307.429 189.554L306.641 190.026V190.105L307.586 190.657C307.586 190.657 307.665 190.657 307.744 190.657L308.532 190.184V190.105L307.586 189.554ZM309.635 189.396L307.429 188.135C307.429 188.135 307.35 188.135 307.271 188.135L306.483 188.608V188.687L308.689 189.948C308.689 189.948 308.768 189.948 308.847 189.948L309.635 189.396C309.714 189.396 309.714 189.396 309.635 189.396ZM297.263 195.464C297.263 195.464 297.185 195.464 297.106 195.464L296.16 196.015V196.094L297.106 196.646C297.106 196.646 297.185 196.646 297.263 196.646L298.209 196.094V196.015L297.263 195.464ZM300.179 193.809C300.179 193.809 300.1 193.809 300.021 193.809L298.839 194.518V194.597L299.785 195.148C299.785 195.148 299.864 195.148 299.943 195.148L301.125 194.439V194.36L300.179 193.809ZM294.584 197.04C294.584 197.04 294.505 197.04 294.427 197.04L287.886 200.822V200.901L288.832 201.452C288.832 201.452 288.911 201.452 288.989 201.452L295.53 197.67V197.591L294.584 197.04ZM287.65 200.98C287.65 200.98 287.571 200.98 287.492 200.98L286.547 201.531V201.61L287.492 202.162C287.492 202.162 287.571 202.162 287.65 202.162L288.595 201.61V201.531L287.65 200.98ZM295.924 196.252C295.924 196.252 295.845 196.252 295.766 196.252L294.821 196.803V196.882L295.766 197.434C295.766 197.434 295.845 197.434 295.924 197.434L296.869 196.882V196.803L295.924 196.252ZM286.31 201.768C286.31 201.768 286.231 201.768 286.153 201.768L285.207 202.319V202.398L286.153 202.95C286.153 202.95 286.231 202.95 286.31 202.95L287.256 202.398V202.319L286.31 201.768ZM298.603 194.754C298.603 194.754 298.524 194.754 298.445 194.754L297.5 195.306V195.385L298.445 195.936C298.445 195.936 298.524 195.936 298.603 195.936L299.549 195.385V195.306L298.603 194.754ZM302.701 192.312C302.701 192.312 302.622 192.312 302.543 192.312L301.755 192.784V192.863L302.701 193.415C302.701 193.415 302.779 193.415 302.858 193.415L303.646 192.942V192.863L302.701 192.312ZM305.222 190.499L306.01 190.026V189.948L305.065 189.396C305.065 189.396 304.986 189.396 304.907 189.396L304.119 189.869V189.948L305.065 190.499C305.143 190.499 305.222 190.499 305.222 190.499ZM300.1 190.42L300.888 189.948V189.869L299.943 189.317C299.943 189.317 299.864 189.317 299.785 189.317L298.997 189.79V189.869L299.943 190.42C300.021 190.499 300.021 190.499 300.1 190.42ZM297.5 194.991L299.785 193.651V193.572L298.839 193.021C298.839 193.021 298.761 193.021 298.682 193.021L296.397 194.36V194.439L297.342 194.991C297.342 194.991 297.421 194.991 297.5 194.991ZM303.961 191.13C303.961 191.13 304.04 191.13 304.119 191.13L304.907 190.657V190.578L303.961 190.026C303.961 190.026 303.883 190.026 303.804 190.026L303.016 190.499V190.578L303.961 191.13ZM302.779 190.42L303.567 189.948V189.869L302.622 189.317C302.622 189.317 302.543 189.317 302.464 189.317L301.676 189.79V189.869L302.622 190.42C302.701 190.42 302.779 190.42 302.779 190.42ZM296.318 195.621L297.106 195.148V195.07L296.16 194.518C296.16 194.518 296.081 194.518 296.003 194.518L295.215 194.991V195.07L296.16 195.621C296.239 195.7 296.239 195.7 296.318 195.621ZM301.44 192.627C301.44 192.627 301.519 192.627 301.597 192.627L302.385 192.154V192.075L301.44 191.524C301.44 191.524 301.361 191.524 301.282 191.524L300.494 191.996V192.075L301.44 192.627ZM290.487 199.01L291.275 198.537V198.458L290.329 197.906C290.329 197.906 290.25 197.906 290.171 197.906L289.383 198.379V198.458L290.329 199.01C290.408 199.01 290.487 199.01 290.487 199.01ZM291.669 198.3L292.457 197.828V197.749L291.511 197.197C291.511 197.197 291.432 197.197 291.353 197.197L290.565 197.67V197.749L291.511 198.3C291.59 198.379 291.669 198.379 291.669 198.3ZM289.383 199.64L290.171 199.167V199.088L289.226 198.537C289.226 198.537 289.147 198.537 289.068 198.537L288.28 199.01V199.088L289.226 199.64C289.305 199.719 289.305 199.719 289.383 199.64ZM293.954 196.961L294.742 196.488V196.409L293.796 195.858C293.796 195.858 293.717 195.858 293.639 195.858L292.851 196.33V196.409L293.796 196.961C293.875 197.04 293.954 197.04 293.954 196.961ZM292.851 197.67L293.639 197.197V197.118L292.693 196.567C292.693 196.567 292.614 196.567 292.535 196.567L291.747 197.04V197.118L292.693 197.67C292.772 197.67 292.772 197.67 292.851 197.67ZM295.136 196.33L295.924 195.858V195.779L294.978 195.227C294.978 195.227 294.899 195.227 294.821 195.227L294.033 195.7V195.779L294.978 196.33C295.057 196.33 295.136 196.33 295.136 196.33ZM300.415 186.48C300.415 186.48 300.494 186.48 300.573 186.48L301.361 186.008V185.929L301.125 185.771C301.125 185.771 301.046 185.771 300.967 185.771L300.179 186.244V186.323L300.415 186.48ZM294.742 190.105C294.742 190.105 294.821 190.105 294.899 190.105L295.687 189.632V189.554L294.742 189.002C294.742 189.002 294.663 189.002 294.584 189.002L293.796 189.475V189.554L294.742 190.105ZM297.027 188.766C297.027 188.766 297.106 188.766 297.185 188.766L297.973 188.293V188.214L297.027 187.662C297.027 187.662 296.948 187.662 296.869 187.662L296.081 188.135V188.214L297.027 188.766ZM293.323 190.972C293.323 190.972 293.402 190.972 293.481 190.972L294.269 190.499V190.42L293.323 189.869C293.323 189.869 293.245 189.869 293.166 189.869L292.378 190.342V190.42L293.323 190.972ZM295.924 189.475C295.924 189.475 296.003 189.475 296.081 189.475L296.869 189.002V188.923L295.924 188.372C295.924 188.372 295.845 188.372 295.766 188.372L294.978 188.844V188.923L295.924 189.475ZM291.038 192.233C291.038 192.233 291.117 192.233 291.196 192.233L291.984 191.76V191.681L291.038 191.13C291.038 191.13 290.959 191.13 290.881 191.13L290.093 191.602V191.681L291.038 192.233ZM292.141 191.602C292.141 191.602 292.22 191.602 292.299 191.602L293.087 191.13V191.051L292.141 190.499C292.141 190.499 292.063 190.499 291.984 190.499L291.196 190.972V191.051L292.141 191.602ZM298.13 187.82C298.13 187.82 298.209 187.82 298.288 187.82L299.076 187.347V187.268L298.839 187.111C298.839 187.111 298.761 187.111 298.682 187.111L297.894 187.584V187.662L298.13 187.82ZM301.597 185.771C301.597 185.771 301.676 185.771 301.755 185.771L302.543 185.298V185.22L302.307 185.062C302.307 185.062 302.228 185.062 302.149 185.062L301.361 185.535V185.614L301.597 185.771ZM303.489 186.874C303.489 186.874 303.567 186.874 303.646 186.874L304.434 186.402V186.323L303.489 185.771C303.489 185.771 303.41 185.771 303.331 185.771L302.543 186.244V186.323L303.489 186.874ZM306.404 189.79L307.192 189.317V189.238L306.247 188.687C306.247 188.687 306.168 188.687 306.089 188.687L305.301 189.16V189.238L306.247 189.79C306.325 189.869 306.404 189.869 306.404 189.79ZM299.312 187.111C299.312 187.111 299.391 187.111 299.47 187.111L300.258 186.638V186.559L300.021 186.402C300.021 186.402 299.943 186.402 299.864 186.402L299.076 186.874V186.953L299.312 187.111ZM289.856 192.942C289.856 192.942 289.935 192.942 290.014 192.942L290.802 192.469V192.39L289.856 191.839C289.856 191.839 289.777 191.839 289.699 191.839L288.911 192.312V192.39L289.856 192.942Z" fill="#DFAE61"/>
<path d="M289.306 185.771L279.85 191.208H279.771L276.225 189.16C275.594 188.766 275.2 187.978 275.358 187.268L276.698 180.334L284.578 173.951L286.154 174.897L284.814 181.831C284.656 182.54 285.05 183.407 285.681 183.722L289.306 185.771Z" fill="#455A64"/>
<path d="M279.849 191.208V193.021L274.885 190.184C273.939 189.632 273.388 188.371 273.545 187.347L275.042 179.388L276.618 180.255L275.279 187.189C275.121 187.899 275.515 188.765 276.146 189.081L279.849 191.208Z" fill="#263238"/>
<path d="M289.306 185.771L279.85 191.208V193.021L289.306 187.583V185.771Z" fill="#37474F"/>
<path d="M297.973 139.752C298.446 139.988 298.761 140.619 298.761 141.17V170.169C298.761 170.72 298.367 171.351 297.894 171.587L261.725 192.548C261.252 192.784 260.543 192.863 260.07 192.548C259.597 192.312 259.282 191.681 259.282 191.13V162.131C259.282 161.58 259.676 160.949 260.149 160.713L296.318 139.831C296.791 139.516 297.579 139.516 297.973 139.752Z" fill="#455A64"/>
<path d="M261.725 192.548C261.252 192.784 260.543 192.863 260.07 192.548C259.597 192.311 259.282 191.681 259.282 191.129V162.131C259.282 161.895 259.361 161.579 259.519 161.264L287.65 177.497L261.725 192.548Z" fill="#263238"/>
<path d="M298.761 170.248V141.249C298.761 140.698 298.367 140.461 297.894 140.776L261.725 161.658C261.252 161.895 260.858 162.604 260.858 163.077V192.075C260.858 192.627 261.252 192.863 261.725 192.548L297.894 171.666C298.367 171.43 298.761 170.72 298.761 170.248Z" fill="#37474F"/>
<path d="M296.712 142.352L262.356 162.21C261.962 162.446 261.646 162.919 261.646 163.392V189.159C261.646 189.553 261.962 189.79 262.356 189.553L296.712 169.696C297.106 169.459 297.422 168.987 297.422 168.514V142.746C297.422 142.273 297.106 142.116 296.712 142.352Z" fill="white"/>
<path d="M248.723 236.361L228.393 224.619C227.841 224.304 227.368 223.516 227.368 222.886V210.435C227.368 209.805 227.841 209.017 228.393 208.702L242.34 200.664C242.892 200.349 243.837 200.349 244.389 200.664L264.719 212.405C265.271 212.721 265.744 213.509 265.744 214.218V226.668C265.744 227.299 265.271 228.087 264.719 228.481L250.772 236.518C250.22 236.676 249.275 236.676 248.723 236.361Z" fill="#263238"/>
<path d="M250.771 221.546L264.719 213.509C265.271 213.194 265.271 212.642 264.719 212.327L244.389 200.586C243.837 200.27 242.891 200.27 242.34 200.586L228.392 208.623C227.841 208.938 227.841 209.49 228.392 209.805L248.723 221.546C249.274 221.861 250.22 221.861 250.771 221.546Z" fill="#455A64"/>
<path d="M249.747 221.783V236.597C249.353 236.597 249.038 236.518 248.723 236.361L228.393 224.62C227.841 224.304 227.368 223.516 227.368 222.807V210.357C227.368 209.805 227.683 209.175 228.156 208.781C227.841 209.096 227.92 209.49 228.393 209.726L248.723 221.468C248.959 221.704 249.353 221.783 249.747 221.783Z" fill="#37474F"/>
<path d="M233.436 209.411C233.83 209.175 234.382 209.175 234.776 209.411L249.433 217.843C249.827 218.079 249.827 218.394 249.433 218.631C249.039 218.867 248.487 218.867 248.093 218.631L233.436 210.199C233.042 209.963 233.042 209.569 233.436 209.411Z" fill="#37474F"/>
<path d="M233.436 209.411C233.83 209.175 234.382 209.175 234.776 209.411L243.68 214.533L242.341 215.321L233.436 210.199C233.042 209.963 233.042 209.569 233.436 209.411Z" fill="#DFAE61"/>
<path d="M235.958 207.914C236.352 207.677 236.904 207.677 237.298 207.914L251.955 216.345C252.348 216.582 252.348 216.897 251.955 217.133C251.56 217.37 251.009 217.37 250.615 217.133L235.958 208.702C235.643 208.465 235.643 208.15 235.958 207.914Z" fill="#37474F"/>
<path d="M235.958 207.914C236.352 207.677 236.904 207.677 237.298 207.914L238.48 208.623L237.14 209.411L235.958 208.702C235.643 208.465 235.643 208.15 235.958 207.914Z" fill="#DFAE61"/>
<path d="M238.48 206.417C238.874 206.18 239.425 206.18 239.819 206.417L254.476 214.848C254.87 215.085 254.87 215.4 254.476 215.636C254.082 215.873 253.53 215.873 253.136 215.636L238.48 207.205C238.164 207.047 238.164 206.653 238.48 206.417Z" fill="#37474F"/>
<path d="M238.48 206.417C238.874 206.18 239.425 206.18 239.819 206.417L245.02 209.411L243.68 210.199L238.48 207.205C238.164 207.047 238.164 206.653 238.48 206.417Z" fill="#DFAE61"/>
<path d="M241.08 204.998C241.474 204.762 242.025 204.762 242.419 204.998L257.076 213.43C257.47 213.666 257.47 213.981 257.076 214.218C256.682 214.454 256.13 214.454 255.736 214.218L241.08 205.786C240.686 205.55 240.686 205.235 241.08 204.998Z" fill="#37474F"/>
<path d="M241.08 204.998C241.474 204.762 242.025 204.762 242.419 204.998L252.9 211.066L251.56 211.854L241.08 205.786C240.686 205.55 240.686 205.235 241.08 204.998Z" fill="#DFAE61"/>
<path d="M243.601 203.501C243.995 203.265 244.547 203.265 244.941 203.501L259.598 211.933C259.992 212.169 259.992 212.484 259.598 212.721C259.204 212.957 258.652 212.957 258.258 212.721L243.601 204.289C243.207 204.053 243.207 203.737 243.601 203.501Z" fill="#37474F"/>
<path d="M243.601 203.501C243.995 203.265 244.547 203.265 244.941 203.501L258.1 211.145L256.761 211.933L243.601 204.289C243.207 204.053 243.207 203.737 243.601 203.501Z" fill="#DFAE61"/>
<path d="M251.323 232.342V229.82C251.323 229.19 251.717 228.402 252.111 228.165C252.584 227.929 252.899 228.244 252.899 228.875V231.396C252.899 232.027 252.505 232.815 252.111 233.051C251.717 233.287 251.323 232.972 251.323 232.342Z" fill="#37474F"/>
<path d="M252.19 228.559C251.875 228.717 251.639 229.111 251.639 229.505C251.639 229.82 251.875 229.978 252.19 229.82C252.505 229.662 252.742 229.269 252.742 228.875C252.742 228.481 252.427 228.323 252.19 228.559Z" fill="#DFAE61"/>
<path d="M253.845 230.845V228.323C253.845 227.693 254.239 226.905 254.633 226.668C255.106 226.432 255.421 226.747 255.421 227.378V229.899C255.421 230.53 255.027 231.318 254.633 231.554C254.239 231.869 253.845 231.475 253.845 230.845Z" fill="#37474F"/>
<path d="M254.633 229.978C254.317 230.135 254.081 230.529 254.081 230.923C254.081 231.239 254.317 231.396 254.633 231.239C254.948 231.081 255.184 230.687 255.184 230.293C255.184 229.978 254.948 229.82 254.633 229.978Z" fill="#DFAE61"/>
<path d="M301.045 261.971C301.361 262.365 301.361 263.311 301.676 264.493C301.991 265.754 302.07 266.699 301.912 267.33C301.676 267.96 300.336 269.3 298.76 269.851C297.105 270.324 295.135 269.93 293.165 268.748C291.195 267.566 289.777 266.148 286.94 265.36C284.182 264.572 282.764 263.941 281.424 262.838C279.848 261.577 278.903 259.765 281.818 258.977C284.813 258.189 290.092 259.45 295.923 259.686L301.045 261.971Z" fill="#263238"/>
<path d="M301.046 258.267V262.601C301.046 262.601 300.416 264.02 297.973 264.177C296.475 264.256 295.372 263.547 294.663 262.601V258.267H301.046Z" fill="#FFA8A7"/>
<path d="M292.692 229.742C292.692 235.179 294.19 260.237 294.19 260.237C294.19 260.237 296.396 263.074 301.203 260.237L302.858 232.421L292.692 229.742Z" fill="#37474F"/>
<path d="M287.886 270.481C288.202 270.875 288.202 271.821 288.517 273.003C288.832 274.264 288.911 275.209 288.753 275.84C288.517 276.47 287.177 277.81 285.601 278.361C283.946 278.834 281.976 278.44 280.006 277.258C278.036 276.076 276.618 274.658 273.781 273.87C271.023 273.082 269.605 272.451 268.265 271.348C266.689 270.087 265.743 268.275 268.659 267.487C271.653 266.699 276.933 267.96 282.764 268.196L287.886 270.481Z" fill="#263238"/>
<path d="M287.887 266.856V271.19C287.887 271.19 287.256 272.609 284.813 272.766C283.316 272.845 282.213 272.136 281.504 271.19V266.856H287.887Z" fill="#FFA8A7"/>
<path d="M279.612 238.252C279.612 243.689 281.11 268.748 281.11 268.748C281.11 268.748 283.316 271.584 288.123 268.748L289.777 240.931L279.612 238.252Z" fill="#37474F"/>
<path d="M296.476 289.787C296.476 290.024 296.476 290.181 296.554 290.418C296.633 290.812 296.87 291.127 297.106 291.285C297.5 291.521 298.13 291.521 298.761 291.127C300.022 290.418 301.125 288.605 301.125 287.108C301.125 286.399 300.888 285.926 300.494 285.611L300.416 285.532C300.1 285.375 299.785 285.375 299.391 285.532C299.234 285.611 298.997 285.69 298.84 285.769C297.5 286.557 296.476 288.369 296.476 289.787Z" fill="#455A64"/>
<path d="M297.106 284.823C297.5 284.587 297.815 284.508 298.131 284.508C298.367 284.508 298.603 284.587 298.761 284.665H298.84L300.337 285.532C300.022 285.375 299.707 285.375 299.313 285.532C299.155 285.611 298.919 285.69 298.761 285.769C297.5 286.478 296.397 288.29 296.397 289.787C296.397 290.024 296.397 290.181 296.476 290.418C296.555 290.812 296.791 291.127 297.027 291.285L295.451 290.418L295.294 290.339C294.979 290.103 294.742 289.551 294.742 288.921C294.742 287.345 295.845 285.532 297.106 284.823Z" fill="#263238"/>
<path d="M321.613 276.312C321.613 276.549 321.613 276.706 321.692 276.943C321.771 277.337 322.007 277.652 322.244 277.81C322.638 278.046 323.268 278.046 323.898 277.652C325.159 276.943 326.262 275.13 326.262 273.633C326.262 272.924 326.026 272.451 325.632 272.136L325.553 272.057C325.238 271.9 324.923 271.9 324.529 272.057C324.371 272.136 324.135 272.215 323.977 272.294C322.716 273.003 321.613 274.815 321.613 276.312Z" fill="#455A64"/>
<path d="M322.244 271.269C322.638 271.033 322.953 270.954 323.268 270.954C323.504 270.954 323.741 271.033 323.898 271.112H323.977L325.474 271.978C325.159 271.821 324.844 271.821 324.45 271.978C324.292 272.057 324.056 272.136 323.898 272.215C322.638 272.924 321.534 274.737 321.534 276.234C321.534 276.47 321.534 276.628 321.613 276.864C321.692 277.258 321.928 277.573 322.165 277.731L320.589 276.864L320.431 276.785C320.431 276.785 320.431 276.785 320.352 276.785C320.037 276.549 319.801 275.997 319.801 275.367C319.958 273.87 320.983 272.057 322.244 271.269Z" fill="#263238"/>
<path d="M317.122 295.067C317.122 295.303 317.122 295.461 317.043 295.697C316.964 296.091 316.728 296.406 316.491 296.564C316.097 296.8 315.467 296.8 314.837 296.406C313.576 295.697 312.473 293.885 312.473 292.388C312.473 291.678 312.709 291.206 313.103 290.89L313.182 290.812C313.497 290.654 313.812 290.654 314.206 290.812C314.364 290.89 314.6 290.969 314.758 291.048C316.097 291.836 317.122 293.648 317.122 295.067Z" fill="#455A64"/>
<path d="M316.492 290.102C316.098 289.866 315.782 289.787 315.467 289.787C315.231 289.787 314.994 289.866 314.837 289.945H314.758L313.261 290.812C313.576 290.654 313.891 290.654 314.285 290.812C314.443 290.89 314.679 290.969 314.837 291.048C316.098 291.757 317.201 293.57 317.201 295.067C317.201 295.303 317.201 295.461 317.122 295.697C317.043 296.091 316.807 296.406 316.57 296.564L318.146 295.697L318.304 295.618C318.619 295.382 318.856 294.83 318.856 294.2C318.856 292.624 317.831 290.812 316.492 290.102Z" fill="#263238"/>
<path d="M333.512 287.108C333.512 287.344 333.512 287.502 333.433 287.738C333.354 288.132 333.118 288.447 332.881 288.605C332.487 288.841 331.857 288.841 331.226 288.447C329.966 287.738 328.862 285.926 328.862 284.429C328.862 283.719 329.099 283.247 329.493 282.931L329.572 282.853C329.887 282.695 330.202 282.695 330.596 282.853C330.754 282.931 330.99 283.01 331.148 283.089C332.408 283.798 333.512 285.611 333.512 287.108Z" fill="#455A64"/>
<path d="M332.881 282.065C332.487 281.828 332.172 281.75 331.857 281.75C331.62 281.75 331.384 281.828 331.226 281.907H331.148L329.65 282.774C329.966 282.616 330.281 282.616 330.675 282.774C330.832 282.853 331.069 282.932 331.226 283.01C332.487 283.72 333.59 285.532 333.59 287.029C333.59 287.266 333.59 287.423 333.512 287.66C333.433 288.054 333.196 288.369 332.96 288.526L334.536 287.66L334.694 287.581C335.009 287.344 335.245 286.793 335.245 286.162C335.166 284.665 334.142 282.853 332.881 282.065Z" fill="#263238"/>
<path d="M301.913 277.258C301.913 277.495 301.913 277.652 301.834 277.889C301.755 278.283 301.519 278.598 301.282 278.755C300.888 278.992 300.258 278.992 299.628 278.598C298.367 277.889 297.264 276.076 297.264 274.579C297.264 273.87 297.5 273.397 297.894 273.082L297.973 273.003C298.288 272.845 298.603 272.845 298.997 273.003C299.155 273.082 299.391 273.161 299.549 273.239C300.888 274.027 301.913 275.84 301.913 277.258Z" fill="#455A64"/>
<path d="M301.283 272.294C300.889 272.057 300.573 271.979 300.258 271.979C300.022 271.979 299.785 272.057 299.628 272.136H299.549L298.052 273.003C298.367 272.845 298.682 272.845 299.076 273.003C299.234 273.082 299.47 273.161 299.628 273.239C300.889 273.949 301.992 275.761 301.992 277.258C301.992 277.495 301.992 277.652 301.913 277.889C301.834 278.283 301.598 278.598 301.361 278.755L302.937 277.889L303.095 277.81C303.41 277.573 303.647 277.022 303.647 276.391C303.568 274.815 302.543 273.003 301.283 272.294Z" fill="#263238"/>
<path d="M315.782 272.372L324.135 270.008V271.742L315.782 276.549V272.372Z" fill="#F5F5F5"/>
<path d="M315.782 272.372L314.994 271.899L323.268 269.614L324.135 270.008L315.782 272.372Z" fill="#FAFAFA"/>
<path d="M312.236 277.652L300.416 273.239V271.427L312.236 272.53V277.652Z" fill="#F5F5F5"/>
<path d="M300.416 271.427L301.283 271.19L312.866 271.978L312.236 272.53L300.416 271.427Z" fill="#FAFAFA"/>
<path d="M311.921 277.1C311.921 278.44 316.019 278.44 316.019 277.1V265.438H311.921V277.1Z" fill="#FAFAFA"/>
<path d="M314.915 274.106L317.201 288.684H315.625L313.497 274.027C314.127 274.185 314.521 274.185 314.915 274.106Z" fill="#FAFAFA"/>
<path d="M313.575 274.106V278.046L315.703 291.127V288.684L313.575 274.106Z" fill="#F5F5F5"/>
<path d="M317.279 288.684H315.703V291.127H317.279V288.684Z" fill="#EBEBEB"/>
<path d="M312.866 277.967L297.657 285.926V283.483L312.866 274.106V277.967Z" fill="#F5F5F5"/>
<path d="M312.866 274.106C312.472 274.027 312.157 273.948 311.92 273.633L296.712 282.853L297.658 283.483L312.866 274.106Z" fill="#FAFAFA"/>
<path d="M297.658 285.926V283.483L296.712 282.853V285.217L297.658 285.926Z" fill="#EBEBEB"/>
<path d="M332.015 283.089L315.782 277.573V273.948L332.015 280.646V283.089Z" fill="#F5F5F5"/>
<path d="M315.782 273.948C315.94 273.948 315.94 273.712 316.019 273.318L332.488 280.489L332.015 280.725L315.782 273.948Z" fill="#FAFAFA"/>
<path d="M332.487 280.489V282.853L332.015 283.089V280.646L332.487 280.489Z" fill="#EBEBEB"/>
<path d="M317.436 245.187H310.502V269.22C310.502 271.19 317.436 271.19 317.436 269.22V245.187Z" fill="#F0F0F0"/>
<path d="M287.256 247.314C287.256 246.053 287.886 244.95 288.989 244.32L313.26 230.293C314.363 229.663 315.624 229.663 316.727 230.293L340.997 244.32C342.101 244.95 342.731 246.053 342.731 247.314L314.993 263.31L287.256 247.314Z" fill="#DFAE61"/>
<path d="M287.256 247.314V249.284L313.26 264.335C313.811 264.65 314.363 264.808 314.993 264.808C315.624 264.808 316.175 264.65 316.727 264.335L342.731 249.284V247.314L316.727 262.365C316.175 262.68 315.624 262.838 314.993 262.838C314.442 262.838 313.811 262.68 313.26 262.365L287.256 247.314Z" fill="#FAFAFA"/>
<path d="M287.256 247.314V249.284L313.26 264.335C313.811 264.65 314.363 264.808 314.993 264.808V262.838C314.442 262.838 313.811 262.68 313.26 262.365L287.256 247.314Z" fill="#F5F5F5"/>
<path opacity="0.1" d="M287.256 247.314C287.256 246.762 287.413 246.211 287.65 245.738L313.89 260.867C314.599 261.261 315.466 261.261 316.175 260.867L342.416 245.738C342.652 246.211 342.81 246.762 342.81 247.314L315.072 263.31L287.256 247.314Z" fill="black"/>
<path d="M334.299 236.361C334.299 236.361 311.762 229.584 307.901 228.481C303.961 227.378 296.475 225.644 294.269 226.59C292.062 227.535 290.959 228.717 290.723 231.869C290.644 232.5 290.723 235.337 290.723 235.337C290.723 235.337 301.597 238.725 310.501 238.725C319.485 238.804 334.299 236.361 334.299 236.361Z" fill="#263238"/>
<path d="M315.072 198.143L316.569 206.18L324.843 207.126L323.661 196.015L315.072 198.143Z" fill="#FFA8A7"/>
<path d="M307.35 191.681C307.35 191.681 306.246 194.991 306.562 195.227C306.877 195.464 308.374 195.306 308.374 195.306L307.35 191.681Z" fill="#F28F8F"/>
<path d="M309.477 181.043C308.059 182.54 306.719 185.062 307.271 191.445C307.901 198.379 310.029 200.27 310.895 200.664C312.235 201.295 316.648 200.192 318.145 199.167C319.957 197.828 323.346 194.518 324.291 190.42C325.316 185.614 323.976 180.098 320.43 178.994C315.466 177.34 310.659 179.782 309.477 181.043Z" fill="#FFBE9D"/>
<path d="M306.167 184.432C307.034 186.008 308.61 190.027 313.102 191.13C313.102 191.13 313.338 188.451 315.623 188.372C317.909 188.372 318.618 191.13 317.515 193.021C316.411 194.991 314.993 194.518 314.993 194.518C314.993 194.518 315.229 198.3 317.987 199.64C317.987 199.64 321.297 201.137 324.291 199.246C325.631 198.379 327.207 194.676 327.995 191.602C329.729 185.22 329.413 180.413 325.395 179.388C324.528 176.709 323.188 175.842 320.667 175.685C315.229 175.291 311.683 179.388 307.113 179.388C304.749 179.467 305.222 182.619 306.167 184.432Z" fill="#263238"/>
<path d="M325.316 179.94L328.074 178.758C327.759 177.97 326.892 177.655 326.104 177.97C325.316 178.285 325.001 179.152 325.316 179.94Z" fill="#263238"/>
<path d="M334.22 233.682C334.22 238.016 334.614 242.507 332.802 245.659C331.068 248.732 322.794 255.352 313.653 253.776C307.665 252.751 288.201 245.344 288.201 245.344C288.201 245.344 279.612 242.192 279.533 239.907C279.533 239.355 279.454 238.804 279.533 238.173C279.691 235.179 280.951 231.948 287.255 232.106C294.111 232.263 314.52 235.652 314.52 235.652L334.22 233.682Z" fill="#37474F"/>
<path d="M332.644 205.708C331.935 203.423 329.02 200.98 326.183 201.532C320.903 202.477 315.151 204.211 313.654 204.684C313.654 204.684 314.363 216.267 308.374 219.813L307.586 234.628C307.586 234.628 309.083 237.543 311.368 239.04C313.811 240.616 317.278 242.98 323.425 242.429C330.753 241.798 334.378 236.44 334.378 236.44C334.378 236.44 334.299 222.492 334.063 216.188C333.748 210.83 333.117 207.284 332.644 205.708Z" fill="#E0B269"/>
<path d="M308.216 222.65C308.216 222.65 311.29 219.419 312.393 215.637C312.393 215.637 312.393 221.153 308.138 224.068L308.216 222.65Z" fill="#37474F"/>
<path d="M313.575 204.683C310.345 205.629 308.375 205.865 304.75 211.381C301.125 216.897 293.324 227.85 292.536 229.19C291.433 231.002 290.96 233.209 291.905 234.864C292.772 236.44 295.294 235.73 298.919 232.657C302.386 229.663 309.163 221.074 309.163 221.074C309.163 221.074 312.709 213.272 313.575 204.683Z" fill="#FFBE9D"/>
<path d="M313.576 204.683C313.576 204.683 310.66 205.314 308.848 206.18C308.296 206.417 306.484 207.126 305.302 209.096C302.78 213.272 299.155 219.182 299.155 219.182C299.155 219.182 298.525 224.383 304.829 226.196L308.138 222.571C309.478 221.074 310.66 219.419 311.448 217.606C313.024 214.533 314.6 209.569 313.576 204.683Z" fill="#E0B269"/>
<path d="M293.008 235.652C290.014 235.258 283.237 226.038 281.031 223.123C278.746 220.207 276.933 218.473 274.884 217.37C272.835 216.267 271.102 214.533 270.55 210.987C269.999 207.678 273.072 205.629 275.594 208.939C277.17 211.066 278.824 212.406 278.903 212.012C278.982 211.697 278.43 210.199 278.43 208.702C278.43 206.89 279.77 208.072 280.085 208.702C280.479 209.333 280.952 210.357 281.425 211.697C282.055 213.351 281.819 215.006 282.607 216.109C283.395 217.213 293.875 227.299 293.875 227.299L293.008 235.652Z" fill="#FFBE9D"/>
<path d="M344.071 207.284V238.252L319.406 252.515V221.546L344.071 207.284Z" fill="#F8C16C"/>
<path opacity="0.1" d="M344.071 207.284V238.252L319.406 252.515V221.546L344.071 207.284Z" fill="black"/>
<path d="M317.2 251.254L319.407 252.515C319.407 252.515 319.407 228.087 319.407 224.068C319.407 222.728 319.801 222.019 320.352 221.783C322.243 220.601 324.686 223.044 324.686 223.044V220.995L348.484 207.205C346.277 205.944 344.78 205.077 340.289 207.599C335.797 210.12 322.559 217.843 320.431 219.104C318.776 220.128 317.2 221.31 317.2 224.147C317.2 229.111 317.2 251.254 317.2 251.254Z" fill="#F8C16C"/>
<path opacity="0.4" d="M320.431 219.182C322.479 217.843 335.797 210.199 340.288 207.677C344.78 205.156 346.277 205.944 348.483 207.283L324.686 221.073C323.898 220.128 322.322 219.182 320.431 219.182Z" fill="white"/>
<path d="M324.765 223.122L348.483 209.254V207.284L324.765 221.074V223.122Z" fill="#F8C16C"/>
<path opacity="0.2" d="M324.765 223.122L348.483 209.254V207.284L324.765 221.074V223.122Z" fill="black"/>
<path d="M325.08 262.365C325.474 262.365 325.789 262.286 326.183 262.049C326.892 261.655 327.286 260.946 327.286 260.158V243.925C327.286 243.295 326.813 242.822 326.183 242.822C325.553 242.822 325.08 243.295 325.08 243.925V260.079L323.346 259.055C322.795 258.74 322.164 258.897 321.849 259.449C321.534 260.001 321.692 260.631 322.243 260.946L324.056 261.971C324.371 262.286 324.686 262.365 325.08 262.365Z" fill="#E6E6E6"/>
<path d="M338.556 254.564C338.95 254.564 339.265 254.485 339.659 254.249C340.368 253.855 340.762 253.145 340.762 252.357V236.125C340.762 235.494 340.289 235.021 339.659 235.021C339.028 235.021 338.556 235.494 338.556 236.125V252.279L336.822 251.254C336.27 250.939 335.64 251.097 335.325 251.648C335.01 252.2 335.167 252.83 335.719 253.145L337.531 254.17C337.767 254.485 338.162 254.564 338.556 254.564Z" fill="#E6E6E6"/>
</g>
<defs>
<clipPath id="clip0">
<rect width="407" height="300" fill="white"/>
</clipPath>
</defs>
</svg>
