<svg width="407" height="300" viewBox="0 0 407 300" fill="none" xmlns="http://www.w3.org/2000/svg">
<path d="M303.368 264.28C247.624 297.157 157.211 297.157 101.467 264.28C45.7239 231.402 45.7239 178.007 101.467 145.129C157.211 112.252 247.624 112.252 303.368 145.129C359.112 178.069 359.112 231.402 303.368 264.28Z" fill="#7CC4FF"/>
<path d="M93.5569 257.358C75.0242 257.358 60.0005 248.69 60.0005 237.998C60.0005 227.307 75.0242 218.639 93.5569 218.639C112.09 218.639 127.113 227.307 127.113 237.998C127.113 248.69 112.09 257.358 93.5569 257.358Z" fill="#5CA8E6"/>
<path d="M133.42 38.6478L128.662 41.367C128.662 41.1816 128.723 40.9344 128.723 40.749V39.3894C128.723 36.9174 126.993 35.9286 124.892 37.1646C124.027 37.659 123.223 38.4624 122.605 39.3894C122.234 36.2994 119.824 35.187 116.92 36.8556C113.768 38.7096 111.172 43.0974 111.172 46.8054V48.8448C111.172 49.7718 111.358 50.5752 111.667 51.255L107.711 53.5416C106.537 54.2214 105.61 55.89 105.61 57.2496C105.61 58.6092 106.537 59.1654 107.711 58.4856L133.42 43.6536C134.594 42.9738 135.521 41.3052 135.521 39.9456C135.521 38.5242 134.594 37.968 133.42 38.6478Z" fill="#EBEBEB"/>
<path d="M153.69 52.491L150.106 54.5304C150.106 54.345 150.106 54.2214 150.106 54.036V52.9854C150.106 51.1314 148.808 50.3898 147.201 51.3168C146.583 51.6876 145.965 52.3056 145.471 52.9854C145.223 50.637 143.369 49.8336 141.206 51.0696C138.796 52.4292 136.88 55.8282 136.88 58.5474V60.0924C136.88 60.834 137.004 61.3902 137.251 61.8846L134.285 63.615C133.42 64.1094 132.678 65.3454 132.678 66.396C132.678 67.4466 133.42 67.8174 134.285 67.323L153.69 56.1372C154.555 55.6428 155.297 54.4068 155.297 53.3562C155.297 52.3674 154.555 51.9966 153.69 52.491Z" fill="#EBEBEB"/>
<path d="M312.33 169.355C312.701 169.54 319.128 171.394 321.538 168.242C323.949 165.091 319.932 160.147 322.218 158.354C324.443 156.562 330.747 158.354 332.292 154.523C333.837 150.691 329.325 149.084 331.859 145.191C333.466 142.781 337.359 141.421 337.668 139.135C338.224 135.365 332.044 133.634 326.73 137.219C321.415 140.741 318.201 139.135 316.533 138.887C314.864 138.64 311.218 139.196 311.341 145.067C311.403 151.062 312.33 169.355 312.33 169.355Z" fill="#27DEBF"/>
<path d="M311.897 160.95C312.082 160.95 312.206 160.826 312.268 160.641C314.122 149.393 327.161 140.247 333.959 138.331C334.145 138.269 334.268 138.084 334.207 137.899C334.145 137.713 333.959 137.59 333.774 137.651C326.852 139.629 313.504 149.023 311.588 160.517C311.526 160.765 311.65 160.95 311.897 160.95Z" fill="white"/>
<path d="M327.285 151.556C327.408 151.556 327.532 151.495 327.594 151.371C327.717 151.186 327.656 151 327.47 150.877C327.285 150.753 322.217 147.787 317.273 149.208C317.088 149.27 316.964 149.455 317.026 149.641C317.088 149.826 317.273 149.95 317.459 149.888C322.155 148.59 327.099 151.495 327.099 151.495C327.161 151.556 327.223 151.556 327.285 151.556Z" fill="white"/>
<path d="M309.857 173.681C309.857 175.288 308.683 177.265 307.2 178.13L232.237 221.39C230.753 222.256 228.343 222.256 226.86 221.39L124.272 162.186C122.789 161.321 121.615 159.343 121.615 157.736C121.615 156.13 122.789 154.152 124.272 153.287L199.235 110.027C200.719 109.162 203.129 109.162 204.612 110.027L307.2 169.231C308.621 170.096 309.857 172.074 309.857 173.681Z" fill="#37474F"/>
<path d="M229.519 216.261V222.07C230.507 222.07 231.434 221.885 232.176 221.452L307.139 178.192C308.623 177.327 309.797 175.349 309.797 173.743C309.797 172.259 308.746 170.405 307.387 169.478C308.561 170.344 308.499 171.58 307.139 172.383L232.176 215.705C231.434 216.076 230.507 216.261 229.519 216.261Z" fill="#263238"/>
<path d="M312.329 169.355C313.689 168.551 314.863 166.512 314.863 164.843V75.357C314.863 73.6266 313.689 71.5872 312.206 70.722L209.618 11.5176C208.135 10.6524 205.848 10.6524 204.427 11.394C203.067 12.1974 201.893 14.2368 201.893 15.9054V105.392C201.893 107.122 203.067 109.162 204.55 110.027L307.138 169.231C308.621 170.096 310.97 170.158 312.329 169.355Z" fill="#455A64"/>
<path d="M307.51 169.417C308.993 170.096 311.094 170.096 312.392 169.355C313.752 168.551 314.926 166.512 314.926 164.843V75.2952C314.926 74.43 314.617 73.503 314.122 72.6378L309.117 75.5424C309.611 76.4076 309.92 77.3346 309.92 78.1998V167.686C309.858 169.293 308.808 169.973 307.51 169.417Z" fill="#263238"/>
<path d="M309.857 78.1998V167.686C309.857 169.417 308.683 170.096 307.2 169.231L204.612 110.027C203.129 109.162 201.955 107.122 201.955 105.392V15.9054C201.955 14.175 203.129 13.4952 204.612 14.3604L307.2 73.5648C308.621 74.43 309.857 76.5312 309.857 78.1998Z" fill="#37474F"/>
<path d="M307.14 172.321L232.176 215.581C230.693 216.446 228.283 216.446 226.8 215.581L124.212 156.377C122.728 155.512 122.728 154.152 124.212 153.287L199.175 110.027C200.658 109.162 203.068 109.162 204.552 110.027L307.14 169.231C308.623 170.096 308.623 171.456 307.14 172.321Z" fill="#455A64"/>
<path d="M305.717 78.5706L206.776 21.4674C205.91 20.973 205.169 21.3438 205.169 22.3944V99.8298C205.169 100.88 205.91 102.116 206.776 102.611L305.717 159.714C306.583 160.208 307.324 159.838 307.324 158.787V81.3516C307.324 80.301 306.583 79.065 305.717 78.5706Z" fill="white"/>
<path opacity="0.6" d="M305.717 78.5706L206.776 21.4674C205.91 20.973 205.169 21.3438 205.169 22.3944V99.8298C205.169 100.88 205.91 102.116 206.776 102.611L305.717 159.714C306.583 160.208 307.324 159.838 307.324 158.787V81.3516C307.324 80.301 306.583 79.065 305.717 78.5706Z" fill="#7CC4FF"/>
<path d="M256.464 73.6266C253.807 72.0816 251.705 73.3176 251.705 76.4076C251.705 79.4358 253.868 83.1438 256.464 84.6888C259.121 86.2338 261.223 84.9978 261.223 81.9078C261.223 78.8796 259.121 75.1716 256.464 73.6266Z" fill="#F0F0F0"/>
<path d="M247.07 89.9417C247.07 84.9359 250.593 82.7111 254.919 85.2449L257.638 86.7899C261.964 89.2619 265.486 95.3801 265.486 100.386V101.746L247.132 91.1159V89.9417H247.07Z" fill="#F0F0F0"/>
<path d="M237.8 92.352C237.985 91.9194 238.418 91.8576 238.912 92.1048L270.987 110.645C271.296 110.83 271.605 111.139 271.852 111.51C272.099 111.881 272.223 112.313 272.223 112.684V116.454C272.223 117.072 271.852 117.381 271.296 117.257C271.234 117.257 271.234 117.257 271.234 117.257C271.172 117.257 271.11 117.196 271.048 117.134L238.974 98.5938C238.294 98.223 237.8 97.296 237.8 96.5544V92.7846C237.738 92.7228 237.738 92.5374 237.8 92.352Z" fill="#F0F0F0"/>
<path d="M268.083 111.139C267.465 110.768 266.971 111.077 266.971 111.819C266.971 112.561 267.465 113.426 268.083 113.797C268.701 114.167 269.195 113.858 269.195 113.117C269.195 112.375 268.701 111.51 268.083 111.139Z" fill="#27DEBF"/>
<path d="M264.376 108.976C263.758 108.605 263.263 108.914 263.263 109.656C263.263 110.398 263.758 111.263 264.376 111.634C264.994 112.004 265.488 111.695 265.488 110.954C265.488 110.212 264.994 109.347 264.376 108.976Z" fill="#27DEBF"/>
<path d="M260.667 106.813C260.049 106.442 259.554 106.751 259.554 107.493C259.554 108.235 260.049 109.1 260.667 109.471C261.285 109.841 261.779 109.532 261.779 108.791C261.779 108.049 261.285 107.184 260.667 106.813Z" fill="#27DEBF"/>
<path d="M256.897 104.712C256.279 104.341 255.785 104.65 255.785 105.392C255.785 106.133 256.279 106.999 256.897 107.369C257.515 107.74 258.01 107.431 258.01 106.69C258.01 105.948 257.515 105.021 256.897 104.712Z" fill="#27DEBF"/>
<path d="M253.188 102.549C252.57 102.178 252.076 102.487 252.076 103.229C252.076 103.97 252.57 104.836 253.188 105.206C253.806 105.577 254.301 105.268 254.301 104.527C254.301 103.785 253.806 102.92 253.188 102.549Z" fill="#27DEBF"/>
<path d="M249.481 100.386C248.863 100.015 248.369 100.324 248.369 101.066C248.369 101.807 248.863 102.673 249.481 103.043C250.099 103.414 250.594 103.105 250.594 102.364C250.594 101.622 250.099 100.757 249.481 100.386Z" fill="#27DEBF"/>
<path d="M245.712 98.223C245.094 97.8522 244.599 98.1612 244.599 98.9028C244.599 99.6444 245.094 100.51 245.712 100.88C246.33 101.251 246.824 100.942 246.824 100.201C246.824 99.459 246.33 98.5938 245.712 98.223Z" fill="#27DEBF"/>
<path d="M242.003 96.06C241.385 95.6892 240.89 95.9982 240.89 96.7398C240.89 97.4814 241.385 98.3465 242.003 98.7173C242.621 99.0881 243.115 98.7791 243.115 98.0375C243.115 97.2959 242.621 96.4308 242.003 96.06Z" fill="#27DEBF"/>
<path d="M298.487 170.035L203.253 115.033C202.511 114.6 201.337 114.6 200.596 115.033L195.713 117.875C194.972 118.308 194.972 118.988 195.713 119.42L290.947 174.361C291.689 174.793 292.863 174.793 293.605 174.361L298.487 171.58C299.228 171.147 299.228 170.467 298.487 170.035Z" fill="#37474F"/>
<path d="M285.879 177.265L190.645 122.263C189.904 121.831 188.729 121.831 187.988 122.263L158.015 139.567C157.273 140 157.273 140.68 158.015 141.112L253.125 195.991C253.867 196.423 255.041 196.423 255.782 195.991L285.817 178.748C286.621 178.378 286.621 177.698 285.879 177.265Z" fill="#263238"/>
<path d="M200.533 146.983L197.567 145.253C197.443 145.191 197.443 145.067 197.567 145.006L201.027 143.028C201.151 142.966 201.398 142.966 201.522 143.028L204.488 144.758C204.612 144.82 204.612 144.944 204.488 145.006L201.027 146.983C200.904 147.107 200.657 147.107 200.533 146.983ZM206.404 140.185L209.37 141.916C209.494 141.977 209.494 142.101 209.37 142.163L205.91 144.14C205.786 144.202 205.539 144.202 205.415 144.14L202.449 142.41C202.325 142.348 202.325 142.225 202.449 142.163L205.91 140.185C206.095 140.123 206.28 140.123 206.404 140.185ZM216.045 145.747L221.112 148.652C221.236 148.714 221.236 148.837 221.112 148.899L217.652 150.877C217.528 150.938 217.281 150.938 217.157 150.877L212.09 147.972C211.966 147.91 211.966 147.787 212.09 147.725L215.55 145.747C215.736 145.685 215.921 145.685 216.045 145.747ZM210.792 142.719L213.758 144.449C213.882 144.511 213.882 144.635 213.758 144.697L210.297 146.674C210.174 146.736 209.927 146.736 209.803 146.674L206.837 144.944C206.713 144.882 206.713 144.758 206.837 144.697L210.297 142.719C210.421 142.595 210.668 142.595 210.792 142.719ZM222.472 149.455L225.438 151.186C225.562 151.247 225.562 151.371 225.438 151.433L221.978 153.41C221.854 153.472 221.607 153.472 221.483 153.41L218.517 151.68C218.393 151.618 218.393 151.495 218.517 151.433L221.978 149.455C222.163 149.393 222.348 149.393 222.472 149.455ZM226.86 151.927L229.826 153.658C229.95 153.719 229.95 153.843 229.826 153.905L226.365 155.882C226.242 155.944 225.995 155.944 225.871 155.882L222.905 154.152C222.781 154.09 222.781 153.967 222.905 153.905L226.365 151.927C226.489 151.865 226.736 151.865 226.86 151.927ZM213.264 160.023L210.297 158.293C210.174 158.231 210.174 158.107 210.297 158.045L213.758 156.068C213.882 156.006 214.129 156.006 214.253 156.068L217.219 157.798C217.343 157.86 217.343 157.984 217.219 158.045L213.758 160.023C213.635 160.147 213.387 160.147 213.264 160.023ZM217.652 162.557L214.685 160.826C214.562 160.765 214.562 160.641 214.685 160.579L218.146 158.602C218.27 158.54 218.517 158.54 218.64 158.602L221.607 160.332C221.73 160.394 221.73 160.517 221.607 160.579L218.146 162.557C217.961 162.619 217.775 162.619 217.652 162.557ZM221.978 165.091L219.011 163.36C218.888 163.298 218.888 163.175 219.011 163.113L222.472 161.135C222.596 161.074 222.843 161.074 222.966 161.135L225.933 162.866C226.056 162.928 226.056 163.051 225.933 163.113L222.472 165.091C222.348 165.152 222.101 165.152 221.978 165.091ZM226.365 167.624L223.399 165.894C223.275 165.832 223.275 165.709 223.399 165.647L226.86 163.669C226.983 163.607 227.231 163.607 227.354 163.669L230.321 165.4C230.444 165.461 230.444 165.585 230.321 165.647L226.86 167.624C226.674 167.686 226.489 167.686 226.365 167.624ZM204.921 149.517L201.954 147.787C201.831 147.725 201.831 147.601 201.954 147.539L205.415 145.562C205.539 145.5 205.786 145.5 205.91 145.562L208.876 147.292C209 147.354 209 147.478 208.876 147.539L205.415 149.517C205.23 149.579 205.044 149.579 204.921 149.517ZM208.938 157.551L202.263 153.719C202.14 153.658 202.14 153.534 202.263 153.472L210.606 148.652C210.73 148.59 210.977 148.59 211.101 148.652L214.562 150.629C214.685 150.691 214.685 150.815 214.562 150.877L210.112 153.41C209.988 153.472 209.988 153.596 210.112 153.658L212.893 155.264C213.017 155.326 213.017 155.45 212.893 155.512L209.432 157.489C209.247 157.613 209.061 157.613 208.938 157.551ZM231.186 154.461L234.152 156.191C234.276 156.253 234.276 156.377 234.152 156.439L230.691 158.416C230.568 158.478 230.321 158.478 230.197 158.416L227.231 156.686C227.107 156.624 227.107 156.5 227.231 156.439L230.691 154.461C230.877 154.399 231.062 154.399 231.186 154.461ZM235.574 156.995L238.54 158.725C238.664 158.787 238.664 158.911 238.54 158.972L235.079 160.95C234.956 161.012 234.708 161.012 234.585 160.95L231.618 159.22C231.495 159.158 231.495 159.034 231.618 158.972L235.079 156.995C235.203 156.933 235.45 156.933 235.574 156.995ZM257.327 185.176C257.204 185.237 256.956 185.237 256.833 185.176L253.866 183.445C253.743 183.383 253.743 183.26 253.866 183.198L257.327 181.22C257.451 181.159 257.698 181.159 257.822 181.22L260.788 182.951C260.912 183.013 260.912 183.136 260.788 183.198L257.327 185.176ZM270.429 177.142L273.395 178.872C273.519 178.934 273.519 179.057 273.395 179.119L269.934 181.097C269.811 181.159 269.564 181.159 269.44 181.097L266.474 179.366C266.35 179.305 266.35 179.181 266.474 179.119L269.934 177.142C270.058 177.018 270.305 177.018 270.429 177.142ZM263.384 183.013C263.26 183.074 263.013 183.074 262.889 183.013L259.923 181.282C259.799 181.22 259.799 181.097 259.923 181.035L263.384 179.057C263.507 178.996 263.754 178.996 263.878 179.057L266.844 180.788C266.968 180.85 266.968 180.973 266.844 181.035L263.384 183.013ZM249.664 186.721L246.698 184.99C246.574 184.928 246.574 184.805 246.698 184.743L250.158 182.765C250.282 182.704 250.529 182.704 250.653 182.765L253.557 184.434C253.681 184.496 253.681 184.619 253.557 184.681L250.097 186.659C249.973 186.782 249.788 186.782 249.664 186.721ZM254.484 189.254C254.361 189.316 254.114 189.316 253.99 189.254L251.024 187.524C250.9 187.462 250.9 187.339 251.024 187.277L254.484 185.299C254.608 185.237 254.855 185.237 254.979 185.299L257.945 187.03C258.069 187.091 258.069 187.215 257.945 187.277L254.484 189.254ZM266.041 174.608L269.007 176.338C269.131 176.4 269.131 176.524 269.007 176.585L265.547 178.563C265.423 178.625 265.176 178.625 265.052 178.563L262.086 176.833C261.962 176.771 261.962 176.647 262.086 176.585L265.547 174.608C265.732 174.546 265.917 174.546 266.041 174.608ZM244.287 162.001L247.254 163.731C247.377 163.793 247.377 163.916 247.254 163.978L243.793 165.956C243.669 166.018 243.422 166.018 243.299 165.956L240.332 164.225C240.209 164.164 240.209 164.04 240.332 163.978L243.793 162.001C243.917 161.939 244.164 161.939 244.287 162.001ZM261.715 172.074L264.681 173.804C264.805 173.866 264.805 173.99 264.681 174.052L261.221 176.029C261.097 176.091 260.85 176.091 260.726 176.029L257.76 174.299C257.636 174.237 257.636 174.113 257.76 174.052L261.221 172.074C261.344 172.012 261.591 172.012 261.715 172.074ZM239.9 159.529L242.866 161.259C242.99 161.321 242.99 161.444 242.866 161.506L239.405 163.484C239.282 163.546 239.034 163.546 238.911 163.484L235.944 161.753C235.821 161.692 235.821 161.568 235.944 161.506L239.405 159.529C239.591 159.467 239.776 159.405 239.9 159.529ZM248.613 164.534L251.58 166.265C251.703 166.327 251.703 166.45 251.58 166.512L248.119 168.49C247.995 168.551 247.748 168.551 247.625 168.49L244.658 166.759C244.535 166.697 244.535 166.574 244.658 166.512L248.119 164.534C248.304 164.473 248.49 164.473 248.613 164.534ZM253.001 167.068L255.968 168.799C256.091 168.86 256.091 168.984 255.968 169.046L252.507 171.023C252.383 171.085 252.136 171.085 252.012 171.023L249.046 169.293C248.922 169.231 248.922 169.108 249.046 169.046L252.507 167.068C252.63 167.006 252.878 167.006 253.001 167.068ZM257.327 169.54L260.294 171.271C260.417 171.332 260.417 171.456 260.294 171.518L256.833 173.495C256.709 173.557 256.462 173.557 256.338 173.495L253.372 171.765C253.248 171.703 253.248 171.58 253.372 171.518L256.833 169.54C257.018 169.478 257.204 169.478 257.327 169.54ZM235.079 172.63L232.113 170.9C231.989 170.838 231.989 170.714 232.113 170.653L235.574 168.675C235.697 168.613 235.944 168.613 236.068 168.675L239.034 170.405C239.158 170.467 239.158 170.591 239.034 170.653L235.574 172.63C235.388 172.692 235.203 172.692 235.079 172.63ZM196.825 134.623L199.791 136.354C199.915 136.415 199.915 136.539 199.791 136.601L196.331 138.578C196.207 138.64 195.96 138.64 195.836 138.578L192.87 136.848C192.746 136.786 192.746 136.663 192.87 136.601L196.331 134.623C196.454 134.561 196.64 134.561 196.825 134.623ZM202.078 137.651L205.044 139.382C205.168 139.444 205.168 139.567 205.044 139.629L201.584 141.607C201.46 141.668 201.213 141.668 201.089 141.607L198.123 139.876C197.999 139.814 197.999 139.691 198.123 139.629L201.584 137.651C201.707 137.59 201.954 137.59 202.078 137.651ZM192.437 132.089L195.404 133.82C195.527 133.882 195.527 134.005 195.404 134.067L191.943 136.045C191.819 136.106 191.572 136.106 191.448 136.045L188.482 134.314C188.358 134.252 188.358 134.129 188.482 134.067L191.943 132.089C192.128 132.028 192.314 132.028 192.437 132.089ZM214.994 155.326L212.028 153.596C211.904 153.534 211.904 153.41 212.028 153.349L215.489 151.371C215.612 151.309 215.859 151.309 215.983 151.371L218.949 153.101C219.073 153.163 219.073 153.287 218.949 153.349L215.489 155.326C215.303 155.45 215.118 155.45 214.994 155.326ZM187.617 129.617C187.74 129.556 187.988 129.556 188.111 129.617L191.078 131.348C191.201 131.41 191.201 131.533 191.078 131.595L187.617 133.573C187.493 133.634 187.246 133.634 187.122 133.573L184.156 131.842C184.033 131.78 184.033 131.657 184.156 131.595L187.617 129.617ZM230.691 170.096L227.725 168.366C227.601 168.304 227.601 168.181 227.725 168.119L231.186 166.141C231.309 166.079 231.557 166.079 231.68 166.141L234.647 167.872C234.77 167.933 234.77 168.057 234.647 168.119L231.186 170.096C231.062 170.158 230.815 170.158 230.691 170.096ZM177.296 139.258L174.33 137.528C174.206 137.466 174.206 137.342 174.33 137.281L177.791 135.303C177.914 135.241 178.161 135.241 178.285 135.303L181.251 137.033C181.375 137.095 181.375 137.219 181.251 137.281L177.791 139.258C177.605 139.32 177.42 139.32 177.296 139.258ZM186.566 138.949L183.6 137.219C183.476 137.157 183.476 137.033 183.6 136.972L187.061 134.994C187.184 134.932 187.431 134.932 187.555 134.994L190.521 136.724C190.645 136.786 190.645 136.91 190.521 136.972L187.061 138.949C186.875 139.011 186.69 139.011 186.566 138.949ZM182.673 132.46C182.796 132.398 183.044 132.398 183.167 132.46L186.134 134.191C186.257 134.252 186.257 134.376 186.134 134.438L182.673 136.415C182.549 136.477 182.302 136.477 182.178 136.415L179.212 134.685C179.089 134.623 179.089 134.5 179.212 134.438L182.673 132.46ZM181.746 131.904L173.403 136.724C173.279 136.786 173.032 136.786 172.908 136.724L169.942 134.994C169.818 134.932 169.818 134.809 169.942 134.747L178.285 129.926C178.409 129.865 178.656 129.865 178.779 129.926L181.746 131.657C181.931 131.719 181.869 131.842 181.746 131.904ZM191.881 137.466L194.847 139.196C194.971 139.258 194.971 139.382 194.847 139.444L191.387 141.421C191.263 141.483 191.016 141.483 190.892 141.421L187.926 139.691C187.802 139.629 187.802 139.505 187.926 139.444L191.387 137.466C191.51 137.404 191.757 137.404 191.881 137.466ZM224.697 156.377L227.663 158.107C227.787 158.169 227.787 158.293 227.663 158.354L224.202 160.332C224.079 160.394 223.832 160.394 223.708 160.332L220.742 158.602C220.618 158.54 220.618 158.416 220.742 158.354L224.202 156.377C224.326 156.315 224.511 156.315 224.697 156.377ZM182.117 141.792C181.993 141.854 181.746 141.854 181.622 141.792L178.656 140.062C178.532 140 178.532 139.876 178.656 139.814L182.117 137.837C182.24 137.775 182.487 137.775 182.611 137.837L185.577 139.567C185.701 139.629 185.701 139.753 185.577 139.814L182.117 141.792ZM220.309 153.905L223.275 155.635C223.399 155.697 223.399 155.821 223.275 155.882L219.815 157.86C219.691 157.922 219.444 157.922 219.32 157.86L216.354 156.13C216.23 156.068 216.23 155.944 216.354 155.882L219.815 153.905C220 153.781 220.185 153.781 220.309 153.905ZM253.001 182.704C252.878 182.765 252.63 182.765 252.507 182.704L249.54 180.973C249.417 180.911 249.417 180.788 249.54 180.726L253.001 178.748C253.125 178.687 253.372 178.687 253.496 178.748L256.462 180.479C256.586 180.541 256.586 180.664 256.462 180.726L253.001 182.704ZM259.552 176.524L262.518 178.254C262.642 178.316 262.642 178.439 262.518 178.501L259.058 180.479C258.934 180.541 258.687 180.541 258.563 180.479L255.597 178.748C255.473 178.687 255.473 178.563 255.597 178.501L259.058 176.524C259.181 176.462 259.428 176.462 259.552 176.524ZM248.119 180.17L245.153 178.439C245.029 178.378 245.029 178.254 245.153 178.192L248.613 176.215C248.737 176.153 248.984 176.153 249.108 176.215L252.074 177.945C252.198 178.007 252.198 178.13 252.074 178.192L248.613 180.17C248.49 180.232 248.243 180.232 248.119 180.17ZM243.793 177.636L240.827 175.906C240.703 175.844 240.703 175.72 240.827 175.658L244.287 173.681C244.411 173.619 244.658 173.619 244.782 173.681L247.748 175.411C247.872 175.473 247.872 175.597 247.748 175.658L244.287 177.636C244.102 177.76 243.917 177.76 243.793 177.636ZM239.405 175.164L236.439 173.434C236.315 173.372 236.315 173.248 236.439 173.186L239.9 171.209C240.023 171.147 240.27 171.147 240.394 171.209L243.36 172.939C243.484 173.001 243.484 173.125 243.36 173.186L239.9 175.164C239.776 175.226 239.529 175.226 239.405 175.164ZM255.164 173.99L258.131 175.72C258.254 175.782 258.254 175.906 258.131 175.967L254.67 177.945C254.546 178.007 254.299 178.007 254.175 177.945L251.209 176.215C251.085 176.153 251.085 176.029 251.209 175.967L254.67 173.99C254.855 173.928 255.041 173.928 255.164 173.99ZM250.838 171.456L253.805 173.186C253.928 173.248 253.928 173.372 253.805 173.434L250.344 175.411C250.22 175.473 249.973 175.473 249.849 175.411L246.883 173.681C246.759 173.619 246.759 173.495 246.883 173.434L250.344 171.456C250.467 171.394 250.715 171.394 250.838 171.456ZM233.411 161.444L236.377 163.175C236.501 163.237 236.501 163.36 236.377 163.422L232.916 165.4C232.793 165.461 232.545 165.461 232.422 165.4L229.455 163.669C229.332 163.607 229.332 163.484 229.455 163.422L232.916 161.444C233.04 161.383 233.287 161.321 233.411 161.444ZM237.737 163.916L240.703 165.647C240.827 165.709 240.827 165.832 240.703 165.894L237.242 167.872C237.119 167.933 236.871 167.933 236.748 167.872L233.781 166.141C233.658 166.079 233.658 165.956 233.781 165.894L237.242 163.916C237.428 163.855 237.613 163.855 237.737 163.916ZM229.023 158.911L231.989 160.641C232.113 160.703 232.113 160.826 231.989 160.888L228.528 162.866C228.405 162.928 228.158 162.928 228.034 162.866L225.068 161.135C224.944 161.074 224.944 160.95 225.068 160.888L228.528 158.911C228.714 158.849 228.899 158.849 229.023 158.911ZM246.45 168.984L249.417 170.714C249.54 170.776 249.54 170.9 249.417 170.962L245.956 172.939C245.832 173.001 245.585 173.001 245.462 172.939L242.495 171.209C242.372 171.147 242.372 171.023 242.495 170.962L245.956 168.984C246.141 168.922 246.327 168.922 246.45 168.984ZM242.124 166.45L245.091 168.181C245.214 168.242 245.214 168.366 245.091 168.428L241.63 170.405C241.506 170.467 241.259 170.467 241.136 170.405L238.169 168.675C238.046 168.613 238.046 168.49 238.169 168.428L241.63 166.45C241.754 166.388 242.001 166.388 242.124 166.45ZM245.276 184.187L242.31 182.456C242.186 182.395 242.186 182.271 242.31 182.209L245.771 180.232C245.894 180.17 246.141 180.17 246.265 180.232L249.231 181.962C249.355 182.024 249.355 182.147 249.231 182.209L245.771 184.187C245.647 184.31 245.4 184.31 245.276 184.187ZM270.861 181.653L274.322 179.675C274.446 179.614 274.693 179.614 274.817 179.675L277.783 181.406C277.907 181.468 277.907 181.591 277.783 181.653L274.322 183.631C274.199 183.692 273.951 183.692 273.828 183.631L270.861 181.9C270.738 181.838 270.738 181.715 270.861 181.653ZM264.311 183.569L267.771 181.591C267.895 181.529 268.142 181.529 268.266 181.591L272.839 184.249C272.963 184.31 272.963 184.434 272.839 184.496L269.378 186.473C269.255 186.535 269.007 186.535 268.884 186.473L264.311 183.816C264.187 183.754 264.187 183.631 264.311 183.569ZM276.114 177.76L279.575 175.782C279.699 175.72 279.946 175.72 280.07 175.782L283.716 177.883C283.839 177.945 283.839 178.069 283.716 178.13L280.255 180.108C280.131 180.17 279.884 180.17 279.761 180.108L276.114 178.007C275.991 178.007 275.991 177.883 276.114 177.76ZM273.333 176.153C273.21 176.215 272.963 176.215 272.839 176.153L269.873 174.422C269.749 174.361 269.749 174.237 269.873 174.175L273.333 172.198C273.457 172.136 273.704 172.136 273.828 172.198L276.794 173.928C276.918 173.99 276.918 174.113 276.794 174.175L273.333 176.153ZM258.254 185.732L261.715 183.754C261.839 183.692 262.086 183.692 262.209 183.754L267.957 187.091C268.08 187.153 268.08 187.277 267.957 187.339L264.496 189.316C264.372 189.378 264.125 189.378 264.002 189.316L258.254 185.979C258.131 185.917 258.131 185.794 258.254 185.732ZM255.411 189.749L258.872 187.771C258.996 187.709 259.243 187.709 259.367 187.771L263.013 189.872C263.136 189.934 263.136 190.058 263.013 190.12L259.552 192.097C259.428 192.159 259.181 192.159 259.058 192.097L255.411 189.996C255.226 189.996 255.226 189.872 255.411 189.749ZM240.95 157.427C240.827 157.489 240.579 157.489 240.456 157.427L237.489 155.697C237.366 155.635 237.366 155.512 237.489 155.45L240.95 153.472C241.074 153.41 241.321 153.41 241.445 153.472L244.411 155.203C244.535 155.264 244.535 155.388 244.411 155.45L240.95 157.427ZM249.664 162.495C249.54 162.557 249.293 162.557 249.17 162.495L246.203 160.765C246.08 160.703 246.08 160.579 246.203 160.517L249.664 158.54C249.788 158.478 250.035 158.478 250.158 158.54L253.125 160.27C253.248 160.332 253.248 160.456 253.125 160.517L249.664 162.495ZM268.946 173.619C268.822 173.681 268.575 173.681 268.451 173.619L265.485 171.889C265.361 171.827 265.361 171.703 265.485 171.641L268.946 169.664C269.069 169.602 269.316 169.602 269.44 169.664L272.406 171.394C272.53 171.456 272.53 171.58 272.406 171.641L268.946 173.619ZM245.276 159.961C245.153 160.023 244.905 160.023 244.782 159.961L241.815 158.231C241.692 158.169 241.692 158.045 241.815 157.984L245.276 156.006C245.4 155.944 245.647 155.944 245.771 156.006L248.737 157.736C248.861 157.798 248.861 157.922 248.737 157.984L245.276 159.961ZM253.99 165.029C253.866 165.091 253.619 165.091 253.496 165.029L250.529 163.298C250.406 163.237 250.406 163.113 250.529 163.051L253.99 161.074C254.114 161.012 254.361 161.012 254.484 161.074L257.451 162.804C257.574 162.866 257.574 162.989 257.451 163.051L253.99 165.029ZM253.001 190.12C253.125 190.058 253.372 190.058 253.496 190.12L258.069 192.777C258.192 192.839 258.192 192.962 258.069 193.024L254.608 195.002C254.484 195.064 254.237 195.064 254.114 195.002L249.54 192.344C249.417 192.283 249.417 192.159 249.54 192.097L253.001 190.12ZM260.232 168.613C260.108 168.675 259.861 168.675 259.737 168.613L256.771 166.883C256.647 166.821 256.647 166.697 256.771 166.636L260.232 164.658C260.355 164.596 260.603 164.596 260.726 164.658L263.693 166.388C263.816 166.45 263.816 166.574 263.693 166.636L260.232 168.613ZM264.62 171.147C264.496 171.209 264.249 171.209 264.125 171.147L261.159 169.417C261.035 169.355 261.035 169.231 261.159 169.169L264.62 167.192C264.743 167.13 264.99 167.13 265.114 167.192L268.08 168.922C268.204 168.984 268.204 169.108 268.08 169.169L264.62 171.147ZM172.29 143.461C172.414 143.399 172.661 143.399 172.785 143.461L180.139 147.725C180.263 147.787 180.263 147.91 180.139 147.972L176.678 149.95C176.555 150.011 176.307 150.011 176.184 149.95L168.83 145.685C168.706 145.624 168.706 145.5 168.83 145.438L172.29 143.461ZM181.869 149.023C181.993 148.961 182.24 148.961 182.364 149.023L185.33 150.753C185.454 150.815 185.454 150.938 185.33 151L181.869 152.978C181.746 153.04 181.499 153.04 181.375 152.978L178.409 151.247C178.285 151.186 178.285 151.062 178.409 151L181.869 149.023ZM240.95 181.715L237.984 179.984C237.86 179.923 237.86 179.799 237.984 179.737L241.445 177.76C241.568 177.698 241.815 177.698 241.939 177.76L244.905 179.49C245.029 179.552 245.029 179.675 244.905 179.737L241.445 181.715C241.259 181.777 241.074 181.777 240.95 181.715ZM190.583 154.09C190.707 154.028 190.954 154.028 191.078 154.09L194.044 155.821C194.168 155.882 194.168 156.006 194.044 156.068L190.583 158.045C190.46 158.107 190.212 158.107 190.089 158.045L187.122 156.315C186.999 156.253 186.999 156.13 187.122 156.068L190.583 154.09ZM167.903 140.989C168.026 140.927 168.273 140.927 168.397 140.989L171.363 142.719C171.487 142.781 171.487 142.904 171.363 142.966L167.903 144.944C167.779 145.006 167.532 145.006 167.408 144.944L164.442 143.213C164.318 143.152 164.318 143.028 164.442 142.966L167.903 140.989ZM160.116 140.432L168.459 135.612C168.582 135.55 168.83 135.55 168.953 135.612L171.92 137.342C172.043 137.404 172.043 137.528 171.92 137.59L163.577 142.41C163.453 142.472 163.206 142.472 163.082 142.41L160.116 140.68C159.93 140.618 159.992 140.494 160.116 140.432ZM206.898 163.484C207.022 163.422 207.269 163.422 207.393 163.484L211.039 165.585C211.163 165.647 211.163 165.77 211.039 165.832L207.578 167.81C207.455 167.872 207.207 167.872 207.084 167.81L203.438 165.709C203.314 165.647 203.314 165.523 203.438 165.461L206.898 163.484ZM195.898 157.118C196.022 157.057 196.269 157.057 196.392 157.118L200.966 159.776C201.089 159.838 201.089 159.961 200.966 160.023L197.505 162.001C197.381 162.062 197.134 162.062 197.01 162.001L192.437 159.343C192.314 159.281 192.314 159.158 192.437 159.096L195.898 157.118ZM216.972 169.293C217.095 169.231 217.343 169.231 217.466 169.293L242.001 183.445C242.124 183.507 242.124 183.631 242.001 183.692L238.54 185.67C238.416 185.732 238.169 185.732 238.046 185.67L213.511 171.518C213.387 171.456 213.387 171.332 213.511 171.271L216.972 169.293ZM242.928 184.249C243.051 184.187 243.299 184.187 243.422 184.249L247.068 186.35C247.192 186.412 247.192 186.535 247.068 186.597L243.608 188.575C243.484 188.636 243.237 188.636 243.113 188.575L239.467 186.473C239.343 186.412 239.343 186.288 239.467 186.226L242.928 184.249ZM211.966 166.388C212.09 166.327 212.337 166.327 212.46 166.388L216.107 168.49C216.23 168.551 216.23 168.675 216.107 168.737L212.646 170.714C212.522 170.776 212.275 170.776 212.151 170.714L208.505 168.613C208.382 168.551 208.382 168.428 208.505 168.366L211.966 166.388ZM247.934 187.153C248.057 187.091 248.304 187.091 248.428 187.153L252.074 189.254C252.198 189.316 252.198 189.44 252.074 189.502L248.613 191.479C248.49 191.541 248.243 191.541 248.119 191.479L244.473 189.378C244.349 189.316 244.349 189.193 244.473 189.131L247.934 187.153ZM201.831 160.579C201.954 160.517 202.202 160.517 202.325 160.579L205.971 162.68C206.095 162.742 206.095 162.866 205.971 162.928L202.511 164.905C202.387 164.967 202.14 164.967 202.016 164.905L198.37 162.804C198.246 162.742 198.246 162.619 198.37 162.557L201.831 160.579ZM186.257 151.556C186.381 151.495 186.628 151.495 186.752 151.556L189.718 153.287C189.842 153.349 189.842 153.472 189.718 153.534L186.257 155.512C186.134 155.573 185.886 155.573 185.763 155.512L182.796 153.781C182.673 153.719 182.673 153.596 182.796 153.534L186.257 151.556ZM176.678 144.635L173.712 142.904C173.588 142.843 173.588 142.719 173.712 142.657L177.173 140.68C177.296 140.618 177.543 140.618 177.667 140.68L180.633 142.41C180.757 142.472 180.757 142.595 180.633 142.657L177.173 144.635C177.049 144.697 176.802 144.697 176.678 144.635ZM196.207 144.511L193.241 142.781C193.117 142.719 193.117 142.595 193.241 142.534L196.701 140.556C196.825 140.494 197.072 140.494 197.196 140.556L200.162 142.286C200.286 142.348 200.286 142.472 200.162 142.534L196.701 144.511C196.516 144.573 196.331 144.573 196.207 144.511ZM206.033 161.568L197.319 156.562C197.196 156.5 197.196 156.377 197.319 156.315L200.78 154.337C200.904 154.276 201.151 154.276 201.275 154.337L209.988 159.343C210.112 159.405 210.112 159.529 209.988 159.59L206.528 161.568C206.404 161.63 206.219 161.63 206.033 161.568ZM181.56 147.107C181.437 147.169 181.19 147.169 181.066 147.107L178.1 145.376C177.976 145.315 177.976 145.191 178.1 145.129L181.56 143.152C181.684 143.09 181.931 143.09 182.055 143.152L185.021 144.882C185.145 144.944 185.145 145.067 185.021 145.129L181.56 147.107ZM186.01 144.264L183.044 142.534C182.92 142.472 182.92 142.348 183.044 142.286L186.504 140.309C186.628 140.247 186.875 140.247 186.999 140.309L189.965 142.039C190.089 142.101 190.089 142.225 189.965 142.286L186.504 144.264C186.319 144.388 186.134 144.388 186.01 144.264ZM210.421 164.102L207.455 162.371C207.331 162.31 207.331 162.186 207.455 162.124L210.915 160.147C211.039 160.085 211.286 160.085 211.41 160.147L214.376 161.877C214.5 161.939 214.5 162.062 214.376 162.124L210.915 164.102C210.73 164.164 210.545 164.164 210.421 164.102ZM191.139 152.669C191.016 152.731 190.769 152.731 190.645 152.669L187.679 150.938C187.555 150.877 187.555 150.753 187.679 150.691L191.139 148.714C191.263 148.652 191.51 148.652 191.634 148.714L194.6 150.444C194.724 150.506 194.724 150.629 194.6 150.691L191.139 152.669ZM232.236 176.647L229.27 174.917C229.146 174.855 229.146 174.731 229.27 174.67L232.731 172.692C232.854 172.63 233.102 172.63 233.225 172.692L236.192 174.422C236.315 174.484 236.315 174.608 236.192 174.67L232.731 176.647C232.545 176.709 232.36 176.771 232.236 176.647ZM227.849 174.175L224.882 172.445C224.759 172.383 224.759 172.259 224.882 172.198L228.343 170.22C228.467 170.158 228.714 170.158 228.837 170.22L231.804 171.95C231.927 172.012 231.927 172.136 231.804 172.198L228.343 174.175C228.219 174.237 227.972 174.237 227.849 174.175ZM236.562 179.181L233.596 177.451C233.472 177.389 233.472 177.265 233.596 177.203L237.057 175.226C237.18 175.164 237.428 175.164 237.551 175.226L240.518 176.956C240.641 177.018 240.641 177.142 240.518 177.203L237.057 179.181C236.933 179.243 236.686 179.243 236.562 179.181ZM219.135 169.108L216.168 167.377C216.045 167.315 216.045 167.192 216.168 167.13L219.629 165.152C219.753 165.091 220 165.091 220.124 165.152L223.09 166.883C223.214 166.945 223.214 167.068 223.09 167.13L219.629 169.108C219.444 169.169 219.258 169.169 219.135 169.108ZM223.523 171.641L220.556 169.911C220.433 169.849 220.433 169.726 220.556 169.664L224.017 167.686C224.141 167.624 224.388 167.624 224.511 167.686L227.478 169.417C227.601 169.478 227.601 169.602 227.478 169.664L224.017 171.641C223.832 171.703 223.646 171.703 223.523 171.641ZM214.747 166.574L211.781 164.843C211.657 164.782 211.657 164.658 211.781 164.596L215.241 162.619C215.365 162.557 215.612 162.557 215.736 162.619L218.702 164.349C218.826 164.411 218.826 164.534 218.702 164.596L215.241 166.574C215.118 166.697 214.932 166.697 214.747 166.574ZM194.847 129.37C194.724 129.432 194.477 129.432 194.353 129.37L191.387 127.64C191.263 127.578 191.263 127.454 191.387 127.393L192.314 126.836C192.437 126.775 192.685 126.775 192.808 126.836L195.774 128.567C195.898 128.629 195.898 128.752 195.774 128.814L194.847 129.37ZM216.292 143.213C216.168 143.275 215.921 143.275 215.798 143.213L212.831 141.483C212.708 141.421 212.708 141.298 212.831 141.236L216.292 139.258C216.416 139.196 216.663 139.196 216.786 139.258L219.753 140.989C219.876 141.05 219.876 141.174 219.753 141.236L216.292 143.213ZM207.578 138.208C207.455 138.269 207.207 138.269 207.084 138.208L204.117 136.477C203.994 136.415 203.994 136.292 204.117 136.23L207.578 134.252C207.702 134.191 207.949 134.191 208.073 134.252L211.039 135.983C211.163 136.045 211.163 136.168 211.039 136.23L207.578 138.208ZM221.607 146.303C221.483 146.365 221.236 146.365 221.112 146.303L218.146 144.573C218.022 144.511 218.022 144.388 218.146 144.326L221.607 142.348C221.73 142.286 221.978 142.286 222.101 142.348L225.068 144.079C225.191 144.14 225.191 144.264 225.068 144.326L221.607 146.303ZM211.904 140.68C211.781 140.741 211.533 140.741 211.41 140.68L208.443 138.949C208.32 138.887 208.32 138.764 208.443 138.702L211.904 136.724C212.028 136.663 212.275 136.663 212.399 136.724L215.365 138.455C215.489 138.517 215.489 138.64 215.365 138.702L211.904 140.68ZM230.321 151.309C230.197 151.371 229.95 151.371 229.826 151.309L226.86 149.579C226.736 149.517 226.736 149.393 226.86 149.332L230.321 147.354C230.444 147.292 230.691 147.292 230.815 147.354L233.781 149.084C233.905 149.146 233.905 149.27 233.781 149.332L230.321 151.309ZM225.933 148.837C225.809 148.899 225.562 148.899 225.438 148.837L222.472 147.107C222.348 147.045 222.348 146.921 222.472 146.86L225.933 144.882C226.056 144.82 226.304 144.82 226.427 144.882L229.394 146.612C229.517 146.674 229.517 146.798 229.394 146.86L225.933 148.837ZM203.561 134.438C203.438 134.5 203.19 134.5 203.067 134.438L200.1 132.707C199.977 132.646 199.977 132.522 200.1 132.46L201.027 131.904C201.151 131.842 201.398 131.842 201.522 131.904L204.488 133.634C204.612 133.696 204.612 133.82 204.488 133.882L203.561 134.438ZM190.46 126.898C190.336 126.96 190.089 126.96 189.965 126.898L186.999 125.168C186.875 125.106 186.875 124.982 186.999 124.921L187.926 124.364C188.049 124.303 188.297 124.303 188.42 124.364L191.387 126.095C191.51 126.157 191.51 126.28 191.387 126.342L190.46 126.898ZM183.229 131.039C183.105 131.101 182.858 131.101 182.735 131.039L179.768 129.308C179.645 129.247 179.645 129.123 179.768 129.061L183.229 127.084C183.353 127.022 183.6 127.022 183.723 127.084L186.69 128.814C186.813 128.876 186.813 128.999 186.69 129.061L183.229 131.039ZM172.352 142.101L169.386 140.371C169.262 140.309 169.262 140.185 169.386 140.123L172.847 138.146C172.97 138.084 173.217 138.084 173.341 138.146L176.307 139.876C176.431 139.938 176.431 140.062 176.307 140.123L172.847 142.101C172.661 142.163 172.476 142.163 172.352 142.101ZM199.173 131.904C199.05 131.966 198.803 131.966 198.679 131.904L195.713 130.174C195.589 130.112 195.589 129.988 195.713 129.926L196.64 129.37C196.763 129.308 197.01 129.308 197.134 129.37L200.1 131.101C200.224 131.162 200.224 131.286 200.1 131.348L199.173 131.904ZM234.647 153.843C234.523 153.905 234.276 153.905 234.152 153.843L231.186 152.113C231.062 152.051 231.062 151.927 231.186 151.865L234.647 149.888C234.77 149.826 235.017 149.826 235.141 149.888L238.107 151.618C238.231 151.68 238.231 151.804 238.107 151.865L234.647 153.843Z" fill="#455A64"/>
<path d="M215.367 179.984L185.95 162.989C185.085 162.495 183.602 162.495 182.736 162.989L165.865 172.754C165 173.248 165 174.113 165.865 174.608L195.282 191.603C196.147 192.097 197.63 192.097 198.495 191.603L215.367 181.838C216.232 181.344 216.232 180.541 215.367 179.984Z" fill="#263238"/>
<path d="M161.229 98.2848L166.297 95.3802C166.606 95.2566 167.039 95.3802 167.533 95.751C172.23 99.3354 178.472 100.448 183.601 98.7792C183.91 98.4702 184.219 98.1612 184.528 97.7904C184.528 97.7286 184.59 97.7286 184.59 97.6668C184.775 97.4814 184.961 97.3578 185.084 97.2342L185.146 97.1724L190.152 94.2678C190.708 94.0206 191.264 94.2678 191.573 95.133C196.455 107.184 206.776 119.42 213.698 122.51C214.192 122.758 214.686 123.067 215.057 123.499C215.552 124.055 215.861 124.735 215.799 125.477L214.81 152.607C214.81 160.456 211.473 168.737 204.737 172.754L199.545 175.782L199.422 175.844C196.826 177.327 193.798 178.192 190.214 178.192C189.472 178.192 188.73 178.13 187.989 178.069C186.691 177.945 184.961 177.018 184.034 176.091C168.954 160.517 161.6 139.444 161.6 127.763L160.611 99.3972C160.797 98.841 160.982 98.4702 161.229 98.2848Z" fill="#F0A83A"/>
<path d="M160.857 99.459L161.846 127.825C161.846 139.505 169.2 160.579 184.28 176.153C185.145 177.08 186.937 178.007 188.235 178.13C188.976 178.192 189.718 178.254 190.46 178.254C194.044 178.254 197.072 177.389 199.668 175.906L199.791 175.844L199.977 175.72C206.713 171.703 210.05 163.422 210.05 155.573L211.039 128.505C211.039 127.763 210.73 127.084 210.297 126.527C209.927 126.095 209.432 125.724 208.938 125.539C202.016 122.51 191.696 110.274 186.813 98.1612C186.443 97.296 185.948 97.0488 185.392 97.296L185.33 97.3578C185.145 97.4196 184.959 97.605 184.836 97.7904C184.836 97.8522 184.774 97.8522 184.712 97.914C179.583 103.909 169.448 103.909 162.65 98.7174C162.155 98.3466 161.723 98.223 161.414 98.3466H161.352C160.981 98.4702 160.796 98.841 160.857 99.459Z" fill="#F0A83A"/>
<path opacity="0.4" d="M161.29 98.2848C161.599 98.1612 162.031 98.2848 162.526 98.6556C168.891 103.538 178.285 103.847 183.6 98.841C178.47 100.51 172.167 99.3972 167.532 95.8128C167.037 95.442 166.605 95.3184 166.296 95.442L161.29 98.2848Z" fill="white"/>
<path opacity="0.4" d="M185.269 97.2342C185.825 96.987 186.381 97.2342 186.69 98.0994C191.572 110.15 201.893 122.387 208.815 125.477C209.309 125.724 209.803 126.033 210.174 126.466C210.298 126.589 210.421 126.775 210.545 126.96L215.551 124.055C215.427 123.87 215.365 123.746 215.242 123.561C215.18 123.499 215.118 123.376 214.995 123.314C214.933 123.314 214.933 123.252 214.933 123.252C214.871 123.252 214.871 123.19 214.871 123.19C214.562 122.943 214.253 122.696 213.882 122.572C206.961 119.544 196.64 107.308 191.758 95.1948C191.387 94.3296 190.893 94.0824 190.336 94.3296L185.269 97.2342Z" fill="white"/>
<path d="M214.994 123.376C214.994 123.314 214.932 123.314 214.932 123.314C214.932 123.314 214.932 123.314 214.994 123.376Z" fill="#F0A83A"/>
<path opacity="0.15" d="M214.871 123.252C214.934 123.315 214.934 123.315 214.934 123.315C214.934 123.315 214.934 123.315 214.871 123.252Z" fill="black"/>
<path opacity="0.15" d="M199.607 175.844L199.668 175.782L204.86 172.754C211.596 168.737 214.933 160.456 214.933 152.607L215.922 125.477C215.922 124.921 215.798 124.426 215.489 123.994L210.483 126.898C210.731 127.331 210.916 127.887 210.916 128.381L209.927 155.512C209.927 163.36 206.59 171.58 199.854 175.658L199.668 175.782L199.607 175.844Z" fill="black"/>
<path d="M181.87 150.938L189.904 155.573L188.668 141.05C189.657 140.556 190.213 139.32 190.213 137.528C190.213 134.314 188.297 130.606 185.887 129.247C183.477 127.887 181.561 129.308 181.561 132.522C181.561 134.314 182.179 136.292 183.106 137.899L181.87 150.938Z" fill="#455A64"/>
<path d="M181.87 150.938L189.163 146.736L189.904 155.573L181.87 150.938Z" fill="#37474F"/>
<path d="M185.888 129.185C187.433 130.112 188.854 132.028 189.596 134.129L183.107 137.899C182.118 136.292 181.562 134.314 181.562 132.522C181.562 129.247 183.478 127.763 185.888 129.185Z" fill="#37474F"/>
<path d="M286.373 235.295V237.706C286.373 240.548 284.519 243.391 280.749 245.554C275.125 248.83 266.782 249.633 259.861 247.964L253.434 251.672L248.49 250.56L245.091 252.538L244.905 256.616L243.113 257.667L238.54 258.1L235.264 259.954V262.24L231.124 264.65H220.618L216.848 262.487V260.077L250.405 243.144C248.86 241.475 248.057 239.683 248.057 237.891V235.419C248.551 233.071 250.529 231.835 253.681 230.042C261.159 225.716 273.271 225.716 280.749 230.042C284.086 231.896 286.002 232.762 286.373 235.295ZM276.052 232.514C273.951 231.278 270.49 231.278 268.389 232.514C266.288 233.75 266.288 235.728 268.389 236.964C270.49 238.2 273.951 238.2 276.052 236.964C278.215 235.728 278.215 233.689 276.052 232.514Z" fill="#F0A83A"/>
<path opacity="0.1" d="M286.373 235.295V237.706C286.373 240.548 284.519 243.391 280.749 245.554C275.125 248.83 266.782 249.633 259.861 247.964L253.434 251.672L248.49 250.56L245.091 252.538L244.905 256.616L243.113 257.667L238.54 258.1L235.264 259.954V262.24L231.124 264.65H220.618L216.848 262.487V260.077L250.405 243.144C248.86 241.475 248.057 239.683 248.057 237.891V235.419C248.551 233.071 250.529 231.835 253.681 230.042C261.159 225.716 273.271 225.716 280.749 230.042C284.086 231.896 286.002 232.762 286.373 235.295ZM276.052 232.514C273.951 231.278 270.49 231.278 268.389 232.514C266.288 233.75 266.288 235.728 268.389 236.964C270.49 238.2 273.951 238.2 276.052 236.964C278.215 235.728 278.215 233.689 276.052 232.514Z" fill="black"/>
<path d="M280.749 243.144C275.125 246.419 266.782 247.223 259.861 245.554L253.433 249.262L248.489 248.15L245.09 250.127L244.905 254.206L243.113 255.257L238.54 255.689L234.955 257.667L235.264 259.83L231.124 262.24H220.618L216.848 260.077L250.405 240.672C246.45 236.47 247.562 231.093 253.681 227.57C261.158 223.244 273.271 223.244 280.749 227.57C288.227 231.835 288.227 238.818 280.749 243.144ZM276.052 230.042C273.951 228.806 270.49 228.806 268.389 230.042C266.288 231.278 266.288 233.256 268.389 234.492C270.49 235.728 273.951 235.728 276.052 234.492C278.215 233.256 278.215 231.278 276.052 230.042Z" fill="#F0A83A"/>
<path opacity="0.3" d="M267.215 244.256C271.973 244.256 276.423 243.206 279.698 241.29C282.603 239.621 284.271 237.458 284.271 235.295C284.271 233.132 282.603 230.969 279.698 229.301C276.423 227.385 271.973 226.334 267.215 226.334C262.456 226.334 258.006 227.385 254.731 229.301C251.826 230.969 250.158 233.132 250.158 235.295C250.158 237.458 251.826 239.621 254.731 241.29C258.006 243.206 262.456 244.256 267.215 244.256ZM267.215 227.2C271.788 227.2 276.114 228.188 279.266 230.042C281.861 231.587 283.406 233.441 283.406 235.295C283.406 237.088 281.923 239.003 279.266 240.548C276.114 242.402 271.788 243.391 267.215 243.391C262.641 243.391 258.315 242.402 255.164 240.548C252.568 239.003 251.023 237.149 251.023 235.295C251.023 233.503 252.506 231.587 255.164 230.042C258.315 228.25 262.58 227.2 267.215 227.2Z" fill="black"/>
<path opacity="0.1" d="M274.074 245.616V248.026C269.501 249.015 264.372 249.015 259.86 247.903V245.492C264.372 246.605 269.501 246.667 274.074 245.616Z" fill="black"/>
<path opacity="0.1" d="M253.434 249.262V251.672L248.428 250.56V248.15L253.434 249.262Z" fill="black"/>
<path opacity="0.1" d="M245.09 250.066V252.538L244.904 256.616V254.206L245.09 250.066Z" fill="black"/>
<path opacity="0.1" d="M243.051 255.257V257.667L238.478 258.1V255.628L243.051 255.257Z" fill="black"/>
<path opacity="0.1" d="M220.557 262.178H231.062V264.589H220.557V262.178Z" fill="black"/>
<path opacity="0.15" d="M216.787 260.015V262.426L220.557 264.589V262.178L218.888 261.19V262.24L218.023 261.746V260.695L216.787 260.015Z" fill="black"/>
<path d="M218.022 260.695L218.887 261.19V262.24L218.022 261.746V260.695Z" fill="#F0A83A"/>
<path opacity="0.15" d="M218.023 260.695V261.746L252.445 241.846L251.518 241.29L218.023 260.695Z" fill="black"/>
<path opacity="0.15" d="M251.518 241.29V242.402L252.445 241.846L251.518 241.29Z" fill="black"/>
<path d="M75.7916 149.249C75.2602 129.51 76.8544 124.727 82.0929 121.083L84.1427 132.546C84.1427 132.546 81.7133 146.06 82.017 150.539C82.2447 154.487 82.6243 159.422 83.5353 162.611C83.6872 163.142 84.0668 163.673 84.5982 163.977C85.9648 164.812 86.4962 165.647 87.4831 166.71C88.2423 167.545 88.9256 167.773 88.8497 168.001C88.6978 168.305 88.1664 168.912 87.1795 168.608C86.7239 168.456 86.0407 168.077 85.2815 167.545C85.2815 167.545 85.8129 169.216 87.2554 170.886C89.1534 173.163 89.2293 174.606 85.4333 174.606C83.0798 174.606 81.1819 173.163 79.3598 167.925C78.8284 166.407 78.0692 164.053 77.6896 162.003C76.7026 156.917 75.8675 152.437 75.7916 149.249Z" fill="#FFBE9D"/>
<path d="M86.4961 119.564C83.9908 119.185 80.5744 119.716 78.3727 123.664C76.171 127.612 75.6396 134.369 75.4118 141.125C75.4118 141.125 79.8152 144.77 85.0536 143.023L86.4961 119.564Z" fill="#27DEBF"/>
<path d="M86.4961 119.564C83.9908 119.185 80.5744 119.716 78.3727 123.664C76.171 127.612 75.6396 134.369 75.4118 141.125C75.4118 141.125 79.8152 144.77 85.0536 143.023L86.4961 119.564Z" fill="#E09D36"/>
<path d="M79.1326 228.357C78.753 228.509 78.6011 229.268 78.6011 230.786C78.5252 231.925 78.2975 233.899 79.664 234.354C81.0305 234.734 82.9285 234.582 83.8396 233.443C84.9024 232.077 85.6616 230.938 87.18 229.268C88.4706 227.825 89.9131 226.535 90.4445 224.485C90.9 222.663 90.5204 221.904 89.3057 221.372C87.6355 220.613 84.9783 223.042 83.6118 223.346C82.3971 223.726 79.5122 228.205 79.1326 228.357Z" fill="#263238"/>
<path d="M79.1304 226.914V228.736C79.1304 228.736 81.0284 230.255 83.8374 228.888C83.9134 228.736 84.293 226.231 84.293 226.231L79.1304 226.914Z" fill="#FFBE9D"/>
<path d="M94.1644 239.061C94.1644 239.061 93.633 240.656 93.3293 242.098C93.1015 243.237 92.7978 245.059 93.1774 245.97C93.557 246.805 95.0754 247.337 97.5049 247.337C99.0232 247.337 101.453 248.4 103.047 249.311C104.717 250.222 108.285 250.601 110.032 250.449C112.157 250.222 114.359 249.007 114.663 248.096C115.042 247.185 114.587 246.274 109.576 244.224C109.5 244.224 102.667 241.946 100.238 239.289L94.1644 239.061Z" fill="#263238"/>
<path d="M94.1636 237.012C94.1636 237.012 94.1636 238.378 94.1636 239.213C94.1636 239.972 95.0746 241.187 97.504 241.111C99.1743 241.035 100.389 240.58 100.313 239.213V237.239L94.1636 237.012Z" fill="#FFBE9D"/>
<path d="M77.9165 202.316C78.7516 196.243 80.1182 192.675 80.1182 192.675C80.1182 192.675 79.4349 184.324 79.1312 176.428C78.7516 167.925 79.1312 157.144 78.9794 155.019C78.9794 155.019 106.538 149.477 106.994 159.346C107.449 169.216 105.931 194.345 105.551 198.672C105.248 203 104.488 206.872 103.577 213.856C102.666 220.765 100.237 237.163 100.237 237.163C97.1242 238.834 94.0874 237.012 94.0874 237.012C94.0874 237.012 92.1135 217.273 92.3412 212.262C92.569 206.188 94.2392 201.329 94.2392 201.329C94.2392 201.329 93.7078 193.206 93.2523 186.146C92.7968 179.085 92.2653 175.669 92.1894 172.556L91.582 172.252C91.582 172.252 90.9747 184.475 90.671 188.803C90.3673 193.13 89.6841 197.306 88.3934 205.353C87.3306 212.338 84.066 227.142 84.066 227.142C80.9533 228.812 79.0553 226.914 79.0553 226.914C79.0553 226.914 77.0814 208.39 77.9165 202.316Z" fill="#37474F"/>
<path d="M92.2676 172.556C92.2676 172.556 85.5867 169.291 82.2462 166.255C82.2462 166.255 85.3589 170.658 89.4586 172.556C89.4586 172.556 90.901 187.74 90.901 187.436L91.7361 172.48L92.2676 172.556Z" fill="#263238"/>
<path d="M98.1875 116.452L96.5932 125.41L88.4698 124.803L90.216 114.63L98.1875 116.452Z" fill="#FFBE9D"/>
<path d="M79.8911 124.195C80.7262 121.766 83.763 119.109 86.8757 119.64C92.5697 120.703 97.0489 121.842 100.465 123.057C103.274 124.044 105.856 126.549 106.083 135.811C106.083 135.811 107.07 157.524 107.07 161.775C99.9339 164.584 92.5697 164.509 88.47 163.598C79.967 161.7 78.9042 158.207 78.9042 158.207C78.9042 158.207 78.8282 142.568 79.056 135.811C79.2837 130.117 79.3597 125.866 79.8911 124.195Z" fill="#F6AC3B"/>
<g opacity="0.15">
<g opacity="0.15">
<path d="M79.8911 124.195C80.7262 121.766 83.763 119.109 86.8757 119.64C92.5697 120.703 97.0489 121.842 100.465 123.057C103.274 124.044 105.856 126.549 106.083 135.811C106.083 135.811 107.07 157.524 107.07 161.775C99.9339 164.584 92.5697 164.509 88.47 163.598C79.967 161.7 78.9042 158.207 78.9042 158.207C78.9042 158.207 78.8282 142.568 79.056 135.811C79.2837 130.117 79.3597 125.866 79.8911 124.195Z" fill="black"/>
</g>
</g>
<path d="M104.49 105.519C104.49 105.519 106.54 108.784 106.312 109.087C106.085 109.391 104.49 109.619 104.49 109.619V105.519Z" fill="#9A4A4D"/>
<path d="M98.7967 96.4848C103.048 97.4718 104.263 99.4457 104.567 106.278C104.794 113.415 104.035 115.692 103.124 116.603C102.441 117.211 98.9486 117.287 97.2024 116.755C95.0008 116.072 89.9901 114.174 87.7125 110.53C85.0554 106.202 84.448 100.509 87.4848 98.2309C91.5844 94.9664 97.0506 96.0293 98.7967 96.4848Z" fill="#FFBE9D"/>
<path d="M104.489 98.2309C103.198 100.357 100.465 101.42 100.465 101.42C99.6297 102.331 100.085 105.975 98.6428 106.582C98.6428 106.582 98.0354 103.925 95.7578 104.229C93.4802 104.532 93.1766 107.341 94.5431 109.163C95.9097 110.909 97.2762 110.302 97.2762 110.302C97.2762 110.302 97.1244 114.098 95.3782 116.148C95.3782 116.148 93.4803 116.755 89.988 115.92C87.8622 115.389 84.8254 112.656 83.6107 109.771C81.0295 103.697 80.9536 98.2309 84.8254 96.7125C85.281 93.9794 87.4826 92.7647 89.988 92.2333C95.3782 91.0945 98.8705 94.5109 103.046 94.2072C105.476 93.9795 105.931 95.7256 104.489 98.2309Z" fill="#263238"/>
<path d="M84.8242 97.6235L82.3188 96.0292C82.7744 95.346 83.6854 95.1182 84.3687 95.5737C84.976 96.0292 85.2038 96.9403 84.8242 97.6235Z" fill="#263238"/>
<path d="M134.78 139.227C133.414 139.835 117.774 151.45 115.269 150.084C112.84 148.717 100.237 134.065 100.237 134.065C96.5928 127.991 100.237 123.057 100.237 123.057C100.237 123.057 104.261 123.816 106.386 127.004C108.512 130.193 117.623 141.581 117.623 141.581C119.9 140.442 122.102 139.303 124.379 138.165C126.201 137.178 128.099 136.267 129.846 135.204C130.301 134.976 130.908 134.672 131.288 134.369C132.199 133.458 132.047 131.332 131.971 130.193C131.971 129.662 131.971 129.13 131.895 128.599C131.819 127.915 131.668 126.321 132.882 126.853C133.11 126.928 133.262 127.156 133.414 127.308C133.566 127.536 133.717 127.839 133.869 128.143C134.097 128.826 134.021 129.586 134.249 130.345C134.249 130.421 134.325 130.573 134.401 130.649C134.477 130.724 134.628 130.8 134.78 130.8C136.526 130.724 138.121 128.295 138.956 127.004C139.335 126.397 139.639 125.79 140.246 125.486C141.158 125.03 142.296 125.714 142.904 126.549C143.663 127.612 143.891 129.054 143.739 130.345C143.511 132.167 142.828 133.913 141.461 135.128C139.487 136.874 137.286 138.089 134.78 139.227Z" fill="#FFBE9D"/>
<path d="M98.9468 122.525C100.693 122.753 103.578 122.829 106.387 126.017C109.651 129.737 114.055 135.811 114.055 135.811C114.055 135.811 112.84 141.733 106.463 142.947C106.463 142.947 100.541 136.874 98.8708 133.533C97.2006 130.269 96.9729 124.803 98.9468 122.525Z" fill="#27DEBF"/>
<path d="M98.9468 122.525C100.693 122.753 103.578 122.829 106.387 126.017C109.651 129.737 114.055 135.811 114.055 135.811C114.055 135.811 112.84 141.733 106.463 142.947C106.463 142.947 100.541 136.874 98.8708 133.533C97.2006 130.269 96.9729 124.803 98.9468 122.525Z" fill="#E09D36"/>
</svg>
