<svg width="407" height="300" viewBox="0 0 407 300" fill="none" xmlns="http://www.w3.org/2000/svg">
<path d="M178.694 97.1523H108.812V143.913H178.694V97.1523Z" fill="#64B9FF"/>
<path d="M178.692 143.967C178.692 143.967 178.692 143.688 178.692 143.13C178.692 142.572 178.692 141.735 178.692 140.675C178.692 138.499 178.692 135.318 178.692 131.245C178.692 123.098 178.636 111.436 178.636 97.2068L178.748 97.3184C159.491 97.3184 135.211 97.3184 108.866 97.3184L108.977 97.2068C108.977 113.891 108.977 129.738 108.977 143.967L108.866 143.856C129.462 143.856 146.876 143.911 159.212 143.911C165.352 143.911 170.263 143.911 173.612 143.967C175.287 143.967 176.571 143.967 177.464 143.967C177.91 143.967 178.245 143.967 178.468 143.967C178.58 143.911 178.692 143.967 178.692 143.967C178.692 143.967 178.58 143.967 178.357 143.967C178.134 143.967 177.799 143.967 177.408 143.967C176.515 143.967 175.287 143.967 173.612 143.967C170.263 143.967 165.407 143.967 159.268 144.023C146.932 144.023 129.462 144.079 108.866 144.079H108.754V143.967C108.754 129.682 108.754 113.835 108.754 97.2068V97.0952H108.866C135.211 97.0952 159.491 97.0952 178.748 97.0952H178.859V97.2068C178.859 111.492 178.803 123.154 178.803 131.301C178.803 135.374 178.803 138.555 178.803 140.675C178.803 141.735 178.803 142.572 178.803 143.13C178.748 143.688 178.692 143.967 178.692 143.967Z" fill="#E0E0E0"/>
<path d="M108.81 101.336C108.81 101.28 124.438 101.225 143.751 101.225C163.063 101.225 178.692 101.28 178.692 101.336C178.692 101.392 163.063 101.448 143.751 101.448C124.438 101.448 108.81 101.392 108.81 101.336Z" fill="white"/>
<g opacity="0.3">
<g opacity="0.3">
<path opacity="0.3" d="M111.601 99.2157C111.601 99.5505 111.377 99.7737 111.043 99.7737C110.708 99.7737 110.484 99.5505 110.484 99.2157C110.484 98.8809 110.708 98.6577 111.043 98.6577C111.322 98.6577 111.601 98.9367 111.601 99.2157Z" fill="#E0E0E0"/>
</g>
</g>
<g opacity="0.3">
<g opacity="0.3">
<path opacity="0.3" d="M112.94 99.7737C113.248 99.7737 113.498 99.5239 113.498 99.2157C113.498 98.9075 113.248 98.6577 112.94 98.6577C112.632 98.6577 112.382 98.9075 112.382 99.2157C112.382 99.5239 112.632 99.7737 112.94 99.7737Z" fill="#E0E0E0"/>
</g>
</g>
<g opacity="0.3">
<g opacity="0.3">
<path opacity="0.3" d="M115.397 99.2157C115.397 99.5505 115.173 99.7737 114.838 99.7737C114.504 99.7737 114.28 99.5505 114.28 99.2157C114.28 98.8809 114.504 98.6577 114.838 98.6577C115.173 98.6577 115.397 98.9367 115.397 99.2157Z" fill="#E0E0E0"/>
</g>
</g>
<path d="M133.481 106.19H114.838V124.828H133.481V106.19Z" fill="#53A2F1"/>
<path d="M169.147 111.491C169.147 111.547 161.891 111.603 152.905 111.603C143.918 111.603 136.662 111.547 136.662 111.491C136.662 111.436 143.918 111.38 152.905 111.38C161.891 111.38 169.147 111.436 169.147 111.491Z" fill="white"/>
<path d="M169.147 114.951C169.147 115.007 161.891 115.063 152.905 115.063C143.918 115.063 136.662 115.007 136.662 114.951C136.662 114.896 143.918 114.84 152.905 114.84C161.891 114.84 169.147 114.896 169.147 114.951Z" fill="white"/>
<path d="M169.147 118.411C169.147 118.467 161.891 118.522 152.905 118.522C143.918 118.522 136.662 118.467 136.662 118.411C136.662 118.355 143.918 118.299 152.905 118.299C161.891 118.299 169.147 118.355 169.147 118.411Z" fill="white"/>
<path d="M155.863 121.871C155.863 121.871 155.584 121.926 155.082 121.926C154.524 121.926 153.854 121.926 153.017 121.982C151.286 121.982 148.886 122.038 146.207 122.038C143.584 122.038 141.184 122.038 139.397 121.982C138.56 121.982 137.89 121.926 137.332 121.926C136.83 121.926 136.551 121.871 136.551 121.871C136.551 121.871 136.83 121.815 137.332 121.815C137.89 121.815 138.56 121.815 139.397 121.759C141.128 121.759 143.528 121.703 146.207 121.703C148.83 121.703 151.23 121.703 153.017 121.759C153.854 121.759 154.524 121.815 155.082 121.815C155.584 121.815 155.863 121.871 155.863 121.871Z" fill="white"/>
<path d="M124.773 131.133H116.01V139.894H124.773V131.133Z" fill="#53A2F1"/>
<path d="M140.681 131.133H131.918V139.894H140.681V131.133Z" fill="#53A2F1"/>
<path d="M156.533 131.133H147.77V139.894H156.533V131.133Z" fill="#53A2F1"/>
<path d="M172.44 131.133H163.677V139.894H172.44V131.133Z" fill="#53A2F1"/>
<path d="M306.065 108.98C306.065 108.98 306.009 109.315 305.674 109.761C305.339 110.208 304.725 110.877 303.776 111.156C303.274 111.324 302.716 111.38 302.102 111.268C301.488 111.156 300.874 110.877 300.371 110.431C300.092 110.208 299.869 109.929 299.701 109.65C299.478 109.371 299.367 109.036 299.255 108.645C299.032 107.92 299.088 107.139 299.367 106.358C299.646 105.632 300.148 105.018 300.818 104.628C301.153 104.405 301.488 104.293 301.822 104.181C302.157 104.07 302.492 104.014 302.883 104.07C303.553 104.07 304.223 104.293 304.725 104.628C305.227 104.963 305.618 105.353 305.897 105.8C306.455 106.692 306.455 107.585 306.399 108.143C306.232 108.701 306.065 108.98 306.065 108.98C306.065 108.98 306.176 108.701 306.232 108.143C306.288 107.585 306.232 106.748 305.73 105.911C305.451 105.521 305.116 105.074 304.613 104.795C304.111 104.516 303.497 104.293 302.883 104.293C302.548 104.293 302.213 104.349 301.878 104.405C301.543 104.516 301.209 104.628 300.929 104.851C300.315 105.242 299.869 105.8 299.59 106.525C299.311 107.25 299.311 107.976 299.478 108.645C299.59 108.98 299.701 109.315 299.869 109.594C300.036 109.873 300.26 110.152 300.539 110.319C301.041 110.766 301.599 110.989 302.157 111.101C302.716 111.212 303.274 111.156 303.776 111.045C304.725 110.766 305.339 110.152 305.674 109.761C305.953 109.315 306.065 108.98 306.065 108.98Z" fill="#E0E0E0"/>
<path d="M309.413 112.384C309.413 112.384 309.469 112.384 309.525 112.384C309.637 112.384 309.748 112.384 309.916 112.44C310.251 112.496 310.753 112.551 311.423 112.663H311.367C311.646 111.882 312.037 110.822 312.539 109.594V109.65C312.037 109.315 311.479 108.924 310.865 108.534H310.809V108.478C310.865 107.808 310.865 107.083 310.753 106.358V106.302H310.809C311.311 105.911 311.869 105.521 312.427 105.13V105.242C311.981 104.293 311.534 103.289 311.088 102.228L311.199 102.284C310.585 102.396 309.916 102.563 309.246 102.675H309.19L309.134 102.619C308.744 102.117 308.185 101.615 307.571 101.168L307.516 101.112V101.057C307.627 100.443 307.683 99.7732 307.795 99.1036L307.85 99.2152C306.902 98.8246 305.841 98.434 304.781 98.0434L304.892 97.9876C304.557 98.4898 304.167 99.0478 303.776 99.6616L303.72 99.7174H303.664C302.994 99.6616 302.269 99.6616 301.543 99.7732H301.487L301.432 99.7174C301.041 99.2152 300.65 98.6572 300.259 98.0992L300.371 98.155C299.422 98.6014 298.417 99.0478 297.357 99.4942L297.413 99.3826C297.524 99.9964 297.692 100.666 297.803 101.336V101.391L297.748 101.447C297.245 101.894 296.687 102.396 296.296 103.01C296.241 103.01 296.408 102.954 296.185 103.065H296.129H296.073H295.962L295.738 103.01L295.236 102.954C294.901 102.898 294.566 102.842 294.231 102.786L294.343 102.731C293.952 103.791 293.561 104.795 293.171 105.8L293.115 105.688C293.673 106.079 294.231 106.413 294.789 106.804L294.845 106.86V106.916C294.789 107.641 294.789 108.366 294.901 109.036V109.092L294.845 109.148C294.287 109.538 293.785 109.929 293.227 110.319L293.282 110.208C293.729 111.212 294.175 112.272 294.622 113.221L294.51 113.165C295.18 113.054 295.85 112.886 296.464 112.775H296.52L296.575 112.83C297.022 113.388 297.524 113.891 298.138 114.281L298.194 114.337V114.393C298.083 115.062 297.971 115.732 297.915 116.346L297.859 116.234C298.92 116.681 299.98 117.071 300.929 117.406L300.818 117.462C301.208 116.904 301.599 116.346 301.934 115.788V115.732H301.99C302.771 115.788 303.441 115.788 304.111 115.676H304.167V115.732C304.613 116.29 305.004 116.848 305.339 117.35H305.283C306.455 116.848 307.46 116.402 308.297 116.011V116.067C308.13 115.286 308.018 114.616 307.906 114.114C308.464 113.667 308.855 113.277 309.078 112.998C309.19 112.886 309.246 112.775 309.357 112.663C309.357 112.384 309.413 112.384 309.413 112.384C309.413 112.384 309.413 112.44 309.357 112.496C309.302 112.551 309.246 112.663 309.134 112.83C308.911 113.109 308.576 113.5 307.962 114.002V113.946C308.074 114.504 308.185 115.118 308.353 115.899V115.955H308.297C307.46 116.346 306.455 116.792 305.283 117.294H305.227L305.171 117.239C304.781 116.736 304.39 116.234 303.999 115.62H304.055C303.385 115.732 302.66 115.788 301.878 115.676L301.934 115.62C301.599 116.123 301.208 116.681 300.818 117.294L300.762 117.35H300.706C299.757 116.96 298.697 116.569 297.636 116.178H297.58V116.123C297.692 115.509 297.748 114.839 297.859 114.17L297.915 114.281C297.357 113.891 296.799 113.388 296.352 112.775L296.464 112.83C295.85 112.942 295.18 113.109 294.51 113.221H294.454L294.399 113.165C293.952 112.161 293.506 111.156 293.059 110.152L293.003 110.096L293.059 110.04C293.561 109.65 294.12 109.259 294.678 108.869L294.622 108.98C294.51 108.255 294.51 107.529 294.566 106.804L294.622 106.916C294.064 106.525 293.506 106.19 292.947 105.8L292.892 105.744L292.947 105.688C293.338 104.684 293.729 103.623 294.12 102.619L294.175 102.563H294.231C294.566 102.619 294.901 102.675 295.236 102.731L295.738 102.786L295.962 102.842H296.073H296.129H296.185C296.017 102.898 296.129 102.842 296.073 102.898C296.52 102.284 297.022 101.726 297.58 101.336L297.524 101.447C297.413 100.778 297.245 100.108 297.134 99.4942V99.4384L297.189 99.3826C298.25 98.9362 299.255 98.4898 300.204 98.0434L300.259 97.9876L300.315 98.0434C300.706 98.6014 301.152 99.1594 301.487 99.6616L301.376 99.6058C302.101 99.4942 302.883 99.4942 303.553 99.55L303.441 99.6058C303.832 99.0478 304.222 98.4898 304.557 97.9318L304.613 97.876H304.669C305.729 98.2666 306.79 98.713 307.739 99.0478H307.795V99.1036C307.683 99.7732 307.571 100.443 307.516 101.057L307.46 101.001C308.074 101.447 308.632 101.949 309.023 102.507L308.967 102.452C309.637 102.34 310.306 102.173 310.92 102.061H310.976V102.117C311.423 103.177 311.869 104.181 312.316 105.13V105.186L312.26 105.242C311.702 105.632 311.144 106.079 310.641 106.413V106.358C310.753 107.139 310.753 107.864 310.697 108.534V108.478C311.311 108.869 311.869 109.259 312.372 109.594H312.427V109.65C311.925 110.877 311.534 111.938 311.199 112.719C310.585 112.607 310.083 112.551 309.748 112.496C309.581 112.496 309.469 112.44 309.357 112.44C309.469 112.384 309.413 112.384 309.413 112.384Z" fill="#64B9FF"/>
<path fill-rule="evenodd" clip-rule="evenodd" d="M326.995 102.954C326.66 103.456 326.214 103.902 325.767 104.237L326.102 105.855L323.59 106.971L322.586 105.632C322.028 105.744 321.414 105.744 320.8 105.688L319.851 107.083L317.283 106.079L317.506 104.46C317.004 104.126 316.557 103.679 316.223 103.233L314.604 103.568L313.488 101.057L314.827 100.052C314.716 99.4942 314.716 98.8804 314.771 98.2666L313.376 97.318L314.381 94.7512L315.999 94.9744C316.334 94.4722 316.781 94.0258 317.227 93.691L316.892 92.0728L319.404 90.9568L320.409 92.296C320.967 92.1844 321.581 92.1844 322.195 92.2402L323.144 90.8452L325.711 91.8496L325.488 93.4678C325.99 93.8026 326.437 94.249 326.772 94.6954L328.391 94.3606L329.507 96.8716L328.167 97.876C328.279 98.434 328.279 99.0478 328.223 99.6616L329.619 100.61L328.614 103.177L326.995 102.954ZM324.204 100.164C324.763 98.6572 324.037 96.9274 322.53 96.3694C321.023 95.8114 319.292 96.5368 318.734 98.0434C318.176 99.55 318.902 101.28 320.409 101.838C321.916 102.452 323.646 101.67 324.204 100.164Z" fill="#64B9FF"/>
<path fill-rule="evenodd" clip-rule="evenodd" d="M316.167 87.7204C315.609 88.5016 314.939 89.1712 314.214 89.7292L314.716 92.296L310.809 94.0258L309.246 91.9612C308.353 92.1286 307.404 92.1286 306.455 92.017L305.004 94.1932L300.985 92.6308L301.376 90.064C300.595 89.506 299.925 88.8364 299.367 88.111L296.799 88.6132L295.069 84.7072L297.134 83.1448C296.967 82.252 296.967 81.3034 297.078 80.3548L294.901 78.904L296.464 74.8864L299.032 75.277C299.59 74.4958 300.26 73.8262 300.985 73.2682L300.483 70.7014L304.39 68.9716L305.953 71.0362C306.846 70.8688 307.795 70.8688 308.744 70.9804L310.195 68.8042L314.214 70.3666L313.823 72.9334C314.605 73.4914 315.274 74.161 315.833 74.8864L318.4 74.3842L320.13 78.2902L318.065 79.8526C318.233 80.7454 318.233 81.694 318.121 82.6426L320.298 84.0934L318.735 88.111L316.167 87.7204ZM311.814 83.3122C312.707 80.9128 311.535 78.2902 309.19 77.3416C306.79 76.4488 304.167 77.6206 303.218 79.9642C302.325 82.3636 303.497 84.9862 305.841 85.9348C308.242 86.8834 310.921 85.7116 311.814 83.3122Z" fill="#64B9FF"/>
<path d="M276.762 66.4609C276.762 66.4609 276.873 66.3493 277.041 66.1261C277.264 65.9029 277.543 65.6239 277.878 65.2891C278.604 64.5637 279.608 63.6151 280.725 62.5549V62.7223C279.608 61.6621 278.604 60.7135 277.878 60.0439C277.543 59.7091 277.264 59.4301 277.041 59.2069C276.818 58.9837 276.762 58.8721 276.762 58.8721C276.762 58.8721 276.873 58.9837 277.097 59.1511C277.32 59.3743 277.655 59.6533 277.99 59.9323C278.715 60.6019 279.776 61.5505 280.892 62.6107L280.948 62.6665L280.892 62.7223C279.776 63.7825 278.771 64.7311 277.99 65.4565C277.655 65.7913 277.32 66.0703 277.097 66.2377C276.929 66.3493 276.762 66.4609 276.762 66.4609Z" fill="#E0E0E0"/>
<path d="M268.054 58.7603C268.054 58.7603 267.943 58.8719 267.775 59.0951C267.552 59.3183 267.273 59.5973 266.938 59.9321C266.212 60.6575 265.208 61.6061 264.091 62.6663V62.4989C265.208 63.5591 266.212 64.5077 266.938 65.1773C267.273 65.5121 267.552 65.7911 267.775 66.0143C267.999 66.2375 268.054 66.3491 268.054 66.3491C268.054 66.3491 267.943 66.2375 267.719 66.0701C267.496 65.8469 267.161 65.5679 266.826 65.2889C266.101 64.6193 265.04 63.6707 263.924 62.6105L263.868 62.5547L263.924 62.4989C265.04 61.4387 266.045 60.4901 266.826 59.7647C267.161 59.4299 267.496 59.1509 267.719 58.9835C267.943 58.8719 268.054 58.7603 268.054 58.7603Z" fill="#E0E0E0"/>
<path d="M270.287 68.2461C270.231 68.2461 271.124 65.6793 272.352 62.4987C273.524 59.3739 274.529 56.8071 274.584 56.8071C274.64 56.8071 273.747 59.3739 272.519 62.5545C271.347 65.7351 270.342 68.2461 270.287 68.2461Z" fill="#E0E0E0"/>
<path d="M286.697 73.7706C286.697 73.7706 286.697 73.6032 286.697 73.3242C286.697 73.0452 286.697 72.5988 286.697 72.0966C286.697 71.0364 286.697 69.4182 286.697 67.4094C286.697 63.3918 286.697 57.6444 286.641 50.6694L286.697 50.7252C278.603 50.7252 268.836 50.7252 258.342 50.7252L258.454 50.6136C258.454 58.9836 258.454 66.8514 258.454 73.7148L258.342 73.6032C266.77 73.6032 273.803 73.659 278.827 73.659C281.338 73.659 283.292 73.659 284.632 73.659C285.301 73.659 285.804 73.659 286.195 73.659C286.362 73.659 286.474 73.659 286.585 73.659C286.641 73.7706 286.697 73.7706 286.697 73.7706C286.697 73.7706 286.641 73.7706 286.585 73.7706C286.474 73.7706 286.362 73.7706 286.195 73.7706C285.86 73.7706 285.357 73.7706 284.687 73.7706C283.348 73.7706 281.394 73.7706 278.883 73.7706C273.915 73.7706 266.826 73.7706 258.342 73.8264H258.23V73.7148C258.23 66.8514 258.23 58.9836 258.23 50.6136V50.502H258.342C268.836 50.502 278.548 50.502 286.697 50.502H286.753V50.5578C286.753 57.5328 286.697 63.2802 286.697 67.3536C286.697 69.3624 286.697 70.9248 286.697 72.0408C286.697 72.5988 286.697 72.9894 286.697 73.2684C286.697 73.6032 286.697 73.7706 286.697 73.7706Z" fill="#E0E0E0"/>
<path d="M286.92 54.073C286.92 54.1288 280.501 54.1846 272.631 54.1846C264.761 54.1846 258.342 54.1288 258.342 54.073C258.342 54.0172 264.761 53.9614 272.631 53.9614C280.501 54.0172 286.92 54.0172 286.92 54.073Z" fill="#E0E0E0"/>
<path d="M260.631 52.3994C260.631 52.6226 260.464 52.79 260.24 52.79C260.017 52.79 259.85 52.6226 259.85 52.3994C259.85 52.1762 260.017 52.0088 260.24 52.0088C260.464 52.0088 260.631 52.1762 260.631 52.3994Z" fill="#E0E0E0"/>
<path d="M261.636 52.79C261.852 52.79 262.027 52.6151 262.027 52.3994C262.027 52.1837 261.852 52.0088 261.636 52.0088C261.42 52.0088 261.245 52.1837 261.245 52.3994C261.245 52.6151 261.42 52.79 261.636 52.79Z" fill="#E0E0E0"/>
<path d="M263.422 52.3994C263.422 52.6226 263.255 52.79 263.031 52.79C262.808 52.79 262.641 52.6226 262.641 52.3994C262.641 52.1762 262.808 52.0088 263.031 52.0088C263.255 52.0088 263.422 52.1762 263.422 52.3994Z" fill="#E0E0E0"/>
<path d="M231.885 61.7739H166.356V88.3905H231.885V61.7739Z" fill="#64B9FF"/>
<path d="M231.884 88.39C231.884 88.39 231.884 88.2226 231.884 87.8878C231.884 87.553 231.884 87.1066 231.884 86.4928C231.884 85.2652 231.884 83.4796 231.884 81.1918C231.884 76.6162 231.884 69.976 231.828 61.7176L231.884 61.7734C215.195 61.7734 192.031 61.7734 166.356 61.8292L166.468 61.7734C166.468 71.092 166.468 80.0758 166.468 88.39L166.356 88.2784C185.333 88.2784 201.688 88.3342 213.353 88.3342C219.158 88.3342 223.791 88.3342 226.972 88.3342C228.535 88.3342 229.763 88.3342 230.6 88.3342C230.991 88.3342 231.326 88.3342 231.549 88.3342C231.773 88.39 231.884 88.39 231.884 88.39C231.884 88.39 231.773 88.39 231.549 88.39C231.326 88.39 231.047 88.39 230.6 88.39C229.763 88.39 228.535 88.39 226.972 88.39C223.791 88.39 219.158 88.39 213.353 88.39C201.688 88.39 185.333 88.4458 166.3 88.4458H166.188V88.3342C166.188 80.02 166.188 71.0362 166.188 61.7176V61.606H166.3C191.92 61.606 215.139 61.606 231.828 61.6618H231.884V61.7176C231.884 69.976 231.828 76.6162 231.828 81.1918C231.828 83.4796 231.828 85.2652 231.828 86.4928C231.828 87.1066 231.828 87.553 231.828 87.8878C231.884 88.2226 231.884 88.39 231.884 88.39Z" fill="#E0E0E0"/>
<path d="M166.468 65.4002C166.468 65.3444 181.092 65.2886 199.176 65.2886C217.261 65.2886 231.885 65.3444 231.885 65.4002C231.885 65.456 217.261 65.5118 199.176 65.5118C181.092 65.5118 166.468 65.456 166.468 65.4002Z" fill="#E0E0E0"/>
<g opacity="0.3">
<g opacity="0.3">
<path opacity="0.3" d="M169.203 63.782C169.203 64.061 168.98 64.2842 168.701 64.2842C168.422 64.2842 168.198 64.061 168.198 63.782C168.198 63.503 168.422 63.2798 168.701 63.2798C168.98 63.2798 169.203 63.503 169.203 63.782Z" fill="#EBEBEB"/>
</g>
</g>
<g opacity="0.3">
<g opacity="0.3">
<path opacity="0.3" d="M170.822 63.782C170.822 64.061 170.599 64.2842 170.32 64.2842C170.041 64.2842 169.817 64.061 169.817 63.782C169.817 63.503 170.041 63.2798 170.32 63.2798C170.599 63.2798 170.822 63.503 170.822 63.782Z" fill="#EBEBEB"/>
</g>
</g>
<g opacity="0.3">
<g opacity="0.3">
<path opacity="0.3" d="M171.938 64.2842C172.215 64.2842 172.44 64.0593 172.44 63.782C172.44 63.5046 172.215 63.2798 171.938 63.2798C171.66 63.2798 171.436 63.5046 171.436 63.782C171.436 64.0593 171.66 64.2842 171.938 64.2842Z" fill="#EBEBEB"/>
</g>
</g>
<path d="M187.789 69.6968H171.938V85.544H187.789V69.6968Z" fill="#53A2F1"/>
<path d="M227.363 73.9378C227.363 73.9936 219.214 74.0494 209.167 74.0494C199.12 74.0494 190.971 73.9936 190.971 73.9378C190.971 73.882 199.12 73.8262 209.167 73.8262C219.214 73.8262 227.363 73.882 227.363 73.9378Z" fill="#E0E0E0"/>
<path d="M227.363 77.1741C227.363 77.2299 219.214 77.2857 209.167 77.2857C199.12 77.2857 190.971 77.2299 190.971 77.1741C190.971 77.1183 199.12 77.0625 209.167 77.0625C219.214 77.0625 227.363 77.1183 227.363 77.1741Z" fill="#E0E0E0"/>
<path d="M214.413 80.4104C214.413 80.4104 214.357 80.4104 214.19 80.4104C214.023 80.4104 213.799 80.4104 213.52 80.4104C212.906 80.4104 212.069 80.4104 211.008 80.4662C208.887 80.4662 205.929 80.4662 202.748 80.522C199.51 80.522 196.608 80.522 194.487 80.4662C193.426 80.4662 192.589 80.4662 191.975 80.4104C191.696 80.4104 191.473 80.4104 191.305 80.4104C191.138 80.4104 191.082 80.4104 191.082 80.4104C191.082 80.4104 191.138 80.4104 191.305 80.4104C191.473 80.4104 191.696 80.4104 191.975 80.4104C192.589 80.4104 193.426 80.4104 194.487 80.3546C196.608 80.3546 199.566 80.3546 202.748 80.2988C205.985 80.2988 208.887 80.2988 211.008 80.3546C212.069 80.3546 212.906 80.3546 213.52 80.4104C213.799 80.4104 214.023 80.4104 214.19 80.4104C214.302 80.3546 214.413 80.4104 214.413 80.4104Z" fill="#E0E0E0"/>
<path d="M334.42 280.566C334.42 280.622 278.715 280.733 210.005 280.733C141.295 280.733 85.5908 280.677 85.5908 280.566C85.5908 280.454 141.295 280.398 210.005 280.398C278.715 280.398 334.42 280.454 334.42 280.566Z" fill="#263238"/>
<path d="M313.321 107.753H235.122V171.477H313.321V107.753Z" fill="#E0E0E0"/>
<path d="M307.795 111.826H229.597V175.55H307.795V111.826Z" fill="#64B9FF"/>
<path d="M302.214 116.235H221.895V181.633H302.214V116.235Z" fill="#64B9FF"/>
<path d="M302.214 181.632C302.214 181.632 302.214 181.242 302.214 180.405C302.214 179.624 302.214 178.452 302.214 176.889C302.214 173.82 302.214 169.356 302.158 163.665C302.158 152.226 302.102 135.932 302.102 116.235L302.214 116.346C279.217 116.346 251.644 116.346 221.894 116.346L222.061 116.179C222.061 139.838 222.061 162.158 222.061 181.577L221.95 181.465C245.839 181.465 265.877 181.521 279.999 181.521C287.031 181.521 292.613 181.521 296.409 181.577C298.306 181.577 299.758 181.577 300.762 181.577C301.265 181.577 301.6 181.577 301.879 181.577C302.102 181.632 302.214 181.632 302.214 181.632C302.214 181.632 302.102 181.632 301.823 181.632C301.544 181.632 301.209 181.632 300.706 181.632C299.702 181.632 298.251 181.632 296.409 181.632C292.613 181.632 287.087 181.632 279.999 181.688C265.877 181.688 245.783 181.744 221.894 181.744H221.782V181.632C221.782 162.214 221.782 139.894 221.782 116.235V116.067H221.95C251.644 116.067 279.273 116.067 302.269 116.067H302.381V116.179C302.381 135.932 302.325 152.282 302.325 163.721C302.325 169.412 302.325 173.876 302.269 176.945C302.269 178.452 302.269 179.624 302.269 180.405C302.214 181.242 302.214 181.632 302.214 181.632Z" fill="#263238"/>
<path d="M230.992 175.271L230.099 175.606L230.936 175.941V176.275L229.708 175.829V175.494L230.936 175.048V175.271H230.992Z" fill="#E8505B"/>
<path d="M231.885 174.322H232.22L231.383 176.777H231.048L231.885 174.322Z" fill="#E8505B"/>
<path d="M234.006 174.713V176.499H233.559V175.773H232.722V176.499H232.331V174.713H232.778V175.438H233.615V174.713H234.006Z" fill="#E8505B"/>
<path d="M234.843 175.048H234.285V174.713H235.848V175.048H235.29V176.499H234.843V175.048Z" fill="#E8505B"/>
<path d="M237.69 176.499V175.438L237.132 176.331H236.964L236.406 175.438V176.499H236.016V174.713H236.351L237.02 175.829L237.69 174.713H238.025V176.499H237.69Z" fill="#E8505B"/>
<path d="M238.527 174.713H238.974V176.164H239.867V176.499H238.527V174.713Z" fill="#E8505B"/>
<path d="M241.262 175.438V175.773L240.034 176.22V175.885L240.871 175.55L240.034 175.215V174.88L241.262 175.438Z" fill="#E8505B"/>
<path d="M302.213 121.703C302.213 121.759 284.296 121.87 262.193 121.87C240.09 121.87 222.173 121.815 222.173 121.703C222.173 121.647 240.09 121.536 262.193 121.536C284.296 121.536 302.213 121.591 302.213 121.703Z" fill="#263238"/>
<path d="M224.629 118.802C224.629 119.081 224.405 119.304 224.126 119.304C223.847 119.304 223.624 119.081 223.624 118.802C223.624 118.523 223.847 118.299 224.126 118.299C224.35 118.299 224.629 118.523 224.629 118.802Z" fill="#263238"/>
<path d="M226.08 119.304C226.358 119.304 226.583 119.079 226.583 118.802C226.583 118.524 226.358 118.299 226.08 118.299C225.803 118.299 225.578 118.524 225.578 118.802C225.578 119.079 225.803 119.304 226.08 119.304Z" fill="#263238"/>
<path d="M228.536 118.802C228.536 119.081 228.313 119.304 228.034 119.304C227.755 119.304 227.531 119.081 227.531 118.802C227.531 118.523 227.755 118.299 228.034 118.299C228.313 118.299 228.536 118.523 228.536 118.802Z" fill="#263238"/>
<path d="M227.308 182.19C227.252 182.19 227.141 168.631 227.141 151.891C227.141 135.151 227.196 121.591 227.308 121.591C227.42 121.591 227.476 135.151 227.476 151.891C227.42 168.631 227.364 182.19 227.308 182.19Z" fill="#E0E0E0"/>
<path d="M148.329 62.7783H115.229V86.3259H148.329V62.7783Z" fill="#F6AC3B"/>
<path d="M148.551 66.2377C148.551 66.2935 141.072 66.4051 131.862 66.4051C122.652 66.4051 115.173 66.3493 115.173 66.2377C115.173 66.1819 122.652 66.0703 131.862 66.0703C141.127 66.1261 148.551 66.1819 148.551 66.2377Z" fill="white"/>
<path d="M117.908 64.5639C117.908 64.7871 117.684 64.9545 117.461 64.9545C117.238 64.9545 117.015 64.7871 117.015 64.5639C117.015 64.3407 117.238 64.1733 117.461 64.1733C117.74 64.1733 117.908 64.3407 117.908 64.5639Z" fill="white"/>
<path d="M119.583 64.5639C119.583 64.7871 119.359 64.9545 119.136 64.9545C118.913 64.9545 118.689 64.7871 118.689 64.5639C118.689 64.3407 118.913 64.1733 119.136 64.1733C119.359 64.1733 119.583 64.3407 119.583 64.5639Z" fill="white"/>
<path d="M120.754 64.9545C121.001 64.9545 121.201 64.7797 121.201 64.5639C121.201 64.3482 121.001 64.1733 120.754 64.1733C120.508 64.1733 120.308 64.3482 120.308 64.5639C120.308 64.7797 120.508 64.9545 120.754 64.9545Z" fill="white"/>
<path d="M324.987 152.896H295.069V174.211H324.987V152.896Z" fill="#F6AC3B"/>
<path d="M325.21 156.076C325.21 156.132 318.456 156.188 310.14 156.188C301.823 156.188 295.069 156.132 295.069 156.076C295.069 156.02 301.823 155.964 310.14 155.964C318.456 155.964 325.21 156.02 325.21 156.076Z" fill="white"/>
<path d="M297.526 154.514C297.526 154.681 297.358 154.848 297.135 154.848C296.912 154.848 296.744 154.681 296.744 154.514C296.744 154.346 296.912 154.179 297.135 154.179C297.302 154.179 297.526 154.29 297.526 154.514Z" fill="white"/>
<path d="M298.977 154.514C298.977 154.681 298.809 154.848 298.586 154.848C298.363 154.848 298.195 154.681 298.195 154.514C298.195 154.346 298.363 154.179 298.586 154.179C298.809 154.179 298.977 154.29 298.977 154.514Z" fill="white"/>
<path d="M300.428 154.514C300.428 154.681 300.26 154.848 300.037 154.848C299.814 154.848 299.646 154.681 299.646 154.514C299.646 154.346 299.814 154.179 300.037 154.179C300.26 154.179 300.428 154.29 300.428 154.514Z" fill="white"/>
<path d="M121.424 152.616H99.377V168.296H121.424V152.616Z" fill="#F6AC3B"/>
<path d="M121.592 154.904C121.592 154.96 116.624 154.96 110.484 154.96C104.345 154.96 99.377 154.904 99.377 154.904C99.377 154.904 104.345 154.848 110.484 154.848C116.624 154.848 121.592 154.904 121.592 154.904Z" fill="white"/>
<path d="M101.163 153.788C101.163 153.955 101.051 154.067 100.884 154.067C100.716 154.067 100.604 153.955 100.604 153.788C100.604 153.62 100.716 153.509 100.884 153.509C101.051 153.509 101.163 153.62 101.163 153.788Z" fill="white"/>
<path d="M102.223 153.788C102.223 153.955 102.112 154.067 101.944 154.067C101.777 154.067 101.665 153.955 101.665 153.788C101.665 153.62 101.777 153.509 101.944 153.509C102.112 153.509 102.223 153.62 102.223 153.788Z" fill="white"/>
<path d="M103.339 153.788C103.339 153.955 103.228 154.067 103.06 154.067C102.893 154.067 102.781 153.955 102.781 153.788C102.781 153.62 102.893 153.509 103.06 153.509C103.172 153.509 103.339 153.62 103.339 153.788Z" fill="white"/>
<path d="M259.235 102.787C259.235 102.787 259.235 102.619 259.235 102.34C259.235 102.061 259.235 101.615 259.235 101.057C259.235 99.941 259.235 98.3228 259.18 96.2582C259.18 92.129 259.124 86.2142 259.124 78.9602L259.235 79.0718C249.188 79.0718 236.351 79.0718 222.452 79.1276L222.62 78.9602C222.62 87.386 222.62 95.4212 222.62 102.731L222.508 102.619C233.281 102.619 242.49 102.675 248.965 102.675C252.203 102.675 254.77 102.675 256.556 102.731C257.449 102.731 258.119 102.731 258.566 102.731C258.789 102.731 258.956 102.731 259.068 102.731C259.18 102.787 259.235 102.787 259.235 102.787C259.235 102.787 259.18 102.787 259.068 102.787C258.956 102.787 258.789 102.787 258.566 102.787C258.119 102.787 257.449 102.787 256.556 102.787C254.77 102.787 252.203 102.787 249.021 102.843C242.491 102.843 233.281 102.898 222.452 102.898H222.341V102.787C222.341 95.477 222.341 87.4976 222.341 79.016V78.8486H222.508C236.407 78.8486 249.188 78.8486 259.291 78.9044H259.403V79.016C259.403 86.27 259.347 92.2406 259.347 96.3698C259.347 98.4344 259.347 99.9968 259.291 101.113C259.291 101.671 259.291 102.061 259.291 102.34C259.235 102.675 259.235 102.787 259.235 102.787Z" fill="#F6AC3B"/>
<path d="M259.235 82.5873C259.235 82.6431 250.974 82.7547 240.816 82.7547C230.657 82.7547 222.396 82.6989 222.396 82.5873C222.396 82.5315 230.657 82.4199 240.816 82.4199C250.974 82.4199 259.235 82.4757 259.235 82.5873Z" fill="#F6AC3B"/>
<path d="M225.187 80.8574C225.187 81.0806 224.964 81.248 224.74 81.248C224.517 81.248 224.294 81.0806 224.294 80.8574C224.294 80.6342 224.517 80.4668 224.74 80.4668C224.964 80.4668 225.187 80.6342 225.187 80.8574Z" fill="#F6AC3B"/>
<path d="M226.806 80.8574C226.806 81.0806 226.583 81.248 226.36 81.248C226.136 81.248 225.913 81.0806 225.913 80.8574C225.913 80.6342 226.136 80.4668 226.36 80.4668C226.583 80.4668 226.806 80.6342 226.806 80.8574Z" fill="#F6AC3B"/>
<path d="M228.424 80.8574C228.424 81.0806 228.201 81.248 227.978 81.248C227.755 81.248 227.531 81.0806 227.531 80.8574C227.531 80.6342 227.755 80.4668 227.978 80.4668C228.257 80.4668 228.424 80.6342 228.424 80.8574Z" fill="#F6AC3B"/>
<path d="M153.015 183.92L167.583 233.136C168.253 235.312 170.263 236.819 172.495 236.819L231.661 236.986C234.786 236.986 237.298 234.363 237.131 231.239C236.963 228.337 234.563 226.049 231.661 226.049H209.055L190.97 175.606H159.267C154.913 175.606 151.787 179.791 153.015 183.92Z" fill="#455A64"/>
<path d="M203.082 230.123C203.082 230.234 197.054 230.346 189.63 230.346C182.207 230.346 176.179 230.234 176.179 230.123C176.179 230.011 182.207 229.899 189.63 229.899C197.054 229.899 203.082 230.011 203.082 230.123Z" fill="#263238"/>
<path d="M157.37 177.168C157.481 177.112 161.5 188.886 166.356 203.506C171.212 218.07 175.063 229.899 174.952 229.955C174.84 230.011 170.821 218.237 165.965 203.617C161.109 189.054 157.258 177.168 157.37 177.168Z" fill="#263238"/>
<path d="M200.627 280.566L196.999 280.454V236.818H200.627V280.566Z" fill="#455A64"/>
<path d="M182.04 280.343H215.586L200.348 275.098H196.776L182.04 280.343Z" fill="#455A64"/>
<path d="M173.5 164.334L179.026 192.067L178.021 212.88L215.362 206.686L213.911 188.496L213.855 173.43L223.009 191.174L230.154 177.391L217.093 153.788C214.692 151.333 211.902 149.491 208.553 148.264C206.934 147.65 205.204 147.315 203.194 147.259C198.896 148.598 194.599 148.598 190.245 147.259C189.743 147.315 189.017 147.371 188.068 147.482C188.012 147.482 187.956 147.482 187.901 147.482C179.975 148.431 173.947 155.015 173.5 162.995V164.334Z" fill="#F6AC3B"/>
<path d="M188.18 147.427C188.18 147.427 172.83 147.538 170.932 163.72L170.653 175.606L183.882 175.494L188.18 147.427Z" fill="#F6AC3B"/>
<path d="M224.796 168.24C224.796 168.351 212.739 168.463 197.836 168.463C182.933 168.463 170.877 168.351 170.877 168.24C170.877 168.128 182.933 168.017 197.836 168.017C212.739 168.017 224.796 168.128 224.796 168.24Z" fill="#FAFAFA"/>
<path d="M224.796 170.807C224.796 170.918 212.739 171.03 197.836 171.03C182.933 171.03 170.877 170.918 170.877 170.807C170.877 170.695 182.933 170.583 197.836 170.583C212.739 170.583 224.796 170.695 224.796 170.807Z" fill="#FAFAFA"/>
<path d="M223.958 166.12C223.958 166.231 212.069 166.343 197.445 166.343C182.821 166.343 170.933 166.231 170.933 166.12C170.933 166.008 182.821 165.896 197.445 165.896C212.069 165.896 223.958 166.008 223.958 166.12Z" fill="#FAFAFA"/>
<path d="M213.744 191.118C213.632 191.118 213.688 184.534 213.855 176.443C214.023 168.352 214.246 161.767 214.413 161.767C214.525 161.767 214.469 168.352 214.302 176.443C214.079 184.534 213.855 191.118 213.744 191.118Z" fill="#263238"/>
<path d="M208.497 180.46C208.497 180.46 215.753 180.962 217.036 182.915C218.32 184.812 220.33 190.281 219.604 190.337C218.823 190.392 218.32 189.946 218.32 189.946L216.311 186.431C216.311 186.431 216.646 189.834 215.418 189.89C214.246 189.946 208.329 191.118 208.329 191.118L208.497 180.46Z" fill="#F5C9B2"/>
<path d="M170.709 172.425V191.118C170.932 195.47 175.063 198.595 179.305 197.702L208.552 191.676L208.497 179.679L183.212 184.533L182.877 171.867L170.709 172.425Z" fill="#F6AC3B"/>
<path d="M187.399 196.196C187.399 196.196 187.51 196.14 187.789 196.084C188.068 196.028 188.459 195.917 188.906 195.805C189.91 195.582 191.362 195.303 193.203 194.912C196.943 194.131 202.19 193.071 208.441 191.788L208.274 191.955C208.274 188.216 208.274 184.031 208.274 179.623L208.497 179.846C206.823 180.181 205.092 180.516 203.362 180.851C195.994 182.246 189.073 183.585 183.268 184.701L183.045 184.757V184.534C183.212 178.954 183.38 174.322 183.491 171.03C183.547 169.412 183.603 168.184 183.659 167.291C183.659 166.901 183.715 166.566 183.715 166.287C183.715 166.064 183.771 165.952 183.771 165.952C183.771 165.952 183.771 166.064 183.771 166.287C183.771 166.566 183.771 166.845 183.771 167.291C183.771 168.184 183.715 169.468 183.715 171.086C183.659 174.378 183.547 179.009 183.38 184.589L183.157 184.422C188.961 183.306 195.883 181.967 203.25 180.516C205.037 180.181 206.767 179.846 208.386 179.512L208.609 179.456V179.679C208.609 184.087 208.609 188.216 208.609 192.011V192.178L208.441 192.234C202.19 193.462 196.943 194.466 193.203 195.191C191.362 195.526 189.91 195.805 188.906 195.973C188.403 196.028 188.068 196.14 187.734 196.196C187.51 196.196 187.399 196.196 187.399 196.196Z" fill="#263238"/>
<path d="M204.143 147.426C204.143 147.426 204.198 147.538 204.254 147.705C204.31 147.873 204.422 148.152 204.478 148.542C204.645 149.268 204.701 150.384 204.366 151.667C204.031 152.951 203.138 154.401 201.854 155.573C200.515 156.801 198.617 157.582 196.552 157.582C194.486 157.582 192.533 156.745 191.305 155.462C190.077 154.178 189.519 152.56 189.351 151.221C189.184 149.882 189.463 148.766 189.742 148.096C189.854 147.761 190.021 147.482 190.133 147.315C190.244 147.147 190.3 147.036 190.3 147.092C190.356 147.092 190.133 147.482 189.909 148.152C189.686 148.821 189.519 149.882 189.686 151.165C189.854 152.448 190.412 153.955 191.64 155.183C192.812 156.41 194.654 157.191 196.607 157.191C198.561 157.191 200.403 156.466 201.687 155.294C202.971 154.178 203.808 152.839 204.198 151.556C204.589 150.328 204.533 149.212 204.478 148.542C204.254 147.817 204.087 147.426 204.143 147.426Z" fill="#263238"/>
<path d="M205.538 192.68C205.482 192.68 205.482 191.955 205.538 190.839C205.594 189.723 205.65 188.161 205.65 186.431C205.65 184.701 205.65 183.139 205.594 182.023C205.538 180.907 205.538 180.181 205.594 180.181C205.65 180.181 205.761 180.851 205.873 182.023C205.984 183.139 206.04 184.757 206.04 186.487C206.04 188.216 205.929 189.779 205.817 190.951C205.761 191.955 205.594 192.68 205.538 192.68Z" fill="#FAFAFA"/>
<path d="M204.031 192.959C203.976 192.959 203.976 192.234 203.976 191.118C203.976 189.834 204.031 188.328 204.031 186.71C204.031 185.091 204.031 183.585 204.031 182.301C204.031 181.185 204.031 180.46 204.087 180.46C204.143 180.46 204.255 181.13 204.311 182.301C204.366 183.417 204.422 184.98 204.422 186.71C204.422 188.439 204.366 190.002 204.255 191.118C204.199 192.29 204.087 192.959 204.031 192.959Z" fill="#FAFAFA"/>
<path d="M233.335 267.229L238.861 282.463L246.731 293.232C247.289 294.013 247.066 295.129 246.285 295.632C245.838 295.911 245.28 295.966 244.778 295.743C241.596 294.404 229.986 289.549 229.651 288.433C229.261 287.094 221.781 270.745 221.781 270.745L233.335 267.229Z" fill="#F6AC3B"/>
<g opacity="0.6">
<g opacity="0.6">
<path opacity="0.6" d="M246.285 295.632L229.261 287.429L229.484 288.043C229.707 288.601 230.098 289.047 230.6 289.326C231.996 290.052 235.903 292.061 244.666 295.743C245.224 296.022 245.782 295.967 246.285 295.632Z" fill="white"/>
</g>
</g>
<g opacity="0.6">
<g opacity="0.6">
<g opacity="0.6">
<path opacity="0.6" d="M230.433 281.347C230.935 281.458 231.27 281.961 231.158 282.463C231.047 282.965 230.544 283.3 230.042 283.188C229.539 283.077 229.149 282.463 229.26 282.016C229.428 281.57 230.042 281.179 230.488 281.403" fill="white"/>
</g>
</g>
</g>
<path d="M240.257 290.386C240.368 290.386 240.368 289.494 241.15 288.712C241.875 287.931 242.768 287.82 242.768 287.708C242.768 287.652 242.545 287.596 242.154 287.708C241.764 287.82 241.317 288.043 240.871 288.489C240.48 288.936 240.257 289.438 240.201 289.828C240.145 290.163 240.201 290.386 240.257 290.386Z" fill="#263238"/>
<path d="M242.098 292.005C242.21 292.061 242.489 291.335 243.159 290.833C243.829 290.275 244.554 290.163 244.554 290.052C244.554 289.94 243.717 289.94 242.936 290.554C242.21 291.168 241.987 292.005 242.098 292.005Z" fill="#263238"/>
<path d="M237.242 288.601C237.354 288.657 237.8 287.597 238.805 286.704C239.81 285.755 240.87 285.42 240.814 285.309C240.814 285.197 239.586 285.42 238.526 286.425C237.465 287.373 237.13 288.545 237.242 288.601Z" fill="#263238"/>
<path d="M235.177 284.081C235.233 284.137 235.959 283.467 237.019 283.021C238.08 282.519 239.029 282.463 239.029 282.407C239.029 282.295 238.024 282.24 236.852 282.742C235.735 283.188 235.122 284.025 235.177 284.081Z" fill="#263238"/>
<path d="M233.447 279.673C233.502 279.729 234.172 278.892 235.344 278.501C236.516 278.055 237.521 278.334 237.521 278.222C237.521 278.166 237.298 278.055 236.851 277.999C236.405 277.943 235.791 277.943 235.177 278.166C234.563 278.389 234.061 278.724 233.781 279.059C233.502 279.394 233.391 279.617 233.447 279.673Z" fill="#263238"/>
<path d="M234.954 277.664C234.954 277.664 234.954 277.441 234.73 277.106C234.563 276.771 234.228 276.269 233.67 275.767C233.391 275.544 233.112 275.265 232.609 275.209C232.386 275.209 232.051 275.376 231.939 275.599C231.828 275.878 231.884 276.157 231.939 276.381C232.33 277.329 233.502 277.943 234.619 277.664C235.735 277.385 236.461 276.381 236.572 275.376C236.572 275.153 236.572 274.818 236.349 274.651C236.126 274.428 235.791 274.428 235.568 274.595C235.121 274.818 234.954 275.209 234.786 275.488C234.451 276.102 234.284 276.66 234.228 277.05C234.172 277.441 234.172 277.664 234.172 277.664C234.228 277.664 234.284 276.771 235.009 275.599C235.177 275.32 235.4 274.986 235.735 274.818C235.902 274.762 236.07 274.762 236.126 274.874C236.237 274.986 236.293 275.153 236.237 275.376C236.126 276.213 235.456 277.106 234.507 277.329C233.558 277.552 232.498 277.05 232.219 276.269C232.163 276.102 232.107 275.878 232.163 275.711C232.219 275.544 232.33 275.488 232.498 275.488C232.833 275.488 233.167 275.711 233.447 275.934C234.619 276.827 234.898 277.72 234.954 277.664Z" fill="#263238"/>
<path d="M256.667 263.268L256.164 275.655C256.164 275.655 268.555 280.287 268.723 282.575L244.722 282.519L244.666 263.212L256.667 263.268Z" fill="#F6AC3B"/>
<g opacity="0.6">
<g opacity="0.6">
<path opacity="0.6" d="M248.796 274.595C248.349 274.707 248.014 275.265 248.126 275.711C248.238 276.157 248.74 276.492 249.242 276.381C249.689 276.269 250.136 275.655 249.968 275.209C249.801 274.762 249.187 274.372 248.74 274.651" fill="white"/>
</g>
</g>
<g opacity="0.6">
<path opacity="0.6" d="M244.722 282.519V280.622L267.83 281.403C267.83 281.403 268.89 281.849 268.779 282.63L244.722 282.519Z" fill="white"/>
</g>
<path d="M256.611 275.544C256.611 275.655 255.997 275.711 255.439 276.102C254.825 276.437 254.546 276.995 254.434 276.939C254.322 276.939 254.49 276.213 255.215 275.767C255.941 275.265 256.611 275.432 256.611 275.544Z" fill="#263238"/>
<path d="M259.123 276.548C259.123 276.66 258.62 276.883 258.23 277.329C257.839 277.832 257.727 278.334 257.616 278.334C257.504 278.334 257.448 277.664 257.95 277.05C258.453 276.492 259.123 276.437 259.123 276.548Z" fill="#263238"/>
<path d="M260.518 279.617C260.406 279.617 260.239 279.059 260.574 278.39C260.853 277.72 261.411 277.497 261.467 277.608C261.523 277.72 261.188 278.055 260.909 278.557C260.685 279.059 260.685 279.561 260.518 279.617Z" fill="#263238"/>
<path d="M256.388 272.698C256.332 272.81 255.774 272.642 255.16 272.698C254.49 272.754 253.988 272.921 253.932 272.865C253.876 272.754 254.378 272.363 255.16 272.307C255.886 272.252 256.444 272.586 256.388 272.698Z" fill="#263238"/>
<g opacity="0.3">
<path opacity="0.3" d="M256.611 265.723L256.499 267.955L244.722 267.788L244.666 265.779L256.611 265.723Z" fill="black"/>
</g>
<path d="M256.444 270.187C256.444 270.243 255.997 270.298 255.216 270.187C254.825 270.131 254.434 270.019 253.932 269.796C253.709 269.685 253.486 269.573 253.262 269.406C253.151 269.35 253.039 269.238 252.927 269.127C252.816 269.015 252.704 268.68 252.872 268.513C252.983 268.345 253.206 268.234 253.374 268.234C253.541 268.234 253.709 268.29 253.82 268.29C254.099 268.345 254.323 268.457 254.546 268.569C254.993 268.792 255.383 269.071 255.662 269.294C256.22 269.796 256.388 270.243 256.388 270.298C256.332 270.354 256.053 269.964 255.495 269.517C255.216 269.294 254.825 269.071 254.434 268.903C254.211 268.792 253.988 268.736 253.765 268.68C253.485 268.624 253.318 268.624 253.206 268.736C253.206 268.792 253.206 268.792 253.206 268.848C253.262 268.903 253.374 268.959 253.485 269.071C253.709 269.182 253.932 269.35 254.099 269.461C254.49 269.685 254.937 269.796 255.272 269.908C255.997 270.075 256.444 270.131 256.444 270.187Z" fill="#263238"/>
<path d="M256.276 270.354C256.22 270.354 255.997 269.964 255.941 269.182C255.941 268.792 255.941 268.345 256.109 267.843C256.165 267.62 256.276 267.341 256.444 267.118C256.611 266.895 256.779 266.56 257.225 266.504C257.448 266.504 257.672 266.671 257.728 266.839C257.783 267.006 257.839 267.118 257.839 267.285C257.895 267.564 257.895 267.843 257.839 268.122C257.783 268.624 257.56 269.071 257.337 269.35C256.89 269.964 256.388 270.131 256.388 270.075C256.332 270.019 256.779 269.796 257.114 269.182C257.281 268.903 257.448 268.513 257.504 268.066C257.504 267.843 257.504 267.62 257.504 267.397C257.448 267.118 257.393 266.95 257.281 266.95C257.169 266.95 256.946 267.118 256.834 267.341C256.723 267.564 256.611 267.787 256.555 268.011C256.388 268.457 256.332 268.848 256.332 269.182C256.22 269.908 256.332 270.354 256.276 270.354Z" fill="#263238"/>
<path d="M244.722 203.952C230.544 205.403 211.734 207.356 211.734 207.356L214.302 230.457C214.302 230.457 241.931 223.147 241.764 223.761C241.54 224.375 243.047 272.921 243.047 272.921H259.681L260.015 217.958C260.071 209.643 252.927 203.115 244.722 203.952Z" fill="#384655"/>
<path d="M177.742 213.271V220.413C177.742 225.268 183.324 230.457 188.18 230.457H191.975C194.934 230.457 199.622 228.281 202.022 226.551L203.474 225.491L220.832 279.17C220.832 279.17 240.647 275.599 240.647 274.985C240.647 274.372 227.195 231.015 221 210.871C218.488 202.669 209.669 197.87 201.52 200.66C201.241 200.771 200.962 200.883 200.683 200.995C191.752 204.622 177.742 213.271 177.742 213.271Z" fill="#384655"/>
<path d="M240.592 275.041C240.592 275.041 240.536 274.986 240.48 274.874C240.424 274.707 240.368 274.539 240.257 274.316C240.089 273.814 239.81 273.088 239.475 272.084C238.805 270.131 237.912 267.341 236.796 263.826C234.563 256.851 231.605 247.141 228.368 236.428C226.749 231.071 225.242 225.937 223.847 221.306C223.177 218.962 222.507 216.786 221.893 214.721C221.558 213.661 221.279 212.713 221 211.708C220.721 210.76 220.442 209.811 220.107 208.974C219.437 207.3 218.377 206.017 217.316 205.012C216.256 204.008 215.251 203.282 214.358 202.724C213.521 202.166 212.851 201.72 212.349 201.441C212.125 201.329 211.958 201.218 211.846 201.106C211.735 201.05 211.679 200.995 211.679 200.995C211.679 200.995 211.735 200.995 211.846 201.106C212.014 201.162 212.181 201.274 212.404 201.385C212.907 201.664 213.576 202.055 214.414 202.613C215.307 203.171 216.311 203.896 217.428 204.845C218.488 205.849 219.605 207.133 220.33 208.862C220.721 209.699 221 210.648 221.279 211.597C221.558 212.545 221.893 213.55 222.172 214.554C222.786 216.619 223.456 218.851 224.182 221.138C225.577 225.77 227.14 230.903 228.758 236.26C231.996 246.974 234.898 256.627 237.019 263.714C238.08 267.174 238.973 270.019 239.587 272.028C239.866 272.977 240.145 273.758 240.312 274.26C240.368 274.483 240.424 274.707 240.48 274.874C240.592 274.986 240.592 275.041 240.592 275.041Z" fill="#455A64"/>
<path d="M244.778 216.842C244.89 216.898 243.941 218.349 243.159 220.246C242.378 222.143 242.043 223.817 241.876 223.817C241.764 223.817 241.931 222.087 242.769 220.078C243.55 218.125 244.666 216.786 244.778 216.842Z" fill="#455A64"/>
<path d="M247.959 219.074C248.015 219.185 246.564 219.799 245.113 220.971C243.606 222.143 242.657 223.37 242.545 223.314C242.433 223.259 243.271 221.864 244.834 220.636C246.341 219.408 247.903 218.962 247.959 219.074Z" fill="#455A64"/>
<path d="M220.944 279.226C220.832 279.282 216.143 264.886 210.506 247.141C204.813 229.397 200.347 214.944 200.459 214.944C200.571 214.889 205.259 229.285 210.897 247.03C216.534 264.774 221.055 279.17 220.944 279.226Z" fill="#455A64"/>
<path d="M199.678 195.47L256.387 196.028L266.992 166.12L225.688 166.399L216.144 193.294L199.678 193.517V195.47Z" fill="#455A64"/>
<path d="M242.656 183.641C241.373 183.473 240.535 182.302 240.703 181.018C240.87 179.735 242.043 178.898 243.326 179.065C244.61 179.233 245.447 180.404 245.28 181.688C245.112 182.915 243.94 183.808 242.656 183.641Z" fill="white"/>
<path d="M195.044 114.56C195.602 112.552 197.054 111.603 199.007 110.933C200.961 110.264 203.249 110.654 204.868 111.882C205.984 112.719 206.821 113.947 208.105 114.393C210.226 115.118 212.738 113.556 214.803 114.505C216.031 115.063 216.701 116.569 216.422 117.853C216.087 119.136 214.803 120.14 213.464 120.085C214.859 120.587 215.306 122.596 214.468 123.823C213.631 125.051 211.957 125.553 210.505 125.274C209.054 124.995 207.77 124.102 206.654 123.098C205.538 122.093 204.533 120.977 203.361 120.085C202.189 119.192 200.737 118.522 199.23 118.578C197.221 118.69 195.491 120.196 194.598 121.982C193.705 123.767 193.481 125.832 193.37 127.841C193.258 129.85 193.202 131.914 192.644 133.811C192.588 134.035 192.477 134.314 192.253 134.369C191.918 134.481 191.639 134.146 191.472 133.811C189.63 130.408 188.458 126.669 188.067 122.819C187.844 120.587 187.9 118.466 189.128 116.625C190.411 114.728 193.537 113.333 195.044 114.56Z" fill="#263238"/>
<path d="M191.138 123.879L190.133 146.478C189.965 150.328 190.468 156.02 196.552 156.02C201.854 155.629 203.417 150.663 203.529 147.092C203.585 145.418 203.696 143.967 203.696 143.8C203.696 143.8 209.445 143.521 210.171 137.829C210.506 135.095 210.729 129.403 210.841 124.214C211.008 118.69 206.822 113.947 201.352 113.389L200.794 113.333C194.821 113.054 191.249 117.908 191.138 123.879Z" fill="#F5C9B2"/>
<path d="M203.696 143.688C203.696 143.688 200.068 143.576 196.496 140.786C196.496 140.786 197.836 145.083 203.529 145.139L203.696 143.688Z" fill="#EB996E"/>
<path d="M208.775 127.841C208.719 128.288 208.329 128.622 207.882 128.567C207.435 128.567 207.101 128.176 207.101 127.73C207.156 127.283 207.547 126.948 207.994 127.004C208.44 127.06 208.775 127.451 208.775 127.841Z" fill="#263238"/>
<path d="M209.333 126.892C209.221 127.004 208.663 126.446 207.77 126.39C206.877 126.279 206.207 126.669 206.151 126.558C206.096 126.502 206.207 126.334 206.542 126.167C206.821 125.999 207.324 125.832 207.882 125.888C208.44 125.944 208.886 126.223 209.11 126.446C209.277 126.613 209.389 126.837 209.333 126.892Z" fill="#263238"/>
<path d="M200.179 127.227C200.124 127.673 199.733 128.008 199.286 127.952C198.84 127.952 198.505 127.562 198.505 127.115C198.561 126.669 198.951 126.334 199.398 126.39C199.844 126.446 200.179 126.78 200.179 127.227Z" fill="#263238"/>
<path d="M200.737 126.111C200.626 126.223 200.067 125.665 199.174 125.609C198.281 125.497 197.612 125.888 197.556 125.776C197.5 125.72 197.612 125.553 197.946 125.386C198.225 125.218 198.728 125.051 199.286 125.107C199.844 125.162 200.291 125.441 200.514 125.665C200.681 125.888 200.793 126.111 200.737 126.111Z" fill="#263238"/>
<path d="M203.193 132.919C203.193 132.863 203.752 132.807 204.645 132.807C204.868 132.807 205.091 132.807 205.147 132.64C205.203 132.472 205.147 132.249 205.091 131.97C204.924 131.412 204.756 130.798 204.589 130.185C203.919 127.673 203.472 125.609 203.584 125.609C203.696 125.609 204.31 127.618 204.979 130.129C205.147 130.743 205.314 131.356 205.426 131.914C205.482 132.193 205.593 132.472 205.426 132.807C205.37 132.975 205.147 133.086 205.035 133.086C204.868 133.142 204.756 133.086 204.645 133.086C203.752 133.03 203.193 132.975 203.193 132.919Z" fill="#263238"/>
<path d="M200.57 133.253C200.737 133.253 200.626 134.202 201.351 134.983C202.077 135.764 203.138 135.764 203.082 135.876C203.082 135.932 202.858 136.043 202.412 135.988C201.965 135.932 201.407 135.764 200.961 135.318C200.514 134.872 200.347 134.258 200.347 133.867C200.347 133.477 200.514 133.253 200.57 133.253Z" fill="#263238"/>
<path d="M201.296 122.763C201.184 122.986 200.347 122.763 199.286 122.819C198.226 122.819 197.389 123.042 197.277 122.819C197.221 122.707 197.389 122.484 197.779 122.317C198.114 122.149 198.672 121.982 199.286 121.982C199.9 121.982 200.459 122.149 200.793 122.317C201.184 122.428 201.352 122.652 201.296 122.763Z" fill="#263238"/>
<path d="M209.278 124.326C209.11 124.493 208.496 124.214 207.827 124.158C207.101 124.047 206.487 124.158 206.375 123.935C206.319 123.824 206.431 123.656 206.71 123.489C206.989 123.321 207.436 123.21 207.938 123.265C208.44 123.321 208.831 123.545 209.054 123.768C209.278 124.047 209.334 124.214 209.278 124.326Z" fill="#263238"/>
<path d="M191.137 128.12C191.026 128.064 187.342 126.557 187.063 130.463C186.784 134.369 190.747 133.867 190.747 133.756C190.803 133.644 191.137 128.12 191.137 128.12Z" fill="#F5C9B2"/>
<path d="M189.686 132.193C189.686 132.193 189.631 132.249 189.519 132.305C189.407 132.36 189.184 132.36 189.017 132.305C188.626 132.137 188.291 131.468 188.347 130.742C188.347 130.407 188.459 130.073 188.626 129.794C188.793 129.515 188.961 129.347 189.184 129.291C189.407 129.236 189.519 129.403 189.575 129.515C189.631 129.626 189.575 129.682 189.631 129.738C189.631 129.738 189.742 129.682 189.686 129.515C189.686 129.459 189.631 129.347 189.575 129.236C189.463 129.18 189.352 129.124 189.184 129.124C188.905 129.124 188.57 129.403 188.403 129.682C188.235 129.961 188.124 130.352 188.068 130.742C188.012 131.523 188.403 132.305 188.905 132.472C189.184 132.584 189.407 132.472 189.519 132.416C189.686 132.249 189.742 132.193 189.686 132.193Z" fill="#EB996E"/>
<path d="M212.124 123.154C209.557 123.544 206.822 122.596 205.036 120.754C203.752 119.415 202.915 117.63 201.24 116.904C200.124 116.402 198.784 116.514 197.668 117.016C196.552 117.518 195.603 118.299 194.71 119.192C195.491 122.205 194.431 125.33 193.37 128.232C193.259 128.566 193.091 128.901 192.812 129.069C192.31 129.348 191.64 129.013 191.305 128.566C190.747 127.841 190.579 126.837 190.524 125.944C190.356 123.823 190.524 121.647 191.249 119.638C191.919 117.63 193.147 115.788 194.821 114.449C196.942 112.831 199.677 112.161 202.357 112.496C204.98 112.831 207.492 114.058 209.389 115.9C210.283 116.737 211.12 117.741 211.455 118.913" fill="#263238"/>
<path d="M103.004 243.18C105.014 242.176 107.358 242.008 109.535 242.399C110.707 242.622 111.935 242.957 112.772 243.85C113.554 244.743 113.721 246.305 112.828 247.086C112.27 247.533 111.489 247.588 110.763 247.588C109.033 247.588 107.135 247.254 105.739 248.314C104.958 248.928 104.4 249.876 103.507 250.211C102.558 250.49 101.553 249.932 101.051 249.095C100.549 248.258 100.549 247.198 100.772 246.305C100.772 246.249 100.995 244.185 103.004 243.18Z" fill="#74C1C7"/>
<path d="M98.4832 234.364C99.7112 236.093 102.055 235.535 103.172 234.475C104.288 233.415 104.735 231.853 105.181 230.402C106.13 227.054 107.135 223.538 106.409 220.135C106.186 219.13 105.795 218.126 105.07 217.345C104.344 216.563 103.228 216.117 102.223 216.396C101.051 216.731 100.269 217.903 99.767 218.963C98.2042 222.255 97.3669 225.826 97.3669 229.453C97.3111 231.183 97.4786 232.969 98.4832 234.364Z" fill="#74C1C7"/>
<path d="M95.1344 236.874C96.474 235.312 96.6972 233.024 96.1391 231.071C95.5251 229.118 94.2413 227.444 92.6785 226.049C90.8923 224.431 88.7713 223.203 86.4829 222.422C85.5898 222.087 84.6409 221.864 83.692 221.976C82.7432 222.087 81.7943 222.534 81.3478 223.371C80.678 224.598 81.3478 226.105 82.0175 227.333C83.1897 229.509 84.5851 231.573 86.0921 233.526C87.3201 235.089 88.7155 236.651 90.5574 237.321C92.3994 238.046 94.353 237.935 95.3018 236.651" fill="#74C1C7"/>
<path d="M98.3721 260.59C98.3721 260.59 98.4279 260.311 98.4837 259.808C98.5395 259.25 98.5953 258.525 98.707 257.632C98.8186 256.739 98.9302 255.623 99.2093 254.452C99.4326 253.28 99.8791 251.996 100.381 250.713C100.884 249.43 101.554 248.258 102.279 247.365C103.005 246.416 103.898 245.747 104.679 245.356C105.461 244.966 106.186 244.798 106.689 244.742C107.191 244.687 107.47 244.631 107.47 244.631C107.47 244.631 107.191 244.631 106.689 244.631C106.186 244.687 105.405 244.798 104.568 245.189C103.73 245.579 102.782 246.249 102 247.198C101.219 248.146 100.549 249.318 100.047 250.657C99.5442 251.941 99.1535 253.224 98.9302 254.452C98.707 255.623 98.5953 256.739 98.4837 257.632C98.4279 258.525 98.3721 259.306 98.3721 259.808C98.3721 260.311 98.3721 260.59 98.3721 260.59Z" fill="#263238"/>
<path d="M98.5395 258.916C98.5395 258.916 98.5395 258.804 98.5395 258.525C98.5395 258.246 98.5395 257.911 98.5395 257.465C98.5395 256.572 98.5395 255.233 98.5953 253.615C98.6512 250.378 98.9302 246.863 99.4884 241.953C99.9907 237.321 100.661 231.909 101.386 228.393C101.554 227.612 101.721 226.887 101.833 226.273C102 225.659 102.112 225.101 102.223 224.655C102.335 224.264 102.391 223.929 102.447 223.65C102.502 223.427 102.502 223.315 102.502 223.315C102.502 223.315 102.447 223.427 102.391 223.65C102.335 223.929 102.223 224.264 102.112 224.655C102 225.101 101.833 225.603 101.665 226.273C101.498 226.887 101.33 227.612 101.163 228.393C100.437 231.574 99.7117 236.038 99.1535 240.948C98.5953 245.914 98.3721 250.378 98.3721 253.671C98.3721 255.289 98.3721 256.628 98.4279 257.521C98.4279 257.967 98.4837 258.302 98.4837 258.581C98.4837 258.804 98.4837 258.916 98.5395 258.916Z" fill="#263238"/>
<path d="M98.5392 250.267C98.5392 250.267 98.5392 249.876 98.5392 249.151C98.4834 248.425 98.4276 247.421 98.2043 246.193C97.981 244.966 97.702 243.459 97.2554 241.897C97.0322 241.171 96.5856 239.386 95.4693 236.763C93.9623 233.192 91.9529 230.29 90.1668 228.505C89.776 228.003 89.2737 227.668 88.9388 227.333C88.7714 227.166 88.6039 226.998 88.3806 226.887C88.2132 226.775 88.0457 226.663 87.8783 226.552C87.3201 226.161 86.9852 225.938 86.9294 225.938C86.8736 225.994 88.2132 226.831 89.9435 228.616C91.6738 230.458 93.6274 233.304 95.1344 236.819C95.9717 238.716 96.5298 240.446 96.9764 241.897C97.4229 243.459 97.7578 244.966 97.981 246.193C98.2043 247.421 98.3159 248.425 98.4276 249.151C98.4834 249.876 98.5392 250.267 98.5392 250.267Z" fill="#263238"/>
<path d="M90.167 265.556L91.0042 277.441H106.354L107.191 265.556H90.167Z" fill="#263238"/>
<path d="M109.033 260.869H88.6602V265.556H109.033V260.869Z" fill="#263238"/>
<path d="M88.6602 276.995V278.279H89.609H108.698V276.995H88.6602Z" fill="#455A64"/>
<path d="M90.5573 280.566L89.6084 278.278H107.972L106.856 280.566H90.5573Z" fill="#455A64"/>
<path d="M106.911 269.462C106.911 269.462 106.911 269.518 106.856 269.573C106.8 269.629 106.744 269.741 106.632 269.852C106.409 270.131 106.13 270.522 105.739 270.968L105.683 271.024L105.628 270.968C105.069 270.187 104.344 269.183 103.451 267.955H103.562C102.893 268.904 102.167 269.908 101.386 271.024L101.33 271.136L101.274 271.024C100.493 270.076 99.5995 269.071 98.7064 267.955H98.8739C98.8181 268.011 98.7622 268.067 98.7064 268.123C97.925 269.127 97.1436 270.076 96.418 270.968L96.3621 271.08L96.3063 270.968C95.5249 269.852 94.7993 268.848 94.1295 267.899H94.2411C93.1806 269.127 92.2876 270.131 91.5619 270.913L91.5061 270.968L91.4503 270.913C91.1154 270.299 90.8363 269.852 90.6131 269.518C90.5014 269.35 90.4456 269.239 90.3898 269.127C90.334 269.015 90.334 269.015 90.334 269.015C90.334 269.015 90.3898 269.071 90.4456 269.127C90.5014 269.239 90.6131 269.35 90.6689 269.462C90.8921 269.797 91.1712 270.243 91.5619 270.857H91.5061C92.1759 270.076 93.069 269.015 94.1295 267.788L94.1853 267.732L94.2411 267.788C94.9109 268.736 95.6365 269.741 96.418 270.801H96.2505C96.9761 269.908 97.7576 268.904 98.539 267.955C98.5948 267.899 98.6506 267.844 98.7064 267.788L98.7622 267.676L98.8181 267.788C99.7111 268.848 100.548 269.908 101.386 270.857H101.218C102 269.741 102.725 268.736 103.395 267.844L103.451 267.732L103.507 267.844C104.344 269.071 105.125 270.131 105.628 270.913H105.572C105.963 270.466 106.297 270.076 106.521 269.797C106.632 269.685 106.688 269.573 106.744 269.518C106.856 269.462 106.911 269.462 106.911 269.462Z" fill="#E0E0E0"/>
<path d="M107.414 265.444C107.414 265.5 103.562 265.556 98.8739 265.556C94.1295 265.556 90.334 265.5 90.334 265.444C90.334 265.388 94.1853 265.333 98.8739 265.333C103.562 265.388 107.414 265.388 107.414 265.444Z" fill="#455A64"/>
<path d="M108.195 278.446C108.195 278.501 104.009 278.557 98.8741 278.557C93.739 278.557 89.5527 278.501 89.5527 278.446C89.5527 278.39 93.739 278.334 98.8741 278.334C104.009 278.334 108.195 278.39 108.195 278.446Z" fill="#263238"/>
<path d="M289.096 141.345L278.491 185.762H281.449L291.943 141.345H289.096Z" fill="#263238"/>
<path d="M285.021 170.584C284.854 171.421 289.822 195.638 289.822 195.638H287.421L283.626 176.443L285.021 170.584Z" fill="#263238"/>
<path d="M320.409 227.667H270.621V280.454H320.409V227.667Z" fill="#64B9FF"/>
<path d="M322.865 235.368H320.409V237.823H322.865V235.368Z" fill="#263238"/>
<path d="M322.865 243.18H320.409V245.635H322.865V243.18Z" fill="#263238"/>
<path d="M322.865 250.936H320.409V253.391H322.865V250.936Z" fill="#263238"/>
<path d="M322.865 258.692H320.409V261.148H322.865V258.692Z" fill="#263238"/>
<path d="M322.977 251.662C322.977 251.662 323.256 251.606 323.703 251.494C324.205 251.438 324.875 251.271 325.824 251.271C326.717 251.271 327.833 251.438 328.838 252.052C329.34 252.387 329.842 252.833 330.122 253.447C330.456 254.061 330.568 254.731 330.512 255.456C330.456 256.126 330.233 256.795 329.898 257.353C329.563 257.911 329.117 258.358 328.614 258.692C327.666 259.418 326.605 259.697 325.712 259.864C324.819 259.976 324.093 259.976 323.591 259.92C323.089 259.864 322.81 259.808 322.81 259.808C322.81 259.808 323.089 259.808 323.591 259.808C324.093 259.808 324.819 259.808 325.656 259.641C326.493 259.474 327.498 259.139 328.447 258.469C329.34 257.8 330.177 256.684 330.233 255.4C330.289 254.731 330.177 254.117 329.898 253.559C329.619 253.001 329.173 252.61 328.726 252.275C327.777 251.662 326.717 251.494 325.824 251.438C324.931 251.438 324.261 251.494 323.758 251.55C323.256 251.606 322.977 251.662 322.977 251.662Z" fill="#263238"/>
<path d="M322.362 243.905C322.362 243.905 322.418 243.849 322.586 243.738C322.753 243.682 322.976 243.57 323.311 243.459C323.981 243.236 324.986 243.068 326.158 243.291C326.437 243.347 326.772 243.459 327.051 243.626C327.33 243.794 327.609 244.128 327.721 244.519C327.944 245.244 327.665 246.081 327.163 246.751C326.883 247.086 326.549 247.365 326.158 247.532C325.767 247.7 325.209 247.7 324.818 247.476C324.428 247.253 324.037 246.807 324.037 246.305C324.037 245.802 324.372 245.3 324.818 245.077C325.265 244.854 325.767 244.854 326.269 244.91C326.716 245.021 327.163 245.244 327.497 245.523C328.223 246.081 328.67 246.918 328.725 247.755C328.837 248.592 328.502 249.374 328.111 249.987C327.665 250.601 327.107 250.992 326.604 251.271C325.488 251.829 324.483 251.94 323.814 251.996C323.479 251.996 323.2 252.052 323.032 252.052C322.865 252.052 322.753 252.052 322.753 252.052C322.753 252.052 323.144 251.996 323.814 251.94C324.483 251.829 325.432 251.717 326.493 251.159C326.995 250.88 327.553 250.49 327.944 249.932C328.335 249.374 328.614 248.648 328.502 247.867C328.39 247.086 328 246.36 327.33 245.858C326.995 245.579 326.604 245.412 326.214 245.3C325.823 245.189 325.376 245.244 324.986 245.412C324.595 245.579 324.372 245.97 324.372 246.36C324.372 246.751 324.651 247.086 324.986 247.309C325.321 247.532 325.767 247.532 326.102 247.365C326.493 247.253 326.772 246.974 326.995 246.695C327.497 246.137 327.721 245.356 327.553 244.686C327.386 244.017 326.772 243.682 326.158 243.57C324.986 243.291 324.037 243.459 323.367 243.626C322.697 243.794 322.362 243.961 322.362 243.905Z" fill="#263238"/>
<path d="M322.362 236.317C322.362 236.317 322.53 236.261 322.92 236.205C323.255 236.205 323.814 236.205 324.428 236.428C325.041 236.651 325.711 237.042 326.269 237.656C326.828 238.325 327.218 239.218 327.218 240.223C327.274 241.227 326.939 242.176 326.437 242.845C325.935 243.515 325.265 243.961 324.651 244.184C324.037 244.408 323.534 244.463 323.2 244.463C322.865 244.463 322.641 244.408 322.641 244.408C322.641 244.352 323.479 244.463 324.595 243.961C325.153 243.682 325.767 243.292 326.214 242.622C326.716 241.952 326.995 241.115 326.939 240.167C326.883 239.218 326.549 238.381 326.046 237.767C325.544 237.154 324.874 236.763 324.316 236.54C323.2 236.205 322.362 236.428 322.362 236.317Z" fill="#263238"/>
<path d="M285.412 199.656C285.412 199.656 285.635 199.991 285.859 200.66C286.082 201.33 286.305 202.334 286.528 203.673C286.752 205.013 286.919 206.631 287.087 208.472C287.254 210.369 287.422 212.49 287.701 214.889C287.756 215.503 287.868 216.061 287.98 216.675C288.091 217.289 288.259 217.902 288.538 218.46C288.817 219.018 289.263 219.521 289.766 219.967C290.268 220.413 290.77 220.86 291.384 221.195C292.557 221.92 293.952 222.422 295.403 222.59C296.854 222.757 298.417 222.534 299.813 221.808C301.208 221.139 302.324 219.8 302.659 218.237C302.827 217.456 302.771 216.619 302.492 215.838C302.213 215.057 301.655 214.443 300.929 213.996C300.259 213.55 299.422 213.271 298.585 213.215C297.748 213.159 296.854 213.383 296.185 213.941C295.85 214.22 295.571 214.499 295.403 214.889C295.236 215.28 295.18 215.67 295.236 216.117C295.403 216.954 296.017 217.679 296.799 218.07C297.58 218.516 298.473 218.684 299.366 218.795C300.259 218.907 301.152 218.963 301.99 218.963C303.776 219.018 305.506 218.851 307.181 218.684C310.585 218.293 313.878 217.735 317.004 217.735C320.13 217.679 323.2 218.126 325.767 219.409C327.051 220.023 328.167 220.86 329.005 221.864C329.898 222.869 330.456 224.04 330.679 225.212C331.182 227.612 330.623 229.844 329.73 231.518C328.781 233.192 327.498 234.308 326.437 235.033C325.321 235.758 324.372 236.205 323.702 236.428C323.032 236.651 322.697 236.763 322.697 236.763C322.697 236.763 322.809 236.707 322.977 236.651C323.144 236.595 323.423 236.484 323.702 236.372C324.372 236.093 325.321 235.703 326.381 234.921C327.442 234.14 328.726 233.024 329.619 231.406C330.512 229.788 331.014 227.556 330.512 225.268C330.233 224.152 329.73 222.98 328.837 222.032C328 221.083 326.884 220.246 325.656 219.688C323.144 218.46 320.13 218.014 317.004 218.07C313.878 218.126 310.585 218.684 307.181 219.018C305.45 219.186 303.72 219.353 301.934 219.297C301.041 219.297 300.148 219.242 299.255 219.13C298.362 219.018 297.413 218.851 296.631 218.405C295.794 217.958 295.124 217.177 294.957 216.228C294.845 215.782 294.957 215.28 295.124 214.833C295.347 214.387 295.627 214.052 296.017 213.773C296.743 213.215 297.692 212.992 298.585 212.992C299.478 213.048 300.371 213.327 301.097 213.829C301.822 214.331 302.436 215.001 302.771 215.838C303.106 216.675 303.106 217.568 302.938 218.349C302.548 220.023 301.376 221.362 299.924 222.087C298.473 222.813 296.854 223.036 295.403 222.869C293.896 222.701 292.501 222.199 291.273 221.474C290.659 221.083 290.101 220.692 289.654 220.19C289.152 219.688 288.705 219.242 288.37 218.628C288.091 218.014 287.924 217.4 287.812 216.786C287.701 216.173 287.589 215.559 287.533 215.001C287.254 212.657 287.087 210.481 286.919 208.584C286.752 206.687 286.584 205.068 286.417 203.785C286.249 202.446 286.026 201.441 285.803 200.772C285.691 200.437 285.635 200.158 285.524 200.046C285.412 199.712 285.412 199.656 285.412 199.656Z" fill="#263238"/>
<path d="M317.563 278.278C317.563 278.278 317.563 278.222 317.563 278.055C317.563 277.888 317.563 277.664 317.563 277.385C317.563 276.772 317.563 275.935 317.563 274.763C317.563 272.475 317.563 269.127 317.507 264.886C317.507 256.405 317.451 244.296 317.451 229.788L317.563 229.9C304.39 229.9 288.985 229.9 272.519 229.9L272.686 229.732C272.686 247.588 272.686 264.217 272.686 278.222L272.575 278.111C286.082 278.111 297.301 278.167 305.171 278.167C309.134 278.167 312.204 278.167 314.325 278.222C315.386 278.222 316.167 278.222 316.725 278.222C317.284 278.222 317.563 278.278 317.563 278.278C317.563 278.278 317.284 278.278 316.725 278.278C316.167 278.278 315.386 278.278 314.325 278.278C312.204 278.278 309.134 278.278 305.227 278.334C297.357 278.334 286.082 278.39 272.519 278.39H272.407V278.278C272.407 264.272 272.407 247.588 272.407 229.788V229.621H272.575C288.985 229.621 304.39 229.621 317.618 229.621H317.73V229.732C317.73 244.24 317.674 256.405 317.674 264.886C317.674 269.127 317.674 272.475 317.618 274.763C317.618 275.879 317.618 276.772 317.618 277.33C317.618 277.609 317.618 277.832 317.618 277.999C317.618 278.167 317.563 278.278 317.563 278.278Z" fill="#263238"/>
<path d="M304.893 235.703C304.893 235.814 304.781 235.926 304.67 235.926C304.558 235.926 304.446 235.814 304.446 235.703C304.446 235.591 304.558 235.479 304.67 235.479C304.781 235.479 304.893 235.591 304.893 235.703Z" fill="#263238"/>
<path d="M306.177 235.703C306.177 235.814 306.065 235.926 305.954 235.926C305.842 235.926 305.73 235.814 305.73 235.703C305.73 235.591 305.842 235.479 305.954 235.479C306.065 235.479 306.177 235.591 306.177 235.703Z" fill="#263238"/>
<path d="M307.46 235.703C307.46 235.814 307.349 235.926 307.237 235.926C307.125 235.926 307.014 235.814 307.014 235.703C307.014 235.591 307.125 235.479 307.237 235.479C307.349 235.479 307.46 235.591 307.46 235.703Z" fill="#263238"/>
<path d="M308.744 235.703C308.744 235.814 308.633 235.926 308.521 235.926C308.409 235.926 308.298 235.814 308.298 235.703C308.298 235.591 308.409 235.479 308.521 235.479C308.633 235.479 308.744 235.591 308.744 235.703Z" fill="#263238"/>
<path d="M309.972 235.703C309.972 235.814 309.86 235.926 309.749 235.926C309.637 235.926 309.525 235.814 309.525 235.703C309.525 235.591 309.637 235.479 309.749 235.479C309.916 235.479 309.972 235.591 309.972 235.703Z" fill="#263238"/>
<path d="M311.256 235.703C311.256 235.814 311.144 235.926 311.033 235.926C310.921 235.926 310.81 235.814 310.81 235.703C310.81 235.591 310.921 235.479 311.033 235.479C311.144 235.479 311.256 235.591 311.256 235.703Z" fill="#263238"/>
<path d="M312.539 235.703C312.539 235.814 312.428 235.926 312.316 235.926C312.204 235.926 312.093 235.814 312.093 235.703C312.093 235.591 312.204 235.479 312.316 235.479C312.428 235.479 312.539 235.591 312.539 235.703Z" fill="#263238"/>
<path d="M311.703 236.818C311.826 236.818 311.926 236.719 311.926 236.595C311.926 236.472 311.826 236.372 311.703 236.372C311.579 236.372 311.479 236.472 311.479 236.595C311.479 236.719 311.579 236.818 311.703 236.818Z" fill="#263238"/>
<path d="M310.419 236.818C310.542 236.818 310.642 236.719 310.642 236.595C310.642 236.472 310.542 236.372 310.419 236.372C310.295 236.372 310.195 236.472 310.195 236.595C310.195 236.719 310.295 236.818 310.419 236.818Z" fill="#263238"/>
<path d="M309.359 236.595C309.359 236.707 309.247 236.818 309.135 236.818C309.024 236.818 308.912 236.707 308.912 236.595C308.912 236.484 309.024 236.372 309.135 236.372C309.247 236.372 309.359 236.428 309.359 236.595Z" fill="#263238"/>
<path d="M307.796 236.818C307.919 236.818 308.019 236.719 308.019 236.595C308.019 236.472 307.919 236.372 307.796 236.372C307.672 236.372 307.572 236.472 307.572 236.595C307.572 236.719 307.672 236.818 307.796 236.818Z" fill="#263238"/>
<path d="M306.511 236.818C306.635 236.818 306.735 236.719 306.735 236.595C306.735 236.472 306.635 236.372 306.511 236.372C306.388 236.372 306.288 236.472 306.288 236.595C306.288 236.719 306.388 236.818 306.511 236.818Z" fill="#263238"/>
<path d="M305.45 236.595C305.45 236.707 305.339 236.818 305.227 236.818C305.116 236.818 305.004 236.707 305.004 236.595C305.004 236.484 305.116 236.372 305.227 236.372C305.339 236.372 305.45 236.428 305.45 236.595Z" fill="#263238"/>
<path d="M304.893 237.544C304.893 237.656 304.781 237.767 304.67 237.767C304.558 237.767 304.446 237.656 304.446 237.544C304.446 237.432 304.558 237.321 304.67 237.321C304.781 237.321 304.893 237.432 304.893 237.544Z" fill="#263238"/>
<path d="M306.177 237.544C306.177 237.656 306.065 237.767 305.954 237.767C305.842 237.767 305.73 237.656 305.73 237.544C305.73 237.432 305.842 237.321 305.954 237.321C306.065 237.321 306.177 237.432 306.177 237.544Z" fill="#263238"/>
<path d="M307.46 237.544C307.46 237.656 307.349 237.767 307.237 237.767C307.125 237.767 307.014 237.656 307.014 237.544C307.014 237.432 307.125 237.321 307.237 237.321C307.349 237.321 307.46 237.432 307.46 237.544Z" fill="#263238"/>
<path d="M308.744 237.544C308.744 237.656 308.633 237.767 308.521 237.767C308.409 237.767 308.298 237.656 308.298 237.544C308.298 237.432 308.409 237.321 308.521 237.321C308.633 237.321 308.744 237.432 308.744 237.544Z" fill="#263238"/>
<path d="M309.972 237.544C309.972 237.656 309.86 237.767 309.749 237.767C309.637 237.767 309.525 237.656 309.525 237.544C309.525 237.432 309.637 237.321 309.749 237.321C309.916 237.321 309.972 237.432 309.972 237.544Z" fill="#263238"/>
<path d="M311.256 237.544C311.256 237.656 311.144 237.767 311.033 237.767C310.921 237.767 310.81 237.656 310.81 237.544C310.81 237.432 310.921 237.321 311.033 237.321C311.144 237.321 311.256 237.432 311.256 237.544Z" fill="#263238"/>
<path d="M312.539 237.544C312.539 237.656 312.428 237.767 312.316 237.767C312.204 237.767 312.093 237.656 312.093 237.544C312.093 237.432 312.204 237.321 312.316 237.321C312.428 237.321 312.539 237.432 312.539 237.544Z" fill="#263238"/>
<path d="M311.982 238.381C311.982 238.493 311.87 238.604 311.758 238.604C311.647 238.604 311.535 238.493 311.535 238.381C311.535 238.269 311.647 238.158 311.758 238.158C311.87 238.158 311.982 238.269 311.982 238.381Z" fill="#263238"/>
<path d="M310.642 238.381C310.642 238.493 310.53 238.604 310.419 238.604C310.307 238.604 310.195 238.493 310.195 238.381C310.195 238.269 310.307 238.158 310.419 238.158C310.53 238.158 310.642 238.269 310.642 238.381Z" fill="#263238"/>
<path d="M309.359 238.381C309.359 238.493 309.247 238.604 309.135 238.604C309.024 238.604 308.912 238.493 308.912 238.381C308.912 238.269 309.024 238.158 309.135 238.158C309.247 238.158 309.359 238.269 309.359 238.381Z" fill="#263238"/>
<path d="M308.075 238.381C308.075 238.493 307.963 238.604 307.851 238.604C307.74 238.604 307.628 238.493 307.628 238.381C307.628 238.269 307.74 238.158 307.851 238.158C307.963 238.158 308.075 238.269 308.075 238.381Z" fill="#263238"/>
<path d="M306.735 238.381C306.735 238.493 306.623 238.604 306.511 238.604C306.4 238.604 306.288 238.493 306.288 238.381C306.288 238.269 306.4 238.158 306.511 238.158C306.623 238.158 306.735 238.269 306.735 238.381Z" fill="#263238"/>
<path d="M305.45 238.381C305.45 238.493 305.339 238.604 305.227 238.604C305.116 238.604 305.004 238.493 305.004 238.381C305.004 238.269 305.116 238.158 305.227 238.158C305.339 238.158 305.45 238.269 305.45 238.381Z" fill="#263238"/>
<path d="M304.893 239.386C304.893 239.497 304.781 239.609 304.67 239.609C304.558 239.609 304.446 239.497 304.446 239.386C304.446 239.274 304.558 239.162 304.67 239.162C304.781 239.107 304.893 239.218 304.893 239.386Z" fill="#263238"/>
<path d="M306.177 239.386C306.177 239.497 306.065 239.609 305.954 239.609C305.842 239.609 305.73 239.497 305.73 239.386C305.73 239.274 305.842 239.162 305.954 239.162C306.065 239.107 306.177 239.218 306.177 239.386Z" fill="#263238"/>
<path d="M307.46 239.386C307.46 239.497 307.349 239.609 307.237 239.609C307.125 239.609 307.014 239.497 307.014 239.386C307.014 239.274 307.125 239.162 307.237 239.162C307.349 239.107 307.46 239.218 307.46 239.386Z" fill="#263238"/>
<path d="M308.744 239.386C308.744 239.497 308.633 239.609 308.521 239.609C308.409 239.609 308.298 239.497 308.298 239.386C308.298 239.274 308.409 239.162 308.521 239.162C308.633 239.107 308.744 239.218 308.744 239.386Z" fill="#263238"/>
<path d="M309.972 239.386C309.972 239.497 309.86 239.609 309.749 239.609C309.637 239.609 309.525 239.497 309.525 239.386C309.525 239.274 309.637 239.162 309.749 239.162C309.916 239.107 309.972 239.218 309.972 239.386Z" fill="#263238"/>
<path d="M311.256 239.386C311.256 239.497 311.144 239.609 311.033 239.609C310.921 239.609 310.81 239.497 310.81 239.386C310.81 239.274 310.921 239.162 311.033 239.162C311.144 239.107 311.256 239.218 311.256 239.386Z" fill="#263238"/>
<path d="M312.539 239.386C312.539 239.497 312.428 239.609 312.316 239.609C312.204 239.609 312.093 239.497 312.093 239.386C312.093 239.274 312.204 239.162 312.316 239.162C312.428 239.107 312.539 239.218 312.539 239.386Z" fill="#263238"/>
<path d="M311.703 240.446C311.826 240.446 311.926 240.346 311.926 240.223C311.926 240.099 311.826 240 311.703 240C311.579 240 311.479 240.099 311.479 240.223C311.479 240.346 311.579 240.446 311.703 240.446Z" fill="#263238"/>
<path d="M310.419 240.446C310.542 240.446 310.642 240.346 310.642 240.223C310.642 240.099 310.542 240 310.419 240C310.295 240 310.195 240.099 310.195 240.223C310.195 240.346 310.295 240.446 310.419 240.446Z" fill="#263238"/>
<path d="M309.359 240.223C309.359 240.334 309.247 240.446 309.135 240.446C309.024 240.446 308.912 240.334 308.912 240.223C308.912 240.111 309.024 240 309.135 240C309.247 240 309.359 240.111 309.359 240.223Z" fill="#263238"/>
<path d="M307.796 240.446C307.919 240.446 308.019 240.346 308.019 240.223C308.019 240.099 307.919 240 307.796 240C307.672 240 307.572 240.099 307.572 240.223C307.572 240.346 307.672 240.446 307.796 240.446Z" fill="#263238"/>
<path d="M306.511 240.446C306.635 240.446 306.735 240.346 306.735 240.223C306.735 240.099 306.635 240 306.511 240C306.388 240 306.288 240.099 306.288 240.223C306.288 240.346 306.388 240.446 306.511 240.446Z" fill="#263238"/>
<path d="M305.45 240.223C305.45 240.334 305.339 240.446 305.227 240.446C305.116 240.446 305.004 240.334 305.004 240.223C305.004 240.111 305.116 240 305.227 240C305.339 240 305.45 240.111 305.45 240.223Z" fill="#263238"/>
<path d="M287.31 183.585C287.31 183.585 287.645 183.585 288.204 183.753C288.762 183.92 289.599 184.367 290.38 185.204C291.162 186.041 291.832 187.324 292.334 188.886C292.836 190.449 293.283 192.234 293.562 194.299C294.176 198.372 294.287 203.283 293.897 208.695C293.785 210.035 293.45 211.485 292.669 212.657C292.278 213.271 291.72 213.773 291.106 214.164C290.492 214.554 289.711 214.778 288.929 214.666C288.148 214.61 287.422 214.275 286.864 213.717C286.585 213.438 286.362 213.104 286.25 212.713C286.138 212.322 286.138 211.876 286.25 211.485C286.473 210.704 287.031 210.035 287.813 209.756C288.204 209.588 288.65 209.644 289.041 209.756C289.431 209.923 289.766 210.146 290.045 210.481C290.548 211.151 290.715 211.988 290.604 212.769C290.492 213.55 290.157 214.275 289.822 214.945C289.041 216.284 287.924 217.4 286.641 218.126C284.017 219.632 280.78 219.576 278.38 218.237C277.152 217.568 276.147 216.675 275.366 215.615C274.584 214.61 273.97 213.494 273.524 212.322C272.631 210.035 272.407 207.803 272.296 205.738C272.184 203.673 272.296 201.832 272.073 200.214C271.961 199.433 271.793 198.651 271.57 198.038C271.347 197.368 271.012 196.866 270.621 196.419C269.896 195.527 269.114 195.08 268.556 194.913C267.998 194.745 267.663 194.745 267.663 194.69C267.663 194.69 267.998 194.69 268.556 194.857C269.114 195.024 269.952 195.471 270.677 196.364C271.068 196.81 271.403 197.368 271.626 198.038C271.905 198.707 272.073 199.433 272.184 200.27C272.407 201.888 272.296 203.729 272.407 205.794C272.519 207.803 272.798 210.09 273.635 212.322C274.082 213.438 274.64 214.554 275.422 215.503C276.203 216.507 277.208 217.4 278.38 218.014C280.724 219.297 283.85 219.353 286.362 217.902C287.59 217.177 288.706 216.117 289.431 214.778C289.766 214.108 290.101 213.438 290.213 212.713C290.325 211.988 290.157 211.206 289.711 210.593C289.487 210.314 289.208 210.09 288.873 209.923C288.538 209.811 288.148 209.811 287.813 209.923C287.143 210.146 286.641 210.816 286.417 211.485C286.194 212.155 286.473 212.936 286.976 213.438C287.478 213.941 288.148 214.22 288.873 214.331C289.599 214.387 290.269 214.22 290.883 213.829C291.497 213.494 291.999 212.936 292.39 212.378C293.171 211.206 293.45 209.867 293.618 208.528C294.008 203.171 293.897 198.261 293.339 194.243C293.06 192.234 292.613 190.393 292.166 188.886C291.72 187.324 291.05 186.096 290.269 185.259C289.487 184.422 288.706 183.976 288.148 183.809C287.645 183.585 287.31 183.585 287.31 183.585Z" fill="#E0E0E0"/>
<path d="M282.901 191.676H264.37V195.192H282.901V191.676Z" fill="#E0E0E0"/>
<path d="M149.053 228.169H124.885V280.231H149.053V228.169Z" fill="#384655"/>
<path d="M146.988 274.707C146.988 274.707 146.988 274.651 146.988 274.484C146.988 274.316 146.988 274.093 146.988 273.814C146.988 273.256 146.988 272.419 146.988 271.303C146.988 269.127 146.988 265.946 146.933 261.984C146.933 254.061 146.877 242.901 146.877 229.899L146.988 230.011C140.737 230.011 133.872 230.011 126.783 230.011L126.95 229.844C126.95 247.253 126.894 263.045 126.894 274.595L126.783 274.484C133.034 274.484 138.058 274.539 141.574 274.539C143.304 274.539 144.7 274.539 145.593 274.539C146.039 274.539 146.374 274.539 146.653 274.539C146.877 274.707 146.988 274.707 146.988 274.707C146.988 274.707 146.877 274.707 146.653 274.707C146.43 274.707 146.039 274.707 145.593 274.707C144.644 274.707 143.304 274.707 141.574 274.707C138.058 274.707 132.978 274.763 126.727 274.763H126.615V274.651C126.615 263.045 126.615 247.253 126.56 229.899V229.732H126.727C133.816 229.732 140.681 229.732 146.933 229.732H147.044V229.844C147.044 242.901 146.988 254.061 146.988 262.04C146.988 266.002 146.933 269.127 146.933 271.303C146.933 272.363 146.933 273.2 146.933 273.758C146.933 274.037 146.933 274.26 146.933 274.372C146.988 274.651 146.988 274.707 146.988 274.707Z" fill="#455A64"/>
<path d="M145.76 233.75C145.76 233.75 145.76 233.582 145.76 233.192C145.76 232.801 145.76 232.299 145.705 231.685L145.76 231.741C142.635 231.797 135.937 231.797 128.178 231.797C128.234 231.741 128.011 231.964 128.346 231.629V231.685V231.741V231.852V232.131C128.346 232.299 128.346 232.466 128.346 232.634C128.346 232.968 128.346 233.303 128.346 233.638L128.178 233.471C133.09 233.471 137.5 233.526 140.625 233.526C142.188 233.526 143.472 233.582 144.365 233.582C144.811 233.582 145.146 233.582 145.37 233.582C145.649 233.75 145.76 233.75 145.76 233.75C145.76 233.75 145.649 233.75 145.425 233.75C145.146 233.75 144.867 233.75 144.421 233.75C143.528 233.75 142.244 233.75 140.737 233.805C137.555 233.861 133.146 233.861 128.178 233.861H128.011V233.694C128.011 233.359 128.011 233.024 128.011 232.689C128.011 232.522 128.011 232.355 128.011 232.187V231.908V231.797V231.741V231.685C128.29 231.406 128.067 231.629 128.178 231.518C135.937 231.518 142.635 231.573 145.76 231.573H145.816V231.629C145.816 232.299 145.816 232.801 145.76 233.192C145.76 233.582 145.76 233.75 145.76 233.75Z" fill="#455A64"/>
<path d="M129.908 235.256C129.908 235.312 129.517 235.424 129.071 235.424C128.624 235.424 128.233 235.368 128.233 235.256C128.233 235.145 128.624 235.089 129.071 235.089C129.573 235.089 129.908 235.145 129.908 235.256Z" fill="#455A64"/>
<path d="M145.258 237.934C145.258 237.99 141.518 238.102 136.885 238.102C132.252 238.102 128.513 238.046 128.513 237.934C128.513 237.823 132.252 237.767 136.885 237.767C141.518 237.767 145.258 237.823 145.258 237.934Z" fill="#455A64"/>
<path d="M145.369 241.171C145.369 241.227 141.685 241.338 137.164 241.338C132.643 241.338 128.959 241.282 128.959 241.171C128.959 241.115 132.643 241.003 137.164 241.003C141.685 241.003 145.369 241.059 145.369 241.171Z" fill="#455A64"/>
<path d="M136.941 250.099C137.681 250.099 138.281 249.499 138.281 248.76C138.281 248.02 137.681 247.42 136.941 247.42C136.201 247.42 135.602 248.02 135.602 248.76C135.602 249.499 136.201 250.099 136.941 250.099Z" fill="#E8505B"/>
<path d="M133.145 248.704C133.145 248.76 132.364 248.871 131.359 248.871C130.355 248.871 129.573 248.816 129.573 248.704C129.573 248.648 130.355 248.537 131.359 248.537C132.364 248.537 133.145 248.592 133.145 248.704Z" fill="#455A64"/>
<path d="M143.974 248.313C143.974 248.369 143.193 248.481 142.299 248.481C141.351 248.481 140.625 248.425 140.625 248.313C140.625 248.258 141.406 248.146 142.299 248.146C143.193 248.202 143.974 248.258 143.974 248.313Z" fill="#455A64"/>
<path d="M125.722 254.284C125.722 254.284 125.387 254.284 124.829 254.117C124.271 253.949 123.378 253.67 122.429 253.001C121.48 252.387 120.42 251.382 119.527 249.987C118.634 248.592 117.908 246.863 117.406 244.854C116.903 242.845 116.568 240.613 116.736 238.214C116.903 235.814 117.629 233.192 119.248 231.015C120.029 229.899 121.09 228.895 122.262 228.114C122.876 227.723 123.546 227.388 124.215 227.165C124.885 226.942 125.611 226.775 126.392 226.663C127.843 226.44 129.35 226.496 130.913 226.384C132.42 226.272 133.983 226.049 135.323 225.38C136.718 224.71 137.779 223.482 138.058 222.032C138.393 220.581 138.002 219.018 137.053 217.958C136.104 216.898 134.709 216.228 133.369 216.284C132.699 216.34 132.03 216.563 131.527 216.954C131.025 217.344 130.69 218.014 130.746 218.628C130.857 219.911 132.03 220.971 133.258 221.027C134.486 221.139 135.658 220.469 136.439 219.576C137.221 218.684 137.667 217.623 138.002 216.563C138.281 215.503 138.504 214.443 138.672 213.438C139.23 209.365 139.062 206.073 138.951 203.785C138.895 202.669 138.839 201.776 138.839 201.162C138.839 200.883 138.839 200.66 138.783 200.493C138.783 200.325 138.783 200.27 138.783 200.27C138.783 200.27 138.783 200.325 138.839 200.493C138.839 200.66 138.895 200.883 138.895 201.162C138.951 201.776 139.007 202.669 139.062 203.785C139.174 206.073 139.397 209.421 138.839 213.494C138.672 214.499 138.504 215.559 138.225 216.675C137.946 217.735 137.444 218.851 136.662 219.8C135.825 220.692 134.653 221.418 133.258 221.306C131.918 221.25 130.634 220.134 130.523 218.684C130.467 217.958 130.802 217.233 131.416 216.786C131.974 216.34 132.699 216.061 133.425 216.005C134.876 215.894 136.383 216.619 137.388 217.735C138.393 218.851 138.783 220.525 138.448 222.087C138.281 222.869 137.946 223.594 137.444 224.208C136.941 224.822 136.272 225.324 135.602 225.659C134.151 226.384 132.588 226.607 131.081 226.719C129.574 226.83 128.067 226.775 126.615 226.998C125.89 227.109 125.164 227.277 124.494 227.5C123.825 227.723 123.211 228.058 122.597 228.449C121.425 229.23 120.42 230.178 119.638 231.239C118.02 233.415 117.294 235.926 117.127 238.325C116.959 240.725 117.238 242.957 117.741 244.91C118.243 246.863 118.913 248.592 119.806 249.987C120.643 251.382 121.704 252.331 122.597 253.001C123.546 253.67 124.383 253.949 124.941 254.172C125.22 254.284 125.443 254.284 125.611 254.34C125.667 254.284 125.722 254.284 125.722 254.284Z" fill="#263238"/>
<path d="M174.729 147.427H117.462V186.766H174.729V147.427Z" fill="#263238"/>
<path d="M149.501 181.409H141.687V196.252H149.501V181.409Z" fill="#263238"/>
<path d="M123.21 195.638V200.995H152.737V280.454H155.472V200.995L278.882 201.609V280.454H281.505V201.441L300.594 201.609V195.192L123.21 195.638Z" fill="#263238"/>
<path d="M142.076 199.935L153.742 208.36L152.737 209.309L141.016 200.437L142.076 199.935Z" fill="#263238"/>
<path d="M292.501 200.716L278.993 210.369L279.998 211.318L293.617 201.218L292.501 200.716Z" fill="#263238"/>
<path d="M196.664 193.685H166.133V195.917H196.664V193.685Z" fill="#263238"/>
</svg>
