<svg width="407" height="300" viewBox="0 0 407 300" fill="none" xmlns="http://www.w3.org/2000/svg">
<g clip-path="url(#clip0)">
<path d="M131.002 267.895H45.7949V273.606H131.002V267.895Z" fill="#7CC4FF"/>
<path d="M130.991 273.602H145.156V267.891H130.991V273.602Z" fill="#7CC4FF"/>
<path d="M130.929 166.928H41V267.854H130.929V166.928Z" fill="#67AEC1"/>
<path d="M143.641 166.101H47.3203V166.97H143.641V166.101Z" fill="#7CC4FF"/>
<path d="M130.932 267.912H149.891L149.891 166.986H130.932L130.932 267.912Z" fill="#7CC4FF"/>
<path d="M43.2678 179.206H128.766V168.157H43.2678V179.206Z" fill="#7CC4FF"/>
<path d="M43.2678 266.616H128.766V255.568H43.2678V266.616Z" fill="#7CC4FF"/>
<path d="M43.2678 254.141H128.766V243.092H43.2678V254.141Z" fill="#7CC4FF"/>
<path d="M43.2678 241.665H128.766V230.617H43.2678V241.665Z" fill="#7CC4FF"/>
<path d="M43.2678 229.149H128.766V218.1H43.2678V229.149Z" fill="#7CC4FF"/>
<path d="M43.2678 216.673H128.766V205.625H43.2678V216.673Z" fill="#7CC4FF"/>
<path d="M43.2678 204.198H128.766V193.149H43.2678V204.198Z" fill="#7CC4FF"/>
<path d="M43.2678 191.723H128.766V180.674H43.2678V191.723Z" fill="#7CC4FF"/>
<path d="M48.9173 177.646H90.1045C91.7026 177.646 93.0101 176.901 93.0101 175.99V171.356C93.0101 170.446 91.7026 169.701 90.1045 169.701H48.9173C47.3192 169.701 46.0117 170.446 46.0117 171.356V175.99C46.0117 176.901 47.3192 177.646 48.9173 177.646Z" fill="#7CC4FF"/>
<path d="M51.9683 174.211V173.177C51.9683 172.887 51.6051 172.68 51.0967 172.68H49.1354C48.6269 172.68 48.2637 172.887 48.2637 173.177V174.211C48.2637 174.501 48.6269 174.708 49.1354 174.708H51.0967C51.6051 174.708 51.9683 174.459 51.9683 174.211Z" fill="#67AEC1"/>
<path d="M48.9173 190.142H90.1045C91.7026 190.142 93.0101 189.398 93.0101 188.487V183.853C93.0101 182.942 91.7026 182.197 90.1045 182.197H48.9173C47.3192 182.197 46.0117 182.942 46.0117 183.853V188.487C46.0117 189.398 47.3192 190.142 48.9173 190.142Z" fill="#7CC4FF"/>
<path d="M51.9683 186.708V185.673C51.9683 185.384 51.6051 185.177 51.0967 185.177H49.1354C48.6269 185.177 48.2637 185.384 48.2637 185.673V186.708C48.2637 186.997 48.6269 187.204 49.1354 187.204H51.0967C51.6051 187.163 51.9683 186.956 51.9683 186.708Z" fill="#67AEC1"/>
<path d="M48.9173 202.598H90.1045C91.7026 202.598 93.0101 201.853 93.0101 200.943V196.308C93.0101 195.398 91.7026 194.653 90.1045 194.653H48.9173C47.3192 194.653 46.0117 195.398 46.0117 196.308V200.943C46.0117 201.853 47.3192 202.598 48.9173 202.598Z" fill="#7CC4FF"/>
<path d="M51.9683 199.163V198.129C51.9683 197.839 51.6051 197.632 51.0967 197.632H49.1354C48.6269 197.632 48.2637 197.839 48.2637 198.129V199.163C48.2637 199.453 48.6269 199.66 49.1354 199.66H51.0967C51.6051 199.66 51.9683 199.453 51.9683 199.163Z" fill="#67AEC1"/>
<path d="M48.9173 215.094H90.1045C91.7026 215.094 93.0101 214.35 93.0101 213.439V208.805C93.0101 207.894 91.7026 207.15 90.1045 207.15H48.9173C47.3192 207.15 46.0117 207.894 46.0117 208.805V213.439C46.0117 214.35 47.3192 215.094 48.9173 215.094Z" fill="#7CC4FF"/>
<path d="M51.9683 211.66V210.626C51.9683 210.336 51.6051 210.129 51.0967 210.129H49.1354C48.6269 210.129 48.2637 210.336 48.2637 210.626V211.66C48.2637 211.95 48.6269 212.157 49.1354 212.157H51.0967C51.6051 212.157 51.9683 211.95 51.9683 211.66Z" fill="#67AEC1"/>
<path d="M48.9173 227.591H90.1045C91.7026 227.591 93.0101 226.846 93.0101 225.936V221.302C93.0101 220.391 91.7026 219.646 90.1045 219.646H48.9173C47.3192 219.646 46.0117 220.391 46.0117 221.302V225.936C46.0117 226.846 47.3192 227.591 48.9173 227.591Z" fill="#7CC4FF"/>
<path d="M51.9683 224.157V223.122C51.9683 222.833 51.6051 222.626 51.0967 222.626H49.1354C48.6269 222.626 48.2637 222.833 48.2637 223.122V224.157C48.2637 224.446 48.6269 224.653 49.1354 224.653H51.0967C51.6051 224.653 51.9683 224.405 51.9683 224.157Z" fill="#67AEC1"/>
<path d="M48.9173 240.088H90.1045C91.7026 240.088 93.0101 239.343 93.0101 238.433V233.798C93.0101 232.888 91.7026 232.143 90.1045 232.143H48.9173C47.3192 232.143 46.0117 232.888 46.0117 233.798V238.433C46.0117 239.343 47.3192 240.088 48.9173 240.088Z" fill="#7CC4FF"/>
<path d="M51.9683 236.654V235.619C51.9683 235.329 51.6051 235.122 51.0967 235.122H49.1354C48.6269 235.122 48.2637 235.329 48.2637 235.619V236.654C48.2637 236.943 48.6269 237.15 49.1354 237.15H51.0967C51.6051 237.109 51.9683 236.902 51.9683 236.654Z" fill="#67AEC1"/>
<path d="M48.9173 252.543H90.1045C91.7026 252.543 93.0101 251.799 93.0101 250.888V246.254C93.0101 245.343 91.7026 244.599 90.1045 244.599H48.9173C47.3192 244.599 46.0117 245.343 46.0117 246.254V250.888C46.0117 251.799 47.3192 252.543 48.9173 252.543Z" fill="#7CC4FF"/>
<path d="M51.9683 249.109V248.074C51.9683 247.785 51.6051 247.578 51.0967 247.578H49.1354C48.6269 247.578 48.2637 247.785 48.2637 248.074V249.109C48.2637 249.399 48.6269 249.605 49.1354 249.605H51.0967C51.6051 249.605 51.9683 249.399 51.9683 249.109Z" fill="#67AEC1"/>
<path d="M48.9173 265.04H90.1045C91.7026 265.04 93.0101 264.295 93.0101 263.385V258.751C93.0101 257.84 91.7026 257.095 90.1045 257.095H48.9173C47.3192 257.095 46.0117 257.84 46.0117 258.751V263.385C46.0117 264.295 47.3192 265.04 48.9173 265.04Z" fill="#7CC4FF"/>
<path d="M51.9683 261.606V260.571C51.9683 260.281 51.6051 260.075 51.0967 260.075H49.1354C48.6269 260.075 48.2637 260.281 48.2637 260.571V261.606C48.2637 261.895 48.6269 262.102 49.1354 262.102H51.0967C51.6051 262.102 51.9683 261.895 51.9683 261.606Z" fill="#67AEC1"/>
<path d="M57.6344 174.211V173.177C57.6344 172.887 57.2712 172.68 56.7627 172.68H54.8014C54.2929 172.68 53.9297 172.887 53.9297 173.177V174.211C53.9297 174.501 54.2929 174.708 54.8014 174.708H56.7627C57.2712 174.708 57.6344 174.459 57.6344 174.211Z" fill="#67AEC1"/>
<path d="M57.6344 186.708V185.673C57.6344 185.384 57.2712 185.177 56.7627 185.177H54.8014C54.2929 185.177 53.9297 185.384 53.9297 185.673V186.708C53.9297 186.997 54.2929 187.204 54.8014 187.204H56.7627C57.2712 187.163 57.6344 186.956 57.6344 186.708Z" fill="#67AEC1"/>
<path d="M57.6344 199.163V198.129C57.6344 197.839 57.2712 197.632 56.7627 197.632H54.8014C54.2929 197.632 53.9297 197.839 53.9297 198.129V199.163C53.9297 199.453 54.2929 199.66 54.8014 199.66H56.7627C57.2712 199.66 57.6344 199.453 57.6344 199.163Z" fill="#67AEC1"/>
<path d="M57.6344 211.66V210.626C57.6344 210.336 57.2712 210.129 56.7627 210.129H54.8014C54.2929 210.129 53.9297 210.336 53.9297 210.626V211.66C53.9297 211.95 54.2929 212.157 54.8014 212.157H56.7627C57.2712 212.157 57.6344 211.95 57.6344 211.66Z" fill="#67AEC1"/>
<path d="M57.6344 224.157V223.122C57.6344 222.833 57.2712 222.626 56.7627 222.626H54.8014C54.2929 222.626 53.9297 222.833 53.9297 223.122V224.157C53.9297 224.446 54.2929 224.653 54.8014 224.653H56.7627C57.2712 224.653 57.6344 224.405 57.6344 224.157Z" fill="#67AEC1"/>
<path d="M57.6344 236.654V235.619C57.6344 235.329 57.2712 235.122 56.7627 235.122H54.8014C54.2929 235.122 53.9297 235.329 53.9297 235.619V236.654C53.9297 236.943 54.2929 237.15 54.8014 237.15H56.7627C57.2712 237.109 57.6344 236.902 57.6344 236.654Z" fill="#67AEC1"/>
<path d="M57.6344 249.109V248.074C57.6344 247.785 57.2712 247.578 56.7627 247.578H54.8014C54.2929 247.578 53.9297 247.785 53.9297 248.074V249.109C53.9297 249.399 54.2929 249.605 54.8014 249.605H56.7627C57.2712 249.605 57.6344 249.399 57.6344 249.109Z" fill="#67AEC1"/>
<path d="M57.6344 261.606V260.571C57.6344 260.281 57.2712 260.075 56.7627 260.075H54.8014C54.2929 260.075 53.9297 260.281 53.9297 260.571V261.606C53.9297 261.895 54.2929 262.102 54.8014 262.102H56.7627C57.2712 262.102 57.6344 261.895 57.6344 261.606Z" fill="#67AEC1"/>
<path d="M63.3004 174.211V173.177C63.3004 172.887 62.9372 172.68 62.4287 172.68H60.4674C59.9589 172.68 59.5957 172.887 59.5957 173.177V174.211C59.5957 174.501 59.9589 174.708 60.4674 174.708H62.4287C62.8645 174.708 63.3004 174.459 63.3004 174.211Z" fill="#67AEC1"/>
<path d="M63.3004 186.708V185.673C63.3004 185.384 62.9372 185.177 62.4287 185.177H60.4674C59.9589 185.177 59.5957 185.384 59.5957 185.673V186.708C59.5957 186.997 59.9589 187.204 60.4674 187.204H62.4287C62.8645 187.163 63.3004 186.956 63.3004 186.708Z" fill="#67AEC1"/>
<path d="M63.3004 199.163V198.129C63.3004 197.839 62.9372 197.632 62.4287 197.632H60.4674C59.9589 197.632 59.5957 197.839 59.5957 198.129V199.163C59.5957 199.453 59.9589 199.66 60.4674 199.66H62.4287C62.8645 199.66 63.3004 199.453 63.3004 199.163Z" fill="#67AEC1"/>
<path d="M63.3004 211.66V210.626C63.3004 210.336 62.9372 210.129 62.4287 210.129H60.4674C59.9589 210.129 59.5957 210.336 59.5957 210.626V211.66C59.5957 211.95 59.9589 212.157 60.4674 212.157H62.4287C62.8645 212.157 63.3004 211.95 63.3004 211.66Z" fill="#67AEC1"/>
<path d="M63.3004 224.157V223.122C63.3004 222.833 62.9372 222.626 62.4287 222.626H60.4674C59.9589 222.626 59.5957 222.833 59.5957 223.122V224.157C59.5957 224.446 59.9589 224.653 60.4674 224.653H62.4287C62.8645 224.653 63.3004 224.405 63.3004 224.157Z" fill="#67AEC1"/>
<path d="M63.3004 236.654V235.619C63.3004 235.329 62.9372 235.122 62.4287 235.122H60.4674C59.9589 235.122 59.5957 235.329 59.5957 235.619V236.654C59.5957 236.943 59.9589 237.15 60.4674 237.15H62.4287C62.8645 237.109 63.3004 236.902 63.3004 236.654Z" fill="#67AEC1"/>
<path d="M63.3004 249.109V248.074C63.3004 247.785 62.9372 247.578 62.4287 247.578H60.4674C59.9589 247.578 59.5957 247.785 59.5957 248.074V249.109C59.5957 249.399 59.9589 249.605 60.4674 249.605H62.4287C62.8645 249.605 63.3004 249.399 63.3004 249.109Z" fill="#67AEC1"/>
<path d="M63.3004 261.606V260.571C63.3004 260.281 62.9372 260.075 62.4287 260.075H60.4674C59.9589 260.075 59.5957 260.281 59.5957 260.571V261.606C59.5957 261.895 59.9589 262.102 60.4674 262.102H62.4287C62.8645 262.102 63.3004 261.895 63.3004 261.606Z" fill="#67AEC1"/>
<path d="M68.9664 174.211V173.177C68.9664 172.887 68.6032 172.68 68.0947 172.68H66.1334C65.6249 172.68 65.2617 172.887 65.2617 173.177V174.211C65.2617 174.501 65.6249 174.708 66.1334 174.708H68.0947C68.5305 174.708 68.9664 174.459 68.9664 174.211Z" fill="#67AEC1"/>
<path d="M68.9664 186.708V185.673C68.9664 185.384 68.6032 185.177 68.0947 185.177H66.1334C65.6249 185.177 65.2617 185.384 65.2617 185.673V186.708C65.2617 186.997 65.6249 187.204 66.1334 187.204H68.0947C68.5305 187.163 68.9664 186.956 68.9664 186.708Z" fill="#67AEC1"/>
<path d="M68.9664 199.163V198.129C68.9664 197.839 68.6032 197.632 68.0947 197.632H66.1334C65.6249 197.632 65.2617 197.839 65.2617 198.129V199.163C65.2617 199.453 65.6249 199.66 66.1334 199.66H68.0947C68.5305 199.66 68.9664 199.453 68.9664 199.163Z" fill="#67AEC1"/>
<path d="M68.9664 211.66V210.626C68.9664 210.336 68.6032 210.129 68.0947 210.129H66.1334C65.6249 210.129 65.2617 210.336 65.2617 210.626V211.66C65.2617 211.95 65.6249 212.157 66.1334 212.157H68.0947C68.5305 212.157 68.9664 211.95 68.9664 211.66Z" fill="#67AEC1"/>
<path d="M68.9664 224.157V223.122C68.9664 222.833 68.6032 222.626 68.0947 222.626H66.1334C65.6249 222.626 65.2617 222.833 65.2617 223.122V224.157C65.2617 224.446 65.6249 224.653 66.1334 224.653H68.0947C68.5305 224.653 68.9664 224.405 68.9664 224.157Z" fill="#67AEC1"/>
<path d="M68.9664 236.654V235.619C68.9664 235.329 68.6032 235.122 68.0947 235.122H66.1334C65.6249 235.122 65.2617 235.329 65.2617 235.619V236.654C65.2617 236.943 65.6249 237.15 66.1334 237.15H68.0947C68.5305 237.109 68.9664 236.902 68.9664 236.654Z" fill="#67AEC1"/>
<path d="M68.9664 249.109V248.074C68.9664 247.785 68.6032 247.578 68.0947 247.578H66.1334C65.6249 247.578 65.2617 247.785 65.2617 248.074V249.109C65.2617 249.399 65.6249 249.605 66.1334 249.605H68.0947C68.5305 249.605 68.9664 249.399 68.9664 249.109Z" fill="#67AEC1"/>
<path d="M68.9664 261.606V260.571C68.9664 260.281 68.6032 260.075 68.0947 260.075H66.1334C65.6249 260.075 65.2617 260.281 65.2617 260.571V261.606C65.2617 261.895 65.6249 262.102 66.1334 262.102H68.0947C68.5305 262.102 68.9664 261.895 68.9664 261.606Z" fill="#67AEC1"/>
<path d="M97.6582 173.673C97.6582 174.377 98.6752 174.956 99.9827 174.956C101.29 174.956 102.307 174.377 102.307 173.673C102.307 172.97 101.29 172.39 99.9827 172.39C98.6752 172.432 97.6582 172.97 97.6582 173.673Z" fill="#67AEC1"/>
<path d="M104.268 173.673C104.268 174.377 105.285 174.956 106.592 174.956C107.9 174.956 108.917 174.377 108.917 173.673C108.917 172.97 107.9 172.39 106.592 172.39C105.357 172.432 104.268 172.97 104.268 173.673Z" fill="#67AEC1"/>
<path d="M110.951 173.673C110.951 174.377 111.968 174.956 113.276 174.956C114.583 174.956 115.6 174.377 115.6 173.673C115.6 172.97 114.583 172.39 113.276 172.39C111.968 172.432 110.951 172.97 110.951 173.673Z" fill="#67AEC1"/>
<path d="M117.562 173.673C117.562 174.377 118.579 174.956 119.887 174.956C121.195 174.956 122.212 174.377 122.212 173.673C122.212 172.97 121.195 172.39 119.887 172.39C118.579 172.432 117.562 172.97 117.562 173.673Z" fill="#67AEC1"/>
<path d="M97.6582 186.17C97.6582 186.873 98.6752 187.453 99.9827 187.453C101.29 187.453 102.307 186.873 102.307 186.17C102.307 185.467 101.29 184.887 99.9827 184.887C98.6752 184.887 97.6582 185.467 97.6582 186.17Z" fill="#67AEC1"/>
<path d="M104.268 186.17C104.268 186.873 105.285 187.453 106.592 187.453C107.9 187.453 108.917 186.873 108.917 186.17C108.917 185.467 107.9 184.887 106.592 184.887C105.357 184.887 104.268 185.467 104.268 186.17Z" fill="#67AEC1"/>
<path d="M110.951 186.17C110.951 186.873 111.968 187.453 113.276 187.453C114.583 187.453 115.6 186.873 115.6 186.17C115.6 185.467 114.583 184.887 113.276 184.887C111.968 184.887 110.951 185.467 110.951 186.17Z" fill="#67AEC1"/>
<path d="M117.562 186.17C117.562 186.873 118.579 187.453 119.887 187.453C121.195 187.453 122.212 186.873 122.212 186.17C122.212 185.467 121.195 184.887 119.887 184.887C118.579 184.887 117.562 185.467 117.562 186.17Z" fill="#67AEC1"/>
<path d="M97.6582 198.667C97.6582 199.37 98.6752 199.949 99.9827 199.949C101.29 199.949 102.307 199.37 102.307 198.667C102.307 197.963 101.29 197.384 99.9827 197.384C98.6752 197.384 97.6582 197.963 97.6582 198.667Z" fill="#67AEC1"/>
<path d="M104.268 198.667C104.268 199.37 105.285 199.949 106.592 199.949C107.9 199.949 108.917 199.37 108.917 198.667C108.917 197.963 107.9 197.384 106.592 197.384C105.357 197.384 104.268 197.963 104.268 198.667Z" fill="#67AEC1"/>
<path d="M110.951 198.667C110.951 199.37 111.968 199.949 113.276 199.949C114.583 199.949 115.6 199.37 115.6 198.667C115.6 197.963 114.583 197.384 113.276 197.384C111.968 197.384 110.951 197.963 110.951 198.667Z" fill="#67AEC1"/>
<path d="M117.562 198.667C117.562 199.37 118.579 199.949 119.887 199.949C121.195 199.949 122.212 199.37 122.212 198.667C122.212 197.963 121.195 197.384 119.887 197.384C118.579 197.384 117.562 197.963 117.562 198.667Z" fill="#67AEC1"/>
<path d="M97.6582 211.163C97.6582 211.867 98.6752 212.446 99.9827 212.446C101.29 212.446 102.307 211.867 102.307 211.163C102.307 210.46 101.29 209.881 99.9827 209.881C98.6752 209.881 97.6582 210.46 97.6582 211.163Z" fill="#67AEC1"/>
<path d="M104.268 211.163C104.268 211.867 105.285 212.446 106.592 212.446C107.9 212.446 108.917 211.867 108.917 211.163C108.917 210.46 107.9 209.881 106.592 209.881C105.357 209.881 104.268 210.46 104.268 211.163Z" fill="#67AEC1"/>
<path d="M110.951 211.163C110.951 211.867 111.968 212.446 113.276 212.446C114.583 212.446 115.6 211.867 115.6 211.163C115.6 210.46 114.583 209.881 113.276 209.881C111.968 209.881 110.951 210.46 110.951 211.163Z" fill="#67AEC1"/>
<path d="M117.562 211.163C117.562 211.867 118.579 212.446 119.887 212.446C121.195 212.446 122.212 211.867 122.212 211.163C122.212 210.46 121.195 209.881 119.887 209.881C118.579 209.881 117.562 210.46 117.562 211.163Z" fill="#67AEC1"/>
<path d="M97.6582 223.619C97.6582 224.322 98.6752 224.902 99.9827 224.902C101.29 224.902 102.307 224.322 102.307 223.619C102.307 222.915 101.29 222.336 99.9827 222.336C98.6752 222.336 97.6582 222.915 97.6582 223.619Z" fill="#67AEC1"/>
<path d="M104.268 223.619C104.268 224.322 105.285 224.902 106.592 224.902C107.9 224.902 108.917 224.322 108.917 223.619C108.917 222.915 107.9 222.336 106.592 222.336C105.357 222.336 104.268 222.915 104.268 223.619Z" fill="#67AEC1"/>
<path d="M110.951 223.619C110.951 224.322 111.968 224.902 113.276 224.902C114.583 224.902 115.6 224.322 115.6 223.619C115.6 222.915 114.583 222.336 113.276 222.336C111.968 222.336 110.951 222.915 110.951 223.619Z" fill="#67AEC1"/>
<path d="M117.562 223.619C117.562 224.322 118.579 224.902 119.887 224.902C121.195 224.902 122.212 224.322 122.212 223.619C122.212 222.915 121.195 222.336 119.887 222.336C118.579 222.336 117.562 222.915 117.562 223.619Z" fill="#67AEC1"/>
<path d="M97.6582 236.116C97.6582 236.819 98.6752 237.398 99.9827 237.398C101.29 237.398 102.307 236.819 102.307 236.116C102.307 235.412 101.29 234.833 99.9827 234.833C98.6752 234.833 97.6582 235.412 97.6582 236.116Z" fill="#67AEC1"/>
<path d="M104.268 236.116C104.268 236.819 105.285 237.398 106.592 237.398C107.9 237.398 108.917 236.819 108.917 236.116C108.917 235.412 107.9 234.833 106.592 234.833C105.357 234.833 104.268 235.412 104.268 236.116Z" fill="#67AEC1"/>
<path d="M110.951 236.116C110.951 236.819 111.968 237.398 113.276 237.398C114.583 237.398 115.6 236.819 115.6 236.116C115.6 235.412 114.583 234.833 113.276 234.833C111.968 234.833 110.951 235.412 110.951 236.116Z" fill="#67AEC1"/>
<path d="M117.562 236.116C117.562 236.819 118.579 237.398 119.887 237.398C121.195 237.398 122.212 236.819 122.212 236.116C122.212 235.412 121.195 234.833 119.887 234.833C118.579 234.833 117.562 235.412 117.562 236.116Z" fill="#67AEC1"/>
<path d="M97.6582 248.612C97.6582 249.316 98.6752 249.895 99.9827 249.895C101.29 249.895 102.307 249.316 102.307 248.612C102.307 247.909 101.29 247.33 99.9827 247.33C98.6752 247.33 97.6582 247.909 97.6582 248.612Z" fill="#67AEC1"/>
<path d="M104.268 248.612C104.268 249.316 105.285 249.895 106.592 249.895C107.9 249.895 108.917 249.316 108.917 248.612C108.917 247.909 107.9 247.33 106.592 247.33C105.357 247.33 104.268 247.909 104.268 248.612Z" fill="#67AEC1"/>
<path d="M110.951 248.612C110.951 249.316 111.968 249.895 113.276 249.895C114.583 249.895 115.6 249.316 115.6 248.612C115.6 247.909 114.583 247.33 113.276 247.33C111.968 247.33 110.951 247.909 110.951 248.612Z" fill="#67AEC1"/>
<path d="M117.562 248.612C117.562 249.316 118.579 249.895 119.887 249.895C121.195 249.895 122.212 249.316 122.212 248.612C122.212 247.909 121.195 247.33 119.887 247.33C118.579 247.33 117.562 247.909 117.562 248.612Z" fill="#67AEC1"/>
<path d="M97.6582 261.109C97.6582 261.813 98.6752 262.392 99.9827 262.392C101.29 262.392 102.307 261.813 102.307 261.109C102.307 260.406 101.29 259.826 99.9827 259.826C98.6752 259.826 97.6582 260.406 97.6582 261.109Z" fill="#67AEC1"/>
<path d="M104.268 261.109C104.268 261.813 105.285 262.392 106.592 262.392C107.9 262.392 108.917 261.813 108.917 261.109C108.917 260.406 107.9 259.826 106.592 259.826C105.357 259.826 104.268 260.406 104.268 261.109Z" fill="#67AEC1"/>
<path d="M110.951 261.109C110.951 261.813 111.968 262.392 113.276 262.392C114.583 262.392 115.6 261.813 115.6 261.109C115.6 260.406 114.583 259.826 113.276 259.826C111.968 259.826 110.951 260.406 110.951 261.109Z" fill="#67AEC1"/>
<path d="M117.562 261.109C117.562 261.813 118.579 262.392 119.887 262.392C121.195 262.392 122.212 261.813 122.212 261.109C122.212 260.406 121.195 259.826 119.887 259.826C118.579 259.826 117.562 260.406 117.562 261.109Z" fill="#67AEC1"/>
<path d="M323.504 268.306H253.109V275.353H323.504V268.306Z" fill="#0053CC"/>
<g opacity="0.2">
<path opacity="0.2" d="M256.662 269.312H254.916V274.346H256.662V269.312Z" fill="#0F264C"/>
<path opacity="0.2" d="M259.793 269.312H258.047V274.346H259.793V269.312Z" fill="#0F264C"/>
<path opacity="0.2" d="M262.865 269.312H261.119V274.346H262.865V269.312Z" fill="#0F264C"/>
<path opacity="0.2" d="M265.936 269.312H264.189V274.346H265.936V269.312Z" fill="#0F264C"/>
<path opacity="0.2" d="M269.067 269.312H267.32V274.346H269.067V269.312Z" fill="#0F264C"/>
<path opacity="0.2" d="M272.139 269.312H270.393V274.346H272.139V269.312Z" fill="#0F264C"/>
<path opacity="0.2" d="M275.27 269.312H273.523V274.346H275.27V269.312Z" fill="#0F264C"/>
<path opacity="0.2" d="M278.34 269.312H276.594V274.346H278.34V269.312Z" fill="#0F264C"/>
<path opacity="0.2" d="M281.473 269.312H279.727V274.346H281.473V269.312Z" fill="#0F264C"/>
<path opacity="0.2" d="M284.543 269.312H282.797V274.346H284.543V269.312Z" fill="#0F264C"/>
<path opacity="0.2" d="M287.614 269.312H285.867V274.346H287.614V269.312Z" fill="#0F264C"/>
<path opacity="0.2" d="M290.746 269.312H289V274.346H290.746V269.312Z" fill="#0F264C"/>
<path opacity="0.2" d="M293.817 269.312H292.07V274.346H293.817V269.312Z" fill="#0F264C"/>
<path opacity="0.2" d="M296.947 269.312H295.201V274.346H296.947V269.312Z" fill="#0F264C"/>
<path opacity="0.2" d="M300.02 269.312H298.273V274.346H300.02V269.312Z" fill="#0F264C"/>
<path opacity="0.2" d="M303.151 269.312H301.404V274.346H303.151V269.312Z" fill="#0F264C"/>
<path opacity="0.2" d="M306.221 269.312H304.475V274.346H306.221V269.312Z" fill="#0F264C"/>
<path opacity="0.2" d="M309.293 269.312H307.547V274.346H309.293V269.312Z" fill="#0F264C"/>
<path opacity="0.2" d="M312.424 269.312H310.678V274.346H312.424V269.312Z" fill="#0F264C"/>
<path opacity="0.2" d="M315.494 269.312H313.748V274.346H315.494V269.312Z" fill="#0F264C"/>
<path opacity="0.2" d="M318.627 269.312H316.881V274.346H318.627V269.312Z" fill="#0F264C"/>
<path opacity="0.2" d="M321.697 269.312H319.951V274.346H321.697V269.312Z" fill="#0F264C"/>
</g>
<path d="M323.546 275.377H334.506V268.33H323.546V275.377Z" fill="#0050AF"/>
<path d="M323.505 143.36H249.438V268.305H323.505V143.36Z" fill="#4EA4F9"/>
<path d="M333.32 142.301H254.314V143.36H333.32V142.301Z" fill="#0D6AB7"/>
<path d="M247.089 201.594H246.486V206.84H247.089V201.594Z" fill="#197BDD"/>
<path d="M247.089 208.641H246.486V222.312H247.089V208.641Z" fill="#197BDD"/>
<path d="M323.537 268.332H338.17V143.387H323.537V268.332Z" fill="#197BDD"/>
<path opacity="0.6" d="M319.832 188.824H253.11C252.026 188.824 251.123 188.029 251.123 187.075V178.12C251.123 177.167 252.026 176.372 253.11 176.372H319.832C320.916 176.372 321.819 177.167 321.819 178.12V187.075C321.819 188.029 320.916 188.824 319.832 188.824Z" fill="#0D6AB7"/>
<path d="M315.856 180.982L313.025 175.789V189.46H315.976H316.759H321.817V182.624H318.867C317.602 182.624 316.398 181.989 315.856 180.982Z" fill="#197BDD"/>
<path d="M321.817 144.897H251.182V158.568H321.817V144.897Z" fill="#2B97EF"/>
<path d="M321.817 253.045H251.182V266.716H321.817V253.045Z" fill="#2B97EF"/>
<path d="M321.817 237.573H251.182V251.243H321.817V237.573Z" fill="#2B97EF"/>
<path d="M321.817 222.153H251.182V235.824H321.817V222.153Z" fill="#2B97EF"/>
<path d="M321.817 206.681H251.182V220.352H321.817V206.681Z" fill="#2B97EF"/>
<path d="M321.817 191.261H251.182V204.932H321.817V191.261Z" fill="#2B97EF"/>
<path d="M313.026 175.789H242.391V189.46H313.026V175.789Z" fill="#2B97EF"/>
<path d="M321.817 160.316H251.182V173.987H321.817V160.316Z" fill="#2B97EF"/>
<path d="M317.423 156.607H290.566C289.301 156.607 288.277 155.706 288.277 154.594V148.818C288.277 147.705 289.301 146.804 290.566 146.804H317.423C318.687 146.804 319.711 147.705 319.711 148.818V154.594C319.651 155.706 318.627 156.607 317.423 156.607Z" fill="#197BDD"/>
<path opacity="0.2" d="M304.896 152.103V151.309C304.896 150.832 305.318 150.461 305.86 150.461H314.592C315.134 150.461 315.555 150.832 315.555 151.309V152.103C315.555 152.58 315.134 152.951 314.592 152.951H305.86C305.318 152.951 304.896 152.58 304.896 152.103Z" fill="white"/>
<path d="M317.423 172.08H290.566C289.301 172.08 288.277 171.179 288.277 170.066V164.291C288.277 163.178 289.301 162.277 290.566 162.277H317.423C318.687 162.277 319.711 163.178 319.711 164.291V170.066C319.651 171.179 318.627 172.08 317.423 172.08Z" fill="#197BDD"/>
<path opacity="0.2" d="M304.896 167.576V166.781C304.896 166.304 305.318 165.933 305.86 165.933H314.592C315.134 165.933 315.555 166.304 315.555 166.781V167.576C315.555 168.053 315.134 168.424 314.592 168.424H305.86C305.318 168.424 304.896 168.053 304.896 167.576Z" fill="white"/>
<path d="M308.63 187.499H281.773C280.508 187.499 279.484 186.598 279.484 185.486V179.71C279.484 178.597 280.508 177.696 281.773 177.696H308.63C309.894 177.696 310.918 178.597 310.918 179.71V185.486C310.858 186.598 309.834 187.499 308.63 187.499Z" fill="#197BDD"/>
<path opacity="0.2" d="M296.105 183.048V182.253C296.105 181.776 296.527 181.406 297.069 181.406H305.801C306.343 181.406 306.764 181.776 306.764 182.253V183.048C306.764 183.525 306.343 183.896 305.801 183.896H297.069C296.527 183.896 296.105 183.525 296.105 183.048Z" fill="white"/>
<path d="M317.423 202.972H290.566C289.301 202.972 288.277 202.071 288.277 200.958V195.182C288.277 194.07 289.301 193.169 290.566 193.169H317.423C318.687 193.169 319.711 194.07 319.711 195.182V200.958C319.651 202.071 318.627 202.972 317.423 202.972Z" fill="#197BDD"/>
<path opacity="0.2" d="M304.896 198.468V197.673C304.896 197.196 305.318 196.825 305.86 196.825H314.592C315.134 196.825 315.555 197.196 315.555 197.673V198.468C315.555 198.944 315.134 199.315 314.592 199.315H305.86C305.318 199.315 304.896 198.944 304.896 198.468Z" fill="white"/>
<path d="M317.423 218.444H290.566C289.301 218.444 288.277 217.543 288.277 216.43V210.655C288.277 209.542 289.301 208.641 290.566 208.641H317.423C318.687 208.641 319.711 209.542 319.711 210.655V216.43C319.651 217.543 318.627 218.444 317.423 218.444Z" fill="#197BDD"/>
<path opacity="0.2" d="M304.896 213.94V213.145C304.896 212.668 305.318 212.297 305.86 212.297H314.592C315.134 212.297 315.555 212.668 315.555 213.145V213.94C315.555 214.417 315.134 214.788 314.592 214.788H305.86C305.318 214.788 304.896 214.417 304.896 213.94Z" fill="white"/>
<path d="M317.423 233.863H290.566C289.301 233.863 288.277 232.963 288.277 231.85V226.074C288.277 224.961 289.301 224.061 290.566 224.061H317.423C318.687 224.061 319.711 224.961 319.711 226.074V231.85C319.651 232.963 318.627 233.863 317.423 233.863Z" fill="#197BDD"/>
<path opacity="0.2" d="M304.896 229.413V228.618C304.896 228.141 305.318 227.77 305.86 227.77H314.592C315.134 227.77 315.555 228.141 315.555 228.618V229.413C315.555 229.889 315.134 230.26 314.592 230.26H305.86C305.318 230.26 304.896 229.836 304.896 229.413Z" fill="white"/>
<path d="M317.423 249.336H290.566C289.301 249.336 288.277 248.435 288.277 247.322V241.547C288.277 240.434 289.301 239.533 290.566 239.533H317.423C318.687 239.533 319.711 240.434 319.711 241.547V247.322C319.651 248.435 318.627 249.336 317.423 249.336Z" fill="#197BDD"/>
<path opacity="0.2" d="M304.896 244.832V244.037C304.896 243.56 305.318 243.189 305.86 243.189H314.592C315.134 243.189 315.555 243.56 315.555 244.037V244.832C315.555 245.309 315.134 245.68 314.592 245.68H305.86C305.318 245.68 304.896 245.309 304.896 244.832Z" fill="white"/>
<path d="M317.423 264.755H290.566C289.301 264.755 288.277 263.855 288.277 262.742V256.966C288.277 255.853 289.301 254.953 290.566 254.953H317.423C318.687 254.953 319.711 255.853 319.711 256.966V262.742C319.651 263.855 318.627 264.755 317.423 264.755Z" fill="#197BDD"/>
<path opacity="0.2" d="M304.896 260.304V259.51C304.896 259.033 305.318 258.662 305.86 258.662H314.592C315.134 258.662 315.555 259.033 315.555 259.51V260.304C315.555 260.781 315.134 261.152 314.592 261.152H305.86C305.318 261.152 304.896 260.781 304.896 260.304Z" fill="white"/>
<path d="M282.797 153.322C283.794 153.322 284.603 152.61 284.603 151.732C284.603 150.854 283.794 150.143 282.797 150.143C281.799 150.143 280.99 150.854 280.99 151.732C280.99 152.61 281.799 153.322 282.797 153.322Z" fill="#197BDD"/>
<path d="M277.678 153.322C278.675 153.322 279.484 152.61 279.484 151.732C279.484 150.854 278.675 150.143 277.678 150.143C276.68 150.143 275.871 150.854 275.871 151.732C275.871 152.61 276.68 153.322 277.678 153.322Z" fill="#197BDD"/>
<path d="M272.558 153.322C273.556 153.322 274.365 152.61 274.365 151.732C274.365 150.854 273.556 150.143 272.558 150.143C271.561 150.143 270.752 150.854 270.752 151.732C270.752 152.61 271.561 153.322 272.558 153.322Z" fill="#64B9FF"/>
<path d="M269.187 151.732C269.187 152.58 268.404 153.322 267.381 153.322C266.417 153.322 265.574 152.633 265.574 151.732C265.574 150.885 266.357 150.143 267.381 150.143C268.404 150.143 269.187 150.832 269.187 151.732Z" fill="#197BDD"/>
<path d="M282.797 168.795C283.794 168.795 284.603 168.083 284.603 167.205C284.603 166.327 283.794 165.615 282.797 165.615C281.799 165.615 280.99 166.327 280.99 167.205C280.99 168.083 281.799 168.795 282.797 168.795Z" fill="#197BDD"/>
<path d="M277.678 168.795C278.675 168.795 279.484 168.083 279.484 167.205C279.484 166.327 278.675 165.615 277.678 165.615C276.68 165.615 275.871 166.327 275.871 167.205C275.871 168.083 276.68 168.795 277.678 168.795Z" fill="#197BDD"/>
<path d="M272.558 168.795C273.556 168.795 274.365 168.083 274.365 167.205C274.365 166.327 273.556 165.615 272.558 165.615C271.561 165.615 270.752 166.327 270.752 167.205C270.752 168.083 271.561 168.795 272.558 168.795Z" fill="#197BDD"/>
<path d="M269.187 167.205C269.187 168.053 268.404 168.795 267.381 168.795C266.417 168.795 265.574 168.106 265.574 167.205C265.574 166.357 266.357 165.615 267.381 165.615C268.404 165.615 269.187 166.304 269.187 167.205Z" fill="#64B9FF"/>
<path d="M274.006 184.214C275.003 184.214 275.812 183.502 275.812 182.624C275.812 181.746 275.003 181.035 274.006 181.035C273.008 181.035 272.199 181.746 272.199 182.624C272.199 183.502 273.008 184.214 274.006 184.214Z" fill="#64B9FF"/>
<path d="M268.887 184.214C269.884 184.214 270.693 183.502 270.693 182.624C270.693 181.746 269.884 181.035 268.887 181.035C267.889 181.035 267.08 181.746 267.08 182.624C267.08 183.502 267.889 184.214 268.887 184.214Z" fill="#197BDD"/>
<path d="M263.769 184.214C264.767 184.214 265.576 183.502 265.576 182.624C265.576 181.746 264.767 181.035 263.769 181.035C262.772 181.035 261.963 181.746 261.963 182.624C261.963 183.502 262.772 184.214 263.769 184.214Z" fill="#64B9FF"/>
<path d="M258.65 184.214C259.648 184.214 260.457 183.502 260.457 182.624C260.457 181.746 259.648 181.035 258.65 181.035C257.653 181.035 256.844 181.746 256.844 182.624C256.844 183.502 257.653 184.214 258.65 184.214Z" fill="#197BDD"/>
<path d="M282.797 199.686C283.794 199.686 284.603 198.975 284.603 198.097C284.603 197.219 283.794 196.507 282.797 196.507C281.799 196.507 280.99 197.219 280.99 198.097C280.99 198.975 281.799 199.686 282.797 199.686Z" fill="#64B9FF"/>
<path d="M277.678 199.686C278.675 199.686 279.484 198.975 279.484 198.097C279.484 197.219 278.675 196.507 277.678 196.507C276.68 196.507 275.871 197.219 275.871 198.097C275.871 198.975 276.68 199.686 277.678 199.686Z" fill="#64B9FF"/>
<path d="M272.558 199.686C273.556 199.686 274.365 198.975 274.365 198.097C274.365 197.219 273.556 196.507 272.558 196.507C271.561 196.507 270.752 197.219 270.752 198.097C270.752 198.975 271.561 199.686 272.558 199.686Z" fill="#197BDD"/>
<path d="M269.187 198.097C269.187 198.945 268.404 199.686 267.381 199.686C266.417 199.686 265.574 198.998 265.574 198.097C265.574 197.196 266.357 196.507 267.381 196.507C268.404 196.507 269.187 197.196 269.187 198.097Z" fill="#197BDD"/>
<path d="M282.797 215.106C283.794 215.106 284.603 214.394 284.603 213.516C284.603 212.638 283.794 211.927 282.797 211.927C281.799 211.927 280.99 212.638 280.99 213.516C280.99 214.394 281.799 215.106 282.797 215.106Z" fill="#197BDD"/>
<path d="M277.678 215.106C278.675 215.106 279.484 214.394 279.484 213.516C279.484 212.638 278.675 211.927 277.678 211.927C276.68 211.927 275.871 212.638 275.871 213.516C275.871 214.394 276.68 215.106 277.678 215.106Z" fill="#64B9FF"/>
<path d="M272.558 215.106C273.556 215.106 274.365 214.394 274.365 213.516C274.365 212.638 273.556 211.927 272.558 211.927C271.561 211.927 270.752 212.638 270.752 213.516C270.752 214.394 271.561 215.106 272.558 215.106Z" fill="#197BDD"/>
<path d="M269.187 213.516C269.187 214.364 268.404 215.106 267.381 215.106C266.417 215.106 265.574 214.417 265.574 213.516C265.574 212.668 266.357 211.927 267.381 211.927C268.404 211.98 269.187 212.668 269.187 213.516Z" fill="#197BDD"/>
<path d="M282.797 230.578C283.794 230.578 284.603 229.866 284.603 228.989C284.603 228.111 283.794 227.399 282.797 227.399C281.799 227.399 280.99 228.111 280.99 228.989C280.99 229.866 281.799 230.578 282.797 230.578Z" fill="#197BDD"/>
<path d="M277.678 230.578C278.675 230.578 279.484 229.866 279.484 228.989C279.484 228.111 278.675 227.399 277.678 227.399C276.68 227.399 275.871 228.111 275.871 228.989C275.871 229.866 276.68 230.578 277.678 230.578Z" fill="#197BDD"/>
<path d="M272.558 230.578C273.556 230.578 274.365 229.866 274.365 228.989C274.365 228.111 273.556 227.399 272.558 227.399C271.561 227.399 270.752 228.111 270.752 228.989C270.752 229.866 271.561 230.578 272.558 230.578Z" fill="#64B9FF"/>
<path d="M269.187 228.989C269.187 229.836 268.404 230.578 267.381 230.578C266.417 230.578 265.574 229.889 265.574 228.989C265.574 228.088 266.357 227.399 267.381 227.399C268.404 227.399 269.187 228.088 269.187 228.989Z" fill="#64B9FF"/>
<path d="M284.603 244.461C284.603 245.309 283.82 246.051 282.797 246.051C281.773 246.051 280.99 245.362 280.99 244.461C280.99 243.613 281.773 242.871 282.797 242.871C283.82 242.871 284.603 243.56 284.603 244.461Z" fill="#64B9FF"/>
<path d="M279.484 244.461C279.484 245.309 278.701 246.051 277.678 246.051C276.714 246.051 275.871 245.362 275.871 244.461C275.871 243.613 276.654 242.871 277.678 242.871C278.701 242.871 279.484 243.56 279.484 244.461Z" fill="#197BDD"/>
<path d="M274.365 244.461C274.365 245.309 273.582 246.051 272.558 246.051C271.595 246.051 270.752 245.362 270.752 244.461C270.752 243.613 271.535 242.871 272.558 242.871C273.522 242.871 274.365 243.56 274.365 244.461Z" fill="#197BDD"/>
<path d="M269.187 244.461C269.187 245.309 268.404 246.051 267.381 246.051C266.417 246.051 265.574 245.362 265.574 244.461C265.574 243.613 266.357 242.871 267.381 242.871C268.404 242.871 269.187 243.56 269.187 244.461Z" fill="#197BDD"/>
<path d="M282.797 261.47C283.794 261.47 284.603 260.758 284.603 259.88C284.603 259.002 283.794 258.291 282.797 258.291C281.799 258.291 280.99 259.002 280.99 259.88C280.99 260.758 281.799 261.47 282.797 261.47Z" fill="#197BDD"/>
<path d="M277.678 261.47C278.675 261.47 279.484 260.758 279.484 259.88C279.484 259.002 278.675 258.291 277.678 258.291C276.68 258.291 275.871 259.002 275.871 259.88C275.871 260.758 276.68 261.47 277.678 261.47Z" fill="#197BDD"/>
<path d="M272.558 261.47C273.556 261.47 274.365 260.758 274.365 259.88C274.365 259.002 273.556 258.291 272.558 258.291C271.561 258.291 270.752 259.002 270.752 259.88C270.752 260.758 271.561 261.47 272.558 261.47Z" fill="#64B9FF"/>
<path d="M269.187 259.88C269.187 260.728 268.404 261.47 267.381 261.47C266.417 261.47 265.574 260.781 265.574 259.88C265.574 258.98 266.357 258.291 267.381 258.291C268.404 258.291 269.187 259.033 269.187 259.88Z" fill="#197BDD"/>
<path opacity="0.2" d="M262.022 151.732C262.022 153.64 260.275 155.176 258.108 155.176C255.94 155.176 254.193 153.64 254.193 151.732C254.193 149.825 255.94 148.288 258.108 148.288C260.336 148.288 262.022 149.825 262.022 151.732Z" fill="white"/>
<path opacity="0.2" d="M262.022 167.205C262.022 169.112 260.275 170.649 258.108 170.649C255.94 170.649 254.193 169.112 254.193 167.205C254.193 165.297 255.94 163.761 258.108 163.761C260.336 163.761 262.022 165.297 262.022 167.205Z" fill="white"/>
<path opacity="0.2" d="M253.231 182.624C253.231 184.532 251.484 186.068 249.317 186.068C247.149 186.068 245.402 184.532 245.402 182.624C245.402 180.717 247.149 179.18 249.317 179.18C251.545 179.233 253.231 180.717 253.231 182.624Z" fill="white"/>
<path opacity="0.2" d="M262.022 198.097C262.022 200.004 260.275 201.541 258.108 201.541C255.94 201.541 254.193 200.004 254.193 198.097C254.193 196.189 255.94 194.652 258.108 194.652C260.336 194.652 262.022 196.189 262.022 198.097Z" fill="white"/>
<path opacity="0.2" d="M262.022 213.516C262.022 215.424 260.275 216.96 258.108 216.96C255.94 216.96 254.193 215.424 254.193 213.516C254.193 211.609 255.94 210.072 258.108 210.072C260.336 210.125 262.022 211.662 262.022 213.516Z" fill="white"/>
<path opacity="0.2" d="M262.022 228.989C262.022 230.896 260.275 232.433 258.108 232.433C255.94 232.433 254.193 230.896 254.193 228.989C254.193 227.081 255.94 225.544 258.108 225.544C260.336 225.544 262.022 227.081 262.022 228.989Z" fill="white"/>
<path opacity="0.2" d="M262.022 244.461C262.022 246.369 260.275 247.905 258.108 247.905C255.94 247.905 254.193 246.369 254.193 244.461C254.193 242.553 255.94 241.017 258.108 241.017C260.336 241.017 262.022 242.553 262.022 244.461Z" fill="white"/>
<path opacity="0.2" d="M262.022 259.88C262.022 261.788 260.275 263.325 258.108 263.325C255.94 263.325 254.193 261.788 254.193 259.88C254.193 257.973 255.94 256.436 258.108 256.436C260.336 256.489 262.022 257.973 262.022 259.88Z" fill="white"/>
<path d="M392 270.094H14V270.321H392V270.094Z" fill="#EBEBEB"/>
<path d="M193.172 236.377H47.1881C44.8445 236.377 42.8789 234.411 42.8789 232.068V26.8892C42.8789 24.5456 44.8445 22.58 47.1881 22.58H193.172C195.515 22.58 197.481 24.5456 197.481 26.8892V232.068C197.481 234.411 195.591 236.377 193.172 236.377ZM47.1881 22.7312C44.9201 22.7312 43.0301 24.5456 43.0301 26.8892V232.068C43.0301 234.336 44.8445 236.226 47.1881 236.226H193.172C195.44 236.226 197.33 234.411 197.33 232.068V26.8892C197.33 24.6212 195.515 22.7312 193.172 22.7312H47.1881Z" fill="#EBEBEB"/>
<path d="M356.695 236.377H210.712C208.368 236.377 206.402 234.411 206.402 232.068V26.8892C206.402 24.5456 208.368 22.58 210.712 22.58H356.695C359.039 22.58 361.004 24.5456 361.004 26.8892V232.068C361.004 234.411 359.114 236.377 356.695 236.377ZM210.712 22.7312C208.444 22.7312 206.554 24.5456 206.554 26.8892V232.068C206.554 234.336 208.368 236.226 210.712 236.226H356.695C358.963 236.226 360.853 234.411 360.853 232.068V26.8892C360.853 24.6212 359.039 22.7312 356.695 22.7312H210.712Z" fill="#EBEBEB"/>
<path d="M354.124 277.276H330.234V277.503H354.124V277.276Z" fill="#EBEBEB"/>
<path d="M267.487 275.235H242.236V275.462H267.487V275.235Z" fill="#EBEBEB"/>
<path d="M361.004 284.307H313.83V284.534H361.004V284.307Z" fill="#EBEBEB"/>
<path d="M68.2047 283.022H53.6895V283.249H68.2047V283.022Z" fill="#EBEBEB"/>
<path d="M97.8404 283.022H74.9336V283.249H97.8404V283.022Z" fill="#EBEBEB"/>
<path d="M198.615 279.847H157.338V280.074H198.615V279.847Z" fill="#EBEBEB"/>
<path d="M203.001 304.19C283.959 304.19 349.589 300.365 349.589 295.647C349.589 290.929 283.959 287.104 203.001 287.104C122.042 287.104 56.4121 290.929 56.4121 295.647C56.4121 300.365 122.042 304.19 203.001 304.19Z" fill="#7CC4FF"/>
<path d="M251.006 289.448L244.958 289.372L243.598 275.311L249.646 275.386L251.006 289.448Z" fill="#FFB573"/>
<path d="M282.229 289.448H276.181L271.494 275.462H277.542L282.229 289.448Z" fill="#FFB573"/>
<path d="M275.349 288.768H282.758C282.985 288.768 283.211 288.919 283.287 289.146L284.497 294.513C284.648 295.042 284.194 295.572 283.589 295.572C281.246 295.496 279.507 295.42 276.483 295.42C274.669 295.42 269.074 295.647 266.504 295.647C264.009 295.647 263.631 293.152 264.689 292.926C269.377 291.867 272.854 290.506 274.366 289.146C274.669 288.919 275.047 288.768 275.349 288.768Z" fill="#263238"/>
<path d="M245.034 288.692L251.687 288.768C251.913 288.768 252.14 288.919 252.216 289.221L253.35 294.664C253.501 295.194 253.047 295.723 252.443 295.723C250.023 295.647 246.621 295.42 243.597 295.42C240.12 295.345 237.02 295.496 232.938 295.42C230.443 295.345 229.763 292.85 230.821 292.623C235.584 291.64 239.439 291.64 243.597 289.146C243.975 288.843 244.505 288.616 245.034 288.692Z" fill="#263238"/>
<path d="M248.737 108.613C246.772 112.922 244.73 117.004 242.311 121.087C241.102 123.128 239.892 125.094 238.607 127.059C237.322 129.025 235.885 130.99 234.298 132.88L233.693 133.561L233.39 133.939C233.315 134.09 233.239 134.166 233.012 134.392C232.332 135.148 231.349 135.98 229.762 136.509C229.006 136.736 228.174 136.812 227.342 136.736C226.511 136.66 225.906 136.434 225.301 136.207C224.167 135.678 223.411 135.073 222.806 134.468C221.597 133.258 220.841 132.124 220.16 130.99C219.48 129.856 218.951 128.722 218.422 127.588C216.456 123.128 215.246 118.668 214.264 114.056L218.648 112.695C219.556 114.661 220.538 116.702 221.521 118.668C222.504 120.633 223.562 122.599 224.696 124.338C225.226 125.245 225.83 126.076 226.435 126.832C227.04 127.588 227.645 128.269 228.098 128.647C228.325 128.798 228.476 128.874 228.401 128.798C228.325 128.722 228.25 128.722 228.023 128.647C227.796 128.571 227.569 128.647 227.342 128.722C226.889 128.874 226.813 128.949 226.889 128.874L227.72 127.74C230.14 124.338 232.332 120.482 234.449 116.626C236.566 112.771 238.531 108.764 240.421 104.833L248.737 108.613Z" fill="#FFB573"/>
<path d="M251.308 104.833C252.971 110.427 241.404 125.547 241.404 125.547L229.762 118.063C229.762 118.063 233.164 110.352 237.775 104.379C242.614 98.4069 249.493 98.7093 251.308 104.833Z" fill="#407BFF"/>
<path opacity="0.2" d="M251.308 104.833C252.971 110.427 241.404 125.547 241.404 125.547L229.762 118.063C229.762 118.063 233.164 110.352 237.775 104.379C242.614 98.4069 249.493 98.7093 251.308 104.833Z" fill="black"/>
<path opacity="0.2" d="M244.201 111.334C241.782 112.393 238.305 118.138 236.49 122.372L241.404 125.547C241.404 125.547 245.865 119.726 248.813 113.905C247.225 112.242 245.487 110.805 244.201 111.334Z" fill="black"/>
<path d="M218.574 114.888L220.086 108.008L213.206 107.932C213.206 107.932 211.392 113.073 215.096 115.492L218.574 114.888Z" fill="#FFB573"/>
<path d="M219.329 101.658L213.734 103.623L213.205 108.008H220.085L219.329 101.658Z" fill="#FFB573"/>
<path opacity="0.2" d="M243.598 275.311L244.278 282.568L250.402 282.644L249.646 275.386L243.598 275.311Z" fill="black"/>
<path opacity="0.2" d="M277.542 275.462H271.494L273.913 282.644H279.961L277.542 275.462Z" fill="black"/>
<path d="M278.297 102.338C271.795 125.396 273.081 149.89 272.476 154.804C267.713 154.426 249.871 153.141 240.119 152.385C235.885 117.836 244.353 100.07 244.353 100.07C244.353 100.07 246.469 99.6921 249.267 99.3897C250.174 99.3141 251.081 99.2385 252.139 99.1629C252.669 99.1629 253.273 99.0872 253.803 99.0872C257.431 99.0116 263.479 99.6165 267.562 100.146C268.393 100.221 269.301 100.372 270.132 100.524C270.888 100.675 271.72 100.826 272.4 100.977C275.802 101.658 278.297 102.338 278.297 102.338Z" fill="#407BFF"/>
<path opacity="0.2" d="M278.297 102.338C271.795 125.396 273.081 149.89 272.476 154.804C267.713 154.426 249.871 153.141 240.119 152.385C235.885 117.836 244.353 100.07 244.353 100.07C244.353 100.07 246.469 99.6921 249.267 99.3897C250.174 99.3141 251.081 99.2385 252.139 99.1629C252.669 99.1629 253.273 99.0872 253.803 99.0872C257.431 99.0116 263.479 99.6165 267.562 100.146C268.393 100.221 269.301 100.372 270.132 100.524C270.888 100.675 271.72 100.826 272.4 100.977C275.802 101.658 278.297 102.338 278.297 102.338Z" fill="black"/>
<path opacity="0.2" d="M271.418 112.242C270.813 114.434 271.493 124.64 273.837 127.135C274.139 123.884 274.593 120.482 275.122 117.004L271.418 112.242Z" fill="black"/>
<path d="M267.411 84.572C266.201 88.9568 264.765 96.9704 267.638 100.146C265.067 102.338 261.665 104.908 256.449 104.682C251.157 104.455 252.367 100.902 253.879 99.0872C258.868 98.2556 259.019 94.6268 258.415 91.0736L267.411 84.572Z" fill="#FFB573"/>
<path d="M267.108 98.936C267.108 98.936 264.916 102.489 256.146 104.682C257.583 106.042 258.263 109.218 258.263 109.218C258.263 109.218 269.679 106.496 269.376 100.07C268.847 99.4652 267.108 98.936 267.108 98.936Z" fill="#263238"/>
<path d="M253.048 108.462C253.048 108.462 254.182 105.664 256.147 104.757C255.24 103.774 253.879 100.977 254.711 98.8604C253.35 98.7848 252.67 99.0116 252.67 99.0116C252.67 99.0116 249.192 103.321 253.048 108.462Z" fill="#263238"/>
<path d="M255.768 108.537C255.692 109.142 255.314 109.596 255.012 109.52C254.71 109.444 254.483 108.915 254.634 108.31C254.71 107.706 255.088 107.252 255.39 107.328C255.768 107.403 255.919 107.932 255.768 108.537Z" fill="#263238"/>
<path d="M255.315 111.939C255.239 112.544 254.937 112.998 254.635 112.998C254.332 112.998 254.105 112.468 254.105 111.864C254.181 111.259 254.483 110.805 254.786 110.805C255.088 110.805 255.315 111.334 255.315 111.939Z" fill="#263238"/>
<path opacity="0.2" d="M263.706 87.2937L258.414 91.1493C258.565 91.9809 258.641 92.8125 258.641 93.6441C260.531 93.4929 263.328 91.6029 263.63 89.6373C263.782 88.7301 263.857 87.7473 263.706 87.2937Z" fill="black"/>
<path d="M255.24 68.0912C250.552 68.0156 249.57 79.3556 252.594 81.3968C255.693 83.3624 264.085 68.318 255.24 68.0912Z" fill="#263238"/>
<path d="M268.393 77.9949C267.561 83.9673 267.41 87.5205 264.159 90.3177C259.245 94.6269 252.063 91.3005 251.081 85.2525C250.173 79.7336 251.685 70.9641 257.733 68.9985C263.706 67.0329 269.225 72.0225 268.393 77.9949Z" fill="#FFB573"/>
<path d="M267.563 83.8161C264.539 85.4037 261.062 68.9229 269.075 69.7545C279.13 70.8129 273.611 80.6409 267.563 83.8161Z" fill="#263238"/>
<path d="M254.105 69.7544C254.105 73.4589 266.126 77.0877 270.208 75.8781C274.291 74.5928 275.349 71.342 273.157 69.074C269.377 65.1428 254.105 62.4968 254.105 69.7544Z" fill="#263238"/>
<path d="M254.558 70.2081C254.558 70.2081 254.861 71.8713 256.297 73.4589C255.239 73.3833 254.18 71.8713 253.802 70.9641C253.5 70.1325 254.558 70.2081 254.558 70.2081Z" fill="#263238"/>
<path d="M270.587 84.7989C269.604 86.0841 268.168 86.8401 266.807 87.0669C264.841 87.3693 264.085 85.4793 264.841 83.7405C265.522 82.1529 267.412 80.1117 269.302 80.6409C271.267 81.1701 271.721 83.2869 270.587 84.7989Z" fill="#FFB573"/>
<path d="M242.011 281.132L252.292 281.283C252.292 281.283 248.89 240.686 249.797 221.786C250.1 216.04 251.234 208.027 252.746 199.408C254.636 188.522 255.619 184.213 258.038 170.529C259.777 160.777 261.364 154.048 261.364 154.048L240.121 152.461C240.121 152.461 231.124 201.374 231.275 219.896C231.578 239.098 242.011 281.132 242.011 281.132Z" fill="#263238"/>
<path opacity="0.2" d="M253.953 166.976C250.098 176.502 250.022 198.804 251.837 205.078C252.139 203.188 252.441 201.298 252.819 199.408C254.709 188.522 255.692 184.213 258.111 170.529C258.187 170.227 258.187 170 258.263 169.698C256.902 168.564 255.465 167.581 253.953 166.976Z" fill="black"/>
<path d="M251.611 153.292C251.611 153.292 253.501 204.474 254.938 222.164C256.525 241.593 271.041 281.283 271.041 281.283H282.154C282.154 281.283 274.745 244.995 272.477 226.095C269.907 204.625 272.553 154.804 272.553 154.804L251.611 153.292Z" fill="#263238"/>
<path d="M269.68 281.51H282.834V277.579L268.168 277.352L269.68 281.51Z" fill="#407BFF"/>
<path d="M240.724 281.359L252.971 281.51L253.047 277.579L239.363 277.125L240.724 281.359Z" fill="#407BFF"/>
<path d="M259.171 78.9776C259.171 79.4312 258.868 79.8092 258.49 79.8092C258.188 79.8092 257.961 79.3556 257.961 78.902C257.961 78.4484 258.263 78.0704 258.641 78.0704C259.019 78.0704 259.246 78.4484 259.171 78.9776Z" fill="#263238"/>
<path d="M253.651 78.524C253.651 78.9776 253.349 79.3556 252.971 79.3556C252.668 79.3556 252.441 78.902 252.441 78.4484C252.441 77.9948 252.744 77.6168 253.122 77.6168C253.5 77.6924 253.727 78.0704 253.651 78.524Z" fill="#263238"/>
<path d="M255.39 78.9021C255.39 78.9021 254.105 81.6237 252.744 82.9089C253.576 83.8161 255.012 83.5137 255.012 83.5137L255.39 78.9021Z" fill="#ED893E"/>
<path d="M257.055 85.0256C258.945 84.95 259.852 83.6648 259.928 83.6648C260.003 83.5892 259.928 83.5136 259.928 83.438C259.852 83.3624 259.776 83.438 259.701 83.438C259.701 83.438 258.567 84.8744 256.45 84.7232C256.374 84.7232 256.299 84.7988 256.299 84.8744C256.299 84.95 256.374 85.0256 256.45 85.0256C256.601 85.0256 256.828 85.0256 257.055 85.0256Z" fill="#263238"/>
<path d="M260.986 77.3144C261.062 77.3144 261.062 77.3144 261.137 77.2388C261.289 77.1632 261.289 77.012 261.213 76.8608C260.381 75.5 259.021 75.5 258.945 75.5C258.794 75.5 258.643 75.6512 258.643 75.8024C258.643 75.9536 258.794 76.1048 258.945 76.1048C259.021 76.1048 260.003 76.1048 260.684 77.1632C260.835 77.2388 260.911 77.3144 260.986 77.3144Z" fill="#263238"/>
<path d="M251.459 76.4828C251.535 76.4828 251.61 76.4072 251.686 76.3316C252.291 75.1976 253.349 75.122 253.425 75.122C253.576 75.122 253.727 74.9708 253.727 74.8196C253.727 74.6684 253.576 74.5172 253.425 74.5172C253.349 74.5172 252.064 74.5928 251.232 75.9536C251.157 76.1048 251.232 76.256 251.308 76.3316C251.308 76.4828 251.384 76.4828 251.459 76.4828Z" fill="#263238"/>
<path d="M273.385 289.826C273.914 289.826 274.519 289.675 274.973 289.599C275.048 289.599 275.048 289.524 275.048 289.448C275.048 289.372 275.048 289.297 274.973 289.297C274.746 289.146 272.78 287.936 272.1 288.314C272.024 288.39 271.873 288.465 271.873 288.692C271.873 288.994 271.949 289.297 272.175 289.448C272.478 289.75 272.931 289.826 273.385 289.826ZM274.519 289.448C273.461 289.675 272.705 289.599 272.327 289.372C272.175 289.221 272.1 289.07 272.1 288.843C272.1 288.768 272.175 288.692 272.175 288.692C272.629 288.465 273.763 288.994 274.519 289.448Z" fill="#407BFF"/>
<path d="M274.896 289.599H274.972C275.047 289.599 275.047 289.524 275.047 289.448C275.047 289.372 274.896 287.634 274.216 287.029C274.065 286.878 273.838 286.802 273.611 286.878C273.233 286.953 273.157 287.104 273.157 287.256C273.006 287.936 274.216 289.297 274.896 289.599ZM273.687 287.18C273.838 287.18 273.913 287.256 273.989 287.331C274.443 287.709 274.669 288.692 274.669 289.221C274.065 288.768 273.309 287.709 273.384 287.331C273.46 287.256 273.46 287.18 273.687 287.18Z" fill="#407BFF"/>
<path d="M244.43 289.524C244.505 289.524 244.505 289.448 244.505 289.373C244.505 289.297 244.505 289.221 244.43 289.221C244.127 289.07 241.708 287.785 241.028 288.163C240.876 288.238 240.801 288.39 240.801 288.541C240.801 288.843 240.876 289.07 241.028 289.221C241.708 289.902 243.447 289.675 244.43 289.524ZM241.179 288.465C241.632 288.314 242.918 288.843 243.9 289.297C242.54 289.524 241.557 289.448 241.179 289.07C241.028 288.919 241.028 288.768 241.028 288.617C241.028 288.541 241.103 288.465 241.179 288.465Z" fill="#407BFF"/>
<path d="M244.429 289.524C244.429 289.448 244.429 289.448 244.429 289.524C244.504 289.448 244.504 289.448 244.504 289.372C244.504 289.297 244.353 287.634 243.597 287.029C243.37 286.802 243.068 286.726 242.841 286.802C242.463 286.802 242.312 287.029 242.312 287.18C242.161 287.86 243.597 289.221 244.353 289.524C244.353 289.524 244.353 289.524 244.429 289.524ZM242.69 287.029C242.69 287.029 242.765 287.029 242.841 287.029C243.068 287.029 243.219 287.104 243.446 287.256C243.975 287.709 244.126 288.692 244.202 289.146C243.446 288.692 242.463 287.634 242.539 287.256C242.539 287.18 242.539 287.104 242.69 287.029Z" fill="#407BFF"/>
<path d="M279.886 106.118C282.003 110.352 283.893 114.585 285.632 118.97C286.539 121.162 287.371 123.355 288.127 125.623C288.505 126.757 288.883 127.891 289.261 129.025L289.563 129.856L289.865 130.839C290.092 131.52 290.168 132.2 290.395 132.88C291.377 138.248 290.773 143.389 289.714 148.152C289.185 150.571 288.429 152.839 287.597 155.107C287.144 156.241 286.69 157.375 286.236 158.433C285.783 159.567 285.254 160.626 284.649 161.76L280.491 159.945C281.096 157.904 281.625 155.636 282.078 153.519C282.532 151.327 282.91 149.134 283.137 147.018C283.364 144.825 283.515 142.708 283.364 140.592C283.288 138.475 283.061 136.509 282.532 134.695C282.381 134.241 282.305 133.788 282.078 133.334C282.003 133.107 281.927 132.956 281.852 132.654L281.549 131.898C281.096 130.839 280.642 129.856 280.264 128.798C279.357 126.681 278.45 124.64 277.467 122.599L271.797 110.2L279.886 106.118Z" fill="#FFB573"/>
<path d="M278.298 102.338C283.816 104.077 289.26 122.826 289.26 122.826L276.483 128.42C276.483 128.42 272.325 119.348 269.982 112.242C267.411 104.53 271.645 100.297 278.298 102.338Z" fill="#407BFF"/>
<path opacity="0.2" d="M278.298 102.338C283.816 104.077 289.26 122.826 289.26 122.826L276.483 128.42C276.483 128.42 272.325 119.348 269.982 112.242C267.411 104.53 271.645 100.297 278.298 102.338Z" fill="black"/>
<path d="M280.717 158.962L277.693 164.33L284.724 166.144C284.724 166.144 286.841 160.928 284.346 159.265L280.717 158.962Z" fill="#FFB573"/>
<path d="M277.164 170.454L283.666 170.983L284.724 166.144L277.693 164.33L277.164 170.454Z" fill="#FFB573"/>
<path opacity="0.19" d="M238.304 199.711H78.4102L89.6746 39.7412H249.644L238.304 199.711Z" fill="#7AA3FF"/>
<path opacity="0.2" d="M114.396 199.711H91.4141L148.719 39.7412H171.777L114.396 199.711Z" fill="white"/>
<path opacity="0.2" d="M170.265 199.711H119.537L176.842 39.7412H227.645L170.265 199.711Z" fill="white"/>
<path d="M90.1286 67.0328L85.4414 66.7304L87.4826 37.3976H116.815V42.0848H91.8674L90.1286 67.0328Z" fill="#F6AC3B"/>
<path d="M105.551 202.054H75.8398L77.9566 172.344L82.6438 172.722L80.905 197.367H105.551V202.054Z" fill="#F6AC3B"/>
<path d="M250.022 67.0328L245.335 66.7304L247.074 42.0848H222.504V37.3976H252.139L250.022 67.0328Z" fill="#F6AC3B"/>
<path d="M240.497 202.054H211.164V197.367H236.188L237.926 172.344L242.614 172.722L240.497 202.054Z" fill="#F6AC3B"/>
<path d="M160.89 176.124C160.739 176.124 160.588 176.124 160.512 176.048C160.436 176.048 159.378 175.443 157.488 174.234C156.732 173.78 155.749 173.175 154.766 172.495C151.516 170.378 148.34 168.11 145.316 165.766C144.56 165.237 143.88 164.632 143.124 164.028C140.402 161.76 137.832 159.567 135.64 157.299C135.035 156.694 134.506 156.165 133.901 155.56C131.784 153.368 129.818 151.1 128.08 148.832C127.626 148.227 127.248 147.698 126.794 147.093C125.207 144.825 123.846 142.557 122.712 140.365C122.41 139.836 122.107 139.231 121.88 138.626C120.898 136.358 120.066 134.09 119.537 131.822C119.386 131.293 119.31 130.688 119.159 130.083C119.083 129.63 119.008 129.176 118.932 128.798C118.705 127.059 118.478 125.32 118.327 123.43C118.252 122.901 118.176 122.296 118.176 121.692C117.949 119.424 117.798 117.231 117.722 114.963V114.736C117.722 114.207 117.647 113.754 117.647 113.224C117.571 111.032 117.496 108.84 117.42 106.572V104.833C117.42 102.489 117.42 100.221 117.42 98.18C117.42 97.5752 117.42 97.046 117.42 96.4412C117.496 93.9464 117.571 91.754 117.647 89.7884V89.6372C117.647 89.108 117.722 88.5788 117.722 88.0496C117.874 85.6304 118.025 83.2868 118.176 81.3968C118.252 80.7164 118.252 80.1872 118.327 79.658C118.478 77.768 118.63 76.7096 118.63 76.7096C118.705 76.3316 119.008 76.0292 119.386 75.9536C119.537 75.9536 133.447 74.8952 148.34 72.2492C151.364 71.72 154.313 71.1152 157.034 70.5104C161.117 69.6032 164.821 68.6204 168.148 67.6376C168.299 67.562 168.526 67.562 168.677 67.6376C171.852 68.696 175.405 69.6032 179.336 70.5104C181.982 71.1152 184.855 71.72 187.804 72.2492C202.319 74.8952 216.078 75.9536 216.229 75.9536C216.683 75.9536 216.985 76.3316 216.985 76.7852C216.985 76.7852 216.985 77.8436 216.834 79.7336C216.834 80.2628 216.758 80.792 216.758 81.4724C216.683 83.438 216.456 85.706 216.305 88.1252C216.229 88.5788 216.229 89.108 216.154 89.6372V89.864C216.002 91.8296 215.7 94.0976 215.473 96.5168C215.398 97.1216 215.322 97.6508 215.246 98.2556C215.02 100.297 214.642 102.565 214.339 104.908L214.112 106.647C213.734 108.915 213.356 111.183 212.978 113.3C212.903 113.754 212.827 114.283 212.676 114.736L212.6 114.963C212.147 117.156 211.693 119.424 211.164 121.616C211.013 122.221 210.862 122.75 210.786 123.355C210.332 125.245 209.879 126.984 209.425 128.722C209.274 129.176 209.198 129.63 209.047 130.008C208.82 130.688 208.669 131.217 208.442 131.746C207.611 134.014 206.477 136.282 205.192 138.55C204.889 139.155 204.511 139.684 204.133 140.289C202.697 142.557 201.034 144.825 199.068 147.018C198.539 147.622 198.085 148.152 197.556 148.756C195.515 151.024 193.247 153.217 190.828 155.485C190.147 156.09 189.542 156.619 188.862 157.224C186.292 159.416 183.494 161.684 180.395 163.876C179.563 164.481 178.807 165.01 177.976 165.615C174.649 167.959 171.172 170.151 167.618 172.268C166.484 172.948 165.502 173.478 164.594 174.007C162.553 175.141 161.344 175.746 161.344 175.746C161.117 176.048 160.966 176.124 160.89 176.124ZM120.217 77.6168C120.142 78.146 120.066 78.902 119.99 79.8848C119.915 80.414 119.915 80.9432 119.839 81.548C119.688 83.5136 119.537 85.7816 119.386 88.2008C119.386 88.73 119.31 89.2592 119.31 89.7884V89.9396C119.234 91.9052 119.159 94.0976 119.083 96.5924C119.083 97.1216 119.083 97.7264 119.083 98.3312C119.083 100.372 119.008 102.565 119.083 104.984V106.723C119.159 108.991 119.234 111.183 119.31 113.376C119.31 113.905 119.386 114.358 119.386 114.888V115.114C119.537 117.307 119.688 119.499 119.839 121.767C119.915 122.372 119.915 122.901 119.99 123.43C120.142 125.32 120.368 127.059 120.595 128.798C120.671 129.176 120.746 129.63 120.822 130.008C120.898 130.612 121.049 131.142 121.2 131.671C121.729 133.863 122.41 135.98 123.392 138.172C123.619 138.777 123.922 139.306 124.224 139.836C125.282 142.028 126.643 144.22 128.231 146.413C128.609 147.018 129.062 147.547 129.44 148.076C131.104 150.268 132.994 152.461 135.11 154.653C135.64 155.258 136.244 155.787 136.774 156.392C138.966 158.584 141.461 160.777 144.182 162.969C144.938 163.574 145.619 164.103 146.299 164.708C149.248 166.976 152.347 169.244 155.598 171.285C156.581 171.966 157.564 172.495 158.32 172.948C159.529 173.704 160.436 174.234 160.89 174.46C161.419 174.158 162.402 173.704 163.687 172.948C164.519 172.495 165.502 171.89 166.636 171.21C170.189 169.093 173.591 166.9 176.917 164.632C177.673 164.103 178.505 163.498 179.336 162.894C182.36 160.701 185.158 158.433 187.652 156.316C188.333 155.787 188.938 155.182 189.542 154.578C191.962 152.385 194.154 150.193 196.195 148C196.724 147.471 197.178 146.866 197.707 146.337C199.597 144.145 201.185 141.952 202.621 139.76C202.999 139.231 203.302 138.626 203.68 138.097C204.965 135.904 206.023 133.712 206.855 131.595C207.082 131.066 207.233 130.537 207.46 129.932C207.611 129.478 207.686 129.1 207.838 128.647C208.291 126.908 208.745 125.169 209.198 123.279C209.35 122.674 209.501 122.145 209.576 121.54C210.106 119.348 210.559 117.08 211.013 114.888L211.088 114.661C211.164 114.207 211.315 113.678 211.391 113.224C211.769 111.108 212.222 108.84 212.525 106.572L212.752 104.833C213.13 102.489 213.432 100.221 213.659 98.18C213.734 97.5752 213.81 97.046 213.886 96.5168C214.188 94.0976 214.415 91.8296 214.566 89.864V89.6372C214.642 89.108 214.642 88.6544 214.717 88.2008C214.944 85.7816 215.095 83.5136 215.171 81.548C215.171 80.9432 215.246 80.3384 215.246 79.8092C215.322 78.902 215.322 78.146 215.322 77.6924C212.147 77.39 200.126 76.3316 187.501 74.0636C184.553 73.5344 181.68 72.9296 178.958 72.3248C175.027 71.4176 171.474 70.5104 168.374 69.452C165.124 70.4348 161.419 71.4176 157.412 72.3248C154.615 72.9296 151.667 73.5344 148.643 74.0636C135.564 76.256 123.166 77.39 120.217 77.6168Z" fill="#F6AC3B"/>
<path d="M172.528 110.911C176.613 106.967 176.939 100.678 173.256 96.8631C169.573 93.0485 163.277 93.153 159.191 97.0966C155.106 101.04 154.78 107.33 158.463 111.144C162.146 114.959 168.443 114.854 172.528 110.911Z" fill="#F6AC3B"/>
<path d="M168.072 107.479H165.652H163.233L156.354 139.382H170.415L168.072 107.479Z" fill="#F6AC3B"/>
<g opacity="0.2">
<path opacity="0.2" d="M187.653 73.1564H148.492C151.365 72.6272 154.313 72.098 157.262 71.4176H179.186C181.907 72.0224 184.78 72.6272 187.653 73.1564Z" fill="#F6AC3B"/>
<path opacity="0.2" d="M215.927 81.4724H119.008C119.083 80.8676 119.083 80.2628 119.159 79.7336H216.003C216.003 80.2628 215.927 80.8676 215.927 81.4724Z" fill="#F6AC3B"/>
<path opacity="0.2" d="M215.473 88.1252C215.398 88.6544 215.398 89.2592 215.322 89.864H118.479C118.479 89.2592 118.554 88.73 118.554 88.1252H215.473Z" fill="#F6AC3B"/>
<path opacity="0.2" d="M214.566 96.5168C214.49 97.046 214.415 97.6508 214.339 98.2556H118.176C118.176 97.6508 118.176 97.1216 118.176 96.5168H214.566Z" fill="#F6AC3B"/>
<path opacity="0.2" d="M213.432 104.908C213.356 105.513 213.281 106.042 213.205 106.647H118.176C118.176 106.042 118.176 105.513 118.176 104.908H213.432Z" fill="#F6AC3B"/>
<path opacity="0.2" d="M211.996 113.224C211.92 113.829 211.769 114.358 211.693 114.963H118.554C118.554 114.358 118.479 113.829 118.479 113.224H211.996Z" fill="#F6AC3B"/>
<path opacity="0.2" d="M210.257 121.616C210.106 122.221 209.955 122.75 209.879 123.355H119.159C119.083 122.75 119.008 122.221 119.008 121.616H210.257Z" fill="#F6AC3B"/>
<path opacity="0.2" d="M208.139 130.008C207.988 130.612 207.761 131.142 207.534 131.746H120.292C120.141 131.142 120.065 130.612 119.914 130.008H208.139Z" fill="#F6AC3B"/>
<path opacity="0.2" d="M204.284 138.324C203.982 138.928 203.604 139.458 203.226 140.062H123.392C123.09 139.533 122.863 138.928 122.561 138.324H204.284Z" fill="#F6AC3B"/>
<path opacity="0.2" d="M198.312 146.715C197.858 147.32 197.329 147.849 196.8 148.454H128.76C128.306 147.925 127.928 147.32 127.475 146.715H198.312Z" fill="#F6AC3B"/>
<path opacity="0.2" d="M190.071 155.031C189.391 155.636 188.786 156.165 188.106 156.77H136.093C135.488 156.241 134.959 155.636 134.43 155.031H190.071Z" fill="#F6AC3B"/>
<path opacity="0.2" d="M179.791 163.423C178.959 164.028 178.203 164.557 177.371 165.162H145.771C145.09 164.632 144.334 164.028 143.578 163.423H179.791Z" fill="#F6AC3B"/>
<path opacity="0.2" d="M167.09 171.814C165.956 172.495 164.973 173.024 164.142 173.553H157.942C157.186 173.1 156.204 172.495 155.221 171.814H167.09Z" fill="#F6AC3B"/>
</g>
</g>
<defs>
<clipPath id="clip0">
<rect width="407" height="300" fill="white"/>
</clipPath>
</defs>
</svg>
