<svg width="407" height="300" viewBox="0 0 407 300" fill="none" xmlns="http://www.w3.org/2000/svg">
<path d="M393 267.094H15V267.283H393V267.094Z" fill="#EBEBEB"/>
<path d="M145.956 271.918H128.432V272.107H145.956V271.918Z" fill="#EBEBEB"/>
<path d="M361.831 275.97H318.988V276.159H361.831V275.97Z" fill="#EBEBEB"/>
<path d="M90.1375 275.97H47.2949V276.159H90.1375V275.97Z" fill="#EBEBEB"/>
<path d="M355.579 69.1433H334.963V73.9591H355.579V69.1433Z" fill="#739AF0"/>
<path d="M334.962 69.1433H249.625V73.9591H334.962V69.1433Z" fill="#51CDE4"/>
<path d="M298.116 43.5754H274.09V69.1509H298.116V43.5754Z" fill="#51CDE4"/>
<path d="M274.089 43.5754H267.936V69.1509H274.089V43.5754Z" fill="#739AF0"/>
<path d="M304.413 39.6291H286.367V69.1434H304.413V39.6291Z" fill="#739AF0"/>
<path d="M286.375 39.6291H281.158V69.1434H286.375V39.6291Z" fill="#739AF0"/>
<path d="M306.908 43.5754H291.689V69.1509H306.908V43.5754Z" fill="#739AF0"/>
<path d="M291.689 43.5754H288.211V69.1509H291.689V43.5754Z" fill="#5586E4"/>
<path d="M324.099 47.8997H304.141V69.1433H324.099V47.8997Z" fill="#739AF0"/>
<path d="M304.14 47.8997H299.029V69.1433H304.14V47.8997Z" fill="#5586E4"/>
<path d="M329.329 44.6263H314.338V69.1509H329.329V44.6263Z" fill="#739AF0"/>
<path d="M314.34 44.6263H310.008V69.1509H314.34V44.6263Z" fill="#739AF0"/>
<path d="M333.314 47.8997H318.754V69.1433H333.314V47.8997Z" fill="#739AF0"/>
<path d="M318.755 47.8997H315.867V69.1433H318.755V47.8997Z" fill="#5586E4"/>
<path d="M322.76 211.922C329.216 203.477 344.586 200.34 349.9 195.025C356.856 188.047 356.818 177.576 350.898 173.796C345.758 170.515 328.702 192.712 326.782 195.191C320.167 203.719 318.262 210.054 317.014 216.185C317.151 210.977 317.294 206.184 317.408 202.494C317.77 190.444 318.217 186.573 318.421 185.386C319.154 184.796 319.978 184.123 320.462 183.761C324.59 180.684 333.737 177.017 338.319 172.549C344.994 166.017 343.921 158.2 339.233 155.29C334.342 152.25 325.678 159.44 321.082 166.569C316.485 173.698 318.451 180.525 317.166 186.407C316.894 187.571 316.614 191.978 316.357 198.094C315.268 192.069 311.942 186.679 307.035 183.012C300.7 177.954 295.234 171.808 290.018 172.602C284.801 173.396 287.636 181.538 291.734 187.253C295.408 192.341 313.544 197.421 316.213 201.511C315.896 209.797 315.616 220.298 315.419 230.081C313.983 225.031 314.973 224.607 309.114 216.858C305.629 212.262 291.348 206.569 289.655 209.744C287.961 212.919 290.539 218.877 295.93 223.057C300.277 226.429 309.885 226.422 312.161 228.516C312.683 229 314.399 230.874 315.389 231.956C315.155 243.885 315.049 254.424 315.17 258.015L316.1 258.053C316.054 257.13 316.168 251.06 316.349 243.023C318.693 238.744 334.471 236.25 339.339 231.804C344.435 227.155 348.094 221.727 345.916 218.09C344.094 215.059 329.753 219.179 323.871 224.207C319.986 227.548 317.612 231.116 316.523 235.917C316.659 230.444 316.81 224.569 316.954 219.02C318.126 217.637 320.825 214.454 322.76 211.922Z" fill="#74C1C7"/>
<path d="M324.136 267.344H307.761C306.861 267.344 306.09 266.18 305.916 264.562L304.752 253.97H327.137L325.973 264.562C325.791 266.18 325.028 267.344 324.136 267.344Z" fill="#485861"/>
<path d="M327.606 258.068H304.276C303.716 258.068 303.247 257.297 303.187 256.269L302.711 248.436C302.635 247.234 303.142 246.183 303.799 246.183H328.082C328.732 246.183 329.246 247.234 329.171 248.436L328.694 256.269C328.641 257.297 328.165 258.068 327.606 258.068Z" fill="#485861"/>
<path d="M177.156 95.6941C175.485 99.7538 165.649 99.4816 155.338 95.2254C145.026 90.9691 138.025 84.2331 139.704 80.181C140.089 79.2435 141.17 75.7281 142.334 75.2367C146.175 73.6189 153.485 77.2628 161.401 80.5287C168.772 83.5678 177.194 85.5259 178.501 89.5251C179.295 91.967 177.632 94.5374 177.156 95.6941Z" fill="#51CDE4"/>
<path opacity="0.2" d="M178.508 89.5327C179.136 92.7154 177.752 94.2425 177.155 95.6941C176.535 97.1909 174.811 98.0981 172.369 98.4308C172.075 98.4761 171.765 98.5064 171.447 98.5291C169.807 98.65 167.909 98.5517 165.838 98.2342C165.573 98.204 165.308 98.1511 165.036 98.1057C163.01 97.7579 160.848 97.1985 158.618 96.4576C158.376 96.3745 158.134 96.2913 157.892 96.2006C157.045 95.9057 156.183 95.5807 155.329 95.2253C154.475 94.8776 153.643 94.4996 152.834 94.114C152.6 94.0082 152.373 93.8948 152.146 93.7814C150.113 92.7759 148.268 91.6797 146.65 90.5608C146.439 90.4172 146.235 90.266 146.03 90.1299C144.337 88.8976 142.916 87.6351 141.842 86.3877C141.653 86.176 141.487 85.9719 141.321 85.7602C139.695 83.6963 139.053 81.7383 139.695 80.1734C140.111 79.1603 141.026 75.7205 142.318 75.2291C143.611 74.7453 145.282 74.8133 147.217 75.2216C147.467 75.2745 147.724 75.335 147.981 75.403C151.799 76.3707 156.524 78.5253 161.385 80.5287C167.123 82.895 173.904 85.352 177.223 88.187C177.427 88.3609 177.616 88.5347 177.79 88.7162C178.077 88.9883 178.304 89.2605 178.508 89.5327Z" fill="black"/>
<g opacity="0.2">
<path opacity="0.2" d="M148.344 74.7755L147.996 75.4106L141.858 86.3952C141.669 86.1836 141.502 85.9794 141.336 85.7678L147.233 75.2291L147.686 74.4127L148.344 74.7755Z" fill="black"/>
</g>
<g opacity="0.2">
<path opacity="0.2" d="M152.987 79.251L146.659 90.5684C146.447 90.4247 146.243 90.2735 146.039 90.1374L152.329 78.8806L152.987 79.251Z" fill="black"/>
</g>
<g opacity="0.2">
<path opacity="0.2" d="M164.62 85.7526L158.632 96.4652C158.39 96.382 158.148 96.2988 157.906 96.2081L163.962 85.3822L164.62 85.7526Z" fill="black"/>
</g>
<g opacity="0.2">
<path opacity="0.2" d="M159.208 82.7287L152.842 94.1216C152.608 94.0157 152.381 93.9023 152.154 93.7889L158.542 82.3582L159.208 82.7287Z" fill="black"/>
</g>
<g opacity="0.2">
<path opacity="0.2" d="M171.673 87.8241L165.844 98.2418C165.58 98.2115 165.315 98.1586 165.043 98.1133L171.008 87.4461L171.673 87.8241Z" fill="black"/>
</g>
<path d="M178.463 92.1257C176.792 96.1855 167.077 96.0267 156.765 91.7704C146.454 87.5141 139.453 80.7782 141.131 76.726C142.802 72.6663 152.517 72.8251 162.829 77.0813C173.133 81.3376 180.133 88.0736 178.463 92.1257Z" fill="#51CDE4"/>
<path opacity="0.2" d="M174.956 90.6818C173.777 93.547 166.201 93.1463 158.044 89.7821C149.887 86.4179 144.232 81.3679 145.411 78.4951C146.591 75.6298 154.166 76.0305 162.323 79.3947C170.488 82.7665 176.143 87.8165 174.956 90.6818Z" fill="white"/>
<path d="M229.259 58.9978C231.943 62.4679 226.817 70.8595 218.002 77.6937C209.187 84.5204 199.858 87.242 197.175 83.7719C196.555 82.9706 194.045 80.2792 194.196 79.0318C194.703 74.8965 201.499 70.3681 208.273 65.1214C214.578 60.2377 220.459 53.9024 224.587 54.7567C227.09 55.2859 228.496 58.015 229.259 58.9978Z" fill="#51CDE4"/>
<path opacity="0.2" d="M224.587 54.7642C227.664 55.8075 228.299 57.758 229.259 58.9978C230.25 60.2755 230.182 62.2259 229.259 64.5091C229.154 64.7888 229.025 65.0685 228.889 65.3558C228.178 66.8375 227.15 68.4403 225.85 70.0732C225.691 70.2849 225.517 70.489 225.343 70.7007C224.036 72.2807 222.471 73.8835 220.717 75.4484C220.528 75.6147 220.331 75.7886 220.135 75.9549C219.454 76.537 218.751 77.1267 218.01 77.6937C217.284 78.2607 216.544 78.7975 215.81 79.304C215.599 79.4552 215.387 79.5913 215.183 79.7349C213.3 80.9974 211.433 82.0558 209.649 82.9025C209.414 83.0159 209.188 83.1142 208.961 83.2201C207.056 84.0743 205.241 84.6791 203.639 84.9967C203.366 85.0571 203.102 85.1025 202.837 85.1403C200.237 85.5259 198.218 85.1101 197.182 83.7719C196.51 82.9101 193.984 80.4077 194.196 79.0394C194.415 77.671 195.307 76.2573 196.623 74.7907C196.797 74.6017 196.971 74.4051 197.16 74.2161C199.896 71.3887 204.115 68.3571 208.273 65.1365C213.179 61.3414 218.683 56.6769 222.796 55.2027C223.045 55.1044 223.295 55.0364 223.537 54.9683C223.907 54.8701 224.247 54.802 224.587 54.7642Z" fill="black"/>
<g opacity="0.2">
<path opacity="0.2" d="M196.781 73.5886L197.151 74.2085L203.623 84.9966C203.351 85.0571 203.086 85.1025 202.821 85.1403L196.615 74.7831L196.131 73.9817L196.781 73.5886Z" fill="black"/>
</g>
<g opacity="0.2">
<path opacity="0.2" d="M202.972 71.7893L209.64 82.9025C209.406 83.0159 209.179 83.1142 208.952 83.22L202.314 72.1673L202.972 71.7893Z" fill="black"/>
</g>
<g opacity="0.2">
<path opacity="0.2" d="M214.396 64.9324L220.709 75.456C220.52 75.6223 220.323 75.7962 220.127 75.9625L213.746 65.3256L214.396 64.9324Z" fill="black"/>
</g>
<g opacity="0.2">
<path opacity="0.2" d="M209.088 68.1227L215.801 79.3115C215.589 79.4627 215.378 79.5988 215.173 79.7425L208.438 68.5083L209.088 68.1227Z" fill="black"/>
</g>
<g opacity="0.2">
<path opacity="0.2" d="M219.703 59.837L225.842 70.0808C225.683 70.2925 225.509 70.4966 225.335 70.7083L219.053 60.2301L219.703 59.837Z" fill="black"/>
</g>
<path d="M215.71 74.7367C224.527 67.9082 229.496 59.5602 226.809 56.0909C224.123 52.6216 214.797 55.3447 205.98 62.1731C197.163 69.0016 192.194 77.3496 194.881 80.8189C197.568 84.2883 206.893 81.5651 215.71 74.7367Z" fill="#51CDE4"/>
<path opacity="0.2" d="M214.617 72.6385C221.596 67.234 225.713 60.8646 223.813 58.4119C221.914 55.9593 214.717 58.3523 207.739 63.7568C200.761 69.1613 196.643 75.5307 198.543 77.9833C200.442 80.4359 207.639 78.043 214.617 72.6385Z" fill="white"/>
<path d="M192.766 42.7438C191.882 47.7183 180.754 49.8276 168.106 47.5822C155.465 45.3294 145.932 39.4704 146.817 34.4959C147.021 33.3392 147.376 29.1283 148.563 28.2891C152.487 25.5222 161.604 27.828 171.319 29.5592C180.36 31.1695 190.317 31.298 192.774 35.4787C194.256 38.0188 193.016 41.3226 192.766 42.7438Z" fill="#51CDE4"/>
<path opacity="0.2" d="M192.766 35.4787C194.256 38.9034 193.076 40.9597 192.759 42.7438C192.434 44.5809 190.718 46.0249 188.049 47.0001C187.731 47.1286 187.391 47.2345 187.036 47.3403C185.221 47.8771 183.059 48.24 180.655 48.3912C180.345 48.4214 180.043 48.429 179.725 48.4441C177.367 48.5499 174.796 48.4516 172.105 48.1644C171.818 48.1341 171.515 48.0963 171.22 48.0585C170.2 47.93 169.149 47.7788 168.098 47.5898C167.055 47.4084 166.027 47.1891 165.021 46.9548C164.734 46.8943 164.447 46.8187 164.167 46.7506C161.634 46.1156 159.291 45.3445 157.189 44.4751C156.909 44.3617 156.652 44.2483 156.388 44.1424C154.188 43.1748 152.267 42.0937 150.755 40.9672C150.491 40.7782 150.249 40.5892 150.014 40.3927C147.678 38.4724 146.476 36.4237 146.817 34.511C147.036 33.2712 147.217 29.1736 148.555 28.3042C149.894 27.4348 151.791 27.1022 154.059 27.0946C154.354 27.0946 154.656 27.0946 154.966 27.1098C159.495 27.261 165.346 28.5235 171.303 29.5819C178.334 30.8368 186.567 31.9255 191.005 34.2993C191.277 34.443 191.534 34.5942 191.776 34.7529C192.146 34.9722 192.471 35.2216 192.766 35.4787Z" fill="black"/>
<g opacity="0.2">
<path opacity="0.2" d="M155.209 26.2933L154.967 27.0871L150.757 40.9521C150.492 40.7631 150.25 40.5741 150.016 40.3776L154.06 27.072L154.37 26.0438L155.209 26.2933Z" fill="black"/>
</g>
<g opacity="0.2">
<path opacity="0.2" d="M161.529 30.1867L157.19 44.4675C156.91 44.3541 156.653 44.2407 156.389 44.1349L160.698 29.9296L161.529 30.1867Z" fill="black"/>
</g>
<g opacity="0.2">
<path opacity="0.2" d="M176.218 34.6395L172.113 48.1643C171.826 48.1341 171.523 48.0963 171.229 48.0585L175.379 34.39L176.218 34.6395Z" fill="black"/>
</g>
<g opacity="0.2">
<path opacity="0.2" d="M169.39 32.5681L165.028 46.9472C164.741 46.8867 164.454 46.8111 164.174 46.7431L168.551 32.311L169.39 32.5681Z" fill="black"/>
</g>
<g opacity="0.2">
<path opacity="0.2" d="M184.662 35.2292L180.662 48.3836C180.352 48.4138 180.05 48.4214 179.732 48.4365L183.822 34.9721L184.662 35.2292Z" fill="black"/>
</g>
<path d="M193.354 38.4093C194.239 33.4355 184.706 27.5794 172.062 25.3293C159.418 23.0791 148.451 25.2871 147.566 30.2609C146.68 35.2346 156.213 41.0908 168.857 43.3409C181.501 45.591 192.469 43.383 193.354 38.4093Z" fill="#51CDE4"/>
<path opacity="0.2" d="M189.052 37.6451C189.677 34.1306 182.073 29.8381 172.068 28.0576C162.063 26.2771 153.445 27.6828 152.82 31.1974C152.195 34.7119 159.798 39.0043 169.803 40.7848C179.808 42.5653 188.426 41.1596 189.052 37.6451Z" fill="white"/>
<path d="M258.766 169.744L180.966 174.273C178.207 174.431 175.5 175.097 172.983 176.223L88.4771 214.046C85.4077 215.422 83.7143 218.71 84.4022 221.954L98.3807 287.983C99.3408 292.511 104.391 294.9 108.587 292.806L191.996 251.165L269.017 248.565C273.062 248.429 276.086 244.808 275.443 240.869L265.132 177.637C264.595 174.371 262.115 169.646 258.766 169.744Z" fill="#407BFF"/>
<path opacity="0.1" d="M258.766 169.744L180.966 174.273C178.207 174.431 175.5 175.097 172.983 176.223L88.4771 214.046C85.4077 215.422 83.7143 218.71 84.4022 221.954L98.3807 287.983C99.3408 292.511 104.391 294.9 108.587 292.806L191.996 251.165L269.017 248.565C273.062 248.429 276.086 244.808 275.443 240.869L265.132 177.637C264.595 174.371 262.115 169.646 258.766 169.744Z" fill="black"/>
<path d="M102.596 126.761L61.7656 164.392L135.025 243.878L175.855 206.247L102.596 126.761Z" fill="#9FB8EA"/>
<path opacity="0.5" d="M175.863 206.236L135.032 243.87L61.7754 164.392L88.568 139.693L102.607 126.751L104.943 129.291L175.863 206.236Z" fill="#9FB8EA"/>
<path d="M102.859 131.619L66.832 164.824L135.358 239.173L171.385 205.969L102.859 131.619Z" stroke="#739AF0" stroke-miterlimit="10"/>
<path d="M127.235 194.187C131.367 190.378 130.844 183.089 126.067 177.907C121.29 172.724 114.068 171.611 109.935 175.42C105.803 179.23 106.326 186.519 111.103 191.701C115.88 196.883 123.102 197.996 127.235 194.187Z" fill="#407BFF"/>
<path opacity="0.1" d="M134.599 211.619L120.092 216.624L88.5664 139.693L102.605 126.751L104.941 129.291L134.599 211.619Z" fill="black"/>
<path d="M137.415 95.615L85.2129 114.539L122.054 216.164L174.256 197.24L137.415 95.615Z" fill="#CBD7E4"/>
<path opacity="0.5" d="M137.415 95.615L85.2129 114.539L122.054 216.164L174.256 197.24L137.415 95.615Z" fill="#739AF0"/>
<path d="M135.776 100.202L89.7148 116.9L124.175 211.959L170.236 195.261L135.776 100.202Z" stroke="#739AF0" stroke-miterlimit="10"/>
<path d="M134.057 167.323C139.341 165.408 141.676 158.484 139.274 151.858C136.873 145.233 130.642 141.414 125.359 143.329C120.076 145.245 117.74 152.169 120.142 158.794C122.544 165.42 128.774 169.239 134.057 167.323Z" fill="#739AF0"/>
<path d="M259.271 172.428L182.537 176.752C179.816 176.904 177.147 177.561 174.667 178.68L91.4015 216.269C88.3775 217.629 86.7143 220.918 87.4023 224.161L101.366 290.198C102.326 294.726 107.315 297.123 111.451 295.044L193.628 253.638L269.598 251.234C273.59 251.105 276.561 247.499 275.918 243.56L265.584 180.336C265.032 177.07 262.583 172.337 259.271 172.428Z" fill="#51CDE4"/>
<path opacity="0.2" d="M185.66 188.319L251.5 184.267" stroke="black" stroke-width="2" stroke-miterlimit="10" stroke-linecap="round" stroke-linejoin="round"/>
<path opacity="0.2" d="M177.775 190.02L189.803 245.269" stroke="black" stroke-width="2" stroke-miterlimit="10" stroke-linecap="round" stroke-linejoin="round"/>
<path opacity="0.2" d="M97.5781 239.901L106.06 282.403C106.06 282.396 112.562 265.537 97.5781 239.901Z" fill="#FAFAFA"/>
<path opacity="0.2" d="M98.6895 240.4C98.9767 241.179 174.025 208.95 174.025 208.95C174.025 208.95 175.922 232.114 153.341 244.785C130.759 257.448 98.6895 240.4 98.6895 240.4Z" fill="#FAFAFA"/>
<path d="M148.54 241.655C150.335 241.655 151.791 240.2 151.791 238.404C151.791 236.609 150.335 235.153 148.54 235.153C146.744 235.153 145.289 236.609 145.289 238.404C145.289 240.2 146.744 241.655 148.54 241.655Z" fill="#407BFF"/>
<path opacity="0.2" d="M174.07 208.95C174.07 208.95 183.377 222.952 181.124 246.818Z" fill="black"/>
<g opacity="0.2">
<g opacity="0.2">
<path opacity="0.2" d="M93.9883 223.209L95.7195 222.445" stroke="#FAFAFA" stroke-linecap="round" stroke-linejoin="round"/>
<path opacity="0.2" d="M99.3105 220.857L169.392 189.877" stroke="#FAFAFA" stroke-linecap="round" stroke-linejoin="round" stroke-dasharray="5.2 5.2"/>
<path opacity="0.2" d="M171.191 189.083L172.915 188.319" stroke="#FAFAFA" stroke-linecap="round" stroke-linejoin="round"/>
</g>
</g>
<path opacity="0.2" d="M187.867 200.74L253.707 196.681" stroke="black" stroke-width="2" stroke-miterlimit="10" stroke-linecap="round" stroke-linejoin="round"/>
<path opacity="0.2" d="M190.83 216.231L256.67 212.171" stroke="black" stroke-width="2" stroke-miterlimit="10" stroke-linecap="round" stroke-linejoin="round"/>
<path d="M242.239 106.187C242.239 106.187 240.583 123.825 234.029 125.344C227.474 126.864 221.94 124.135 221.94 124.135L216.61 120.037L214.01 129.102C214.01 129.102 216.852 132.965 222.787 130.289C222.787 130.289 233.363 134.953 239.222 130.289C245.081 125.624 246.949 112.855 246.949 112.855L242.239 106.187Z" fill="#B97964"/>
<path d="M247.507 97.6446C247.507 97.6446 242.934 89.8502 245.013 75.7205C247.092 61.5909 258.938 59.8219 263.512 60.8576C268.086 61.8933 271.828 66.2781 274.943 74.6319C278.057 82.9933 279.206 85.1705 284.4 83.719C289.594 82.2675 303.414 77.6937 307.262 81.7459C311.11 85.798 309.862 90.3718 309.862 90.3718C309.862 90.3718 329.087 85.6922 327.424 102.838C325.761 119.984 298.016 135.989 271.624 119.047C245.224 102.113 247.507 97.6446 247.507 97.6446Z" fill="#263238"/>
<path d="M247.297 139.141C247.297 139.141 242.073 184.07 242.246 205.148C242.42 226.217 249.912 275.856 249.912 275.856H259.143C259.143 275.856 257.926 236.151 258.1 222.566C258.274 208.981 260.716 186.52 260.716 186.52C260.716 186.52 263.679 206.72 267.157 213.864C270.642 221.001 289.973 246.259 303.384 254.091L309.651 248.346C309.651 248.346 295.718 231.101 290.494 222.574C285.27 214.038 280.568 211.604 278.655 195.751C276.743 179.905 280.046 154.473 274.475 139.149H247.297V139.141Z" fill="#263238"/>
<path opacity="0.2" d="M260.708 186.512L256.694 158.034C256.694 158.034 253.526 175.157 259.771 196.061L260.708 186.512Z" fill="black"/>
<path d="M251.803 278.381L252.113 287.204L258.304 287.718L258.614 286.894V277.762L251.803 278.381Z" fill="#F5C9B2"/>
<path d="M248.861 275.025L249.428 278.329L260.058 278.586L260.731 274.617L248.861 275.025Z" fill="#FFA412"/>
<path d="M300.459 254.696L310.31 245.518L312.479 248.973L304.02 256.715L300.459 254.696Z" fill="#FFA412"/>
<path d="M305.205 254.696L311.707 260.169L315.88 255.263L310.542 249.744L305.205 254.696Z" fill="#F5C9B2"/>
<path d="M317.142 254.885L321.073 257.304C321.837 257.773 321.996 258.816 321.398 259.489C318.548 262.702 311.268 270.882 310.542 271.464C309.643 272.19 308.554 270.95 308.297 269.816C308.297 269.816 310.361 267.079 310.542 265.325C310.678 264.033 310.61 262.158 310.572 261.258C310.557 260.918 310.671 260.585 310.89 260.328L315.282 255.18C315.751 254.636 316.537 254.507 317.142 254.885Z" fill="#263238"/>
<path d="M259.816 287.945L260.632 292.488C260.791 293.373 260.118 294.182 259.218 294.189C254.917 294.205 243.97 294.242 243.055 294.084C241.914 293.895 242.118 292.262 242.79 291.309C242.79 291.309 246.208 291.022 247.629 289.986C248.68 289.222 250.033 287.922 250.683 287.295C250.925 287.053 251.25 286.924 251.59 286.909L258.357 286.75C259.067 286.743 259.687 287.249 259.816 287.945Z" fill="#263238"/>
<path d="M275.458 114.224L284.893 107.601C284.893 107.601 282.383 97.5614 278.671 97.0624C274.959 96.5635 256.49 93.0481 244.749 97.0624C244.749 97.0624 240.531 98.2645 239.23 110.111L244.25 111.714C244.25 111.714 246.057 133.895 247.161 137.312H273.961C273.946 137.312 274.248 118.238 275.458 114.224Z" fill="#FFA412"/>
<path d="M277.49 112.795C277.49 112.795 281.059 123.001 281.701 128.489C281.701 128.489 273.204 125.11 271.004 123.553L269.348 117.58L263.693 114.866L262.053 119.342L266.71 125.193C266.71 125.193 279.501 137.168 285.995 134.424C292.489 131.68 283.425 108.622 283.425 108.622L277.49 112.795Z" fill="#F5C9B2"/>
<path d="M253.488 68.1077C253.488 68.1077 250.222 74.6471 250.495 79.9542C250.767 85.2613 253.42 87.4461 258.531 88.1946C258.531 88.1946 260.708 95.0061 254.993 95.6865C254.562 95.7395 254.403 97.4707 254.441 97.7504C254.592 98.8542 255.681 99.459 256.671 99.716C257.73 99.9957 258.856 100.041 259.952 100.079C262.402 100.162 264.42 99.1717 266.046 97.3649C266.174 97.2288 267.316 95.7546 267.316 95.7546C267.316 95.7546 264.594 94.4013 265.547 85.541C265.547 85.541 267.384 84.5204 268.404 82.0029C268.404 82.0029 270.173 81.1184 270.582 79.3494C270.99 77.5803 269.425 75.1309 266.567 77.5803C266.567 77.5803 261.192 74.8587 259.143 65.3256C259.136 65.3105 257.026 67.6994 253.488 68.1077Z" fill="#F5C9B2"/>
<path d="M255.023 78.5026L255.492 75.0099L253.02 77.7466C253.012 77.7466 253.798 78.6538 255.023 78.5026Z" fill="#A24E3F"/>
<path d="M256.459 81.0579C256.459 81.0579 259.067 81.4586 260.322 79.7803" stroke="#222221" stroke-width="0.75" stroke-miterlimit="10" stroke-linecap="round" stroke-linejoin="round"/>
<path d="M259.068 70.1186C259.068 70.1186 260.732 69.476 262.448 71.0183" stroke="#222221" stroke-miterlimit="10" stroke-linecap="round" stroke-linejoin="round"/>
<path d="M254.554 69.3626C254.554 69.3626 253.072 69.1282 252.369 69.9901" stroke="#222221" stroke-miterlimit="10" stroke-linecap="round" stroke-linejoin="round"/>
<path d="M260.118 74.7151C260.05 75.2443 259.71 75.6298 259.362 75.5845C259.014 75.5391 258.78 75.078 258.848 74.5488C258.916 74.0195 259.256 73.634 259.604 73.6793C259.959 73.7247 260.186 74.1859 260.118 74.7151Z" fill="#222221"/>
<path d="M254.111 73.5486C254.179 73.0227 253.95 72.5593 253.598 72.5136C253.246 72.4678 252.905 72.8571 252.837 73.3829C252.768 73.9088 252.998 74.3721 253.35 74.4179C253.702 74.4636 254.043 74.0744 254.111 73.5486Z" fill="#222221"/>
<path d="M259.61 73.6794L258.416 73.1577C258.416 73.1577 258.658 74.2312 259.61 73.6794Z" fill="#222221"/>
<path d="M253.685 72.5605L252.49 72.0388C252.49 72.0388 252.74 73.1124 253.685 72.5605Z" fill="#222221"/>
<path d="M246.215 136.132V139.285L275.245 139.527L274.467 135.777L246.215 136.132Z" fill="#407BFF"/>
<path opacity="0.4" d="M246.215 136.132V139.285L275.245 139.527L274.467 135.777L246.215 136.132Z" fill="white"/>
<path d="M246.57 120.831L230.611 176.374C229.485 180.298 226.098 182.959 222.28 183.337C221.093 183.451 219.861 183.352 218.636 183.005L188.086 174.227C182.953 172.746 179.982 167.386 181.456 162.252L197.423 106.701C198.285 103.73 200.432 101.485 203.1 100.404C205.036 99.6177 207.236 99.4514 209.398 100.079L239.94 108.848C245.081 110.323 248.044 115.683 246.57 120.831Z" fill="#FFA412"/>
<path opacity="0.2" d="M246.57 120.831L230.611 176.374C229.485 180.298 226.098 182.959 222.28 183.337C221.093 183.451 219.861 183.352 218.636 183.005L188.086 174.227C182.953 172.746 179.982 167.386 181.456 162.252L197.423 106.701C198.285 103.73 200.432 101.485 203.1 100.404C205.036 99.6177 207.236 99.4514 209.398 100.079L239.94 108.848C245.081 110.323 248.044 115.683 246.57 120.831Z" fill="black"/>
<path d="M243.917 121.489L227.958 177.032C227.103 180.011 224.941 182.264 222.28 183.337C221.093 183.451 219.861 183.352 218.636 183.005L188.086 174.227C182.953 172.746 179.982 167.386 181.456 162.252L197.423 106.701C198.285 103.73 200.432 101.485 203.1 100.404C204.287 100.291 205.519 100.389 206.744 100.737L237.287 109.506C242.42 110.988 245.391 116.348 243.917 121.489Z" fill="#FFA412"/>
<path opacity="0.3" d="M243.917 121.489L227.958 177.032C227.103 180.011 224.941 182.264 222.28 183.337C221.093 183.451 219.861 183.352 218.636 183.005L188.086 174.227C182.953 172.746 179.982 167.386 181.456 162.252L197.423 106.701C198.285 103.73 200.432 101.485 203.1 100.404C204.287 100.291 205.519 100.389 206.744 100.737L237.287 109.506C242.42 110.988 245.391 116.348 243.917 121.489Z" fill="#FAFAFA"/>
<path d="M201 126.196L197.732 125.275L185.976 166.999L189.243 167.919L201 126.196Z" fill="#FAFAFA"/>
<path d="M193.922 169.26L190.656 168.315L202.412 126.607L205.67 127.544L193.922 169.26Z" fill="#FAFAFA"/>
<path d="M198.67 170.621L195.404 169.684L207.16 127.968L210.426 128.913L198.67 170.621Z" fill="#FAFAFA"/>
<path opacity="0.5" d="M229.449 134.366L226.182 133.445L214.425 175.169L217.693 176.089L229.449 134.366Z" fill="black"/>
<path d="M229.022 122.585L227.397 128.247L225.462 127.703C223.511 127.151 222.377 125.125 222.921 123.175L223.98 119.417L227.888 120.536C228.765 120.793 229.272 121.708 229.022 122.585Z" fill="#FAFAFA"/>
<path d="M228.094 119.81L224.186 118.692L225.357 114.549C225.902 112.598 227.935 111.464 229.886 112.009L231.897 112.576L230.143 118.676C229.893 119.561 228.979 120.068 228.094 119.81Z" fill="#FAFAFA"/>
<path d="M231.797 121.663L235.728 122.789L234.685 126.486C234.141 128.436 232.115 129.578 230.164 129.026L228.123 128.452L229.748 122.797C229.998 121.92 230.913 121.413 231.797 121.663Z" fill="#FAFAFA"/>
<path d="M237.12 117.86L235.933 122.063L232.002 120.937C231.125 120.68 230.619 119.765 230.868 118.888L232.622 112.787L234.58 113.339C236.531 113.883 237.665 115.91 237.12 117.86Z" fill="#FAFAFA"/>
</svg>
