<svg width="407" height="300" viewBox="0 0 407 300" fill="none" xmlns="http://www.w3.org/2000/svg">
<path d="M124.699 216.3C124.699 216.3 121.236 217.807 125.426 225.061C129.616 232.315 132.465 235.886 132.465 235.886C132.465 235.886 133.247 237.56 131.794 237.95C130.342 238.285 127.102 237.95 126.543 239.792C125.984 241.689 127.381 243.363 130.23 244.758C133.024 246.153 139.057 249.445 139.616 249.724C140.174 250.003 140.733 250.784 139.783 251.175C138.834 251.566 131.627 252.682 132.353 256.085C133.079 259.489 141.571 262.056 142.465 262.391C143.359 262.726 143.638 263.06 143.582 263.563C143.526 264.065 141.068 264.232 139.057 264.623C137.046 265.013 134.755 265.85 135.314 267.748C135.929 269.645 141.012 273.495 153.08 274.053L158.666 273.941L161.46 269.087C166.823 258.317 165.929 251.956 164.588 250.561C163.192 249.11 161.348 250.729 160.007 252.291C158.666 253.853 157.326 255.918 156.879 255.751C156.432 255.527 156.208 255.193 156.376 254.188C156.543 253.24 158.387 244.591 155.817 242.303C153.191 240.015 148.722 245.762 147.94 246.376C147.158 246.99 146.711 246.153 146.711 245.539C146.711 244.925 146.767 238.062 146.934 234.937C147.102 231.812 146.32 229.748 144.364 229.301C142.521 228.911 141.236 231.924 140.23 232.984C139.225 234.1 138.107 232.594 138.107 232.594C138.107 232.594 136.376 228.409 132.018 221.21C127.716 214.012 124.644 216.356 124.644 216.356" fill="#74C1C7"/>
<path d="M159.001 275.225C155.817 269.924 150.398 260.438 145.649 252.291C140.9 244.144 136.655 236.779 133.526 231.478C131.962 228.799 130.677 226.679 129.839 225.172C129.392 224.447 129.057 223.833 128.833 223.442C128.722 223.275 128.61 223.108 128.554 222.996C128.498 222.884 128.498 222.829 128.498 222.829C128.498 222.829 128.554 222.884 128.61 222.996C128.666 223.108 128.777 223.219 128.889 223.442C129.113 223.833 129.504 224.391 129.951 225.116C130.844 226.567 132.129 228.743 133.694 231.366C136.878 236.667 141.18 244.033 145.873 252.179C150.621 260.326 156.04 269.868 159.169 275.169" fill="#263238"/>
<path d="M131.068 240.461C131.068 240.461 131.236 240.461 131.459 240.573C131.683 240.629 132.074 240.74 132.521 240.908C133.415 241.187 134.644 241.577 135.929 242.08C137.214 242.582 138.443 242.972 139.337 243.307C139.728 243.475 140.119 243.586 140.398 243.698C140.622 243.809 140.789 243.809 140.789 243.865C140.789 243.865 140.622 243.865 140.398 243.754C140.175 243.698 139.784 243.586 139.337 243.419C138.443 243.14 137.27 242.693 135.929 242.247C134.588 241.801 133.415 241.354 132.521 241.019C132.13 240.852 131.739 240.74 131.459 240.685C131.18 240.517 131.068 240.461 131.068 240.461Z" fill="#263238"/>
<path d="M141.124 243.419C141.068 243.419 141.795 240.852 142.744 237.727C143.694 234.602 144.532 232.091 144.532 232.091C144.588 232.091 143.862 234.658 142.912 237.783C142.018 240.908 141.18 243.419 141.124 243.419Z" fill="#263238"/>
<path d="M147.828 256.253C147.828 256.253 147.884 256.141 148.052 255.918C148.219 255.695 148.443 255.36 148.666 254.969C149.169 254.188 149.895 253.072 150.621 251.845C151.348 250.617 152.018 249.445 152.465 248.608C152.689 248.218 152.856 247.883 153.024 247.604C153.135 247.381 153.247 247.269 153.247 247.269C153.247 247.269 153.191 247.436 153.08 247.66C152.968 247.883 152.8 248.273 152.577 248.664C152.13 249.501 151.515 250.673 150.789 251.9C150.063 253.128 149.337 254.244 148.778 255.025C148.499 255.416 148.275 255.695 148.107 255.918C147.94 256.141 147.828 256.253 147.828 256.253Z" fill="#263238"/>
<path d="M138.163 255.583C138.163 255.583 138.275 255.583 138.554 255.583C138.833 255.583 139.169 255.583 139.616 255.639C140.509 255.695 141.683 255.751 143.023 255.806C144.364 255.862 145.537 255.974 146.431 256.03C146.822 256.085 147.158 256.085 147.437 256.141C147.66 256.141 147.828 256.197 147.828 256.197C147.828 256.197 147.716 256.197 147.437 256.197C147.158 256.197 146.822 256.197 146.375 256.141C145.482 256.085 144.308 256.03 142.968 255.974C141.627 255.918 140.454 255.806 139.56 255.751C139.169 255.695 138.833 255.695 138.554 255.639C138.275 255.583 138.163 255.583 138.163 255.583Z" fill="#263238"/>
<path d="M142.633 267.636C142.633 267.636 142.8 267.636 143.135 267.636C143.471 267.636 143.918 267.636 144.476 267.692C145.594 267.748 147.158 267.803 148.834 267.859C150.566 267.915 152.074 268.027 153.191 268.082C153.75 268.138 154.197 268.138 154.532 268.194C154.867 268.194 155.035 268.25 155.035 268.25C155.035 268.25 154.867 268.25 154.532 268.25C154.197 268.25 153.75 268.25 153.191 268.194C152.074 268.138 150.51 268.082 148.834 268.027C147.102 267.971 145.594 267.859 144.476 267.803C143.918 267.748 143.471 267.748 143.135 267.692C142.8 267.692 142.577 267.636 142.633 267.636Z" fill="#263238"/>
<path d="M154.699 268.138C154.699 268.138 154.755 267.971 154.979 267.692C155.146 267.357 155.425 266.966 155.705 266.464C156.319 265.46 157.157 264.009 158.051 262.447C158.945 260.828 159.727 259.378 160.286 258.317C160.565 257.815 160.789 257.369 160.956 257.034C161.124 256.755 161.18 256.588 161.236 256.588C161.236 256.588 161.18 256.755 161.012 257.09C160.9 257.369 160.677 257.815 160.398 258.373C159.895 259.433 159.113 260.94 158.219 262.502C157.325 264.121 156.431 265.516 155.817 266.52C155.481 267.022 155.202 267.413 155.034 267.692C154.811 267.971 154.699 268.138 154.699 268.138Z" fill="#263238"/>
<path fill-rule="evenodd" clip-rule="evenodd" d="M302.579 73.0615C302.746 74.6239 302.635 76.1863 302.355 77.6929L305.763 80.3155L302.746 86.7325L298.556 85.8397C297.551 87.0115 296.433 88.0717 295.148 88.9645L295.707 93.2053L289.059 95.6047L286.713 92.0335C285.148 92.2009 283.584 92.0893 282.076 91.8103L279.506 95.2141L273.081 92.2009L273.975 88.0159C272.802 87.0115 271.74 85.8955 270.846 84.6121L266.601 85.1701L264.198 78.5299L267.774 76.2421C267.606 74.6797 267.718 73.1173 267.997 71.6107L264.589 68.9881L267.606 62.5711L271.796 63.4639C272.802 62.2921 273.919 61.2319 275.204 60.3391L274.645 56.0983L281.293 53.6989L283.64 57.2701C285.204 57.1027 286.768 57.2143 288.277 57.4933L290.903 54.0895L297.327 57.1027L296.433 61.2877C297.607 62.2921 298.668 63.4081 299.562 64.6915L303.808 64.1335L306.21 70.7737L302.579 73.0615ZM292.467 72.3361C291.014 68.3743 286.657 66.3655 282.69 67.8163C278.724 69.2671 276.712 73.6195 278.165 77.5813C279.617 81.5431 283.975 83.5519 287.942 82.1011C291.852 80.6503 293.863 76.2979 292.467 72.3361Z" fill="#F6AC3B"/>
<path fill-rule="evenodd" clip-rule="evenodd" d="M338.557 95.3257C338.669 96.5533 338.613 97.7809 338.389 98.9527L341.071 101.017L338.725 106.095L335.428 105.37C334.646 106.318 333.752 107.155 332.747 107.825L333.194 111.173L327.942 113.07L326.099 110.224C324.87 110.336 323.641 110.28 322.467 110.057L320.4 112.735L315.316 110.392L316.043 107.099C315.093 106.318 314.255 105.425 313.585 104.421L310.232 104.867L308.333 99.6223L311.182 97.7809C311.071 96.5533 311.126 95.3257 311.35 94.1539L308.668 92.0893L311.015 87.0115L314.311 87.7369C315.093 86.7883 315.987 85.9513 316.992 85.2817L316.545 81.9337L321.797 80.0365L323.641 82.8823C324.87 82.7707 326.099 82.8265 327.272 83.0497L329.339 80.3713L334.423 82.7149L333.697 86.0071C334.646 86.7883 335.484 87.6811 336.155 88.6855L339.507 88.2391L341.406 93.4843L338.557 95.3257ZM330.512 94.7677C329.395 91.6429 325.931 90.0247 322.803 91.1965C319.674 92.3125 318.054 95.7721 319.227 98.8969C320.344 102.022 323.808 103.64 326.937 102.468C330.065 101.352 331.685 97.8925 330.512 94.7677Z" fill="#F6AC3B"/>
<path fill-rule="evenodd" clip-rule="evenodd" d="M302.243 116.976C302.355 118.036 302.299 119.096 302.131 120.101L304.422 121.886L302.411 126.239L299.562 125.625C298.891 126.406 298.109 127.132 297.271 127.745L297.662 130.591L293.193 132.209L291.629 129.81C290.567 129.922 289.506 129.866 288.5 129.698L286.712 131.986L282.355 129.977L282.969 127.132C282.187 126.462 281.461 125.681 280.846 124.844L277.997 125.234L276.377 120.77L278.779 119.208C278.667 118.148 278.723 117.088 278.891 116.083L276.6 114.298L278.612 109.945L281.461 110.559C282.131 109.778 282.913 109.052 283.751 108.439L283.36 105.593L287.83 103.975L289.394 106.374C290.455 106.262 291.517 106.318 292.522 106.486L294.31 104.198L298.668 106.207L298.053 109.052C298.835 109.722 299.562 110.503 300.176 111.34L303.025 110.95L304.645 115.414L302.243 116.976ZM295.372 116.474C294.422 113.795 291.461 112.456 288.779 113.405C286.098 114.353 284.757 117.311 285.707 119.989C286.656 122.668 289.617 124.007 292.299 123.058C294.981 122.11 296.377 119.152 295.372 116.474Z" fill="#F6AC3B"/>
<path d="M114.404 185.142H132.337V182.687H114.404V185.142Z" fill="#E0E0E0"/>
<path d="M114.404 180.986H132.337V178.531H114.404V180.986Z" fill="#E0E0E0"/>
<path d="M124.563 189.603H132.328V187.148H124.563V189.603Z" fill="#E0E0E0"/>
<path d="M386.547 275.783C386.547 275.839 302.355 275.95 198.499 275.95C94.6432 275.95 10.4521 275.894 10.4521 275.783C10.4521 275.727 94.6432 275.615 198.499 275.615C302.355 275.615 386.547 275.671 386.547 275.783Z" fill="#263238"/>
<path d="M276.601 248.943C275.26 249.222 274.143 250.171 273.417 251.287C272.691 252.458 272.355 253.798 272.244 255.137C271.964 257.759 272.914 260.661 274.031 263.005C276.601 261.61 277.774 258.429 278.277 256.755C279.059 254.244 278.948 249.055 276.601 248.943Z" fill="#74C1C7"/>
<path d="M270.624 266.743C271.294 265.348 271.015 263.674 270.121 262.447C269.227 261.219 267.774 260.494 266.266 260.27C265.596 260.159 264.813 260.215 264.255 260.717C263.752 261.163 263.64 261.889 263.864 262.558C264.031 263.172 264.478 263.73 264.925 264.176C266.545 265.683 268.389 266.911 270.624 266.743Z" fill="#74C1C7"/>
<path d="M271.741 275.169C271.741 275.169 271.741 275.002 271.797 274.611C271.797 274.22 271.797 273.718 271.853 273.16C271.853 271.933 271.909 270.147 271.35 268.306C270.792 266.464 269.786 265.013 268.836 264.176C268.389 263.73 267.942 263.451 267.607 263.284C267.44 263.172 267.328 263.172 267.272 263.116C267.16 263.06 267.16 263.06 267.16 263.06C267.16 263.116 267.886 263.395 268.78 264.232C269.674 265.069 270.68 266.52 271.183 268.306C271.741 270.091 271.685 271.877 271.741 273.104C271.741 273.718 271.741 274.22 271.741 274.555C271.685 274.946 271.741 275.169 271.741 275.169Z" fill="#263238"/>
<path d="M276.377 252.905C276.377 252.905 276.321 252.961 276.321 253.128C276.265 253.295 276.209 253.519 276.154 253.798C275.986 254.356 275.818 255.193 275.539 256.197C275.036 258.206 274.366 261.052 273.751 264.176C273.081 267.301 272.578 270.147 272.243 272.212C272.075 273.216 271.908 274.053 271.852 274.667C271.796 274.946 271.796 275.169 271.74 275.336C271.74 275.504 271.74 275.56 271.74 275.56C271.74 275.56 271.74 275.504 271.796 275.336C271.852 275.169 271.852 274.946 271.908 274.667C272.02 274.053 272.187 273.216 272.355 272.212C272.746 270.147 273.304 267.301 273.919 264.176C274.589 261.052 275.204 258.262 275.651 256.197C275.874 255.193 276.042 254.356 276.209 253.798C276.265 253.519 276.321 253.295 276.377 253.128C276.377 253.016 276.377 252.905 276.377 252.905Z" fill="#263238"/>
<path d="M274.031 269.087C275.204 266.129 277.83 263.73 280.959 263.005C281.741 262.837 282.746 262.781 283.193 263.451C283.696 264.121 283.361 265.069 282.914 265.739C281.07 268.585 277.327 270.091 274.031 269.31" fill="#74C1C7"/>
<path d="M280.121 265.348C280.121 265.348 279.953 265.348 279.618 265.46C279.451 265.516 279.283 265.571 279.06 265.627C278.836 265.683 278.557 265.795 278.333 265.906C278.054 266.018 277.775 266.129 277.439 266.297C277.104 266.464 276.825 266.632 276.49 266.855C275.819 267.301 275.149 267.803 274.534 268.473C273.92 269.143 273.417 269.868 273.026 270.538C272.858 270.872 272.691 271.207 272.523 271.542C272.356 271.877 272.3 272.156 272.188 272.435C272.076 272.714 272.02 272.993 271.964 273.216C271.909 273.439 271.853 273.662 271.853 273.83C271.797 274.165 271.797 274.332 271.797 274.332C271.853 274.332 271.909 273.607 272.3 272.491C272.411 272.212 272.523 271.933 272.635 271.598C272.747 271.263 272.914 270.984 273.138 270.649C273.529 269.98 274.032 269.31 274.59 268.64C275.205 267.971 275.875 267.469 276.49 267.022C276.825 266.799 277.104 266.632 277.439 266.464C277.719 266.297 278.054 266.185 278.277 266.018C279.395 265.516 280.121 265.404 280.121 265.348Z" fill="#263238"/>
<path fill-rule="evenodd" clip-rule="evenodd" d="M153.471 140.021C153.862 139.184 154.421 138.459 154.98 137.789L154.142 135.446L157.605 133.214L159.393 134.944C160.231 134.665 161.125 134.497 162.019 134.441L163.08 132.209L167.103 133.102V135.613C167.941 136.004 168.667 136.562 169.337 137.12L171.684 136.283L173.919 139.742L172.187 141.528C172.466 142.365 172.634 143.258 172.689 144.151L174.924 145.211L174.03 149.228H171.516C171.125 150.065 170.567 150.791 170.008 151.46L170.846 153.804L167.382 156.036L165.594 154.306C164.756 154.585 163.863 154.753 162.969 154.808L161.907 157.04L157.885 156.148V153.637C157.047 153.246 156.321 152.688 155.65 152.13L153.304 152.967L151.069 149.507L152.801 147.722C152.522 146.885 152.354 145.992 152.298 145.099L150.063 144.039L150.957 140.021H153.471ZM158.22 143.537C157.717 145.936 159.226 148.28 161.628 148.782C164.03 149.284 166.377 147.778 166.879 145.378C167.382 142.979 165.874 140.635 163.471 140.133C161.125 139.631 158.779 141.137 158.22 143.537Z" fill="#C7E6FF"/>
<path fill-rule="evenodd" clip-rule="evenodd" d="M146.935 121.663C147.158 121.273 147.382 120.882 147.661 120.603L147.27 119.487L148.946 118.427L149.784 119.264C150.175 119.152 150.622 119.041 151.069 119.041L151.572 117.925L153.527 118.371V119.599C153.918 119.822 154.309 120.045 154.589 120.324L155.706 119.933L156.767 121.607L155.929 122.444C156.041 122.835 156.153 123.281 156.153 123.728L157.27 124.23L156.823 126.183H155.594C155.371 126.574 155.147 126.964 154.868 127.243L155.259 128.359L153.583 129.419L152.745 128.582C152.354 128.694 151.907 128.806 151.46 128.806L150.957 129.922L149.002 129.475V128.248C148.611 128.024 148.22 127.801 147.94 127.522L146.823 127.913L145.762 126.239L146.6 125.402C146.488 125.011 146.376 124.565 146.376 124.118L145.259 123.616L145.706 121.663H146.935ZM149.225 123.393C148.946 124.565 149.728 125.681 150.845 125.96C152.019 126.239 153.136 125.458 153.415 124.342C153.695 123.17 152.913 122.054 151.795 121.775C150.678 121.496 149.505 122.221 149.225 123.393Z" fill="#C7E6FF"/>
<path d="M135.148 137.008C135.148 137.008 135.148 136.952 135.148 136.841C135.148 136.729 135.203 136.562 135.315 136.339C135.483 135.948 135.874 135.39 136.6 134.999C137.326 134.609 138.388 134.553 139.338 135.167C140.287 135.725 140.902 136.952 140.623 138.236C140.343 139.463 139.226 140.356 138.164 140.468C137.047 140.635 136.097 140.077 135.595 139.463C135.092 138.85 134.924 138.124 134.98 137.734C134.98 137.51 134.98 137.343 135.036 137.231C135.148 137.064 135.148 137.008 135.148 137.008C135.203 137.008 135.092 137.231 135.148 137.678C135.148 138.124 135.315 138.738 135.818 139.296C136.321 139.854 137.215 140.3 138.164 140.189C139.114 140.077 140.12 139.296 140.343 138.124C140.623 137.008 140.008 135.892 139.17 135.334C138.332 134.776 137.326 134.832 136.656 135.167C135.986 135.502 135.539 136.004 135.371 136.394C135.259 136.785 135.203 137.064 135.148 137.008Z" fill="#263238"/>
<path d="M132.187 134.832C132.187 134.832 132.075 134.832 131.796 134.832C131.517 134.832 131.126 134.832 130.623 134.888L130.679 134.832C130.567 135.502 130.344 136.339 130.176 137.343L130.12 137.287C130.567 137.51 131.014 137.678 131.517 137.957H131.573V138.013C131.573 138.515 131.684 139.073 131.852 139.631V139.687L131.796 139.742C131.461 140.077 131.07 140.468 130.735 140.858V140.747C131.182 141.416 131.629 142.142 132.131 142.923L132.02 142.867C132.467 142.7 132.969 142.532 133.472 142.309H133.528L133.584 142.365C133.975 142.7 134.422 143.035 134.925 143.314L134.981 143.369V143.425C134.981 143.927 134.981 144.43 134.981 144.988L134.869 144.876C135.651 145.043 136.489 145.211 137.383 145.434L137.215 145.49C137.439 145.043 137.662 144.597 137.886 144.095L137.941 144.039H137.997C138.5 144.039 139.059 143.927 139.617 143.76H139.673L139.729 143.816C140.064 144.151 140.455 144.541 140.847 144.876H140.679C141.349 144.43 142.076 143.983 142.858 143.481L142.802 143.648C142.634 143.202 142.467 142.7 142.243 142.198L142.187 142.142L142.243 142.086C142.578 141.695 142.914 141.249 143.193 140.747C143.472 140.579 143.249 140.691 143.305 140.691H143.361H143.472H143.64H144.031C144.31 140.691 144.534 140.691 144.813 140.691L144.645 140.803C144.813 139.966 145.037 139.129 145.204 138.292L145.26 138.459C144.813 138.236 144.31 138.013 143.863 137.789L143.807 137.734V137.622C143.807 137.064 143.696 136.506 143.528 136.004V135.948L143.584 135.892C143.975 135.502 144.31 135.167 144.645 134.776V134.944C144.199 134.218 143.696 133.493 143.249 132.767L143.416 132.823C142.914 132.991 142.411 133.158 141.964 133.325H141.908L141.852 133.27C141.461 132.879 140.958 132.6 140.511 132.321L140.455 132.265V132.209C140.455 131.651 140.455 131.149 140.455 130.647L140.567 130.759C139.673 130.591 138.835 130.368 138.053 130.201L138.165 130.145C137.941 130.647 137.718 131.093 137.495 131.54V131.596H137.439C136.824 131.596 136.321 131.707 135.819 131.875H135.763L135.707 131.819C135.316 131.428 134.925 131.038 134.589 130.703H134.701C133.863 131.205 133.137 131.707 132.522 132.098V132.042C132.746 132.6 132.913 133.102 133.025 133.493C132.411 134.33 132.243 134.888 132.187 134.832C132.187 134.832 132.187 134.776 132.243 134.72C132.299 134.665 132.299 134.553 132.411 134.441C132.522 134.218 132.746 133.828 133.137 133.437V133.493C132.969 133.102 132.802 132.6 132.578 132.042V131.986L132.634 131.93C133.249 131.54 133.975 131.093 134.757 130.535L134.813 130.48L134.869 130.535C135.204 130.87 135.595 131.205 135.986 131.596H135.874C136.377 131.428 136.936 131.317 137.55 131.261L137.439 131.317C137.662 130.87 137.886 130.424 138.109 129.922L138.165 129.866H138.277C139.059 130.033 139.897 130.201 140.791 130.424H140.902V130.535C140.902 131.038 140.902 131.54 140.902 132.098L140.847 131.986C141.349 132.265 141.796 132.544 142.243 132.935H142.131C142.634 132.767 143.081 132.6 143.584 132.377L143.696 132.321L143.752 132.433C144.199 133.158 144.645 133.828 145.148 134.609L145.204 134.72L145.148 134.776C144.813 135.167 144.422 135.502 144.087 135.892L144.143 135.725C144.31 136.283 144.422 136.841 144.478 137.399L144.422 137.287C144.869 137.51 145.372 137.734 145.819 137.957L145.93 138.013V138.124C145.763 138.961 145.595 139.798 145.372 140.635V140.747H145.26C144.981 140.747 144.757 140.747 144.478 140.747H144.087H143.919H143.807H143.752C143.807 140.691 143.64 140.803 143.863 140.691C143.584 141.193 143.249 141.695 142.914 142.086L142.969 141.919C143.137 142.421 143.305 142.923 143.472 143.369L143.528 143.481L143.416 143.537C142.69 144.039 141.964 144.485 141.238 144.932L141.126 144.988L141.07 144.932C140.679 144.541 140.288 144.206 139.953 143.872L140.12 143.927C139.562 144.095 138.947 144.206 138.444 144.206L138.556 144.151C138.333 144.653 138.109 145.099 137.886 145.546L137.83 145.657H137.718C136.824 145.49 135.986 145.267 135.204 145.099H135.092V144.988C135.092 144.43 135.092 143.927 135.092 143.425L135.148 143.537C134.589 143.258 134.143 142.923 133.751 142.588H133.863C133.36 142.756 132.858 142.923 132.411 143.09L132.299 143.146L132.243 143.09C131.74 142.309 131.293 141.584 130.846 140.914L130.791 140.858L130.846 140.803C131.237 140.412 131.573 140.021 131.964 139.687V139.798C131.796 139.24 131.684 138.682 131.684 138.124L131.74 138.18C131.237 137.957 130.791 137.734 130.344 137.51H130.288V137.455C130.511 136.45 130.735 135.613 130.846 134.944V134.888H130.902C131.405 134.888 131.796 134.888 132.075 134.888C132.187 134.888 132.299 134.888 132.355 134.888C132.187 134.832 132.187 134.832 132.187 134.832Z" fill="#263238"/>
<g opacity="0.8">
<path opacity="0.8" fill-rule="evenodd" clip-rule="evenodd" d="M153.471 140.021C153.862 139.184 154.421 138.459 154.98 137.789L154.142 135.446L157.605 133.214L159.393 134.944C160.231 134.665 161.125 134.497 162.019 134.441L163.08 132.209L167.103 133.102V135.613C167.941 136.004 168.667 136.562 169.337 137.12L171.684 136.283L173.919 139.742L172.187 141.528C172.466 142.365 172.634 143.258 172.689 144.151L174.924 145.211L174.03 149.228H171.516C171.125 150.065 170.567 150.791 170.008 151.46L170.846 153.804L167.382 156.036L165.594 154.306C164.756 154.585 163.863 154.753 162.969 154.808L161.907 157.04L157.885 156.148V153.637C157.047 153.246 156.321 152.688 155.65 152.13L153.304 152.967L151.069 149.507L152.801 147.722C152.522 146.885 152.354 145.992 152.298 145.099L150.063 144.039L150.957 140.021H153.471ZM158.22 143.537C157.717 145.936 159.226 148.28 161.628 148.782C164.03 149.284 166.377 147.778 166.879 145.378C167.382 142.979 165.874 140.635 163.471 140.133C161.125 139.631 158.779 141.137 158.22 143.537Z" fill="white"/>
</g>
<path d="M255.148 135.836C254.143 124.621 250.232 113.349 242.578 105.035C234.925 96.7207 223.304 91.7545 212.187 93.5959C201.07 95.4931 191.181 104.979 190.455 116.251C190.064 122.221 192.075 128.136 191.74 134.162C191.181 144.485 183.751 153.246 175.427 159.44C168.276 164.797 160.566 166.694 155.427 174.004C146.209 187.061 147.773 202.127 153.192 211.166C155.035 214.291 158.108 217.193 161.795 219.648C172.354 226.79 185.539 228.632 197.885 225.507C217.047 220.652 234.366 208.544 244.31 192.92C255.875 174.617 256.824 154.306 255.148 135.836Z" fill="#64B9FF"/>
<path opacity="0.8" d="M255.148 135.836C254.143 124.621 250.232 113.349 242.578 105.035C234.925 96.7207 223.304 91.7545 212.187 93.5959C201.07 95.4931 191.181 104.979 190.455 116.251C190.064 122.221 192.075 128.136 191.74 134.162C191.181 144.485 183.751 153.246 175.427 159.44C168.276 164.797 160.566 166.694 155.427 174.004C146.209 187.061 147.773 202.127 153.192 211.166C155.035 214.291 158.108 217.193 161.795 219.648C172.354 226.79 185.539 228.632 197.885 225.507C217.047 220.652 234.366 208.544 244.31 192.92C255.875 174.617 256.824 154.306 255.148 135.836Z" fill="#E1F0FC"/>
<path d="M174.589 215.909C175.021 215.909 175.371 215.56 175.371 215.128C175.371 214.697 175.021 214.347 174.589 214.347C174.157 214.347 173.807 214.697 173.807 215.128C173.807 215.56 174.157 215.909 174.589 215.909Z" fill="#64B9FF"/>
<path d="M187.215 229.19C187.461 229.19 187.661 228.99 187.661 228.743C187.661 228.497 187.461 228.297 187.215 228.297C186.968 228.297 186.768 228.497 186.768 228.743C186.768 228.99 186.968 229.19 187.215 229.19Z" fill="#64B9FF"/>
<path d="M214.813 231.199C211.963 232.37 208.667 236.444 208.444 239.68C208.22 242.917 209.896 246.097 212.522 247.994C215.148 249.892 218.5 250.617 221.74 250.282C224.031 250.059 226.377 249.222 227.941 247.492C229.673 245.595 230.232 242.861 229.952 240.35C229.617 236.834 227.774 233.486 224.813 231.533C221.852 229.692 217.829 229.413 214.813 231.199Z" fill="#64B9FF"/>
<g opacity="0.8">
<path opacity="0.8" d="M214.813 231.199C211.963 232.37 208.667 236.444 208.444 239.68C208.22 242.917 209.896 246.097 212.522 247.994C215.148 249.892 218.5 250.617 221.74 250.282C224.031 250.059 226.377 249.222 227.941 247.492C229.673 245.595 230.232 242.861 229.952 240.35C229.617 236.834 227.774 233.486 224.813 231.533C221.852 229.692 217.829 229.413 214.813 231.199Z" fill="white"/>
</g>
<path fill-rule="evenodd" clip-rule="evenodd" d="M237.048 169.372C237.048 170.153 236.433 170.823 235.595 170.823C234.813 170.823 234.143 170.209 234.143 169.372C234.143 168.591 234.757 167.921 235.595 167.921C236.433 167.977 237.048 168.591 237.048 169.372Z" fill="#64B9FF"/>
<path d="M214.087 116.474C214.519 116.474 214.869 116.124 214.869 115.693C214.869 115.261 214.519 114.911 214.087 114.911C213.655 114.911 213.305 115.261 213.305 115.693C213.305 116.124 213.655 116.474 214.087 116.474Z" fill="#64B9FF"/>
<path d="M233.304 261.107C233.304 262.056 219.505 262.781 202.41 262.781C185.371 262.781 171.516 262 171.516 261.107C171.516 260.159 185.315 259.433 202.41 259.433C219.505 259.433 233.304 260.159 233.304 261.107Z" fill="#FAFAFA"/>
<path d="M155.649 275.783L162.689 261.275H240.455L249.729 275.783C249.729 275.727 155.649 276.676 155.649 275.783Z" fill="#263238"/>
<path d="M203.974 276.006C203.918 276.006 203.862 273.16 203.862 269.701C203.862 266.241 203.918 263.395 203.974 263.395C204.03 263.395 204.086 266.241 204.086 269.701C204.086 273.16 204.03 276.006 203.974 276.006Z" fill="#455A64"/>
<path d="M243.471 266.966C243.471 266.966 243.36 266.966 243.192 267.022C242.969 267.022 242.689 267.078 242.354 267.134C241.572 267.19 240.51 267.301 239.114 267.469C236.32 267.748 232.466 268.082 228.052 268.529L228.164 268.473C227.438 269.645 226.655 270.928 225.873 272.212L225.817 272.267H225.762C225.482 272.267 225.147 272.267 224.868 272.267C219.114 272.379 213.918 272.491 210.119 272.546C208.275 272.546 206.711 272.602 205.65 272.602C205.147 272.602 204.756 272.602 204.421 272.602C204.309 272.602 204.197 272.602 204.085 272.602C204.03 272.602 203.974 272.602 203.974 272.602C203.974 272.602 204.03 272.602 204.085 272.602C204.197 272.602 204.253 272.602 204.421 272.602C204.7 272.602 205.147 272.602 205.65 272.546C206.711 272.491 208.219 272.491 210.119 272.435C213.918 272.323 219.114 272.212 224.868 272.1C225.203 272.1 225.482 272.1 225.762 272.1L225.65 272.156C226.432 270.872 227.214 269.589 227.996 268.417L228.052 268.361H228.108C232.577 267.971 236.432 267.636 239.17 267.413C240.51 267.301 241.628 267.19 242.41 267.134C242.745 267.134 243.08 267.078 243.248 267.078C243.36 266.966 243.471 266.966 243.471 266.966Z" fill="#455A64"/>
<path d="M236.433 267.58C236.377 267.58 236.154 266.408 235.874 264.902C235.651 263.451 235.483 262.223 235.595 262.223C235.651 262.223 235.874 263.395 236.154 264.902C236.377 266.408 236.489 267.58 236.433 267.58Z" fill="#455A64"/>
<path d="M174.086 276.173C174.086 276.173 174.03 276.118 173.974 275.95C173.918 275.783 173.807 275.56 173.695 275.281C173.471 274.667 173.08 273.83 172.689 272.881L172.801 272.937C171.237 272.825 169.449 272.658 167.494 272.546C164.756 272.323 162.354 272.156 160.566 271.988C159.728 271.933 159.002 271.821 158.443 271.821C157.94 271.765 157.661 271.765 157.661 271.709C157.661 271.709 157.94 271.709 158.443 271.709C159.002 271.765 159.672 271.765 160.566 271.821C162.354 271.933 164.812 272.1 167.494 272.323C169.449 272.491 171.293 272.602 172.801 272.77H172.857V272.825C173.248 273.83 173.527 274.667 173.751 275.281C173.862 275.56 173.918 275.783 173.974 275.95C174.086 276.062 174.142 276.173 174.086 276.173Z" fill="#455A64"/>
<path d="M203.974 266.966C203.974 266.966 203.918 266.966 203.862 266.966C203.806 266.966 203.694 266.966 203.583 266.966C203.303 266.966 202.968 266.966 202.521 266.966C201.571 266.966 200.286 266.966 198.666 267.022C195.37 267.022 190.789 267.022 185.538 267.078H185.594C184.42 267.524 183.247 267.971 182.018 268.417C181.348 268.64 180.677 268.919 180.063 269.143H180.007C174.42 268.473 169.392 267.859 165.817 267.413C164.029 267.19 162.576 267.022 161.571 266.855C161.068 266.799 160.733 266.743 160.454 266.687C160.342 266.687 160.23 266.632 160.174 266.632C160.118 266.632 160.062 266.632 160.062 266.632C160.062 266.632 160.118 266.632 160.174 266.632C160.23 266.632 160.342 266.632 160.454 266.632C160.733 266.687 161.124 266.687 161.627 266.743C162.632 266.855 164.085 267.022 165.873 267.245C169.504 267.692 174.476 268.25 180.063 268.919H180.007C180.621 268.696 181.292 268.417 181.962 268.194C183.191 267.748 184.364 267.301 185.538 266.855C190.733 266.855 195.314 266.911 198.666 266.911C200.286 266.911 201.627 266.911 202.521 266.966C202.968 266.966 203.303 266.966 203.583 266.966C203.694 266.966 203.806 266.966 203.862 266.966C203.918 266.966 203.974 266.966 203.974 266.966Z" fill="#455A64"/>
<path d="M261.964 149.507H244.031V151.963H261.964V149.507Z" fill="#E8505B"/>
<path d="M251.797 153.971H244.031V156.427H251.797V153.971Z" fill="#E8505B"/>
<path d="M355.372 154.808C355.372 154.808 355.428 154.753 355.484 154.697C355.596 154.641 355.708 154.529 355.819 154.418C355.875 154.362 355.987 154.306 356.099 154.195C356.21 154.139 356.322 154.083 356.434 153.971C356.546 153.916 356.713 153.804 356.825 153.748C356.993 153.692 357.16 153.581 357.328 153.525C358.724 152.911 361.071 152.576 363.697 153.413C364.982 153.86 366.378 154.529 367.551 155.701C368.725 156.817 369.674 158.324 370.233 160.054C371.406 163.513 371.127 167.754 369.395 171.548C367.663 175.399 364.982 178.412 362.468 180.979C359.898 183.545 357.44 185.61 355.484 187.507C353.529 189.404 352.02 191.023 351.071 192.194C350.568 192.808 350.233 193.255 350.009 193.589C349.898 193.757 349.786 193.868 349.73 193.98C349.674 194.036 349.618 194.092 349.618 194.092C349.618 194.092 349.618 194.036 349.674 193.98C349.73 193.868 349.842 193.757 349.897 193.589C350.121 193.255 350.456 192.752 350.959 192.194C351.909 190.967 353.361 189.349 355.317 187.451C357.272 185.554 359.73 183.434 362.244 180.867C364.758 178.3 367.384 175.287 369.116 171.493C370.792 167.754 371.071 163.569 369.954 160.165C369.395 158.491 368.501 156.985 367.328 155.924C366.211 154.808 364.87 154.139 363.585 153.692C361.015 152.8 358.724 153.134 357.328 153.692C355.987 154.195 355.372 154.864 355.372 154.808Z" fill="#263238"/>
<path d="M309.115 246.544V228.799C309.115 222.494 313.361 218.253 318.613 218.141L372.859 217.472C376.49 217.416 379.451 220.373 379.451 224V246.209L309.115 246.544Z" fill="#64B9FF"/>
<path d="M372.803 222.996H350.848V233.263H372.803V222.996Z" fill="#FAFAFA"/>
<path d="M343.92 246.097C343.864 246.097 343.752 239.792 343.752 232.035C343.752 224.279 343.808 217.974 343.92 217.974C343.975 217.974 344.087 224.279 344.087 232.035C344.087 239.847 344.031 246.097 343.92 246.097Z" fill="#263238"/>
<path d="M344.144 209.548C344.144 209.548 344.311 209.437 344.702 209.269C345.037 209.158 345.596 208.99 346.266 208.934C347.607 208.767 349.674 209.102 351.294 210.497C352.915 211.892 353.529 213.901 353.529 215.24C353.585 215.909 353.473 216.467 353.417 216.858C353.306 217.249 353.25 217.416 353.25 217.416C353.194 217.416 353.473 216.579 353.362 215.24C353.25 213.956 352.635 212.059 351.127 210.72C349.563 209.381 347.663 209.046 346.322 209.102C344.926 209.213 344.199 209.604 344.144 209.548Z" fill="#263238"/>
<path d="M317.271 218.253L343.92 146.55L363.25 155.701L340.624 222.996L317.271 218.253Z" fill="#64B9FF"/>
<path opacity="0.4" d="M329.927 242.347C334.588 238.695 335.402 231.96 331.746 227.305C328.089 222.649 321.346 221.836 316.685 225.489C312.024 229.141 311.21 235.876 314.867 240.532C318.523 245.187 325.266 246 329.927 242.347Z" fill="black"/>
<path d="M334.611 234.374C337.14 228.854 334.71 222.331 329.183 219.805C323.656 217.278 317.125 219.706 314.596 225.226C312.067 230.747 314.497 237.27 320.024 239.796C325.551 242.322 332.082 239.895 334.611 234.374Z" fill="#263238"/>
<path d="M328.629 231.072C329.322 228.866 328.094 226.518 325.886 225.825C323.679 225.133 321.327 226.36 320.634 228.565C319.941 230.77 321.169 233.119 323.377 233.811C325.584 234.503 327.936 233.277 328.629 231.072Z" fill="#455A64"/>
<path d="M328.668 220.596C328.668 220.596 328.724 220.429 328.78 220.15C328.891 219.815 329.059 219.425 329.227 218.867C329.618 217.751 330.176 216.188 330.903 214.235C332.355 210.329 334.31 204.972 336.489 199.058C337.942 195.152 339.283 191.525 340.456 188.4L340.512 188.567C337.271 187.451 334.59 186.447 332.634 185.777C331.685 185.442 330.959 185.163 330.456 184.996C330.232 184.884 330.009 184.829 329.897 184.773C329.785 184.717 329.674 184.717 329.729 184.661C329.729 184.661 329.785 184.661 329.953 184.717C330.12 184.773 330.288 184.829 330.567 184.884C331.126 185.052 331.852 185.331 332.802 185.61C334.757 186.279 337.439 187.172 340.679 188.288L340.791 188.344L340.735 188.456C339.562 191.58 338.221 195.207 336.769 199.113C334.534 205.028 332.579 210.329 331.07 214.235C330.344 216.132 329.729 217.695 329.338 218.811C329.115 219.313 328.947 219.759 328.836 220.038C328.724 220.429 328.668 220.596 328.668 220.596Z" fill="#263238"/>
<path d="M353.474 185.666C353.418 185.722 348.725 183.936 342.915 181.648C337.105 179.36 332.468 177.407 332.468 177.351C332.524 177.296 337.216 179.081 343.027 181.369C348.837 183.657 353.474 185.61 353.474 185.666Z" fill="#263238"/>
<path d="M330.12 240.406C330.12 240.406 330.399 240.127 330.902 239.736C331.405 239.29 332.075 238.62 332.858 237.783C334.422 236.053 336.321 233.319 337.83 230.027C339.338 226.735 340.288 223.61 341.014 221.322C341.349 220.206 341.629 219.313 341.852 218.644C341.964 218.365 342.02 218.141 342.076 217.918C342.131 217.751 342.187 217.639 342.187 217.695C342.187 217.695 342.187 217.807 342.131 217.974C342.076 218.197 342.02 218.42 341.964 218.699C341.796 219.369 341.573 220.262 341.238 221.434C340.567 223.721 339.617 226.846 338.109 230.194C336.601 233.486 334.645 236.221 333.025 237.95C332.187 238.843 331.461 239.457 330.958 239.903C330.679 240.127 330.511 240.238 330.344 240.35C330.176 240.35 330.12 240.406 330.12 240.406Z" fill="#263238"/>
<path d="M316.098 234.379C316.098 234.379 316.043 234.379 315.931 234.323C315.819 234.268 315.652 234.212 315.428 234.1C315.037 233.821 314.478 233.319 314.143 232.482C313.808 231.645 313.752 230.585 313.864 229.469C313.976 228.353 314.199 227.125 314.478 225.842C315.037 223.275 315.819 221.043 316.49 219.425C316.825 218.643 317.104 217.974 317.328 217.583C317.551 217.137 317.663 216.914 317.663 216.914C317.663 216.914 317.607 217.193 317.383 217.639C317.216 218.085 316.936 218.699 316.657 219.536C316.043 221.154 315.316 223.386 314.758 225.953C314.255 228.464 313.696 230.92 314.311 232.482C314.59 233.263 315.093 233.765 315.484 234.044C315.819 234.323 316.098 234.379 316.098 234.379Z" fill="#263238"/>
<path d="M311.964 270.649C317.333 270.649 321.685 266.302 321.685 260.94C321.685 255.578 317.333 251.231 311.964 251.231C306.595 251.231 302.243 255.578 302.243 260.94C302.243 266.302 306.595 270.649 311.964 270.649Z" fill="#455A64"/>
<path d="M311.963 264.288C313.815 264.288 315.315 262.789 315.315 260.94C315.315 259.091 313.815 257.592 311.963 257.592C310.112 257.592 308.611 259.091 308.611 260.94C308.611 262.789 310.112 264.288 311.963 264.288Z" fill="#263238"/>
<path d="M343.864 270.928C349.233 270.928 353.585 266.581 353.585 261.219C353.585 255.857 349.233 251.51 343.864 251.51C338.496 251.51 334.144 255.857 334.144 261.219C334.144 266.581 338.496 270.928 343.864 270.928Z" fill="#455A64"/>
<path d="M343.864 264.567C345.715 264.567 347.216 263.068 347.216 261.219C347.216 259.37 345.715 257.871 343.864 257.871C342.012 257.871 340.512 259.37 340.512 261.219C340.512 263.068 342.012 264.567 343.864 264.567Z" fill="#263238"/>
<path d="M375.987 270.928C381.356 270.928 385.708 266.581 385.708 261.219C385.708 255.857 381.356 251.51 375.987 251.51C370.619 251.51 366.267 255.857 366.267 261.219C366.267 266.581 370.619 270.928 375.987 270.928Z" fill="#455A64"/>
<path d="M375.987 264.567C377.838 264.567 379.339 263.068 379.339 261.219C379.339 259.37 377.838 257.871 375.987 257.871C374.136 257.871 372.635 259.37 372.635 261.219C372.635 263.068 374.136 264.567 375.987 264.567Z" fill="#263238"/>
<path d="M376.379 275.671H311.741C303.64 275.671 296.992 269.087 296.992 260.94C296.992 252.849 303.584 246.209 311.741 246.209H376.379C384.479 246.209 391.128 252.793 391.128 260.94C391.072 269.031 384.479 275.671 376.379 275.671ZM311.741 251.063C306.266 251.063 301.853 255.527 301.853 260.94C301.853 266.408 306.322 270.817 311.741 270.817H376.379C381.854 270.817 386.267 266.353 386.267 260.94C386.267 255.472 381.798 251.063 376.379 251.063H311.741Z" fill="#263238"/>
<path d="M343.865 251.008C343.809 251.008 343.753 249.947 343.753 248.664C343.753 247.381 343.809 246.32 343.865 246.32C343.921 246.32 343.976 247.381 343.976 248.664C343.921 250.003 343.921 251.008 343.865 251.008Z" fill="#455A64"/>
<path d="M355.988 251.008C355.932 251.008 355.876 249.947 355.876 248.664C355.876 247.381 355.932 246.32 355.988 246.32C356.044 246.32 356.099 247.381 356.099 248.664C356.044 250.003 355.988 251.008 355.988 251.008Z" fill="#455A64"/>
<path d="M368.055 251.008C367.999 251.008 367.943 249.947 367.943 248.664C367.943 247.381 367.999 246.32 368.055 246.32C368.111 246.32 368.167 247.381 368.167 248.664C368.167 250.003 368.111 251.008 368.055 251.008Z" fill="#455A64"/>
<path d="M379.34 251.51C379.284 251.51 379.564 250.449 379.955 249.222C380.346 247.994 380.681 246.99 380.737 246.99C380.793 246.99 380.513 248.05 380.122 249.278C379.731 250.505 379.396 251.51 379.34 251.51Z" fill="#455A64"/>
<path d="M385.709 257.536C385.709 257.48 386.603 256.978 387.776 256.364C388.949 255.751 389.899 255.304 389.899 255.36C389.899 255.416 389.005 255.918 387.832 256.532C386.715 257.146 385.709 257.592 385.709 257.536Z" fill="#455A64"/>
<path d="M343.25 271.04C343.306 271.04 343.362 272.1 343.362 273.383C343.362 274.667 343.306 275.727 343.25 275.727C343.195 275.727 343.139 274.667 343.139 273.383C343.195 272.1 343.195 271.04 343.25 271.04Z" fill="#455A64"/>
<path d="M355.373 270.872C355.429 270.872 355.485 271.933 355.485 273.216C355.485 274.499 355.429 275.56 355.373 275.56C355.318 275.56 355.262 274.499 355.262 273.216C355.262 271.933 355.318 270.872 355.373 270.872Z" fill="#455A64"/>
<path d="M367.496 270.872C367.552 270.872 367.608 271.933 367.608 273.216C367.608 274.499 367.552 275.56 367.496 275.56C367.441 275.56 367.385 274.499 367.385 273.216C367.385 271.933 367.441 270.872 367.496 270.872Z" fill="#455A64"/>
<path d="M378.726 270.593C378.782 270.593 379.117 271.598 379.508 272.825C379.899 274.053 380.178 275.113 380.123 275.113C380.067 275.113 379.731 274.109 379.34 272.881C378.949 271.598 378.67 270.593 378.726 270.593Z" fill="#455A64"/>
<path d="M385.43 265.013C385.43 264.957 386.435 265.404 387.553 266.018C388.726 266.631 389.62 267.134 389.62 267.189C389.62 267.245 388.614 266.799 387.497 266.185C386.379 265.571 385.43 265.069 385.43 265.013Z" fill="#455A64"/>
<path d="M332.3 271.04C332.356 271.04 332.412 272.1 332.412 273.383C332.412 274.667 332.356 275.727 332.3 275.727C332.244 275.727 332.188 274.667 332.188 273.383C332.188 272.1 332.244 271.04 332.3 271.04Z" fill="#455A64"/>
<path d="M320.176 271.04C320.232 271.04 320.288 272.1 320.288 273.383C320.288 274.667 320.232 275.727 320.176 275.727C320.12 275.727 320.064 274.667 320.064 273.383C320.064 272.1 320.12 271.04 320.176 271.04Z" fill="#455A64"/>
<path d="M308.892 270.593C308.948 270.593 308.669 271.654 308.278 272.881C307.886 274.109 307.551 275.113 307.495 275.113C307.44 275.113 307.719 274.053 308.11 272.825C308.501 271.542 308.892 270.593 308.892 270.593Z" fill="#455A64"/>
<path d="M302.523 264.511C302.523 264.567 301.629 265.069 300.456 265.683C299.283 266.297 298.333 266.743 298.333 266.687C298.333 266.632 299.227 266.129 300.4 265.516C301.573 264.902 302.523 264.455 302.523 264.511Z" fill="#455A64"/>
<path d="M332.859 251.175C332.803 251.175 332.747 250.115 332.747 248.831C332.747 247.548 332.803 246.488 332.859 246.488C332.915 246.488 332.971 247.548 332.971 248.831C332.971 250.115 332.915 251.175 332.859 251.175Z" fill="#455A64"/>
<path d="M320.791 251.175C320.736 251.175 320.68 250.115 320.68 248.831C320.68 247.548 320.736 246.488 320.791 246.488C320.847 246.488 320.903 247.548 320.903 248.831C320.847 250.115 320.791 251.175 320.791 251.175Z" fill="#455A64"/>
<path d="M309.506 251.51C309.451 251.51 309.115 250.505 308.724 249.278C308.333 248.05 308.054 246.99 308.11 246.99C308.166 246.99 308.501 247.994 308.892 249.222C309.283 250.45 309.562 251.51 309.506 251.51Z" fill="#455A64"/>
<path d="M302.802 257.09C302.802 257.146 301.797 256.699 300.679 256.085C299.506 255.472 298.612 254.969 298.612 254.914C298.612 254.858 299.618 255.304 300.735 255.918C301.908 256.476 302.802 257.034 302.802 257.09Z" fill="#455A64"/>
<path d="M284.422 176.794L320.623 162.23L322.691 169.986L288.109 185.052L284.422 176.794Z" fill="#E0E0E0"/>
<path d="M349.563 164.852L323.976 174.952L317.998 158.938L346.937 146.829L349.563 164.852Z" fill="#64B9FF"/>
<path d="M358.67 153.19L374.648 146.55L372.022 139.966L356.547 146.215L358.67 153.19Z" fill="#E0E0E0"/>
<path opacity="0.4" d="M350.737 169.707C356.29 169.707 360.793 165.21 360.793 159.663C360.793 154.116 356.29 149.619 350.737 149.619C345.183 149.619 340.681 154.116 340.681 159.663C340.681 165.21 345.183 169.707 350.737 169.707Z" fill="black"/>
<path d="M358.334 147.22C362.189 151.405 361.965 157.989 357.719 161.839C353.529 165.689 346.937 165.466 343.082 161.225C339.228 157.04 339.451 150.456 343.697 146.606C347.943 142.756 354.479 142.979 358.334 147.22Z" fill="#263238"/>
<path d="M353.641 151.572C355.094 153.19 355.038 155.645 353.418 157.152C351.797 158.603 349.339 158.547 347.831 156.929C346.378 155.311 346.434 152.855 348.054 151.349C349.675 149.842 352.133 149.954 353.641 151.572Z" fill="#455A64"/>
<path d="M321.183 156.761C321.183 156.761 321.35 156.873 321.63 157.152C321.909 157.431 322.3 157.822 322.747 158.324C323.753 159.384 325.037 160.779 326.602 162.397L326.434 162.341C327.551 161.895 328.725 161.449 329.954 160.946C332.915 159.775 335.652 158.714 337.607 157.989C338.557 157.654 339.339 157.319 339.954 157.096C340.513 156.873 340.792 156.817 340.848 156.817C340.848 156.817 340.568 156.985 340.01 157.208C339.395 157.431 338.669 157.766 337.719 158.156C335.764 158.938 333.082 160.054 330.121 161.225C328.892 161.728 327.663 162.174 326.602 162.62L326.49 162.676L326.434 162.62C324.926 160.946 323.641 159.551 322.691 158.491C322.244 157.989 321.909 157.598 321.63 157.264C321.294 156.929 321.183 156.761 321.183 156.761Z" fill="#263238"/>
<path d="M257.718 183.545L283.305 172.664L290.623 187.786L264.087 199.169L257.718 183.545Z" fill="#64B9FF"/>
<path opacity="0.4" d="M271.817 192.366C272.881 187.93 270.144 183.472 265.703 182.409C261.262 181.346 256.799 184.08 255.735 188.515C254.671 192.951 257.408 197.409 261.849 198.472C266.289 199.535 270.752 196.801 271.817 192.366Z" fill="black"/>
<path d="M268.945 194.399C270.425 189.76 267.86 184.8 263.215 183.322C258.57 181.843 253.605 184.405 252.124 189.044C250.644 193.684 253.209 198.643 257.854 200.122C262.499 201.601 267.464 199.039 268.945 194.399Z" fill="#263238"/>
<path d="M259.171 188.623C260.903 187.898 262.858 188.679 263.584 190.409C264.31 192.139 263.528 194.092 261.796 194.817C260.064 195.542 258.109 194.761 257.383 193.031C256.657 191.302 257.495 189.349 259.171 188.623Z" fill="#455A64"/>
<path d="M274.031 194.929C274.031 194.929 273.975 194.705 273.919 194.315C273.863 193.868 273.752 193.255 273.64 192.529C273.416 190.967 273.081 188.846 272.746 186.391V186.28L272.858 186.224C273.863 185.833 274.925 185.387 275.986 184.94C279.059 183.713 281.852 182.597 283.864 181.816C284.869 181.425 285.651 181.146 286.266 180.867C286.824 180.644 287.16 180.532 287.16 180.588C287.16 180.588 286.88 180.755 286.322 180.979C285.707 181.258 284.925 181.592 283.975 181.983C281.964 182.82 279.171 183.992 276.098 185.219C274.981 185.666 273.919 186.112 272.97 186.503L273.081 186.335C273.416 188.791 273.64 190.911 273.863 192.473C273.919 193.199 274.031 193.813 274.087 194.259C274.031 194.705 274.031 194.929 274.031 194.929Z" fill="#263238"/>
<path d="M244.302 197.031L244.123 195.986L237.79 197.069L237.969 198.114L244.302 197.031Z" fill="#263238"/>
<path d="M256.154 190.576L252.411 191.19L252.075 189.293L250.679 189.572L251.07 192.027L248.5 192.473L248.668 193.701L249.506 198.611L252.131 198.165L252.522 200.509L253.807 200.285L253.584 198.779L257.439 198.109L256.154 190.576Z" fill="#263238"/>
<path d="M248.691 193.729L242.744 194.745L243.413 198.65L249.361 197.634L248.691 193.729Z" fill="#455A64"/>
<path d="M204.813 157.654C204.813 157.654 179.114 156.817 179.114 170.488C179.114 185.945 184.198 214.961 204.813 214.682C225.428 214.403 229.171 173.725 229.394 171.939C229.394 171.883 230.456 158.826 204.813 157.654Z" fill="#F6AC3B"/>
<path d="M228.78 168.368C228.78 168.368 228.724 168.424 228.668 168.424C228.557 168.479 228.501 168.535 228.333 168.647C228.054 168.814 227.607 169.093 227.048 169.428C225.931 170.098 224.199 170.935 221.964 171.66C219.73 172.441 217.048 173.111 213.975 173.501C210.903 173.948 207.495 174.059 203.919 174.059C200.344 174.004 196.936 173.948 193.863 173.557C190.791 173.167 188.053 172.441 185.93 171.493C183.807 170.544 182.243 169.372 181.237 168.535C180.735 168.089 180.399 167.698 180.176 167.475C180.064 167.363 180.008 167.252 179.897 167.196C179.841 167.14 179.841 167.084 179.841 167.084C179.841 167.084 179.897 167.084 179.953 167.196C180.008 167.252 180.12 167.363 180.232 167.475C180.455 167.698 180.846 168.089 181.349 168.479C182.355 169.316 183.863 170.432 186.042 171.381C188.165 172.33 190.902 173.055 193.919 173.39C196.992 173.78 200.4 173.836 203.975 173.892C207.551 173.892 210.959 173.78 213.975 173.39C217.048 172.999 219.73 172.33 221.964 171.604C224.199 170.879 225.875 170.042 227.048 169.428C227.607 169.093 228.054 168.87 228.389 168.703C228.501 168.647 228.612 168.535 228.724 168.535C228.724 168.368 228.78 168.368 228.78 168.368Z" fill="#263238"/>
<path d="M213.249 173.501C213.249 173.501 213.249 173.613 213.305 173.892C213.305 174.171 213.305 174.506 213.305 175.008C213.305 175.957 213.249 177.352 212.858 179.026C212.69 179.863 212.411 180.755 211.964 181.704C211.573 182.653 211.014 183.601 210.288 184.438C209.562 185.331 208.612 186.112 207.55 186.726C206.992 187.005 206.433 187.284 205.819 187.451C205.204 187.619 204.534 187.73 203.863 187.786C202.522 187.842 201.238 187.507 200.12 186.893C199.003 186.28 198.109 185.498 197.383 184.606C195.93 182.82 195.316 180.755 194.981 179.081C194.701 177.407 194.701 176.012 194.701 175.064C194.701 174.562 194.757 174.227 194.757 173.948C194.757 173.725 194.813 173.557 194.813 173.557C194.813 173.557 194.813 173.669 194.813 173.948C194.813 174.227 194.813 174.617 194.813 175.064C194.813 176.012 194.869 177.407 195.148 179.081C195.483 180.755 196.098 182.708 197.55 184.438C198.277 185.275 199.17 186.112 200.232 186.67C201.293 187.228 202.522 187.563 203.807 187.563C204.422 187.507 205.092 187.451 205.651 187.228C206.266 187.061 206.824 186.782 207.327 186.503C208.388 185.889 209.282 185.164 210.009 184.271C210.735 183.434 211.294 182.485 211.685 181.592C212.076 180.7 212.411 179.807 212.578 178.97C212.97 177.296 213.025 175.957 213.081 175.008C213.081 174.562 213.081 174.171 213.137 173.892C213.249 173.613 213.249 173.501 213.249 173.501Z" fill="#263238"/>
<path d="M219.338 205.028C219.283 205.028 219.115 204.47 218.724 203.522C218.277 202.573 217.551 201.234 216.322 199.783C215.093 198.388 213.417 196.826 211.238 195.71C209.059 194.594 206.321 193.924 203.472 194.036C200.623 194.147 197.941 194.984 195.874 196.268C193.751 197.551 192.187 199.169 191.07 200.676C190.008 202.183 189.338 203.578 189.003 204.582C188.612 205.586 188.5 206.144 188.5 206.144C188.5 206.144 188.5 205.977 188.556 205.754C188.612 205.475 188.723 205.084 188.891 204.582C189.226 203.578 189.841 202.183 190.902 200.62C191.964 199.058 193.584 197.384 195.707 196.1C197.83 194.761 200.567 193.924 203.472 193.813C206.377 193.701 209.171 194.371 211.349 195.542C213.584 196.714 215.316 198.221 216.489 199.727C217.662 201.178 218.389 202.573 218.836 203.522C219.059 204.024 219.171 204.415 219.283 204.638C219.338 204.861 219.338 205.028 219.338 205.028Z" fill="#263238"/>
<path d="M215.371 191.469L216.544 186.168H226.935C226.544 187.73 226.042 189.572 225.483 191.525L215.371 191.469Z" fill="#FAFAFA"/>
<path d="M192.132 191.469L190.959 186.168H180.567C180.958 187.73 181.238 189.572 181.852 191.525L192.132 191.469Z" fill="#FAFAFA"/>
<path opacity="0.4" d="M228.054 167.029C225.596 162.955 219.003 158.268 204.813 157.654C204.813 157.654 188.947 157.152 182.131 163.569C182.131 163.569 180.791 164.964 180.399 165.689C180.008 166.471 185.707 173.334 204.087 172.72C222.97 172.106 228.054 167.029 228.054 167.029Z" fill="black"/>
<path d="M178.668 142.867C177.774 140.858 177.327 138.515 177.941 136.339C178.556 134.218 180.399 132.321 182.634 132.154" fill="#263238"/>
<path d="M181.852 132.266C181.852 132.322 181.461 132.601 180.958 133.215C180.455 133.828 179.729 134.721 179.226 135.837C178.724 136.953 178.388 138.013 178.165 138.795C177.941 139.576 177.83 140.078 177.774 140.078C177.718 140.078 177.774 139.576 177.941 138.739C178.109 137.958 178.444 136.842 178.947 135.726C179.506 134.554 180.232 133.661 180.791 133.103C181.405 132.489 181.852 132.21 181.852 132.266Z" fill="#F6AC3B"/>
<path d="M230.009 142.867C230.902 140.858 231.349 138.515 230.735 136.339C230.12 134.218 228.277 132.321 226.042 132.154" fill="#263238"/>
<path d="M226.825 132.265C226.825 132.209 227.272 132.488 227.886 133.046C228.445 133.604 229.171 134.497 229.73 135.669C230.232 136.841 230.568 137.901 230.735 138.682C230.903 139.463 230.959 139.966 230.903 140.021C230.847 140.021 230.735 139.519 230.512 138.738C230.288 137.957 229.897 136.897 229.45 135.781C228.948 134.665 228.221 133.772 227.718 133.158C227.16 132.6 226.769 132.265 226.825 132.265Z" fill="#F6AC3B"/>
<path d="M180.735 152.967C178.221 150.4 177.16 146.773 177.886 143.258C179.395 135.781 184.814 122.333 204.814 122.612C225.82 122.891 229.731 137.455 230.457 144.43C230.736 147.331 229.842 150.233 227.999 152.465C224.87 156.259 218.222 161.114 204.814 161.114C191.518 161.058 184.367 156.65 180.735 152.967Z" fill="#F6AC3B"/>
<path d="M195.428 123.505C195.428 123.505 195.484 123.56 195.539 123.728C195.595 123.951 195.707 124.174 195.819 124.453C196.042 125.067 196.433 126.016 196.992 127.132C197.551 128.192 198.333 129.475 199.506 130.535C200.679 131.596 202.355 132.488 204.199 132.433C206.042 132.377 207.663 131.54 208.892 130.48C210.121 129.419 210.959 128.248 211.517 127.187C212.132 126.127 212.523 125.234 212.802 124.565C213.082 123.951 213.193 123.56 213.249 123.616C213.249 123.616 213.249 123.728 213.193 123.895C213.137 124.063 213.082 124.342 212.914 124.621C212.691 125.29 212.299 126.183 211.741 127.299C211.182 128.359 210.344 129.643 209.059 130.703C207.83 131.763 206.098 132.656 204.199 132.712C203.249 132.767 202.299 132.544 201.461 132.154C200.623 131.819 199.897 131.261 199.338 130.703C198.109 129.587 197.383 128.303 196.824 127.187C196.266 126.071 195.986 125.123 195.763 124.509C195.651 124.174 195.595 123.951 195.539 123.728C195.428 123.56 195.428 123.505 195.428 123.505Z" fill="#263238"/>
<path d="M218.054 152.13C208.333 154.529 198.78 154.585 189.562 152.242C186.098 151.349 183.64 148.168 183.64 144.597V144.485C183.64 140.133 187.159 136.562 191.573 136.562H216.154C220.512 136.562 224.087 140.077 224.087 144.485C224.087 148.057 221.573 151.237 218.054 152.13Z" fill="#263238"/>
<path d="M196.6 145.936C196.433 146.941 195.539 147.554 194.533 147.443C193.528 147.275 192.913 146.383 193.025 145.378C193.192 144.374 194.086 143.76 195.092 143.872C196.097 144.039 196.768 144.988 196.6 145.936Z" fill="white"/>
<path d="M217.16 144.932C216.992 145.936 216.098 146.55 215.093 146.438C214.087 146.271 213.473 145.378 213.584 144.374C213.752 143.369 214.646 142.756 215.651 142.867C216.601 143.035 217.272 143.927 217.16 144.932Z" fill="white"/>
<path d="M209.227 145.155C209.282 145.155 209.338 145.769 208.947 146.717C208.724 147.164 208.388 147.666 207.886 148.112C207.383 148.503 206.712 148.838 205.93 148.894C205.204 148.949 204.478 148.782 203.919 148.447C203.361 148.112 202.969 147.666 202.69 147.22C202.187 146.383 202.187 145.713 202.243 145.713C202.299 145.713 202.355 146.327 202.914 147.052C203.193 147.443 203.584 147.833 204.087 148.112C204.59 148.391 205.26 148.559 205.93 148.503C206.601 148.447 207.215 148.224 207.718 147.833C208.221 147.499 208.5 146.996 208.724 146.606C209.171 145.769 209.171 145.155 209.227 145.155Z" fill="white"/>
<path d="M38.2187 155.924C38.2187 155.924 38.1628 155.924 38.0511 155.98C37.9393 156.036 37.7717 156.092 37.6041 156.148C37.2131 156.259 36.6544 156.482 35.9281 156.817C34.5315 157.487 32.4644 158.603 30.6208 160.723C29.7269 161.783 28.8889 163.123 28.3303 164.629C27.8275 166.192 27.6599 167.977 27.9951 169.763C28.3303 171.548 29.1683 173.39 30.5649 174.841C31.2912 175.566 32.1292 176.124 33.0789 176.515C34.0287 176.905 35.0343 177.128 36.0957 177.24C38.2187 177.352 40.2857 176.905 42.1852 176.236C44.0847 175.566 45.8724 174.729 47.5484 174.004C49.2803 173.278 50.9004 172.609 52.5205 172.218C54.1407 171.827 55.7049 171.716 57.1575 171.939C60.0067 172.33 62.0178 173.78 62.9676 175.064C63.2469 175.343 63.3586 175.678 63.5262 175.957C63.638 176.236 63.7497 176.459 63.8056 176.682C63.8614 176.849 63.9173 177.017 63.9173 177.128C63.9173 177.24 63.9732 177.296 63.9732 177.296C63.9732 177.296 63.9732 177.24 63.9173 177.128C63.8615 177.017 63.8056 176.849 63.7497 176.682C63.6939 176.515 63.5821 176.291 63.4145 176.012C63.2469 175.733 63.0793 175.454 62.8559 175.175C61.9061 173.948 59.9508 172.553 57.1575 172.218C55.7608 171.995 54.2524 172.162 52.6323 172.553C51.0121 172.943 49.392 173.613 47.716 174.338C45.9841 175.064 44.2523 175.957 42.2969 176.626C40.3975 177.296 38.2745 177.742 36.0957 177.631C35.0343 177.575 33.9169 177.296 32.9672 176.905C32.0175 176.459 31.1236 175.901 30.3973 175.12C28.9448 173.669 28.1068 171.772 27.7716 169.93C27.4364 168.089 27.604 166.247 28.1627 164.629C28.7213 163.067 29.5593 161.728 30.5091 160.667C32.4085 158.547 34.4756 157.431 35.9281 156.761C37.3248 156.092 38.2187 155.924 38.2187 155.924Z" fill="#263238"/>
<path d="M109.784 242.972V222.047C109.784 216.188 105.035 211.39 99.1689 211.334L38.4418 210.553C34.3635 210.497 31.0674 213.789 31.0674 217.862V242.749L109.784 242.972Z" fill="#64B9FF"/>
<path d="M38.5427 228.199H63.124V216.704H38.5427V228.199Z" fill="#FAFAFA"/>
<path d="M70.8453 242.582C70.7895 242.582 70.6777 235.551 70.6777 226.846C70.6777 218.141 70.7336 211.111 70.8453 211.111C70.9571 211.111 71.0129 218.141 71.0129 226.846C70.9571 235.551 70.9012 242.582 70.8453 242.582Z" fill="#263238"/>
<path d="M70.5657 201.625C70.5657 201.68 69.6718 201.234 68.1634 201.178C66.7108 201.067 64.532 201.457 62.8002 202.964C61.0683 204.47 60.3979 206.591 60.2862 208.042C60.1744 209.548 60.5096 210.441 60.3979 210.441C60.3979 210.441 60.2862 210.218 60.1744 209.827C60.0627 209.437 60.0068 208.767 60.0068 208.042C60.0627 207.26 60.2303 206.368 60.6214 205.419C61.0124 204.47 61.6828 203.522 62.5208 202.741C63.4147 201.959 64.4762 201.457 65.4259 201.178C66.4315 200.899 67.3254 200.843 68.1075 200.955C68.8897 201.011 69.5042 201.178 69.8953 201.346C70.3981 201.513 70.5657 201.625 70.5657 201.625Z" fill="#263238"/>
<path d="M100.678 211.39L70.845 131.093L49.2246 141.361L74.5881 216.691L100.678 211.39Z" fill="#64B9FF"/>
<path opacity="0.4" d="M105.939 229.405C106.164 222.783 100.973 217.232 94.3434 217.007C87.7137 216.781 82.1562 221.966 81.9304 228.588C81.7045 235.21 86.8959 240.761 93.5256 240.986C100.155 241.212 105.713 236.027 105.939 229.405Z" fill="black"/>
<path d="M103.945 228.818C106.447 222.482 103.333 215.32 96.9892 212.821C90.6457 210.322 83.4751 213.433 80.9733 219.769C78.4715 226.105 81.5858 233.267 87.9293 235.766C94.2729 238.265 101.443 235.154 103.945 228.818Z" fill="#263238"/>
<path d="M88.1645 226.177C89.226 228.52 91.9634 229.636 94.3657 228.576C96.7121 227.516 97.8294 224.782 96.768 222.382C95.7065 220.039 92.969 218.923 90.5668 219.983C88.2204 221.043 87.103 223.833 88.1645 226.177Z" fill="#455A64"/>
<path d="M87.9399 214.012C87.9399 214.012 87.9398 213.956 87.884 213.901C87.8281 213.789 87.7722 213.677 87.7164 213.566C87.6046 213.231 87.3812 212.785 87.1577 212.171C86.7108 210.943 86.0404 209.213 85.2024 207.037C83.5822 202.685 81.3476 196.714 78.8336 190.074C77.2135 185.722 75.7051 181.648 74.4201 178.133L74.3643 178.021L74.476 177.965C78.1073 176.738 81.18 175.678 83.3029 174.952C84.3644 174.617 85.2024 174.338 85.8169 174.115C86.0962 174.004 86.3197 173.948 86.4873 173.892C86.6549 173.836 86.7108 173.836 86.7108 173.836C86.7108 173.836 86.6549 173.892 86.4873 173.948C86.3197 174.004 86.0962 174.115 85.8169 174.171C85.2024 174.394 84.4202 174.673 83.3588 175.064C81.18 175.845 78.1632 176.905 74.5319 178.189L74.5877 178.021C75.8727 181.481 77.4369 185.554 79.0571 189.907C81.5152 196.547 83.694 202.517 85.3141 206.87C86.0962 209.046 86.7108 210.776 87.1577 212.003C87.3812 212.617 87.5488 213.064 87.6605 213.398C87.7164 213.566 87.7722 213.677 87.7722 213.789C87.9398 213.956 87.9399 214.012 87.9399 214.012Z" fill="#263238"/>
<path d="M60.1743 174.896C60.1184 174.841 65.3699 172.664 71.8504 170.098C78.3309 167.531 83.6383 165.522 83.6383 165.578C83.6941 165.634 78.4427 167.81 71.9621 170.377C65.4816 172.943 60.1743 175.008 60.1743 174.896Z" fill="#263238"/>
<path d="M86.3195 236.165C86.3195 236.165 86.2078 236.109 86.0961 235.997C85.9285 235.886 85.705 235.718 85.4257 235.495C84.867 235.049 84.029 234.323 83.1351 233.319C81.2915 231.366 79.1686 228.353 77.4367 224.614C75.7049 220.931 74.6993 217.36 73.9171 214.849C73.5261 213.566 73.3026 212.506 73.0791 211.836C73.0233 211.501 72.9115 211.222 72.8557 210.999C72.7998 210.832 72.7998 210.72 72.7998 210.72C72.7998 210.72 72.8557 210.832 72.9115 210.999C72.9674 211.222 73.0791 211.501 73.1909 211.836C73.4143 212.561 73.7495 213.622 74.0847 214.849C74.8669 217.36 75.9842 220.876 77.6602 224.558C79.3362 228.241 81.4591 231.254 83.2469 233.207C84.1407 234.212 84.9229 234.937 85.4815 235.439C85.9843 235.886 86.3195 236.109 86.3195 236.165Z" fill="#263238"/>
<path d="M102.019 229.469C102.019 229.413 102.298 229.357 102.745 229.078C103.192 228.799 103.695 228.185 104.03 227.293C104.365 226.4 104.421 225.284 104.253 224C104.086 222.773 103.862 221.378 103.527 219.927C102.912 217.081 102.074 214.57 101.404 212.785C101.069 211.892 100.789 211.166 100.566 210.664C100.343 210.162 100.231 209.883 100.287 209.883C100.287 209.883 100.454 210.162 100.678 210.608C100.901 211.111 101.236 211.78 101.628 212.673C102.354 214.459 103.248 216.97 103.862 219.871C104.197 221.322 104.421 222.661 104.588 223.945C104.756 225.228 104.644 226.4 104.253 227.348C103.862 228.241 103.303 228.855 102.801 229.134C102.577 229.301 102.354 229.357 102.242 229.413C102.074 229.469 102.019 229.469 102.019 229.469Z" fill="#263238"/>
<path d="M106.656 270.035C112.672 270.035 117.55 265.164 117.55 259.154C117.55 253.145 112.672 248.273 106.656 248.273C100.639 248.273 95.7617 253.145 95.7617 259.154C95.7617 265.164 100.639 270.035 106.656 270.035Z" fill="#455A64"/>
<path d="M106.656 262.893C108.723 262.893 110.399 261.219 110.399 259.154C110.399 257.09 108.723 255.416 106.656 255.416C104.589 255.416 102.913 257.09 102.913 259.154C102.913 261.219 104.589 262.893 106.656 262.893Z" fill="#263238"/>
<path d="M70.9009 270.314C76.9174 270.314 81.7949 265.443 81.7949 259.433C81.7949 253.424 76.9174 248.552 70.9009 248.552C64.8843 248.552 60.0068 253.424 60.0068 259.433C60.0068 265.443 64.8843 270.314 70.9009 270.314Z" fill="#455A64"/>
<path d="M70.9013 263.172C72.9685 263.172 74.6443 261.498 74.6443 259.433C74.6443 257.369 72.9685 255.695 70.9013 255.695C68.834 255.695 67.1582 257.369 67.1582 259.433C67.1582 261.498 68.834 263.172 70.9013 263.172Z" fill="#263238"/>
<path d="M34.9223 270.314C40.9389 270.314 45.8163 265.443 45.8163 259.433C45.8163 253.424 40.9389 248.552 34.9223 248.552C28.9057 248.552 24.0283 253.424 24.0283 259.433C24.0283 265.443 28.9057 270.314 34.9223 270.314Z" fill="#455A64"/>
<path d="M34.9228 263.172C36.99 263.172 38.6658 261.498 38.6658 259.433C38.6658 257.369 36.99 255.695 34.9228 255.695C32.8555 255.695 31.1797 257.369 31.1797 259.433C31.1797 261.498 32.8555 263.172 34.9228 263.172Z" fill="#263238"/>
<path d="M18.0508 259.154C18.0508 250.059 25.4252 242.693 34.5314 242.693H106.879C115.985 242.693 123.359 250.059 123.359 259.154C123.359 268.25 115.985 275.615 106.879 275.615H34.5314C25.4252 275.671 18.0508 268.25 18.0508 259.154ZM34.5314 248.106C28.442 248.106 23.414 253.072 23.414 259.21C23.414 265.292 28.3861 270.314 34.5314 270.314H106.879C112.968 270.314 117.996 265.348 117.996 259.21C117.996 253.128 113.024 248.106 106.879 248.106H34.5314Z" fill="#263238"/>
<path d="M70.9008 248.106C70.8449 248.106 70.7891 246.934 70.7891 245.483C70.7891 244.033 70.8449 242.861 70.9008 242.861C70.9567 242.861 71.0125 244.033 71.0125 245.483C71.0125 246.878 70.9567 248.106 70.9008 248.106Z" fill="#455A64"/>
<path d="M57.3813 248.106C57.3254 248.106 57.2695 246.934 57.2695 245.483C57.2695 244.033 57.3254 242.861 57.3813 242.861C57.4371 242.861 57.493 244.033 57.493 245.483C57.4371 246.878 57.4371 248.106 57.3813 248.106Z" fill="#455A64"/>
<path d="M43.8051 248.106C43.7492 248.106 43.6934 246.934 43.6934 245.483C43.6934 244.033 43.7492 242.861 43.8051 242.861C43.861 242.861 43.9168 244.033 43.9168 245.483C43.9168 246.878 43.861 248.106 43.8051 248.106Z" fill="#455A64"/>
<path d="M31.2352 248.608C31.1793 248.608 30.7883 247.492 30.3972 246.097C29.9503 244.702 29.6709 243.53 29.7268 243.53C29.7827 243.53 30.1737 244.646 30.5648 246.041C30.9559 247.436 31.2352 248.608 31.2352 248.608Z" fill="#455A64"/>
<path d="M24.0846 255.36C24.0846 255.416 22.9672 254.914 21.6823 254.244C20.3974 253.574 19.3359 253.016 19.3918 252.961C19.3918 252.905 20.5091 253.407 21.794 254.077C23.0231 254.746 24.0846 255.36 24.0846 255.36Z" fill="#455A64"/>
<path d="M71.5707 270.482C71.6266 270.482 71.6824 271.653 71.6824 273.104C71.6824 274.555 71.6266 275.727 71.5707 275.727C71.5148 275.727 71.459 274.555 71.459 273.104C71.5149 271.653 71.5148 270.482 71.5707 270.482Z" fill="#455A64"/>
<path d="M58.0512 270.314C58.1071 270.314 58.1629 271.486 58.1629 272.937C58.1629 274.388 58.1071 275.56 58.0512 275.56C57.9953 275.56 57.9395 274.388 57.9395 272.937C57.9395 271.486 57.9953 270.314 58.0512 270.314Z" fill="#455A64"/>
<path d="M44.476 270.314C44.5319 270.314 44.5877 271.486 44.5877 272.937C44.5877 274.388 44.5319 275.56 44.476 275.56C44.4201 275.56 44.3643 274.388 44.3643 272.937C44.3643 271.486 44.4201 270.314 44.476 270.314Z" fill="#455A64"/>
<path d="M31.8495 269.98C31.9053 269.98 31.5701 271.151 31.1791 272.546C30.7321 273.941 30.3969 275.057 30.3411 275.057C30.2852 275.057 30.6204 273.886 31.0115 272.491C31.4584 271.096 31.8495 269.924 31.8495 269.98Z" fill="#455A64"/>
<path d="M24.3637 263.73C24.3637 263.786 23.3581 264.344 22.0732 265.013C20.7882 265.683 19.7268 266.185 19.6709 266.129C19.6709 266.074 20.6765 265.516 21.9614 264.846C23.2464 264.176 24.3637 263.674 24.3637 263.73Z" fill="#455A64"/>
<path d="M83.8608 270.482C83.9166 270.482 83.9725 271.653 83.9725 273.104C83.9725 274.555 83.9166 275.727 83.8608 275.727C83.8049 275.727 83.749 274.555 83.749 273.104C83.8049 271.653 83.8049 270.482 83.8608 270.482Z" fill="#455A64"/>
<path d="M97.436 270.482C97.4918 270.482 97.5477 271.653 97.5477 273.104C97.5477 274.555 97.4918 275.727 97.436 275.727C97.3801 275.727 97.3242 274.555 97.3242 273.104C97.3242 271.653 97.3801 270.482 97.436 270.482Z" fill="#455A64"/>
<path d="M110.006 269.979C110.062 269.979 110.453 271.095 110.844 272.491C111.291 273.886 111.57 275.057 111.514 275.057C111.458 275.057 111.067 273.941 110.676 272.546C110.285 271.095 110.006 269.979 110.006 269.979Z" fill="#455A64"/>
<path d="M117.157 263.172C117.157 263.116 118.275 263.618 119.559 264.288C120.844 264.958 121.906 265.516 121.85 265.571C121.85 265.627 120.733 265.125 119.448 264.455C118.163 263.786 117.157 263.228 117.157 263.172Z" fill="#455A64"/>
<path d="M83.1908 248.273C83.135 248.273 83.0791 247.102 83.0791 245.651C83.0791 244.2 83.135 243.028 83.1908 243.028C83.2467 243.028 83.3026 244.2 83.3026 245.651C83.3026 247.046 83.2467 248.273 83.1908 248.273Z" fill="#455A64"/>
<path d="M96.767 248.273C96.7111 248.273 96.6553 247.102 96.6553 245.651C96.6553 244.2 96.7111 243.028 96.767 243.028C96.8229 243.028 96.8787 244.2 96.8787 245.651C96.8229 247.046 96.8229 248.273 96.767 248.273Z" fill="#455A64"/>
<path d="M109.336 248.608C109.28 248.608 109.616 247.436 110.007 246.041C110.454 244.646 110.789 243.53 110.845 243.53C110.9 243.53 110.565 244.702 110.174 246.097C109.783 247.492 109.392 248.608 109.336 248.608Z" fill="#455A64"/>
<path d="M116.879 254.858C116.879 254.802 117.885 254.244 119.169 253.574C120.454 252.905 121.516 252.403 121.572 252.458C121.572 252.514 120.566 253.072 119.281 253.742C117.996 254.356 116.879 254.858 116.879 254.858Z" fill="#455A64"/>
<path d="M83.9736 113.795C83.9736 113.795 84.0295 113.74 84.1412 113.572C84.253 113.405 84.4206 113.237 84.5882 112.958C84.9792 112.456 85.5379 111.675 86.32 110.671C87.7726 108.662 89.8955 105.816 92.2419 102.077C94.5883 98.3387 97.214 93.8189 99.7839 88.5737C101.069 85.9511 102.298 83.1611 103.527 80.2595C104.756 77.3579 105.985 74.2889 107.438 71.2199C108.89 68.1509 110.454 65.2493 112.354 62.6825C114.253 60.1157 116.376 57.8837 118.667 56.0982C121.013 54.3126 123.527 53.0291 126.041 52.3037C128.555 51.5225 131.013 51.4668 133.248 51.8016C135.427 52.0806 137.382 52.8059 138.891 53.6429C140.455 54.4799 141.628 55.4844 142.466 56.3772C143.304 57.3258 143.807 58.1069 144.142 58.6649C144.31 58.9439 144.421 59.1671 144.477 59.3345C144.533 59.5019 144.589 59.5577 144.589 59.5577C144.589 59.5577 144.533 59.5019 144.477 59.3345C144.365 59.1671 144.254 58.9439 144.142 58.6649C143.807 58.1069 143.248 57.3257 142.466 56.4329C141.628 55.5401 140.455 54.5916 138.891 53.7545C137.326 52.9176 135.483 52.2479 133.304 51.9689C131.125 51.6899 128.667 51.7457 126.209 52.5269C123.751 53.2523 121.237 54.5357 118.946 56.3213C116.656 58.1069 114.533 60.3389 112.689 62.9057C110.845 65.4725 109.225 68.3741 107.829 71.3874C106.376 74.4005 105.147 77.4695 103.918 80.3711C102.689 83.3285 101.46 86.1185 100.175 88.7411C97.6051 93.9863 94.9794 98.562 92.5771 102.245C90.1748 105.983 88.0519 108.829 86.5994 110.782C85.8731 111.787 85.2586 112.512 84.8675 113.014C84.644 113.237 84.5323 113.461 84.4206 113.572C84.0295 113.684 83.9736 113.795 83.9736 113.795Z" fill="#263238"/>
<path d="M122.857 81.7103L86.9346 111.229L93.862 117.813L129.393 90.3035L122.857 81.7103Z" fill="#E0E0E0"/>
<path d="M73.0794 142.867L98.3311 121.998L84.979 106.597L55.7607 129.866L73.0794 142.867Z" fill="#64B9FF"/>
<path d="M55.7048 145.713L39.6152 158.603L34.252 152.074L49.6153 139.463L55.7048 145.713Z" fill="#E0E0E0"/>
<path d="M162.413 69.182L153.856 74.9722L160.782 85.1817L169.338 79.3915L162.413 69.182Z" fill="#E0E0E0"/>
<path d="M168.611 78.195L184.031 78.4182L192.578 91.029L188.388 104.198L184.701 103.249L186.601 94.6002L180.288 86.9556L172.466 87.402L167.103 91.0848L163.751 98.0598L169.785 106.988L176.991 108.494L176.88 111.954L165.036 110.894L155.93 97.446L160.008 83.9982L169.394 77.637" fill="#263238"/>
<path opacity="0.4" d="M67.6242 153.598C73.5832 150.688 76.0516 143.503 73.1374 137.551C70.2232 131.599 63.0301 129.134 57.071 132.044C51.112 134.955 48.6437 142.14 51.5578 148.092C54.472 154.044 61.6652 156.509 67.6242 153.598Z" fill="black"/>
<path d="M72.3764 143.497C75.4094 137.397 72.9175 129.997 66.8106 126.968C60.7036 123.938 53.2943 126.427 50.2613 132.527C47.2283 138.626 49.7202 146.027 55.8271 149.056C61.934 152.086 69.3434 149.597 72.3764 143.497Z" fill="#263238"/>
<path d="M56.8778 139.519C57.7158 141.974 60.3415 143.313 62.7997 142.476C65.2578 141.639 66.5986 139.017 65.7606 136.562C64.9226 134.107 62.2969 132.767 59.8387 133.604C57.3806 134.441 56.0398 137.064 56.8778 139.519Z" fill="#455A64"/>
<path d="M81.2359 109.555C81.2359 109.555 81.3476 109.722 81.4593 110.113C81.6269 110.503 81.7945 111.061 82.018 111.731C82.5208 113.182 83.1912 115.135 83.9733 117.422L84.0292 117.534H83.9733C82.8001 118.538 81.5152 119.599 80.1185 120.715C77.2693 123.058 74.6995 125.179 72.8559 126.685C71.962 127.411 71.1799 128.024 70.6212 128.471C70.3977 128.638 70.1743 128.806 70.0067 128.973C69.8391 129.085 69.7832 129.14 69.7832 129.14C69.7832 129.14 69.8391 129.085 69.9508 128.917C70.1184 128.75 70.286 128.582 70.5095 128.415C71.0681 127.969 71.7944 127.299 72.6883 126.574C74.5319 125.011 77.1017 122.891 79.8951 120.547C81.2359 119.431 82.5767 118.371 83.7499 117.367L83.694 117.534C82.9677 115.246 82.2973 113.293 81.8504 111.842C81.6269 111.173 81.4593 110.615 81.3476 110.224C81.2917 109.778 81.2359 109.555 81.2359 109.555Z" fill="#263238"/>
<path d="M145.204 57.7722L119.226 78.2508L130.846 94.4886L157.941 73.3962L145.204 57.7722Z" fill="#64B9FF"/>
<path opacity="0.4" d="M158.844 68.5647C159.138 63.1489 154.981 58.5203 149.559 58.2264C144.137 57.9325 139.503 62.0846 139.209 67.5003C138.914 72.9161 143.071 77.5447 148.494 77.8386C153.916 78.1325 158.55 73.9804 158.844 68.5647Z" fill="black"/>
<path d="M145.65 57.1026C141.069 60.7296 140.343 67.314 143.918 71.8896C147.55 76.4652 154.142 77.2464 158.723 73.6194C163.304 69.9924 164.086 63.408 160.455 58.8324C156.879 54.2568 150.231 53.4756 145.65 57.1026Z" fill="#263238"/>
<path d="M149.728 62.2362C147.996 63.6312 147.717 66.1422 149.057 67.872C150.454 69.6018 152.968 69.8808 154.7 68.5416C156.432 67.1466 156.711 64.6356 155.37 62.9058C153.974 61.176 151.46 60.8412 149.728 62.2362Z" fill="#455A64"/>
<path d="M147.829 81.2639C147.829 81.2639 147.605 81.1523 147.158 80.8175C146.711 80.4827 146.153 80.0921 145.426 79.5899C143.918 78.4739 141.851 76.9673 139.449 75.2375H139.616C138.611 76.0187 137.605 76.9115 136.488 77.8043C133.415 80.3153 130.622 82.5473 128.611 84.1655C127.605 84.9467 126.823 85.6163 126.208 86.0627C125.929 86.2859 125.706 86.4533 125.538 86.5649C125.37 86.6765 125.314 86.7323 125.314 86.7323C125.314 86.7323 125.37 86.6765 125.538 86.5091C125.706 86.3417 125.929 86.1743 126.152 85.9511C126.767 85.4489 127.549 84.7793 128.499 83.9981C130.51 82.3241 133.248 80.0921 136.32 77.5811C137.438 76.6883 138.499 75.8513 139.449 75.0143L139.56 74.9585L139.672 75.0143C142.019 76.7999 144.086 78.3065 145.594 79.4225C146.264 79.9805 146.879 80.3711 147.27 80.7059C147.605 81.0965 147.829 81.2639 147.829 81.2639Z" fill="#263238"/>
</svg>
