<svg width="407" height="300" viewBox="0 0 407 300" fill="none" xmlns="http://www.w3.org/2000/svg">
<g clip-path="url(#clip0)">
<path d="M430 275.454H-23V275.726H430V275.454Z" fill="#EBEBEB"/>
<path d="M384.61 290.041H354.621V290.313H384.61V290.041Z" fill="#EBEBEB"/>
<path d="M277.067 292.487H269.185V292.759H277.067V292.487Z" fill="#EBEBEB"/>
<path d="M353.715 281.615H336.319V281.887H353.715V281.615Z" fill="#EBEBEB"/>
<path d="M63.7046 283.155H24.5654V283.427H63.7046V283.155Z" fill="#EBEBEB"/>
<path d="M77.4754 283.155H71.7676V283.427H77.4754V283.155Z" fill="#EBEBEB"/>
<path d="M181.031 286.961H96.1387V287.232H181.031V286.961Z" fill="#EBEBEB"/>
<path d="M191.844 235H17.1565C14.3521 235 12 233.106 12 230.848V33.1521C12 30.8939 14.3521 29 17.1565 29H191.844C194.648 29 197 30.8939 197 33.1521V230.848C197 233.106 194.738 235 191.844 235ZM17.1565 29.1457C14.4425 29.1457 12.1809 30.8939 12.1809 33.1521V230.848C12.1809 233.033 14.3521 234.854 17.1565 234.854H191.844C194.557 234.854 196.819 233.106 196.819 230.848V33.1521C196.819 30.9668 194.648 29.1457 191.844 29.1457H17.1565Z" fill="#EBEBEB"/>
<path d="M387.844 235H213.156C210.352 235 208 233.106 208 230.848V33.1521C208 30.8939 210.352 29 213.156 29H387.844C390.648 29 393 30.8939 393 33.1521V230.848C393 233.106 390.738 235 387.844 235ZM213.156 29.1457C210.443 29.1457 208.181 30.8939 208.181 33.1521V230.848C208.181 233.033 210.352 234.854 213.156 234.854H387.844C390.557 234.854 392.819 233.106 392.819 230.848V33.1521C392.819 30.9668 390.648 29.1457 387.844 29.1457H213.156Z" fill="#EBEBEB"/>
<path d="M361.778 22.318H250.068V72.3292H361.778V22.318Z" fill="#55ACF2"/>
<path d="M361.778 22.318H250.068V24.0394H361.778V22.318Z" fill="#55ACF2"/>
<path d="M361.778 70.6078H250.068V72.3292H361.778V70.6078Z" fill="#55ACF2"/>
<path d="M304.156 275.454L302.616 72.3292H309.23L307.69 275.454H304.156Z" fill="#2B97EF"/>
<path d="M256.592 275.454L316.297 72.3292H322.911L260.125 275.454H256.592Z" fill="#2B97EF"/>
<path d="M355.164 275.454L295.549 72.3292H288.936L351.631 275.454H355.164Z" fill="#2B97EF"/>
<path d="M50.6094 278.959H57.042L57.042 193.976H50.6094L50.6094 278.959Z" fill="#2B97EF"/>
<path d="M48.5772 278.959H53.0166L53.0166 193.976H48.5772L48.5772 278.959Z" fill="#5CDBF5"/>
<path d="M189.185 190.019H47.124V201.887H189.185V190.019Z" fill="#5CDBF5"/>
<path d="M185.497 274.934H191.93V201.82H185.497V274.934Z" fill="#2B97EF"/>
<path d="M183.555 274.934H187.994V201.82H183.555V274.934Z" fill="#5CDBF5"/>
<path d="M231.233 274.934H237.666V201.82H231.233V274.934Z" fill="#2B97EF"/>
<path d="M229.291 274.934H233.73V201.82H229.291V274.934Z" fill="#55ACF2"/>
<path d="M91.2666 274.934H97.6992L97.6992 201.82H91.2666L91.2666 274.934Z" fill="#2B97EF"/>
<path d="M89.2335 274.934H93.6729L93.6729 201.82H89.2335L89.2335 274.934Z" fill="#55ACF2"/>
<path d="M189.162 201.835H239.173V189.967H189.162V201.835Z" fill="#55ACF2"/>
<path d="M159.287 181.14H97.6787V190.019H159.287V181.14Z" fill="#55ACF2"/>
<path d="M159.235 190.027H189.405V181.148H159.235V190.027Z" fill="#55ACF2"/>
<path d="M167.078 183.042H181.665C182.389 183.042 182.933 183.586 182.933 184.311C182.933 185.036 182.389 185.579 181.665 185.579H167.078C166.353 185.579 165.81 185.036 165.81 184.311C165.81 183.677 166.353 183.042 167.078 183.042Z" fill="#238AE7"/>
<path d="M130.748 174.798H118.336V181.14H130.748V174.798Z" fill="#238AE7"/>
<path d="M124.949 172.17H124.043V174.798H124.949V172.17Z" fill="#2B97EF"/>
<path d="M141.801 175.885H140.895V177.244H141.801V175.885Z" fill="#2B97EF"/>
<path d="M148.868 177.244H133.737V181.14H148.868V177.244Z" fill="#55ACF2"/>
<path d="M203.5 309.264C300.521 309.264 379.173 304.876 379.173 299.464C379.173 294.052 300.521 289.665 203.5 289.665C106.478 289.665 27.8262 294.052 27.8262 299.464C27.8262 304.876 106.478 309.264 203.5 309.264Z" fill="#64B9FF"/>
<path d="M186.285 41.2339C186.285 37.2282 183.057 34 179.051 34H62.9795C58.9738 34 55.7168 37.2282 55.7168 41.2339V72.281H186.285V41.2339Z" fill="#C1E3FF"/>
<path d="M55.7168 72.2778V75.5028C55.7168 78.5967 56.9518 81.7833 59.9048 83.7381C61.2518 84.4612 63.277 85.1043 66.2077 85.1043C66.4316 85.1043 66.646 85.1107 66.8476 85.1107H175.183C175.388 85.1107 175.599 85.1043 175.823 85.1043C178.75 85.1043 180.766 84.458 182.113 83.7381C185.066 81.7833 186.285 78.5967 186.285 75.5028V72.2778H55.7168Z" fill="#E8E8EA"/>
<path d="M183.341 66.97C183.341 65.5463 182.18 64.3849 180.756 64.3849H61.2482C59.8245 64.3849 58.6631 65.5463 58.6631 66.97L58.9478 72.2779H183.053L183.341 66.97Z" fill="#E3F2FE"/>
<path d="M60.8061 82.0905C61.286 82.3465 62.0059 82.5961 63.0457 82.5961C63.1257 82.5961 63.1993 82.6185 63.2729 82.6185H178.727C178.801 82.6185 178.874 82.5961 178.954 82.5961C179.997 82.5961 180.717 82.3561 181.194 82.1001C182.243 81.4059 182.682 80.2701 182.682 79.1695L183.053 72.2811H58.9473L59.3184 79.1663C59.3184 80.2637 59.7567 81.3931 60.8061 82.0905Z" fill="#5CDBF5"/>
<path d="M182.196 74.1528C182.196 74.4343 181.966 74.6647 181.684 74.6647H60.2023C59.9208 74.6647 59.6904 74.4343 59.6904 74.1528C59.6904 73.8712 59.9208 73.6409 60.2023 73.6409H181.684C181.966 73.6409 182.196 73.8712 182.196 74.1528Z" fill="#55ACF2"/>
<path d="M181.458 76.3668C181.458 76.6483 181.227 76.8787 180.946 76.8787H61.1115C60.83 76.8787 60.5996 76.6483 60.5996 76.3668C60.5996 76.0852 60.83 75.8549 61.1115 75.8549H180.946C181.23 75.8581 181.458 76.0852 181.458 76.3668Z" fill="#55ACF2"/>
<path d="M180.945 78.5264C180.945 78.808 180.715 79.0383 180.434 79.0383H61.5656C61.2841 79.0383 61.0537 78.808 61.0537 78.5264C61.0537 78.2449 61.2841 78.0145 61.5656 78.0145H180.434C180.718 78.0145 180.945 78.2449 180.945 78.5264Z" fill="#55ACF2"/>
<path d="M180.607 80.6859C180.607 80.9674 180.376 81.1978 180.095 81.1978H61.9084C61.6268 81.1978 61.3965 80.9674 61.3965 80.6859C61.3965 80.4043 61.6268 80.174 61.9084 80.174H180.095C180.376 80.174 180.607 80.4011 180.607 80.6859Z" fill="#55ACF2"/>
<path d="M138.748 60.5232C138.748 61.339 138.085 62.0013 137.269 62.0013H104.728C103.912 62.0013 103.25 61.339 103.25 60.5232C103.25 59.7073 103.912 59.045 104.728 59.045H137.269C138.088 59.045 138.748 59.7073 138.748 60.5232Z" fill="#55ACF2"/>
<path d="M180.437 47.3512L179.663 46.9193L180.239 46.7465C180.302 46.7273 180.341 46.6569 180.322 46.5929C180.306 46.5417 180.261 46.5033 180.207 46.5033C180.194 46.5033 180.184 46.5065 180.175 46.5097L179.362 46.7561L178.856 46.4745L179.81 46.1962C179.874 46.177 179.915 46.1066 179.896 46.0426C179.88 45.9914 179.832 45.953 179.778 45.953C179.765 45.953 179.755 45.9562 179.743 45.9594L178.556 46.305L176.716 45.2812L178.005 45.1404C178.073 45.134 178.12 45.0732 178.114 45.006C178.105 44.9388 178.047 44.8908 177.98 44.8972L176.514 45.0572L178.296 43.8734L179.391 44.1678C179.403 44.171 179.419 44.171 179.429 44.171C179.483 44.171 179.528 44.1326 179.541 44.0814V44.0782C179.551 44.0462 179.547 44.0142 179.531 43.9854C179.515 43.9566 179.49 43.9374 179.461 43.931L178.572 43.6911L179.048 43.3743L179.819 43.5759C179.829 43.5791 179.842 43.5791 179.851 43.5791H179.858C179.909 43.5791 179.957 43.5407 179.973 43.4863C179.983 43.4543 179.976 43.4223 179.96 43.3935C179.944 43.3647 179.919 43.3455 179.887 43.3359L179.323 43.1887L180.075 42.6896C180.13 42.6512 180.146 42.5745 180.111 42.5201V42.5169C180.091 42.4849 180.053 42.4625 180.011 42.4625C179.986 42.4625 179.963 42.4689 179.944 42.4817L179.199 42.9776L179.317 42.3793C179.33 42.3121 179.288 42.2481 179.221 42.2353C179.215 42.2353 179.205 42.2321 179.199 42.2321C179.141 42.2321 179.09 42.2737 179.077 42.3345L178.914 43.1663L178.428 43.4863L178.636 42.5105C178.648 42.4465 178.607 42.3793 178.54 42.3665C178.533 42.3665 178.524 42.3633 178.517 42.3633C178.46 42.3633 178.408 42.4049 178.399 42.4593L178.14 43.6782L176.53 44.7469L177.161 43.5695C177.177 43.5407 177.18 43.5055 177.17 43.4735C177.161 43.4415 177.141 43.4191 177.113 43.4031C177.093 43.3935 177.074 43.3871 177.055 43.3871C177.01 43.3871 176.969 43.4127 176.946 43.4511L176.294 44.6669L176.262 42.4849L177.109 41.6978C177.157 41.653 177.161 41.573 177.116 41.525C177.093 41.4994 177.061 41.4866 177.03 41.4866C176.998 41.4866 176.969 41.4994 176.946 41.5186L176.262 42.1585L176.252 41.5858L176.847 41.0227C176.873 41.0003 176.886 40.9683 176.886 40.9363C176.886 40.9044 176.876 40.8724 176.85 40.85C176.828 40.8244 176.796 40.8116 176.761 40.8116C176.729 40.8116 176.7 40.8244 176.678 40.8468L176.246 41.2595L176.233 40.3285C176.23 40.2613 176.178 40.2101 176.111 40.2101H176.108C176.041 40.2101 175.986 40.2677 175.986 40.3349L175.999 41.2435L175.571 40.834C175.548 40.8116 175.519 40.802 175.487 40.802C175.452 40.802 175.42 40.8148 175.398 40.8404C175.35 40.8916 175.353 40.9683 175.401 41.0163L175.999 41.589L176.012 42.1713L175.308 41.4899C175.286 41.4675 175.257 41.4547 175.225 41.4547C175.19 41.4547 175.158 41.4674 175.135 41.493C175.087 41.541 175.091 41.621 175.139 41.669L176.015 42.5201L176.047 44.6509L175.334 43.4959C175.311 43.4607 175.273 43.4383 175.231 43.4383C175.209 43.4383 175.187 43.4447 175.171 43.4575H175.167C175.139 43.4735 175.119 43.5023 175.113 43.5343C175.107 43.5663 175.11 43.6015 175.129 43.6271L175.852 44.798L174.128 43.8382L173.884 42.712C173.872 42.6544 173.824 42.616 173.766 42.616C173.756 42.616 173.747 42.616 173.74 42.6192C173.673 42.6352 173.632 42.6992 173.648 42.7664L173.843 43.6782L173.347 43.4031L173.168 42.6064C173.158 42.5521 173.11 42.5137 173.053 42.5137C173.043 42.5137 173.033 42.5137 173.027 42.5169C172.992 42.5233 172.963 42.5457 172.947 42.5713C172.931 42.6 172.925 42.632 172.934 42.6608L173.065 43.2431L172.259 42.7952C172.24 42.7856 172.221 42.7792 172.202 42.7792C172.157 42.7792 172.115 42.8048 172.093 42.8432C172.077 42.872 172.074 42.9072 172.083 42.9392C172.093 42.9712 172.112 42.9936 172.141 43.0096L172.928 43.4479L172.358 43.6207C172.294 43.6399 172.256 43.7134 172.275 43.7806C172.291 43.8318 172.339 43.8702 172.394 43.8702H172.397C172.41 43.8702 172.413 43.8638 172.426 43.8606L172.429 43.8574L173.229 43.6175L173.737 43.8958L172.79 44.171C172.726 44.1902 172.688 44.2605 172.707 44.3245C172.72 44.3789 172.768 44.4141 172.822 44.4141H172.825C172.832 44.4141 172.845 44.4141 172.857 44.4077L174.035 44.0654L175.843 45.07L174.38 45.1116C174.313 45.1148 174.262 45.1788 174.262 45.246C174.262 45.31 174.316 45.3675 174.384 45.3675H174.387L175.673 45.3259L173.888 46.5097L172.784 46.209C172.774 46.2058 172.761 46.2058 172.752 46.2058C172.694 46.2058 172.646 46.241 172.633 46.2954C172.617 46.3626 172.653 46.4297 172.717 46.4457L173.616 46.6889L173.139 47.0056L172.352 46.8009C172.342 46.7977 172.333 46.7977 172.323 46.7977C172.266 46.7977 172.218 46.8361 172.202 46.8905C172.192 46.9225 172.198 46.9545 172.214 46.9832C172.23 47.012 172.256 47.0312 172.288 47.0408L172.857 47.188L172.083 47.6999C172.029 47.7351 172.013 47.8151 172.048 47.8727C172.07 47.9079 172.109 47.9271 172.15 47.9271C172.173 47.9271 172.195 47.9175 172.218 47.9047L172.973 47.4024L172.854 47.9879C172.848 48.0199 172.854 48.0519 172.87 48.0807C172.889 48.1062 172.915 48.1254 172.944 48.1318C172.953 48.1318 172.963 48.135 172.973 48.135C173.03 48.1318 173.078 48.0934 173.088 48.0359L173.254 47.2136L173.74 46.8905L173.539 47.8567C173.533 47.8887 173.539 47.9239 173.558 47.9495C173.574 47.9751 173.603 47.9943 173.632 47.9975H173.635C173.638 47.9975 173.648 48.0007 173.661 48.0007C173.705 48.0007 173.763 47.9623 173.776 47.9015L174.025 46.6953L175.852 45.4827L175.199 46.6921C175.183 46.7209 175.18 46.7529 175.19 46.7849C175.199 46.8169 175.222 46.8425 175.251 46.8585H175.254C175.27 46.8681 175.286 46.8713 175.305 46.8713H175.308C175.356 46.8713 175.395 46.8457 175.414 46.8073L176.06 45.6075L176.092 47.6359L175.254 48.4166C175.203 48.4646 175.199 48.5414 175.244 48.5926C175.267 48.6182 175.295 48.6309 175.327 48.6309C175.359 48.6309 175.388 48.6181 175.414 48.5958L176.095 47.9623L176.102 48.5382L175.513 49.0949C175.465 49.1397 175.462 49.2196 175.507 49.2708C175.529 49.2932 175.561 49.3092 175.593 49.3092C175.625 49.3092 175.654 49.2964 175.679 49.274L176.102 48.8709L176.118 49.7795C176.118 49.8467 176.169 49.9043 176.236 49.9043H176.239C176.306 49.9043 176.361 49.8403 176.361 49.7731L176.348 48.8773L176.786 49.2932C176.812 49.3156 176.838 49.3284 176.863 49.3252H176.866C176.898 49.3252 176.93 49.3124 176.956 49.2868C176.978 49.2612 176.991 49.2324 176.988 49.2004C176.988 49.1685 176.972 49.1365 176.95 49.1141L176.338 48.5318L176.332 47.9495L177.042 48.6342C177.065 48.6565 177.09 48.6629 177.122 48.6629H177.125C177.161 48.6629 177.189 48.6533 177.215 48.6277C177.244 48.599 177.25 48.5702 177.25 48.5478C177.25 48.5126 177.234 48.4806 177.212 48.4582L176.329 47.5975L176.297 45.5659L177.077 46.7593C177.1 46.7945 177.138 46.8137 177.177 46.8137C177.202 46.8105 177.221 46.8041 177.244 46.7913C177.301 46.7529 177.317 46.6761 177.282 46.6185L176.514 45.4475L178.46 46.5321L178.7 47.6455C178.712 47.7031 178.76 47.7351 178.821 47.7351H178.824C178.834 47.7351 178.837 47.7383 178.84 47.7383H178.847C178.879 47.7319 178.908 47.7127 178.924 47.6839C178.94 47.6551 178.946 47.6231 178.94 47.5943L178.748 46.6921L179.243 46.9673L179.419 47.7575C179.432 47.8119 179.48 47.8503 179.535 47.8503H179.541C179.547 47.8503 179.554 47.8503 179.563 47.8471H179.57C179.602 47.8407 179.627 47.8215 179.643 47.7927C179.663 47.7639 179.666 47.7319 179.659 47.6999L179.528 47.1304L180.306 47.5623C180.328 47.5719 180.347 47.5783 180.366 47.5783H180.373C180.427 47.5783 180.462 47.5431 180.478 47.5112C180.494 47.4824 180.498 47.4504 180.488 47.4184C180.485 47.3928 180.466 47.3672 180.437 47.3512Z" fill="#55ACF2"/>
<path d="M78.8326 47.7862C78.8326 48.7364 78.0647 49.5043 77.1145 49.5043H63.9681C63.0179 49.5043 62.25 48.7364 62.25 47.7862V42.7055C62.25 41.7553 63.0179 40.9874 63.9681 40.9874H77.1145C78.0647 40.9874 78.8326 41.7553 78.8326 42.7055V47.7862Z" fill="#B7D5E5"/>
<path d="M77.0952 49.7314H63.9264C63.6672 49.7314 63.4112 49.6899 63.1745 49.5907C62.9441 49.4947 62.7394 49.3603 62.5602 49.1811C62.3842 49.0052 62.2275 48.8004 62.1315 48.5701C62.0291 48.3333 61.9619 48.0805 61.9619 47.8214V42.7279C61.9619 42.4688 62.0291 42.216 62.1315 41.9761C62.2275 41.7457 62.3746 41.5409 62.5538 41.3618C62.7298 41.1858 62.9409 41.0546 63.1713 40.9586C63.4081 40.8595 63.6672 40.8179 63.9264 40.8179H77.0952C77.3543 40.8179 77.6103 40.8595 77.847 40.9586C78.0774 41.0546 78.2821 41.189 78.4613 41.3682C78.6373 41.5441 78.7941 41.7489 78.89 41.9793C78.9924 42.216 79.0564 42.4688 79.0564 42.7279V47.8214C79.0564 48.0805 78.9892 48.3333 78.89 48.5733C78.7941 48.8036 78.6469 49.0084 78.4677 49.1875C78.2917 49.3635 78.0806 49.4947 77.8502 49.5907C77.6135 49.6899 77.3575 49.7314 77.0952 49.7314ZM78.6053 42.7183C78.6053 41.8865 77.9302 41.2114 77.0984 41.2114H63.8688C63.0369 41.2114 62.3618 41.8865 62.3618 42.7183V47.7702C62.3618 48.6021 63.0369 49.2771 63.8688 49.2771H77.0984C77.9302 49.2771 78.6053 48.6021 78.6053 47.7702V42.7183Z" fill="#55ACF2"/>
<path d="M64.3265 43.8958L63.8242 43.6462V42.5808L64.3265 42.1521V43.8958ZM64.3265 45.7546L63.8242 45.3227V44.2189L64.3265 44.0046V45.7546Z" fill="#C1E3FF"/>
<path d="M65.4711 43.6814L64.9688 43.8958V42.6544L65.2183 42.44L65.4711 42.6544V43.6814ZM67.0356 45.5339L66.7796 45.7546H65.0775L65.5606 45.3227H66.7796L67.0356 45.5339ZM67.2435 43.9534L66.7796 44.1485L65.5638 44.1421L65.0935 43.9534L65.5734 43.7102H66.77L67.2435 43.9534ZM67.0356 42.3729L66.7796 42.584H65.5606L65.3047 42.3729L65.5606 42.1521H66.7796L67.0356 42.3729ZM67.3619 43.8958L66.8596 43.6814V42.6544L67.1092 42.44L67.3619 42.6544V43.8958ZM67.3619 45.2491L67.1092 45.4635L66.8596 45.2491V44.2573L67.3619 44.0078V45.2491Z" fill="#C1E3FF"/>
<path d="M68.5683 44.6635L68.3059 44.7755V44.1228L68.4371 44.0109L68.5715 44.1228V44.6635H68.5683ZM68.5683 45.489L68.4339 45.601L68.3027 45.489V44.8363L68.5651 44.9675V45.489H68.5683ZM69.5185 43.8605L69.2562 44.0876H68.6131L68.4787 43.9757L68.6131 43.8605H69.5185ZM69.5185 45.7545H68.6131L68.4787 45.6394L68.6131 45.5274H69.2562L69.5185 45.7545Z" fill="#C1E3FF"/>
<path d="M68.0109 43.9566C67.8638 43.9566 67.7422 43.835 67.7422 43.6878C67.7422 43.5406 67.8638 43.4191 68.0109 43.4191C68.1581 43.4191 68.2797 43.5406 68.2797 43.6878C68.2797 43.835 68.1581 43.9566 68.0109 43.9566ZM68.0109 43.5022C67.9086 43.5022 67.8222 43.5854 67.8222 43.691C67.8222 43.7934 67.9054 43.8798 68.0109 43.8798C68.1133 43.8798 68.1997 43.7966 68.1997 43.691C68.1997 43.5854 68.1165 43.5022 68.0109 43.5022Z" fill="#C1E3FF"/>
<path d="M78.2632 46.2249C78.2632 46.2793 78.2184 46.3241 78.164 46.3241H62.858C62.8036 46.3241 62.7588 46.2793 62.7588 46.2249V46.1929C62.7588 46.1385 62.8036 46.0938 62.858 46.0938H78.1672C78.2216 46.0938 78.2664 46.1385 78.2664 46.1929V46.2249H78.2632Z" fill="#C1E3FF"/>
<path d="M75.2453 43.7646C75.2517 43.7518 75.2549 43.7358 75.2549 43.7166C75.2549 43.7102 75.2549 43.7006 75.2517 43.6942C75.2901 43.6558 75.3509 43.6046 75.3861 43.6206C75.4373 43.6462 75.5909 43.803 75.7188 43.6622C75.8468 43.5214 75.8532 43.403 75.7796 43.3263C75.7796 43.3263 75.5813 43.1279 75.4213 43.2143C75.2773 43.2943 75.2965 43.499 75.2037 43.6238C75.1877 43.6142 75.1717 43.611 75.1525 43.611C75.1365 43.611 75.1174 43.6142 75.1046 43.6238C75.0598 43.595 74.9958 43.5502 75.0022 43.5118C75.015 43.4574 75.1333 43.2719 74.9638 43.1791C74.7974 43.0895 74.679 43.1087 74.6246 43.1983C74.6246 43.1983 74.4775 43.4382 74.6022 43.5726C74.7142 43.691 74.9094 43.627 75.0534 43.6878C75.0502 43.6974 75.0502 43.7038 75.0502 43.7134C75.0502 43.7358 75.0566 43.755 75.0694 43.7742C75.031 43.8126 74.9702 43.867 74.935 43.8478C74.8838 43.8222 74.7302 43.6654 74.6022 43.8062C74.4743 43.9469 74.4679 44.0653 74.5415 44.1421C74.5415 44.1421 74.7398 44.3405 74.8998 44.2541C75.0534 44.1677 75.0214 43.9405 75.1397 43.819C75.1461 43.819 75.1493 43.819 75.1557 43.819C75.1653 43.819 75.1717 43.819 75.1813 43.8158C75.2197 43.835 75.3189 43.8958 75.3093 43.9437C75.2965 43.9981 75.1781 44.1869 75.3477 44.2765C75.5141 44.3661 75.6325 44.3469 75.6868 44.2573C75.6868 44.2573 75.834 44.0141 75.7092 43.883C75.5909 43.7582 75.3893 43.8318 75.2453 43.7646Z" fill="#C1E3FF"/>
<path d="M75.3677 44.8492H75.0254V45.8155H75.3677V44.8492Z" fill="#C1E3FF"/>
<path d="M75.7642 44.507H75.4795V45.8123H75.7642V44.507Z" fill="#C1E3FF"/>
<path d="M76.2184 44.1677H75.9912V45.8154H76.2184V44.1677Z" fill="#C1E3FF"/>
<path d="M76.7301 43.7679H76.4453V45.8124H76.7301V43.7679Z" fill="#C1E3FF"/>
<path d="M77.1851 43.4287H76.9004V45.8155H77.1851V43.4287Z" fill="#C1E3FF"/>
<path d="M70.4499 45.0571L70.2451 45.1307V44.7115L70.3475 44.6379L70.4499 44.7115V45.0571ZM70.4499 45.585L70.3475 45.6586L70.2451 45.585V45.1658L70.4499 45.249V45.585ZM71.1857 44.5452L70.981 44.6891H70.4819L70.3763 44.6188L70.4819 44.5452H71.1857ZM71.1857 45.7545H70.4819L70.3763 45.681L70.4819 45.6106H70.981L71.1857 45.7545Z" fill="#C1E3FF"/>
<path d="M71.5085 45.0475L71.3037 45.1307V44.7115L71.4061 44.6379L71.5085 44.7115V45.0475ZM71.5085 45.585L71.4061 45.6586L71.3037 45.585V45.1658L71.5085 45.2394V45.585ZM72.1452 44.6188L72.0396 44.6891H71.5405L71.4349 44.6188L71.5405 44.5452H72.0396L72.1452 44.6188ZM72.1452 45.681L72.0396 45.7545H71.5405L71.4349 45.681L71.5405 45.6106H72.0396L72.1452 45.681ZM72.2795 45.1307L72.0748 45.0475V44.7147L72.1772 44.6411L72.2795 44.7147V45.1307ZM72.2795 45.585L72.1772 45.6586L72.0748 45.585V45.2394L72.2795 45.1658V45.585Z" fill="#C1E3FF"/>
<path d="M72.6862 45.0475L72.4814 45.1307V44.7115L72.5838 44.6379L72.6862 44.7115V45.0475ZM72.6862 45.585L72.5838 45.6586L72.4814 45.585V45.1658L72.6862 45.2394V45.585ZM73.3229 44.6188L73.2173 44.6891H72.7182L72.6126 44.6188L72.7182 44.5452H73.2173L73.3229 44.6188ZM73.3229 45.681L73.2173 45.7545H72.7182L72.6126 45.681L72.7182 45.6106H73.2173L73.3229 45.681ZM73.4573 45.1307L73.2525 45.0475V44.7147L73.3549 44.6411L73.4573 44.7147V45.1307ZM73.4573 45.585L73.3549 45.6586L73.2525 45.585V45.2394L73.4573 45.1658V45.585Z" fill="#C1E3FF"/>
<path d="M73.8639 45.0475L73.6592 45.1307V44.5452L73.8639 44.6891V45.0475ZM73.8639 45.585L73.6592 45.7321V45.1658L73.8639 45.2394V45.585ZM74.603 45.7545H73.6944L73.8991 45.6106H74.3982L74.603 45.7545Z" fill="#C1E3FF"/>
<path d="M70.028 41.5537H69.8584V46.2121H70.028V41.5537Z" fill="#C1E3FF"/>
<path d="M73.0958 47.7809L72.8975 47.6849V47.2722L73.0958 47.1058V47.7809ZM73.0958 48.504L72.8975 48.3376V47.9089L73.0958 47.8257V48.504Z" fill="#C1E3FF"/>
<path d="M73.8634 47.6967L73.665 47.7798V47.2967L73.7642 47.2135L73.8634 47.2967V47.6967ZM74.4841 48.4165L74.3817 48.5029H73.7066L73.8986 48.3365H74.3817L74.4841 48.4165ZM74.5673 47.8022L74.3817 47.879L73.8986 47.8758L73.713 47.8022L73.9018 47.7063H74.3753L74.5673 47.8022ZM74.4841 47.1879L74.3817 47.2711H73.8986L73.7962 47.1879L73.8986 47.1016H74.3817L74.4841 47.1879ZM74.6121 47.7798L74.4137 47.6967V47.2967L74.5129 47.2135L74.6121 47.2967V47.7798ZM74.6121 48.3045L74.5129 48.3877L74.4137 48.3045V47.9206L74.6121 47.8246V48.3045Z" fill="#C1E3FF"/>
<path d="M74.9767 47.8789H74.7783V47.5909H74.9767V47.8789ZM74.9767 48.5028H74.7783V48.202H74.9767V48.5028Z" fill="#C1E3FF"/>
<path d="M75.8595 47.1879L75.7571 47.2711H75.274L75.082 47.1047H75.7571L75.8595 47.1879ZM75.8595 48.4165L75.7571 48.5029H75.082L75.274 48.3365H75.7571L75.8595 48.4165ZM75.9427 47.8022L75.7571 47.879L75.274 47.8758L75.0884 47.799L75.274 47.7094H75.7539L75.9427 47.8022ZM75.9875 47.7798L75.7891 47.6838V47.2999L75.8883 47.2167L75.9875 47.2999V47.7798ZM75.9875 48.3045L75.8883 48.3877L75.7891 48.3045V47.9046L75.9875 47.8214V48.3045Z" fill="#C1E3FF"/>
<path d="M76.4679 47.6839L76.2695 47.7799V47.2968L76.3687 47.2136L76.4679 47.2968V47.6839ZM76.4679 48.3046L76.3687 48.3877L76.2695 48.3046V47.8215L76.4679 47.9046V48.3046ZM77.1718 47.8023L76.9862 47.879H76.4999L76.3143 47.8023L76.5063 47.7095H76.9862L77.1718 47.8023ZM77.175 47.1016L76.9862 47.268H76.5031L76.4007 47.1848L76.5031 47.0984H77.175V47.1016ZM77.0886 48.4165L76.9862 48.5029H76.5031L76.4007 48.4165L76.5031 48.3334H76.9862L77.0886 48.4165ZM77.2166 48.3046L77.1174 48.3877L77.0182 48.3046V47.9046L77.2166 47.8215V48.3046Z" fill="#C1E3FF"/>
<path d="M64.8706 47.2584C64.8706 47.5335 64.7234 47.6295 64.5378 47.6295C64.3555 47.6295 64.2051 47.5335 64.2051 47.2584C64.2051 46.9832 64.5378 46.6377 64.5378 46.6377C64.5378 46.6377 64.8706 46.9832 64.8706 47.2584Z" fill="#C1E3FF"/>
<path d="M63.9616 48.1766L63.8496 48.0774C63.8624 48.0614 64.1728 47.7127 64.5471 47.8055C64.6303 47.8279 64.7103 47.8567 64.7902 47.8855C65.0334 47.9782 65.2638 48.0678 65.6125 47.8919L65.6797 48.0262C65.5101 48.1094 65.3629 48.1414 65.2286 48.1414C65.0398 48.1414 64.883 48.0806 64.7358 48.0262C64.6591 47.9974 64.5855 47.9686 64.5087 47.9494C64.2239 47.8791 63.9616 48.1734 63.9616 48.1766Z" fill="#C1E3FF"/>
<path d="M63.9616 48.5605L63.8496 48.4613C63.8624 48.4453 64.1728 48.0966 64.5471 48.1894C64.6303 48.2118 64.7103 48.2406 64.7902 48.2726C65.0334 48.3654 65.2638 48.4549 65.6125 48.279L65.6797 48.4133C65.5101 48.4965 65.3629 48.5285 65.2286 48.5285C65.0398 48.5285 64.883 48.4677 64.7358 48.4133C64.6591 48.3845 64.5855 48.3558 64.5087 48.3366C64.2239 48.263 63.9616 48.5573 63.9616 48.5605Z" fill="#C1E3FF"/>
<path d="M63.9616 48.9572L63.8496 48.8581C63.8624 48.8421 64.1728 48.4933 64.5471 48.5861C64.6303 48.6085 64.7103 48.6373 64.7902 48.6661C65.0334 48.7589 65.2638 48.8485 65.6125 48.6725L65.6797 48.8069C65.5101 48.8901 65.3629 48.922 65.2286 48.922C65.0398 48.922 64.883 48.8613 64.7358 48.8069C64.6591 48.7781 64.5855 48.7493 64.5087 48.7301C64.2239 48.6629 63.9616 48.954 63.9616 48.9572Z" fill="#C1E3FF"/>
<path d="M67.0417 47.4578L66.9393 47.541H66.2227L66.4562 47.3746H66.9393L67.0417 47.4578ZM66.421 48.5808L66.3218 48.664L66.2227 48.5808V48.0977L66.421 48.1809V48.5808ZM67.1249 48.0753L66.9393 48.1489L66.4562 48.1521L66.2706 48.0753L66.4562 47.9825H66.9361L67.1249 48.0753ZM67.1697 48.776H66.4562L66.3538 48.6896L66.4562 48.6064H66.9809L67.1697 48.776ZM67.1697 48.0529L66.9713 47.9569V47.5698L67.0705 47.4866L67.1697 47.5698V48.0529Z" fill="#C1E3FF"/>
<path d="M67.5665 47.9527L67.3682 48.0486V47.5655L67.4673 47.4823L67.5665 47.5655V47.9527ZM67.5665 48.5797L67.4673 48.6629L67.3682 48.5797V48.0966L67.5665 48.1798V48.5797ZM68.2672 48.0742L68.0816 48.151H67.5953L67.4098 48.0742L67.6017 47.9814H68.0752L68.2672 48.0742ZM68.184 47.4567L68.0816 47.5399H67.5985L67.4961 47.4567L67.5985 47.3704H68.0816L68.184 47.4567ZM68.184 48.6885L68.0816 48.7749H67.5985L67.4961 48.6885L67.5985 48.6053H68.0816L68.184 48.6885ZM68.3152 48.0518L68.1168 47.9558V47.5687L68.216 47.4855L68.3152 47.5687V48.0518ZM68.3152 48.5797L68.216 48.6629L68.1168 48.5797V48.1798L68.3152 48.0966V48.5797Z" fill="#C1E3FF"/>
<path d="M70.1273 105.997C69.6282 105.997 69.2155 105.6 69.1963 105.098C69.1099 102.5 70.8568 100.852 72.2614 99.5276C73.218 98.6254 74.0434 97.8479 74.0434 97.0801C74.0434 96.3506 73.0644 95.6883 72.031 94.9844C70.5369 93.9702 68.6748 92.7097 68.6748 90.4029C68.6748 87.7602 70.8792 86.0997 72.4853 84.8871C73.0036 84.4968 73.7139 83.9592 73.8195 83.7289C74.181 82.3691 73.5443 81.6525 73.5155 81.6205C73.1508 81.2557 73.1572 80.6734 73.5219 80.3119C73.8867 79.9472 74.4817 79.9568 74.8465 80.3183C75.3776 80.8494 76.1327 82.2668 75.6111 84.228C75.4 85.0215 74.6097 85.6198 73.6051 86.3748C72.2358 87.405 70.5337 88.688 70.5337 90.4061C70.5337 91.6347 71.5383 92.4089 73.074 93.4487C74.3986 94.3478 75.9023 95.3684 75.9023 97.0833C75.9023 98.651 74.6993 99.7868 73.5379 100.884C72.2326 102.116 70.9976 103.281 71.0584 105.04C71.0744 105.555 70.6744 105.984 70.1593 106C70.1465 105.994 70.1369 105.997 70.1273 105.997Z" fill="#94CEED"/>
<path d="M103.016 105.996C102.517 105.996 102.104 105.6 102.085 105.097C101.999 102.5 103.746 100.852 105.15 99.5272C106.107 98.625 106.929 97.8476 106.929 97.0797C106.929 96.3502 105.95 95.6879 104.917 94.9841C103.423 93.9699 101.561 92.7093 101.561 90.4025C101.561 87.7598 103.765 86.0993 105.371 84.8867C105.889 84.4964 106.6 83.9589 106.705 83.7285C107.067 82.3688 106.43 81.6521 106.401 81.6201C106.037 81.2554 106.043 80.6731 106.408 80.3115C106.772 79.9468 107.367 79.9564 107.729 80.3179C108.26 80.849 109.015 82.2664 108.494 84.2276C108.283 85.0211 107.492 85.6194 106.488 86.3744C105.118 87.4047 103.416 88.6876 103.416 90.4057C103.416 91.6343 104.421 92.4085 105.957 93.4483C107.281 94.3474 108.785 95.368 108.785 97.0829C108.785 98.6506 107.582 99.7864 106.42 100.884C105.115 102.116 103.88 103.28 103.938 105.04C103.954 105.555 103.554 105.984 103.039 106C103.039 105.993 103.026 105.996 103.016 105.996Z" fill="#94CEED"/>
<path d="M135.907 105.996C135.408 105.996 134.995 105.6 134.976 105.097C134.889 102.5 136.636 100.852 138.041 99.5272C138.998 98.625 139.82 97.8476 139.82 97.0797C139.82 96.3502 138.841 95.6879 137.807 94.9841C136.313 93.9699 134.451 92.7093 134.451 90.4025C134.451 87.7598 136.656 86.0993 138.262 84.8867C138.78 84.4964 139.49 83.9589 139.596 83.7285C139.957 82.3688 139.321 81.6521 139.292 81.6201C138.927 81.2554 138.934 80.6731 139.298 80.3115C139.663 79.9468 140.258 79.9564 140.62 80.3179C141.151 80.849 141.906 82.2664 141.384 84.2276C141.173 85.0211 140.383 85.6194 139.381 86.3744C138.012 87.4047 136.31 88.6876 136.31 90.4057C136.31 91.6343 137.315 92.4085 138.85 93.4483C140.175 94.3474 141.679 95.368 141.679 97.0829C141.679 98.6506 140.476 99.7864 139.314 100.884C138.009 102.116 136.774 103.28 136.835 105.04C136.851 105.555 136.451 105.984 135.936 106C135.929 105.993 135.917 105.996 135.907 105.996Z" fill="#94CEED"/>
<path d="M168.796 105.996C168.297 105.996 167.884 105.6 167.865 105.097C167.779 102.5 169.526 100.852 170.93 99.5272C171.887 98.625 172.712 97.8476 172.712 97.0797C172.712 96.3502 171.733 95.6879 170.7 94.9841C169.206 93.9699 167.344 92.7093 167.344 90.4025C167.344 87.7598 169.548 86.0993 171.154 84.8867C171.673 84.4964 172.383 83.9589 172.488 83.7285C172.85 82.3688 172.213 81.6521 172.184 81.6201C171.82 81.2554 171.826 80.6731 172.191 80.3115C172.556 79.9468 173.151 79.9564 173.515 80.3179C174.047 80.849 174.802 82.2664 174.28 84.2276C174.069 85.0211 173.279 85.6194 172.274 86.3744C170.905 87.4047 169.203 88.6876 169.203 90.4057C169.203 91.6343 170.207 92.4085 171.743 93.4483C173.068 94.3474 174.571 95.368 174.571 97.0829C174.571 98.6506 173.368 99.7864 172.207 100.884C170.902 102.116 169.667 103.28 169.727 105.04C169.743 105.555 169.343 105.984 168.828 106C168.819 105.993 168.806 105.996 168.796 105.996Z" fill="#94CEED"/>
<path d="M310.409 83.8766C312.946 87.8657 315.211 91.9416 317.385 96.1042C319.559 100.267 321.553 104.516 323.274 109.026C323.455 109.546 323.727 110.153 323.908 110.76L324.18 111.627L324.361 112.061L324.452 112.408C324.452 112.581 324.542 112.668 324.542 112.841C325.086 115.183 324.542 117.004 323.999 118.391C322.912 121.253 321.371 123.335 319.831 125.329C316.66 129.232 313.036 132.354 309.14 135.302L305.698 131.92C308.506 128.451 311.315 124.722 313.489 121.167C314.033 120.299 314.486 119.345 314.939 118.478C315.392 117.611 315.664 116.744 315.845 116.05C316.026 115.356 315.935 114.749 315.845 114.923C315.845 114.923 315.845 114.923 315.845 114.836L315.664 114.489L315.392 113.795C315.211 113.275 314.939 112.841 314.758 112.321C312.946 108.332 310.771 104.429 308.597 100.44C306.422 96.5378 304.067 92.5487 301.802 88.7329L310.409 83.8766Z" fill="#F5C9B2"/>
<path d="M307.056 130.446L301.892 134.782L309.049 139.118C309.049 139.118 311.133 135.822 311.042 132.787L307.056 130.446Z" fill="#F5C9B2"/>
<path d="M300.08 141.286L305.516 144.668L309.14 139.204L301.983 134.868L300.08 141.286Z" fill="#F5C9B2"/>
<path d="M280.239 55.6923C280.148 56.2126 279.786 56.5595 279.423 56.4727C279.061 56.386 278.88 55.9524 278.97 55.4321C279.061 54.9118 279.423 54.5649 279.786 54.6516C280.148 54.7383 280.329 55.1719 280.239 55.6923Z" fill="#263238"/>
<path d="M279.786 56.5594C279.786 56.5594 278.064 59.1611 276.434 60.3752C277.158 61.3291 278.789 61.2424 278.789 61.2424L279.786 56.5594Z" fill="#F0B89A"/>
<path d="M282.685 53.2641C282.775 53.2641 282.866 53.2641 282.866 53.1774C282.957 53.0907 282.957 52.9173 282.866 52.7438C281.688 51.5297 280.239 51.7899 280.239 51.7899C280.057 51.7899 279.967 51.9633 279.967 52.1368C279.967 52.3102 280.148 52.3969 280.329 52.3969C280.42 52.3969 281.507 52.2235 282.413 53.1774C282.504 53.2641 282.594 53.2641 282.685 53.2641Z" fill="#263238"/>
<path d="M292.651 61.676C291.745 66.2722 290.749 74.6841 294.101 77.7194C294.101 77.7194 292.832 82.4023 283.863 82.4023C274.078 82.4023 279.605 78.4998 279.605 78.4998C283.772 75.031 284.769 71.4755 283.863 67.9199L292.651 61.676Z" fill="#F5C9B2"/>
<path d="M295.188 79.1069C295.732 77.3725 296.275 75.3779 294.645 74.9443C292.923 74.424 283.682 74.5975 280.692 76.1584C277.702 77.7194 278.88 80.9281 278.88 80.9281L295.188 79.1069Z" fill="#263238"/>
<path d="M326.988 290.359C326.354 290.532 325.629 290.532 325.357 290.272C325.267 290.185 325.085 289.925 325.176 289.578C325.267 289.405 325.357 289.231 325.538 289.145C326.444 288.711 328.438 289.492 328.528 289.578C328.619 289.578 328.619 289.665 328.619 289.752C328.619 289.838 328.619 289.838 328.528 289.925C328.347 290.012 327.622 290.185 326.988 290.359ZM325.901 289.318C325.81 289.318 325.81 289.318 325.72 289.405C325.629 289.492 325.538 289.578 325.448 289.665C325.357 289.925 325.448 290.012 325.538 290.012C325.901 290.272 327.169 290.012 328.075 289.665C327.532 289.492 326.535 289.231 325.901 289.318Z" fill="#407BFF"/>
<path d="M328.619 289.839C328.619 289.839 328.528 289.839 328.619 289.839C327.804 289.665 326.263 288.538 326.173 287.844C326.173 287.757 326.173 287.497 326.535 287.324C326.807 287.237 326.988 287.237 327.26 287.41C328.166 287.844 328.71 289.578 328.71 289.665C328.71 289.665 328.71 289.752 328.619 289.839ZM326.716 287.584C326.716 287.67 326.716 287.67 326.716 287.584C326.445 287.67 326.445 287.757 326.445 287.757C326.445 288.191 327.532 289.058 328.257 289.405C328.075 288.885 327.622 287.931 327.079 287.67C326.988 287.584 326.898 287.584 326.716 287.584Z" fill="#407BFF"/>
<path d="M278.699 293.394C277.883 293.394 277.068 293.307 276.796 292.96C276.705 292.874 276.615 292.613 276.796 292.353C276.887 292.18 277.068 292.093 277.249 292.006C278.336 291.746 280.601 292.96 280.692 293.047C280.782 293.047 280.782 293.134 280.782 293.221C280.782 293.307 280.692 293.307 280.692 293.307C280.329 293.307 279.514 293.394 278.699 293.394ZM277.702 292.18C277.611 292.18 277.521 292.18 277.43 292.18C277.249 292.18 277.158 292.267 277.158 292.353C277.068 292.527 277.068 292.613 277.158 292.7C277.43 293.134 279.152 293.134 280.329 292.96C279.605 292.7 278.427 292.18 277.702 292.18Z" fill="#407BFF"/>
<path d="M280.692 293.221C279.877 292.874 278.246 291.486 278.427 290.792C278.427 290.619 278.608 290.445 278.971 290.359C279.333 290.359 279.605 290.445 279.786 290.619C280.601 291.313 280.783 292.96 280.783 293.047C280.873 293.134 280.873 293.221 280.692 293.221C280.783 293.221 280.692 293.221 280.692 293.221ZM279.061 290.706H278.971C278.699 290.706 278.699 290.879 278.699 290.879C278.608 291.313 279.695 292.353 280.511 292.874C280.42 292.353 280.148 291.399 279.605 290.966C279.514 290.792 279.333 290.706 279.061 290.706Z" fill="#407BFF"/>
<path d="M287.939 293.134H281.326L280.691 278.565H287.215L287.939 293.134Z" fill="#F5C9B2"/>
<path d="M335.867 288.191L329.525 289.492L323.093 275.963L329.435 274.662L335.867 288.191Z" fill="#F5C9B2"/>
<path d="M328.891 288.885L336.048 287.41C336.32 287.324 336.592 287.497 336.682 287.757L339.219 292.96C339.491 293.481 339.128 294.088 338.494 294.261C335.957 294.782 334.689 294.868 331.518 295.475C329.615 295.909 325.176 296.863 322.458 297.47C319.831 297.99 318.834 295.562 319.921 295.128C324.632 293.047 326.626 291.226 327.894 289.578C328.166 289.145 328.528 288.971 328.891 288.885Z" fill="#263238"/>
<path d="M281.417 292.353H288.574C288.846 292.353 289.118 292.527 289.118 292.787L290.386 298.337C290.477 298.944 290.024 299.465 289.48 299.465C286.943 299.465 283.138 299.291 279.967 299.291C276.162 299.291 276.252 299.465 271.813 299.465C269.095 299.465 268.37 296.863 269.548 296.603C274.712 295.562 275.528 295.389 279.967 292.787C280.329 292.614 280.873 292.353 281.417 292.353Z" fill="#263238"/>
<path d="M274.712 90.9009C272.176 95.3237 269.548 99.573 266.739 103.736C263.931 107.898 260.941 112.061 257.498 116.05C257.045 116.57 256.592 117.091 256.139 117.524L255.414 118.305L254.599 119.085C254.056 119.606 253.603 120.039 253.059 120.473L251.519 121.774C249.526 123.421 247.442 124.982 245.358 126.456C241.19 129.405 237.023 132.267 232.583 134.955L229.503 131.313C233.036 127.844 236.751 124.375 240.375 120.993C242.187 119.259 243.999 117.611 245.72 115.877C246.536 115.009 247.442 114.142 248.076 113.362L248.529 112.755L249.073 112.061C249.435 111.627 249.797 111.194 250.16 110.673C252.968 106.944 255.596 102.868 258.223 98.7058C260.851 94.6299 263.387 90.3806 265.833 86.218L274.712 90.9009Z" fill="#F5C9B2"/>
<path d="M307.872 79.1935C314.033 80.5811 321.19 101.654 321.19 101.654L310.681 108.245C310.681 108.245 303.976 98.4456 300.533 91.4212C296.909 84.0499 301.621 77.806 307.872 79.1935Z" fill="#E9981C"/>
<path opacity="0.7" d="M307.872 79.1935C314.033 80.5811 321.19 101.654 321.19 101.654L310.681 108.245C310.681 108.245 303.976 98.4456 300.533 91.4212C296.909 84.0499 301.621 77.806 307.872 79.1935Z" fill="#F6AC3B"/>
<path opacity="0.5" d="M304.429 89.947C303.885 89.2532 302.436 90.8142 301.349 92.7221C302.889 95.5839 304.791 98.7925 306.513 101.481C307.509 96.2776 305.788 91.6814 304.429 89.947Z" fill="#407BFF"/>
<path d="M271.179 79.4538C271.179 79.4538 264.202 86.9985 270.816 133.654C281.326 133.654 300.714 133.654 305.878 133.654C306.15 128.538 302.707 103.389 307.962 79.1936C307.962 79.1936 301.983 78.0663 296.275 77.8061C291.835 77.6327 285.312 77.4592 281.416 77.8061C276.071 78.153 271.179 79.4538 271.179 79.4538Z" fill="#407BFF"/>
<path d="M271.179 79.4538C271.179 79.4538 264.202 86.9985 270.816 133.654C281.326 133.654 300.714 133.654 305.878 133.654C306.15 128.538 302.707 103.389 307.962 79.1936C307.962 79.1936 301.983 78.0663 296.275 77.8061C291.835 77.6327 285.312 77.4592 281.416 77.8061C276.071 78.153 271.179 79.4538 271.179 79.4538Z" fill="#F6AC3B"/>
<path opacity="0.5" d="M268.189 92.2885C267.917 96.451 267.827 101.914 268.189 109.026C272.629 106.25 276.706 98.9659 276.434 94.1963L268.189 92.2885Z" fill="#407BFF"/>
<path d="M280.782 83.6163C284.225 91.5947 263.387 111.54 263.387 111.54L252.605 103.736C252.605 103.736 260.035 93.2423 263.115 86.1312C266.92 77.2857 278.155 77.5459 280.782 83.6163Z" fill="#E9981C"/>
<path d="M280.782 83.6163C284.225 91.5947 263.387 111.54 263.387 111.54L252.605 103.736C252.605 103.736 260.035 93.2423 263.115 86.1312C266.92 77.2857 278.155 77.5459 280.782 83.6163Z" fill="#F2A632"/>
<path d="M256.049 100.874C258.314 102.955 263.388 107.638 265.743 108.939C266.106 109.112 266.196 109.546 266.015 109.893C265.29 111.28 263.478 113.275 262.3 113.448C260.941 113.622 250.341 106.944 250.16 105.643C250.069 104.69 252.244 102.348 253.693 100.961C254.328 100.267 255.415 100.267 256.049 100.874Z" fill="#263238"/>
<path d="M308.687 103.822C311.495 102.435 317.747 99.3996 319.831 97.7519C320.102 97.4917 320.555 97.4917 320.827 97.8386C321.914 98.9659 323.364 101.221 323.183 102.348C322.911 103.649 312.854 111.02 311.495 110.76C310.499 110.587 308.959 107.811 307.962 105.99C307.509 105.123 307.871 104.169 308.687 103.822Z" fill="#263238"/>
<path d="M231.768 129.839L225.154 131.833L228.144 138.077C228.144 138.077 233.852 137.383 235.03 132.961L231.768 129.839Z" fill="#F5C9B2"/>
<path d="M222.164 135.129L224.61 139.204L228.144 137.99L225.154 131.833L222.164 135.129Z" fill="#F5C9B2"/>
<path opacity="0.2" d="M280.691 278.565L281.054 286.11H287.577L287.215 278.565H280.691Z" fill="black"/>
<path opacity="0.2" d="M329.434 274.662L323.092 275.963L326.353 282.988L332.786 281.6L329.434 274.662Z" fill="black"/>
<path d="M297.724 57.8602C296.093 63.844 295.459 67.4862 291.654 70.0011C285.855 73.8169 278.607 69.5675 278.245 63.2369C277.973 57.5134 280.691 48.5811 287.396 47.367C294.009 46.0662 299.355 51.7898 297.724 57.8602Z" fill="#F5C9B2"/>
<path d="M282.957 59.2478C282.051 57.5134 282.141 54.9985 284.044 53.2641C282.051 52.2234 280.148 48.8413 282.141 46.8468C276.977 45.7194 279.786 40.5161 287.94 41.0365C296.003 41.5568 289.661 44.7655 289.661 44.7655C289.661 44.7655 307.056 46.0663 300.805 52.1367C303.613 53.6977 303.795 59.0744 299.899 61.676C293.557 65.8386 295.55 70.5215 290.658 69.6543C286.309 68.8738 282.504 64.1909 282.957 59.2478Z" fill="#263238"/>
<path d="M285.494 58.3807C285.313 59.7682 284.135 61.2425 283.138 61.7628C281.507 62.63 280.511 61.9362 280.511 60.3753C280.511 58.901 281.145 56.5596 282.776 56.0392C284.316 55.5189 285.675 56.733 285.494 58.3807Z" fill="#F5C9B2"/>
<path d="M283.229 133.654C283.229 133.654 290.658 181.524 294.735 199.475C299.174 219.161 323.093 282.12 323.093 282.12L334.78 279.692C334.78 279.692 316.932 220.722 314.304 201.21C311.496 180.05 305.788 133.568 305.788 133.568H283.229V133.654Z" fill="#263238"/>
<path d="M319.921 277.09C319.831 277.09 322.458 282.467 322.458 282.467L335.686 279.692L334.236 274.576L319.921 277.09Z" fill="#407BFF"/>
<path d="M319.921 277.09C319.831 277.09 322.458 282.467 322.458 282.467L335.686 279.692L334.236 274.576L319.921 277.09Z" fill="#F6AC3B"/>
<path opacity="0.3" d="M287.94 150.738C296.547 152.386 295.641 182.998 294.553 198.782C292.107 187.595 288.483 166.175 285.946 150.912C286.58 150.652 287.215 150.565 287.94 150.738Z" fill="black"/>
<path d="M270.817 133.654C270.817 133.654 269.911 180.483 270.636 199.649C271.36 219.508 278.608 284.635 278.608 284.635H289.662C289.662 284.635 290.024 220.722 290.568 201.21C291.111 179.963 293.829 133.741 293.829 133.741H270.817V133.654Z" fill="#263238"/>
<path d="M276.434 279.085C276.343 279.085 277.068 284.809 277.068 284.809H290.567L290.93 279.605L276.434 279.085Z" fill="#407BFF"/>
<path d="M276.434 279.085C276.343 279.085 277.068 284.809 277.068 284.809H290.567L290.93 279.605L276.434 279.085Z" fill="#F6AC3B"/>
</g>
<defs>
<clipPath id="clip0">
<rect width="407" height="300" fill="white"/>
</clipPath>
</defs>
</svg>
