<svg width="407" height="300" viewBox="0 0 407 300" fill="none" xmlns="http://www.w3.org/2000/svg">
<g clip-path="url(#clip0)">
<path d="M427 271.629H-4V271.888H427V271.629Z" fill="#EBEBEB"/>
<path d="M383.813 285.507H355.281V285.766H383.813V285.507Z" fill="#EBEBEB"/>
<path d="M281.495 287.834H273.995V288.093H281.495V287.834Z" fill="#EBEBEB"/>
<path d="M354.419 277.49H337.869V277.749H354.419V277.49Z" fill="#EBEBEB"/>
<path d="M78.4933 278.956H41.2549V279.214H78.4933V278.956Z" fill="#EBEBEB"/>
<path d="M91.5956 278.956H86.165V279.214H91.5956V278.956Z" fill="#EBEBEB"/>
<path d="M190.122 282.576H109.353V282.835H190.122V282.576Z" fill="#EBEBEB"/>
<path d="M200.294 233.184H33.8421C31.1699 233.184 28.9287 230.942 28.9287 228.27V-5.67657C28.9287 -8.34877 31.1699 -10.59 33.8421 -10.59H200.294C202.967 -10.59 205.208 -8.34877 205.208 -5.67657V228.27C205.208 230.942 203.053 233.184 200.294 233.184ZM33.8421 -10.4176C31.2561 -10.4176 29.1011 -8.34877 29.1011 -5.67657V228.27C29.1011 230.856 31.1699 233.011 33.8421 233.011H200.294C202.88 233.011 205.035 230.942 205.035 228.27V-5.67657C205.035 -8.26257 202.967 -10.4176 200.294 -10.4176H33.8421Z" fill="#EBEBEB"/>
<path d="M386.745 233.184H220.292C217.62 233.184 215.379 230.942 215.379 228.27V-5.67657C215.379 -8.34877 217.62 -10.59 220.292 -10.59H386.745C389.417 -10.59 391.658 -8.34877 391.658 -5.67657V228.27C391.658 230.942 389.503 233.184 386.745 233.184ZM220.292 -10.4176C217.706 -10.4176 215.551 -8.34877 215.551 -5.67657V228.27C215.551 230.856 217.62 233.011 220.292 233.011H386.745C389.331 233.011 391.486 230.942 391.486 228.27V-5.67657C391.486 -8.26257 389.417 -10.4176 386.745 -10.4176H220.292Z" fill="#EBEBEB"/>
<path d="M39.8926 271.651H55.9258L55.9258 161.401H39.8926L39.8926 271.651Z" fill="#407BFF"/>
<path d="M45.5652 271.629H39.876V250.682H51.4268L45.5652 271.629Z" fill="#64B9FF"/>
<path d="M209.659 271.651H225.692V161.401H209.659V271.651Z" fill="#407BFF"/>
<path d="M39.9115 265.933H214.553V161.459L39.9115 161.459V265.933Z" fill="#64B9FF"/>
<path d="M208.915 271.629H214.518V250.682H202.967L208.915 271.629Z" fill="#64B9FF"/>
<path d="M206.932 256.975H158.746C157.539 256.975 156.505 255.94 156.505 254.734V171.895C156.505 170.689 157.539 169.654 158.746 169.654H206.932C208.139 169.654 209.173 170.689 209.173 171.895V254.734C209.173 255.94 208.139 256.975 206.932 256.975ZM158.746 170.516C157.97 170.516 157.367 171.12 157.367 171.895V254.734C157.367 255.509 157.97 256.113 158.746 256.113H206.932C207.708 256.113 208.311 255.509 208.311 254.734V171.895C208.311 171.12 207.708 170.516 206.932 170.516H158.746Z" fill="#3362CC"/>
<path d="M151.332 256.975H103.146C101.94 256.975 100.905 255.94 100.905 254.734V171.895C100.905 170.689 101.94 169.654 103.146 169.654H151.332C152.539 169.654 153.573 170.689 153.573 171.895V254.734C153.573 255.94 152.539 256.975 151.332 256.975ZM103.146 170.516C102.371 170.516 101.767 171.12 101.767 171.895V254.734C101.767 255.509 102.371 256.113 103.146 256.113H151.332C152.108 256.113 152.711 255.509 152.711 254.734V171.895C152.711 171.12 152.108 170.516 151.332 170.516H103.146Z" fill="#3362CC"/>
<path d="M95.6477 256.975H47.4619C46.2551 256.975 45.2207 255.94 45.2207 254.734V171.895C45.2207 170.689 46.2551 169.654 47.4619 169.654H95.6477C96.8545 169.654 97.8889 170.689 97.8889 171.895V254.734C97.8889 255.94 96.9407 256.975 95.6477 256.975ZM47.4619 170.516C46.6861 170.516 46.0827 171.12 46.0827 171.895V254.734C46.0827 255.509 46.6861 256.113 47.4619 256.113H95.6477C96.4235 256.113 97.0269 255.509 97.0269 254.734V171.895C97.0269 171.12 96.4235 170.516 95.6477 170.516H47.4619Z" fill="#3362CC"/>
<path d="M264.913 247.915H353.785L353.785 11.7273H264.913V247.915Z" fill="#95B6FF"/>
<path d="M260.604 247.915H353.183L353.183 11.7273H260.604V247.915Z" fill="#407BFF"/>
<path d="M264.913 251.997H353.785V247.946H264.913V251.997Z" fill="#95B6FF"/>
<path d="M253.343 251.997H345.922V247.946H253.343V251.997Z" fill="#407BFF"/>
<path d="M347.03 241.772L347.03 17.824L266.692 17.824L266.692 241.772L347.03 241.772Z" fill="#95B6FF"/>
<path d="M285.028 241.804L294.769 17.8561H311.75L302.01 241.804H285.028Z" fill="#95B6FF"/>
<path d="M344.248 85.2644C344.506 85.2644 344.679 85.092 344.679 84.8334V21.9074C344.679 21.6488 344.506 21.4764 344.248 21.4764C343.989 21.4764 343.817 21.6488 343.817 21.9074V84.8334C343.731 85.0058 343.989 85.2644 344.248 85.2644Z" fill="#407BFF"/>
<path d="M305.631 241.804L315.458 17.8561H322.095L312.268 241.804H305.631Z" fill="#95B6FF"/>
<path d="M267.5 241.825L267.5 17.8774H266.724L266.724 241.825H267.5Z" fill="#95B6FF"/>
<path opacity="0.5" d="M259.082 25.8727H349.42L349.937 20.2697H259.685L259.082 25.8727Z" fill="#A7D2F5"/>
<path opacity="0.5" d="M259.082 35.096H349.42L349.937 29.493H259.685L259.082 35.096Z" fill="#A7D2F5"/>
<path opacity="0.5" d="M259.082 44.3194H349.42L349.937 38.7164H259.685L259.082 44.3194Z" fill="#A7D2F5"/>
<path opacity="0.5" d="M259.082 53.5428H349.42L349.937 47.9398H259.685L259.082 53.5428Z" fill="#A7D2F5"/>
<path opacity="0.5" d="M259.082 62.7662H349.42L349.937 57.1632H259.685L259.082 62.7662Z" fill="#A7D2F5"/>
<path opacity="0.5" d="M259.082 71.9896H349.42L349.937 66.3866H259.685L259.082 71.9896Z" fill="#A7D2F5"/>
<path d="M189.002 14.4081H68.9258V81.4717H189.002V14.4081Z" fill="#64B9FF"/>
<path d="M187.795 14.4081H67.7188V81.4717H187.795V14.4081Z" fill="#407BFF"/>
<path d="M179.269 72.844V23.0204L76.4319 23.0204L76.4319 72.844L179.269 72.844Z" fill="#64B9FF"/>
<path d="M94.5273 72.8517L100.82 23.0281H118.75L112.457 72.8517H94.5273Z" fill="#78BFF9"/>
<path d="M117.111 72.8517L123.49 23.0281H133.662L127.283 72.8517H117.111Z" fill="#78BFF9"/>
<path d="M154.005 72.8517L160.297 23.0281H170.555L164.176 72.8517H154.005Z" fill="#78BFF9"/>
<path d="M77.5439 72.8524L77.5439 23.0288H76.4233L76.4233 72.8524H77.5439Z" fill="#64B9FF"/>
<path d="M190.467 114.141H186.847V157.414H190.467V114.141Z" fill="#F5F5F5"/>
<path d="M190.036 114.141H189.002V157.414H190.036V114.141Z" fill="#FAFAFA"/>
<path d="M197.967 161.465H179.434V159.483C179.434 157.5 181.071 155.862 183.054 155.862H194.26C196.243 155.862 197.88 157.5 197.88 159.483V161.465H197.967Z" fill="#F0F0F0"/>
<path d="M194.001 158.276V155.345C194.001 155 193.742 154.742 193.398 154.742H192.018C191.674 154.742 191.415 155 191.415 155.345V158.276C191.415 158.621 191.674 158.879 192.018 158.879H193.398C193.656 158.879 194.001 158.621 194.001 158.276Z" fill="#F0F0F0"/>
<path d="M209.603 119.572H167.624L167.883 118.538C170.555 109.314 179.002 103.022 188.571 103.022C198.139 103.022 206.586 109.314 209.259 118.538L209.603 119.572Z" fill="#E0E0E0"/>
<path d="M67.2014 114.141H63.5811V157.414H67.2014V114.141Z" fill="#64B9FF"/>
<path d="M66.7697 114.141H65.7354V157.414H66.7697V114.141Z" fill="#78BFF9"/>
<path d="M74.701 161.465H56.168V159.483C56.168 157.5 57.8058 155.862 59.7884 155.862H71.0806C73.0632 155.862 74.701 157.5 74.701 159.483V161.465Z" fill="#3362CC"/>
<path d="M70.7354 158.276V155.345C70.7354 155 70.4768 154.742 70.132 154.742H68.7528C68.408 154.742 68.1494 155 68.1494 155.345V158.276C68.1494 158.621 68.408 158.879 68.7528 158.879H70.132C70.4768 158.879 70.7354 158.621 70.7354 158.276Z" fill="#3362CC"/>
<path d="M86.4237 119.572H44.4443L44.7029 118.538C47.3751 109.314 55.8227 103.022 65.3909 103.022C74.9591 103.022 83.4067 109.314 86.0789 118.538L86.4237 119.572Z" fill="#407BFF"/>
<path d="M211.5 310.505C303.81 310.505 378.642 306.144 378.642 300.764C378.642 295.385 303.81 291.024 211.5 291.024C119.19 291.024 44.3584 295.385 44.3584 300.764C44.3584 306.144 119.19 310.505 211.5 310.505Z" fill="#64B9FF"/>
<path d="M268.651 82.0751C265.892 79.3167 265.892 74.8343 268.651 72.0759L272.013 68.7141C274.771 65.9557 279.253 65.9557 282.012 68.7141C284.77 71.4725 284.77 75.9549 282.012 78.7133L278.65 82.0751C275.892 84.8335 271.409 84.8335 268.651 82.0751Z" fill="#407BFF"/>
<path opacity="0.4" d="M268.651 82.0751C265.892 79.3167 265.892 74.8343 268.651 72.0759L272.013 68.7141C274.771 65.9557 279.253 65.9557 282.012 68.7141C284.77 71.4725 284.77 75.9549 282.012 78.7133L278.65 82.0751C275.892 84.8335 271.409 84.8335 268.651 82.0751Z" fill="#C1E3FF"/>
<path d="M273.392 77.334C269.858 73.7998 269.858 67.9382 273.392 64.404L279.943 57.8528C283.477 54.3186 289.339 54.3186 292.873 57.8528C296.407 61.387 296.407 67.2486 292.873 70.7828L286.322 77.334C282.701 80.8682 276.926 80.8682 273.392 77.334Z" fill="#BD964B"/>
<path d="M282.529 68.1106C276.495 62.0766 266.582 62.0766 260.462 68.1106L282.529 90.1778C288.649 84.0576 288.649 74.1446 282.529 68.1106Z" fill="#F6AC3B"/>
<path d="M291.494 110.866C290.718 110.866 290.201 110.262 290.201 109.573C290.201 108.797 290.805 108.28 291.494 108.28C304.769 108.28 315.63 97.4186 315.63 84.1438C315.63 70.869 304.769 60.0078 291.494 60.0078C290.718 60.0078 290.201 59.4044 290.201 58.7148C290.201 58.0252 290.805 57.4218 291.494 57.4218C306.234 57.4218 318.302 69.4036 318.302 84.23C318.302 99.0564 306.321 110.866 291.494 110.866Z" fill="#407BFF"/>
<path d="M323.99 292.317L293.476 147.587L289.424 148.708L305.285 223.874L281.666 292.403H260.633L260.72 291.455H255.979L255.634 296.541H257.099H260.289H325.197L325.456 292.403H323.99V292.317ZM305.888 226.632L319.68 292.231H283.218L305.888 226.632Z" fill="#407BFF"/>
<path d="M172.106 292.317L141.678 147.501L137.626 148.621L153.487 223.788L129.868 292.317H108.836L108.922 291.369H104.181L103.836 296.454H105.301H108.491H173.399L173.658 292.317H172.106ZM154.004 226.632L167.796 292.231H131.334L154.004 226.632Z" fill="#407BFF"/>
<path d="M307.44 219.392L303.475 230.684H152.021L155.9 219.392H307.44Z" fill="#407BFF"/>
<path d="M301.493 227.925L303.475 230.684H152.022L149.953 227.925H301.493Z" fill="#407BFF"/>
<path opacity="0.2" d="M301.493 227.925L303.475 230.684H152.022L149.953 227.925H301.493Z" fill="black"/>
<path d="M277.098 201.893H92.0267L89.3545 199.221L327.525 97.8496L330.197 100.522L277.098 201.893Z" fill="#407BFF"/>
<path opacity="0.4" d="M277.098 201.893H92.0267L89.3545 199.221L327.525 97.8496L330.197 100.522L277.098 201.893Z" fill="black"/>
<path d="M120.724 132.906L115.603 142.679L116.366 143.079L121.488 133.306L120.724 132.906Z" fill="#407BFF"/>
<path d="M113.894 145.896L111.453 150.553L112.217 150.954L114.657 146.296L113.894 145.896Z" fill="#407BFF"/>
<path d="M274.426 199.221H89.3545L142.54 97.8496H327.525L274.426 199.221Z" fill="#407BFF"/>
<path opacity="0.3" d="M255.806 182.929L124.868 183.36L163.572 110.866C194.604 113.107 241.066 113.279 291.924 112.245L255.806 182.929Z" fill="black"/>
<path d="M253.91 183.446H124.093L161.417 112.331C201.414 113.797 244.256 112.848 290.373 111.555C283.132 129.485 270.202 155.517 253.91 183.446Z" fill="#C1E3FF"/>
<g opacity="0.6">
<path opacity="0.6" d="M146.936 174.999C159.176 174.912 171.33 174.912 183.571 174.826C196.673 174.74 209.775 174.74 222.878 174.654C229.429 174.654 235.98 174.568 242.618 174.568C243.049 174.568 243.049 173.878 242.618 173.878C230.377 173.964 218.223 173.964 205.983 174.05C192.88 174.137 179.778 174.137 166.675 174.223C160.124 174.223 153.573 174.309 146.936 174.309C146.505 174.395 146.505 174.999 146.936 174.999Z" fill="#407BFF"/>
<path opacity="0.6" d="M240.894 175.688C248.738 160.776 256.582 145.949 264.599 131.123C266.926 126.813 269.167 122.589 271.495 118.365C271.667 118.021 271.15 117.676 270.891 118.021C262.875 132.847 254.944 147.673 247.014 162.586C244.773 166.81 242.532 171.12 240.29 175.343C240.118 175.688 240.721 176.033 240.894 175.688Z" fill="#407BFF"/>
<path opacity="0.6" d="M271.926 118.624C259.685 118.71 247.445 118.71 235.118 118.796C221.844 118.883 208.655 118.883 195.38 118.969C188.829 118.969 182.278 119.055 175.727 119.055C175.296 119.055 175.296 119.745 175.727 119.745C187.967 119.658 200.207 119.658 212.534 119.572C225.809 119.486 238.997 119.486 252.272 119.4C258.823 119.4 265.375 119.314 271.926 119.314C272.357 119.314 272.357 118.624 271.926 118.624Z" fill="#407BFF"/>
<path opacity="0.6" d="M178.053 117.417C170.123 132.502 162.193 147.501 154.09 162.413C151.763 166.723 149.435 171.034 147.108 175.257C146.935 175.602 147.453 175.947 147.711 175.602C155.814 160.603 163.831 145.605 171.847 130.606C174.088 126.296 176.416 122.072 178.657 117.762C178.829 117.417 178.312 117.072 178.053 117.417Z" fill="#407BFF"/>
<g opacity="0.6">
<path opacity="0.6" d="M191.156 167.844C195.638 158.965 200.121 150.173 204.689 141.294C205.896 138.881 207.103 136.553 208.31 134.14C208.482 133.795 207.965 133.45 207.706 133.795C203.052 142.932 198.397 151.983 193.828 161.12C192.794 163.275 191.673 165.344 190.639 167.499C190.38 167.844 190.897 168.189 191.156 167.844Z" fill="#407BFF"/>
<path opacity="0.6" d="M159.176 167.93C161.762 162.845 164.348 157.759 166.934 152.673C167.106 152.328 166.589 151.983 166.331 152.328C163.745 157.414 161.159 162.5 158.573 167.586C158.4 168.017 158.917 168.361 159.176 167.93Z" fill="#407BFF"/>
<path opacity="0.6" d="M235.635 167.844C242.1 156.207 247.789 144.139 253.909 132.33C255.375 129.399 256.926 126.554 258.478 123.71C258.65 123.365 258.133 123.02 257.875 123.365C251.41 135.002 245.72 147.07 239.6 158.879C238.135 161.81 236.583 164.655 235.032 167.499C234.859 167.93 235.463 168.189 235.635 167.844Z" fill="#407BFF"/>
<path opacity="0.6" d="M200.207 167.758C206.068 156.207 212.016 144.742 217.878 133.192C218.567 131.899 219.171 130.606 219.86 129.313C220.205 128.623 220.55 127.933 220.895 127.158C221.067 126.813 221.239 126.468 221.412 126.123C221.584 125.865 221.757 125.089 222.101 124.916C222.36 124.83 223.136 124.916 223.394 124.916C223.912 124.916 224.515 124.916 225.032 124.916C226.239 124.916 227.36 124.916 228.566 124.916C233.825 124.83 239.083 124.83 244.341 124.83C249.599 124.83 254.944 124.83 260.202 124.916C260.633 124.916 260.633 124.227 260.202 124.227C247.444 123.968 234.6 124.227 221.843 124.399C221.757 124.399 221.584 124.485 221.584 124.572C214.343 138.967 207.016 153.276 199.689 167.585C199.431 167.844 200.034 168.103 200.207 167.758Z" fill="#407BFF"/>
<path opacity="0.6" d="M235.721 167.586C232.618 156.293 228.825 145.087 225.205 133.881C224.17 130.778 223.136 127.589 222.188 124.399C222.015 123.968 221.412 124.141 221.584 124.572C225.205 136.036 229.084 147.501 232.532 158.966C233.394 161.896 234.256 164.741 235.118 167.672C235.118 168.189 235.807 168.017 235.721 167.586Z" fill="#407BFF"/>
<path opacity="0.6" d="M258.306 124.141C251.152 130.175 243.566 135.519 235.981 140.863C227.705 146.639 219.43 152.328 211.327 158.362C207.362 161.293 203.397 164.31 199.604 167.585C199.259 167.844 199.776 168.361 200.035 168.016C207.276 161.896 215.034 156.379 222.792 150.863C230.981 145.087 239.256 139.398 247.273 133.45C251.152 130.606 255.031 127.675 258.737 124.572C259.168 124.399 258.651 123.882 258.306 124.141Z" fill="#407BFF"/>
<path opacity="0.6" d="M199 167.672C208.827 167.93 218.74 168.103 228.567 168.103C230.98 168.103 233.308 168.103 235.721 168.016C236.152 168.016 236.152 167.327 235.721 167.327C225.808 167.499 215.895 167.327 206.068 167.154C203.741 167.068 201.414 167.068 199 166.982C198.569 166.982 198.569 167.672 199 167.672Z" fill="#407BFF"/>
<path opacity="0.6" d="M185.294 168.103C191.587 156.38 197.362 144.484 203.482 132.675C204.948 129.744 206.499 126.813 208.051 123.968C208.223 123.624 207.706 123.279 207.448 123.624C201.155 135.347 195.38 147.242 189.259 159.052C187.794 161.983 186.242 164.913 184.691 167.758C184.518 168.103 185.122 168.448 185.294 168.103Z" fill="#407BFF"/>
<path opacity="0.6" d="M166.762 167.93C170.727 160.172 174.606 152.5 178.571 144.742C180.554 140.863 182.537 136.984 184.433 133.192C185.381 131.295 186.329 129.399 187.277 127.502C187.622 126.899 188.053 125.347 188.743 125.003C189.174 124.83 189.95 125.003 190.467 125.003C191.07 125.003 191.76 125.003 192.363 125.003C197.363 124.916 202.362 124.83 207.362 125.003C207.793 125.003 207.793 124.313 207.362 124.313C200.983 124.141 194.691 124.313 188.312 124.399C188.226 124.399 188.053 124.485 188.053 124.572C180.812 138.967 173.485 153.276 166.158 167.585C165.986 167.93 166.503 168.275 166.762 167.93Z" fill="#407BFF"/>
<path opacity="0.6" d="M185.381 167.93C186.674 153.535 187.363 139.139 188.742 124.744C188.742 124.313 188.139 124.313 188.053 124.744C186.76 139.139 185.984 153.535 184.691 167.93C184.605 168.361 185.294 168.361 185.381 167.93Z" fill="#407BFF"/>
<path opacity="0.6" d="M207.534 124.399C196.845 135.95 185.726 147.07 174.864 158.448C171.934 161.551 169.003 164.655 166.072 167.758C165.813 168.103 166.244 168.534 166.503 168.189C177.278 156.552 188.398 145.346 199.431 133.881C202.276 130.864 205.121 127.847 207.965 124.83C208.31 124.572 207.793 124.054 207.534 124.399Z" fill="#407BFF"/>
<path opacity="0.6" d="M165.899 167.844C172.278 168.189 178.657 168.448 185.036 168.275C185.467 168.275 185.467 167.586 185.036 167.586C178.657 167.758 172.278 167.499 165.899 167.155C165.468 167.155 165.468 167.844 165.899 167.844Z" fill="#407BFF"/>
</g>
<path opacity="0.6" d="M176.157 128.278C175.898 128.796 175.726 129.485 175.898 130.089C176.071 130.606 176.502 130.951 177.019 131.123C178.226 131.468 179.605 130.864 180.553 130.089C181.502 129.399 182.191 128.106 182.105 126.899C181.932 125.865 181.07 125.089 179.95 125.175C179.174 125.175 178.571 125.692 178.053 126.123C177.795 126.382 177.536 126.641 177.278 126.899C177.019 127.158 176.847 127.416 176.76 127.761C176.674 128.192 177.364 128.365 177.364 127.934C177.45 127.503 177.881 127.072 178.226 126.813C178.571 126.468 179.002 126.123 179.433 125.865C180.209 125.606 181.157 125.865 181.329 126.641C181.588 127.503 181.07 128.451 180.467 129.14C179.777 129.83 178.743 130.433 177.709 130.433C177.278 130.433 176.847 130.347 176.588 130.002C176.329 129.571 176.502 128.968 176.674 128.537C176.933 128.192 176.329 127.847 176.157 128.278Z" fill="#407BFF"/>
</g>
<path opacity="0.2" d="M327.525 97.8496L274.426 199.221H89.3545L142.54 97.8496H195.553L168.486 110.262C168.486 110.262 168.486 110.262 168.4 110.262C154.608 115.262 143.574 123.02 137.971 132.588C125.041 154.569 145.384 178.274 183.312 185.515C221.24 192.756 262.53 180.774 275.374 158.707C278.219 153.88 279.425 148.88 279.253 144.053L282.011 97.7634H327.525V97.8496Z" fill="black"/>
<path d="M159.78 80.8682C157.539 84.8334 155.298 88.8848 153.143 92.9362C150.988 96.9876 148.833 101.039 147.022 105.09C146.591 106.125 146.16 107.073 145.729 108.107C145.729 108.194 145.729 108.107 145.729 108.107C145.729 108.107 145.729 108.194 145.643 108.28C145.643 108.452 145.643 108.711 145.643 109.056C145.729 109.745 146.074 110.607 146.419 111.469C146.85 112.331 147.281 113.279 147.798 114.228C149.953 117.934 152.712 121.641 155.47 125.261L152.108 128.882C148.143 125.865 144.609 122.675 141.419 118.624C139.868 116.555 138.316 114.4 137.282 111.297C137.023 110.521 136.851 109.573 136.765 108.625C136.765 108.107 136.765 107.59 136.851 106.987C136.851 106.728 136.937 106.383 137.023 106.125C137.023 105.952 137.109 105.866 137.109 105.694L137.196 105.349C137.627 104.142 137.971 102.935 138.402 101.815C140.126 97.16 142.109 92.85 144.264 88.54C146.419 84.23 148.66 80.0924 151.16 75.9548L159.78 80.8682Z" fill="#FFC3BD"/>
<path d="M154.35 124.141L158.919 125.606L155.04 132.071C155.04 132.071 151.678 130.519 150.988 127.416L154.35 124.141Z" fill="#FFC3BD"/>
<path d="M165.211 128.106L160.728 133.105L155.039 132.071L158.918 125.606L165.211 128.106Z" fill="#FFC3BD"/>
<path d="M186.588 50.612C186.416 51.1292 186.588 51.6464 186.933 51.7326C187.278 51.8188 187.623 51.474 187.795 50.9568C187.967 50.4396 187.795 49.9224 187.45 49.8362C187.105 49.75 186.674 50.0948 186.588 50.612Z" fill="#263238"/>
<path d="M186.589 51.5602C186.589 51.5602 187.02 54.8358 187.882 56.5598C186.761 57.1632 185.296 56.3874 185.296 56.3874L186.589 51.5602Z" fill="#ED847E"/>
<path d="M185.468 47.2503C185.382 47.2503 185.382 47.1641 185.296 47.0779C185.209 46.9055 185.296 46.7331 185.468 46.6469C187.106 46.0435 188.226 46.8193 188.313 46.9055C188.485 46.9917 188.485 47.1641 188.399 47.3365C188.313 47.5089 188.14 47.5089 187.968 47.4227C187.968 47.4227 187.02 46.7331 185.727 47.2503C185.554 47.3365 185.468 47.3365 185.468 47.2503Z" fill="#263238"/>
<path d="M169.003 52.5946C169.952 57.4218 170.9 66.128 167.538 69.3174C167.538 69.3174 168.831 74.1446 177.71 74.1446C187.45 74.1446 182.364 69.3174 182.364 69.3174C177.02 68.0244 177.192 64.0592 178.054 60.3526L169.003 52.5946Z" fill="#FFC3BD"/>
<path d="M165.9 71.8173C165.469 69.2313 164.952 66.3005 166.59 65.5247C168.486 64.6627 178.141 64.5765 181.33 66.8177C184.519 68.9727 183.054 73.9723 183.054 73.9723L165.9 71.8173Z" fill="#263238"/>
<path opacity="0.6" d="M165.9 71.8173C165.469 69.2313 164.952 66.3005 166.59 65.5247C168.486 64.6627 178.141 64.5765 181.33 66.8177C184.519 68.9727 183.054 73.9723 183.054 73.9723L165.9 71.8173Z" fill="#BD964B"/>
<path d="M134.696 291.282C135.385 291.455 135.989 291.455 136.334 291.196C136.506 291.11 136.592 290.851 136.506 290.507C136.42 290.334 136.334 290.162 136.075 290.076C135.213 289.645 133.144 290.507 133.058 290.507C132.972 290.507 132.972 290.593 132.972 290.679C132.972 290.765 132.972 290.765 133.058 290.851C133.316 290.851 134.006 291.11 134.696 291.282ZM135.73 290.162C135.816 290.162 135.816 290.162 135.903 290.248C135.989 290.334 136.075 290.42 136.161 290.507C136.247 290.765 136.161 290.851 136.075 290.938C135.73 291.196 134.437 290.938 133.489 290.593C134.178 290.334 135.127 290.076 135.73 290.162Z" fill="#407BFF"/>
<path d="M133.058 290.679C133.144 290.765 133.144 290.765 133.058 290.679C133.834 290.421 135.472 289.3 135.472 288.61C135.472 288.438 135.386 288.266 135.041 288.093C134.782 288.007 134.61 288.007 134.351 288.179C133.489 288.61 132.886 290.421 132.886 290.507C132.972 290.593 132.972 290.679 133.058 290.679ZM134.955 288.438C135.213 288.524 135.213 288.61 135.213 288.697C135.213 289.128 134.179 289.99 133.403 290.334C133.575 289.817 134.006 288.783 134.61 288.524C134.696 288.438 134.782 288.352 134.955 288.438Z" fill="#407BFF"/>
<path d="M182.882 294.472C183.744 294.472 184.519 294.386 184.778 293.955C184.864 293.782 184.95 293.61 184.778 293.265C184.692 293.093 184.519 292.92 184.261 292.92C183.14 292.662 180.899 293.955 180.813 293.955C180.727 293.955 180.727 294.041 180.727 294.127C180.727 294.213 180.813 294.213 180.813 294.213C181.33 294.386 182.106 294.472 182.882 294.472ZM183.916 293.179C184.002 293.179 184.088 293.179 184.175 293.179C184.347 293.179 184.433 293.265 184.519 293.437C184.606 293.61 184.606 293.696 184.519 293.782C184.175 294.213 182.537 294.213 181.33 294.041C182.02 293.696 183.14 293.179 183.916 293.179Z" fill="#407BFF"/>
<path d="M180.899 294.299C180.985 294.299 180.985 294.299 180.899 294.299C181.761 293.955 183.313 292.489 183.226 291.8C183.226 291.627 183.054 291.369 182.623 291.369C182.278 291.369 182.02 291.455 181.761 291.627C180.899 292.317 180.727 294.041 180.727 294.127C180.727 294.213 180.727 294.213 180.813 294.299C180.899 294.299 180.899 294.299 180.899 294.299ZM182.537 291.627H182.623C182.882 291.627 182.882 291.8 182.968 291.8C183.054 292.231 182.02 293.351 181.158 293.868C181.244 293.351 181.502 292.317 182.02 291.886C182.192 291.713 182.364 291.627 182.537 291.627Z" fill="#407BFF"/>
<path d="M173.745 294.127H180.296L180.9 278.956H174.349L173.745 294.127Z" fill="#FFC3BD"/>
<path d="M125.817 288.955L132.196 290.334L138.575 276.284L132.196 274.904L125.817 288.955Z" fill="#FFC3BD"/>
<path d="M132.8 289.731L125.645 288.179C125.387 288.093 125.128 288.265 125.042 288.524L122.542 293.955C122.283 294.558 122.628 295.161 123.232 295.334C125.731 295.851 127.024 295.937 130.128 296.627C132.11 297.058 136.42 298.092 139.179 298.696C141.765 299.299 142.799 296.713 141.765 296.196C137.11 294.041 135.127 292.144 133.834 290.42C133.489 289.989 133.145 289.817 132.8 289.731Z" fill="#263238"/>
<path d="M180.209 293.351H173.055C172.796 293.351 172.538 293.524 172.538 293.782L171.245 299.558C171.072 300.161 171.589 300.764 172.193 300.678C174.779 300.592 178.485 300.506 181.761 300.506C185.554 300.506 188.829 300.678 193.226 300.678C195.898 300.678 196.674 298.006 195.553 297.747C190.467 296.627 186.243 296.541 181.847 293.782C181.33 293.61 180.813 293.351 180.209 293.351Z" fill="#263238"/>
<path d="M193.312 77.2478C195.467 82.075 197.794 86.9884 200.208 91.7294C201.415 94.0568 202.708 96.3842 204.001 98.6254C205.294 100.867 206.759 103.022 208.225 104.918L208.742 105.608C208.914 105.694 208.742 105.694 208.914 105.866C209.087 106.039 209.604 106.383 210.035 106.642C210.983 107.245 212.104 107.849 213.224 108.366C215.552 109.487 217.965 110.521 220.465 111.555C225.465 113.624 230.55 115.521 235.636 117.503L234.429 122.244C228.913 121.382 223.482 120.175 218.051 118.71C215.379 117.934 212.621 117.158 209.862 116.124C208.483 115.607 207.104 115.003 205.639 114.314C204.863 113.883 204.173 113.538 203.311 112.848C202.966 112.59 202.363 112.073 202.018 111.728L201.242 110.866C199.174 108.538 197.45 106.211 195.898 103.797C194.26 101.384 192.881 98.9702 191.502 96.4704C188.743 91.4708 186.33 86.4712 184.175 81.213L193.312 77.2478Z" fill="#FFC3BD"/>
<path d="M153.832 70.869C147.712 72.2482 137.368 102.677 137.368 102.677L147.367 106.039C147.367 106.039 157.625 90.8674 161.073 83.6266C164.694 75.9548 160.039 69.4036 153.832 70.869Z" fill="#407BFF"/>
<path d="M153.832 70.869C147.712 72.2482 137.368 102.677 137.368 102.677L147.367 106.039C147.367 106.039 157.625 90.8674 161.073 83.6266C164.694 75.9548 160.039 69.4036 153.832 70.869Z" fill="#F6AC3B"/>
<path d="M149.092 104.487C149.092 104.487 139.265 102.591 137.024 101.211C136.248 102.332 135.3 106.47 135.903 107.676C136.593 108.883 145.644 110.607 146.937 109.918C148.23 109.228 149.092 104.487 149.092 104.487Z" fill="#263238"/>
<path opacity="0.6" d="M149.092 104.487C149.092 104.487 139.265 102.591 137.024 101.211C136.248 102.332 135.3 106.47 135.903 107.676C136.593 108.883 145.644 110.607 146.937 109.918C148.23 109.228 149.092 104.487 149.092 104.487Z" fill="#BD964B"/>
<path opacity="0.3" d="M157.798 81.644C155.902 83.5404 154.264 88.7986 154.178 95.6084C156.333 92.1604 158.574 88.4538 160.126 85.523C159.35 82.8508 158.574 80.8682 157.798 81.644Z" fill="black"/>
<path d="M190.467 71.2138C190.467 71.2138 197.449 79.058 190.812 127.761C180.296 127.761 160.987 127.761 155.815 127.761C155.556 122.417 158.918 96.2118 153.746 70.869C153.746 70.869 159.78 69.6622 165.469 69.4036C169.952 69.145 176.417 69.0588 180.382 69.4036C185.554 69.8346 190.467 71.2138 190.467 71.2138Z" fill="#407BFF"/>
<path d="M190.467 71.2138C190.467 71.2138 197.449 79.058 190.812 127.761C180.296 127.761 160.987 127.761 155.815 127.761C155.556 122.417 158.918 96.2118 153.746 70.869C153.746 70.869 159.78 69.6622 165.469 69.4036C169.952 69.145 176.417 69.0588 180.382 69.4036C185.554 69.8346 190.467 71.2138 190.467 71.2138Z" fill="#F6AC3B"/>
<path opacity="0.3" d="M185.296 86.7299C185.985 93.7983 190.468 102.849 193.14 106.901C193.485 102.246 193.657 98.1083 193.743 94.5741L185.296 86.7299Z" fill="black"/>
<path d="M181.761 76.2134C177.537 84.1438 199.518 110.09 199.518 110.09L207.19 102.246C207.19 102.246 197.191 84.8334 194.863 77.0754C192.019 67.5934 184.95 70.1794 181.761 76.2134Z" fill="#407BFF"/>
<path d="M181.761 76.2134C177.537 84.1438 199.518 110.09 199.518 110.09L207.19 102.246C207.19 102.246 197.191 84.8334 194.863 77.0754C192.019 67.5934 184.95 70.1794 181.761 76.2134Z" fill="#F6AC3B"/>
<path d="M206.931 100.78C206.931 100.78 200.293 108.194 197.88 109.4C198.483 110.693 201.5 113.624 202.879 113.71C204.259 113.797 210.465 106.901 210.465 105.435C210.551 103.97 206.931 100.78 206.931 100.78Z" fill="#263238"/>
<path opacity="0.6" d="M206.931 100.78C206.931 100.78 200.293 108.194 197.88 109.4C198.483 110.693 201.5 113.624 202.879 113.71C204.259 113.797 210.465 106.901 210.465 105.435C210.551 103.97 206.931 100.78 206.931 100.78Z" fill="#BD964B"/>
<path d="M234.171 117.503L240.55 114.745L242.532 121.641C242.532 121.641 237.705 124.83 233.826 122.072L234.171 117.503Z" fill="#FFC3BD"/>
<path d="M247.532 118.02C247.36 118.193 247.015 118.107 246.929 117.934L239.861 107.504C239.688 107.332 239.774 106.987 239.947 106.901C240.119 106.728 240.464 106.814 240.55 106.987L247.619 117.417C247.791 117.676 247.791 117.934 247.532 118.02Z" fill="#263238"/>
<path d="M247.187 115.262L249.946 119.4L242.446 121.641L240.464 114.745L247.187 115.262Z" fill="#FFC3BD"/>
<path opacity="0.2" d="M180.9 278.956L180.555 286.8H174.09L174.348 278.956H180.9Z" fill="black"/>
<path opacity="0.2" d="M132.196 274.904L138.575 276.284L135.3 283.524L128.921 282.145L132.196 274.904Z" fill="black"/>
<path d="M169.78 45.1815C168.573 51.5603 167.539 55.2669 169.866 59.2321C173.4 65.2661 181.848 64.4041 184.951 58.5425C187.709 53.2843 189.261 43.7161 183.744 39.6647C178.4 35.6133 171.073 38.8027 169.78 45.1815Z" fill="#FFC3BD"/>
<path d="M167.28 41.992C171.934 40.4404 180.641 37.251 183.744 44.6642C186.847 52.0774 174.262 59.8354 171.073 59.8354C168.487 59.8354 162.194 43.716 167.28 41.992Z" fill="#263238"/>
<path d="M176.934 45.0952C185.985 50.0948 194.088 42.9402 190.467 34.8374C186.847 26.7346 178.83 27.9414 181.33 31.9066C183.83 35.8718 176.934 29.924 172.193 31.7342C168.831 33.0272 173.227 35.096 173.572 36.6476C174.003 38.1992 164.866 38.1992 163.659 40.5266C162.452 42.7678 166.848 47.5088 169.09 46.8192C171.245 45.9572 175.296 44.2332 176.934 45.0952Z" fill="#263238"/>
<path d="M179.52 48.9742C179.175 50.612 179.52 52.4222 180.21 53.629C181.158 55.5254 182.882 54.922 183.571 53.198C184.261 51.5602 184.52 48.7156 183.054 47.4226C181.589 46.0434 179.865 46.9916 179.52 48.9742Z" fill="#FFC3BD"/>
<path d="M178.399 127.675C178.399 127.675 170.986 177.671 166.935 196.376C162.452 216.892 138.575 282.662 138.575 282.662L126.852 280.163C126.852 280.163 144.695 218.616 147.281 198.273C150.039 176.205 155.815 127.675 155.815 127.675H178.399Z" fill="#263238"/>
<path d="M141.42 278.783C141.506 278.783 139.265 283.007 139.265 283.007L126.076 280.163L127.197 276.198L141.42 278.783Z" fill="#407BFF"/>
<path opacity="0.3" d="M173.744 145.518C165.124 147.242 166.073 179.222 167.107 195.687C169.607 184.05 173.227 161.638 175.641 145.777C175.124 145.432 174.434 145.346 173.744 145.518Z" fill="black"/>
<path d="M190.812 127.675C190.812 127.675 191.674 176.55 190.985 196.549C190.209 217.323 182.968 285.248 182.968 285.248H171.848C171.848 285.248 171.417 218.53 170.986 198.1C170.469 175.861 167.797 127.675 167.797 127.675H190.812Z" fill="#263238"/>
<path d="M185.123 280.852C185.209 280.852 184.52 285.421 184.52 285.421H171.072L170.728 281.283L185.123 280.852Z" fill="#407BFF"/>
</g>
<defs>
<clipPath id="clip0">
<rect width="407" height="300" fill="white"/>
</clipPath>
</defs>
</svg>
