<svg width="407" height="300" viewBox="0 0 407 300" fill="none" xmlns="http://www.w3.org/2000/svg">
<path d="M346.263 70.6248C344.556 70.2456 342.724 70.7512 341.27 71.7624C339.816 72.7736 338.742 74.164 337.857 75.6808C336.214 78.6512 335.772 82.5064 335.835 85.9192C339.564 85.6032 342.66 82.4432 344.114 80.8C346.389 78.1456 348.98 71.952 346.263 70.6248Z" fill="#74C1C7"/>
<path d="M329.894 88.5104C331.411 87.2464 331.98 85.0976 331.538 83.1384C331.095 81.2424 329.768 79.5992 328.125 78.5248C327.366 78.0824 326.418 77.7032 325.534 78.0192C324.712 78.272 324.207 79.0936 324.08 79.9784C323.954 80.8 324.207 81.6848 324.523 82.4432C325.597 85.1608 327.177 87.5624 329.894 88.5104Z" fill="#74C1C7"/>
<path d="M326.987 99.3808C326.987 99.3808 327.05 99.128 327.177 98.6856C327.367 98.18 327.619 97.6112 327.872 96.8528C328.441 95.336 329.263 93.1872 329.579 90.7224C329.895 88.2576 329.515 85.9824 328.883 84.5288C328.251 83.012 327.556 82.2536 327.619 82.2536C327.619 82.2536 327.809 82.4432 328.125 82.7592C328.441 83.1384 328.757 83.7072 329.136 84.4656C329.831 85.9824 330.274 88.3208 329.895 90.7856C329.579 93.3136 328.694 95.3992 328.125 96.916C327.809 97.6744 327.556 98.2432 327.303 98.6856C327.114 99.1912 326.987 99.3808 326.987 99.3808Z" fill="#5C5C5C"/>
<path d="M343.925 75.1752C343.925 75.1752 343.861 75.3016 343.735 75.428C343.609 75.6176 343.419 75.8704 343.229 76.1232C342.724 76.7552 342.092 77.64 341.333 78.7144C339.69 80.8632 337.478 83.8968 335.077 87.2464C332.675 90.596 330.526 93.6928 329.009 95.9048C328.251 96.9792 327.619 97.864 327.177 98.5592C326.987 98.812 326.797 99.0648 326.671 99.2544C326.545 99.444 326.481 99.5072 326.481 99.5072C326.481 99.5072 326.545 99.3808 326.608 99.2544C326.734 99.0648 326.861 98.812 327.05 98.496C327.429 97.864 328.061 96.916 328.757 95.7784C330.273 93.5032 332.359 90.4064 334.761 87.0568C337.162 83.7072 339.437 80.7368 341.081 78.588C341.902 77.5136 342.597 76.692 343.04 76.06C343.293 75.8072 343.419 75.5544 343.609 75.3648C343.798 75.2384 343.925 75.1752 343.925 75.1752Z" fill="#5C5C5C"/>
<path d="M332.612 92.5552C335.709 89.8376 340.196 88.7632 344.177 89.7744C345.189 90.0272 346.326 90.596 346.516 91.6072C346.642 92.6816 345.694 93.5032 344.809 94.0088C340.954 96.1576 335.835 95.652 332.485 92.808" fill="#74C1C7"/>
<path d="M341.839 91.7968C341.839 91.86 340.891 91.6704 339.311 91.7336C338.553 91.7336 337.605 91.86 336.594 92.0496C335.583 92.3024 334.508 92.6184 333.434 93.0608C332.359 93.5664 331.411 94.1352 330.59 94.7672C329.768 95.3992 329.073 96.0312 328.567 96.6C327.493 97.7376 326.987 98.5592 326.987 98.5592C326.987 98.5592 327.114 98.3064 327.303 97.9904C327.43 97.8008 327.556 97.548 327.746 97.3584C327.935 97.1056 328.125 96.7896 328.378 96.5368C328.883 95.9048 329.579 95.2728 330.4 94.6408C331.222 94.0088 332.233 93.3768 333.307 92.9344C334.382 92.4288 335.519 92.1128 336.531 91.9232C337.542 91.7336 338.49 91.6704 339.311 91.6704C339.691 91.6704 340.07 91.7336 340.386 91.7336C340.702 91.7336 340.955 91.7968 341.207 91.86C341.587 91.7336 341.839 91.7968 341.839 91.7968Z" fill="#5C5C5C"/>
<path d="M77.1584 32.2624C76.084 33.6528 75.768 35.5488 76.0208 37.2552C76.2736 38.9616 77.0952 40.6048 78.1064 41.9952C80.0656 44.776 83.4152 46.7984 86.512 48.1888C87.776 44.6496 86.3224 40.5416 85.3744 38.5192C83.984 35.296 79.4968 30.3664 77.1584 32.2624Z" fill="#74C1C7"/>
<path d="M86.322 54.6984C85.8164 52.8024 84.11 51.3488 82.214 50.9064C80.318 50.464 78.2324 50.9696 76.5892 52.044C75.8308 52.5496 75.0724 53.2448 75.0092 54.1296C74.946 54.9512 75.4516 55.7728 76.1468 56.2784C76.842 56.7208 77.7268 56.9104 78.5484 56.9736C81.4556 57.1 84.2996 56.784 86.322 54.6984Z" fill="#74C1C7"/>
<path d="M94.9173 61.9665C94.9173 61.9665 94.7277 61.7769 94.4117 61.4609C94.0325 61.0817 93.5901 60.6393 93.0845 60.0705C91.9469 58.9329 90.3669 57.2897 88.2813 55.9625C86.1957 54.6353 83.9837 54.0033 82.4037 53.9401C80.7605 53.8137 79.8125 54.1929 79.8125 54.0665C79.8125 54.0665 80.0653 53.9401 80.5077 53.8769C80.9501 53.7505 81.6453 53.6873 82.4669 53.6873C84.1101 53.6873 86.3853 54.3193 88.5341 55.7097C90.6829 57.1001 92.1997 58.7433 93.3373 59.9441C93.9061 60.5761 94.2853 61.0817 94.6013 61.3977C94.7909 61.7769 94.9173 61.9665 94.9173 61.9665Z" fill="#5C5C5C"/>
<path d="M80.2549 36.3073C80.2549 36.3073 80.3181 36.3705 80.4445 36.5601C80.5709 36.7497 80.6973 37.0024 80.8869 37.3184C81.2661 38.0136 81.7717 38.9616 82.4037 40.1624C83.6677 42.564 85.4373 45.8505 87.4597 49.4528C89.4821 53.0552 91.3149 56.2784 92.7053 58.6168C93.3373 59.7544 93.9061 60.7024 94.2853 61.3976C94.4749 61.7136 94.6013 61.9664 94.7277 62.156C94.7909 62.3456 94.8541 62.4088 94.8541 62.4088C94.8541 62.4088 94.7909 62.3456 94.6645 62.156C94.5381 61.9664 94.3485 61.7136 94.1589 61.3976C93.7797 60.7656 93.1477 59.8176 92.4525 58.68C91.0621 56.3416 89.1661 53.1184 87.1437 49.516C85.1213 45.9136 83.4149 42.6272 82.1509 40.1624C81.5189 38.9616 81.0765 37.9504 80.7605 37.3184C80.6341 37.0024 80.5077 36.7497 80.3813 36.4969C80.2549 36.4337 80.2549 36.3073 80.2549 36.3073Z" fill="#5C5C5C"/>
<path d="M91.1886 53.94C90.051 49.9584 90.999 45.4712 93.5902 42.248C94.2854 41.4264 95.2334 40.668 96.2446 40.984C97.2558 41.3 97.635 42.5008 97.6982 43.5752C97.951 47.936 95.2966 52.36 91.315 54.1928" fill="#74C1C7"/>
<path d="M94.4112 45.3448C94.4744 45.408 93.9056 46.1664 93.2736 47.5568C92.9576 48.252 92.6416 49.1368 92.3888 50.148C92.136 51.1592 92.0096 52.2336 91.9464 53.4344C91.9464 54.6352 92.0728 55.7096 92.2624 56.7208C92.452 57.732 92.7048 58.6168 93.0208 59.312C93.5896 60.7656 94.1584 61.5872 94.0952 61.5872C94.0952 61.5872 93.9056 61.3976 93.716 61.0184C93.5896 60.8288 93.4632 60.6392 93.3368 60.3232C93.2104 60.0704 93.0208 59.7544 92.8944 59.3752C92.5784 58.68 92.2624 57.732 92.0728 56.7208C91.8832 55.7096 91.7568 54.572 91.7568 53.3712C91.7568 52.1704 91.9464 51.0328 92.1992 50.0216C92.452 49.0104 92.768 48.1256 93.1472 47.4304C93.2736 47.0512 93.5264 46.7984 93.6528 46.4824C93.7792 46.2296 93.9688 45.9768 94.0952 45.7872C94.2216 45.4712 94.348 45.2816 94.4112 45.3448Z" fill="#5C5C5C"/>
<path d="M147.563 287.97C149.206 288.602 151.102 288.349 152.682 287.59C154.262 286.832 155.589 285.568 156.664 284.178C158.749 281.523 159.76 277.731 160.14 274.382C156.348 274.192 152.872 276.783 151.228 278.237C148.511 280.512 145.098 286.263 147.563 287.97Z" fill="#74C1C7"/>
<path d="M166.396 272.675C164.753 273.75 163.868 275.772 163.994 277.731C164.121 279.69 165.195 281.523 166.712 282.787C167.407 283.356 168.292 283.862 169.177 283.672C169.998 283.482 170.63 282.787 170.883 281.966C171.136 281.144 171.01 280.259 170.82 279.438C170.125 276.657 168.987 274.002 166.396 272.675Z" fill="#74C1C7"/>
<path d="M170.883 262.31C170.883 262.31 170.757 262.563 170.567 262.942C170.315 263.385 169.999 263.954 169.619 264.649C168.861 266.102 167.723 268.062 167.028 270.463C166.333 272.865 166.396 275.14 166.775 276.72C167.155 278.3 167.723 279.122 167.66 279.185C167.66 279.185 167.471 278.995 167.281 278.616C167.028 278.237 166.775 277.605 166.523 276.783C166.08 275.203 165.954 272.802 166.649 270.4C167.344 267.998 168.482 265.976 169.367 264.586C169.809 263.89 170.125 263.322 170.441 262.942C170.694 262.5 170.883 262.31 170.883 262.31Z" fill="#5C5C5C"/>
<path d="M150.597 283.798C150.597 283.798 150.66 283.735 150.786 283.546C150.976 283.356 151.165 283.166 151.418 282.914C151.987 282.345 152.745 281.586 153.693 280.638C155.589 278.742 158.244 276.088 161.088 273.118C163.932 270.147 166.523 267.43 168.356 265.47C169.241 264.522 169.999 263.701 170.568 263.132C170.821 262.879 171.01 262.69 171.2 262.5C171.326 262.374 171.389 262.31 171.453 262.31C171.516 262.31 171.389 262.374 171.263 262.563C171.137 262.753 170.947 262.942 170.694 263.258C170.189 263.827 169.493 264.649 168.609 265.66C166.776 267.682 164.248 270.4 161.404 273.37C158.56 276.341 155.842 278.932 153.883 280.828C152.935 281.776 152.113 282.534 151.545 283.04C151.292 283.293 151.102 283.482 150.913 283.609C150.66 283.735 150.597 283.798 150.597 283.798Z" fill="#5C5C5C"/>
<path d="M164.311 268.251C160.835 270.463 156.285 270.906 152.43 269.326C151.482 268.946 150.407 268.188 150.407 267.114C150.407 266.039 151.482 265.344 152.493 264.965C156.601 263.448 161.594 264.712 164.501 267.998" fill="#74C1C7"/>
<path d="M155.084 267.682C155.084 267.619 156.032 267.935 157.549 268.125C158.307 268.251 159.255 268.251 160.266 268.188C161.278 268.125 162.415 267.935 163.553 267.619C164.69 267.303 165.702 266.861 166.65 266.355C167.534 265.85 168.293 265.344 168.925 264.838C170.126 263.89 170.758 263.132 170.821 263.132C170.821 263.132 170.694 263.322 170.442 263.701C170.315 263.89 170.126 264.08 169.873 264.27C169.62 264.459 169.43 264.775 169.114 264.965C168.546 265.47 167.724 266.039 166.839 266.545C165.891 267.05 164.88 267.493 163.679 267.809C162.542 268.125 161.404 268.314 160.33 268.314C159.255 268.378 158.37 268.314 157.549 268.188C157.17 268.125 156.79 268.062 156.538 267.998C156.222 267.935 155.969 267.872 155.779 267.746C155.337 267.746 155.084 267.682 155.084 267.682Z" fill="#5C5C5C"/>
<path d="M280.903 209.208C282.863 206.32 282.111 202.39 279.223 200.429C276.335 198.469 272.405 199.221 270.445 202.109C268.485 204.997 269.237 208.928 272.125 210.888C275.013 212.848 278.943 212.096 280.903 209.208Z" fill="#64B9FF"/>
<path d="M299.924 193.32C299.924 196.796 297.08 199.64 293.604 199.64C290.128 199.64 287.284 196.796 287.284 193.32C287.284 189.844 290.128 187 293.604 187C297.08 187 299.924 189.844 299.924 193.32Z" fill="#5FA9E6"/>
<path d="M299.988 220.054C299.988 223.846 297.144 226.942 293.668 226.942C290.192 226.942 287.348 223.846 287.348 220.054C287.348 216.262 290.192 213.165 293.668 213.165C297.144 213.165 299.988 216.262 299.988 220.054Z" fill="#5FA9E6"/>
<path d="M291.771 219.295C291.519 219.674 287.284 217.336 282.418 213.986C277.488 210.637 273.759 207.603 274.012 207.224C274.265 206.845 278.499 209.183 283.366 212.533C288.295 215.819 292.087 218.853 291.771 219.295Z" fill="#64B9FF"/>
<path d="M292.038 192.538C292.354 192.917 289.068 195.95 284.77 199.237C280.472 202.586 276.744 204.925 276.491 204.546C276.175 204.166 279.461 201.133 283.759 197.846C288.056 194.56 291.785 192.158 292.038 192.538Z" fill="#64B9FF"/>
<path d="M256.962 131.992C257.025 131.992 257.152 133.698 257.152 135.784C257.152 137.87 257.088 139.576 256.962 139.576C256.836 139.576 256.772 137.87 256.772 135.784C256.836 133.698 256.899 131.992 256.962 131.992Z" fill="#E0E0E0"/>
<path d="M256.962 116.824C257.025 116.824 257.152 118.53 257.152 120.616C257.152 122.702 257.088 124.408 256.962 124.408C256.836 124.408 256.772 122.702 256.772 120.616C256.836 118.53 256.899 116.824 256.962 116.824Z" fill="#E0E0E0"/>
<path d="M256.962 101.656C257.025 101.656 257.152 103.362 257.152 105.448C257.152 107.534 257.088 109.24 256.962 109.24C256.836 109.24 256.772 107.534 256.772 105.448C256.836 103.362 256.899 101.656 256.962 101.656Z" fill="#E0E0E0"/>
<path d="M256.962 86.488C257.025 86.488 257.152 88.1944 257.152 90.28C257.152 92.3656 257.088 94.0721 256.962 94.0721C256.836 94.0721 256.772 92.3656 256.772 90.28C256.836 88.1944 256.899 86.488 256.962 86.488Z" fill="#E0E0E0"/>
<path d="M256.962 71.3201C257.025 71.3201 257.152 73.0265 257.152 75.1121C257.152 77.1977 257.088 78.9041 256.962 78.9041C256.836 78.9041 256.772 77.1977 256.772 75.1121C256.836 73.0265 256.899 71.3201 256.962 71.3201Z" fill="#E0E0E0"/>
<path d="M252.664 60.5128C252.664 60.4496 254.37 60.3232 256.456 60.3232C256.646 60.3232 256.835 60.3232 256.962 60.3232H257.151V60.5128C257.151 62.3456 257.088 63.7992 256.962 63.7992C256.898 63.7992 256.835 62.4088 256.772 60.5128L256.962 60.7024C256.772 60.7024 256.646 60.7024 256.456 60.7024C254.37 60.6392 252.664 60.576 252.664 60.5128Z" fill="#E0E0E0"/>
<path d="M237.496 60.5128C237.496 60.4496 239.202 60.3232 241.288 60.3232C243.374 60.3232 245.08 60.3864 245.08 60.5128C245.08 60.576 243.374 60.7024 241.288 60.7024C239.202 60.6392 237.496 60.576 237.496 60.5128Z" fill="#E0E0E0"/>
<path d="M230.86 51.9177C230.924 51.9177 231.05 53.6241 231.05 55.7097C231.05 57.7953 230.987 59.5017 230.86 59.5017C230.734 59.5017 230.671 57.7953 230.671 55.7097C230.734 53.6241 230.797 51.9177 230.86 51.9177Z" fill="#E0E0E0"/>
<path d="M230.86 39.72C230.924 39.72 231.05 40.7312 231.05 41.9952C231.05 43.2592 230.987 44.2704 230.86 44.2704C230.734 44.2704 230.671 43.2592 230.671 41.9952C230.734 40.7944 230.797 39.72 230.86 39.72Z" fill="#E0E0E0"/>
<path d="M139.41 211.75C139.41 211.687 140.232 211.561 141.306 211.561C142.381 211.561 143.202 211.624 143.202 211.75C143.202 211.877 142.381 211.94 141.306 211.94C140.232 211.94 139.41 211.877 139.41 211.75Z" fill="#E0E0E0"/>
<path d="M122.852 211.75C122.852 211.687 124.684 211.561 126.96 211.561C129.235 211.561 131.068 211.624 131.068 211.75C131.068 211.877 129.235 211.94 126.96 211.94C124.748 211.94 122.852 211.877 122.852 211.75Z" fill="#E0E0E0"/>
<path d="M106.356 211.75C106.356 211.687 108.189 211.561 110.464 211.561C112.74 211.561 114.572 211.624 114.572 211.75C114.572 211.877 112.74 211.94 110.464 211.94C108.189 211.94 106.356 211.877 106.356 211.75Z" fill="#E0E0E0"/>
<path d="M94.2853 207.958C94.3485 207.958 94.4749 209.665 94.4749 211.75C94.5381 211.814 94.1589 211.434 94.2853 211.561H94.3485H94.4749H94.6645C94.7909 211.561 94.9173 211.561 95.0437 211.561C95.2965 211.561 95.5493 211.561 95.7389 211.561C96.1813 211.561 96.5605 211.561 96.9397 211.624C97.6349 211.624 98.0773 211.687 98.0773 211.75C98.0773 211.814 97.6349 211.814 96.9397 211.877C96.5605 211.877 96.1181 211.877 95.7389 211.94C95.4861 211.94 95.2965 211.94 95.0437 211.94C94.9173 211.94 94.7909 211.94 94.6645 211.94H94.4749H94.3485H94.2853C94.4117 212.066 94.0957 211.75 94.0957 211.75C94.0957 209.665 94.1589 207.958 94.2853 207.958Z" fill="#E0E0E0"/>
<path d="M94.2853 193.296C94.3485 193.296 94.4749 194.939 94.4749 196.962C94.4749 198.984 94.4117 200.627 94.2853 200.627C94.2221 200.627 94.0957 198.984 94.0957 196.962C94.0957 194.939 94.1589 193.296 94.2853 193.296Z" fill="#E0E0E0"/>
<path d="M94.2853 178.57C94.3485 178.57 94.4749 180.214 94.4749 182.236C94.4749 184.258 94.4117 185.902 94.2853 185.902C94.2221 185.902 94.0957 184.258 94.0957 182.236C94.0957 180.214 94.1589 178.57 94.2853 178.57Z" fill="#E0E0E0"/>
<path d="M94.2853 167.447C94.3485 167.447 94.4749 168.269 94.4749 169.343C94.4749 170.418 94.4117 171.239 94.2853 171.239C94.2221 171.239 94.0957 170.418 94.0957 169.343C94.0957 168.269 94.1589 167.447 94.2853 167.447Z" fill="#E0E0E0"/>
<path d="M123.041 163.086C123.863 160.622 122.978 157.588 120.955 156.008C119.881 155.186 118.617 154.744 117.29 154.681C115.267 154.618 113.435 153.354 112.613 151.521C111.286 148.487 108.568 146.022 105.345 145.074C100.731 143.81 95.4225 145.833 92.8945 149.878C92.1993 151.015 91.6305 152.279 90.4929 152.974C89.0393 153.796 87.2065 153.227 85.5001 153.164C80.5073 152.848 75.7673 158.157 76.0833 163.15H123.041V163.086Z" fill="#64B9FF"/>
<path d="M251.779 39.72C252.601 37.2552 251.716 34.2216 249.694 32.6416C248.619 31.82 247.355 31.3776 246.028 31.3144C244.006 31.2512 242.173 29.9872 241.351 28.1544C240.024 25.1208 237.306 22.656 234.083 21.708C229.47 20.444 224.161 22.4664 221.633 26.5112C220.938 27.6488 220.369 28.9128 219.231 29.608C217.778 30.4296 215.945 29.8608 214.238 29.7976C209.246 29.4816 204.506 34.7904 204.822 39.7832H251.779V39.72Z" fill="#64B9FF"/>
<path d="M325.172 153.263C341.659 136.776 341.659 110.045 325.172 93.5586C308.686 77.0717 281.955 77.0717 265.468 93.5586C248.981 110.045 248.981 136.776 265.468 153.263C281.955 169.75 308.686 169.75 325.172 153.263Z" fill="#64B9FF"/>
<path d="M243.184 235.071C242.173 260.478 223.465 281.46 198.059 281.966C172.653 282.471 151.67 262.247 151.165 236.841C150.659 211.434 170.946 187.987 196.289 189.946C223.276 192.032 244.069 211.94 243.184 235.071Z" fill="#64B9FF"/>
<path d="M156.907 113.694C173.715 96.8858 173.715 69.6352 156.907 52.8275C140.1 36.0198 112.849 36.0198 96.0414 52.8275C79.2337 69.6352 79.2337 96.8858 96.0414 113.694C112.849 130.501 140.1 130.501 156.907 113.694Z" fill="#64B9FF"/>
<path d="M289.889 133.382C290.584 134.014 274.216 152.785 253.486 175.284C232.693 197.846 215.313 215.606 214.618 214.974C213.923 214.342 230.229 195.571 251.021 173.072C271.814 150.51 289.194 132.75 289.889 133.382Z" fill="#64B9FF"/>
<path d="M281.231 102.73C281.041 103.615 252.285 98.1168 217.02 90.4696C181.754 82.8225 153.314 75.8705 153.504 74.9857C153.693 74.1009 182.449 79.5993 217.715 87.2464C252.981 94.8936 281.421 101.846 281.231 102.73Z" fill="#64B9FF"/>
<path d="M176.445 206.758C176.066 207.01 171.579 200.627 164.817 189.946C158.054 179.329 149.017 164.414 139.473 147.729C129.93 130.981 121.777 115.623 116.089 104.374C110.401 93.124 107.178 86.0456 107.557 85.7928C108 85.6032 111.918 92.3024 118.112 103.236C124.305 114.17 132.837 129.338 142.317 146.022C151.861 162.644 160.519 177.749 166.776 188.682C173.096 199.679 176.825 206.505 176.445 206.758Z" fill="#64B9FF"/>
<path d="M311.187 65.1896C311.377 68.792 311.629 69.8664 313.02 72.7736C313.841 74.48 314.916 76.06 315.358 77.8928C315.801 79.5992 315.548 81.4952 315.864 83.2016C316.369 86.0456 318.265 88.4472 319.719 90.9752C321.173 93.5032 322.121 96.7264 320.667 99.3176L306.068 97.6112L305.057 79.4728L311.187 65.1896Z" fill="#263238"/>
<path d="M282.114 59.0592C280.218 63.104 282.873 67.0856 280.977 71.1304C280.029 73.0896 279.081 75.112 278.575 77.2608C278.133 79.22 278.006 81.2424 277.248 83.0752C275.984 85.9824 273.14 87.9416 271.813 90.7856C269.853 95.02 271.939 100.392 275.668 103.173C279.397 106.017 284.389 106.712 289.003 106.396C291.847 106.206 294.691 105.638 297.156 104.184C299.621 102.73 301.517 100.266 301.833 97.4216" fill="#263238"/>
<path d="M303.792 51.9176C313.209 56.0888 315.042 71.5728 315.105 73.5952C315.168 76.06 316.495 76.5656 318.139 77.8928C319.782 79.22 321.362 80.7368 321.867 82.7592C322.247 84.3392 321.867 86.1088 322.626 87.5624C323.511 89.2688 325.659 89.9008 327.366 90.9752C330.526 92.9976 332.043 96.7896 332.232 100.455C332.422 104.121 331.411 107.723 330.399 111.262C330.02 112.653 329.515 114.17 328.251 114.928C327.303 115.497 326.039 115.497 324.901 115.497C318.96 115.37 313.019 115.244 307.015 115.118C302.465 114.991 297.788 114.865 293.554 113.222C290.141 111.831 287.107 109.43 285.275 106.27C283.442 103.11 282.81 99.3176 283.758 95.8416C284.516 93.1872 286.159 90.7224 286.602 88.0048C287.171 84.592 284.327 83.1384 283.315 79.852C282.304 76.5656 281.419 68.6656 282.873 65.5056" fill="#263238"/>
<path d="M314.536 137.111L311.629 127.694L311.187 142.104C311.187 142.104 314.979 151.9 317.886 159.421C312.071 162.897 305.372 165.109 298.104 165.551C289.13 166.12 280.535 163.908 273.267 159.737L277.817 143.494L275.668 125.103L269.727 133.635L256.961 121.311C256.961 121.311 266.315 104.058 267.452 102.541C274.847 92.492 287.55 92.7448 287.55 92.7448L305.562 93.756C305.562 93.756 315.674 93.1872 322.373 101.214C322.373 101.214 328.883 111.136 334.191 135.658L314.536 137.111Z" fill="#6A8CB1"/>
<path d="M323.574 103.868C323.574 103.868 323.511 103.868 323.321 103.931C323.132 103.931 322.879 103.994 322.563 104.058C321.868 104.184 320.92 104.374 319.719 104.879C318.518 105.385 317.128 106.206 315.8 107.47C315.105 108.102 314.473 108.861 313.904 109.746C313.336 110.63 312.83 111.642 312.577 112.779C312.451 113.348 312.451 113.917 312.64 114.486C312.83 115.054 313.146 115.56 313.652 115.939C314.157 116.318 314.789 116.445 315.421 116.192C315.99 116.002 316.432 115.434 316.622 114.802C316.812 114.17 316.812 113.474 316.496 112.842C316.18 112.21 315.737 111.705 315.105 111.262C313.904 110.378 312.451 109.872 310.934 109.682C309.417 109.493 307.774 109.682 306.194 110.125C304.614 110.567 303.034 111.136 301.58 112.021C300.127 112.906 298.8 114.043 297.788 115.497C297.283 116.192 296.904 117.014 296.904 117.898C296.904 118.341 296.967 118.72 297.22 119.099C297.472 119.478 297.788 119.731 298.168 119.984C298.61 120.11 299.052 120.237 299.432 120.047C299.811 119.858 300.127 119.478 300.38 119.099C300.822 118.214 300.885 117.203 300.885 116.192C300.885 115.181 300.759 114.233 300.443 113.285C300.127 112.4 299.558 111.578 298.863 110.883C297.472 109.556 295.64 108.798 293.807 108.608C291.974 108.418 290.078 108.671 288.372 109.24C286.665 109.746 284.959 110.441 283.821 111.768C283.316 112.4 282.936 113.222 283 114.043C283.063 114.865 283.505 115.623 284.074 116.129C284.39 116.382 284.706 116.571 285.085 116.571C285.464 116.634 285.844 116.508 286.16 116.318C286.792 115.939 287.108 115.118 287.171 114.422C287.234 113.664 287.171 112.906 286.918 112.21C286.792 111.831 286.665 111.515 286.539 111.199C286.476 111.01 286.412 110.883 286.349 110.694L286.096 110.251C285.464 108.987 284.58 107.913 283.632 106.965C281.736 105.132 279.587 103.994 277.628 103.362C275.668 102.73 273.836 102.541 272.382 102.667C270.928 102.794 269.791 103.046 269.096 103.299C268.716 103.426 268.464 103.552 268.274 103.615C268.084 103.678 267.958 103.678 267.958 103.678C267.958 103.678 268.021 103.615 268.211 103.552C268.4 103.489 268.653 103.362 269.032 103.236C269.791 102.983 270.865 102.667 272.382 102.541C273.836 102.414 275.668 102.604 277.691 103.173C279.713 103.805 281.862 104.942 283.821 106.775C284.769 107.723 285.654 108.798 286.349 110.062L286.602 110.567C286.665 110.757 286.728 110.883 286.792 111.073C286.918 111.389 287.108 111.768 287.171 112.147C287.424 112.906 287.487 113.664 287.424 114.422C287.36 115.181 287.044 116.066 286.286 116.571C285.907 116.824 285.464 116.887 285.022 116.887C284.58 116.824 284.2 116.634 283.821 116.382C283.126 115.813 282.684 114.991 282.62 114.106C282.557 113.664 282.62 113.222 282.81 112.779C283 112.337 283.189 111.958 283.505 111.642C284.706 110.251 286.412 109.556 288.182 108.987C289.952 108.482 291.848 108.166 293.744 108.355C295.64 108.545 297.599 109.366 298.989 110.757C299.684 111.452 300.316 112.274 300.696 113.222C301.075 114.17 301.201 115.181 301.201 116.192C301.201 117.203 301.075 118.278 300.632 119.226C300.38 119.668 300.064 120.11 299.558 120.363C299.052 120.553 298.484 120.49 298.041 120.3C297.662 120.047 297.283 119.731 297.03 119.289C296.777 118.846 296.651 118.404 296.651 117.898C296.651 116.95 297.093 116.066 297.599 115.307C298.673 113.79 300.064 112.653 301.517 111.768C302.971 110.82 304.614 110.251 306.194 109.809C307.774 109.366 309.417 109.177 311.06 109.366C312.64 109.556 314.157 110.062 315.358 111.01C315.99 111.452 316.496 112.021 316.812 112.716C317.128 113.411 317.191 114.17 316.938 114.865C316.748 115.56 316.243 116.192 315.548 116.445C314.852 116.698 314.094 116.508 313.588 116.129C313.02 115.75 312.64 115.181 312.451 114.549C312.261 113.917 312.261 113.285 312.388 112.716C312.64 111.515 313.209 110.504 313.715 109.619C314.284 108.734 314.979 107.976 315.611 107.344C317.001 106.08 318.392 105.258 319.592 104.753C320.793 104.247 321.804 104.058 322.5 103.994C323.195 103.868 323.574 103.868 323.574 103.868Z" fill="#FAFAFA"/>
<path d="M331.221 124.471C331.221 124.534 330.589 124.661 329.578 125.23C328.567 125.798 327.239 126.936 326.355 128.832C326.102 129.274 325.975 129.843 325.849 130.349C325.723 130.918 325.659 131.486 325.849 132.055C325.912 132.308 326.102 132.624 326.291 132.75C326.544 132.877 326.797 132.94 327.113 132.814C327.682 132.561 327.998 131.929 328.061 131.297C328.251 129.97 327.429 128.516 326.165 127.884C324.838 127.252 323.131 127.442 321.867 128.263C320.54 129.148 319.782 130.538 319.466 131.992C319.276 132.687 319.276 133.446 319.655 134.014C319.971 134.583 320.73 134.962 321.299 134.646C321.867 134.394 322.247 133.762 322.247 133.13C322.247 132.498 321.994 131.929 321.678 131.423C321.046 130.412 320.098 129.717 319.087 129.338C318.139 128.958 317.127 128.958 316.369 129.148C315.547 129.338 314.915 129.654 314.473 130.033C313.525 130.728 313.272 131.36 313.209 131.297C313.209 131.297 313.209 131.234 313.272 131.17C313.335 131.107 313.399 130.981 313.462 130.854C313.651 130.602 313.904 130.222 314.41 129.843C314.852 129.464 315.547 129.085 316.369 128.895C317.191 128.706 318.202 128.642 319.213 129.022C320.224 129.401 321.235 130.096 321.931 131.17C322.247 131.676 322.563 132.371 322.563 133.066C322.563 133.762 322.183 134.52 321.488 134.836C321.109 135.026 320.73 135.026 320.351 134.836C319.971 134.71 319.719 134.394 319.466 134.078C319.023 133.382 319.087 132.561 319.276 131.802C319.592 130.286 320.477 128.832 321.867 127.884C323.258 126.936 325.091 126.746 326.481 127.442C327.935 128.137 328.756 129.717 328.567 131.17C328.503 131.866 328.124 132.624 327.429 132.877C327.05 133.003 326.671 132.94 326.355 132.75C326.039 132.561 325.912 132.245 325.786 131.929C325.596 131.297 325.659 130.665 325.786 130.096C325.912 129.527 326.102 129.022 326.355 128.516C327.303 126.557 328.693 125.482 329.704 124.914C330.526 124.534 331.221 124.471 331.221 124.471Z" fill="#FAFAFA"/>
<path d="M311.25 133.509C311.25 133.509 311.186 133.509 311.123 133.509C310.997 133.509 310.87 133.446 310.681 133.382C310.302 133.319 309.67 133.193 308.911 133.066C307.394 132.877 305.056 132.94 302.528 133.951C301.896 134.204 301.264 134.52 300.632 134.899C300 135.278 299.368 135.784 298.989 136.479C298.546 137.111 298.357 137.996 298.673 138.754C298.799 139.134 299.052 139.513 299.368 139.766C299.684 140.018 300.126 140.082 300.569 140.018C301.39 139.829 302.086 139.07 302.212 138.186C302.338 137.301 302.022 136.353 301.454 135.531C300.379 133.888 298.673 132.624 296.65 132.118C294.628 131.613 292.479 131.992 290.836 133.003C290.014 133.509 289.256 134.141 288.687 134.899C288.434 135.278 288.245 135.721 288.118 136.163C287.992 136.606 287.992 137.048 288.245 137.427C288.434 137.806 288.814 138.059 289.193 138.059C289.572 138.059 290.014 137.933 290.33 137.743C291.026 137.301 291.278 136.416 291.152 135.658C291.089 134.899 290.773 134.141 290.394 133.509C290.014 132.877 289.572 132.308 289.066 131.802C288.055 130.854 286.918 130.286 285.906 129.906C284.895 129.527 283.947 129.464 283.126 129.464C281.609 129.464 280.787 129.906 280.787 129.843C280.787 129.843 280.85 129.843 280.914 129.78C281.04 129.717 281.166 129.717 281.356 129.654C281.735 129.527 282.367 129.401 283.126 129.338C283.884 129.274 284.895 129.401 285.906 129.717C286.981 130.033 288.118 130.665 289.13 131.613C289.635 132.118 290.141 132.687 290.52 133.319C290.899 134.014 291.215 134.71 291.278 135.594C291.342 136.037 291.278 136.479 291.152 136.858C291.026 137.301 290.71 137.68 290.33 137.933C289.951 138.186 289.509 138.375 289.003 138.312C288.498 138.249 288.055 137.996 287.802 137.49C287.55 137.048 287.55 136.479 287.676 136.037C287.802 135.531 287.992 135.089 288.308 134.71C288.877 133.888 289.698 133.256 290.583 132.75C292.353 131.739 294.565 131.297 296.65 131.802C298.736 132.308 300.569 133.635 301.643 135.342C302.212 136.226 302.528 137.238 302.402 138.249C302.275 139.26 301.517 140.145 300.506 140.334C300 140.461 299.494 140.334 299.115 140.018C298.736 139.766 298.483 139.323 298.294 138.881C298.167 138.438 298.104 137.996 298.167 137.554C298.23 137.111 298.42 136.732 298.673 136.353C299.115 135.658 299.81 135.152 300.442 134.71C301.074 134.33 301.77 134.014 302.402 133.762C304.993 132.75 307.394 132.75 308.911 132.94C310.491 133.193 311.25 133.509 311.25 133.509Z" fill="#FAFAFA"/>
<path d="M240.656 80.8632C241.983 80.9264 241.604 88.068 242.552 86.5512C243.5 85.0344 241.983 77.7664 243.373 77.8928C245.143 78.0824 244.637 85.54 244.637 86.172C244.637 86.804 245.585 86.804 245.522 86.2352C245.459 85.4136 245.206 76.7552 246.976 76.8816C247.924 76.9448 247.608 78.7144 247.608 78.7144C247.608 78.7144 247.292 86.8672 248.113 86.8672C248.935 86.9304 249.314 82.1272 249.314 80.5472C249.314 78.9672 250.073 78.272 250.768 78.8408C251.273 79.22 251.337 84.1496 251.273 85.7928C251.21 87.3728 251.021 91.7968 252.853 89.648C254.686 87.4992 256.898 86.5512 257.657 86.7408C258.415 86.8672 258.478 88.0048 257.657 88.384C257.025 88.7 256.077 89.5216 255.445 90.1536C254.876 90.6592 254.497 91.3544 254.054 91.9864C253.612 92.6816 253.422 93.124 253.106 94.2616L255.571 124.029L257.404 121.754L267.832 131.802L262.397 138.059C258.415 142.61 251.21 142.926 247.165 138.438C247.039 138.249 246.849 138.122 246.723 137.933C245.712 136.669 245.143 135.026 245.017 133.382L241.604 94.7672C241.541 90.4696 240.34 87.1832 240.15 84.9712C239.771 80.8632 240.15 80.8632 240.656 80.8632Z" fill="#FFBE9D"/>
<path d="M288.814 96.7896C288.878 92.3024 288.814 87.5624 288.814 87.5624C288.814 87.5624 283.063 86.5512 281.926 78.9672C280.851 71.7624 282.684 56.2152 282.684 56.2152C291.026 52.9288 300.506 54.1928 306.321 60.9552L305.436 97.4216C305.31 101.656 301.581 104.942 297.094 104.816C292.417 104.626 288.751 101.087 288.814 96.7896Z" fill="#FFBE9D"/>
<path d="M284.201 68.16C284.201 68.6656 284.58 69.108 285.149 69.1712C285.655 69.2344 286.16 68.792 286.16 68.2864C286.16 67.7808 285.781 67.3384 285.212 67.2752C284.707 67.2752 284.201 67.6544 284.201 68.16Z" fill="#263238"/>
<path d="M282.621 67.0224C282.747 67.1488 283.506 66.6432 284.517 66.6432C285.528 66.6432 286.287 67.212 286.413 67.0856C286.476 67.0224 286.35 66.7696 286.034 66.58C285.718 66.3272 285.149 66.0744 284.517 66.0744C283.885 66.0744 283.316 66.3272 283 66.5168C282.684 66.7696 282.621 66.9592 282.621 67.0224Z" fill="#263238"/>
<path d="M294.882 68.476C294.882 68.9816 295.261 69.424 295.83 69.4872C296.335 69.5504 296.841 69.108 296.841 68.6024C296.841 68.0968 296.462 67.6544 295.893 67.5912C295.324 67.528 294.882 67.9704 294.882 68.476Z" fill="#263238"/>
<path d="M293.491 67.528C293.618 67.6544 294.376 67.1488 295.387 67.1488C296.398 67.1488 297.157 67.7176 297.283 67.5912C297.346 67.528 297.22 67.2752 296.904 67.0856C296.588 66.8328 296.019 66.58 295.387 66.58C294.755 66.58 294.186 66.8328 293.87 67.0224C293.554 67.2752 293.491 67.4648 293.491 67.528Z" fill="#263238"/>
<path d="M289.636 75.2384C289.636 75.1752 289.004 75.0488 287.929 74.9224C287.677 74.9224 287.424 74.8592 287.361 74.6696C287.297 74.48 287.424 74.164 287.55 73.9112C287.803 73.2792 288.056 72.584 288.372 71.8888C289.509 69.0448 290.331 66.6432 290.205 66.58C290.078 66.5168 289.067 68.8552 287.929 71.6992C287.677 72.3944 287.424 73.0896 287.171 73.7216C287.045 74.0376 286.918 74.3536 287.045 74.7328C287.108 74.9224 287.297 75.0488 287.487 75.112C287.677 75.1752 287.803 75.1752 287.929 75.1752C289.004 75.3016 289.636 75.3016 289.636 75.2384Z" fill="#263238"/>
<path d="M288.814 87.5624C288.814 87.5624 293.87 87.9416 298.99 84.9712C298.99 84.9712 296.462 90.1536 288.941 89.332L288.814 87.5624Z" fill="#EB996E"/>
<path d="M290.078 77.7664C290.458 77.2608 291.09 77.008 291.785 77.0712C292.227 77.1344 292.67 77.324 292.986 77.7032C293.238 78.0824 293.302 78.588 293.049 78.9672C292.733 79.3464 292.164 79.4728 291.658 79.2832C291.153 79.1568 290.71 78.7776 290.331 78.4616C290.205 78.3984 290.078 78.272 290.015 78.1456C289.952 78.0192 289.952 77.8928 290.078 77.7664Z" fill="#EB996E"/>
<path d="M292.733 75.9968C292.544 75.9968 292.544 77.1344 291.596 77.8928C290.648 78.7144 289.447 78.5248 289.384 78.7144C289.384 78.7776 289.637 78.9672 290.142 78.9672C290.648 78.9672 291.343 78.8408 291.975 78.3352C292.544 77.8296 292.86 77.1976 292.86 76.7552C292.923 76.2496 292.797 75.9968 292.733 75.9968Z" fill="#263238"/>
<path d="M303.035 55.5832C300.254 59.5016 292.986 63.5464 287.74 64.4944C288.372 63.6728 291.595 61.7136 292.164 60.892C289.763 62.6616 286.413 65.0632 283.253 65.1896C282.874 65.1896 282.495 65.1896 282.179 65C281.736 64.7472 281.673 64.2416 281.61 63.7992C281.42 61.9664 281.547 58.8064 281.799 56.9736C282.115 55.1408 282.937 53.308 284.517 52.1072C286.539 50.5272 289.447 50.148 292.164 50.0848C294.439 50.0216 296.778 50.148 298.863 50.9696C300.949 51.7912 302.719 53.4344 303.035 55.3936" fill="#263238"/>
<path d="M310.935 73.216C311.314 71.2568 311.63 69.424 311.693 68.16C311.946 64.2416 310.808 49.8952 297.347 51.0328L300.57 55.1408C300.57 55.1408 297.915 63.8624 303.54 69.8664C303.54 69.8664 303.856 73.4056 307.775 77.4504C307.838 77.4504 310.113 77.3872 310.935 73.216Z" fill="#263238"/>
<path d="M303.413 69.2344C304.235 69.108 305.057 69.108 305.815 69.424C306.573 69.74 307.269 70.3088 307.585 71.0672C307.901 71.8256 307.837 72.7104 307.585 73.4688C307.269 74.2272 306.763 74.9224 306.194 75.4912C305.752 75.8704 305.309 76.2496 304.741 76.4392C304.172 76.6288 303.54 76.5656 303.034 76.1864" fill="#FFBE9D"/>
<path d="M303.793 74.1641C303.73 74.1641 304.046 74.6697 304.804 74.4801C305.183 74.4169 305.499 74.1009 305.752 73.7217C305.942 73.3425 306.131 72.9 306.195 72.3944C306.258 71.8888 306.131 71.3832 305.879 70.9408C305.626 70.5616 305.183 70.3088 304.804 70.3088C304.046 70.3088 303.793 70.8144 303.919 70.8144C303.983 70.8776 304.299 70.6248 304.804 70.7512C305.31 70.8144 305.752 71.5096 305.626 72.3313C305.499 73.1529 305.183 73.9113 304.741 74.1009C304.172 74.2905 303.856 74.1009 303.793 74.1641Z" fill="#EB996E"/>
<path d="M312.893 146.528V143.052H288.624L281.483 111.831L245.143 112.147L253.927 146.528H312.893Z" fill="#263238"/>
<path d="M262.333 129.211C262.902 130.854 264.356 131.866 265.62 131.486C266.884 131.107 267.452 129.401 266.947 127.758C266.378 126.114 264.924 125.103 263.66 125.482C262.396 125.862 261.828 127.505 262.333 129.211Z" fill="#FAFAFA"/>
<path d="M279.84 146.275C279.208 145.138 278.703 143.874 278.324 142.61C278.26 142.294 278.134 141.978 278.197 141.662C278.26 141.346 278.45 141.03 278.766 140.966C279.335 140.84 279.714 141.535 279.904 142.104C280.725 144.126 282.558 145.643 284.644 146.086L286.097 146.022V145.959L317.887 143.115L316.37 136.795L333.181 135.531L334.698 141.725C335.52 149.498 329.263 156.134 321.489 155.882H285.023C273.457 156.64 271.245 146.402 271.245 146.402L279.84 146.275Z" fill="#FFBE9D"/>
<path d="M237.559 248.154L223.213 257.002L228.458 269.705C233.325 265.218 237.18 259.656 239.708 253.462L237.559 248.154Z" fill="#F5C9B2"/>
<path d="M241.478 248.406C239.645 243.982 233.262 229.32 227.89 223.822C219.926 215.606 205.833 216.743 205.833 216.743L187.568 217.375C187.568 217.375 180.616 218.134 174.106 221.546L173.664 221.673V221.736C168.545 224.517 161.34 231.153 154.451 237.599L162.667 245.246L171.768 253.336C171.768 253.336 171.705 253.399 171.768 253.526C171.894 254.031 170.314 263.827 168.861 272.296C176.887 278.49 186.999 282.155 197.933 281.902C204.885 281.776 211.458 280.07 217.335 277.226L218.03 269.389C218.662 262.31 219.105 253.526 219.105 253.526L221.696 260.162L240.719 250.239C241.098 249.67 241.288 249.038 241.478 248.406Z" fill="#445465"/>
<path d="M206.402 216.048C206.402 216.048 206.465 216.174 206.465 216.364C206.528 216.554 206.528 216.933 206.591 217.312C206.655 218.134 206.591 219.398 206.149 220.788C205.706 222.178 204.759 223.822 203.242 225.149C201.725 226.476 199.576 227.361 197.301 227.487C195.026 227.614 192.75 226.918 191.17 225.718C189.527 224.517 188.516 223 187.884 221.673C187.315 220.282 187.126 219.082 187.062 218.197C187.062 217.754 187.062 217.438 187.062 217.249C187.062 217.059 187.126 216.933 187.126 216.933C187.189 216.933 187.126 217.375 187.189 218.197C187.252 219.018 187.442 220.219 188.074 221.546C188.706 222.874 189.717 224.327 191.297 225.465C192.877 226.602 195.026 227.234 197.238 227.108C199.45 226.982 201.535 226.16 202.989 224.896C204.442 223.632 205.39 222.052 205.833 220.662C206.338 219.271 206.402 218.07 206.402 217.249C206.465 216.49 206.339 216.048 206.402 216.048Z" fill="#263238"/>
<path d="M223.782 220.03C223.782 220.093 223.276 220.03 222.518 220.346C221.696 220.598 220.622 221.294 219.674 222.494C218.726 223.695 218.094 225.465 217.904 227.487C217.778 228.498 217.714 229.573 217.714 230.647C217.651 231.785 217.651 232.922 217.651 234.06C217.588 238.737 217.904 243.034 218.22 246.068C218.346 247.585 218.536 248.849 218.599 249.67C218.662 250.05 218.662 250.366 218.726 250.682C218.726 250.934 218.726 250.998 218.726 250.998C218.726 250.998 218.662 250.871 218.662 250.682C218.599 250.429 218.536 250.113 218.473 249.734C218.346 248.912 218.157 247.648 217.967 246.131C217.588 243.034 217.272 238.8 217.335 234.06C217.335 232.859 217.398 231.722 217.398 230.647C217.462 229.51 217.525 228.435 217.651 227.424C217.904 225.402 218.536 223.569 219.547 222.368C220.558 221.167 221.696 220.472 222.518 220.219C223.276 219.903 223.782 220.03 223.782 220.03Z" fill="#263238"/>
<path d="M180.3 218.829C180.3 218.829 180.3 218.955 180.237 219.208C180.174 219.461 180.047 219.777 179.984 220.219C179.731 221.104 179.352 222.368 178.91 223.885C178.025 226.982 176.824 231.279 175.686 236.019C174.549 240.822 173.601 245.183 173.032 248.343C172.716 249.923 172.463 251.187 172.337 252.072C172.274 252.514 172.21 252.83 172.147 253.083C172.084 253.336 172.084 253.462 172.084 253.462C172.084 253.462 172.084 253.336 172.084 253.083C172.147 252.83 172.147 252.451 172.21 252.072C172.337 251.187 172.526 249.86 172.842 248.28C173.411 245.12 174.296 240.759 175.434 235.956C176.571 231.153 177.835 226.855 178.783 223.822C179.289 222.305 179.668 221.041 179.984 220.156C180.11 219.777 180.237 219.461 180.3 219.145C180.3 218.955 180.3 218.829 180.3 218.829Z" fill="#263238"/>
<path d="M241.098 245.373C241.098 245.373 240.845 245.562 240.339 245.942C239.834 246.258 239.139 246.763 238.254 247.332C236.484 248.47 233.956 250.05 231.112 251.63C228.268 253.273 225.677 254.6 223.781 255.611C222.833 256.117 222.075 256.496 221.506 256.749C220.937 257.002 220.684 257.128 220.621 257.128C220.621 257.128 220.874 256.938 221.443 256.622C222.012 256.306 222.77 255.927 223.655 255.422C225.551 254.41 228.142 253.02 230.923 251.377C233.767 249.734 236.295 248.217 238.064 247.142C238.949 246.637 239.644 246.194 240.213 245.815C240.782 245.499 241.098 245.373 241.098 245.373Z" fill="#263238"/>
<path d="M172.843 248.154C172.779 248.217 169.177 245.373 164.816 241.834C160.455 238.294 156.979 235.324 156.979 235.261C157.043 235.198 160.645 238.042 165.006 241.581C169.367 245.12 172.906 248.09 172.843 248.154Z" fill="#263238"/>
<path opacity="0.2" d="M217.399 235.324L224.54 258.834L221.886 260.225L219.295 253.589C219.232 253.526 216.577 239.622 217.399 235.324Z" fill="black"/>
<g opacity="0.2">
<path opacity="0.2" d="M181.121 218.829C177.266 220.851 186.936 225.718 191.297 225.591L188.137 217.249C188.073 217.249 182.385 218.134 181.121 218.829Z" fill="black"/>
</g>
<path opacity="0.2" d="M205.707 252.894L182.828 253.02L184.345 244.551L207.35 244.109L205.707 252.894Z" fill="white"/>
<path d="M203.495 188.935C203.305 189.567 203.558 190.326 204.064 190.705C204.569 191.147 205.328 191.21 205.896 190.894C206.971 190.326 207.097 188.746 206.844 187.545C206.592 186.344 206.149 185.017 206.655 183.879C207.034 182.994 207.856 182.426 208.551 181.73C209.688 180.53 210.257 178.76 209.941 177.117C209.625 175.474 208.361 174.02 206.781 173.641C205.138 173.198 203.116 173.767 201.915 172.566C201.03 171.745 200.904 170.291 200.208 169.28C199.134 167.7 196.859 167.51 194.963 167.826C193.067 168.142 191.171 168.774 189.275 168.332C187.695 167.953 186.431 166.942 184.977 166.31C181.817 164.919 177.772 165.804 175.434 168.332C173.096 170.86 172.59 174.968 174.296 178.002C174.865 179.076 175.813 180.087 176.951 180.53" fill="#263238"/>
<path d="M196.859 227.298C191.866 227.298 187.695 223.379 187.442 218.45C187.253 214.278 187.063 210.297 187.063 210.297C187.063 210.297 179.353 209.728 178.658 202.207C177.962 194.686 177.836 177.306 177.836 177.306C186.305 172.882 196.543 173.325 204.633 178.444L205.391 178.886L206.276 217.818C206.339 223.063 202.105 227.298 196.859 227.298Z" fill="#F5C9B2"/>
<path d="M192.435 188.935C191.866 189.125 191.55 189.757 191.74 190.326C191.929 190.894 192.561 191.21 193.13 191.021C193.699 190.831 194.015 190.199 193.825 189.63C193.636 189.062 193.004 188.746 192.435 188.935Z" fill="#263238"/>
<path d="M190.349 189.314C190.476 189.441 191.171 188.809 192.245 188.746C193.319 188.682 194.078 189.188 194.204 188.998C194.267 188.935 194.141 188.682 193.762 188.493C193.446 188.24 192.877 188.05 192.182 188.114C191.55 188.177 190.981 188.43 190.665 188.746C190.412 188.998 190.286 189.251 190.349 189.314Z" fill="#263238"/>
<path d="M180.995 188.935C180.427 189.125 180.111 189.757 180.3 190.326C180.49 190.894 181.122 191.21 181.691 191.021C182.259 190.831 182.575 190.199 182.386 189.63C182.196 189.062 181.564 188.746 180.995 188.935Z" fill="#263238"/>
<path d="M178.72 189.314C178.847 189.441 179.542 188.809 180.616 188.746C181.691 188.682 182.449 189.188 182.575 188.998C182.639 188.935 182.512 188.682 182.133 188.493C181.817 188.24 181.248 188.05 180.553 188.114C179.921 188.177 179.352 188.43 179.036 188.746C178.783 189.062 178.657 189.251 178.72 189.314Z" fill="#263238"/>
<path d="M186.621 197.467C186.621 197.404 185.989 197.278 184.915 197.278C184.662 197.278 184.409 197.214 184.409 197.088C184.346 196.898 184.409 196.646 184.535 196.266C184.725 195.571 184.978 194.813 185.167 194.118C186.052 191.021 186.684 188.493 186.495 188.43C186.305 188.366 185.483 190.831 184.599 193.928C184.409 194.686 184.156 195.382 183.967 196.14C183.903 196.456 183.714 196.835 183.903 197.278C183.967 197.467 184.219 197.657 184.409 197.657C184.599 197.72 184.725 197.657 184.851 197.657C185.989 197.594 186.621 197.53 186.621 197.467Z" fill="#263238"/>
<path d="M190.096 198.352C188.011 199.363 187 199.679 185.104 200.248C185.104 200.248 186.494 202.081 188.58 201.133C190.792 200.058 190.096 198.352 190.096 198.352Z" fill="white"/>
<path d="M187.063 210.234C187.063 210.234 191.867 210.234 196.733 206.631C196.733 206.631 194.837 212.256 187.19 212.193L187.063 210.234Z" fill="#A36957"/>
<path d="M205.58 186.597C205.58 185.965 206.022 185.459 206.654 185.459C208.045 185.396 210.383 185.902 210.699 189.757C211.142 195.318 205.706 193.991 205.706 193.865C205.643 193.738 205.58 188.746 205.58 186.597Z" fill="#B78876"/>
<path d="M206.844 191.653C206.844 191.653 206.97 191.716 207.097 191.779C207.286 191.842 207.539 191.842 207.855 191.716C208.424 191.463 208.866 190.515 208.803 189.504C208.803 188.998 208.613 188.556 208.424 188.114C208.234 187.734 207.918 187.482 207.665 187.418C207.349 187.355 207.16 187.545 207.097 187.734C207.033 187.924 207.097 187.987 207.033 187.987C207.033 187.987 206.907 187.924 206.907 187.671C206.907 187.545 206.97 187.418 207.097 187.292C207.223 187.166 207.413 187.102 207.602 187.102C208.045 187.102 208.424 187.482 208.677 187.861C208.929 188.303 209.119 188.809 209.119 189.378C209.182 190.515 208.677 191.59 207.855 191.906C207.476 192.032 207.16 191.969 206.97 191.842C206.907 191.779 206.844 191.653 206.844 191.653Z" fill="#A36957"/>
<path d="M194.078 186.218C193.825 186.534 193.004 186.407 191.929 186.344C190.855 186.281 190.033 186.281 189.844 185.965C189.591 185.649 190.665 184.827 192.056 184.954C193.446 185.017 194.331 185.902 194.078 186.218Z" fill="#263238"/>
<path d="M182.007 186.028C181.944 186.407 181.248 186.597 180.427 186.66C179.668 186.723 178.91 186.66 178.784 186.281C178.657 185.902 179.289 185.333 180.3 185.27C181.312 185.206 182.07 185.649 182.007 186.028Z" fill="#263238"/>
<path d="M187.631 189.093C187.707 189.114 187.742 188.684 188.148 188.093C188.478 187.481 189.201 186.625 190.295 186.22C191.41 185.734 192.971 185.719 194.19 186.663C195.431 187.526 196.209 189.49 195.721 191.287C195.212 193.166 193.646 194.407 192.063 194.504C190.534 194.703 189.195 193.901 188.478 192.918C187.762 191.934 187.624 190.932 187.572 190.217C187.52 189.501 187.631 189.093 187.631 189.093C187.631 189.093 187.609 189.175 187.564 189.338C187.52 189.501 187.431 189.828 187.419 190.175C187.395 190.87 187.488 192.035 188.183 193.101C188.877 194.166 190.347 195.091 192.028 194.933C192.858 194.895 193.7 194.509 194.434 193.919C195.168 193.329 195.739 192.432 196.004 191.452C196.27 190.472 196.231 189.409 195.896 188.529C195.561 187.649 195.029 186.891 194.332 186.439C192.961 185.453 191.225 185.508 190.088 186.077C188.874 186.624 188.227 187.501 187.951 188.215C187.786 188.521 187.697 188.848 187.653 189.011C187.577 188.99 187.631 189.093 187.631 189.093Z" fill="#455A64"/>
<path d="M177.275 188.301C177.352 188.322 177.386 187.893 177.792 187.301C178.122 186.689 178.846 185.833 179.939 185.428C181.054 184.942 182.615 184.927 183.834 185.871C185.075 186.734 185.853 188.698 185.366 190.495C184.856 192.374 183.291 193.615 181.707 193.712C180.179 193.911 178.839 193.109 178.123 192.126C177.406 191.142 177.268 190.14 177.216 189.425C177.165 188.709 177.275 188.301 177.275 188.301C177.275 188.301 177.253 188.383 177.209 188.546C177.165 188.709 177.076 189.036 177.064 189.383C177.039 190.078 177.133 191.244 177.827 192.309C178.522 193.374 179.991 194.299 181.673 194.141C182.503 194.103 183.345 193.718 184.078 193.127C184.812 192.537 185.383 191.64 185.649 190.66C185.915 189.68 185.875 188.617 185.54 187.737C185.206 186.857 184.674 186.099 183.977 185.647C182.605 184.661 180.87 184.716 179.732 185.285C178.519 185.832 177.871 186.709 177.595 187.423C177.43 187.729 177.342 188.056 177.298 188.219C177.221 188.199 177.275 188.301 177.275 188.301Z" fill="#455A64"/>
<path d="M196.004 188.733C195.982 188.815 198.039 189.548 200.74 190.281C203.441 191.014 205.564 191.502 205.586 191.42C205.608 191.338 203.552 190.605 200.851 189.873C198.322 189.099 196.049 188.57 196.004 188.733Z" fill="#455A64"/>
<path d="M176.825 179.708C176.825 179.708 181.375 181.92 187.316 178.95C191.234 176.99 195.721 176.042 196.732 176.864C197.744 177.622 197.933 181.667 201.788 182.805C201.788 182.805 201.536 190.452 204.569 190.199C207.603 189.946 205.707 178.065 205.707 178.065L198.249 174.399L190.097 172.882L182.386 173.957L176.445 175.6L176.825 179.708Z" fill="#263238"/>
<path d="M149.522 192.854C149.775 193.296 158.559 223.758 158.559 223.758L141.116 226.16L133.09 201.322L149.522 192.854Z" fill="#455A64"/>
<path d="M158.559 223.695L160.139 222.874L151.038 192.032L149.332 192.917L158.559 223.695Z" fill="#263238"/>
<path d="M142.191 200.943C142.254 201.322 142.001 201.765 141.622 201.828C141.243 201.891 140.8 201.638 140.737 201.259C140.674 200.88 140.927 200.438 141.306 200.374C141.748 200.248 142.128 200.501 142.191 200.943Z" fill="#263238"/>
<path d="M155.273 237.599L143.834 245.057L141.748 218.386L141.938 217.059L149.648 214.152L147.436 208.464C146.362 205.81 143.202 204.609 140.674 205.936C139.852 206.378 138.967 206.821 138.209 207.2C136.439 208.085 135.112 209.728 134.607 211.624C133.722 214.91 132.963 218.513 133.027 218.197L128.097 252.514C128.097 252.514 125.759 262.437 132.521 267.114C137.64 270.653 146.235 266.924 150.786 264.333L170.567 252.388L155.273 237.599Z" fill="#F5C9B2"/>
<path d="M166.964 97.7376L159.191 85.9192L146.108 94.1352L157.99 112.4C157.99 112.4 164.5 105.322 166.964 97.7376Z" fill="#DE8D62"/>
<path d="M118.364 38.7088C118.996 38.0136 118.111 36.876 117.226 36.56C116.341 36.244 115.204 36.0544 114.761 35.2328C114.256 34.2216 115.141 33.0208 115.33 31.8832C115.52 30.6824 114.825 29.4816 114.572 28.2808C114.319 26.7008 114.888 25.0576 116.089 24.0464C117.289 23.0352 119.059 22.7192 120.513 23.2248C120.639 20.8232 122.282 18.6112 124.557 17.8528C126.833 17.0944 129.487 17.8528 131.004 19.7488C132.205 18.864 133.405 17.916 134.733 17.4104C136.123 16.8416 137.703 16.7152 139.03 17.284C140.357 17.8528 141.369 19.3696 141.116 20.8232C142.127 19.6224 144.023 19.3696 145.477 20.0648C146.93 20.76 147.878 22.2136 148.321 23.7304C148.889 25.8792 148.384 28.4072 146.677 29.7976C144.971 31.188 142.064 31.0616 140.8 29.2288" fill="#263238"/>
<path d="M126.769 74.9856C131.446 74.9856 135.364 71.32 135.554 66.7064C135.743 62.8512 135.933 59.1224 135.933 59.1224C135.933 59.1224 143.138 58.6168 143.77 51.5384C144.402 44.5232 144.528 28.2176 144.528 28.2176C136.565 24.0464 127.022 24.4888 119.501 29.292L118.806 29.7344L117.984 66.1376C117.921 71.004 121.839 74.9856 126.769 74.9856Z" fill="#FFBE9D"/>
<path d="M130.877 39.088C131.446 39.2776 131.698 39.8464 131.509 40.4152C131.319 40.984 130.75 41.2368 130.182 41.0472C129.613 40.8576 129.36 40.2888 129.55 39.72C129.739 39.2144 130.308 38.8984 130.877 39.088Z" fill="#263238"/>
<path d="M132.836 39.4672C132.71 39.5936 132.078 39.0248 131.066 38.9616C130.118 38.8984 129.36 39.3408 129.234 39.2144C129.17 39.1512 129.297 38.9616 129.613 38.7088C129.929 38.5192 130.498 38.3296 131.066 38.3296C131.698 38.3928 132.204 38.6456 132.457 38.8984C132.836 39.1512 132.899 39.404 132.836 39.4672Z" fill="#263238"/>
<path d="M141.621 39.088C142.19 39.2776 142.442 39.8464 142.253 40.4152C142.063 40.984 141.494 41.2368 140.926 41.0472C140.357 40.8576 140.104 40.2888 140.294 39.72C140.483 39.2144 141.052 38.8984 141.621 39.088Z" fill="#263238"/>
<path d="M143.706 39.4672C143.58 39.5936 142.948 39.0248 141.936 38.9616C140.988 38.8984 140.23 39.3408 140.104 39.2144C140.04 39.1512 140.167 38.9616 140.483 38.7088C140.799 38.5192 141.368 38.3296 141.936 38.3296C142.568 38.3928 143.074 38.6456 143.327 38.8984C143.706 39.2144 143.769 39.404 143.706 39.4672Z" fill="#263238"/>
<path d="M136.312 47.0512C136.312 46.988 136.944 46.9248 137.892 46.8616C138.145 46.8616 138.335 46.7984 138.398 46.672C138.461 46.5456 138.398 46.2296 138.272 45.9136C138.082 45.2816 137.893 44.5864 137.64 43.8912C136.818 40.984 136.249 38.6456 136.376 38.5824C136.502 38.5192 137.324 40.8576 138.145 43.7648C138.335 44.46 138.524 45.1552 138.714 45.7872C138.777 46.1032 138.904 46.4192 138.777 46.8616C138.714 47.0512 138.461 47.1776 138.272 47.2408C138.082 47.304 137.956 47.2408 137.829 47.2408C136.945 47.2408 136.312 47.1144 136.312 47.0512Z" fill="#263238"/>
<path d="M133.089 47.8728C135.048 48.8208 135.933 49.1368 137.766 49.6424C137.766 49.6424 136.502 51.3488 134.479 50.464C132.394 49.516 133.089 47.8728 133.089 47.8728Z" fill="white"/>
<path d="M135.933 58.996C135.933 58.996 131.446 58.996 126.896 55.6464C126.896 55.6464 128.665 60.892 135.807 60.8288L135.933 58.996Z" fill="#DE8D62"/>
<path d="M118.616 40.0992C118.616 39.5304 118.174 39.0248 117.605 39.0248C116.278 38.9616 114.129 39.4672 113.813 43.0696C113.434 48.252 118.49 47.0512 118.49 46.9248C118.553 46.7984 118.553 42.1216 118.616 40.0992Z" fill="#FFBE9D"/>
<path d="M117.416 44.8392C117.416 44.8392 117.289 44.9024 117.163 44.9656C117.036 45.0288 116.72 45.0288 116.468 44.9024C115.962 44.6496 115.52 43.7648 115.583 42.8168C115.583 42.3744 115.709 41.932 115.962 41.5528C116.152 41.1736 116.404 40.9208 116.72 40.9208C116.973 40.8576 117.163 41.0472 117.226 41.2368C117.289 41.3632 117.226 41.4896 117.289 41.4896C117.289 41.4896 117.416 41.4264 117.352 41.1736C117.352 41.0472 117.289 40.9208 117.163 40.8576C117.036 40.7312 116.847 40.668 116.657 40.668C116.278 40.668 115.836 40.984 115.646 41.4264C115.393 41.8056 115.267 42.3112 115.204 42.8168C115.14 43.8912 115.646 44.9024 116.341 45.1552C116.72 45.2816 117.036 45.2184 117.163 45.092C117.352 44.9656 117.416 44.8392 117.416 44.8392Z" fill="#DE8D62"/>
<path d="M129.361 36.56C129.55 36.876 130.372 36.6864 131.383 36.6864C132.394 36.6232 133.153 36.6232 133.342 36.3072C133.532 35.9912 132.584 35.2328 131.32 35.3592C129.993 35.4224 129.108 36.244 129.361 36.56Z" fill="#263238"/>
<path d="M140.674 36.3704C140.737 36.7496 141.369 36.876 142.128 36.9392C142.886 37.0024 143.518 36.9392 143.644 36.6232C143.771 36.3072 143.139 35.7384 142.191 35.6752C141.306 35.612 140.611 36.0544 140.674 36.3704Z" fill="#263238"/>
<path d="M145.54 30.4928C145.54 30.4928 141.242 32.5784 135.744 29.7976C132.078 27.9648 127.844 27.08 126.896 27.8384C125.948 28.5968 125.758 32.3256 122.156 33.4C122.156 33.4 122.409 40.5416 119.565 40.2888C116.721 40.036 118.49 28.9128 118.49 28.9128L125.505 25.5L133.153 24.0464L140.357 25.0576L145.919 26.5744L145.54 30.4928Z" fill="#263238"/>
<path d="M97.6973 71.952C105.155 64.2416 118.3 65.1264 118.3 65.1264L135.364 65.7584C135.364 65.7584 141.874 66.4535 147.941 69.6767L148.384 69.8032V69.8664C153.187 72.4576 159.949 78.7144 166.396 84.7184L158.685 91.86L150.153 99.444C150.153 99.444 150.216 99.5072 150.153 99.5704C150.09 100.013 151.544 109.177 152.871 117.14C145.35 122.954 135.933 126.367 125.695 126.178C119.185 126.051 113.055 124.471 107.556 121.754L106.924 114.422C106.356 107.786 105.913 99.5704 105.913 99.5704" fill="#6F7B88"/>
<path d="M142.19 67.0223C142.19 67.0223 142.253 67.1487 142.317 67.3383C142.38 67.5911 142.506 67.9071 142.633 68.2863C142.885 69.1079 143.265 70.2455 143.707 71.6991C144.592 74.6063 145.729 78.5879 146.804 83.0752C147.878 87.5624 148.7 91.6703 149.205 94.6407C149.458 96.1575 149.648 97.3584 149.774 98.18C149.837 98.5592 149.901 98.8752 149.901 99.128C149.901 99.3176 149.964 99.444 149.901 99.444C149.837 99.444 149.837 99.3176 149.837 99.128C149.774 98.8752 149.711 98.5592 149.648 98.18C149.458 97.2952 149.269 96.0944 148.953 94.704C148.384 91.7336 147.499 87.6888 146.425 83.2015C145.35 78.7143 144.213 74.7327 143.391 71.8255C142.949 70.4351 142.633 69.2343 142.38 68.4127C142.253 68.0335 142.19 67.7175 142.127 67.4647C142.253 67.1487 142.19 67.0223 142.19 67.0223Z" fill="#263238"/>
<path d="M149.205 94.5143C149.142 94.4511 152.428 91.6703 156.473 88.3839C160.581 85.0343 163.931 82.3799 163.994 82.5063C164.057 82.5695 160.771 85.3503 156.726 88.6367C152.618 91.9231 149.268 94.5775 149.205 94.5143Z" fill="#263238"/>
<path opacity="0.2" d="M107.557 82.5063L100.857 104.5L103.322 105.764L105.787 99.5704C105.787 99.5704 108.315 86.488 107.557 82.5063Z" fill="black"/>
<g opacity="0.2">
<path opacity="0.2" d="M141.495 67.0855C145.097 68.9815 136.059 73.5319 132.015 73.4055L134.985 65.5687C134.922 65.5687 140.294 66.4535 141.495 67.0855Z" fill="black"/>
</g>
<path d="M117.226 65.5687V59.7543C117.226 59.7543 128.602 62.6615 128.981 69.4871C128.981 69.4871 130.434 61.9663 136.312 61.5871L137.134 72.1415L130.308 78.0823H123.419L117.921 73.3423L117.226 66.0111" fill="#6F7B88"/>
<path d="M131.572 102.162C131.572 102.162 131.572 102.035 131.572 101.846C131.572 101.593 131.572 101.277 131.572 100.898C131.572 100.076 131.635 98.9383 131.635 97.4847C131.635 94.5775 131.572 90.6591 131.193 86.2351C130.814 81.8743 130.245 77.9559 129.739 75.1119C129.486 73.7215 129.297 72.5207 129.107 71.7623C129.044 71.3831 128.981 71.0671 128.918 70.8775C128.854 70.6879 128.854 70.5615 128.854 70.5615C128.854 70.5615 128.918 70.6879 128.981 70.8775C129.044 71.1303 129.107 71.4463 129.234 71.7623C129.423 72.5207 129.676 73.6583 129.929 75.1119C130.498 77.9559 131.066 81.8743 131.446 86.2983C131.825 90.6591 131.888 94.6407 131.762 97.5479C131.698 99.0015 131.698 100.139 131.635 100.961C131.635 101.34 131.572 101.656 131.572 101.909C131.635 102.035 131.572 102.162 131.572 102.162Z" fill="#263238"/>
<path d="M128.475 67.5279C128.475 67.5279 128.223 67.4015 127.78 67.5911C127.591 67.6543 127.338 67.8439 127.148 68.0967C126.959 68.3495 126.769 68.6655 126.643 69.0447C125.947 70.5615 125.063 72.7103 124.494 75.3647L124.431 75.5543L124.241 75.4279C123.546 75.0487 122.851 74.5431 122.155 74.1007C120.828 73.1527 119.564 72.2047 118.49 71.3199C117.921 70.8775 117.479 70.3087 117.226 69.6767C116.973 69.0447 116.847 68.4759 116.847 67.9071C116.783 66.8327 116.973 65.9479 117.099 65.3791C117.226 64.8103 117.289 64.4943 117.352 64.4943C117.352 64.4943 117.352 64.8103 117.226 65.4423C117.163 66.0111 117.036 66.8959 117.099 67.9703C117.163 68.4759 117.226 69.0447 117.479 69.6135C117.731 70.1823 118.174 70.6879 118.679 71.1303C119.754 72.0151 121.018 72.9631 122.345 73.9111C123.04 74.3535 123.735 74.7959 124.431 75.2383L124.178 75.3647C124.81 72.7103 125.695 70.5615 126.453 69.0447C126.643 68.6655 126.832 68.3495 127.022 68.0967C127.211 67.8439 127.527 67.6543 127.717 67.5911C128.286 67.3383 128.539 67.5279 128.475 67.5279Z" fill="#263238"/>
<path d="M136.313 61.6503C136.313 61.6503 136.376 61.9663 136.376 62.5351C136.439 63.1671 136.502 63.9887 136.566 64.9999C136.629 66.0743 136.755 67.2751 137.008 68.6655C137.071 69.3607 137.324 70.0559 137.134 70.8775C136.882 71.6991 136.313 72.2679 135.681 72.7735C134.796 73.4687 133.848 73.9743 133.153 74.6695L132.9 74.9223V74.5431C132.71 72.1415 131.952 70.1191 131.194 68.8551C130.435 67.5279 129.866 66.8959 129.93 66.8327C129.93 66.8327 130.119 66.9591 130.372 67.2751C130.625 67.5911 131.004 68.0967 131.383 68.7287C132.142 69.9927 133.026 72.0151 133.216 74.4799L132.963 74.4167C133.658 73.6583 134.606 73.0895 135.491 72.4575C136.123 72.0151 136.692 71.4463 136.882 70.7511C137.071 70.0559 136.818 69.3607 136.755 68.6655C136.566 67.2751 136.439 66.0111 136.376 64.9999C136.313 63.9255 136.313 63.1039 136.313 62.5351C136.313 61.9663 136.313 61.6503 136.313 61.6503Z" fill="#263238"/>
<path d="M172.905 63.1039C172.463 63.6727 155.715 86.0455 155.715 86.0455L158.053 87.3727L175.244 65.2527L172.905 63.1039Z" fill="#263238"/>
<path d="M105.66 80.8C105.66 80.8 123.293 106.143 124.304 106.649C126.39 107.66 150.469 86.804 152.808 84.8448C153.124 84.4024 153.756 83.5176 155.083 81.748C155.083 81.748 156.979 73.0264 159.001 73.7216C161.024 74.4168 157.864 78.1456 159.191 81.432C160.518 84.7184 166.585 76.8816 166.775 76.1232L168.355 74.1008C168.355 74.1008 169.998 78.7144 169.872 80.6736C169.492 86.8672 163.615 94.2616 163.615 94.2616C163.615 94.2616 137.26 126.936 119.185 127.947C114.003 128.263 104.712 113.474 98.5821 102.414C94.8533 95.7152 96.6861 87.3096 102.88 82.8224L105.66 80.8Z" fill="#FFBE9D"/>
<path d="M166.964 81.748C166.901 81.748 167.469 80.7368 168.101 79.4728C168.733 78.2088 169.176 77.1344 169.239 77.1976C169.302 77.1976 168.923 78.3352 168.291 79.5992C167.659 80.8632 167.027 81.8112 166.964 81.748Z" fill="#DE8D62"/>
<path d="M102.691 68.4127C102.691 68.4127 83.7938 75.1119 97.8242 106.902L119.628 93.7559L116.531 86.2983L102.691 68.4127Z" fill="#6F7B88"/>
<path d="M101.237 68.9815C101.237 68.9815 101.3 68.9815 101.363 68.9815C101.49 68.9815 101.616 68.9815 101.806 68.9815C102.185 68.9815 102.754 69.0447 103.512 69.2343C104.207 69.4239 105.092 69.7399 105.977 70.3087C106.862 70.8775 107.81 71.6359 108.695 72.5839C110.527 74.4799 112.234 77.1343 113.814 80.2311C115.394 83.3279 116.911 86.8671 118.427 90.5327C118.87 91.6703 119.312 92.7447 119.755 93.7559L119.818 93.8823L119.691 93.9455C113.371 97.3583 107.873 100.645 104.018 103.046C102.059 104.247 100.542 105.258 99.4674 105.954C98.9618 106.27 98.5194 106.522 98.2666 106.775C98.0138 106.965 97.8242 107.028 97.8242 107.028C97.8242 107.028 97.9506 106.902 98.2034 106.712C98.4562 106.522 98.8986 106.206 99.4042 105.89C100.415 105.195 101.995 104.121 103.891 102.92C107.747 100.455 113.245 97.1687 119.565 93.7559L119.502 93.9455C119.059 92.9343 118.617 91.7967 118.175 90.7223C116.658 86.9935 115.141 83.5175 113.561 80.4207C111.981 77.3239 110.338 74.6695 108.568 72.7735C107.683 71.8255 106.799 71.0671 105.914 70.4983C105.029 69.9295 104.207 69.6135 103.512 69.4239C102.059 68.9183 101.237 68.9815 101.237 68.9815Z" fill="#263238"/>
<path d="M207.286 155.629C207.286 157.841 205.517 159.61 203.305 159.547C201.093 159.547 199.323 157.778 199.386 155.566C199.386 153.354 201.156 151.584 203.368 151.647C205.58 151.71 207.286 153.48 207.286 155.629Z" fill="#E39D29"/>
<path d="M195.405 150.573C199.766 146.022 206.844 145.896 211.268 150.383C213.291 152.406 216.451 149.309 214.428 147.223C208.298 141.03 198.249 141.093 192.245 147.413C190.349 149.498 193.446 152.658 195.405 150.573Z" fill="#E39D29"/>
<path d="M181.885 132.02C187.889 126.838 195.094 123.551 203.121 123.488C211.084 123.488 218.984 126.332 224.798 131.767C226.884 133.726 230.044 130.63 227.958 128.607C221.259 122.35 212.285 118.938 203.121 119.001C193.83 119.001 185.614 122.793 178.725 128.797C176.577 130.756 179.673 133.916 181.885 132.02Z" fill="#E39D29"/>
<path d="M187.315 142.357C191.36 137.996 196.985 135.278 202.989 135.152C209.119 135.026 215.06 137.554 219.357 141.914C221.38 144 224.54 140.84 222.517 138.754C217.461 133.572 210.32 130.475 203.052 130.665C195.91 130.854 189.021 133.951 184.218 139.197C182.196 141.282 185.356 144.442 187.315 142.357Z" fill="#E39D29"/>
<path d="M207.413 152.848C207.413 155.06 205.644 156.83 203.432 156.766C201.22 156.766 199.45 154.997 199.513 152.785C199.513 150.573 201.283 148.803 203.495 148.866C205.644 148.866 207.413 150.636 207.413 152.848Z" fill="#F6AC3B"/>
<path d="M195.531 147.729C199.892 143.178 206.971 143.052 211.395 147.539C213.417 149.562 216.577 146.465 214.555 144.379C208.424 138.186 198.375 138.249 192.371 144.569C190.412 146.654 193.509 149.814 195.531 147.729Z" fill="#F6AC3B"/>
<path d="M182.069 129.274C188.073 124.092 195.278 120.806 203.304 120.742C211.267 120.742 219.167 123.586 224.982 129.022C227.067 130.981 230.227 127.884 228.142 125.862C221.442 119.605 212.468 116.192 203.304 116.255C194.014 116.255 185.798 120.047 178.909 126.051C176.76 128.01 179.92 131.17 182.069 129.274Z" fill="#F6AC3B"/>
<path d="M187.378 139.513C191.423 135.152 197.048 132.434 203.052 132.308C209.182 132.182 215.123 134.71 219.421 139.07C221.443 141.156 224.603 137.996 222.581 135.91C217.525 130.728 210.383 127.631 203.115 127.821C195.974 128.01 189.085 131.107 184.282 136.353C182.259 138.438 185.419 141.598 187.378 139.513Z" fill="#F6AC3B"/>
</svg>
