<svg width="407" height="300" viewBox="0 0 407 300" fill="none" xmlns="http://www.w3.org/2000/svg">
<path d="M337.579 55H106.539V209.552H337.579V55Z" fill="#7CC4FF"/>
<path d="M337.579 55H106.539V70.4552H337.579V55Z" fill="#5CA8E6"/>
<path d="M116.581 62.6961C116.581 63.6424 115.76 64.3994 114.686 64.3994C113.675 64.3994 112.791 63.6424 112.791 62.6961C112.791 61.7499 113.612 60.9929 114.686 60.9929C115.696 60.9929 116.581 61.7499 116.581 62.6961Z" fill="#FAFAFA"/>
<path d="M122.581 62.6961C122.581 63.6424 121.76 64.3994 120.686 64.3994C119.675 64.3994 118.791 63.6424 118.791 62.6961C118.791 61.7499 119.612 60.9929 120.686 60.9929C121.76 60.9929 122.581 61.7499 122.581 62.6961Z" fill="#FAFAFA"/>
<path d="M128.583 62.6961C128.583 63.6424 127.761 64.3994 126.688 64.3994C125.677 64.3994 124.793 63.6424 124.793 62.6961C124.793 61.7499 125.614 60.9929 126.688 60.9929C127.761 60.9929 128.583 61.7499 128.583 62.6961Z" fill="#FAFAFA"/>
<path d="M328.267 233.283C317.902 226.02 315.514 212.632 315.948 200.546C316.003 198.54 315.786 196.427 316.762 194.638C317.739 192.849 319.964 191.657 321.755 192.524C323.274 193.229 323.926 194.963 324.74 196.427C325.879 198.324 327.507 199.95 329.461 200.925C330.763 201.576 332.337 202.009 333.585 201.305C335.322 200.329 335.539 197.944 335.539 195.939C335.539 192.199 335.484 188.459 335.484 184.719C335.484 182.714 335.484 180.654 336.081 178.757C336.733 176.86 338.089 175.072 339.988 174.53C341.888 173.988 344.276 175.072 344.655 177.077C344.818 177.89 344.655 178.757 344.71 179.57C344.764 180.383 345.144 181.305 345.958 181.576C346.772 181.793 347.586 181.251 348.183 180.654C350.245 178.649 351.656 176.047 352.958 173.446C354.261 170.844 355.563 168.188 357.408 165.966C359.307 163.744 361.912 162.01 364.788 161.847C367.665 161.684 370.703 163.473 371.463 166.291C372.169 169.11 370.541 171.982 368.75 174.259C366.091 177.673 362.943 180.654 359.416 183.148C358.765 183.581 358.114 184.069 357.842 184.828C357.408 186.183 358.656 187.484 360.013 187.917C361.532 188.405 363.106 188.242 364.68 188.459C366.254 188.622 367.936 189.326 368.533 190.79C369.347 192.849 367.665 194.963 365.928 196.372C362.563 199.191 358.711 201.413 354.586 202.931C353.121 203.473 351.547 203.96 350.353 204.99C349.16 206.02 348.454 207.809 349.16 209.218C349.865 210.627 351.71 211.061 353.284 210.79C354.803 210.519 356.214 209.651 357.679 209.109C360.447 208.08 363.974 208.242 365.765 210.627C366.905 212.199 367.013 214.367 366.416 216.264C365.819 218.107 364.626 219.733 363.377 221.196C358.982 226.399 353.284 230.573 346.88 232.741C340.585 234.963 334.616 235.559 328.267 233.283Z" fill="#74C1C7"/>
<path d="M328.104 242.226C328.538 237.456 329.569 231.765 331.36 225.695C333.15 219.624 335.647 213.066 338.523 206.345C339.228 204.665 339.934 202.985 340.639 201.359C341.345 199.733 342.05 198.107 342.81 196.589C344.384 193.5 346.066 190.627 347.802 187.971C349.539 185.316 351.275 182.877 352.903 180.546C354.531 178.27 356.105 176.156 357.625 174.313C360.609 170.573 363.431 167.863 365.385 166.129C366.362 165.262 367.176 164.557 367.718 164.123C367.99 163.907 368.207 163.744 368.315 163.636C368.478 163.527 368.532 163.473 368.532 163.473C368.532 163.473 368.478 163.527 368.315 163.69C368.152 163.798 367.99 164.015 367.718 164.232C367.176 164.72 366.416 165.37 365.439 166.291C363.485 168.08 360.772 170.844 357.787 174.584C356.268 176.427 354.748 178.541 353.12 180.817C351.492 183.093 349.756 185.587 348.074 188.242C346.391 190.898 344.655 193.717 343.135 196.806C342.376 198.324 341.67 199.95 340.965 201.576C340.259 203.202 339.554 204.882 338.848 206.562C335.972 213.283 333.476 219.787 331.685 225.857C329.894 231.928 328.809 237.564 328.321 242.334" fill="#263238"/>
<path d="M342.973 196.589C342.973 196.589 342.864 196.264 342.756 195.722C342.647 195.18 342.539 194.367 342.376 193.337C342.105 191.332 341.779 188.568 341.453 185.532C341.128 182.497 340.802 179.733 340.477 177.728C340.314 176.752 340.205 175.939 340.097 175.397C339.988 174.855 339.934 174.53 339.988 174.53C339.988 174.53 340.097 174.801 340.259 175.397C340.422 175.939 340.585 176.752 340.748 177.728C341.128 179.733 341.508 182.497 341.833 185.532C342.159 188.568 342.43 191.278 342.647 193.337C342.756 194.259 342.81 195.072 342.919 195.722C342.973 196.264 342.973 196.535 342.973 196.589Z" fill="#263238"/>
<path d="M368.749 191.765C368.749 191.765 368.369 191.82 367.718 191.874C367.067 191.928 366.09 192.036 364.896 192.145C362.508 192.416 359.252 192.849 355.725 193.554C352.143 194.259 348.942 194.963 346.662 195.614C345.523 195.885 344.6 196.156 343.949 196.372C343.298 196.535 342.972 196.643 342.918 196.643C342.918 196.643 343.244 196.481 343.895 196.264C344.546 196.047 345.468 195.722 346.608 195.397C348.887 194.746 352.089 193.933 355.671 193.229C359.252 192.578 362.508 192.145 364.896 191.928C366.09 191.82 367.067 191.765 367.718 191.765C368.423 191.711 368.749 191.711 368.749 191.765Z" fill="#263238"/>
<path d="M331.741 225.207C331.741 225.207 331.686 225.098 331.578 224.882C331.469 224.611 331.307 224.34 331.144 223.96C330.764 223.147 330.221 221.955 329.624 220.491C328.376 217.565 326.802 213.391 325.066 208.838C323.384 204.231 321.81 200.112 320.616 197.131C320.019 195.668 319.585 194.475 319.205 193.608C319.042 193.229 318.934 192.904 318.825 192.633C318.717 192.416 318.717 192.307 318.717 192.307C318.717 192.307 318.771 192.416 318.88 192.633C318.988 192.904 319.151 193.175 319.314 193.554C319.694 194.367 320.236 195.559 320.833 197.023C322.081 199.95 323.655 204.123 325.392 208.676C327.074 213.283 328.648 217.402 329.841 220.383C330.438 221.846 330.872 223.039 331.252 223.906C331.415 224.285 331.524 224.611 331.632 224.882C331.686 225.098 331.741 225.207 331.741 225.207Z" fill="#263238"/>
<path d="M366.037 214.15C366.037 214.15 365.928 214.204 365.711 214.313C365.44 214.421 365.114 214.529 364.734 214.638C363.812 214.909 362.564 215.342 361.044 215.83C357.951 216.86 353.664 218.269 348.943 219.841C344.222 221.413 339.934 222.822 336.841 223.798C335.268 224.285 334.019 224.611 333.151 224.882C332.717 224.99 332.391 225.098 332.12 225.153C331.903 225.207 331.74 225.207 331.74 225.207C331.74 225.207 331.849 225.153 332.066 225.044C332.337 224.936 332.663 224.827 333.043 224.719C333.965 224.448 335.213 224.014 336.733 223.527C339.826 222.497 344.113 221.088 348.834 219.516C353.555 217.944 357.842 216.535 360.936 215.559C362.509 215.071 363.758 214.746 364.626 214.475C365.06 214.367 365.386 214.258 365.657 214.204C365.874 214.204 366.037 214.15 366.037 214.15Z" fill="#263238"/>
<path d="M109.781 128.945C109.781 129.053 108.913 129.162 107.882 129.162C106.796 129.162 105.982 129.053 105.982 128.945C105.982 128.836 106.851 128.728 107.882 128.728C108.967 128.728 109.781 128.782 109.781 128.945Z" fill="#263238"/>
<path d="M111.844 123.687C111.953 123.687 112.061 124.555 112.061 125.639C112.061 126.723 111.953 127.59 111.844 127.59C111.735 127.59 111.627 126.723 111.627 125.639C111.627 124.555 111.735 123.687 111.844 123.687Z" fill="#263238"/>
<path d="M114.014 128.782C114.014 128.674 114.882 128.565 115.913 128.565C116.998 128.565 117.812 128.674 117.812 128.782C117.812 128.891 116.944 128.999 115.913 128.999C114.882 128.999 114.014 128.891 114.014 128.782Z" fill="#263238"/>
<path d="M112.006 134.04C111.898 134.04 111.789 133.172 111.789 132.088C111.789 131.004 111.898 130.137 112.006 130.137C112.115 130.137 112.223 131.004 112.223 132.088C112.223 133.172 112.115 134.04 112.006 134.04Z" fill="#263238"/>
<path d="M115.099 131.763C114.99 131.817 114.61 131.546 114.231 131.059C113.851 130.625 113.634 130.191 113.688 130.083C113.796 130.029 114.176 130.3 114.556 130.788C114.936 131.275 115.207 131.709 115.099 131.763Z" fill="#263238"/>
<path d="M114.937 125.855C115.046 125.964 114.774 126.343 114.394 126.723C114.014 127.102 113.635 127.373 113.526 127.265C113.418 127.156 113.689 126.777 114.069 126.397C114.449 126.018 114.828 125.747 114.937 125.855Z" fill="#263238"/>
<path d="M110.486 127.373C110.432 127.481 110.052 127.265 109.672 126.994C109.292 126.668 109.075 126.343 109.129 126.289C109.184 126.181 109.563 126.397 109.943 126.668C110.323 126.939 110.595 127.265 110.486 127.373Z" fill="#263238"/>
<path d="M110.324 129.975C110.433 130.029 110.216 130.408 109.836 130.842C109.456 131.221 109.131 131.492 109.022 131.384C108.914 131.33 109.131 130.95 109.51 130.517C109.89 130.137 110.27 129.92 110.324 129.975Z" fill="#263238"/>
<path d="M33.0476 186.668C33.0476 186.722 32.5592 186.776 31.9623 186.776C31.3654 186.776 30.877 186.722 30.877 186.668C30.877 186.614 31.3654 186.559 31.9623 186.559C32.5592 186.505 33.0476 186.559 33.0476 186.668Z" fill="#263238"/>
<path d="M34.1867 183.687C34.2409 183.687 34.2952 184.175 34.2952 184.771C34.2952 185.367 34.2409 185.855 34.1867 185.855C34.1324 185.855 34.0781 185.367 34.0781 184.771C34.0781 184.175 34.1324 183.687 34.1867 183.687Z" fill="#263238"/>
<path d="M35.4355 186.559C35.4355 186.505 35.9239 186.451 36.5209 186.451C37.1178 186.451 37.6062 186.505 37.6062 186.559C37.6062 186.614 37.1178 186.668 36.5209 186.668C35.9239 186.668 35.4355 186.614 35.4355 186.559Z" fill="#263238"/>
<path d="M34.296 189.54C34.2418 189.54 34.1875 189.053 34.1875 188.456C34.1875 187.86 34.2418 187.372 34.296 187.372C34.3503 187.372 34.4046 187.86 34.4046 188.456C34.4046 189.053 34.3503 189.54 34.296 189.54Z" fill="#263238"/>
<path d="M36.0333 188.294C35.9791 188.348 35.762 188.185 35.5449 187.914C35.3279 187.643 35.2193 187.427 35.2736 187.372C35.3279 187.318 35.5449 187.481 35.762 187.752C35.9791 187.969 36.0876 188.24 36.0333 188.294Z" fill="#263238"/>
<path d="M35.9241 184.879C35.9784 184.933 35.8156 185.15 35.5985 185.367C35.3815 185.584 35.1644 185.746 35.1101 185.692C35.0559 185.638 35.2187 185.421 35.4357 185.204C35.7071 184.988 35.9241 184.879 35.9241 184.879Z" fill="#263238"/>
<path d="M33.4273 185.746C33.373 185.801 33.156 185.692 32.9389 185.53C32.7218 185.367 32.6133 185.15 32.6133 185.096C32.6675 185.042 32.8846 185.15 33.1017 185.313C33.373 185.53 33.4816 185.692 33.4273 185.746Z" fill="#263238"/>
<path d="M33.3189 187.264C33.3732 187.318 33.2646 187.535 33.0476 187.752C32.8305 187.969 32.6677 188.131 32.6134 188.077C32.5592 188.023 32.6677 187.806 32.8848 187.589C33.1018 187.318 33.3189 187.21 33.3189 187.264Z" fill="#263238"/>
<path d="M114.882 176.966L114.991 177.291C115.208 177.833 115.642 178.213 116.185 178.429L116.51 178.538L116.185 178.646C115.642 178.863 115.208 179.297 114.991 179.839L114.882 180.055L114.774 179.784C114.557 179.297 114.123 178.917 113.58 178.7L113.309 178.592L113.688 178.429C114.177 178.213 114.502 177.833 114.72 177.345L114.882 176.966Z" fill="#263238"/>
<path d="M56.4897 138.321L56.5983 138.647C56.8154 139.189 57.2495 139.568 57.7921 139.785L58.1177 139.893L57.7921 140.002C57.2495 140.218 56.8154 140.652 56.5983 141.194L56.4897 141.411L56.3812 141.14C56.1642 140.652 55.73 140.273 55.1873 140.056L54.916 139.947L55.2959 139.785C55.7843 139.568 56.1099 139.189 56.327 138.701L56.4897 138.321Z" fill="#263238"/>
<path d="M310.357 252.637H74.8327C69.7799 252.637 65.6113 248.537 65.6113 243.427V94.111C65.6113 89.0644 69.7167 84.901 74.8327 84.901H310.357C315.409 84.901 319.578 89.0014 319.578 94.111V243.427C319.515 248.537 315.409 252.637 310.357 252.637Z" fill="#263238"/>
<path d="M318.883 254.908H66.2425C60.0528 254.908 55 249.862 55 243.68V240.21H330.125V243.68C330.125 249.862 325.073 254.908 318.883 254.908Z" fill="#263238"/>
<path d="M312 91.5878H72.4336V233.208H312V91.5878Z" fill="#455A64"/>
<path d="M167.551 240.21L170.961 245.635H218.963L222.184 240.21H167.551Z" fill="#455A64"/>
<path d="M305.494 232.766H79.4437C78.3068 232.766 77.3594 231.82 77.3594 230.685V98.4006C77.3594 97.2651 78.3068 96.3188 79.4437 96.3188H305.494C306.63 96.3188 307.578 97.2651 307.578 98.4006V230.685C307.578 231.82 306.63 232.766 305.494 232.766Z" fill="#5CA8E6"/>
<path d="M307.578 106.349H77.3594V232.766H307.578V106.349Z" fill="#7CC4FF"/>
<path d="M96.2434 101.618C96.2434 102.627 95.4223 103.447 94.4117 103.447C93.4012 103.447 92.5801 102.627 92.5801 101.618C92.5801 100.608 93.4012 99.7883 94.4117 99.7883C95.4223 99.7883 96.2434 100.608 96.2434 101.618Z" fill="white"/>
<path d="M85.0637 101.618C85.0637 102.627 84.2426 103.447 83.232 103.447C82.2215 103.447 81.4004 102.627 81.4004 101.618C81.4004 100.608 82.2215 99.7883 83.232 99.7883C84.2426 99.7883 85.0637 100.608 85.0637 101.618Z" fill="white"/>
<path d="M90.4328 101.618C90.4328 102.627 89.6117 103.447 88.6012 103.447C87.5906 103.447 86.7695 102.627 86.7695 101.618C86.7695 100.608 87.5906 99.7883 88.6012 99.7883C89.6117 99.7883 90.4328 100.608 90.4328 101.618Z" fill="white"/>
<path d="M317.367 240.21C317.367 240.273 261.029 240.399 191.489 240.399C121.95 240.399 65.6113 240.336 65.6113 240.21C65.6113 240.147 121.95 240.021 191.489 240.021C260.965 240.084 317.367 240.147 317.367 240.21Z" fill="#455A64"/>
<path d="M145.887 169.999H93.3379V173.532H145.887V169.999Z" fill="#5CA8E6"/>
<path d="M213.721 121.3H161.172V124.832H213.721V121.3Z" fill="#5CA8E6"/>
<path d="M291.849 134.358C291.849 134.421 262.606 134.547 226.542 134.547C190.477 134.547 161.234 134.484 161.234 134.358C161.234 134.295 190.477 134.168 226.542 134.168C262.543 134.231 291.849 134.295 291.849 134.358Z" fill="#E0E0E0"/>
<path d="M291.849 142.054C291.849 142.117 262.606 142.243 226.542 142.243C190.477 142.243 161.234 142.18 161.234 142.054C161.234 141.927 190.477 141.864 226.542 141.864C262.543 141.864 291.849 141.927 291.849 142.054Z" fill="#E0E0E0"/>
<path d="M291.849 149.687C291.849 149.75 262.606 149.876 226.542 149.876C190.477 149.876 161.234 149.813 161.234 149.687C161.234 149.624 190.477 149.497 226.542 149.497C262.543 149.561 291.849 149.624 291.849 149.687Z" fill="#E0E0E0"/>
<path d="M291.849 157.383C291.849 157.446 262.606 157.572 226.542 157.572C190.477 157.572 161.234 157.509 161.234 157.383C161.234 157.257 190.477 157.194 226.542 157.194C262.543 157.194 291.849 157.257 291.849 157.383Z" fill="#E0E0E0"/>
<path d="M291.849 165.016C291.849 165.079 262.606 165.205 226.542 165.205C190.477 165.205 161.234 165.142 161.234 165.016C161.234 164.889 190.477 164.826 226.542 164.826C262.543 164.89 291.849 164.953 291.849 165.016Z" fill="#E0E0E0"/>
<path d="M212.143 172.712C212.143 172.775 200.711 172.901 186.626 172.901C172.541 172.901 161.109 172.838 161.109 172.712C161.109 172.649 172.541 172.522 186.626 172.522C200.774 172.522 212.143 172.586 212.143 172.712Z" fill="#E0E0E0"/>
<path d="M290.839 187.536C290.839 187.599 271.638 187.725 247.89 187.725C224.142 187.725 204.941 187.662 204.941 187.536C204.941 187.41 224.142 187.347 247.89 187.347C271.638 187.41 290.839 187.473 290.839 187.536Z" fill="#E0E0E0"/>
<path d="M290.839 195.674C290.839 195.737 271.638 195.863 247.89 195.863C224.142 195.863 204.941 195.8 204.941 195.674C204.941 195.548 224.142 195.485 247.89 195.485C271.638 195.548 290.839 195.611 290.839 195.674Z" fill="#E0E0E0"/>
<path d="M290.839 203.811C290.839 203.875 271.638 204.001 247.89 204.001C224.142 204.001 204.941 203.938 204.941 203.811C204.941 203.685 224.142 203.622 247.89 203.622C271.638 203.685 290.839 203.748 290.839 203.811Z" fill="#E0E0E0"/>
<path d="M290.839 211.949C290.839 212.012 271.638 212.138 247.89 212.138C224.142 212.138 204.941 212.075 204.941 211.949C204.941 211.823 224.142 211.76 247.89 211.76C271.638 211.823 290.839 211.886 290.839 211.949Z" fill="#E0E0E0"/>
<path d="M145.951 186.779C145.951 186.842 134.519 186.968 120.371 186.968C106.223 186.968 94.791 186.905 94.791 186.779C94.791 186.716 106.223 186.59 120.371 186.59C134.519 186.653 145.951 186.716 145.951 186.779Z" fill="#E0E0E0"/>
<path d="M145.951 193.15C145.951 193.213 134.519 193.34 120.371 193.34C106.223 193.34 94.791 193.277 94.791 193.15C94.791 193.024 106.223 192.961 120.371 192.961C134.519 193.024 145.951 193.087 145.951 193.15Z" fill="#E0E0E0"/>
<path d="M145.951 199.585C145.951 199.648 134.519 199.774 120.371 199.774C106.223 199.774 94.791 199.711 94.791 199.585C94.791 199.459 106.223 199.396 120.371 199.396C134.519 199.396 145.951 199.459 145.951 199.585Z" fill="#E0E0E0"/>
<path d="M145.951 205.956C145.951 206.019 134.519 206.146 120.371 206.146C106.223 206.146 94.791 206.082 94.791 205.956C94.791 205.83 106.223 205.767 120.371 205.767C134.519 205.767 145.951 205.893 145.951 205.956Z" fill="#E0E0E0"/>
<path d="M145.951 212.328C145.951 212.391 134.519 212.517 120.371 212.517C106.223 212.517 94.791 212.454 94.791 212.328C94.791 212.201 106.223 212.138 120.371 212.138C134.519 212.201 145.951 212.264 145.951 212.328Z" fill="#E0E0E0"/>
<path d="M198.374 183.688H161.109V219.708H198.374V183.688Z" fill="#5CA8E6"/>
<path d="M164.014 216.617L174.309 198.071L182.772 209.93L187.888 203.622L195.531 216.617H164.014Z" fill="#5CA8E6"/>
<path d="M186.374 194.475C186.374 195.926 185.174 197.125 183.721 197.125C182.268 197.125 181.068 195.926 181.068 194.475C181.068 193.024 182.268 191.826 183.721 191.826C185.174 191.826 186.374 193.024 186.374 194.475Z" fill="#EBEBEB"/>
<path d="M195.532 216.743C195.532 216.743 195.532 216.68 195.532 216.617C195.532 216.491 195.532 216.365 195.532 216.176C195.532 215.797 195.532 215.229 195.532 214.535C195.532 213.085 195.532 211.066 195.468 208.416C195.468 203.181 195.405 195.674 195.405 186.653L195.532 186.779C186.436 186.779 175.573 186.779 164.015 186.779C163.951 186.842 164.33 186.464 164.204 186.59V186.653V186.716V186.842V187.095V187.599V188.609C164.204 189.302 164.204 189.996 164.204 190.627C164.204 191.952 164.204 193.34 164.204 194.664C164.204 197.314 164.204 199.9 164.204 202.424C164.204 207.47 164.204 212.264 164.204 216.617L164.078 216.491C173.489 216.554 181.321 216.554 186.879 216.554C189.658 216.554 191.805 216.554 193.321 216.617C194.079 216.617 194.647 216.617 195.026 216.617C195.216 216.617 195.342 216.617 195.468 216.617C195.468 216.68 195.532 216.743 195.532 216.743C195.532 216.743 195.468 216.743 195.405 216.743C195.279 216.743 195.153 216.743 194.963 216.743C194.584 216.743 194.016 216.743 193.321 216.743C191.805 216.743 189.658 216.743 186.942 216.806C181.384 216.806 173.489 216.869 164.078 216.869H163.951V216.743C163.951 212.328 163.951 207.596 163.951 202.55C163.951 200.026 163.951 197.44 163.951 194.791C163.951 193.466 163.951 192.141 163.951 190.753C163.951 190.059 163.951 189.429 163.951 188.735V187.725V187.221V186.968V186.842V186.779V186.716C163.762 186.842 164.141 186.464 164.141 186.527C175.699 186.527 186.5 186.527 195.658 186.527H195.784V186.653C195.721 195.674 195.721 203.181 195.721 208.48C195.721 211.066 195.721 213.148 195.658 214.535C195.658 215.229 195.658 215.734 195.658 216.112C195.658 216.302 195.658 216.428 195.658 216.491C195.532 216.68 195.532 216.743 195.532 216.743Z" fill="#EBEBEB"/>
<path d="M144.813 115.307H94.2852V164.132H144.813V115.307Z" fill="#7CC4FF"/>
<path d="M98.2031 159.969L112.225 141.804L118.657 146.162L125.604 140L140.963 159.969H98.2031Z" fill="#5CA8E6"/>
<path d="M128.518 129.942C128.518 131.961 126.876 133.601 124.855 133.601C122.834 133.601 121.191 131.961 121.191 129.942C121.191 127.923 122.834 126.283 124.855 126.283C126.876 126.346 128.518 127.923 128.518 129.942Z" fill="#5CA8E6"/>
<path d="M140.96 160.095C140.96 160.095 140.96 160.032 140.96 159.906C140.96 159.78 140.96 159.591 140.96 159.338C140.96 158.834 140.96 158.077 140.96 157.13C140.96 155.175 140.96 152.399 140.897 148.804C140.897 141.675 140.833 131.519 140.77 119.281L140.96 119.47C128.58 119.47 113.927 119.47 98.2635 119.533C98.2003 119.596 98.7056 119.092 98.5161 119.281V119.344V119.407V119.596V119.975V120.669V122.057C98.5161 123.003 98.5161 123.886 98.5161 124.832C98.5161 126.662 98.5161 128.491 98.5161 130.257C98.5161 133.853 98.5161 137.386 98.5161 140.792C98.5161 147.605 98.5161 154.102 98.5161 160.032L98.3267 159.843C111.085 159.906 121.696 159.906 129.212 159.969C132.938 159.969 135.907 160.032 137.928 160.032C138.939 160.032 139.696 160.032 140.265 160.032C140.518 160.032 140.707 160.032 140.833 160.032C140.833 160.095 140.897 160.095 140.96 160.095C140.96 160.095 140.897 160.095 140.77 160.095C140.644 160.095 140.454 160.095 140.202 160.095C139.696 160.095 138.939 160.095 137.928 160.095C135.907 160.095 133.002 160.095 129.275 160.158C121.759 160.158 111.085 160.221 98.2635 160.285H98.074V160.095C98.074 154.166 98.074 147.668 98.074 140.855C98.074 137.449 98.074 133.916 98.074 130.32C98.074 128.554 98.074 126.725 98.074 124.895C98.074 123.949 98.074 123.066 98.074 122.12V120.732V120.038V119.659V119.47V119.407V119.344C97.8845 119.533 98.3898 119.029 98.3267 119.092C113.99 119.092 128.643 119.092 141.023 119.155H141.212V119.344C141.149 131.582 141.149 141.801 141.086 148.993C141.086 152.525 141.023 155.301 141.023 157.257C141.023 158.203 141.023 158.897 141.023 159.401C141.023 159.654 141.023 159.78 141.023 159.969C140.96 160.032 140.96 160.095 140.96 160.095Z" fill="#5CA8E6"/>
<circle cx="119.5" cy="133.5" r="11.5" fill="#5CA8E6"/>
<path d="M226.828 134.684L221.775 134.621L221.964 120.869C221.964 110.775 213.69 102.512 203.585 102.512C193.416 102.512 185.205 110.775 185.205 120.869L185.016 134.621L179.963 134.558L180.152 120.806C180.152 107.937 190.7 97.402 203.585 97.402C216.533 97.402 227.017 107.937 227.017 120.806L226.828 134.684Z" fill="#263238"/>
<path d="M227.334 196.315H180.406C174.027 196.315 168.848 191.143 168.848 184.771V139.541C168.848 133.17 174.027 127.997 180.406 127.997H227.334C233.713 127.997 238.892 133.17 238.892 139.541V184.771C238.829 191.143 233.713 196.315 227.334 196.315Z" fill="#F6AC3B"/>
<g opacity="0.3">
<path opacity="0.3" d="M210.848 158.529C210.848 154.681 207.753 151.527 203.837 151.527C199.921 151.527 196.826 154.618 196.826 158.529C196.826 161.052 198.153 163.197 200.111 164.459L198.342 172.722H209.774C209.774 172.722 208.511 167.55 207.69 164.332C209.585 163.071 210.848 160.989 210.848 158.529Z" fill="black"/>
</g>
<g opacity="0.2">
<g opacity="0.2">
<path opacity="0.2" d="M173.332 175.624C172.89 175.624 172.7 167.613 172.89 157.835C173.079 147.994 173.647 140.046 174.09 140.046C174.532 140.046 174.721 147.994 174.532 157.835C174.279 167.676 173.774 175.624 173.332 175.624Z" fill="white"/>
</g>
</g>
<g opacity="0.2">
<g opacity="0.2">
<path opacity="0.2" d="M173.395 183.51C172.953 183.51 172.574 182.753 172.574 181.806C172.574 180.86 172.89 180.04 173.395 180.04C173.837 180.04 174.216 180.797 174.216 181.743C174.153 182.689 173.837 183.51 173.395 183.51Z" fill="white"/>
</g>
</g>
<g opacity="0.2">
<g opacity="0.2">
<path opacity="0.2" d="M195.31 173.858C194.931 173.732 195.816 170.136 197.268 165.279L197.458 166.099C196.763 165.405 196.068 164.711 195.373 163.954C194.173 162.566 193.542 160.863 193.479 159.286C193.416 157.709 193.858 156.321 194.426 155.375C194.995 154.366 195.689 153.735 196.195 153.356C196.7 152.978 197.079 152.915 197.142 152.978C197.331 153.167 196.258 154.05 195.5 155.88C195.121 156.763 194.868 157.961 195.058 159.16C195.184 160.421 195.752 161.746 196.637 162.819C197.331 163.576 198.026 164.269 198.658 164.963L198.974 165.342L198.847 165.783C197.142 170.515 195.689 173.984 195.31 173.858Z" fill="white"/>
</g>
</g>
<g opacity="0.2">
<g opacity="0.2">
<path opacity="0.2" d="M224.239 132.728C224.239 132.98 221.46 133.17 216.912 133.233C212.365 133.359 206.175 133.422 199.227 133.359C195.753 133.359 192.469 133.296 189.501 133.233C186.532 133.17 183.816 132.98 181.669 133.233C179.521 133.422 177.879 134.179 176.869 134.873C175.858 135.567 175.479 136.135 175.353 136.071C175.29 136.008 175.479 135.314 176.49 134.368C177.437 133.485 179.205 132.476 181.542 132.097C182.679 131.908 183.942 131.845 185.332 131.782C186.658 131.782 188.111 131.782 189.564 131.719C192.532 131.719 195.817 131.719 199.29 131.719C206.175 131.782 212.428 131.908 216.912 132.097C221.396 132.286 224.239 132.539 224.239 132.728Z" fill="white"/>
</g>
</g>
<path d="M46.1225 272.896L45.7391 274.373C45.7391 274.373 40.4807 282.962 41.0832 283.728C41.6858 284.549 42.8908 285.315 44.7531 284.877C46.6155 284.439 54.3386 277.054 54.3386 277.054L54.7768 275.905L46.1225 272.896Z" fill="#F6AC3B"/>
<g opacity="0.3">
<path opacity="0.3" d="M41.5753 281.759C41.5753 281.759 43.8758 280.774 45.1904 283.673C45.1904 283.673 46.1763 283.29 48.915 280.993C51.6537 278.695 54.2829 276.452 54.2829 276.452C54.2829 276.452 54.5568 276.233 54.502 276.452C54.3925 276.671 54.2829 277.054 54.2829 277.054L48.9698 281.704C48.9698 281.704 45.7929 284.439 45.026 284.658C44.2044 284.877 43.4376 285.15 42.3969 284.713C41.4109 284.275 40.918 283.564 40.918 283.4C40.9727 283.29 41.5753 281.759 41.5753 281.759Z" fill="black"/>
</g>
<path d="M45.5197 284.658C45.4649 284.658 45.4101 284.385 45.2458 283.947C45.0815 283.509 44.6981 282.962 44.1503 282.47C43.6026 281.977 42.9453 281.759 42.5071 281.649C42.0141 281.54 41.7402 281.54 41.7402 281.485C41.7402 281.485 42.0689 281.43 42.5071 281.54C43 281.649 43.6573 281.868 44.2599 282.36C44.8624 282.853 45.191 283.455 45.3553 283.947C45.5197 284.33 45.5197 284.658 45.5197 284.658Z" fill="#263238"/>
<path d="M54.7756 276.124C54.7756 276.124 54.7209 276.178 54.6661 276.233C54.5565 276.343 54.447 276.452 54.2827 276.561C53.8992 276.89 53.4611 277.273 52.9133 277.765C51.7083 278.804 50.1198 280.172 48.3123 281.649C47.4359 282.415 46.5595 283.126 45.6831 283.673C44.8067 284.166 43.8208 284.385 43.0539 284.275C42.2871 284.166 41.7393 283.783 41.4107 283.455C41.1368 283.126 41.082 282.907 41.082 282.907C41.082 282.907 41.1916 283.126 41.4655 283.455C41.7393 283.728 42.2871 284.111 43.0539 284.22C43.8208 284.33 44.6971 284.111 45.5735 283.564C46.4499 283.072 47.2715 282.306 48.2027 281.54C49.9555 280.063 51.5987 278.75 52.8038 277.71C53.3515 277.273 53.8445 276.89 54.2279 276.561C54.3922 276.452 54.5018 276.343 54.6113 276.233C54.7209 276.178 54.7756 276.124 54.7756 276.124Z" fill="#263238"/>
<path d="M46.3944 279.734C46.3396 279.789 45.9562 279.461 45.4085 279.133C44.8607 278.804 44.4225 278.531 44.4773 278.476C44.4773 278.421 44.9703 278.64 45.518 278.969C46.0657 279.351 46.4492 279.734 46.3944 279.734Z" fill="#263238"/>
<path d="M47.5446 278.531C47.5446 278.586 46.9969 278.312 46.3396 278.039C45.6823 277.765 45.1346 277.546 45.1893 277.492C45.1893 277.437 45.7918 277.601 46.4491 277.874C47.0517 278.148 47.5446 278.476 47.5446 278.531Z" fill="#263238"/>
<path d="M48.588 277.437C48.5332 277.491 48.095 277.054 47.3829 276.726C46.6709 276.397 46.0684 276.233 46.0684 276.233C46.0684 276.178 46.7257 276.233 47.4377 276.616C48.1498 276.944 48.6428 277.437 48.588 277.437Z" fill="#263238"/>
<path d="M49.1872 276.178C49.1324 276.233 48.6942 275.905 48.0917 275.631C47.4891 275.358 46.9414 275.248 46.9414 275.194C46.9414 275.139 47.4892 275.194 48.1464 275.467C48.8037 275.741 49.2419 276.178 49.1872 276.178Z" fill="#263238"/>
<path d="M48.9155 274.975C48.9155 274.975 48.6417 274.865 48.2582 274.537C48.0939 274.373 47.8748 274.154 47.6557 273.935C47.5462 273.826 47.4366 273.662 47.3819 273.552C47.3271 273.498 47.2723 273.388 47.2723 273.279C47.2175 273.17 47.2175 273.06 47.3271 272.951C47.4914 272.787 47.7653 272.841 47.9296 272.896C48.0939 272.951 48.2582 273.06 48.3678 273.17C48.5869 273.388 48.6964 273.717 48.7512 273.935C48.806 274.154 48.806 274.373 48.806 274.537C48.806 274.647 48.806 274.756 48.7512 274.756C48.6964 274.756 48.7512 274.428 48.5869 273.99C48.5321 273.771 48.4226 273.498 48.2035 273.279C48.0939 273.17 47.9844 273.06 47.82 273.005C47.7105 272.951 47.4914 272.951 47.4366 273.005C47.3271 273.115 47.4366 273.224 47.5462 273.388C47.6557 273.553 47.7105 273.662 47.82 273.771C47.9844 274.045 48.2035 274.209 48.3678 274.373C48.6964 274.811 48.9703 274.975 48.9155 274.975Z" fill="#263238"/>
<path d="M48.8048 274.866C48.8048 274.866 48.8048 274.811 48.8595 274.647C48.9143 274.537 49.0239 274.318 49.1882 274.154C49.3525 273.99 49.5716 273.771 49.9003 273.607C50.0646 273.553 50.2289 273.443 50.3932 273.443C50.5028 273.443 50.6123 273.388 50.7219 273.443C50.8314 273.443 50.941 273.553 50.9957 273.717C51.0505 273.99 50.8862 274.154 50.7767 274.264C50.6671 274.428 50.5028 274.537 50.3932 274.592C50.1194 274.756 49.8455 274.866 49.5716 274.92C49.2977 274.975 49.1334 274.975 48.9691 274.92C48.8048 274.92 48.75 274.866 48.75 274.866C48.75 274.811 49.0786 274.92 49.5168 274.811C49.7359 274.756 50.0098 274.647 50.2837 274.483C50.3932 274.373 50.5576 274.264 50.6671 274.154C50.7767 274.045 50.8862 273.881 50.8314 273.717C50.8314 273.607 50.6123 273.553 50.5028 273.607C50.3385 273.662 50.1741 273.717 50.0646 273.771C49.7907 273.881 49.5716 274.1 49.4073 274.264C48.9691 274.592 48.8595 274.866 48.8048 274.866Z" fill="#263238"/>
<path d="M53.2413 275.467C53.2413 275.522 52.9675 275.358 52.4745 275.522C52.0363 275.686 51.4886 276.124 51.1599 276.726C50.7765 277.327 50.7765 278.039 50.8313 278.476C50.886 278.969 50.9956 279.242 50.9956 279.242C50.9956 279.242 50.8313 278.969 50.7217 278.476C50.6122 277.984 50.6669 277.273 51.0504 276.616C51.4338 275.96 52.0363 275.522 52.4745 275.358C52.9675 275.249 53.2961 275.413 53.2413 275.467Z" fill="#263238"/>
<path d="M50.1209 278.914C50.1757 278.969 49.7375 279.352 49.2445 279.789C48.6967 280.227 48.2585 280.555 48.2585 280.555C48.2038 280.5 48.642 280.117 49.1349 279.68C49.6279 279.187 50.1209 278.859 50.1209 278.914Z" fill="#263238"/>
<path d="M51.1622 278.367C51.217 278.367 51.2717 278.476 51.3265 278.64C51.3813 278.804 51.3265 278.914 51.3265 278.914C51.2717 278.914 51.217 278.804 51.1622 278.64C51.1074 278.476 51.1074 278.367 51.1622 278.367Z" fill="#263238"/>
<path d="M51.3265 277.273C51.3813 277.273 51.3813 277.437 51.3265 277.546C51.2717 277.71 51.217 277.82 51.1622 277.82C51.1074 277.82 51.1074 277.71 51.1622 277.546C51.217 277.382 51.2717 277.273 51.3265 277.273Z" fill="#263238"/>
<path d="M51.8736 276.343C51.9283 276.397 51.8188 276.507 51.764 276.616C51.6545 276.726 51.5997 276.78 51.5449 276.78C51.4902 276.78 51.5449 276.616 51.6545 276.507C51.7092 276.397 51.8736 276.343 51.8736 276.343Z" fill="#263238"/>
<path d="M52.8055 275.796C52.8055 275.85 52.7507 275.905 52.5864 276.014C52.4768 276.069 52.3125 276.069 52.3125 276.069C52.3125 276.014 52.3673 275.96 52.5316 275.85C52.6959 275.741 52.8055 275.741 52.8055 275.796Z" fill="#263238"/>
<path d="M53.8993 275.631C53.8993 275.686 53.7898 275.741 53.6254 275.741C53.4611 275.741 53.3516 275.686 53.3516 275.631C53.3516 275.577 53.4611 275.522 53.6254 275.522C53.7898 275.577 53.8993 275.631 53.8993 275.631Z" fill="#263238"/>
<path d="M118.861 137.113C118.533 137.496 118.04 141.873 118.04 141.873C118.04 141.873 110.043 155.549 108.892 155.714C107.797 155.932 102.922 146.249 102.922 146.249L97.9375 150.845C97.9375 150.845 100.567 163.044 108.673 165.178C112.507 166.163 119.245 153.963 123.736 143.842C123.791 143.678 126.146 138.153 126.146 138.153L118.861 137.113Z" fill="#FFBE9D"/>
<path d="M126.036 138.645C126.036 138.645 126.036 138.7 126.036 138.809C125.817 139.466 124.612 142.146 124.174 142.146C123.736 142.092 122.914 141.49 123.024 141.107C123.133 140.724 124.667 137.77 124.667 137.77C124.667 137.77 124.941 137.332 125.817 137.551C126.31 137.606 126.036 138.645 126.036 138.645Z" fill="#FFBE9D"/>
<path d="M124.833 136.949C124.833 136.949 124.833 137.004 124.833 137.113C124.614 137.77 123.409 140.45 122.971 140.45C122.533 140.396 121.711 139.794 121.82 139.411C121.93 139.028 123.464 136.074 123.464 136.074C123.464 136.074 123.738 135.636 124.614 135.855C125.162 135.91 124.833 136.949 124.833 136.949Z" fill="#FFBE9D"/>
<path d="M123.464 135.746C123.464 135.746 123.464 135.8 123.464 135.91C123.245 136.566 122.04 139.247 121.602 139.247C121.163 139.192 120.342 138.59 120.451 138.207C120.561 137.824 122.095 134.87 122.095 134.87C122.095 134.87 122.368 134.433 123.245 134.651C123.738 134.706 123.464 135.746 123.464 135.746Z" fill="#FFBE9D"/>
<path d="M122.04 134.597C122.04 134.597 122.04 134.651 122.04 134.761C121.821 135.417 120.616 138.098 120.178 138.098C119.74 138.043 118.918 137.441 119.028 137.058C119.137 136.675 120.671 133.721 120.671 133.721C120.671 133.721 120.945 133.284 121.821 133.502C122.369 133.557 122.04 134.597 122.04 134.597Z" fill="#FFBE9D"/>
<path d="M123.354 140.231C123.409 140.231 123.737 139.684 124.066 138.973C124.395 138.262 124.669 137.66 124.614 137.66C124.559 137.66 124.23 138.207 123.902 138.919C123.518 139.63 123.299 140.231 123.354 140.231Z" fill="#EB996E"/>
<path d="M121.712 139.52C121.767 139.52 122.205 138.754 122.698 137.715C123.191 136.676 123.575 135.855 123.52 135.8C123.465 135.8 123.027 136.566 122.534 137.606C122.041 138.7 121.657 139.52 121.712 139.52Z" fill="#EB996E"/>
<g opacity="0.78">
<g opacity="0.78">
<path opacity="0.78" d="M120.123 138.7C120.178 138.7 120.616 137.934 121.109 136.894C121.602 135.855 121.985 135.034 121.931 134.98C121.876 134.98 121.438 135.746 120.945 136.785C120.452 137.824 120.123 138.645 120.123 138.7Z" fill="#EB996E"/>
</g>
</g>
<path d="M118.917 142.474L118.369 140.067C118.15 139.028 118.315 137.934 118.862 137.004L119.3 136.292L124.559 138.918C124.559 138.918 123.244 140.614 121.93 139.63L122.916 141.708L118.917 142.474Z" fill="#FFBE9D"/>
<path d="M122.368 141.927C122.313 141.927 122.368 141.654 122.313 141.161C122.258 140.724 121.984 140.013 121.382 139.52L120.889 139.137L121.491 139.356C121.93 139.465 122.368 139.63 122.861 139.794H122.806C123.354 139.848 124.066 139.684 124.395 139.137C124.395 139.082 124.449 139.028 124.449 139.028L124.504 139.192C122.97 138.481 121.656 137.879 120.67 137.332C119.739 136.839 119.136 136.457 119.191 136.402C119.191 136.347 119.793 136.675 120.779 137.113C121.765 137.605 123.135 138.207 124.614 138.864L124.723 138.918L124.668 139.028C124.668 139.082 124.614 139.137 124.559 139.192C124.34 139.52 124.066 139.739 123.737 139.848C123.409 139.958 123.08 139.958 122.751 139.958C122.258 139.794 121.82 139.63 121.382 139.465L121.491 139.247C122.149 139.848 122.368 140.56 122.423 141.052C122.477 141.654 122.368 141.927 122.368 141.927Z" fill="#EB996E"/>
<path d="M123.737 139.575C123.791 139.575 123.682 139.848 123.737 140.231C123.791 140.396 123.901 140.614 124.12 140.669C124.339 140.669 124.613 140.505 124.777 140.286C125.106 139.739 125.489 139.247 125.708 138.864C125.928 138.481 126.037 138.262 126.092 138.262C126.147 138.262 126.092 138.535 125.928 138.973C125.763 139.411 125.435 139.903 125.051 140.45C124.887 140.724 124.503 140.997 124.12 140.943C123.737 140.888 123.572 140.505 123.572 140.286C123.572 140.067 123.627 139.848 123.627 139.739C123.682 139.63 123.737 139.575 123.737 139.575Z" fill="#EB996E"/>
<path d="M101.006 174.588C101.006 174.588 96.5147 163.591 96.5695 163.427L97.7198 159.324L98.2127 156.972L99.7464 158.722L107.141 151.009C107.251 151.173 103.8 146.14 100.294 141.216C97.8293 137.77 95.2001 137.004 93.6117 136.894C92.4614 136.566 91.6398 136.511 91.6398 136.511L78.9321 136.402C78.9321 136.402 74.9884 136.183 71.3733 139.192C70.7708 139.684 65.8958 146.14 62.6094 152.541L72.7974 159.926L74.4954 156.972V157.027C74.6597 158.011 75.2623 160.965 75.4266 161.95C76.0291 165.014 76.2482 168.734 74.7145 171.305C74.7145 171.305 73.0165 175.353 71.8115 180.004H103.142C103.088 179.949 102.047 177.213 101.006 174.588Z" fill="#455A64"/>
<path d="M75.8115 169.992L74.716 169.117C74.716 169.062 74.716 169.007 74.716 169.007L74.6612 169.062L67.5953 163.373L70.6627 158.34L63.3229 152.978C63.3777 153.307 56.5309 163.482 57.4621 165.451C58.7766 168.242 67.6501 173.876 71.32 176.119C70.9366 176.174 69.1838 176.448 68.3622 176.721C67.431 177.049 70.4436 177.815 71.2104 177.979C71.4843 178.034 72.0868 177.596 72.6893 176.995C72.7989 177.049 72.8537 177.104 72.8537 177.104L73.0728 176.666C73.9492 175.791 74.7708 174.752 74.9351 174.478C75.0994 174.259 75.0994 173.165 75.0446 172.071L75.8115 169.992Z" fill="#A56959"/>
<path d="M115.027 275.85L114.972 274.811L104.455 275.139L104.565 278.531H105.222C108.125 278.586 119.901 278.695 121.819 278.093C124.01 277.491 115.027 275.85 115.027 275.85Z" fill="#F6AC3B"/>
<g opacity="0.3">
<g opacity="0.3">
<g opacity="0.3">
<path opacity="0.3" d="M108.399 278.367C108.234 277.546 107.741 276.835 106.975 276.343C106.263 275.85 105.386 275.631 104.51 275.686L104.619 278.422L108.399 278.367Z" fill="black"/>
</g>
</g>
</g>
<g opacity="0.3">
<path opacity="0.3" d="M119.41 276.78C119.41 276.78 122.532 277.546 122.149 278.039C121.766 278.531 109.825 278.859 104.566 278.531V278.312L118.479 278.039C118.534 278.039 118.808 276.835 119.41 276.78Z" fill="black"/>
</g>
<path d="M104.455 278.312C104.455 278.312 104.51 278.312 104.619 278.312C104.784 278.312 104.948 278.312 105.112 278.312C105.605 278.312 106.263 278.312 107.029 278.312C108.618 278.312 110.864 278.312 113.329 278.257C115.793 278.203 117.984 278.093 119.628 277.984C120.394 277.929 120.997 277.875 121.545 277.875C121.709 277.875 121.928 277.82 122.038 277.82C122.147 277.82 122.202 277.82 122.202 277.82C122.202 277.82 122.147 277.82 122.038 277.82C121.873 277.82 121.709 277.82 121.545 277.82C121.052 277.82 120.394 277.875 119.628 277.929C118.039 277.984 115.793 278.093 113.383 278.148C110.918 278.203 108.727 278.257 107.084 278.257C106.317 278.257 105.715 278.257 105.167 278.257C104.948 278.257 104.784 278.257 104.674 278.257C104.51 278.312 104.455 278.312 104.455 278.312Z" fill="#263238"/>
<path d="M118.532 278.203C118.587 278.203 118.587 277.765 118.86 277.327C119.134 276.89 119.518 276.671 119.463 276.616C119.463 276.562 119.025 276.78 118.751 277.273C118.477 277.765 118.532 278.203 118.532 278.203Z" fill="#263238"/>
<path d="M115.409 276.835C115.464 276.835 115.573 276.671 115.737 276.452C115.902 276.233 115.957 276.014 115.957 276.014C115.902 276.014 115.792 276.179 115.628 276.397C115.464 276.616 115.354 276.835 115.409 276.835Z" fill="#263238"/>
<path d="M114.531 276.452C114.531 276.452 114.696 276.343 114.915 276.233C115.079 276.069 115.189 275.96 115.189 275.905C115.189 275.905 115.024 276.015 114.805 276.124C114.641 276.288 114.531 276.398 114.531 276.452Z" fill="#263238"/>
<path d="M113.986 275.522C113.986 275.577 114.205 275.577 114.534 275.577C114.863 275.577 115.082 275.522 115.082 275.522C115.082 275.467 114.863 275.467 114.534 275.467C114.26 275.467 113.986 275.522 113.986 275.522Z" fill="#263238"/>
<path d="M113.766 274.92C113.766 274.975 114.039 275.03 114.368 275.084C114.697 275.084 115.025 275.03 114.971 274.975C114.971 274.92 114.697 274.975 114.368 274.975C114.094 274.92 113.82 274.866 113.766 274.92Z" fill="#263238"/>
<path d="M115.74 275.96C115.74 275.96 116.014 276.014 116.398 275.96C116.617 275.905 116.836 275.905 117.11 275.796C117.219 275.741 117.383 275.686 117.493 275.631C117.548 275.577 117.657 275.522 117.657 275.413C117.657 275.303 117.603 275.194 117.548 275.139C116.89 274.865 116.288 275.194 116.014 275.522C115.905 275.686 115.85 275.85 115.795 275.96C115.795 276.069 115.795 276.124 115.795 276.124C115.795 276.124 115.85 275.85 116.069 275.577C116.178 275.413 116.398 275.303 116.617 275.194C116.836 275.139 117.164 275.084 117.438 275.248C117.548 275.303 117.493 275.413 117.383 275.522C117.274 275.577 117.11 275.631 117 275.686C116.726 275.796 116.507 275.85 116.288 275.85C116.014 275.96 115.74 275.96 115.74 275.96Z" fill="#263238"/>
<path d="M115.904 276.014C115.904 276.014 116.013 275.85 115.959 275.577C115.959 275.413 115.904 275.303 115.74 275.139C115.63 275.03 115.466 274.811 115.192 274.811C115.027 274.811 114.973 274.975 114.973 275.084C114.973 275.194 115.027 275.303 115.082 275.358C115.192 275.522 115.301 275.631 115.411 275.741C115.63 275.905 115.794 276.014 115.794 275.96C115.794 275.96 115.63 275.85 115.466 275.631C115.356 275.522 115.247 275.413 115.192 275.248C115.082 275.139 115.027 274.865 115.192 274.865C115.356 274.865 115.52 274.975 115.63 275.139C115.74 275.248 115.794 275.413 115.849 275.522C115.959 275.85 115.904 276.014 115.904 276.014Z" fill="#263238"/>
<path d="M104.566 275.632C104.566 275.632 104.84 275.577 105.333 275.632C105.826 275.686 106.484 275.85 107.031 276.233C107.634 276.616 107.962 277.163 108.127 277.601C108.291 278.039 108.346 278.312 108.346 278.312C108.346 278.312 108.346 278.257 108.346 278.093C108.346 277.984 108.291 277.765 108.236 277.546C108.072 277.109 107.743 276.562 107.141 276.124C106.538 275.686 105.826 275.577 105.388 275.522C105.169 275.522 104.95 275.522 104.84 275.577C104.676 275.632 104.566 275.632 104.566 275.632Z" fill="#263238"/>
<path d="M109.66 277.382C109.66 277.437 110.317 277.492 111.194 277.492C112.07 277.492 112.728 277.382 112.728 277.327C112.728 277.273 112.015 277.327 111.194 277.382C110.372 277.382 109.66 277.327 109.66 277.382Z" fill="#263238"/>
<path d="M107.633 277.437C107.633 277.437 107.688 277.546 107.742 277.71C107.797 277.874 107.852 277.984 107.907 277.984C107.961 277.984 107.961 277.82 107.852 277.656C107.797 277.492 107.633 277.382 107.633 277.437Z" fill="#263238"/>
<path d="M106.811 276.561C106.811 276.561 106.865 276.671 106.975 276.78C107.084 276.89 107.194 276.944 107.194 276.89C107.194 276.89 107.139 276.78 107.03 276.671C106.975 276.616 106.865 276.507 106.811 276.561Z" fill="#263238"/>
<path d="M105.715 276.179C105.715 276.233 105.879 276.233 106.043 276.233C106.208 276.288 106.317 276.343 106.317 276.343C106.372 276.343 106.263 276.179 106.043 276.124C105.879 276.069 105.715 276.124 105.715 276.179Z" fill="#263238"/>
<path d="M104.893 276.014C104.893 276.069 104.947 276.069 105.057 276.124C105.166 276.178 105.221 276.178 105.221 276.124C105.221 276.069 105.166 276.069 105.057 276.014C105.002 275.96 104.947 275.96 104.893 276.014Z" fill="#263238"/>
<path d="M84.3012 110.635C83.0962 109.595 81.1791 109.431 79.8097 110.307C79.1524 110.744 78.6047 111.401 77.8926 111.729C76.6876 112.276 75.2634 111.838 73.9488 112.057C72.0317 112.385 70.4433 114.3 70.5528 116.215C70.6076 117.254 71.0458 118.403 70.5528 119.333C70.1146 120.154 69.0739 120.427 68.3618 121.029C67.1568 122.014 66.9377 124.038 67.9236 125.242C68.3071 125.679 68.8548 126.062 69.1835 126.555C69.6764 127.375 69.6217 128.36 69.7312 129.345C69.8408 130.275 70.3885 131.369 71.3744 131.424C72.1413 131.478 72.8533 130.822 73.6202 130.876C74.7157 130.986 75.1539 132.244 75.7564 133.119C76.5232 134.214 77.9474 134.87 79.3167 134.651C80.3027 134.542 81.2886 133.995 82.2198 134.268C83.4248 134.597 84.1369 135.964 85.3967 136.183C86.3278 136.292 87.1495 135.691 87.8615 135.089C88.5188 134.487 89.2309 133.776 90.1621 133.612C91.2575 133.393 92.2983 134.049 93.3937 134.214C94.8179 134.432 96.2968 133.667 97.0089 132.408C97.6114 131.314 97.6114 129.946 98.1591 128.852C98.5425 128.086 99.1451 127.485 99.638 126.828C100.131 126.117 100.46 125.242 100.186 124.476C99.9667 123.929 99.5285 123.491 99.2546 122.944C98.926 122.123 99.1451 121.193 99.2546 120.263C99.3642 119.388 99.1451 118.294 98.3234 117.911C97.9948 117.747 97.6114 117.747 97.2827 117.583C96.6254 117.2 96.6802 116.27 96.6254 115.504C96.5159 114.41 96.0229 113.261 95.0917 112.768C94.1606 112.221 92.7365 112.495 92.2435 113.48" fill="#263238"/>
<path d="M78.1658 120.701C77.1798 118.896 77.0155 116.653 77.7824 114.793C78.4944 112.878 80.0829 111.291 82 110.635C83.3694 110.143 84.8483 110.088 86.2724 110.143C87.5322 110.197 88.792 110.361 89.8875 110.908C90.983 111.456 91.9689 112.495 92.1333 113.699" fill="#E8505B"/>
<path d="M85.0136 142.857C87.8619 143.076 90.3267 140.888 90.4363 138.043C90.5458 135.308 90.6553 132.518 90.6553 132.518C90.6553 132.518 94.8182 132.135 95.0921 128.032C95.3659 123.929 95.2564 114.464 95.2564 114.464C90.6006 112.112 85.0684 112.495 80.796 115.395L80.1387 115.832L80.3578 137.879C80.3578 140.505 82.3844 142.639 85.0136 142.857Z" fill="#FFBE9D"/>
<path d="M93.2854 121.686C93.0663 121.467 93.0663 121.084 93.2854 120.865C93.5045 120.646 93.8879 120.646 94.107 120.865C94.3261 121.084 94.3261 121.467 94.107 121.686C93.8879 121.905 93.5045 121.905 93.2854 121.686Z" fill="#263238"/>
<path d="M94.873 120.975C94.8182 121.029 94.4348 120.701 93.8323 120.646C93.2846 120.592 92.8464 120.865 92.7916 120.81C92.7368 120.756 92.8464 120.646 93.0107 120.537C93.175 120.428 93.5037 120.318 93.8323 120.318C94.161 120.318 94.4896 120.482 94.6539 120.646C94.873 120.81 94.9278 120.975 94.873 120.975Z" fill="#263238"/>
<path d="M87.916 120.92C88.1899 121.084 88.2447 121.467 88.0803 121.74C87.916 122.014 87.5326 122.069 87.2587 121.905C86.9848 121.74 86.9301 121.358 87.0944 121.084C87.2587 120.81 87.6421 120.701 87.916 120.92Z" fill="#263238"/>
<path d="M88.6816 121.139C88.6816 121.139 88.353 120.756 87.6409 120.81C87.0932 120.756 86.655 121.029 86.6002 120.975C86.5454 120.92 86.655 120.81 86.8193 120.701C86.9836 120.592 87.3123 120.482 87.6409 120.482C87.9695 120.482 88.2982 120.646 88.4625 120.81C88.6816 120.975 88.7364 121.084 88.6816 121.139Z" fill="#263238"/>
<path d="M90.7122 125.515C90.7122 125.461 91.0408 125.406 91.6433 125.351C91.8077 125.351 91.9172 125.296 91.9172 125.242C91.972 125.132 91.9172 124.968 91.8624 124.804C91.7529 124.421 91.5886 124.038 91.479 123.655C90.986 121.959 90.6026 120.592 90.7122 120.592C90.8217 120.592 91.2599 121.905 91.8077 123.601C91.9172 123.984 92.0268 124.421 92.1363 124.804C92.1911 124.968 92.2459 125.187 92.1911 125.406C92.1363 125.515 92.0268 125.625 91.9172 125.625C91.8077 125.625 91.7529 125.625 91.6433 125.625C91.0408 125.57 90.7122 125.57 90.7122 125.515Z" fill="#263238"/>
<path d="M90.6001 132.463C90.6001 132.463 87.971 132.518 85.3418 130.603C85.3418 130.603 86.4373 133.612 90.5454 133.502L90.6001 132.463Z" fill="#7C4435"/>
<path d="M83.8613 113.042C84.0257 114.738 85.4498 116.215 87.1478 116.434C88.1337 116.543 89.2292 116.27 90.1604 116.707C90.8177 117.036 91.2559 117.692 91.6941 118.239C92.1323 118.786 92.7896 119.333 93.5016 119.333C93.8303 119.333 94.2137 119.169 94.5424 119.115C94.871 119.005 95.2544 119.005 95.5831 119.224C96.0213 118.02 96.4047 116.707 96.1856 115.394C96.0213 114.081 95.1449 112.823 93.9398 112.44C93.1182 112.221 92.2418 112.331 91.4202 112.221C90.7081 112.112 90.1056 111.784 89.4483 111.51C88.4076 111.018 87.2026 110.635 86.0523 110.799C84.9021 110.963 83.7518 111.948 83.8066 113.097" fill="#263238"/>
<path d="M80.4106 124.257C81.8895 125.461 83.6971 122.342 84.5187 120.427C85.3403 118.458 85.5594 116.324 85.6689 114.246C85.7237 113.534 85.7237 112.768 85.2855 112.221C84.8473 111.62 84.683 112.331 84.19 111.838C83.2589 110.799 81.6156 111.346 80.7392 111.729C79.3699 112.331 78.4935 113.863 78.2196 115.449C77.9457 117.036 78.1648 118.622 78.3839 120.209C78.4935 120.92 78.603 121.631 78.7126 122.397C78.7674 122.889 78.8769 123.436 79.1508 123.874C79.4246 124.202 79.9724 124.476 80.4106 124.257Z" fill="#263238"/>
<path d="M80.3568 120.92C80.3568 120.592 80.0829 120.318 79.7543 120.318C78.9874 120.318 77.7276 120.592 77.618 122.725C77.4537 125.734 80.3568 124.968 80.3568 124.913C80.3568 124.804 80.3568 122.069 80.3568 120.92Z" fill="#FFBE9D"/>
<path d="M79.6993 123.655C79.6993 123.655 79.6445 123.71 79.5349 123.71C79.4254 123.765 79.3158 123.765 79.1515 123.71C78.8229 123.6 78.6038 123.053 78.6038 122.506C78.6038 122.233 78.6585 121.959 78.7681 121.74C78.8776 121.522 79.042 121.357 79.2063 121.357C79.3706 121.303 79.4802 121.412 79.5349 121.522C79.5897 121.631 79.5349 121.686 79.5897 121.686C79.5897 121.686 79.6445 121.631 79.6445 121.522C79.6445 121.467 79.5897 121.412 79.5349 121.303C79.4802 121.248 79.3706 121.193 79.2611 121.193C79.042 121.193 78.8229 121.412 78.6585 121.631C78.549 121.85 78.4395 122.178 78.4395 122.452C78.4395 123.053 78.7133 123.655 79.1515 123.819C79.3706 123.874 79.5349 123.819 79.6445 123.765C79.6993 123.71 79.6993 123.655 79.6993 123.655Z" fill="#7C4435"/>
<path d="M89.2834 126.226C89.0643 126.609 89.2286 127.102 89.5572 127.32C89.8859 127.539 90.4336 127.43 90.6527 127.102C90.8718 126.773 90.817 126.226 90.4884 126.008C90.1598 125.789 89.612 125.843 89.3929 126.172" fill="#EB996E"/>
<path d="M91.1455 126.828C91.1455 126.883 90.543 127.047 89.8857 126.773C89.1736 126.555 88.7902 126.062 88.845 126.008C88.8998 125.953 89.338 126.281 89.9405 126.5C90.5978 126.719 91.1455 126.719 91.1455 126.828Z" fill="#263238"/>
<path d="M83.424 110.69C82.3285 110.525 81.5069 109.431 81.3426 108.337C81.1783 107.243 81.4521 106.094 81.726 105C82.6572 105.656 83.3145 106.587 83.5883 107.681C83.8622 108.775 83.7527 109.924 83.3145 110.963" fill="#E8505B"/>
<path d="M83.4235 110.525C83.1496 109.705 83.6426 108.829 84.3546 108.337C85.0667 107.899 85.9979 107.845 86.8195 107.899C86.8743 107.899 86.9838 107.899 87.0386 107.954C87.0934 108.009 87.1481 108.118 87.1481 108.228C87.2577 109.048 86.7099 109.869 85.9431 110.252C85.231 110.635 84.3546 110.744 83.533 110.799C83.4235 110.799 83.2591 110.799 83.1496 110.744C83.04 110.69 82.9305 110.525 82.9853 110.416" fill="#E8505B"/>
<path d="M98.377 115.941C98.377 115.941 98.377 115.887 98.3222 115.777C98.2674 115.668 98.1579 115.613 97.9388 115.558C97.7744 115.558 97.5006 115.613 97.391 115.832C97.3362 116.051 97.4458 116.434 97.7197 116.543C97.9935 116.707 98.4317 116.543 98.6508 116.27C98.8699 115.941 98.9247 115.504 98.7604 115.066C98.4317 114.191 97.3362 113.589 96.2955 113.863C96.2408 113.863 96.186 113.917 96.1312 113.917L95.3644 114.136L95.9669 113.644C96.3503 113.37 96.4599 112.768 96.3503 112.331C96.2408 111.893 95.8026 111.565 95.4191 111.401C94.5428 111.072 93.6664 111.401 93.1186 111.729C92.8447 111.893 92.5709 112.112 92.297 112.276C92.0231 112.44 91.804 112.495 91.5849 112.495C91.1467 112.495 90.9824 112.276 90.9824 112.276C90.9824 112.276 91.1467 112.44 91.5849 112.385C91.804 112.385 92.0231 112.276 92.2422 112.112C92.4613 111.948 92.7352 111.729 93.0091 111.565C93.3377 111.346 93.6664 111.182 94.1046 111.072C94.5428 110.963 95.0357 110.963 95.5287 111.127C96.0217 111.291 96.4599 111.674 96.6242 112.221C96.7885 112.768 96.6789 113.425 96.186 113.863L96.0764 113.589C96.1312 113.589 96.186 113.534 96.2955 113.534C97.5006 113.261 98.7056 113.917 99.089 114.902C99.2533 115.394 99.2533 115.941 98.9247 116.324C98.6508 116.707 98.1031 116.871 97.7197 116.653C97.3362 116.434 97.2267 115.996 97.3362 115.668C97.391 115.504 97.5006 115.394 97.6649 115.34C97.7744 115.285 97.9388 115.285 98.0483 115.34C98.2674 115.394 98.4317 115.504 98.4317 115.613C98.4317 115.887 98.377 115.941 98.377 115.941Z" fill="#263238"/>
<path d="M68.3052 120.81C68.3052 120.81 68.4148 120.756 68.5791 120.81C68.7434 120.865 69.0721 121.029 69.2364 121.303C69.3459 121.467 69.4007 121.686 69.4555 121.905C69.4555 122.123 69.4007 122.397 69.1816 122.616C69.0173 122.835 68.7434 122.944 68.4148 122.999C68.0861 123.053 67.7575 122.999 67.4836 122.725C66.9359 122.233 66.8811 121.357 67.155 120.592C67.4288 119.826 68.0314 119.114 68.853 118.786C69.2912 118.622 69.7294 118.567 70.1128 118.458C70.551 118.349 70.9344 118.13 71.0987 117.747C71.3178 117.364 71.3178 116.871 71.263 116.434C71.2083 115.996 71.044 115.504 70.8796 115.066C70.7153 114.574 70.6058 114.081 70.6058 113.589C70.6058 113.097 70.8249 112.55 71.1535 112.167C71.4821 111.784 71.9203 111.51 72.3585 111.401C72.7967 111.291 73.2897 111.237 73.7279 111.291C74.6043 111.401 75.3711 111.838 76.0832 111.948C76.4666 112.003 76.7953 111.948 77.0691 111.784C77.343 111.62 77.6169 111.401 77.836 111.182C78.2742 110.69 78.6576 110.252 79.1506 110.033C79.6435 109.814 80.1365 109.76 80.4651 109.814C80.8486 109.869 81.1224 109.978 81.2868 110.033C81.3963 110.088 81.4511 110.143 81.4511 110.143C81.5059 110.197 81.5059 110.197 81.5059 110.197C81.5059 110.252 81.1772 109.978 80.4104 109.924C80.0817 109.924 79.5888 109.978 79.1506 110.197C78.7124 110.416 78.3289 110.854 77.8908 111.346C77.6717 111.565 77.3978 111.838 77.0691 112.003C76.7405 112.167 76.3023 112.221 75.9189 112.167C75.0973 112.057 74.3852 111.62 73.5636 111.565C72.742 111.455 71.8108 111.674 71.2083 112.331C70.9344 112.659 70.7701 113.097 70.7701 113.534C70.7701 113.972 70.8796 114.464 71.044 114.902C71.2083 115.34 71.3726 115.832 71.4274 116.324C71.4821 116.817 71.4821 117.364 71.263 117.802C71.044 118.294 70.551 118.567 70.1128 118.677C69.6746 118.786 69.2364 118.896 68.853 119.005C68.0861 119.279 67.5384 119.935 67.2645 120.646C67.0454 121.303 67.0454 122.123 67.4836 122.506C67.9218 122.889 68.6339 122.725 68.9625 122.397C69.2912 122.014 69.2364 121.522 69.0721 121.248C68.9077 120.92 68.6339 120.81 68.4696 120.756C68.4148 120.81 68.3052 120.81 68.3052 120.81Z" fill="#263238"/>
<path d="M85.7249 123.71C85.6701 123.765 85.5605 123.71 85.5605 123.655C85.5605 123.6 85.5605 123.546 85.6701 123.491C85.7249 123.436 85.8344 123.491 85.8344 123.546C85.8344 123.6 85.8344 123.655 85.7249 123.71Z" fill="#263238"/>
<path d="M86.8186 123.6C86.7638 123.6 86.6543 123.546 86.6543 123.436C86.6543 123.327 86.7091 123.272 86.7638 123.272C86.8186 123.272 86.9282 123.327 86.9282 123.436C86.9282 123.546 86.8734 123.6 86.8186 123.6Z" fill="#263238"/>
<path d="M87.8049 123.819C87.7501 123.819 87.6953 123.71 87.6953 123.6C87.6953 123.491 87.8049 123.436 87.8596 123.436C87.9144 123.436 87.9692 123.546 87.9692 123.655C87.9692 123.765 87.8596 123.874 87.8049 123.819Z" fill="#263238"/>
<path d="M86.6546 124.476C86.7453 124.476 86.8189 124.427 86.8189 124.366C86.8189 124.306 86.7453 124.257 86.6546 124.257C86.5638 124.257 86.4902 124.306 86.4902 124.366C86.4902 124.427 86.5638 124.476 86.6546 124.476Z" fill="#263238"/>
<path d="M93.4475 123.983C93.3928 123.983 93.2832 123.929 93.2832 123.819C93.2832 123.71 93.338 123.655 93.3928 123.655C93.4475 123.655 93.5571 123.71 93.5571 123.819C93.6119 123.874 93.5571 123.983 93.4475 123.983Z" fill="#263238"/>
<path d="M94.1575 124.038C94.1028 124.038 94.048 123.929 94.1028 123.764C94.1575 123.655 94.2123 123.6 94.3219 123.6C94.3766 123.6 94.4314 123.71 94.3766 123.874C94.3219 123.983 94.2671 124.038 94.1575 124.038Z" fill="#263238"/>
<path d="M93.8302 125.023C93.7755 125.023 93.7207 124.913 93.7207 124.859C93.7207 124.749 93.8303 124.695 93.885 124.749C93.9398 124.749 93.9946 124.859 93.9946 124.913C93.9398 124.968 93.885 125.023 93.8302 125.023Z" fill="#263238"/>
<path d="M115.795 275.139L103.416 185.693L103.087 179.894L72.1941 178.417L70.8795 183.286C66.5523 198.549 44.6426 272.404 44.6426 272.404L55.3784 275.796L87.2571 191.164L102.046 274.975L115.795 275.139Z" fill="#3B4A52"/>
<path d="M101.498 179.074C101.444 179.074 101.334 178.91 101.334 178.691C101.334 178.472 101.334 178.253 101.444 178.253C101.498 178.253 101.608 178.417 101.608 178.636C101.608 178.855 101.608 179.074 101.498 179.074Z" fill="#455A64"/>
<path d="M101.826 182.301C101.771 182.301 101.661 181.973 101.607 181.481C101.552 181.043 101.607 180.66 101.661 180.66C101.716 180.66 101.826 180.988 101.881 181.481C101.935 181.918 101.881 182.301 101.826 182.301Z" fill="#455A64"/>
<path d="M102.156 185.584C102.101 185.584 101.992 185.256 101.937 184.763C101.882 184.326 101.937 183.943 101.992 183.943C102.046 183.943 102.156 184.271 102.211 184.763C102.265 185.201 102.265 185.584 102.156 185.584Z" fill="#455A64"/>
<path d="M102.539 188.812C102.484 188.812 102.374 188.483 102.32 187.991C102.265 187.553 102.32 187.17 102.374 187.17C102.429 187.17 102.539 187.499 102.593 187.991C102.593 188.429 102.593 188.812 102.539 188.812Z" fill="#455A64"/>
<path d="M102.868 192.094C102.814 192.094 102.704 191.766 102.649 191.273C102.594 190.836 102.594 190.453 102.704 190.453C102.759 190.453 102.868 190.781 102.923 191.273C102.978 191.711 102.978 192.039 102.868 192.094Z" fill="#455A64"/>
<path d="M103.251 195.322C103.196 195.322 103.087 194.994 103.032 194.501C102.977 194.063 102.977 193.681 103.087 193.681C103.142 193.681 103.251 194.009 103.306 194.501C103.361 194.939 103.306 195.322 103.251 195.322Z" fill="#455A64"/>
<path d="M103.634 198.549C103.579 198.549 103.47 198.221 103.415 197.729C103.36 197.291 103.36 196.908 103.47 196.908C103.524 196.908 103.634 197.236 103.689 197.729C103.744 198.166 103.744 198.549 103.634 198.549Z" fill="#455A64"/>
<path d="M104.017 201.832C103.962 201.832 103.852 201.504 103.798 201.011C103.743 200.573 103.743 200.191 103.852 200.191C103.907 200.191 104.017 200.519 104.072 201.011C104.126 201.449 104.126 201.832 104.017 201.832Z" fill="#455A64"/>
<path d="M104.454 205.06C104.4 205.06 104.29 204.731 104.235 204.239C104.18 203.801 104.18 203.418 104.29 203.418C104.345 203.418 104.454 203.747 104.509 204.239C104.509 204.677 104.509 205.06 104.454 205.06Z" fill="#455A64"/>
<path d="M104.839 208.287C104.784 208.287 104.675 207.959 104.62 207.521C104.565 207.084 104.565 206.701 104.675 206.701C104.73 206.701 104.839 207.029 104.894 207.467C104.949 207.904 104.949 208.287 104.839 208.287Z" fill="#455A64"/>
<path d="M105.279 211.57C105.224 211.57 105.114 211.242 105.059 210.804C105.005 210.366 105.005 209.983 105.114 209.983C105.169 209.983 105.279 210.312 105.333 210.749C105.388 211.187 105.333 211.515 105.279 211.57Z" fill="#455A64"/>
<path d="M105.718 214.797C105.663 214.797 105.554 214.469 105.444 214.032C105.389 213.594 105.389 213.211 105.499 213.211C105.554 213.211 105.663 213.539 105.773 213.977C105.773 214.414 105.773 214.797 105.718 214.797Z" fill="#455A64"/>
<path d="M106.099 218.025C106.044 218.025 105.935 217.697 105.825 217.259C105.77 216.822 105.77 216.439 105.88 216.439C105.935 216.439 106.044 216.767 106.154 217.205C106.208 217.642 106.208 218.025 106.099 218.025Z" fill="#455A64"/>
<path d="M106.536 221.253C106.482 221.253 106.372 220.925 106.263 220.487C106.208 220.049 106.208 219.666 106.317 219.666C106.372 219.666 106.482 219.995 106.591 220.432C106.646 220.87 106.646 221.253 106.536 221.253Z" fill="#455A64"/>
<path d="M106.976 224.535C106.921 224.535 106.812 224.207 106.702 223.769C106.647 223.332 106.647 222.949 106.757 222.949C106.812 222.949 106.921 223.277 107.031 223.715C107.085 224.152 107.085 224.481 106.976 224.535Z" fill="#455A64"/>
<path d="M107.413 227.763C107.359 227.763 107.249 227.435 107.139 226.997C107.085 226.559 107.085 226.176 107.194 226.176C107.249 226.176 107.359 226.505 107.468 226.942C107.523 227.38 107.523 227.763 107.413 227.763Z" fill="#455A64"/>
<path d="M107.853 230.991C107.798 230.991 107.688 230.663 107.579 230.225C107.524 229.787 107.524 229.404 107.634 229.404C107.688 229.404 107.798 229.733 107.908 230.17C107.962 230.608 107.962 230.991 107.853 230.991Z" fill="#455A64"/>
<path d="M108.292 234.218C108.237 234.218 108.072 233.89 108.018 233.453C107.963 233.015 107.963 232.632 108.018 232.632C108.072 232.632 108.237 232.96 108.292 233.398C108.401 233.836 108.401 234.218 108.292 234.218Z" fill="#455A64"/>
<path d="M108.782 237.446C108.727 237.446 108.563 237.118 108.508 236.68C108.453 236.243 108.453 235.86 108.508 235.86C108.563 235.86 108.727 236.188 108.782 236.626C108.891 237.063 108.891 237.446 108.782 237.446Z" fill="#455A64"/>
<path d="M109.276 240.674C109.221 240.674 109.057 240.346 109.002 239.908C108.947 239.47 108.947 239.087 109.002 239.087C109.057 239.087 109.221 239.416 109.276 239.853C109.385 240.291 109.385 240.674 109.276 240.674Z" fill="#455A64"/>
<path d="M109.77 243.956C109.715 243.956 109.551 243.628 109.496 243.19C109.441 242.753 109.441 242.37 109.496 242.37C109.551 242.37 109.715 242.698 109.77 243.136C109.88 243.573 109.825 243.902 109.77 243.956Z" fill="#455A64"/>
<path d="M110.262 247.184C110.207 247.184 110.043 246.856 109.988 246.418C109.934 245.98 109.934 245.598 109.988 245.598C110.043 245.598 110.207 245.926 110.262 246.363C110.372 246.801 110.317 247.129 110.262 247.184Z" fill="#455A64"/>
<path d="M110.754 250.412C110.7 250.412 110.535 250.084 110.481 249.646C110.426 249.208 110.426 248.825 110.481 248.825C110.535 248.825 110.7 249.154 110.754 249.591C110.864 250.029 110.809 250.357 110.754 250.412Z" fill="#455A64"/>
<path d="M111.247 253.64C111.192 253.64 111.027 253.311 110.973 252.874C110.918 252.436 110.918 252.053 110.973 252.053C111.027 252.053 111.192 252.381 111.247 252.819C111.356 253.257 111.301 253.585 111.247 253.64Z" fill="#455A64"/>
<path d="M111.741 256.867C111.686 256.867 111.522 256.539 111.467 256.101C111.412 255.664 111.412 255.281 111.467 255.281C111.522 255.281 111.686 255.609 111.741 256.047C111.85 256.484 111.796 256.867 111.741 256.867Z" fill="#455A64"/>
<path d="M112.235 260.095C112.18 260.095 112.016 259.767 111.961 259.329C111.906 258.891 111.906 258.508 111.961 258.508C112.016 258.508 112.18 258.837 112.235 259.274C112.344 259.712 112.29 260.095 112.235 260.095Z" fill="#455A64"/>
<path d="M112.727 263.323C112.672 263.323 112.508 262.994 112.453 262.557C112.398 262.119 112.398 261.736 112.453 261.736C112.508 261.736 112.672 262.064 112.727 262.502C112.782 262.94 112.782 263.323 112.727 263.323Z" fill="#455A64"/>
<path d="M113.221 266.55C113.166 266.55 113.002 266.222 112.947 265.784C112.893 265.347 112.893 264.964 112.947 264.964C113.002 264.964 113.166 265.292 113.221 265.73C113.276 266.167 113.276 266.55 113.221 266.55Z" fill="#455A64"/>
<path d="M113.713 269.778C113.659 269.778 113.494 269.45 113.44 269.012C113.385 268.574 113.385 268.192 113.44 268.192C113.494 268.192 113.659 268.52 113.713 268.957C113.768 269.395 113.768 269.778 113.713 269.778Z" fill="#455A64"/>
<path d="M114.208 273.006C114.153 273.006 113.988 272.678 113.934 272.24C113.879 271.802 113.879 271.419 113.934 271.419C113.988 271.419 114.153 271.748 114.208 272.185C114.262 272.623 114.262 273.006 114.208 273.006Z" fill="#455A64"/>
<path d="M114.534 275.468C114.479 275.468 114.369 275.304 114.314 275.085C114.26 274.866 114.314 274.647 114.424 274.647C114.479 274.647 114.588 274.811 114.643 275.03C114.643 275.249 114.588 275.468 114.534 275.468Z" fill="#455A64"/>
<path d="M54.5571 273.498C54.6119 273.498 54.6119 273.717 54.5571 273.936C54.5024 274.154 54.3928 274.319 54.2833 274.264C54.2285 274.264 54.2285 274.045 54.2833 273.826C54.3928 273.607 54.5024 273.498 54.5571 273.498Z" fill="#455A64"/>
<path d="M55.5984 270.325C55.6532 270.325 55.5984 270.708 55.4889 271.146C55.3246 271.583 55.1602 271.911 55.1055 271.911C55.0507 271.911 55.1055 271.529 55.215 271.091C55.3246 270.653 55.4889 270.325 55.5984 270.325Z" fill="#455A64"/>
<path d="M56.5828 267.152C56.6376 267.152 56.5828 267.535 56.4733 267.973C56.3089 268.41 56.1446 268.739 56.0898 268.739C56.0351 268.739 56.0898 268.356 56.1994 267.918C56.3637 267.48 56.528 267.152 56.5828 267.152Z" fill="#455A64"/>
<path d="M57.6258 264.034C57.6806 264.034 57.6258 264.417 57.5162 264.854C57.3519 265.292 57.1876 265.62 57.1328 265.62C57.078 265.62 57.1328 265.237 57.2424 264.8C57.4067 264.307 57.571 263.979 57.6258 264.034Z" fill="#455A64"/>
<path d="M58.7195 260.861C58.7743 260.861 58.7195 261.244 58.61 261.681C58.4457 262.119 58.2813 262.447 58.2266 262.447C58.1718 262.447 58.2266 262.064 58.3361 261.627C58.4457 261.189 58.61 260.861 58.7195 260.861Z" fill="#455A64"/>
<path d="M59.7606 257.742C59.8153 257.742 59.7606 258.125 59.651 258.563C59.4867 259.001 59.3224 259.329 59.2676 259.329C59.2128 259.329 59.2676 258.946 59.3771 258.508C59.5415 258.016 59.7058 257.688 59.7606 257.742Z" fill="#455A64"/>
<path d="M60.8554 254.569C60.9102 254.569 60.8554 254.952 60.6911 255.39C60.5267 255.828 60.3624 256.156 60.3076 256.156C60.2529 256.156 60.3077 255.773 60.472 255.335C60.6363 254.898 60.8006 254.569 60.8554 254.569Z" fill="#455A64"/>
<path d="M61.9531 251.451C62.0079 251.451 61.9531 251.834 61.7888 252.272C61.6245 252.709 61.4602 253.038 61.3506 252.983C61.2958 252.983 61.3506 252.6 61.5149 252.162C61.734 251.725 61.8984 251.396 61.9531 251.451Z" fill="#455A64"/>
<path d="M63.1016 248.278C63.1563 248.278 63.1016 248.661 62.9373 249.099C62.7729 249.536 62.6086 249.864 62.4991 249.81C62.4443 249.81 62.4991 249.427 62.6634 248.989C62.8277 248.606 62.992 248.278 63.1016 248.278Z" fill="#455A64"/>
<path d="M64.1973 245.16C64.252 245.16 64.1973 245.543 64.033 245.98C63.8686 246.418 63.7043 246.746 63.5948 246.691C63.54 246.691 63.5948 246.308 63.7591 245.871C63.9782 245.488 64.1425 245.16 64.1973 245.16Z" fill="#455A64"/>
<path d="M65.3457 242.042C65.4005 242.042 65.3457 242.424 65.1814 242.862C65.0171 243.3 64.8527 243.628 64.7432 243.573C64.6884 243.573 64.7432 243.19 64.9075 242.753C65.0718 242.37 65.2909 242.042 65.3457 242.042Z" fill="#455A64"/>
<path d="M66.4981 238.923C66.5528 238.923 66.4981 239.306 66.3337 239.744C66.1694 240.181 66.0051 240.51 65.8955 240.455C65.8408 240.455 65.8955 240.072 66.0599 239.634C66.2242 239.197 66.4433 238.868 66.4981 238.923Z" fill="#455A64"/>
<path d="M67.6465 235.805C67.7013 235.859 67.6465 236.188 67.4822 236.625C67.3178 237.063 67.1535 237.391 67.044 237.337C66.9892 237.337 67.044 236.954 67.2083 236.516C67.4274 236.078 67.5917 235.75 67.6465 235.805Z" fill="#455A64"/>
<path d="M68.8516 232.687C68.9063 232.741 68.8516 233.069 68.6873 233.507C68.5229 233.945 68.3586 234.273 68.2491 234.218C68.1943 234.164 68.2491 233.835 68.4134 233.398C68.5777 232.96 68.742 232.632 68.8516 232.687Z" fill="#455A64"/>
<path d="M70.002 229.568C70.0567 229.623 70.002 229.951 69.8376 230.389C69.6733 230.826 69.509 231.155 69.3994 231.1C69.3447 231.045 69.3994 230.717 69.5638 230.279C69.7281 229.842 69.9472 229.568 70.002 229.568Z" fill="#455A64"/>
<path d="M71.209 226.45C71.2638 226.505 71.209 226.833 71.0447 227.27C70.8804 227.708 70.716 228.036 70.6065 227.982C70.5517 227.927 70.6065 227.599 70.7708 227.161C70.9351 226.778 71.0994 226.45 71.209 226.45Z" fill="#455A64"/>
<path d="M72.3594 223.332C72.4142 223.386 72.3594 223.715 72.1951 224.152C72.0307 224.59 71.8116 224.918 71.7569 224.863C71.7021 224.809 71.7569 224.481 71.9212 224.043C72.1403 223.66 72.3046 223.332 72.3594 223.332Z" fill="#455A64"/>
<path d="M73.5645 220.268C73.6192 220.323 73.5645 220.651 73.4001 221.089C73.2358 221.526 73.0167 221.854 72.9619 221.8C72.9072 221.745 72.9619 221.417 73.1263 220.979C73.2906 220.541 73.5097 220.213 73.5645 220.268Z" fill="#455A64"/>
<path d="M74.7676 217.15C74.8224 217.204 74.7676 217.533 74.6033 217.97C74.4389 218.408 74.2198 218.736 74.1651 218.682C74.1103 218.627 74.1651 218.299 74.3294 217.861C74.4937 217.423 74.7128 217.095 74.7676 217.15Z" fill="#455A64"/>
<path d="M75.9746 214.031C76.0294 214.086 75.9746 214.414 75.8103 214.852C75.646 215.29 75.4269 215.618 75.3721 215.563C75.3173 215.508 75.3721 215.18 75.5364 214.743C75.7008 214.305 75.9199 214.031 75.9746 214.031Z" fill="#455A64"/>
<path d="M77.1797 210.913C77.2345 210.968 77.1797 211.296 77.0154 211.734C76.8511 212.171 76.632 212.5 76.5772 212.445C76.5224 212.39 76.5772 212.062 76.7415 211.624C76.9058 211.241 77.1249 210.913 77.1797 210.913Z" fill="#455A64"/>
<path d="M78.3828 207.849C78.4376 207.904 78.3828 208.232 78.2185 208.67C78.0542 209.108 77.8351 209.436 77.7803 209.381C77.7255 209.326 77.7803 208.998 77.9446 208.561C78.109 208.123 78.3281 207.795 78.3828 207.849Z" fill="#455A64"/>
<path d="M79.5879 204.731C79.6427 204.786 79.5879 205.114 79.4236 205.552C79.2592 205.989 79.0402 206.318 78.9854 206.263C78.9306 206.208 78.9854 205.88 79.1497 205.442C79.314 205.005 79.5331 204.731 79.5879 204.731Z" fill="#455A64"/>
<path d="M80.8477 201.613C80.9024 201.667 80.8477 201.996 80.6833 202.433C80.519 202.871 80.2999 203.199 80.2451 203.145C80.1904 203.09 80.2452 202.762 80.4095 202.324C80.5738 201.941 80.7381 201.613 80.8477 201.613Z" fill="#455A64"/>
<path d="M82.1087 198.549C82.1635 198.604 82.1087 198.932 81.8896 199.37C81.7253 199.808 81.5062 200.136 81.4514 200.081C81.3966 200.026 81.4514 199.698 81.6705 199.261C81.8348 198.823 81.9991 198.549 82.1087 198.549Z" fill="#455A64"/>
<path d="M83.533 195.54C83.5877 195.595 83.4782 195.923 83.3139 196.361C83.0948 196.744 82.8757 197.072 82.8209 197.017C82.7661 196.963 82.8757 196.634 83.04 196.197C83.2043 195.814 83.4782 195.54 83.533 195.54Z" fill="#455A64"/>
<path d="M85.2875 192.75C85.3422 192.805 85.1779 193.133 84.904 193.516C84.6302 193.899 84.3563 194.173 84.3015 194.118C84.2467 194.063 84.4111 193.735 84.6849 193.352C84.9588 192.969 85.2327 192.696 85.2875 192.75Z" fill="#455A64"/>
<path d="M87.2007 191.219C87.2007 191.273 87.0912 191.383 86.8721 191.492C86.7078 191.602 86.4887 191.656 86.4339 191.602C86.3791 191.547 86.4887 191.383 86.7078 191.273C86.9816 191.109 87.2007 191.109 87.2007 191.219Z" fill="#455A64"/>
<path d="M82.2169 144.334L62.6076 143.787H42.615C39.9858 143.787 37.8496 145.976 37.8496 148.711V162.278C37.8496 171.688 39.9858 180.988 44.3678 189.194C48.0377 196.087 53.789 203.254 62.5529 207.74C70.6595 204.731 76.6847 196.634 80.3546 189.687C84.7365 181.481 86.8727 172.18 86.8727 162.771V149.258C86.9275 146.523 84.7913 144.334 82.2169 144.334Z" fill="#F6AC3B"/>
<path d="M61.8982 176.01L54.668 169.992L57.1328 167.038L61.5148 170.649L68.6354 162.497L71.5385 165.014L61.8982 176.01Z" fill="white"/>
<g opacity="0.3">
<path opacity="0.3" d="M82.2169 144.334L62.6076 143.787H42.615C39.9858 143.787 37.8496 145.976 37.8496 148.711V162.278C37.8496 171.688 39.9858 180.988 44.3678 189.194C48.0377 196.087 53.789 203.254 62.5529 207.74C70.6595 204.731 76.6847 196.634 80.3546 189.687C84.7365 181.481 86.8727 172.18 86.8727 162.771V149.258C86.9275 146.523 84.7913 144.334 82.2169 144.334ZM81.5596 163.81C81.5596 171.25 79.8616 178.636 76.4108 185.091C73.5077 190.562 69.1806 196.197 62.2242 199.807C55.2679 196.251 51.105 190.617 48.202 185.091C44.7512 178.581 43.0532 171.196 43.0532 163.81V153.088C43.0532 150.954 44.7512 149.203 46.7778 149.203H61.9503H62.5529H77.7254C79.8068 149.203 81.45 150.954 81.45 153.088V163.81H81.5596Z" fill="black"/>
</g>
</svg>
