<svg width="407" height="300" viewBox="0 0 407 300" fill="none" xmlns="http://www.w3.org/2000/svg">
<path d="M298.299 154.528C298.299 154.528 297.902 155.256 296.842 156.249C295.783 157.242 293.863 158.434 291.215 158.5C289.891 158.566 288.435 158.368 287.045 157.706C285.655 157.044 284.264 156.051 283.271 154.594C282.742 153.866 282.345 153.072 282.08 152.211C281.815 151.35 281.616 150.424 281.616 149.431C281.55 147.511 282.146 145.525 283.338 143.87C284.529 142.215 286.184 141.023 288.038 140.427C288.965 140.096 289.891 139.964 290.818 139.964C291.745 139.964 292.605 140.03 293.466 140.295C295.187 140.758 296.577 141.685 297.703 142.811C298.762 143.936 299.49 145.26 299.888 146.518C300.682 149.033 300.152 151.284 299.623 152.608C298.828 153.932 298.299 154.528 298.299 154.528C298.233 154.462 298.762 153.866 299.226 152.542C299.689 151.218 300.086 149.1 299.358 146.65C298.961 145.459 298.299 144.201 297.24 143.142C296.18 142.082 294.856 141.222 293.201 140.758C292.407 140.56 291.546 140.427 290.686 140.427C289.825 140.427 288.964 140.56 288.104 140.891C286.383 141.42 284.794 142.612 283.669 144.135C282.609 145.723 282.014 147.577 282.08 149.364C282.08 150.291 282.212 151.152 282.543 151.946C282.808 152.741 283.205 153.535 283.669 154.197C284.595 155.587 285.919 156.58 287.243 157.242C288.567 157.904 289.958 158.103 291.215 158.103C293.797 158.037 295.651 156.911 296.71 156.051C297.769 155.19 298.233 154.528 298.299 154.528Z" fill="#E0E0E0"/>
<path d="M304.455 164.988C304.455 164.988 304.588 164.988 304.786 165.12C304.985 165.186 305.316 165.319 305.713 165.451C306.507 165.782 307.699 166.245 309.288 166.907H309.155C310.413 165.12 312.002 162.803 313.988 159.956V160.089C312.929 158.963 311.803 157.639 310.546 156.315L310.479 156.249V156.183C311.075 154.594 311.472 152.741 311.671 150.821V150.688L311.737 150.622C313.194 150.026 314.782 149.364 316.437 148.636L316.305 148.835C315.842 146.187 315.378 143.406 314.849 140.494L315.047 140.692C313.458 140.626 311.737 140.494 309.95 140.427H309.817L309.751 140.295C309.023 138.772 308.096 137.117 306.838 135.661L306.772 135.529L306.838 135.396C307.434 133.94 308.096 132.285 308.758 130.696L308.824 130.961C306.64 129.438 304.323 127.783 301.94 126.062H302.271C301.079 127.121 299.821 128.313 298.497 129.504L298.365 129.637L298.232 129.571C296.644 128.975 294.79 128.511 292.936 128.379H292.804L292.738 128.247C292.142 126.79 291.48 125.135 290.752 123.546L291.017 123.679C288.369 124.142 285.522 124.606 282.675 125.135L282.874 124.87C282.808 126.459 282.675 128.247 282.609 129.968V130.1L282.477 130.166C280.888 130.895 279.299 131.888 277.843 133.079C277.71 133.079 278.108 133.013 277.578 133.145H277.512H277.446L277.313 133.079L277.048 132.947L276.453 132.682L275.261 132.219C274.467 131.888 273.672 131.557 272.878 131.226L273.209 131.159C271.554 133.476 269.899 135.793 268.31 138.044V137.713C269.435 138.971 270.627 140.229 271.752 141.487L271.885 141.619L271.819 141.751C271.157 143.473 270.759 145.26 270.627 147.047V147.18L270.495 147.246C268.906 147.908 267.317 148.57 265.794 149.166L265.927 148.901C266.39 151.748 266.854 154.528 267.317 157.242L267.052 157.176C268.773 157.242 270.495 157.375 272.15 157.441H272.282L272.348 157.573C273.143 159.294 274.136 160.817 275.261 162.207L275.327 162.34L275.261 162.472C274.599 164.061 273.937 165.65 273.275 167.172L273.209 166.907C275.658 168.629 277.909 170.284 280.094 171.806H279.829C281.153 170.615 282.411 169.489 283.668 168.43L283.735 168.364L283.867 168.43C285.721 169.092 287.508 169.489 289.229 169.622H289.362L289.428 169.688C290.156 171.409 290.752 172.932 291.348 174.388L291.149 174.322C294.393 173.792 297.107 173.329 299.49 172.932L299.424 173.064C299.556 171.012 299.623 169.357 299.755 167.967V167.9H299.821C301.542 167.106 302.668 166.378 303.396 165.848C303.727 165.583 303.992 165.385 304.19 165.252C304.323 165.054 304.455 164.988 304.455 164.988C304.455 164.988 304.389 165.054 304.19 165.252C303.992 165.385 303.727 165.65 303.396 165.914C302.668 166.444 301.542 167.238 299.821 168.033L299.887 167.967C299.821 169.357 299.755 171.012 299.623 173.064V173.13H299.556C297.173 173.527 294.459 174.057 291.215 174.587H291.083L291.017 174.454C290.421 172.998 289.759 171.475 289.031 169.754L289.163 169.886C287.442 169.754 285.588 169.357 283.735 168.695L283.933 168.629C282.742 169.688 281.484 170.879 280.16 172.071L280.027 172.203L279.895 172.137C277.71 170.615 275.393 168.96 273.01 167.238L272.878 167.106L272.944 166.974C273.606 165.451 274.202 163.862 274.864 162.273L274.93 162.472C273.738 161.082 272.745 159.493 271.951 157.772L272.15 157.904C270.495 157.838 268.773 157.706 267.052 157.639H266.854V157.441C266.39 154.727 265.927 151.946 265.397 149.1L265.331 148.901L265.53 148.835C267.052 148.173 268.641 147.511 270.23 146.849L270.097 147.047C270.23 145.194 270.693 143.34 271.355 141.619L271.421 141.884C270.296 140.626 269.171 139.368 267.979 138.11L267.847 137.978L267.979 137.779C269.568 135.529 271.223 133.212 272.878 130.895L273.01 130.696L273.209 130.762C274.003 131.093 274.798 131.424 275.592 131.755L276.784 132.219L277.379 132.483L277.644 132.616L277.777 132.682H277.843H277.909C277.379 132.748 277.777 132.682 277.644 132.748C279.101 131.49 280.756 130.497 282.344 129.769L282.212 129.968C282.278 128.247 282.411 126.459 282.477 124.87V124.672L282.675 124.606C285.522 124.142 288.369 123.613 291.017 123.149L291.215 123.083L291.281 123.282C291.943 124.937 292.605 126.525 293.201 127.982L293.003 127.849C294.922 128.048 296.776 128.445 298.431 129.107L298.166 129.173C299.49 127.982 300.814 126.856 301.94 125.731L302.072 125.599L302.204 125.731C304.588 127.452 306.905 129.107 309.089 130.63L309.222 130.762L309.155 130.961C308.493 132.616 307.831 134.205 307.169 135.661L307.103 135.462C308.361 136.985 309.354 138.574 310.082 140.163L309.884 140.03C311.671 140.096 313.392 140.229 314.981 140.295H315.113V140.427C315.577 143.34 316.106 146.121 316.504 148.769V148.901L316.371 148.967C314.716 149.629 313.127 150.291 311.671 150.887L311.803 150.755C311.605 152.741 311.141 154.528 310.546 156.183V156.051C311.803 157.441 312.929 158.699 313.922 159.89L313.988 159.956L313.922 160.023C311.936 162.803 310.281 165.12 309.023 166.907L308.957 166.974H308.891C307.368 166.312 306.243 165.848 305.382 165.451C304.985 165.252 304.72 165.186 304.455 165.054C304.521 165.054 304.455 164.988 304.455 164.988Z" fill="#E0E0E0"/>
<path fill-rule="evenodd" clip-rule="evenodd" d="M296.312 102.031C294.26 103.753 292.076 105.143 289.692 106.202L289.295 113.418L277.512 115.404L274.731 108.718C272.149 108.519 269.634 107.923 267.118 106.996L261.756 111.829L252.025 104.944L254.805 98.258C253.084 96.2058 251.694 94.0212 250.634 91.638L243.419 91.2408L241.433 79.4572L248.119 76.6768C248.317 74.095 248.913 71.5794 249.84 69.0638L245.007 63.7016L251.892 53.904L258.578 56.6844C260.631 54.9632 262.815 53.573 265.198 52.5138L265.596 45.298L277.379 43.312L280.16 49.9982C282.741 50.1968 285.257 50.7926 287.773 51.7194L293.135 46.8868L302.932 53.7716L300.152 60.4578C301.873 62.51 303.263 64.6946 304.323 67.0778L311.538 67.475L313.524 79.2586L306.838 82.039C306.64 84.6208 306.044 87.1364 305.117 89.652L309.95 95.0142L303.065 104.812L296.312 102.031ZM287.574 87.2688C291.678 81.5094 290.288 73.4992 284.529 69.3948C278.769 65.2904 270.759 66.6806 266.655 72.44C262.55 78.1994 263.941 86.2096 269.7 90.314C275.526 94.4184 283.536 93.0282 287.574 87.2688Z" fill="#64B9FF"/>
<path fill-rule="evenodd" clip-rule="evenodd" d="M148.223 99.8467C149.944 101.7 151.334 103.686 152.526 105.871H159.345L161.86 116.86L155.704 119.839C155.637 122.289 155.24 124.738 154.512 127.121L159.345 131.954L153.32 141.553L146.899 139.302C145.045 141.023 143.059 142.413 140.875 143.605V150.424L129.886 152.939L126.907 146.782C124.457 146.716 122.008 146.319 119.625 145.591L114.792 150.424L105.193 144.399L107.444 137.978C105.723 136.124 104.332 134.138 103.141 131.954H96.3222L93.8066 120.964L99.9632 117.985C100.029 115.536 100.427 113.087 101.155 110.703L96.3222 105.871L102.346 96.2719L108.768 98.5227C110.621 96.8015 112.607 95.4113 114.792 94.2197V87.4011L125.781 84.8855L128.76 91.0421C131.21 91.1083 133.659 91.5055 136.042 92.2337L140.875 87.4011L150.474 93.4253L148.223 99.8467ZM134.718 108.85C129.025 105.275 121.544 106.996 118.036 112.689C114.461 118.383 116.182 125.863 121.875 129.372C127.569 132.947 135.049 131.225 138.624 125.532C142.133 119.905 140.411 112.425 134.718 108.85Z" fill="#64B9FF"/>
<path fill-rule="evenodd" clip-rule="evenodd" d="M154.91 53.5068C155.836 54.4998 156.631 55.6252 157.293 56.8168H161.066L162.456 62.9072L159.08 64.5622C159.014 65.8862 158.815 67.2764 158.418 68.6004L161.132 71.2484L157.822 76.5444L154.248 75.2866C153.255 76.2134 152.129 77.0078 150.938 77.6698V81.4432L144.847 82.8334L143.192 79.4572C141.868 79.391 140.478 79.1924 139.154 78.7952L136.506 81.5094L131.21 78.1994L132.468 74.6246C131.541 73.6316 130.747 72.5062 130.085 71.3146H126.311L124.921 65.2242L128.297 63.5692C128.363 62.2452 128.562 60.855 128.959 59.531L126.245 56.883L129.555 51.587L133.13 52.8448C134.123 51.918 135.248 51.1236 136.44 50.4616V46.6882L142.53 45.298L144.185 48.6742C145.509 48.7404 146.899 48.939 148.223 49.3362L150.871 46.622L156.167 49.932L154.91 53.5068ZM147.429 58.538C144.318 56.552 140.147 57.545 138.161 60.6564C136.175 63.834 137.168 67.9384 140.279 69.9244C143.457 71.9104 147.561 70.9174 149.547 67.806C151.533 64.6284 150.54 60.4578 147.429 58.538Z" fill="#64B9FF"/>
<path d="M101.817 64.7608C101.817 64.7608 101.95 64.827 102.148 64.9594C102.347 65.0918 102.612 65.2904 102.943 65.6214C103.538 66.2172 104.333 67.3426 104.531 68.9314C104.598 69.7258 104.531 70.5864 104.2 71.447C103.869 72.3076 103.274 73.1682 102.479 73.8302C102.082 74.1612 101.619 74.426 101.089 74.6246C100.559 74.8232 100.03 74.9556 99.434 75.0218C98.3086 75.1542 97.0508 74.8232 96.0578 74.1612C94.9986 73.4992 94.2042 72.5724 93.807 71.447C93.6084 70.9174 93.476 70.3878 93.4098 69.792C93.3436 69.2624 93.4098 68.6666 93.5422 68.2032C93.7408 67.144 94.2704 66.2834 94.9324 65.6214C95.5944 64.9594 96.3226 64.496 97.0508 64.2312C98.5734 63.7016 99.8974 63.9002 100.692 64.165C101.089 64.2974 101.42 64.496 101.619 64.5622C101.685 64.6946 101.817 64.7608 101.817 64.7608C101.817 64.827 101.42 64.496 100.559 64.2974C99.765 64.0326 98.441 63.9002 97.0508 64.4298C96.3226 64.6946 95.5944 65.158 95.0648 65.82C94.469 66.482 94.0056 67.3426 93.807 68.3356C93.6746 68.799 93.6746 69.3286 93.7408 69.8582C93.807 70.3878 93.8732 70.9174 94.0718 71.3808C94.469 72.3738 95.1972 73.3006 96.1902 73.8964C97.1832 74.4922 98.3086 74.757 99.3678 74.6908C99.8974 74.6246 100.427 74.5584 100.89 74.3598C101.354 74.1612 101.817 73.8964 102.214 73.6316C103.009 73.0358 103.538 72.2414 103.869 71.3808C104.2 70.5864 104.267 69.7258 104.2 68.9314C104.068 67.4088 103.34 66.2834 102.81 65.6876C102.214 65.0918 101.751 64.827 101.817 64.7608Z" fill="#E0E0E0"/>
<path d="M107.841 60.7226C107.841 60.7226 107.841 60.6564 107.907 60.524C107.974 60.3916 108.04 60.193 108.106 59.9944C108.305 59.4648 108.503 58.7366 108.834 57.8098V57.876C107.709 57.214 106.252 56.2872 104.531 55.228H104.664C104.002 55.89 103.273 56.6182 102.545 57.4126L102.479 57.4788H102.413C101.42 57.1478 100.361 57.0154 99.169 56.9492H99.1028V56.883C98.7056 56.0224 98.2422 55.0956 97.7788 54.1026L97.9112 54.1688C96.3886 54.4998 94.7336 54.897 92.9462 55.2942L93.0786 55.1618C93.0786 56.0886 93.0786 57.1478 93.0786 58.207V58.2732L92.9462 58.3394C92.0194 58.8028 91.0926 59.4648 90.2982 60.2592L90.232 60.3254H90.1658C89.239 59.9944 88.3122 59.6634 87.253 59.3324L87.4516 59.2662C86.591 60.5902 85.7304 62.0466 84.7374 63.5692V63.3706C85.3994 64.0326 86.1276 64.7608 86.922 65.5552L86.9882 65.6214V65.6876C86.6572 66.6806 86.4586 67.806 86.4586 68.9314V69.0638L86.3924 69.13C85.5318 69.5272 84.605 69.9906 83.612 70.454L83.6782 70.2554C84.0092 71.8442 84.4064 73.4992 84.8036 75.2204L84.605 75.088C85.598 75.088 86.591 75.088 87.6502 75.088H87.7826L87.8488 75.1542C88.3122 76.081 88.9742 77.0078 89.7686 77.8022C89.7686 77.8684 89.7024 77.6036 89.8348 78.0008V78.067V78.1332L89.7686 78.3318L89.6362 78.6628L89.3714 79.391C89.1728 79.8544 89.0404 80.384 88.8418 80.8474L88.7756 80.6488C90.232 81.5756 91.6884 82.4362 93.0786 83.363H92.88C93.6082 82.6348 94.3364 81.9066 95.0646 81.1784L95.1308 81.1122H95.197C96.2562 81.4432 97.3154 81.6418 98.4408 81.6418H98.5732L98.6394 81.708C99.1028 82.6348 99.5 83.5616 99.9634 84.4884L99.7648 84.4222C101.42 84.025 103.075 83.6278 104.73 83.2968L104.597 83.4292C104.597 82.37 104.597 81.377 104.597 80.384V80.3178L104.664 80.2516C105.657 79.722 106.517 79.06 107.312 78.3318L107.378 78.2656H107.444C108.437 78.5966 109.364 78.9276 110.357 79.2586L110.158 79.3248C111.085 77.8022 112.012 76.412 112.872 75.0218V75.1542C112.078 74.426 111.416 73.6978 110.688 72.9696L110.622 72.9034V72.8372C110.953 71.7118 111.151 70.6526 111.151 69.5934V69.5272H111.217C112.21 69.0638 113.137 68.6004 113.998 68.2032L113.932 68.3356C113.468 66.4158 113.137 64.7608 112.806 63.3706L112.872 63.4368C111.681 63.4368 110.622 63.4368 109.827 63.4368H109.761C109.231 62.4438 108.768 61.7818 108.437 61.3846C108.238 61.186 108.172 61.0536 108.04 60.9212C107.907 60.7888 107.841 60.7226 107.841 60.7226C107.841 60.7226 107.907 60.7888 107.974 60.855C108.04 60.9212 108.238 61.1198 108.371 61.3184C108.702 61.7156 109.231 62.3776 109.761 63.3706H109.695C110.555 63.3706 111.548 63.3706 112.74 63.3044H112.806V63.3706C113.137 64.7608 113.534 66.4158 113.998 68.3356V68.4018L113.932 68.468C113.071 68.8652 112.144 69.3286 111.151 69.792L111.217 69.7258C111.217 70.785 111.019 71.9104 110.688 73.0358V72.9034C111.35 73.5654 112.078 74.2936 112.872 75.088L112.939 75.1542L112.872 75.2204C112.012 76.6106 111.151 78.0008 110.224 79.5234L110.158 79.5896L110.026 79.5234C109.099 79.1924 108.106 78.8614 107.113 78.5304H107.245C106.451 79.2586 105.524 79.9206 104.531 80.4502L104.597 80.3178C104.597 81.3108 104.597 82.37 104.597 83.363V83.4954H104.465C102.876 83.8926 101.221 84.2236 99.5 84.6208H99.3676L99.3014 84.4884C98.838 83.5616 98.4408 82.6348 97.9774 81.708L98.1098 81.7742C96.9844 81.708 95.859 81.5756 94.7998 81.2446L94.9984 81.1784C94.2702 81.9066 93.542 82.6348 92.8138 83.363L92.7476 83.4292L92.6152 83.363C91.225 82.5024 89.7686 81.5756 88.3122 80.6488L88.1798 80.5826L88.246 80.4502C88.4446 79.9868 88.577 79.5234 88.7756 78.9938L89.0404 78.2656L89.1728 77.9346L89.239 77.736V77.6698V77.6036C89.3052 77.9346 89.239 77.6698 89.3052 77.8022C88.5108 76.9416 87.8488 76.0148 87.3854 75.088L87.5178 75.1542C86.4586 75.1542 85.3994 75.1542 84.4726 75.1542H84.3402V75.0218C83.943 73.3006 83.5458 71.6456 83.2148 70.0568V69.9244L83.3472 69.8582C84.274 69.3948 85.267 68.9314 86.1276 68.5342L86.0614 68.6666C86.1276 67.475 86.3262 66.3496 86.591 65.3566L86.6572 65.489C85.929 64.7608 85.1346 64.0326 84.4726 63.3044L84.4064 63.2382L84.4726 63.1058C85.3994 61.5832 86.3262 60.1268 87.1868 58.8028L87.253 58.6704L87.3854 58.7366C88.3784 59.0676 89.3714 59.4648 90.2982 59.7296H90.1658C91.0264 58.9352 91.9532 58.2732 92.88 57.8098L92.8138 57.9422C92.8138 56.883 92.8138 55.8238 92.8138 54.897V54.7646H92.9462C94.6674 54.3674 96.3224 53.9702 97.9112 53.6392H97.9774L98.0436 53.7054C98.507 54.6984 98.9704 55.6252 99.3676 56.4858L99.3014 56.4196C100.493 56.4858 101.618 56.6844 102.611 56.9492H102.479C103.273 56.1548 104.002 55.4266 104.664 54.7646L104.73 54.6984L104.796 54.7646C106.517 55.89 107.974 56.8168 109.099 57.4788H109.165V57.545C108.834 58.4718 108.569 59.2 108.371 59.6634C108.305 59.9282 108.238 60.0606 108.172 60.193C107.907 60.6564 107.841 60.7226 107.841 60.7226Z" fill="#E0E0E0"/>
<path d="M258.909 288.186L170.929 287.789C160.337 287.722 151.797 279.116 151.864 268.524L152.79 48.0121C152.857 37.4201 161.463 28.8803 172.055 28.9465L260.034 29.3438C270.626 29.41 279.166 38.0159 279.1 48.6079L278.173 269.12C278.107 279.646 269.435 288.186 258.909 288.186Z" fill="#455A64"/>
<path d="M259.836 36.9567L242.756 36.8905C240.439 36.8905 238.586 38.8103 238.586 41.1935V44.3049C238.586 46.6881 236.732 48.6079 234.415 48.6079L201.183 48.4755C198.866 48.4755 197.078 46.4895 197.078 44.1063V40.9949C197.078 38.6117 195.225 36.6257 192.974 36.6257H186.95L172.055 36.5595C164.64 36.4933 158.616 42.5175 158.55 49.9319L157.623 265.148C157.623 272.563 163.581 278.587 170.995 278.653L258.777 279.05C266.191 279.116 272.215 273.092 272.281 265.678L273.208 50.4615C273.274 43.0471 267.25 36.9567 259.836 36.9567Z" fill="#64B9FF"/>
<path d="M234.216 141.751H199.792C196.217 141.751 193.305 138.839 193.305 135.264V100.84C193.305 97.265 196.217 94.3522 199.792 94.3522H234.216C237.791 94.3522 240.704 97.265 240.704 100.84V135.264C240.638 138.839 237.791 141.751 234.216 141.751Z" fill="#407BFF"/>
<path d="M180.793 111.63L181.919 113.947L184.5 114.278L182.647 116.132L183.044 118.648L180.793 117.456L178.476 118.648L178.94 116.132L177.086 114.278L179.668 113.947L180.793 111.63Z" fill="#407BFF"/>
<path d="M254.606 88.6589L255.467 90.4463L257.453 90.7773L255.997 92.1675L256.328 94.0873L254.606 93.1605L252.819 94.0873L253.15 92.1675L251.76 90.7773L253.68 90.4463L254.606 88.6589Z" fill="#407BFF"/>
<path d="M252.885 131.623L253.613 132.682L254.937 132.616L254.142 133.675L254.606 134.866L253.348 134.469L252.355 135.264V134.006L251.296 133.278L252.487 132.88L252.885 131.623Z" fill="#407BFF"/>
<path d="M179.933 96.272C179.271 96.272 178.741 95.7424 178.741 95.0804C178.741 94.4184 179.271 93.8888 179.933 93.8888C180.595 93.8888 181.124 94.4184 181.124 95.0804C181.124 95.7424 180.595 96.272 179.933 96.272ZM179.933 94.4846C179.602 94.4846 179.403 94.7494 179.403 95.0142C179.403 95.3452 179.668 95.5438 179.933 95.5438C180.264 95.5438 180.462 95.279 180.462 95.0142C180.462 94.7494 180.198 94.4846 179.933 94.4846Z" fill="#407BFF"/>
<path d="M248.185 112.954C247.523 112.954 246.993 112.425 246.993 111.763C246.993 111.101 247.523 110.571 248.185 110.571C248.847 110.571 249.376 111.101 249.376 111.763C249.443 112.425 248.847 112.954 248.185 112.954ZM248.185 111.233C247.854 111.233 247.655 111.498 247.655 111.763C247.655 112.094 247.92 112.292 248.185 112.292C248.516 112.292 248.714 112.028 248.714 111.763C248.781 111.432 248.516 111.233 248.185 111.233Z" fill="#407BFF"/>
<path d="M232.429 87.4673C231.767 87.4673 231.237 86.9377 231.237 86.2757C231.237 85.6137 231.767 85.0841 232.429 85.0841C233.091 85.0841 233.621 85.6137 233.621 86.2757C233.621 86.9377 233.091 87.4673 232.429 87.4673ZM232.429 85.6799C232.098 85.6799 231.899 85.9447 231.899 86.2095C231.899 86.5405 232.164 86.7391 232.429 86.7391C232.76 86.7391 232.959 86.4743 232.959 86.2095C232.959 85.9447 232.76 85.6799 232.429 85.6799Z" fill="#407BFF"/>
<path d="M173.313 135.198C173.788 135.198 174.173 134.812 174.173 134.337C174.173 133.862 173.788 133.476 173.313 133.476C172.837 133.476 172.452 133.862 172.452 134.337C172.452 134.812 172.837 135.198 173.313 135.198Z" fill="#407BFF"/>
<path d="M214.687 146.849C214.687 147.312 214.29 147.709 213.826 147.709C213.363 147.709 212.966 147.312 212.966 146.849C212.966 146.385 213.363 145.988 213.826 145.988C214.29 145.988 214.687 146.385 214.687 146.849Z" fill="#407BFF"/>
<path d="M205.287 78.1994C205.763 78.1994 206.148 77.8141 206.148 77.3388C206.148 76.8635 205.763 76.4781 205.287 76.4781C204.812 76.4781 204.427 76.8635 204.427 77.3388C204.427 77.8141 204.812 78.1994 205.287 78.1994Z" fill="#407BFF"/>
<path d="M223.36 109.777C224.088 110.306 224.75 110.968 225.28 111.63L227.729 111.167L229.318 114.94L227.332 116.397C227.464 117.257 227.464 118.184 227.332 119.045L229.384 120.435L227.861 124.208L225.412 123.811C224.883 124.539 224.22 125.201 223.558 125.731L224.022 128.18L220.248 129.769L218.792 127.783C217.932 127.916 217.005 127.916 216.144 127.783L214.754 129.835L210.981 128.313L211.378 125.863C210.65 125.334 209.988 124.672 209.458 124.01L207.009 124.473L205.42 120.7L207.406 119.243C207.273 118.383 207.273 117.456 207.406 116.595L205.354 115.205L206.876 111.432L209.326 111.829C209.855 111.101 210.517 110.439 211.179 109.909L210.716 107.46L214.489 105.871L215.946 107.857C216.806 107.724 217.733 107.724 218.594 107.857L219.984 105.805L223.757 107.327L223.36 109.777ZM219.123 113.881C216.872 112.954 214.291 114.08 213.43 116.33C212.503 118.581 213.629 121.163 215.879 122.024C218.13 122.95 220.712 121.825 221.573 119.574C222.499 117.323 221.374 114.742 219.123 113.881Z" fill="#A0D4FF"/>
<path d="M219.123 113.881C219.123 113.881 219.52 113.947 220.116 114.345C220.711 114.742 221.44 115.536 221.837 116.728C222.035 117.324 222.102 118.052 221.903 118.78C221.771 119.508 221.44 120.303 220.844 120.898C220.579 121.229 220.248 121.494 219.851 121.759C219.454 122.024 219.056 122.156 218.593 122.289C217.732 122.553 216.673 122.487 215.813 122.09C214.886 121.693 214.158 121.097 213.694 120.303C213.429 119.905 213.297 119.508 213.165 119.045C213.032 118.648 213.032 118.184 213.032 117.787C213.032 116.926 213.363 116.132 213.76 115.536C214.158 114.874 214.687 114.411 215.283 114.08C216.408 113.418 217.468 113.418 218.196 113.55C218.792 113.683 219.123 113.881 219.123 113.881C219.123 113.881 218.725 113.749 218.063 113.683C217.401 113.616 216.342 113.683 215.283 114.278C214.753 114.609 214.224 115.073 213.893 115.669C213.496 116.264 213.231 116.993 213.231 117.853C213.231 118.25 213.231 118.648 213.363 119.045C213.496 119.442 213.628 119.839 213.893 120.236C214.356 120.965 215.084 121.627 215.945 121.958C216.806 122.289 217.732 122.355 218.593 122.156C218.99 122.024 219.387 121.891 219.785 121.627C220.116 121.428 220.447 121.163 220.711 120.832C221.241 120.236 221.572 119.508 221.704 118.846C221.837 118.118 221.771 117.456 221.638 116.86C221.307 115.669 220.579 114.874 220.049 114.477C219.52 114.014 219.123 113.881 219.123 113.881Z" fill="#A0D4FF"/>
<path d="M223.359 109.777C223.359 109.777 223.359 109.71 223.359 109.644C223.359 109.512 223.426 109.379 223.426 109.181C223.492 108.784 223.558 108.122 223.69 107.327V107.393C222.697 106.996 221.44 106.533 219.851 105.871H219.917C219.52 106.467 218.99 107.195 218.527 107.923V107.989H218.461C217.666 107.923 216.739 107.857 215.813 108.055H215.746V107.989C215.283 107.393 214.82 106.665 214.29 106.003H214.422C213.231 106.533 211.973 107.062 210.649 107.592L210.715 107.46C210.848 108.188 210.98 109.048 211.179 109.909V109.975L211.112 110.041C210.45 110.571 209.789 111.167 209.259 111.961L209.193 112.027H209.126C208.398 111.895 207.538 111.763 206.677 111.63L206.809 111.564C206.346 112.756 205.816 114.08 205.287 115.337L205.221 115.205C205.883 115.668 206.545 116.132 207.273 116.595L207.339 116.661V116.728C207.207 117.522 207.207 118.449 207.339 119.376V119.442L207.273 119.508C206.677 119.971 205.949 120.435 205.287 120.964L205.353 120.832C205.883 122.024 206.412 123.281 206.942 124.605L206.809 124.539C207.604 124.407 208.398 124.274 209.259 124.076H209.325L209.391 124.142C209.921 124.804 210.517 125.466 211.245 125.996C211.245 126.062 211.179 125.863 211.311 126.128V126.194V126.26V126.393L211.245 126.724L211.179 127.32C211.113 127.717 211.046 128.114 210.98 128.511L210.914 128.379C212.172 128.908 213.496 129.438 214.687 129.901L214.555 129.968C215.018 129.306 215.482 128.577 215.945 127.915L216.011 127.849H216.077C216.938 127.982 217.865 127.915 218.725 127.849H218.792L218.858 127.915C219.321 128.577 219.851 129.239 220.314 129.901L220.182 129.835C221.44 129.306 222.697 128.776 223.955 128.246L223.889 128.379C223.757 127.584 223.624 126.724 223.426 125.929V125.863L223.492 125.797C224.22 125.267 224.816 124.605 225.345 123.943L225.412 123.877H225.478C226.338 124.01 227.133 124.142 227.927 124.274L227.795 124.341C228.324 123.017 228.854 121.759 229.317 120.567L229.384 120.7C228.655 120.17 227.993 119.707 227.331 119.309H227.265V119.243C227.398 118.316 227.331 117.39 227.265 116.595V116.529H227.331C228.06 115.999 228.722 115.536 229.317 115.073V115.139C228.722 113.682 228.192 112.425 227.729 111.365L227.795 111.432C226.802 111.63 226.007 111.763 225.345 111.829C224.816 111.101 224.286 110.637 223.955 110.372C223.823 110.24 223.69 110.108 223.558 110.041C223.426 109.843 223.359 109.777 223.359 109.777C223.359 109.777 223.426 109.777 223.492 109.843C223.558 109.909 223.69 109.975 223.889 110.174C224.22 110.439 224.75 110.902 225.279 111.63H225.213C225.875 111.498 226.669 111.365 227.662 111.167H227.729V111.233C228.192 112.292 228.722 113.55 229.384 115.006V115.073L229.317 115.139C228.722 115.602 228.06 116.066 227.331 116.595L227.398 116.529C227.53 117.39 227.53 118.25 227.464 119.243L227.398 119.177C228.06 119.64 228.722 120.104 229.45 120.567L229.516 120.633V120.7C229.053 121.891 228.523 123.149 227.993 124.473V124.539H227.927C227.133 124.407 226.338 124.274 225.478 124.142L225.61 124.076C225.081 124.804 224.419 125.466 223.69 125.996L223.757 125.863C223.889 126.658 224.021 127.452 224.22 128.313V128.379L224.154 128.445C222.962 128.975 221.704 129.504 220.38 130.034L220.314 130.1L220.248 130.034C219.785 129.372 219.255 128.71 218.792 128.048L218.924 128.114C218.063 128.246 217.137 128.246 216.21 128.114L216.342 128.048C215.879 128.71 215.415 129.372 214.952 130.1L214.886 130.166L214.82 130.1C213.562 129.57 212.304 129.107 211.046 128.577L210.98 128.511V128.379C211.046 127.982 211.113 127.584 211.179 127.187L211.245 126.591L211.311 126.26V126.128V126.062V125.996C211.377 126.26 211.311 126.062 211.377 126.128C210.649 125.598 209.987 124.936 209.457 124.208L209.59 124.274C208.729 124.407 207.935 124.605 207.14 124.738H207.074L207.008 124.672C206.479 123.348 205.883 122.09 205.419 120.898L205.353 120.832L205.419 120.766C206.081 120.236 206.809 119.773 207.405 119.309L207.339 119.442C207.207 118.515 207.207 117.588 207.339 116.728L207.405 116.86C206.677 116.397 206.015 115.867 205.353 115.47L205.287 115.404L205.353 115.337C205.883 114.013 206.412 112.756 206.876 111.564L206.942 111.498H207.008C207.869 111.63 208.663 111.763 209.457 111.895L209.325 111.961C209.921 111.233 210.583 110.571 211.245 110.041L211.179 110.174C211.046 109.313 210.848 108.519 210.715 107.724V107.658H210.781C212.105 107.129 213.363 106.533 214.555 106.069H214.621L214.687 106.136C215.217 106.864 215.68 107.526 216.144 108.122L216.077 108.055C217.004 107.923 217.931 107.923 218.792 108.055H218.725C219.255 107.327 219.718 106.665 220.116 106.003V105.937H220.182C221.705 106.599 223.028 107.062 223.955 107.46C223.823 108.254 223.69 108.85 223.624 109.247C223.558 109.446 223.558 109.578 223.558 109.71C223.426 109.71 223.359 109.777 223.359 109.777Z" fill="#A0D4FF"/>
<path d="M248.317 157.044H199.925V192.063H248.317V157.044Z" fill="#E39D29"/>
<path d="M222.169 157.044H180V192.063H222.169V157.044Z" fill="#F6AC3B"/>
<path d="M195.481 157.044L188 149.563H206.999L214.017 157.044H195.481Z" fill="#F6AC3B"/>
<path d="M226.206 157.044L234.812 149.563H258.445L248.317 157.044H226.206Z" fill="#F6AC3B"/>
<path d="M226.206 157.044C226.206 157.11 216.74 157.242 205.089 157.242C193.437 157.242 183.971 157.176 183.971 157.044C183.971 156.977 193.437 156.845 205.089 156.845C216.806 156.845 226.206 156.911 226.206 157.044Z" fill="#263238"/>
<path d="M255.93 236.153H178.013C176.159 236.153 174.637 234.63 174.637 232.776V232.644C174.637 230.79 176.159 229.268 178.013 229.268H255.864C257.718 229.268 259.24 230.79 259.24 232.644V232.776C259.24 234.63 257.784 236.153 255.93 236.153Z" fill="#E0E0E0"/>
<path d="M216.211 236.153H178.079C176.226 236.153 174.703 234.63 174.703 232.776V232.644C174.703 230.79 176.226 229.268 178.079 229.268H216.211C218.064 229.268 219.587 230.79 219.587 232.644V232.776C219.587 234.63 218.064 236.153 216.211 236.153Z" fill="#407BFF"/>
<path d="M211.378 253.034C211.378 254.424 210.385 255.549 208.399 255.549C207.207 255.549 206.082 255.152 205.42 254.49L205.817 253.828C206.347 254.358 207.274 254.755 208.333 254.755C209.723 254.755 210.517 254.093 210.517 253.034C210.517 251.974 209.855 251.312 207.737 251.312H205.95L206.347 247.142H210.915V247.87H207.141L206.876 250.518H207.936C210.451 250.584 211.378 251.577 211.378 253.034Z" fill="#407BFF"/>
<path d="M217.998 253.034C217.998 254.424 217.005 255.549 215.019 255.549C213.827 255.549 212.702 255.152 212.04 254.49L212.437 253.828C212.967 254.358 213.894 254.755 214.953 254.755C216.343 254.755 217.137 254.093 217.137 253.034C217.137 251.974 216.475 251.312 214.357 251.312H212.57L212.967 247.142H217.535V247.87H213.761L213.496 250.518H214.556C217.071 250.584 217.998 251.577 217.998 253.034Z" fill="#407BFF"/>
<path d="M218.858 249.393C218.858 248.069 219.587 247.142 220.712 247.142C221.837 247.142 222.566 248.002 222.566 249.393C222.566 250.783 221.771 251.643 220.712 251.643C219.653 251.643 218.858 250.717 218.858 249.393ZM222.036 249.393C222.036 248.333 221.506 247.671 220.778 247.671C219.984 247.671 219.52 248.333 219.52 249.393C219.52 250.452 220.05 251.114 220.778 251.114C221.506 251.114 222.036 250.452 222.036 249.393ZM225.743 247.208H226.471L220.778 255.483H220.05L225.743 247.208ZM223.956 253.298C223.956 251.974 224.75 251.048 225.809 251.048C226.935 251.048 227.663 251.974 227.663 253.298C227.663 254.622 226.935 255.549 225.809 255.549C224.75 255.549 223.956 254.689 223.956 253.298ZM227.067 253.298C227.067 252.239 226.538 251.577 225.809 251.577C225.015 251.577 224.552 252.239 224.552 253.298C224.552 254.358 225.081 255.02 225.809 255.02C226.604 255.02 227.067 254.358 227.067 253.298Z" fill="#407BFF"/>
<path d="M359.203 287.987C359.203 288.053 289.494 288.186 203.5 288.186C117.506 288.186 47.7979 288.12 47.7979 287.987C47.7979 287.921 117.506 287.789 203.5 287.789C289.494 287.789 359.203 287.855 359.203 287.987Z" fill="#263238"/>
<path d="M169.341 280.44L171.261 287.722L192.577 287.524C192.577 287.524 189.664 285.339 178.94 285.472L177.881 280.44H169.341Z" fill="#FFBE9D"/>
<path d="M146.105 198.154L130.151 199.676L123.663 201.53C120.883 202.324 118.367 203.781 116.249 205.767L95.3295 225.825L91.4899 194.645L81.0303 195.506L82.7515 235.689C84.3403 240.588 88.8419 244.03 94.1379 244.03C97.2493 244.03 100.294 242.706 102.545 240.588L117.44 226.554L115.984 245.023L110.886 256.542L147.429 277.197C147.429 277.197 151.732 255.946 154.049 241.25C155.902 229.334 156.895 203.45 156.895 203.45L146.105 198.154Z" fill="#407BFF"/>
<path d="M155.902 202.986C155.902 202.986 163.979 205.965 165.965 212.321C167.686 217.948 173.512 249.525 173.512 249.525L179.271 282.956L167.223 283.419L153.387 226.421L155.902 202.986Z" fill="#407BFF"/>
<path d="M115.653 244.229C115.587 244.229 116.116 237.808 116.845 229.93C117.573 222.052 118.301 215.631 118.367 215.697C118.433 215.697 117.904 222.118 117.176 229.996C116.447 237.808 115.785 244.229 115.653 244.229Z" fill="#263238"/>
<path d="M142.332 228.474C142.332 228.474 142.332 228.606 142.199 228.805C142.133 229.069 142.001 229.334 141.802 229.665C141.67 230.062 141.471 230.526 141.14 230.989C140.875 231.519 140.61 232.115 140.147 232.71C139.948 233.041 139.75 233.372 139.551 233.703C139.353 234.034 139.088 234.365 138.823 234.696C138.36 235.424 137.764 236.153 137.102 236.881C135.844 238.337 134.321 239.86 132.534 241.25C130.747 242.64 128.959 243.766 127.238 244.692C126.377 245.09 125.517 245.553 124.722 245.818C124.325 245.95 123.928 246.149 123.531 246.281C123.134 246.414 122.803 246.546 122.405 246.678C121.743 246.943 121.081 247.076 120.486 247.208C119.956 247.34 119.426 247.473 119.029 247.539C118.632 247.605 118.367 247.671 118.102 247.671C117.904 247.671 117.771 247.738 117.771 247.671C117.771 247.671 117.904 247.605 118.102 247.539C118.367 247.473 118.632 247.407 119.029 247.34C119.426 247.274 119.89 247.142 120.486 246.943C121.015 246.745 121.677 246.612 122.339 246.347C122.67 246.215 123.067 246.083 123.398 245.95C123.796 245.818 124.127 245.619 124.524 245.487C125.318 245.156 126.113 244.759 126.973 244.295C128.694 243.368 130.482 242.243 132.203 240.853C133.924 239.463 135.447 237.94 136.705 236.55C137.3 235.822 137.896 235.094 138.426 234.432C138.691 234.101 138.955 233.77 139.154 233.439C139.353 233.108 139.551 232.777 139.75 232.446C140.147 231.85 140.478 231.254 140.743 230.724C141.008 230.195 141.272 229.798 141.405 229.4C141.603 229.069 141.736 228.804 141.802 228.54C142.265 228.606 142.265 228.474 142.332 228.474Z" fill="#263238"/>
<g opacity="0.2">
<g opacity="0.2">
<path opacity="0.2" d="M119.956 247.473C118.765 247.142 118.169 245.685 118.5 244.56C118.831 243.368 119.758 242.508 120.883 241.978C122.008 241.449 123.2 241.25 124.392 240.919C129.489 239.661 134.255 237.013 137.963 233.306C138.294 232.975 138.823 232.578 139.22 232.843C139.816 233.174 139.419 234.034 139.022 234.564C133.858 240.522 127.106 245.09 119.625 247.605" fill="black"/>
</g>
</g>
<path d="M156.432 239.926C156.432 239.926 156.299 239.661 156.167 239.264C156.035 238.801 155.836 238.205 155.637 237.344C155.174 235.755 154.644 233.505 154.115 231.055C153.585 228.606 153.122 226.355 152.791 224.7C152.658 223.906 152.526 223.244 152.46 222.78C152.394 222.317 152.394 222.052 152.394 222.052C152.394 222.052 152.46 222.317 152.592 222.714C152.725 223.244 152.857 223.906 153.056 224.634C153.453 226.355 153.916 228.54 154.446 230.923C154.975 233.372 155.505 235.557 155.902 237.212C156.101 237.94 156.233 238.602 156.299 239.132C156.432 239.661 156.498 239.926 156.432 239.926Z" fill="#263238"/>
<path d="M82.8842 198.551C82.818 198.551 82.6194 197.823 82.5532 196.962C82.487 196.102 82.487 195.374 82.6194 195.374C82.6856 195.374 82.8842 196.102 82.9504 196.962C82.9504 197.823 82.9504 198.551 82.8842 198.551Z" fill="#263238"/>
<path d="M85.9289 198.617C85.8627 198.617 85.7303 197.889 85.6641 196.962C85.5979 196.035 85.6641 195.241 85.7303 195.241C85.7965 195.241 85.9289 195.969 85.9951 196.896C86.0613 197.889 85.9951 198.617 85.9289 198.617Z" fill="#263238"/>
<path d="M88.9739 198.419C88.9077 198.419 88.7753 197.558 88.7091 196.565C88.6429 195.506 88.7091 194.711 88.7753 194.645C88.8415 194.645 88.9739 195.506 89.0401 196.499C89.1063 197.558 89.0401 198.419 88.9739 198.419Z" fill="#263238"/>
<path d="M94.8658 230.592C94.7996 230.592 94.7996 229.334 94.9982 227.811C95.1306 226.289 95.3292 225.097 95.4616 225.097C95.5278 225.097 95.5278 226.355 95.3292 227.878C95.1306 229.4 94.932 230.592 94.8658 230.592Z" fill="#263238"/>
<path d="M169.142 279.977C169.208 279.977 169.473 280.705 169.606 281.632C169.738 282.559 169.804 283.353 169.738 283.353C169.672 283.353 169.407 282.625 169.275 281.698C169.142 280.771 169.076 279.977 169.142 279.977Z" fill="#263238"/>
<path d="M173.115 279.977C173.181 279.977 173.38 280.639 173.512 281.5C173.644 282.36 173.711 283.089 173.578 283.089C173.512 283.089 173.313 282.426 173.181 281.566C173.049 280.639 173.049 279.977 173.115 279.977Z" fill="#263238"/>
<path d="M176.888 279.58C176.954 279.58 177.153 280.374 177.285 281.301C177.418 282.228 177.55 283.022 177.484 283.022C177.418 283.022 177.087 282.294 176.954 281.301C176.756 280.374 176.756 279.58 176.888 279.58Z" fill="#263238"/>
<path d="M162.39 206.892C162.39 206.959 161.53 206.892 160.272 207.157C158.948 207.422 157.227 208.084 155.704 209.408C154.182 210.732 153.255 212.387 152.858 213.645C152.394 214.902 152.328 215.763 152.262 215.697C152.262 215.697 152.262 215.498 152.262 215.101C152.328 214.704 152.394 214.174 152.593 213.512C152.99 212.188 153.851 210.467 155.439 209.077C157.028 207.687 158.882 207.025 160.206 206.826C160.868 206.694 161.397 206.694 161.795 206.694C162.192 206.826 162.39 206.892 162.39 206.892Z" fill="#263238"/>
<path d="M167.355 220.463C167.355 220.529 166.627 220.86 165.369 221.324C164.112 221.787 162.39 222.383 160.404 223.045C158.485 223.641 156.697 224.17 155.373 224.435C154.049 224.766 153.255 224.899 153.255 224.899C153.255 224.832 154.049 224.634 155.307 224.237C156.697 223.839 158.418 223.31 160.272 222.714C162.192 222.118 163.847 221.589 165.237 221.125C166.561 220.662 167.355 220.463 167.355 220.463Z" fill="#FAFAFA"/>
<path d="M172.453 243.501C172.453 243.567 171.658 243.766 170.4 244.03C169.143 244.361 167.355 244.759 165.369 245.156C163.383 245.553 161.596 245.95 160.272 246.149C158.948 246.414 158.153 246.546 158.153 246.48C158.153 246.414 158.948 246.215 160.206 245.95C161.463 245.619 163.251 245.222 165.237 244.825C167.223 244.428 169.01 244.03 170.334 243.832C171.592 243.633 172.453 243.501 172.453 243.501Z" fill="#FAFAFA"/>
<path d="M178.212 272.364C178.212 272.43 177.484 272.43 176.226 272.497C174.968 272.497 173.313 272.563 171.459 272.695C169.606 272.828 167.885 272.96 166.693 273.026C165.501 273.159 164.707 273.225 164.707 273.159C164.707 273.092 165.435 272.96 166.693 272.761C167.885 272.563 169.606 272.43 171.459 272.298C173.313 272.166 175.034 272.166 176.292 272.232C177.484 272.298 178.212 272.364 178.212 272.364Z" fill="#FAFAFA"/>
<path d="M125.186 245.288C125.186 245.354 124.657 245.09 123.796 244.692C122.869 244.229 121.744 243.699 120.552 243.17C119.361 242.574 118.235 242.111 117.308 241.647C116.448 241.25 115.984 240.985 115.984 240.919C115.984 240.853 116.514 241.051 117.375 241.382C118.235 241.713 119.427 242.243 120.685 242.839C121.942 243.435 123.068 244.03 123.862 244.494C124.723 244.891 125.186 245.222 125.186 245.288Z" fill="#FAFAFA"/>
<path d="M151.798 249.79C151.798 249.79 151.533 249.724 151.004 249.525C150.474 249.26 149.746 248.996 148.952 248.598C147.164 247.804 144.781 246.811 142.067 245.686C139.353 244.626 136.837 243.7 135.05 243.038C134.189 242.707 133.461 242.442 132.931 242.243C132.402 242.045 132.137 241.912 132.137 241.912C132.137 241.912 132.402 241.978 132.931 242.111C133.461 242.243 134.189 242.508 135.116 242.773C136.969 243.369 139.419 244.229 142.133 245.355C144.847 246.414 147.297 247.539 149.018 248.334C149.878 248.731 150.607 249.062 151.07 249.327C151.533 249.591 151.798 249.79 151.798 249.79Z" fill="#FAFAFA"/>
<path d="M153.85 230.989C153.85 230.989 153.718 230.989 153.453 230.989C153.188 230.923 152.791 230.923 152.394 230.857C151.401 230.724 150.143 230.459 148.488 230.261C145.244 229.731 140.677 229.003 135.645 228.275C130.614 227.547 126.113 226.951 122.803 226.487C121.214 226.289 119.89 226.09 118.897 225.958C118.5 225.892 118.102 225.825 117.838 225.825C117.573 225.759 117.44 225.759 117.44 225.759C117.44 225.759 117.573 225.759 117.838 225.759C118.102 225.759 118.5 225.825 118.897 225.825C119.824 225.892 121.148 226.024 122.803 226.223C126.113 226.62 130.68 227.149 135.645 227.878C140.677 228.606 145.178 229.4 148.422 229.996C150.077 230.327 151.401 230.526 152.262 230.724C152.659 230.79 153.056 230.857 153.321 230.923C153.784 230.923 153.85 230.989 153.85 230.989Z" fill="#FAFAFA"/>
<path d="M152.394 211.129C152.394 211.195 145.244 210.202 136.373 208.944C127.569 207.62 120.419 206.495 120.419 206.363C120.419 206.296 127.569 207.289 136.439 208.547C145.244 209.871 152.394 210.997 152.394 211.129Z" fill="#FAFAFA"/>
<path d="M114.859 228.474C114.792 228.474 114.461 227.679 113.866 226.355C113.204 224.899 112.409 223.111 111.549 221.125C110.622 219.139 109.827 217.352 109.165 215.896C108.57 214.572 108.172 213.711 108.239 213.711C108.239 213.711 108.371 213.91 108.57 214.241C108.768 214.572 109.033 215.101 109.364 215.763C110.026 217.087 110.887 218.875 111.813 220.927C112.74 222.979 113.535 224.833 114.064 226.223C114.329 226.885 114.528 227.481 114.66 227.878C114.792 228.275 114.859 228.474 114.859 228.474Z" fill="#FAFAFA"/>
<path d="M100.625 242.442C100.559 242.442 99.6322 238.47 98.573 233.505C97.5138 228.54 96.7856 224.501 96.8518 224.501C96.918 224.501 97.8448 228.473 98.904 233.438C99.897 238.403 100.691 242.442 100.625 242.442Z" fill="#FAFAFA"/>
<path d="M94.7335 220.728C94.7335 220.794 91.9531 221.522 88.5107 222.251C85.0683 222.979 82.2217 223.508 82.2217 223.442C82.2217 223.376 85.0021 222.648 88.4445 221.92C91.8869 221.125 94.6673 220.596 94.7335 220.728Z" fill="#FAFAFA"/>
<path d="M92.6151 202.589C92.6151 202.655 92.0193 202.788 90.9601 202.92C89.9671 203.119 88.5107 203.317 86.9881 203.45C85.3993 203.648 84.0091 203.715 82.9499 203.781C81.8907 203.847 81.2949 203.847 81.2949 203.781C81.2949 203.715 81.8907 203.648 82.9499 203.516C84.0753 203.384 85.4655 203.251 86.9219 203.053C88.4445 202.854 89.7685 202.722 90.8939 202.589C91.9531 202.589 92.6151 202.589 92.6151 202.589Z" fill="#FAFAFA"/>
<path d="M97.9771 171.144C98.1757 171.541 103.141 197.095 103.141 197.095L91.4233 197.624L86.8555 175.646L97.9771 171.144Z" fill="#455A64"/>
<path d="M103.141 197.095L104.531 196.499L99.4335 171.343L97.8447 171.21L103.141 197.095Z" fill="#263238"/>
<path d="M93.277 176.771C93.3432 177.102 93.0784 177.433 92.7474 177.433C92.4164 177.499 92.0854 177.235 92.0854 176.904C92.0192 176.573 92.284 176.242 92.615 176.242C92.946 176.175 93.277 176.44 93.277 176.771Z" fill="#263238"/>
<path d="M90.8937 194.711L90.6951 191.335L95.7263 189.283L93.8065 184.649C92.8797 182.464 90.2317 181.604 88.1795 182.729C87.5175 183.06 86.7893 183.457 86.1935 183.788C84.7371 184.583 83.7441 185.907 83.3469 187.496C82.6849 190.21 82.1553 195.903 82.1553 195.638" fill="#FFBE9D"/>
<path d="M77.4554 279.844C77.4554 279.844 56.8672 285.538 56.0066 285.869C54.7488 286.332 54.9474 290.834 56.9334 290.767C57.8602 290.701 72.7552 291.297 74.6088 291.231C76.4624 291.099 82.1556 288.848 82.1556 288.848L77.4554 279.844Z" fill="#407BFF"/>
<path d="M68.9151 287.722C68.7827 287.722 68.6503 286.663 67.9883 285.538C67.3263 284.412 66.4657 283.75 66.5319 283.618C66.5981 283.552 67.5911 284.148 68.3193 285.339C68.9813 286.597 68.9813 287.722 68.9151 287.722Z" fill="#263238"/>
<path d="M71.0345 286.796C70.9021 286.796 70.7035 285.869 70.1739 284.743C69.6443 283.684 68.9823 282.89 69.0485 282.824C69.1147 282.757 69.9091 283.419 70.5049 284.545C71.1007 285.736 71.1007 286.729 71.0345 286.796Z" fill="#263238"/>
<path d="M73.0862 286.2C72.9538 286.2 73.0862 285.141 72.6228 284.015C72.1594 282.89 71.4312 282.161 71.4974 282.095C71.5636 282.029 72.4904 282.625 72.9538 283.883C73.4172 285.14 73.1524 286.266 73.0862 286.2Z" fill="#263238"/>
<path d="M72.6888 283.552C72.6226 283.552 72.4902 282.956 72.4902 282.029C72.4902 281.566 72.5564 280.97 72.6888 280.374C72.755 280.043 72.8874 279.712 73.0198 279.447C73.086 279.315 73.1522 279.116 73.3508 278.918C73.5494 278.719 73.8804 278.785 74.079 278.984C74.2776 279.116 74.3438 279.381 74.3438 279.58C74.3438 279.778 74.3438 279.977 74.3438 280.109C74.3438 280.44 74.2776 280.771 74.2114 281.102C74.079 281.764 73.8142 282.228 73.5494 282.691C73.086 283.552 72.6226 283.949 72.6226 283.949C72.5564 283.949 72.9536 283.419 73.3508 282.625C73.5494 282.228 73.748 281.698 73.8804 281.102C73.9466 280.838 73.9466 280.507 74.0128 280.176C74.0128 279.845 74.0128 279.447 73.8142 279.315C73.748 279.249 73.6156 279.249 73.5494 279.315C73.4832 279.381 73.3508 279.514 73.3508 279.646C73.2184 279.977 73.1522 280.242 73.0198 280.573C72.8874 281.169 72.755 281.698 72.755 282.162C72.6226 282.956 72.755 283.552 72.6888 283.552Z" fill="#263238"/>
<path d="M72.6885 283.353C72.6885 283.287 73.1519 283.155 74.0125 283.155C74.4097 283.155 74.9393 283.221 75.4689 283.353C75.7337 283.419 75.9985 283.486 76.3295 283.684C76.5943 283.817 76.9253 284.214 76.7929 284.611C76.7267 285.008 76.3957 285.273 76.0647 285.339C75.7337 285.405 75.4027 285.405 75.1379 285.339C74.5421 285.207 74.1449 284.942 73.8139 284.677C73.1519 284.148 72.8209 283.75 72.8871 283.75C72.9533 283.684 73.2843 284.015 74.0125 284.479C74.3435 284.677 74.7407 284.942 75.2703 285.008C75.5351 285.074 75.7999 285.074 76.0647 285.008C76.3295 284.942 76.5281 284.743 76.5943 284.545C76.6605 284.346 76.5281 284.081 76.2633 283.949C76.0647 283.817 75.7999 283.75 75.5351 283.684C75.0055 283.552 74.5421 283.486 74.1449 283.419C73.2181 283.353 72.7547 283.419 72.6885 283.353Z" fill="#263238"/>
<path d="M65.7376 287.987C65.6052 287.987 65.7376 287.127 65.3404 286.134C64.9432 285.141 64.2812 284.611 64.3474 284.545C64.4136 284.479 65.2742 284.942 65.6714 286.001C66.0686 287.06 65.8038 287.987 65.7376 287.987Z" fill="#263238"/>
<path d="M80.103 288.914C80.103 288.914 79.8382 289.046 79.3086 289.311C78.779 289.51 77.9846 289.775 76.9916 290.039C75.0056 290.503 72.2252 290.834 69.1138 290.768C66.0024 290.701 63.222 290.569 61.236 290.503C60.3092 290.437 59.4486 290.437 58.8528 290.37C58.257 290.304 57.9922 290.304 57.9922 290.304C57.9922 290.304 58.3232 290.238 58.8528 290.238C59.5148 290.238 60.3092 290.238 61.236 290.238C63.3544 290.304 66.0686 290.304 69.1138 290.37C72.159 290.37 74.9394 290.172 76.9254 289.708C78.9114 289.377 80.103 288.848 80.103 288.914Z" fill="#263238"/>
<path d="M80.6993 289.377C80.6993 289.444 80.1035 289.113 79.1767 288.649C78.2499 288.252 76.7935 287.789 75.2709 287.987C73.7483 288.252 72.6229 289.245 71.8947 289.973C71.1665 290.701 70.7693 291.231 70.7031 291.165C70.7031 291.165 71.0341 290.569 71.6961 289.775C72.0271 289.377 72.4905 288.914 73.0863 288.517C73.6821 288.12 74.4103 287.722 75.2047 287.59C76.8597 287.325 78.3161 287.921 79.2429 288.384C80.2359 288.914 80.6993 289.377 80.6993 289.377Z" fill="#263238"/>
<path d="M99.367 274.218C99.367 274.218 118.83 286.994 119.558 287.524C120.617 288.318 119.426 292.092 117.572 291.43C116.711 291.099 100.36 286.597 98.5726 285.869C96.7852 285.207 92.085 281.301 92.085 281.301L99.367 274.218Z" fill="#407BFF"/>
<path d="M105.126 284.28C105.06 284.28 105.391 283.155 106.45 282.162C107.509 281.235 108.635 280.97 108.635 281.036C108.701 281.102 107.642 281.5 106.649 282.426C105.656 283.353 105.192 284.346 105.126 284.28Z" fill="#263238"/>
<path d="M103.405 282.691C103.338 282.691 103.669 281.698 104.596 280.771C105.457 279.845 106.45 279.447 106.516 279.514C106.582 279.58 105.722 280.109 104.861 280.97C103.934 281.897 103.471 282.757 103.405 282.691Z" fill="#263238"/>
<path d="M101.618 281.566C101.551 281.566 101.618 280.44 102.478 279.447C103.339 278.388 104.398 278.057 104.398 278.19C104.464 278.256 103.537 278.719 102.743 279.712C101.949 280.573 101.75 281.632 101.618 281.566Z" fill="#263238"/>
<path d="M102.809 279.183C102.743 279.183 103.007 278.653 103.272 277.726C103.405 277.263 103.471 276.733 103.471 276.137C103.471 275.806 103.471 275.542 103.471 275.144C103.471 275.012 103.405 274.813 103.338 274.747C103.272 274.681 103.206 274.615 103.074 274.681C102.875 274.747 102.743 275.144 102.61 275.475C102.544 275.806 102.478 276.071 102.412 276.402C102.345 276.998 102.412 277.594 102.478 278.057C102.61 278.984 102.809 279.514 102.743 279.58C102.676 279.58 102.412 279.05 102.213 278.123C102.147 277.66 102.014 277.064 102.081 276.402C102.081 276.071 102.147 275.74 102.279 275.409C102.345 275.211 102.412 275.078 102.478 274.88C102.544 274.681 102.676 274.482 102.941 274.416C103.14 274.284 103.471 274.35 103.603 274.615C103.736 274.813 103.736 275.012 103.736 275.211C103.736 275.542 103.736 275.873 103.736 276.204C103.669 276.866 103.537 277.395 103.405 277.859C103.14 278.653 102.809 279.183 102.809 279.183Z" fill="#263238"/>
<path d="M102.809 278.918C102.809 278.984 102.345 278.719 101.551 278.521C101.154 278.454 100.69 278.322 100.161 278.322C99.896 278.322 99.6312 278.322 99.3664 278.388C99.1016 278.454 98.903 278.587 98.903 278.852C98.903 279.116 99.0354 279.315 99.234 279.447C99.4326 279.58 99.6974 279.646 99.9622 279.712C100.492 279.778 100.955 279.646 101.352 279.58C102.147 279.381 102.61 279.183 102.61 279.183C102.61 279.249 102.213 279.514 101.419 279.778C101.021 279.911 100.492 280.043 99.9622 279.977C99.6974 279.977 99.3664 279.911 99.1016 279.712C98.8368 279.514 98.572 279.183 98.6382 278.785C98.6382 278.388 99.0354 278.057 99.3664 278.057C99.6974 277.991 99.9622 277.991 100.293 277.991C100.823 278.057 101.352 278.123 101.75 278.256C102.412 278.587 102.809 278.918 102.809 278.918Z" fill="#263238"/>
<path d="M115.056 290.701C115.056 290.701 114.725 290.503 114.592 289.973C114.46 289.444 114.526 288.583 114.99 287.855C115.188 287.458 115.453 287.193 115.652 286.862C115.85 286.597 116.115 286.332 116.314 286.134C116.512 285.935 116.777 285.869 116.909 285.869C117.042 285.869 117.174 285.935 117.174 285.935C117.174 286.001 116.843 285.935 116.446 286.332C116.247 286.531 116.049 286.729 115.916 287.06C115.718 287.325 115.519 287.656 115.321 287.987C114.923 288.649 114.791 289.377 114.923 289.907C114.923 290.37 115.122 290.635 115.056 290.701Z" fill="#263238"/>
<path d="M108.105 285.471C108.039 285.471 108.039 284.479 108.767 283.618C109.495 282.691 110.488 282.492 110.488 282.625C110.555 282.691 109.694 283.022 109.032 283.883C108.37 284.611 108.171 285.471 108.105 285.471Z" fill="#263238"/>
<path d="M94.0713 282.029C94.0713 282.029 94.4023 282.228 94.9319 282.625C95.4615 283.022 96.2559 283.552 97.3151 284.081C98.3743 284.677 99.6321 285.207 101.155 285.802C102.611 286.332 104.266 286.862 106.053 287.391C109.562 288.384 112.74 289.311 115.057 290.039C116.182 290.37 117.043 290.635 117.771 290.9C118.433 291.098 118.764 291.231 118.764 291.231C118.764 291.231 118.367 291.165 117.771 291.032C117.043 290.834 116.116 290.569 115.057 290.304C112.74 289.642 109.562 288.781 106.053 287.788C104.332 287.259 102.611 286.729 101.155 286.2C99.6983 285.604 98.3743 285.008 97.3151 284.412C96.2559 283.816 95.4615 283.221 94.9319 282.823C94.3361 282.294 94.0713 282.029 94.0713 282.029Z" fill="#263238"/>
<path d="M93.3428 282.228C93.3428 282.162 93.9386 281.963 94.9978 281.764C96.057 281.632 97.5796 281.5 99.1022 282.294C99.8304 282.691 100.426 283.221 100.823 283.817C101.221 284.412 101.552 284.942 101.75 285.472C102.147 286.465 102.346 287.06 102.28 287.06C102.214 287.06 101.949 286.465 101.485 285.538C101.022 284.611 100.294 283.287 98.9036 282.625C97.5134 281.897 95.9908 281.963 94.9978 282.029C94.0048 282.162 93.409 282.294 93.3428 282.228Z" fill="#263238"/>
<path d="M145.046 173.064L146.303 198.816C146.502 203.185 143.06 206.892 138.624 206.892C134.52 206.892 131.144 203.648 130.945 199.61C130.879 197.69 130.746 196.035 130.746 195.837C130.746 195.837 124.193 195.572 123.398 189.084C123.001 185.973 122.736 179.485 122.604 173.594C122.405 167.305 127.105 161.876 133.394 161.214L133.99 161.148C140.743 160.751 144.847 166.312 145.046 173.064Z" fill="#FFBE9D"/>
<path d="M130.746 195.704C130.746 195.704 134.85 195.572 138.889 192.394C138.889 192.394 137.432 197.293 130.878 197.426L130.746 195.704Z" fill="#EB996E"/>
<path d="M124.656 177.566C124.722 178.029 125.119 178.426 125.649 178.426C126.178 178.426 126.575 177.963 126.509 177.5C126.443 177.036 126.046 176.639 125.516 176.639C124.987 176.705 124.589 177.102 124.656 177.566Z" fill="#263238"/>
<path d="M124.325 176.573C124.457 176.705 125.119 176.109 126.112 175.977C127.105 175.844 127.899 176.308 127.966 176.175C128.032 176.109 127.899 175.911 127.502 175.712C127.171 175.513 126.575 175.381 125.98 175.447C125.384 175.513 124.854 175.778 124.589 176.043C124.325 176.308 124.258 176.506 124.325 176.573Z" fill="#263238"/>
<path d="M134.387 176.771C134.453 177.235 134.85 177.632 135.38 177.632C135.909 177.632 136.307 177.168 136.24 176.705C136.174 176.242 135.777 175.844 135.247 175.844C134.718 175.844 134.387 176.242 134.387 176.771Z" fill="#263238"/>
<path d="M134.123 175.712C134.255 175.844 134.917 175.249 135.91 175.116C136.903 174.984 137.697 175.447 137.764 175.315C137.83 175.249 137.697 175.05 137.3 174.851C136.969 174.653 136.373 174.52 135.778 174.587C135.182 174.653 134.652 174.918 134.387 175.182C134.123 175.381 134.056 175.646 134.123 175.712Z" fill="#263238"/>
<path d="M131.342 183.457C131.342 183.391 130.68 183.391 129.687 183.325C129.422 183.325 129.157 183.325 129.091 183.126C129.025 182.928 129.091 182.663 129.157 182.332C129.356 181.67 129.488 181.008 129.687 180.346C130.415 177.499 130.945 175.116 130.812 175.116C130.68 175.116 130.018 177.367 129.29 180.28C129.091 181.008 128.959 181.67 128.76 182.332C128.694 182.663 128.562 182.994 128.76 183.325C128.826 183.524 129.025 183.656 129.224 183.656C129.422 183.656 129.555 183.656 129.687 183.656C130.68 183.59 131.342 183.524 131.342 183.457Z" fill="#263238"/>
<path d="M134.321 183.855C134.189 183.855 134.255 184.914 133.461 185.841C132.6 186.701 131.475 186.701 131.475 186.9C131.475 186.966 131.739 187.099 132.269 187.032C132.732 186.966 133.394 186.768 133.924 186.238C134.454 185.708 134.586 185.046 134.586 184.583C134.52 184.053 134.387 183.789 134.321 183.855Z" fill="#263238"/>
<path d="M133.394 171.806C133.526 172.071 134.519 171.806 135.711 171.872C136.902 171.872 137.895 172.071 138.028 171.806C138.094 171.674 137.895 171.475 137.498 171.21C137.101 171.012 136.439 170.813 135.777 170.813C135.049 170.813 134.453 171.012 134.056 171.21C133.592 171.475 133.394 171.674 133.394 171.806Z" fill="#263238"/>
<path d="M124.39 173.66C124.589 173.858 125.251 173.527 126.045 173.461C126.84 173.329 127.568 173.461 127.7 173.196C127.767 173.064 127.634 172.865 127.303 172.667C126.972 172.468 126.443 172.336 125.913 172.468C125.317 172.534 124.854 172.799 124.589 173.064C124.324 173.329 124.258 173.527 124.39 173.66Z" fill="#263238"/>
<path d="M145.046 177.897C145.178 177.83 149.349 176.109 149.68 180.545C150.011 184.98 145.509 184.384 145.509 184.318C145.443 184.186 145.046 177.897 145.046 177.897Z" fill="#FFBE9D"/>
<path d="M146.701 182.531C146.701 182.531 146.767 182.597 146.9 182.597C147.032 182.663 147.231 182.663 147.496 182.531C147.959 182.332 148.29 181.538 148.224 180.743C148.224 180.346 148.091 179.949 147.893 179.684C147.76 179.353 147.496 179.154 147.297 179.154C147.032 179.088 146.9 179.287 146.834 179.419C146.767 179.552 146.834 179.618 146.767 179.618C146.767 179.618 146.635 179.552 146.701 179.353C146.701 179.287 146.767 179.154 146.834 179.088C146.966 179.022 147.098 178.956 147.231 178.956C147.562 178.956 147.893 179.221 148.091 179.552C148.29 179.883 148.422 180.346 148.489 180.743C148.555 181.67 148.158 182.531 147.496 182.729C147.165 182.862 146.9 182.729 146.767 182.663C146.701 182.597 146.701 182.531 146.701 182.531Z" fill="#EB996E"/>
<path d="M147.495 177.499C146.833 177.433 145.707 178.161 145.509 178.823C145.31 179.485 145.31 180.214 145.112 180.876C144.913 181.538 144.317 182.2 143.589 182.067C143.126 182.001 142.728 181.604 142.53 181.14C142.331 180.677 142.331 180.214 142.331 179.684C142.331 177.566 142.596 175.513 142.397 173.395C142.265 171.277 141.735 169.158 140.411 167.503C139.154 165.848 136.969 164.789 134.917 165.186C133.527 165.451 132.401 166.312 131.011 166.643C129.422 167.04 127.635 166.643 126.377 165.65C126.245 165.517 125.45 165.12 125.45 165.12C125.45 164.988 125.45 164.061 125.781 163.73C128.231 160.949 132.997 159.692 136.704 160.221C140.411 160.751 143.986 162.869 145.906 166.047C147.892 169.291 147.958 173.991 147.495 177.499Z" fill="#263238"/>
<path d="M75.1377 279.646C75.1377 279.646 122.934 248.267 124.92 247.605C126.906 246.943 131.606 243.832 136.307 245.156C141.007 246.48 145.31 250.717 147.428 256.873C149.547 263.096 149.679 276.932 149.679 276.932C149.679 276.932 145.906 287.855 138.557 290.172C137.961 290.37 137.3 290.503 136.638 290.635C127.701 292.423 118.565 288.318 113.534 280.639L112.474 278.984C112.474 278.984 81.2281 290.503 80.6985 290.304L75.1377 279.646Z" fill="#43505F"/>
<path d="M58.8529 243.037C58.8529 243.037 53.0273 245.156 52.9611 251.71C52.8949 264.288 78.3157 278.123 78.3157 278.123L112.144 255.682V253.298C112.144 253.365 68.6505 237.675 58.8529 243.037Z" fill="#445465"/>
<path d="M134.254 271.04C134.254 271.04 134.188 271.106 133.99 271.172C133.791 271.239 133.526 271.371 133.195 271.503C132.467 271.768 131.474 272.165 130.15 272.695C127.502 273.688 123.662 275.144 118.896 276.932C114.13 278.719 108.37 280.838 101.949 283.155C95.5274 285.472 88.3778 288.053 80.7648 290.635L80.6324 290.701L80.5662 290.569C79.3746 288.318 78.1168 285.869 76.859 283.419C76.197 282.162 75.535 280.904 74.9392 279.778L74.873 279.646L75.0054 279.58C89.3708 270.444 102.214 262.302 111.482 256.41C116.116 253.497 119.823 251.114 122.405 249.525C123.662 248.731 124.655 248.069 125.384 247.671C125.715 247.473 125.979 247.34 126.178 247.208C126.377 247.076 126.443 247.076 126.443 247.076C126.443 247.076 126.377 247.142 126.178 247.274C125.979 247.407 125.715 247.539 125.45 247.804C124.788 248.267 123.795 248.863 122.537 249.724C119.955 251.379 116.248 253.762 111.614 256.741C102.346 262.633 89.5694 270.841 75.204 279.977L75.2702 279.778C75.866 280.904 76.528 282.162 77.19 283.419C78.4478 285.869 79.7056 288.252 80.8972 290.569L80.6986 290.503C88.3116 287.921 95.4612 285.405 101.883 283.088C108.304 280.771 114.063 278.653 118.83 276.932C123.596 275.144 127.436 273.754 130.15 272.761C131.474 272.298 132.467 271.901 133.195 271.636C133.526 271.503 133.791 271.437 133.99 271.371C134.188 271.04 134.254 271.04 134.254 271.04Z" fill="#455A64"/>
<path d="M95.0642 267.002C95.0642 267.002 94.7332 266.803 94.2036 266.406C93.674 266.009 92.8796 265.413 91.8866 264.685C89.9668 263.162 87.3188 261.044 84.4722 258.661C81.6256 256.211 79.11 253.96 77.3888 252.239C76.5282 251.379 75.8 250.717 75.3366 250.187C74.8732 249.724 74.6084 249.393 74.6084 249.393C74.6084 249.393 74.9394 249.591 75.4028 250.055C75.9324 250.584 76.6606 251.18 77.5212 251.974C79.3086 253.629 81.8242 255.88 84.6708 258.33C87.5174 260.779 90.0992 262.897 92.019 264.486C92.9458 265.214 93.674 265.876 94.2698 266.34C94.7332 266.737 95.0642 267.002 95.0642 267.002Z" fill="#455A64"/>
<path d="M68.3857 247.738C68.3857 247.671 69.9083 247.473 71.6295 248.002C73.4169 248.532 74.6085 249.459 74.5423 249.525C74.4761 249.591 73.2845 248.797 71.5633 248.333C69.8421 247.87 68.3857 247.87 68.3857 247.738Z" fill="#455A64"/>
<path d="M71.2981 245.752C71.2981 245.685 72.4235 246.149 73.2841 247.274C74.2109 248.4 74.4095 249.525 74.3433 249.525C74.2771 249.591 73.8799 248.532 73.0193 247.473C72.2249 246.48 71.2319 245.884 71.2981 245.752Z" fill="#455A64"/>
<path d="M56.9995 285.538C56.9995 285.472 57.3967 285.405 57.8601 285.803C58.3235 286.2 58.7207 286.928 58.8531 287.789C58.9855 288.649 58.7869 289.444 58.5221 289.973C58.2573 290.503 57.9925 290.701 57.9925 290.701C57.9263 290.701 58.1249 290.37 58.3235 289.907C58.5221 289.377 58.6545 288.649 58.5221 287.855C58.3897 287.06 58.0587 286.398 57.7277 286.001C57.3305 285.604 56.9333 285.604 56.9995 285.538Z" fill="#263238"/>
<path d="M337.82 249.459H291.612V255.814H337.82V249.459Z" fill="#263238"/>
<path d="M337.886 255.88H291.546V249.393H337.886V255.88ZM291.678 255.748H337.687V249.591H291.678V255.748Z" fill="#263238"/>
<path d="M295.915 253.696L302.535 286.465H327.161L333.583 255.814L295.915 253.696Z" fill="#263238"/>
<path d="M295.915 283.353L299.424 288.252H329.346L333.583 283.353H295.915Z" fill="#455A64"/>
<path d="M312.994 254.622C312.928 254.622 312.796 239.463 312.73 220.662C312.663 201.927 312.73 186.701 312.796 186.701C312.862 186.701 312.994 201.861 313.061 220.662C313.127 239.463 313.061 254.622 312.994 254.622Z" fill="#263238"/>
<path d="M323.256 216.624C323.256 216.624 323.256 216.756 323.123 216.955C322.991 217.219 322.858 217.55 322.726 217.948C322.66 218.146 322.527 218.411 322.395 218.676C322.329 218.941 322.196 219.205 322.064 219.536C321.932 219.867 321.865 220.198 321.733 220.529C321.601 220.86 321.534 221.258 321.402 221.655C320.872 223.244 320.475 225.163 320.078 227.282C319.747 229.466 319.482 231.85 319.35 234.365C319.151 239.396 319.416 243.964 319.747 247.274C319.879 248.929 320.078 250.253 320.144 251.18C320.21 251.643 320.21 251.974 320.277 252.239C320.277 252.504 320.277 252.636 320.277 252.636C320.277 252.636 320.21 252.504 320.21 252.305C320.144 252.041 320.078 251.71 320.012 251.246C319.879 250.319 319.681 248.995 319.482 247.34C319.085 244.03 318.82 239.463 319.019 234.365C319.151 231.85 319.416 229.4 319.747 227.282C320.144 225.097 320.608 223.177 321.137 221.589C321.27 221.191 321.402 220.794 321.534 220.463C321.667 220.132 321.799 219.801 321.932 219.47C322.064 219.139 322.13 218.874 322.263 218.61C322.395 218.345 322.461 218.146 322.594 217.881C322.792 217.484 322.925 217.153 323.057 216.888C323.189 216.756 323.256 216.624 323.256 216.624Z" fill="#263238"/>
<path d="M322.064 204.31C322.064 204.31 321.997 204.509 321.931 204.84C321.799 205.171 321.666 205.634 321.468 206.23C321.335 206.561 321.269 206.892 321.137 207.223C321.004 207.62 320.872 208.018 320.74 208.481C320.475 209.342 320.144 210.335 319.879 211.46C319.747 211.99 319.548 212.585 319.416 213.247C319.283 213.843 319.151 214.505 318.952 215.167C318.621 216.491 318.423 217.948 318.092 219.404C317.562 222.449 317.165 225.759 316.834 229.268C316.569 232.776 316.437 236.153 316.37 239.198C316.37 242.243 316.37 245.023 316.503 247.34C316.569 248.466 316.635 249.525 316.701 250.452C316.768 251.379 316.834 252.173 316.9 252.835C316.966 253.431 316.966 253.96 317.032 254.291C317.032 254.622 317.032 254.821 317.032 254.821C317.032 254.821 316.966 254.622 316.966 254.291C316.9 253.894 316.834 253.431 316.768 252.835C316.701 252.173 316.635 251.379 316.569 250.452C316.503 249.525 316.37 248.466 316.37 247.34C316.238 245.023 316.172 242.243 316.172 239.198C316.172 236.153 316.304 232.776 316.635 229.202C316.966 225.693 317.43 222.317 317.959 219.272C318.29 217.749 318.489 216.359 318.82 215.035C318.952 214.373 319.151 213.711 319.283 213.115C319.482 212.519 319.614 211.923 319.747 211.328C320.011 210.202 320.342 209.209 320.673 208.349C320.806 207.885 320.938 207.488 321.071 207.157C321.203 206.76 321.335 206.429 321.468 206.164C321.666 205.568 321.865 205.105 321.997 204.774C321.997 204.509 322.064 204.31 322.064 204.31Z" fill="#263238"/>
<path d="M310.081 257.337C310.081 257.337 310.081 257.27 310.081 257.138C310.081 257.006 310.081 256.807 310.015 256.608C310.015 256.145 309.949 255.483 309.883 254.622C309.75 252.835 309.618 250.319 309.419 247.208C309.022 240.985 308.426 232.313 307.367 222.847C306.837 218.08 306.176 213.579 305.58 209.54C305.249 207.488 304.918 205.568 304.587 203.781C304.256 201.994 303.925 200.272 303.594 198.75C303.263 197.227 302.932 195.837 302.667 194.645C302.402 193.454 302.137 192.395 301.939 191.534C301.74 190.673 301.542 190.078 301.475 189.548C301.409 189.349 301.409 189.151 301.343 189.018C301.343 188.886 301.277 188.82 301.343 188.82C301.343 188.82 301.343 188.886 301.409 189.018C301.475 189.151 301.475 189.283 301.542 189.548C301.674 190.011 301.873 190.673 302.071 191.468C302.336 192.328 302.601 193.321 302.866 194.579C303.13 195.771 303.528 197.161 303.859 198.684C304.19 200.206 304.587 201.861 304.918 203.715C305.315 205.502 305.58 207.488 305.977 209.474C306.639 213.579 307.301 218.08 307.83 222.847C308.89 232.379 309.419 240.985 309.75 247.208C309.949 250.319 310.015 252.835 310.081 254.622C310.081 255.483 310.147 256.145 310.147 256.608C310.147 256.807 310.147 257.006 310.147 257.138C310.081 257.27 310.081 257.337 310.081 257.337Z" fill="#263238"/>
<path d="M312.597 194.116C312.398 191.931 310.214 190.342 308.029 190.342C305.845 190.342 303.859 191.6 302.535 193.321C301.211 195.042 300.482 197.095 299.887 199.213C298.43 204.31 297.636 209.606 298.232 214.836C298.827 220.066 301.012 225.23 304.719 228.937C305.315 229.533 306.109 230.128 306.97 229.93C307.433 229.864 307.831 229.533 308.162 229.202C315.576 222.515 319.813 212.519 319.548 202.589C319.482 200.603 319.217 198.551 318.158 196.896C317.032 195.175 314.451 193.454 312.597 194.116Z" fill="#74C1C7"/>
<path d="M296.445 176.837C295.452 178.691 294.392 180.545 293.399 182.332C293.333 182.464 293.267 182.597 293.068 182.597C292.936 182.597 292.804 182.464 292.671 182.332C289.957 178.228 287.309 174.123 284.595 169.953L286.448 168.893L296.445 176.837Z" fill="#74C1C7"/>
<g opacity="0.2">
<g opacity="0.2">
<g opacity="0.2">
<path opacity="0.2" d="M296.445 176.837C295.452 178.691 294.392 180.545 293.399 182.332C293.333 182.464 293.267 182.597 293.068 182.597C292.936 182.597 292.804 182.464 292.671 182.332C289.957 178.228 287.309 174.123 284.595 169.953L286.448 168.893L296.445 176.837Z" fill="black"/>
</g>
</g>
</g>
<path d="M312.797 186.767C303.661 181.339 294.46 175.977 285.324 170.548C285.059 170.416 284.728 170.217 284.662 169.886C284.53 169.489 284.861 169.092 285.125 168.761C288.899 164.855 294.393 162.604 299.822 163.002C305.25 163.399 310.414 166.51 313.062 171.277C315.71 176.043 315.842 182.266 312.797 186.767Z" fill="#74C1C7"/>
<path d="M289.295 165.385C289.295 165.385 289.427 165.385 289.626 165.319C289.891 165.319 290.222 165.252 290.685 165.252C291.612 165.252 292.87 165.319 294.525 165.583C296.114 165.848 297.967 166.378 299.953 167.238C301.939 168.099 303.925 169.357 305.779 171.012C307.632 172.667 309.089 174.587 310.148 176.44C311.207 178.294 311.935 180.081 312.333 181.67C312.73 183.259 312.928 184.517 312.995 185.443C313.061 185.907 313.061 186.238 313.061 186.503C313.061 186.767 313.061 186.834 313.061 186.834C313.061 186.834 312.995 186.37 312.862 185.443C312.73 184.583 312.531 183.259 312.068 181.736C311.207 178.691 309.155 174.587 305.58 171.277C301.939 167.967 297.636 166.378 294.525 165.848C292.936 165.583 291.678 165.451 290.751 165.451C289.758 165.451 289.295 165.451 289.295 165.385Z" fill="#263238"/>
<path d="M309.088 175.58C309.088 175.646 308.559 175.844 307.698 176.242C306.838 176.573 305.58 177.036 304.256 177.433C302.866 177.897 301.608 178.228 300.747 178.426C299.82 178.625 299.291 178.757 299.225 178.691C299.225 178.625 299.754 178.492 300.681 178.161C301.674 177.83 302.866 177.499 304.19 177.036C305.514 176.639 306.639 176.242 307.698 175.911C308.493 175.712 309.022 175.58 309.088 175.58Z" fill="#263238"/>
<path d="M304.72 163.995C304.786 163.995 304.985 165.385 305.051 167.04C305.117 168.761 304.985 170.151 304.852 170.085C304.786 170.085 304.72 168.695 304.72 167.04C304.72 165.385 304.654 163.995 304.72 163.995Z" fill="#263238"/>
<path d="M285.058 170.284C285.058 170.217 285.786 169.953 287.044 169.555C288.301 169.158 290.023 168.695 291.942 168.231C293.862 167.768 295.65 167.437 296.907 167.172C298.165 166.974 299.026 166.841 299.026 166.907C299.026 166.974 298.231 167.106 296.974 167.437C295.716 167.702 293.928 168.099 292.009 168.562C290.089 169.026 288.368 169.489 287.044 169.82C285.918 170.151 285.124 170.35 285.058 170.284Z" fill="#263238"/>
<path d="M300.152 189.018C297.768 187.231 295.319 186.9 292.34 186.966C289.361 187.098 286.514 187.959 283.8 189.151C279.166 191.203 274.797 194.182 272.083 198.419C269.302 202.655 268.376 208.216 270.428 212.85C270.626 213.314 270.891 213.777 271.355 213.976C271.818 214.174 272.414 214.042 272.877 213.843C278.173 212.122 283.469 210.401 288.302 207.687C293.134 204.972 297.57 201.265 300.152 196.366C300.747 195.175 301.277 193.917 301.409 192.593C301.409 191.335 301.078 189.945 300.152 189.018Z" fill="#74C1C7"/>
<path d="M300.152 188.422C300.152 188.422 300.02 188.489 299.755 188.555C299.49 188.621 299.093 188.753 298.63 188.952C298.365 189.018 298.1 189.151 297.835 189.217C297.57 189.349 297.239 189.482 296.908 189.548C296.246 189.813 295.452 190.077 294.658 190.475C294.26 190.673 293.797 190.872 293.334 191.07C292.87 191.269 292.407 191.534 291.943 191.799C291.017 192.262 290.024 192.858 288.964 193.454C286.978 194.711 284.794 196.234 282.742 198.088C280.689 199.941 278.902 201.861 277.379 203.715C276.651 204.641 275.923 205.568 275.327 206.429C274.996 206.892 274.731 207.289 274.467 207.687C274.202 208.084 273.937 208.481 273.738 208.878C273.275 209.606 272.878 210.401 272.547 210.997C272.348 211.328 272.216 211.592 272.083 211.857C271.951 212.122 271.819 212.387 271.686 212.585C271.488 212.983 271.289 213.38 271.157 213.645C271.024 213.909 270.958 213.976 270.958 213.976C270.958 213.976 271.024 213.843 271.09 213.578C271.223 213.314 271.355 212.916 271.554 212.519C271.686 212.254 271.752 212.056 271.885 211.725C272.017 211.46 272.15 211.129 272.348 210.798C272.679 210.136 273.01 209.408 273.54 208.68C273.805 208.282 274.003 207.885 274.268 207.488C274.533 207.091 274.864 206.627 275.129 206.23C275.724 205.303 276.453 204.443 277.181 203.516C278.703 201.662 280.491 199.676 282.609 197.889C284.728 196.035 286.846 194.513 288.898 193.255C289.957 192.659 290.884 192.063 291.877 191.6C292.341 191.335 292.804 191.137 293.267 190.938C293.731 190.739 294.128 190.541 294.591 190.342C295.386 189.945 296.18 189.68 296.842 189.482C297.173 189.349 297.504 189.217 297.769 189.151C298.034 189.084 298.365 188.952 298.563 188.886C299.027 188.753 299.424 188.621 299.689 188.555C300.02 188.489 300.152 188.422 300.152 188.422Z" fill="#263238"/>
<path d="M281.748 198.419C281.748 198.485 279.232 199.345 275.989 200.272C272.811 201.199 270.163 201.927 270.163 201.795C270.163 201.729 272.679 200.868 275.922 199.941C279.1 199.014 281.682 198.352 281.748 198.419Z" fill="#263238"/>
<path d="M281.483 211.129C281.417 211.129 281.417 210.467 281.351 209.342C281.351 208.216 281.285 206.694 281.351 205.039C281.417 203.317 281.483 201.795 281.549 200.736C281.616 199.61 281.748 198.948 281.748 198.948C281.814 198.948 281.814 199.61 281.748 200.736C281.682 201.927 281.682 203.45 281.616 205.039C281.549 206.694 281.549 208.15 281.483 209.342C281.549 210.401 281.549 211.129 281.483 211.129Z" fill="#263238"/>
<path d="M292.34 205.568C292.274 205.568 291.943 202.457 291.678 198.617C291.413 194.778 291.281 191.666 291.347 191.666C291.413 191.666 291.744 194.778 292.009 198.617C292.274 202.457 292.406 205.568 292.34 205.568Z" fill="#263238"/>
<path d="M278.835 191.335C278.835 191.269 279.563 191.269 280.689 191.269C281.814 191.269 283.403 191.335 285.124 191.335C286.845 191.401 288.434 191.468 289.559 191.534C290.685 191.6 291.413 191.666 291.413 191.732C291.413 191.799 290.685 191.799 289.559 191.799C288.434 191.799 286.845 191.732 285.124 191.732C283.403 191.666 281.814 191.6 280.689 191.534C279.497 191.468 278.835 191.401 278.835 191.335Z" fill="#263238"/>
<path d="M305.977 230.393C305.977 230.393 305.977 230.261 305.911 229.996C305.911 229.731 305.911 229.334 305.845 228.937C305.778 228.01 305.778 226.62 305.845 224.965C305.845 223.31 305.977 221.324 306.176 219.073C306.374 216.888 306.705 214.439 307.169 211.923C307.632 209.408 308.162 207.025 308.757 204.906C309.353 202.788 309.949 200.868 310.479 199.279C311.008 197.69 311.472 196.433 311.869 195.572C312.067 195.175 312.2 194.844 312.266 194.579C312.332 194.38 312.398 194.248 312.465 194.248C312.465 194.248 312.465 194.38 312.332 194.579C312.266 194.844 312.134 195.175 312.001 195.572C311.67 196.433 311.207 197.757 310.743 199.345C310.214 200.934 309.684 202.854 309.088 204.972C308.559 207.091 308.029 209.474 307.566 211.99C307.102 214.505 306.838 216.888 306.573 219.139C306.374 221.324 306.242 223.31 306.176 225.031C306.109 226.686 306.109 228.076 306.109 229.003C306.109 229.466 306.109 229.797 306.109 230.062C305.977 230.261 305.977 230.393 305.977 230.393Z" fill="#263238"/>
<path d="M307.434 211.659C307.434 211.659 307.037 212.122 306.309 212.85C305.58 213.578 304.587 214.505 303.462 215.498C302.337 216.491 301.211 217.352 300.417 218.014C299.622 218.61 299.093 219.007 299.093 218.941C299.093 218.874 299.556 218.477 300.284 217.815C301.145 217.087 302.138 216.226 303.263 215.233C304.389 214.24 305.382 213.38 306.176 212.652C306.904 211.99 307.368 211.592 307.434 211.659Z" fill="#263238"/>
<path d="M316.106 218.61C316.039 218.61 315.642 218.014 314.914 217.021C314.186 215.895 313.259 214.571 312.2 213.049C311.141 211.526 310.214 210.202 309.419 209.143C308.691 208.15 308.294 207.488 308.294 207.488C308.36 207.488 308.824 208.018 309.618 209.011C310.412 210.004 311.405 211.328 312.465 212.85C313.524 214.373 314.451 215.829 315.113 216.888C315.775 217.948 316.172 218.61 316.106 218.61Z" fill="#263238"/>
<path d="M311.538 196.631C311.604 196.697 308.691 198.684 305.116 201.001C301.475 203.318 298.562 205.171 298.496 205.039C298.43 204.972 301.343 202.987 304.918 200.67C308.559 198.353 311.538 196.565 311.538 196.631Z" fill="#263238"/>
<path d="M319.68 205.37C319.614 205.436 317.694 203.648 315.311 201.332C312.994 199.015 311.141 197.095 311.207 197.029C311.273 196.962 313.193 198.75 315.576 201.067C317.893 203.45 319.747 205.303 319.68 205.37Z" fill="#263238"/>
<path d="M321.733 205.237L324.183 205.039C325.97 204.906 327.625 204.377 329.214 203.516C329.942 203.119 330.737 202.655 331.531 202.324C334.576 201.067 338.019 201.331 341.329 201.133C346.691 200.868 352.053 199.478 356.886 197.161C357.15 197.028 357.415 196.83 357.548 196.565C358.077 195.638 357.084 194.844 356.29 194.314C352.119 191.732 347.882 189.151 343.116 187.827C338.35 186.569 332.987 186.767 328.949 189.548C324.249 192.792 322.528 199.544 321.733 205.237Z" fill="#74C1C7"/>
<path d="M357.614 196.234C357.614 196.234 357.482 196.168 357.217 196.035C356.952 195.903 356.555 195.704 356.025 195.44C355.032 194.91 353.51 194.116 351.656 193.255C349.802 192.394 347.552 191.401 344.97 190.673C342.388 189.945 339.343 189.548 336.298 189.945C333.186 190.342 330.406 191.534 328.354 193.321C326.301 195.109 325.11 197.293 324.249 199.147C323.389 201 322.859 202.589 322.462 203.648C322.263 204.178 322.131 204.575 321.998 204.906C321.866 205.171 321.866 205.37 321.8 205.303C321.8 205.303 321.8 205.171 321.932 204.84C321.998 204.509 322.131 204.112 322.329 203.582C322.66 202.457 323.19 200.868 324.051 199.014C324.911 197.161 326.103 194.91 328.221 193.056C330.273 191.203 333.186 189.945 336.298 189.548C339.475 189.151 342.52 189.548 345.102 190.276C347.75 191.004 350.001 192.063 351.855 192.924C353.708 193.851 355.165 194.645 356.158 195.241C356.621 195.506 357.018 195.771 357.283 195.903C357.482 196.168 357.614 196.234 357.614 196.234Z" fill="#263238"/>
<path d="M351.656 199.412C351.589 199.478 348.346 197.359 344.44 194.711C340.468 192.063 337.356 189.813 337.356 189.746C337.423 189.68 340.666 191.799 344.572 194.447C348.544 197.161 351.722 199.345 351.656 199.412Z" fill="#263238"/>
<path d="M348.545 189.482C348.545 189.548 347.419 189.879 346.029 190.011C344.639 190.144 343.447 190.077 343.447 189.945C343.447 189.879 344.573 189.813 346.029 189.68C347.419 189.548 348.545 189.415 348.545 189.482Z" fill="#263238"/>
<path d="M334.047 186.9C334.113 186.966 333.65 187.893 332.988 189.018C332.326 190.144 331.73 191.004 331.664 191.004C331.597 190.938 332.061 190.011 332.723 188.886C333.385 187.694 333.981 186.834 334.047 186.9Z" fill="#263238"/>
<path d="M336.959 201.331C336.959 201.398 336.363 201.067 335.37 200.471C334.444 199.875 333.186 199.081 331.796 198.088C330.472 197.095 329.28 196.168 328.419 195.506C327.559 194.844 327.029 194.38 327.095 194.38C327.095 194.314 327.691 194.711 328.552 195.373C329.545 196.102 330.67 196.962 331.994 197.889C333.318 198.882 334.576 199.743 335.503 200.338C336.43 200.934 336.959 201.331 336.959 201.331Z" fill="#263238"/>
<path d="M325.373 215.763C322.99 215.167 320.21 217.418 319.68 219.801C319.217 222.184 320.077 224.634 321.137 226.885C323.454 231.783 326.697 236.285 330.934 239.661C335.171 243.037 340.467 245.222 345.895 245.156C344.902 240.522 346.16 235.689 345.631 230.923C345.167 226.818 343.247 222.846 340.268 219.934C337.356 217.021 333.384 215.167 329.279 214.704C327.757 214.571 325.969 214.373 325.373 215.763Z" fill="#74C1C7"/>
<path d="M345.895 245.156C345.895 245.156 345.763 245.09 345.564 245.023C345.366 244.891 345.035 244.692 344.704 244.428C343.976 243.832 343.115 242.773 342.387 241.316C341.99 240.588 341.592 239.794 341.195 238.933C340.798 238.072 340.401 237.079 339.937 236.153C339.474 235.16 339.011 234.167 338.349 233.174C337.753 232.181 337.025 231.188 336.23 230.261C334.641 228.341 332.854 226.686 331.398 225.163C329.875 223.575 328.617 222.118 327.69 220.728C326.764 219.338 326.168 218.146 325.903 217.286C325.771 216.822 325.638 216.491 325.572 216.293C325.506 216.028 325.506 215.962 325.506 215.962C325.506 215.962 325.638 216.425 326.035 217.286C326.366 218.146 326.962 219.338 327.889 220.662C328.816 221.986 330.074 223.508 331.596 225.031C333.119 226.554 334.84 228.209 336.495 230.128C337.289 231.055 338.018 232.048 338.68 233.107C339.275 234.1 339.805 235.16 340.268 236.153C340.732 237.146 341.129 238.072 341.526 238.999C341.923 239.86 342.321 240.654 342.718 241.382C343.446 242.839 344.24 243.898 344.902 244.494C345.432 244.891 345.962 245.156 345.895 245.156Z" fill="#263238"/>
<path d="M333.714 241.316C333.648 241.316 333.714 240.721 333.913 239.728C334.111 238.735 334.376 237.411 334.84 235.954C335.237 234.498 335.7 233.174 336.031 232.247C336.362 231.32 336.627 230.791 336.693 230.791C336.759 230.791 336.561 231.386 336.296 232.313C336.031 233.24 335.634 234.564 335.171 236.02C334.773 237.477 334.442 238.801 334.178 239.728C333.913 240.721 333.714 241.316 333.714 241.316Z" fill="#263238"/>
<path d="M345.432 229.93C345.432 229.996 344.77 229.797 343.777 229.533C342.784 229.268 341.327 228.871 339.805 228.54C338.216 228.209 336.826 227.944 335.766 227.745C334.707 227.547 334.111 227.414 334.111 227.348C334.111 227.282 334.773 227.348 335.833 227.481C336.892 227.613 338.348 227.878 339.871 228.209C341.46 228.54 342.85 228.937 343.843 229.268C344.836 229.665 345.498 229.864 345.432 229.93Z" fill="#263238"/>
<path d="M324.91 233.24C324.844 233.24 324.976 232.512 325.175 231.386C325.373 230.261 325.704 228.738 326.168 227.017C326.631 225.296 327.094 223.84 327.425 222.714C327.823 221.655 328.087 220.993 328.087 220.993C328.154 220.993 327.955 221.721 327.624 222.78C327.293 223.906 326.896 225.428 326.432 227.083C325.969 228.805 325.638 230.327 325.373 231.453C325.108 232.578 324.976 233.24 324.91 233.24Z" fill="#263238"/>
<path d="M340.07 220C340.07 220.066 337.091 219.867 333.45 219.47C329.809 219.073 326.896 218.676 326.896 218.61C326.896 218.543 329.875 218.742 333.516 219.139C337.091 219.536 340.07 219.867 340.07 220Z" fill="#263238"/>
<path d="M337.886 255.748C337.886 255.814 327.493 255.88 314.716 255.88C301.939 255.88 291.546 255.814 291.546 255.748C291.546 255.682 301.939 255.615 314.716 255.615C327.493 255.615 337.886 255.682 337.886 255.748Z" fill="#455A64"/>
<path d="M330.67 269.12C330.67 269.186 323.653 269.253 315.047 269.253C306.441 269.253 299.424 269.186 299.424 269.12C299.424 269.054 306.441 268.988 315.047 268.988C323.653 268.988 330.67 269.054 330.67 269.12Z" fill="#455A64"/>
<path d="M330.935 271.04C330.935 271.106 323.918 271.173 315.312 271.173C306.706 271.173 299.688 271.106 299.688 271.04C299.688 270.974 306.706 270.908 315.312 270.908C323.918 270.841 330.935 270.974 330.935 271.04Z" fill="#455A64"/>
<path d="M330.934 267.531C330.934 267.598 323.719 267.664 314.782 267.664C305.845 267.664 298.629 267.598 298.629 267.531C298.629 267.465 305.845 267.399 314.782 267.399C323.719 267.399 330.934 267.465 330.934 267.531Z" fill="#455A64"/>
</svg>
