<svg width="407" height="300" viewBox="0 0 407 300" fill="none" xmlns="http://www.w3.org/2000/svg">
<path d="M343.176 100.192H382.71C382.71 100.192 379.2 93.8567 369.039 94.7792C359.31 95.6403 358.817 91.6425 353.891 91.1505C348.964 90.6584 344.838 94.4717 343.176 100.192Z" fill="#F5F5F5"/>
<path d="M189.473 57.2614H257.765C257.765 57.2614 251.73 46.3135 234.118 47.8512C217.307 49.3888 216.445 42.4388 207.947 41.5777C199.449 40.7781 192.367 47.2976 189.473 57.2614Z" fill="#EBEBEB"/>
<path d="M323.737 62.7368C326.529 60.2498 326.773 55.9731 324.283 53.1846C321.793 50.3961 317.511 50.1516 314.719 52.6386C311.927 55.1256 311.683 59.4023 314.173 62.1909C316.663 64.9794 320.945 65.2238 323.737 62.7368Z" fill="#EBEBEB"/>
<path d="M319.162 70.9154C319.101 70.9154 319.039 69.1318 319.039 66.9791C319.039 64.8265 319.101 63.0428 319.162 63.0428C319.224 63.0428 319.285 64.8265 319.285 66.9791C319.285 69.1318 319.224 70.9154 319.162 70.9154Z" fill="#EBEBEB"/>
<path d="M331.972 57.6919C331.972 57.7534 330.125 57.8149 327.908 57.8149C325.63 57.8149 323.844 57.7534 323.844 57.6919C323.844 57.6304 325.691 57.5689 327.908 57.5689C330.187 57.5689 331.972 57.6304 331.972 57.6919Z" fill="#EBEBEB"/>
<path d="M319.225 46.252C319.287 46.252 319.349 47.8512 319.349 49.8193C319.349 51.7875 319.287 53.3866 319.225 53.3866C319.164 53.3866 319.102 51.7875 319.102 49.8193C319.041 47.8512 319.102 46.252 319.225 46.252Z" fill="#EBEBEB"/>
<path d="M315.592 58.184C315.592 58.2455 313.621 58.307 311.22 58.307C308.818 58.307 306.848 58.2455 306.848 58.184C306.848 58.1224 308.818 58.0609 311.22 58.0609C313.621 58.0609 315.592 58.1224 315.592 58.184Z" fill="#EBEBEB"/>
<path d="M316.148 55.5392C316.086 55.6007 314.978 54.6167 313.684 53.3251C312.391 52.0335 311.406 50.9264 311.468 50.8649C311.529 50.8034 312.638 51.7875 313.931 53.0791C315.162 54.3707 316.148 55.4777 316.148 55.5392Z" fill="#EBEBEB"/>
<path d="M326.431 50.9264C326.493 50.9879 325.693 51.849 324.707 52.8945C323.722 53.9401 322.86 54.6782 322.798 54.6167C322.737 54.5552 323.537 53.6941 324.522 52.6485C325.508 51.6645 326.37 50.8649 326.431 50.9264Z" fill="#EBEBEB"/>
<path d="M326.863 65.4415C326.802 65.503 325.755 64.5189 324.523 63.2888C323.292 62.0587 322.306 60.9516 322.368 60.9516C322.43 60.8901 323.476 61.8742 324.708 63.1043C325.94 64.3344 326.925 65.38 326.863 65.4415Z" fill="#EBEBEB"/>
<path d="M317.686 60.3981C317.748 60.4596 316.455 61.8127 314.792 63.4734C313.129 65.134 311.775 66.4256 311.713 66.3641C311.651 66.3026 312.945 64.9495 314.607 63.2889C316.27 61.6282 317.686 60.3366 317.686 60.3981Z" fill="#EBEBEB"/>
<path d="M70.0078 110.217H103.261C103.261 110.217 100.305 104.866 91.7457 105.666C83.5555 106.404 83.1244 103.021 78.9985 102.59C74.8727 102.16 71.4242 105.358 70.0078 110.217Z" fill="#EBEBEB"/>
<path d="M334.865 275.049C334.865 275.049 334.803 275.111 334.742 275.172C334.619 275.295 334.495 275.418 334.311 275.541C334.126 275.726 333.818 275.91 333.51 276.095C333.202 276.279 332.833 276.525 332.402 276.71C331.54 277.141 330.37 277.51 329.015 277.756C327.66 278.002 326.059 278.063 324.335 277.879C322.61 277.756 320.701 277.325 318.731 276.895C316.76 276.402 314.605 275.849 312.388 275.48C310.11 275.111 307.708 274.988 305.245 275.357C302.782 275.664 300.318 276.402 297.732 277.141C295.207 277.879 292.682 278.555 290.158 278.924C287.694 279.293 285.231 279.109 282.953 278.74C280.674 278.371 278.58 277.756 276.61 277.202C274.639 276.649 272.792 276.095 271.129 275.726C269.467 275.295 267.866 275.172 266.511 275.049C265.833 275.049 265.156 274.988 264.602 275.049C264.048 275.111 263.493 275.111 263.001 275.234C262.508 275.357 262.139 275.418 261.769 275.48C261.4 275.603 261.153 275.726 260.907 275.787C260.661 275.849 260.476 275.91 260.353 275.972C260.23 276.033 260.168 276.033 260.168 276.033C260.168 276.033 260.23 275.972 260.353 275.972C260.476 275.91 260.661 275.849 260.907 275.726C261.153 275.664 261.461 275.541 261.769 275.418C262.139 275.357 262.57 275.234 263.001 275.111C263.493 274.988 264.048 274.988 264.602 274.865C265.218 274.803 265.833 274.803 266.511 274.803C267.866 274.865 269.467 275.049 271.191 275.418C272.915 275.787 274.762 276.279 276.671 276.833C278.642 277.387 280.736 277.94 283.014 278.371C285.293 278.74 287.694 278.924 290.158 278.555C292.621 278.248 295.146 277.51 297.67 276.772C300.195 276.033 302.72 275.357 305.245 274.988C307.708 274.619 310.171 274.742 312.45 275.111C314.728 275.48 316.822 276.095 318.792 276.587C320.763 277.079 322.61 277.448 324.335 277.633C326.059 277.817 327.66 277.756 329.015 277.571C330.37 277.387 331.478 277.018 332.402 276.587C334.126 275.849 334.865 274.988 334.865 275.049Z" fill="#E0E0E0"/>
<path d="M102.214 284.89C102.214 284.89 102.153 284.952 102.091 285.013C101.968 285.136 101.845 285.259 101.66 285.382C101.476 285.567 101.168 285.751 100.86 285.936C100.552 286.12 100.182 286.366 99.7513 286.551C98.8892 286.981 97.7191 287.35 96.3644 287.596C95.0096 287.842 93.4085 287.904 91.6843 287.719C89.96 287.596 88.051 287.166 86.0804 286.735C84.1099 286.243 81.9546 285.69 79.7377 285.321C77.4592 284.952 75.0576 284.829 72.5944 285.198C70.1312 285.505 67.6679 286.243 65.0816 286.981C62.5568 287.719 60.032 288.396 57.5072 288.765C55.044 289.134 52.5808 288.949 50.3023 288.58C48.0238 288.211 45.9301 287.596 43.9595 287.043C41.9889 286.489 40.1415 285.936 38.4789 285.567C36.8162 285.136 35.2151 285.013 33.8603 284.89C33.183 284.89 32.5056 284.829 31.9514 284.89C31.3971 284.952 30.8429 284.952 30.3503 285.075C29.8576 285.198 29.4881 285.259 29.1187 285.321C28.7492 285.444 28.5029 285.567 28.2565 285.628C28.0102 285.69 27.8255 285.751 27.7023 285.813C27.5792 285.874 27.5176 285.874 27.5176 285.874C27.5176 285.874 27.5792 285.813 27.7023 285.813C27.8255 285.751 28.0102 285.69 28.2565 285.567C28.5029 285.505 28.8108 285.382 29.1187 285.259C29.4881 285.198 29.9192 285.075 30.3503 284.952C30.8429 284.829 31.3971 284.829 31.9514 284.706C32.5672 284.644 33.183 284.644 33.8603 284.644C35.2151 284.706 36.8162 284.89 38.5405 285.259C40.2647 285.628 42.1121 286.12 44.0211 286.674C45.9917 287.227 48.0854 287.781 50.3639 288.211C52.6423 288.58 55.044 288.765 57.5072 288.396C59.9704 288.088 62.4952 287.35 65.02 286.612C67.5448 285.874 70.0696 285.198 72.5944 284.829C75.0576 284.46 77.5208 284.583 79.7993 284.952C82.0777 285.321 84.1715 285.936 86.142 286.428C88.1126 286.92 89.96 287.289 91.6843 287.473C93.4085 287.658 95.0096 287.596 96.3644 287.412C97.7191 287.227 98.8276 286.858 99.7513 286.428C101.476 285.69 102.214 284.829 102.214 284.89Z" fill="#E0E0E0"/>
<path d="M208.748 277.94C208.748 277.94 208.379 277.571 207.64 277.141C206.901 276.648 205.669 276.156 204.068 275.972C202.467 275.787 200.558 275.91 198.464 276.402C196.371 276.833 194.092 277.51 191.629 277.633C189.104 277.756 186.826 277.079 184.732 276.587C183.685 276.341 182.7 276.095 181.776 275.972C180.852 275.849 179.99 275.849 179.19 275.91C177.589 276.033 176.357 276.648 175.68 277.141C174.941 277.694 174.694 278.063 174.633 278.063C174.633 278.063 174.879 277.633 175.618 277.017C176.295 276.464 177.589 275.849 179.19 275.664C179.99 275.541 180.914 275.541 181.838 275.664C182.761 275.787 183.808 275.972 184.855 276.218C186.949 276.71 189.227 277.387 191.629 277.264C194.092 277.141 196.309 276.464 198.403 276.095C200.497 275.664 202.467 275.541 204.068 275.726C205.669 275.91 206.901 276.464 207.701 277.017C208.071 277.264 208.379 277.51 208.502 277.694C208.687 277.817 208.748 277.94 208.748 277.94Z" fill="#E0E0E0"/>
<path d="M341.206 155.607H339.975V199.337H341.206V155.607Z" fill="#E0E0E0"/>
<path d="M344.103 155.607H342.871V199.337H344.103V155.607Z" fill="#E0E0E0"/>
<path d="M355.124 155.607H353.893V199.337H355.124V155.607Z" fill="#E0E0E0"/>
<path d="M329.878 155.607H328.646V199.337H329.878V155.607Z" fill="#E0E0E0"/>
<path d="M341.147 155.607H328.646V156.837H341.147V155.607Z" fill="#E0E0E0"/>
<path d="M369.78 158.56H284.184V159.974H369.78V158.56Z" fill="#E0E0E0"/>
<path d="M355.123 177.503H329.26V178.856H355.123V177.503Z" fill="#E0E0E0"/>
<path d="M354.705 160.701L353.814 160.152L343.049 177.583L343.94 178.132L354.705 160.701Z" fill="#E0E0E0"/>
<path d="M340.846 160.232L339.955 159.683L329.187 177.115L330.078 177.664L340.846 160.232Z" fill="#E0E0E0"/>
<path d="M360.975 152.532H341.762V158.56H360.975V152.532Z" fill="#E0E0E0"/>
<path d="M303.95 159.482L334.186 136.356L344.963 154.316L345.394 154.07L334.31 135.68L334.125 135.803L303.643 159.113L303.95 159.482Z" fill="#E0E0E0"/>
<path d="M328.336 159.482L334.248 135.065L341.206 160.466L328.336 159.482ZM328.952 159.113L340.59 159.974L334.309 136.971L328.952 159.113Z" fill="#E0E0E0"/>
<path d="M396.63 198.415H266.572V206.349H396.63V198.415Z" fill="#E0E0E0"/>
<path d="M299.766 182.116H312.451V198.661H299.766V182.116ZM311.959 182.546H300.258V198.169H311.959V182.546Z" fill="#E0E0E0"/>
<path d="M322.364 182.362H312.203V199.399H322.364V182.362Z" fill="#E0E0E0"/>
<path d="M236.498 188.716H238.592V112.266H236.498V188.716Z" fill="#E0E0E0"/>
<path d="M231.48 188.716H233.574V112.266H231.48V188.716Z" fill="#E0E0E0"/>
<path d="M212.184 188.716H214.277V112.266H212.184V188.716Z" fill="#E0E0E0"/>
<path d="M256.299 188.716H258.393V112.266H256.299V188.716Z" fill="#E0E0E0"/>
<path d="M236.45 114.418H258.373V112.265H236.45V114.418Z" fill="#E0E0E0"/>
<path d="M186.499 119.997L336.016 119.997V117.537L186.499 117.537V119.997Z" fill="#E0E0E0"/>
<path d="M212.159 152.85H257.359V150.512H212.159V152.85Z" fill="#E0E0E0"/>
<path d="M231.578 151.652L233.15 150.683L214.335 120.218L212.762 121.186L231.578 151.652Z" fill="#E0E0E0"/>
<path d="M255.81 150.805L257.383 149.836L238.563 119.37L236.991 120.339L255.81 150.805Z" fill="#E0E0E0"/>
<path d="M201.95 117.502H235.512V106.923H201.95V117.502Z" fill="#E0E0E0"/>
<path d="M301.549 119.074L248.713 78.665L229.87 110.032L229.131 109.663L248.467 77.4349L248.837 77.7424L302.042 118.397L301.549 119.074Z" fill="#E0E0E0"/>
<path d="M236.459 120.796L248.652 76.3893L258.936 119.074L236.459 120.796ZM248.529 79.6491L237.506 119.873L257.889 118.336L248.529 79.6491Z" fill="#E0E0E0"/>
<path d="M85.5854 260.165C85.5854 260.165 85.1543 259.919 84.3538 259.55C83.5532 259.181 82.3832 258.566 80.8437 258.505C80.0432 258.443 79.2426 258.566 78.3189 258.689C77.3952 258.812 76.4715 258.997 75.4246 259.243C73.3925 259.673 71.1756 260.288 68.774 260.35C66.3108 260.411 64.0939 259.673 62.1233 259.181C61.138 258.935 60.1527 258.751 59.229 258.628C58.3053 258.566 57.4432 258.566 56.7042 258.628C55.1647 258.812 53.9947 259.366 53.3173 259.858C52.6399 260.35 52.332 260.78 52.332 260.78C52.332 260.78 52.3936 260.657 52.5168 260.473C52.6399 260.288 52.8863 260.042 53.2557 259.735C53.9331 259.181 55.1031 258.566 56.7042 258.382C57.5048 258.259 58.3669 258.259 59.2906 258.32C60.2143 258.382 61.1996 258.628 62.1849 258.874C64.217 259.366 66.4339 260.042 68.774 259.981C71.1756 259.919 73.3925 259.366 75.4246 258.935C76.4099 258.689 77.3952 258.566 78.3189 258.443C79.2426 258.32 80.1047 258.197 80.9053 258.259C82.5064 258.382 83.6764 259.058 84.4154 259.427C84.7849 259.612 85.0928 259.796 85.2775 259.919C85.5238 260.042 85.5854 260.165 85.5854 260.165Z" fill="#263238"/>
<path d="M389.053 236.055C389.053 236.055 388.684 235.686 387.945 235.256C387.206 234.764 385.974 234.272 384.373 234.087C382.772 233.903 380.863 234.026 378.769 234.518C376.675 234.948 374.397 235.625 371.934 235.748C369.409 235.871 367.13 235.194 365.037 234.702C363.99 234.456 363.005 234.21 362.081 234.087C361.157 233.964 360.295 233.964 359.494 234.026C357.893 234.149 356.662 234.764 355.984 235.256C355.245 235.809 354.999 236.178 354.938 236.178C354.938 236.178 355.184 235.748 355.923 235.133C356.6 234.579 357.893 233.964 359.494 233.78C360.295 233.657 361.219 233.657 362.142 233.78C363.066 233.903 364.113 234.087 365.16 234.333C367.254 234.825 369.532 235.502 371.934 235.379C374.397 235.256 376.614 234.579 378.708 234.21C380.801 233.78 382.772 233.657 384.373 233.841C385.974 234.026 387.206 234.579 388.006 235.133C388.376 235.379 388.684 235.625 388.807 235.809C388.991 235.994 389.053 236.055 389.053 236.055Z" fill="#263238"/>
<path d="M47.9612 242.144C47.9612 242.144 47.5917 241.775 46.8527 241.345C46.1138 240.853 44.8822 240.361 43.2811 240.176C41.68 239.992 39.771 240.115 37.6773 240.607C35.5836 241.037 33.3051 241.714 30.8419 241.837C28.3171 241.96 26.0386 241.283 23.9449 240.791C22.898 240.545 21.9127 240.299 20.989 240.176C20.0653 240.053 19.2032 240.053 18.4026 240.115C16.8016 240.238 15.57 240.853 14.8926 241.345C14.1536 241.898 13.9073 242.267 13.8457 242.267C13.8457 242.267 14.092 241.837 14.831 241.222C15.5084 240.668 16.8016 240.053 18.4026 239.869C19.2032 239.746 20.1269 239.746 21.0506 239.869C21.9743 239.992 23.0212 240.176 24.068 240.422C26.1618 240.914 28.4402 241.591 30.8419 241.468C33.3051 241.345 35.522 240.668 37.6157 240.299C39.7094 239.869 41.68 239.746 43.2811 239.93C44.8822 240.115 46.1138 240.668 46.9143 241.222C47.2838 241.468 47.5917 241.714 47.7149 241.898C47.838 242.021 47.9612 242.144 47.9612 242.144Z" fill="#263238"/>
<path d="M362.698 261.518C362.698 261.518 362.514 261.457 362.144 261.395C361.775 261.272 361.282 261.149 360.666 260.965C359.373 260.534 357.526 259.858 355.247 259.243C354.077 258.935 352.784 258.628 351.429 258.505C350.013 258.32 348.535 258.32 346.934 258.505C343.793 258.874 340.406 259.796 336.712 260.288C334.864 260.534 333.017 260.534 331.292 260.288C329.568 260.042 327.905 259.735 326.366 259.366C323.225 258.689 320.393 258.197 317.991 258.32C315.589 258.382 313.68 258.997 312.51 259.612C311.895 259.919 311.464 260.165 311.156 260.411C310.848 260.596 310.725 260.719 310.725 260.719C310.725 260.719 311.279 260.165 312.449 259.55C313.619 258.935 315.528 258.259 317.991 258.197C320.454 258.013 323.287 258.505 326.428 259.181C329.568 259.796 333.017 260.596 336.65 260.042C340.283 259.55 343.67 258.628 346.872 258.259C348.473 258.074 350.013 258.074 351.429 258.259C352.846 258.443 354.139 258.751 355.309 259.058C357.649 259.735 359.435 260.473 360.728 260.903C361.344 261.149 361.836 261.272 362.206 261.395C362.514 261.395 362.698 261.518 362.698 261.518Z" fill="#263238"/>
<path d="M249.823 194.478H12V209.055H249.823V194.478Z" fill="#263238"/>
<path d="M95.7477 194.786H72.8398V164.771H95.7477V194.786V194.786ZM73.4556 194.171H95.1319V165.387H73.4556V194.171V194.171Z" fill="#263238"/>
<path d="M113.977 165.079H95.4414V196.2H113.977V165.079Z" fill="#263238"/>
<path d="M148.399 82.5398H146.182V196.569H148.399V82.5398Z" fill="#263238"/>
<path d="M153.697 82.5398H151.48V196.569H153.697V82.5398Z" fill="#263238"/>
<path d="M173.893 82.5398H171.676V196.569H173.893V82.5398Z" fill="#263238"/>
<path d="M127.711 82.5398H125.494V196.569H127.711V82.5398Z" fill="#263238"/>
<path d="M148.402 82.5398H125.494V84.8154H148.402V82.5398Z" fill="#263238"/>
<path d="M200.745 87.9522H44.2695V90.5354H200.745V87.9522Z" fill="#263238"/>
<path d="M173.895 122.518H126.602V124.978H173.895V122.518Z" fill="#263238"/>
<path d="M173.253 91.884L171.576 90.8505L151.884 122.73L153.561 123.763L173.253 91.884Z" fill="#263238"/>
<path d="M147.937 90.9602L146.26 89.9269L126.571 121.806L128.248 122.839L147.937 90.9602Z" fill="#263238"/>
<path d="M184.548 76.8813H149.447V87.9522H184.548V76.8813Z" fill="#263238"/>
<path d="M80.2933 89.4898L79.9238 88.9978L135.839 46.252L155.976 79.8336L155.483 80.1411L135.654 47.1746L80.2933 89.4898Z" fill="#263238"/>
<path d="M148.339 91.2734L125.123 89.5513L135.776 45.4525L148.339 91.2734ZM125.862 88.9978L147.477 90.5969L135.776 47.9127L125.862 88.9978Z" fill="#263238"/>
<path d="M33.6758 132.543L35.5232 122.456L47.1003 87.8907L47.6545 88.0752L36.139 122.641L34.4147 131.928L72.7177 131.251L57.6921 88.0752L58.3079 87.8907L73.5798 131.867L33.6758 132.543Z" fill="#263238"/>
<path d="M39.0949 123.133H24.1309V141.277H39.0949V123.133Z" fill="#263238"/>
<path d="M80.9684 123.133H39.0938V141.277H80.9684V123.133Z" fill="#263238"/>
<path d="M31.9523 141.277C31.8907 141.277 31.7676 137.217 31.7676 132.297C31.7676 127.315 31.8292 123.317 31.9523 123.317C32.0139 123.317 32.1371 127.377 32.1371 132.297C32.0755 137.217 32.0139 141.277 31.9523 141.277Z" fill="#455A64"/>
<path d="M39.0949 141.277C39.0333 141.277 38.9102 137.217 38.9102 132.297C38.9102 127.315 38.9717 123.317 39.0949 123.317C39.1565 123.317 39.2796 127.377 39.2796 132.297C39.2796 137.217 39.218 141.277 39.0949 141.277Z" fill="#455A64"/>
<path d="M78.6319 139.186C78.6319 139.186 78.6319 139.124 78.6319 138.94C78.6319 138.755 78.6319 138.509 78.6319 138.202C78.6319 137.586 78.6319 136.602 78.6319 135.434C78.6319 133.035 78.5703 129.591 78.5703 125.286L78.6934 125.409C69.3332 125.409 55.9087 125.47 40.9447 125.47C40.8215 125.593 41.1295 125.286 41.1295 125.286V125.347V125.47V125.716V126.147V127.069C41.1295 127.684 41.1295 128.238 41.1295 128.853C41.1295 130.021 41.1295 131.19 41.1295 132.359C41.1295 134.696 41.1295 136.971 41.1295 139.124L40.8831 139.063C51.7828 139.063 61.1431 139.124 67.8553 139.124C71.1806 139.124 73.8902 139.186 75.7376 139.186C76.6613 139.186 77.3387 139.186 77.8313 139.186C78.0776 139.186 78.2624 139.186 78.3855 139.186C78.5703 139.186 78.6319 139.186 78.6319 139.186C78.6319 139.186 78.5703 139.186 78.4471 139.186C78.324 139.186 78.1392 139.186 77.8929 139.186C77.4003 139.186 76.7229 139.186 75.7992 139.186C73.9517 139.186 71.3038 139.186 67.9785 139.247C61.2662 139.247 51.7828 139.309 40.8831 139.309H40.6984V139.124C40.6984 136.971 40.6984 134.696 40.6984 132.359C40.6984 131.19 40.6984 130.021 40.6984 128.853C40.6984 128.238 40.6984 127.684 40.6984 127.069V126.147V125.716V125.532V125.409V125.347C40.6368 125.409 41.0063 125.04 40.8831 125.163C55.8471 125.163 69.2717 125.224 78.6319 125.224H78.755V125.347C78.755 129.652 78.6934 133.158 78.6934 135.557C78.6934 136.725 78.6934 137.648 78.6934 138.263C78.6934 138.571 78.6934 138.817 78.6934 138.94C78.6319 139.124 78.6319 139.186 78.6319 139.186Z" fill="#455A64"/>
<path d="M43.8371 139.186C43.7755 139.186 43.6523 136.049 43.6523 132.236C43.6523 128.422 43.7139 125.286 43.8371 125.286C43.8987 125.286 44.0218 128.422 44.0218 132.236C43.9603 136.049 43.8987 139.186 43.8371 139.186Z" fill="#455A64"/>
<path d="M47.3488 139.186C47.2872 139.186 47.1641 136.049 47.1641 132.236C47.1641 128.422 47.2256 125.286 47.3488 125.286C47.4104 125.286 47.5335 128.422 47.5335 132.236C47.5335 136.049 47.472 139.186 47.3488 139.186Z" fill="#455A64"/>
<path d="M50.9172 139.186C50.8556 139.186 50.7324 136.049 50.7324 132.236C50.7324 128.422 50.794 125.286 50.9172 125.286C50.9787 125.286 51.1019 128.422 51.1019 132.236C51.1019 136.049 50.9787 139.186 50.9172 139.186Z" fill="#455A64"/>
<path d="M54.4914 139.186C54.4298 139.186 54.3066 136.049 54.3066 132.236C54.3066 128.422 54.3682 125.286 54.4914 125.286C54.6145 125.286 54.6761 128.422 54.6761 132.236C54.6145 136.049 54.553 139.186 54.4914 139.186Z" fill="#455A64"/>
<path d="M58.0011 139.186C57.9396 139.186 57.8164 136.049 57.8164 132.236C57.8164 128.422 57.878 125.286 58.0011 125.286C58.0627 125.286 58.1859 128.422 58.1859 132.236C58.1859 136.049 58.1243 139.186 58.0011 139.186Z" fill="#455A64"/>
<path d="M61.5715 139.186C61.5099 139.186 61.3867 136.049 61.3867 132.236C61.3867 128.422 61.4483 125.286 61.5715 125.286C61.6946 125.286 61.7562 128.422 61.7562 132.236C61.6946 136.049 61.633 139.186 61.5715 139.186Z" fill="#455A64"/>
<path d="M65.0812 139.186C65.0197 139.186 64.8965 136.049 64.8965 132.236C64.8965 128.422 64.9581 125.286 65.0812 125.286C65.1428 125.286 65.266 128.422 65.266 132.236C65.266 136.049 65.2044 139.186 65.0812 139.186Z" fill="#455A64"/>
<path d="M68.6554 139.186C68.5939 139.186 68.4707 136.049 68.4707 132.236C68.4707 128.422 68.5323 125.286 68.6554 125.286C68.717 125.286 68.8402 128.422 68.8402 132.236C68.8402 136.049 68.717 139.186 68.6554 139.186Z" fill="#455A64"/>
<path d="M72.2258 139.186C72.1642 139.186 72.041 136.049 72.041 132.236C72.041 128.422 72.1026 125.286 72.2258 125.286C72.3489 125.286 72.4105 128.422 72.4105 132.236C72.3489 136.049 72.2873 139.186 72.2258 139.186Z" fill="#455A64"/>
<path d="M75.7355 139.186C75.6739 139.186 75.5508 136.049 75.5508 132.236C75.5508 128.422 75.6124 125.286 75.7355 125.286C75.7971 125.286 75.9203 128.422 75.9203 132.236C75.9203 136.049 75.8587 139.186 75.7355 139.186Z" fill="#455A64"/>
<path d="M289.17 179.471H283.012V169.015H287.384L289.17 179.471Z" fill="#E39D29"/>
<path d="M159.234 184.699H144.27V202.843H159.234V184.699Z" fill="#E39D29"/>
<path opacity="0.4" d="M159.234 184.699H144.27V202.843H159.234V184.699Z" fill="white"/>
<path d="M201.107 184.699H159.232V202.843H201.107V184.699Z" fill="#E39D29"/>
<path opacity="0.2" d="M201.107 184.699H159.232V202.843H201.107V184.699Z" fill="white"/>
<path d="M152.028 202.843C151.967 202.843 151.844 198.784 151.844 193.863C151.844 188.881 151.905 184.884 152.028 184.884C152.09 184.884 152.213 188.943 152.213 193.863C152.213 198.845 152.152 202.843 152.028 202.843Z" fill="#263238"/>
<path d="M198.769 200.813C198.769 200.813 198.769 200.752 198.769 200.567C198.769 200.383 198.769 200.137 198.769 199.829C198.769 199.214 198.769 198.23 198.769 197.061C198.769 194.663 198.707 191.219 198.707 186.913L198.83 187.036C189.47 187.036 176.045 187.098 161.081 187.098C160.958 187.221 161.266 186.913 161.266 186.913V186.975V187.098V187.344V187.774V188.697C161.266 189.312 161.266 189.865 161.266 190.48C161.266 191.649 161.266 192.818 161.266 193.986C161.266 196.323 161.266 198.599 161.266 200.752L161.081 200.567C171.981 200.567 181.341 200.629 188.054 200.629C191.379 200.629 194.088 200.69 195.936 200.69C196.86 200.69 197.537 200.69 198.03 200.69C198.276 200.69 198.461 200.69 198.584 200.69C198.645 200.813 198.707 200.813 198.769 200.813C198.769 200.813 198.707 200.813 198.584 200.813C198.461 200.813 198.276 200.813 198.03 200.813C197.537 200.813 196.86 200.813 195.936 200.813C194.088 200.813 191.441 200.813 188.115 200.875C181.403 200.875 171.92 200.936 161.02 200.936H160.835V200.752C160.835 198.599 160.835 196.323 160.835 193.986C160.835 192.818 160.835 191.649 160.835 190.48C160.835 189.865 160.835 189.312 160.835 188.697V187.774V187.344V187.098V187.036V186.975C160.774 187.036 161.143 186.667 161.02 186.79C175.984 186.79 189.408 186.852 198.769 186.852H198.892V186.975C198.892 191.28 198.83 194.786 198.83 197.184C198.83 198.353 198.83 199.276 198.83 199.891C198.83 200.198 198.83 200.444 198.83 200.567C198.769 200.69 198.769 200.813 198.769 200.813Z" fill="#263238"/>
<path d="M163.911 200.813C163.85 200.813 163.727 197.677 163.727 193.863C163.727 190.05 163.788 186.913 163.911 186.913C164.034 186.913 164.096 190.05 164.096 193.863C164.096 197.677 164.034 200.813 163.911 200.813Z" fill="#263238"/>
<path d="M167.486 200.813C167.424 200.813 167.301 197.677 167.301 193.863C167.301 190.05 167.362 186.913 167.486 186.913C167.547 186.913 167.67 190.05 167.67 193.863C167.609 197.677 167.547 200.813 167.486 200.813Z" fill="#263238"/>
<path d="M170.993 200.813C170.932 200.813 170.809 197.677 170.809 193.863C170.809 190.05 170.87 186.913 170.993 186.913C171.116 186.913 171.178 190.05 171.178 193.863C171.178 197.677 171.116 200.813 170.993 200.813Z" fill="#263238"/>
<path d="M174.566 200.813C174.504 200.813 174.381 197.677 174.381 193.863C174.381 190.05 174.442 186.913 174.566 186.913C174.627 186.913 174.75 190.05 174.75 193.863C174.75 197.677 174.627 200.813 174.566 200.813Z" fill="#263238"/>
<path d="M178.138 200.813C178.076 200.813 177.953 197.677 177.953 193.863C177.953 190.05 178.015 186.913 178.138 186.913C178.261 186.913 178.323 190.05 178.323 193.863C178.261 197.677 178.199 200.813 178.138 200.813Z" fill="#263238"/>
<path d="M181.648 200.813C181.586 200.813 181.463 197.677 181.463 193.863C181.463 190.05 181.524 186.913 181.648 186.913C181.771 186.913 181.832 190.05 181.832 193.863C181.832 197.677 181.771 200.813 181.648 200.813Z" fill="#263238"/>
<path d="M185.22 200.813C185.158 200.813 185.035 197.677 185.035 193.863C185.035 190.05 185.097 186.913 185.22 186.913C185.281 186.913 185.405 190.05 185.405 193.863C185.343 197.677 185.281 200.813 185.22 200.813Z" fill="#263238"/>
<path d="M188.73 200.813C188.668 200.813 188.545 197.677 188.545 193.863C188.545 190.05 188.607 186.913 188.73 186.913C188.853 186.913 188.914 190.05 188.914 193.863C188.914 197.677 188.853 200.813 188.73 200.813Z" fill="#263238"/>
<path d="M192.302 200.813C192.24 200.813 192.117 197.677 192.117 193.863C192.117 190.05 192.179 186.913 192.302 186.913C192.364 186.913 192.487 190.05 192.487 193.863C192.487 197.677 192.425 200.813 192.302 200.813Z" fill="#263238"/>
<path d="M195.874 200.813C195.813 200.813 195.689 197.677 195.689 193.863C195.689 190.05 195.751 186.913 195.874 186.913C195.997 186.913 196.059 190.05 196.059 193.863C195.997 197.677 195.936 200.813 195.874 200.813Z" fill="#263238"/>
<path d="M208.685 148.473H193.721V166.617H208.685V148.473Z" fill="#E39D29"/>
<path opacity="0.4" d="M208.685 148.473H193.721V166.617H208.685V148.473Z" fill="white"/>
<path d="M250.56 148.473H208.686V166.617H250.56V148.473Z" fill="#E39D29"/>
<path opacity="0.2" d="M250.56 148.473H208.686V166.617H250.56V148.473Z" fill="white"/>
<path d="M201.54 166.617C201.479 166.617 201.355 162.557 201.355 157.637C201.355 152.655 201.417 148.657 201.54 148.657C201.663 148.657 201.725 152.717 201.725 157.637C201.663 162.619 201.602 166.617 201.54 166.617Z" fill="#263238"/>
<path d="M248.22 164.587C248.22 164.587 248.22 164.526 248.22 164.341C248.22 164.157 248.22 163.911 248.22 163.603C248.22 162.988 248.22 162.004 248.22 160.835C248.22 158.437 248.158 154.992 248.158 150.687L248.281 150.81C238.921 150.81 225.497 150.872 210.533 150.872C210.409 150.995 210.717 150.687 210.717 150.687V150.749V150.872V151.118V151.548V152.471C210.717 153.086 210.717 153.639 210.717 154.254C210.717 155.423 210.717 156.591 210.717 157.76C210.717 160.097 210.717 162.373 210.717 164.526L210.533 164.341C221.432 164.341 230.793 164.403 237.505 164.403C240.83 164.403 243.54 164.464 245.387 164.464C246.311 164.464 246.988 164.464 247.481 164.464C247.727 164.464 247.912 164.464 248.035 164.464C248.158 164.587 248.22 164.587 248.22 164.587C248.22 164.587 248.158 164.587 248.035 164.587C247.912 164.587 247.727 164.587 247.481 164.587C246.988 164.587 246.311 164.587 245.387 164.587C243.54 164.587 240.892 164.587 237.566 164.649C230.854 164.649 221.371 164.71 210.471 164.71H210.286V164.526C210.286 162.373 210.286 160.097 210.286 157.76C210.286 156.591 210.286 155.423 210.286 154.254C210.286 153.639 210.286 153.086 210.286 152.471V151.548V151.118V150.872V150.749V150.749C210.225 150.81 210.594 150.441 210.471 150.564C225.435 150.564 238.86 150.626 248.22 150.626H248.343V150.749C248.343 155.054 248.281 158.56 248.281 160.958C248.281 162.127 248.281 163.049 248.281 163.665C248.281 163.972 248.281 164.218 248.281 164.341C248.22 164.526 248.22 164.587 248.22 164.587Z" fill="#263238"/>
<path d="M213.364 164.587C213.303 164.587 213.18 161.45 213.18 157.637C213.18 153.824 213.241 150.687 213.364 150.687C213.488 150.687 213.549 153.824 213.549 157.637C213.549 161.45 213.488 164.587 213.364 164.587Z" fill="#263238"/>
<path d="M216.937 164.587C216.875 164.587 216.752 161.45 216.752 157.637C216.752 153.824 216.814 150.687 216.937 150.687C216.998 150.687 217.121 153.824 217.121 157.637C217.121 161.45 216.998 164.587 216.937 164.587Z" fill="#263238"/>
<path d="M220.507 164.587C220.445 164.587 220.322 161.45 220.322 157.637C220.322 153.824 220.384 150.687 220.507 150.687C220.63 150.687 220.692 153.824 220.692 157.637C220.63 161.45 220.569 164.587 220.507 164.587Z" fill="#263238"/>
<path d="M224.017 164.587C223.955 164.587 223.832 161.45 223.832 157.637C223.832 153.824 223.894 150.687 224.017 150.687C224.078 150.687 224.201 153.824 224.201 157.637C224.201 161.45 224.14 164.587 224.017 164.587Z" fill="#263238"/>
<path d="M227.589 164.587C227.527 164.587 227.404 161.45 227.404 157.637C227.404 153.824 227.466 150.687 227.589 150.687C227.712 150.687 227.774 153.824 227.774 157.637C227.712 161.45 227.651 164.587 227.589 164.587Z" fill="#263238"/>
<path d="M231.101 164.587C231.039 164.587 230.916 161.45 230.916 157.637C230.916 153.824 230.978 150.687 231.101 150.687C231.162 150.687 231.285 153.824 231.285 157.637C231.285 161.45 231.224 164.587 231.101 164.587Z" fill="#263238"/>
<path d="M234.673 164.587C234.611 164.587 234.488 161.45 234.488 157.637C234.488 153.824 234.55 150.687 234.673 150.687C234.735 150.687 234.858 153.824 234.858 157.637C234.858 161.45 234.796 164.587 234.673 164.587Z" fill="#263238"/>
<path d="M238.243 164.587C238.182 164.587 238.059 161.45 238.059 157.637C238.059 153.824 238.12 150.687 238.243 150.687C238.366 150.687 238.428 153.824 238.428 157.637C238.366 161.45 238.305 164.587 238.243 164.587Z" fill="#263238"/>
<path d="M241.753 164.587C241.692 164.587 241.568 161.45 241.568 157.637C241.568 153.824 241.63 150.687 241.753 150.687C241.815 150.687 241.938 153.824 241.938 157.637C241.938 161.45 241.876 164.587 241.753 164.587Z" fill="#263238"/>
<path d="M245.325 164.587C245.264 164.587 245.141 161.45 245.141 157.637C245.141 153.824 245.202 150.687 245.325 150.687C245.387 150.687 245.51 153.824 245.51 157.637C245.51 161.45 245.387 164.587 245.325 164.587Z" fill="#263238"/>
<path d="M79.7961 193.925H64.832V212.069H79.7961V193.925Z" fill="#E39D29"/>
<path opacity="0.4" d="M79.7961 193.925H64.832V212.069H79.7961V193.925Z" fill="white"/>
<path d="M121.67 193.925H79.7949V212.069H121.67V193.925Z" fill="#E39D29"/>
<path opacity="0.2" d="M121.67 193.925H79.7949V212.069H121.67V193.925Z" fill="white"/>
<path d="M72.6535 212.069C72.5919 212.069 72.4688 208.009 72.4688 203.089C72.4688 198.107 72.5303 194.109 72.6535 194.109C72.7767 194.109 72.8382 198.169 72.8382 203.089C72.7766 208.009 72.7151 212.069 72.6535 212.069Z" fill="#263238"/>
<path d="M119.333 209.977C119.333 209.977 119.333 209.916 119.333 209.731C119.333 209.547 119.333 209.301 119.333 208.993C119.333 208.378 119.333 207.394 119.333 206.226C119.333 203.827 119.271 200.383 119.271 196.077L119.395 196.2C110.034 196.2 96.6099 196.262 81.6459 196.262C81.5227 196.385 81.8306 196.077 81.8306 196.077V196.139V196.262V196.508V196.938V197.861C81.8306 198.476 81.8306 199.03 81.8306 199.645C81.8306 200.813 81.8306 201.982 81.8306 203.15C81.8306 205.488 81.8306 207.763 81.8306 209.916L81.6459 209.731C92.5456 209.731 101.906 209.793 108.618 209.793C111.943 209.793 114.653 209.854 116.5 209.854C117.424 209.854 118.101 209.854 118.594 209.854C118.84 209.854 119.025 209.854 119.148 209.854C119.271 209.977 119.333 209.977 119.333 209.977C119.333 209.977 119.271 209.977 119.148 209.977C119.025 209.977 118.84 209.977 118.594 209.977C118.101 209.977 117.424 209.977 116.5 209.977C114.653 209.977 112.005 209.977 108.68 210.039C101.967 210.039 92.484 210.1 81.5843 210.1H81.3996V209.916C81.3996 207.763 81.3996 205.488 81.3996 203.15C81.3996 201.982 81.3996 200.813 81.3996 199.645C81.3996 199.03 81.3996 198.476 81.3996 197.861V196.938V196.508V196.262V196.139V196.077C81.338 196.139 81.7075 195.77 81.5843 195.893C96.5483 195.893 109.973 195.954 119.333 195.954H119.456V196.077C119.456 200.383 119.395 203.888 119.395 206.287C119.395 207.456 119.395 208.378 119.395 208.993C119.395 209.301 119.395 209.547 119.395 209.67C119.333 209.916 119.333 209.977 119.333 209.977Z" fill="#263238"/>
<path d="M84.4777 209.977C84.4161 209.977 84.293 206.841 84.293 203.027C84.293 199.214 84.3546 196.077 84.4777 196.077C84.6009 196.077 84.6625 199.214 84.6625 203.027C84.6625 206.902 84.6009 209.977 84.4777 209.977Z" fill="#263238"/>
<path d="M88.05 209.977C87.9884 209.977 87.8652 206.841 87.8652 203.027C87.8652 199.214 87.9268 196.077 88.05 196.077C88.1116 196.077 88.2347 199.214 88.2347 203.027C88.2347 206.902 88.1731 209.977 88.05 209.977Z" fill="#263238"/>
<path d="M91.6183 209.977C91.5567 209.977 91.4336 206.841 91.4336 203.027C91.4336 199.214 91.4952 196.077 91.6183 196.077C91.6799 196.077 91.8031 199.214 91.8031 203.027C91.7415 206.902 91.6799 209.977 91.6183 209.977Z" fill="#263238"/>
<path d="M95.1301 209.977C95.0685 209.977 94.9453 206.841 94.9453 203.027C94.9453 199.214 95.0069 196.077 95.1301 196.077C95.2532 196.077 95.3148 199.214 95.3148 203.027C95.3148 206.902 95.2532 209.977 95.1301 209.977Z" fill="#263238"/>
<path d="M98.7023 209.977C98.6407 209.977 98.5176 206.841 98.5176 203.027C98.5176 199.214 98.5792 196.077 98.7023 196.077C98.7639 196.077 98.8871 199.214 98.8871 203.027C98.8871 206.902 98.7639 209.977 98.7023 209.977Z" fill="#263238"/>
<path d="M102.273 209.977C102.211 209.977 102.088 206.841 102.088 203.027C102.088 199.214 102.149 196.077 102.273 196.077C102.396 196.077 102.457 199.214 102.457 203.027C102.396 206.902 102.334 209.977 102.273 209.977Z" fill="#263238"/>
<path d="M105.782 209.977C105.721 209.977 105.598 206.841 105.598 203.027C105.598 199.214 105.659 196.077 105.782 196.077C105.844 196.077 105.967 199.214 105.967 203.027C105.967 206.902 105.906 209.977 105.782 209.977Z" fill="#263238"/>
<path d="M109.357 209.977C109.295 209.977 109.172 206.841 109.172 203.027C109.172 199.214 109.233 196.077 109.357 196.077C109.418 196.077 109.541 199.214 109.541 203.027C109.48 206.902 109.418 209.977 109.357 209.977Z" fill="#263238"/>
<path d="M112.866 209.977C112.805 209.977 112.682 206.841 112.682 203.027C112.682 199.214 112.743 196.077 112.866 196.077C112.99 196.077 113.051 199.214 113.051 203.027C113.051 206.902 112.99 209.977 112.866 209.977Z" fill="#263238"/>
<path d="M116.437 209.977C116.375 209.977 116.252 206.841 116.252 203.027C116.252 199.214 116.314 196.077 116.437 196.077C116.498 196.077 116.621 199.214 116.621 203.027C116.621 206.902 116.498 209.977 116.437 209.977Z" fill="#263238"/>
<path d="M176.355 166.74H161.391V184.884H176.355V166.74Z" fill="#263238"/>
<path d="M218.226 166.74H176.352V184.884H218.226V166.74Z" fill="#263238"/>
<path d="M169.146 184.884C169.084 184.884 168.961 180.824 168.961 175.904C168.961 170.922 169.023 166.924 169.146 166.924C169.207 166.924 169.33 170.984 169.33 175.904C169.33 180.886 169.269 184.884 169.146 184.884Z" fill="#455A64"/>
<path d="M176.353 184.884C176.291 184.884 176.168 180.824 176.168 175.904C176.168 170.922 176.23 166.924 176.353 166.924C176.414 166.924 176.537 170.984 176.537 175.904C176.476 180.886 176.414 184.884 176.353 184.884Z" fill="#455A64"/>
<path d="M215.825 182.854C215.825 182.854 215.825 182.792 215.825 182.608C215.825 182.423 215.825 182.177 215.825 181.87C215.825 181.255 215.825 180.271 215.825 179.102C215.825 176.703 215.764 173.259 215.764 168.954L215.887 169.077C206.527 169.077 193.102 169.138 178.138 169.138C178.015 169.261 178.323 168.954 178.323 168.954V169.015V169.138V169.384V169.815V170.738C178.323 171.353 178.323 171.906 178.323 172.521C178.323 173.69 178.323 174.858 178.323 176.027C178.323 178.364 178.323 180.64 178.323 182.792L178.138 182.608C189.038 182.608 198.398 182.669 205.11 182.669C208.436 182.669 211.145 182.731 212.993 182.731C213.916 182.731 214.594 182.731 215.086 182.731C215.333 182.731 215.517 182.731 215.64 182.731C215.764 182.854 215.825 182.854 215.825 182.854C215.825 182.854 215.764 182.854 215.64 182.854C215.517 182.854 215.333 182.854 215.086 182.854C214.594 182.854 213.916 182.854 212.993 182.854C211.145 182.854 208.497 182.854 205.172 182.915C198.46 182.915 188.976 182.977 178.076 182.977H177.892V182.792C177.892 180.64 177.892 178.364 177.892 176.027C177.892 174.858 177.892 173.69 177.892 172.521C177.892 171.906 177.892 171.353 177.892 170.738V169.815V169.384V169.138V169.015V168.954C177.83 169.015 178.2 168.646 178.076 168.769C193.04 168.769 206.465 168.831 215.825 168.831H215.948V168.954C215.948 173.259 215.887 176.765 215.887 179.164C215.887 180.332 215.887 181.255 215.887 181.87C215.887 182.177 215.887 182.423 215.887 182.546C215.825 182.731 215.825 182.854 215.825 182.854Z" fill="#455A64"/>
<path d="M181.03 182.854C180.969 182.854 180.846 179.717 180.846 175.904C180.846 172.091 180.907 168.954 181.03 168.954C181.092 168.954 181.215 172.091 181.215 175.904C181.215 179.717 181.092 182.854 181.03 182.854Z" fill="#455A64"/>
<path d="M184.605 182.854C184.543 182.854 184.42 179.717 184.42 175.904C184.42 172.091 184.481 168.954 184.605 168.954C184.728 168.954 184.789 172.091 184.789 175.904C184.728 179.717 184.666 182.854 184.605 182.854Z" fill="#455A64"/>
<path d="M188.114 182.854C188.053 182.854 187.93 179.717 187.93 175.904C187.93 172.091 187.991 168.954 188.114 168.954C188.176 168.954 188.299 172.091 188.299 175.904C188.299 179.717 188.238 182.854 188.114 182.854Z" fill="#455A64"/>
<path d="M191.685 182.854C191.623 182.854 191.5 179.717 191.5 175.904C191.5 172.091 191.562 168.954 191.685 168.954C191.808 168.954 191.869 172.091 191.869 175.904C191.808 179.717 191.746 182.854 191.685 182.854Z" fill="#455A64"/>
<path d="M195.196 182.854C195.135 182.854 195.012 179.717 195.012 175.904C195.012 172.091 195.073 168.954 195.196 168.954C195.258 168.954 195.381 172.091 195.381 175.904C195.381 179.717 195.32 182.854 195.196 182.854Z" fill="#455A64"/>
<path d="M198.767 182.854C198.705 182.854 198.582 179.717 198.582 175.904C198.582 172.091 198.644 168.954 198.767 168.954C198.828 168.954 198.952 172.091 198.952 175.904C198.952 179.717 198.828 182.854 198.767 182.854Z" fill="#455A64"/>
<path d="M202.339 182.854C202.277 182.854 202.154 179.717 202.154 175.904C202.154 172.091 202.216 168.954 202.339 168.954C202.401 168.954 202.524 172.091 202.524 175.904C202.462 179.717 202.401 182.854 202.339 182.854Z" fill="#455A64"/>
<path d="M205.849 182.854C205.787 182.854 205.664 179.717 205.664 175.904C205.664 172.091 205.726 168.954 205.849 168.954C205.91 168.954 206.034 172.091 206.034 175.904C206.034 179.717 205.972 182.854 205.849 182.854Z" fill="#455A64"/>
<path d="M209.421 182.854C209.36 182.854 209.236 179.717 209.236 175.904C209.236 172.091 209.298 168.954 209.421 168.954C209.544 168.954 209.606 172.091 209.606 175.904C209.544 179.717 209.483 182.854 209.421 182.854Z" fill="#455A64"/>
<path d="M212.933 182.854C212.871 182.854 212.748 179.717 212.748 175.904C212.748 172.091 212.81 168.954 212.933 168.954C212.994 168.954 213.118 172.091 213.118 175.904C213.118 179.717 213.056 182.854 212.933 182.854Z" fill="#455A64"/>
<path d="M140.083 203.458H125.119V221.602H140.083V203.458Z" fill="#E39D29"/>
<path d="M182.019 203.458H140.145V221.602H182.019V203.458Z" fill="#E39D29"/>
<path opacity="0.4" d="M182.019 203.458H140.145V221.602H182.019V203.458Z" fill="black"/>
<path d="M132.941 221.602C132.879 221.602 132.756 217.543 132.756 212.622C132.756 207.64 132.817 203.643 132.941 203.643C133.002 203.643 133.125 207.702 133.125 212.622C133.125 217.604 133.064 221.602 132.941 221.602Z" fill="#263238"/>
<path d="M179.62 219.511C179.62 219.511 179.62 219.449 179.62 219.265C179.62 219.08 179.62 218.834 179.62 218.527C179.62 217.912 179.62 216.928 179.62 215.759C179.62 213.36 179.559 209.916 179.559 205.611L179.682 205.734C170.322 205.734 156.897 205.795 141.933 205.795C141.81 205.918 142.118 205.611 142.118 205.611V205.672V205.795V206.041V206.472V207.394C142.118 208.009 142.118 208.563 142.118 209.178C142.118 210.347 142.118 211.515 142.118 212.684C142.118 215.021 142.118 217.297 142.118 219.449L141.933 219.265C152.833 219.265 162.193 219.326 168.905 219.326C172.231 219.326 174.94 219.388 176.787 219.388C177.711 219.388 178.389 219.388 178.881 219.388C179.128 219.388 179.312 219.388 179.435 219.388C179.559 219.511 179.62 219.511 179.62 219.511C179.62 219.511 179.559 219.511 179.435 219.511C179.312 219.511 179.128 219.511 178.881 219.511C178.389 219.511 177.711 219.511 176.787 219.511C174.94 219.511 172.292 219.511 168.967 219.572C162.254 219.572 152.771 219.634 141.871 219.634H141.687V219.449C141.687 217.297 141.687 215.021 141.687 212.684C141.687 211.515 141.687 210.347 141.687 209.178C141.687 208.563 141.687 208.009 141.687 207.394V206.472V206.103V205.857V205.734V205.672C141.625 205.734 141.995 205.365 141.871 205.488C156.835 205.488 170.26 205.549 179.62 205.549H179.743V205.672C179.743 209.978 179.682 213.483 179.682 215.882C179.682 217.051 179.682 217.973 179.682 218.588C179.682 218.896 179.682 219.142 179.682 219.265C179.62 219.449 179.62 219.572 179.62 219.511Z" fill="#263238"/>
<path d="M144.825 219.511C144.764 219.511 144.641 216.374 144.641 212.561C144.641 208.747 144.702 205.611 144.825 205.611C144.949 205.611 145.01 208.747 145.01 212.561C144.949 216.435 144.887 219.511 144.825 219.511Z" fill="#263238"/>
<path d="M148.335 219.511C148.274 219.511 148.15 216.374 148.15 212.561C148.15 208.747 148.212 205.611 148.335 205.611C148.458 205.611 148.52 208.747 148.52 212.561C148.52 216.435 148.458 219.511 148.335 219.511Z" fill="#263238"/>
<path d="M151.905 219.511C151.844 219.511 151.721 216.374 151.721 212.561C151.721 208.747 151.782 205.611 151.905 205.611C151.967 205.611 152.09 208.747 152.09 212.561C152.09 216.435 152.029 219.511 151.905 219.511Z" fill="#263238"/>
<path d="M155.48 219.511C155.418 219.511 155.295 216.374 155.295 212.561C155.295 208.747 155.357 205.611 155.48 205.611C155.603 205.611 155.664 208.747 155.664 212.561C155.603 216.435 155.541 219.511 155.48 219.511Z" fill="#263238"/>
<path d="M158.989 219.511C158.928 219.511 158.805 216.374 158.805 212.561C158.805 208.747 158.866 205.611 158.989 205.611C159.051 205.611 159.174 208.747 159.174 212.561C159.174 216.435 159.113 219.511 158.989 219.511Z" fill="#263238"/>
<path d="M162.56 219.511C162.498 219.511 162.375 216.374 162.375 212.561C162.375 208.747 162.437 205.611 162.56 205.611C162.683 205.611 162.744 208.747 162.744 212.561C162.744 216.435 162.621 219.511 162.56 219.511Z" fill="#263238"/>
<path d="M166.132 219.511C166.07 219.511 165.947 216.374 165.947 212.561C165.947 208.747 166.009 205.611 166.132 205.611C166.194 205.611 166.317 208.747 166.317 212.561C166.255 216.435 166.194 219.511 166.132 219.511Z" fill="#263238"/>
<path d="M169.644 219.511C169.582 219.511 169.459 216.374 169.459 212.561C169.459 208.747 169.521 205.611 169.644 205.611C169.705 205.611 169.828 208.747 169.828 212.561C169.828 216.435 169.767 219.511 169.644 219.511Z" fill="#263238"/>
<path d="M173.212 219.511C173.15 219.511 173.027 216.374 173.027 212.561C173.027 208.747 173.089 205.611 173.212 205.611C173.274 205.611 173.397 208.747 173.397 212.561C173.335 216.435 173.274 219.511 173.212 219.511Z" fill="#263238"/>
<path d="M176.724 219.511C176.662 219.511 176.539 216.374 176.539 212.561C176.539 208.747 176.601 205.611 176.724 205.611C176.785 205.611 176.909 208.747 176.909 212.561C176.909 216.435 176.847 219.511 176.724 219.511Z" fill="#263238"/>
<path d="M187.931 202.843H172.967V220.987H187.931V202.843Z" fill="#263238"/>
<path d="M229.867 202.843H187.992V220.987H229.867V202.843Z" fill="#263238"/>
<path d="M180.786 221.048C180.725 221.048 180.602 216.989 180.602 212.069C180.602 207.087 180.663 203.089 180.786 203.089C180.848 203.089 180.971 207.148 180.971 212.069C180.971 216.989 180.848 221.048 180.786 221.048Z" fill="#455A64"/>
<path d="M187.991 221.048C187.93 221.048 187.807 216.989 187.807 212.069C187.807 207.087 187.868 203.089 187.991 203.089C188.115 203.089 188.176 207.148 188.176 212.069C188.115 216.989 188.053 221.048 187.991 221.048Z" fill="#455A64"/>
<path d="M227.466 218.957C227.466 218.957 227.466 218.896 227.466 218.711C227.466 218.527 227.466 218.281 227.466 217.973C227.466 217.358 227.466 216.374 227.466 215.205C227.466 212.807 227.404 209.362 227.404 205.057L227.527 205.18C218.167 205.18 204.743 205.242 189.779 205.242C189.656 205.365 189.963 205.057 189.963 205.057V205.119V205.242V205.488V205.918V206.841C189.963 207.456 189.963 208.009 189.963 208.624C189.963 209.793 189.963 210.962 189.963 212.13C189.963 214.467 189.963 216.743 189.963 218.896L189.779 218.711C200.678 218.711 210.039 218.773 216.751 218.773C220.076 218.773 222.786 218.834 224.633 218.834C225.557 218.834 226.234 218.834 226.727 218.834C226.973 218.834 227.158 218.834 227.281 218.834C227.404 218.957 227.466 218.957 227.466 218.957C227.466 218.957 227.404 218.957 227.281 218.957C227.158 218.957 226.973 218.957 226.727 218.957C226.234 218.957 225.557 218.957 224.633 218.957C222.786 218.957 220.138 218.957 216.812 219.019C210.1 219.019 200.617 219.08 189.717 219.08H189.532V218.896C189.532 216.743 189.532 214.467 189.532 212.13C189.532 210.962 189.532 209.793 189.532 208.624C189.532 208.009 189.532 207.456 189.532 206.841V205.918V205.488V205.242V205.119V205.057C189.471 205.119 189.84 204.75 189.717 204.873C204.681 204.873 218.106 204.934 227.466 204.934H227.589V205.057C227.589 209.362 227.527 212.868 227.527 215.267C227.527 216.436 227.527 217.358 227.527 217.973C227.527 218.281 227.527 218.527 227.527 218.65C227.466 218.896 227.466 218.957 227.466 218.957Z" fill="#455A64"/>
<path d="M192.671 218.957C192.609 218.957 192.486 215.82 192.486 212.007C192.486 208.194 192.548 205.057 192.671 205.057C192.794 205.057 192.856 208.194 192.856 212.007C192.794 215.82 192.733 218.957 192.671 218.957Z" fill="#455A64"/>
<path d="M196.183 218.957C196.121 218.957 195.998 215.82 195.998 212.007C195.998 208.194 196.06 205.057 196.183 205.057C196.244 205.057 196.368 208.194 196.368 212.007C196.368 215.82 196.306 218.957 196.183 218.957Z" fill="#455A64"/>
<path d="M199.751 218.957C199.69 218.957 199.566 215.82 199.566 212.007C199.566 208.194 199.628 205.057 199.751 205.057C199.813 205.057 199.936 208.194 199.936 212.007C199.936 215.82 199.813 218.957 199.751 218.957Z" fill="#455A64"/>
<path d="M203.325 218.957C203.264 218.957 203.141 215.82 203.141 212.007C203.141 208.194 203.202 205.057 203.325 205.057C203.387 205.057 203.51 208.194 203.51 212.007C203.449 215.82 203.387 218.957 203.325 218.957Z" fill="#455A64"/>
<path d="M206.835 218.957C206.774 218.957 206.65 215.82 206.65 212.007C206.65 208.194 206.712 205.057 206.835 205.057C206.958 205.057 207.02 208.194 207.02 212.007C207.02 215.82 206.958 218.957 206.835 218.957Z" fill="#455A64"/>
<path d="M210.407 218.957C210.346 218.957 210.223 215.82 210.223 212.007C210.223 208.194 210.284 205.057 210.407 205.057C210.469 205.057 210.592 208.194 210.592 212.007C210.531 215.82 210.469 218.957 210.407 218.957Z" fill="#455A64"/>
<path d="M213.917 218.957C213.856 218.957 213.732 215.82 213.732 212.007C213.732 208.194 213.794 205.057 213.917 205.057C214.04 205.057 214.102 208.194 214.102 212.007C214.102 215.82 214.04 218.957 213.917 218.957Z" fill="#455A64"/>
<path d="M217.489 218.957C217.428 218.957 217.305 215.82 217.305 212.007C217.305 208.194 217.366 205.057 217.489 205.057C217.613 205.057 217.674 208.194 217.674 212.007C217.674 215.82 217.613 218.957 217.489 218.957Z" fill="#455A64"/>
<path d="M221.062 218.957C221 218.957 220.877 215.82 220.877 212.007C220.877 208.194 220.939 205.057 221.062 205.057C221.123 205.057 221.246 208.194 221.246 212.007C221.185 215.82 221.123 218.957 221.062 218.957Z" fill="#455A64"/>
<path d="M224.571 218.957C224.51 218.957 224.387 215.82 224.387 212.007C224.387 208.194 224.448 205.057 224.571 205.057C224.695 205.057 224.756 208.194 224.756 212.007C224.756 215.82 224.695 218.957 224.571 218.957Z" fill="#455A64"/>
<path d="M199.694 166.801H184.73V184.945H199.694V166.801Z" fill="#455A64"/>
<path d="M241.632 166.801H199.758V184.945H241.632V166.801Z" fill="#455A64"/>
<path d="M192.552 185.007C192.49 185.007 192.367 180.947 192.367 176.027C192.367 171.045 192.429 167.047 192.552 167.047C192.613 167.047 192.737 171.106 192.737 176.027C192.737 180.947 192.675 185.007 192.552 185.007Z" fill="#263238"/>
<path d="M199.757 185.007C199.695 185.007 199.572 180.947 199.572 176.027C199.572 171.045 199.634 167.047 199.757 167.047C199.819 167.047 199.942 171.106 199.942 176.027C199.88 180.947 199.819 185.007 199.757 185.007Z" fill="#263238"/>
<path d="M239.229 182.915C239.229 182.915 239.229 182.854 239.229 182.669C239.229 182.485 239.229 182.239 239.229 181.931C239.229 181.316 239.229 180.332 239.229 179.164C239.229 176.765 239.168 173.321 239.168 169.015L239.291 169.138C229.931 169.138 216.506 169.2 201.542 169.2C201.419 169.323 201.727 169.015 201.727 169.015V169.077V169.2V169.446V169.876V170.799C201.727 171.414 201.727 171.968 201.727 172.583C201.727 173.751 201.727 174.92 201.727 176.088C201.727 178.426 201.727 180.701 201.727 182.854L201.542 182.669C212.442 182.669 221.802 182.731 228.515 182.731C231.84 182.731 234.549 182.792 236.397 182.792C237.32 182.792 237.998 182.792 238.491 182.792C238.737 182.792 238.922 182.792 239.045 182.792C239.168 182.915 239.229 182.915 239.229 182.915C239.229 182.915 239.168 182.915 239.045 182.915C238.922 182.915 238.737 182.915 238.491 182.915C237.998 182.915 237.32 182.915 236.397 182.915C234.549 182.915 231.901 182.915 228.576 182.977C221.864 182.977 212.38 183.038 201.481 183.038H201.296V182.854C201.296 180.701 201.296 178.426 201.296 176.088C201.296 174.92 201.296 173.751 201.296 172.583C201.296 171.968 201.296 171.414 201.296 170.799V169.876V169.446V169.2V169.077V169.015C201.234 169.077 201.604 168.708 201.481 168.831C216.445 168.831 229.869 168.892 239.229 168.892H239.353V169.015C239.353 173.321 239.291 176.826 239.291 179.225C239.291 180.394 239.291 181.316 239.291 181.931C239.291 182.239 239.291 182.485 239.291 182.608C239.229 182.854 239.229 182.915 239.229 182.915Z" fill="#263238"/>
<path d="M204.435 182.915C204.373 182.915 204.25 179.779 204.25 175.965C204.25 172.152 204.312 169.015 204.435 169.015C204.496 169.015 204.619 172.152 204.619 175.965C204.619 179.779 204.496 182.915 204.435 182.915Z" fill="#263238"/>
<path d="M208.009 182.915C207.947 182.915 207.824 179.779 207.824 175.965C207.824 172.152 207.886 169.015 208.009 169.015C208.132 169.015 208.194 172.152 208.194 175.965C208.132 179.779 208.071 182.915 208.009 182.915Z" fill="#263238"/>
<path d="M211.517 182.915C211.455 182.915 211.332 179.779 211.332 175.965C211.332 172.152 211.394 169.015 211.517 169.015C211.578 169.015 211.702 172.152 211.702 175.965C211.702 179.779 211.64 182.915 211.517 182.915Z" fill="#263238"/>
<path d="M215.089 182.915C215.027 182.915 214.904 179.779 214.904 175.965C214.904 172.152 214.966 169.015 215.089 169.015C215.212 169.015 215.274 172.152 215.274 175.965C215.212 179.779 215.151 182.915 215.089 182.915Z" fill="#263238"/>
<path d="M218.599 182.915C218.537 182.915 218.414 179.779 218.414 175.965C218.414 172.152 218.476 169.015 218.599 169.015C218.66 169.015 218.784 172.152 218.784 175.965C218.784 179.779 218.722 182.915 218.599 182.915Z" fill="#263238"/>
<path d="M222.171 182.915C222.109 182.915 221.986 179.779 221.986 175.965C221.986 172.152 222.048 169.015 222.171 169.015C222.294 169.015 222.356 172.152 222.356 175.965C222.356 179.779 222.233 182.915 222.171 182.915Z" fill="#263238"/>
<path d="M225.745 182.915C225.684 182.915 225.561 179.779 225.561 175.965C225.561 172.152 225.622 169.015 225.745 169.015C225.868 169.015 225.93 172.152 225.93 175.965C225.868 179.779 225.807 182.915 225.745 182.915Z" fill="#263238"/>
<path d="M229.253 182.915C229.192 182.915 229.068 179.779 229.068 175.965C229.068 172.152 229.13 169.015 229.253 169.015C229.315 169.015 229.438 172.152 229.438 175.965C229.438 179.779 229.376 182.915 229.253 182.915Z" fill="#263238"/>
<path d="M232.825 182.915C232.764 182.915 232.641 179.779 232.641 175.965C232.641 172.152 232.702 169.015 232.825 169.015C232.887 169.015 233.01 172.152 233.01 175.965C232.949 179.779 232.887 182.915 232.825 182.915Z" fill="#263238"/>
<path d="M236.335 182.915C236.274 182.915 236.15 179.779 236.15 175.965C236.15 172.152 236.212 169.015 236.335 169.015C236.397 169.015 236.52 172.152 236.52 175.965C236.52 179.779 236.458 182.915 236.335 182.915Z" fill="#263238"/>
<path d="M177.339 184.699H162.375V202.843H177.339V184.699Z" fill="#E39D29"/>
<path d="M219.213 184.699H177.338V202.843H219.213V184.699Z" fill="#E39D29"/>
<path opacity="0.4" d="M219.213 184.699H177.338V202.843H219.213V184.699Z" fill="black"/>
<path d="M170.132 202.843C170.07 202.843 169.947 198.784 169.947 193.863C169.947 188.881 170.009 184.884 170.132 184.884C170.255 184.884 170.317 188.943 170.317 193.863C170.317 198.845 170.255 202.843 170.132 202.843Z" fill="#263238"/>
<path d="M216.812 200.813C216.812 200.813 216.812 200.752 216.812 200.567C216.812 200.383 216.812 200.137 216.812 199.829C216.812 199.214 216.812 198.23 216.812 197.061C216.812 194.663 216.75 191.219 216.75 186.913L216.873 187.036C207.513 187.036 194.088 187.098 179.124 187.098C179.001 187.221 179.309 186.913 179.309 186.913V186.975V187.098V187.344V187.774V188.697C179.309 189.312 179.309 189.865 179.309 190.48C179.309 191.649 179.309 192.818 179.309 193.986C179.309 196.323 179.309 198.599 179.309 200.752L179.124 200.567C190.024 200.567 199.384 200.629 206.097 200.629C209.422 200.629 212.131 200.69 213.979 200.69C214.903 200.69 215.58 200.69 216.073 200.69C216.319 200.69 216.504 200.69 216.627 200.69C216.75 200.813 216.812 200.813 216.812 200.813C216.812 200.813 216.75 200.813 216.627 200.813C216.504 200.813 216.319 200.813 216.073 200.813C215.58 200.813 214.903 200.813 213.979 200.813C212.131 200.813 209.483 200.813 206.158 200.875C199.446 200.875 189.963 200.936 179.063 200.936H178.878V200.752C178.878 198.599 178.878 196.323 178.878 193.986C178.878 192.818 178.878 191.649 178.878 190.48C178.878 189.865 178.878 189.312 178.878 188.697V187.774V187.344V187.098V187.036V186.975C178.816 187.036 179.186 186.667 179.063 186.79C194.027 186.79 207.451 186.852 216.812 186.852H216.935V186.975C216.935 191.28 216.873 194.786 216.873 197.184C216.873 198.353 216.873 199.276 216.873 199.891C216.873 200.198 216.873 200.444 216.873 200.567C216.873 200.69 216.812 200.813 216.812 200.813Z" fill="#263238"/>
<path d="M182.017 200.813C181.955 200.813 181.832 197.677 181.832 193.863C181.832 190.05 181.894 186.913 182.017 186.913C182.078 186.913 182.202 190.05 182.202 193.863C182.202 197.677 182.078 200.813 182.017 200.813Z" fill="#263238"/>
<path d="M185.591 200.813C185.529 200.813 185.406 197.677 185.406 193.863C185.406 190.05 185.468 186.913 185.591 186.913C185.653 186.913 185.776 190.05 185.776 193.863C185.714 197.677 185.653 200.813 185.591 200.813Z" fill="#263238"/>
<path d="M189.099 200.813C189.037 200.813 188.914 197.677 188.914 193.863C188.914 190.05 188.976 186.913 189.099 186.913C189.16 186.913 189.284 190.05 189.284 193.863C189.284 197.677 189.222 200.813 189.099 200.813Z" fill="#263238"/>
<path d="M192.671 200.813C192.609 200.813 192.486 197.677 192.486 193.863C192.486 190.05 192.548 186.913 192.671 186.913C192.733 186.913 192.856 190.05 192.856 193.863C192.794 197.677 192.733 200.813 192.671 200.813Z" fill="#263238"/>
<path d="M196.245 200.813C196.184 200.813 196.061 197.677 196.061 193.863C196.061 190.05 196.122 186.913 196.245 186.913C196.368 186.913 196.43 190.05 196.43 193.863C196.368 197.677 196.307 200.813 196.245 200.813Z" fill="#263238"/>
<path d="M199.751 200.813C199.69 200.813 199.566 197.677 199.566 193.863C199.566 190.05 199.628 186.913 199.751 186.913C199.813 186.913 199.936 190.05 199.936 193.863C199.936 197.677 199.874 200.813 199.751 200.813Z" fill="#263238"/>
<path d="M203.325 200.813C203.264 200.813 203.141 197.677 203.141 193.863C203.141 190.05 203.202 186.913 203.325 186.913C203.449 186.913 203.51 190.05 203.51 193.863C203.449 197.677 203.387 200.813 203.325 200.813Z" fill="#263238"/>
<path d="M206.835 200.813C206.774 200.813 206.65 197.677 206.65 193.863C206.65 190.05 206.712 186.913 206.835 186.913C206.958 186.913 207.02 190.05 207.02 193.863C207.02 197.677 206.958 200.813 206.835 200.813Z" fill="#263238"/>
<path d="M210.407 200.813C210.346 200.813 210.223 197.677 210.223 193.863C210.223 190.05 210.284 186.913 210.407 186.913C210.469 186.913 210.592 190.05 210.592 193.863C210.592 197.677 210.469 200.813 210.407 200.813Z" fill="#263238"/>
<path d="M213.98 200.813C213.918 200.813 213.795 197.677 213.795 193.863C213.795 190.05 213.857 186.913 213.98 186.913C214.103 186.913 214.164 190.05 214.164 193.863C214.103 197.677 214.041 200.813 213.98 200.813Z" fill="#263238"/>
<path d="M219.4 184.638H204.436V202.781H219.4V184.638Z" fill="#455A64"/>
<path d="M261.273 184.638H219.398V202.781H261.273V184.638Z" fill="#455A64"/>
<path d="M212.195 202.781C212.133 202.781 212.01 198.722 212.01 193.802C212.01 188.82 212.071 184.822 212.195 184.822C212.256 184.822 212.379 188.881 212.379 193.802C212.379 198.784 212.318 202.781 212.195 202.781Z" fill="#263238"/>
<path d="M219.4 202.781C219.338 202.781 219.215 198.722 219.215 193.802C219.215 188.82 219.276 184.822 219.4 184.822C219.523 184.822 219.584 188.881 219.584 193.802C219.584 198.784 219.461 202.781 219.4 202.781Z" fill="#263238"/>
<path d="M258.937 200.69C258.937 200.69 258.937 200.629 258.937 200.444C258.937 200.26 258.937 200.014 258.937 199.706C258.937 199.091 258.937 198.107 258.937 196.938C258.937 194.54 258.875 191.096 258.875 186.79L258.998 186.913C249.638 186.913 236.213 186.975 221.249 186.975C221.126 187.098 221.434 186.79 221.434 186.79V186.852V186.975V187.221V187.651V188.574C221.434 189.189 221.434 189.742 221.434 190.357C221.434 191.526 221.434 192.695 221.434 193.863C221.434 196.2 221.434 198.476 221.434 200.629L221.249 200.444C232.149 200.444 241.509 200.506 248.222 200.506C251.547 200.506 254.256 200.567 256.104 200.567C257.028 200.567 257.705 200.567 258.198 200.567C258.444 200.567 258.629 200.567 258.752 200.567C258.875 200.69 258.937 200.69 258.937 200.69C258.937 200.69 258.875 200.69 258.752 200.69C258.629 200.69 258.444 200.69 258.198 200.69C257.705 200.69 257.028 200.69 256.104 200.69C254.256 200.69 251.608 200.69 248.283 200.752C241.571 200.752 232.088 200.813 221.188 200.813H221.003V200.629C221.003 198.476 221.003 196.2 221.003 193.863C221.003 192.695 221.003 191.526 221.003 190.357C221.003 189.742 221.003 189.189 221.003 188.574V187.651V187.221V187.036V186.913V186.852C220.941 186.913 221.311 186.544 221.188 186.667C236.152 186.667 249.576 186.729 258.937 186.729H259.06V186.852C259.06 191.157 258.998 194.663 258.998 197.061C258.998 198.23 258.998 199.153 258.998 199.768C258.998 200.075 258.998 200.321 258.998 200.444C258.937 200.629 258.937 200.69 258.937 200.69Z" fill="#263238"/>
<path d="M224.079 200.69C224.018 200.69 223.895 197.554 223.895 193.74C223.895 189.927 223.956 186.79 224.079 186.79C224.141 186.79 224.264 189.927 224.264 193.74C224.264 197.615 224.202 200.69 224.079 200.69Z" fill="#263238"/>
<path d="M227.652 200.69C227.59 200.69 227.467 197.554 227.467 193.74C227.467 189.927 227.528 186.79 227.652 186.79C227.775 186.79 227.836 189.927 227.836 193.74C227.836 197.615 227.713 200.69 227.652 200.69Z" fill="#263238"/>
<path d="M231.222 200.69C231.16 200.69 231.037 197.554 231.037 193.74C231.037 189.927 231.099 186.79 231.222 186.79C231.345 186.79 231.407 189.927 231.407 193.74C231.345 197.615 231.283 200.69 231.222 200.69Z" fill="#263238"/>
<path d="M234.734 200.69C234.672 200.69 234.549 197.554 234.549 193.74C234.549 189.927 234.61 186.79 234.734 186.79C234.795 186.79 234.918 189.927 234.918 193.74C234.918 197.615 234.857 200.69 234.734 200.69Z" fill="#263238"/>
<path d="M238.306 200.69C238.244 200.69 238.121 197.554 238.121 193.74C238.121 189.927 238.183 186.79 238.306 186.79C238.429 186.79 238.491 189.927 238.491 193.74C238.429 197.615 238.367 200.69 238.306 200.69Z" fill="#263238"/>
<path d="M241.816 200.69C241.754 200.69 241.631 197.554 241.631 193.74C241.631 189.927 241.692 186.79 241.816 186.79C241.877 186.79 242 189.927 242 193.74C242 197.615 241.939 200.69 241.816 200.69Z" fill="#263238"/>
<path d="M245.386 200.69C245.324 200.69 245.201 197.554 245.201 193.74C245.201 189.927 245.263 186.79 245.386 186.79C245.509 186.79 245.571 189.927 245.571 193.74C245.571 197.615 245.447 200.69 245.386 200.69Z" fill="#263238"/>
<path d="M248.96 200.69C248.899 200.69 248.775 197.554 248.775 193.74C248.775 189.927 248.837 186.79 248.96 186.79C249.022 186.79 249.145 189.927 249.145 193.74C249.083 197.615 249.022 200.69 248.96 200.69Z" fill="#263238"/>
<path d="M252.47 200.69C252.408 200.69 252.285 197.554 252.285 193.74C252.285 189.927 252.347 186.79 252.47 186.79C252.593 186.79 252.655 189.927 252.655 193.74C252.655 197.615 252.593 200.69 252.47 200.69Z" fill="#263238"/>
<path d="M256.04 200.69C255.979 200.69 255.855 197.554 255.855 193.74C255.855 189.927 255.917 186.79 256.04 186.79C256.102 186.79 256.225 189.927 256.225 193.74C256.163 197.615 256.102 200.69 256.04 200.69Z" fill="#263238"/>
<path d="M87.3078 157.145H72.3438V175.289H87.3078V157.145Z" fill="#455A64"/>
<path d="M129.179 157.145H87.3047V175.289H129.179V157.145Z" fill="#455A64"/>
<path d="M80.1008 175.289C80.0392 175.289 79.916 171.23 79.916 166.309C79.916 161.327 79.9776 157.33 80.1008 157.33C80.1623 157.33 80.2855 161.389 80.2855 166.309C80.2855 171.291 80.2239 175.289 80.1008 175.289Z" fill="#263238"/>
<path d="M87.3058 175.289C87.2442 175.289 87.1211 171.23 87.1211 166.309C87.1211 161.327 87.1827 157.33 87.3058 157.33C87.429 157.33 87.4906 161.389 87.4906 166.309C87.429 171.291 87.3674 175.289 87.3058 175.289Z" fill="#263238"/>
<path d="M126.778 173.259C126.778 173.259 126.778 173.198 126.778 173.013C126.778 172.829 126.778 172.583 126.778 172.275C126.778 171.66 126.778 170.676 126.778 169.507C126.778 167.109 126.717 163.665 126.717 159.359L126.84 159.482C117.48 159.482 104.055 159.544 89.0912 159.544C88.968 159.667 89.2759 159.359 89.2759 159.359V159.421V159.544V159.79V160.22V161.143C89.2759 161.758 89.2759 162.311 89.2759 162.926C89.2759 164.095 89.2759 165.264 89.2759 166.432C89.2759 168.769 89.2759 171.045 89.2759 173.198L89.0912 173.013C99.9909 173.013 109.351 173.075 116.063 173.075C119.389 173.075 122.098 173.136 123.946 173.136C124.869 173.136 125.547 173.136 126.039 173.136C126.286 173.136 126.47 173.136 126.594 173.136C126.717 173.259 126.778 173.259 126.778 173.259C126.778 173.259 126.717 173.259 126.594 173.259C126.47 173.259 126.286 173.259 126.039 173.259C125.547 173.259 124.869 173.259 123.946 173.259C122.098 173.259 119.45 173.259 116.125 173.321C109.413 173.321 99.9293 173.382 89.0296 173.382H88.8449V173.198C88.8449 171.045 88.8449 168.769 88.8449 166.432C88.8449 165.264 88.8449 164.095 88.8449 162.926C88.8449 162.311 88.8449 161.758 88.8449 161.143V160.22V159.79V159.544V159.421V159.359C88.7833 159.421 89.1528 159.052 89.0296 159.175C103.994 159.175 117.418 159.236 126.778 159.236H126.901V159.359C126.901 163.665 126.84 167.17 126.84 169.569C126.84 170.738 126.84 171.66 126.84 172.275C126.84 172.583 126.84 172.829 126.84 172.952C126.84 173.136 126.778 173.259 126.778 173.259Z" fill="#263238"/>
<path d="M91.9836 173.259C91.922 173.259 91.7988 170.122 91.7988 166.309C91.7988 162.496 91.8604 159.359 91.9836 159.359C92.0452 159.359 92.1683 162.496 92.1683 166.309C92.1683 170.122 92.0452 173.259 91.9836 173.259Z" fill="#263238"/>
<path d="M95.5578 173.259C95.4962 173.259 95.373 170.122 95.373 166.309C95.373 162.496 95.4346 159.359 95.5578 159.359C95.6194 159.359 95.7425 162.496 95.7425 166.309C95.681 170.122 95.6194 173.259 95.5578 173.259Z" fill="#263238"/>
<path d="M99.0676 173.259C99.006 173.259 98.8828 170.122 98.8828 166.309C98.8828 162.496 98.9444 159.359 99.0676 159.359C99.1907 159.359 99.2523 162.496 99.2523 166.309C99.2523 170.122 99.1907 173.259 99.0676 173.259Z" fill="#263238"/>
<path d="M102.638 173.259C102.576 173.259 102.453 170.122 102.453 166.309C102.453 162.496 102.515 159.359 102.638 159.359C102.699 159.359 102.823 162.496 102.823 166.309C102.823 170.122 102.699 173.259 102.638 173.259Z" fill="#263238"/>
<path d="M106.212 173.259C106.151 173.259 106.027 170.122 106.027 166.309C106.027 162.496 106.089 159.359 106.212 159.359C106.335 159.359 106.397 162.496 106.397 166.309C106.335 170.122 106.274 173.259 106.212 173.259Z" fill="#263238"/>
<path d="M109.72 173.259C109.658 173.259 109.535 170.122 109.535 166.309C109.535 162.496 109.597 159.359 109.72 159.359C109.781 159.359 109.905 162.496 109.905 166.309C109.905 170.122 109.843 173.259 109.72 173.259Z" fill="#263238"/>
<path d="M113.292 173.259C113.231 173.259 113.107 170.122 113.107 166.309C113.107 162.496 113.169 159.359 113.292 159.359C113.415 159.359 113.477 162.496 113.477 166.309C113.415 170.122 113.354 173.259 113.292 173.259Z" fill="#263238"/>
<path d="M116.804 173.259C116.742 173.259 116.619 170.122 116.619 166.309C116.619 162.496 116.681 159.359 116.804 159.359C116.865 159.359 116.989 162.496 116.989 166.309C116.989 170.122 116.927 173.259 116.804 173.259Z" fill="#263238"/>
<path d="M120.374 173.259C120.313 173.259 120.189 170.122 120.189 166.309C120.189 162.496 120.251 159.359 120.374 159.359C120.436 159.359 120.559 162.496 120.559 166.309C120.559 170.122 120.436 173.259 120.374 173.259Z" fill="#263238"/>
<path d="M123.946 173.259C123.885 173.259 123.762 170.122 123.762 166.309C123.762 162.496 123.823 159.359 123.946 159.359C124.07 159.359 124.131 162.496 124.131 166.309C124.07 170.122 124.008 173.259 123.946 173.259Z" fill="#263238"/>
<path d="M220.323 166.248H205.359V184.392H220.323V166.248Z" fill="#263238"/>
<path d="M262.257 166.248H220.383V184.392H262.257V166.248Z" fill="#263238"/>
<path d="M213.179 184.392C213.117 184.392 212.994 180.332 212.994 175.412C212.994 170.43 213.056 166.432 213.179 166.432C213.24 166.432 213.364 170.491 213.364 175.412C213.364 180.394 213.24 184.392 213.179 184.392Z" fill="#455A64"/>
<path d="M220.384 184.392C220.322 184.392 220.199 180.332 220.199 175.412C220.199 170.43 220.261 166.432 220.384 166.432C220.507 166.432 220.569 170.491 220.569 175.412C220.507 180.394 220.446 184.392 220.384 184.392Z" fill="#455A64"/>
<path d="M259.858 182.3C259.858 182.3 259.858 182.239 259.858 182.054C259.858 181.87 259.858 181.624 259.858 181.316C259.858 180.701 259.858 179.717 259.858 178.549C259.858 176.15 259.797 172.706 259.797 168.4L259.92 168.523C250.56 168.523 237.135 168.585 222.171 168.585C222.048 168.708 222.356 168.4 222.356 168.4V168.462V168.585V168.831V169.261V170.184C222.356 170.799 222.356 171.353 222.356 171.968C222.356 173.136 222.356 174.305 222.356 175.473C222.356 177.811 222.356 180.086 222.356 182.239L222.171 182.054C233.071 182.054 242.431 182.116 249.143 182.116C252.469 182.116 255.178 182.177 257.026 182.177C257.949 182.177 258.627 182.177 259.119 182.177C259.366 182.177 259.551 182.177 259.674 182.177C259.797 182.3 259.858 182.3 259.858 182.3C259.858 182.3 259.797 182.3 259.674 182.3C259.551 182.3 259.366 182.3 259.119 182.3C258.627 182.3 257.949 182.3 257.026 182.3C255.178 182.3 252.53 182.3 249.205 182.362C242.493 182.362 233.009 182.423 222.11 182.423H221.925V182.239C221.925 180.086 221.925 177.811 221.925 175.473C221.925 174.305 221.925 173.136 221.925 171.968C221.925 171.353 221.925 170.799 221.925 170.184V169.261V168.831V168.585V168.462V168.4C221.863 168.462 222.233 168.093 222.11 168.216C237.074 168.216 250.498 168.277 259.858 168.277H259.982V168.4C259.982 172.706 259.92 176.211 259.92 178.61C259.92 179.779 259.92 180.701 259.92 181.316C259.92 181.624 259.92 181.87 259.92 181.993C259.858 182.239 259.858 182.3 259.858 182.3Z" fill="#455A64"/>
<path d="M225.064 182.3C225.002 182.3 224.879 179.164 224.879 175.35C224.879 171.537 224.94 168.4 225.064 168.4C225.125 168.4 225.248 171.537 225.248 175.35C225.187 179.225 225.125 182.3 225.064 182.3Z" fill="#455A64"/>
<path d="M228.573 182.3C228.512 182.3 228.389 179.164 228.389 175.35C228.389 171.537 228.45 168.4 228.573 168.4C228.697 168.4 228.758 171.537 228.758 175.35C228.758 179.225 228.697 182.3 228.573 182.3Z" fill="#455A64"/>
<path d="M232.144 182.3C232.082 182.3 231.959 179.164 231.959 175.35C231.959 171.537 232.021 168.4 232.144 168.4C232.205 168.4 232.328 171.537 232.328 175.35C232.328 179.225 232.205 182.3 232.144 182.3Z" fill="#455A64"/>
<path d="M235.718 182.3C235.656 182.3 235.533 179.164 235.533 175.35C235.533 171.537 235.595 168.4 235.718 168.4C235.841 168.4 235.903 171.537 235.903 175.35C235.841 179.225 235.78 182.3 235.718 182.3Z" fill="#455A64"/>
<path d="M239.228 182.3C239.166 182.3 239.043 179.164 239.043 175.35C239.043 171.537 239.105 168.4 239.228 168.4C239.351 168.4 239.412 171.537 239.412 175.35C239.412 179.225 239.351 182.3 239.228 182.3Z" fill="#455A64"/>
<path d="M242.8 182.3C242.738 182.3 242.615 179.164 242.615 175.35C242.615 171.537 242.677 168.4 242.8 168.4C242.862 168.4 242.985 171.537 242.985 175.35C242.923 179.225 242.862 182.3 242.8 182.3Z" fill="#455A64"/>
<path d="M246.308 182.3C246.246 182.3 246.123 179.164 246.123 175.35C246.123 171.537 246.185 168.4 246.308 168.4C246.369 168.4 246.493 171.537 246.493 175.35C246.493 179.225 246.431 182.3 246.308 182.3Z" fill="#455A64"/>
<path d="M249.882 182.3C249.82 182.3 249.697 179.164 249.697 175.35C249.697 171.537 249.759 168.4 249.882 168.4C249.944 168.4 250.067 171.537 250.067 175.35C250.067 179.225 250.005 182.3 249.882 182.3Z" fill="#455A64"/>
<path d="M253.454 182.3C253.393 182.3 253.27 179.164 253.27 175.35C253.27 171.537 253.331 168.4 253.454 168.4C253.516 168.4 253.639 171.537 253.639 175.35C253.577 179.225 253.516 182.3 253.454 182.3Z" fill="#455A64"/>
<path d="M256.964 182.3C256.902 182.3 256.779 179.164 256.779 175.35C256.779 171.537 256.841 168.4 256.964 168.4C257.026 168.4 257.149 171.537 257.149 175.35C257.149 179.225 257.087 182.3 256.964 182.3Z" fill="#455A64"/>
<path d="M222.724 202.781H207.76V220.925H222.724V202.781Z" fill="#E39D29"/>
<path d="M264.597 202.781H222.723V220.925H264.597V202.781Z" fill="#E39D29"/>
<path opacity="0.4" d="M264.597 202.781H222.723V220.925H264.597V202.781Z" fill="black"/>
<path d="M215.517 220.925C215.455 220.925 215.332 216.866 215.332 211.946C215.332 206.964 215.394 202.966 215.517 202.966C215.578 202.966 215.702 207.025 215.702 211.946C215.702 216.927 215.64 220.925 215.517 220.925Z" fill="#263238"/>
<path d="M262.196 218.896C262.196 218.896 262.196 218.834 262.196 218.65C262.196 218.465 262.196 218.219 262.196 217.912C262.196 217.297 262.196 216.312 262.196 215.144C262.196 212.745 262.135 209.301 262.135 204.996L262.258 205.119C252.898 205.119 239.473 205.18 224.509 205.18C224.386 205.303 224.694 204.996 224.694 204.996V205.057V205.18V205.426V205.857V206.779C224.694 207.394 224.694 207.948 224.694 208.563C224.694 209.731 224.694 210.9 224.694 212.069C224.694 214.406 224.694 216.682 224.694 218.834L224.509 218.65C235.409 218.65 244.769 218.711 251.481 218.711C254.807 218.711 257.516 218.773 259.364 218.773C260.287 218.773 260.965 218.773 261.457 218.773C261.704 218.773 261.888 218.773 262.012 218.773C262.135 218.896 262.196 218.896 262.196 218.896C262.196 218.896 262.135 218.896 262.012 218.896C261.888 218.896 261.704 218.896 261.457 218.896C260.965 218.896 260.287 218.896 259.364 218.896C257.516 218.896 254.868 218.896 251.543 218.957C244.831 218.957 235.347 219.019 224.448 219.019H224.263V218.834C224.263 216.682 224.263 214.406 224.263 212.069C224.263 210.9 224.263 209.731 224.263 208.563C224.263 207.948 224.263 207.394 224.263 206.779V205.857V205.426V205.18V205.057V204.996C224.201 205.057 224.571 204.688 224.448 204.811C239.412 204.811 252.836 204.873 262.196 204.873H262.319V204.996C262.319 209.301 262.258 212.807 262.258 215.205C262.258 216.374 262.258 217.297 262.258 217.912C262.258 218.219 262.258 218.465 262.258 218.588C262.196 218.773 262.196 218.896 262.196 218.896Z" fill="#263238"/>
<path d="M227.402 218.896C227.34 218.896 227.217 215.759 227.217 211.946C227.217 208.132 227.278 204.996 227.402 204.996C227.463 204.996 227.586 208.132 227.586 211.946C227.586 215.759 227.463 218.896 227.402 218.896Z" fill="#263238"/>
<path d="M230.974 218.896C230.912 218.896 230.789 215.759 230.789 211.946C230.789 208.132 230.851 204.996 230.974 204.996C231.035 204.996 231.159 208.132 231.159 211.946C231.097 215.759 231.035 218.896 230.974 218.896Z" fill="#263238"/>
<path d="M234.482 218.896C234.42 218.896 234.297 215.759 234.297 211.946C234.297 208.132 234.358 204.996 234.482 204.996C234.543 204.996 234.666 208.132 234.666 211.946C234.666 215.759 234.605 218.896 234.482 218.896Z" fill="#263238"/>
<path d="M238.056 218.896C237.994 218.896 237.871 215.759 237.871 211.946C237.871 208.132 237.933 204.996 238.056 204.996C238.117 204.996 238.241 208.132 238.241 211.946C238.179 215.759 238.117 218.896 238.056 218.896Z" fill="#263238"/>
<path d="M241.568 218.896C241.506 218.896 241.383 215.759 241.383 211.946C241.383 208.132 241.444 204.996 241.568 204.996C241.691 204.996 241.752 208.132 241.752 211.946C241.752 215.759 241.691 218.896 241.568 218.896Z" fill="#263238"/>
<path d="M245.136 218.896C245.074 218.896 244.951 215.759 244.951 211.946C244.951 208.132 245.013 204.996 245.136 204.996C245.198 204.996 245.321 208.132 245.321 211.946C245.321 215.759 245.198 218.896 245.136 218.896Z" fill="#263238"/>
<path d="M248.71 218.896C248.649 218.896 248.525 215.759 248.525 211.946C248.525 208.132 248.587 204.996 248.71 204.996C248.833 204.996 248.895 208.132 248.895 211.946C248.833 215.759 248.772 218.896 248.71 218.896Z" fill="#263238"/>
<path d="M252.22 218.896C252.158 218.896 252.035 215.759 252.035 211.946C252.035 208.132 252.097 204.996 252.22 204.996C252.343 204.996 252.405 208.132 252.405 211.946C252.405 215.759 252.343 218.896 252.22 218.896Z" fill="#263238"/>
<path d="M255.79 218.896C255.729 218.896 255.605 215.759 255.605 211.946C255.605 208.132 255.667 204.996 255.79 204.996C255.852 204.996 255.975 208.132 255.975 211.946C255.975 215.759 255.852 218.896 255.79 218.896Z" fill="#263238"/>
<path d="M259.362 218.896C259.301 218.896 259.178 215.759 259.178 211.946C259.178 208.132 259.239 204.996 259.362 204.996C259.486 204.996 259.547 208.132 259.547 211.946C259.486 215.759 259.424 218.896 259.362 218.896Z" fill="#263238"/>
<path d="M200.555 215.328C200.555 215.328 200.493 215.328 200.37 215.328C200.185 215.328 200 215.328 199.754 215.328C199.2 215.328 198.399 215.328 197.414 215.328C195.32 215.328 192.365 215.328 188.731 215.39C181.403 215.39 171.304 215.39 160.158 215.451C145.379 215.451 132.447 215.39 125.55 215.39L125.611 215.328C125.611 217.174 125.611 218.65 125.55 219.634C125.55 220.126 125.55 220.495 125.55 220.741C125.55 220.864 125.55 220.925 125.55 221.048C125.55 221.11 125.55 221.171 125.55 221.171C125.55 221.171 125.55 221.11 125.55 221.048C125.55 220.987 125.55 220.864 125.55 220.741C125.55 220.495 125.55 220.126 125.55 219.634C125.55 218.65 125.55 217.174 125.488 215.328V215.267H125.55C132.447 215.205 145.379 215.205 160.158 215.205C171.304 215.205 181.403 215.267 188.731 215.267C192.365 215.267 195.32 215.328 197.414 215.328C198.399 215.328 199.2 215.328 199.754 215.328C200 215.328 200.185 215.328 200.37 215.328C200.493 215.328 200.555 215.328 200.555 215.328Z" fill="#263238"/>
<path d="M194.335 220.495C194.274 220.495 194.15 219.326 194.15 217.973C194.15 216.558 194.212 215.451 194.335 215.451C194.397 215.451 194.52 216.62 194.52 217.973C194.458 219.326 194.397 220.495 194.335 220.495Z" fill="#263238"/>
<path d="M183.804 220.495C183.742 220.495 183.619 219.326 183.619 217.973C183.619 216.558 183.681 215.451 183.804 215.451C183.927 215.451 183.989 216.62 183.989 217.973C183.989 219.326 183.927 220.495 183.804 220.495Z" fill="#263238"/>
<path d="M173.335 220.495C173.274 220.495 173.15 219.326 173.15 217.973C173.15 216.558 173.212 215.451 173.335 215.451C173.397 215.451 173.52 216.62 173.52 217.973C173.52 219.326 173.458 220.495 173.335 220.495Z" fill="#263238"/>
<path d="M162.866 220.495C162.805 220.495 162.682 219.326 162.682 217.973C162.682 216.558 162.743 215.451 162.866 215.451C162.99 215.451 163.051 216.62 163.051 217.973C163.051 219.326 162.928 220.495 162.866 220.495Z" fill="#263238"/>
<path d="M152.396 220.495C152.334 220.495 152.211 219.326 152.211 217.973C152.211 216.558 152.273 215.451 152.396 215.451C152.457 215.451 152.58 216.62 152.58 217.973C152.519 219.326 152.457 220.495 152.396 220.495Z" fill="#263238"/>
<path d="M141.929 220.495C141.867 220.495 141.744 219.326 141.744 217.973C141.744 216.558 141.806 215.451 141.929 215.451C142.052 215.451 142.114 216.62 142.114 217.973C142.052 219.326 141.99 220.495 141.929 220.495Z" fill="#263238"/>
<path d="M131.398 220.495C131.336 220.495 131.213 219.326 131.213 217.973C131.213 216.558 131.274 215.451 131.398 215.451C131.459 215.451 131.582 216.62 131.582 217.973C131.582 219.326 131.521 220.495 131.398 220.495Z" fill="#263238"/>
<path d="M275.559 220.31C275.559 220.31 275.559 220.187 275.559 220.003C275.559 219.757 275.559 219.449 275.559 219.08C275.559 218.219 275.559 216.989 275.498 215.39L275.559 215.451C268.97 215.513 255.731 215.513 240.52 215.513C229.497 215.513 219.521 215.451 212.255 215.451C208.683 215.451 205.727 215.39 203.695 215.39C202.71 215.39 201.909 215.39 201.355 215.39C201.109 215.39 200.924 215.39 200.739 215.39C200.616 215.39 200.555 215.39 200.555 215.39C200.555 215.39 200.616 215.39 200.739 215.39C200.863 215.39 201.109 215.39 201.355 215.39C201.909 215.39 202.71 215.39 203.695 215.39C205.727 215.39 208.683 215.39 212.255 215.328C219.521 215.328 229.497 215.328 240.52 215.267C255.731 215.267 268.97 215.328 275.559 215.328H275.621V215.39C275.621 216.989 275.621 218.219 275.559 219.08C275.559 219.511 275.559 219.818 275.559 220.003C275.559 220.187 275.559 220.31 275.559 220.31Z" fill="#263238"/>
<path d="M248.403 220.495C248.342 220.495 248.219 219.326 248.219 217.973C248.219 216.558 248.28 215.451 248.403 215.451C248.465 215.451 248.588 216.62 248.588 217.973C248.527 219.326 248.465 220.495 248.403 220.495Z" fill="#263238"/>
<path d="M237.874 220.495C237.813 220.495 237.689 219.326 237.689 217.973C237.689 216.558 237.751 215.451 237.874 215.451C237.936 215.451 238.059 216.62 238.059 217.973C238.059 219.326 237.997 220.495 237.874 220.495Z" fill="#263238"/>
<path d="M227.405 220.495C227.344 220.495 227.221 219.326 227.221 217.973C227.221 216.558 227.282 215.451 227.405 215.451C227.529 215.451 227.59 216.62 227.59 217.973C227.59 219.326 227.467 220.495 227.405 220.495Z" fill="#263238"/>
<path d="M216.937 220.495C216.875 220.495 216.752 219.326 216.752 217.973C216.752 216.558 216.814 215.451 216.937 215.451C216.998 215.451 217.121 216.62 217.121 217.973C217.06 219.326 216.998 220.495 216.937 220.495Z" fill="#263238"/>
<path d="M206.468 220.495C206.406 220.495 206.283 219.326 206.283 217.973C206.283 216.558 206.345 215.451 206.468 215.451C206.591 215.451 206.653 216.62 206.653 217.973C206.591 219.326 206.53 220.495 206.468 220.495Z" fill="#263238"/>
<path d="M124.195 212.561C124.195 212.561 124.195 212.438 124.195 212.253C124.195 212.007 124.195 211.7 124.195 211.331C124.195 210.47 124.195 209.239 124.134 207.64L124.195 207.702C117.237 207.763 102.827 207.763 86.2618 207.763C70.3125 207.763 56.3954 207.702 49.1905 207.702L49.2521 207.64C49.2521 209.485 49.2521 210.962 49.1905 211.946C49.1905 212.438 49.1905 212.807 49.1905 213.053C49.1905 213.299 49.1905 213.422 49.1905 213.422C49.1905 213.422 49.1905 213.299 49.1905 213.053C49.1905 212.807 49.1905 212.438 49.1905 211.946C49.1905 210.962 49.1905 209.485 49.1289 207.64V207.579H49.1905C56.3954 207.517 70.3125 207.517 86.2618 207.517C102.827 207.517 117.237 207.579 124.195 207.579H124.257V207.64C124.257 209.239 124.257 210.47 124.195 211.331C124.195 211.761 124.195 212.069 124.195 212.253C124.195 212.438 124.195 212.561 124.195 212.561Z" fill="#263238"/>
<path d="M117.978 212.807C117.916 212.807 117.793 211.638 117.793 210.285C117.793 208.87 117.855 207.763 117.978 207.763C118.039 207.763 118.162 208.932 118.162 210.285C118.101 211.638 118.039 212.807 117.978 212.807Z" fill="#263238"/>
<path d="M107.507 212.807C107.445 212.807 107.322 211.638 107.322 210.285C107.322 208.87 107.384 207.763 107.507 207.763C107.569 207.763 107.692 208.932 107.692 210.285C107.63 211.638 107.569 212.807 107.507 212.807Z" fill="#263238"/>
<path d="M96.9797 212.807C96.9181 212.807 96.7949 211.638 96.7949 210.285C96.7949 208.87 96.8565 207.763 96.9797 207.763C97.0412 207.763 97.1644 208.932 97.1644 210.285C97.1644 211.638 97.1028 212.807 96.9797 212.807Z" fill="#263238"/>
<path d="M86.5109 212.807C86.4493 212.807 86.3262 211.638 86.3262 210.285C86.3262 208.87 86.3878 207.763 86.5109 207.763C86.6341 207.763 86.6957 208.932 86.6957 210.285C86.6957 211.638 86.6341 212.807 86.5109 212.807Z" fill="#263238"/>
<path d="M76.0402 212.807C75.9786 212.807 75.8555 211.638 75.8555 210.285C75.8555 208.87 75.9171 207.763 76.0402 207.763C76.1018 207.763 76.225 208.932 76.225 210.285C76.1634 211.638 76.1018 212.807 76.0402 212.807Z" fill="#263238"/>
<path d="M65.5734 212.807C65.5118 212.807 65.3887 211.638 65.3887 210.285C65.3887 208.87 65.4503 207.763 65.5734 207.763C65.6966 207.763 65.7581 208.932 65.7581 210.285C65.6966 211.638 65.635 212.807 65.5734 212.807Z" fill="#263238"/>
<path d="M55.0422 212.807C54.9806 212.807 54.8574 211.638 54.8574 210.285C54.8574 208.87 54.919 207.763 55.0422 207.763C55.1037 207.763 55.2269 208.932 55.2269 210.285C55.2269 211.638 55.1653 212.807 55.0422 212.807Z" fill="#263238"/>
<path d="M87.3078 175.289H72.3438V193.433H87.3078V175.289Z" fill="#E39D29"/>
<path d="M129.179 175.289H87.3047V193.433H129.179V175.289Z" fill="#E39D29"/>
<path opacity="0.4" d="M129.179 175.289H87.3047V193.433H129.179V175.289Z" fill="black"/>
<path d="M80.1008 193.494C80.0392 193.494 79.916 189.435 79.916 184.515C79.916 179.533 79.9776 175.535 80.1008 175.535C80.1623 175.535 80.2855 179.594 80.2855 184.515C80.2855 189.435 80.2239 193.494 80.1008 193.494Z" fill="#263238"/>
<path d="M126.778 191.403C126.778 191.403 126.778 191.342 126.778 191.157C126.778 190.973 126.778 190.727 126.778 190.419C126.778 189.804 126.778 188.82 126.778 187.651C126.778 185.253 126.717 181.808 126.717 177.503L126.84 177.626C117.48 177.626 104.055 177.688 89.0912 177.688C88.968 177.811 89.2759 177.503 89.2759 177.503V177.565V177.688V177.934V178.364V179.287C89.2759 179.902 89.2759 180.455 89.2759 181.07C89.2759 182.239 89.2759 183.407 89.2759 184.576C89.2759 186.913 89.2759 189.189 89.2759 191.342L89.0912 191.157C99.9909 191.157 109.351 191.219 116.063 191.219C119.389 191.219 122.098 191.28 123.946 191.28C124.869 191.28 125.547 191.28 126.039 191.28C126.286 191.28 126.47 191.28 126.594 191.28C126.717 191.403 126.778 191.403 126.778 191.403C126.778 191.403 126.717 191.403 126.594 191.403C126.47 191.403 126.286 191.403 126.039 191.403C125.547 191.403 124.869 191.403 123.946 191.403C122.098 191.403 119.45 191.403 116.125 191.465C109.413 191.465 99.9293 191.526 89.0296 191.526H88.8449V191.342C88.8449 189.189 88.8449 186.913 88.8449 184.576C88.8449 183.407 88.8449 182.239 88.8449 181.07C88.8449 180.455 88.8449 179.902 88.8449 179.287V178.364V177.934V177.688V177.565V177.503C88.7833 177.565 89.1528 177.196 89.0296 177.319C103.994 177.319 117.418 177.38 126.778 177.38H126.901V177.503C126.901 181.808 126.84 185.314 126.84 187.713C126.84 188.881 126.84 189.804 126.84 190.419C126.84 190.727 126.84 190.973 126.84 191.096C126.84 191.342 126.778 191.403 126.778 191.403Z" fill="#263238"/>
<path d="M91.9836 191.403C91.922 191.403 91.7988 188.266 91.7988 184.453C91.7988 180.64 91.8604 177.503 91.9836 177.503C92.0452 177.503 92.1683 180.64 92.1683 184.453C92.1683 188.266 92.0452 191.403 91.9836 191.403Z" fill="#263238"/>
<path d="M95.5578 191.403C95.4962 191.403 95.373 188.266 95.373 184.453C95.373 180.64 95.4346 177.503 95.5578 177.503C95.6194 177.503 95.7425 180.64 95.7425 184.453C95.681 188.266 95.6194 191.403 95.5578 191.403Z" fill="#263238"/>
<path d="M99.0676 191.403C99.006 191.403 98.8828 188.266 98.8828 184.453C98.8828 180.64 98.9444 177.503 99.0676 177.503C99.1907 177.503 99.2523 180.64 99.2523 184.453C99.2523 188.266 99.1907 191.403 99.0676 191.403Z" fill="#263238"/>
<path d="M102.638 191.403C102.576 191.403 102.453 188.266 102.453 184.453C102.453 180.64 102.515 177.503 102.638 177.503C102.699 177.503 102.823 180.64 102.823 184.453C102.823 188.266 102.699 191.403 102.638 191.403Z" fill="#263238"/>
<path d="M106.212 191.403C106.151 191.403 106.027 188.266 106.027 184.453C106.027 180.64 106.089 177.503 106.212 177.503C106.335 177.503 106.397 180.64 106.397 184.453C106.335 188.266 106.274 191.403 106.212 191.403Z" fill="#263238"/>
<path d="M109.72 191.403C109.658 191.403 109.535 188.266 109.535 184.453C109.535 180.64 109.597 177.503 109.72 177.503C109.781 177.503 109.905 180.64 109.905 184.453C109.905 188.266 109.843 191.403 109.72 191.403Z" fill="#263238"/>
<path d="M113.292 191.403C113.231 191.403 113.107 188.266 113.107 184.453C113.107 180.64 113.169 177.503 113.292 177.503C113.415 177.503 113.477 180.64 113.477 184.453C113.415 188.266 113.354 191.403 113.292 191.403Z" fill="#263238"/>
<path d="M116.804 191.403C116.742 191.403 116.619 188.266 116.619 184.453C116.619 180.64 116.681 177.503 116.804 177.503C116.865 177.503 116.989 180.64 116.989 184.453C116.989 188.266 116.927 191.403 116.804 191.403Z" fill="#263238"/>
<path d="M120.374 191.403C120.313 191.403 120.189 188.266 120.189 184.453C120.189 180.64 120.251 177.503 120.374 177.503C120.436 177.503 120.559 180.64 120.559 184.453C120.559 188.266 120.436 191.403 120.374 191.403Z" fill="#263238"/>
<path d="M123.946 191.403C123.885 191.403 123.762 188.266 123.762 184.453C123.762 180.64 123.823 177.503 123.946 177.503C124.07 177.503 124.131 180.64 124.131 184.453C124.07 188.266 124.008 191.403 123.946 191.403Z" fill="#263238"/>
<path d="M276.053 220.741V179.102H317.435V221.11" fill="#455A64"/>
<path d="M306.349 215.759H304.07V220.741H306.349V215.759Z" fill="#263238"/>
<path d="M280.854 208.993H279.438V212.561H280.854V208.993Z" fill="#263238"/>
<path d="M280.854 215.328H279.438V218.896H280.854V215.328Z" fill="#263238"/>
<path d="M289.168 208.993H287.752V212.561H289.168V208.993Z" fill="#263238"/>
<path d="M289.168 215.267H287.752V218.834H289.168V215.267Z" fill="#263238"/>
<path d="M297.481 208.993H296.064V212.561H297.481V208.993Z" fill="#263238"/>
<path d="M297.481 215.205H296.064V218.773H297.481V215.205Z" fill="#263238"/>
<path d="M305.733 208.993H304.316V212.561H305.733V208.993Z" fill="#263238"/>
<path d="M314.047 208.993H312.631V212.561H314.047V208.993Z" fill="#263238"/>
<path d="M314.047 215.021H312.631V218.588H314.047V215.021Z" fill="#263238"/>
<path d="M306.228 193.064H303.949V198.046H306.228V193.064Z" fill="#263238"/>
<path d="M280.854 183.469H279.438V187.036H280.854V183.469Z" fill="#263238"/>
<path d="M280.854 189.804H279.438V193.371H280.854V189.804Z" fill="#263238"/>
<path d="M289.168 183.469H287.752V187.036H289.168V183.469Z" fill="#263238"/>
<path d="M289.168 189.742H287.752V193.31H289.168V189.742Z" fill="#263238"/>
<path d="M297.481 183.469H296.064V187.036H297.481V183.469Z" fill="#263238"/>
<path d="M297.481 189.681H296.064V193.248H297.481V189.681Z" fill="#263238"/>
<path d="M305.733 183.469H304.316V187.036H305.733V183.469Z" fill="#263238"/>
<path d="M314.047 183.469H312.631V187.036H314.047V183.469Z" fill="#263238"/>
<path d="M314.047 189.496H312.631V193.064H314.047V189.496Z" fill="#263238"/>
<path d="M85.5845 260.165C85.5845 260.165 92.0504 236.486 68.6499 231.135C46.7889 226.092 47.3431 212.622 47.3431 212.622H125.673V220.802H331.783C331.783 220.802 330.674 247.311 311.338 260.165" fill="#455A64"/>
<path d="M86.1402 249.033H322.362C322.362 249.033 315.835 257.828 311.339 260.165H85.5859C85.5859 260.165 86.3865 255.183 86.1402 249.033Z" fill="#263238"/>
<path d="M316.264 198.046C316.264 198.046 316.264 197.861 316.202 197.615C316.202 197.307 316.202 196.815 316.202 196.262L316.264 196.323C312.754 196.385 304.256 196.446 294.403 196.446C284.489 196.446 276.052 196.385 272.542 196.323L272.604 196.262C272.604 196.815 272.604 197.246 272.604 197.615C272.604 197.923 272.604 198.046 272.542 198.046C272.542 198.046 272.542 197.861 272.48 197.615C272.48 197.307 272.48 196.815 272.48 196.262V196.2H272.542C276.052 196.139 284.55 196.077 294.403 196.077C304.317 196.077 312.754 196.139 316.264 196.2H316.326V196.262C316.326 196.815 316.326 197.246 316.326 197.615C316.264 197.923 316.264 198.046 316.264 198.046Z" fill="#263238"/>
<path d="M277.958 198.538C277.897 198.538 277.773 197.984 277.773 197.369C277.773 196.692 277.835 196.2 277.958 196.2C278.081 196.2 278.143 196.754 278.143 197.369C278.081 198.046 278.02 198.538 277.958 198.538Z" fill="#263238"/>
<path d="M283.747 198.538C283.686 198.538 283.562 197.984 283.562 197.369C283.562 196.692 283.624 196.2 283.747 196.2C283.87 196.2 283.932 196.754 283.932 197.369C283.87 198.046 283.809 198.538 283.747 198.538Z" fill="#263238"/>
<path d="M289.538 198.538C289.477 198.538 289.354 197.984 289.354 197.369C289.354 196.692 289.415 196.2 289.538 196.2C289.6 196.2 289.723 196.754 289.723 197.369C289.661 198.046 289.6 198.538 289.538 198.538Z" fill="#263238"/>
<path d="M295.327 198.538C295.266 198.538 295.143 197.984 295.143 197.369C295.143 196.692 295.204 196.2 295.327 196.2C295.389 196.2 295.512 196.754 295.512 197.369C295.451 198.046 295.389 198.538 295.327 198.538Z" fill="#263238"/>
<path d="M301.116 198.538C301.055 198.538 300.932 197.984 300.932 197.369C300.932 196.692 300.993 196.2 301.116 196.2C301.178 196.2 301.301 196.754 301.301 197.369C301.24 198.046 301.178 198.538 301.116 198.538Z" fill="#263238"/>
<path d="M306.902 198.538C306.84 198.538 306.717 197.984 306.717 197.369C306.717 196.692 306.778 196.2 306.902 196.2C306.963 196.2 307.086 196.754 307.086 197.369C307.025 198.046 306.963 198.538 306.902 198.538Z" fill="#263238"/>
<path d="M312.691 198.538C312.629 198.538 312.506 197.984 312.506 197.369C312.506 196.692 312.567 196.2 312.691 196.2C312.752 196.2 312.875 196.754 312.875 197.369C312.814 198.046 312.752 198.538 312.691 198.538Z" fill="#263238"/>
<path d="M317.371 198.046H271.617V202.597H317.371V198.046Z" fill="#263238"/>
<path opacity="0.4" d="M283.012 172.706H288L288.554 175.904H283.012V172.706Z" fill="white"/>
<path d="M331.598 220.31C331.598 220.31 331.598 220.187 331.598 220.003C331.598 219.757 331.598 219.449 331.598 219.019C331.598 218.158 331.598 216.927 331.537 215.39L331.598 215.451C326.056 215.513 316.08 215.513 304.749 215.513C296.005 215.513 288.061 215.451 282.272 215.451C279.44 215.451 277.1 215.39 275.437 215.39C274.636 215.39 274.021 215.39 273.589 215.39C273.405 215.39 273.22 215.39 273.097 215.39C272.974 215.39 272.912 215.39 272.912 215.39C272.912 215.39 272.974 215.39 273.097 215.39C273.22 215.39 273.405 215.39 273.589 215.39C274.021 215.39 274.636 215.39 275.437 215.39C277.1 215.39 279.378 215.39 282.272 215.328C288.061 215.328 296.005 215.328 304.749 215.267C316.08 215.267 326.056 215.267 331.598 215.328H331.66V215.39C331.66 216.927 331.66 218.158 331.598 219.019C331.598 219.449 331.598 219.757 331.598 220.003C331.598 220.187 331.598 220.31 331.598 220.31Z" fill="#263238"/>
<path d="M325.378 220.495C325.317 220.495 325.193 219.326 325.193 217.973C325.193 216.558 325.255 215.451 325.378 215.451C325.44 215.451 325.563 216.62 325.563 217.973C325.563 219.326 325.501 220.495 325.378 220.495Z" fill="#263238"/>
<path d="M314.911 220.495C314.85 220.495 314.727 219.326 314.727 217.973C314.727 216.558 314.788 215.451 314.911 215.451C315.034 215.451 315.096 216.62 315.096 217.973C315.096 219.326 314.973 220.495 314.911 220.495Z" fill="#263238"/>
<path d="M304.441 220.495C304.379 220.495 304.256 219.326 304.256 217.973C304.256 216.558 304.317 215.451 304.441 215.451C304.502 215.451 304.625 216.62 304.625 217.973C304.564 219.326 304.502 220.495 304.441 220.495Z" fill="#263238"/>
<path d="M293.974 220.495C293.912 220.495 293.789 219.326 293.789 217.973C293.789 216.558 293.851 215.451 293.974 215.451C294.097 215.451 294.159 216.62 294.159 217.973C294.097 219.326 294.035 220.495 293.974 220.495Z" fill="#263238"/>
<path d="M283.443 220.495C283.381 220.495 283.258 219.326 283.258 217.973C283.258 216.558 283.319 215.451 283.443 215.451C283.504 215.451 283.627 216.62 283.627 217.973C283.627 219.326 283.566 220.495 283.443 220.495Z" fill="#263238"/>
<path d="M272.974 220.495C272.912 220.495 272.789 219.326 272.789 217.973C272.789 216.558 272.851 215.451 272.974 215.451C273.035 215.451 273.159 216.62 273.159 217.973C273.159 219.326 273.097 220.495 272.974 220.495Z" fill="#263238"/>
<path d="M262.505 220.495C262.443 220.495 262.32 219.326 262.32 217.973C262.32 216.558 262.382 215.451 262.505 215.451C262.628 215.451 262.69 216.62 262.69 217.973C262.628 219.326 262.567 220.495 262.505 220.495Z" fill="#263238"/>
</svg>
