<svg width="407" height="300" viewBox="0 0 407 300" fill="none" xmlns="http://www.w3.org/2000/svg">
<g clip-path="url(#clip0)">
<path d="M396 269.683H12V269.914H396V269.683Z" fill="#AACCFF"/>
<path d="M357.522 282.048H332.102V282.278H357.522V282.048Z" fill="#AACCFF"/>
<path d="M221.817 279.667H211.91V279.898H221.817V279.667Z" fill="#AACCFF"/>
<path d="M280.493 280.435H259.68V280.666H280.493V280.435Z" fill="#AACCFF"/>
<path d="M331.335 274.906H288.25V275.136H331.335V274.906Z" fill="#AACCFF"/>
<path d="M72.6723 283.814H52.3203V284.045H72.6723V283.814Z" fill="#AACCFF"/>
<path d="M97.1718 283.814H79.5078V284.045H97.1718V283.814Z" fill="#AACCFF"/>
<path d="M159.302 279.514H112.607V279.744H159.302V279.514Z" fill="#AACCFF"/>
<path d="M194.016 235.43H45.7155C43.3347 235.43 41.3379 233.434 41.3379 231.053V22.6176C41.3379 20.2368 43.3347 18.24 45.7155 18.24H194.016C196.397 18.24 198.394 20.2368 198.394 22.6176V231.053C198.394 233.434 196.474 235.43 194.016 235.43ZM45.7155 18.3936C43.4115 18.3936 41.4915 20.2368 41.4915 22.6176V231.053C41.4915 233.357 43.3347 235.277 45.7155 235.277H194.016C196.32 235.277 198.24 233.434 198.24 231.053V22.6176C198.24 20.3136 196.397 18.3936 194.016 18.3936H45.7155Z" fill="#AACCFF"/>
<path d="M360.134 235.43H211.833C209.452 235.43 207.455 233.434 207.455 231.053V22.6176C207.455 20.2368 209.452 18.24 211.833 18.24H360.134C362.514 18.24 364.511 20.2368 364.511 22.6176V231.053C364.511 233.434 362.591 235.43 360.134 235.43ZM211.833 18.3936C209.529 18.3936 207.609 20.2368 207.609 22.6176V231.053C207.609 233.357 209.452 235.277 211.833 235.277H360.134C362.438 235.277 364.358 233.434 364.358 231.053V22.6176C364.358 20.3136 362.514 18.3936 360.134 18.3936H211.833Z" fill="#AACCFF"/>
<path d="M61.7966 269.682H67.3262L67.3262 33.5987H61.7966L61.7966 269.682Z" fill="#AACCFF"/>
<path d="M64.5917 269.699H210.512L210.512 41.4494L64.5917 41.4494L64.5917 269.699Z" fill="#A1BEFF"/>
<path d="M80.6582 180.595H142.482V83.9808L81.6566 83.5968L80.6582 180.595Z" fill="#AACCFF"/>
<path d="M81.6076 179.928H143.432V83.2369L81.6076 83.2369L81.6076 179.928Z" fill="#CFE2FF"/>
<path d="M112.532 132.749C122.457 132.749 130.503 124.703 130.503 114.778C130.503 104.852 122.457 96.8064 112.532 96.8064C102.607 96.8064 94.5605 104.852 94.5605 114.778C94.5605 124.703 102.607 132.749 112.532 132.749Z" fill="#F5F5F5"/>
<path d="M116.708 160.342C122.273 158.037 124.915 151.658 122.61 146.093C120.305 140.528 113.925 137.886 108.361 140.191C102.796 142.496 100.154 148.876 102.459 154.44C104.764 160.005 111.143 162.647 116.708 160.342Z" fill="#F5F5F5"/>
<path d="M340.955 269.682H346.484L346.484 33.5987H340.955L340.955 269.682Z" fill="#AACCFF"/>
<path d="M309.907 36.672H59.0781V72.1536H309.907V36.672Z" fill="#A1BEFF"/>
<path d="M299.54 45.8879H181.498V62.9375H299.54V45.8879Z" fill="#CFE2FF"/>
<path d="M69.3515 62.9546L171.803 62.9546V45.905L69.3515 45.905V62.9546Z" fill="#CFE2FF"/>
<path d="M309.835 72.1707H348.926V36.689L309.835 36.689V72.1707Z" fill="#AACCFF"/>
<path d="M345.234 45.8879H328.568V62.9375H345.234V45.8879Z" fill="#CFE2FF"/>
<path d="M315.707 62.9546H327.227V45.905H315.707V62.9546Z" fill="#CFE2FF"/>
<path d="M187.564 156.634H305.145C309.369 156.634 312.825 160.09 312.825 164.314V269.76H179.961V164.237C179.961 160.013 183.417 156.634 187.564 156.634Z" fill="#AACCFF"/>
<path d="M172.203 156.634H289.784C294.008 156.634 297.464 160.09 297.464 164.314V269.76H164.523V164.237C164.523 160.013 167.979 156.634 172.203 156.634Z" fill="#AACCFF"/>
<path opacity="0.3" d="M294.853 269.683V164.237C294.853 161.395 292.549 159.168 289.784 159.168H172.204C169.362 159.168 167.135 161.472 167.135 164.237V269.683H294.853Z" fill="#CFE2FF"/>
<path opacity="0.9" d="M294.852 269.683V164.237C294.852 161.395 292.548 159.168 289.783 159.168H173.508C170.667 159.168 168.439 161.472 168.439 164.237V269.683H294.852Z" fill="#CFE2FF"/>
<path d="M270.584 156.634H260.831L257.912 141.504H267.666L270.584 156.634Z" fill="#AACCFF"/>
<path d="M276.114 122.842H263.058C262.137 122.842 261.138 123.61 260.985 124.454L255.378 148.646C255.148 149.568 255.762 150.259 256.761 150.259H269.817C270.738 150.259 271.737 149.491 271.89 148.646L277.497 124.454C277.727 123.533 277.113 122.842 276.114 122.842Z" fill="#E6E6E6"/>
<path d="M270.2 147.418H257.682C257.144 147.418 256.837 147.034 256.991 146.573L262.06 124.608C262.136 124.147 262.674 123.763 263.135 123.763H275.653C276.191 123.763 276.498 124.147 276.344 124.608L271.276 146.573C271.199 147.034 270.661 147.418 270.2 147.418Z" fill="#407BFF"/>
<path d="M244.242 156.634H234.565L231.646 141.504H241.4L244.242 156.634Z" fill="#AACCFF"/>
<path d="M252.536 119.923H236.101C235.18 119.923 234.181 120.691 234.028 121.536L227.73 148.646C227.5 149.568 228.114 150.259 229.112 150.259H245.548C246.469 150.259 247.468 149.491 247.621 148.646L253.919 121.536C254.149 120.614 253.535 119.923 252.536 119.923Z" fill="#E6E6E6"/>
<path d="M245.931 147.418H230.033C229.496 147.418 229.189 147.034 229.342 146.573L235.102 121.69C235.179 121.229 235.717 120.845 236.177 120.845H252.075C252.613 120.845 252.92 121.229 252.766 121.69L247.006 146.573C246.929 147.034 246.392 147.418 245.931 147.418Z" fill="#407BFF"/>
<path d="M214.367 156.634H204.69L201.771 141.504H211.525L214.367 156.634Z" fill="#AACCFF"/>
<path d="M224.889 116.314H203.923C203.001 116.314 202.003 117.082 201.849 117.926L194.707 148.646C194.476 149.568 195.091 150.259 196.089 150.259H217.055C217.977 150.259 218.975 149.491 219.129 148.646L226.271 117.926C226.502 117.005 225.887 116.314 224.889 116.314Z" fill="#E6E6E6"/>
<path d="M217.439 147.418H197.01C196.472 147.418 196.165 147.034 196.319 146.573L202.924 118.08C203 117.619 203.538 117.235 203.999 117.235H224.428C224.965 117.235 225.272 117.619 225.119 118.08L218.514 146.573C218.437 147.034 217.976 147.418 217.439 147.418Z" fill="#407BFF"/>
<path d="M270.507 180.518H175.812V188.198H270.507V180.518Z" fill="#A1BEFF"/>
<path d="M237.944 196.877H175.812V204.557H237.944V196.877Z" fill="#A1BEFF"/>
<path d="M256.913 213.235H175.812V220.915H256.913V213.235Z" fill="#A1BEFF"/>
<path d="M132.884 286.886L138.798 285.504L136.494 271.68L130.58 273.062L132.884 286.886Z" fill="#CE7A63"/>
<path d="M138.95 284.736L132.345 286.272C132.115 286.349 131.961 286.502 131.961 286.81L132.806 292.109C132.883 292.646 133.497 293.03 134.111 292.954C136.415 292.339 137.491 291.955 140.409 291.341C142.175 290.957 149.855 289.344 152.39 288.73C154.847 288.192 154.233 285.734 153.158 285.734C148.243 285.811 142.099 285.811 140.102 284.89C139.718 284.736 139.334 284.659 138.95 284.736Z" fill="#263238"/>
<path opacity="0.2" d="M130.58 273.062L136.494 271.68L137.722 278.822L131.809 280.205L130.58 273.062Z" fill="black"/>
<path d="M121.747 135.898C121.747 135.898 129.504 185.126 131.808 202.33C134.343 221.146 139.565 276.211 139.565 276.211L128.89 279.13C128.89 279.13 118.752 225.83 114.528 207.475C109.997 187.584 100.09 135.821 100.09 135.821H121.747V135.898Z" fill="#263238"/>
<path d="M121.747 135.898C121.747 135.898 129.504 185.126 131.808 202.33C134.343 221.146 139.565 276.211 139.565 276.211L128.89 279.13C128.89 279.13 118.752 225.83 114.528 207.475C109.997 187.584 100.09 135.821 100.09 135.821H121.747V135.898Z" fill="#252E32"/>
<path opacity="0.3" d="M108.999 153.178C113.069 163.622 112.839 184.282 111.073 191.501C108.615 179.52 105.773 165.235 103.623 154.176C104.468 151.334 106.541 146.803 108.999 153.178Z" fill="black"/>
<path d="M128.66 279.36L140.103 276.211L139.873 271.526L126.971 275.981L128.66 279.36Z" fill="#263238"/>
<path d="M141.331 285.274C140.793 285.427 140.179 285.427 139.718 285.427C139.641 285.427 139.641 285.427 139.564 285.35C139.564 285.274 139.564 285.274 139.564 285.197C139.718 285.043 141.177 283.507 141.945 283.584C142.099 283.584 142.252 283.738 142.329 283.891C142.483 284.198 142.483 284.429 142.329 284.659C142.176 285.043 141.792 285.197 141.331 285.274ZM140.025 285.197C141.1 285.197 141.868 284.966 142.099 284.582C142.176 284.429 142.176 284.275 142.099 284.045C142.022 283.968 142.022 283.891 141.868 283.891C141.484 283.891 140.64 284.582 140.025 285.197Z" fill="#263238"/>
<path d="M139.718 285.427C139.718 285.504 139.641 285.504 139.718 285.427C139.641 285.427 139.564 285.35 139.564 285.35C139.564 285.274 139.027 283.584 139.487 282.893C139.641 282.739 139.795 282.586 140.025 282.586C140.332 282.586 140.486 282.662 140.639 282.893C140.87 283.507 140.332 284.966 139.718 285.427C139.718 285.427 139.795 285.427 139.718 285.427ZM140.025 282.893C139.948 282.893 139.795 282.97 139.795 283.046C139.487 283.507 139.718 284.429 139.795 285.043C140.179 284.506 140.563 283.43 140.409 283.046C140.332 282.97 140.255 282.816 140.025 282.893Z" fill="#263238"/>
<path d="M123.897 89.7408C124.512 91.3536 125.126 93.12 125.74 94.8096C126.432 96.4992 127.046 98.1888 127.737 99.8016C129.12 103.104 130.579 106.33 132.345 109.248L133.036 110.246L133.267 110.63C133.344 110.707 133.344 110.784 133.42 110.861C133.651 111.091 133.651 111.168 133.804 111.245C133.881 111.322 134.265 111.398 134.726 111.322C135.264 111.245 135.878 111.014 136.492 110.707C139.18 109.402 142.022 107.021 144.556 104.64L148.243 107.328C147.244 109.171 146.092 110.707 144.787 112.32C143.481 113.856 142.022 115.392 140.179 116.698C139.257 117.389 138.182 118.003 136.876 118.464C135.571 118.925 134.035 119.232 132.268 118.925C130.502 118.694 128.889 117.773 127.737 116.698C127.43 116.467 127.2 116.16 126.969 115.853L126.585 115.469L126.355 115.162L125.356 113.933C122.899 110.554 121.056 107.021 119.443 103.488C118.598 101.722 117.83 99.9552 117.139 98.112C116.448 96.2688 115.756 94.5024 115.219 92.5824L123.897 89.7408Z" fill="#FFBE9D"/>
<path d="M119.752 83.52C113.762 82.1376 110.075 85.9776 111.918 93.504C112.917 97.6512 114.683 102.643 115.989 106.176C116.373 107.098 116.68 107.942 116.91 108.634L130.581 101.03C129.122 95.04 123.822 84.4416 119.752 83.52Z" fill="#E39D29"/>
<path opacity="0.3" d="M120.058 90.6624C116.449 87.4368 120.135 100.57 121.671 106.022L125.665 103.795C125.281 99.9552 122.823 93.12 120.058 90.6624Z" fill="black"/>
<path d="M88.1094 289.498H94.1766L95.0982 275.443H89.031L88.1094 289.498Z" fill="#FFBE9D"/>
<path d="M94.4823 288.806H87.6471C87.4167 288.806 87.1863 288.96 87.1863 289.19L86.8023 294.566C86.7255 295.104 87.2631 295.642 87.8775 295.642C90.2583 295.565 91.4103 295.488 94.3287 295.488C96.1719 295.488 104.005 295.642 106.54 295.642C108.997 295.642 108.997 293.107 107.922 292.877C103.084 291.878 97.0935 290.419 95.4039 289.114C95.2503 288.883 94.8663 288.806 94.4823 288.806Z" fill="#263238"/>
<path opacity="0.2" d="M89.0292 275.443H95.0964L94.6356 282.739H88.5684L89.0292 275.443Z" fill="black"/>
<path d="M109.919 135.898C109.919 135.898 110.15 181.824 108.998 199.181C107.769 218.15 97.1705 281.05 97.1705 281.05H86.1113C86.1113 281.05 91.6409 219.686 91.1033 200.947C90.5657 180.595 89.3369 135.974 89.3369 135.974H109.919V135.898Z" fill="#263238"/>
<path d="M109.919 135.898C109.919 135.898 110.15 181.824 108.998 199.181C107.769 218.15 97.1705 281.05 97.1705 281.05H86.1113C86.1113 281.05 91.6409 219.686 91.1033 200.947C90.5657 180.595 89.3369 135.974 89.3369 135.974H109.919V135.898Z" fill="#263238"/>
<path d="M85.6509 280.973H97.6317L98.3229 276.749L85.1133 277.44L85.6509 280.973Z" fill="#407BFF"/>
<path d="M96.633 289.882C96.0954 289.882 95.481 289.805 95.0202 289.651C94.9434 289.651 94.9434 289.574 94.9434 289.574C94.9434 289.498 94.9434 289.498 95.0202 289.421C95.2506 289.267 96.9402 288.115 97.7081 288.422C97.8617 288.499 98.0153 288.653 98.0153 288.806C98.0921 289.114 98.0154 289.421 97.8618 289.574C97.5546 289.728 97.0938 289.882 96.633 289.882ZM95.4042 289.421C96.4794 289.651 97.2474 289.574 97.5546 289.344C97.7082 289.19 97.7082 289.037 97.6314 288.806C97.6314 288.73 97.5546 288.653 97.4778 288.576C97.0938 288.499 96.0954 288.96 95.4042 289.421Z" fill="#407BFF"/>
<path d="M95.0203 289.651C94.9435 289.651 94.8667 289.574 94.8667 289.498C94.8667 289.421 94.7131 287.654 95.3275 287.117C95.4811 286.963 95.7115 286.886 95.9419 286.886C96.2491 286.886 96.4027 287.04 96.4795 287.347C96.6331 287.962 95.7115 289.267 95.0203 289.651C95.0971 289.651 95.0971 289.651 95.0203 289.651ZM95.8651 287.194C95.7115 287.194 95.6347 287.27 95.5579 287.347C95.1739 287.731 95.0971 288.73 95.1739 289.267C95.7115 288.806 96.3259 287.885 96.2491 287.424C96.2491 287.27 96.1723 287.194 95.8651 287.194C95.9419 287.194 95.9419 287.194 95.8651 287.194Z" fill="#407BFF"/>
<path d="M121.748 135.898H89.4157C89.1853 132.979 89.9533 123.61 89.5693 111.629C89.2621 103.565 88.4941 94.4256 86.5741 85.2096C86.4205 84.5184 86.2669 83.904 86.1133 83.2896C86.1133 83.2896 87.7261 82.9824 90.1069 82.5984C92.0269 82.2912 94.4845 81.984 96.9421 81.9072C101.089 81.6768 107.08 81.6 110.689 81.9072C112.84 82.1376 114.836 82.4448 116.526 82.752C118.6 83.2128 119.905 83.52 119.905 83.52C119.905 83.52 127.585 101.798 121.748 135.898Z" fill="#E39D29"/>
<path d="M109.844 101.414C109.768 101.414 109.691 101.414 109.614 101.338C109.46 101.261 96.1739 91.7376 91.4891 82.4448C91.4123 82.2912 91.4891 82.0608 91.6427 81.9072C91.7963 81.8304 92.0267 81.9072 92.1803 82.0608C96.7883 91.2 109.921 100.57 110.075 100.646C110.228 100.8 110.305 101.03 110.152 101.184C110.075 101.414 109.921 101.414 109.844 101.414Z" fill="#407BFF"/>
<path d="M109.844 101.414C109.767 101.414 109.69 101.414 109.614 101.338C109.46 101.184 109.383 100.954 109.537 100.8C109.614 100.723 114.682 93.1968 113.3 82.2912C113.3 82.0608 113.454 81.9072 113.607 81.8304C113.838 81.8304 113.991 81.984 114.068 82.1376C115.527 93.3504 110.228 101.107 110.151 101.184C110.074 101.414 109.921 101.414 109.844 101.414Z" fill="#407BFF"/>
<path d="M115.22 112.934H106.234L105.312 100.032H114.298L115.22 112.934Z" fill="#407BFF"/>
<path d="M114.759 112.243H106.849L106.004 100.493H113.914L114.759 112.243Z" fill="white"/>
<path d="M110.305 106.406H107.003L106.695 102.182H109.998L110.305 106.406Z" fill="#407BFF"/>
<path d="M113.606 108.173H107.155L107.078 107.558H113.529L113.606 108.173Z" fill="#407BFF"/>
<path d="M113.684 109.632H107.232V109.018H113.684V109.632Z" fill="#407BFF"/>
<path d="M113.222 111.168H107.385L107.309 110.477H113.145L113.222 111.168Z" fill="#407BFF"/>
<path opacity="0.3" d="M89.4913 111.629C89.1841 103.565 88.4161 94.4256 86.4961 85.2096C88.6465 85.056 92.3329 85.2096 92.9473 88.7424C93.5617 92.5056 92.6401 101.338 89.4913 111.629Z" fill="black"/>
<path d="M92.4103 90.8928L89.1847 102.029L87.5719 107.635L86.0359 113.165L85.9591 113.549L85.8823 113.702V113.779C85.8823 113.702 85.8823 113.626 85.8823 113.549C85.8823 113.395 85.8055 113.472 85.8055 113.549C85.8055 113.779 86.1127 114.317 86.5735 114.854C87.4951 115.93 88.8007 117.158 90.2599 118.234C93.1015 120.461 96.4807 122.534 99.7063 124.454L98.0167 128.678C96.0199 128.141 94.0999 127.45 92.1799 126.682C90.2599 125.914 88.4167 125.069 86.4967 124.07C84.6535 122.995 82.8103 121.92 80.9671 120.154C80.0455 119.309 79.1239 118.234 78.3559 116.698C77.9719 115.93 77.6647 114.931 77.5879 113.856C77.5879 113.318 77.5879 112.704 77.6647 112.166L77.8183 111.322C78.5095 107.328 79.4311 103.488 80.3527 99.648C81.3511 95.808 82.3495 91.968 83.5783 88.2048L92.4103 90.8928Z" fill="#FFBE9D"/>
<path d="M86.0358 83.2129C81.9654 84.1345 77.511 94.8097 75.8982 100.723C75.6678 101.722 75.4374 102.643 75.2838 103.258C75.0534 104.179 74.9766 104.64 74.9766 104.64L88.4934 108.48C88.8006 107.789 89.1078 106.944 89.4918 106.022C90.8742 102.49 92.7174 97.4977 93.7926 93.3505C95.7126 85.9777 92.103 81.8305 86.0358 83.2129Z" fill="#E39D29"/>
<path d="M109.997 81.8304C106.003 80.9088 105.312 78.3744 105.619 75.6864C105.696 74.9952 105.773 74.304 105.926 73.6896L100.934 69.5424L97.2478 66.4704C98.2462 70.9248 99.3214 78.9888 96.3262 81.9072C96.3262 81.9072 99.859 87.744 107.232 87.36C110.688 83.5968 109.997 81.8304 109.997 81.8304Z" fill="#FFBE9D"/>
<path d="M93.8691 81.8304C93.8691 81.8304 95.0979 81.5232 96.4803 81.3696C97.9395 83.8272 104.16 87.36 106.311 87.36C106.311 87.36 104.237 88.2816 103.7 91.584C100.397 89.8176 94.1763 85.1328 93.8691 81.8304Z" fill="white"/>
<path d="M111.457 81.9072C111.457 81.9072 110.842 81.6768 109.613 81.6768C109.69 84.1344 108.922 85.2096 107.693 86.8992C107.693 86.8992 110.305 87.5136 110.765 90.8928C113.223 88.2816 112.378 83.6736 111.457 81.9072Z" fill="white"/>
<path opacity="0.2" d="M105.926 73.6896C105.772 74.3808 105.619 75.072 105.619 75.6864C103.776 75.3024 100.934 73.6128 100.704 71.5392C100.627 70.848 100.934 70.0032 101.011 69.4656L105.926 73.6896Z" fill="black"/>
<path d="M94.9453 59.712C95.8669 65.7024 96.1741 69.1584 99.4765 72.0768C104.468 76.3776 111.534 73.152 112.379 67.0848C113.147 61.632 111.457 52.8 105.39 50.8032C99.3997 48.8064 94.0237 53.7216 94.9453 59.712Z" fill="#FFBE9D"/>
<path d="M97.0951 66.3168C99.1687 62.5536 100.397 58.0992 98.2471 56.1024C101.165 56.1792 104.698 55.0272 105.927 53.8752C108.231 54.9504 110.842 54.7968 111.841 52.416C112.762 50.3424 111.457 47.6544 107.924 47.8848C102.317 43.4304 92.5639 44.352 95.6359 48.192C87.5719 47.5776 86.7271 52.1088 89.7991 53.568C84.9607 56.4096 85.9591 63.7824 97.0951 66.3168Z" fill="#263238"/>
<path d="M93.2545 65.5488C94.2529 66.8544 95.6353 67.6992 96.8641 67.9296C98.7073 68.3136 99.1681 66.624 98.3233 64.9344C97.5553 63.3984 95.7121 61.3248 94.0225 61.7088C92.4097 62.0928 92.1793 64.0896 93.2545 65.5488Z" fill="#FFBE9D"/>
<path d="M104.16 60.7104C104.237 61.1712 104.467 61.5552 104.851 61.5552C105.159 61.5552 105.389 61.0944 105.312 60.6336C105.235 60.1728 105.005 59.7888 104.621 59.7888C104.391 59.8656 104.16 60.2496 104.16 60.7104Z" fill="#263238"/>
<path d="M109.691 60.3264C109.767 60.7872 109.998 61.1712 110.382 61.1712C110.689 61.1712 110.919 60.7104 110.843 60.2496C110.766 59.7888 110.535 59.4048 110.151 59.4048C109.844 59.4048 109.614 59.8656 109.691 60.3264Z" fill="#263238"/>
<path d="M107.924 60.7104C107.924 60.7104 109.306 63.4752 110.689 64.704C109.921 65.5488 108.385 65.3184 108.385 65.3184L107.924 60.7104Z" fill="#F8A276"/>
<path d="M106.541 66.7776C104.621 66.7008 103.623 65.3952 103.546 65.3952C103.469 65.3184 103.546 65.2416 103.546 65.1648C103.623 65.088 103.699 65.088 103.776 65.1648C103.776 65.1648 104.928 66.624 107.079 66.4704C107.155 66.4704 107.232 66.5472 107.232 66.624C107.232 66.7008 107.155 66.7776 107.079 66.7776C106.925 66.7776 106.771 66.7776 106.541 66.7776Z" fill="#263238"/>
<path d="M102.318 59.0976C102.241 59.0976 102.241 59.0976 102.164 59.0208C102.011 58.944 102.011 58.7904 102.088 58.6368C102.932 57.3312 104.238 57.2544 104.315 57.2544C104.468 57.2544 104.622 57.408 104.622 57.5616C104.622 57.7152 104.468 57.8688 104.315 57.8688C104.238 57.8688 103.24 57.8688 102.548 58.944C102.548 59.0208 102.395 59.0976 102.318 59.0976Z" fill="#263238"/>
<path d="M111.841 58.2528C111.765 58.2528 111.688 58.176 111.611 58.0992C110.92 56.9472 109.845 56.9472 109.845 56.9472C109.691 56.9472 109.537 56.7936 109.614 56.64C109.614 56.4864 109.768 56.3328 109.921 56.3328C109.998 56.3328 111.304 56.4096 112.149 57.792C112.225 57.9456 112.149 58.0992 112.072 58.176C111.995 58.2528 111.918 58.2528 111.841 58.2528Z" fill="#263238"/>
<path d="M98.0941 124.301L105.313 123.533L101.55 130.138C101.55 130.138 96.0973 129.6 96.6349 126.758L98.0941 124.301Z" fill="#FFBE9D"/>
<path d="M110.611 125.299L107.002 131.059L101.549 130.138L105.312 123.533L110.611 125.299Z" fill="#FFBE9D"/>
<path d="M146.554 108.25L152.468 107.021L148.167 101.875C148.167 101.875 142.791 104.102 144.327 106.483L146.554 108.25Z" fill="#FFBE9D"/>
<path d="M155.846 103.949L151.929 98.6496L148.166 101.875L152.467 107.021L155.846 103.949Z" fill="#FFBE9D"/>
<path d="M197.471 155.421H110.457C105.234 155.421 100.934 159.828 100.934 165.18V300H207.071V165.18C206.994 159.828 202.694 155.421 197.471 155.421Z" fill="#407BFF"/>
<path d="M228.959 165.18H228.191V183.282H228.959V165.18Z" fill="#407BFF"/>
<path d="M228.959 187.847H228.191V193.277H228.959V187.847Z" fill="#407BFF"/>
<path d="M216.747 155.421H129.656C124.434 155.421 120.133 159.828 120.133 165.18V300H226.27V165.18C226.27 159.828 221.97 155.421 216.747 155.421Z" fill="#407BFF"/>
<path opacity="0.3" d="M123.283 300V165.18C123.283 161.56 126.125 158.648 129.658 158.648H216.672C220.205 158.648 223.046 161.56 223.046 165.18V300H123.283V300Z" fill="#A8C3FF"/>
<path opacity="0.9" d="M123.283 300V165.18C123.283 161.56 126.125 158.648 129.658 158.648H214.982C218.515 158.648 221.357 161.56 221.357 165.18V300H123.283V300Z" fill="#A8C3FF"/>
<path d="M162.835 135.115H131.578C128.506 135.115 125.895 137.712 125.895 140.939V149.675C125.895 152.823 128.429 155.499 131.578 155.499H162.835C165.907 155.499 168.519 152.902 168.519 149.675V140.86C168.519 137.712 165.984 135.115 162.835 135.115Z" fill="#407BFF"/>
<path d="M161.99 136.217H140.717C138.029 136.217 135.725 138.499 135.725 141.333V149.203C135.725 151.958 137.952 154.319 140.717 154.319H161.99C164.678 154.319 166.982 152.036 166.982 149.203V141.333C166.982 138.499 164.755 136.217 161.99 136.217Z" fill="#263238"/>
<path d="M129.658 141.333C129.658 141.884 129.197 142.277 128.736 142.277C128.198 142.277 127.814 141.805 127.814 141.333C127.814 140.782 128.275 140.388 128.736 140.388C129.197 140.309 129.658 140.782 129.658 141.333Z" fill="#A8C3FF"/>
<path d="M129.658 144.402C129.658 144.953 129.197 145.346 128.736 145.346C128.198 145.346 127.814 144.874 127.814 144.402C127.814 143.851 128.275 143.458 128.736 143.458C129.197 143.379 129.658 143.851 129.658 144.402Z" fill="#A8C3FF"/>
<path opacity="0.2" d="M195.398 123.231H180.652L183.187 155.421H197.856L195.398 123.231Z" fill="#407BFF"/>
<path d="M196.243 120.397H181.574L184.032 152.666H198.701L196.243 120.397Z" fill="#407BFF"/>
<path opacity="0.6" d="M196.628 141.018H184.34L182.881 121.657H195.169L196.628 141.018Z" fill="#A8C3FF"/>
<path opacity="0.6" d="M197.473 151.407H185.185L184.57 144.008H196.858L197.473 151.407Z" fill="#A8C3FF"/>
<path d="M196.781 120.24H182.035L184.493 152.666H199.162L196.781 120.24Z" fill="#407BFF"/>
<path opacity="0.6" d="M197.089 140.939H184.801L183.342 121.42L195.63 121.499L197.089 140.939Z" fill="#A8C3FF"/>
<path opacity="0.6" d="M197.857 151.407H185.569L185.031 143.93L197.319 144.009L197.857 151.407Z" fill="#A8C3FF"/>
<path d="M197.165 119.846H182.496L184.877 152.587L199.546 152.666L197.165 119.846Z" fill="#407BFF"/>
<path opacity="0.6" d="M197.473 140.782H185.185L183.803 121.027L196.014 121.106L197.473 140.782Z" fill="#A8C3FF"/>
<path opacity="0.6" d="M198.24 151.407H185.952L185.414 143.851H197.702L198.24 151.407Z" fill="#A8C3FF"/>
<path opacity="0.4" d="M179.424 123.231H180.653L183.187 155.421H181.958L179.424 123.231Z" fill="#407BFF"/>
<path d="M306.759 101.645C307.143 102.49 307.373 103.181 307.681 103.949C307.911 104.717 308.218 105.408 308.449 106.176C308.909 107.635 309.37 109.094 309.754 110.63C310.522 113.626 311.213 116.621 311.751 119.616L311.981 120.768L312.058 121.075L312.135 121.459C312.135 121.766 312.212 122.074 312.212 122.381C312.212 123.61 311.981 124.685 311.674 125.683C310.983 127.603 309.985 128.986 308.909 130.291C306.759 132.826 304.378 134.822 301.613 136.589L299.463 133.901C301.306 131.75 303.149 129.446 304.532 127.142C305.223 125.99 305.76 124.838 305.991 123.84C306.068 123.379 306.068 122.918 306.068 122.688L305.607 120.998C304.839 118.157 304.071 115.315 303.226 112.55C302.842 111.168 302.381 109.786 301.921 108.403C301.69 107.712 301.46 107.021 301.229 106.406L300.538 104.486L306.759 101.645Z" fill="#FFBE9D"/>
<path d="M302.228 135.36L304.302 139.891L301.46 141.581C301.46 141.581 295.777 133.363 300.078 133.056L302.228 135.36Z" fill="#FFBE9D"/>
<path d="M290.631 289.114C291.245 289.114 291.936 288.96 292.397 288.883C292.474 288.883 292.474 288.807 292.551 288.73C292.551 288.653 292.551 288.576 292.474 288.576C292.243 288.422 290.17 287.117 289.402 287.424C289.248 287.501 289.095 287.578 289.095 287.885C289.018 288.269 289.171 288.499 289.325 288.73C289.632 289.037 290.17 289.114 290.631 289.114ZM292.013 288.653C290.861 288.883 289.939 288.883 289.555 288.499C289.402 288.346 289.325 288.192 289.402 287.962C289.402 287.808 289.479 287.808 289.555 287.731C289.939 287.578 291.168 288.115 292.013 288.653Z" fill="#407BFF"/>
<path d="M292.397 288.883H292.474C292.551 288.883 292.551 288.806 292.551 288.73C292.551 288.653 292.551 286.656 291.783 286.042C291.553 285.888 291.322 285.811 291.092 285.811C290.708 285.888 290.554 286.118 290.554 286.272C290.401 287.04 291.629 288.499 292.321 288.883C292.397 288.883 292.397 288.883 292.397 288.883ZM291.245 286.118C291.399 286.118 291.476 286.195 291.629 286.272C292.09 286.656 292.244 287.731 292.244 288.422C291.629 287.885 290.861 286.81 290.938 286.349C290.938 286.272 291.015 286.195 291.245 286.118Z" fill="#407BFF"/>
<path d="M291.091 78.144C290.323 82.2144 288.634 90.3552 291.475 93.0432C291.475 93.0432 290.4 97.1136 282.874 97.1136C274.656 97.1136 278.957 93.0432 278.957 93.0432C283.488 91.968 283.334 88.6656 282.566 85.5168L291.091 78.144Z" fill="#FFBE9D"/>
<path d="M276.423 96.192C275.271 96.3456 277.959 92.736 278.42 92.352C279.495 91.5072 293.319 90.816 293.242 92.8896C293.166 93.8112 292.858 95.5776 292.244 96.1152C291.63 96.7296 286.33 94.7328 276.423 96.192Z" fill="#263238"/>
<path d="M277.805 68.3904C277.728 68.3904 277.652 68.3136 277.575 68.2368C276.884 67.008 275.655 66.9312 275.655 66.8544C275.501 66.8544 275.348 66.7008 275.348 66.5472C275.348 66.3936 275.501 66.24 275.655 66.24C275.732 66.24 277.191 66.3936 278.112 67.9296C278.189 68.0832 278.112 68.3136 277.959 68.3904C277.959 68.3904 277.882 68.3904 277.805 68.3904Z" fill="#263238"/>
<path d="M275.579 72C275.579 72 274.504 74.304 273.352 75.3792C274.043 76.0704 275.272 75.9168 275.272 75.9168L275.579 72Z" fill="#FFBE9D"/>
<path d="M276.117 71.1552C276.04 71.6928 275.733 72.1536 275.425 72.0768C275.041 72.0768 274.811 71.616 274.888 71.0016C274.965 70.464 275.272 70.0032 275.579 70.08C275.963 70.1568 276.193 70.6176 276.117 71.1552Z" fill="#263238"/>
<path d="M275.731 70.1568L274.426 69.696C274.426 69.696 275.04 70.7712 275.731 70.1568Z" fill="#263238"/>
<path d="M300.307 288.73H293.549L294.086 272.986H300.845L300.307 288.73Z" fill="#FFBE9D"/>
<path d="M293.012 287.962H300.692C300.999 287.962 301.23 288.192 301.23 288.422L302.075 294.49C302.151 295.104 301.614 295.718 300.999 295.718C298.311 295.642 297.083 295.488 293.703 295.488C291.63 295.488 288.635 295.718 285.793 295.718C283.028 295.718 282.798 292.877 283.95 292.646C289.249 291.494 290.094 289.882 291.937 288.422C292.167 288.115 292.551 287.962 293.012 287.962Z" fill="#263238"/>
<g opacity="0.2">
<path opacity="0.2" d="M300.845 272.986H294.086L293.779 282.125H300.538L300.845 272.986Z" fill="black"/>
</g>
<path d="M270.817 103.795C269.435 107.174 268.053 110.4 266.363 113.626C264.75 116.851 262.984 120 260.91 123.149C260.373 123.917 259.835 124.685 259.221 125.453C258.913 125.837 258.606 126.221 258.299 126.605C257.838 127.066 257.377 127.526 256.917 127.91C255.918 128.678 254.689 129.216 253.614 129.523C252.462 129.83 251.387 129.984 250.312 129.984C248.161 129.984 246.241 129.523 244.398 128.986C243.477 128.678 242.632 128.371 241.71 127.91C240.865 127.526 240.021 127.142 239.176 126.605L240.635 123.456C243.784 124.301 247.24 124.838 250.005 124.454C251.387 124.224 252.462 123.763 253.153 123.072C253.307 122.918 253.461 122.765 253.614 122.534L254.305 121.613C254.766 120.998 255.15 120.307 255.611 119.539C256.456 118.157 257.301 116.621 258.069 115.162C258.837 113.626 259.605 112.09 260.373 110.554C261.832 107.482 263.214 104.256 264.597 101.107L270.817 103.795Z" fill="#FFBE9D"/>
<path d="M268.128 94.5024C264.749 95.3472 260.602 104.64 260.602 104.64L268.666 114.931C268.666 114.931 276.96 103.181 275.885 99.5712C274.733 95.808 272.275 93.504 268.128 94.5024Z" fill="#E39D29"/>
<path d="M242.093 123.917L237.024 122.304L235.949 127.603C235.949 127.603 240.941 128.602 242.861 126.374L242.093 123.917Z" fill="#FFBE9D"/>
<path d="M232.34 122.995L233.261 126.989L235.873 127.68L237.025 122.381L232.34 122.995Z" fill="#FFBE9D"/>
<path d="M294.701 70.6176C293.779 77.2992 293.549 80.1408 289.862 83.3664C284.333 88.2048 276.346 85.5936 275.27 78.7584C274.272 72.6144 275.962 62.7072 282.72 60.5568C289.402 58.4064 295.622 63.936 294.701 70.6176Z" fill="#FFBE9D"/>
<path d="M279.572 74.4576C284.872 83.7504 287.56 84.9792 291.707 86.5152C291.707 86.5152 293.627 80.832 297.697 77.2224C303.227 72.4608 300.001 63.3216 296.622 62.2464C298.312 56.7936 278.651 55.3344 276.5 63.3216C275.041 69.1584 279.572 74.4576 279.572 74.4576Z" fill="#263238"/>
<path d="M282.644 72.6144C282.337 74.1504 281.415 75.5328 280.34 76.3776C278.727 77.6832 277.422 76.6848 277.345 74.9184C277.268 73.3056 278.036 70.7712 279.879 70.08C281.723 69.5424 283.028 70.9248 282.644 72.6144Z" fill="#FFBE9D"/>
<path d="M278.727 135.59C278.727 135.59 282.643 182.285 286.791 208.627C290.093 229.901 292.704 279.59 292.704 279.59H301.997C301.997 279.59 306.451 231.59 304.762 210.547C300.538 157.325 307.987 147.955 299.079 135.59H278.727V135.59Z" fill="#263238"/>
<path opacity="0.2" d="M281.568 165.696C282.797 177.984 284.41 191.962 286.023 203.405C288.634 197.261 291.399 188.89 291.936 171.456C292.167 159.706 285.716 157.478 281.568 165.696Z" fill="black"/>
<path d="M257.069 286.195C257.146 286.195 257.146 286.195 257.223 286.118C257.223 286.042 257.223 285.965 257.223 285.965C256.992 285.734 254.996 283.43 253.997 283.507C253.844 283.507 253.69 283.661 253.613 283.814C253.46 284.122 253.46 284.352 253.613 284.659C254.074 285.504 255.994 286.042 257.069 286.195ZM254.074 283.814C254.612 283.814 255.764 284.89 256.608 285.811C255.149 285.504 254.074 285.043 253.844 284.506C253.767 284.352 253.767 284.122 253.844 283.968C253.92 283.891 253.997 283.814 254.074 283.814Z" fill="#407BFF"/>
<path d="M257.07 286.195C257.147 286.195 257.147 286.195 257.07 286.195C257.147 286.195 257.224 286.118 257.224 286.118C257.224 286.042 257.761 284.275 257.224 283.277C257.07 282.97 256.84 282.816 256.533 282.662C256.072 282.509 255.918 282.739 255.765 282.893C255.381 283.584 256.302 285.504 256.917 286.118C256.993 286.195 257.07 286.195 257.07 286.195ZM256.225 282.97C256.302 282.97 256.302 282.97 256.456 282.97C256.686 283.046 256.84 283.2 256.993 283.43C257.377 284.045 257.147 285.197 257.07 285.734C256.456 284.966 255.918 283.507 256.149 283.123C256.072 283.046 256.149 282.97 256.225 282.97Z" fill="#407BFF"/>
<path d="M263.905 290.88L257.607 288.115L259.374 279.974L261.217 271.757L261.371 270.835L267.975 272.525L267.745 273.6L265.979 281.51L263.905 290.88Z" fill="#FFBE9D"/>
<path opacity="0.2" d="M265.979 281.51L259.221 280.512L261.217 271.757L267.745 273.6L265.979 281.51Z" fill="black"/>
<path d="M271.431 135.59C271.431 135.59 266.823 185.894 265.133 209.702C263.597 231.206 258.912 276.365 258.912 276.365L268.128 277.747C268.128 277.747 280.416 226.906 282.336 212.237C287.866 169.997 298.618 156.941 296.007 135.667L271.431 135.59Z" fill="#263238"/>
<path d="M257.837 285.504L264.979 288.269C265.21 288.346 265.363 288.653 265.286 288.883L263.904 294.797C263.75 295.411 263.059 295.795 262.445 295.488C259.987 294.49 258.835 293.875 255.686 292.646C253.766 291.878 249.696 290.496 247.008 289.498C244.397 288.499 245.242 285.734 246.47 285.965C251.846 286.81 254.381 286.118 256.608 285.427C256.992 285.35 257.453 285.35 257.837 285.504Z" fill="#263238"/>
<path d="M257.223 278.285L268.896 280.282L270.202 275.904L257.76 273.754L257.223 278.285Z" fill="#407BFF"/>
<path d="M291.399 279.744H303.226L303.841 275.597L291.322 275.136L291.399 279.744Z" fill="#407BFF"/>
<path d="M309.754 105.101L302.919 110.554L298.848 113.856C298.848 113.856 298.387 112.704 297.927 111.091C296.928 107.942 295.623 102.874 296.544 100.57C297.927 96.8832 300.615 93.5808 303.994 94.3488C306.759 94.9632 309.754 105.101 309.754 105.101Z" fill="#E39D29"/>
<path opacity="0.2" d="M301.998 111.322L298.849 113.856C298.849 113.856 298.389 112.704 297.928 111.091L300.385 99.0336L301.998 111.322Z" fill="black"/>
<path d="M268.129 94.5024C268.129 94.5024 264.903 95.6544 271.354 135.59C282.337 135.59 293.626 135.59 299.002 135.59C298.541 124.378 298.541 117.389 303.917 94.3488C303.917 94.3488 298.157 93.12 292.167 92.8128C287.482 92.5824 283.719 92.4288 279.649 92.8128C274.273 93.2736 268.129 94.5024 268.129 94.5024Z" fill="#E39D29"/>
<path d="M292.474 85.824L289.863 85.7472C285.332 92.0448 290.554 92.352 290.554 97.728C290.554 103.181 284.64 106.33 291.936 110.17C286.56 104.563 301.46 101.338 292.474 85.824Z" fill="#263238"/>
<path d="M286.945 83.8272C287.099 84.9024 287.253 85.9008 287.329 86.7456C287.329 87.2064 287.637 87.5136 288.097 87.5136C289.403 87.5136 292.091 87.5136 293.32 87.5136C293.704 87.5136 294.088 87.2064 294.088 86.7456C294.165 85.824 294.241 84.3648 294.241 83.3664C294.241 82.9056 293.934 82.5984 293.473 82.5984C291.477 82.5984 288.942 82.752 287.637 82.8288C287.176 82.8288 286.869 83.2896 286.945 83.8272Z" fill="#E39D29"/>
<path d="M299.463 133.978L300.692 136.435C300.768 136.589 300.538 136.819 300.231 136.819H271.277C271.047 136.819 270.816 136.666 270.816 136.512L270.586 134.054C270.586 133.901 270.816 133.747 271.047 133.747H299.002C299.232 133.747 299.386 133.824 299.463 133.978Z" fill="#407BFF"/>
<path opacity="0.5" d="M299.463 133.978L300.692 136.435C300.768 136.589 300.538 136.819 300.231 136.819H271.277C271.047 136.819 270.816 136.666 270.816 136.512L270.586 134.054C270.586 133.901 270.816 133.747 271.047 133.747H299.002C299.232 133.747 299.386 133.824 299.463 133.978Z" fill="white"/>
<path d="M295.699 137.05H296.467C296.621 137.05 296.697 136.973 296.697 136.896L296.313 133.67C296.313 133.594 296.16 133.517 296.006 133.517H295.238C295.085 133.517 295.008 133.594 295.008 133.67L295.392 136.896C295.392 136.973 295.545 137.05 295.699 137.05Z" fill="#263238"/>
<path d="M277.498 137.05H278.266C278.42 137.05 278.496 136.973 278.496 136.896L278.112 133.67C278.112 133.594 277.959 133.517 277.805 133.517H277.037C276.883 133.517 276.807 133.594 276.807 133.67L277.191 136.896C277.267 136.973 277.344 137.05 277.498 137.05Z" fill="#263238"/>
</g>
<defs>
<clipPath id="clip0">
<rect width="407" height="300" fill="white"/>
</clipPath>
</defs>
</svg>
