<svg width="407" height="300" viewBox="0 0 407 300" fill="none" xmlns="http://www.w3.org/2000/svg">
<path d="M404 266.45H2V266.651H404V266.45Z" fill="#EBEBEB"/>
<path d="M70.8062 274.104H44.1777V274.305H70.8062V274.104Z" fill="#EBEBEB"/>
<path d="M146.583 271.925H111.609V272.126H146.583V271.925Z" fill="#EBEBEB"/>
<path d="M98.7448 278.252H67.5898V278.453H98.7448V278.252Z" fill="#EBEBEB"/>
<path d="M363.719 280.222H328.994V280.423H363.719V280.222Z" fill="#EBEBEB"/>
<path d="M321.832 280.222H306.717V280.423H321.832V280.222Z" fill="#EBEBEB"/>
<path d="M223.099 276.829H193.705V277.03H223.099V276.829Z" fill="#EBEBEB"/>
<path d="M356.025 173.194H53.7207V177.567H356.025V173.194Z" fill="#79A2FD"/>
<path d="M69.8007 173.194H53.7207V177.567H69.8007V173.194Z" fill="#79A2FD"/>
<path d="M86.348 156.511H80.519C79.0799 156.511 77.9141 157.676 77.9141 159.116V173.194H88.945V159.116C88.953 157.676 87.7872 156.511 86.348 156.511Z" fill="#79A2FD"/>
<path d="M86.2518 153.922H80.6158C80.3746 153.922 80.1816 154.115 80.1816 154.356V156.085C80.1816 156.326 80.3746 156.519 80.6158 156.519H86.2518C86.493 156.519 86.686 156.326 86.686 156.085V154.356C86.686 154.115 86.493 153.922 86.2518 153.922Z" fill="#79A2FD"/>
<path d="M71.5375 151.807H65.7085C64.2693 151.807 63.1035 152.973 63.1035 154.412V173.202H74.1344V154.412C74.1344 152.973 72.9686 151.807 71.5375 151.807Z" fill="#79A2FD"/>
<path d="M69.5441 147.313H67.7029C67.2527 147.313 66.8828 147.683 66.8828 148.133V154.066H70.3641V148.133C70.3641 147.683 69.9943 147.313 69.5441 147.313Z" fill="#79A2FD"/>
<path d="M318.808 150.802H322.41C323.921 150.802 325.143 152.024 325.143 153.536V173.202H316.074V153.536C316.074 152.024 317.296 150.802 318.808 150.802Z" fill="#79A2FD"/>
<path d="M318.39 147.313H322.828C323.077 147.313 323.286 147.514 323.286 147.771V150.344C323.286 150.593 323.085 150.802 322.828 150.802H318.39C318.141 150.802 317.932 150.601 317.932 150.344V147.771C317.932 147.522 318.133 147.313 318.39 147.313Z" fill="#79A2FD"/>
<path d="M307.64 153.552H310.8C312.126 153.552 313.196 154.629 313.196 155.948V173.194H305.244V155.948C305.236 154.629 306.313 153.552 307.64 153.552Z" fill="#79A2FD"/>
<path d="M307.271 150.497H311.162C311.38 150.497 311.564 150.674 311.564 150.899V153.15C311.564 153.367 311.388 153.552 311.162 153.552H307.271C307.054 153.552 306.869 153.375 306.869 153.15V150.899C306.869 150.682 307.054 150.497 307.271 150.497Z" fill="#79A2FD"/>
<path d="M331.769 151.807H341.023C342.719 151.807 344.102 153.182 344.102 154.887V173.202H328.697V154.887C328.697 153.182 330.072 151.807 331.769 151.807Z" fill="#79A2FD"/>
<path d="M334.936 147.313H337.862C338.401 147.313 338.835 147.747 338.835 148.286V154.066H333.971V148.286C333.963 147.747 334.397 147.313 334.936 147.313Z" fill="#79A2FD"/>
<path d="M250.893 156.109H247.974C246.8 156.109 245.852 157.057 245.852 158.231V173.194H253.015V158.231C253.015 157.065 252.067 156.109 250.893 156.109Z" fill="#79A2FD"/>
<path d="M251.197 153.455H247.684C247.491 153.455 247.33 153.616 247.33 153.809V155.755C247.33 155.948 247.491 156.109 247.684 156.109H251.197C251.39 156.109 251.551 155.948 251.551 155.755V153.809C251.551 153.616 251.39 153.455 251.197 153.455Z" fill="#79A2FD"/>
<path d="M259.713 158.215H257.156C256.127 158.215 255.299 159.051 255.299 160.072V173.194H261.578V160.072C261.57 159.043 260.742 158.215 259.713 158.215Z" fill="#79A2FD"/>
<path d="M259.969 155.884H256.882C256.713 155.884 256.568 156.02 256.568 156.197V157.91C256.568 158.078 256.705 158.223 256.882 158.223H259.969C260.138 158.223 260.283 158.086 260.283 157.91V156.197C260.283 156.02 260.146 155.884 259.969 155.884Z" fill="#79A2FD"/>
<path d="M240.668 156.88H233.271C231.952 156.88 230.883 157.95 230.883 159.268V173.202H243.047V159.268C243.047 157.95 241.986 156.88 240.668 156.88Z" fill="#79A2FD"/>
<path d="M238.134 153.455H235.803C235.385 153.455 235.047 153.793 235.047 154.211V158.609H238.89V154.211C238.89 153.793 238.552 153.455 238.134 153.455Z" fill="#79A2FD"/>
<path d="M80.5332 203.842L83.6447 207.139C83.6447 207.139 85.5743 202.821 88.4204 201.109C89.1038 200.698 89.136 199.726 88.5089 199.235L86.7803 197.876C86.3461 197.539 85.7351 197.547 85.317 197.909C84.0708 198.986 81.5543 201.358 80.5332 203.842Z" fill="#79A2FD"/>
<path d="M79.9549 198.27L91.2914 214.945L84.8513 221.385L68.1763 210.049C63.7785 207.058 63.1835 200.795 66.9462 197.032C70.7009 193.278 76.9641 193.873 79.9549 198.27Z" fill="#AACCFF"/>
<path d="M76.7148 198.19L82.5921 206.117C82.5921 206.117 87.8744 197.273 94.4672 194.315C96.043 193.607 96.3726 191.501 95.1506 190.279L91.7657 186.894C90.9135 186.042 89.5869 185.913 88.5899 186.58C85.6071 188.598 79.569 193.077 76.7148 198.19Z" fill="#AACCFF"/>
<path d="M318.943 203.842L322.055 207.139C322.055 207.139 323.984 202.821 326.831 201.109C327.514 200.698 327.546 199.726 326.919 199.235L325.19 197.876C324.756 197.539 324.145 197.547 323.727 197.909C322.481 198.986 319.964 201.358 318.943 203.842Z" fill="#79A2FD"/>
<path d="M318.365 198.27L329.702 214.945L323.261 221.385L306.587 210.049C302.189 207.058 301.594 200.795 305.356 197.032C309.111 193.278 315.374 193.873 318.365 198.27Z" fill="#AACCFF"/>
<path d="M315.125 198.19L321.002 206.117C321.002 206.117 326.285 197.273 332.877 194.315C334.453 193.607 334.783 191.501 333.561 190.279L330.176 186.894C329.324 186.042 327.997 185.913 327 186.58C324.017 188.598 317.979 193.077 315.125 198.19Z" fill="#AACCFF"/>
<path d="M205.14 65.0396H204.336V70.4907H205.14V65.0396Z" fill="#407BFF"/>
<path d="M205.14 46.9897H204.336V60.7462H205.14V46.9897Z" fill="#407BFF"/>
<path d="M202.324 36.9478H82.5605V140.197H202.324V36.9478Z" fill="#407BFF"/>
<path d="M81.1696 140.195H82.5605L82.5605 36.9456H81.1696L81.1696 140.195Z" fill="#407BFF"/>
<path opacity="0.2" d="M81.1696 140.195H82.5605L82.5605 36.9456H81.1696L81.1696 140.195Z" fill="black"/>
<path opacity="0.8" d="M201.752 139.675L201.752 37.4626L83.1378 37.4626L83.1378 139.675L201.752 139.675Z" fill="#AACCFF"/>
<g opacity="0.4">
<path opacity="0.2" d="M194.165 88.6932L193.562 87.2862C193.522 87.1898 193.457 87.1013 193.409 87.0209C193.377 86.7395 193.297 86.4581 193.168 86.1687C192.686 85.0511 191.705 84.3999 190.973 84.7215C190.708 84.8421 190.507 85.0752 190.394 85.3888L188.851 81.8592L189.462 80.2834L191.48 79.399C191.48 79.399 193.441 74.575 192.919 69.7108L188.489 81.0392L183.826 70.4103C183.504 75.2986 185.651 80.0342 185.651 80.0342L187.701 80.8382L188.151 81.8592L186.953 84.9144C186.833 84.6089 186.623 84.3838 186.35 84.2712C186.053 84.1587 185.715 84.1989 185.393 84.3758C185.377 84.3677 185.369 84.3597 185.353 84.3516C185.321 84.3275 185.281 84.2873 185.241 84.2632C185.12 84.1908 184.999 84.1346 184.871 84.1024C184.782 84.0783 184.718 84.0783 184.662 84.0863C184.646 84.0944 184.638 84.0944 184.63 84.0944C184.581 84.1104 184.541 84.1426 184.509 84.1908C184.501 84.1989 184.501 84.2069 184.493 84.215C184.477 84.2632 184.453 84.3195 184.445 84.3918C184.445 84.3999 184.445 84.3999 184.445 84.4079C184.437 84.4803 184.437 84.5607 184.445 84.6572V84.7054C184.453 84.8019 184.461 84.8984 184.477 84.9948C184.485 85.0109 184.485 85.027 184.485 85.0592C184.501 85.1235 184.509 85.1798 184.517 85.2441C184.404 85.421 184.3 85.6059 184.22 85.8149C183.818 86.8199 183.97 87.833 184.525 88.2591C184.316 89.2721 184.019 90.3173 183.938 91.0972V91.1213C183.93 91.1937 183.922 91.258 183.922 91.3223C183.898 91.5716 183.89 91.8369 183.898 92.1022C183.544 93.7263 183.182 95.3504 182.788 96.9503C182.354 98.8397 181.888 100.713 181.365 102.546C180.875 104.379 180.32 106.204 179.685 107.877C179.484 108.407 179.259 108.914 179.034 109.372C178.801 109.187 178.567 109.01 178.342 108.809C177.683 108.238 177.032 107.652 176.429 107.008C175.802 106.373 175.215 105.706 174.652 105.014C174.073 104.331 173.526 103.607 172.996 102.876C171.942 101.413 171.002 99.8447 170.117 98.2528C169.667 97.4568 169.249 96.6448 168.863 95.8167C168.775 95.6398 168.702 95.471 168.614 95.286C168.984 94.6509 169.217 94.273 169.217 94.273C169.217 94.273 168.164 92.5846 165.969 91.1213C165.189 90.4942 164.224 90.0198 163.115 89.6982C163.106 89.6982 163.098 89.6902 163.09 89.6902C162.616 89.5616 162.118 89.457 161.603 89.3847C161.466 89.3686 161.33 89.3606 161.185 89.3445C161.33 88.8299 161.434 88.5405 161.434 88.5405C161.434 88.5405 160.019 88.0661 159.545 88.0661C159.464 88.1948 159.392 88.3475 159.312 88.5083C158.644 88.1465 157.969 87.7445 157.969 87.7445C157.969 87.7445 157.816 87.833 157.559 87.9777C156.9 86.7074 156.634 84.9707 156.586 83.1537C161.909 83.4431 166.684 80.4764 166.234 76.3358C166.419 76.2393 166.604 76.1267 166.789 75.9579C168.373 74.5026 167.416 73.176 165.904 72.4122C169.53 67.2345 167.022 60.2075 161.426 57.4176C156.94 55.1906 148.691 55.1021 149.221 58.0126C144.1 58.7844 144.896 68.5932 138.279 69.7108C139.421 72.758 141.334 73.9157 142.958 74.2936C142.958 74.5509 142.966 74.8082 142.982 75.0494C143.216 79.3266 146.456 82.1246 150.186 82.2934C150.202 82.3416 150.218 82.406 150.226 82.4703C150.267 82.6311 150.307 82.7999 150.339 82.9768C150.363 83.1054 150.387 83.2341 150.411 83.3547C150.46 83.6441 150.5 83.9255 150.524 84.215C150.709 86.3375 150.074 88.2671 147.147 89.0792C147.083 88.8701 147.051 88.7415 147.051 88.7415C147.051 88.7415 146.086 88.7495 144.944 88.9907C144.984 88.846 145.025 88.7013 145.073 88.5566C145.073 88.5566 143.987 88.7736 142.99 89.1596C142.91 89.3204 142.838 89.4972 142.757 89.6661C141.76 89.851 140.828 90.1887 139.983 90.6711C137.901 91.3706 136.382 92.5283 135.36 93.4931C134.347 94.4579 133.857 95.2539 133.857 95.2539C133.857 95.2539 134.243 95.881 134.798 96.8538C134.605 97.891 134.396 98.9603 134.162 99.9894C133.793 101.654 133.407 103.318 132.965 104.95C132.53 106.606 132.024 108.214 131.517 109.846C130.979 111.446 130.432 113.054 129.805 114.614C129.66 114.976 129.467 115.474 129.387 115.635C129.266 115.893 129.089 116.198 128.896 116.52C128.51 117.163 128.036 117.83 127.538 118.498C126.533 119.824 125.455 121.175 124.338 122.493C122.448 124.753 120.478 127.004 118.533 129.263C116.716 128.218 114.593 128.483 114.593 128.483L112.221 128.692C110.645 128.821 109.488 130.228 109.64 131.804L109.793 133.323C109.898 134.352 110.629 135.197 111.634 135.43C112.262 135.566 112.913 135.583 113.548 135.454L117.061 134.754C118.404 134.489 119.554 133.629 120.189 132.407L120.229 132.326C122.882 130.284 125.407 128.146 127.859 125.846C129.17 124.608 130.464 123.346 131.702 121.947C132.329 121.255 132.94 120.532 133.543 119.72C133.849 119.302 134.138 118.859 134.436 118.353C134.782 117.734 134.91 117.412 135.119 116.97C135.754 115.659 136.325 114.325 136.864 112.974C136.904 113.111 136.96 113.247 137.009 113.392C137.483 117.082 138.11 121.36 138.898 126.345H138.078L138.761 128.917C138.874 131.128 138.673 134.931 138.351 139.691H170.342C167.834 132.857 165.768 128.531 165.768 128.531L165.832 126.337H164.57C164.385 121.947 164.288 117.983 164.827 112.934C164.843 112.91 164.859 112.886 164.867 112.853C165.639 111.655 165.8 110.192 165.358 108.882C165.583 107.451 165.864 105.915 166.186 104.275C166.724 105.079 167.279 105.875 167.866 106.647C169.128 108.327 170.535 109.927 172.103 111.382C172.883 112.122 173.703 112.821 174.572 113.473C175.006 113.802 175.448 114.124 175.898 114.429C176.123 114.582 176.356 114.727 176.582 114.871L176.927 115.089L177.104 115.201L177.217 115.265L177.466 115.402C177.627 115.491 177.804 115.579 178.021 115.643C178.238 115.716 178.439 115.78 178.688 115.804C179.154 115.893 179.685 115.868 180.135 115.764C181.052 115.547 181.639 115.105 182.049 114.751C182.821 114.011 183.166 113.384 183.472 112.813C184.059 111.664 184.396 110.626 184.702 109.597C185.305 107.555 185.683 105.569 186.012 103.583C186.326 101.597 186.567 99.6116 186.776 97.6498C186.897 96.3312 186.993 95.0368 187.074 93.7182C187.54 93.7182 188.006 93.6459 188.465 93.5012L191.882 92.3916C192.485 92.1906 193.047 91.861 193.53 91.4268C194.334 90.7354 194.567 89.642 194.165 88.6932ZM178.334 110.49C178.334 110.49 178.342 110.482 178.35 110.482C178.326 110.506 178.318 110.514 178.334 110.49ZM184.662 87.5676C184.396 87.2139 184.356 86.5868 184.597 85.9757C184.613 85.9436 184.63 85.9034 184.646 85.8712C184.654 85.9436 184.67 86.0079 184.686 86.0802C184.686 86.0963 184.686 86.1124 184.694 86.1446C184.702 86.2089 184.71 86.2652 184.718 86.3295C184.726 86.3536 184.726 86.3697 184.726 86.3938C184.734 86.4742 184.742 86.5385 184.742 86.6028C184.742 86.8842 184.71 87.2219 184.662 87.5676ZM186.607 86.434C186.503 86.0722 186.366 85.7265 186.197 85.4049H186.205C186.189 85.3727 186.165 85.3406 186.141 85.3084C186.093 85.2119 186.037 85.1235 185.988 85.0511C185.956 84.9868 185.916 84.9466 185.884 84.8984C185.868 84.8823 185.86 84.8582 185.844 84.834C185.94 84.834 186.045 84.8421 186.133 84.8742C186.599 85.0592 186.792 85.7184 186.607 86.434ZM188.65 86.3456L187.612 86.8199C187.612 86.8199 187.267 86.9566 186.792 87.246C186.784 87.2058 186.776 87.1576 186.768 87.1174C186.808 87.029 186.857 86.9566 186.889 86.8682L188.521 82.7034L189.831 85.6782C189.301 85.7747 188.867 85.9918 188.65 86.3456ZM191.769 85.7184C191.769 85.7104 191.761 85.7024 191.761 85.7024C191.737 85.6943 191.697 85.6943 191.665 85.6863C191.415 85.6139 191.15 85.5737 190.885 85.5818C190.973 85.4531 191.078 85.3486 191.214 85.2843C191.705 85.0672 192.372 85.4933 192.742 86.225C192.452 85.9998 192.123 85.823 191.769 85.7184Z" fill="#407BFF"/>
<path opacity="0.4" d="M137.218 139.675H88.793C89.1146 136.877 91.2773 134.859 94.3808 134.859H129.572C132.667 134.859 135.755 136.877 137.218 139.675Z" fill="#407BFF"/>
<g opacity="0.4">
<path opacity="0.4" d="M132.289 112.91C135.046 113.159 134.797 111.109 134.797 111.109C134.797 111.109 132.522 105.481 130.552 104.54C132.674 103.455 134.877 101.292 133.663 98.1483C132.441 95.0046 127.722 93.3082 123.629 93.9996C124.538 95.6237 120.285 97.3604 115.171 96.9986C110.058 96.6368 106.239 100.287 109.31 102.594C104.35 102.627 103.827 109.292 107.453 113.481C113.805 120.813 117.816 126.602 122.118 127.398C126.403 128.178 136.847 122.075 132.289 112.91Z" fill="#263238"/>
<g opacity="0.4">
<path opacity="0.4" d="M150.877 139.675H98.1426C101.021 135.55 106.094 132.543 114.657 131.876C115.798 131.78 116.956 131.691 118.114 131.611C118.154 131.611 118.202 131.603 118.243 131.603C118.243 131.571 118.243 131.53 118.235 131.49C118.235 131.249 118.251 130.951 118.331 130.63C117.077 130.646 114.785 130.493 115.3 128.974C115.597 128.089 115.967 127.816 116.466 127.888C116.208 127.43 116.192 126.964 116.699 126.546C118.323 125.235 118.661 126.682 119.633 128.877C123.871 128.837 130.89 130.405 133.044 131.289C137.297 131.595 141.253 132.399 144.566 134.079C147.106 135.373 149.261 137.174 150.877 139.675Z" fill="#407BFF"/>
<path opacity="0.4" d="M150.877 139.675H98.1426C101.021 135.55 106.094 132.543 114.657 131.876C115.798 131.78 116.956 131.691 118.114 131.611C118.154 131.611 118.202 131.603 118.243 131.603C118.243 131.571 118.243 131.53 118.235 131.49C118.235 131.249 118.251 130.951 118.331 130.63C117.077 130.646 114.785 130.493 115.3 128.974C115.597 128.089 115.967 127.816 116.466 127.888C116.208 127.43 116.192 126.964 116.699 126.546C118.323 125.235 118.661 126.682 119.633 128.877C123.871 128.837 130.89 130.405 133.044 131.289C137.297 131.595 141.253 132.399 144.566 134.079C147.106 135.373 149.261 137.174 150.877 139.675Z" fill="white"/>
</g>
<path opacity="0.4" d="M120.268 115.466C121.346 120.942 122.415 130.984 118.58 134.634C118.58 134.634 120.164 138.654 130.343 138.654C141.534 138.654 135.609 134.634 135.609 134.634C129.498 133.179 129.659 128.644 130.72 124.391L120.268 115.466Z" fill="#FF8B7B"/>
<path opacity="0.2" d="M130.712 124.399L120.26 115.474C120.798 118.2 121.337 122.075 121.257 125.717C122.286 127.261 123.564 128.491 125.365 129.488C127.078 130.445 128.838 130.807 130.519 130.71C129.868 128.829 130.165 126.578 130.712 124.399Z" fill="black"/>
<path opacity="0.4" d="M114.439 113.4C116.988 120.379 118.121 124.6 122.793 127.181C129.82 131.064 137.634 125.211 137.224 117.605C136.855 110.763 132.754 100.496 124.955 99.7321C117.269 98.9764 111.89 106.421 114.439 113.4Z" fill="#FF8B7B"/>
<path opacity="0.4" d="M117.462 117.292C119.239 115.603 119.866 108.616 117.366 106.317C122.656 108.544 130.841 105.304 133.028 102.578C127.906 97.7945 118.371 97.4488 113.129 102.578C107.887 107.708 110.484 113.963 117.462 117.292Z" fill="#263238"/>
<path opacity="0.4" d="M113.82 118.288C114.946 119.88 116.674 120.958 118.226 121.4C120.558 122.067 121.418 120.218 120.509 118.208C119.689 116.399 117.494 113.866 115.275 114.076C113.08 114.277 112.534 116.463 113.82 118.288Z" fill="#FF8B7B"/>
<path opacity="0.4" d="M130.375 120.138C127.922 120.266 126.435 118.803 126.371 118.739C126.298 118.666 126.298 118.554 126.371 118.481C126.443 118.409 126.556 118.409 126.628 118.481C126.644 118.498 128.332 120.162 131.026 119.695C131.122 119.679 131.219 119.744 131.243 119.848C131.259 119.945 131.195 120.041 131.098 120.057C130.849 120.106 130.608 120.13 130.375 120.138Z" fill="#263238"/>
<path opacity="0.4" d="M125.639 112.821C125.84 113.424 126.315 113.818 126.701 113.706C127.087 113.593 127.239 113.014 127.038 112.411C126.837 111.808 126.363 111.414 125.977 111.527C125.591 111.639 125.438 112.218 125.639 112.821Z" fill="#263238"/>
<path opacity="0.4" d="M132.698 110.755C132.899 111.358 133.373 111.752 133.759 111.639C134.145 111.527 134.298 110.948 134.097 110.345C133.896 109.742 133.422 109.348 133.036 109.461C132.65 109.573 132.497 110.152 132.698 110.755Z" fill="#263238"/>
<path opacity="0.4" d="M130.898 111.599C130.898 111.599 133.399 114.679 135.441 115.933C134.717 117.227 132.788 117.292 132.788 117.292L130.898 111.599Z" fill="#FF5652"/>
<path opacity="0.4" d="M123.22 112.09C123.324 112.049 123.405 111.969 123.437 111.856C123.839 110.297 125.125 109.903 125.133 109.895C125.318 109.846 125.431 109.637 125.366 109.444C125.302 109.252 125.093 109.139 124.9 109.195C124.828 109.211 123.228 109.702 122.729 111.647C122.681 111.84 122.802 112.049 122.995 112.106C123.067 112.122 123.147 112.122 123.22 112.09Z" fill="#263238"/>
<path opacity="0.4" d="M134.637 107.989C134.685 107.973 134.733 107.941 134.773 107.901C134.91 107.756 134.894 107.523 134.741 107.378C133.23 105.955 131.582 106.293 131.517 106.309C131.324 106.341 131.204 106.55 131.26 106.743C131.316 106.944 131.509 107.065 131.71 107.024C131.766 107.016 133.053 106.759 134.259 107.901C134.355 108.005 134.508 108.029 134.637 107.989Z" fill="#263238"/>
<g opacity="0.4">
<path opacity="0.4" d="M141.639 139.675H115.027C114.199 136.612 115.935 133.645 118.114 131.611C118.154 131.579 118.195 131.53 118.235 131.49C118.975 130.831 119.754 130.268 120.494 129.834C120.599 133.412 133.559 135.832 132.224 132.648C136.188 133.404 141.205 136.547 141.639 139.675Z" fill="#407BFF"/>
<path opacity="0.4" d="M141.639 139.675H115.027C114.199 136.612 115.935 133.645 118.114 131.611C118.154 131.579 118.195 131.53 118.235 131.49C118.975 130.831 119.754 130.268 120.494 129.834C120.599 133.412 133.559 135.832 132.224 132.648C136.188 133.404 141.205 136.547 141.639 139.675Z" fill="white"/>
</g>
</g>
</g>
<path opacity="0.2" d="M150.056 139.675H127.641L145.208 37.4623H167.632L150.056 139.675Z" fill="white"/>
<path opacity="0.2" d="M167.303 139.675H157.848L175.423 37.4623H184.878L167.303 139.675Z" fill="white"/>
<path d="M213.008 144.861C213.45 146.445 213.812 147.868 214.15 149.371C214.487 150.859 214.801 152.354 215.09 153.849C215.653 156.848 216.136 159.871 216.449 162.935C216.787 165.998 216.988 169.101 216.972 172.269C216.972 175.429 216.747 178.661 216.079 181.997L216.023 182.263C215.951 182.617 215.822 182.962 215.661 183.26C214.632 185.149 213.402 186.291 212.236 187.231C211.054 188.156 209.889 188.864 208.731 189.491C206.423 190.737 204.116 191.605 201.824 192.385C199.525 193.141 197.234 193.76 194.918 194.275C193.768 194.532 192.603 194.749 191.445 194.958C190.279 195.167 189.137 195.352 187.915 195.489C186.492 195.657 185.206 194.636 185.037 193.213C184.9 192.031 185.584 190.938 186.637 190.512L186.709 190.48C188.735 189.66 190.85 188.823 192.876 187.923C194.91 187.039 196.92 186.13 198.85 185.149C200.779 184.192 202.628 183.131 204.236 182.03C205.032 181.483 205.764 180.896 206.319 180.341C206.874 179.794 207.235 179.248 207.243 179.087L206.825 180.349C207.147 177.873 207.171 175.196 207.042 172.47C206.978 171.111 206.865 169.728 206.721 168.354C206.592 166.971 206.415 165.58 206.222 164.197C205.828 161.415 205.338 158.625 204.791 155.835C204.526 154.444 204.236 153.053 203.923 151.663C203.609 150.296 203.288 148.857 202.974 147.594L202.95 147.514C202.259 144.724 203.963 141.91 206.745 141.219C209.487 140.551 212.244 142.175 213.008 144.861Z" fill="#FF8B7B"/>
<path d="M189.493 189.788L182.988 190.536L184.829 198.069C184.829 198.069 190.514 197.032 191.358 193.503L189.493 189.788Z" fill="#FF8B7B"/>
<path d="M179.972 193.832L181.082 196.646C181.339 197.306 181.95 197.772 182.658 197.844L184.828 198.069L182.987 190.536L181.001 191.372C180.053 191.782 179.594 192.876 179.972 193.832Z" fill="#FF8B7B"/>
<path d="M209.914 134.417C218.268 140.382 219.265 155.015 219.265 155.015L202.927 160.024C202.927 160.024 199.969 153.407 199.326 147.425C198.296 137.785 203.924 130.139 209.914 134.417Z" fill="#407BFF"/>
<path d="M175.037 285.939H167.552L163.789 268.604H171.274L175.037 285.939Z" fill="#FFC3BD"/>
<path d="M167.02 283.117H175.43C175.735 283.117 176 283.326 176.065 283.631L177.544 290.288C177.697 290.98 177.158 291.631 176.451 291.623C173.516 291.575 172.085 291.398 168.387 291.398C166.111 291.398 163.193 291.631 160.049 291.631C156.978 291.631 156.495 288.519 157.782 288.238C163.554 286.976 163.956 285.239 165.806 283.575C166.135 283.277 166.569 283.117 167.02 283.117Z" fill="#263238"/>
<g opacity="0.2">
<path opacity="0.2" d="M171.282 268.604H163.789L165.879 278.212L173.22 277.545L171.282 268.604Z" fill="black"/>
</g>
<path d="M148.279 285.939H140.794L137.031 268.604H144.516L148.279 285.939Z" fill="#FFC3BD"/>
<path d="M140.262 283.117H148.672C148.978 283.117 149.243 283.326 149.307 283.631L150.787 290.288C150.939 290.98 150.401 291.631 149.693 291.623C146.759 291.575 145.328 291.398 141.629 291.398C139.354 291.398 131.933 291.631 128.789 291.631C125.718 291.631 125.236 288.519 126.522 288.238C132.295 286.976 137.199 285.239 139.048 283.575C139.378 283.277 139.812 283.117 140.262 283.117Z" fill="#263238"/>
<g opacity="0.2">
<path opacity="0.2" d="M144.516 268.604H137.031L139.114 278.212L146.462 277.545L144.516 268.604Z" fill="black"/>
</g>
<path d="M188.583 189.997C188.583 189.997 154.485 201.8 153.714 213.257C151.647 243.97 163.442 273.742 163.442 273.742H174.674C174.674 273.742 172.945 263.226 171.41 235.391C169.488 200.409 228.855 236.211 216.627 190.005L188.583 189.997Z" fill="#263238"/>
<path d="M161.11 270.928C161.062 270.936 162.815 276.049 162.815 276.049L175.84 274.771L175.14 270.116L161.11 270.928Z" fill="#407BFF"/>
<path d="M176.588 189.997C176.588 189.997 124.529 194.845 125.148 223.46C125.791 253.224 136.653 274.554 136.653 274.554H147.781C147.781 274.554 143.335 255.194 143.712 225.888C143.825 217.108 159.23 217.084 176.548 216.055C191.51 215.17 205.516 206.64 211.329 192.827L212.519 189.997H176.588V189.997Z" fill="#263238"/>
<path d="M133.614 271.073C133.566 271.073 135.52 276.218 135.52 276.218L148.946 275.261L148.167 270.606L133.614 271.073Z" fill="#407BFF"/>
<path d="M187.128 108.898C186.959 109.477 186.509 109.855 186.131 109.742C185.753 109.629 185.584 109.067 185.753 108.488C185.922 107.909 186.372 107.531 186.75 107.643C187.128 107.756 187.297 108.319 187.128 108.898Z" fill="#263238"/>
<path d="M186.565 109.871C186.565 109.871 184.258 112.821 182.328 114.003C183.068 115.265 184.941 115.346 184.941 115.346L186.565 109.871Z" fill="#FFACA7"/>
<path d="M190.143 105.569C190.071 105.569 189.999 105.545 189.942 105.497C188.712 104.532 187.49 104.91 187.442 104.934C187.257 104.998 187.056 104.894 186.992 104.709C186.927 104.524 187.032 104.323 187.217 104.259C187.281 104.235 188.841 103.728 190.385 104.942C190.537 105.063 190.569 105.288 190.441 105.441C190.368 105.529 190.256 105.577 190.143 105.569Z" fill="#263238"/>
<path d="M200.973 115.466C199.896 120.942 198.826 130.984 202.662 134.634C202.662 134.634 201.166 140.189 190.987 140.189C179.796 140.189 185.641 134.634 185.641 134.634C191.751 133.179 191.59 128.644 190.529 124.391L200.973 115.466Z" fill="#FF8B7B"/>
<path d="M202.332 131.932C196.776 131.764 190.625 131.989 184.941 132.712C178.051 133.589 172.801 139.361 172.624 146.308C172.407 154.485 173.106 168.064 176.588 190.005C188.752 192.988 209.6 195.167 216.635 190.005C216.868 184.868 213.588 169.511 215.967 147.699C216.86 139.45 210.613 132.182 202.332 131.932Z" fill="#407BFF"/>
<path d="M183.575 147.353C183.181 150.44 182.667 153.447 182.176 156.495C181.662 159.526 181.099 162.557 180.472 165.58C179.861 168.603 179.169 171.634 178.405 174.673C177.633 177.728 176.805 180.727 175.551 183.983L175.366 184.474L175.221 184.707C173.758 187.022 171.973 188.558 170.221 189.836C168.46 191.115 166.643 192.088 164.834 192.948C163.009 193.792 161.176 194.5 159.318 195.095C157.445 195.69 155.628 196.18 153.626 196.542L152.002 191.653C153.489 190.817 155.089 189.917 156.585 189.008C158.096 188.092 159.56 187.151 160.934 186.162C162.317 185.189 163.604 184.144 164.705 183.091C165.807 182.046 166.659 180.912 167.061 180.044L166.731 180.759C167.511 178.267 168.138 175.34 168.725 172.47C169.296 169.568 169.843 166.633 170.349 163.674L171.837 154.774L173.284 145.874L183.575 147.353Z" fill="#FF8B7B"/>
<path d="M157.606 189.306L148.883 191.887L153.715 198.906C153.715 198.906 156.344 198.753 158.386 193.696L157.606 189.306Z" fill="#FF8B7B"/>
<path d="M146.101 197.314L146.961 198.986C147.62 200.272 149.172 200.835 150.507 200.272L153.723 198.914L148.89 191.895L146.647 194.065C145.763 194.902 145.538 196.228 146.101 197.314Z" fill="#FF8B7B"/>
<path d="M188.44 137.93C191.865 144.217 186.06 160.032 186.06 160.032L168.621 155.731C168.621 155.731 168.774 151.301 172.593 142.867C176.959 133.235 184.709 131.088 188.44 137.93Z" fill="#407BFF"/>
<path d="M206.803 113.4C204.254 120.379 203.12 124.6 198.449 127.181C191.422 131.064 183.607 125.211 184.017 117.605C184.387 110.763 188.488 100.496 196.286 99.7321C203.973 98.9764 209.351 106.421 206.803 113.4Z" fill="#FFC3BD"/>
<path d="M190.255 114.566C187.723 114.815 187.586 113.175 187.586 113.175C187.586 113.175 186.589 107.828 190.328 104.532C188.382 103.447 186.356 101.284 187.473 98.1402C188.591 94.9966 192.925 93.3001 196.679 93.9916C195.851 95.6157 199.75 97.3523 204.438 96.9905C209.125 96.6287 212.631 100.279 209.817 102.586C214.367 102.619 216.635 110.337 212.044 114.051C203.36 121.078 203.176 126.337 199.204 127.132C195.24 127.92 186.074 123.74 190.255 114.566Z" fill="#263238"/>
<path d="M190.94 114.421C190.248 116.158 189.131 117.42 188.102 118.015C186.558 118.908 186.14 117.179 186.429 114.928C186.703 112.805 188.295 109.702 189.782 110.007C191.245 110.305 191.728 112.443 190.94 114.421Z" fill="#FFC3BD"/>
<path d="M224.467 165.708C226.967 154.155 230.433 133.749 206.369 131.884C205.187 131.796 203.981 131.699 202.783 131.611C202.799 131.337 202.783 131.008 202.695 130.638C203.949 130.662 206.24 130.493 205.726 128.982C205.428 128.105 205.058 127.824 204.56 127.896C204.817 127.438 204.833 126.972 204.327 126.562C202.703 125.251 202.373 126.69 201.384 128.893C197.147 128.845 190.136 130.413 187.973 131.305C179.459 131.908 172.143 134.505 168.822 142.159C163.218 155.08 169.168 180.783 153.707 185.623C140.891 189.635 138.857 195.673 134.483 200.996C133.084 202.7 133.768 205.289 135.85 206.013C144.686 209.092 155.733 210.242 164.738 210.242C175.351 210.242 213.396 210.242 223.599 210.242C233.809 210.226 221.966 177.254 224.467 165.708Z" fill="#FFA412"/>
<path opacity="0.4" d="M224.467 165.708C226.967 154.155 230.433 133.749 206.369 131.884C205.187 131.796 203.981 131.699 202.783 131.611C202.799 131.337 202.783 131.008 202.695 130.638C203.949 130.662 206.24 130.493 205.726 128.982C205.428 128.105 205.058 127.824 204.56 127.896C204.817 127.438 204.833 126.972 204.327 126.562C202.703 125.251 202.373 126.69 201.384 128.893C197.147 128.845 190.136 130.413 187.973 131.305C179.459 131.908 172.143 134.505 168.822 142.159C163.218 155.08 169.168 180.783 153.707 185.623C140.891 189.635 138.857 195.673 134.483 200.996C133.084 202.7 133.768 205.289 135.85 206.013C144.686 209.092 155.733 210.242 164.738 210.242C175.351 210.242 213.396 210.242 223.599 210.242C233.809 210.226 221.966 177.254 224.467 165.708Z" fill="#FFA412"/>
<path opacity="0.3" d="M202.694 130.63C200.33 130.413 193.15 131.386 193.15 131.386C193.15 131.386 200.177 131.426 202.782 131.603C202.798 131.337 202.782 131.008 202.694 130.63Z" fill="#407BFF"/>
<path d="M228.961 222.784H145.184C142.507 222.784 140.336 220.614 140.336 217.936V213.088C140.336 210.411 142.507 208.24 145.184 208.24H228.953C231.63 208.24 233.801 210.411 233.801 213.088V217.936C233.809 220.614 231.638 222.784 228.961 222.784Z" fill="#407BFF"/>
<path opacity="0.3" d="M228.961 222.784H145.184C142.507 222.784 140.336 220.614 140.336 217.936V213.088C140.336 210.411 142.507 208.24 145.184 208.24H228.953C231.63 208.24 233.801 210.411 233.801 213.088V217.936C233.809 220.614 231.638 222.784 228.961 222.784Z" fill="black"/>
<path d="M233.648 134.867C221.918 134.867 210.196 134.867 198.465 134.867C194.63 134.867 190.819 137.954 190.063 141.781C185.392 165.54 183.84 189.603 185.448 213.353C185.706 217.18 189.123 220.268 192.958 220.268C204.688 220.268 216.41 220.268 228.141 220.268C231.984 220.268 234.79 217.18 234.533 213.353C232.925 189.603 234.476 165.531 239.148 141.781C239.895 137.954 237.491 134.867 233.648 134.867Z" fill="#407BFF"/>
<path opacity="0.3" d="M233.648 134.867C221.918 134.867 210.196 134.867 198.465 134.867C194.63 134.867 190.819 137.954 190.063 141.781C185.392 165.54 183.84 189.603 185.448 213.353C185.706 217.18 189.123 220.268 192.958 220.268C204.688 220.268 216.41 220.268 228.141 220.268C231.984 220.268 234.79 217.18 234.533 213.353C232.925 189.603 234.476 165.531 239.148 141.781C239.895 137.954 237.491 134.867 233.648 134.867Z" fill="black"/>
<path d="M238.528 137.769C227.602 137.769 216.667 137.769 205.741 137.769C202.163 137.769 198.609 140.648 197.91 144.217C193.552 166.36 192.105 188.783 193.608 210.917C193.85 214.487 197.033 217.357 200.603 217.365C211.538 217.365 222.464 217.365 233.39 217.365C236.968 217.365 239.589 214.487 239.348 210.917C237.853 188.783 239.292 166.352 243.649 144.217C244.349 140.656 242.106 137.769 238.528 137.769Z" fill="#3F7AFC"/>
<path d="M191.246 231.87H182.715C181.549 231.87 180.448 231.307 179.765 230.358L174.281 222.784H199.68L194.196 230.358C193.513 231.307 192.419 231.87 191.246 231.87Z" fill="#407BFF"/>
<path opacity="0.5" d="M174.281 222.784L176.557 225.928L198.538 224.36L199.68 222.784H174.281Z" fill="black"/>
<path d="M180.85 285.448H193.111L199.68 292.604H174.281L180.85 285.448Z" fill="#407BFF"/>
<path d="M190.442 231.87H183.52V285.448H190.442V231.87Z" fill="#263238"/>
<path opacity="0.6" d="M190.442 231.87H183.52V285.448H190.442V231.87Z" fill="white"/>
<path d="M257.944 88.9425C257.783 90.1565 257.615 91.2098 257.397 92.3112C257.188 93.4047 256.963 94.4901 256.73 95.5755C256.256 97.7382 255.653 99.8688 255.034 101.999C253.779 106.253 252.228 110.433 250.29 114.469C250.033 115 249.872 115.402 249.454 116.15C249.092 116.769 248.73 117.308 248.369 117.806C247.637 118.795 246.889 119.671 246.133 120.516C244.63 122.204 243.054 123.74 241.462 125.251C238.27 128.242 234.966 131.024 231.493 133.661C230.64 134.304 229.434 134.143 228.783 133.291C228.22 132.551 228.277 131.53 228.863 130.855L228.88 130.831C231.661 127.623 234.475 124.399 237.169 121.183C238.528 119.583 239.83 117.951 241.052 116.335C241.655 115.531 242.226 114.711 242.7 113.939C242.942 113.553 243.143 113.183 243.303 112.861C243.392 112.66 243.625 112.074 243.802 111.623C244.574 109.734 245.233 107.78 245.892 105.843C246.495 103.873 247.114 101.911 247.645 99.909C248.184 97.9151 248.642 95.8971 249.092 93.879C249.317 92.874 249.526 91.861 249.719 90.848C249.904 89.851 250.105 88.7978 250.25 87.8892L250.266 87.8008C250.612 85.6863 252.606 84.2552 254.728 84.6009C256.794 84.9466 258.218 86.8762 257.944 88.9425Z" fill="#FFC3BD"/>
<path d="M256.16 82.5668C251.127 84.2793 248.723 88.1305 248.723 88.1305C248.723 88.1305 253.587 95.9051 254.399 100.97C258.443 96.3152 262.487 86.434 256.16 82.5668Z" fill="#FFA412"/>
<path d="M219.328 132.479C219.135 130.566 220.55 128.861 222.464 128.7L225.342 128.459C225.342 128.459 230.777 127.752 232.626 132.302L232.152 133.211C231.38 134.69 229.981 135.735 228.349 136.065L224.08 136.917C223.316 137.07 222.52 137.054 221.764 136.885C220.55 136.604 219.642 135.583 219.521 134.336L219.328 132.479Z" fill="#FFC3BD"/>
<path d="M250.844 92.2067C251.134 98.7674 252.26 109.838 255.299 128.507H286.132C285.674 117.372 285.151 109.605 290.031 90.245C291.237 85.4772 287.869 81.7708 282.369 81.0311C281.139 80.8623 279.837 80.806 278.502 80.7417C273.316 80.4924 269.063 80.3236 264.504 80.7417C262.993 80.8784 261.433 81.0713 259.938 81.2804C254.543 82.0361 250.603 86.7717 250.844 92.2067Z" fill="#FFA412"/>
<path d="M262.334 80.002C259.207 89.7465 262.222 95.9534 262.222 95.9534C265.18 96.8458 271.773 97.087 275.335 96.3474C275.335 96.3474 277.892 82.5748 279.893 79.4232C280.472 79.4232 282.177 80.002 282.177 80.002C282.177 80.002 279.556 87.8893 278.76 97.5051C282.78 99.1372 285.063 101.405 286.358 103.35C287.588 105.199 287.604 107.611 286.398 109.485C284.235 112.837 280.979 119.575 283.777 126.698H256.658C256.658 126.698 254.857 115.732 251.906 108.311C251.118 106.341 251.424 104.09 252.742 102.426C255.355 99.1292 259.215 97.4167 259.215 97.4167C259.215 97.4167 256.127 88.3878 259.818 80.7337C261.016 80.2674 262.334 80.002 262.334 80.002Z" fill="#263238"/>
<path d="M284.686 59.6206C287.524 59.7734 291.568 62.0889 288.682 64.734C285.788 67.3792 282.081 62.4024 284.686 59.6206Z" fill="#407BFF"/>
<path d="M267.358 42.9537C261.143 43.8944 262.108 55.7936 254.076 57.1443C256.818 64.5089 263.274 62.7401 263.274 62.7401C263.274 62.7401 261.899 68.7621 271.37 72.4283C280.841 76.0946 292.033 69.8153 286.622 61.6547C292.395 55.3031 289.412 45.8481 282.16 42.2381C276.725 39.5206 266.715 39.4161 267.358 42.9537Z" fill="#263238"/>
<path d="M277.113 64.9753C276.228 69.4777 275.352 77.7347 278.504 80.7417C278.504 80.7417 274.218 81.8994 267.368 84.7697C264.538 83.427 264.506 80.7417 264.506 80.7417C269.531 79.5437 269.402 75.8132 268.526 72.3158L277.113 64.9753Z" fill="#FFC3BD"/>
<path d="M267.359 84.7617C267.359 84.7617 271.5 86.8601 273.526 90.2369C280.73 87.1496 281.936 82.9446 280.979 80.6211C280.264 80.3879 277.972 79.0211 277.972 79.0211C277.972 79.0211 271.765 82.6874 267.359 84.7617Z" fill="white"/>
<path d="M267.359 84.7617C267.359 84.7617 263.428 86.3375 261.217 89.7465C258.773 88.7576 258.596 82.8884 260.445 81.0552C262.439 80.2271 264.722 80.2271 264.722 80.2271C264.722 80.2271 265.494 83.2582 267.359 84.7617Z" fill="white"/>
<path opacity="0.2" d="M273.607 67.9661L268.518 72.3077C268.727 73.1358 268.887 73.9801 268.952 74.7921C270.873 74.5107 273.51 72.4042 273.711 70.4022C273.816 69.3972 273.776 68.4324 273.607 67.9661Z" fill="black"/>
<path d="M281.864 56.7101C280.103 64.0346 279.516 67.1782 275.175 70.3299C268.646 75.0735 260.204 71.3268 259.786 63.6326C259.408 56.7021 262.343 45.8883 269.973 44.1999C277.49 42.5276 283.625 49.3857 281.864 56.7101Z" fill="#FFC3BD"/>
<path d="M267.359 43.9346C271.01 49.5626 278.278 52.7303 278.278 52.7303C276.589 54.1373 274.041 61.9361 278.953 62.8527C286.752 61.0759 285.835 50.5837 284.195 47.834C282.563 45.0923 273.864 41.2894 267.359 43.9346Z" fill="#263238"/>
<path d="M255.291 128.507C255.291 128.507 257.896 185.68 258.394 208.827C258.909 232.907 259.142 289.147 259.142 289.147H265.22C265.22 289.147 274.917 242.41 272.046 208.827C276.388 183.043 279.323 128.507 279.323 128.507H255.291Z" fill="#FFC3BD"/>
<path d="M263.355 128.507C263.355 128.507 285.329 188.373 294.052 210.765C303.21 234.274 318.261 287.41 318.526 289.155H323.784C323.784 289.155 317.762 227.777 306.828 206.897C303.523 180.751 286.141 128.507 286.141 128.507H263.355V128.507Z" fill="#FFC3BD"/>
<path d="M259.19 288.206L265.703 288.31C265.944 288.31 266.137 288.487 266.161 288.728L266.732 294.059C266.788 294.614 266.314 295.128 265.751 295.112C263.403 295.032 260.026 294.847 257.068 294.799C253.61 294.742 253.948 294.887 249.896 294.823C247.444 294.783 247.05 292.29 248.103 292.089C252.887 291.14 253.369 291.092 257.687 288.664C258.169 288.383 258.676 288.198 259.19 288.206Z" fill="#263238"/>
<path d="M317.883 288.206L324.403 288.31C324.645 288.31 324.846 288.487 324.878 288.728L325.634 294.059C325.714 294.614 325.256 295.128 324.693 295.112C322.345 295.032 321.597 294.847 318.647 294.799C315.19 294.742 316.79 294.887 312.737 294.823C310.285 294.783 309.803 292.306 310.848 292.089C314.144 291.398 314.964 290.071 316.412 288.664C316.781 288.278 317.36 288.198 317.883 288.206Z" fill="#263238"/>
<path d="M319.129 288.833C318.092 288.865 317.537 288.809 317.272 288.359C317.006 287.9 316.066 286.517 316.13 286.003C316.194 285.488 320.399 285.07 320.817 285.898C321.236 286.726 321.236 288.769 319.129 288.833Z" fill="#263238"/>
<path d="M258.966 288.833C258.315 288.865 257.969 288.809 257.817 288.359C257.664 287.9 257.109 286.517 257.157 286.003C257.205 285.488 259.843 285.07 260.084 285.898C260.333 286.726 260.277 288.769 258.966 288.833Z" fill="#263238"/>
<path opacity="0.2" d="M286.132 128.499H279.322H263.355H255.299C255.299 128.499 257.896 185.672 258.402 208.827C258.467 211.745 258.523 215.13 258.579 218.837C261.064 216.28 266.161 211.199 272.553 205.715C274.257 194.492 275.72 179.111 276.846 165.041C280.472 174.834 284.331 185.181 287.716 194.178C292.733 190.898 297.911 188.108 302.872 186.444C296.641 160.088 286.132 128.499 286.132 128.499Z" fill="black"/>
<path d="M287.555 125.846L287.483 128.507C287.483 128.507 300.001 154.734 303.225 182.496C282.168 189.33 256.947 220.549 256.947 220.549C246.238 206.817 255.403 142.69 254.696 128.974L253.867 125.854H287.555V125.846Z" fill="#263238"/>
<path d="M272.095 56.7905C271.99 57.3935 271.58 57.8277 271.186 57.7553C270.792 57.683 270.559 57.1363 270.664 56.5333C270.768 55.9303 271.178 55.4961 271.572 55.5685C271.966 55.6408 272.199 56.1875 272.095 56.7905Z" fill="#263238"/>
<path d="M264.657 55.5845C264.553 56.1875 264.143 56.6217 263.749 56.5493C263.355 56.477 263.122 55.9303 263.226 55.3273C263.331 54.7243 263.741 54.2901 264.135 54.3625C264.537 54.4348 264.77 54.9815 264.657 55.5845Z" fill="#263238"/>
<path d="M264.312 54.4268L262.938 53.7514C262.938 53.7514 263.476 55.0137 264.312 54.4268Z" fill="#263238"/>
<path d="M266.555 56.9352C266.555 56.9352 265.075 59.3473 263.725 60.4005C264.392 61.2849 265.799 61.1884 265.799 61.1884L266.555 56.9352Z" fill="#ED847E"/>
<path d="M268.87 64.0346C268.548 64.0346 268.202 64.0024 267.841 63.9461C267.744 63.9301 267.68 63.8336 267.696 63.7371C267.712 63.6406 267.8 63.5763 267.905 63.5924C270.55 64.0587 272.118 62.4346 272.134 62.4185C272.198 62.3462 272.319 62.3381 272.391 62.4105C272.464 62.4748 272.472 62.5954 272.399 62.6678C272.335 62.716 271.073 64.0346 268.87 64.0346Z" fill="#263238"/>
<path d="M283.351 64.6456C282.265 66.0285 280.77 66.7038 279.492 66.7601C277.57 66.8405 277.144 64.6617 278.117 62.7723C278.993 61.0759 281.051 58.9855 282.764 59.7975C284.444 60.6015 284.589 63.0698 283.351 64.6456Z" fill="#FFC3BD"/>
<path d="M274.523 53.9765C274.434 53.9524 274.354 53.8881 274.306 53.7916C273.582 52.3605 272.272 52.1916 272.256 52.1916C272.063 52.1675 271.918 51.9906 271.942 51.7896C271.966 51.5886 272.143 51.452 272.336 51.4761C272.408 51.4841 274.049 51.6851 274.949 53.47C275.037 53.6469 274.965 53.864 274.788 53.9524C274.708 53.9926 274.611 54.0006 274.523 53.9765Z" fill="#263238"/>
<path d="M261.875 51.0339C261.786 51.0259 261.698 50.9776 261.642 50.9053C261.513 50.7525 261.537 50.5274 261.69 50.3987C263.234 49.1445 264.818 49.6269 264.89 49.651C265.083 49.7153 265.187 49.9163 265.123 50.1013C265.059 50.2862 264.858 50.3907 264.673 50.3344C264.608 50.3183 263.378 49.9565 262.148 50.9535C262.068 51.0259 261.963 51.05 261.875 51.0339Z" fill="#263238"/>
<path d="M271.74 55.6328L270.365 54.9574C270.365 54.9574 270.912 56.2197 271.74 55.6328Z" fill="#263238"/>
<path d="M289.887 85.9275C290.04 86.3054 290.273 86.8682 290.49 87.3425C290.716 87.841 290.941 88.3395 291.182 88.838C291.656 89.8349 292.171 90.8158 292.709 91.7887C293.779 93.7263 294.92 95.6318 296.207 97.4086C296.842 98.301 297.509 99.1694 298.209 99.9975C298.892 100.842 299.608 101.654 300.364 102.418C301.103 103.197 301.891 103.913 302.695 104.612C303.097 104.958 303.507 105.296 303.925 105.609C304.134 105.778 304.343 105.931 304.56 106.076L304.882 106.309L305.043 106.421C305.059 106.429 305.115 106.478 305.099 106.462C305.067 106.438 305.027 106.413 304.987 106.397C304.721 106.237 304.006 106.076 303.467 106.228C302.928 106.365 302.735 106.574 302.687 106.622C302.623 106.703 302.872 106.47 303.073 106.132C303.507 105.449 303.941 104.468 304.327 103.463C305.099 101.437 305.766 99.2256 306.369 96.9986C307.575 92.5283 308.645 87.9134 309.666 83.3386L309.674 83.3065C309.907 82.2693 310.936 81.61 311.973 81.8432C312.898 82.0522 313.517 82.8884 313.485 83.8049C313.292 88.645 312.85 93.4127 312.078 98.2367C311.668 100.649 311.218 103.061 310.486 105.537C310.108 106.783 309.698 108.037 308.99 109.428C308.613 110.128 308.194 110.892 307.262 111.784C306.771 112.218 306.056 112.757 304.938 113.022C304.4 113.151 303.756 113.175 303.186 113.079C302.88 113.038 302.639 112.958 302.382 112.878C302.108 112.789 301.907 112.693 301.698 112.58L301.393 112.411L301.264 112.331L301.055 112.202L300.637 111.937C300.355 111.76 300.074 111.583 299.801 111.398C299.254 111.028 298.715 110.65 298.193 110.248C297.139 109.461 296.143 108.608 295.202 107.716C293.296 105.947 291.592 104.001 290.056 101.959C288.513 99.9251 287.122 97.7945 285.883 95.5916C285.272 94.482 284.694 93.3565 284.147 92.2148C283.873 91.6439 283.608 91.0651 283.359 90.4701C283.102 89.8591 282.885 89.3204 282.619 88.5887C281.888 86.5707 282.925 84.3517 284.943 83.62C286.921 82.9045 289.099 83.8934 289.871 85.831L289.887 85.9275Z" fill="#FFC3BD"/>
<path d="M284.179 81.401C289.212 83.1135 291.615 86.9647 291.615 86.9647C291.615 86.9647 286.751 94.7394 285.939 99.8046C281.895 95.1494 277.851 85.2682 284.179 81.401Z" fill="#FFA412"/>
<path d="M312.858 81.6743C313.485 80.6291 312.986 75.2906 310.607 74.6152C309.505 74.3017 310.47 76.7217 310.462 77.6141C310.438 80.0583 308.653 84.1587 309.851 84.5044C311.057 84.8421 311.764 83.4994 312.858 81.6743Z" fill="#FFC3BD"/>
<path d="M321.147 78.4664C320.384 76.7056 318.317 75.9096 316.565 76.7056L313.935 77.8955C313.935 77.8955 308.846 79.9377 309.457 84.8099L310.317 85.3727C311.708 86.2893 313.445 86.5144 315.029 85.9999L319.17 84.6572C319.909 84.416 320.593 84.022 321.171 83.4914C322.096 82.6552 322.377 81.3206 321.887 80.1709L321.147 78.4664Z" fill="#FFC3BD"/>
<path d="M318.002 75.3549C317.673 75.4996 317.432 75.789 317.295 76.1669L309.343 57.9965C308.949 63.922 311.554 69.6786 311.554 69.6786L314.047 70.6515L317.48 78.4985V78.4905V78.4985C318.067 79.8492 319.257 80.6372 320.133 80.2512C321.017 79.8653 321.243 78.4583 320.656 77.1076C320.077 75.7569 318.887 74.969 318.002 75.3549ZM319.852 79.5678C319.224 79.8412 318.356 79.2784 317.938 78.3056C317.512 77.3327 317.681 76.3197 318.308 76.0383C318.943 75.7569 319.795 76.3277 320.221 77.3006C320.648 78.2734 320.487 79.2945 319.852 79.5678Z" fill="#263238"/>
<path d="M318.976 76.5448C317.488 76.2554 315.768 76.392 315.197 77.3247C314.626 78.2573 315.703 78.6513 316.322 78.4342C316.933 78.2171 319.193 79.391 319.554 78.8523C319.916 78.3056 318.976 76.5448 318.976 76.5448Z" fill="#FFC3BD"/>
<path d="M312.416 74.8323C312.754 74.9609 313.003 75.2423 313.156 75.6122L320.376 57.1443C321.011 63.0456 318.631 68.9068 318.631 68.9068L316.179 69.9842L313.06 77.9599V77.9518V77.9599C312.521 79.3347 311.363 80.1628 310.479 79.8171C309.578 79.4633 309.297 78.0724 309.835 76.6976C310.366 75.3147 311.516 74.4785 312.416 74.8323ZM310.744 79.1176C311.387 79.3668 312.223 78.7639 312.609 77.783C312.995 76.7941 312.786 75.7891 312.143 75.5318C311.5 75.2825 310.664 75.8775 310.278 76.8664C309.892 77.8553 310.093 78.8684 310.744 79.1176Z" fill="#263238"/>
<path d="M310.605 74.6152C309.696 74.3579 310.187 75.9499 310.388 77.0192C310.428 77.2523 310.46 77.4533 310.46 77.6141L312.229 76.175C311.835 75.4112 311.304 74.8162 310.605 74.6152Z" fill="#FFC3BD"/>
</svg>
