<svg width="407" height="300" viewBox="0 0 407 300" fill="none" xmlns="http://www.w3.org/2000/svg">
<g clip-path="url(#clip0)">
<path d="M309.774 92.7873C309.53 85.1357 303.262 79.0307 295.529 79.0307C295.366 79.0307 295.203 79.0307 295.041 79.0307C293.575 71.5419 286.901 65.8439 278.923 65.8439C270.946 65.8439 264.271 71.5419 262.806 79.1121C262.155 79.0307 261.422 78.9493 260.69 78.9493C252.957 78.9493 246.689 85.0543 246.445 92.7059H241.154C234.316 92.7059 228.862 98.2411 228.862 104.997C228.862 111.835 234.397 117.289 241.154 117.289H308.065C314.902 117.289 320.356 111.753 320.356 104.997C320.356 98.7295 315.716 93.6013 309.774 92.7873Z" fill="#81D4FA"/>
<path d="M304.564 91.1593C304.32 83.9961 298.459 78.2167 291.215 78.2167C291.052 78.2167 290.889 78.2167 290.726 78.2167C289.343 71.1349 283.075 65.8439 275.586 65.8439C268.097 65.8439 261.829 71.2163 260.446 78.2981C259.794 78.2167 259.143 78.1353 258.492 78.1353C251.247 78.1353 245.387 83.8333 245.142 90.9965H240.177C233.828 90.9965 228.618 96.2061 228.618 102.555C228.618 108.904 233.828 114.114 240.177 114.114H303.018C309.367 114.114 314.577 108.904 314.577 102.555C314.495 96.7759 310.181 91.9733 304.564 91.1593Z" fill="#CAEAFF"/>
<path d="M160.649 72.6815C160.405 65.0299 154.137 58.9249 146.404 58.9249C146.241 58.9249 146.078 58.9249 145.916 58.9249C144.45 51.4362 137.776 45.7382 129.798 45.7382C121.821 45.7382 115.146 51.4362 113.681 59.0064C113.03 58.925 112.297 58.8435 111.565 58.8435C103.832 58.8435 97.5639 64.9485 97.3197 72.6001H92.0287C85.1911 72.6001 79.7373 78.1353 79.7373 84.8915C79.7373 91.7291 85.2725 97.1829 92.0287 97.1829H158.939C165.777 97.1829 171.231 91.6477 171.231 84.8915C171.231 78.6237 166.672 73.4955 160.649 72.6815Z" fill="#81D4FA"/>
<path d="M155.52 71.0536C155.276 63.8904 149.415 58.111 142.171 58.111C142.008 58.111 141.845 58.111 141.682 58.111C140.299 51.0292 134.031 45.7382 126.542 45.7382C119.053 45.7382 112.785 51.1106 111.402 58.1924C110.75 58.111 110.099 58.0296 109.448 58.0296C102.203 58.0296 96.3426 63.7276 96.0984 70.8908H91.133C84.7838 70.8908 79.5742 76.1004 79.5742 82.4496C79.5742 88.7988 84.7838 94.0084 91.133 94.0084H153.974C160.323 94.0084 165.533 88.7988 165.533 82.4496C165.451 76.6702 161.137 71.7862 155.52 71.0536Z" fill="#CAEAFF"/>
<path d="M242.944 29.6208H168.056V128.603H242.944V29.6208Z" fill="#1B75BA"/>
<path d="M245.63 24.3299V41.7495C245.63 42.9705 244.653 43.9473 243.432 43.9473H167.73C166.59 43.9473 165.614 43.0519 165.532 41.9123C165.532 41.8309 165.532 41.8309 165.532 41.7495V24.3299C165.532 23.1089 166.509 22.1321 167.73 22.1321H243.432C244.572 22.1321 245.63 23.1089 245.63 24.3299Z" fill="#1B75BA"/>
<path d="M243.188 22.1321C243.188 22.1321 242.618 23.0275 242.618 24.4927L171.149 26.7719V40.3657L165.532 41.8309C165.532 41.7495 165.532 41.7495 165.532 41.6681V24.3299C165.532 23.1089 166.509 22.1321 167.73 22.1321H243.188Z" fill="#40C5F4"/>
<path d="M167.649 42.5635C167.161 42.5635 166.835 42.1565 166.835 41.7495V24.3299C166.835 23.8415 167.242 23.5159 167.649 23.5159H243.351C243.839 23.5159 244.165 23.9229 244.165 24.3299V41.7495C244.165 42.2379 243.758 42.5635 243.351 42.5635H167.649Z" fill="#26A8DF"/>
<path d="M208.268 29.6209V31.1675V31.5745L208.593 31.7373L209.407 32.2257V33.8537L208.593 34.3421L208.268 34.5049V34.9119V36.4585H173.103V29.6209H208.268ZM208.919 28.9697H172.37V37.1097H208.919V34.9119L210.058 34.2607V31.9001L208.919 31.2489V28.9697Z" fill="#81D4FA"/>
<path d="M237.164 30.8419C238.385 30.8419 239.362 31.8187 239.362 33.0397C239.362 34.2607 238.385 35.2375 237.164 35.2375C235.943 35.2375 234.966 34.2607 234.966 33.0397C234.966 31.8187 235.943 30.8419 237.164 30.8419ZM237.164 30.1093C235.536 30.1093 234.233 31.4117 234.233 33.0397C234.233 34.6677 235.536 35.9701 237.164 35.9701C238.792 35.9701 240.094 34.6677 240.094 33.0397C240.013 31.4117 238.792 30.1093 237.164 30.1093Z" fill="#81D4FA"/>
<path d="M232.036 33.0397C232.036 34.6677 230.733 35.9701 229.105 35.9701C227.477 35.9701 226.175 34.6677 226.175 33.0397C226.175 31.4117 227.477 30.1093 229.105 30.1093C230.733 30.1093 232.036 31.4117 232.036 33.0397Z" fill="#81D4FA"/>
<path d="M218.686 33.0396C218.686 33.6908 218.198 34.1792 217.547 34.1792C216.896 34.1792 216.407 33.6908 216.407 33.0396C216.407 32.3884 216.896 31.9 217.547 31.9C218.198 31.9 218.686 32.3884 218.686 33.0396Z" fill="#81D4FA"/>
<path opacity="0.15" d="M245.63 35.4817V41.7495C245.63 42.9705 244.653 43.9473 243.432 43.9473H167.73C166.59 43.9473 165.614 43.0519 165.532 41.9123C165.532 41.8309 165.532 41.8309 165.532 41.7495V35.4003C177.986 36.0515 222.024 38.0865 245.63 35.4817Z" fill="#231F20"/>
<path d="M242.455 26.2021H242.211C241.804 26.2021 241.56 25.8765 241.56 25.5509C241.56 25.2253 241.885 24.8997 242.211 24.8997H242.455C242.862 24.8997 243.106 25.2253 243.106 25.5509C243.106 25.8765 242.781 26.2021 242.455 26.2021Z" fill="#81D4FA"/>
<path d="M239.362 26.2021H236.513C236.106 26.2021 235.861 25.8765 235.861 25.5509C235.861 25.2253 236.187 24.8997 236.513 24.8997H239.362C239.769 24.8997 240.013 25.2253 240.013 25.5509C240.013 25.8765 239.769 26.2021 239.362 26.2021Z" fill="#81D4FA"/>
<path d="M233.257 26.2021H169.032C168.625 26.2021 168.381 25.8765 168.381 25.5509C168.381 25.2253 168.706 24.8997 169.032 24.8997H233.257C233.664 24.8997 233.908 25.2253 233.908 25.5509C233.908 25.8765 233.582 26.2021 233.257 26.2021Z" fill="#81D4FA"/>
<path d="M245.63 46.5514V63.971C245.63 65.192 244.653 66.1688 243.432 66.1688H167.73C166.59 66.1688 165.614 65.2734 165.532 64.1338C165.532 64.0524 165.532 64.0524 165.532 63.971V46.5514C165.532 45.3304 166.509 44.3536 167.73 44.3536H243.432C244.572 44.3536 245.63 45.3304 245.63 46.5514Z" fill="#1B75BA"/>
<path d="M243.188 44.3542C243.188 44.3542 242.618 45.2496 242.618 46.7148L171.149 48.994V62.5878L165.532 64.053C165.532 63.9716 165.532 63.9716 165.532 63.8902V46.4706C165.532 45.2496 166.509 44.2728 167.73 44.2728H243.188V44.3542Z" fill="#40C5F4"/>
<path d="M167.649 64.7856C167.161 64.7856 166.835 64.3786 166.835 63.9716V46.552C166.835 46.0636 167.242 45.738 167.649 45.738H243.351C243.839 45.738 244.165 46.145 244.165 46.552V63.9716C244.165 64.46 243.758 64.7856 243.351 64.7856H167.649Z" fill="#26A8DF"/>
<path d="M208.268 51.843V53.3896V53.7966L208.593 53.9594L209.407 54.4478V56.0758L208.593 56.5642L208.268 56.727V57.134V58.6806H173.103V51.843H208.268ZM208.919 51.1918H172.37V59.3318H208.919V57.134L210.058 56.4828V54.1222L208.919 53.471V51.1918Z" fill="#81D4FA"/>
<path d="M237.164 53.064C238.385 53.064 239.362 54.0408 239.362 55.2618C239.362 56.4828 238.385 57.4596 237.164 57.4596C235.943 57.4596 234.966 56.4828 234.966 55.2618C234.966 54.0408 235.943 53.064 237.164 53.064ZM237.164 52.4128C235.536 52.4128 234.233 53.7152 234.233 55.3432C234.233 56.9713 235.536 58.2736 237.164 58.2736C238.792 58.2736 240.094 56.9713 240.094 55.3432C240.013 53.6338 238.792 52.4128 237.164 52.4128Z" fill="#81D4FA"/>
<path d="M232.036 55.2618C232.036 56.8898 230.733 58.1922 229.105 58.1922C227.477 58.1922 226.175 56.8898 226.175 55.2618C226.175 53.6338 227.477 52.3314 229.105 52.3314C230.733 52.4128 232.036 53.6338 232.036 55.2618Z" fill="#81D4FA"/>
<path d="M218.686 55.2618C218.686 55.913 218.198 56.4014 217.547 56.4014C216.896 56.4014 216.407 55.913 216.407 55.2618C216.407 54.6106 216.896 54.1222 217.547 54.1222C218.198 54.1222 218.686 54.6106 218.686 55.2618Z" fill="#81D4FA"/>
<path opacity="0.15" d="M245.63 57.7038V63.9716C245.63 65.1926 244.653 66.1694 243.432 66.1694H167.73C166.59 66.1694 165.614 65.274 165.532 64.1344C165.532 64.053 165.532 64.053 165.532 63.9716V57.6224C177.986 58.2736 222.024 60.39 245.63 57.7038Z" fill="#231F20"/>
<path d="M242.455 48.4242H242.211C241.804 48.4242 241.56 48.0986 241.56 47.773C241.56 47.366 241.885 47.1218 242.211 47.1218H242.455C242.862 47.1218 243.106 47.4474 243.106 47.773C243.106 48.0986 242.781 48.4242 242.455 48.4242Z" fill="#81D4FA"/>
<path d="M239.362 48.4242H236.513C236.106 48.4242 235.861 48.0986 235.861 47.773C235.861 47.366 236.187 47.1218 236.513 47.1218H239.362C239.769 47.1218 240.013 47.4474 240.013 47.773C240.013 48.0986 239.769 48.4242 239.362 48.4242Z" fill="#81D4FA"/>
<path d="M233.257 48.4242H169.032C168.625 48.4242 168.381 48.0986 168.381 47.773C168.381 47.366 168.706 47.1218 169.032 47.1218H233.257C233.664 47.1218 233.908 47.4474 233.908 47.773C233.908 48.0986 233.582 48.4242 233.257 48.4242Z" fill="#81D4FA"/>
<path d="M245.63 68.8551V86.1933C245.63 87.4143 244.653 88.3911 243.432 88.3911H167.73C166.59 88.3911 165.614 87.4957 165.532 86.3561C165.532 86.2747 165.532 86.2747 165.532 86.1933V68.7737C165.532 67.5527 166.509 66.5759 167.73 66.5759H243.432C244.572 66.5759 245.63 67.6341 245.63 68.8551Z" fill="#1B75BA"/>
<path d="M243.188 66.5765C243.188 66.5765 242.618 67.4719 242.618 68.9371L171.149 71.2163V84.8101L165.532 86.2753C165.532 86.1939 165.532 86.1939 165.532 86.1125V68.6929C165.532 67.4719 166.509 66.4951 167.73 66.4951H243.188V66.5765Z" fill="#40C5F4"/>
<path d="M167.649 87.0893C167.161 87.0893 166.835 86.6823 166.835 86.2753V68.8557C166.835 68.3673 167.242 68.0417 167.649 68.0417H243.351C243.839 68.0417 244.165 68.4487 244.165 68.8557V86.1939C244.165 86.6823 243.758 87.0079 243.351 87.0079H167.649V87.0893Z" fill="#26A8DF"/>
<path d="M208.268 74.1468V75.6934V76.1004L208.593 76.2632L209.407 76.7516V78.3796L208.593 78.868L208.268 79.0308V79.4378V80.9844H173.103V74.1468H208.268ZM208.919 73.4142H172.37V81.5542H208.919V79.3564L210.058 78.7052V76.3446L208.919 75.6934V73.4142Z" fill="#81D4FA"/>
<path d="M237.164 75.2863C238.385 75.2863 239.362 76.2631 239.362 77.4841C239.362 78.7051 238.385 79.6819 237.164 79.6819C235.943 79.6819 234.966 78.7051 234.966 77.4841C234.966 76.2631 235.943 75.2863 237.164 75.2863ZM237.164 74.6351C235.536 74.6351 234.233 75.9375 234.233 77.5655C234.233 79.1935 235.536 80.4959 237.164 80.4959C238.792 80.4959 240.094 79.1935 240.094 77.5655C240.013 75.9375 238.792 74.6351 237.164 74.6351Z" fill="#81D4FA"/>
<path d="M232.036 77.4841C232.036 79.1121 230.733 80.4145 229.105 80.4145C227.477 80.4145 226.175 79.1121 226.175 77.4841C226.175 75.8561 227.477 74.5537 229.105 74.5537C230.733 74.6351 232.036 75.9375 232.036 77.4841Z" fill="#81D4FA"/>
<path d="M218.686 77.4841C218.686 78.1353 218.198 78.6237 217.547 78.6237C216.896 78.6237 216.407 78.1353 216.407 77.4841C216.407 76.8329 216.896 76.3445 217.547 76.3445C218.198 76.3445 218.686 76.8329 218.686 77.4841Z" fill="#81D4FA"/>
<path opacity="0.15" d="M245.63 79.9261V86.1939C245.63 87.4149 244.653 88.3917 243.432 88.3917H167.73C166.59 88.3917 165.614 87.4963 165.532 86.3567C165.532 86.2753 165.532 86.2753 165.532 86.1939V79.8447C177.986 80.4959 222.024 82.6123 245.63 79.9261Z" fill="#231F20"/>
<path d="M242.455 70.6465H242.211C241.804 70.6465 241.56 70.3209 241.56 69.9953C241.56 69.5883 241.885 69.3441 242.211 69.3441H242.455C242.862 69.3441 243.106 69.6697 243.106 69.9953C243.106 70.4023 242.781 70.6465 242.455 70.6465Z" fill="#81D4FA"/>
<path d="M239.362 70.6465H236.513C236.106 70.6465 235.861 70.3209 235.861 69.9953C235.861 69.5883 236.187 69.3441 236.513 69.3441H239.362C239.769 69.3441 240.013 69.6697 240.013 69.9953C240.013 70.4023 239.769 70.6465 239.362 70.6465Z" fill="#81D4FA"/>
<path d="M233.257 70.6465H169.032C168.625 70.6465 168.381 70.3209 168.381 69.9953C168.381 69.5883 168.706 69.3441 169.032 69.3441H233.257C233.664 69.3441 233.908 69.6697 233.908 69.9953C233.908 70.4023 233.582 70.6465 233.257 70.6465Z" fill="#81D4FA"/>
<path d="M245.63 91.0779V108.498C245.63 109.719 244.653 110.695 243.432 110.695H167.73C166.59 110.695 165.614 109.8 165.532 108.66C165.532 108.579 165.532 108.579 165.532 108.498V91.0779C165.532 89.8569 166.509 88.8801 167.73 88.8801H243.432C244.572 88.8801 245.63 89.8569 245.63 91.0779Z" fill="#1B75BA"/>
<path d="M243.188 88.8801C243.188 88.8801 242.618 89.7755 242.618 91.2407L171.149 93.5199V107.114L165.532 108.579C165.532 108.498 165.532 108.498 165.532 108.416V91.0779C165.532 89.8569 166.509 88.8801 167.73 88.8801H243.188Z" fill="#40C5F4"/>
<path d="M167.649 109.312C167.161 109.312 166.835 108.905 166.835 108.498V91.0779C166.835 90.5895 167.242 90.2639 167.649 90.2639H243.351C243.839 90.2639 244.165 90.6709 244.165 91.0779V108.498C244.165 108.986 243.758 109.312 243.351 109.312H167.649Z" fill="#26A8DF"/>
<path d="M208.268 96.3689V97.9155V98.3225L208.593 98.4854L209.407 98.9737V100.602L208.593 101.09L208.268 101.253V101.66V103.207H173.103V96.3689H208.268ZM208.919 95.6364H172.37V103.776H208.919V101.66L210.058 101.009V98.6481L208.919 97.9969V95.6364Z" fill="#81D4FA"/>
<path d="M237.164 97.5085C238.385 97.5085 239.362 98.4853 239.362 99.7063C239.362 100.927 238.385 101.904 237.164 101.904C235.943 101.904 234.966 100.927 234.966 99.7063C234.966 98.5667 235.943 97.5085 237.164 97.5085ZM237.164 96.8573C235.536 96.8573 234.233 98.1597 234.233 99.7877C234.233 101.416 235.536 102.718 237.164 102.718C238.792 102.718 240.094 101.416 240.094 99.7877C240.013 98.1597 238.792 96.8573 237.164 96.8573Z" fill="#81D4FA"/>
<path d="M232.036 99.7877C232.036 101.416 230.733 102.718 229.105 102.718C227.477 102.718 226.175 101.416 226.175 99.7877C226.175 98.1597 227.477 96.8573 229.105 96.8573C230.733 96.8573 232.036 98.1597 232.036 99.7877Z" fill="#81D4FA"/>
<path d="M218.686 99.7878C218.686 100.439 218.198 100.927 217.547 100.927C216.896 100.927 216.407 100.439 216.407 99.7878C216.407 99.1366 216.896 98.6482 217.547 98.6482C218.198 98.5668 218.686 99.1366 218.686 99.7878Z" fill="#81D4FA"/>
<path opacity="0.15" d="M245.63 102.148V108.416C245.63 109.637 244.653 110.614 243.432 110.614H167.73C166.59 110.614 165.614 109.718 165.532 108.579C165.532 108.497 165.532 108.497 165.532 108.416V102.067C177.986 102.799 222.024 104.834 245.63 102.148Z" fill="#231F20"/>
<path d="M242.455 92.9501H242.211C241.804 92.9501 241.56 92.6245 241.56 92.2989C241.56 91.9733 241.885 91.6477 242.211 91.6477H242.455C242.862 91.6477 243.106 91.9733 243.106 92.2989C243.106 92.6245 242.781 92.9501 242.455 92.9501Z" fill="#81D4FA"/>
<path d="M239.362 92.9501H236.513C236.106 92.9501 235.861 92.6245 235.861 92.2989C235.861 91.9733 236.187 91.6477 236.513 91.6477H239.362C239.769 91.6477 240.013 91.9733 240.013 92.2989C240.013 92.6245 239.769 92.9501 239.362 92.9501Z" fill="#81D4FA"/>
<path d="M233.257 92.9501H169.032C168.625 92.9501 168.381 92.6245 168.381 92.2989C168.381 91.9733 168.706 91.6477 169.032 91.6477H233.257C233.664 91.6477 233.908 91.9733 233.908 92.2989C233.908 92.6245 233.582 92.9501 233.257 92.9501Z" fill="#81D4FA"/>
<path d="M245.63 113.3V130.72C245.63 131.941 244.653 132.918 243.432 132.918H167.73C166.59 132.918 165.614 132.022 165.532 130.883C165.532 130.801 165.532 130.801 165.532 130.72V113.3C165.532 112.079 166.509 111.102 167.73 111.102H243.432C244.572 111.102 245.63 112.079 245.63 113.3Z" fill="#1B75BA"/>
<path d="M243.188 111.102C243.188 111.102 242.618 111.998 242.618 113.463L171.149 115.742V129.336L165.532 130.801C165.532 130.72 165.532 130.72 165.532 130.638V113.219C165.532 111.998 166.509 111.021 167.73 111.021H243.188V111.102Z" fill="#40C5F4"/>
<path d="M167.649 131.534C167.161 131.534 166.835 131.127 166.835 130.72V113.3C166.835 112.812 167.242 112.486 167.649 112.486H243.351C243.839 112.486 244.165 112.893 244.165 113.3V130.72C244.165 131.208 243.758 131.534 243.351 131.534H167.649Z" fill="#26A8DF"/>
<path d="M208.268 118.591V120.138V120.545L208.593 120.707L209.407 121.196V122.824L208.593 123.312L208.268 123.475V123.882V125.429H173.103V118.591H208.268ZM208.919 117.94H172.37V126.08H208.919V123.882L210.058 123.231V120.87L208.919 120.219V117.94Z" fill="#81D4FA"/>
<path d="M237.164 119.812C238.385 119.812 239.362 120.789 239.362 122.01C239.362 123.231 238.385 124.208 237.164 124.208C235.943 124.208 234.966 123.231 234.966 122.01C234.966 120.789 235.943 119.812 237.164 119.812ZM237.164 119.079C235.536 119.079 234.233 120.382 234.233 122.01C234.233 123.638 235.536 124.94 237.164 124.94C238.792 124.94 240.094 123.638 240.094 122.01C240.013 120.382 238.792 119.079 237.164 119.079Z" fill="#81D4FA"/>
<path d="M232.036 122.01C232.036 123.638 230.733 124.94 229.105 124.94C227.477 124.94 226.175 123.638 226.175 122.01C226.175 120.382 227.477 119.079 229.105 119.079C230.733 119.079 232.036 120.382 232.036 122.01Z" fill="#81D4FA"/>
<path d="M218.686 122.01C218.686 122.661 218.198 123.149 217.547 123.149C216.896 123.149 216.407 122.661 216.407 122.01C216.407 121.359 216.896 120.87 217.547 120.87C218.198 120.87 218.686 121.359 218.686 122.01Z" fill="#81D4FA"/>
<path opacity="0.15" d="M245.63 124.452V130.72C245.63 131.941 244.653 132.917 243.432 132.917H167.73C166.59 132.917 165.614 132.022 165.532 130.882C165.532 130.801 165.532 130.801 165.532 130.72V124.37C177.986 125.022 222.024 127.057 245.63 124.452Z" fill="#231F20"/>
<path d="M242.455 115.172H242.211C241.804 115.172 241.56 114.847 241.56 114.521C241.56 114.195 241.885 113.87 242.211 113.87H242.455C242.862 113.87 243.106 114.195 243.106 114.521C243.106 114.847 242.781 115.172 242.455 115.172Z" fill="#81D4FA"/>
<path d="M239.362 115.172H236.513C236.106 115.172 235.861 114.847 235.861 114.521C235.861 114.195 236.187 113.87 236.513 113.87H239.362C239.769 113.87 240.013 114.195 240.013 114.521C240.013 114.847 239.769 115.172 239.362 115.172Z" fill="#81D4FA"/>
<path d="M233.257 115.172H169.032C168.625 115.172 168.381 114.847 168.381 114.521C168.381 114.195 168.706 113.87 169.032 113.87H233.257C233.664 113.87 233.908 114.195 233.908 114.521C233.908 114.847 233.582 115.172 233.257 115.172Z" fill="#81D4FA"/>
<path d="M76.0731 67.2277C75.9917 65.2741 74.3637 63.6461 72.4101 63.6461C72.3287 63.6461 72.3287 63.6461 72.2473 63.6461C71.8403 61.6925 70.1309 60.2273 68.0959 60.2273C66.0609 60.2273 64.2701 61.6925 63.9445 63.6461C63.7817 63.6461 63.6189 63.6461 63.3747 63.6461C61.4211 63.6461 59.7931 65.1927 59.7117 67.2277H58.3279C56.5371 67.2277 55.1533 68.6929 55.1533 70.4023C55.1533 72.1931 56.6185 73.5769 58.3279 73.5769H75.6661C77.4569 73.5769 78.8407 72.1117 78.8407 70.4023C78.8407 68.7743 77.6197 67.3905 76.0731 67.2277Z" fill="#81D4FA"/>
<path d="M74.6904 66.8201C74.609 64.9479 73.1438 63.4827 71.1902 63.4827C71.1088 63.4827 71.1088 63.4827 71.0274 63.4827C70.7018 61.6919 69.0738 60.3081 67.1202 60.3081C65.1666 60.3081 63.5386 61.6919 63.213 63.5641C63.0502 63.5641 62.8874 63.5641 62.7246 63.5641C60.8524 63.5641 59.3058 65.0293 59.2244 66.9015H57.922C56.294 66.9015 54.9102 68.2039 54.9102 69.9133C54.9102 71.6227 56.2126 72.9251 57.922 72.9251H74.202C75.83 72.9251 77.2138 71.6227 77.2138 69.9133C77.2952 68.2039 76.1556 66.9829 74.6904 66.8201Z" fill="#CAEAFF"/>
<path d="M356.986 70.9715C356.904 69.1807 355.439 67.7155 353.567 67.7155C353.485 67.7155 353.485 67.7155 353.404 67.7155C353.078 65.9247 351.45 64.6223 349.578 64.6223C347.706 64.6223 346.078 66.0061 345.752 67.7969C345.589 67.7969 345.427 67.7969 345.264 67.7969C343.473 67.7969 341.927 69.2621 341.845 71.0529H340.543C338.915 71.0529 337.612 72.3553 337.612 73.9833C337.612 75.6113 338.915 76.9137 340.543 76.9137H356.416C358.044 76.9137 359.346 75.6113 359.346 73.9833C359.509 72.3553 358.369 71.1343 356.986 70.9715Z" fill="#81D4FA"/>
<path d="M355.764 70.5651C355.683 68.8557 354.299 67.4719 352.59 67.4719H352.508C352.183 65.7625 350.717 64.5415 348.927 64.5415C347.136 64.5415 345.671 65.8439 345.345 67.4719C345.182 67.4719 345.019 67.4719 344.857 67.4719C343.147 67.4719 341.763 68.8557 341.682 70.5651H340.461C338.914 70.5651 337.693 71.7861 337.693 73.3327C337.693 74.8793 338.914 76.1003 340.461 76.1003H355.357C356.904 76.1003 358.125 74.8793 358.125 73.3327C358.125 71.9489 357.067 70.8093 355.764 70.5651Z" fill="#CAEAFF"/>
<path d="M294.063 47.2848C293.981 45.087 292.19 43.3776 289.993 43.3776C289.911 43.3776 289.911 43.3776 289.83 43.3776C289.423 41.2612 287.551 39.6332 285.271 39.6332C282.992 39.6332 281.12 41.2612 280.713 43.3776C280.55 43.3776 280.306 43.2962 280.143 43.2962C277.945 43.2962 276.155 45.0056 276.073 47.2034H274.527C272.573 47.2034 271.026 48.75 271.026 50.7036C271.026 52.6572 272.573 54.2038 274.527 54.2038H293.493C295.446 54.2038 296.993 52.6572 296.993 50.7036C296.993 48.9942 295.691 47.529 294.063 47.2848Z" fill="#81D4FA"/>
<path d="M292.598 46.7964C292.516 44.7614 290.888 43.1334 288.772 43.1334C288.691 43.1334 288.691 43.1334 288.609 43.1334C288.202 41.0984 286.411 39.6332 284.295 39.6332C282.179 39.6332 280.388 41.1798 279.981 43.1334C279.818 43.1334 279.655 43.1334 279.411 43.1334C277.376 43.1334 275.667 44.7614 275.585 46.7964H274.201C272.411 46.7964 270.945 48.2616 270.945 50.0524C270.945 51.8432 272.411 53.3084 274.201 53.3084H292.028C293.819 53.3084 295.284 51.8432 295.284 50.0524C295.365 48.4244 294.144 47.0406 292.598 46.7964Z" fill="#CAEAFF"/>
<path d="M93.8196 54.773C93.901 52.0868 96.0988 49.9704 98.785 49.9704C98.8664 49.9704 98.8664 49.9704 98.9478 49.9704C99.4362 47.3656 101.797 45.3306 104.564 45.3306C107.332 45.3306 109.693 47.2842 110.181 49.9704C110.425 49.9704 110.669 49.889 110.914 49.889C113.6 49.889 115.798 52.0054 115.879 54.6916H117.751C120.112 54.6916 122.065 56.6452 122.065 59.0058C122.065 61.3664 120.112 63.32 117.751 63.32H94.3894C92.0288 63.32 90.0752 61.3664 90.0752 59.0058C90.1566 56.808 91.7032 55.0172 93.8196 54.773Z" fill="#81D4FA"/>
<path d="M93.982 54.041C94.0634 51.5176 96.0984 49.564 98.6218 49.564C98.7032 49.564 98.7032 49.564 98.7846 49.564C99.273 47.122 101.471 45.2498 104.076 45.2498C106.68 45.2498 108.878 47.122 109.367 49.564C109.611 49.564 109.855 49.4826 110.018 49.4826C112.541 49.4826 114.576 51.5176 114.658 53.9596H116.367C118.565 53.9596 120.437 55.7504 120.437 58.0296C120.437 60.3088 118.646 62.0996 116.367 62.0996H94.4704C92.2726 62.0996 90.4004 60.3088 90.4004 58.0296C90.4818 55.9946 92.0284 54.2852 93.982 54.041Z" fill="white"/>
<path d="M132.321 221.725H15.1055V354H132.321V221.725Z" fill="#2B97EF"/>
<path d="M73.7135 236.214C106.082 236.214 132.321 229.836 132.321 221.969C132.321 214.102 106.082 207.724 73.7135 207.724C41.3452 207.724 15.1055 214.102 15.1055 221.969C15.1055 229.836 41.3452 236.214 73.7135 236.214Z" fill="#1B75BA"/>
<path d="M109.856 220.992H38.7119V169.141C38.7119 167.675 39.9329 166.454 41.3981 166.454H107.169C108.635 166.454 109.856 167.675 109.856 169.141V220.992Z" fill="#26A8DF"/>
<path d="M107.82 170.85H40.7461V208.945H107.82V170.85Z" fill="#1B75BA"/>
<path d="M38.7116 212.364L27.9668 220.992H120.519L109.855 212.364H38.7116Z" fill="#81D4FA"/>
<path d="M117.1 226.12H31.3856C29.5134 226.12 27.9668 224.574 27.9668 222.702V220.911H120.519V222.702C120.519 224.655 118.972 226.12 117.1 226.12Z" fill="#26A8DF"/>
<path d="M91.6219 194.456H56.9455C56.3757 194.456 55.9688 193.967 55.9688 193.479V181.432C55.9688 180.862 56.4571 180.455 56.9455 180.455H91.6219C92.1917 180.455 92.5988 180.943 92.5988 181.432V193.398C92.5988 193.967 92.1103 194.456 91.6219 194.456Z" fill="#F6AC3B"/>
<path d="M88.5284 183.141H59.957V185.014H88.5284V183.141Z" fill="#E39D29"/>
<path d="M88.5284 186.56H59.957V188.432H88.5284V186.56Z" fill="#E39D29"/>
<path d="M83.97 190.793H79.9814V192.34H83.97V190.793Z" fill="#CB8B20"/>
<path d="M88.5286 190.793H84.54V192.34H88.5286V190.793Z" fill="#CB8B20"/>
<path d="M107.821 168.408H107.007C106.681 168.408 106.355 168.164 106.355 167.757C106.355 167.431 106.6 167.105 107.007 167.105H107.821C108.146 167.105 108.472 167.35 108.472 167.757C108.39 168.164 108.146 168.408 107.821 168.408Z" fill="#81D4FA"/>
<path d="M102.529 168.408H99.5985C99.2729 168.408 98.9473 168.164 98.9473 167.757C98.9473 167.431 99.1915 167.105 99.5985 167.105H102.529C102.854 167.105 103.18 167.35 103.18 167.757C103.18 168.164 102.854 168.408 102.529 168.408Z" fill="#81D4FA"/>
<path d="M93.8197 168.408H40.7469C40.4213 168.408 40.0957 168.164 40.0957 167.757C40.0957 167.431 40.3399 167.105 40.7469 167.105H93.8197C94.1453 167.105 94.4709 167.35 94.4709 167.757C94.3895 168.164 94.1453 168.408 93.8197 168.408Z" fill="#81D4FA"/>
<path d="M118.647 223.109H117.67C117.344 223.109 117.019 222.865 117.019 222.458C117.019 222.051 117.263 221.806 117.67 221.806H118.647C118.972 221.806 119.298 222.051 119.298 222.458C119.298 222.865 118.972 223.109 118.647 223.109Z" fill="#81D4FA"/>
<path d="M114.169 223.109H111.076C110.75 223.109 110.425 222.865 110.425 222.458C110.425 222.051 110.669 221.806 111.076 221.806H114.169C114.495 221.806 114.82 222.051 114.82 222.458C114.82 222.865 114.576 223.109 114.169 223.109Z" fill="#81D4FA"/>
<path d="M107.821 223.109H29.9207C29.5951 223.109 29.2695 222.865 29.2695 222.458C29.2695 222.051 29.5137 221.806 29.9207 221.806H107.821C108.146 221.806 108.472 222.051 108.472 222.458C108.472 222.865 108.146 223.109 107.821 223.109Z" fill="#81D4FA"/>
<path d="M103.994 172.071H41.4793C41.2351 172.071 41.0723 171.908 41.0723 171.664C41.0723 171.42 41.2351 171.257 41.4793 171.257H103.994C104.239 171.257 104.401 171.42 104.401 171.664C104.401 171.908 104.239 172.071 103.994 172.071Z" fill="#81D4FA"/>
<path d="M106.925 172.071H106.436C106.192 172.071 106.029 171.908 106.029 171.664C106.029 171.42 106.192 171.257 106.436 171.257H106.925C107.169 171.257 107.332 171.42 107.332 171.664C107.332 171.908 107.169 172.071 106.925 172.071Z" fill="#81D4FA"/>
<path d="M77.7838 161.977C77.5396 161.977 77.3768 161.896 77.214 161.733C76.2372 160.756 75.0162 160.268 73.6324 160.268C72.2486 160.268 71.0276 160.756 70.0508 161.733C69.7252 162.059 69.2368 162.059 68.9112 161.733C68.5856 161.407 68.5856 160.919 68.9112 160.593C70.1322 159.291 71.8416 158.64 73.6324 158.64C75.4232 158.64 77.1326 159.372 78.3536 160.593C78.6792 160.919 78.6792 161.407 78.3536 161.733C78.2722 161.896 78.028 161.977 77.7838 161.977Z" fill="#F6AC3B"/>
<path d="M80.0632 159.78C79.819 159.78 79.6562 159.698 79.4934 159.535C77.9468 157.989 75.9118 157.093 73.714 157.093C71.5162 157.093 69.4812 157.989 67.9346 159.535C67.609 159.861 67.1206 159.861 66.795 159.535C66.4694 159.21 66.4694 158.721 66.795 158.396C68.6672 156.524 71.1092 155.547 73.7954 155.547C76.4816 155.547 78.9236 156.605 80.7958 158.396C81.1214 158.721 81.1214 159.21 80.7958 159.535C80.4702 159.698 80.3074 159.78 80.0632 159.78Z" fill="#F6AC3B"/>
<path d="M82.2605 157.582C82.0163 157.582 81.8535 157.5 81.6907 157.337C79.5743 155.221 76.7253 154 73.7135 154C70.7017 154 67.8527 155.14 65.7363 157.337C65.4107 157.663 64.9223 157.663 64.5967 157.337C64.2711 157.012 64.2711 156.523 64.5967 156.198C67.0387 153.756 70.2947 152.453 73.7135 152.453C77.1323 152.453 80.3883 153.756 82.8303 156.198C83.1559 156.523 83.1559 157.012 82.8303 157.337C82.6675 157.5 82.4233 157.582 82.2605 157.582Z" fill="#F6AC3B"/>
<path d="M395.976 221.725H278.76V354H395.976V221.725Z" fill="#2B97EF"/>
<path d="M337.287 236.214C369.655 236.214 395.895 229.836 395.895 221.969C395.895 214.102 369.655 207.724 337.287 207.724C304.918 207.724 278.679 214.102 278.679 221.969C278.679 229.836 304.918 236.214 337.287 236.214Z" fill="#1B75BA"/>
<path d="M373.51 220.992H302.366V169.141C302.366 167.675 303.587 166.454 305.052 166.454H370.824C372.289 166.454 373.51 167.675 373.51 169.141V220.992Z" fill="#26A8DF"/>
<path d="M371.474 170.85H304.4V208.945H371.474V170.85Z" fill="#1B75BA"/>
<path d="M302.366 212.364L291.621 220.992H384.173L373.509 212.364H302.366Z" fill="#81D4FA"/>
<path d="M380.754 226.12H295.04C293.168 226.12 291.621 224.574 291.621 222.702V220.911H384.173V222.702C384.173 224.655 382.626 226.12 380.754 226.12Z" fill="#26A8DF"/>
<path d="M355.276 194.456H320.6C320.03 194.456 319.623 193.967 319.623 193.479V181.432C319.623 180.862 320.111 180.455 320.6 180.455H355.276C355.846 180.455 356.253 180.943 356.253 181.432V193.398C356.253 193.967 355.765 194.456 355.276 194.456Z" fill="#F6AC3B"/>
<path d="M352.183 183.141H323.611V185.014H352.183V183.141Z" fill="#E39D29"/>
<path d="M352.183 186.56H323.611V188.432H352.183V186.56Z" fill="#E39D29"/>
<path d="M347.624 190.793H343.636V192.34H347.624V190.793Z" fill="#CB8B20"/>
<path d="M352.183 190.793H348.194V192.34H352.183V190.793Z" fill="#CB8B20"/>
<path d="M371.475 168.408H370.661C370.335 168.408 370.01 168.164 370.01 167.757C370.01 167.431 370.254 167.105 370.661 167.105H371.475C371.801 167.105 372.126 167.35 372.126 167.757C372.045 168.164 371.801 168.408 371.475 168.408Z" fill="#81D4FA"/>
<path d="M366.183 168.408H363.253C362.927 168.408 362.602 168.164 362.602 167.757C362.602 167.431 362.846 167.105 363.253 167.105H366.183C366.509 167.105 366.834 167.35 366.834 167.757C366.834 168.164 366.509 168.408 366.183 168.408Z" fill="#81D4FA"/>
<path d="M357.474 168.408H304.401C304.076 168.408 303.75 168.164 303.75 167.757C303.75 167.431 303.994 167.105 304.401 167.105H357.474C357.8 167.105 358.125 167.35 358.125 167.757C358.044 168.164 357.8 168.408 357.474 168.408Z" fill="#81D4FA"/>
<path d="M382.301 223.109H381.324C380.998 223.109 380.673 222.865 380.673 222.458C380.673 222.051 380.917 221.806 381.324 221.806H382.301C382.626 221.806 382.952 222.051 382.952 222.458C382.952 222.865 382.626 223.109 382.301 223.109Z" fill="#81D4FA"/>
<path d="M377.824 223.109H374.812C374.487 223.109 374.161 222.865 374.161 222.458C374.161 222.051 374.405 221.806 374.812 221.806H377.906C378.231 221.806 378.557 222.051 378.557 222.458C378.557 222.865 378.231 223.109 377.824 223.109Z" fill="#81D4FA"/>
<path d="M371.475 223.109H293.575C293.249 223.109 292.924 222.865 292.924 222.458C292.924 222.051 293.168 221.806 293.575 221.806H371.475C371.8 221.806 372.126 222.051 372.126 222.458C372.126 222.865 371.8 223.109 371.475 223.109Z" fill="#81D4FA"/>
<path d="M367.649 172.071H305.134C304.889 172.071 304.727 171.908 304.727 171.664C304.727 171.42 304.889 171.257 305.134 171.257H367.649C367.893 171.257 368.056 171.42 368.056 171.664C368.056 171.908 367.893 172.071 367.649 172.071Z" fill="#81D4FA"/>
<path d="M370.579 172.071H370.091C369.846 172.071 369.684 171.908 369.684 171.664C369.684 171.42 369.846 171.257 370.091 171.257H370.579C370.823 171.257 370.986 171.42 370.986 171.664C370.986 171.908 370.823 172.071 370.579 172.071Z" fill="#81D4FA"/>
<path d="M341.438 161.977C341.194 161.977 341.031 161.896 340.868 161.733C339.891 160.756 338.67 160.268 337.287 160.268C335.903 160.268 334.682 160.756 333.705 161.733C333.379 162.059 332.891 162.059 332.565 161.733C332.24 161.407 332.24 160.919 332.565 160.593C333.786 159.291 335.496 158.64 337.287 158.64C339.077 158.64 340.787 159.372 342.008 160.593C342.334 160.919 342.334 161.407 342.008 161.733C341.927 161.896 341.682 161.977 341.438 161.977Z" fill="#F6AC3B"/>
<path d="M343.717 159.78C343.473 159.78 343.31 159.698 343.148 159.535C341.601 157.989 339.566 157.093 337.368 157.093C335.17 157.093 333.135 157.989 331.589 159.535C331.263 159.861 330.775 159.861 330.449 159.535C330.124 159.21 330.124 158.721 330.449 158.396C332.321 156.524 334.763 155.547 337.45 155.547C340.136 155.547 342.578 156.605 344.45 158.396C344.776 158.721 344.776 159.21 344.45 159.535C344.124 159.698 343.962 159.78 343.717 159.78Z" fill="#F6AC3B"/>
<path d="M345.915 157.582C345.671 157.582 345.508 157.5 345.345 157.337C343.229 155.221 340.38 154 337.368 154C334.356 154 331.507 155.14 329.391 157.337C329.065 157.663 328.577 157.663 328.251 157.337C327.925 157.012 327.925 156.523 328.251 156.198C330.693 153.756 333.949 152.453 337.368 152.453C340.787 152.453 344.043 153.756 346.485 156.198C346.81 156.523 346.81 157.012 346.485 157.337C346.322 157.5 346.078 157.582 345.915 157.582Z" fill="#F6AC3B"/>
<path d="M270.213 269.832H140.787V354H270.213V269.832Z" fill="#2B97EF"/>
<path d="M205.5 285.787C241.24 285.787 270.213 278.753 270.213 270.077C270.213 261.4 241.24 254.366 205.5 254.366C169.76 254.366 140.787 261.4 140.787 270.077C140.787 278.753 169.76 285.787 205.5 285.787Z" fill="#1B75BA"/>
<path d="M244.817 269.018H166.266V211.713C166.266 210.085 167.568 208.782 169.196 208.782H241.886C243.514 208.782 244.817 210.085 244.817 211.713V269.018Z" fill="#26A8DF"/>
<path d="M242.537 213.666H168.463V255.75H242.537V213.666Z" fill="#1B75BA"/>
<path d="M166.184 259.495L154.381 269.018H256.619L244.816 259.495H166.184Z" fill="#81D4FA"/>
<path d="M252.875 274.716H158.125C156.09 274.716 154.381 273.007 154.381 270.972V269.018H256.538V270.972C256.619 273.007 254.91 274.716 252.875 274.716Z" fill="#26A8DF"/>
<path d="M224.629 239.714H186.371C185.72 239.714 185.231 239.226 185.231 238.575V225.388C185.231 224.737 185.72 224.248 186.371 224.248H224.629C225.28 224.248 225.769 224.737 225.769 225.388V238.656C225.769 239.226 225.28 239.714 224.629 239.714Z" fill="#F6AC3B"/>
<path d="M221.291 227.179H189.708V229.214H221.291V227.179Z" fill="#E39D29"/>
<path d="M221.291 230.923H189.708V232.958H221.291V230.923Z" fill="#E39D29"/>
<path d="M216.163 235.644H211.768V237.354H216.163V235.644Z" fill="#CB8B20"/>
<path d="M221.292 235.644H216.896V237.354H221.292V235.644Z" fill="#CB8B20"/>
<path d="M242.537 210.98H241.641C241.234 210.98 240.99 210.655 240.99 210.329C240.99 209.922 241.316 209.678 241.641 209.678H242.537C242.944 209.678 243.188 210.003 243.188 210.329C243.188 210.655 242.944 210.98 242.537 210.98Z" fill="#81D4FA"/>
<path d="M236.758 210.98H233.502C233.095 210.98 232.851 210.655 232.851 210.329C232.851 209.922 233.176 209.678 233.502 209.678H236.758C237.165 209.678 237.409 210.003 237.409 210.329C237.409 210.655 237.083 210.98 236.758 210.98Z" fill="#81D4FA"/>
<path d="M227.071 210.98H168.463C168.056 210.98 167.812 210.655 167.812 210.329C167.812 209.922 168.137 209.678 168.463 209.678H227.071C227.478 209.678 227.722 210.003 227.722 210.329C227.803 210.655 227.478 210.98 227.071 210.98Z" fill="#81D4FA"/>
<path d="M254.502 271.298H253.444C253.037 271.298 252.793 270.972 252.793 270.646C252.793 270.239 253.119 269.995 253.444 269.995H254.502C254.909 269.995 255.154 270.321 255.154 270.646C255.154 271.053 254.909 271.298 254.502 271.298Z" fill="#81D4FA"/>
<path d="M249.619 271.298H246.2C245.793 271.298 245.549 270.972 245.549 270.646C245.549 270.239 245.874 269.995 246.2 269.995H249.619C250.026 269.995 250.27 270.321 250.27 270.646C250.27 271.053 250.026 271.298 249.619 271.298Z" fill="#81D4FA"/>
<path d="M242.537 271.298H156.579C156.172 271.298 155.928 270.972 155.928 270.646C155.928 270.239 156.253 269.995 156.579 269.995H242.537C242.944 269.995 243.189 270.321 243.189 270.646C243.189 271.053 242.944 271.298 242.537 271.298Z" fill="#81D4FA"/>
<path d="M238.385 215.05H169.358C169.114 215.05 168.951 214.887 168.951 214.643C168.951 214.399 169.114 214.236 169.358 214.236H238.385C238.63 214.236 238.792 214.399 238.792 214.643C238.792 214.887 238.548 215.05 238.385 215.05Z" fill="#81D4FA"/>
<path d="M241.642 215.05H241.072C240.828 215.05 240.665 214.887 240.665 214.643C240.665 214.399 240.828 214.236 241.072 214.236H241.642C241.886 214.236 242.049 214.399 242.049 214.643C242.049 214.887 241.805 215.05 241.642 215.05Z" fill="#81D4FA"/>
<path d="M205.5 140.081V141.302" stroke="#81D4FA" stroke-width="3" stroke-linecap="round" stroke-linejoin="round"/>
<path d="M205.5 145.616V184.444" stroke="#81D4FA" stroke-width="3" stroke-linecap="round" stroke-linejoin="round" stroke-dasharray="3.15 3.15"/>
<path d="M205.5 186.56V187.781" stroke="#81D4FA" stroke-width="3" stroke-linecap="round" stroke-linejoin="round"/>
<path d="M221.699 140.081L251.899 180.618H296.75" stroke="#81D4FA" stroke-width="3" stroke-miterlimit="10" stroke-linecap="round" stroke-linejoin="round" stroke-dasharray="3 3"/>
<path d="M189.302 140.081L159.102 180.618H114.251" stroke="#81D4FA" stroke-width="3" stroke-miterlimit="10" stroke-linecap="round" stroke-linejoin="round" stroke-dasharray="3 3"/>
<path d="M209.651 204.061C209.407 204.061 209.244 203.98 209.081 203.817C208.104 202.84 206.883 202.352 205.5 202.352C204.116 202.352 202.895 202.84 201.918 203.817C201.592 204.143 201.104 204.143 200.778 203.817C200.453 203.491 200.453 203.003 200.778 202.677C201.999 201.375 203.709 200.724 205.5 200.724C207.29 200.724 209 201.456 210.221 202.677C210.546 203.003 210.546 203.491 210.221 203.817C210.058 203.98 209.895 204.061 209.651 204.061Z" fill="#F6AC3B"/>
<path d="M211.849 201.782C211.605 201.782 211.442 201.701 211.28 201.538C209.733 199.991 207.698 199.096 205.5 199.096C203.302 199.096 201.267 199.991 199.721 201.538C199.395 201.863 198.907 201.863 198.581 201.538C198.256 201.212 198.256 200.724 198.581 200.398C200.453 198.526 202.895 197.549 205.582 197.549C208.268 197.549 210.71 198.607 212.582 200.398C212.908 200.724 212.908 201.212 212.582 201.538C212.338 201.701 212.094 201.782 211.849 201.782Z" fill="#F6AC3B"/>
<path d="M214.047 199.666C213.802 199.666 213.64 199.584 213.477 199.421C211.36 197.305 208.511 196.084 205.5 196.084C202.488 196.084 199.639 197.224 197.522 199.421C197.197 199.747 196.708 199.747 196.383 199.421C196.057 199.096 196.057 198.607 196.383 198.282C198.825 195.84 202.081 194.537 205.5 194.537C208.918 194.537 212.174 195.84 214.616 198.282C214.942 198.607 214.942 199.096 214.616 199.421C214.454 199.584 214.291 199.666 214.047 199.666Z" fill="#F6AC3B"/>
<path d="M329.391 96.8573C329.309 93.6013 326.623 91.0779 323.367 91.0779C323.286 91.0779 323.204 91.0779 323.123 91.0779C322.472 87.9033 319.704 85.5427 316.367 85.5427C313.029 85.5427 310.18 87.9033 309.611 91.1593C309.285 91.0779 309.041 91.0779 308.715 91.0779C305.459 91.0779 302.854 93.6827 302.692 96.8573H300.494C297.645 96.8573 295.284 99.1365 295.284 102.067C295.284 104.916 297.563 107.277 300.494 107.277H328.658C331.507 107.277 333.868 104.997 333.868 102.067C333.786 99.3807 331.914 97.2643 329.391 96.8573Z" fill="#81D4FA"/>
<path d="M327.193 96.2061C327.112 93.1943 324.588 90.7523 321.577 90.7523C321.495 90.7523 321.414 90.7523 321.332 90.7523C320.763 87.7405 318.158 85.5427 314.983 85.5427C311.809 85.5427 309.204 87.8219 308.634 90.7523C308.39 90.7523 308.064 90.6709 307.82 90.6709C304.808 90.6709 302.285 93.1129 302.203 96.1247H300.087C297.401 96.1247 295.203 98.3225 295.203 101.009C295.203 103.695 297.401 105.893 300.087 105.893H326.542C329.228 105.893 331.426 103.695 331.426 101.009C331.345 98.5667 329.554 96.5317 327.193 96.2061Z" fill="white"/>
<path d="M275.422 78.0534C275.341 74.7974 272.654 72.274 269.398 72.274C269.317 72.274 269.236 72.274 269.154 72.274C268.503 69.0994 265.735 66.7388 262.398 66.7388C259.061 66.7388 256.212 69.0994 255.642 72.3554C255.316 72.274 255.072 72.274 254.746 72.274C251.49 72.274 248.886 74.8788 248.723 78.0534H246.525C243.676 78.0534 241.315 80.3326 241.315 83.263C241.315 86.112 243.595 88.4726 246.525 88.4726H274.689C277.538 88.4726 279.899 86.1934 279.899 83.263C279.818 80.5768 277.864 78.379 275.422 78.0534Z" fill="#81D4FA"/>
<path d="M273.225 77.3214C273.143 74.3096 270.62 71.8676 267.608 71.8676C267.527 71.8676 267.445 71.8676 267.364 71.8676C266.794 68.8558 264.189 66.658 261.015 66.658C257.84 66.658 255.235 68.9372 254.665 71.8676C254.421 71.8676 254.096 71.7862 253.851 71.7862C250.84 71.7862 248.316 74.2282 248.235 77.24H246.118C243.432 77.24 241.234 79.4378 241.234 82.124C241.234 84.8102 243.432 87.0079 246.118 87.0079H272.573C275.26 87.0079 277.457 84.8102 277.457 82.124C277.376 79.682 275.585 77.647 273.225 77.3214Z" fill="white"/>
<path d="M214.454 20.0965C214.372 17.8173 212.5 15.9451 210.14 15.9451C210.058 15.9451 210.058 15.9451 209.977 15.9451C209.488 13.6659 207.535 11.9565 205.174 11.9565C202.814 11.9565 200.779 13.6659 200.372 15.9451C200.127 15.9451 199.965 15.8637 199.72 15.8637C197.441 15.8637 195.569 17.7359 195.406 20.0151H193.778C191.743 20.0151 190.115 21.6431 190.115 23.6781C190.115 25.7131 191.743 27.3411 193.778 27.3411H213.884C215.919 27.3411 217.547 25.7131 217.547 23.6781C217.628 21.8873 216.245 20.3407 214.454 20.0965Z" fill="#81D4FA"/>
<path d="M212.826 19.5273C212.745 17.3295 210.954 15.6201 208.838 15.6201C208.756 15.6201 208.756 15.6201 208.675 15.6201C208.268 13.5037 206.396 11.8757 204.116 11.8757C201.837 11.8757 199.965 13.5037 199.558 15.6201C199.395 15.6201 199.151 15.5387 198.988 15.5387C196.79 15.5387 195.081 17.2481 195 19.4459H193.534C191.581 19.4459 190.034 20.9925 190.034 22.9461C190.034 24.8997 191.581 26.4463 193.534 26.4463H212.419C214.373 26.4463 215.919 24.8997 215.919 22.9461C215.838 21.2367 214.536 19.7715 212.826 19.5273Z" fill="white"/>
<path d="M112.135 101.09C112.297 94.9851 117.344 90.1011 123.531 90.1011C123.693 90.1011 123.775 90.1011 123.938 90.1011C125.159 84.0775 130.45 79.6005 136.799 79.6005C143.148 79.6005 148.52 84.1589 149.66 90.1825C150.23 90.1011 150.718 90.1011 151.288 90.1011C157.393 90.1011 162.44 94.9851 162.684 101.09H166.917C172.371 101.09 176.766 105.486 176.766 110.939C176.766 116.393 172.371 120.789 166.917 120.789H113.518C108.065 120.789 103.669 116.393 103.669 110.939C103.669 105.811 107.413 101.741 112.135 101.09Z" fill="#81D4FA"/>
<path d="M112.461 99.3807C112.623 93.6827 117.345 89.0429 123.124 89.0429C123.287 89.0429 123.368 89.0429 123.531 89.0429C124.671 83.4263 129.636 79.1121 135.578 79.1121C141.602 79.1121 146.567 83.3449 147.625 89.0429C148.114 88.9615 148.684 88.9615 149.172 88.9615C154.951 88.9615 159.673 93.5199 159.835 99.2179H163.824C168.952 99.2179 173.022 103.369 173.022 108.416C173.022 113.463 168.871 117.614 163.824 117.614H113.682C108.553 117.614 104.483 113.463 104.483 108.416C104.483 103.858 107.984 100.032 112.461 99.3807Z" fill="white"/>
</g>
<defs>
<clipPath id="clip0">
<rect width="407" height="300" fill="white"/>
</clipPath>
</defs>
</svg>
